<?xml version="1.0" standalone="no"?>
<!DOCTYPE svg PUBLIC "-//W3C//DTD SVG 20010904//EN"
 "http://www.w3.org/TR/2001/REC-SVG-20010904/DTD/svg10.dtd">
<svg version="1.0" xmlns="http://www.w3.org/2000/svg"
 width="700.000000pt" height="700.000000pt" viewBox="0 0 700.000000 700.000000"
 preserveAspectRatio="xMidYMid meet">
<metadata>
Created by potrace 1.11, written by Peter Selinger 2001-2013
</metadata>
<g transform="translate(0.000000,700.000000) scale(0.100000,-0.100000)"
fill="#000000" stroke="none">
<path d="M3337 6674 c-1 -1 -43 -5 -94 -8 -50 -4 -102 -9 -115 -11 -13 -2 -43
-6 -68 -9 -25 -3 -56 -8 -70 -11 -13 -2 -40 -7 -60 -10 -19 -3 -82 -17 -140
-30 -58 -14 -116 -27 -129 -30 -48 -11 -268 -87 -351 -122 -670 -276 -1235
-783 -1570 -1408 -24 -44 -47 -87 -51 -95 -27 -47 -97 -211 -134 -313 -82
-220 -151 -498 -170 -687 -2 -14 -6 -51 -10 -82 -14 -117 -21 -443 -11 -538 2
-19 7 -66 11 -105 3 -38 8 -81 10 -95 2 -14 6 -43 9 -65 3 -22 11 -65 17 -95
5 -30 12 -66 15 -80 36 -198 145 -513 255 -732 122 -247 232 -415 407 -627
363 -436 859 -779 1385 -957 144 -48 270 -85 337 -99 84 -17 201 -37 243 -41
29 -3 54 -7 57 -9 30 -18 524 -27 675 -12 70 7 292 39 350 51 234 47 543 155
767 266 153 77 421 244 513 321 11 9 61 50 110 92 499 414 863 999 1024 1642
38 154 50 217 67 349 3 27 7 56 9 65 7 39 17 247 17 362 -1 249 -30 488 -92
739 -29 116 -81 289 -105 345 -7 17 -25 62 -40 100 -43 108 -167 349 -237 460
-59 94 -163 244 -178 255 -3 3 -19 23 -35 45 -75 103 -301 336 -435 447 -455
380 -990 619 -1570 702 -176 25 -228 29 -423 31 -103 1 -188 1 -190 -1z m-337
-727 c8 -2 33 -7 55 -12 121 -23 244 -118 296 -228 38 -82 48 -142 45 -257 -7
-188 -89 -348 -211 -413 -54 -28 -59 -29 -140 -30 -87 -1 -146 25 -205 90 -76
82 -119 215 -114 356 l2 68 -61 -6 c-204 -21 -368 -112 -487 -271 -63 -84
-124 -222 -144 -329 -4 -16 -9 -41 -12 -55 -17 -85 -23 -298 -11 -385 60 -416
256 -737 570 -934 37 -24 67 -44 67 -47 0 -2 -7 -23 -15 -47 -19 -57 -65 -269
-65 -302 0 -14 -6 -25 -13 -25 -7 0 -48 20 -91 45 -44 25 -81 45 -83 45 -18 0
-217 162 -293 239 -204 205 -342 462 -429 796 -24 93 -39 228 -39 357 -2 495
191 906 535 1141 162 110 377 188 578 209 37 4 245 0 265 -5z m1420 -2 c188
-34 357 -99 504 -195 92 -60 246 -211 300 -293 66 -102 140 -268 161 -363 28
-129 35 -171 41 -244 3 -47 7 -97 9 -112 3 -35 -3 -35 -63 2 -64 39 -203 104
-270 126 -60 19 -63 24 -82 124 -54 295 -296 500 -619 526 l-66 5 1 -88 c5
-285 -173 -474 -392 -417 -191 49 -309 297 -271 569 8 55 64 175 101 216 98
111 251 160 481 154 72 -2 146 -7 165 -10z m-1784 -1087 c307 -47 522 -122
759 -267 287 -175 505 -401 703 -727 76 -126 127 -227 152 -298 l19 -56 -74
-35 c-66 -30 -187 -72 -256 -88 -24 -6 -27 -3 -39 36 -22 73 -127 264 -216
392 -57 81 -169 208 -235 266 -34 30 -67 59 -74 65 -23 23 -162 112 -237 152
-199 108 -442 173 -653 176 -99 1 -242 -14 -310 -34 -39 -11 -70 -20 -71 -20
0 0 -1 6 -1 13 0 6 -4 37 -8 67 -7 57 -8 260 -1 295 3 11 5 23 5 26 1 4 18 10
39 14 20 5 46 10 57 12 74 16 126 20 246 20 74 0 162 -3 195 -9z m2109 -2 c17
-3 46 -9 65 -12 39 -7 80 -15 95 -18 6 -2 24 -6 40 -10 263 -66 504 -195 714
-383 177 -160 300 -343 380 -568 39 -110 59 -374 39 -505 -31 -200 -95 -370
-194 -517 -112 -166 -226 -241 -377 -248 -194 -9 -412 129 -512 322 -25 51
-29 69 -30 143 0 101 22 157 84 213 64 58 120 78 219 78 98 0 181 -26 280 -88
29 -18 54 -33 56 -33 3 0 16 26 31 58 122 265 62 568 -156 793 -176 180 -416
312 -679 372 -166 39 -353 43 -530 12 -66 -12 -215 -66 -301 -110 l-87 -44
-58 58 c-62 60 -172 154 -214 182 -14 9 -23 19 -20 22 19 17 180 111 250 145
92 45 272 108 335 118 22 3 42 7 45 9 3 2 33 7 65 10 33 4 62 9 64 11 6 6 362
-3 396 -10z m-3199 -333 c1 -86 12 -188 33 -285 10 -49 15 -88 12 -88 -12 0
-110 -100 -149 -152 -125 -164 -167 -385 -113 -583 20 -73 67 -185 77 -185 3
0 26 14 51 31 78 54 210 96 288 92 76 -4 103 -11 153 -38 103 -57 161 -169
148 -284 -25 -209 -275 -426 -504 -436 -122 -5 -221 35 -315 128 -34 34 -69
71 -77 82 -103 139 -189 342 -216 511 -3 20 -8 46 -11 58 -12 48 -10 275 3
351 47 273 192 519 419 708 77 64 184 144 195 146 3 1 6 -25 6 -56z m3584
-275 c41 -22 110 -64 152 -94 l77 -54 -23 -67 c-144 -424 -436 -739 -888 -957
-112 -54 -282 -120 -338 -131 -8 -2 -33 -8 -56 -14 -66 -18 -148 -33 -274 -50
-85 -12 -461 -12 -525 -1 -27 5 -76 15 -108 21 l-59 12 6 66 c3 36 8 82 11
101 7 42 45 193 50 198 2 2 41 -4 87 -13 119 -25 450 -25 568 0 14 3 52 10 85
16 84 15 279 81 355 119 381 192 633 465 725 786 14 49 27 95 30 102 6 18 32
9 125 -40z m-1922 -84 c60 -39 129 -93 200 -159 34 -31 40 -42 30 -50 -32 -25
-111 -128 -164 -215 -141 -233 -229 -474 -260 -717 -5 -44 -6 -308 0 -338 3
-19 17 -104 21 -135 5 -34 46 -179 65 -228 64 -168 149 -302 262 -415 43 -43
78 -80 78 -81 0 -2 -38 -29 -84 -60 -76 -51 -240 -136 -263 -136 -6 0 -30 23
-54 51 -24 29 -49 57 -54 63 -6 6 -39 53 -73 105 -293 439 -368 1041 -195
1572 15 46 27 86 28 89 2 6 8 22 43 105 49 120 148 301 228 418 48 70 124 166
132 167 2 0 29 -16 60 -36z m1183 -1281 c1 -38 1 -86 2 -108 1 -60 -12 -201
-23 -248 -5 -23 -11 -53 -13 -67 -40 -216 -166 -488 -325 -700 -73 -97 -239
-264 -322 -325 -319 -232 -719 -351 -1045 -311 -271 34 -499 148 -701 350
-138 139 -228 279 -279 436 -19 56 -25 175 -13 237 22 115 131 238 271 306
210 103 402 91 514 -31 47 -50 67 -99 71 -172 9 -153 -104 -310 -285 -394 -18
-8 -33 -19 -33 -23 0 -12 97 -132 134 -166 43 -39 128 -94 182 -117 108 -47
264 -67 379 -48 28 4 64 10 80 12 56 9 190 58 279 102 138 69 222 129 336 244
265 264 406 580 414 924 l1 48 125 38 c69 21 150 47 180 58 30 11 58 21 63 21
4 1 7 -29 8 -66z m474 -367 c169 -21 329 -113 412 -236 94 -140 92 -305 -8
-503 -155 -309 -451 -548 -785 -633 -96 -25 -126 -28 -259 -27 -82 0 -163 3
-180 6 -127 24 -301 80 -401 131 l-45 23 68 40 c83 50 180 121 239 175 l44 41
58 -17 c90 -27 92 -27 183 -33 183 -12 350 56 495 203 36 36 77 84 91 107 24
39 25 41 7 54 -10 7 -21 13 -26 13 -15 0 -114 69 -155 109 -181 174 -159 423
46 518 48 23 141 43 166 36 6 -1 28 -5 50 -7z"/>
</g>
</svg>
