<?xml version="1.0" encoding="utf-8"?>
<!-- Generator: Adobe Illustrator 19.1.0, SVG Export Plug-In . SVG Version: 6.00 Build 0)  -->
<svg version="1.1" id="Layer_1" xmlns="http://www.w3.org/2000/svg" xmlns:xlink="http://www.w3.org/1999/xlink" x="0px" y="0px"
	 viewBox="0 0 29.91 30.086" style="enable-background:new 0 0 29.91 30.086;" xml:space="preserve">
<style type="text/css">
	.st0{fill:#4D4D4D;}
	.st1{fill-rule:evenodd;clip-rule:evenodd;fill:#4C4C4C;}
	.st2{fill:#4C4C4C;}
	.st3{fill:#383330;}
	.st4{fill:#1F1A17;}
	.st5{fill:#4D4C4C;}
	.st6{fill:none;stroke:#000000;stroke-width:0.3;stroke-miterlimit:10;}
	.st7{fill:#E61413;}
	.st8{fill:#5F5357;}
	.st9{fill:#115C78;}
	.st10{fill-rule:evenodd;clip-rule:evenodd;fill:#4D4D4D;}
	.st11{fill-rule:evenodd;clip-rule:evenodd;}
	.st12{fill:#FFFFFF;}
	.st13{fill:none;}
	.st14{fill:#231F20;}
	.st15{clip-path:url(#SVGID_2_);}
	.st16{clip-path:url(#SVGID_4_);fill:#FCF118;}
	.st17{clip-path:url(#SVGID_4_);fill:#FCF018;}
	.st18{clip-path:url(#SVGID_4_);fill:#FCEF18;}
	.st19{clip-path:url(#SVGID_4_);fill:#FCEE18;}
	.st20{clip-path:url(#SVGID_4_);fill:#FCED18;}
	.st21{clip-path:url(#SVGID_4_);fill:#FCEC18;}
	.st22{clip-path:url(#SVGID_4_);fill:#FCEB18;}
	.st23{clip-path:url(#SVGID_4_);fill:#FCEA18;}
	.st24{clip-path:url(#SVGID_4_);fill:#FCE918;}
	.st25{clip-path:url(#SVGID_4_);fill:#FCE818;}
	.st26{clip-path:url(#SVGID_4_);fill:#FCE718;}
	.st27{clip-path:url(#SVGID_4_);fill:#FCE617;}
	.st28{clip-path:url(#SVGID_4_);fill:#FCE517;}
	.st29{clip-path:url(#SVGID_4_);fill:#FCE417;}
	.st30{clip-path:url(#SVGID_4_);fill:#FCE317;}
	.st31{clip-path:url(#SVGID_4_);fill:#FCE217;}
	.st32{clip-path:url(#SVGID_4_);fill:#FCE117;}
	.st33{clip-path:url(#SVGID_4_);fill:#FCE017;}
	.st34{clip-path:url(#SVGID_4_);fill:#FCDF17;}
	.st35{clip-path:url(#SVGID_4_);fill:#FCDE17;}
	.st36{clip-path:url(#SVGID_4_);fill:#FCDD17;}
	.st37{clip-path:url(#SVGID_4_);fill:#FCDC17;}
	.st38{clip-path:url(#SVGID_4_);fill:#FCDB17;}
	.st39{clip-path:url(#SVGID_4_);fill:#FCDA17;}
	.st40{clip-path:url(#SVGID_4_);fill:#FCD917;}
	.st41{clip-path:url(#SVGID_4_);fill:#FCD817;}
	.st42{clip-path:url(#SVGID_4_);fill:#FCD717;}
	.st43{clip-path:url(#SVGID_4_);fill:#FCD617;}
	.st44{clip-path:url(#SVGID_4_);fill:#FCD517;}
	.st45{clip-path:url(#SVGID_4_);fill:#FCD416;}
	.st46{clip-path:url(#SVGID_4_);fill:#FCD316;}
	.st47{clip-path:url(#SVGID_4_);fill:#FBD216;}
	.st48{clip-path:url(#SVGID_4_);fill:#FBD116;}
	.st49{clip-path:url(#SVGID_4_);fill:#FBD016;}
	.st50{clip-path:url(#SVGID_4_);fill:#FBCF16;}
	.st51{clip-path:url(#SVGID_4_);fill:#FBCE16;}
	.st52{clip-path:url(#SVGID_4_);fill:#FBCD16;}
	.st53{clip-path:url(#SVGID_4_);fill:#FBCC16;}
	.st54{clip-path:url(#SVGID_4_);fill:#FBCB16;}
	.st55{clip-path:url(#SVGID_4_);fill:#FBCA16;}
	.st56{clip-path:url(#SVGID_4_);fill:#FBC916;}
	.st57{clip-path:url(#SVGID_4_);fill:#FBC816;}
	.st58{clip-path:url(#SVGID_4_);fill:#FBC716;}
	.st59{clip-path:url(#SVGID_4_);fill:#FBC616;}
	.st60{clip-path:url(#SVGID_4_);fill:#FBC516;}
	.st61{clip-path:url(#SVGID_4_);fill:#FBC416;}
	.st62{clip-path:url(#SVGID_4_);fill:#FBC316;}
	.st63{clip-path:url(#SVGID_4_);fill:#FBC216;}
	.st64{clip-path:url(#SVGID_4_);fill:#FBC115;}
	.st65{clip-path:url(#SVGID_4_);fill:#FBC015;}
	.st66{clip-path:url(#SVGID_4_);fill:#FBBF15;}
	.st67{clip-path:url(#SVGID_4_);fill:#FBBE15;}
	.st68{clip-path:url(#SVGID_4_);fill:#FBBD15;}
	.st69{clip-path:url(#SVGID_4_);fill:#FBBC15;}
	.st70{clip-path:url(#SVGID_4_);fill:#FBBB15;}
	.st71{clip-path:url(#SVGID_4_);fill:#FBBA15;}
	.st72{clip-path:url(#SVGID_4_);fill:#FBB915;}
	.st73{clip-path:url(#SVGID_4_);fill:#FBB815;}
	.st74{clip-path:url(#SVGID_4_);fill:#FBB715;}
	.st75{clip-path:url(#SVGID_4_);fill:#FBB615;}
	.st76{clip-path:url(#SVGID_4_);fill:#FBB515;}
	.st77{clip-path:url(#SVGID_4_);fill:#FBB415;}
	.st78{clip-path:url(#SVGID_4_);fill:#FBB315;}
	.st79{clip-path:url(#SVGID_4_);fill:#FBB215;}
	.st80{clip-path:url(#SVGID_4_);fill:#FBB115;}
	.st81{clip-path:url(#SVGID_4_);fill:#FBB015;}
	.st82{clip-path:url(#SVGID_4_);fill:#FBAF15;}
	.st83{clip-path:url(#SVGID_4_);fill:#FAAE15;}
	.st84{clip-path:url(#SVGID_4_);fill:#FAAD14;}
	.st85{clip-path:url(#SVGID_4_);fill:#FAAC14;}
	.st86{clip-path:url(#SVGID_4_);fill:#FAAB14;}
	.st87{clip-path:url(#SVGID_4_);fill:#FAAA14;}
	.st88{clip-path:url(#SVGID_4_);fill:#FAA914;}
	.st89{clip-path:url(#SVGID_4_);fill:#FAA814;}
	.st90{clip-path:url(#SVGID_4_);fill:#FAA714;}
	.st91{clip-path:url(#SVGID_4_);fill:#FAA614;}
	.st92{clip-path:url(#SVGID_4_);fill:#FAA514;}
	.st93{clip-path:url(#SVGID_4_);fill:#FAA414;}
	.st94{clip-path:url(#SVGID_4_);fill:#FAA314;}
	.st95{clip-path:url(#SVGID_4_);fill:#FAA214;}
	.st96{clip-path:url(#SVGID_4_);fill:#FAA114;}
	.st97{clip-path:url(#SVGID_4_);fill:#FAA014;}
	.st98{clip-path:url(#SVGID_4_);fill:#FA9F14;}
	.st99{clip-path:url(#SVGID_4_);fill:#FA9E14;}
	.st100{clip-path:url(#SVGID_4_);fill:#FA9D14;}
	.st101{clip-path:url(#SVGID_4_);fill:#FA9C14;}
	.st102{clip-path:url(#SVGID_4_);fill:#FA9B14;}
	.st103{clip-path:url(#SVGID_4_);fill:#FA9A13;}
	.st104{clip-path:url(#SVGID_4_);fill:#FA9913;}
	.st105{clip-path:url(#SVGID_4_);fill:#FA9813;}
	.st106{clip-path:url(#SVGID_4_);fill:#FA9713;}
	.st107{clip-path:url(#SVGID_4_);fill:#FA9613;}
	.st108{clip-path:url(#SVGID_4_);fill:#FA9513;}
	.st109{clip-path:url(#SVGID_4_);fill:#FA9413;}
	.st110{clip-path:url(#SVGID_4_);fill:#FA9313;}
	.st111{clip-path:url(#SVGID_4_);fill:#FA9213;}
	.st112{clip-path:url(#SVGID_4_);fill:#FA9113;}
	.st113{clip-path:url(#SVGID_4_);fill:#FA9013;}
	.st114{clip-path:url(#SVGID_4_);fill:#FA8F13;}
	.st115{clip-path:url(#SVGID_4_);fill:#FA8E13;}
	.st116{clip-path:url(#SVGID_4_);fill:#FA8D13;}
	.st117{clip-path:url(#SVGID_4_);fill:#FA8C13;}
	.st118{clip-path:url(#SVGID_4_);fill:#FA8B13;}
	.st119{clip-path:url(#SVGID_4_);fill:#FA8A13;}
	.st120{clip-path:url(#SVGID_4_);fill:#FA8913;}
	.st121{clip-path:url(#SVGID_4_);fill:#FA8812;}
	.st122{clip-path:url(#SVGID_4_);fill:#FA8712;}
	.st123{clip-path:url(#SVGID_4_);fill:#FA8612;}
	.st124{clip-path:url(#SVGID_4_);fill:#F98512;}
	.st125{clip-path:url(#SVGID_4_);fill:#F98412;}
	.st126{clip-path:url(#SVGID_4_);fill:#F98312;}
	.st127{clip-path:url(#SVGID_4_);fill:#F98212;}
	.st128{clip-path:url(#SVGID_4_);fill:#F98112;}
	.st129{clip-path:url(#SVGID_4_);fill:#F98012;}
	.st130{clip-path:url(#SVGID_4_);fill:#F97F12;}
	.st131{clip-path:url(#SVGID_4_);fill:#F97E12;}
	.st132{clip-path:url(#SVGID_4_);fill:#F97D12;}
	.st133{clip-path:url(#SVGID_4_);fill:#F97C12;}
	.st134{clip-path:url(#SVGID_4_);fill:#F97B12;}
	.st135{clip-path:url(#SVGID_4_);fill:#F97A12;}
	.st136{clip-path:url(#SVGID_4_);fill:#F97912;}
	.st137{clip-path:url(#SVGID_4_);fill:#F97812;}
	.st138{clip-path:url(#SVGID_4_);fill:#F97712;}
	.st139{clip-path:url(#SVGID_4_);fill:#F97612;}
	.st140{clip-path:url(#SVGID_4_);fill:#F97511;}
	.st141{clip-path:url(#SVGID_4_);fill:#F97411;}
	.st142{clip-path:url(#SVGID_4_);fill:#F97311;}
	.st143{clip-path:url(#SVGID_4_);fill:#F97211;}
	.st144{clip-path:url(#SVGID_4_);fill:#F97111;}
	.st145{clip-path:url(#SVGID_4_);fill:#F97011;}
	.st146{clip-path:url(#SVGID_4_);fill:#F96F11;}
	.st147{clip-path:url(#SVGID_4_);fill:#F96E11;}
	.st148{clip-path:url(#SVGID_4_);fill:#F96D11;}
	.st149{clip-path:url(#SVGID_4_);fill:#F96C11;}
	.st150{clip-path:url(#SVGID_4_);fill:#F96B11;}
	.st151{clip-path:url(#SVGID_4_);fill:#F96A11;}
	.st152{clip-path:url(#SVGID_4_);fill:#F96911;}
	.st153{clip-path:url(#SVGID_4_);fill:#F96811;}
	.st154{clip-path:url(#SVGID_4_);fill:#F96711;}
	.st155{clip-path:url(#SVGID_4_);fill:#F96611;}
	.st156{clip-path:url(#SVGID_4_);fill:#F96511;}
	.st157{clip-path:url(#SVGID_4_);fill:#F96411;}
	.st158{clip-path:url(#SVGID_4_);fill:#F96311;}
	.st159{clip-path:url(#SVGID_4_);fill:#F96210;}
	.st160{clip-path:url(#SVGID_4_);fill:#F86110;}
	.st161{clip-path:url(#SVGID_4_);fill:#F86010;}
	.st162{clip-path:url(#SVGID_4_);fill:#F85F10;}
	.st163{clip-path:url(#SVGID_4_);fill:#F85E10;}
	.st164{clip-path:url(#SVGID_4_);fill:#F85D10;}
	.st165{clip-path:url(#SVGID_4_);fill:#F85C10;}
	.st166{clip-path:url(#SVGID_4_);fill:#F85B10;}
	.st167{clip-path:url(#SVGID_4_);fill:#F85A10;}
	.st168{clip-path:url(#SVGID_4_);fill:#F85910;}
	.st169{clip-path:url(#SVGID_4_);fill:#F85810;}
	.st170{clip-path:url(#SVGID_4_);fill:#F85710;}
	.st171{clip-path:url(#SVGID_4_);fill:#F85610;}
	.st172{clip-path:url(#SVGID_4_);fill:#F85510;}
	.st173{clip-path:url(#SVGID_4_);fill:#F85410;}
	.st174{clip-path:url(#SVGID_4_);fill:#F85310;}
	.st175{clip-path:url(#SVGID_4_);fill:#F85210;}
	.st176{clip-path:url(#SVGID_4_);fill:#F85110;}
	.st177{clip-path:url(#SVGID_4_);fill:#F85010;}
	.st178{clip-path:url(#SVGID_4_);fill:#F84F0F;}
	.st179{clip-path:url(#SVGID_4_);fill:#F84E0F;}
	.st180{clip-path:url(#SVGID_4_);fill:#F84D0F;}
	.st181{clip-path:url(#SVGID_4_);fill:#F84C0F;}
	.st182{clip-path:url(#SVGID_4_);fill:#F84B0F;}
	.st183{clip-path:url(#SVGID_4_);fill:#F84A0F;}
	.st184{clip-path:url(#SVGID_4_);fill:#F8490F;}
	.st185{clip-path:url(#SVGID_4_);fill:#F8480F;}
	.st186{clip-path:url(#SVGID_4_);fill:#F8470F;}
	.st187{clip-path:url(#SVGID_4_);fill:#F8460F;}
	.st188{clip-path:url(#SVGID_4_);fill:#F8450F;}
	.st189{clip-path:url(#SVGID_4_);fill:#F8440F;}
	.st190{clip-path:url(#SVGID_4_);fill:#F8430F;}
	.st191{clip-path:url(#SVGID_4_);fill:#F8420F;}
	.st192{clip-path:url(#SVGID_4_);fill:#F8410F;}
	.st193{clip-path:url(#SVGID_4_);fill:#F8400F;}
	.st194{clip-path:url(#SVGID_4_);fill:#F83F0F;}
	.st195{clip-path:url(#SVGID_4_);fill:#F83E0E;}
	.st196{clip-path:url(#SVGID_4_);fill:#F83D0E;}
	.st197{clip-path:url(#SVGID_4_);fill:#F83C0E;}
	.st198{clip-path:url(#SVGID_4_);fill:#F83B0E;}
	.st199{clip-path:url(#SVGID_4_);fill:#F73A0E;}
	.st200{clip-path:url(#SVGID_4_);fill:#F7390E;}
	.st201{clip-path:url(#SVGID_4_);fill:#F7380E;}
	.st202{clip-path:url(#SVGID_4_);fill:#F7370E;}
	.st203{clip-path:url(#SVGID_4_);fill:#F7360E;}
	.st204{clip-path:url(#SVGID_4_);fill:#F7340E;}
	.st205{clip-path:url(#SVGID_4_);fill:#F7330E;}
	.st206{clip-path:url(#SVGID_4_);fill:#F7320E;}
	.st207{clip-path:url(#SVGID_4_);fill:#F7310E;}
	.st208{clip-path:url(#SVGID_4_);fill:#F7300E;}
	.st209{clip-path:url(#SVGID_4_);fill:#F72F0E;}
	.st210{clip-path:url(#SVGID_4_);fill:#F72E0E;}
	.st211{clip-path:url(#SVGID_4_);fill:#F72D0E;}
	.st212{clip-path:url(#SVGID_4_);fill:#F72C0E;}
	.st213{clip-path:url(#SVGID_4_);fill:#F72B0E;}
	.st214{clip-path:url(#SVGID_4_);fill:#F72B0D;}
	.st215{clip-path:url(#SVGID_4_);fill:#F72A0D;}
	.st216{clip-path:url(#SVGID_4_);fill:#F7290D;}
	.st217{clip-path:url(#SVGID_4_);fill:#F7280D;}
	.st218{clip-path:url(#SVGID_4_);fill:#F7270D;}
	.st219{clip-path:url(#SVGID_4_);fill:#F7260D;}
</style>
<g>
	<path class="st0" d="M25.836,16.009c-0.11,0-0.21-0.004-0.303-0.011c-0.093-0.008-0.177-0.019-0.256-0.033s-0.15-0.032-0.216-0.052
		c-0.066-0.02-0.127-0.044-0.185-0.07s-0.11-0.054-0.161-0.085c-0.05-0.03-0.098-0.063-0.145-0.097s-0.091-0.07-0.136-0.108
		c-0.045-0.038-0.09-0.076-0.136-0.116c-0.05-0.044-0.102-0.09-0.157-0.136c-0.055-0.046-0.112-0.092-0.173-0.137
		s-0.125-0.09-0.195-0.133c-0.069-0.043-0.144-0.084-0.224-0.122s-0.166-0.074-0.26-0.106c-0.093-0.032-0.194-0.06-0.302-0.083
		s-0.226-0.042-0.352-0.054c-0.126-0.013-0.262-0.019-0.408-0.019c-0.146,0-0.281,0.007-0.407,0.019s-0.243,0.031-0.352,0.054
		s-0.209,0.051-0.302,0.083s-0.18,0.067-0.26,0.106s-0.154,0.079-0.224,0.122s-0.134,0.087-0.195,0.132s-0.118,0.091-0.172,0.137
		s-0.106,0.091-0.156,0.135c-0.046,0.04-0.091,0.079-0.136,0.117c-0.045,0.038-0.09,0.074-0.136,0.109s-0.094,0.067-0.145,0.098
		c-0.05,0.031-0.104,0.059-0.161,0.085s-0.118,0.049-0.185,0.07c-0.066,0.021-0.138,0.038-0.216,0.053s-0.163,0.026-0.256,0.033
		c-0.093,0.008-0.193,0.012-0.303,0.012c-0.11,0-0.211-0.004-0.304-0.012c-0.093-0.008-0.178-0.019-0.257-0.033
		s-0.15-0.032-0.217-0.053c-0.067-0.021-0.128-0.044-0.185-0.07s-0.11-0.054-0.161-0.085c-0.05-0.031-0.098-0.063-0.145-0.098
		s-0.091-0.071-0.136-0.109c-0.045-0.038-0.09-0.077-0.136-0.117c-0.053-0.046-0.107-0.093-0.163-0.14s-0.114-0.094-0.176-0.139
		s-0.126-0.09-0.195-0.133s-0.143-0.083-0.223-0.121s-0.165-0.072-0.257-0.103c-0.092-0.031-0.192-0.058-0.299-0.081
		s-0.224-0.04-0.349-0.052s-0.26-0.019-0.406-0.019c-0.146,0-0.282,0.007-0.408,0.019s-0.243,0.031-0.352,0.054
		s-0.209,0.051-0.302,0.083s-0.18,0.067-0.26,0.106s-0.154,0.079-0.224,0.122s-0.134,0.087-0.194,0.132s-0.118,0.091-0.172,0.137
		s-0.106,0.091-0.156,0.135c-0.046,0.04-0.091,0.079-0.136,0.117s-0.09,0.074-0.136,0.109s-0.094,0.067-0.145,0.098
		s-0.104,0.059-0.161,0.085s-0.118,0.049-0.185,0.07s-0.138,0.038-0.217,0.053s-0.163,0.026-0.256,0.033s-0.194,0.012-0.303,0.012
		c-0.11,0-0.21-0.004-0.303-0.012s-0.178-0.019-0.256-0.033s-0.15-0.032-0.216-0.052s-0.128-0.044-0.185-0.07
		s-0.11-0.054-0.161-0.085s-0.098-0.063-0.145-0.098s-0.092-0.071-0.136-0.108s-0.09-0.077-0.136-0.117
		c-0.05-0.044-0.102-0.09-0.157-0.135s-0.112-0.092-0.172-0.137s-0.125-0.09-0.195-0.133s-0.144-0.084-0.224-0.122
		s-0.166-0.074-0.26-0.106s-0.194-0.06-0.302-0.083s-0.226-0.042-0.352-0.054S7.946,14.645,7.8,14.645
		c-0.146,0-0.282,0.007-0.408,0.019s-0.243,0.031-0.352,0.054s-0.209,0.051-0.302,0.083s-0.179,0.067-0.26,0.106
		s-0.154,0.079-0.223,0.122s-0.134,0.087-0.194,0.132s-0.117,0.091-0.172,0.136s-0.106,0.091-0.156,0.134
		c-0.046,0.04-0.091,0.08-0.136,0.117s-0.09,0.074-0.137,0.109s-0.094,0.067-0.145,0.098s-0.104,0.059-0.161,0.085
		s-0.118,0.049-0.185,0.07s-0.138,0.038-0.217,0.053S4.59,15.99,4.497,15.998s-0.193,0.012-0.303,0.012
		c-0.11,0-0.211-0.004-0.304-0.012s-0.178-0.019-0.256-0.033s-0.15-0.032-0.217-0.053s-0.128-0.044-0.185-0.07
		s-0.11-0.054-0.161-0.085s-0.098-0.063-0.145-0.098s-0.091-0.071-0.136-0.108s-0.09-0.077-0.136-0.117
		c-0.006-0.005-0.011-0.01-0.017-0.015s-0.011-0.01-0.017-0.015s-0.011-0.01-0.017-0.015s-0.011-0.01-0.017-0.016
		s-0.012-0.011-0.017-0.016s-0.012-0.011-0.018-0.016s-0.012-0.011-0.018-0.016s-0.012-0.011-0.018-0.017
		c-0.05-0.046-0.103-0.095-0.161-0.146s-0.119-0.103-0.186-0.155s-0.139-0.104-0.216-0.155s-0.162-0.1-0.253-0.146
		s-0.189-0.09-0.295-0.129s-0.22-0.074-0.343-0.103s-0.255-0.052-0.397-0.068s-0.294-0.025-0.457-0.025c-0.001,0-0.002,0-0.004,0
		s-0.002,0-0.004,0s-0.002,0-0.004,0s-0.002,0-0.004,0s-0.002,0-0.004,0s-0.002,0-0.004,0s-0.002,0-0.004,0s-0.002,0-0.004,0
		l0-0.031l0-0.031l0-0.031l0-0.031l0-0.031l0-0.031l0-0.031l0-0.031c0.001,0,0.003,0,0.004,0s0.003,0,0.004,0s0.003,0,0.004,0
		s0.003,0,0.004,0s0.003,0,0.004,0s0.003,0,0.004,0s0.003,0,0.004,0s0.003,0,0.004,0c0.175,0,0.338,0.009,0.491,0.026
		s0.294,0.042,0.427,0.073s0.255,0.068,0.368,0.11s0.219,0.088,0.317,0.138s0.188,0.102,0.271,0.156s0.16,0.11,0.232,0.166
		s0.137,0.111,0.199,0.165s0.119,0.107,0.172,0.156c0.006,0.005,0.012,0.011,0.017,0.016s0.011,0.011,0.017,0.016
		s0.011,0.01,0.017,0.015s0.011,0.01,0.017,0.015s0.011,0.01,0.016,0.015s0.011,0.01,0.016,0.015s0.011,0.01,0.016,0.014
		s0.011,0.009,0.016,0.014c0.044,0.039,0.087,0.076,0.129,0.111s0.083,0.069,0.125,0.1s0.085,0.061,0.13,0.088
		s0.092,0.052,0.142,0.074s0.104,0.042,0.162,0.06s0.121,0.032,0.19,0.044s0.144,0.021,0.227,0.027s0.172,0.009,0.271,0.009
		c0.098,0,0.188-0.003,0.27-0.009s0.157-0.015,0.226-0.027s0.132-0.027,0.19-0.044s0.112-0.037,0.162-0.06s0.097-0.047,0.142-0.074
		s0.088-0.056,0.13-0.088s0.083-0.065,0.125-0.1s0.084-0.072,0.128-0.111c0.051-0.045,0.105-0.092,0.162-0.14
		s0.117-0.096,0.182-0.145s0.134-0.096,0.209-0.143s0.156-0.091,0.243-0.133s0.181-0.081,0.283-0.116s0.211-0.066,0.329-0.092
		s0.245-0.046,0.382-0.061s0.284-0.022,0.442-0.022c0.158,0,0.304,0.007,0.441,0.021s0.263,0.034,0.38,0.059s0.226,0.055,0.326,0.09
		s0.194,0.073,0.28,0.114s0.167,0.086,0.241,0.132s0.144,0.094,0.21,0.143s0.127,0.098,0.185,0.147s0.114,0.098,0.168,0.145
		c0.045,0.039,0.087,0.076,0.129,0.111s0.084,0.069,0.126,0.1s0.085,0.061,0.13,0.088s0.092,0.052,0.142,0.074
		s0.104,0.042,0.162,0.06s0.121,0.032,0.19,0.044s0.144,0.021,0.226,0.027s0.172,0.009,0.27,0.009c0.098,0,0.188-0.003,0.27-0.009
		s0.157-0.015,0.226-0.027s0.132-0.027,0.19-0.044s0.112-0.037,0.162-0.06s0.097-0.047,0.142-0.074s0.088-0.056,0.13-0.088
		s0.083-0.065,0.125-0.1s0.084-0.072,0.129-0.111c0.054-0.047,0.11-0.096,0.168-0.145s0.12-0.099,0.185-0.147
		s0.135-0.097,0.21-0.143s0.155-0.09,0.241-0.132s0.18-0.08,0.28-0.114s0.209-0.064,0.327-0.09s0.244-0.045,0.38-0.059
		s0.283-0.021,0.441-0.021c0.157,0,0.303,0.007,0.439,0.021s0.262,0.033,0.379,0.058s0.225,0.055,0.326,0.089
		c0.101,0.034,0.194,0.072,0.28,0.113s0.167,0.085,0.241,0.131c0.075,0.046,0.144,0.094,0.21,0.142s0.127,0.098,0.186,0.147
		c0.059,0.049,0.114,0.097,0.168,0.145c0.045,0.039,0.087,0.076,0.13,0.112c0.042,0.036,0.084,0.069,0.126,0.101
		s0.085,0.061,0.13,0.088c0.045,0.027,0.092,0.052,0.142,0.075s0.104,0.043,0.163,0.06c0.058,0.017,0.122,0.032,0.191,0.044
		s0.144,0.021,0.227,0.027c0.082,0.006,0.172,0.009,0.271,0.009c0.098,0,0.188-0.003,0.27-0.009
		c0.082-0.006,0.157-0.015,0.226-0.027s0.132-0.027,0.19-0.044c0.058-0.017,0.112-0.037,0.162-0.06s0.097-0.047,0.142-0.074
		c0.045-0.027,0.088-0.056,0.13-0.088s0.083-0.065,0.125-0.1c0.042-0.035,0.084-0.072,0.129-0.111
		c0.054-0.047,0.11-0.096,0.169-0.145c0.059-0.049,0.12-0.099,0.186-0.147s0.135-0.097,0.21-0.143
		c0.075-0.046,0.155-0.09,0.242-0.132s0.18-0.08,0.28-0.114c0.101-0.034,0.209-0.064,0.326-0.089s0.243-0.045,0.38-0.059
		c0.136-0.014,0.283-0.021,0.44-0.021c0.158,0,0.304,0.007,0.441,0.021s0.263,0.034,0.38,0.059s0.226,0.055,0.327,0.09
		s0.194,0.073,0.28,0.114s0.167,0.086,0.241,0.132s0.144,0.094,0.21,0.143s0.127,0.098,0.185,0.147s0.114,0.098,0.168,0.145
		c0.045,0.039,0.087,0.076,0.13,0.111c0.042,0.035,0.084,0.069,0.126,0.1s0.085,0.061,0.13,0.088
		c0.045,0.027,0.092,0.052,0.142,0.074s0.104,0.042,0.162,0.06c0.058,0.017,0.121,0.032,0.19,0.044s0.144,0.021,0.226,0.027
		c0.082,0.006,0.171,0.009,0.269,0.009c0.098,0,0.188-0.003,0.27-0.009c0.082-0.006,0.157-0.015,0.226-0.027s0.132-0.027,0.19-0.044
		c0.058-0.017,0.112-0.037,0.162-0.06s0.097-0.047,0.142-0.074c0.045-0.027,0.087-0.056,0.129-0.088s0.083-0.065,0.125-0.1
		c0.042-0.035,0.084-0.072,0.128-0.111c0.059-0.052,0.12-0.103,0.186-0.154c0.066-0.051,0.135-0.101,0.21-0.15
		s0.154-0.096,0.239-0.14c0.085-0.044,0.177-0.086,0.275-0.125s0.203-0.073,0.315-0.104c0.113-0.03,0.233-0.056,0.362-0.077
		s0.267-0.036,0.414-0.044c0.147-0.009,0.304-0.011,0.472-0.006l-0.001,0.031l-0.001,0.031L29.68,14.54l-0.001,0.031l-0.001,0.031
		l-0.001,0.031l-0.001,0.031l-0.001,0.031c-0.157-0.003-0.303,0-0.44,0.009c-0.137,0.009-0.265,0.022-0.384,0.041
		s-0.231,0.042-0.335,0.069c-0.104,0.027-0.201,0.058-0.291,0.093s-0.175,0.072-0.254,0.112c-0.079,0.04-0.153,0.083-0.222,0.128
		s-0.135,0.091-0.197,0.139c-0.062,0.048-0.121,0.097-0.178,0.147c-0.046,0.04-0.091,0.079-0.136,0.117s-0.09,0.074-0.137,0.109
		s-0.094,0.067-0.145,0.098s-0.104,0.059-0.161,0.085s-0.118,0.049-0.185,0.07s-0.138,0.038-0.217,0.053s-0.163,0.026-0.256,0.033
		S25.946,16.009,25.836,16.009z M25.836,13.694c-0.11,0-0.211-0.004-0.303-0.012c-0.093-0.008-0.178-0.019-0.256-0.033
		s-0.15-0.032-0.217-0.053c-0.066-0.021-0.128-0.044-0.185-0.07s-0.11-0.054-0.161-0.085c-0.051-0.031-0.098-0.063-0.145-0.098
		s-0.092-0.071-0.137-0.108c-0.045-0.038-0.09-0.077-0.136-0.117c-0.05-0.044-0.102-0.089-0.156-0.135s-0.111-0.091-0.172-0.137
		s-0.125-0.09-0.195-0.132s-0.144-0.084-0.224-0.122s-0.166-0.074-0.26-0.106s-0.194-0.06-0.302-0.083s-0.225-0.042-0.352-0.054
		s-0.262-0.019-0.408-0.019c-0.146,0-0.281,0.007-0.407,0.019c-0.126,0.013-0.243,0.031-0.351,0.054s-0.209,0.051-0.302,0.083
		c-0.093,0.032-0.179,0.067-0.26,0.105s-0.154,0.079-0.224,0.122c-0.069,0.043-0.134,0.087-0.195,0.132s-0.118,0.091-0.172,0.136
		c-0.054,0.045-0.106,0.09-0.156,0.134c-0.046,0.04-0.091,0.08-0.136,0.118s-0.09,0.074-0.136,0.109s-0.094,0.068-0.145,0.098
		s-0.104,0.059-0.161,0.085s-0.118,0.05-0.185,0.07s-0.138,0.038-0.217,0.053s-0.163,0.026-0.256,0.033s-0.194,0.012-0.304,0.012
		c-0.11,0-0.212-0.004-0.305-0.012c-0.093-0.008-0.178-0.019-0.257-0.033s-0.15-0.032-0.217-0.053
		c-0.067-0.021-0.128-0.044-0.185-0.07s-0.11-0.054-0.161-0.085c-0.05-0.031-0.098-0.063-0.144-0.098s-0.091-0.071-0.136-0.109
		c-0.045-0.038-0.089-0.077-0.135-0.117c-0.051-0.044-0.103-0.09-0.158-0.135s-0.112-0.092-0.173-0.137s-0.126-0.09-0.195-0.132
		s-0.144-0.084-0.224-0.122s-0.166-0.074-0.26-0.105c-0.093-0.032-0.193-0.06-0.302-0.083s-0.225-0.041-0.351-0.054
		s-0.261-0.019-0.406-0.019c-0.146,0-0.281,0.007-0.407,0.019s-0.243,0.031-0.351,0.054s-0.209,0.051-0.302,0.083
		s-0.179,0.067-0.26,0.105s-0.154,0.079-0.224,0.122s-0.134,0.087-0.194,0.132s-0.118,0.091-0.172,0.136s-0.106,0.091-0.156,0.134
		c-0.046,0.04-0.091,0.08-0.136,0.118s-0.09,0.074-0.136,0.109s-0.094,0.067-0.145,0.098s-0.104,0.059-0.161,0.085
		s-0.118,0.049-0.185,0.07s-0.138,0.038-0.217,0.053s-0.164,0.026-0.257,0.033s-0.194,0.012-0.304,0.012
		c-0.11,0-0.211-0.004-0.304-0.012s-0.178-0.019-0.257-0.033s-0.15-0.032-0.217-0.053s-0.128-0.044-0.185-0.07
		s-0.11-0.054-0.161-0.085s-0.098-0.063-0.145-0.098s-0.091-0.071-0.136-0.109s-0.09-0.077-0.136-0.117
		c-0.05-0.044-0.102-0.089-0.157-0.135s-0.112-0.091-0.172-0.137s-0.125-0.09-0.195-0.132S9.2,12.631,9.12,12.593
		s-0.166-0.074-0.26-0.105s-0.194-0.06-0.302-0.083s-0.225-0.042-0.351-0.054S7.945,12.331,7.8,12.331
		c-0.146,0-0.281,0.007-0.408,0.019s-0.243,0.031-0.352,0.054s-0.209,0.051-0.302,0.083s-0.179,0.067-0.26,0.106
		s-0.154,0.079-0.224,0.122s-0.134,0.087-0.194,0.132s-0.118,0.091-0.172,0.137s-0.106,0.091-0.156,0.135
		c-0.046,0.04-0.091,0.079-0.136,0.117s-0.09,0.074-0.136,0.109s-0.094,0.067-0.145,0.098s-0.104,0.059-0.161,0.085
		s-0.118,0.049-0.185,0.07s-0.138,0.038-0.217,0.053s-0.163,0.026-0.256,0.033s-0.194,0.012-0.304,0.012
		c-0.11,0-0.211-0.004-0.305-0.012s-0.178-0.019-0.257-0.033s-0.15-0.032-0.217-0.053s-0.128-0.044-0.185-0.07
		s-0.11-0.054-0.161-0.085s-0.098-0.063-0.145-0.098s-0.091-0.071-0.136-0.109s-0.09-0.077-0.136-0.117
		c-0.005-0.005-0.011-0.01-0.016-0.015s-0.011-0.01-0.017-0.015s-0.011-0.01-0.017-0.015s-0.011-0.01-0.017-0.016
		s-0.012-0.011-0.017-0.016s-0.012-0.011-0.018-0.016s-0.012-0.011-0.018-0.016s-0.012-0.011-0.018-0.017
		c-0.05-0.046-0.103-0.095-0.161-0.145s-0.119-0.102-0.186-0.154S2.03,12.59,1.952,12.539S1.79,12.44,1.7,12.394
		s-0.189-0.089-0.295-0.128s-0.22-0.074-0.343-0.102s-0.255-0.052-0.397-0.068S0.372,12.07,0.209,12.07c-0.001,0-0.003,0-0.004,0
		s-0.003,0-0.004,0s-0.003,0-0.004,0s-0.003,0-0.004,0s-0.003,0-0.004,0s-0.003,0-0.004,0s-0.003,0-0.004,0s-0.003,0-0.004,0
		l0-0.031l0-0.031l0-0.031l0-0.031l0-0.031l0-0.031l0-0.031l0-0.031c0.001,0,0.003,0,0.004,0s0.003,0,0.004,0s0.003,0,0.004,0
		s0.003,0,0.004,0s0.003,0,0.004,0s0.003,0,0.004,0s0.003,0,0.004,0s0.003,0,0.004,0c0.175,0,0.338,0.009,0.49,0.026
		s0.294,0.042,0.426,0.073s0.254,0.068,0.368,0.11s0.219,0.088,0.316,0.138s0.188,0.102,0.271,0.156s0.16,0.11,0.232,0.165
		s0.137,0.111,0.199,0.165s0.119,0.106,0.172,0.156c0.006,0.005,0.012,0.011,0.018,0.016s0.012,0.011,0.017,0.016
		s0.011,0.01,0.017,0.016s0.011,0.01,0.017,0.015s0.011,0.01,0.017,0.015s0.011,0.01,0.016,0.015s0.011,0.01,0.016,0.014
		s0.011,0.009,0.016,0.014c0.044,0.039,0.087,0.076,0.128,0.111s0.083,0.069,0.125,0.1s0.085,0.061,0.129,0.088
		s0.092,0.052,0.142,0.074s0.104,0.043,0.162,0.06s0.122,0.032,0.191,0.044s0.144,0.021,0.227,0.027s0.173,0.009,0.271,0.009
		c0.098,0,0.188-0.003,0.271-0.009s0.157-0.015,0.227-0.027s0.132-0.027,0.19-0.044s0.112-0.037,0.162-0.06s0.097-0.047,0.142-0.074
		s0.088-0.056,0.129-0.088s0.083-0.065,0.125-0.1s0.084-0.072,0.128-0.111c0.054-0.047,0.11-0.096,0.168-0.145
		s0.12-0.099,0.185-0.147s0.135-0.097,0.21-0.143s0.155-0.09,0.241-0.132s0.18-0.08,0.28-0.114s0.209-0.064,0.326-0.089
		s0.243-0.045,0.38-0.058s0.283-0.021,0.44-0.021c0.157,0,0.304,0.007,0.44,0.021s0.262,0.033,0.379,0.058s0.225,0.055,0.326,0.089
		s0.194,0.072,0.28,0.114s0.167,0.085,0.241,0.131s0.144,0.094,0.21,0.142s0.127,0.098,0.185,0.147s0.114,0.098,0.168,0.145
		c0.045,0.039,0.087,0.076,0.129,0.112s0.084,0.069,0.126,0.1s0.085,0.061,0.13,0.088s0.092,0.052,0.142,0.075
		s0.104,0.043,0.163,0.06s0.122,0.032,0.191,0.044s0.144,0.021,0.227,0.027s0.172,0.009,0.271,0.009
		c0.098,0,0.188-0.003,0.271-0.009s0.158-0.015,0.227-0.027s0.132-0.027,0.19-0.044s0.112-0.037,0.162-0.06s0.097-0.047,0.142-0.074
		s0.087-0.056,0.129-0.088s0.083-0.065,0.125-0.1s0.084-0.072,0.128-0.111c0.054-0.047,0.11-0.096,0.169-0.145
		s0.12-0.099,0.186-0.147s0.135-0.097,0.21-0.143s0.155-0.09,0.242-0.131s0.18-0.079,0.28-0.114s0.209-0.064,0.326-0.089
		s0.243-0.045,0.379-0.058s0.282-0.021,0.44-0.021c0.157,0,0.303,0.007,0.439,0.021s0.262,0.033,0.379,0.058
		s0.225,0.055,0.326,0.089c0.101,0.034,0.193,0.072,0.28,0.113s0.166,0.085,0.241,0.131c0.075,0.046,0.144,0.093,0.21,0.142
		s0.127,0.098,0.185,0.146c0.059,0.049,0.114,0.097,0.168,0.144c0.045,0.039,0.088,0.077,0.13,0.113
		c0.042,0.036,0.084,0.069,0.126,0.101s0.085,0.061,0.13,0.089c0.045,0.027,0.092,0.052,0.142,0.075s0.104,0.043,0.163,0.06
		c0.058,0.018,0.122,0.032,0.191,0.044s0.144,0.021,0.227,0.027c0.083,0.006,0.173,0.009,0.271,0.009
		c0.098,0,0.188-0.003,0.27-0.009c0.082-0.006,0.157-0.015,0.226-0.027s0.132-0.027,0.19-0.044c0.058-0.017,0.112-0.037,0.162-0.06
		s0.097-0.047,0.142-0.074c0.045-0.027,0.087-0.056,0.129-0.088s0.083-0.065,0.125-0.1c0.042-0.035,0.084-0.072,0.128-0.111
		c0.055-0.047,0.111-0.096,0.17-0.146c0.059-0.049,0.121-0.099,0.186-0.147s0.135-0.097,0.21-0.143
		c0.075-0.046,0.155-0.09,0.242-0.131s0.18-0.079,0.28-0.114c0.101-0.034,0.209-0.064,0.326-0.089s0.243-0.045,0.379-0.058
		c0.136-0.014,0.282-0.021,0.439-0.021c0.158,0,0.304,0.007,0.44,0.021c0.136,0.014,0.262,0.033,0.38,0.058s0.226,0.055,0.326,0.089
		c0.101,0.034,0.194,0.073,0.28,0.114s0.167,0.085,0.241,0.131c0.075,0.046,0.144,0.094,0.21,0.143s0.127,0.098,0.185,0.147
		c0.058,0.049,0.114,0.098,0.168,0.145c0.045,0.039,0.087,0.076,0.129,0.111c0.042,0.035,0.084,0.069,0.126,0.1
		s0.085,0.061,0.13,0.088c0.045,0.027,0.092,0.052,0.142,0.074s0.104,0.042,0.162,0.06c0.058,0.017,0.121,0.032,0.19,0.044
		s0.144,0.021,0.226,0.027c0.082,0.006,0.172,0.009,0.27,0.009c0.099,0,0.188-0.003,0.271-0.009
		c0.082-0.006,0.158-0.015,0.227-0.027s0.132-0.027,0.191-0.044c0.058-0.017,0.112-0.037,0.162-0.06s0.097-0.047,0.142-0.074
		c0.045-0.027,0.087-0.056,0.129-0.088s0.083-0.065,0.125-0.1c0.042-0.035,0.084-0.072,0.128-0.111
		c0.059-0.051,0.12-0.103,0.186-0.153c0.065-0.051,0.135-0.1,0.209-0.148s0.153-0.095,0.238-0.138
		c0.085-0.044,0.175-0.085,0.273-0.123s0.202-0.072,0.314-0.103c0.112-0.03,0.233-0.056,0.362-0.077s0.267-0.036,0.415-0.046
		c0.148-0.009,0.306-0.013,0.475-0.009l-0.001,0.031l-0.001,0.031l-0.001,0.031l-0.001,0.031l-0.001,0.031l-0.001,0.031
		l-0.001,0.031l-0.001,0.031c-0.156-0.003-0.302-0.001-0.438,0.007s-0.264,0.022-0.383,0.04s-0.23,0.041-0.334,0.068
		s-0.201,0.058-0.291,0.093s-0.175,0.072-0.254,0.113s-0.153,0.083-0.223,0.128s-0.136,0.092-0.198,0.14s-0.122,0.097-0.179,0.147
		c-0.046,0.04-0.091,0.079-0.135,0.117s-0.09,0.074-0.136,0.109s-0.094,0.067-0.144,0.098s-0.104,0.059-0.161,0.085
		s-0.118,0.049-0.185,0.07s-0.138,0.038-0.217,0.053s-0.164,0.026-0.257,0.033S25.946,13.694,25.836,13.694z M25.836,11.38
		c-0.11,0-0.211-0.004-0.303-0.012c-0.093-0.008-0.178-0.019-0.256-0.033s-0.15-0.032-0.217-0.053
		c-0.066-0.021-0.128-0.044-0.185-0.07s-0.11-0.054-0.161-0.085c-0.051-0.031-0.098-0.063-0.145-0.098s-0.092-0.071-0.137-0.108
		c-0.045-0.038-0.09-0.077-0.136-0.117c-0.05-0.044-0.102-0.089-0.156-0.135s-0.111-0.091-0.172-0.137s-0.125-0.09-0.194-0.132
		s-0.143-0.084-0.224-0.122s-0.166-0.074-0.26-0.106s-0.194-0.06-0.302-0.083s-0.226-0.042-0.352-0.054s-0.262-0.019-0.408-0.019
		c-0.146,0-0.281,0.007-0.408,0.019s-0.243,0.031-0.352,0.054s-0.209,0.051-0.302,0.083s-0.18,0.067-0.26,0.106
		s-0.155,0.079-0.224,0.122s-0.134,0.087-0.195,0.132s-0.118,0.091-0.172,0.137s-0.106,0.091-0.156,0.135
		c-0.046,0.04-0.09,0.079-0.135,0.117c-0.045,0.038-0.09,0.074-0.136,0.109s-0.094,0.067-0.144,0.098
		c-0.05,0.031-0.103,0.059-0.161,0.085s-0.118,0.049-0.185,0.07c-0.066,0.021-0.138,0.038-0.217,0.053s-0.163,0.026-0.256,0.033
		c-0.093,0.008-0.194,0.012-0.304,0.012c-0.11,0-0.212-0.004-0.305-0.012c-0.093-0.008-0.178-0.019-0.257-0.033
		s-0.15-0.032-0.217-0.053c-0.067-0.021-0.128-0.044-0.185-0.07s-0.11-0.054-0.161-0.085c-0.05-0.031-0.098-0.063-0.144-0.098
		s-0.091-0.071-0.136-0.109c-0.045-0.038-0.089-0.077-0.135-0.117c-0.053-0.046-0.107-0.093-0.163-0.14s-0.114-0.093-0.175-0.139
		s-0.126-0.09-0.195-0.133s-0.143-0.083-0.223-0.121s-0.165-0.072-0.257-0.103c-0.092-0.031-0.192-0.058-0.3-0.081
		s-0.224-0.04-0.349-0.052s-0.26-0.019-0.406-0.019c-0.146,0-0.282,0.007-0.408,0.019s-0.243,0.031-0.352,0.054
		s-0.209,0.051-0.302,0.083s-0.18,0.067-0.26,0.106s-0.154,0.079-0.224,0.122s-0.134,0.087-0.194,0.132s-0.118,0.091-0.172,0.137
		s-0.106,0.091-0.156,0.135c-0.046,0.04-0.091,0.079-0.136,0.117s-0.09,0.074-0.136,0.109s-0.094,0.067-0.145,0.098
		s-0.104,0.059-0.161,0.085s-0.118,0.049-0.185,0.07s-0.138,0.038-0.217,0.053s-0.164,0.026-0.256,0.033s-0.194,0.012-0.304,0.012
		c-0.11,0-0.211-0.004-0.304-0.012s-0.178-0.019-0.257-0.033s-0.15-0.032-0.217-0.053s-0.128-0.044-0.185-0.07
		s-0.11-0.054-0.161-0.085s-0.098-0.063-0.145-0.098s-0.091-0.071-0.136-0.109s-0.09-0.077-0.136-0.117
		c-0.05-0.044-0.102-0.089-0.156-0.135S9.6,10.579,9.54,10.533s-0.125-0.09-0.194-0.132s-0.144-0.084-0.224-0.122
		s-0.166-0.074-0.26-0.106s-0.194-0.06-0.302-0.083s-0.226-0.042-0.352-0.054S7.946,10.017,7.8,10.017
		c-0.146,0-0.282,0.007-0.408,0.019s-0.243,0.031-0.352,0.054s-0.209,0.051-0.302,0.083s-0.179,0.067-0.26,0.105
		s-0.154,0.079-0.223,0.122s-0.133,0.087-0.194,0.132s-0.117,0.091-0.171,0.136s-0.106,0.091-0.155,0.134
		c-0.046,0.04-0.091,0.079-0.136,0.117s-0.09,0.074-0.136,0.109s-0.094,0.067-0.145,0.098s-0.104,0.059-0.161,0.085
		s-0.118,0.049-0.185,0.07s-0.138,0.038-0.217,0.053s-0.163,0.026-0.256,0.033S4.304,11.38,4.194,11.38
		c-0.11,0-0.211-0.004-0.305-0.012s-0.178-0.019-0.257-0.033s-0.15-0.032-0.217-0.053s-0.128-0.044-0.185-0.07
		s-0.11-0.054-0.161-0.085s-0.098-0.063-0.145-0.098s-0.091-0.071-0.136-0.109s-0.09-0.077-0.136-0.117
		c-0.005-0.005-0.011-0.01-0.016-0.014s-0.011-0.01-0.016-0.015s-0.011-0.01-0.017-0.015s-0.011-0.01-0.017-0.015
		s-0.011-0.01-0.017-0.016s-0.012-0.011-0.017-0.016s-0.012-0.011-0.018-0.016s-0.012-0.011-0.018-0.017
		c-0.05-0.046-0.103-0.095-0.161-0.145S2.237,10.432,2.17,10.38s-0.138-0.104-0.216-0.154s-0.162-0.1-0.253-0.146
		S1.512,9.99,1.406,9.951s-0.22-0.074-0.343-0.103S0.808,9.797,0.666,9.781S0.372,9.756,0.209,9.756c-0.001,0-0.003,0-0.004,0
		s-0.003,0-0.004,0s-0.003,0-0.004,0s-0.003,0-0.004,0s-0.003,0-0.004,0s-0.003,0-0.004,0s-0.003,0-0.004,0s-0.003,0-0.004,0
		l0-0.031l0-0.031l0-0.031l0-0.031l0-0.031l0-0.031l0-0.031l0-0.031c0.001,0,0.003,0,0.004,0s0.003,0,0.004,0s0.003,0,0.004,0
		s0.003,0,0.004,0s0.003,0,0.004,0s0.003,0,0.004,0s0.003,0,0.004,0s0.003,0,0.004,0c0.175,0,0.338,0.009,0.49,0.026
		s0.294,0.042,0.426,0.073s0.254,0.068,0.368,0.11s0.219,0.088,0.316,0.138s0.188,0.102,0.271,0.156s0.16,0.11,0.232,0.166
		s0.137,0.111,0.199,0.165s0.119,0.107,0.172,0.156c0.006,0.005,0.012,0.011,0.017,0.016s0.011,0.011,0.017,0.016
		s0.011,0.01,0.017,0.015s0.011,0.01,0.017,0.015s0.011,0.01,0.016,0.015s0.011,0.01,0.016,0.015s0.011,0.01,0.016,0.014
		s0.011,0.009,0.016,0.014c0.044,0.039,0.086,0.076,0.128,0.111s0.083,0.069,0.125,0.1s0.085,0.061,0.129,0.088
		s0.092,0.052,0.142,0.074s0.104,0.043,0.162,0.06s0.122,0.032,0.191,0.044s0.144,0.021,0.227,0.027s0.173,0.009,0.271,0.009
		c0.098,0,0.188-0.003,0.271-0.009s0.157-0.015,0.227-0.027s0.132-0.027,0.19-0.044s0.112-0.037,0.162-0.06s0.097-0.047,0.142-0.074
		s0.088-0.056,0.129-0.088s0.083-0.065,0.125-0.1s0.084-0.072,0.128-0.111c0.051-0.045,0.104-0.092,0.161-0.139
		s0.117-0.096,0.182-0.144s0.134-0.096,0.209-0.142s0.155-0.091,0.243-0.133s0.181-0.081,0.283-0.116s0.211-0.066,0.329-0.092
		s0.245-0.046,0.382-0.06S7.642,9.767,7.8,9.767c0.158,0,0.304,0.007,0.441,0.021s0.263,0.033,0.38,0.058s0.226,0.055,0.327,0.089
		s0.194,0.073,0.28,0.114s0.167,0.085,0.241,0.132s0.144,0.094,0.21,0.143s0.127,0.098,0.185,0.147s0.114,0.098,0.168,0.145
		c0.044,0.039,0.087,0.076,0.129,0.111s0.083,0.069,0.125,0.1s0.085,0.061,0.13,0.088s0.092,0.052,0.142,0.074
		s0.104,0.043,0.162,0.06s0.121,0.032,0.191,0.044s0.144,0.021,0.227,0.027s0.172,0.009,0.271,0.009
		c0.098,0,0.188-0.003,0.271-0.009s0.158-0.015,0.227-0.027s0.132-0.027,0.19-0.044s0.112-0.037,0.162-0.06s0.097-0.047,0.142-0.074
		s0.087-0.056,0.129-0.088s0.083-0.065,0.125-0.1s0.084-0.072,0.128-0.111c0.054-0.047,0.11-0.096,0.168-0.145
		s0.12-0.099,0.185-0.147s0.135-0.097,0.21-0.143s0.155-0.09,0.241-0.132s0.18-0.08,0.28-0.114s0.209-0.064,0.327-0.089
		s0.244-0.045,0.38-0.058s0.283-0.021,0.441-0.021c0.157,0,0.303,0.007,0.439,0.021s0.262,0.033,0.379,0.058
		s0.225,0.055,0.326,0.089c0.101,0.034,0.194,0.072,0.28,0.113s0.167,0.085,0.241,0.131c0.075,0.046,0.144,0.094,0.21,0.142
		s0.127,0.098,0.186,0.147c0.059,0.049,0.114,0.097,0.169,0.145c0.044,0.039,0.087,0.076,0.129,0.112
		c0.042,0.035,0.083,0.069,0.125,0.101s0.085,0.061,0.13,0.088c0.045,0.027,0.092,0.052,0.142,0.075s0.104,0.043,0.162,0.06
		c0.058,0.017,0.122,0.032,0.191,0.044s0.144,0.021,0.227,0.027c0.083,0.006,0.173,0.009,0.271,0.009
		c0.098,0,0.188-0.003,0.27-0.009c0.082-0.006,0.157-0.015,0.226-0.027s0.132-0.027,0.19-0.044c0.058-0.017,0.112-0.037,0.162-0.06
		s0.097-0.047,0.142-0.074c0.045-0.027,0.087-0.056,0.129-0.088s0.083-0.065,0.125-0.1c0.042-0.035,0.084-0.072,0.128-0.111
		c0.054-0.047,0.11-0.096,0.169-0.145s0.12-0.099,0.186-0.147s0.135-0.097,0.21-0.143s0.155-0.09,0.242-0.132s0.18-0.08,0.281-0.114
		s0.209-0.064,0.327-0.089s0.244-0.045,0.38-0.059s0.283-0.021,0.44-0.021c0.158,0,0.305,0.007,0.441,0.021
		c0.136,0.014,0.263,0.034,0.38,0.059s0.226,0.055,0.327,0.09c0.101,0.034,0.194,0.073,0.28,0.114s0.167,0.086,0.241,0.132
		c0.075,0.046,0.144,0.094,0.209,0.143s0.127,0.098,0.185,0.147c0.058,0.049,0.114,0.098,0.168,0.145
		c0.044,0.039,0.087,0.076,0.129,0.111c0.042,0.035,0.083,0.069,0.125,0.1s0.085,0.061,0.13,0.088
		c0.045,0.027,0.092,0.052,0.142,0.074s0.104,0.042,0.162,0.06c0.058,0.017,0.121,0.032,0.19,0.044s0.144,0.021,0.226,0.027
		c0.082,0.006,0.172,0.009,0.27,0.009c0.099,0,0.188-0.003,0.271-0.009c0.082-0.006,0.158-0.015,0.227-0.027
		s0.132-0.027,0.191-0.044c0.058-0.017,0.112-0.037,0.162-0.06s0.097-0.047,0.142-0.074c0.045-0.027,0.087-0.056,0.129-0.088
		s0.083-0.065,0.125-0.1c0.042-0.035,0.084-0.072,0.128-0.111c0.059-0.051,0.12-0.103,0.186-0.153s0.135-0.1,0.21-0.148
		s0.154-0.094,0.239-0.138s0.176-0.085,0.274-0.123s0.203-0.072,0.315-0.102s0.233-0.056,0.362-0.077s0.267-0.037,0.414-0.046
		s0.305-0.014,0.472-0.011l-0.001,0.031l-0.001,0.031L29.68,9.912l-0.001,0.031l-0.001,0.031l-0.001,0.031l-0.001,0.031
		l-0.001,0.031c-0.156-0.003-0.303,0-0.44,0.008c-0.137,0.008-0.265,0.022-0.384,0.04s-0.231,0.041-0.335,0.068
		c-0.104,0.027-0.201,0.058-0.291,0.092s-0.175,0.072-0.254,0.112c-0.079,0.04-0.153,0.083-0.223,0.128s-0.135,0.092-0.197,0.14
		c-0.062,0.048-0.121,0.097-0.178,0.147c-0.046,0.04-0.091,0.079-0.136,0.117c-0.045,0.038-0.09,0.074-0.136,0.109
		s-0.094,0.067-0.145,0.098c-0.05,0.031-0.104,0.059-0.161,0.085s-0.118,0.049-0.185,0.07c-0.067,0.021-0.138,0.038-0.217,0.053
		s-0.164,0.026-0.257,0.033C26.047,11.376,25.946,11.38,25.836,11.38z M25.836,9.066c-0.11,0-0.211-0.004-0.303-0.012
		c-0.093-0.008-0.178-0.019-0.256-0.033s-0.15-0.032-0.217-0.053c-0.066-0.021-0.128-0.044-0.185-0.07s-0.11-0.054-0.161-0.085
		c-0.051-0.031-0.098-0.063-0.145-0.098s-0.092-0.071-0.137-0.108c-0.045-0.038-0.09-0.077-0.136-0.117
		c-0.05-0.044-0.102-0.089-0.156-0.135s-0.111-0.091-0.172-0.137s-0.125-0.09-0.194-0.132s-0.143-0.084-0.224-0.122
		c-0.08-0.038-0.166-0.074-0.26-0.106s-0.194-0.06-0.302-0.083s-0.226-0.042-0.352-0.054s-0.262-0.019-0.408-0.019
		c-0.146,0-0.281,0.007-0.408,0.019s-0.243,0.031-0.352,0.054S21.26,7.828,21.167,7.86s-0.18,0.067-0.26,0.106
		c-0.08,0.038-0.155,0.079-0.224,0.122s-0.134,0.087-0.195,0.132s-0.118,0.091-0.172,0.137S20.21,8.447,20.16,8.491
		c-0.046,0.04-0.09,0.079-0.135,0.117c-0.045,0.038-0.09,0.074-0.136,0.109s-0.094,0.067-0.144,0.098
		c-0.05,0.031-0.103,0.059-0.161,0.085s-0.118,0.049-0.185,0.07c-0.066,0.021-0.138,0.038-0.217,0.053s-0.163,0.026-0.256,0.033
		c-0.093,0.008-0.194,0.012-0.304,0.012c-0.11,0-0.212-0.004-0.305-0.012c-0.093-0.008-0.178-0.019-0.257-0.033
		s-0.15-0.032-0.217-0.053c-0.067-0.021-0.128-0.044-0.185-0.07s-0.11-0.054-0.161-0.085c-0.05-0.031-0.098-0.063-0.144-0.098
		s-0.091-0.071-0.136-0.109c-0.045-0.038-0.089-0.077-0.135-0.117c-0.053-0.046-0.107-0.093-0.163-0.14s-0.114-0.093-0.175-0.139
		s-0.126-0.09-0.195-0.133s-0.143-0.083-0.223-0.121s-0.165-0.072-0.257-0.103c-0.092-0.031-0.192-0.058-0.3-0.081
		s-0.224-0.04-0.349-0.052s-0.26-0.019-0.406-0.019c-0.146,0-0.282,0.007-0.408,0.019s-0.243,0.031-0.352,0.054
		s-0.209,0.051-0.302,0.083s-0.18,0.067-0.26,0.106c-0.08,0.038-0.154,0.079-0.224,0.122s-0.134,0.087-0.194,0.132
		s-0.118,0.091-0.172,0.137s-0.106,0.091-0.156,0.135c-0.046,0.04-0.091,0.079-0.136,0.117s-0.09,0.074-0.136,0.109
		s-0.094,0.067-0.145,0.098s-0.104,0.059-0.161,0.085s-0.118,0.049-0.185,0.07s-0.138,0.038-0.217,0.053s-0.164,0.026-0.256,0.033
		s-0.194,0.012-0.304,0.012c-0.11,0-0.211-0.004-0.304-0.012s-0.178-0.019-0.257-0.033s-0.15-0.032-0.217-0.053
		s-0.128-0.044-0.185-0.07s-0.11-0.054-0.161-0.085s-0.098-0.063-0.145-0.098s-0.091-0.071-0.136-0.109s-0.09-0.077-0.136-0.117
		c-0.05-0.044-0.102-0.089-0.156-0.135S9.6,8.265,9.54,8.219S9.414,8.13,9.345,8.087S9.202,8.003,9.121,7.965
		c-0.08-0.038-0.166-0.074-0.26-0.106S8.668,7.8,8.559,7.777S8.334,7.735,8.207,7.722S7.946,7.703,7.8,7.703
		c-0.146,0-0.282,0.007-0.408,0.019S7.148,7.753,7.039,7.777S6.83,7.828,6.737,7.86s-0.179,0.067-0.26,0.105
		c-0.08,0.038-0.154,0.079-0.223,0.122S6.121,8.174,6.06,8.219S5.943,8.31,5.889,8.356S5.783,8.446,5.733,8.49
		C5.687,8.53,5.642,8.57,5.597,8.607s-0.09,0.074-0.136,0.109S5.367,8.783,5.317,8.814S5.213,8.873,5.156,8.899
		s-0.118,0.049-0.185,0.07S4.832,9.007,4.754,9.022S4.591,9.047,4.498,9.055S4.304,9.066,4.194,9.066
		c-0.11,0-0.211-0.004-0.305-0.012S3.711,9.036,3.632,9.022s-0.15-0.032-0.217-0.053S3.287,8.925,3.23,8.899S3.12,8.845,3.069,8.814
		S2.971,8.751,2.925,8.716S2.834,8.645,2.789,8.608s-0.09-0.077-0.136-0.117c-0.005-0.005-0.011-0.01-0.016-0.014
		S2.626,8.466,2.62,8.461s-0.011-0.01-0.017-0.015s-0.011-0.01-0.017-0.015S2.575,8.42,2.57,8.415S2.558,8.404,2.552,8.399
		S2.54,8.388,2.534,8.383S2.522,8.372,2.516,8.366C2.466,8.32,2.413,8.271,2.356,8.221S2.237,8.118,2.17,8.066
		S2.031,7.962,1.954,7.912s-0.162-0.1-0.253-0.146s-0.189-0.09-0.295-0.129s-0.22-0.074-0.343-0.103S0.808,7.483,0.666,7.467
		S0.372,7.442,0.209,7.442c-0.001,0-0.003,0-0.004,0s-0.003,0-0.004,0s-0.003,0-0.004,0s-0.003,0-0.004,0s-0.003,0-0.004,0
		s-0.003,0-0.004,0s-0.003,0-0.004,0s-0.003,0-0.004,0l0-0.031l0-0.031l0-0.031l0-0.031l0-0.031l0-0.031l0-0.031l0-0.031
		c0.001,0,0.003,0,0.004,0s0.003,0,0.004,0s0.003,0,0.004,0s0.003,0,0.004,0s0.003,0,0.004,0s0.003,0,0.004,0s0.003,0,0.004,0
		s0.003,0,0.004,0c0.175,0,0.338,0.009,0.49,0.026S0.995,7.26,1.127,7.291s0.254,0.068,0.368,0.11S1.714,7.49,1.811,7.539
		s0.188,0.102,0.271,0.156s0.16,0.11,0.232,0.166s0.137,0.111,0.199,0.165c0.061,0.054,0.119,0.107,0.172,0.156
		c0.006,0.005,0.012,0.011,0.017,0.016S2.714,8.209,2.72,8.214s0.011,0.01,0.017,0.015s0.011,0.01,0.017,0.015
		s0.011,0.01,0.016,0.015s0.011,0.01,0.016,0.015s0.011,0.01,0.016,0.014s0.011,0.009,0.016,0.014
		c0.044,0.039,0.086,0.076,0.128,0.111s0.083,0.069,0.125,0.1S3.156,8.574,3.2,8.601s0.092,0.052,0.142,0.074
		s0.104,0.043,0.162,0.06s0.122,0.032,0.191,0.044S3.84,8.801,3.922,8.807s0.173,0.009,0.271,0.009c0.098,0,0.188-0.003,0.271-0.009
		s0.157-0.015,0.227-0.027s0.132-0.027,0.19-0.044s0.112-0.037,0.162-0.06s0.097-0.047,0.142-0.074s0.088-0.056,0.129-0.088
		s0.083-0.065,0.125-0.1s0.084-0.072,0.128-0.111C5.619,8.257,5.673,8.21,5.729,8.163s0.117-0.096,0.182-0.144
		C5.976,7.97,6.045,7.922,6.12,7.876s0.155-0.091,0.243-0.133s0.181-0.081,0.283-0.116s0.211-0.066,0.329-0.092
		s0.245-0.046,0.382-0.06S7.642,7.453,7.8,7.453c0.158,0,0.304,0.007,0.441,0.021s0.263,0.033,0.38,0.058s0.226,0.055,0.327,0.089
		s0.194,0.073,0.28,0.114s0.167,0.085,0.241,0.132s0.144,0.094,0.21,0.143c0.065,0.049,0.127,0.098,0.185,0.147
		s0.114,0.098,0.168,0.145c0.044,0.039,0.087,0.076,0.129,0.111s0.083,0.069,0.125,0.1s0.085,0.061,0.13,0.088
		s0.092,0.052,0.142,0.074s0.104,0.043,0.162,0.06s0.121,0.032,0.191,0.044s0.144,0.021,0.227,0.027s0.172,0.009,0.271,0.009
		c0.098,0,0.188-0.003,0.271-0.009s0.158-0.015,0.227-0.027s0.132-0.027,0.19-0.044s0.112-0.037,0.162-0.06s0.097-0.047,0.142-0.074
		s0.087-0.056,0.129-0.088s0.083-0.065,0.125-0.1s0.084-0.072,0.128-0.111c0.054-0.047,0.11-0.096,0.168-0.145
		s0.12-0.099,0.185-0.147c0.065-0.049,0.135-0.097,0.21-0.143s0.155-0.09,0.241-0.132s0.18-0.08,0.28-0.114s0.209-0.064,0.327-0.089
		s0.244-0.045,0.38-0.058s0.283-0.021,0.441-0.021c0.157,0,0.303,0.007,0.439,0.021s0.262,0.033,0.379,0.058
		s0.225,0.055,0.326,0.089c0.101,0.034,0.194,0.072,0.28,0.113s0.167,0.085,0.241,0.131c0.075,0.046,0.144,0.094,0.21,0.142
		c0.066,0.049,0.127,0.098,0.186,0.147c0.059,0.049,0.114,0.097,0.169,0.145c0.044,0.039,0.087,0.076,0.129,0.112
		c0.042,0.035,0.083,0.069,0.125,0.101s0.085,0.061,0.13,0.088c0.045,0.027,0.092,0.052,0.142,0.075s0.104,0.043,0.162,0.06
		c0.058,0.017,0.122,0.032,0.191,0.044s0.144,0.021,0.227,0.027c0.083,0.006,0.173,0.009,0.271,0.009
		c0.098,0,0.188-0.003,0.27-0.009c0.082-0.006,0.157-0.015,0.226-0.027s0.132-0.027,0.19-0.044c0.058-0.017,0.112-0.037,0.162-0.06
		s0.097-0.047,0.142-0.074c0.045-0.027,0.087-0.056,0.129-0.088s0.083-0.065,0.125-0.1c0.042-0.035,0.084-0.072,0.128-0.111
		c0.054-0.047,0.11-0.096,0.169-0.145s0.12-0.099,0.186-0.147c0.066-0.049,0.135-0.097,0.21-0.143s0.155-0.09,0.242-0.132
		s0.18-0.08,0.281-0.114s0.209-0.064,0.327-0.089s0.244-0.045,0.38-0.059s0.283-0.021,0.44-0.021c0.158,0,0.305,0.007,0.441,0.021
		c0.136,0.014,0.263,0.034,0.38,0.059s0.226,0.055,0.327,0.09c0.101,0.034,0.194,0.073,0.28,0.114s0.167,0.086,0.241,0.132
		c0.075,0.046,0.144,0.094,0.209,0.143c0.065,0.049,0.127,0.098,0.185,0.147c0.058,0.049,0.114,0.098,0.168,0.145
		c0.044,0.039,0.087,0.076,0.129,0.111c0.042,0.035,0.083,0.069,0.125,0.1s0.085,0.061,0.13,0.088
		c0.045,0.027,0.092,0.052,0.142,0.074s0.104,0.042,0.162,0.06c0.058,0.017,0.121,0.032,0.19,0.044s0.144,0.021,0.226,0.027
		c0.082,0.006,0.172,0.009,0.27,0.009c0.099,0,0.188-0.003,0.271-0.009c0.082-0.006,0.158-0.015,0.227-0.027
		s0.132-0.027,0.191-0.044c0.058-0.017,0.112-0.037,0.162-0.06s0.097-0.047,0.142-0.074c0.045-0.027,0.087-0.056,0.129-0.088
		s0.083-0.065,0.125-0.1c0.042-0.035,0.084-0.072,0.128-0.111c0.059-0.051,0.12-0.102,0.186-0.153c0.066-0.05,0.135-0.1,0.209-0.148
		c0.074-0.048,0.154-0.094,0.239-0.137c0.085-0.044,0.176-0.085,0.274-0.122s0.202-0.072,0.315-0.102
		c0.112-0.03,0.233-0.056,0.362-0.077s0.267-0.037,0.414-0.047c0.148-0.01,0.305-0.015,0.473-0.012l-0.001,0.031l-0.001,0.031
		L29.68,7.597l-0.001,0.031l-0.001,0.031L29.678,7.69l-0.001,0.031l-0.001,0.031c-0.157-0.004-0.303-0.002-0.44,0.006
		C29.1,7.767,28.972,7.78,28.853,7.798s-0.231,0.041-0.335,0.069c-0.104,0.027-0.201,0.059-0.291,0.093s-0.175,0.073-0.254,0.113
		c-0.079,0.041-0.153,0.084-0.222,0.129s-0.135,0.092-0.197,0.141c-0.062,0.048-0.121,0.098-0.178,0.147
		c-0.046,0.04-0.091,0.079-0.136,0.117c-0.045,0.038-0.09,0.074-0.136,0.109s-0.094,0.067-0.145,0.098
		c-0.05,0.031-0.104,0.059-0.161,0.085s-0.118,0.049-0.185,0.07c-0.067,0.021-0.138,0.038-0.217,0.053s-0.164,0.026-0.257,0.033
		C26.047,9.062,25.946,9.066,25.836,9.066z"/>
</g>
<g>
	<path class="st0" d="M29.565,22.577v-0.03v-0.03v-0.03v-0.03v-0.03v-0.03v-0.03v-0.03c-0.564-0.235-1.135-0.456-1.712-0.664
		c-0.577-0.208-1.16-0.403-1.75-0.584s-1.185-0.348-1.786-0.5s-1.208-0.291-1.82-0.415c-0.612-0.124-1.229-0.233-1.851-0.327
		s-1.249-0.173-1.88-0.236c-0.631-0.063-1.267-0.111-1.907-0.144c-0.64-0.032-1.284-0.048-1.932-0.048
		c-0.648,0-1.292,0.016-1.932,0.048c-0.64,0.032-1.276,0.08-1.907,0.144c-0.631,0.063-1.258,0.142-1.88,0.236
		s-1.239,0.203-1.851,0.327s-1.218,0.262-1.819,0.415s-1.196,0.32-1.786,0.5s-1.173,0.375-1.75,0.584
		c-0.577,0.208-1.148,0.43-1.711,0.664v0.03v0.03v0.03v0.03v0.03v0.03v0.03v0.03c0.563-0.236,1.134-0.459,1.711-0.668
		c0.577-0.209,1.16-0.405,1.749-0.587s1.184-0.35,1.785-0.503c0.601-0.154,1.208-0.293,1.819-0.417s1.229-0.234,1.851-0.329
		c0.622-0.095,1.249-0.174,1.881-0.238s1.268-0.112,1.908-0.144c0.64-0.032,1.285-0.049,1.933-0.049
		c0.648,0,1.292,0.016,1.933,0.049c0.64,0.032,1.276,0.081,1.908,0.144c0.632,0.064,1.259,0.143,1.881,0.238
		c0.622,0.095,1.239,0.204,1.851,0.329c0.612,0.124,1.219,0.264,1.819,0.417c0.601,0.154,1.196,0.321,1.785,0.503
		s1.172,0.378,1.749,0.587C28.431,22.118,29.001,22.341,29.565,22.577"/>
</g>
<g>
	<path class="st0" d="M29.565,22.577c0.009,0.004,0.019,0.008,0.028,0.012s0.019,0.008,0.028,0.012
		c0.009,0.004,0.019,0.008,0.028,0.012c0.009,0.004,0.019,0.008,0.028,0.012c0.009,0.004,0.019,0.008,0.028,0.012
		s0.019,0.008,0.028,0.012c0.009,0.004,0.019,0.008,0.028,0.012c0.009,0.004,0.019,0.008,0.028,0.012V22.64v-0.031v-0.031v-0.031
		v-0.031v-0.031v-0.031v-0.031c-0.009-0.004-0.019-0.008-0.028-0.012c-0.009-0.004-0.019-0.008-0.028-0.011
		c-0.009-0.004-0.019-0.007-0.028-0.011c-0.009-0.004-0.019-0.007-0.028-0.011c-0.009-0.004-0.019-0.007-0.028-0.011
		s-0.019-0.007-0.028-0.011c-0.009-0.004-0.019-0.007-0.028-0.011c-0.009-0.004-0.019-0.008-0.028-0.011v0.03v0.03v0.03v0.03v0.03
		v0.03v0.03V22.577z"/>
</g>
<g>
	<path class="st0" d="M0.291,22.577v-0.03v-0.03v-0.03v-0.03v-0.03v-0.03v-0.03v-0.03c-0.009,0.004-0.019,0.008-0.028,0.011
		s-0.019,0.007-0.028,0.011c-0.009,0.004-0.019,0.007-0.028,0.011s-0.019,0.007-0.029,0.011c-0.01,0.004-0.019,0.007-0.029,0.011
		C0.139,22.393,0.13,22.397,0.12,22.4c-0.009,0.004-0.019,0.008-0.028,0.011c-0.009,0.004-0.019,0.008-0.028,0.012v0.031v0.031
		v0.031v0.031v0.031v0.031v0.031v0.031c0.009-0.004,0.019-0.008,0.028-0.012c0.009-0.004,0.019-0.008,0.028-0.012
		s0.019-0.008,0.028-0.012c0.009-0.004,0.019-0.008,0.028-0.012s0.019-0.008,0.028-0.012s0.019-0.008,0.029-0.012
		s0.019-0.008,0.029-0.012C0.272,22.585,0.281,22.581,0.291,22.577"/>
</g>
<g>
	<path class="st0" d="M29.808,29.908H26.09h-3.718h-3.718h-3.718h-3.718H7.5H3.782H0.064v-3.716v-3.716V18.76v-3.716v-3.716V7.611
		V3.895V0.179h3.718H7.5h3.718h3.718h3.718h3.718h3.718h3.718v3.716v3.716v3.716v3.716v3.716v3.716v3.716V29.908z M0.314,29.658
		H3.97h3.655h3.655h3.655h3.655h3.655h3.655h3.655v-3.654v-3.654v-3.654v-3.654V11.39V7.736V4.083V0.429h-3.655h-3.655h-3.655
		h-3.655h-3.655H7.625H3.97H0.314v3.654v3.654v3.654v3.654v3.654v3.654v3.654V29.658z"/>
</g>
</svg>
