<?xml version="1.0" encoding="utf-8"?>
<!-- Generator: Adobe Illustrator 19.1.0, SVG Export Plug-In . SVG Version: 6.00 Build 0)  -->
<svg version="1.1" id="Layer_1" xmlns="http://www.w3.org/2000/svg" xmlns:xlink="http://www.w3.org/1999/xlink" x="0px" y="0px"
	 viewBox="0 0 29.91 30.086" style="enable-background:new 0 0 29.91 30.086;" xml:space="preserve">
<style type="text/css">
	.st0{fill:#4D4D4D;}
	.st1{fill-rule:evenodd;clip-rule:evenodd;fill:#4C4C4C;}
	.st2{fill:#4C4C4C;}
	.st3{fill:#383330;}
	.st4{fill:#1F1A17;}
	.st5{fill:#4D4C4C;}
	.st6{fill:none;stroke:#000000;stroke-width:0.3;stroke-miterlimit:10;}
	.st7{fill:#E61413;}
	.st8{fill:#5F5357;}
	.st9{fill:#115C78;}
	.st10{fill-rule:evenodd;clip-rule:evenodd;fill:#4D4D4D;}
	.st11{fill-rule:evenodd;clip-rule:evenodd;}
	.st12{fill:#FFFFFF;}
	.st13{fill:none;}
	.st14{fill:#231F20;}
	.st15{clip-path:url(#SVGID_2_);}
	.st16{clip-path:url(#SVGID_4_);fill:#FCF118;}
	.st17{clip-path:url(#SVGID_4_);fill:#FCF018;}
	.st18{clip-path:url(#SVGID_4_);fill:#FCEF18;}
	.st19{clip-path:url(#SVGID_4_);fill:#FCEE18;}
	.st20{clip-path:url(#SVGID_4_);fill:#FCED18;}
	.st21{clip-path:url(#SVGID_4_);fill:#FCEC18;}
	.st22{clip-path:url(#SVGID_4_);fill:#FCEB18;}
	.st23{clip-path:url(#SVGID_4_);fill:#FCEA18;}
	.st24{clip-path:url(#SVGID_4_);fill:#FCE918;}
	.st25{clip-path:url(#SVGID_4_);fill:#FCE818;}
	.st26{clip-path:url(#SVGID_4_);fill:#FCE718;}
	.st27{clip-path:url(#SVGID_4_);fill:#FCE617;}
	.st28{clip-path:url(#SVGID_4_);fill:#FCE517;}
	.st29{clip-path:url(#SVGID_4_);fill:#FCE417;}
	.st30{clip-path:url(#SVGID_4_);fill:#FCE317;}
	.st31{clip-path:url(#SVGID_4_);fill:#FCE217;}
	.st32{clip-path:url(#SVGID_4_);fill:#FCE117;}
	.st33{clip-path:url(#SVGID_4_);fill:#FCE017;}
	.st34{clip-path:url(#SVGID_4_);fill:#FCDF17;}
	.st35{clip-path:url(#SVGID_4_);fill:#FCDE17;}
	.st36{clip-path:url(#SVGID_4_);fill:#FCDD17;}
	.st37{clip-path:url(#SVGID_4_);fill:#FCDC17;}
	.st38{clip-path:url(#SVGID_4_);fill:#FCDB17;}
	.st39{clip-path:url(#SVGID_4_);fill:#FCDA17;}
	.st40{clip-path:url(#SVGID_4_);fill:#FCD917;}
	.st41{clip-path:url(#SVGID_4_);fill:#FCD817;}
	.st42{clip-path:url(#SVGID_4_);fill:#FCD717;}
	.st43{clip-path:url(#SVGID_4_);fill:#FCD617;}
	.st44{clip-path:url(#SVGID_4_);fill:#FCD517;}
	.st45{clip-path:url(#SVGID_4_);fill:#FCD416;}
	.st46{clip-path:url(#SVGID_4_);fill:#FCD316;}
	.st47{clip-path:url(#SVGID_4_);fill:#FBD216;}
	.st48{clip-path:url(#SVGID_4_);fill:#FBD116;}
	.st49{clip-path:url(#SVGID_4_);fill:#FBD016;}
	.st50{clip-path:url(#SVGID_4_);fill:#FBCF16;}
	.st51{clip-path:url(#SVGID_4_);fill:#FBCE16;}
	.st52{clip-path:url(#SVGID_4_);fill:#FBCD16;}
	.st53{clip-path:url(#SVGID_4_);fill:#FBCC16;}
	.st54{clip-path:url(#SVGID_4_);fill:#FBCB16;}
	.st55{clip-path:url(#SVGID_4_);fill:#FBCA16;}
	.st56{clip-path:url(#SVGID_4_);fill:#FBC916;}
	.st57{clip-path:url(#SVGID_4_);fill:#FBC816;}
	.st58{clip-path:url(#SVGID_4_);fill:#FBC716;}
	.st59{clip-path:url(#SVGID_4_);fill:#FBC616;}
	.st60{clip-path:url(#SVGID_4_);fill:#FBC516;}
	.st61{clip-path:url(#SVGID_4_);fill:#FBC416;}
	.st62{clip-path:url(#SVGID_4_);fill:#FBC316;}
	.st63{clip-path:url(#SVGID_4_);fill:#FBC216;}
	.st64{clip-path:url(#SVGID_4_);fill:#FBC115;}
	.st65{clip-path:url(#SVGID_4_);fill:#FBC015;}
	.st66{clip-path:url(#SVGID_4_);fill:#FBBF15;}
	.st67{clip-path:url(#SVGID_4_);fill:#FBBE15;}
	.st68{clip-path:url(#SVGID_4_);fill:#FBBD15;}
	.st69{clip-path:url(#SVGID_4_);fill:#FBBC15;}
	.st70{clip-path:url(#SVGID_4_);fill:#FBBB15;}
	.st71{clip-path:url(#SVGID_4_);fill:#FBBA15;}
	.st72{clip-path:url(#SVGID_4_);fill:#FBB915;}
	.st73{clip-path:url(#SVGID_4_);fill:#FBB815;}
	.st74{clip-path:url(#SVGID_4_);fill:#FBB715;}
	.st75{clip-path:url(#SVGID_4_);fill:#FBB615;}
	.st76{clip-path:url(#SVGID_4_);fill:#FBB515;}
	.st77{clip-path:url(#SVGID_4_);fill:#FBB415;}
	.st78{clip-path:url(#SVGID_4_);fill:#FBB315;}
	.st79{clip-path:url(#SVGID_4_);fill:#FBB215;}
	.st80{clip-path:url(#SVGID_4_);fill:#FBB115;}
	.st81{clip-path:url(#SVGID_4_);fill:#FBB015;}
	.st82{clip-path:url(#SVGID_4_);fill:#FBAF15;}
	.st83{clip-path:url(#SVGID_4_);fill:#FAAE15;}
	.st84{clip-path:url(#SVGID_4_);fill:#FAAD14;}
	.st85{clip-path:url(#SVGID_4_);fill:#FAAC14;}
	.st86{clip-path:url(#SVGID_4_);fill:#FAAB14;}
	.st87{clip-path:url(#SVGID_4_);fill:#FAAA14;}
	.st88{clip-path:url(#SVGID_4_);fill:#FAA914;}
	.st89{clip-path:url(#SVGID_4_);fill:#FAA814;}
	.st90{clip-path:url(#SVGID_4_);fill:#FAA714;}
	.st91{clip-path:url(#SVGID_4_);fill:#FAA614;}
	.st92{clip-path:url(#SVGID_4_);fill:#FAA514;}
	.st93{clip-path:url(#SVGID_4_);fill:#FAA414;}
	.st94{clip-path:url(#SVGID_4_);fill:#FAA314;}
	.st95{clip-path:url(#SVGID_4_);fill:#FAA214;}
	.st96{clip-path:url(#SVGID_4_);fill:#FAA114;}
	.st97{clip-path:url(#SVGID_4_);fill:#FAA014;}
	.st98{clip-path:url(#SVGID_4_);fill:#FA9F14;}
	.st99{clip-path:url(#SVGID_4_);fill:#FA9E14;}
	.st100{clip-path:url(#SVGID_4_);fill:#FA9D14;}
	.st101{clip-path:url(#SVGID_4_);fill:#FA9C14;}
	.st102{clip-path:url(#SVGID_4_);fill:#FA9B14;}
	.st103{clip-path:url(#SVGID_4_);fill:#FA9A13;}
	.st104{clip-path:url(#SVGID_4_);fill:#FA9913;}
	.st105{clip-path:url(#SVGID_4_);fill:#FA9813;}
	.st106{clip-path:url(#SVGID_4_);fill:#FA9713;}
	.st107{clip-path:url(#SVGID_4_);fill:#FA9613;}
	.st108{clip-path:url(#SVGID_4_);fill:#FA9513;}
	.st109{clip-path:url(#SVGID_4_);fill:#FA9413;}
	.st110{clip-path:url(#SVGID_4_);fill:#FA9313;}
	.st111{clip-path:url(#SVGID_4_);fill:#FA9213;}
	.st112{clip-path:url(#SVGID_4_);fill:#FA9113;}
	.st113{clip-path:url(#SVGID_4_);fill:#FA9013;}
	.st114{clip-path:url(#SVGID_4_);fill:#FA8F13;}
	.st115{clip-path:url(#SVGID_4_);fill:#FA8E13;}
	.st116{clip-path:url(#SVGID_4_);fill:#FA8D13;}
	.st117{clip-path:url(#SVGID_4_);fill:#FA8C13;}
	.st118{clip-path:url(#SVGID_4_);fill:#FA8B13;}
	.st119{clip-path:url(#SVGID_4_);fill:#FA8A13;}
	.st120{clip-path:url(#SVGID_4_);fill:#FA8913;}
	.st121{clip-path:url(#SVGID_4_);fill:#FA8812;}
	.st122{clip-path:url(#SVGID_4_);fill:#FA8712;}
	.st123{clip-path:url(#SVGID_4_);fill:#FA8612;}
	.st124{clip-path:url(#SVGID_4_);fill:#F98512;}
	.st125{clip-path:url(#SVGID_4_);fill:#F98412;}
	.st126{clip-path:url(#SVGID_4_);fill:#F98312;}
	.st127{clip-path:url(#SVGID_4_);fill:#F98212;}
	.st128{clip-path:url(#SVGID_4_);fill:#F98112;}
	.st129{clip-path:url(#SVGID_4_);fill:#F98012;}
	.st130{clip-path:url(#SVGID_4_);fill:#F97F12;}
	.st131{clip-path:url(#SVGID_4_);fill:#F97E12;}
	.st132{clip-path:url(#SVGID_4_);fill:#F97D12;}
	.st133{clip-path:url(#SVGID_4_);fill:#F97C12;}
	.st134{clip-path:url(#SVGID_4_);fill:#F97B12;}
	.st135{clip-path:url(#SVGID_4_);fill:#F97A12;}
	.st136{clip-path:url(#SVGID_4_);fill:#F97912;}
	.st137{clip-path:url(#SVGID_4_);fill:#F97812;}
	.st138{clip-path:url(#SVGID_4_);fill:#F97712;}
	.st139{clip-path:url(#SVGID_4_);fill:#F97612;}
	.st140{clip-path:url(#SVGID_4_);fill:#F97511;}
	.st141{clip-path:url(#SVGID_4_);fill:#F97411;}
	.st142{clip-path:url(#SVGID_4_);fill:#F97311;}
	.st143{clip-path:url(#SVGID_4_);fill:#F97211;}
	.st144{clip-path:url(#SVGID_4_);fill:#F97111;}
	.st145{clip-path:url(#SVGID_4_);fill:#F97011;}
	.st146{clip-path:url(#SVGID_4_);fill:#F96F11;}
	.st147{clip-path:url(#SVGID_4_);fill:#F96E11;}
	.st148{clip-path:url(#SVGID_4_);fill:#F96D11;}
	.st149{clip-path:url(#SVGID_4_);fill:#F96C11;}
	.st150{clip-path:url(#SVGID_4_);fill:#F96B11;}
	.st151{clip-path:url(#SVGID_4_);fill:#F96A11;}
	.st152{clip-path:url(#SVGID_4_);fill:#F96911;}
	.st153{clip-path:url(#SVGID_4_);fill:#F96811;}
	.st154{clip-path:url(#SVGID_4_);fill:#F96711;}
	.st155{clip-path:url(#SVGID_4_);fill:#F96611;}
	.st156{clip-path:url(#SVGID_4_);fill:#F96511;}
	.st157{clip-path:url(#SVGID_4_);fill:#F96411;}
	.st158{clip-path:url(#SVGID_4_);fill:#F96311;}
	.st159{clip-path:url(#SVGID_4_);fill:#F96210;}
	.st160{clip-path:url(#SVGID_4_);fill:#F86110;}
	.st161{clip-path:url(#SVGID_4_);fill:#F86010;}
	.st162{clip-path:url(#SVGID_4_);fill:#F85F10;}
	.st163{clip-path:url(#SVGID_4_);fill:#F85E10;}
	.st164{clip-path:url(#SVGID_4_);fill:#F85D10;}
	.st165{clip-path:url(#SVGID_4_);fill:#F85C10;}
	.st166{clip-path:url(#SVGID_4_);fill:#F85B10;}
	.st167{clip-path:url(#SVGID_4_);fill:#F85A10;}
	.st168{clip-path:url(#SVGID_4_);fill:#F85910;}
	.st169{clip-path:url(#SVGID_4_);fill:#F85810;}
	.st170{clip-path:url(#SVGID_4_);fill:#F85710;}
	.st171{clip-path:url(#SVGID_4_);fill:#F85610;}
	.st172{clip-path:url(#SVGID_4_);fill:#F85510;}
	.st173{clip-path:url(#SVGID_4_);fill:#F85410;}
	.st174{clip-path:url(#SVGID_4_);fill:#F85310;}
	.st175{clip-path:url(#SVGID_4_);fill:#F85210;}
	.st176{clip-path:url(#SVGID_4_);fill:#F85110;}
	.st177{clip-path:url(#SVGID_4_);fill:#F85010;}
	.st178{clip-path:url(#SVGID_4_);fill:#F84F0F;}
	.st179{clip-path:url(#SVGID_4_);fill:#F84E0F;}
	.st180{clip-path:url(#SVGID_4_);fill:#F84D0F;}
	.st181{clip-path:url(#SVGID_4_);fill:#F84C0F;}
	.st182{clip-path:url(#SVGID_4_);fill:#F84B0F;}
	.st183{clip-path:url(#SVGID_4_);fill:#F84A0F;}
	.st184{clip-path:url(#SVGID_4_);fill:#F8490F;}
	.st185{clip-path:url(#SVGID_4_);fill:#F8480F;}
	.st186{clip-path:url(#SVGID_4_);fill:#F8470F;}
	.st187{clip-path:url(#SVGID_4_);fill:#F8460F;}
	.st188{clip-path:url(#SVGID_4_);fill:#F8450F;}
	.st189{clip-path:url(#SVGID_4_);fill:#F8440F;}
	.st190{clip-path:url(#SVGID_4_);fill:#F8430F;}
	.st191{clip-path:url(#SVGID_4_);fill:#F8420F;}
	.st192{clip-path:url(#SVGID_4_);fill:#F8410F;}
	.st193{clip-path:url(#SVGID_4_);fill:#F8400F;}
	.st194{clip-path:url(#SVGID_4_);fill:#F83F0F;}
	.st195{clip-path:url(#SVGID_4_);fill:#F83E0E;}
	.st196{clip-path:url(#SVGID_4_);fill:#F83D0E;}
	.st197{clip-path:url(#SVGID_4_);fill:#F83C0E;}
	.st198{clip-path:url(#SVGID_4_);fill:#F83B0E;}
	.st199{clip-path:url(#SVGID_4_);fill:#F73A0E;}
	.st200{clip-path:url(#SVGID_4_);fill:#F7390E;}
	.st201{clip-path:url(#SVGID_4_);fill:#F7380E;}
	.st202{clip-path:url(#SVGID_4_);fill:#F7370E;}
	.st203{clip-path:url(#SVGID_4_);fill:#F7360E;}
	.st204{clip-path:url(#SVGID_4_);fill:#F7340E;}
	.st205{clip-path:url(#SVGID_4_);fill:#F7330E;}
	.st206{clip-path:url(#SVGID_4_);fill:#F7320E;}
	.st207{clip-path:url(#SVGID_4_);fill:#F7310E;}
	.st208{clip-path:url(#SVGID_4_);fill:#F7300E;}
	.st209{clip-path:url(#SVGID_4_);fill:#F72F0E;}
	.st210{clip-path:url(#SVGID_4_);fill:#F72E0E;}
	.st211{clip-path:url(#SVGID_4_);fill:#F72D0E;}
	.st212{clip-path:url(#SVGID_4_);fill:#F72C0E;}
	.st213{clip-path:url(#SVGID_4_);fill:#F72B0E;}
	.st214{clip-path:url(#SVGID_4_);fill:#F72B0D;}
	.st215{clip-path:url(#SVGID_4_);fill:#F72A0D;}
	.st216{clip-path:url(#SVGID_4_);fill:#F7290D;}
	.st217{clip-path:url(#SVGID_4_);fill:#F7280D;}
	.st218{clip-path:url(#SVGID_4_);fill:#F7270D;}
	.st219{clip-path:url(#SVGID_4_);fill:#F7260D;}
</style>
<g>
	<path class="st0" d="M29.819,29.973h-7.432h-7.432H7.523H0.091v-7.432v-7.432V7.677V0.244h7.432h7.432h7.432h7.432v7.432v7.432
		v7.432V29.973z M0.341,29.723h7.307h7.307h7.307h7.307v-7.307v-7.307V7.802V0.494h-7.307h-7.307H7.648H0.341v7.307v7.307v7.307
		V29.723z"/>
</g>
<g>
	<path class="st0" d="M29.558,23.004v-0.061v-0.061v-0.061V22.76c-1.128-0.469-2.283-0.886-3.461-1.248
		c-1.179-0.362-2.382-0.668-3.605-0.915s-2.469-0.436-3.731-0.563c-1.263-0.127-2.543-0.192-3.839-0.192
		c-1.296,0-2.577,0.065-3.839,0.192c-1.263,0.127-2.508,0.316-3.731,0.563s-2.426,0.554-3.605,0.915
		c-1.179,0.362-2.333,0.779-3.461,1.248v0.061v0.061v0.061v0.061c1.127-0.472,2.281-0.891,3.46-1.255
		c1.178-0.364,2.381-0.672,3.605-0.92s2.469-0.439,3.732-0.566c1.263-0.128,2.544-0.193,3.841-0.193c1.296,0,2.577,0.065,3.84,0.193
		c1.263,0.128,2.508,0.318,3.732,0.566s2.426,0.557,3.605,0.92C27.276,22.113,28.431,22.532,29.558,23.004"/>
</g>
<g>
	<path class="st0" d="M14.955,15.234c-0.679,0-1.326-0.136-1.915-0.383s-1.12-0.603-1.565-1.043s-0.807-0.964-1.056-1.546
		s-0.388-1.221-0.388-1.891s0.138-1.309,0.388-1.891s0.61-1.106,1.056-1.546s0.977-0.797,1.565-1.043s1.236-0.383,1.915-0.383
		c0.679,0,1.326,0.136,1.915,0.383s1.12,0.603,1.565,1.043s0.807,0.964,1.056,1.546s0.388,1.221,0.388,1.891
		s-0.138,1.309-0.388,1.891s-0.61,1.106-1.056,1.546s-0.976,0.797-1.565,1.043S15.634,15.234,14.955,15.234z M14.955,5.76
		c-0.644,0-1.259,0.129-1.818,0.363s-1.063,0.572-1.486,0.989s-0.766,0.915-1.003,1.466s-0.368,1.158-0.368,1.794
		s0.131,1.242,0.368,1.794s0.579,1.049,1.003,1.466s0.927,0.756,1.486,0.989s1.173,0.363,1.818,0.363
		c0.644,0,1.259-0.129,1.818-0.363s1.063-0.572,1.486-0.989s0.766-0.915,1.003-1.466s0.368-1.158,0.368-1.794
		s-0.131-1.242-0.368-1.794s-0.579-1.049-1.003-1.466s-0.927-0.756-1.486-0.989S15.599,5.76,14.955,5.76z"/>
</g>
<g>
	<path class="st2" d="M16.222,8.943c0,0.063-0.005,0.123-0.014,0.181s-0.024,0.113-0.043,0.167s-0.043,0.104-0.071,0.152
		s-0.062,0.095-0.099,0.139c-0.038,0.044-0.08,0.084-0.125,0.121s-0.095,0.071-0.148,0.101s-0.11,0.057-0.171,0.08
		s-0.126,0.043-0.194,0.059v0.004v0.004v0.004v0.004c0.081,0.01,0.157,0.024,0.228,0.041s0.137,0.038,0.198,0.063
		s0.117,0.053,0.169,0.085c0.051,0.032,0.098,0.067,0.139,0.106c0.042,0.039,0.078,0.081,0.109,0.127s0.057,0.095,0.078,0.148
		s0.036,0.109,0.047,0.168s0.016,0.122,0.016,0.189c0,0.096-0.009,0.187-0.026,0.273s-0.044,0.166-0.079,0.241
		s-0.079,0.145-0.131,0.209s-0.114,0.123-0.184,0.177c-0.07,0.054-0.147,0.101-0.232,0.141S15.511,12,15.412,12.027
		s-0.207,0.047-0.322,0.06s-0.237,0.02-0.367,0.02c-0.109,0-0.214-0.005-0.317-0.014s-0.202-0.023-0.298-0.041
		s-0.19-0.041-0.28-0.068s-0.177-0.059-0.261-0.095v-0.18v-0.18v-0.18v-0.18c0.039,0.02,0.079,0.039,0.119,0.056
		s0.082,0.035,0.125,0.051s0.086,0.031,0.131,0.045s0.09,0.027,0.137,0.04c0.047,0.012,0.093,0.023,0.14,0.032
		s0.093,0.017,0.139,0.023s0.092,0.011,0.138,0.014s0.092,0.005,0.137,0.005c0.07,0,0.135-0.003,0.196-0.009
		s0.117-0.015,0.168-0.027s0.099-0.027,0.141-0.045s0.08-0.039,0.114-0.062c0.033-0.024,0.062-0.051,0.088-0.082
		s0.046-0.066,0.063-0.104s0.029-0.08,0.038-0.125s0.013-0.094,0.013-0.147c0-0.047-0.005-0.091-0.014-0.131
		s-0.024-0.077-0.043-0.11s-0.043-0.063-0.072-0.09s-0.062-0.05-0.101-0.069c-0.038-0.02-0.082-0.037-0.132-0.051
		s-0.105-0.027-0.166-0.037s-0.128-0.017-0.201-0.022s-0.151-0.007-0.235-0.007h-0.076h-0.076h-0.076h-0.076v-0.162V9.994V9.832
		V9.669h0.078h0.078h0.078h0.078c0.078,0,0.15-0.003,0.217-0.008s0.129-0.013,0.186-0.023s0.108-0.023,0.154-0.038
		s0.087-0.033,0.123-0.053s0.067-0.044,0.094-0.072s0.049-0.059,0.067-0.094s0.031-0.073,0.04-0.115s0.013-0.088,0.013-0.137
		c0-0.076-0.012-0.142-0.036-0.199s-0.059-0.104-0.107-0.142s-0.107-0.066-0.178-0.085s-0.154-0.028-0.25-0.028
		c-0.033,0-0.066,0.001-0.099,0.004s-0.066,0.007-0.1,0.012s-0.067,0.012-0.101,0.021s-0.068,0.018-0.102,0.029
		c-0.034,0.011-0.069,0.024-0.105,0.039S14.24,8.811,14.202,8.83s-0.077,0.04-0.116,0.063s-0.08,0.048-0.122,0.075l-0.098-0.146
		l-0.098-0.146L13.67,8.53l-0.098-0.146c0.091-0.066,0.187-0.123,0.287-0.173s0.205-0.091,0.314-0.123s0.222-0.058,0.34-0.074
		c0.118-0.016,0.24-0.025,0.366-0.025c0.104,0,0.202,0.005,0.295,0.016c0.093,0.011,0.18,0.026,0.262,0.047s0.158,0.047,0.229,0.079
		s0.136,0.068,0.197,0.11S15.974,8.33,16.02,8.38c0.045,0.05,0.083,0.105,0.113,0.163S16.185,8.664,16.2,8.73
		S16.222,8.868,16.222,8.943z"/>
</g>
<g>
	<path class="st2" d="M10.138,23.189H10.2h0.062h0.062h0.062l0.14,0.373l0.14,0.373l0.14,0.373l0.14,0.373
		c0.043,0.114,0.082,0.219,0.116,0.315s0.066,0.182,0.093,0.259s0.05,0.145,0.07,0.203s0.035,0.108,0.046,0.147h0.004h0.004h0.004
		h0.004c0.017-0.052,0.037-0.111,0.059-0.177s0.048-0.137,0.075-0.216s0.058-0.163,0.092-0.255s0.069-0.189,0.108-0.293l0.14-0.369
		l0.14-0.369l0.14-0.369l0.14-0.369h0.062h0.062h0.062h0.062l-0.297,0.771l-0.297,0.771l-0.297,0.771l-0.297,0.771
		c-0.024,0.063-0.047,0.12-0.069,0.173s-0.043,0.1-0.063,0.142s-0.039,0.079-0.058,0.112s-0.035,0.059-0.052,0.081
		c-0.016,0.022-0.033,0.043-0.051,0.062s-0.036,0.037-0.055,0.054s-0.039,0.032-0.059,0.045s-0.042,0.026-0.064,0.037
		c-0.022,0.011-0.045,0.021-0.069,0.029s-0.049,0.015-0.076,0.021s-0.054,0.01-0.082,0.012s-0.058,0.004-0.089,0.004
		c-0.023,0-0.047-0.001-0.072-0.003s-0.05-0.005-0.076-0.01s-0.052-0.01-0.08-0.016s-0.055-0.014-0.084-0.022v-0.053v-0.053v-0.053
		v-0.053c0.024,0.007,0.048,0.012,0.072,0.017s0.05,0.009,0.075,0.012s0.051,0.006,0.078,0.007s0.053,0.002,0.081,0.002
		c0.021,0,0.041-0.001,0.06-0.004s0.038-0.006,0.057-0.011s0.036-0.011,0.053-0.018s0.034-0.016,0.049-0.026
		s0.031-0.021,0.046-0.033s0.03-0.026,0.044-0.041s0.028-0.032,0.042-0.049s0.027-0.037,0.04-0.057
		c0.013-0.021,0.026-0.044,0.04-0.071s0.028-0.056,0.043-0.089s0.03-0.068,0.046-0.107s0.032-0.08,0.049-0.125
		c0.017-0.044,0.033-0.085,0.047-0.122s0.026-0.07,0.037-0.099s0.02-0.054,0.028-0.075s0.014-0.039,0.019-0.052l-0.254-0.664
		l-0.254-0.664l-0.254-0.664L10.138,23.189z"/>
	<path class="st2" d="M13.949,25.892c-0.096,0-0.188-0.007-0.273-0.022s-0.166-0.037-0.242-0.067s-0.145-0.067-0.21-0.111
		s-0.124-0.096-0.178-0.156s-0.101-0.125-0.142-0.196s-0.074-0.149-0.101-0.232s-0.047-0.172-0.061-0.268s-0.02-0.196-0.02-0.304
		c0-0.106,0.006-0.206,0.019-0.301s0.032-0.185,0.058-0.27s0.059-0.164,0.098-0.238s0.085-0.143,0.137-0.207
		c0.052-0.064,0.109-0.119,0.17-0.167s0.127-0.088,0.197-0.119s0.145-0.056,0.224-0.072s0.163-0.024,0.251-0.024
		c0.078,0,0.152,0.007,0.222,0.02s0.136,0.034,0.197,0.061s0.119,0.061,0.173,0.102s0.103,0.089,0.148,0.143
		s0.085,0.114,0.118,0.178s0.062,0.134,0.085,0.208s0.039,0.153,0.051,0.237s0.017,0.173,0.017,0.266v0.049v0.049v0.049v0.049
		h-0.478h-0.478h-0.478h-0.478c0.001,0.091,0.007,0.177,0.018,0.257s0.027,0.155,0.048,0.225s0.048,0.134,0.079,0.193
		s0.068,0.112,0.11,0.16s0.088,0.09,0.139,0.126s0.106,0.066,0.166,0.09s0.124,0.042,0.193,0.054s0.142,0.018,0.22,0.018
		c0.038,0,0.075-0.001,0.11-0.002s0.07-0.003,0.103-0.006s0.065-0.006,0.096-0.01s0.061-0.009,0.089-0.014
		c0.029-0.005,0.06-0.012,0.092-0.02s0.067-0.018,0.103-0.03s0.075-0.024,0.115-0.039s0.082-0.031,0.126-0.048v0.055v0.055v0.055
		v0.055c-0.038,0.016-0.074,0.031-0.11,0.045s-0.071,0.026-0.106,0.037s-0.068,0.021-0.101,0.029s-0.066,0.016-0.097,0.022
		s-0.064,0.011-0.098,0.015s-0.068,0.008-0.103,0.011s-0.071,0.005-0.107,0.007S13.987,25.892,13.949,25.892z M13.878,23.353
		c-0.064,0-0.124,0.005-0.182,0.016s-0.112,0.026-0.163,0.047s-0.099,0.047-0.144,0.079s-0.087,0.069-0.126,0.111
		c-0.039,0.042-0.073,0.089-0.104,0.14s-0.057,0.107-0.08,0.168s-0.041,0.126-0.056,0.196s-0.025,0.145-0.031,0.224h0.41h0.41h0.41
		h0.41c0-0.077-0.004-0.15-0.013-0.218s-0.021-0.133-0.038-0.193s-0.038-0.116-0.063-0.168s-0.054-0.099-0.087-0.143
		c-0.033-0.043-0.07-0.081-0.11-0.114s-0.083-0.06-0.129-0.081s-0.096-0.038-0.148-0.049S13.937,23.353,13.878,23.353z"/>
	<path class="st2" d="M17.232,25.844l-0.015-0.105l-0.015-0.105l-0.015-0.105l-0.015-0.105h-0.005h-0.005h-0.005h-0.005
		c-0.033,0.043-0.067,0.082-0.101,0.119s-0.068,0.07-0.102,0.1s-0.069,0.057-0.104,0.081s-0.07,0.045-0.105,0.062
		c-0.035,0.018-0.072,0.033-0.11,0.047s-0.078,0.024-0.12,0.033s-0.085,0.015-0.13,0.02s-0.091,0.007-0.139,0.007
		c-0.065,0-0.126-0.004-0.184-0.012c-0.058-0.008-0.112-0.021-0.163-0.037s-0.098-0.038-0.141-0.063s-0.083-0.054-0.119-0.088
		c-0.036-0.033-0.068-0.07-0.095-0.11s-0.05-0.083-0.068-0.129s-0.032-0.095-0.041-0.148s-0.014-0.108-0.014-0.167
		c0-0.065,0.007-0.126,0.02-0.184s0.034-0.111,0.061-0.162s0.061-0.097,0.101-0.14s0.087-0.082,0.141-0.118
		c0.054-0.036,0.114-0.068,0.18-0.095s0.138-0.05,0.216-0.069s0.162-0.033,0.252-0.044s0.186-0.017,0.288-0.019l0.126-0.004
		l0.126-0.004l0.126-0.004l0.126-0.004v-0.044v-0.044v-0.044v-0.044c0-0.063-0.003-0.122-0.01-0.177s-0.016-0.107-0.029-0.154
		s-0.029-0.091-0.048-0.131s-0.042-0.076-0.067-0.108c-0.026-0.032-0.055-0.06-0.089-0.085s-0.071-0.044-0.112-0.06
		s-0.086-0.028-0.135-0.036s-0.102-0.012-0.159-0.012c-0.062,0-0.124,0.004-0.186,0.013s-0.126,0.021-0.19,0.038
		s-0.128,0.038-0.193,0.064c-0.065,0.026-0.13,0.056-0.196,0.09l-0.022-0.052l-0.022-0.052L15.7,23.401l-0.022-0.052
		c0.073-0.034,0.145-0.064,0.218-0.09s0.145-0.047,0.217-0.064s0.144-0.03,0.216-0.038s0.143-0.013,0.214-0.013
		c0.073,0,0.141,0.005,0.205,0.014s0.123,0.024,0.177,0.043s0.104,0.043,0.149,0.071s0.086,0.062,0.122,0.1
		c0.036,0.038,0.068,0.081,0.095,0.129s0.05,0.102,0.068,0.161s0.032,0.123,0.041,0.193s0.014,0.144,0.014,0.224v0.441v0.441v0.441
		v0.441h-0.045h-0.045h-0.045H17.232z M16.256,25.673c0.071,0,0.138-0.005,0.201-0.015s0.123-0.025,0.179-0.046
		s0.108-0.046,0.156-0.076s0.093-0.066,0.134-0.106c0.041-0.041,0.077-0.085,0.108-0.133s0.056-0.101,0.077-0.157
		s0.036-0.116,0.046-0.18s0.015-0.132,0.015-0.204v-0.065v-0.065v-0.065v-0.065l-0.116,0.005l-0.116,0.005l-0.116,0.005
		l-0.116,0.005c-0.093,0.004-0.18,0.011-0.26,0.021s-0.153,0.021-0.219,0.036s-0.126,0.031-0.179,0.051
		c-0.053,0.02-0.1,0.042-0.139,0.066c-0.04,0.025-0.074,0.053-0.104,0.084s-0.054,0.066-0.074,0.105s-0.035,0.08-0.044,0.126
		s-0.015,0.094-0.015,0.146c0,0.042,0.003,0.081,0.01,0.118s0.016,0.071,0.029,0.104s0.029,0.062,0.048,0.09
		s0.041,0.053,0.067,0.076s0.053,0.043,0.084,0.06s0.064,0.032,0.1,0.043c0.036,0.011,0.074,0.02,0.116,0.026
		S16.21,25.673,16.256,25.673z"/>
	<path class="st2" d="M19.315,23.138c0.028,0,0.057,0.001,0.086,0.002s0.059,0.004,0.089,0.006s0.061,0.006,0.092,0.011
		s0.063,0.009,0.095,0.015l-0.012,0.058l-0.012,0.058l-0.012,0.058l-0.012,0.058c-0.028-0.007-0.055-0.013-0.084-0.018
		s-0.057-0.009-0.085-0.013s-0.058-0.006-0.087-0.008s-0.059-0.003-0.088-0.003c-0.057,0-0.111,0.006-0.162,0.018
		s-0.1,0.03-0.147,0.054s-0.09,0.054-0.131,0.09s-0.08,0.078-0.116,0.126c-0.036,0.048-0.068,0.099-0.095,0.154
		s-0.05,0.112-0.068,0.172s-0.032,0.124-0.041,0.191s-0.014,0.137-0.014,0.21v0.366v0.366v0.366v0.366h-0.06h-0.06h-0.06h-0.06
		V25.18v-0.664v-0.664v-0.664h0.051h0.051h0.051h0.051l0.006,0.12l0.006,0.12l0.006,0.12l0.006,0.12h0.004h0.004h0.004h0.004
		c0.027-0.049,0.055-0.094,0.083-0.136s0.057-0.079,0.086-0.114s0.059-0.065,0.089-0.092s0.061-0.05,0.092-0.07
		c0.031-0.02,0.063-0.037,0.097-0.052s0.07-0.027,0.107-0.037s0.077-0.017,0.117-0.022S19.272,23.138,19.315,23.138z"/>
</g>
</svg>
