<?xml version="1.0" encoding="utf-8"?>
<!-- Generator: Adobe Illustrator 19.1.0, SVG Export Plug-In . SVG Version: 6.00 Build 0)  -->
<svg version="1.1" id="Layer_1" xmlns="http://www.w3.org/2000/svg" xmlns:xlink="http://www.w3.org/1999/xlink" x="0px" y="0px"
	 viewBox="0 0 29.91 30.086" style="enable-background:new 0 0 29.91 30.086;" xml:space="preserve">
<style type="text/css">
	.st0{fill:#115C78;}
	.st1{fill-rule:evenodd;clip-rule:evenodd;fill:#4D4D4D;}
	.st2{fill:#4D4D4D;}
	.st3{fill-rule:evenodd;clip-rule:evenodd;}
	.st4{fill:#FFFFFF;}
	.st5{fill:none;}
	.st6{fill:none;stroke:#4D4D4D;stroke-width:0.3;stroke-miterlimit:10;}
	.st7{fill:#4D4D4D;stroke:#4D4D4D;stroke-width:0.1;stroke-miterlimit:10;}
	.st8{fill:#F0047F;}
	.st9{fill:none;stroke:#4D4D4D;stroke-width:0;stroke-linecap:round;stroke-linejoin:round;}
	.st10{fill:none;stroke:#4D4D4D;stroke-width:0.25;stroke-miterlimit:10;}
	.st11{fill:none;stroke:#4D4D4D;stroke-width:0.2;stroke-miterlimit:10;}
	.st12{fill:none;stroke:#4D4D4D;stroke-width:0.8;stroke-miterlimit:10;}
	.st13{fill:#4D4D4D;stroke:#4D4D4D;stroke-width:0.3;stroke-miterlimit:10;}
	.st14{fill:none;stroke:#4D4D4D;stroke-width:0.24;stroke-miterlimit:10;}
</style>
<g>
	<path class="st2" d="M27.424,14.952l0-0.24l0-0.24l0-0.24l0-0.24c-0.079-1.649-0.487-3.223-1.158-4.655S24.66,6.615,23.531,5.53
		s-2.453-1.964-3.905-2.572s-3.032-0.944-4.672-0.944c-1.64,0-3.22,0.336-4.672,0.944S7.507,4.446,6.378,5.533
		S4.316,7.912,3.644,9.347s-1.08,3.012-1.159,4.666l0,0.24l0,0.24l0,0.24l0,0.24c0.079,1.649,0.487,3.223,1.158,4.655
		s1.605,2.724,2.734,3.809s2.453,1.964,3.905,2.572s3.032,0.944,4.672,0.944c1.64,0,3.22-0.336,4.672-0.944
		c1.452-0.608,2.776-1.488,3.905-2.574s2.063-2.379,2.734-3.814C26.936,18.183,27.345,16.606,27.424,14.952z M14.955,26.611
		c-1.672,0-3.266-0.34-4.716-0.955c-1.451-0.615-2.758-1.504-3.856-2.602s-1.987-2.405-2.602-3.856
		c-0.615-1.451-0.955-3.044-0.955-4.716s0.34-3.266,0.955-4.716s1.504-2.758,2.602-3.856s2.405-1.987,3.856-2.602
		s3.044-0.955,4.716-0.955s3.266,0.34,4.716,0.955c1.451,0.615,2.758,1.504,3.856,2.602s1.987,2.405,2.602,3.856
		c0.615,1.451,0.955,3.044,0.955,4.716s-0.34,3.266-0.955,4.716c-0.615,1.451-1.504,2.758-2.602,3.856s-2.405,1.987-3.856,2.602
		C18.221,26.271,16.627,26.611,14.955,26.611z"/>
	<path class="st2" d="M14.952,14.547c0.165,0.401,0.329,0.796,0.521,1.164s0.415,0.707,0.698,0.997s0.629,0.529,1.067,0.696
		c0.438,0.167,0.969,0.262,1.626,0.262c0.45,0,0.909-0.074,1.348-0.214s0.857-0.348,1.226-0.616s0.69-0.596,0.933-0.978
		s0.408-0.818,0.468-1.301h-0.086h-0.086H22.58h-0.086c-0.061,0.418-0.216,0.8-0.439,1.138s-0.516,0.632-0.852,0.873
		s-0.716,0.431-1.114,0.56c-0.398,0.129-0.815,0.197-1.224,0.197c-0.012,0.001-0.024,0.001-0.037,0.001
		c-0.013,0-0.026,0.001-0.04,0.001s-0.028,0-0.043,0.001c-0.014,0-0.029,0-0.044,0c-0.55,0-1.001-0.095-1.378-0.261
		s-0.68-0.403-0.934-0.685s-0.457-0.611-0.634-0.962s-0.33-0.722-0.481-1.09c-0.168-0.411-0.334-0.816-0.531-1.192
		s-0.426-0.724-0.72-1.021s-0.653-0.542-1.11-0.713s-1.014-0.268-1.703-0.268c-0.301,0-0.597,0.029-0.884,0.086
		s-0.564,0.14-0.828,0.25s-0.514,0.244-0.746,0.403s-0.445,0.341-0.636,0.544c-0.142,0.152-0.268,0.312-0.378,0.479
		s-0.203,0.342-0.279,0.522s-0.136,0.368-0.178,0.56s-0.068,0.389-0.075,0.591h0.052h0.052H7.36h0.052
		c0.054-0.435,0.196-0.846,0.409-1.217c0.213-0.372,0.497-0.704,0.836-0.982s0.731-0.502,1.162-0.656s0.899-0.239,1.389-0.239
		c0.012,0,0.025-0.001,0.038-0.001s0.027-0.001,0.042-0.001s0.029,0,0.044-0.001s0.03,0,0.045,0c0.577,0,1.051,0.102,1.448,0.278
		s0.716,0.425,0.981,0.719s0.478,0.633,0.66,0.989S14.804,14.187,14.952,14.547z"/>
</g>
<polygon class="st10" points="0.274,0.304 7.648,0.304 15.021,0.304 22.394,0.304 29.768,0.304 29.768,7.673 29.768,15.043 
	29.768,22.413 29.768,29.783 22.394,29.783 15.021,29.783 7.648,29.783 0.274,29.783 0.274,22.413 0.274,15.043 0.274,7.673 "/>
</svg>
