<?xml version="1.0" encoding="utf-8"?>
<!-- Generator: Adobe Illustrator 19.1.0, SVG Export Plug-In . SVG Version: 6.00 Build 0)  -->
<svg version="1.1" id="Layer_1" xmlns="http://www.w3.org/2000/svg" xmlns:xlink="http://www.w3.org/1999/xlink" x="0px" y="0px"
	 viewBox="0 0 29.91 30.086" style="enable-background:new 0 0 29.91 30.086;" xml:space="preserve">
<style type="text/css">
	.st0{fill:#115C78;}
	.st1{fill-rule:evenodd;clip-rule:evenodd;fill:#4D4D4D;}
	.st2{fill:#4D4D4D;}
	.st3{fill-rule:evenodd;clip-rule:evenodd;}
	.st4{fill:#FFFFFF;}
	.st5{fill:none;}
	.st6{fill:none;stroke:#4D4D4D;stroke-width:0.3;stroke-miterlimit:10;}
	.st7{fill:#4D4D4D;stroke:#4D4D4D;stroke-width:0.1;stroke-miterlimit:10;}
	.st8{fill:#F0047F;}
	.st9{fill:none;stroke:#4D4D4D;stroke-width:0;stroke-linecap:round;stroke-linejoin:round;}
	.st10{fill:none;stroke:#4D4D4D;stroke-width:0.25;stroke-miterlimit:10;}
	.st11{fill:none;stroke:#4D4D4D;stroke-width:0.2;stroke-miterlimit:10;}
	.st12{fill:none;stroke:#4D4D4D;stroke-width:0.8;stroke-miterlimit:10;}
	.st13{fill:#4D4D4D;stroke:#4D4D4D;stroke-width:0.3;stroke-miterlimit:10;}
	.st14{fill:none;stroke:#4D4D4D;stroke-width:0.24;stroke-miterlimit:10;}
</style>
<g>
	<g>
		<path class="st1" d="M6.791,14.472c0-1.16,0.235-2.265,0.66-3.27s1.04-1.91,1.8-2.67c0.76-0.76,1.665-1.375,2.67-1.8
			s2.11-0.66,3.27-0.66s2.265,0.235,3.27,0.66c1.005,0.425,1.91,1.04,2.67,1.8s1.375,1.665,1.8,2.67s0.66,2.11,0.66,3.27
			c0,1.16-0.235,2.265-0.66,3.27s-1.04,1.91-1.8,2.67c-0.76,0.76-1.665,1.375-2.67,1.8c-1.005,0.425-2.11,0.66-3.27,0.66
			s-2.265-0.235-3.27-0.66c-1.005-0.425-1.91-1.04-2.67-1.8c-0.76-0.76-1.375-1.665-1.8-2.67S6.791,15.632,6.791,14.472z"/>
	</g>
	<g>
		<path class="st2" d="M15.191,22.998c-1.175,0-2.296-0.239-3.315-0.671s-1.938-1.057-2.71-1.829s-1.397-1.691-1.829-2.71
			s-0.671-2.14-0.671-3.315s0.239-2.296,0.671-3.315s1.057-1.938,1.829-2.71s1.691-1.397,2.71-1.829s2.14-0.671,3.315-0.671
			s2.296,0.239,3.315,0.671s1.938,1.057,2.71,1.829s1.397,1.691,1.829,2.71s0.671,2.14,0.671,3.315s-0.239,2.296-0.671,3.315
			s-1.057,1.938-1.829,2.71s-1.691,1.397-2.71,1.829S16.366,22.998,15.191,22.998z M15.191,6.197c-1.141,0-2.228,0.232-3.218,0.651
			s-1.882,1.026-2.631,1.775s-1.356,1.641-1.775,2.631s-0.651,2.077-0.651,3.218s0.232,2.228,0.651,3.218s1.026,1.882,1.775,2.631
			s1.641,1.356,2.631,1.775s2.077,0.651,3.218,0.651s2.228-0.232,3.218-0.651s1.882-1.026,2.631-1.775s1.356-1.641,1.775-2.631
			s0.651-2.077,0.651-3.218s-0.232-2.228-0.651-3.218s-1.026-1.882-1.775-2.631s-1.641-1.356-2.631-1.775S16.332,6.197,15.191,6.197
			z"/>
	</g>
	<g>
		<polyline class="st3" points="9.367,20.559 8.783,21.143 8.199,21.727 7.615,22.311 7.031,22.895 		"/>
	</g>
	<g>
		<path class="st2" d="M7.03,23.021c-0.008,0-0.016-0.001-0.024-0.002s-0.016-0.004-0.023-0.007S6.969,23.005,6.962,23
			s-0.013-0.01-0.02-0.016c-0.012-0.012-0.021-0.026-0.027-0.041s-0.009-0.031-0.009-0.047s0.003-0.032,0.009-0.047
			s0.015-0.029,0.027-0.041l0.584-0.584l0.584-0.584l0.584-0.584l0.584-0.584c0.012-0.012,0.026-0.021,0.041-0.027
			s0.031-0.009,0.047-0.009s0.032,0.003,0.047,0.009s0.029,0.015,0.041,0.027s0.021,0.026,0.027,0.041s0.009,0.031,0.009,0.047
			s-0.003,0.032-0.009,0.047s-0.015,0.029-0.027,0.041l-0.584,0.584l-0.584,0.584L7.703,22.4l-0.584,0.584
			C7.113,22.99,7.106,22.995,7.099,23s-0.014,0.008-0.022,0.011s-0.015,0.005-0.023,0.007S7.039,23.021,7.03,23.021z"/>
	</g>
	<g>
		<path class="st1" d="M5.835,10.4C5.56,10.099,5.37,9.744,5.262,9.359C5.155,8.975,5.13,8.561,5.185,8.142S5.374,7.3,5.584,6.896
			C5.794,6.493,6.08,6.11,6.439,5.772c0.341-0.321,0.719-0.574,1.11-0.755c0.392-0.181,0.798-0.292,1.198-0.329
			c0.399-0.037,0.792-0.002,1.156,0.109c0.364,0.111,0.699,0.296,0.985,0.559L9.625,6.618L8.362,7.878L7.098,9.139L5.835,10.4z"/>
	</g>
	<g>
		<path class="st2" d="M5.835,10.525c-0.007-0.002-0.015-0.004-0.023-0.006s-0.017-0.005-0.025-0.008s-0.016-0.007-0.024-0.011
			s-0.014-0.01-0.02-0.016c-0.287-0.313-0.484-0.682-0.597-1.082s-0.139-0.83-0.084-1.265c0.055-0.435,0.193-0.874,0.409-1.292
			S5.983,6.03,6.354,5.681C6.705,5.35,7.095,5.09,7.501,4.904S8.33,4.604,8.746,4.567S9.57,4.567,9.949,4.683
			s0.728,0.309,1.024,0.582c0.006,0.006,0.012,0.012,0.017,0.019s0.009,0.014,0.013,0.022s0.006,0.016,0.008,0.024
			s0.003,0.017,0.003,0.025s-0.001,0.017-0.002,0.025s-0.004,0.016-0.007,0.024s-0.007,0.015-0.012,0.022s-0.01,0.013-0.016,0.019
			L9.713,6.706L8.45,7.967L7.187,9.228l-1.263,1.261c-0.006,0.006-0.012,0.011-0.019,0.016s-0.014,0.008-0.021,0.011
			s-0.015,0.005-0.023,0.007S5.843,10.525,5.835,10.525z M9.052,4.802c-0.215,0-0.434,0.023-0.653,0.067S7.96,4.982,7.744,5.07
			s-0.428,0.2-0.632,0.332S6.711,5.688,6.525,5.863C6.189,6.18,5.918,6.537,5.717,6.914S5.382,7.686,5.321,8.078
			C5.26,8.471,5.271,8.86,5.357,9.224s0.246,0.702,0.485,0.993l1.216-1.214L8.273,7.79l1.216-1.214l1.216-1.214
			c-0.115-0.094-0.237-0.176-0.365-0.246s-0.263-0.129-0.403-0.175S9.653,4.86,9.505,4.837S9.206,4.802,9.052,4.802z"/>
	</g>
	<g>
		<path class="st1" d="M19.391,5.403c0.301-0.276,0.656-0.465,1.041-0.573c0.385-0.107,0.799-0.132,1.218-0.077
			c0.419,0.055,0.842,0.189,1.245,0.399s0.786,0.496,1.124,0.855c0.321,0.341,0.574,0.719,0.755,1.11
			c0.181,0.392,0.292,0.798,0.329,1.198c0.037,0.399,0.002,0.792-0.109,1.156c-0.111,0.364-0.296,0.699-0.559,0.985l-1.261-1.263
			L21.913,7.93l-1.261-1.263L19.391,5.403z"/>
	</g>
	<g>
		<path class="st2" d="M24.435,10.581c-0.008,0-0.017-0.001-0.025-0.002s-0.016-0.004-0.023-0.007s-0.015-0.007-0.021-0.011
			s-0.013-0.01-0.019-0.016l-1.261-1.263l-1.261-1.263l-1.261-1.263l-1.261-1.263c-0.006-0.006-0.011-0.013-0.016-0.02
			s-0.008-0.014-0.012-0.022s-0.005-0.016-0.007-0.024s-0.002-0.017-0.002-0.025c0-0.009,0.001-0.017,0.003-0.025
			s0.005-0.016,0.008-0.024s0.008-0.015,0.013-0.022s0.01-0.013,0.017-0.019c0.313-0.286,0.682-0.484,1.082-0.597
			s0.83-0.139,1.265-0.084s0.874,0.193,1.292,0.409s0.814,0.511,1.163,0.882c0.331,0.351,0.591,0.742,0.777,1.148
			s0.299,0.829,0.337,1.244c0.037,0.415-0.001,0.824-0.116,1.203s-0.309,0.728-0.581,1.024c-0.006,0.007-0.012,0.013-0.02,0.019
			s-0.015,0.011-0.023,0.015s-0.016,0.007-0.025,0.008S24.443,10.584,24.435,10.581z M19.574,5.41l1.214,1.216l1.214,1.216
			l1.214,1.216l1.214,1.216c0.226-0.275,0.383-0.594,0.472-0.939s0.111-0.713,0.066-1.087c-0.044-0.374-0.154-0.754-0.328-1.12
			s-0.411-0.717-0.711-1.035c-0.317-0.336-0.675-0.607-1.051-0.808s-0.772-0.334-1.164-0.395s-0.781-0.05-1.145,0.036
			S19.865,5.172,19.574,5.41z"/>
	</g>
	<g>
		<path class="st4" d="M23.268,22.657c-0.008,0-0.016-0.001-0.024-0.002s-0.016-0.004-0.023-0.007s-0.015-0.007-0.022-0.011
			s-0.013-0.01-0.02-0.016l-4.53-4.53l-4.53-4.53l-4.53-4.53l-4.53-4.53C5.048,4.488,5.038,4.474,5.032,4.459
			S5.023,4.428,5.023,4.412S5.026,4.38,5.032,4.365S5.048,4.336,5.06,4.324s0.026-0.021,0.041-0.027s0.031-0.009,0.047-0.009
			S5.18,4.29,5.195,4.296s0.029,0.015,0.041,0.027l4.53,4.53l4.53,4.53l4.53,4.53l4.53,4.53c0.012,0.012,0.021,0.026,0.027,0.041
			s0.009,0.031,0.009,0.047s-0.003,0.032-0.009,0.047s-0.015,0.029-0.027,0.041c-0.006,0.006-0.013,0.011-0.02,0.016
			s-0.014,0.008-0.022,0.011s-0.015,0.005-0.023,0.007S23.276,22.657,23.268,22.657z"/>
	</g>
	<g>
		<path class="st2" d="M23.529,22.915c-0.008,0-0.016-0.001-0.024-0.002s-0.016-0.004-0.023-0.007s-0.015-0.007-0.022-0.011
			s-0.013-0.01-0.02-0.016l-0.584-0.584l-0.584-0.584l-0.584-0.584l-0.584-0.584c-0.012-0.012-0.021-0.026-0.027-0.041
			s-0.009-0.031-0.009-0.047s0.003-0.032,0.009-0.047s0.015-0.029,0.027-0.041s0.026-0.021,0.041-0.027s0.031-0.009,0.047-0.009
			s0.032,0.003,0.047,0.009s0.029,0.015,0.041,0.027l0.584,0.584l0.584,0.584l0.584,0.584l0.584,0.584
			c0.012,0.012,0.021,0.026,0.027,0.041s0.009,0.031,0.009,0.047s-0.003,0.032-0.009,0.047s-0.015,0.029-0.027,0.041
			c-0.006,0.006-0.013,0.011-0.02,0.016s-0.014,0.008-0.022,0.011s-0.015,0.005-0.023,0.007S23.538,22.915,23.529,22.915z"/>
	</g>
</g>
</svg>
