<?xml version="1.0" encoding="utf-8"?>
<!-- Generator: Adobe Illustrator 19.1.0, SVG Export Plug-In . SVG Version: 6.00 Build 0)  -->
<svg version="1.1" id="Layer_1" xmlns="http://www.w3.org/2000/svg" xmlns:xlink="http://www.w3.org/1999/xlink" x="0px" y="0px"
	 viewBox="0 0 29.91 30.086" style="enable-background:new 0 0 29.91 30.086;" xml:space="preserve">
<style type="text/css">
	.st0{fill:#4D4D4D;}
	.st1{fill-rule:evenodd;clip-rule:evenodd;fill:#4C4C4C;}
	.st2{fill:#4C4C4C;}
	.st3{fill:#383330;}
	.st4{fill:#1F1A17;}
	.st5{fill:#4D4C4C;}
	.st6{fill:none;stroke:#000000;stroke-width:0.3;stroke-miterlimit:10;}
	.st7{fill:#E61413;}
	.st8{fill:#5F5357;}
	.st9{fill:#115C78;}
	.st10{fill-rule:evenodd;clip-rule:evenodd;fill:#4D4D4D;}
	.st11{fill-rule:evenodd;clip-rule:evenodd;}
	.st12{fill:#FFFFFF;}
	.st13{fill:none;}
	.st14{fill:#231F20;}
	.st15{clip-path:url(#SVGID_2_);}
	.st16{clip-path:url(#SVGID_4_);fill:#FCF118;}
	.st17{clip-path:url(#SVGID_4_);fill:#FCF018;}
	.st18{clip-path:url(#SVGID_4_);fill:#FCEF18;}
	.st19{clip-path:url(#SVGID_4_);fill:#FCEE18;}
	.st20{clip-path:url(#SVGID_4_);fill:#FCED18;}
	.st21{clip-path:url(#SVGID_4_);fill:#FCEC18;}
	.st22{clip-path:url(#SVGID_4_);fill:#FCEB18;}
	.st23{clip-path:url(#SVGID_4_);fill:#FCEA18;}
	.st24{clip-path:url(#SVGID_4_);fill:#FCE918;}
	.st25{clip-path:url(#SVGID_4_);fill:#FCE818;}
	.st26{clip-path:url(#SVGID_4_);fill:#FCE718;}
	.st27{clip-path:url(#SVGID_4_);fill:#FCE617;}
	.st28{clip-path:url(#SVGID_4_);fill:#FCE517;}
	.st29{clip-path:url(#SVGID_4_);fill:#FCE417;}
	.st30{clip-path:url(#SVGID_4_);fill:#FCE317;}
	.st31{clip-path:url(#SVGID_4_);fill:#FCE217;}
	.st32{clip-path:url(#SVGID_4_);fill:#FCE117;}
	.st33{clip-path:url(#SVGID_4_);fill:#FCE017;}
	.st34{clip-path:url(#SVGID_4_);fill:#FCDF17;}
	.st35{clip-path:url(#SVGID_4_);fill:#FCDE17;}
	.st36{clip-path:url(#SVGID_4_);fill:#FCDD17;}
	.st37{clip-path:url(#SVGID_4_);fill:#FCDC17;}
	.st38{clip-path:url(#SVGID_4_);fill:#FCDB17;}
	.st39{clip-path:url(#SVGID_4_);fill:#FCDA17;}
	.st40{clip-path:url(#SVGID_4_);fill:#FCD917;}
	.st41{clip-path:url(#SVGID_4_);fill:#FCD817;}
	.st42{clip-path:url(#SVGID_4_);fill:#FCD717;}
	.st43{clip-path:url(#SVGID_4_);fill:#FCD617;}
	.st44{clip-path:url(#SVGID_4_);fill:#FCD517;}
	.st45{clip-path:url(#SVGID_4_);fill:#FCD416;}
	.st46{clip-path:url(#SVGID_4_);fill:#FCD316;}
	.st47{clip-path:url(#SVGID_4_);fill:#FBD216;}
	.st48{clip-path:url(#SVGID_4_);fill:#FBD116;}
	.st49{clip-path:url(#SVGID_4_);fill:#FBD016;}
	.st50{clip-path:url(#SVGID_4_);fill:#FBCF16;}
	.st51{clip-path:url(#SVGID_4_);fill:#FBCE16;}
	.st52{clip-path:url(#SVGID_4_);fill:#FBCD16;}
	.st53{clip-path:url(#SVGID_4_);fill:#FBCC16;}
	.st54{clip-path:url(#SVGID_4_);fill:#FBCB16;}
	.st55{clip-path:url(#SVGID_4_);fill:#FBCA16;}
	.st56{clip-path:url(#SVGID_4_);fill:#FBC916;}
	.st57{clip-path:url(#SVGID_4_);fill:#FBC816;}
	.st58{clip-path:url(#SVGID_4_);fill:#FBC716;}
	.st59{clip-path:url(#SVGID_4_);fill:#FBC616;}
	.st60{clip-path:url(#SVGID_4_);fill:#FBC516;}
	.st61{clip-path:url(#SVGID_4_);fill:#FBC416;}
	.st62{clip-path:url(#SVGID_4_);fill:#FBC316;}
	.st63{clip-path:url(#SVGID_4_);fill:#FBC216;}
	.st64{clip-path:url(#SVGID_4_);fill:#FBC115;}
	.st65{clip-path:url(#SVGID_4_);fill:#FBC015;}
	.st66{clip-path:url(#SVGID_4_);fill:#FBBF15;}
	.st67{clip-path:url(#SVGID_4_);fill:#FBBE15;}
	.st68{clip-path:url(#SVGID_4_);fill:#FBBD15;}
	.st69{clip-path:url(#SVGID_4_);fill:#FBBC15;}
	.st70{clip-path:url(#SVGID_4_);fill:#FBBB15;}
	.st71{clip-path:url(#SVGID_4_);fill:#FBBA15;}
	.st72{clip-path:url(#SVGID_4_);fill:#FBB915;}
	.st73{clip-path:url(#SVGID_4_);fill:#FBB815;}
	.st74{clip-path:url(#SVGID_4_);fill:#FBB715;}
	.st75{clip-path:url(#SVGID_4_);fill:#FBB615;}
	.st76{clip-path:url(#SVGID_4_);fill:#FBB515;}
	.st77{clip-path:url(#SVGID_4_);fill:#FBB415;}
	.st78{clip-path:url(#SVGID_4_);fill:#FBB315;}
	.st79{clip-path:url(#SVGID_4_);fill:#FBB215;}
	.st80{clip-path:url(#SVGID_4_);fill:#FBB115;}
	.st81{clip-path:url(#SVGID_4_);fill:#FBB015;}
	.st82{clip-path:url(#SVGID_4_);fill:#FBAF15;}
	.st83{clip-path:url(#SVGID_4_);fill:#FAAE15;}
	.st84{clip-path:url(#SVGID_4_);fill:#FAAD14;}
	.st85{clip-path:url(#SVGID_4_);fill:#FAAC14;}
	.st86{clip-path:url(#SVGID_4_);fill:#FAAB14;}
	.st87{clip-path:url(#SVGID_4_);fill:#FAAA14;}
	.st88{clip-path:url(#SVGID_4_);fill:#FAA914;}
	.st89{clip-path:url(#SVGID_4_);fill:#FAA814;}
	.st90{clip-path:url(#SVGID_4_);fill:#FAA714;}
	.st91{clip-path:url(#SVGID_4_);fill:#FAA614;}
	.st92{clip-path:url(#SVGID_4_);fill:#FAA514;}
	.st93{clip-path:url(#SVGID_4_);fill:#FAA414;}
	.st94{clip-path:url(#SVGID_4_);fill:#FAA314;}
	.st95{clip-path:url(#SVGID_4_);fill:#FAA214;}
	.st96{clip-path:url(#SVGID_4_);fill:#FAA114;}
	.st97{clip-path:url(#SVGID_4_);fill:#FAA014;}
	.st98{clip-path:url(#SVGID_4_);fill:#FA9F14;}
	.st99{clip-path:url(#SVGID_4_);fill:#FA9E14;}
	.st100{clip-path:url(#SVGID_4_);fill:#FA9D14;}
	.st101{clip-path:url(#SVGID_4_);fill:#FA9C14;}
	.st102{clip-path:url(#SVGID_4_);fill:#FA9B14;}
	.st103{clip-path:url(#SVGID_4_);fill:#FA9A13;}
	.st104{clip-path:url(#SVGID_4_);fill:#FA9913;}
	.st105{clip-path:url(#SVGID_4_);fill:#FA9813;}
	.st106{clip-path:url(#SVGID_4_);fill:#FA9713;}
	.st107{clip-path:url(#SVGID_4_);fill:#FA9613;}
	.st108{clip-path:url(#SVGID_4_);fill:#FA9513;}
	.st109{clip-path:url(#SVGID_4_);fill:#FA9413;}
	.st110{clip-path:url(#SVGID_4_);fill:#FA9313;}
	.st111{clip-path:url(#SVGID_4_);fill:#FA9213;}
	.st112{clip-path:url(#SVGID_4_);fill:#FA9113;}
	.st113{clip-path:url(#SVGID_4_);fill:#FA9013;}
	.st114{clip-path:url(#SVGID_4_);fill:#FA8F13;}
	.st115{clip-path:url(#SVGID_4_);fill:#FA8E13;}
	.st116{clip-path:url(#SVGID_4_);fill:#FA8D13;}
	.st117{clip-path:url(#SVGID_4_);fill:#FA8C13;}
	.st118{clip-path:url(#SVGID_4_);fill:#FA8B13;}
	.st119{clip-path:url(#SVGID_4_);fill:#FA8A13;}
	.st120{clip-path:url(#SVGID_4_);fill:#FA8913;}
	.st121{clip-path:url(#SVGID_4_);fill:#FA8812;}
	.st122{clip-path:url(#SVGID_4_);fill:#FA8712;}
	.st123{clip-path:url(#SVGID_4_);fill:#FA8612;}
	.st124{clip-path:url(#SVGID_4_);fill:#F98512;}
	.st125{clip-path:url(#SVGID_4_);fill:#F98412;}
	.st126{clip-path:url(#SVGID_4_);fill:#F98312;}
	.st127{clip-path:url(#SVGID_4_);fill:#F98212;}
	.st128{clip-path:url(#SVGID_4_);fill:#F98112;}
	.st129{clip-path:url(#SVGID_4_);fill:#F98012;}
	.st130{clip-path:url(#SVGID_4_);fill:#F97F12;}
	.st131{clip-path:url(#SVGID_4_);fill:#F97E12;}
	.st132{clip-path:url(#SVGID_4_);fill:#F97D12;}
	.st133{clip-path:url(#SVGID_4_);fill:#F97C12;}
	.st134{clip-path:url(#SVGID_4_);fill:#F97B12;}
	.st135{clip-path:url(#SVGID_4_);fill:#F97A12;}
	.st136{clip-path:url(#SVGID_4_);fill:#F97912;}
	.st137{clip-path:url(#SVGID_4_);fill:#F97812;}
	.st138{clip-path:url(#SVGID_4_);fill:#F97712;}
	.st139{clip-path:url(#SVGID_4_);fill:#F97612;}
	.st140{clip-path:url(#SVGID_4_);fill:#F97511;}
	.st141{clip-path:url(#SVGID_4_);fill:#F97411;}
	.st142{clip-path:url(#SVGID_4_);fill:#F97311;}
	.st143{clip-path:url(#SVGID_4_);fill:#F97211;}
	.st144{clip-path:url(#SVGID_4_);fill:#F97111;}
	.st145{clip-path:url(#SVGID_4_);fill:#F97011;}
	.st146{clip-path:url(#SVGID_4_);fill:#F96F11;}
	.st147{clip-path:url(#SVGID_4_);fill:#F96E11;}
	.st148{clip-path:url(#SVGID_4_);fill:#F96D11;}
	.st149{clip-path:url(#SVGID_4_);fill:#F96C11;}
	.st150{clip-path:url(#SVGID_4_);fill:#F96B11;}
	.st151{clip-path:url(#SVGID_4_);fill:#F96A11;}
	.st152{clip-path:url(#SVGID_4_);fill:#F96911;}
	.st153{clip-path:url(#SVGID_4_);fill:#F96811;}
	.st154{clip-path:url(#SVGID_4_);fill:#F96711;}
	.st155{clip-path:url(#SVGID_4_);fill:#F96611;}
	.st156{clip-path:url(#SVGID_4_);fill:#F96511;}
	.st157{clip-path:url(#SVGID_4_);fill:#F96411;}
	.st158{clip-path:url(#SVGID_4_);fill:#F96311;}
	.st159{clip-path:url(#SVGID_4_);fill:#F96210;}
	.st160{clip-path:url(#SVGID_4_);fill:#F86110;}
	.st161{clip-path:url(#SVGID_4_);fill:#F86010;}
	.st162{clip-path:url(#SVGID_4_);fill:#F85F10;}
	.st163{clip-path:url(#SVGID_4_);fill:#F85E10;}
	.st164{clip-path:url(#SVGID_4_);fill:#F85D10;}
	.st165{clip-path:url(#SVGID_4_);fill:#F85C10;}
	.st166{clip-path:url(#SVGID_4_);fill:#F85B10;}
	.st167{clip-path:url(#SVGID_4_);fill:#F85A10;}
	.st168{clip-path:url(#SVGID_4_);fill:#F85910;}
	.st169{clip-path:url(#SVGID_4_);fill:#F85810;}
	.st170{clip-path:url(#SVGID_4_);fill:#F85710;}
	.st171{clip-path:url(#SVGID_4_);fill:#F85610;}
	.st172{clip-path:url(#SVGID_4_);fill:#F85510;}
	.st173{clip-path:url(#SVGID_4_);fill:#F85410;}
	.st174{clip-path:url(#SVGID_4_);fill:#F85310;}
	.st175{clip-path:url(#SVGID_4_);fill:#F85210;}
	.st176{clip-path:url(#SVGID_4_);fill:#F85110;}
	.st177{clip-path:url(#SVGID_4_);fill:#F85010;}
	.st178{clip-path:url(#SVGID_4_);fill:#F84F0F;}
	.st179{clip-path:url(#SVGID_4_);fill:#F84E0F;}
	.st180{clip-path:url(#SVGID_4_);fill:#F84D0F;}
	.st181{clip-path:url(#SVGID_4_);fill:#F84C0F;}
	.st182{clip-path:url(#SVGID_4_);fill:#F84B0F;}
	.st183{clip-path:url(#SVGID_4_);fill:#F84A0F;}
	.st184{clip-path:url(#SVGID_4_);fill:#F8490F;}
	.st185{clip-path:url(#SVGID_4_);fill:#F8480F;}
	.st186{clip-path:url(#SVGID_4_);fill:#F8470F;}
	.st187{clip-path:url(#SVGID_4_);fill:#F8460F;}
	.st188{clip-path:url(#SVGID_4_);fill:#F8450F;}
	.st189{clip-path:url(#SVGID_4_);fill:#F8440F;}
	.st190{clip-path:url(#SVGID_4_);fill:#F8430F;}
	.st191{clip-path:url(#SVGID_4_);fill:#F8420F;}
	.st192{clip-path:url(#SVGID_4_);fill:#F8410F;}
	.st193{clip-path:url(#SVGID_4_);fill:#F8400F;}
	.st194{clip-path:url(#SVGID_4_);fill:#F83F0F;}
	.st195{clip-path:url(#SVGID_4_);fill:#F83E0E;}
	.st196{clip-path:url(#SVGID_4_);fill:#F83D0E;}
	.st197{clip-path:url(#SVGID_4_);fill:#F83C0E;}
	.st198{clip-path:url(#SVGID_4_);fill:#F83B0E;}
	.st199{clip-path:url(#SVGID_4_);fill:#F73A0E;}
	.st200{clip-path:url(#SVGID_4_);fill:#F7390E;}
	.st201{clip-path:url(#SVGID_4_);fill:#F7380E;}
	.st202{clip-path:url(#SVGID_4_);fill:#F7370E;}
	.st203{clip-path:url(#SVGID_4_);fill:#F7360E;}
	.st204{clip-path:url(#SVGID_4_);fill:#F7340E;}
	.st205{clip-path:url(#SVGID_4_);fill:#F7330E;}
	.st206{clip-path:url(#SVGID_4_);fill:#F7320E;}
	.st207{clip-path:url(#SVGID_4_);fill:#F7310E;}
	.st208{clip-path:url(#SVGID_4_);fill:#F7300E;}
	.st209{clip-path:url(#SVGID_4_);fill:#F72F0E;}
	.st210{clip-path:url(#SVGID_4_);fill:#F72E0E;}
	.st211{clip-path:url(#SVGID_4_);fill:#F72D0E;}
	.st212{clip-path:url(#SVGID_4_);fill:#F72C0E;}
	.st213{clip-path:url(#SVGID_4_);fill:#F72B0E;}
	.st214{clip-path:url(#SVGID_4_);fill:#F72B0D;}
	.st215{clip-path:url(#SVGID_4_);fill:#F72A0D;}
	.st216{clip-path:url(#SVGID_4_);fill:#F7290D;}
	.st217{clip-path:url(#SVGID_4_);fill:#F7280D;}
	.st218{clip-path:url(#SVGID_4_);fill:#F7270D;}
	.st219{clip-path:url(#SVGID_4_);fill:#F7260D;}
</style>
<g>
	<g>
		<path class="st0" d="M15.01,23.523c-1.21,0-2.364-0.246-3.415-0.691s-1.996-1.089-2.791-1.884s-1.439-1.741-1.884-2.792
			S6.23,15.952,6.23,14.742s0.246-2.364,0.691-3.415s1.089-1.996,1.884-2.791s1.741-1.439,2.791-1.884S13.8,5.961,15.01,5.961
			s2.365,0.246,3.415,0.691s1.997,1.089,2.792,1.884s1.439,1.741,1.884,2.791s0.691,2.204,0.691,3.415s-0.246,2.365-0.691,3.415
			s-1.089,1.997-1.884,2.792s-1.741,1.439-2.792,1.884S16.221,23.523,15.01,23.523z M15.01,6.211c-1.176,0-2.297,0.239-3.317,0.671
			s-1.94,1.058-2.712,1.83s-1.398,1.692-1.83,2.712S6.48,13.566,6.48,14.742s0.239,2.297,0.671,3.318s1.058,1.94,1.83,2.712
			s1.692,1.398,2.712,1.83s2.141,0.671,3.317,0.671s2.297-0.239,3.318-0.671s1.94-1.058,2.712-1.83s1.398-1.692,1.83-2.712
			s0.671-2.142,0.671-3.318s-0.239-2.297-0.671-3.317s-1.058-1.94-1.83-2.712s-1.692-1.398-2.712-1.83S16.186,6.211,15.01,6.211z"/>
	</g>
	<g>
		<path class="st0" d="M23.576,23.391c-0.008,0-0.016-0.001-0.024-0.002s-0.016-0.004-0.023-0.007s-0.015-0.007-0.022-0.011
			s-0.013-0.01-0.02-0.016l-0.602-0.602l-0.602-0.602l-0.602-0.602l-0.602-0.602c-0.012-0.012-0.021-0.026-0.027-0.041
			s-0.009-0.031-0.009-0.047s0.003-0.032,0.009-0.047s0.015-0.029,0.027-0.041s0.026-0.021,0.041-0.027s0.031-0.009,0.047-0.009
			s0.032,0.003,0.047,0.009s0.029,0.015,0.041,0.027l0.602,0.602l0.602,0.602l0.602,0.602l0.602,0.602
			c0.012,0.012,0.021,0.026,0.027,0.041s0.009,0.031,0.009,0.047s-0.003,0.032-0.009,0.047s-0.015,0.029-0.027,0.041
			c-0.006,0.006-0.013,0.011-0.02,0.016s-0.014,0.008-0.022,0.011s-0.015,0.005-0.023,0.007S23.584,23.391,23.576,23.391z"/>
	</g>
	<g>
		<path class="st0" d="M6.602,23.547c-0.008,0-0.016-0.001-0.024-0.002s-0.016-0.004-0.023-0.007s-0.015-0.007-0.022-0.011
			s-0.013-0.01-0.02-0.016c-0.012-0.012-0.021-0.026-0.027-0.041s-0.009-0.031-0.009-0.047s0.003-0.032,0.009-0.047
			s0.015-0.029,0.027-0.041l0.602-0.602l0.602-0.602l0.602-0.602l0.602-0.602c0.012-0.012,0.026-0.021,0.041-0.027
			s0.031-0.009,0.047-0.009s0.032,0.003,0.047,0.009s0.029,0.015,0.041,0.027s0.021,0.026,0.027,0.041s0.009,0.031,0.009,0.047
			s-0.003,0.032-0.009,0.047S9.11,21.09,9.098,21.102l-0.602,0.602l-0.602,0.602l-0.602,0.602L6.69,23.51
			c-0.006,0.006-0.013,0.011-0.02,0.016s-0.014,0.008-0.022,0.011s-0.015,0.005-0.023,0.007S6.61,23.547,6.602,23.547z"/>
	</g>
	<g>
		<path class="st0" d="M5.37,10.671c-0.009,0.001-0.018,0.001-0.026-0.001s-0.017-0.004-0.025-0.008s-0.015-0.008-0.022-0.014
			s-0.013-0.011-0.019-0.018c-0.295-0.322-0.499-0.702-0.614-1.114S4.52,8.662,4.577,8.214c0.057-0.448,0.198-0.9,0.421-1.33
			s0.527-0.838,0.908-1.198c0.362-0.341,0.764-0.608,1.183-0.8S7.942,4.579,8.37,4.54c0.428-0.039,0.848,0.001,1.238,0.12
			s0.749,0.317,1.053,0.598c0.006,0.006,0.012,0.012,0.017,0.019s0.009,0.014,0.013,0.022s0.006,0.016,0.008,0.024
			s0.003,0.017,0.003,0.025S10.701,5.364,10.7,5.372s-0.004,0.016-0.007,0.024s-0.007,0.015-0.012,0.022s-0.01,0.013-0.016,0.019
			L9.363,6.737L8.062,8.036L6.76,9.335l-1.302,1.299c-0.006,0.006-0.012,0.011-0.019,0.016s-0.014,0.008-0.021,0.011
			s-0.015,0.005-0.023,0.007S5.378,10.671,5.37,10.671z M8.685,4.775c-0.222,0-0.448,0.023-0.674,0.069
			C7.785,4.89,7.559,4.959,7.336,5.051S6.895,5.257,6.683,5.393S6.269,5.688,6.077,5.868C5.73,6.195,5.451,6.565,5.243,6.954
			S4.899,7.751,4.836,8.156C4.774,8.561,4.785,8.962,4.874,9.338s0.255,0.725,0.502,1.025l1.254-1.252l1.254-1.252l1.254-1.252
			l1.254-1.252c-0.118-0.098-0.245-0.183-0.377-0.256S9.744,4.967,9.6,4.919S9.306,4.834,9.153,4.81S8.844,4.775,8.685,4.775z"/>
	</g>
	<g>
		<path class="st0" d="M24.535,10.729c-0.008,0-0.017-0.001-0.025-0.002s-0.016-0.004-0.023-0.007s-0.015-0.007-0.021-0.011
			s-0.013-0.01-0.019-0.016L23.148,9.39l-1.299-1.302l-1.299-1.302L19.25,5.485c-0.006-0.006-0.012-0.013-0.016-0.02
			s-0.009-0.014-0.012-0.022s-0.005-0.016-0.007-0.024s-0.002-0.017-0.002-0.025s0.001-0.017,0.003-0.025s0.005-0.016,0.008-0.024
			s0.008-0.015,0.013-0.022s0.01-0.013,0.017-0.019c0.323-0.295,0.703-0.498,1.115-0.614s0.855-0.143,1.302-0.086
			s0.9,0.198,1.33,0.421s0.838,0.526,1.197,0.908c0.341,0.362,0.608,0.764,0.8,1.182s0.308,0.853,0.347,1.281
			c0.039,0.428,0,0.848-0.119,1.238s-0.318,0.749-0.598,1.054c-0.006,0.006-0.012,0.012-0.018,0.018s-0.012,0.01-0.019,0.013
			s-0.015,0.006-0.024,0.008S24.547,10.729,24.535,10.729z M19.521,5.403l1.252,1.254l1.252,1.254l1.252,1.254l1.252,1.254
			c0.234-0.284,0.396-0.613,0.489-0.968s0.115-0.736,0.07-1.122c-0.045-0.386-0.159-0.778-0.338-1.156s-0.424-0.74-0.734-1.069
			c-0.327-0.347-0.696-0.626-1.085-0.834s-0.797-0.345-1.202-0.407s-0.807-0.051-1.182,0.038S19.822,5.157,19.521,5.403z"/>
	</g>
	<g>
		<path class="st0" d="M15.418,14.79c-0.017,0-0.034-0.004-0.049-0.01s-0.028-0.016-0.04-0.027s-0.02-0.025-0.027-0.04
			s-0.01-0.031-0.01-0.049v-1.383V11.9v-1.383V9.134c0-0.017,0.004-0.034,0.01-0.049s0.016-0.028,0.027-0.04s0.025-0.02,0.04-0.027
			s0.031-0.01,0.049-0.01s0.034,0.004,0.049,0.01s0.028,0.016,0.04,0.027s0.02,0.025,0.027,0.04s0.01,0.031,0.01,0.049v1.383V11.9
			v1.383v1.383c0,0.017-0.004,0.034-0.01,0.049s-0.016,0.028-0.027,0.04s-0.025,0.02-0.04,0.027S15.435,14.79,15.418,14.79z"/>
	</g>
	<g>
		<path class="st0" d="M15.403,14.825h-0.918h-0.918h-0.918h-0.918c-0.017,0-0.034-0.004-0.049-0.01s-0.028-0.016-0.04-0.027
			s-0.02-0.025-0.027-0.04s-0.01-0.031-0.01-0.049s0.004-0.034,0.01-0.049s0.016-0.028,0.027-0.04s0.025-0.02,0.04-0.027
			s0.031-0.01,0.049-0.01h0.918h0.918h0.918h0.918c0.017,0,0.034,0.004,0.049,0.01s0.028,0.016,0.04,0.027s0.02,0.025,0.027,0.04
			s0.01,0.031,0.01,0.049s-0.004,0.034-0.01,0.049s-0.016,0.028-0.027,0.04s-0.025,0.02-0.04,0.027S15.421,14.825,15.403,14.825z"/>
	</g>
</g>
</svg>
