<?xml version="1.0" encoding="utf-8"?>
<!-- Generator: Adobe Illustrator 19.1.0, SVG Export Plug-In . SVG Version: 6.00 Build 0)  -->
<svg version="1.1" id="Layer_1" xmlns="http://www.w3.org/2000/svg" xmlns:xlink="http://www.w3.org/1999/xlink" x="0px" y="0px"
	 viewBox="0 0 29.91 30.086" style="enable-background:new 0 0 29.91 30.086;" xml:space="preserve">
<style type="text/css">
	.st0{fill:#4D4D4D;}
	.st1{fill-rule:evenodd;clip-rule:evenodd;fill:#4C4C4C;}
	.st2{fill:#4C4C4C;}
	.st3{fill:#383330;}
	.st4{fill:#1F1A17;}
	.st5{fill:#4D4C4C;}
	.st6{fill:none;stroke:#000000;stroke-width:0.3;stroke-miterlimit:10;}
	.st7{fill:#E61413;}
	.st8{fill:#5F5357;}
	.st9{fill:#115C78;}
	.st10{fill-rule:evenodd;clip-rule:evenodd;fill:#4D4D4D;}
	.st11{fill-rule:evenodd;clip-rule:evenodd;}
	.st12{fill:#FFFFFF;}
	.st13{fill:none;}
	.st14{fill:#231F20;}
	.st15{clip-path:url(#SVGID_2_);}
	.st16{clip-path:url(#SVGID_4_);fill:#FCF118;}
	.st17{clip-path:url(#SVGID_4_);fill:#FCF018;}
	.st18{clip-path:url(#SVGID_4_);fill:#FCEF18;}
	.st19{clip-path:url(#SVGID_4_);fill:#FCEE18;}
	.st20{clip-path:url(#SVGID_4_);fill:#FCED18;}
	.st21{clip-path:url(#SVGID_4_);fill:#FCEC18;}
	.st22{clip-path:url(#SVGID_4_);fill:#FCEB18;}
	.st23{clip-path:url(#SVGID_4_);fill:#FCEA18;}
	.st24{clip-path:url(#SVGID_4_);fill:#FCE918;}
	.st25{clip-path:url(#SVGID_4_);fill:#FCE818;}
	.st26{clip-path:url(#SVGID_4_);fill:#FCE718;}
	.st27{clip-path:url(#SVGID_4_);fill:#FCE617;}
	.st28{clip-path:url(#SVGID_4_);fill:#FCE517;}
	.st29{clip-path:url(#SVGID_4_);fill:#FCE417;}
	.st30{clip-path:url(#SVGID_4_);fill:#FCE317;}
	.st31{clip-path:url(#SVGID_4_);fill:#FCE217;}
	.st32{clip-path:url(#SVGID_4_);fill:#FCE117;}
	.st33{clip-path:url(#SVGID_4_);fill:#FCE017;}
	.st34{clip-path:url(#SVGID_4_);fill:#FCDF17;}
	.st35{clip-path:url(#SVGID_4_);fill:#FCDE17;}
	.st36{clip-path:url(#SVGID_4_);fill:#FCDD17;}
	.st37{clip-path:url(#SVGID_4_);fill:#FCDC17;}
	.st38{clip-path:url(#SVGID_4_);fill:#FCDB17;}
	.st39{clip-path:url(#SVGID_4_);fill:#FCDA17;}
	.st40{clip-path:url(#SVGID_4_);fill:#FCD917;}
	.st41{clip-path:url(#SVGID_4_);fill:#FCD817;}
	.st42{clip-path:url(#SVGID_4_);fill:#FCD717;}
	.st43{clip-path:url(#SVGID_4_);fill:#FCD617;}
	.st44{clip-path:url(#SVGID_4_);fill:#FCD517;}
	.st45{clip-path:url(#SVGID_4_);fill:#FCD416;}
	.st46{clip-path:url(#SVGID_4_);fill:#FCD316;}
	.st47{clip-path:url(#SVGID_4_);fill:#FBD216;}
	.st48{clip-path:url(#SVGID_4_);fill:#FBD116;}
	.st49{clip-path:url(#SVGID_4_);fill:#FBD016;}
	.st50{clip-path:url(#SVGID_4_);fill:#FBCF16;}
	.st51{clip-path:url(#SVGID_4_);fill:#FBCE16;}
	.st52{clip-path:url(#SVGID_4_);fill:#FBCD16;}
	.st53{clip-path:url(#SVGID_4_);fill:#FBCC16;}
	.st54{clip-path:url(#SVGID_4_);fill:#FBCB16;}
	.st55{clip-path:url(#SVGID_4_);fill:#FBCA16;}
	.st56{clip-path:url(#SVGID_4_);fill:#FBC916;}
	.st57{clip-path:url(#SVGID_4_);fill:#FBC816;}
	.st58{clip-path:url(#SVGID_4_);fill:#FBC716;}
	.st59{clip-path:url(#SVGID_4_);fill:#FBC616;}
	.st60{clip-path:url(#SVGID_4_);fill:#FBC516;}
	.st61{clip-path:url(#SVGID_4_);fill:#FBC416;}
	.st62{clip-path:url(#SVGID_4_);fill:#FBC316;}
	.st63{clip-path:url(#SVGID_4_);fill:#FBC216;}
	.st64{clip-path:url(#SVGID_4_);fill:#FBC115;}
	.st65{clip-path:url(#SVGID_4_);fill:#FBC015;}
	.st66{clip-path:url(#SVGID_4_);fill:#FBBF15;}
	.st67{clip-path:url(#SVGID_4_);fill:#FBBE15;}
	.st68{clip-path:url(#SVGID_4_);fill:#FBBD15;}
	.st69{clip-path:url(#SVGID_4_);fill:#FBBC15;}
	.st70{clip-path:url(#SVGID_4_);fill:#FBBB15;}
	.st71{clip-path:url(#SVGID_4_);fill:#FBBA15;}
	.st72{clip-path:url(#SVGID_4_);fill:#FBB915;}
	.st73{clip-path:url(#SVGID_4_);fill:#FBB815;}
	.st74{clip-path:url(#SVGID_4_);fill:#FBB715;}
	.st75{clip-path:url(#SVGID_4_);fill:#FBB615;}
	.st76{clip-path:url(#SVGID_4_);fill:#FBB515;}
	.st77{clip-path:url(#SVGID_4_);fill:#FBB415;}
	.st78{clip-path:url(#SVGID_4_);fill:#FBB315;}
	.st79{clip-path:url(#SVGID_4_);fill:#FBB215;}
	.st80{clip-path:url(#SVGID_4_);fill:#FBB115;}
	.st81{clip-path:url(#SVGID_4_);fill:#FBB015;}
	.st82{clip-path:url(#SVGID_4_);fill:#FBAF15;}
	.st83{clip-path:url(#SVGID_4_);fill:#FAAE15;}
	.st84{clip-path:url(#SVGID_4_);fill:#FAAD14;}
	.st85{clip-path:url(#SVGID_4_);fill:#FAAC14;}
	.st86{clip-path:url(#SVGID_4_);fill:#FAAB14;}
	.st87{clip-path:url(#SVGID_4_);fill:#FAAA14;}
	.st88{clip-path:url(#SVGID_4_);fill:#FAA914;}
	.st89{clip-path:url(#SVGID_4_);fill:#FAA814;}
	.st90{clip-path:url(#SVGID_4_);fill:#FAA714;}
	.st91{clip-path:url(#SVGID_4_);fill:#FAA614;}
	.st92{clip-path:url(#SVGID_4_);fill:#FAA514;}
	.st93{clip-path:url(#SVGID_4_);fill:#FAA414;}
	.st94{clip-path:url(#SVGID_4_);fill:#FAA314;}
	.st95{clip-path:url(#SVGID_4_);fill:#FAA214;}
	.st96{clip-path:url(#SVGID_4_);fill:#FAA114;}
	.st97{clip-path:url(#SVGID_4_);fill:#FAA014;}
	.st98{clip-path:url(#SVGID_4_);fill:#FA9F14;}
	.st99{clip-path:url(#SVGID_4_);fill:#FA9E14;}
	.st100{clip-path:url(#SVGID_4_);fill:#FA9D14;}
	.st101{clip-path:url(#SVGID_4_);fill:#FA9C14;}
	.st102{clip-path:url(#SVGID_4_);fill:#FA9B14;}
	.st103{clip-path:url(#SVGID_4_);fill:#FA9A13;}
	.st104{clip-path:url(#SVGID_4_);fill:#FA9913;}
	.st105{clip-path:url(#SVGID_4_);fill:#FA9813;}
	.st106{clip-path:url(#SVGID_4_);fill:#FA9713;}
	.st107{clip-path:url(#SVGID_4_);fill:#FA9613;}
	.st108{clip-path:url(#SVGID_4_);fill:#FA9513;}
	.st109{clip-path:url(#SVGID_4_);fill:#FA9413;}
	.st110{clip-path:url(#SVGID_4_);fill:#FA9313;}
	.st111{clip-path:url(#SVGID_4_);fill:#FA9213;}
	.st112{clip-path:url(#SVGID_4_);fill:#FA9113;}
	.st113{clip-path:url(#SVGID_4_);fill:#FA9013;}
	.st114{clip-path:url(#SVGID_4_);fill:#FA8F13;}
	.st115{clip-path:url(#SVGID_4_);fill:#FA8E13;}
	.st116{clip-path:url(#SVGID_4_);fill:#FA8D13;}
	.st117{clip-path:url(#SVGID_4_);fill:#FA8C13;}
	.st118{clip-path:url(#SVGID_4_);fill:#FA8B13;}
	.st119{clip-path:url(#SVGID_4_);fill:#FA8A13;}
	.st120{clip-path:url(#SVGID_4_);fill:#FA8913;}
	.st121{clip-path:url(#SVGID_4_);fill:#FA8812;}
	.st122{clip-path:url(#SVGID_4_);fill:#FA8712;}
	.st123{clip-path:url(#SVGID_4_);fill:#FA8612;}
	.st124{clip-path:url(#SVGID_4_);fill:#F98512;}
	.st125{clip-path:url(#SVGID_4_);fill:#F98412;}
	.st126{clip-path:url(#SVGID_4_);fill:#F98312;}
	.st127{clip-path:url(#SVGID_4_);fill:#F98212;}
	.st128{clip-path:url(#SVGID_4_);fill:#F98112;}
	.st129{clip-path:url(#SVGID_4_);fill:#F98012;}
	.st130{clip-path:url(#SVGID_4_);fill:#F97F12;}
	.st131{clip-path:url(#SVGID_4_);fill:#F97E12;}
	.st132{clip-path:url(#SVGID_4_);fill:#F97D12;}
	.st133{clip-path:url(#SVGID_4_);fill:#F97C12;}
	.st134{clip-path:url(#SVGID_4_);fill:#F97B12;}
	.st135{clip-path:url(#SVGID_4_);fill:#F97A12;}
	.st136{clip-path:url(#SVGID_4_);fill:#F97912;}
	.st137{clip-path:url(#SVGID_4_);fill:#F97812;}
	.st138{clip-path:url(#SVGID_4_);fill:#F97712;}
	.st139{clip-path:url(#SVGID_4_);fill:#F97612;}
	.st140{clip-path:url(#SVGID_4_);fill:#F97511;}
	.st141{clip-path:url(#SVGID_4_);fill:#F97411;}
	.st142{clip-path:url(#SVGID_4_);fill:#F97311;}
	.st143{clip-path:url(#SVGID_4_);fill:#F97211;}
	.st144{clip-path:url(#SVGID_4_);fill:#F97111;}
	.st145{clip-path:url(#SVGID_4_);fill:#F97011;}
	.st146{clip-path:url(#SVGID_4_);fill:#F96F11;}
	.st147{clip-path:url(#SVGID_4_);fill:#F96E11;}
	.st148{clip-path:url(#SVGID_4_);fill:#F96D11;}
	.st149{clip-path:url(#SVGID_4_);fill:#F96C11;}
	.st150{clip-path:url(#SVGID_4_);fill:#F96B11;}
	.st151{clip-path:url(#SVGID_4_);fill:#F96A11;}
	.st152{clip-path:url(#SVGID_4_);fill:#F96911;}
	.st153{clip-path:url(#SVGID_4_);fill:#F96811;}
	.st154{clip-path:url(#SVGID_4_);fill:#F96711;}
	.st155{clip-path:url(#SVGID_4_);fill:#F96611;}
	.st156{clip-path:url(#SVGID_4_);fill:#F96511;}
	.st157{clip-path:url(#SVGID_4_);fill:#F96411;}
	.st158{clip-path:url(#SVGID_4_);fill:#F96311;}
	.st159{clip-path:url(#SVGID_4_);fill:#F96210;}
	.st160{clip-path:url(#SVGID_4_);fill:#F86110;}
	.st161{clip-path:url(#SVGID_4_);fill:#F86010;}
	.st162{clip-path:url(#SVGID_4_);fill:#F85F10;}
	.st163{clip-path:url(#SVGID_4_);fill:#F85E10;}
	.st164{clip-path:url(#SVGID_4_);fill:#F85D10;}
	.st165{clip-path:url(#SVGID_4_);fill:#F85C10;}
	.st166{clip-path:url(#SVGID_4_);fill:#F85B10;}
	.st167{clip-path:url(#SVGID_4_);fill:#F85A10;}
	.st168{clip-path:url(#SVGID_4_);fill:#F85910;}
	.st169{clip-path:url(#SVGID_4_);fill:#F85810;}
	.st170{clip-path:url(#SVGID_4_);fill:#F85710;}
	.st171{clip-path:url(#SVGID_4_);fill:#F85610;}
	.st172{clip-path:url(#SVGID_4_);fill:#F85510;}
	.st173{clip-path:url(#SVGID_4_);fill:#F85410;}
	.st174{clip-path:url(#SVGID_4_);fill:#F85310;}
	.st175{clip-path:url(#SVGID_4_);fill:#F85210;}
	.st176{clip-path:url(#SVGID_4_);fill:#F85110;}
	.st177{clip-path:url(#SVGID_4_);fill:#F85010;}
	.st178{clip-path:url(#SVGID_4_);fill:#F84F0F;}
	.st179{clip-path:url(#SVGID_4_);fill:#F84E0F;}
	.st180{clip-path:url(#SVGID_4_);fill:#F84D0F;}
	.st181{clip-path:url(#SVGID_4_);fill:#F84C0F;}
	.st182{clip-path:url(#SVGID_4_);fill:#F84B0F;}
	.st183{clip-path:url(#SVGID_4_);fill:#F84A0F;}
	.st184{clip-path:url(#SVGID_4_);fill:#F8490F;}
	.st185{clip-path:url(#SVGID_4_);fill:#F8480F;}
	.st186{clip-path:url(#SVGID_4_);fill:#F8470F;}
	.st187{clip-path:url(#SVGID_4_);fill:#F8460F;}
	.st188{clip-path:url(#SVGID_4_);fill:#F8450F;}
	.st189{clip-path:url(#SVGID_4_);fill:#F8440F;}
	.st190{clip-path:url(#SVGID_4_);fill:#F8430F;}
	.st191{clip-path:url(#SVGID_4_);fill:#F8420F;}
	.st192{clip-path:url(#SVGID_4_);fill:#F8410F;}
	.st193{clip-path:url(#SVGID_4_);fill:#F8400F;}
	.st194{clip-path:url(#SVGID_4_);fill:#F83F0F;}
	.st195{clip-path:url(#SVGID_4_);fill:#F83E0E;}
	.st196{clip-path:url(#SVGID_4_);fill:#F83D0E;}
	.st197{clip-path:url(#SVGID_4_);fill:#F83C0E;}
	.st198{clip-path:url(#SVGID_4_);fill:#F83B0E;}
	.st199{clip-path:url(#SVGID_4_);fill:#F73A0E;}
	.st200{clip-path:url(#SVGID_4_);fill:#F7390E;}
	.st201{clip-path:url(#SVGID_4_);fill:#F7380E;}
	.st202{clip-path:url(#SVGID_4_);fill:#F7370E;}
	.st203{clip-path:url(#SVGID_4_);fill:#F7360E;}
	.st204{clip-path:url(#SVGID_4_);fill:#F7340E;}
	.st205{clip-path:url(#SVGID_4_);fill:#F7330E;}
	.st206{clip-path:url(#SVGID_4_);fill:#F7320E;}
	.st207{clip-path:url(#SVGID_4_);fill:#F7310E;}
	.st208{clip-path:url(#SVGID_4_);fill:#F7300E;}
	.st209{clip-path:url(#SVGID_4_);fill:#F72F0E;}
	.st210{clip-path:url(#SVGID_4_);fill:#F72E0E;}
	.st211{clip-path:url(#SVGID_4_);fill:#F72D0E;}
	.st212{clip-path:url(#SVGID_4_);fill:#F72C0E;}
	.st213{clip-path:url(#SVGID_4_);fill:#F72B0E;}
	.st214{clip-path:url(#SVGID_4_);fill:#F72B0D;}
	.st215{clip-path:url(#SVGID_4_);fill:#F72A0D;}
	.st216{clip-path:url(#SVGID_4_);fill:#F7290D;}
	.st217{clip-path:url(#SVGID_4_);fill:#F7280D;}
	.st218{clip-path:url(#SVGID_4_);fill:#F7270D;}
	.st219{clip-path:url(#SVGID_4_);fill:#F7260D;}
</style>
<g>
	<path class="st0" d="M29.792,29.908H22.36h-7.432H7.496H0.064v-7.432v-7.432V7.611V0.179h7.432h7.432h7.432h7.432v7.432v7.432
		v7.432V29.908z M0.314,29.658h7.307h7.307h7.307h7.307V22.35v-7.307V7.736V0.429h-7.307h-7.307H7.621H0.314v7.307v7.307v7.307
		V29.658z"/>
</g>
<g>
	<path class="st0" d="M8.827,26.79H8.756H8.684H8.612H8.54v-0.78v-0.78v-0.78v-0.78c0-0.071,0.001-0.142,0.002-0.214
		s0.004-0.145,0.007-0.218s0.007-0.148,0.011-0.222s0.01-0.15,0.015-0.227c-0.007,0.007-0.015,0.015-0.022,0.022
		s-0.015,0.014-0.023,0.021s-0.015,0.014-0.023,0.021s-0.015,0.014-0.023,0.021s-0.033,0.027-0.074,0.06s-0.1,0.079-0.176,0.139
		s-0.168,0.132-0.277,0.217c-0.109,0.086-0.235,0.184-0.378,0.296l-0.042-0.052L7.496,23.48l-0.042-0.052l-0.042-0.052l0.291-0.218
		l0.291-0.218l0.291-0.218l0.291-0.218h0.063h0.063h0.063h0.063v1.071v1.071v1.071V26.79z"/>
	<path class="st0" d="M11.827,24.214c0.114,0,0.222,0.007,0.325,0.021s0.198,0.034,0.288,0.062s0.174,0.062,0.252,0.103
		s0.15,0.09,0.215,0.145s0.123,0.116,0.172,0.181s0.09,0.136,0.123,0.212s0.057,0.157,0.074,0.243s0.025,0.178,0.025,0.274
		c0,0.11-0.009,0.214-0.026,0.311s-0.043,0.189-0.077,0.275s-0.077,0.165-0.128,0.238s-0.111,0.14-0.179,0.201
		s-0.143,0.114-0.224,0.16s-0.169,0.084-0.263,0.114s-0.195,0.053-0.302,0.069s-0.221,0.023-0.341,0.023
		c-0.053,0-0.106-0.001-0.158-0.004s-0.103-0.007-0.154-0.012s-0.1-0.012-0.15-0.02s-0.098-0.017-0.146-0.028
		s-0.094-0.022-0.138-0.035s-0.086-0.027-0.126-0.042s-0.078-0.031-0.114-0.048s-0.07-0.036-0.103-0.055V26.53v-0.075v-0.075v-0.075
		c0.053,0.027,0.104,0.052,0.154,0.074s0.098,0.043,0.145,0.062s0.092,0.035,0.136,0.05s0.086,0.027,0.127,0.038
		s0.083,0.02,0.125,0.028s0.085,0.014,0.129,0.02s0.088,0.009,0.133,0.012s0.091,0.004,0.137,0.004c0.094,0,0.183-0.006,0.267-0.019
		s0.164-0.031,0.24-0.056s0.146-0.056,0.212-0.093s0.127-0.081,0.184-0.13s0.106-0.103,0.149-0.162s0.078-0.121,0.106-0.188
		s0.05-0.138,0.064-0.214s0.021-0.156,0.021-0.24c0-0.08-0.007-0.155-0.021-0.226s-0.034-0.138-0.062-0.2s-0.062-0.121-0.103-0.175
		s-0.09-0.104-0.145-0.149s-0.115-0.085-0.18-0.119s-0.135-0.062-0.21-0.085s-0.155-0.04-0.24-0.051s-0.175-0.017-0.269-0.017
		c-0.063,0-0.128,0.002-0.193,0.007s-0.131,0.012-0.197,0.021s-0.134,0.021-0.201,0.036s-0.136,0.031-0.206,0.05l-0.044-0.029
		l-0.044-0.029l-0.044-0.029l-0.044-0.029l0.042-0.49l0.042-0.49l0.042-0.49l0.042-0.49h0.516H12h0.516h0.516v0.07v0.07v0.07v0.07
		h-0.447h-0.447h-0.447h-0.447l-0.033,0.378l-0.033,0.378l-0.033,0.378l-0.033,0.378c0.076-0.014,0.148-0.027,0.216-0.037
		s0.132-0.019,0.191-0.027s0.115-0.012,0.166-0.016S11.784,24.214,11.827,24.214z"/>
	<path class="st0" d="M16.77,24.636c0,0.188-0.007,0.364-0.022,0.527s-0.036,0.315-0.065,0.454s-0.065,0.266-0.108,0.381
		s-0.093,0.217-0.151,0.308s-0.122,0.169-0.194,0.237s-0.152,0.124-0.238,0.169c-0.087,0.045-0.181,0.079-0.282,0.102
		s-0.21,0.034-0.327,0.034c-0.112,0-0.217-0.012-0.315-0.035s-0.19-0.058-0.275-0.105s-0.163-0.105-0.235-0.174
		s-0.136-0.151-0.194-0.244s-0.109-0.197-0.153-0.313s-0.08-0.242-0.109-0.38s-0.051-0.287-0.065-0.447s-0.022-0.332-0.022-0.514
		c0-0.187,0.007-0.361,0.021-0.523s0.035-0.313,0.063-0.451s0.063-0.264,0.106-0.378s0.092-0.216,0.148-0.306
		s0.12-0.168,0.191-0.236s0.15-0.124,0.235-0.168s0.179-0.079,0.28-0.101s0.208-0.034,0.324-0.034c0.113,0,0.219,0.012,0.318,0.035
		s0.192,0.058,0.278,0.105c0.086,0.047,0.165,0.105,0.238,0.174s0.138,0.151,0.197,0.244s0.111,0.197,0.155,0.312
		s0.081,0.241,0.111,0.377s0.052,0.284,0.066,0.442S16.77,24.456,16.77,24.636z M14.332,24.636c0,0.166,0.005,0.321,0.016,0.466
		s0.027,0.278,0.049,0.401s0.049,0.235,0.081,0.336s0.071,0.191,0.114,0.271s0.093,0.149,0.147,0.208s0.115,0.109,0.181,0.149
		s0.137,0.069,0.215,0.089s0.16,0.03,0.248,0.03c0.092,0,0.178-0.01,0.258-0.031s0.153-0.051,0.221-0.092s0.128-0.092,0.183-0.154
		c0.055-0.062,0.103-0.133,0.145-0.215s0.079-0.174,0.111-0.276s0.058-0.213,0.079-0.335s0.037-0.253,0.048-0.393
		s0.016-0.292,0.016-0.452c0-0.158-0.005-0.307-0.016-0.446s-0.026-0.269-0.048-0.389s-0.048-0.231-0.079-0.332
		s-0.069-0.193-0.111-0.275s-0.091-0.154-0.145-0.215c-0.055-0.062-0.116-0.113-0.183-0.154s-0.141-0.072-0.221-0.092
		s-0.166-0.031-0.258-0.031s-0.178,0.01-0.258,0.031s-0.153,0.051-0.22,0.092s-0.127,0.092-0.182,0.154s-0.102,0.133-0.144,0.215
		s-0.078,0.174-0.109,0.275s-0.057,0.212-0.078,0.332s-0.036,0.25-0.047,0.389S14.332,24.478,14.332,24.636z"/>
	<path class="st0" d="M17.511,23.321c0-0.064,0.005-0.126,0.016-0.184s0.026-0.114,0.048-0.167s0.048-0.102,0.079-0.149
		s0.069-0.09,0.111-0.131s0.087-0.076,0.134-0.107s0.097-0.056,0.148-0.076s0.106-0.036,0.163-0.046s0.116-0.015,0.177-0.015
		s0.121,0.005,0.177,0.015s0.111,0.025,0.163,0.046s0.101,0.046,0.148,0.076s0.092,0.066,0.134,0.107s0.079,0.085,0.111,0.131
		s0.058,0.096,0.079,0.149s0.037,0.108,0.048,0.167s0.016,0.12,0.016,0.184s-0.005,0.126-0.016,0.184s-0.026,0.114-0.048,0.167
		s-0.048,0.102-0.079,0.149s-0.069,0.09-0.111,0.131s-0.087,0.076-0.134,0.107s-0.097,0.056-0.148,0.076s-0.106,0.036-0.163,0.046
		s-0.116,0.015-0.177,0.015c-0.063,0-0.124-0.005-0.182-0.015s-0.113-0.025-0.165-0.046s-0.102-0.046-0.149-0.076
		s-0.091-0.066-0.132-0.106s-0.077-0.084-0.108-0.131s-0.057-0.096-0.077-0.149s-0.036-0.109-0.046-0.167
		S17.511,23.386,17.511,23.321z M17.775,23.321c0,0.044,0.004,0.087,0.011,0.128s0.019,0.08,0.034,0.118s0.034,0.073,0.056,0.108
		s0.048,0.067,0.078,0.097s0.061,0.058,0.094,0.081s0.068,0.042,0.104,0.058s0.074,0.027,0.113,0.035s0.08,0.012,0.123,0.012
		c0.042,0,0.082-0.004,0.121-0.011s0.077-0.019,0.113-0.034s0.071-0.034,0.104-0.057s0.065-0.049,0.095-0.079
		s0.056-0.062,0.079-0.096s0.041-0.07,0.056-0.108s0.026-0.078,0.034-0.119s0.011-0.085,0.011-0.131
		c0-0.045-0.004-0.088-0.011-0.129s-0.018-0.081-0.033-0.119s-0.033-0.074-0.055-0.108s-0.048-0.066-0.077-0.097
		s-0.06-0.057-0.093-0.08s-0.067-0.042-0.104-0.057s-0.075-0.027-0.114-0.034s-0.082-0.011-0.125-0.011
		c-0.044,0-0.086,0.004-0.126,0.012s-0.079,0.02-0.115,0.035s-0.071,0.035-0.104,0.059s-0.064,0.051-0.093,0.082
		s-0.054,0.064-0.076,0.098s-0.04,0.07-0.054,0.107s-0.025,0.076-0.033,0.117S17.775,23.277,17.775,23.321z"/>
	<path class="st0" d="M22.108,22.714c-0.134,0-0.261,0.011-0.381,0.032s-0.233,0.054-0.339,0.097s-0.204,0.097-0.296,0.161
		s-0.176,0.14-0.253,0.226s-0.145,0.18-0.203,0.282s-0.106,0.212-0.145,0.329s-0.068,0.243-0.087,0.377s-0.029,0.275-0.029,0.424
		c0,0.153,0.009,0.297,0.027,0.433s0.045,0.263,0.082,0.382s0.082,0.229,0.136,0.33s0.118,0.195,0.191,0.279
		s0.153,0.158,0.242,0.222s0.185,0.116,0.289,0.158s0.216,0.074,0.335,0.095s0.247,0.032,0.382,0.032
		c0.09,0,0.178-0.003,0.264-0.009s0.171-0.014,0.253-0.026s0.163-0.026,0.242-0.043s0.156-0.037,0.231-0.06v0.066v0.066v0.066v0.066
		c-0.071,0.025-0.146,0.047-0.226,0.065s-0.164,0.034-0.252,0.047s-0.181,0.022-0.278,0.028s-0.199,0.009-0.305,0.009
		c-0.15,0-0.293-0.012-0.427-0.036s-0.261-0.061-0.379-0.109s-0.229-0.109-0.331-0.182s-0.197-0.158-0.283-0.255
		s-0.162-0.204-0.227-0.32s-0.119-0.243-0.162-0.378s-0.076-0.281-0.097-0.436s-0.032-0.32-0.032-0.494
		c0-0.109,0.005-0.215,0.015-0.317s0.026-0.202,0.046-0.298s0.046-0.189,0.077-0.278s0.067-0.176,0.108-0.259
		s0.087-0.161,0.137-0.235s0.105-0.142,0.164-0.206s0.123-0.123,0.192-0.178s0.141-0.105,0.219-0.15s0.158-0.085,0.242-0.119
		s0.171-0.062,0.26-0.085s0.183-0.04,0.279-0.051s0.196-0.017,0.298-0.017c0.104,0,0.206,0.005,0.305,0.015s0.195,0.024,0.289,0.044
		s0.184,0.044,0.272,0.073s0.173,0.063,0.256,0.103l-0.03,0.067l-0.03,0.067l-0.03,0.067l-0.03,0.067
		c-0.078-0.039-0.157-0.073-0.237-0.103s-0.161-0.054-0.243-0.073s-0.165-0.034-0.249-0.044S22.194,22.714,22.108,22.714z"/>
</g>
<g>
	<g>
		<path class="st0" d="M15.103,7.535c1.131,0,2.226,0.154,3.266,0.443s2.024,0.712,2.933,1.25c0.909,0.538,1.743,1.19,2.482,1.936
			c0.739,0.746,1.384,1.587,1.914,2.501l0.056-0.032l0.056-0.032l0.056-0.032l0.056-0.032c-0.541-0.934-1.199-1.792-1.954-2.554
			c-0.755-0.762-1.606-1.428-2.534-1.977s-1.933-0.981-2.994-1.276c-1.061-0.295-2.18-0.453-3.334-0.453
			c-1.155,0-2.273,0.158-3.334,0.453S9.702,8.459,8.774,9.007s-1.78,1.215-2.534,1.976s-1.413,1.62-1.954,2.554l0.056,0.031
			L4.397,13.6l0.056,0.031l0.056,0.031c0.53-0.914,1.175-1.754,1.914-2.5c0.739-0.746,1.573-1.398,2.482-1.935
			c0.909-0.538,1.893-0.961,2.933-1.25S13.972,7.535,15.103,7.535"/>
	</g>
	<g>
		<path class="st0" d="M15.066,15.294c-0.392,0-0.771,0.053-1.13,0.152s-0.701,0.244-1.016,0.428
			c-0.315,0.184-0.606,0.407-0.864,0.662c-0.259,0.255-0.486,0.543-0.675,0.855l0.056,0.031l0.056,0.031l0.056,0.031l0.056,0.031
			c0.179-0.293,0.392-0.563,0.636-0.803c0.243-0.239,0.516-0.449,0.813-0.621c0.296-0.173,0.617-0.308,0.955-0.401
			c0.338-0.093,0.694-0.142,1.062-0.142c0.368,0,0.723,0.05,1.061,0.142c0.338,0.093,0.658,0.229,0.954,0.401
			c0.296,0.173,0.569,0.382,0.813,0.621c0.243,0.239,0.457,0.509,0.636,0.803l0.056-0.031l0.056-0.031l0.056-0.031l0.056-0.031
			c-0.189-0.313-0.417-0.6-0.675-0.855s-0.549-0.478-0.865-0.662c-0.316-0.184-0.656-0.329-1.016-0.428
			C15.837,15.347,15.458,15.294,15.066,15.294"/>
	</g>
	<g>
		<polygon class="st0" points="1.999,12.54 2.03,12.485 2.06,12.43 2.091,12.374 2.121,12.319 5.362,14.098 8.604,15.877 
			11.845,17.656 15.087,19.435 15.056,19.491 15.026,19.546 14.996,19.601 14.965,19.657 11.724,17.878 8.482,16.099 5.241,14.319 
					"/>
	</g>
	<g>
		<polygon class="st0" points="27.921,12.54 27.891,12.485 27.86,12.43 27.83,12.374 27.8,12.319 24.558,14.098 21.317,15.877 
			18.075,17.656 14.834,19.435 14.864,19.491 14.895,19.546 14.925,19.601 14.955,19.657 18.197,17.878 21.438,16.099 24.68,14.319 
					"/>
	</g>
</g>
</svg>
