<?xml version="1.0" encoding="utf-8"?>
<!-- Generator: Adobe Illustrator 19.1.0, SVG Export Plug-In . SVG Version: 6.00 Build 0)  -->
<svg version="1.1" id="Layer_1" xmlns="http://www.w3.org/2000/svg" xmlns:xlink="http://www.w3.org/1999/xlink" x="0px" y="0px"
	 viewBox="0 0 29.91 30.086" style="enable-background:new 0 0 29.91 30.086;" xml:space="preserve">
<style type="text/css">
	.st0{fill:#4D4D4D;}
	.st1{fill-rule:evenodd;clip-rule:evenodd;fill:#4C4C4C;}
	.st2{fill:#4C4C4C;}
	.st3{fill:#383330;}
	.st4{fill:#1F1A17;}
	.st5{fill:#4D4C4C;}
	.st6{fill:none;stroke:#000000;stroke-width:0.3;stroke-miterlimit:10;}
	.st7{fill:#E61413;}
	.st8{fill:#5F5357;}
	.st9{fill:#115C78;}
	.st10{fill-rule:evenodd;clip-rule:evenodd;fill:#4D4D4D;}
	.st11{fill-rule:evenodd;clip-rule:evenodd;}
	.st12{fill:#FFFFFF;}
	.st13{fill:none;}
	.st14{fill:#231F20;}
	.st15{clip-path:url(#SVGID_2_);}
	.st16{clip-path:url(#SVGID_4_);fill:#FCF118;}
	.st17{clip-path:url(#SVGID_4_);fill:#FCF018;}
	.st18{clip-path:url(#SVGID_4_);fill:#FCEF18;}
	.st19{clip-path:url(#SVGID_4_);fill:#FCEE18;}
	.st20{clip-path:url(#SVGID_4_);fill:#FCED18;}
	.st21{clip-path:url(#SVGID_4_);fill:#FCEC18;}
	.st22{clip-path:url(#SVGID_4_);fill:#FCEB18;}
	.st23{clip-path:url(#SVGID_4_);fill:#FCEA18;}
	.st24{clip-path:url(#SVGID_4_);fill:#FCE918;}
	.st25{clip-path:url(#SVGID_4_);fill:#FCE818;}
	.st26{clip-path:url(#SVGID_4_);fill:#FCE718;}
	.st27{clip-path:url(#SVGID_4_);fill:#FCE617;}
	.st28{clip-path:url(#SVGID_4_);fill:#FCE517;}
	.st29{clip-path:url(#SVGID_4_);fill:#FCE417;}
	.st30{clip-path:url(#SVGID_4_);fill:#FCE317;}
	.st31{clip-path:url(#SVGID_4_);fill:#FCE217;}
	.st32{clip-path:url(#SVGID_4_);fill:#FCE117;}
	.st33{clip-path:url(#SVGID_4_);fill:#FCE017;}
	.st34{clip-path:url(#SVGID_4_);fill:#FCDF17;}
	.st35{clip-path:url(#SVGID_4_);fill:#FCDE17;}
	.st36{clip-path:url(#SVGID_4_);fill:#FCDD17;}
	.st37{clip-path:url(#SVGID_4_);fill:#FCDC17;}
	.st38{clip-path:url(#SVGID_4_);fill:#FCDB17;}
	.st39{clip-path:url(#SVGID_4_);fill:#FCDA17;}
	.st40{clip-path:url(#SVGID_4_);fill:#FCD917;}
	.st41{clip-path:url(#SVGID_4_);fill:#FCD817;}
	.st42{clip-path:url(#SVGID_4_);fill:#FCD717;}
	.st43{clip-path:url(#SVGID_4_);fill:#FCD617;}
	.st44{clip-path:url(#SVGID_4_);fill:#FCD517;}
	.st45{clip-path:url(#SVGID_4_);fill:#FCD416;}
	.st46{clip-path:url(#SVGID_4_);fill:#FCD316;}
	.st47{clip-path:url(#SVGID_4_);fill:#FBD216;}
	.st48{clip-path:url(#SVGID_4_);fill:#FBD116;}
	.st49{clip-path:url(#SVGID_4_);fill:#FBD016;}
	.st50{clip-path:url(#SVGID_4_);fill:#FBCF16;}
	.st51{clip-path:url(#SVGID_4_);fill:#FBCE16;}
	.st52{clip-path:url(#SVGID_4_);fill:#FBCD16;}
	.st53{clip-path:url(#SVGID_4_);fill:#FBCC16;}
	.st54{clip-path:url(#SVGID_4_);fill:#FBCB16;}
	.st55{clip-path:url(#SVGID_4_);fill:#FBCA16;}
	.st56{clip-path:url(#SVGID_4_);fill:#FBC916;}
	.st57{clip-path:url(#SVGID_4_);fill:#FBC816;}
	.st58{clip-path:url(#SVGID_4_);fill:#FBC716;}
	.st59{clip-path:url(#SVGID_4_);fill:#FBC616;}
	.st60{clip-path:url(#SVGID_4_);fill:#FBC516;}
	.st61{clip-path:url(#SVGID_4_);fill:#FBC416;}
	.st62{clip-path:url(#SVGID_4_);fill:#FBC316;}
	.st63{clip-path:url(#SVGID_4_);fill:#FBC216;}
	.st64{clip-path:url(#SVGID_4_);fill:#FBC115;}
	.st65{clip-path:url(#SVGID_4_);fill:#FBC015;}
	.st66{clip-path:url(#SVGID_4_);fill:#FBBF15;}
	.st67{clip-path:url(#SVGID_4_);fill:#FBBE15;}
	.st68{clip-path:url(#SVGID_4_);fill:#FBBD15;}
	.st69{clip-path:url(#SVGID_4_);fill:#FBBC15;}
	.st70{clip-path:url(#SVGID_4_);fill:#FBBB15;}
	.st71{clip-path:url(#SVGID_4_);fill:#FBBA15;}
	.st72{clip-path:url(#SVGID_4_);fill:#FBB915;}
	.st73{clip-path:url(#SVGID_4_);fill:#FBB815;}
	.st74{clip-path:url(#SVGID_4_);fill:#FBB715;}
	.st75{clip-path:url(#SVGID_4_);fill:#FBB615;}
	.st76{clip-path:url(#SVGID_4_);fill:#FBB515;}
	.st77{clip-path:url(#SVGID_4_);fill:#FBB415;}
	.st78{clip-path:url(#SVGID_4_);fill:#FBB315;}
	.st79{clip-path:url(#SVGID_4_);fill:#FBB215;}
	.st80{clip-path:url(#SVGID_4_);fill:#FBB115;}
	.st81{clip-path:url(#SVGID_4_);fill:#FBB015;}
	.st82{clip-path:url(#SVGID_4_);fill:#FBAF15;}
	.st83{clip-path:url(#SVGID_4_);fill:#FAAE15;}
	.st84{clip-path:url(#SVGID_4_);fill:#FAAD14;}
	.st85{clip-path:url(#SVGID_4_);fill:#FAAC14;}
	.st86{clip-path:url(#SVGID_4_);fill:#FAAB14;}
	.st87{clip-path:url(#SVGID_4_);fill:#FAAA14;}
	.st88{clip-path:url(#SVGID_4_);fill:#FAA914;}
	.st89{clip-path:url(#SVGID_4_);fill:#FAA814;}
	.st90{clip-path:url(#SVGID_4_);fill:#FAA714;}
	.st91{clip-path:url(#SVGID_4_);fill:#FAA614;}
	.st92{clip-path:url(#SVGID_4_);fill:#FAA514;}
	.st93{clip-path:url(#SVGID_4_);fill:#FAA414;}
	.st94{clip-path:url(#SVGID_4_);fill:#FAA314;}
	.st95{clip-path:url(#SVGID_4_);fill:#FAA214;}
	.st96{clip-path:url(#SVGID_4_);fill:#FAA114;}
	.st97{clip-path:url(#SVGID_4_);fill:#FAA014;}
	.st98{clip-path:url(#SVGID_4_);fill:#FA9F14;}
	.st99{clip-path:url(#SVGID_4_);fill:#FA9E14;}
	.st100{clip-path:url(#SVGID_4_);fill:#FA9D14;}
	.st101{clip-path:url(#SVGID_4_);fill:#FA9C14;}
	.st102{clip-path:url(#SVGID_4_);fill:#FA9B14;}
	.st103{clip-path:url(#SVGID_4_);fill:#FA9A13;}
	.st104{clip-path:url(#SVGID_4_);fill:#FA9913;}
	.st105{clip-path:url(#SVGID_4_);fill:#FA9813;}
	.st106{clip-path:url(#SVGID_4_);fill:#FA9713;}
	.st107{clip-path:url(#SVGID_4_);fill:#FA9613;}
	.st108{clip-path:url(#SVGID_4_);fill:#FA9513;}
	.st109{clip-path:url(#SVGID_4_);fill:#FA9413;}
	.st110{clip-path:url(#SVGID_4_);fill:#FA9313;}
	.st111{clip-path:url(#SVGID_4_);fill:#FA9213;}
	.st112{clip-path:url(#SVGID_4_);fill:#FA9113;}
	.st113{clip-path:url(#SVGID_4_);fill:#FA9013;}
	.st114{clip-path:url(#SVGID_4_);fill:#FA8F13;}
	.st115{clip-path:url(#SVGID_4_);fill:#FA8E13;}
	.st116{clip-path:url(#SVGID_4_);fill:#FA8D13;}
	.st117{clip-path:url(#SVGID_4_);fill:#FA8C13;}
	.st118{clip-path:url(#SVGID_4_);fill:#FA8B13;}
	.st119{clip-path:url(#SVGID_4_);fill:#FA8A13;}
	.st120{clip-path:url(#SVGID_4_);fill:#FA8913;}
	.st121{clip-path:url(#SVGID_4_);fill:#FA8812;}
	.st122{clip-path:url(#SVGID_4_);fill:#FA8712;}
	.st123{clip-path:url(#SVGID_4_);fill:#FA8612;}
	.st124{clip-path:url(#SVGID_4_);fill:#F98512;}
	.st125{clip-path:url(#SVGID_4_);fill:#F98412;}
	.st126{clip-path:url(#SVGID_4_);fill:#F98312;}
	.st127{clip-path:url(#SVGID_4_);fill:#F98212;}
	.st128{clip-path:url(#SVGID_4_);fill:#F98112;}
	.st129{clip-path:url(#SVGID_4_);fill:#F98012;}
	.st130{clip-path:url(#SVGID_4_);fill:#F97F12;}
	.st131{clip-path:url(#SVGID_4_);fill:#F97E12;}
	.st132{clip-path:url(#SVGID_4_);fill:#F97D12;}
	.st133{clip-path:url(#SVGID_4_);fill:#F97C12;}
	.st134{clip-path:url(#SVGID_4_);fill:#F97B12;}
	.st135{clip-path:url(#SVGID_4_);fill:#F97A12;}
	.st136{clip-path:url(#SVGID_4_);fill:#F97912;}
	.st137{clip-path:url(#SVGID_4_);fill:#F97812;}
	.st138{clip-path:url(#SVGID_4_);fill:#F97712;}
	.st139{clip-path:url(#SVGID_4_);fill:#F97612;}
	.st140{clip-path:url(#SVGID_4_);fill:#F97511;}
	.st141{clip-path:url(#SVGID_4_);fill:#F97411;}
	.st142{clip-path:url(#SVGID_4_);fill:#F97311;}
	.st143{clip-path:url(#SVGID_4_);fill:#F97211;}
	.st144{clip-path:url(#SVGID_4_);fill:#F97111;}
	.st145{clip-path:url(#SVGID_4_);fill:#F97011;}
	.st146{clip-path:url(#SVGID_4_);fill:#F96F11;}
	.st147{clip-path:url(#SVGID_4_);fill:#F96E11;}
	.st148{clip-path:url(#SVGID_4_);fill:#F96D11;}
	.st149{clip-path:url(#SVGID_4_);fill:#F96C11;}
	.st150{clip-path:url(#SVGID_4_);fill:#F96B11;}
	.st151{clip-path:url(#SVGID_4_);fill:#F96A11;}
	.st152{clip-path:url(#SVGID_4_);fill:#F96911;}
	.st153{clip-path:url(#SVGID_4_);fill:#F96811;}
	.st154{clip-path:url(#SVGID_4_);fill:#F96711;}
	.st155{clip-path:url(#SVGID_4_);fill:#F96611;}
	.st156{clip-path:url(#SVGID_4_);fill:#F96511;}
	.st157{clip-path:url(#SVGID_4_);fill:#F96411;}
	.st158{clip-path:url(#SVGID_4_);fill:#F96311;}
	.st159{clip-path:url(#SVGID_4_);fill:#F96210;}
	.st160{clip-path:url(#SVGID_4_);fill:#F86110;}
	.st161{clip-path:url(#SVGID_4_);fill:#F86010;}
	.st162{clip-path:url(#SVGID_4_);fill:#F85F10;}
	.st163{clip-path:url(#SVGID_4_);fill:#F85E10;}
	.st164{clip-path:url(#SVGID_4_);fill:#F85D10;}
	.st165{clip-path:url(#SVGID_4_);fill:#F85C10;}
	.st166{clip-path:url(#SVGID_4_);fill:#F85B10;}
	.st167{clip-path:url(#SVGID_4_);fill:#F85A10;}
	.st168{clip-path:url(#SVGID_4_);fill:#F85910;}
	.st169{clip-path:url(#SVGID_4_);fill:#F85810;}
	.st170{clip-path:url(#SVGID_4_);fill:#F85710;}
	.st171{clip-path:url(#SVGID_4_);fill:#F85610;}
	.st172{clip-path:url(#SVGID_4_);fill:#F85510;}
	.st173{clip-path:url(#SVGID_4_);fill:#F85410;}
	.st174{clip-path:url(#SVGID_4_);fill:#F85310;}
	.st175{clip-path:url(#SVGID_4_);fill:#F85210;}
	.st176{clip-path:url(#SVGID_4_);fill:#F85110;}
	.st177{clip-path:url(#SVGID_4_);fill:#F85010;}
	.st178{clip-path:url(#SVGID_4_);fill:#F84F0F;}
	.st179{clip-path:url(#SVGID_4_);fill:#F84E0F;}
	.st180{clip-path:url(#SVGID_4_);fill:#F84D0F;}
	.st181{clip-path:url(#SVGID_4_);fill:#F84C0F;}
	.st182{clip-path:url(#SVGID_4_);fill:#F84B0F;}
	.st183{clip-path:url(#SVGID_4_);fill:#F84A0F;}
	.st184{clip-path:url(#SVGID_4_);fill:#F8490F;}
	.st185{clip-path:url(#SVGID_4_);fill:#F8480F;}
	.st186{clip-path:url(#SVGID_4_);fill:#F8470F;}
	.st187{clip-path:url(#SVGID_4_);fill:#F8460F;}
	.st188{clip-path:url(#SVGID_4_);fill:#F8450F;}
	.st189{clip-path:url(#SVGID_4_);fill:#F8440F;}
	.st190{clip-path:url(#SVGID_4_);fill:#F8430F;}
	.st191{clip-path:url(#SVGID_4_);fill:#F8420F;}
	.st192{clip-path:url(#SVGID_4_);fill:#F8410F;}
	.st193{clip-path:url(#SVGID_4_);fill:#F8400F;}
	.st194{clip-path:url(#SVGID_4_);fill:#F83F0F;}
	.st195{clip-path:url(#SVGID_4_);fill:#F83E0E;}
	.st196{clip-path:url(#SVGID_4_);fill:#F83D0E;}
	.st197{clip-path:url(#SVGID_4_);fill:#F83C0E;}
	.st198{clip-path:url(#SVGID_4_);fill:#F83B0E;}
	.st199{clip-path:url(#SVGID_4_);fill:#F73A0E;}
	.st200{clip-path:url(#SVGID_4_);fill:#F7390E;}
	.st201{clip-path:url(#SVGID_4_);fill:#F7380E;}
	.st202{clip-path:url(#SVGID_4_);fill:#F7370E;}
	.st203{clip-path:url(#SVGID_4_);fill:#F7360E;}
	.st204{clip-path:url(#SVGID_4_);fill:#F7340E;}
	.st205{clip-path:url(#SVGID_4_);fill:#F7330E;}
	.st206{clip-path:url(#SVGID_4_);fill:#F7320E;}
	.st207{clip-path:url(#SVGID_4_);fill:#F7310E;}
	.st208{clip-path:url(#SVGID_4_);fill:#F7300E;}
	.st209{clip-path:url(#SVGID_4_);fill:#F72F0E;}
	.st210{clip-path:url(#SVGID_4_);fill:#F72E0E;}
	.st211{clip-path:url(#SVGID_4_);fill:#F72D0E;}
	.st212{clip-path:url(#SVGID_4_);fill:#F72C0E;}
	.st213{clip-path:url(#SVGID_4_);fill:#F72B0E;}
	.st214{clip-path:url(#SVGID_4_);fill:#F72B0D;}
	.st215{clip-path:url(#SVGID_4_);fill:#F72A0D;}
	.st216{clip-path:url(#SVGID_4_);fill:#F7290D;}
	.st217{clip-path:url(#SVGID_4_);fill:#F7280D;}
	.st218{clip-path:url(#SVGID_4_);fill:#F7270D;}
	.st219{clip-path:url(#SVGID_4_);fill:#F7260D;}
</style>
<g>
	<g>
		<polygon class="st0" points="20.155,13.459 20.49,13.459 20.826,13.459 21.161,13.459 21.497,13.459 21.497,13.414 21.497,13.369 
			21.497,13.323 21.497,13.278 21.161,13.278 20.826,13.278 20.49,13.278 20.155,13.278 20.155,13.323 20.155,13.369 20.155,13.414 
					"/>
	</g>
	<g>
		<path class="st0" d="M19.722,26.002h0.542h0.542h0.542h0.542c0.009,0,0.021-0.001,0.033-0.005
			c0.012-0.004,0.025-0.009,0.036-0.017s0.022-0.019,0.029-0.034C21.995,25.931,22,25.914,22,25.892
			c0-0.022-0.004-0.039-0.012-0.054c-0.007-0.014-0.017-0.025-0.029-0.034s-0.024-0.014-0.036-0.017
			c-0.012-0.004-0.024-0.005-0.033-0.005h-0.542h-0.542h-0.542h-0.542c-0.009,0-0.021,0.001-0.033,0.005
			c-0.012,0.004-0.025,0.009-0.036,0.017s-0.022,0.019-0.029,0.034c-0.007,0.014-0.012,0.032-0.012,0.054
			c0,0.009,0.001,0.021,0.005,0.033s0.009,0.025,0.017,0.036s0.019,0.022,0.034,0.029S19.701,26.002,19.722,26.002z"/>
	</g>
	<g>
		<path class="st0" d="M22.929,12.272v-0.05v-0.05v-0.05v-0.05v-1.44v-1.44v-1.44V6.31h-4.962h-4.962H8.044H3.083v3.318v3.318v3.318
			v3.318v0.05v0.05v0.05v0.05h-0.05h-0.05h-0.05h-0.05H2.526H2.17H1.813H1.457v0.224v0.224v0.224v0.224l0.246,0.325l0.246,0.325
			l0.246,0.325l0.246,0.325h3.324h3.324h3.324h3.324h0.05h0.05h0.05h0.05v0.05v0.05v0.05v0.05v1.208v1.208V25.8v1.208h2.62h2.62
			h2.62h2.62v-3.684V19.64v-3.684v-3.684h-0.821h-0.821H23.95h-0.821h-0.05h-0.05h-0.05H22.929z M3.263,8.084V7.736V7.388V7.039
			V6.691v-0.05v-0.05v-0.05v-0.05h0.05h0.05h0.05h0.05h4.771h4.771h4.771h4.771h0.05h0.05h0.05h0.05v0.05v0.05v0.05v0.05v0.348
			v0.348v0.348v0.348v0.05v0.05v0.05v0.05h-0.05h-0.05h-0.05h-0.05h-4.771h-4.771H8.234H3.463h-0.05h-0.05h-0.05h-0.05v-0.05v-0.05
			v-0.05V8.084z M3.263,19.582v-2.729v-2.729v-2.729V8.665v-0.05v-0.05v-0.05v-0.05h0.05h0.05h0.05h0.05h4.771h4.771h4.771h4.771
			h0.05h0.05h0.05h0.05v0.05v0.05v0.05v0.05v0.842v0.842v0.842v0.842v0.05v0.05v0.05v0.05h-0.05h-0.05h-0.05h-0.05h-1.663h-1.663
			h-1.663h-1.663v1.837v1.837v1.837v1.837v0.05v0.05v0.05v0.05h-0.05h-0.05h-0.05h-0.05h-3.058H9.58H6.521H3.463h-0.05h-0.05h-0.05
			h-0.05v-0.05v-0.05v-0.05V19.582z M15.935,20.163v0.358v0.358v0.358v0.358v0.05v0.05v0.05v0.05h-0.05h-0.05h-0.05h-0.05h-3.281
			H9.173H5.892H2.612H2.586H2.561H2.536H2.511l-0.015-0.02l-0.015-0.02l-0.015-0.02l-0.015-0.02l-0.194-0.261l-0.194-0.261
			L1.87,20.93l-0.194-0.261l-0.01-0.013l-0.01-0.013l-0.01-0.013l-0.01-0.013v-0.017v-0.017v-0.017V20.55v-0.097v-0.097v-0.097
			v-0.097v-0.05v-0.05v-0.05v-0.05h0.05h0.05h0.05h0.05h3.474h3.474h3.474h3.474h0.05h0.05h0.05h0.05v0.05v0.05v0.05V20.163z
			 M26.194,25.079v0.397v0.397v0.397v0.397v0.05v0.05v0.05v0.05h-0.05h-0.05h-0.05h-0.05h-2.429h-2.429h-2.429h-2.429h-0.05h-0.05
			h-0.05h-0.05v-0.05v-0.05v-0.05v-0.05v-0.397v-0.397v-0.397v-0.397v-0.05v-0.05v-0.05v-0.05h0.05h0.05h0.05h0.05h2.429h2.429
			h2.429h2.429h0.05h0.05h0.05h0.05v0.05v0.05v0.05V25.079z M26.194,14.782v2.419v2.419v2.419v2.419v0.05v0.05v0.05v0.05h-0.05
			h-0.05h-0.05h-0.05h-2.429h-2.429h-2.429h-2.429h-0.05h-0.05h-0.05h-0.05v-0.05v-0.05v-0.05v-0.05V22.04v-2.419v-2.419v-2.419
			v-0.05v-0.05v-0.05v-0.05h0.05h0.05h0.05h0.05h2.429h2.429h2.429h2.429h0.05h0.05h0.05h0.05v0.05v0.05v0.05V14.782z
			 M26.194,12.452v0.05v0.05v0.05v0.05v0.387v0.387v0.387v0.387h-0.025h-0.025h-0.025h-0.025v0.025v0.025v0.025v0.025h-0.018h-0.018
			H26.04h-0.018l0.002,0.025l0.002,0.025l0.002,0.025l0.002,0.025h-2.439h-2.439h-2.439h-2.439h-0.05h-0.05h-0.05h-0.05v-0.05v-0.05
			v-0.05v-0.05v-0.387v-0.387V13.04v-0.387v-0.05v-0.05v-0.05v-0.05h0.05h0.05h0.05h0.05h2.429h2.429h2.429h2.429h0.05h0.05h0.05
			H26.194z"/>
	</g>
	<g>
		<path class="st0" d="M12.437,13.33l-0.008-0.032l-0.008-0.032l-0.008-0.032l-0.008-0.032c-0.017-0.069-0.037-0.136-0.058-0.203
			s-0.046-0.133-0.073-0.199s-0.057-0.132-0.089-0.198s-0.068-0.133-0.107-0.201l-0.016-0.028l-0.016-0.028l-0.016-0.028
			l-0.016-0.028l0.019-0.026l0.019-0.026l0.019-0.026l0.019-0.026l0.11-0.149l0.11-0.149l0.11-0.149l0.11-0.149l-0.222-0.222
			l-0.222-0.222l-0.222-0.222l-0.222-0.222l-0.16,0.104l-0.16,0.104l-0.16,0.104l-0.16,0.104l-0.026,0.017l-0.026,0.017
			l-0.026,0.017l-0.026,0.017l-0.026-0.015l-0.026-0.015l-0.026-0.015l-0.026-0.015c-0.068-0.039-0.135-0.074-0.201-0.107
			s-0.132-0.062-0.198-0.089s-0.132-0.051-0.199-0.073s-0.134-0.041-0.203-0.058l-0.032-0.008l-0.032-0.008l-0.032-0.008
			L9.87,10.763l-0.006-0.032l-0.006-0.032l-0.006-0.032l-0.006-0.032l-0.032-0.181l-0.032-0.181l-0.032-0.181L9.721,9.91H9.409
			H9.096H8.783H8.47l-0.032,0.181l-0.032,0.181l-0.032,0.181l-0.032,0.181l-0.006,0.032l-0.006,0.032l-0.006,0.032l-0.006,0.032
			l-0.032,0.008l-0.032,0.008l-0.032,0.008l-0.032,0.008c-0.069,0.017-0.136,0.037-0.203,0.058
			c-0.067,0.022-0.133,0.046-0.199,0.073s-0.132,0.057-0.198,0.089s-0.133,0.068-0.201,0.107l-0.028,0.016l-0.028,0.016L7.31,11.171
			l-0.028,0.016l-0.026-0.019l-0.026-0.019l-0.026-0.019L7.177,11.11L7.028,11l-0.149-0.11l-0.149-0.11L6.58,10.67l-0.222,0.222
			l-0.222,0.222l-0.222,0.222l-0.222,0.222l0.104,0.16l0.104,0.16l0.104,0.16l0.104,0.16l0.017,0.026l0.017,0.026l0.017,0.026
			l0.017,0.026L6.16,12.324L6.145,12.35L6.13,12.377l-0.015,0.026c-0.039,0.068-0.074,0.135-0.107,0.201s-0.062,0.132-0.089,0.198
			s-0.051,0.132-0.073,0.199s-0.041,0.134-0.059,0.203l-0.008,0.032l-0.008,0.032l-0.008,0.032L5.755,13.33l-0.032,0.006
			l-0.032,0.006l-0.032,0.006l-0.032,0.006l-0.181,0.032l-0.181,0.032l-0.181,0.032l-0.181,0.032v0.313v0.313v0.313v0.313
			l0.181,0.032l0.181,0.032l0.181,0.032l0.181,0.032l0.032,0.006l0.032,0.006l0.032,0.006l0.032,0.006l0.008,0.032l0.008,0.032
			l0.008,0.032l0.008,0.032c0.017,0.069,0.037,0.136,0.059,0.203s0.046,0.133,0.073,0.199s0.057,0.132,0.089,0.198
			s0.068,0.133,0.107,0.201l0.016,0.028l0.016,0.028l0.016,0.028l0.016,0.028L6.16,15.944L6.14,15.971l-0.019,0.026l-0.019,0.026
			l-0.11,0.149l-0.11,0.149l-0.11,0.149l-0.11,0.149l0.222,0.222l0.222,0.222l0.222,0.222l0.222,0.222l0.16-0.104l0.16-0.104
			l0.16-0.104l0.16-0.104l0.026-0.017l0.026-0.017l0.026-0.017l0.026-0.017l0.026,0.015l0.026,0.015l0.026,0.015l0.026,0.015
			c0.068,0.039,0.135,0.074,0.201,0.107c0.066,0.033,0.132,0.062,0.198,0.089s0.132,0.051,0.199,0.073
			c0.067,0.022,0.134,0.041,0.203,0.058l0.032,0.008l0.032,0.008l0.032,0.008l0.032,0.008l0.006,0.032l0.006,0.032l0.006,0.032
			l0.006,0.032l0.032,0.181l0.032,0.181l0.032,0.181l0.032,0.181h0.313h0.313h0.313h0.313l0.032-0.181l0.032-0.181l0.032-0.181
			l0.032-0.181l0.006-0.032l0.006-0.032l0.006-0.032l0.006-0.032l0.032-0.008l0.032-0.008l0.032-0.008l0.032-0.008
			c0.069-0.017,0.136-0.037,0.203-0.058c0.067-0.022,0.133-0.046,0.199-0.073s0.132-0.057,0.198-0.089
			c0.066-0.033,0.133-0.068,0.201-0.107l0.028-0.016l0.028-0.016l0.028-0.016l0.028-0.016l0.026,0.019l0.026,0.019l0.026,0.019
			l0.026,0.019l0.149,0.11l0.149,0.11l0.149,0.11l0.149,0.11l0.222-0.222l0.222-0.222l0.222-0.222l0.222-0.222l-0.104-0.16
			l-0.104-0.16l-0.104-0.16l-0.104-0.16l-0.017-0.026l-0.017-0.026l-0.017-0.026l-0.017-0.026l0.015-0.026l0.015-0.026l0.015-0.026
			l0.015-0.026c0.039-0.068,0.074-0.135,0.107-0.201s0.062-0.132,0.089-0.198s0.051-0.132,0.073-0.199s0.041-0.134,0.058-0.203
			l0.008-0.032l0.008-0.032l0.008-0.032l0.008-0.032l0.032-0.006l0.032-0.006l0.032-0.006l0.032-0.006l0.181-0.032l0.181-0.032
			l0.181-0.032l0.181-0.032v-0.313v-0.313v-0.313v-0.313l-0.181-0.032l-0.181-0.032l-0.181-0.032l-0.181-0.032l-0.032-0.006
			l-0.032-0.006l-0.032-0.006L12.437,13.33z M13.109,13.61v0.041v0.041v0.041v0.041v0.155v0.155v0.155v0.155v0.039v0.039v0.039
			v0.039l-0.038,0.009l-0.038,0.009l-0.038,0.009l-0.038,0.009l-0.172,0.041l-0.172,0.041l-0.172,0.041l-0.172,0.041l-0.003,0.017
			l-0.003,0.017l-0.003,0.017l-0.003,0.017C12.234,14.91,12.209,15,12.18,15.09s-0.063,0.181-0.101,0.271s-0.08,0.18-0.127,0.269
			s-0.097,0.177-0.151,0.264l-0.01,0.013l-0.01,0.013l-0.01,0.013l-0.01,0.013l0.095,0.135l0.095,0.135l0.095,0.135l0.095,0.135
			l0.024,0.034l0.024,0.034l0.024,0.034l0.024,0.034l-0.03,0.03l-0.03,0.03l-0.03,0.03l-0.03,0.03l-0.106,0.106l-0.106,0.106
			l-0.106,0.106l-0.106,0.106l-0.03,0.03l-0.03,0.03l-0.03,0.03l-0.03,0.03l-0.034-0.024l-0.034-0.024l-0.034-0.024l-0.034-0.024
			l-0.135-0.095L11.169,17l-0.135-0.095L10.9,16.81l-0.01,0.007l-0.01,0.007l-0.01,0.007l-0.01,0.007
			c-0.09,0.057-0.181,0.109-0.272,0.157c-0.091,0.048-0.182,0.091-0.273,0.13s-0.181,0.073-0.271,0.102
			c-0.09,0.029-0.179,0.054-0.267,0.073l-0.016,0.003l-0.016,0.003l-0.016,0.003l-0.016,0.003l-0.032,0.17l-0.032,0.17l-0.032,0.17
			l-0.032,0.17l-0.008,0.041l-0.008,0.041l-0.008,0.041l-0.008,0.041H9.51H9.469H9.428H9.386H9.231H9.076H8.922H8.767H8.725H8.684
			H8.643H8.601l-0.008-0.041l-0.008-0.041l-0.008-0.041L8.57,17.993l-0.032-0.17l-0.032-0.17l-0.032-0.17l-0.032-0.17L8.425,17.31
			L8.41,17.307l-0.015-0.003L8.379,17.3C8.29,17.281,8.2,17.256,8.11,17.227s-0.181-0.063-0.271-0.101s-0.18-0.08-0.269-0.127
			s-0.177-0.097-0.264-0.151l-0.013-0.01l-0.013-0.01l-0.013-0.01l-0.013-0.01l-0.135,0.095L6.984,17l-0.135,0.095L6.714,17.19
			L6.68,17.215l-0.034,0.024l-0.034,0.024l-0.034,0.024l-0.03-0.03l-0.03-0.03l-0.03-0.03l-0.03-0.03l-0.106-0.106l-0.106-0.106
			l-0.106-0.106l-0.106-0.106l-0.03-0.03l-0.03-0.03l-0.03-0.03l-0.03-0.03l0.024-0.034l0.024-0.034l0.024-0.034l0.024-0.034
			l0.095-0.135L6.2,16.216l0.095-0.135l0.095-0.135l-0.007-0.01l-0.007-0.01l-0.007-0.01l-0.007-0.01
			c-0.057-0.09-0.109-0.181-0.157-0.272s-0.091-0.182-0.13-0.273s-0.073-0.181-0.102-0.271S5.92,14.913,5.9,14.825l-0.004-0.026
			l-0.004-0.026l-0.004-0.026L5.883,14.72l-0.169-0.032l-0.169-0.032l-0.169-0.032l-0.169-0.032l-0.041-0.008l-0.041-0.008
			l-0.041-0.008L5.044,14.56v-0.041v-0.041v-0.041v-0.041V14.24v-0.155V13.93v-0.155v-0.041v-0.041v-0.041V13.61l0.041-0.008
			l0.041-0.008l0.041-0.008l0.041-0.008l0.17-0.032l0.17-0.032l0.17-0.032l0.17-0.032l0.003-0.015l0.003-0.015l0.003-0.015
			L5.9,13.387c0.02-0.089,0.044-0.179,0.074-0.269s0.063-0.181,0.101-0.271s0.08-0.18,0.127-0.269s0.097-0.177,0.151-0.264
			l0.01-0.013l0.01-0.013l0.01-0.013l0.01-0.013l-0.095-0.135L6.2,11.992l-0.095-0.135L6.01,11.723l-0.024-0.034l-0.024-0.034
			l-0.024-0.034l-0.024-0.034l0.03-0.03l0.03-0.03l0.03-0.03l0.03-0.03l0.106-0.106l0.106-0.106l0.106-0.106l0.106-0.106l0.03-0.03
			l0.03-0.03l0.03-0.03l0.03-0.03l0.034,0.024l0.034,0.024l0.034,0.024l0.034,0.024l0.135,0.095l0.135,0.095l0.135,0.095
			l0.135,0.095l0.01-0.007l0.01-0.007l0.01-0.007l0.01-0.007c0.09-0.057,0.181-0.109,0.272-0.157s0.182-0.091,0.273-0.13
			s0.181-0.073,0.271-0.102s0.179-0.054,0.267-0.073l0.016-0.003l0.016-0.003l0.016-0.003l0.016-0.003l0.032-0.17l0.032-0.17
			l0.032-0.17l0.032-0.17l0.008-0.041l0.008-0.041l0.008-0.041l0.008-0.041h0.041h0.041h0.041h0.041h0.155h0.155h0.155h0.155h0.041
			h0.041H9.51h0.041l0.008,0.041l0.008,0.041l0.008,0.041l0.008,0.041l0.032,0.17l0.032,0.17l0.032,0.17l0.032,0.17l0.015,0.003
			l0.015,0.003l0.015,0.003l0.015,0.003c0.089,0.02,0.179,0.044,0.269,0.074s0.181,0.063,0.271,0.101s0.18,0.08,0.269,0.127
			s0.177,0.097,0.264,0.151l0.013,0.01l0.013,0.01l0.013,0.01l0.013,0.01l0.135-0.095l0.135-0.095l0.135-0.095l0.135-0.095
			l0.034-0.024l0.034-0.024l0.034-0.024l0.034-0.024l0.03,0.03l0.03,0.03l0.03,0.03l0.03,0.03l0.106,0.106l0.106,0.106l0.106,0.106
			l0.106,0.106l0.03,0.03l0.03,0.03l0.03,0.03l0.03,0.03l-0.024,0.034l-0.024,0.034l-0.024,0.034l-0.024,0.034l-0.095,0.135
			l-0.095,0.135l-0.095,0.135l-0.095,0.135l0.007,0.01l0.007,0.01l0.007,0.01l0.007,0.01c0.057,0.09,0.109,0.181,0.157,0.272
			s0.091,0.182,0.13,0.273s0.073,0.181,0.102,0.271s0.054,0.179,0.073,0.267l0.003,0.016l0.003,0.016l0.003,0.016l0.003,0.016
			l0.17,0.032l0.17,0.032l0.17,0.032l0.17,0.032l0.041,0.008l0.041,0.008l0.041,0.008L13.109,13.61z"/>
	</g>
	<g>
		<path class="st0" d="M9.076,12.465c-0.229,0-0.446,0.046-0.645,0.131s-0.377,0.206-0.527,0.356
			c-0.15,0.15-0.272,0.329-0.356,0.527s-0.131,0.416-0.131,0.645c0,0.229,0.046,0.447,0.131,0.645s0.206,0.377,0.356,0.527
			c0.15,0.15,0.329,0.272,0.527,0.356s0.416,0.131,0.645,0.131s0.446-0.046,0.645-0.131s0.377-0.206,0.527-0.356
			s0.272-0.329,0.356-0.527s0.131-0.416,0.131-0.645c0-0.232-0.046-0.452-0.128-0.651s-0.203-0.377-0.352-0.526
			s-0.327-0.269-0.526-0.352S9.309,12.465,9.076,12.465z M9.276,15.549v0.031v0.031v0.031v0.031H9.252H9.227H9.202H9.177v0v0v0v0
			h-0.05h-0.05h-0.05h-0.05v0v0v0v0H8.952H8.926H8.901H8.876v-0.031V15.61v-0.031v-0.031c-0.178-0.025-0.346-0.084-0.499-0.168
			s-0.291-0.196-0.406-0.326c-0.115-0.131-0.208-0.281-0.273-0.445s-0.1-0.34-0.1-0.524c0-0.2,0.042-0.393,0.118-0.569
			s0.186-0.336,0.32-0.47c0.135-0.135,0.294-0.244,0.47-0.32s0.369-0.118,0.569-0.118s0.393,0.042,0.569,0.118
			s0.336,0.186,0.47,0.32s0.244,0.294,0.32,0.47s0.118,0.369,0.118,0.569c0,0.19-0.034,0.371-0.097,0.536s-0.154,0.316-0.268,0.446
			s-0.251,0.238-0.405,0.321S9.459,15.526,9.276,15.549z"/>
	</g>
	<g>
		<path class="st0" d="M19.258,19.963h0.05h0.05h0.05h0.05v0.05v0.05v0.05v0.05v0.26v0.26v0.26v0.26h0.045h0.045h0.045h0.045v-0.579
			v-0.579v-0.579v-0.579c0-0.146-0.029-0.283-0.08-0.408s-0.127-0.236-0.221-0.33s-0.205-0.169-0.33-0.221s-0.262-0.08-0.408-0.08
			c-0.146,0-0.283,0.029-0.408,0.08c-0.125,0.052-0.236,0.127-0.33,0.221s-0.169,0.205-0.221,0.33
			c-0.052,0.125-0.08,0.262-0.08,0.408v0.579v0.579v0.579v0.579h0.045h0.045h0.045h0.045v-0.26v-0.26v-0.26v-0.26v-0.05v-0.05v-0.05
			v-0.05h0.05h0.05h0.05h0.05h0.329H18.6h0.329H19.258z M17.741,19.543v-0.174v-0.174v-0.174v-0.174c0-0.114,0.025-0.225,0.07-0.327
			c0.045-0.102,0.109-0.195,0.188-0.274s0.172-0.143,0.274-0.188c0.102-0.045,0.213-0.07,0.327-0.07c0.114,0,0.225,0.025,0.327,0.07
			s0.195,0.109,0.274,0.188s0.143,0.172,0.188,0.274s0.07,0.213,0.07,0.327v0.174v0.174v0.174v0.174v0.05v0.05v0.05v0.05h-0.05
			h-0.05h-0.05h-0.05h-0.329H18.6h-0.329h-0.329h-0.05h-0.05h-0.05h-0.05v-0.05v-0.05v-0.05V19.543z"/>
	</g>
	<g>
		<path class="st0" d="M21.658,19.924c0.141,0,0.276-0.03,0.4-0.083s0.236-0.13,0.331-0.225s0.172-0.207,0.225-0.331
			s0.083-0.259,0.083-0.4c0-0.141-0.03-0.276-0.083-0.4c-0.053-0.124-0.13-0.236-0.225-0.331s-0.207-0.172-0.331-0.225
			c-0.124-0.053-0.259-0.083-0.4-0.083h-0.231h-0.231h-0.231h-0.231v0.829v0.829v0.829v0.829h0.045h0.045h0.045h0.045v-0.26v-0.26
			v-0.26v-0.26v-0.05v-0.05v-0.05v-0.05h0.05h0.05h0.05h0.05h0.135h0.135h0.135H21.658z M20.916,19.543v-0.339v-0.339v-0.339v-0.339
			v-0.05v-0.05v-0.05v-0.05h0.05h0.05h0.05h0.05h0.135h0.135h0.135h0.135c0.12,0,0.234,0.024,0.337,0.066s0.195,0.105,0.272,0.182
			s0.139,0.169,0.182,0.272s0.066,0.217,0.066,0.337c0.005,0.057,0.005,0.114-0.001,0.17c-0.006,0.056-0.018,0.111-0.035,0.164
			s-0.04,0.105-0.068,0.153c-0.028,0.049-0.061,0.094-0.099,0.136c-0.04,0.044-0.085,0.083-0.133,0.117
			c-0.048,0.034-0.101,0.062-0.156,0.086s-0.114,0.041-0.175,0.053c-0.061,0.012-0.125,0.018-0.19,0.018h-0.135h-0.135h-0.135
			h-0.135h-0.05h-0.05h-0.05h-0.05v-0.05v-0.05v-0.05V19.543z"/>
	</g>
	<g>
		<polygon class="st0" points="24.129,21.098 24.129,21.048 24.129,20.998 24.129,20.948 24.129,20.898 24.129,20.23 24.129,19.563 
			24.129,18.895 24.129,18.227 24.129,18.177 24.129,18.127 24.129,18.077 24.129,18.027 24.179,18.027 24.229,18.027 
			24.279,18.027 24.329,18.027 24.356,18.027 24.384,18.027 24.411,18.027 24.439,18.027 24.439,17.982 24.439,17.937 
			24.439,17.892 24.439,17.846 24.239,17.846 24.039,17.846 23.839,17.846 23.639,17.846 23.639,17.892 23.639,17.937 
			23.639,17.982 23.639,18.027 23.666,18.027 23.693,18.027 23.721,18.027 23.748,18.027 23.798,18.027 23.848,18.027 
			23.898,18.027 23.948,18.027 23.948,18.077 23.948,18.127 23.948,18.177 23.948,18.227 23.948,18.895 23.948,19.563 23.948,20.23 
			23.948,20.898 23.948,20.948 23.948,20.998 23.948,21.048 23.948,21.098 23.898,21.098 23.848,21.098 23.798,21.098 
			23.748,21.098 23.721,21.098 23.693,21.098 23.666,21.098 23.639,21.098 23.639,21.143 23.639,21.188 23.639,21.234 
			23.639,21.279 23.839,21.279 24.039,21.279 24.239,21.279 24.439,21.279 24.439,21.234 24.439,21.188 24.439,21.143 
			24.439,21.098 24.411,21.098 24.384,21.098 24.356,21.098 24.329,21.098 24.279,21.098 24.229,21.098 24.179,21.098 		"/>
	</g>
</g>
<g>
	<path class="st0" d="M29.819,29.891h-7.432h-7.432H7.523H0.091v-7.432v-7.432V7.595V0.162h7.432h7.432h7.432h7.432v7.432v7.432
		v7.432V29.891z M0.341,29.641h7.307h7.307h7.307h7.307v-7.307v-7.307V7.72V0.412h-7.307h-7.307H7.648H0.341V7.72v7.307v7.307
		V29.641z"/>
</g>
</svg>
