<?xml version="1.0" encoding="utf-8"?>
<!-- Generator: Adobe Illustrator 19.1.0, SVG Export Plug-In . SVG Version: 6.00 Build 0)  -->
<svg version="1.1" id="Layer_1" xmlns="http://www.w3.org/2000/svg" xmlns:xlink="http://www.w3.org/1999/xlink" x="0px" y="0px"
	 viewBox="0 0 29.91 30.086" style="enable-background:new 0 0 29.91 30.086;" xml:space="preserve">
<style type="text/css">
	.st0{fill:#4D4D4D;}
	.st1{fill-rule:evenodd;clip-rule:evenodd;fill:#4C4C4C;}
	.st2{fill:#4C4C4C;}
	.st3{fill:#383330;}
	.st4{fill:#1F1A17;}
	.st5{fill:#4D4C4C;}
	.st6{fill:none;stroke:#000000;stroke-width:0.3;stroke-miterlimit:10;}
	.st7{fill:#E61413;}
	.st8{fill:#5F5357;}
	.st9{fill:#115C78;}
	.st10{fill-rule:evenodd;clip-rule:evenodd;fill:#4D4D4D;}
	.st11{fill-rule:evenodd;clip-rule:evenodd;}
	.st12{fill:#FFFFFF;}
	.st13{fill:none;}
	.st14{fill:#231F20;}
	.st15{clip-path:url(#SVGID_2_);}
	.st16{clip-path:url(#SVGID_4_);fill:#FCF118;}
	.st17{clip-path:url(#SVGID_4_);fill:#FCF018;}
	.st18{clip-path:url(#SVGID_4_);fill:#FCEF18;}
	.st19{clip-path:url(#SVGID_4_);fill:#FCEE18;}
	.st20{clip-path:url(#SVGID_4_);fill:#FCED18;}
	.st21{clip-path:url(#SVGID_4_);fill:#FCEC18;}
	.st22{clip-path:url(#SVGID_4_);fill:#FCEB18;}
	.st23{clip-path:url(#SVGID_4_);fill:#FCEA18;}
	.st24{clip-path:url(#SVGID_4_);fill:#FCE918;}
	.st25{clip-path:url(#SVGID_4_);fill:#FCE818;}
	.st26{clip-path:url(#SVGID_4_);fill:#FCE718;}
	.st27{clip-path:url(#SVGID_4_);fill:#FCE617;}
	.st28{clip-path:url(#SVGID_4_);fill:#FCE517;}
	.st29{clip-path:url(#SVGID_4_);fill:#FCE417;}
	.st30{clip-path:url(#SVGID_4_);fill:#FCE317;}
	.st31{clip-path:url(#SVGID_4_);fill:#FCE217;}
	.st32{clip-path:url(#SVGID_4_);fill:#FCE117;}
	.st33{clip-path:url(#SVGID_4_);fill:#FCE017;}
	.st34{clip-path:url(#SVGID_4_);fill:#FCDF17;}
	.st35{clip-path:url(#SVGID_4_);fill:#FCDE17;}
	.st36{clip-path:url(#SVGID_4_);fill:#FCDD17;}
	.st37{clip-path:url(#SVGID_4_);fill:#FCDC17;}
	.st38{clip-path:url(#SVGID_4_);fill:#FCDB17;}
	.st39{clip-path:url(#SVGID_4_);fill:#FCDA17;}
	.st40{clip-path:url(#SVGID_4_);fill:#FCD917;}
	.st41{clip-path:url(#SVGID_4_);fill:#FCD817;}
	.st42{clip-path:url(#SVGID_4_);fill:#FCD717;}
	.st43{clip-path:url(#SVGID_4_);fill:#FCD617;}
	.st44{clip-path:url(#SVGID_4_);fill:#FCD517;}
	.st45{clip-path:url(#SVGID_4_);fill:#FCD416;}
	.st46{clip-path:url(#SVGID_4_);fill:#FCD316;}
	.st47{clip-path:url(#SVGID_4_);fill:#FBD216;}
	.st48{clip-path:url(#SVGID_4_);fill:#FBD116;}
	.st49{clip-path:url(#SVGID_4_);fill:#FBD016;}
	.st50{clip-path:url(#SVGID_4_);fill:#FBCF16;}
	.st51{clip-path:url(#SVGID_4_);fill:#FBCE16;}
	.st52{clip-path:url(#SVGID_4_);fill:#FBCD16;}
	.st53{clip-path:url(#SVGID_4_);fill:#FBCC16;}
	.st54{clip-path:url(#SVGID_4_);fill:#FBCB16;}
	.st55{clip-path:url(#SVGID_4_);fill:#FBCA16;}
	.st56{clip-path:url(#SVGID_4_);fill:#FBC916;}
	.st57{clip-path:url(#SVGID_4_);fill:#FBC816;}
	.st58{clip-path:url(#SVGID_4_);fill:#FBC716;}
	.st59{clip-path:url(#SVGID_4_);fill:#FBC616;}
	.st60{clip-path:url(#SVGID_4_);fill:#FBC516;}
	.st61{clip-path:url(#SVGID_4_);fill:#FBC416;}
	.st62{clip-path:url(#SVGID_4_);fill:#FBC316;}
	.st63{clip-path:url(#SVGID_4_);fill:#FBC216;}
	.st64{clip-path:url(#SVGID_4_);fill:#FBC115;}
	.st65{clip-path:url(#SVGID_4_);fill:#FBC015;}
	.st66{clip-path:url(#SVGID_4_);fill:#FBBF15;}
	.st67{clip-path:url(#SVGID_4_);fill:#FBBE15;}
	.st68{clip-path:url(#SVGID_4_);fill:#FBBD15;}
	.st69{clip-path:url(#SVGID_4_);fill:#FBBC15;}
	.st70{clip-path:url(#SVGID_4_);fill:#FBBB15;}
	.st71{clip-path:url(#SVGID_4_);fill:#FBBA15;}
	.st72{clip-path:url(#SVGID_4_);fill:#FBB915;}
	.st73{clip-path:url(#SVGID_4_);fill:#FBB815;}
	.st74{clip-path:url(#SVGID_4_);fill:#FBB715;}
	.st75{clip-path:url(#SVGID_4_);fill:#FBB615;}
	.st76{clip-path:url(#SVGID_4_);fill:#FBB515;}
	.st77{clip-path:url(#SVGID_4_);fill:#FBB415;}
	.st78{clip-path:url(#SVGID_4_);fill:#FBB315;}
	.st79{clip-path:url(#SVGID_4_);fill:#FBB215;}
	.st80{clip-path:url(#SVGID_4_);fill:#FBB115;}
	.st81{clip-path:url(#SVGID_4_);fill:#FBB015;}
	.st82{clip-path:url(#SVGID_4_);fill:#FBAF15;}
	.st83{clip-path:url(#SVGID_4_);fill:#FAAE15;}
	.st84{clip-path:url(#SVGID_4_);fill:#FAAD14;}
	.st85{clip-path:url(#SVGID_4_);fill:#FAAC14;}
	.st86{clip-path:url(#SVGID_4_);fill:#FAAB14;}
	.st87{clip-path:url(#SVGID_4_);fill:#FAAA14;}
	.st88{clip-path:url(#SVGID_4_);fill:#FAA914;}
	.st89{clip-path:url(#SVGID_4_);fill:#FAA814;}
	.st90{clip-path:url(#SVGID_4_);fill:#FAA714;}
	.st91{clip-path:url(#SVGID_4_);fill:#FAA614;}
	.st92{clip-path:url(#SVGID_4_);fill:#FAA514;}
	.st93{clip-path:url(#SVGID_4_);fill:#FAA414;}
	.st94{clip-path:url(#SVGID_4_);fill:#FAA314;}
	.st95{clip-path:url(#SVGID_4_);fill:#FAA214;}
	.st96{clip-path:url(#SVGID_4_);fill:#FAA114;}
	.st97{clip-path:url(#SVGID_4_);fill:#FAA014;}
	.st98{clip-path:url(#SVGID_4_);fill:#FA9F14;}
	.st99{clip-path:url(#SVGID_4_);fill:#FA9E14;}
	.st100{clip-path:url(#SVGID_4_);fill:#FA9D14;}
	.st101{clip-path:url(#SVGID_4_);fill:#FA9C14;}
	.st102{clip-path:url(#SVGID_4_);fill:#FA9B14;}
	.st103{clip-path:url(#SVGID_4_);fill:#FA9A13;}
	.st104{clip-path:url(#SVGID_4_);fill:#FA9913;}
	.st105{clip-path:url(#SVGID_4_);fill:#FA9813;}
	.st106{clip-path:url(#SVGID_4_);fill:#FA9713;}
	.st107{clip-path:url(#SVGID_4_);fill:#FA9613;}
	.st108{clip-path:url(#SVGID_4_);fill:#FA9513;}
	.st109{clip-path:url(#SVGID_4_);fill:#FA9413;}
	.st110{clip-path:url(#SVGID_4_);fill:#FA9313;}
	.st111{clip-path:url(#SVGID_4_);fill:#FA9213;}
	.st112{clip-path:url(#SVGID_4_);fill:#FA9113;}
	.st113{clip-path:url(#SVGID_4_);fill:#FA9013;}
	.st114{clip-path:url(#SVGID_4_);fill:#FA8F13;}
	.st115{clip-path:url(#SVGID_4_);fill:#FA8E13;}
	.st116{clip-path:url(#SVGID_4_);fill:#FA8D13;}
	.st117{clip-path:url(#SVGID_4_);fill:#FA8C13;}
	.st118{clip-path:url(#SVGID_4_);fill:#FA8B13;}
	.st119{clip-path:url(#SVGID_4_);fill:#FA8A13;}
	.st120{clip-path:url(#SVGID_4_);fill:#FA8913;}
	.st121{clip-path:url(#SVGID_4_);fill:#FA8812;}
	.st122{clip-path:url(#SVGID_4_);fill:#FA8712;}
	.st123{clip-path:url(#SVGID_4_);fill:#FA8612;}
	.st124{clip-path:url(#SVGID_4_);fill:#F98512;}
	.st125{clip-path:url(#SVGID_4_);fill:#F98412;}
	.st126{clip-path:url(#SVGID_4_);fill:#F98312;}
	.st127{clip-path:url(#SVGID_4_);fill:#F98212;}
	.st128{clip-path:url(#SVGID_4_);fill:#F98112;}
	.st129{clip-path:url(#SVGID_4_);fill:#F98012;}
	.st130{clip-path:url(#SVGID_4_);fill:#F97F12;}
	.st131{clip-path:url(#SVGID_4_);fill:#F97E12;}
	.st132{clip-path:url(#SVGID_4_);fill:#F97D12;}
	.st133{clip-path:url(#SVGID_4_);fill:#F97C12;}
	.st134{clip-path:url(#SVGID_4_);fill:#F97B12;}
	.st135{clip-path:url(#SVGID_4_);fill:#F97A12;}
	.st136{clip-path:url(#SVGID_4_);fill:#F97912;}
	.st137{clip-path:url(#SVGID_4_);fill:#F97812;}
	.st138{clip-path:url(#SVGID_4_);fill:#F97712;}
	.st139{clip-path:url(#SVGID_4_);fill:#F97612;}
	.st140{clip-path:url(#SVGID_4_);fill:#F97511;}
	.st141{clip-path:url(#SVGID_4_);fill:#F97411;}
	.st142{clip-path:url(#SVGID_4_);fill:#F97311;}
	.st143{clip-path:url(#SVGID_4_);fill:#F97211;}
	.st144{clip-path:url(#SVGID_4_);fill:#F97111;}
	.st145{clip-path:url(#SVGID_4_);fill:#F97011;}
	.st146{clip-path:url(#SVGID_4_);fill:#F96F11;}
	.st147{clip-path:url(#SVGID_4_);fill:#F96E11;}
	.st148{clip-path:url(#SVGID_4_);fill:#F96D11;}
	.st149{clip-path:url(#SVGID_4_);fill:#F96C11;}
	.st150{clip-path:url(#SVGID_4_);fill:#F96B11;}
	.st151{clip-path:url(#SVGID_4_);fill:#F96A11;}
	.st152{clip-path:url(#SVGID_4_);fill:#F96911;}
	.st153{clip-path:url(#SVGID_4_);fill:#F96811;}
	.st154{clip-path:url(#SVGID_4_);fill:#F96711;}
	.st155{clip-path:url(#SVGID_4_);fill:#F96611;}
	.st156{clip-path:url(#SVGID_4_);fill:#F96511;}
	.st157{clip-path:url(#SVGID_4_);fill:#F96411;}
	.st158{clip-path:url(#SVGID_4_);fill:#F96311;}
	.st159{clip-path:url(#SVGID_4_);fill:#F96210;}
	.st160{clip-path:url(#SVGID_4_);fill:#F86110;}
	.st161{clip-path:url(#SVGID_4_);fill:#F86010;}
	.st162{clip-path:url(#SVGID_4_);fill:#F85F10;}
	.st163{clip-path:url(#SVGID_4_);fill:#F85E10;}
	.st164{clip-path:url(#SVGID_4_);fill:#F85D10;}
	.st165{clip-path:url(#SVGID_4_);fill:#F85C10;}
	.st166{clip-path:url(#SVGID_4_);fill:#F85B10;}
	.st167{clip-path:url(#SVGID_4_);fill:#F85A10;}
	.st168{clip-path:url(#SVGID_4_);fill:#F85910;}
	.st169{clip-path:url(#SVGID_4_);fill:#F85810;}
	.st170{clip-path:url(#SVGID_4_);fill:#F85710;}
	.st171{clip-path:url(#SVGID_4_);fill:#F85610;}
	.st172{clip-path:url(#SVGID_4_);fill:#F85510;}
	.st173{clip-path:url(#SVGID_4_);fill:#F85410;}
	.st174{clip-path:url(#SVGID_4_);fill:#F85310;}
	.st175{clip-path:url(#SVGID_4_);fill:#F85210;}
	.st176{clip-path:url(#SVGID_4_);fill:#F85110;}
	.st177{clip-path:url(#SVGID_4_);fill:#F85010;}
	.st178{clip-path:url(#SVGID_4_);fill:#F84F0F;}
	.st179{clip-path:url(#SVGID_4_);fill:#F84E0F;}
	.st180{clip-path:url(#SVGID_4_);fill:#F84D0F;}
	.st181{clip-path:url(#SVGID_4_);fill:#F84C0F;}
	.st182{clip-path:url(#SVGID_4_);fill:#F84B0F;}
	.st183{clip-path:url(#SVGID_4_);fill:#F84A0F;}
	.st184{clip-path:url(#SVGID_4_);fill:#F8490F;}
	.st185{clip-path:url(#SVGID_4_);fill:#F8480F;}
	.st186{clip-path:url(#SVGID_4_);fill:#F8470F;}
	.st187{clip-path:url(#SVGID_4_);fill:#F8460F;}
	.st188{clip-path:url(#SVGID_4_);fill:#F8450F;}
	.st189{clip-path:url(#SVGID_4_);fill:#F8440F;}
	.st190{clip-path:url(#SVGID_4_);fill:#F8430F;}
	.st191{clip-path:url(#SVGID_4_);fill:#F8420F;}
	.st192{clip-path:url(#SVGID_4_);fill:#F8410F;}
	.st193{clip-path:url(#SVGID_4_);fill:#F8400F;}
	.st194{clip-path:url(#SVGID_4_);fill:#F83F0F;}
	.st195{clip-path:url(#SVGID_4_);fill:#F83E0E;}
	.st196{clip-path:url(#SVGID_4_);fill:#F83D0E;}
	.st197{clip-path:url(#SVGID_4_);fill:#F83C0E;}
	.st198{clip-path:url(#SVGID_4_);fill:#F83B0E;}
	.st199{clip-path:url(#SVGID_4_);fill:#F73A0E;}
	.st200{clip-path:url(#SVGID_4_);fill:#F7390E;}
	.st201{clip-path:url(#SVGID_4_);fill:#F7380E;}
	.st202{clip-path:url(#SVGID_4_);fill:#F7370E;}
	.st203{clip-path:url(#SVGID_4_);fill:#F7360E;}
	.st204{clip-path:url(#SVGID_4_);fill:#F7340E;}
	.st205{clip-path:url(#SVGID_4_);fill:#F7330E;}
	.st206{clip-path:url(#SVGID_4_);fill:#F7320E;}
	.st207{clip-path:url(#SVGID_4_);fill:#F7310E;}
	.st208{clip-path:url(#SVGID_4_);fill:#F7300E;}
	.st209{clip-path:url(#SVGID_4_);fill:#F72F0E;}
	.st210{clip-path:url(#SVGID_4_);fill:#F72E0E;}
	.st211{clip-path:url(#SVGID_4_);fill:#F72D0E;}
	.st212{clip-path:url(#SVGID_4_);fill:#F72C0E;}
	.st213{clip-path:url(#SVGID_4_);fill:#F72B0E;}
	.st214{clip-path:url(#SVGID_4_);fill:#F72B0D;}
	.st215{clip-path:url(#SVGID_4_);fill:#F72A0D;}
	.st216{clip-path:url(#SVGID_4_);fill:#F7290D;}
	.st217{clip-path:url(#SVGID_4_);fill:#F7280D;}
	.st218{clip-path:url(#SVGID_4_);fill:#F7270D;}
	.st219{clip-path:url(#SVGID_4_);fill:#F7260D;}
</style>
<g>
	<g>
		<path class="st0" d="M27.316,27.719h-6.16h-6.16h-6.16h-6.16H2.518H2.361H2.204H2.048l0.135-0.079l0.135-0.079l0.135-0.079
			l0.135-0.079c0.313-0.184,0.628-0.364,0.946-0.545s0.639-0.359,0.965-0.539s0.657-0.361,0.995-0.545s0.683-0.37,1.037-0.561
			c1.653-0.892,3.361-1.815,5.082-2.854c1.721-1.04,3.454-2.197,5.158-3.56s3.377-2.931,4.979-4.792
			c1.601-1.861,3.13-4.016,4.544-6.551c0.003-0.006,0.006-0.012,0.008-0.018c0.002-0.006,0.003-0.012,0.004-0.019
			s0.001-0.013,0-0.019c-0.001-0.006-0.002-0.013-0.003-0.019c-0.002-0.006-0.004-0.012-0.007-0.018
			c-0.003-0.006-0.006-0.011-0.01-0.016s-0.008-0.01-0.013-0.014c-0.005-0.004-0.01-0.008-0.016-0.011
			c-0.004-0.002-0.008-0.004-0.012-0.006c-0.004-0.002-0.008-0.003-0.012-0.004s-0.008-0.002-0.012-0.002
			c-0.004-0.001-0.008-0.001-0.012-0.001c-0.009,0-0.018,0.001-0.026,0.004s-0.016,0.006-0.024,0.01s-0.014,0.01-0.021,0.016
			s-0.011,0.013-0.016,0.021c-1.407,2.523-2.929,4.667-4.524,6.519s-3.261,3.414-4.958,4.77s-3.424,2.509-5.138,3.545
			c-1.714,1.036-3.416,1.954-5.063,2.844c-0.398,0.215-0.785,0.424-1.164,0.631s-0.749,0.41-1.113,0.611s-0.72,0.403-1.071,0.604
			s-0.698,0.403-1.04,0.608L1.985,27.53l-0.064,0.038l-0.064,0.038l-0.064,0.038V27.57v-0.075V27.42v-0.075v-5.077v-5.077v-5.077
			V7.036c0-0.014-0.003-0.027-0.008-0.038S1.772,6.975,1.763,6.966S1.744,6.95,1.732,6.945S1.707,6.937,1.693,6.937
			S1.667,6.94,1.655,6.945S1.632,6.957,1.623,6.966s-0.016,0.02-0.021,0.031S1.594,7.023,1.594,7.036v5.195v5.195v5.195v5.195
			l0.001,0.001l0.001,0.001l0.001,0.001l0.001,0.001l0.004,0.011l0.004,0.011l0.004,0.011l0.004,0.011l0.001,0.001l0.001,0.001
			l0.001,0.001l0.001,0.001l0.001,0.001l0.001,0.001l0.001,0.001l0.001,0.001l0.009,0.008l0.009,0.008L1.648,27.9l0.009,0.008
			c0.002,0.001,0.005,0.002,0.008,0.003s0.006,0.002,0.009,0.003s0.006,0.002,0.009,0.002s0.006,0.001,0.009,0.001h6.406h6.406
			h6.406h6.406c0.014,0,0.027-0.003,0.038-0.008s0.023-0.012,0.031-0.021s0.016-0.02,0.021-0.031s0.008-0.025,0.008-0.038
			c0-0.014-0.003-0.027-0.008-0.039c-0.005-0.012-0.012-0.023-0.021-0.031s-0.019-0.016-0.031-0.021
			C27.342,27.722,27.329,27.719,27.316,27.719z"/>
	</g>
</g>
<g>
	<g>
		<path class="st0" d="M12.298,13.588c-0.09,0-0.176,0.018-0.254,0.051s-0.149,0.081-0.208,0.14s-0.107,0.13-0.14,0.208
			s-0.051,0.164-0.051,0.254s0.018,0.176,0.051,0.254s0.081,0.149,0.14,0.208s0.13,0.107,0.208,0.14s0.164,0.051,0.254,0.051
			s0.176-0.018,0.254-0.051s0.149-0.081,0.208-0.14s0.107-0.13,0.14-0.208s0.051-0.164,0.051-0.254s-0.018-0.176-0.051-0.254
			s-0.081-0.149-0.14-0.208s-0.13-0.107-0.208-0.14S12.388,13.588,12.298,13.588z M12.298,14.698c-0.063,0-0.123-0.013-0.177-0.036
			s-0.104-0.057-0.145-0.098s-0.075-0.09-0.098-0.145s-0.036-0.115-0.036-0.177c0-0.063,0.013-0.123,0.036-0.177
			s0.057-0.104,0.098-0.145s0.09-0.075,0.145-0.098s0.115-0.036,0.177-0.036s0.123,0.013,0.177,0.036s0.104,0.057,0.145,0.098
			s0.075,0.09,0.098,0.145s0.036,0.115,0.036,0.177c0,0.063-0.013,0.123-0.036,0.177s-0.057,0.104-0.098,0.145
			s-0.09,0.075-0.145,0.098S12.361,14.698,12.298,14.698z"/>
	</g>
</g>
<g>
	<g>
		<path class="st0" d="M15.234,13.032c-0.09,0-0.176,0.018-0.254,0.051s-0.149,0.081-0.208,0.14s-0.107,0.13-0.14,0.208
			s-0.051,0.164-0.051,0.254s0.018,0.176,0.051,0.254s0.081,0.149,0.14,0.208s0.13,0.107,0.208,0.14s0.164,0.051,0.254,0.051
			c0.09,0,0.176-0.018,0.254-0.051s0.149-0.081,0.208-0.14s0.107-0.13,0.14-0.208s0.051-0.164,0.051-0.254s-0.018-0.176-0.051-0.254
			s-0.081-0.149-0.14-0.208s-0.13-0.107-0.208-0.14S15.324,13.032,15.234,13.032z M15.234,14.143c-0.063,0-0.123-0.013-0.177-0.036
			s-0.104-0.057-0.145-0.098s-0.075-0.09-0.098-0.145s-0.036-0.115-0.036-0.177c0-0.063,0.013-0.123,0.036-0.177
			s0.056-0.104,0.098-0.145s0.09-0.075,0.145-0.098s0.114-0.036,0.177-0.036c0.063,0,0.123,0.013,0.177,0.036
			s0.104,0.057,0.145,0.098s0.075,0.09,0.098,0.145s0.036,0.115,0.036,0.177c0,0.063-0.013,0.123-0.036,0.177
			s-0.057,0.104-0.098,0.145s-0.09,0.075-0.145,0.098S15.297,14.143,15.234,14.143z"/>
	</g>
</g>
<g>
	<g>
		<path class="st0" d="M14.124,15.757c-0.09,0-0.176,0.018-0.254,0.051s-0.149,0.081-0.208,0.14s-0.107,0.13-0.14,0.208
			c-0.033,0.078-0.051,0.164-0.051,0.254s0.018,0.176,0.051,0.254c0.033,0.078,0.081,0.149,0.14,0.208s0.13,0.107,0.208,0.14
			c0.078,0.033,0.164,0.052,0.254,0.052c0.09,0,0.176-0.018,0.254-0.052c0.078-0.033,0.149-0.081,0.208-0.14s0.107-0.13,0.14-0.208
			c0.033-0.078,0.051-0.164,0.051-0.254s-0.018-0.176-0.051-0.254c-0.033-0.078-0.081-0.149-0.14-0.208s-0.13-0.107-0.208-0.14
			S14.214,15.757,14.124,15.757z M14.124,16.867c-0.063,0-0.123-0.013-0.177-0.036s-0.104-0.057-0.145-0.098
			s-0.075-0.09-0.098-0.145s-0.036-0.115-0.036-0.177s0.013-0.123,0.036-0.177s0.056-0.104,0.098-0.145s0.09-0.075,0.145-0.098
			s0.114-0.036,0.177-0.036c0.063,0,0.123,0.013,0.177,0.036s0.104,0.057,0.145,0.098s0.075,0.09,0.098,0.145
			s0.036,0.115,0.036,0.177s-0.013,0.123-0.036,0.177s-0.057,0.104-0.098,0.145s-0.09,0.075-0.145,0.098
			S14.187,16.867,14.124,16.867z"/>
	</g>
</g>
<g>
	<g>
		<path class="st0" d="M13.752,10.798c-0.09,0-0.176,0.018-0.254,0.051s-0.149,0.081-0.208,0.14s-0.107,0.13-0.14,0.208
			s-0.051,0.164-0.051,0.254s0.018,0.176,0.051,0.254s0.081,0.149,0.14,0.208s0.13,0.107,0.208,0.14s0.164,0.051,0.254,0.051
			c0.09,0,0.176-0.018,0.254-0.051s0.149-0.081,0.208-0.14s0.107-0.13,0.14-0.208s0.051-0.164,0.051-0.254s-0.018-0.176-0.051-0.254
			s-0.081-0.149-0.14-0.208s-0.13-0.107-0.208-0.14S13.842,10.798,13.752,10.798z M13.752,11.909c-0.063,0-0.123-0.013-0.177-0.036
			s-0.104-0.057-0.145-0.098s-0.075-0.09-0.098-0.145s-0.036-0.115-0.036-0.177c0-0.03,0.003-0.06,0.008-0.089
			s0.014-0.057,0.026-0.085s0.025-0.053,0.042-0.078s0.036-0.048,0.057-0.07c0.022-0.022,0.045-0.041,0.07-0.057
			s0.051-0.031,0.078-0.042s0.056-0.02,0.085-0.026s0.059-0.009,0.09-0.009c0.063,0,0.123,0.013,0.177,0.036
			s0.104,0.057,0.145,0.098s0.075,0.09,0.098,0.145s0.036,0.115,0.036,0.177c0,0.063-0.013,0.123-0.036,0.177
			s-0.057,0.104-0.098,0.145s-0.09,0.075-0.145,0.098S13.815,11.909,13.752,11.909z"/>
	</g>
</g>
<g>
	<g>
		<path class="st0" d="M17.879,11.61c-0.09,0-0.176,0.018-0.254,0.051c-0.078,0.033-0.149,0.081-0.208,0.14s-0.107,0.13-0.14,0.208
			c-0.033,0.078-0.051,0.164-0.051,0.254s0.018,0.176,0.051,0.254c0.033,0.078,0.081,0.149,0.14,0.208s0.13,0.107,0.208,0.14
			c0.078,0.033,0.164,0.051,0.254,0.051c0.09,0,0.176-0.018,0.254-0.051c0.078-0.033,0.149-0.081,0.208-0.14s0.107-0.13,0.14-0.208
			c0.033-0.078,0.051-0.164,0.051-0.254s-0.018-0.176-0.051-0.254c-0.033-0.078-0.081-0.149-0.14-0.208s-0.13-0.107-0.208-0.14
			C18.056,11.628,17.97,11.61,17.879,11.61z M17.879,12.72c-0.063,0-0.123-0.013-0.177-0.036c-0.055-0.023-0.104-0.057-0.145-0.098
			s-0.075-0.09-0.098-0.145c-0.023-0.055-0.036-0.115-0.036-0.177s0.013-0.123,0.036-0.177c0.023-0.055,0.056-0.104,0.098-0.145
			s0.09-0.075,0.145-0.098c0.054-0.023,0.114-0.036,0.177-0.036c0.063,0,0.123,0.013,0.177,0.036
			c0.055,0.023,0.104,0.057,0.145,0.098s0.075,0.09,0.098,0.145c0.023,0.055,0.036,0.115,0.036,0.177s-0.013,0.123-0.036,0.177
			c-0.023,0.055-0.057,0.104-0.098,0.145s-0.09,0.075-0.145,0.098C18.002,12.707,17.942,12.72,17.879,12.72z"/>
	</g>
</g>
<g>
	<g>
		<path class="st0" d="M10.84,11.61c-0.09,0-0.176,0.018-0.254,0.051s-0.149,0.081-0.208,0.14s-0.107,0.13-0.14,0.208
			s-0.051,0.164-0.051,0.254s0.018,0.176,0.051,0.254s0.081,0.149,0.14,0.208s0.13,0.107,0.208,0.14s0.164,0.051,0.254,0.051
			c0.09,0,0.176-0.018,0.254-0.051s0.149-0.081,0.208-0.14s0.107-0.13,0.14-0.208s0.051-0.164,0.051-0.254s-0.018-0.176-0.051-0.254
			s-0.081-0.149-0.14-0.208s-0.13-0.107-0.208-0.14S10.93,11.61,10.84,11.61z M10.84,12.721c-0.063,0-0.123-0.013-0.177-0.036
			s-0.104-0.057-0.145-0.098s-0.075-0.09-0.098-0.145s-0.036-0.115-0.036-0.177s0.013-0.123,0.036-0.177s0.056-0.104,0.098-0.145
			s0.09-0.075,0.145-0.098s0.114-0.036,0.177-0.036c0.063,0,0.123,0.013,0.177,0.036s0.104,0.057,0.145,0.098
			s0.075,0.09,0.098,0.145s0.036,0.115,0.036,0.177s-0.013,0.123-0.036,0.177s-0.057,0.104-0.098,0.145s-0.09,0.075-0.145,0.098
			S10.902,12.721,10.84,12.721z"/>
	</g>
</g>
<g>
	<g>
		<path class="st0" d="M10.84,16.075c-0.09,0-0.176,0.018-0.254,0.051c-0.078,0.033-0.149,0.081-0.208,0.14s-0.107,0.13-0.14,0.208
			c-0.033,0.078-0.051,0.164-0.051,0.254s0.018,0.176,0.051,0.254c0.033,0.078,0.081,0.149,0.14,0.208s0.13,0.107,0.208,0.14
			c0.078,0.033,0.164,0.052,0.254,0.052c0.09,0,0.176-0.018,0.254-0.052c0.078-0.033,0.149-0.081,0.208-0.14s0.107-0.13,0.14-0.208
			c0.033-0.078,0.051-0.164,0.051-0.254s-0.018-0.176-0.051-0.254c-0.033-0.078-0.081-0.149-0.14-0.208s-0.13-0.107-0.208-0.14
			C11.016,16.094,10.93,16.075,10.84,16.075z M10.84,17.186c-0.063,0-0.123-0.013-0.177-0.036s-0.104-0.057-0.145-0.098
			s-0.075-0.09-0.098-0.145s-0.036-0.115-0.036-0.177s0.013-0.123,0.036-0.177s0.056-0.104,0.098-0.145s0.09-0.075,0.145-0.098
			s0.114-0.036,0.177-0.036c0.063,0,0.123,0.013,0.177,0.036s0.104,0.057,0.145,0.098s0.075,0.09,0.098,0.145
			s0.036,0.115,0.036,0.177s-0.013,0.123-0.036,0.177s-0.057,0.104-0.098,0.145s-0.09,0.075-0.145,0.098S10.902,17.186,10.84,17.186
			z"/>
	</g>
</g>
<g>
	<g>
		<path class="st0" d="M8.553,13.807c-0.09,0-0.176,0.018-0.254,0.051s-0.149,0.081-0.208,0.14s-0.107,0.13-0.14,0.208
			s-0.051,0.164-0.051,0.254s0.018,0.176,0.051,0.254s0.081,0.149,0.14,0.208s0.13,0.107,0.208,0.14s0.164,0.051,0.254,0.051
			c0.09,0,0.176-0.018,0.254-0.051s0.149-0.081,0.208-0.14s0.107-0.13,0.14-0.208s0.051-0.164,0.051-0.254s-0.018-0.176-0.051-0.254
			s-0.081-0.149-0.14-0.208s-0.13-0.107-0.208-0.14S8.643,13.807,8.553,13.807z M8.553,14.918c-0.063,0-0.123-0.013-0.177-0.036
			s-0.104-0.057-0.145-0.098s-0.075-0.09-0.098-0.145s-0.036-0.115-0.036-0.177c0-0.063,0.013-0.123,0.036-0.177
			s0.056-0.104,0.098-0.145s0.09-0.075,0.145-0.098s0.114-0.036,0.177-0.036c0.063,0,0.123,0.013,0.177,0.036
			s0.104,0.057,0.145,0.098s0.075,0.09,0.098,0.145s0.036,0.115,0.036,0.177c0,0.063-0.013,0.123-0.036,0.177
			s-0.057,0.104-0.098,0.145s-0.09,0.075-0.145,0.098S8.616,14.918,8.553,14.918z"/>
	</g>
</g>
<g>
	<g>
		<path class="st0" d="M11.95,18.291c-0.09,0-0.176,0.018-0.254,0.052s-0.149,0.081-0.208,0.14s-0.107,0.13-0.14,0.208
			s-0.051,0.164-0.051,0.255c0,0.09,0.018,0.176,0.051,0.254s0.081,0.149,0.14,0.208s0.13,0.107,0.208,0.14s0.164,0.051,0.254,0.051
			c0.09,0,0.176-0.018,0.254-0.051s0.149-0.081,0.208-0.14s0.107-0.13,0.14-0.208s0.051-0.164,0.051-0.254
			c0-0.09-0.018-0.176-0.051-0.255s-0.081-0.149-0.14-0.208s-0.13-0.107-0.208-0.14S12.04,18.291,11.95,18.291z M11.95,19.401
			c-0.063,0-0.123-0.013-0.177-0.036c-0.054-0.023-0.104-0.056-0.145-0.098s-0.075-0.09-0.098-0.145
			c-0.023-0.054-0.036-0.114-0.036-0.177c0-0.063,0.013-0.123,0.036-0.178c0.023-0.055,0.056-0.104,0.098-0.145
			s0.09-0.075,0.145-0.098c0.054-0.023,0.114-0.036,0.177-0.036c0.063,0,0.123,0.013,0.177,0.036
			c0.055,0.023,0.104,0.057,0.145,0.098s0.075,0.091,0.098,0.145c0.023,0.055,0.036,0.115,0.036,0.178
			c0,0.063-0.013,0.123-0.036,0.177c-0.023,0.055-0.057,0.104-0.098,0.145s-0.09,0.075-0.145,0.098
			C12.073,19.388,12.013,19.401,11.95,19.401z"/>
	</g>
</g>
<g>
	<g>
		<path class="st0" d="M8.282,17.735c-0.09,0-0.176,0.018-0.254,0.052c-0.078,0.033-0.149,0.081-0.208,0.14s-0.107,0.13-0.14,0.208
			s-0.051,0.164-0.051,0.255c0,0.09,0.018,0.176,0.051,0.254s0.081,0.149,0.14,0.208s0.13,0.107,0.208,0.14
			c0.078,0.033,0.164,0.051,0.254,0.051c0.09,0,0.176-0.018,0.254-0.051s0.149-0.081,0.208-0.14s0.107-0.13,0.14-0.208
			s0.051-0.164,0.051-0.254c0-0.09-0.018-0.176-0.051-0.255s-0.081-0.149-0.14-0.208s-0.13-0.107-0.208-0.14
			S8.372,17.735,8.282,17.735z M8.282,18.845c-0.063,0-0.123-0.013-0.177-0.036c-0.054-0.023-0.104-0.056-0.145-0.098
			c-0.041-0.041-0.075-0.09-0.098-0.145c-0.023-0.054-0.036-0.114-0.036-0.177c0-0.063,0.013-0.123,0.036-0.178
			c0.023-0.055,0.056-0.104,0.098-0.145c0.041-0.041,0.09-0.075,0.145-0.098c0.054-0.023,0.114-0.036,0.177-0.036
			c0.063,0,0.123,0.013,0.177,0.036c0.055,0.023,0.104,0.057,0.145,0.098s0.075,0.091,0.098,0.145
			c0.023,0.055,0.036,0.115,0.036,0.178c0,0.063-0.013,0.123-0.036,0.177c-0.023,0.055-0.057,0.104-0.098,0.145
			s-0.09,0.075-0.145,0.098C8.405,18.833,8.345,18.845,8.282,18.845z"/>
	</g>
</g>
<g>
	<g>
		<path class="st0" d="M6.06,15.757c-0.09,0-0.176,0.018-0.254,0.052s-0.149,0.081-0.208,0.14s-0.107,0.13-0.14,0.208
			s-0.051,0.164-0.051,0.255c0,0.044,0.004,0.086,0.012,0.128c0.008,0.042,0.021,0.082,0.037,0.122s0.036,0.077,0.06,0.112
			c0.024,0.035,0.051,0.069,0.082,0.1c0.031,0.031,0.064,0.058,0.1,0.082C5.732,16.98,5.77,17,5.809,17.016s0.08,0.029,0.122,0.037
			c0.042,0.008,0.085,0.013,0.129,0.013c0.09,0,0.176-0.018,0.254-0.051s0.149-0.081,0.208-0.14s0.107-0.13,0.14-0.208
			s0.051-0.164,0.051-0.254c0-0.09-0.018-0.176-0.051-0.255s-0.081-0.149-0.14-0.208s-0.13-0.107-0.208-0.14
			S6.15,15.757,6.06,15.757z M6.06,16.868c-0.063,0-0.123-0.013-0.177-0.036c-0.054-0.023-0.104-0.056-0.145-0.098
			s-0.075-0.09-0.098-0.145c-0.023-0.054-0.036-0.114-0.036-0.177c0-0.03,0.003-0.06,0.008-0.09
			c0.006-0.029,0.014-0.058,0.026-0.085s0.025-0.054,0.042-0.078c0.017-0.025,0.036-0.048,0.057-0.07
			c0.022-0.022,0.045-0.041,0.07-0.057c0.025-0.017,0.051-0.031,0.078-0.042s0.056-0.02,0.085-0.026s0.059-0.009,0.09-0.009
			c0.063,0,0.123,0.013,0.177,0.036s0.104,0.057,0.145,0.098s0.075,0.091,0.098,0.145c0.023,0.055,0.036,0.115,0.036,0.178
			c0,0.063-0.013,0.123-0.036,0.177c-0.023,0.055-0.057,0.104-0.098,0.145s-0.09,0.075-0.145,0.098
			C6.182,16.855,6.123,16.868,6.06,16.868z"/>
	</g>
</g>
<g>
	<g>
		<path class="st0" d="M17.324,14.646c-0.09,0-0.176,0.018-0.254,0.051s-0.149,0.081-0.208,0.14s-0.107,0.13-0.14,0.208
			s-0.051,0.164-0.051,0.254c0,0.09,0.018,0.176,0.051,0.254s0.081,0.149,0.14,0.208s0.13,0.107,0.208,0.14s0.164,0.051,0.254,0.051
			c0.09,0,0.176-0.018,0.254-0.051c0.078-0.033,0.149-0.081,0.208-0.14s0.107-0.13,0.14-0.208c0.033-0.078,0.051-0.164,0.051-0.254
			c0-0.09-0.018-0.176-0.051-0.254c-0.033-0.078-0.081-0.149-0.14-0.208s-0.13-0.107-0.208-0.14
			C17.5,14.665,17.414,14.646,17.324,14.646z M17.324,15.757c-0.063,0-0.123-0.013-0.177-0.036
			c-0.055-0.023-0.104-0.057-0.145-0.098s-0.075-0.09-0.098-0.145c-0.023-0.055-0.036-0.115-0.036-0.177
			c0-0.063,0.013-0.123,0.036-0.177c0.023-0.055,0.056-0.104,0.098-0.145s0.09-0.075,0.145-0.098
			c0.054-0.023,0.114-0.036,0.177-0.036c0.063,0,0.123,0.013,0.177,0.036s0.104,0.057,0.145,0.098s0.075,0.09,0.098,0.145
			s0.036,0.115,0.036,0.177c0,0.063-0.013,0.123-0.036,0.177s-0.057,0.104-0.098,0.145s-0.09,0.075-0.145,0.098
			S17.387,15.757,17.324,15.757z"/>
	</g>
</g>
<g>
	<g>
		<path class="st0" d="M8.282,20.805c-0.09,0-0.176,0.018-0.254,0.052c-0.078,0.033-0.149,0.081-0.208,0.14s-0.107,0.13-0.14,0.208
			S7.628,21.37,7.628,21.46c0,0.044,0.004,0.087,0.012,0.128s0.021,0.082,0.037,0.122s0.036,0.077,0.06,0.112s0.051,0.069,0.082,0.1
			c0.031,0.031,0.064,0.058,0.1,0.082s0.073,0.044,0.112,0.06c0.039,0.016,0.08,0.029,0.122,0.037s0.085,0.013,0.129,0.013
			c0.09,0,0.176-0.018,0.254-0.051s0.149-0.081,0.208-0.14s0.107-0.13,0.14-0.208s0.051-0.164,0.051-0.254
			c0-0.09-0.018-0.176-0.051-0.255s-0.081-0.149-0.14-0.208s-0.13-0.107-0.208-0.14S8.372,20.805,8.282,20.805z M8.282,21.916
			c-0.063,0-0.123-0.013-0.177-0.036s-0.104-0.057-0.145-0.098c-0.041-0.041-0.075-0.09-0.098-0.145s-0.036-0.114-0.036-0.177
			c0-0.03,0.003-0.06,0.008-0.089c0.006-0.029,0.014-0.058,0.026-0.085s0.025-0.054,0.042-0.078c0.017-0.025,0.036-0.048,0.057-0.07
			c0.022-0.022,0.045-0.041,0.07-0.057s0.051-0.031,0.078-0.042s0.056-0.02,0.085-0.026s0.059-0.009,0.09-0.009
			c0.063,0,0.123,0.013,0.177,0.036c0.055,0.023,0.104,0.057,0.145,0.098s0.075,0.091,0.098,0.145
			c0.023,0.055,0.036,0.115,0.036,0.178c0,0.063-0.013,0.123-0.036,0.177s-0.057,0.104-0.098,0.145s-0.09,0.075-0.145,0.098
			S8.345,21.916,8.282,21.916z"/>
	</g>
</g>
<g>
	<g>
		<path class="st0" d="M22.654,22.245l-0.214-0.214l-0.214-0.214l-0.214-0.214l-0.214-0.214c-0.005-0.005-0.01-0.009-0.015-0.012
			s-0.011-0.007-0.017-0.009s-0.012-0.004-0.018-0.006s-0.013-0.002-0.019-0.002c-0.007,0-0.013,0.001-0.02,0.002
			c-0.006,0.001-0.013,0.003-0.018,0.006s-0.012,0.005-0.017,0.009c-0.005,0.004-0.01,0.008-0.015,0.012l-0.214,0.214l-0.214,0.214
			l-0.214,0.214l-0.214,0.214c-0.01,0.01-0.017,0.021-0.022,0.033s-0.007,0.025-0.007,0.037s0.002,0.025,0.007,0.037
			s0.012,0.023,0.022,0.033l0.214,0.214l0.214,0.214l0.214,0.214l0.214,0.214c0.006,0.006,0.013,0.011,0.019,0.015
			c0.007,0.004,0.013,0.007,0.019,0.009s0.012,0.003,0.018,0.004c0.005,0.001,0.01,0.001,0.014,0.001
			c0.007,0,0.013-0.001,0.02-0.002s0.013-0.003,0.019-0.006s0.012-0.006,0.017-0.009s0.011-0.008,0.015-0.013l0.214-0.214
			l0.214-0.214l0.214-0.214l0.214-0.214c0.01-0.01,0.017-0.021,0.022-0.033s0.007-0.025,0.007-0.037s-0.002-0.025-0.007-0.037
			S22.664,22.255,22.654,22.245z M22.324,22.436l-0.119,0.119l-0.119,0.119l-0.119,0.119l-0.119,0.119l-0.03,0.03l-0.03,0.03
			l-0.03,0.03l-0.03,0.03l-0.03-0.03l-0.03-0.03l-0.03-0.03l-0.03-0.03l-0.119-0.119l-0.119-0.119l-0.119-0.119l-0.119-0.119
			l-0.03-0.03l-0.03-0.03l-0.03-0.03l-0.03-0.03l0.03-0.03l0.03-0.03l0.03-0.03l0.03-0.03l0.119-0.119l0.119-0.119l0.119-0.119
			l0.119-0.119l0.03-0.03l0.03-0.03l0.03-0.03l0.03-0.03l0.03,0.03l0.03,0.03l0.03,0.03l0.03,0.03l0.119,0.119l0.119,0.119
			l0.119,0.119l0.119,0.119l0.03,0.03l0.03,0.03l0.03,0.03l0.03,0.03l-0.03,0.03l-0.03,0.03l-0.03,0.03L22.324,22.436z"/>
	</g>
</g>
<g>
	<g>
		<path class="st0" d="M22.156,19.429l-0.214-0.214l-0.214-0.214l-0.214-0.214l-0.214-0.214c-0.004-0.004-0.009-0.008-0.014-0.011
			c-0.005-0.003-0.011-0.006-0.017-0.008s-0.012-0.004-0.019-0.005c-0.007-0.001-0.013-0.002-0.02-0.002
			c-0.007,0-0.014,0.001-0.02,0.002c-0.007,0.001-0.013,0.003-0.019,0.005s-0.011,0.005-0.017,0.008
			c-0.005,0.003-0.01,0.007-0.014,0.011l-0.214,0.214l-0.214,0.214l-0.214,0.214l-0.214,0.214c-0.005,0.005-0.009,0.01-0.012,0.015
			c-0.004,0.005-0.007,0.011-0.009,0.017s-0.004,0.012-0.006,0.019c-0.001,0.006-0.002,0.013-0.002,0.02
			c0,0.007,0.001,0.013,0.002,0.02c0.001,0.006,0.003,0.013,0.006,0.019s0.006,0.012,0.009,0.017
			c0.004,0.005,0.008,0.011,0.013,0.015l0.214,0.214l0.214,0.214l0.214,0.214l0.214,0.214c0.006,0.006,0.013,0.011,0.019,0.015
			c0.006,0.004,0.013,0.007,0.019,0.009s0.012,0.003,0.017,0.004c0.005,0.001,0.01,0.001,0.014,0.001
			c0.007,0,0.013-0.001,0.02-0.002s0.013-0.003,0.019-0.006s0.012-0.006,0.017-0.009s0.011-0.008,0.015-0.013l0.214-0.214
			l0.214-0.214l0.214-0.214l0.214-0.214c0.005-0.005,0.009-0.01,0.012-0.015c0.004-0.005,0.007-0.011,0.009-0.017
			s0.004-0.012,0.006-0.019c0.001-0.006,0.002-0.013,0.002-0.02c0-0.007-0.001-0.013-0.002-0.02
			c-0.001-0.006-0.003-0.013-0.006-0.019s-0.006-0.012-0.009-0.017C22.165,19.439,22.161,19.434,22.156,19.429z M21.827,19.621
			l-0.119,0.119l-0.119,0.119l-0.119,0.119l-0.119,0.119l-0.03,0.03l-0.03,0.03l-0.03,0.03l-0.03,0.03l-0.03-0.03l-0.03-0.03
			l-0.03-0.03l-0.03-0.03l-0.119-0.119l-0.119-0.119l-0.119-0.119l-0.119-0.119l-0.03-0.03l-0.03-0.03l-0.03-0.03l-0.03-0.03
			l0.03-0.03l0.03-0.03l0.03-0.03l0.03-0.03l0.119-0.119l0.119-0.119l0.119-0.119l0.119-0.119l0.03-0.03l0.03-0.03l0.03-0.03
			l0.03-0.03l0.03,0.03l0.03,0.03l0.03,0.03l0.03,0.03l0.119,0.119l0.119,0.119l0.119,0.119l0.119,0.119l0.03,0.03l0.03,0.03
			l0.03,0.03l0.03,0.03l-0.03,0.03l-0.03,0.03l-0.03,0.03L21.827,19.621z"/>
	</g>
</g>
<g>
	<g>
		<path class="st0" d="M18.806,21.945l-0.214-0.214l-0.214-0.214l-0.214-0.214l-0.214-0.214c-0.005-0.005-0.01-0.009-0.015-0.012
			s-0.011-0.007-0.017-0.009s-0.012-0.004-0.018-0.006s-0.013-0.002-0.019-0.002s-0.013,0.001-0.019,0.002s-0.013,0.003-0.018,0.006
			s-0.012,0.005-0.017,0.009s-0.01,0.008-0.015,0.012l-0.214,0.214l-0.214,0.214l-0.214,0.214l-0.214,0.214
			c-0.01,0.01-0.017,0.021-0.022,0.033s-0.007,0.025-0.007,0.037s0.002,0.025,0.007,0.037s0.012,0.023,0.022,0.033l0.214,0.214
			l0.214,0.214l0.214,0.214l0.214,0.214c0.006,0.006,0.013,0.011,0.019,0.015s0.013,0.007,0.019,0.009s0.012,0.003,0.018,0.004
			s0.01,0.001,0.014,0.001c0.007,0,0.013-0.001,0.02-0.002c0.006-0.001,0.013-0.003,0.019-0.006s0.012-0.006,0.017-0.009
			c0.005-0.004,0.011-0.008,0.015-0.013l0.214-0.214l0.214-0.214l0.214-0.214l0.214-0.214c0.01-0.01,0.017-0.021,0.021-0.033
			s0.007-0.025,0.007-0.037s-0.002-0.025-0.007-0.037S18.816,21.955,18.806,21.945z M18.476,22.135l-0.119,0.119l-0.119,0.119
			l-0.119,0.119L18,22.611l-0.03,0.03l-0.03,0.03l-0.03,0.03l-0.03,0.03l-0.03-0.03l-0.03-0.03l-0.03-0.03l-0.03-0.03l-0.119-0.119
			l-0.119-0.119l-0.119-0.119l-0.119-0.119l-0.03-0.03l-0.03-0.03l-0.03-0.03l-0.03-0.03l0.03-0.03l0.03-0.03l0.03-0.03l0.03-0.03
			l0.119-0.119l0.119-0.119l0.119-0.119l0.119-0.119l0.03-0.03l0.03-0.03l0.03-0.03l0.03-0.03l0.03,0.03l0.03,0.03l0.03,0.03
			l0.03,0.03l0.119,0.119l0.119,0.119l0.119,0.119l0.119,0.119l0.03,0.03l0.03,0.03l0.03,0.03l0.03,0.03l-0.03,0.03l-0.03,0.03
			l-0.03,0.03L18.476,22.135z"/>
	</g>
</g>
<g>
	<g>
		<path class="st0" d="M20.217,24.267l-0.214-0.214l-0.214-0.214l-0.214-0.214l-0.214-0.214c-0.005-0.005-0.01-0.009-0.015-0.012
			s-0.011-0.007-0.017-0.009s-0.012-0.004-0.018-0.006s-0.013-0.002-0.019-0.002s-0.013,0.001-0.019,0.002s-0.013,0.003-0.018,0.006
			s-0.012,0.005-0.017,0.009s-0.01,0.008-0.015,0.012l-0.214,0.214l-0.214,0.214l-0.214,0.214l-0.214,0.214
			c-0.01,0.01-0.017,0.021-0.022,0.033s-0.007,0.025-0.007,0.037s0.002,0.025,0.007,0.037s0.012,0.023,0.022,0.033l0.214,0.214
			l0.214,0.214l0.214,0.214l0.214,0.214c0.006,0.006,0.013,0.011,0.019,0.015c0.007,0.004,0.013,0.007,0.019,0.009
			s0.012,0.003,0.018,0.004c0.005,0.001,0.01,0.001,0.014,0.001c0.007,0,0.013-0.001,0.02-0.002s0.013-0.003,0.019-0.006
			s0.012-0.006,0.017-0.009s0.011-0.008,0.015-0.013l0.214-0.214l0.214-0.214l0.214-0.214l0.214-0.214
			c0.01-0.01,0.017-0.021,0.022-0.033c0.005-0.012,0.007-0.025,0.007-0.037s-0.002-0.025-0.007-0.037
			C20.234,24.288,20.227,24.276,20.217,24.267z M19.887,24.457l-0.119,0.119l-0.119,0.119l-0.119,0.119l-0.119,0.119l-0.03,0.03
			l-0.03,0.03l-0.03,0.03l-0.03,0.03l-0.03-0.03l-0.03-0.03l-0.03-0.03l-0.03-0.03l-0.119-0.119l-0.119-0.119l-0.119-0.119
			l-0.119-0.119l-0.03-0.03l-0.03-0.03l-0.03-0.03l-0.03-0.03l0.03-0.03l0.03-0.03l0.03-0.03l0.03-0.03l0.119-0.119l0.119-0.119
			l0.119-0.119l0.119-0.119l0.03-0.03l0.03-0.03l0.03-0.03l0.03-0.03l0.03,0.03l0.03,0.03l0.03,0.03l0.03,0.03l0.119,0.119
			l0.119,0.119l0.119,0.119l0.119,0.119l0.03,0.03l0.03,0.03l0.03,0.03l0.03,0.03l-0.03,0.03l-0.03,0.03l-0.03,0.03L19.887,24.457z"
			/>
	</g>
</g>
<g>
	<g>
		<path class="st0" d="M16.16,23.957l-0.214-0.214l-0.214-0.214l-0.214-0.214l-0.214-0.214c-0.005-0.005-0.01-0.009-0.015-0.012
			s-0.011-0.007-0.017-0.009s-0.012-0.004-0.019-0.006s-0.013-0.002-0.02-0.002c-0.007,0-0.013,0.001-0.02,0.002
			s-0.013,0.003-0.018,0.006s-0.012,0.005-0.017,0.009s-0.01,0.008-0.015,0.012l-0.214,0.214l-0.214,0.214l-0.214,0.214
			l-0.214,0.214c-0.005,0.005-0.009,0.01-0.012,0.015c-0.004,0.005-0.007,0.011-0.009,0.017s-0.004,0.012-0.006,0.019
			c-0.001,0.006-0.002,0.013-0.002,0.02c0,0.007,0.001,0.013,0.002,0.02c0.001,0.006,0.003,0.013,0.006,0.019
			s0.006,0.012,0.009,0.017c0.004,0.005,0.008,0.011,0.013,0.015l0.214,0.214l0.214,0.214l0.214,0.214l0.214,0.214
			c0.005,0.005,0.01,0.009,0.015,0.012c0.005,0.004,0.011,0.007,0.017,0.009s0.012,0.004,0.019,0.006
			c0.006,0.001,0.013,0.002,0.02,0.002c0.007,0,0.013-0.001,0.019-0.002s0.013-0.003,0.019-0.006s0.012-0.006,0.017-0.009
			s0.011-0.008,0.015-0.012l0.214-0.214l0.214-0.214l0.214-0.214l0.214-0.214c0.005-0.005,0.009-0.01,0.012-0.015
			c0.004-0.005,0.007-0.011,0.009-0.017s0.004-0.012,0.006-0.019c0.001-0.006,0.002-0.013,0.002-0.02
			c0-0.007-0.001-0.013-0.002-0.02c-0.001-0.006-0.003-0.013-0.006-0.019s-0.006-0.012-0.009-0.017
			C16.169,23.967,16.165,23.962,16.16,23.957z M15.83,24.147l-0.119,0.119l-0.119,0.119l-0.119,0.119l-0.119,0.119l-0.03,0.03
			l-0.03,0.03l-0.03,0.03l-0.03,0.03l-0.03-0.03l-0.03-0.03l-0.03-0.03l-0.03-0.03l-0.119-0.119l-0.119-0.119l-0.119-0.119
			l-0.119-0.119l-0.03-0.03l-0.03-0.03l-0.03-0.03l-0.03-0.03l0.03-0.03l0.03-0.03l0.03-0.03l0.03-0.03l0.119-0.119l0.119-0.119
			l0.119-0.119l0.119-0.119l0.03-0.03l0.03-0.03l0.03-0.03l0.03-0.03l0.03,0.03l0.03,0.03l0.03,0.03l0.03,0.03l0.119,0.119
			l0.119,0.119l0.119,0.119l0.119,0.119l0.03,0.03l0.03,0.03l0.03,0.03l0.03,0.03l-0.03,0.03l-0.03,0.03l-0.03,0.03L15.83,24.147z"
			/>
	</g>
</g>
<g>
	<g>
		<path class="st0" d="M25.52,19.43l-0.214-0.214l-0.214-0.214l-0.214-0.214l-0.214-0.214c-0.005-0.005-0.01-0.009-0.015-0.012
			c-0.005-0.004-0.011-0.007-0.017-0.009s-0.012-0.004-0.018-0.006c-0.006-0.001-0.013-0.002-0.02-0.002
			c-0.007,0-0.013,0.001-0.019,0.002c-0.006,0.001-0.013,0.003-0.018,0.006s-0.012,0.005-0.017,0.009
			c-0.005,0.004-0.01,0.008-0.015,0.012l-0.214,0.214l-0.214,0.214l-0.214,0.214l-0.214,0.214c-0.01,0.01-0.017,0.021-0.022,0.033
			s-0.007,0.025-0.007,0.037s0.002,0.025,0.007,0.037s0.012,0.023,0.022,0.033l0.214,0.214l0.214,0.214l0.214,0.214l0.214,0.214
			c0.006,0.006,0.013,0.011,0.019,0.015s0.013,0.007,0.019,0.009s0.012,0.003,0.018,0.004s0.01,0.001,0.014,0.001
			c0.007,0,0.013-0.001,0.02-0.002c0.006-0.001,0.013-0.003,0.019-0.006s0.012-0.006,0.017-0.009
			c0.005-0.004,0.011-0.008,0.015-0.013l0.214-0.214l0.214-0.214l0.214-0.214l0.214-0.214c0.01-0.01,0.017-0.021,0.022-0.033
			s0.007-0.025,0.007-0.037s-0.002-0.025-0.007-0.037S25.53,19.44,25.52,19.43z M25.19,19.621l-0.119,0.119l-0.119,0.119
			l-0.119,0.119l-0.119,0.119l-0.03,0.03l-0.03,0.03l-0.03,0.03l-0.03,0.03l-0.03-0.03l-0.03-0.03l-0.03-0.03l-0.03-0.03
			l-0.119-0.119l-0.119-0.119l-0.119-0.119l-0.119-0.119l-0.03-0.03l-0.03-0.03l-0.03-0.03l-0.03-0.03l0.03-0.03l0.03-0.03
			l0.03-0.03l0.03-0.03l0.119-0.119l0.119-0.119l0.119-0.119l0.119-0.119l0.03-0.03l0.03-0.03l0.03-0.03l0.03-0.03l0.03,0.03
			l0.03,0.03l0.03,0.03l0.03,0.03l0.119,0.119l0.119,0.119l0.119,0.119l0.119,0.119l0.03,0.03l0.03,0.03l0.03,0.03l0.03,0.03
			l-0.03,0.03l-0.03,0.03l-0.03,0.03L25.19,19.621z"/>
	</g>
</g>
<g>
	<g>
		<path class="st0" d="M24.366,16.342l-0.214-0.214l-0.214-0.214L23.724,15.7l-0.214-0.214c-0.005-0.005-0.01-0.009-0.015-0.012
			s-0.011-0.007-0.017-0.009s-0.012-0.004-0.018-0.006s-0.013-0.002-0.019-0.002s-0.013,0.001-0.019,0.002s-0.013,0.003-0.018,0.006
			s-0.012,0.005-0.017,0.009s-0.01,0.008-0.015,0.012L23.156,15.7l-0.214,0.214l-0.214,0.214l-0.214,0.214
			c-0.005,0.005-0.009,0.01-0.012,0.015c-0.004,0.005-0.007,0.011-0.009,0.017s-0.004,0.012-0.006,0.018
			c-0.001,0.006-0.002,0.013-0.002,0.019s0.001,0.013,0.002,0.019c0.001,0.006,0.003,0.013,0.006,0.018s0.005,0.012,0.009,0.017
			c0.004,0.005,0.008,0.01,0.012,0.015l0.214,0.214l0.214,0.214l0.214,0.214l0.214,0.214c0.005,0.005,0.01,0.009,0.015,0.012
			c0.005,0.004,0.011,0.007,0.017,0.009s0.012,0.004,0.018,0.006c0.006,0.001,0.013,0.002,0.019,0.002
			c0.007,0,0.013-0.001,0.02-0.002c0.006-0.001,0.013-0.003,0.019-0.006s0.012-0.006,0.017-0.009
			c0.005-0.004,0.011-0.008,0.015-0.013l0.214-0.214l0.214-0.214l0.214-0.214l0.214-0.214c0.005-0.005,0.009-0.01,0.012-0.015
			c0.004-0.005,0.007-0.011,0.009-0.017s0.004-0.012,0.006-0.018c0.001-0.006,0.002-0.013,0.002-0.019s-0.001-0.013-0.002-0.019
			c-0.001-0.006-0.003-0.013-0.006-0.018s-0.005-0.012-0.009-0.017C24.374,16.351,24.37,16.346,24.366,16.342z M24.035,16.532
			l-0.119,0.119l-0.119,0.119l-0.119,0.119l-0.119,0.119l-0.03,0.03l-0.03,0.03l-0.03,0.03l-0.03,0.03l-0.03-0.03l-0.03-0.03
			l-0.03-0.03l-0.03-0.03L23.2,16.889l-0.119-0.119l-0.119-0.119l-0.119-0.119l-0.03-0.03l-0.03-0.03l-0.03-0.03l-0.03-0.03
			l0.03-0.03l0.03-0.03l0.03-0.03l0.03-0.03l0.119-0.119l0.119-0.119l0.119-0.119l0.119-0.119l0.03-0.03l0.03-0.03l0.03-0.03
			l0.03-0.03l0.03,0.03l0.03,0.03l0.03,0.03l0.03,0.03l0.119,0.119l0.119,0.119l0.119,0.119l0.119,0.119l0.03,0.03l0.03,0.03
			l0.03,0.03l0.03,0.03l-0.03,0.03l-0.03,0.03l-0.03,0.03L24.035,16.532z"/>
	</g>
</g>
<g>
	<path class="st0" d="M29.819,29.908h-7.432h-7.432H7.523H0.091v-7.432v-7.432V7.611V0.179h7.432h7.432h7.432h7.432v7.432v7.432
		v7.432V29.908z M0.341,29.658h7.307h7.307h7.307h7.307V22.35v-7.307V7.736V0.429h-7.307h-7.307H7.648H0.341v7.307v7.307v7.307
		V29.658z"/>
</g>
</svg>
