<?xml version="1.0" encoding="utf-8"?>
<!-- Generator: Adobe Illustrator 19.1.0, SVG Export Plug-In . SVG Version: 6.00 Build 0)  -->
<svg version="1.1" id="Layer_1" xmlns="http://www.w3.org/2000/svg" xmlns:xlink="http://www.w3.org/1999/xlink" x="0px" y="0px"
	 viewBox="0 0 29.91 30.086" style="enable-background:new 0 0 29.91 30.086;" xml:space="preserve">
<style type="text/css">
	.st0{fill:#4D4D4D;}
	.st1{fill-rule:evenodd;clip-rule:evenodd;fill:#4C4C4C;}
	.st2{fill:#4C4C4C;}
	.st3{fill:#383330;}
	.st4{fill:#1F1A17;}
	.st5{fill:#4D4C4C;}
	.st6{fill:none;stroke:#000000;stroke-width:0.3;stroke-miterlimit:10;}
	.st7{fill:#E61413;}
	.st8{fill:#5F5357;}
	.st9{fill:#115C78;}
	.st10{fill-rule:evenodd;clip-rule:evenodd;fill:#4D4D4D;}
	.st11{fill-rule:evenodd;clip-rule:evenodd;}
	.st12{fill:#FFFFFF;}
	.st13{fill:none;}
	.st14{fill:#231F20;}
	.st15{clip-path:url(#SVGID_2_);}
	.st16{clip-path:url(#SVGID_4_);fill:#FCF118;}
	.st17{clip-path:url(#SVGID_4_);fill:#FCF018;}
	.st18{clip-path:url(#SVGID_4_);fill:#FCEF18;}
	.st19{clip-path:url(#SVGID_4_);fill:#FCEE18;}
	.st20{clip-path:url(#SVGID_4_);fill:#FCED18;}
	.st21{clip-path:url(#SVGID_4_);fill:#FCEC18;}
	.st22{clip-path:url(#SVGID_4_);fill:#FCEB18;}
	.st23{clip-path:url(#SVGID_4_);fill:#FCEA18;}
	.st24{clip-path:url(#SVGID_4_);fill:#FCE918;}
	.st25{clip-path:url(#SVGID_4_);fill:#FCE818;}
	.st26{clip-path:url(#SVGID_4_);fill:#FCE718;}
	.st27{clip-path:url(#SVGID_4_);fill:#FCE617;}
	.st28{clip-path:url(#SVGID_4_);fill:#FCE517;}
	.st29{clip-path:url(#SVGID_4_);fill:#FCE417;}
	.st30{clip-path:url(#SVGID_4_);fill:#FCE317;}
	.st31{clip-path:url(#SVGID_4_);fill:#FCE217;}
	.st32{clip-path:url(#SVGID_4_);fill:#FCE117;}
	.st33{clip-path:url(#SVGID_4_);fill:#FCE017;}
	.st34{clip-path:url(#SVGID_4_);fill:#FCDF17;}
	.st35{clip-path:url(#SVGID_4_);fill:#FCDE17;}
	.st36{clip-path:url(#SVGID_4_);fill:#FCDD17;}
	.st37{clip-path:url(#SVGID_4_);fill:#FCDC17;}
	.st38{clip-path:url(#SVGID_4_);fill:#FCDB17;}
	.st39{clip-path:url(#SVGID_4_);fill:#FCDA17;}
	.st40{clip-path:url(#SVGID_4_);fill:#FCD917;}
	.st41{clip-path:url(#SVGID_4_);fill:#FCD817;}
	.st42{clip-path:url(#SVGID_4_);fill:#FCD717;}
	.st43{clip-path:url(#SVGID_4_);fill:#FCD617;}
	.st44{clip-path:url(#SVGID_4_);fill:#FCD517;}
	.st45{clip-path:url(#SVGID_4_);fill:#FCD416;}
	.st46{clip-path:url(#SVGID_4_);fill:#FCD316;}
	.st47{clip-path:url(#SVGID_4_);fill:#FBD216;}
	.st48{clip-path:url(#SVGID_4_);fill:#FBD116;}
	.st49{clip-path:url(#SVGID_4_);fill:#FBD016;}
	.st50{clip-path:url(#SVGID_4_);fill:#FBCF16;}
	.st51{clip-path:url(#SVGID_4_);fill:#FBCE16;}
	.st52{clip-path:url(#SVGID_4_);fill:#FBCD16;}
	.st53{clip-path:url(#SVGID_4_);fill:#FBCC16;}
	.st54{clip-path:url(#SVGID_4_);fill:#FBCB16;}
	.st55{clip-path:url(#SVGID_4_);fill:#FBCA16;}
	.st56{clip-path:url(#SVGID_4_);fill:#FBC916;}
	.st57{clip-path:url(#SVGID_4_);fill:#FBC816;}
	.st58{clip-path:url(#SVGID_4_);fill:#FBC716;}
	.st59{clip-path:url(#SVGID_4_);fill:#FBC616;}
	.st60{clip-path:url(#SVGID_4_);fill:#FBC516;}
	.st61{clip-path:url(#SVGID_4_);fill:#FBC416;}
	.st62{clip-path:url(#SVGID_4_);fill:#FBC316;}
	.st63{clip-path:url(#SVGID_4_);fill:#FBC216;}
	.st64{clip-path:url(#SVGID_4_);fill:#FBC115;}
	.st65{clip-path:url(#SVGID_4_);fill:#FBC015;}
	.st66{clip-path:url(#SVGID_4_);fill:#FBBF15;}
	.st67{clip-path:url(#SVGID_4_);fill:#FBBE15;}
	.st68{clip-path:url(#SVGID_4_);fill:#FBBD15;}
	.st69{clip-path:url(#SVGID_4_);fill:#FBBC15;}
	.st70{clip-path:url(#SVGID_4_);fill:#FBBB15;}
	.st71{clip-path:url(#SVGID_4_);fill:#FBBA15;}
	.st72{clip-path:url(#SVGID_4_);fill:#FBB915;}
	.st73{clip-path:url(#SVGID_4_);fill:#FBB815;}
	.st74{clip-path:url(#SVGID_4_);fill:#FBB715;}
	.st75{clip-path:url(#SVGID_4_);fill:#FBB615;}
	.st76{clip-path:url(#SVGID_4_);fill:#FBB515;}
	.st77{clip-path:url(#SVGID_4_);fill:#FBB415;}
	.st78{clip-path:url(#SVGID_4_);fill:#FBB315;}
	.st79{clip-path:url(#SVGID_4_);fill:#FBB215;}
	.st80{clip-path:url(#SVGID_4_);fill:#FBB115;}
	.st81{clip-path:url(#SVGID_4_);fill:#FBB015;}
	.st82{clip-path:url(#SVGID_4_);fill:#FBAF15;}
	.st83{clip-path:url(#SVGID_4_);fill:#FAAE15;}
	.st84{clip-path:url(#SVGID_4_);fill:#FAAD14;}
	.st85{clip-path:url(#SVGID_4_);fill:#FAAC14;}
	.st86{clip-path:url(#SVGID_4_);fill:#FAAB14;}
	.st87{clip-path:url(#SVGID_4_);fill:#FAAA14;}
	.st88{clip-path:url(#SVGID_4_);fill:#FAA914;}
	.st89{clip-path:url(#SVGID_4_);fill:#FAA814;}
	.st90{clip-path:url(#SVGID_4_);fill:#FAA714;}
	.st91{clip-path:url(#SVGID_4_);fill:#FAA614;}
	.st92{clip-path:url(#SVGID_4_);fill:#FAA514;}
	.st93{clip-path:url(#SVGID_4_);fill:#FAA414;}
	.st94{clip-path:url(#SVGID_4_);fill:#FAA314;}
	.st95{clip-path:url(#SVGID_4_);fill:#FAA214;}
	.st96{clip-path:url(#SVGID_4_);fill:#FAA114;}
	.st97{clip-path:url(#SVGID_4_);fill:#FAA014;}
	.st98{clip-path:url(#SVGID_4_);fill:#FA9F14;}
	.st99{clip-path:url(#SVGID_4_);fill:#FA9E14;}
	.st100{clip-path:url(#SVGID_4_);fill:#FA9D14;}
	.st101{clip-path:url(#SVGID_4_);fill:#FA9C14;}
	.st102{clip-path:url(#SVGID_4_);fill:#FA9B14;}
	.st103{clip-path:url(#SVGID_4_);fill:#FA9A13;}
	.st104{clip-path:url(#SVGID_4_);fill:#FA9913;}
	.st105{clip-path:url(#SVGID_4_);fill:#FA9813;}
	.st106{clip-path:url(#SVGID_4_);fill:#FA9713;}
	.st107{clip-path:url(#SVGID_4_);fill:#FA9613;}
	.st108{clip-path:url(#SVGID_4_);fill:#FA9513;}
	.st109{clip-path:url(#SVGID_4_);fill:#FA9413;}
	.st110{clip-path:url(#SVGID_4_);fill:#FA9313;}
	.st111{clip-path:url(#SVGID_4_);fill:#FA9213;}
	.st112{clip-path:url(#SVGID_4_);fill:#FA9113;}
	.st113{clip-path:url(#SVGID_4_);fill:#FA9013;}
	.st114{clip-path:url(#SVGID_4_);fill:#FA8F13;}
	.st115{clip-path:url(#SVGID_4_);fill:#FA8E13;}
	.st116{clip-path:url(#SVGID_4_);fill:#FA8D13;}
	.st117{clip-path:url(#SVGID_4_);fill:#FA8C13;}
	.st118{clip-path:url(#SVGID_4_);fill:#FA8B13;}
	.st119{clip-path:url(#SVGID_4_);fill:#FA8A13;}
	.st120{clip-path:url(#SVGID_4_);fill:#FA8913;}
	.st121{clip-path:url(#SVGID_4_);fill:#FA8812;}
	.st122{clip-path:url(#SVGID_4_);fill:#FA8712;}
	.st123{clip-path:url(#SVGID_4_);fill:#FA8612;}
	.st124{clip-path:url(#SVGID_4_);fill:#F98512;}
	.st125{clip-path:url(#SVGID_4_);fill:#F98412;}
	.st126{clip-path:url(#SVGID_4_);fill:#F98312;}
	.st127{clip-path:url(#SVGID_4_);fill:#F98212;}
	.st128{clip-path:url(#SVGID_4_);fill:#F98112;}
	.st129{clip-path:url(#SVGID_4_);fill:#F98012;}
	.st130{clip-path:url(#SVGID_4_);fill:#F97F12;}
	.st131{clip-path:url(#SVGID_4_);fill:#F97E12;}
	.st132{clip-path:url(#SVGID_4_);fill:#F97D12;}
	.st133{clip-path:url(#SVGID_4_);fill:#F97C12;}
	.st134{clip-path:url(#SVGID_4_);fill:#F97B12;}
	.st135{clip-path:url(#SVGID_4_);fill:#F97A12;}
	.st136{clip-path:url(#SVGID_4_);fill:#F97912;}
	.st137{clip-path:url(#SVGID_4_);fill:#F97812;}
	.st138{clip-path:url(#SVGID_4_);fill:#F97712;}
	.st139{clip-path:url(#SVGID_4_);fill:#F97612;}
	.st140{clip-path:url(#SVGID_4_);fill:#F97511;}
	.st141{clip-path:url(#SVGID_4_);fill:#F97411;}
	.st142{clip-path:url(#SVGID_4_);fill:#F97311;}
	.st143{clip-path:url(#SVGID_4_);fill:#F97211;}
	.st144{clip-path:url(#SVGID_4_);fill:#F97111;}
	.st145{clip-path:url(#SVGID_4_);fill:#F97011;}
	.st146{clip-path:url(#SVGID_4_);fill:#F96F11;}
	.st147{clip-path:url(#SVGID_4_);fill:#F96E11;}
	.st148{clip-path:url(#SVGID_4_);fill:#F96D11;}
	.st149{clip-path:url(#SVGID_4_);fill:#F96C11;}
	.st150{clip-path:url(#SVGID_4_);fill:#F96B11;}
	.st151{clip-path:url(#SVGID_4_);fill:#F96A11;}
	.st152{clip-path:url(#SVGID_4_);fill:#F96911;}
	.st153{clip-path:url(#SVGID_4_);fill:#F96811;}
	.st154{clip-path:url(#SVGID_4_);fill:#F96711;}
	.st155{clip-path:url(#SVGID_4_);fill:#F96611;}
	.st156{clip-path:url(#SVGID_4_);fill:#F96511;}
	.st157{clip-path:url(#SVGID_4_);fill:#F96411;}
	.st158{clip-path:url(#SVGID_4_);fill:#F96311;}
	.st159{clip-path:url(#SVGID_4_);fill:#F96210;}
	.st160{clip-path:url(#SVGID_4_);fill:#F86110;}
	.st161{clip-path:url(#SVGID_4_);fill:#F86010;}
	.st162{clip-path:url(#SVGID_4_);fill:#F85F10;}
	.st163{clip-path:url(#SVGID_4_);fill:#F85E10;}
	.st164{clip-path:url(#SVGID_4_);fill:#F85D10;}
	.st165{clip-path:url(#SVGID_4_);fill:#F85C10;}
	.st166{clip-path:url(#SVGID_4_);fill:#F85B10;}
	.st167{clip-path:url(#SVGID_4_);fill:#F85A10;}
	.st168{clip-path:url(#SVGID_4_);fill:#F85910;}
	.st169{clip-path:url(#SVGID_4_);fill:#F85810;}
	.st170{clip-path:url(#SVGID_4_);fill:#F85710;}
	.st171{clip-path:url(#SVGID_4_);fill:#F85610;}
	.st172{clip-path:url(#SVGID_4_);fill:#F85510;}
	.st173{clip-path:url(#SVGID_4_);fill:#F85410;}
	.st174{clip-path:url(#SVGID_4_);fill:#F85310;}
	.st175{clip-path:url(#SVGID_4_);fill:#F85210;}
	.st176{clip-path:url(#SVGID_4_);fill:#F85110;}
	.st177{clip-path:url(#SVGID_4_);fill:#F85010;}
	.st178{clip-path:url(#SVGID_4_);fill:#F84F0F;}
	.st179{clip-path:url(#SVGID_4_);fill:#F84E0F;}
	.st180{clip-path:url(#SVGID_4_);fill:#F84D0F;}
	.st181{clip-path:url(#SVGID_4_);fill:#F84C0F;}
	.st182{clip-path:url(#SVGID_4_);fill:#F84B0F;}
	.st183{clip-path:url(#SVGID_4_);fill:#F84A0F;}
	.st184{clip-path:url(#SVGID_4_);fill:#F8490F;}
	.st185{clip-path:url(#SVGID_4_);fill:#F8480F;}
	.st186{clip-path:url(#SVGID_4_);fill:#F8470F;}
	.st187{clip-path:url(#SVGID_4_);fill:#F8460F;}
	.st188{clip-path:url(#SVGID_4_);fill:#F8450F;}
	.st189{clip-path:url(#SVGID_4_);fill:#F8440F;}
	.st190{clip-path:url(#SVGID_4_);fill:#F8430F;}
	.st191{clip-path:url(#SVGID_4_);fill:#F8420F;}
	.st192{clip-path:url(#SVGID_4_);fill:#F8410F;}
	.st193{clip-path:url(#SVGID_4_);fill:#F8400F;}
	.st194{clip-path:url(#SVGID_4_);fill:#F83F0F;}
	.st195{clip-path:url(#SVGID_4_);fill:#F83E0E;}
	.st196{clip-path:url(#SVGID_4_);fill:#F83D0E;}
	.st197{clip-path:url(#SVGID_4_);fill:#F83C0E;}
	.st198{clip-path:url(#SVGID_4_);fill:#F83B0E;}
	.st199{clip-path:url(#SVGID_4_);fill:#F73A0E;}
	.st200{clip-path:url(#SVGID_4_);fill:#F7390E;}
	.st201{clip-path:url(#SVGID_4_);fill:#F7380E;}
	.st202{clip-path:url(#SVGID_4_);fill:#F7370E;}
	.st203{clip-path:url(#SVGID_4_);fill:#F7360E;}
	.st204{clip-path:url(#SVGID_4_);fill:#F7340E;}
	.st205{clip-path:url(#SVGID_4_);fill:#F7330E;}
	.st206{clip-path:url(#SVGID_4_);fill:#F7320E;}
	.st207{clip-path:url(#SVGID_4_);fill:#F7310E;}
	.st208{clip-path:url(#SVGID_4_);fill:#F7300E;}
	.st209{clip-path:url(#SVGID_4_);fill:#F72F0E;}
	.st210{clip-path:url(#SVGID_4_);fill:#F72E0E;}
	.st211{clip-path:url(#SVGID_4_);fill:#F72D0E;}
	.st212{clip-path:url(#SVGID_4_);fill:#F72C0E;}
	.st213{clip-path:url(#SVGID_4_);fill:#F72B0E;}
	.st214{clip-path:url(#SVGID_4_);fill:#F72B0D;}
	.st215{clip-path:url(#SVGID_4_);fill:#F72A0D;}
	.st216{clip-path:url(#SVGID_4_);fill:#F7290D;}
	.st217{clip-path:url(#SVGID_4_);fill:#F7280D;}
	.st218{clip-path:url(#SVGID_4_);fill:#F7270D;}
	.st219{clip-path:url(#SVGID_4_);fill:#F7260D;}
</style>
<g>
	<path class="st0" d="M29.819,29.9h-7.432h-7.432H7.523H0.091v-7.432v-7.432V7.603V0.171h7.432h7.432h7.432h7.432v7.432v7.432v7.432
		V29.9z M0.341,29.65h7.307h7.307h7.307h7.307v-7.307v-7.307V7.728V0.421h-7.307h-7.307H7.648H0.341v7.307v7.307v7.307V29.65z"/>
</g>
<g>
	<path class="st1" d="M21.356,20.6l-0.935,0.002l-0.935,0.002l-0.935,0.002l-0.935,0.002c0,0-0.009-0.298-0.092-0.761
		c-0.083-0.463-0.241-1.092-0.539-1.754c-0.298-0.662-0.736-1.357-1.38-1.953s-1.494-1.092-2.615-1.357
		c-0.263-0.044-0.838-0.155-1.566-0.179c-0.729-0.025-1.611,0.037-2.489,0.337c-0.878,0.3-1.751,0.839-2.461,1.77
		c-0.71,0.93-1.257,2.252-1.483,4.118c-0.031-0.331-0.056-0.741-0.038-1.206s0.077-0.987,0.215-1.541
		c0.138-0.554,0.356-1.142,0.688-1.739c0.332-0.598,0.78-1.205,1.38-1.801c0.847-0.841,1.804-1.473,2.812-1.891
		s2.067-0.625,3.12-0.616s2.1,0.232,3.084,0.672c0.983,0.44,1.903,1.097,2.701,1.973c0.307,0.337,0.599,0.712,0.867,1.125
		c0.268,0.413,0.512,0.865,0.724,1.357c0.212,0.492,0.391,1.023,0.529,1.596S21.308,19.943,21.356,20.6"/>
</g>
<g>
	<g>
		<path class="st0" d="M25.399,19.941c-0.229,0-0.447-0.047-0.645-0.131s-0.377-0.206-0.527-0.356s-0.272-0.329-0.356-0.527
			s-0.131-0.416-0.131-0.645c0-0.229,0.047-0.447,0.131-0.645s0.206-0.377,0.356-0.528s0.329-0.272,0.527-0.356
			s0.416-0.131,0.645-0.131c0.229,0,0.447,0.047,0.645,0.131s0.377,0.206,0.528,0.356s0.272,0.329,0.356,0.528
			s0.131,0.417,0.131,0.645c0,0.229-0.047,0.447-0.131,0.645s-0.206,0.377-0.356,0.527s-0.329,0.272-0.528,0.356
			S25.628,19.941,25.399,19.941z M25.399,16.723c-0.215,0-0.42,0.044-0.606,0.123s-0.354,0.193-0.496,0.335
			s-0.255,0.309-0.335,0.496s-0.123,0.392-0.123,0.607c0,0.215,0.044,0.42,0.123,0.606s0.193,0.354,0.335,0.496
			s0.309,0.255,0.496,0.335s0.391,0.123,0.606,0.123c0.215,0,0.42-0.044,0.607-0.123s0.355-0.193,0.496-0.335
			s0.256-0.309,0.335-0.496s0.123-0.391,0.123-0.606c0-0.215-0.044-0.42-0.123-0.607s-0.193-0.355-0.335-0.496
			s-0.309-0.256-0.496-0.335S25.614,16.723,25.399,16.723z"/>
	</g>
	<g>
		<path class="st0" d="M25.462,16.673v-0.306v-0.306v-0.306V15.45h-0.031H25.4h-0.031h-0.031v0.306v0.306v0.306v0.306
			c0.005,0,0.011-0.001,0.016-0.001c0.005-0.001,0.01-0.001,0.015-0.002c0.005-0.001,0.01-0.001,0.016-0.002
			c0.005-0.001,0.01-0.001,0.016-0.001c0.005,0,0.01,0,0.015,0.001c0.005,0.001,0.01,0.001,0.015,0.002
			c0.005,0.001,0.01,0.001,0.015,0.002S25.457,16.673,25.462,16.673"/>
	</g>
	<g>
		<path class="st0" d="M25.437,21.115v-0.306v-0.306v-0.306v-0.306h-0.031h-0.031h-0.031h-0.031v0.306v0.306v0.306v0.306
			c0.005,0,0.011-0.001,0.016-0.001s0.01-0.001,0.015-0.002c0.005-0.001,0.01-0.001,0.016-0.002c0.005-0.001,0.01-0.001,0.016-0.001
			c0.005,0,0.01,0,0.015,0.001c0.005,0.001,0.01,0.001,0.015,0.002c0.005,0.001,0.01,0.001,0.015,0.002S25.432,21.115,25.437,21.115
			"/>
	</g>
	<g>
		<polyline class="st0" points="27.015,18.283 27.014,18.294 27.013,18.305 27.011,18.316 27.01,18.327 27.01,18.332 27.009,18.336 
			27.009,18.34 27.009,18.345 27.314,18.345 27.62,18.345 27.926,18.345 28.232,18.345 28.232,18.314 28.232,18.282 28.232,18.251 
			28.232,18.22 27.926,18.22 27.62,18.22 27.314,18.22 27.009,18.22 27.009,18.225 27.009,18.229 27.01,18.233 27.01,18.238 
			27.011,18.249 27.013,18.26 27.014,18.271 27.015,18.283 		"/>
	</g>
	<g>
		<polyline class="st0" points="22.573,18.22 22.573,18.232 22.571,18.243 22.57,18.254 22.569,18.265 22.568,18.269 22.568,18.274 
			22.567,18.278 22.567,18.282 22.873,18.282 23.179,18.282 23.484,18.282 23.79,18.282 23.79,18.251 23.79,18.22 23.79,18.189 
			23.79,18.158 23.484,18.158 23.179,18.158 22.873,18.158 22.567,18.158 22.567,18.163 22.568,18.167 22.568,18.171 22.569,18.176 
			22.57,18.187 22.571,18.198 22.573,18.209 22.573,18.22 		"/>
	</g>
	<g>
		<polyline class="st0" points="26.621,17.149 26.837,16.933 27.053,16.717 27.269,16.501 27.485,16.285 27.463,16.263 
			27.441,16.241 27.419,16.219 27.396,16.197 27.18,16.413 26.964,16.629 26.748,16.845 26.532,17.061 26.544,17.071 26.557,17.081 
			26.569,17.09 26.581,17.101 26.591,17.113 26.601,17.125 26.61,17.138 26.621,17.149 		"/>
	</g>
	<g>
		<polyline class="st0" points="23.402,20.368 23.618,20.152 23.834,19.936 24.05,19.72 24.267,19.504 24.244,19.482 24.222,19.46 
			24.2,19.438 24.178,19.416 23.962,19.632 23.746,19.848 23.53,20.064 23.314,20.28 23.326,20.29 23.338,20.3 23.351,20.309 
			23.362,20.32 23.373,20.331 23.382,20.344 23.392,20.356 23.402,20.368 		"/>
	</g>
	<g>
		<polyline class="st0" points="24.31,17.061 24.094,16.845 23.878,16.629 23.662,16.413 23.446,16.197 23.424,16.219 
			23.402,16.241 23.379,16.263 23.357,16.285 23.574,16.501 23.79,16.717 24.006,16.934 24.222,17.15 24.232,17.137 24.242,17.125 
			24.251,17.113 24.262,17.101 24.274,17.09 24.286,17.081 24.299,17.071 24.31,17.061 		"/>
	</g>
	<g>
		<polyline class="st0" points="27.485,20.28 27.269,20.064 27.053,19.848 26.837,19.631 26.621,19.415 26.599,19.437 
			26.576,19.459 26.554,19.482 26.532,19.504 26.748,19.72 26.964,19.936 27.181,20.152 27.397,20.368 27.407,20.356 27.416,20.344 
			27.426,20.331 27.437,20.32 27.449,20.309 27.461,20.299 27.473,20.29 27.485,20.28 		"/>
	</g>
</g>
</svg>
