<?xml version="1.0" encoding="utf-8"?>
<!-- Generator: Adobe Illustrator 19.1.0, SVG Export Plug-In . SVG Version: 6.00 Build 0)  -->
<svg version="1.1" id="Layer_1" xmlns="http://www.w3.org/2000/svg" xmlns:xlink="http://www.w3.org/1999/xlink" x="0px" y="0px"
	 viewBox="0 0 29.91 30.086" style="enable-background:new 0 0 29.91 30.086;" xml:space="preserve">
<style type="text/css">
	.st0{fill:#4D4D4D;}
	.st1{fill-rule:evenodd;clip-rule:evenodd;fill:#4C4C4C;}
	.st2{fill:#4C4C4C;}
	.st3{fill:#383330;}
	.st4{fill:#1F1A17;}
	.st5{fill:#4D4C4C;}
	.st6{fill:none;stroke:#000000;stroke-width:0.3;stroke-miterlimit:10;}
	.st7{fill:#E61413;}
	.st8{fill:#5F5357;}
	.st9{fill:#115C78;}
	.st10{fill-rule:evenodd;clip-rule:evenodd;fill:#4D4D4D;}
	.st11{fill-rule:evenodd;clip-rule:evenodd;}
	.st12{fill:#FFFFFF;}
	.st13{fill:none;}
	.st14{fill:#231F20;}
	.st15{clip-path:url(#SVGID_2_);}
	.st16{clip-path:url(#SVGID_4_);fill:#FCF118;}
	.st17{clip-path:url(#SVGID_4_);fill:#FCF018;}
	.st18{clip-path:url(#SVGID_4_);fill:#FCEF18;}
	.st19{clip-path:url(#SVGID_4_);fill:#FCEE18;}
	.st20{clip-path:url(#SVGID_4_);fill:#FCED18;}
	.st21{clip-path:url(#SVGID_4_);fill:#FCEC18;}
	.st22{clip-path:url(#SVGID_4_);fill:#FCEB18;}
	.st23{clip-path:url(#SVGID_4_);fill:#FCEA18;}
	.st24{clip-path:url(#SVGID_4_);fill:#FCE918;}
	.st25{clip-path:url(#SVGID_4_);fill:#FCE818;}
	.st26{clip-path:url(#SVGID_4_);fill:#FCE718;}
	.st27{clip-path:url(#SVGID_4_);fill:#FCE617;}
	.st28{clip-path:url(#SVGID_4_);fill:#FCE517;}
	.st29{clip-path:url(#SVGID_4_);fill:#FCE417;}
	.st30{clip-path:url(#SVGID_4_);fill:#FCE317;}
	.st31{clip-path:url(#SVGID_4_);fill:#FCE217;}
	.st32{clip-path:url(#SVGID_4_);fill:#FCE117;}
	.st33{clip-path:url(#SVGID_4_);fill:#FCE017;}
	.st34{clip-path:url(#SVGID_4_);fill:#FCDF17;}
	.st35{clip-path:url(#SVGID_4_);fill:#FCDE17;}
	.st36{clip-path:url(#SVGID_4_);fill:#FCDD17;}
	.st37{clip-path:url(#SVGID_4_);fill:#FCDC17;}
	.st38{clip-path:url(#SVGID_4_);fill:#FCDB17;}
	.st39{clip-path:url(#SVGID_4_);fill:#FCDA17;}
	.st40{clip-path:url(#SVGID_4_);fill:#FCD917;}
	.st41{clip-path:url(#SVGID_4_);fill:#FCD817;}
	.st42{clip-path:url(#SVGID_4_);fill:#FCD717;}
	.st43{clip-path:url(#SVGID_4_);fill:#FCD617;}
	.st44{clip-path:url(#SVGID_4_);fill:#FCD517;}
	.st45{clip-path:url(#SVGID_4_);fill:#FCD416;}
	.st46{clip-path:url(#SVGID_4_);fill:#FCD316;}
	.st47{clip-path:url(#SVGID_4_);fill:#FBD216;}
	.st48{clip-path:url(#SVGID_4_);fill:#FBD116;}
	.st49{clip-path:url(#SVGID_4_);fill:#FBD016;}
	.st50{clip-path:url(#SVGID_4_);fill:#FBCF16;}
	.st51{clip-path:url(#SVGID_4_);fill:#FBCE16;}
	.st52{clip-path:url(#SVGID_4_);fill:#FBCD16;}
	.st53{clip-path:url(#SVGID_4_);fill:#FBCC16;}
	.st54{clip-path:url(#SVGID_4_);fill:#FBCB16;}
	.st55{clip-path:url(#SVGID_4_);fill:#FBCA16;}
	.st56{clip-path:url(#SVGID_4_);fill:#FBC916;}
	.st57{clip-path:url(#SVGID_4_);fill:#FBC816;}
	.st58{clip-path:url(#SVGID_4_);fill:#FBC716;}
	.st59{clip-path:url(#SVGID_4_);fill:#FBC616;}
	.st60{clip-path:url(#SVGID_4_);fill:#FBC516;}
	.st61{clip-path:url(#SVGID_4_);fill:#FBC416;}
	.st62{clip-path:url(#SVGID_4_);fill:#FBC316;}
	.st63{clip-path:url(#SVGID_4_);fill:#FBC216;}
	.st64{clip-path:url(#SVGID_4_);fill:#FBC115;}
	.st65{clip-path:url(#SVGID_4_);fill:#FBC015;}
	.st66{clip-path:url(#SVGID_4_);fill:#FBBF15;}
	.st67{clip-path:url(#SVGID_4_);fill:#FBBE15;}
	.st68{clip-path:url(#SVGID_4_);fill:#FBBD15;}
	.st69{clip-path:url(#SVGID_4_);fill:#FBBC15;}
	.st70{clip-path:url(#SVGID_4_);fill:#FBBB15;}
	.st71{clip-path:url(#SVGID_4_);fill:#FBBA15;}
	.st72{clip-path:url(#SVGID_4_);fill:#FBB915;}
	.st73{clip-path:url(#SVGID_4_);fill:#FBB815;}
	.st74{clip-path:url(#SVGID_4_);fill:#FBB715;}
	.st75{clip-path:url(#SVGID_4_);fill:#FBB615;}
	.st76{clip-path:url(#SVGID_4_);fill:#FBB515;}
	.st77{clip-path:url(#SVGID_4_);fill:#FBB415;}
	.st78{clip-path:url(#SVGID_4_);fill:#FBB315;}
	.st79{clip-path:url(#SVGID_4_);fill:#FBB215;}
	.st80{clip-path:url(#SVGID_4_);fill:#FBB115;}
	.st81{clip-path:url(#SVGID_4_);fill:#FBB015;}
	.st82{clip-path:url(#SVGID_4_);fill:#FBAF15;}
	.st83{clip-path:url(#SVGID_4_);fill:#FAAE15;}
	.st84{clip-path:url(#SVGID_4_);fill:#FAAD14;}
	.st85{clip-path:url(#SVGID_4_);fill:#FAAC14;}
	.st86{clip-path:url(#SVGID_4_);fill:#FAAB14;}
	.st87{clip-path:url(#SVGID_4_);fill:#FAAA14;}
	.st88{clip-path:url(#SVGID_4_);fill:#FAA914;}
	.st89{clip-path:url(#SVGID_4_);fill:#FAA814;}
	.st90{clip-path:url(#SVGID_4_);fill:#FAA714;}
	.st91{clip-path:url(#SVGID_4_);fill:#FAA614;}
	.st92{clip-path:url(#SVGID_4_);fill:#FAA514;}
	.st93{clip-path:url(#SVGID_4_);fill:#FAA414;}
	.st94{clip-path:url(#SVGID_4_);fill:#FAA314;}
	.st95{clip-path:url(#SVGID_4_);fill:#FAA214;}
	.st96{clip-path:url(#SVGID_4_);fill:#FAA114;}
	.st97{clip-path:url(#SVGID_4_);fill:#FAA014;}
	.st98{clip-path:url(#SVGID_4_);fill:#FA9F14;}
	.st99{clip-path:url(#SVGID_4_);fill:#FA9E14;}
	.st100{clip-path:url(#SVGID_4_);fill:#FA9D14;}
	.st101{clip-path:url(#SVGID_4_);fill:#FA9C14;}
	.st102{clip-path:url(#SVGID_4_);fill:#FA9B14;}
	.st103{clip-path:url(#SVGID_4_);fill:#FA9A13;}
	.st104{clip-path:url(#SVGID_4_);fill:#FA9913;}
	.st105{clip-path:url(#SVGID_4_);fill:#FA9813;}
	.st106{clip-path:url(#SVGID_4_);fill:#FA9713;}
	.st107{clip-path:url(#SVGID_4_);fill:#FA9613;}
	.st108{clip-path:url(#SVGID_4_);fill:#FA9513;}
	.st109{clip-path:url(#SVGID_4_);fill:#FA9413;}
	.st110{clip-path:url(#SVGID_4_);fill:#FA9313;}
	.st111{clip-path:url(#SVGID_4_);fill:#FA9213;}
	.st112{clip-path:url(#SVGID_4_);fill:#FA9113;}
	.st113{clip-path:url(#SVGID_4_);fill:#FA9013;}
	.st114{clip-path:url(#SVGID_4_);fill:#FA8F13;}
	.st115{clip-path:url(#SVGID_4_);fill:#FA8E13;}
	.st116{clip-path:url(#SVGID_4_);fill:#FA8D13;}
	.st117{clip-path:url(#SVGID_4_);fill:#FA8C13;}
	.st118{clip-path:url(#SVGID_4_);fill:#FA8B13;}
	.st119{clip-path:url(#SVGID_4_);fill:#FA8A13;}
	.st120{clip-path:url(#SVGID_4_);fill:#FA8913;}
	.st121{clip-path:url(#SVGID_4_);fill:#FA8812;}
	.st122{clip-path:url(#SVGID_4_);fill:#FA8712;}
	.st123{clip-path:url(#SVGID_4_);fill:#FA8612;}
	.st124{clip-path:url(#SVGID_4_);fill:#F98512;}
	.st125{clip-path:url(#SVGID_4_);fill:#F98412;}
	.st126{clip-path:url(#SVGID_4_);fill:#F98312;}
	.st127{clip-path:url(#SVGID_4_);fill:#F98212;}
	.st128{clip-path:url(#SVGID_4_);fill:#F98112;}
	.st129{clip-path:url(#SVGID_4_);fill:#F98012;}
	.st130{clip-path:url(#SVGID_4_);fill:#F97F12;}
	.st131{clip-path:url(#SVGID_4_);fill:#F97E12;}
	.st132{clip-path:url(#SVGID_4_);fill:#F97D12;}
	.st133{clip-path:url(#SVGID_4_);fill:#F97C12;}
	.st134{clip-path:url(#SVGID_4_);fill:#F97B12;}
	.st135{clip-path:url(#SVGID_4_);fill:#F97A12;}
	.st136{clip-path:url(#SVGID_4_);fill:#F97912;}
	.st137{clip-path:url(#SVGID_4_);fill:#F97812;}
	.st138{clip-path:url(#SVGID_4_);fill:#F97712;}
	.st139{clip-path:url(#SVGID_4_);fill:#F97612;}
	.st140{clip-path:url(#SVGID_4_);fill:#F97511;}
	.st141{clip-path:url(#SVGID_4_);fill:#F97411;}
	.st142{clip-path:url(#SVGID_4_);fill:#F97311;}
	.st143{clip-path:url(#SVGID_4_);fill:#F97211;}
	.st144{clip-path:url(#SVGID_4_);fill:#F97111;}
	.st145{clip-path:url(#SVGID_4_);fill:#F97011;}
	.st146{clip-path:url(#SVGID_4_);fill:#F96F11;}
	.st147{clip-path:url(#SVGID_4_);fill:#F96E11;}
	.st148{clip-path:url(#SVGID_4_);fill:#F96D11;}
	.st149{clip-path:url(#SVGID_4_);fill:#F96C11;}
	.st150{clip-path:url(#SVGID_4_);fill:#F96B11;}
	.st151{clip-path:url(#SVGID_4_);fill:#F96A11;}
	.st152{clip-path:url(#SVGID_4_);fill:#F96911;}
	.st153{clip-path:url(#SVGID_4_);fill:#F96811;}
	.st154{clip-path:url(#SVGID_4_);fill:#F96711;}
	.st155{clip-path:url(#SVGID_4_);fill:#F96611;}
	.st156{clip-path:url(#SVGID_4_);fill:#F96511;}
	.st157{clip-path:url(#SVGID_4_);fill:#F96411;}
	.st158{clip-path:url(#SVGID_4_);fill:#F96311;}
	.st159{clip-path:url(#SVGID_4_);fill:#F96210;}
	.st160{clip-path:url(#SVGID_4_);fill:#F86110;}
	.st161{clip-path:url(#SVGID_4_);fill:#F86010;}
	.st162{clip-path:url(#SVGID_4_);fill:#F85F10;}
	.st163{clip-path:url(#SVGID_4_);fill:#F85E10;}
	.st164{clip-path:url(#SVGID_4_);fill:#F85D10;}
	.st165{clip-path:url(#SVGID_4_);fill:#F85C10;}
	.st166{clip-path:url(#SVGID_4_);fill:#F85B10;}
	.st167{clip-path:url(#SVGID_4_);fill:#F85A10;}
	.st168{clip-path:url(#SVGID_4_);fill:#F85910;}
	.st169{clip-path:url(#SVGID_4_);fill:#F85810;}
	.st170{clip-path:url(#SVGID_4_);fill:#F85710;}
	.st171{clip-path:url(#SVGID_4_);fill:#F85610;}
	.st172{clip-path:url(#SVGID_4_);fill:#F85510;}
	.st173{clip-path:url(#SVGID_4_);fill:#F85410;}
	.st174{clip-path:url(#SVGID_4_);fill:#F85310;}
	.st175{clip-path:url(#SVGID_4_);fill:#F85210;}
	.st176{clip-path:url(#SVGID_4_);fill:#F85110;}
	.st177{clip-path:url(#SVGID_4_);fill:#F85010;}
	.st178{clip-path:url(#SVGID_4_);fill:#F84F0F;}
	.st179{clip-path:url(#SVGID_4_);fill:#F84E0F;}
	.st180{clip-path:url(#SVGID_4_);fill:#F84D0F;}
	.st181{clip-path:url(#SVGID_4_);fill:#F84C0F;}
	.st182{clip-path:url(#SVGID_4_);fill:#F84B0F;}
	.st183{clip-path:url(#SVGID_4_);fill:#F84A0F;}
	.st184{clip-path:url(#SVGID_4_);fill:#F8490F;}
	.st185{clip-path:url(#SVGID_4_);fill:#F8480F;}
	.st186{clip-path:url(#SVGID_4_);fill:#F8470F;}
	.st187{clip-path:url(#SVGID_4_);fill:#F8460F;}
	.st188{clip-path:url(#SVGID_4_);fill:#F8450F;}
	.st189{clip-path:url(#SVGID_4_);fill:#F8440F;}
	.st190{clip-path:url(#SVGID_4_);fill:#F8430F;}
	.st191{clip-path:url(#SVGID_4_);fill:#F8420F;}
	.st192{clip-path:url(#SVGID_4_);fill:#F8410F;}
	.st193{clip-path:url(#SVGID_4_);fill:#F8400F;}
	.st194{clip-path:url(#SVGID_4_);fill:#F83F0F;}
	.st195{clip-path:url(#SVGID_4_);fill:#F83E0E;}
	.st196{clip-path:url(#SVGID_4_);fill:#F83D0E;}
	.st197{clip-path:url(#SVGID_4_);fill:#F83C0E;}
	.st198{clip-path:url(#SVGID_4_);fill:#F83B0E;}
	.st199{clip-path:url(#SVGID_4_);fill:#F73A0E;}
	.st200{clip-path:url(#SVGID_4_);fill:#F7390E;}
	.st201{clip-path:url(#SVGID_4_);fill:#F7380E;}
	.st202{clip-path:url(#SVGID_4_);fill:#F7370E;}
	.st203{clip-path:url(#SVGID_4_);fill:#F7360E;}
	.st204{clip-path:url(#SVGID_4_);fill:#F7340E;}
	.st205{clip-path:url(#SVGID_4_);fill:#F7330E;}
	.st206{clip-path:url(#SVGID_4_);fill:#F7320E;}
	.st207{clip-path:url(#SVGID_4_);fill:#F7310E;}
	.st208{clip-path:url(#SVGID_4_);fill:#F7300E;}
	.st209{clip-path:url(#SVGID_4_);fill:#F72F0E;}
	.st210{clip-path:url(#SVGID_4_);fill:#F72E0E;}
	.st211{clip-path:url(#SVGID_4_);fill:#F72D0E;}
	.st212{clip-path:url(#SVGID_4_);fill:#F72C0E;}
	.st213{clip-path:url(#SVGID_4_);fill:#F72B0E;}
	.st214{clip-path:url(#SVGID_4_);fill:#F72B0D;}
	.st215{clip-path:url(#SVGID_4_);fill:#F72A0D;}
	.st216{clip-path:url(#SVGID_4_);fill:#F7290D;}
	.st217{clip-path:url(#SVGID_4_);fill:#F7280D;}
	.st218{clip-path:url(#SVGID_4_);fill:#F7270D;}
	.st219{clip-path:url(#SVGID_4_);fill:#F7260D;}
</style>
<g>
	<g>
		<path class="st0" d="M21.511,14.896c0-0.998-0.203-1.95-0.57-2.816c-0.367-0.866-0.898-1.646-1.553-2.302
			c-0.656-0.656-1.436-1.186-2.302-1.553c-0.866-0.367-1.818-0.57-2.816-0.57s-1.95,0.203-2.816,0.57S9.807,9.122,9.151,9.778
			c-0.656,0.656-1.186,1.436-1.553,2.302c-0.367,0.866-0.57,1.818-0.57,2.816s0.203,1.95,0.57,2.816
			c0.367,0.866,0.898,1.646,1.553,2.302s1.436,1.186,2.302,1.553c0.866,0.367,1.818,0.57,2.816,0.57s1.95-0.203,2.816-0.57
			s1.646-0.898,2.302-1.553c0.656-0.656,1.186-1.436,1.553-2.302C21.308,16.846,21.511,15.894,21.511,14.896z M14.269,21.899
			c-0.965,0-1.886-0.196-2.724-0.551s-1.592-0.868-2.226-1.502c-0.634-0.634-1.147-1.389-1.502-2.226
			c-0.355-0.838-0.551-1.758-0.551-2.724s0.196-1.886,0.551-2.724s0.868-1.592,1.502-2.226c0.634-0.634,1.389-1.147,2.226-1.502
			s1.758-0.551,2.724-0.551s1.886,0.196,2.724,0.551c0.838,0.355,1.592,0.868,2.226,1.502c0.634,0.634,1.147,1.389,1.502,2.227
			c0.355,0.838,0.551,1.758,0.551,2.724s-0.196,1.886-0.551,2.723c-0.355,0.838-0.868,1.592-1.502,2.226s-1.389,1.147-2.226,1.502
			C16.155,21.703,15.235,21.899,14.269,21.899z"/>
	</g>
	<g>
		<path class="st0" d="M14.269,7.024c0.016,0,0.032-0.003,0.046-0.009S14.343,7,14.353,6.989c0.011-0.011,0.019-0.024,0.025-0.038
			c0.006-0.014,0.009-0.03,0.009-0.046v-0.92v-0.92v-0.92v-0.92c0-0.016-0.003-0.032-0.009-0.046
			c-0.006-0.014-0.015-0.027-0.025-0.038c-0.011-0.011-0.024-0.019-0.038-0.025s-0.03-0.009-0.046-0.009s-0.032,0.003-0.046,0.009
			s-0.027,0.015-0.038,0.025c-0.011,0.011-0.019,0.024-0.025,0.038c-0.006,0.014-0.009,0.03-0.009,0.046v0.92v0.92v0.92v0.92
			c0,0.016,0.003,0.032,0.009,0.046c0.006,0.014,0.015,0.027,0.025,0.038C14.196,7,14.209,7.008,14.223,7.014
			C14.237,7.02,14.253,7.024,14.269,7.024z"/>
	</g>
	<g>
		<path class="st0" d="M21.114,11.007c0.005,0.01,0.012,0.018,0.02,0.026c0.007,0.007,0.016,0.014,0.025,0.019
			s0.019,0.009,0.029,0.012c0.01,0.003,0.02,0.004,0.031,0.004c0.005,0,0.01,0,0.015-0.001c0.005-0.001,0.01-0.002,0.015-0.003
			c0.005-0.001,0.01-0.003,0.015-0.005s0.01-0.004,0.014-0.007l0.8-0.454l0.8-0.454l0.8-0.454l0.8-0.454
			c0.014-0.008,0.026-0.019,0.036-0.031c0.009-0.012,0.016-0.026,0.02-0.041c0.004-0.015,0.005-0.03,0.003-0.045
			c-0.002-0.015-0.007-0.031-0.015-0.045c-0.008-0.014-0.019-0.026-0.031-0.036c-0.012-0.009-0.026-0.016-0.041-0.02
			s-0.03-0.005-0.045-0.003s-0.031,0.007-0.045,0.015l-0.8,0.454l-0.8,0.454l-0.8,0.454l-0.8,0.454
			c-0.014,0.008-0.026,0.019-0.036,0.031c-0.009,0.012-0.016,0.026-0.02,0.041c-0.004,0.015-0.005,0.03-0.003,0.045
			C21.101,10.978,21.106,10.993,21.114,11.007z"/>
	</g>
	<g>
		<path class="st0" d="M25.94,14.898l-0.92-0.01l-0.92-0.01l-0.92-0.01l-0.92-0.01h0h0h0h0c-0.016,0-0.032,0.003-0.046,0.009
			c-0.014,0.006-0.027,0.015-0.038,0.025c-0.011,0.011-0.019,0.023-0.026,0.037s-0.01,0.03-0.01,0.046
			c0,0.016,0.003,0.032,0.009,0.046c0.006,0.014,0.014,0.027,0.025,0.038c0.011,0.011,0.023,0.02,0.038,0.026
			c0.014,0.006,0.03,0.01,0.046,0.01l0.92,0.01l0.92,0.01l0.92,0.01l0.92,0.01h0h0h0h0c0.016,0,0.032-0.003,0.046-0.009
			s0.027-0.015,0.038-0.025s0.019-0.023,0.026-0.037c0.006-0.014,0.01-0.03,0.01-0.046c0-0.016-0.003-0.032-0.009-0.046
			c-0.006-0.014-0.014-0.027-0.025-0.038c-0.011-0.011-0.023-0.02-0.038-0.026C25.972,14.902,25.956,14.898,25.94,14.898z"/>
	</g>
	<g>
		<path class="st0" d="M24.355,20.768l-0.79-0.471l-0.79-0.471l-0.79-0.471l-0.79-0.471c-0.014-0.008-0.029-0.014-0.044-0.016
			c-0.015-0.002-0.031-0.001-0.045,0.003c-0.015,0.004-0.029,0.01-0.041,0.019c-0.012,0.009-0.023,0.021-0.032,0.035
			c-0.008,0.014-0.014,0.029-0.016,0.045s-0.001,0.031,0.003,0.046s0.01,0.029,0.019,0.041c0.009,0.012,0.021,0.023,0.035,0.032
			l0.79,0.471l0.79,0.471l0.79,0.471l0.79,0.471c0.005,0.003,0.01,0.005,0.015,0.007c0.005,0.002,0.01,0.004,0.015,0.005
			c0.005,0.001,0.01,0.002,0.015,0.003c0.005,0.001,0.01,0.001,0.016,0.001c0.01,0,0.02-0.001,0.03-0.004s0.019-0.006,0.028-0.011
			c0.009-0.005,0.017-0.011,0.025-0.018c0.007-0.007,0.014-0.016,0.02-0.025c0.008-0.014,0.013-0.029,0.015-0.044
			c0.002-0.015,0.001-0.031-0.003-0.045s-0.01-0.029-0.019-0.041S24.369,20.776,24.355,20.768z"/>
	</g>
	<g>
		<path class="st0" d="M18.248,21.827c-0.008-0.014-0.018-0.026-0.031-0.036c-0.012-0.009-0.026-0.016-0.041-0.021
			c-0.015-0.004-0.03-0.006-0.046-0.004c-0.015,0.002-0.031,0.006-0.045,0.014c-0.014,0.008-0.026,0.018-0.036,0.031
			s-0.016,0.026-0.021,0.041c-0.004,0.015-0.006,0.03-0.004,0.045c0.002,0.015,0.006,0.031,0.014,0.045l0.446,0.804l0.446,0.804
			l0.446,0.804l0.446,0.804c0.005,0.01,0.012,0.018,0.02,0.026c0.008,0.008,0.016,0.014,0.025,0.019s0.019,0.009,0.029,0.012
			c0.01,0.003,0.02,0.004,0.031,0.004c0.005,0,0.01,0,0.015-0.001c0.005-0.001,0.01-0.002,0.015-0.003s0.01-0.003,0.014-0.005
			s0.009-0.004,0.014-0.007c0.014-0.008,0.026-0.018,0.036-0.031c0.01-0.012,0.016-0.026,0.021-0.041
			c0.004-0.015,0.006-0.03,0.004-0.045s-0.006-0.031-0.014-0.045l-0.446-0.804l-0.446-0.804l-0.446-0.804L18.248,21.827z"/>
	</g>
	<g>
		<path class="st0" d="M14.106,22.766c-0.017,0.001-0.032,0.005-0.047,0.011c-0.014,0.006-0.027,0.014-0.038,0.024
			c-0.011,0.01-0.02,0.022-0.026,0.036c-0.006,0.014-0.01,0.029-0.01,0.045l-0.019,0.919l-0.019,0.919l-0.019,0.919l-0.019,0.919
			c0,0.016,0.003,0.032,0.008,0.046c0.006,0.014,0.014,0.027,0.025,0.038c0.011,0.011,0.023,0.02,0.037,0.026
			c0.014,0.006,0.03,0.01,0.046,0.01c0,0,0,0,0,0c0,0,0,0,0.001,0c0,0,0.001,0,0.001,0c0,0,0.001,0,0.001,0
			c0.016,0,0.032-0.003,0.046-0.009c0.014-0.006,0.027-0.014,0.038-0.025c0.011-0.011,0.019-0.023,0.026-0.037
			c0.006-0.014,0.01-0.029,0.01-0.046l0.019-0.92l0.019-0.92l0.019-0.92l0.019-0.92c0-0.016-0.003-0.032-0.008-0.046
			c-0.006-0.014-0.014-0.027-0.025-0.038s-0.023-0.02-0.037-0.026C14.138,22.77,14.122,22.766,14.106,22.766z"/>
	</g>
	<g>
		<path class="st0" d="M10.169,21.616c-0.014-0.009-0.029-0.014-0.044-0.016c-0.015-0.002-0.031-0.002-0.046,0.002
			c-0.015,0.004-0.029,0.01-0.042,0.019c-0.013,0.009-0.024,0.021-0.032,0.035L9.527,22.44l-0.479,0.785l-0.479,0.785l-0.479,0.785
			c-0.009,0.014-0.014,0.029-0.016,0.044c-0.002,0.015-0.002,0.031,0.002,0.046c0.004,0.015,0.01,0.029,0.019,0.041
			c0.009,0.013,0.021,0.024,0.035,0.032c0.005,0.003,0.01,0.006,0.015,0.008s0.01,0.004,0.015,0.005
			c0.005,0.001,0.01,0.003,0.016,0.003s0.011,0.001,0.016,0.001c0.01,0,0.02-0.001,0.03-0.004c0.01-0.002,0.019-0.006,0.028-0.011
			c0.009-0.005,0.017-0.011,0.024-0.018c0.007-0.007,0.014-0.015,0.02-0.025l0.479-0.785l0.479-0.785l0.479-0.785l0.479-0.785
			c0.009-0.014,0.014-0.029,0.016-0.044c0.002-0.015,0.002-0.031-0.002-0.046c-0.004-0.015-0.01-0.029-0.019-0.041
			C10.195,21.635,10.183,21.624,10.169,21.616z"/>
	</g>
	<g>
		<path class="st0" d="M7.184,18.593l-0.809,0.438l-0.809,0.438l-0.809,0.438l-0.809,0.438c-0.014,0.008-0.027,0.018-0.036,0.03
			s-0.017,0.026-0.021,0.04c-0.004,0.015-0.006,0.03-0.004,0.045c0.001,0.015,0.006,0.031,0.014,0.045
			c0.005,0.01,0.012,0.019,0.02,0.027s0.016,0.014,0.025,0.02c0.009,0.005,0.019,0.009,0.029,0.012
			c0.01,0.003,0.021,0.004,0.031,0.004c0.005,0,0.01,0,0.014-0.001s0.01-0.001,0.014-0.003c0.005-0.001,0.009-0.003,0.014-0.004
			c0.005-0.002,0.009-0.004,0.014-0.006l0.809-0.438l0.809-0.438l0.809-0.438l0.809-0.438c0.014-0.008,0.027-0.018,0.036-0.03
			s0.017-0.026,0.021-0.04c0.004-0.015,0.006-0.03,0.004-0.045c-0.001-0.015-0.006-0.031-0.014-0.045
			c-0.008-0.014-0.018-0.027-0.03-0.036c-0.012-0.01-0.026-0.017-0.04-0.021c-0.015-0.004-0.03-0.006-0.045-0.004
			C7.214,18.581,7.199,18.586,7.184,18.593z"/>
	</g>
	<g>
		<path class="st0" d="M6.282,14.766c0.016,0,0.031-0.003,0.045-0.009c0.014-0.006,0.027-0.014,0.037-0.025
			c0.011-0.01,0.02-0.023,0.026-0.037c0.006-0.014,0.01-0.029,0.01-0.045c0.001-0.016-0.002-0.032-0.008-0.046
			c-0.006-0.014-0.014-0.027-0.024-0.039c-0.01-0.011-0.023-0.02-0.037-0.027c-0.014-0.006-0.03-0.01-0.046-0.011l-0.919-0.029
			L4.447,14.47l-0.919-0.029l-0.919-0.029c-0.017,0-0.033,0.003-0.047,0.009c-0.014,0.006-0.028,0.014-0.038,0.024
			s-0.02,0.023-0.026,0.037c-0.006,0.014-0.01,0.029-0.011,0.046c-0.001,0.016,0.002,0.032,0.008,0.046s0.014,0.027,0.024,0.039
			c0.01,0.011,0.023,0.02,0.037,0.027c0.014,0.006,0.03,0.01,0.046,0.011l0.919,0.029l0.919,0.029l0.919,0.029l0.919,0.029
			c0,0,0.001,0,0.001,0s0.001,0,0.001,0S6.281,14.766,6.282,14.766C6.282,14.766,6.282,14.766,6.282,14.766z"/>
	</g>
	<g>
		<path class="st0" d="M4.308,8.815l0.78,0.487l0.78,0.487l0.78,0.487l0.78,0.487c0.005,0.003,0.01,0.006,0.015,0.008
			c0.005,0.002,0.01,0.004,0.016,0.006c0.005,0.001,0.011,0.003,0.016,0.003c0.005,0.001,0.011,0.001,0.016,0.001
			c0.01,0,0.02-0.001,0.029-0.004c0.01-0.002,0.019-0.006,0.028-0.011s0.017-0.011,0.024-0.018c0.007-0.007,0.014-0.015,0.02-0.024
			c0.009-0.014,0.014-0.029,0.017-0.044c0.002-0.015,0.002-0.031-0.002-0.046s-0.01-0.029-0.019-0.042s-0.02-0.024-0.034-0.033
			l-0.78-0.487l-0.78-0.487L5.214,9.1l-0.78-0.487C4.42,8.605,4.405,8.599,4.39,8.597C4.375,8.594,4.359,8.595,4.345,8.598
			C4.33,8.602,4.316,8.608,4.303,8.617C4.29,8.626,4.279,8.637,4.27,8.651C4.262,8.665,4.256,8.68,4.254,8.695
			C4.251,8.711,4.252,8.726,4.255,8.741c0.003,0.015,0.01,0.029,0.019,0.042C4.283,8.795,4.294,8.806,4.308,8.815z"/>
	</g>
	<g>
		<path class="st0" d="M10.435,7.884c0.005,0.01,0.012,0.019,0.02,0.027c0.008,0.008,0.016,0.014,0.025,0.02
			c0.009,0.005,0.019,0.01,0.029,0.012c0.01,0.003,0.021,0.004,0.031,0.004c0.005,0,0.009,0,0.014-0.001
			c0.005-0.001,0.009-0.001,0.014-0.003c0.005-0.001,0.009-0.003,0.014-0.004c0.005-0.002,0.009-0.004,0.013-0.006
			c0.015-0.008,0.027-0.018,0.037-0.03c0.01-0.012,0.017-0.026,0.022-0.04c0.005-0.015,0.006-0.03,0.005-0.045
			c-0.001-0.015-0.006-0.031-0.013-0.045l-0.429-0.813L9.787,6.146L9.358,5.332L8.929,4.519c-0.008-0.015-0.018-0.027-0.03-0.037
			s-0.026-0.017-0.04-0.021s-0.03-0.006-0.045-0.005S8.783,4.461,8.768,4.469c-0.015,0.008-0.027,0.018-0.037,0.03
			c-0.01,0.012-0.017,0.026-0.022,0.04c-0.005,0.015-0.006,0.03-0.005,0.045C8.706,4.6,8.711,4.615,8.718,4.63l0.429,0.813
			l0.429,0.813l0.429,0.813L10.435,7.884z"/>
	</g>
	<g>
		<path class="st0" d="M15.324,4.631c0.723,0.073,1.429,0.223,2.109,0.442c0.68,0.219,1.333,0.508,1.95,0.861
			c0.617,0.353,1.198,0.77,1.732,1.245c0.534,0.475,1.023,1.008,1.455,1.594l-0.491-0.027L21.588,8.72l-0.491-0.027l-0.491-0.027
			c-0.015-0.001-0.031,0.001-0.045,0.006c-0.014,0.005-0.028,0.013-0.039,0.023S20.5,8.719,20.493,8.733
			c-0.007,0.014-0.011,0.03-0.012,0.046c-0.001,0.016,0.002,0.032,0.007,0.047s0.013,0.028,0.023,0.039
			c0.01,0.011,0.023,0.021,0.036,0.028c0.014,0.007,0.029,0.011,0.046,0.012l0.554,0.03l0.554,0.03l0.554,0.03l0.554,0.03
			c0.001,0,0.001,0,0.002,0c0.001,0,0.001,0,0.002,0c0.001,0,0.001,0,0.002,0s0.001,0,0.002,0c0.004,0,0.007,0,0.011-0.001
			c0.004,0,0.007-0.001,0.011-0.002c0.004-0.001,0.007-0.002,0.011-0.003c0.003-0.001,0.007-0.002,0.01-0.004
			c0.001,0,0.002-0.001,0.003-0.002s0.002-0.001,0.003-0.002c0.001-0.001,0.002-0.001,0.003-0.002s0.002-0.001,0.003-0.002
			c0.001,0,0.001-0.001,0.002-0.001c0.001,0,0.001-0.001,0.002-0.001c0.001,0,0.001-0.001,0.001-0.001c0,0,0.001-0.001,0.001-0.001
			c0,0,0.001,0,0.001-0.001s0.001,0,0.002,0c0.001,0,0.001,0,0.002,0c0.001,0,0.001,0,0.001-0.001c0,0,0.001-0.001,0.001-0.001
			c0,0,0.001-0.001,0.001-0.001C22.887,9,22.888,9,22.888,9c0,0,0.001-0.001,0.001-0.001c0.001,0,0.001-0.001,0.002-0.001
			c0.001,0,0.001-0.001,0.002-0.001c0.001,0,0.001-0.001,0.002-0.001c0.001,0,0.001-0.001,0.002-0.001
			c0.001-0.001,0.002-0.002,0.003-0.003c0.001-0.001,0.002-0.002,0.003-0.003c0.001-0.001,0.002-0.002,0.003-0.003
			c0.001-0.001,0.002-0.002,0.003-0.003c0,0,0.001-0.001,0.001-0.001c0,0,0-0.001,0.001-0.001c0,0,0-0.001,0.001-0.001
			c0,0,0-0.001,0.001-0.001c0.001-0.001,0.001-0.002,0.002-0.003s0.002-0.002,0.002-0.003s0.002-0.002,0.002-0.003
			c0.001-0.001,0.001-0.002,0.002-0.003c0-0.001,0.001-0.001,0.001-0.002s0.001-0.001,0.001-0.002s0.001-0.001,0.001-0.002
			c0-0.001,0.001-0.001,0.001-0.002c0.001-0.001,0.001-0.003,0.002-0.004s0.001-0.003,0.001-0.004c0-0.001,0.001-0.003,0.001-0.004
			c0-0.001,0.001-0.003,0.001-0.004c0,0,0-0.001,0-0.001c0,0,0-0.001,0-0.001c0,0,0-0.001,0-0.001c0,0,0-0.001,0-0.001
			c0-0.001,0.001-0.002,0.001-0.003s0.001-0.002,0.001-0.003c0-0.001,0.001-0.002,0.001-0.003c0-0.001,0.001-0.002,0.001-0.003
			c0,0,0,0,0,0c0,0,0,0,0,0s0,0,0-0.001c0,0,0,0,0,0l0.082-0.549l0.082-0.549l0.082-0.549l0.082-0.549
			c0.002-0.016,0.001-0.032-0.002-0.047c-0.004-0.015-0.011-0.029-0.02-0.041c-0.009-0.012-0.02-0.023-0.034-0.031
			c-0.013-0.008-0.028-0.014-0.044-0.016c-0.016-0.002-0.032-0.001-0.047,0.003s-0.029,0.011-0.041,0.02
			c-0.012,0.009-0.023,0.02-0.031,0.033c-0.008,0.013-0.014,0.028-0.016,0.044L22.955,7.17l-0.071,0.478l-0.071,0.478l-0.071,0.478
			c-0.442-0.595-0.942-1.137-1.487-1.62c-0.546-0.483-1.138-0.907-1.768-1.266c-0.629-0.359-1.295-0.653-1.988-0.875
			s-1.413-0.375-2.15-0.449c-0.017-0.001-0.032,0.001-0.047,0.006c-0.015,0.005-0.028,0.012-0.04,0.021s-0.022,0.021-0.029,0.034
			c-0.007,0.013-0.012,0.028-0.014,0.045c-0.002,0.016,0,0.032,0.005,0.047s0.012,0.028,0.021,0.04
			c0.01,0.012,0.021,0.022,0.035,0.029C15.293,4.625,15.308,4.63,15.324,4.631z"/>
	</g>
</g>
<g>
	<path class="st0" d="M29.819,29.908h-7.432h-7.432H7.523H0.091v-7.432v-7.432V7.611V0.179h7.432h7.432h7.432h7.432v7.432v7.432
		v7.432V29.908z M0.341,29.658h7.307h7.307h7.307h7.307V22.35v-7.307V7.736V0.429h-7.307h-7.307H7.648H0.341v7.307v7.307v7.307
		V29.658z"/>
</g>
</svg>
