<?xml version="1.0" encoding="utf-8"?>
<!-- Generator: Adobe Illustrator 19.1.0, SVG Export Plug-In . SVG Version: 6.00 Build 0)  -->
<svg version="1.1" id="Layer_1" xmlns="http://www.w3.org/2000/svg" xmlns:xlink="http://www.w3.org/1999/xlink" x="0px" y="0px"
	 viewBox="0 0 29.91 30.086" style="enable-background:new 0 0 29.91 30.086;" xml:space="preserve">
<style type="text/css">
	.st0{fill:#115C78;}
	.st1{fill-rule:evenodd;clip-rule:evenodd;fill:#4D4D4D;}
	.st2{fill:#4D4D4D;}
	.st3{fill-rule:evenodd;clip-rule:evenodd;}
	.st4{fill:#FFFFFF;}
	.st5{fill:none;}
	.st6{fill:none;stroke:#4D4D4D;stroke-width:0.3;stroke-miterlimit:10;}
	.st7{fill:#4D4D4D;stroke:#4D4D4D;stroke-width:0.1;stroke-miterlimit:10;}
	.st8{fill:#F0047F;}
	.st9{fill:none;stroke:#4D4D4D;stroke-width:0;stroke-linecap:round;stroke-linejoin:round;}
	.st10{fill:none;stroke:#4D4D4D;stroke-width:0.25;stroke-miterlimit:10;}
	.st11{fill:none;stroke:#4D4D4D;stroke-width:0.2;stroke-miterlimit:10;}
	.st12{fill:none;stroke:#4D4D4D;stroke-width:0.8;stroke-miterlimit:10;}
	.st13{fill:#4D4D4D;stroke:#4D4D4D;stroke-width:0.3;stroke-miterlimit:10;}
	.st14{fill:none;stroke:#4D4D4D;stroke-width:0.24;stroke-miterlimit:10;}
</style>
<g>
	<g>
		<path class="st2" d="M23.943,15.612l0-0.167l0-0.167l0-0.167l0-0.167c-0.055-1.149-0.339-2.244-0.807-3.242
			c-0.467-0.997-1.118-1.897-1.904-2.652c-0.786-0.756-1.708-1.368-2.719-1.791c-1.011-0.423-2.111-0.657-3.253-0.657
			c-1.142,0-2.242,0.234-3.253,0.658s-1.933,1.036-2.719,1.792c-0.786,0.757-1.436,1.657-1.904,2.656s-0.752,2.097-0.807,3.249
			l0,0.167l0,0.167l0,0.167l0,0.167c0.055,1.149,0.339,2.244,0.807,3.242c0.467,0.997,1.118,1.897,1.904,2.652
			s1.708,1.368,2.719,1.791s2.111,0.657,3.253,0.657c1.142,0,2.242-0.234,3.253-0.658c1.011-0.423,1.933-1.036,2.719-1.792
			c0.786-0.757,1.436-1.657,1.904-2.656C23.604,17.862,23.888,16.764,23.943,15.612z M15.26,23.731
			c-1.164,0-2.274-0.237-3.284-0.665c-1.01-0.428-1.92-1.047-2.685-1.812c-0.765-0.765-1.384-1.675-1.812-2.685
			s-0.665-2.12-0.665-3.284s0.237-2.274,0.665-3.284s1.047-1.92,1.812-2.685s1.675-1.384,2.685-1.812s2.12-0.665,3.284-0.665
			s2.274,0.237,3.284,0.665s1.92,1.047,2.685,1.812c0.765,0.765,1.384,1.675,1.812,2.685c0.428,1.01,0.665,2.12,0.665,3.284
			s-0.237,2.274-0.665,3.284c-0.428,1.01-1.047,1.92-1.812,2.685c-0.765,0.765-1.675,1.384-2.685,1.812
			C17.534,23.494,16.424,23.731,15.26,23.731z"/>
	</g>
	<g>
		<g>
			<polygon class="st2" points="15.207,6.793 15.162,6.793 15.117,6.793 15.072,6.793 15.072,11.087 15.072,15.381 15.072,19.674 
				15.072,23.968 15.117,23.968 15.162,23.968 15.207,23.968 15.252,23.968 15.252,19.674 15.252,15.381 15.252,11.087 
				15.252,6.793 			"/>
		</g>
	</g>
	<g>
		<g>
			<polygon class="st2" points="15.942,6.793 15.897,6.793 15.852,6.793 15.807,6.793 15.807,11.059 15.807,15.325 15.807,19.591 
				15.807,23.857 15.852,23.857 15.897,23.857 15.942,23.857 15.987,23.857 15.987,19.591 15.987,15.325 15.987,11.059 
				15.987,6.793 			"/>
		</g>
	</g>
	<g>
		<g>
			<polygon class="st2" points="16.732,6.793 16.687,6.793 16.643,6.793 16.598,6.793 16.598,11.028 16.598,15.262 16.598,19.497 
				16.598,23.731 16.643,23.731 16.687,23.731 16.732,23.731 16.777,23.731 16.777,19.497 16.777,15.262 16.777,11.028 
				16.777,6.793 			"/>
		</g>
	</g>
	<g>
		<g>
			<polygon class="st2" points="17.523,6.986 17.478,6.986 17.433,6.986 17.388,6.986 17.388,11.133 17.388,15.279 17.388,19.426 
				17.388,23.573 17.433,23.573 17.478,23.573 17.523,23.573 17.567,23.573 17.567,19.426 17.567,15.279 17.567,11.133 
				17.567,6.986 			"/>
		</g>
	</g>
	<g>
		<g>
			<polygon class="st2" points="18.339,7.275 18.294,7.275 18.25,7.275 18.205,7.275 18.205,11.287 18.205,15.3 18.205,19.312 
				18.205,23.324 18.25,23.324 18.294,23.324 18.339,23.324 18.384,23.324 18.384,19.312 18.384,15.3 18.384,11.287 18.384,7.275 
							"/>
		</g>
	</g>
	<g>
		<g>
			<polygon class="st2" points="19.129,7.628 19.085,7.628 19.04,7.628 18.995,7.628 18.995,11.472 18.995,15.315 18.995,19.158 
				18.995,23.001 19.04,23.001 19.085,23.001 19.129,23.001 19.174,23.001 19.174,19.158 19.174,15.315 19.174,11.472 19.174,7.628 
							"/>
		</g>
	</g>
	<g>
		<g>
			<polygon class="st2" points="19.946,8.121 19.901,8.121 19.856,8.121 19.812,8.121 19.812,11.718 19.812,15.315 19.812,18.912 
				19.812,22.509 19.856,22.509 19.901,22.509 19.946,22.509 19.991,22.509 19.991,18.912 19.991,15.315 19.991,11.718 
				19.991,8.121 			"/>
		</g>
	</g>
	<g>
		<g>
			<polygon class="st2" points="20.736,8.658 20.692,8.658 20.647,8.658 20.602,8.658 20.602,11.965 20.602,15.272 20.602,18.578 
				20.602,21.885 20.647,21.885 20.692,21.885 20.736,21.885 20.781,21.885 20.781,18.578 20.781,15.272 20.781,11.965 
				20.781,8.658 			"/>
		</g>
	</g>
	<g>
		<g>
			<polygon class="st2" points="21.527,9.433 21.482,9.433 21.437,9.433 21.392,9.433 21.392,12.361 21.392,15.289 21.392,18.217 
				21.392,21.144 21.437,21.144 21.482,21.144 21.527,21.144 21.572,21.144 21.572,18.217 21.572,15.289 21.572,12.361 
				21.572,9.433 			"/>
		</g>
	</g>
	<g>
		<g>
			<polygon class="st2" points="22.343,10.41 22.299,10.41 22.254,10.41 22.209,10.41 22.209,12.842 22.209,15.273 22.209,17.705 
				22.209,20.136 22.254,20.136 22.299,20.136 22.343,20.136 22.388,20.136 22.388,17.705 22.388,15.273 22.388,12.842 
				22.388,10.41 			"/>
		</g>
	</g>
	<g>
		<g>
			<polygon class="st2" points="23.155,11.827 23.11,11.827 23.066,11.827 23.021,11.827 23.021,13.554 23.021,15.282 
				23.021,17.009 23.021,18.736 23.066,18.736 23.11,18.736 23.155,18.736 23.2,18.736 23.2,17.009 23.2,15.282 23.2,13.554 
				23.2,11.827 			"/>
		</g>
	</g>
	<path class="st2" d="M15.117,5.475h-0.023h-0.023H15.05h-0.023c-0.015,0-0.029-0.003-0.042-0.008
		c-0.013-0.005-0.024-0.013-0.034-0.023c-0.01-0.01-0.018-0.021-0.023-0.034S14.92,5.383,14.92,5.368V4.595V3.822V3.049V2.276
		c0-0.015,0.003-0.029,0.008-0.042S14.942,2.21,14.952,2.2c0.01-0.01,0.021-0.018,0.034-0.023c0.013-0.005,0.027-0.008,0.042-0.008
		h0.023h0.023h0.023h0.023c0.015,0,0.029,0.003,0.042,0.008S15.183,2.19,15.193,2.2c0.01,0.01,0.018,0.021,0.023,0.034
		s0.008,0.027,0.008,0.042v0.773v0.773v0.773v0.773c0,0.015-0.003,0.029-0.008,0.042c-0.005,0.013-0.013,0.024-0.023,0.034
		c-0.01,0.01-0.021,0.018-0.034,0.023C15.146,5.472,15.132,5.475,15.117,5.475z"/>
	<path class="st2" d="M8.013,8.414L7.998,8.429L7.983,8.444L7.968,8.459L7.953,8.474c-0.01,0.01-0.021,0.017-0.033,0.022
		C7.908,8.501,7.895,8.503,7.882,8.503S7.856,8.501,7.844,8.496C7.832,8.491,7.821,8.484,7.811,8.474L7.262,7.925L6.713,7.376
		L6.164,6.827L5.615,6.278c-0.01-0.01-0.017-0.021-0.022-0.033C5.588,6.233,5.586,6.22,5.586,6.207s0.002-0.026,0.007-0.038
		c0.005-0.012,0.012-0.023,0.022-0.033L5.63,6.121l0.015-0.015L5.66,6.091l0.015-0.015c0.01-0.01,0.021-0.017,0.033-0.022
		C5.72,6.049,5.733,6.047,5.746,6.047c0.013,0,0.026,0.002,0.038,0.007c0.012,0.005,0.023,0.012,0.033,0.022l0.549,0.549
		l0.549,0.549l0.549,0.549l0.549,0.549c0.01,0.01,0.017,0.021,0.022,0.033C8.04,8.317,8.042,8.33,8.042,8.343
		c0,0.013-0.002,0.026-0.007,0.038C8.03,8.393,8.023,8.404,8.013,8.414z"/>
	<path class="st2" d="M22.804,8.474l-0.015-0.015l-0.015-0.015l-0.015-0.015l-0.015-0.015c-0.01-0.01-0.017-0.021-0.022-0.033
		c-0.005-0.012-0.007-0.025-0.007-0.038c0-0.013,0.002-0.026,0.007-0.038c0.005-0.012,0.012-0.023,0.022-0.033l0.549-0.549
		l0.549-0.549l0.549-0.549l0.549-0.549c0.01-0.01,0.021-0.017,0.033-0.022c0.012-0.005,0.025-0.007,0.038-0.007
		s0.026,0.002,0.038,0.007c0.012,0.005,0.023,0.012,0.033,0.022l0.015,0.015l0.015,0.015l0.015,0.015l0.015,0.015
		c0.01,0.01,0.017,0.021,0.022,0.033c0.005,0.012,0.007,0.025,0.007,0.038s-0.002,0.026-0.007,0.038
		c-0.005,0.012-0.012,0.023-0.022,0.033l-0.549,0.549l-0.549,0.549l-0.549,0.549l-0.549,0.549c-0.01,0.01-0.021,0.017-0.033,0.022
		s-0.025,0.007-0.038,0.007s-0.026-0.002-0.038-0.007C22.825,8.491,22.814,8.484,22.804,8.474z"/>
	<path class="st2" d="M7.951,22.123l0.016,0.016l0.016,0.016l0.016,0.016l0.016,0.016c0.01,0.01,0.018,0.023,0.023,0.035
		c0.005,0.013,0.008,0.027,0.008,0.04c0,0.014-0.003,0.027-0.008,0.04c-0.005,0.013-0.013,0.025-0.023,0.035l-0.547,0.547
		l-0.547,0.547l-0.547,0.547l-0.547,0.547c-0.01,0.01-0.023,0.018-0.035,0.023c-0.013,0.005-0.027,0.008-0.04,0.008
		s-0.027-0.003-0.04-0.008s-0.025-0.013-0.035-0.023l-0.016-0.016l-0.016-0.016l-0.016-0.016l-0.016-0.016
		c-0.01-0.01-0.018-0.023-0.023-0.035s-0.008-0.027-0.008-0.04c0-0.014,0.003-0.027,0.008-0.04c0.005-0.013,0.013-0.025,0.023-0.035
		l0.547-0.547l0.547-0.547l0.547-0.547L7.8,22.123c0.01-0.01,0.023-0.018,0.035-0.023s0.027-0.008,0.04-0.008
		s0.027,0.003,0.04,0.008S7.941,22.113,7.951,22.123z"/>
	<path class="st2" d="M14.992,24.836h0.021h0.021h0.021h0.021c0.014,0,0.027,0.003,0.039,0.008c0.012,0.005,0.023,0.012,0.032,0.022
		s0.017,0.02,0.022,0.032s0.008,0.025,0.008,0.039v0.776v0.776v0.776v0.776c0,0.014-0.003,0.027-0.008,0.039
		s-0.012,0.023-0.022,0.032c-0.009,0.009-0.02,0.017-0.032,0.022s-0.025,0.008-0.039,0.008h-0.021h-0.021h-0.021h-0.021
		c-0.014,0-0.027-0.003-0.039-0.008s-0.023-0.013-0.032-0.022c-0.009-0.009-0.017-0.02-0.022-0.032s-0.008-0.025-0.008-0.039v-0.776
		v-0.776v-0.776v-0.776c0-0.014,0.003-0.027,0.008-0.039s0.012-0.023,0.022-0.032s0.02-0.017,0.032-0.022
		S14.978,24.836,14.992,24.836z"/>
	<path class="st2" d="M5.624,15.226v0.021l0,0.021v0.021v0.021c0,0.014-0.003,0.027-0.008,0.039s-0.012,0.023-0.022,0.032
		c-0.009,0.009-0.02,0.017-0.032,0.022c-0.012,0.005-0.025,0.008-0.039,0.008H4.747H3.971l-0.776,0H2.418
		c-0.014,0-0.027-0.003-0.039-0.008s-0.023-0.012-0.032-0.022c-0.009-0.009-0.017-0.02-0.022-0.032s-0.008-0.025-0.008-0.039V15.29
		v-0.021v-0.021v-0.021c0-0.014,0.003-0.027,0.008-0.039s0.012-0.023,0.022-0.032c0.009-0.009,0.02-0.017,0.032-0.022
		c0.012-0.005,0.025-0.008,0.039-0.008h0.776h0.776h0.776h0.776c0.014,0,0.027,0.003,0.039,0.008
		c0.012,0.005,0.023,0.012,0.032,0.022s0.017,0.02,0.022,0.032S5.624,15.213,5.624,15.226z"/>
	<path class="st2" d="M21.987,22.291l0.016-0.016l0.016-0.016l0.016-0.016l0.016-0.016c0.01-0.01,0.023-0.018,0.035-0.023
		s0.027-0.008,0.04-0.008c0.014,0,0.027,0.003,0.04,0.008s0.025,0.013,0.035,0.023l0.547,0.547l0.547,0.547l0.547,0.547l0.547,0.547
		c0.01,0.01,0.018,0.023,0.023,0.035c0.005,0.013,0.008,0.027,0.008,0.04s-0.003,0.027-0.008,0.04s-0.013,0.025-0.023,0.035
		l-0.016,0.016l-0.016,0.016l-0.016,0.016l-0.016,0.016c-0.01,0.01-0.023,0.018-0.035,0.023c-0.013,0.005-0.027,0.008-0.04,0.008
		c-0.014,0-0.027-0.003-0.04-0.008c-0.013-0.005-0.025-0.013-0.035-0.023l-0.547-0.547l-0.547-0.547l-0.547-0.547l-0.547-0.547
		c-0.01-0.01-0.018-0.023-0.023-0.035s-0.008-0.027-0.008-0.04c0-0.014,0.003-0.027,0.008-0.04S21.977,22.302,21.987,22.291z"/>
	<path class="st2" d="M24.581,15.311V15.29v-0.021v-0.021v-0.021c0-0.014,0.003-0.027,0.008-0.039
		c0.005-0.012,0.012-0.023,0.022-0.032s0.02-0.017,0.032-0.022c0.012-0.005,0.025-0.008,0.039-0.008h0.776h0.776h0.776h0.776
		c0.014,0,0.027,0.003,0.039,0.008c0.012,0.005,0.023,0.012,0.032,0.022s0.017,0.02,0.022,0.032
		c0.005,0.012,0.008,0.025,0.008,0.039v0.021v0.021v0.021v0.021c0,0.014-0.003,0.027-0.008,0.039s-0.012,0.023-0.022,0.032
		s-0.02,0.017-0.032,0.022s-0.025,0.008-0.039,0.008h-0.776h-0.776l-0.776,0h-0.776c-0.014,0-0.027-0.003-0.039-0.008
		s-0.023-0.012-0.032-0.022s-0.017-0.02-0.022-0.032S24.581,15.325,24.581,15.311z"/>
</g>
<path class="st10" d="M0.358,0.491h7.37h7.37h7.37h7.37v7.276v7.276v7.276v7.276h-7.37h-7.37h-7.37h-7.37v-7.276v-7.276V7.767V0.491
	z"/>
</svg>
