<?xml version="1.0" encoding="utf-8"?>
<!-- Generator: Adobe Illustrator 19.1.0, SVG Export Plug-In . SVG Version: 6.00 Build 0)  -->
<svg version="1.1" id="Layer_1" xmlns="http://www.w3.org/2000/svg" xmlns:xlink="http://www.w3.org/1999/xlink" x="0px" y="0px"
	 viewBox="0 0 29.91 30.086" style="enable-background:new 0 0 29.91 30.086;" xml:space="preserve">
<style type="text/css">
	.st0{fill:#4D4D4D;}
	.st1{fill-rule:evenodd;clip-rule:evenodd;fill:#4C4C4C;}
	.st2{fill:#4C4C4C;}
	.st3{fill:#383330;}
	.st4{fill:#1F1A17;}
	.st5{fill:#4D4C4C;}
	.st6{fill:none;stroke:#000000;stroke-width:0.3;stroke-miterlimit:10;}
	.st7{fill:#E61413;}
	.st8{fill:#5F5357;}
	.st9{fill:#115C78;}
	.st10{fill-rule:evenodd;clip-rule:evenodd;fill:#4D4D4D;}
	.st11{fill-rule:evenodd;clip-rule:evenodd;}
	.st12{fill:#FFFFFF;}
	.st13{fill:none;}
	.st14{fill:#231F20;}
	.st15{clip-path:url(#SVGID_2_);}
	.st16{clip-path:url(#SVGID_4_);fill:#FCF118;}
	.st17{clip-path:url(#SVGID_4_);fill:#FCF018;}
	.st18{clip-path:url(#SVGID_4_);fill:#FCEF18;}
	.st19{clip-path:url(#SVGID_4_);fill:#FCEE18;}
	.st20{clip-path:url(#SVGID_4_);fill:#FCED18;}
	.st21{clip-path:url(#SVGID_4_);fill:#FCEC18;}
	.st22{clip-path:url(#SVGID_4_);fill:#FCEB18;}
	.st23{clip-path:url(#SVGID_4_);fill:#FCEA18;}
	.st24{clip-path:url(#SVGID_4_);fill:#FCE918;}
	.st25{clip-path:url(#SVGID_4_);fill:#FCE818;}
	.st26{clip-path:url(#SVGID_4_);fill:#FCE718;}
	.st27{clip-path:url(#SVGID_4_);fill:#FCE617;}
	.st28{clip-path:url(#SVGID_4_);fill:#FCE517;}
	.st29{clip-path:url(#SVGID_4_);fill:#FCE417;}
	.st30{clip-path:url(#SVGID_4_);fill:#FCE317;}
	.st31{clip-path:url(#SVGID_4_);fill:#FCE217;}
	.st32{clip-path:url(#SVGID_4_);fill:#FCE117;}
	.st33{clip-path:url(#SVGID_4_);fill:#FCE017;}
	.st34{clip-path:url(#SVGID_4_);fill:#FCDF17;}
	.st35{clip-path:url(#SVGID_4_);fill:#FCDE17;}
	.st36{clip-path:url(#SVGID_4_);fill:#FCDD17;}
	.st37{clip-path:url(#SVGID_4_);fill:#FCDC17;}
	.st38{clip-path:url(#SVGID_4_);fill:#FCDB17;}
	.st39{clip-path:url(#SVGID_4_);fill:#FCDA17;}
	.st40{clip-path:url(#SVGID_4_);fill:#FCD917;}
	.st41{clip-path:url(#SVGID_4_);fill:#FCD817;}
	.st42{clip-path:url(#SVGID_4_);fill:#FCD717;}
	.st43{clip-path:url(#SVGID_4_);fill:#FCD617;}
	.st44{clip-path:url(#SVGID_4_);fill:#FCD517;}
	.st45{clip-path:url(#SVGID_4_);fill:#FCD416;}
	.st46{clip-path:url(#SVGID_4_);fill:#FCD316;}
	.st47{clip-path:url(#SVGID_4_);fill:#FBD216;}
	.st48{clip-path:url(#SVGID_4_);fill:#FBD116;}
	.st49{clip-path:url(#SVGID_4_);fill:#FBD016;}
	.st50{clip-path:url(#SVGID_4_);fill:#FBCF16;}
	.st51{clip-path:url(#SVGID_4_);fill:#FBCE16;}
	.st52{clip-path:url(#SVGID_4_);fill:#FBCD16;}
	.st53{clip-path:url(#SVGID_4_);fill:#FBCC16;}
	.st54{clip-path:url(#SVGID_4_);fill:#FBCB16;}
	.st55{clip-path:url(#SVGID_4_);fill:#FBCA16;}
	.st56{clip-path:url(#SVGID_4_);fill:#FBC916;}
	.st57{clip-path:url(#SVGID_4_);fill:#FBC816;}
	.st58{clip-path:url(#SVGID_4_);fill:#FBC716;}
	.st59{clip-path:url(#SVGID_4_);fill:#FBC616;}
	.st60{clip-path:url(#SVGID_4_);fill:#FBC516;}
	.st61{clip-path:url(#SVGID_4_);fill:#FBC416;}
	.st62{clip-path:url(#SVGID_4_);fill:#FBC316;}
	.st63{clip-path:url(#SVGID_4_);fill:#FBC216;}
	.st64{clip-path:url(#SVGID_4_);fill:#FBC115;}
	.st65{clip-path:url(#SVGID_4_);fill:#FBC015;}
	.st66{clip-path:url(#SVGID_4_);fill:#FBBF15;}
	.st67{clip-path:url(#SVGID_4_);fill:#FBBE15;}
	.st68{clip-path:url(#SVGID_4_);fill:#FBBD15;}
	.st69{clip-path:url(#SVGID_4_);fill:#FBBC15;}
	.st70{clip-path:url(#SVGID_4_);fill:#FBBB15;}
	.st71{clip-path:url(#SVGID_4_);fill:#FBBA15;}
	.st72{clip-path:url(#SVGID_4_);fill:#FBB915;}
	.st73{clip-path:url(#SVGID_4_);fill:#FBB815;}
	.st74{clip-path:url(#SVGID_4_);fill:#FBB715;}
	.st75{clip-path:url(#SVGID_4_);fill:#FBB615;}
	.st76{clip-path:url(#SVGID_4_);fill:#FBB515;}
	.st77{clip-path:url(#SVGID_4_);fill:#FBB415;}
	.st78{clip-path:url(#SVGID_4_);fill:#FBB315;}
	.st79{clip-path:url(#SVGID_4_);fill:#FBB215;}
	.st80{clip-path:url(#SVGID_4_);fill:#FBB115;}
	.st81{clip-path:url(#SVGID_4_);fill:#FBB015;}
	.st82{clip-path:url(#SVGID_4_);fill:#FBAF15;}
	.st83{clip-path:url(#SVGID_4_);fill:#FAAE15;}
	.st84{clip-path:url(#SVGID_4_);fill:#FAAD14;}
	.st85{clip-path:url(#SVGID_4_);fill:#FAAC14;}
	.st86{clip-path:url(#SVGID_4_);fill:#FAAB14;}
	.st87{clip-path:url(#SVGID_4_);fill:#FAAA14;}
	.st88{clip-path:url(#SVGID_4_);fill:#FAA914;}
	.st89{clip-path:url(#SVGID_4_);fill:#FAA814;}
	.st90{clip-path:url(#SVGID_4_);fill:#FAA714;}
	.st91{clip-path:url(#SVGID_4_);fill:#FAA614;}
	.st92{clip-path:url(#SVGID_4_);fill:#FAA514;}
	.st93{clip-path:url(#SVGID_4_);fill:#FAA414;}
	.st94{clip-path:url(#SVGID_4_);fill:#FAA314;}
	.st95{clip-path:url(#SVGID_4_);fill:#FAA214;}
	.st96{clip-path:url(#SVGID_4_);fill:#FAA114;}
	.st97{clip-path:url(#SVGID_4_);fill:#FAA014;}
	.st98{clip-path:url(#SVGID_4_);fill:#FA9F14;}
	.st99{clip-path:url(#SVGID_4_);fill:#FA9E14;}
	.st100{clip-path:url(#SVGID_4_);fill:#FA9D14;}
	.st101{clip-path:url(#SVGID_4_);fill:#FA9C14;}
	.st102{clip-path:url(#SVGID_4_);fill:#FA9B14;}
	.st103{clip-path:url(#SVGID_4_);fill:#FA9A13;}
	.st104{clip-path:url(#SVGID_4_);fill:#FA9913;}
	.st105{clip-path:url(#SVGID_4_);fill:#FA9813;}
	.st106{clip-path:url(#SVGID_4_);fill:#FA9713;}
	.st107{clip-path:url(#SVGID_4_);fill:#FA9613;}
	.st108{clip-path:url(#SVGID_4_);fill:#FA9513;}
	.st109{clip-path:url(#SVGID_4_);fill:#FA9413;}
	.st110{clip-path:url(#SVGID_4_);fill:#FA9313;}
	.st111{clip-path:url(#SVGID_4_);fill:#FA9213;}
	.st112{clip-path:url(#SVGID_4_);fill:#FA9113;}
	.st113{clip-path:url(#SVGID_4_);fill:#FA9013;}
	.st114{clip-path:url(#SVGID_4_);fill:#FA8F13;}
	.st115{clip-path:url(#SVGID_4_);fill:#FA8E13;}
	.st116{clip-path:url(#SVGID_4_);fill:#FA8D13;}
	.st117{clip-path:url(#SVGID_4_);fill:#FA8C13;}
	.st118{clip-path:url(#SVGID_4_);fill:#FA8B13;}
	.st119{clip-path:url(#SVGID_4_);fill:#FA8A13;}
	.st120{clip-path:url(#SVGID_4_);fill:#FA8913;}
	.st121{clip-path:url(#SVGID_4_);fill:#FA8812;}
	.st122{clip-path:url(#SVGID_4_);fill:#FA8712;}
	.st123{clip-path:url(#SVGID_4_);fill:#FA8612;}
	.st124{clip-path:url(#SVGID_4_);fill:#F98512;}
	.st125{clip-path:url(#SVGID_4_);fill:#F98412;}
	.st126{clip-path:url(#SVGID_4_);fill:#F98312;}
	.st127{clip-path:url(#SVGID_4_);fill:#F98212;}
	.st128{clip-path:url(#SVGID_4_);fill:#F98112;}
	.st129{clip-path:url(#SVGID_4_);fill:#F98012;}
	.st130{clip-path:url(#SVGID_4_);fill:#F97F12;}
	.st131{clip-path:url(#SVGID_4_);fill:#F97E12;}
	.st132{clip-path:url(#SVGID_4_);fill:#F97D12;}
	.st133{clip-path:url(#SVGID_4_);fill:#F97C12;}
	.st134{clip-path:url(#SVGID_4_);fill:#F97B12;}
	.st135{clip-path:url(#SVGID_4_);fill:#F97A12;}
	.st136{clip-path:url(#SVGID_4_);fill:#F97912;}
	.st137{clip-path:url(#SVGID_4_);fill:#F97812;}
	.st138{clip-path:url(#SVGID_4_);fill:#F97712;}
	.st139{clip-path:url(#SVGID_4_);fill:#F97612;}
	.st140{clip-path:url(#SVGID_4_);fill:#F97511;}
	.st141{clip-path:url(#SVGID_4_);fill:#F97411;}
	.st142{clip-path:url(#SVGID_4_);fill:#F97311;}
	.st143{clip-path:url(#SVGID_4_);fill:#F97211;}
	.st144{clip-path:url(#SVGID_4_);fill:#F97111;}
	.st145{clip-path:url(#SVGID_4_);fill:#F97011;}
	.st146{clip-path:url(#SVGID_4_);fill:#F96F11;}
	.st147{clip-path:url(#SVGID_4_);fill:#F96E11;}
	.st148{clip-path:url(#SVGID_4_);fill:#F96D11;}
	.st149{clip-path:url(#SVGID_4_);fill:#F96C11;}
	.st150{clip-path:url(#SVGID_4_);fill:#F96B11;}
	.st151{clip-path:url(#SVGID_4_);fill:#F96A11;}
	.st152{clip-path:url(#SVGID_4_);fill:#F96911;}
	.st153{clip-path:url(#SVGID_4_);fill:#F96811;}
	.st154{clip-path:url(#SVGID_4_);fill:#F96711;}
	.st155{clip-path:url(#SVGID_4_);fill:#F96611;}
	.st156{clip-path:url(#SVGID_4_);fill:#F96511;}
	.st157{clip-path:url(#SVGID_4_);fill:#F96411;}
	.st158{clip-path:url(#SVGID_4_);fill:#F96311;}
	.st159{clip-path:url(#SVGID_4_);fill:#F96210;}
	.st160{clip-path:url(#SVGID_4_);fill:#F86110;}
	.st161{clip-path:url(#SVGID_4_);fill:#F86010;}
	.st162{clip-path:url(#SVGID_4_);fill:#F85F10;}
	.st163{clip-path:url(#SVGID_4_);fill:#F85E10;}
	.st164{clip-path:url(#SVGID_4_);fill:#F85D10;}
	.st165{clip-path:url(#SVGID_4_);fill:#F85C10;}
	.st166{clip-path:url(#SVGID_4_);fill:#F85B10;}
	.st167{clip-path:url(#SVGID_4_);fill:#F85A10;}
	.st168{clip-path:url(#SVGID_4_);fill:#F85910;}
	.st169{clip-path:url(#SVGID_4_);fill:#F85810;}
	.st170{clip-path:url(#SVGID_4_);fill:#F85710;}
	.st171{clip-path:url(#SVGID_4_);fill:#F85610;}
	.st172{clip-path:url(#SVGID_4_);fill:#F85510;}
	.st173{clip-path:url(#SVGID_4_);fill:#F85410;}
	.st174{clip-path:url(#SVGID_4_);fill:#F85310;}
	.st175{clip-path:url(#SVGID_4_);fill:#F85210;}
	.st176{clip-path:url(#SVGID_4_);fill:#F85110;}
	.st177{clip-path:url(#SVGID_4_);fill:#F85010;}
	.st178{clip-path:url(#SVGID_4_);fill:#F84F0F;}
	.st179{clip-path:url(#SVGID_4_);fill:#F84E0F;}
	.st180{clip-path:url(#SVGID_4_);fill:#F84D0F;}
	.st181{clip-path:url(#SVGID_4_);fill:#F84C0F;}
	.st182{clip-path:url(#SVGID_4_);fill:#F84B0F;}
	.st183{clip-path:url(#SVGID_4_);fill:#F84A0F;}
	.st184{clip-path:url(#SVGID_4_);fill:#F8490F;}
	.st185{clip-path:url(#SVGID_4_);fill:#F8480F;}
	.st186{clip-path:url(#SVGID_4_);fill:#F8470F;}
	.st187{clip-path:url(#SVGID_4_);fill:#F8460F;}
	.st188{clip-path:url(#SVGID_4_);fill:#F8450F;}
	.st189{clip-path:url(#SVGID_4_);fill:#F8440F;}
	.st190{clip-path:url(#SVGID_4_);fill:#F8430F;}
	.st191{clip-path:url(#SVGID_4_);fill:#F8420F;}
	.st192{clip-path:url(#SVGID_4_);fill:#F8410F;}
	.st193{clip-path:url(#SVGID_4_);fill:#F8400F;}
	.st194{clip-path:url(#SVGID_4_);fill:#F83F0F;}
	.st195{clip-path:url(#SVGID_4_);fill:#F83E0E;}
	.st196{clip-path:url(#SVGID_4_);fill:#F83D0E;}
	.st197{clip-path:url(#SVGID_4_);fill:#F83C0E;}
	.st198{clip-path:url(#SVGID_4_);fill:#F83B0E;}
	.st199{clip-path:url(#SVGID_4_);fill:#F73A0E;}
	.st200{clip-path:url(#SVGID_4_);fill:#F7390E;}
	.st201{clip-path:url(#SVGID_4_);fill:#F7380E;}
	.st202{clip-path:url(#SVGID_4_);fill:#F7370E;}
	.st203{clip-path:url(#SVGID_4_);fill:#F7360E;}
	.st204{clip-path:url(#SVGID_4_);fill:#F7340E;}
	.st205{clip-path:url(#SVGID_4_);fill:#F7330E;}
	.st206{clip-path:url(#SVGID_4_);fill:#F7320E;}
	.st207{clip-path:url(#SVGID_4_);fill:#F7310E;}
	.st208{clip-path:url(#SVGID_4_);fill:#F7300E;}
	.st209{clip-path:url(#SVGID_4_);fill:#F72F0E;}
	.st210{clip-path:url(#SVGID_4_);fill:#F72E0E;}
	.st211{clip-path:url(#SVGID_4_);fill:#F72D0E;}
	.st212{clip-path:url(#SVGID_4_);fill:#F72C0E;}
	.st213{clip-path:url(#SVGID_4_);fill:#F72B0E;}
	.st214{clip-path:url(#SVGID_4_);fill:#F72B0D;}
	.st215{clip-path:url(#SVGID_4_);fill:#F72A0D;}
	.st216{clip-path:url(#SVGID_4_);fill:#F7290D;}
	.st217{clip-path:url(#SVGID_4_);fill:#F7280D;}
	.st218{clip-path:url(#SVGID_4_);fill:#F7270D;}
	.st219{clip-path:url(#SVGID_4_);fill:#F7260D;}
</style>
<g>
	<g>
		<path class="st0" d="M5.125,10.034c0.019,0.005,0.038,0.01,0.057,0.015s0.037,0.01,0.056,0.015s0.037,0.011,0.055,0.018
			s0.036,0.014,0.053,0.023c0.121-0.369,0.298-0.709,0.52-1.012s0.489-0.569,0.789-0.789s0.634-0.393,0.99-0.512
			S8.38,7.609,8.77,7.609c0.498,0,0.972,0.101,1.404,0.284c0.432,0.183,0.821,0.448,1.148,0.775s0.592,0.716,0.775,1.148
			s0.284,0.906,0.284,1.404v0.559v0.559v0.559v0.559c0,0.015,0.003,0.029,0.008,0.042s0.013,0.024,0.022,0.034
			s0.02,0.017,0.033,0.023s0.026,0.01,0.041,0.011h0.005h0.005h0.005h0.005c0.007-0.001,0.013-0.002,0.02-0.003
			s0.013-0.003,0.019-0.005s0.012-0.005,0.017-0.008s0.01-0.007,0.015-0.012c0.003-0.004,0.007-0.008,0.01-0.013
			s0.007-0.01,0.009-0.017s0.005-0.013,0.007-0.021s0.002-0.016,0.002-0.026l0-0.561l0-0.561l0-0.561l0-0.561
			c0-0.458-0.081-0.897-0.229-1.305s-0.363-0.782-0.632-1.112s-0.592-0.614-0.955-0.84c-0.363-0.226-0.766-0.393-1.196-0.488
			C9.574,7.472,9.556,7.475,9.538,7.479S9.503,7.487,9.485,7.491S9.45,7.498,9.432,7.501S9.396,7.505,9.378,7.505
			c-0.026,0-0.052,0-0.078-0.001S9.248,7.502,9.222,7.501S9.17,7.497,9.144,7.494s-0.052-0.006-0.078-0.01
			C9.037,7.48,9.008,7.473,8.98,7.465S8.924,7.448,8.897,7.438s-0.055-0.02-0.082-0.031s-0.055-0.02-0.083-0.029
			c-0.07,0.001-0.14,0.004-0.209,0.009S8.385,7.4,8.317,7.409s-0.136,0.02-0.204,0.033S7.979,7.469,7.912,7.485
			C7.901,7.495,7.891,7.507,7.881,7.519S7.862,7.543,7.852,7.555s-0.019,0.024-0.03,0.035S7.8,7.612,7.787,7.622
			C7.725,7.669,7.66,7.711,7.594,7.746S7.458,7.81,7.388,7.833s-0.141,0.04-0.213,0.052S7.03,7.902,6.958,7.902
			c-0.008,0-0.016,0-0.024-0.001S6.918,7.9,6.91,7.899S6.894,7.897,6.886,7.896S6.87,7.895,6.862,7.894
			C6.66,8.011,6.47,8.145,6.293,8.295S5.952,8.612,5.804,8.793S5.524,9.169,5.41,9.376S5.2,9.803,5.125,10.034z"/>
	</g>
	<g>
		<path class="st0" d="M10.45,13.716c-0.016,0-0.032,0.003-0.045,0.009s-0.026,0.014-0.036,0.024s-0.018,0.022-0.024,0.036
			s-0.009,0.029-0.009,0.045c0,0.016,0.003,0.032,0.009,0.045s0.014,0.026,0.024,0.036s0.022,0.018,0.036,0.024
			s0.029,0.009,0.045,0.009l2.82-0.001l2.82-0.001l2.82-0.001l2.82-0.001c0.016,0,0.032-0.003,0.045-0.009s0.026-0.014,0.036-0.024
			s0.018-0.022,0.024-0.036s0.009-0.029,0.009-0.045s-0.003-0.032-0.009-0.045c-0.006-0.014-0.014-0.026-0.024-0.036
			s-0.022-0.018-0.036-0.024c-0.014-0.006-0.029-0.009-0.045-0.009l-2.82,0.001l-2.82,0.001l-2.82,0.001L10.45,13.716z"/>
	</g>
	<g>
		<path class="st0" d="M24.681,7.201c-0.258,0-0.503,0.052-0.727,0.147c-0.223,0.095-0.425,0.232-0.594,0.401
			s-0.306,0.371-0.401,0.594c-0.095,0.223-0.147,0.469-0.147,0.727v1.19v1.19v1.19v1.19c0,1.216-0.247,2.375-0.694,3.43
			c-0.447,1.055-1.094,2.006-1.892,2.804s-1.749,1.445-2.804,1.892c-1.055,0.447-2.214,0.694-3.43,0.694
			c-0.054,0-0.107-0.001-0.16-0.003s-0.106-0.004-0.159-0.008s-0.106-0.007-0.158-0.01s-0.105-0.008-0.158-0.011
			c0.008,0.011,0.015,0.022,0.022,0.033s0.014,0.023,0.019,0.035s0.01,0.024,0.013,0.038s0.005,0.027,0.005,0.041v0.021v0.021v0.021
			v0.021c0.048,0.003,0.096,0.006,0.143,0.01c0.048,0.003,0.096,0.007,0.143,0.009s0.096,0.005,0.144,0.007
			c0.048,0.002,0.096,0.003,0.145,0.003c0.128,0,0.255-0.003,0.382-0.009s0.253-0.015,0.379-0.027s0.251-0.026,0.376-0.042
			s0.249-0.035,0.373-0.056c0.003-0.034,0.012-0.066,0.025-0.096c0.014-0.029,0.032-0.056,0.055-0.078s0.049-0.04,0.079-0.052
			c0.03-0.012,0.062-0.019,0.097-0.019c0.026,0,0.05,0.004,0.072,0.012s0.042,0.019,0.06,0.032s0.034,0.03,0.049,0.048
			s0.027,0.039,0.038,0.06c0.414-0.093,0.82-0.214,1.215-0.362s0.779-0.325,1.15-0.529s0.729-0.434,1.071-0.69
			s0.668-0.539,0.976-0.847c0.428-0.428,0.808-0.891,1.137-1.382c0.329-0.491,0.607-1.011,0.832-1.553s0.396-1.105,0.511-1.684
			c0.115-0.579,0.174-1.174,0.174-1.777v-1.19v-1.19v-1.19V9.07c0-0.226,0.046-0.442,0.129-0.638
			c0.083-0.196,0.203-0.373,0.352-0.521c0.148-0.148,0.325-0.269,0.521-0.352c0.196-0.083,0.412-0.129,0.638-0.129
			c0.226,0,0.442,0.046,0.638,0.129s0.373,0.203,0.521,0.352c0.148,0.148,0.269,0.325,0.352,0.521s0.129,0.412,0.129,0.638v0.768
			v0.768v0.768v0.768c0,0.016,0.003,0.032,0.009,0.045s0.014,0.026,0.024,0.036s0.022,0.018,0.036,0.024s0.029,0.009,0.045,0.009
			c0.016,0,0.032-0.003,0.045-0.009c0.014-0.006,0.026-0.014,0.036-0.024s0.018-0.022,0.024-0.036
			c0.006-0.014,0.009-0.029,0.009-0.045v-0.768v-0.768V9.837V9.07c0-0.258-0.052-0.503-0.147-0.727
			c-0.095-0.223-0.232-0.425-0.401-0.594s-0.371-0.306-0.594-0.401C25.184,7.253,24.938,7.201,24.681,7.201z"/>
	</g>
	<g>
		<path class="st0" d="M12.886,22.806v-0.01v-0.01v-0.01v-0.01c0-0.018,0.002-0.035,0.005-0.051s0.008-0.032,0.015-0.047
			s0.014-0.029,0.023-0.043s0.019-0.026,0.03-0.038c-1.096-0.128-2.131-0.457-3.067-0.949s-1.774-1.147-2.474-1.928
			s-1.264-1.686-1.653-2.678s-0.602-2.072-0.602-3.201c0-0.016-0.003-0.032-0.009-0.045s-0.014-0.026-0.024-0.036
			s-0.022-0.018-0.036-0.024s-0.029-0.009-0.045-0.009s-0.032,0.003-0.045,0.009s-0.026,0.014-0.036,0.024s-0.018,0.022-0.024,0.036
			s-0.009,0.029-0.009,0.045c0,1.154,0.217,2.258,0.613,3.273s0.97,1.941,1.685,2.741s1.568,1.471,2.523,1.978
			S11.768,22.669,12.886,22.806z"/>
	</g>
	<g>
		<path class="st0" d="M24.115,8.863c-0.005-0.005-0.011-0.008-0.016-0.012c-0.005-0.003-0.011-0.006-0.017-0.008
			s-0.011-0.004-0.017-0.005c-0.006-0.001-0.012-0.002-0.018-0.002c-0.009,0-0.017,0.001-0.026,0.003s-0.017,0.005-0.025,0.009
			s-0.016,0.009-0.023,0.014s-0.014,0.012-0.02,0.019c-0.006,0.007-0.011,0.014-0.014,0.022s-0.006,0.014-0.007,0.021
			s-0.002,0.013-0.003,0.019s0,0.011,0,0.015c0.001,0.008,0.002,0.015,0.004,0.023c0.002,0.007,0.005,0.014,0.009,0.021
			s0.008,0.013,0.012,0.019c0.005,0.006,0.01,0.011,0.016,0.016c0.082,0.065,0.155,0.139,0.219,0.219s0.118,0.166,0.162,0.257
			S24.43,9.7,24.453,9.8s0.035,0.202,0.035,0.306v0.651v0.651v0.651v0.651c0,0.016,0.003,0.032,0.009,0.045
			c0.006,0.014,0.014,0.026,0.024,0.036s0.022,0.018,0.036,0.024c0.014,0.006,0.029,0.009,0.045,0.009
			c0.008,0,0.016-0.001,0.024-0.002s0.015-0.004,0.022-0.006s0.014-0.006,0.02-0.01s0.012-0.009,0.017-0.014
			c0.003-0.003,0.007-0.007,0.01-0.012s0.006-0.01,0.009-0.016s0.005-0.012,0.006-0.019s0.002-0.015,0.002-0.023l0-0.653l0-0.653
			l0-0.653l0-0.653c0-0.121-0.014-0.239-0.04-0.355c-0.026-0.115-0.065-0.227-0.116-0.333s-0.113-0.207-0.187-0.301
			C24.294,9.027,24.21,8.941,24.115,8.863z"/>
	</g>
	<g>
		<path class="st0" d="M8.345,9.92c0-0.043-0.009-0.085-0.025-0.123s-0.039-0.072-0.068-0.1S8.19,9.646,8.153,9.63
			S8.074,9.605,8.03,9.605c-0.043,0-0.085,0.009-0.123,0.025s-0.072,0.039-0.1,0.068S7.756,9.76,7.74,9.798S7.715,9.877,7.715,9.92
			s0.009,0.085,0.025,0.123s0.039,0.072,0.068,0.1s0.062,0.052,0.1,0.068s0.079,0.025,0.123,0.025c0.043,0,0.085-0.009,0.122-0.025
			s0.072-0.039,0.1-0.068s0.052-0.062,0.068-0.1S8.345,9.964,8.345,9.92z"/>
	</g>
	<g>
		<path class="st0" d="M12.125,20.047c-0.016,0-0.032,0.003-0.045,0.009c-0.014,0.006-0.026,0.014-0.036,0.024
			s-0.018,0.022-0.024,0.036c-0.006,0.014-0.009,0.029-0.009,0.045s0.003,0.032,0.009,0.045c0.006,0.014,0.014,0.026,0.024,0.036
			s0.022,0.018,0.036,0.024c0.014,0.006,0.029,0.009,0.045,0.009h0.625h0.625H14h0.625c0.145,0,0.289-0.012,0.428-0.037
			c0.139-0.024,0.275-0.06,0.405-0.108s0.255-0.106,0.373-0.175c0.118-0.069,0.229-0.149,0.331-0.24
			c0.101-0.089,0.191-0.185,0.268-0.287c0.078-0.102,0.143-0.21,0.197-0.322s0.094-0.229,0.121-0.349
			c0.027-0.12,0.041-0.243,0.041-0.367c0-0.26-0.061-0.507-0.17-0.733s-0.268-0.428-0.464-0.599
			c-0.196-0.171-0.429-0.309-0.688-0.404s-0.543-0.148-0.842-0.148H14h-0.625H12.75h-0.625c-0.016,0-0.032,0.003-0.045,0.009
			s-0.026,0.014-0.036,0.024s-0.018,0.022-0.024,0.036s-0.009,0.029-0.009,0.045c0,0.016,0.003,0.032,0.009,0.045
			c0.006,0.014,0.014,0.026,0.024,0.036s0.022,0.018,0.036,0.024c0.014,0.006,0.029,0.009,0.045,0.009h0.625h0.625H14h0.625
			c0.267,0,0.521,0.046,0.753,0.13s0.44,0.205,0.615,0.355c0.175,0.15,0.317,0.328,0.415,0.526s0.152,0.416,0.152,0.644
			s-0.054,0.446-0.152,0.644s-0.24,0.377-0.415,0.526c-0.175,0.15-0.384,0.271-0.615,0.355s-0.486,0.13-0.753,0.13H14h-0.625H12.75
			H12.125z"/>
	</g>
	<g>
		<path class="st0" d="M4.802,12.333c0.153,0,0.298-0.031,0.431-0.087s0.252-0.137,0.352-0.238s0.181-0.22,0.238-0.352
			s0.087-0.278,0.087-0.431c0-0.153-0.031-0.298-0.087-0.431s-0.137-0.252-0.238-0.352s-0.22-0.181-0.352-0.238
			s-0.278-0.087-0.431-0.087c-0.135,0-0.334,0.027-0.556,0.078s-0.468,0.127-0.697,0.223s-0.441,0.214-0.596,0.349
			s-0.252,0.289-0.252,0.457c0,0.168,0.098,0.321,0.252,0.457s0.367,0.253,0.596,0.349s0.475,0.172,0.697,0.223
			S4.667,12.333,4.802,12.333z M3.645,10.627c0.112-0.046,0.225-0.087,0.336-0.122s0.219-0.064,0.321-0.088s0.197-0.041,0.282-0.053
			s0.158-0.018,0.218-0.018c0.121,0,0.237,0.025,0.342,0.069s0.2,0.109,0.28,0.189s0.144,0.174,0.189,0.28s0.069,0.221,0.069,0.342
			c0,0.121-0.025,0.237-0.069,0.342s-0.109,0.2-0.189,0.279s-0.174,0.144-0.28,0.189s-0.221,0.069-0.342,0.069
			c-0.06,0-0.135-0.006-0.22-0.018s-0.181-0.03-0.283-0.053s-0.21-0.053-0.321-0.088s-0.223-0.076-0.333-0.122
			c-0.054-0.023-0.126-0.056-0.203-0.096s-0.16-0.087-0.236-0.14s-0.145-0.11-0.195-0.172s-0.081-0.125-0.081-0.191
			c0-0.047,0.017-0.096,0.049-0.146s0.08-0.102,0.141-0.153s0.137-0.103,0.225-0.153S3.533,10.674,3.645,10.627z"/>
	</g>
	<g>
		<path class="st0" d="M6.958,7.752c0.068,0,0.134-0.005,0.199-0.016s0.129-0.026,0.191-0.047S7.471,7.641,7.529,7.61
			s0.114-0.067,0.167-0.108c0.042-0.031,0.081-0.065,0.117-0.101s0.068-0.075,0.099-0.116s0.057-0.083,0.083-0.128
			s0.048-0.09,0.069-0.136C8.048,7.009,8.032,6.998,8.016,6.987s-0.033-0.021-0.05-0.032S7.933,6.933,7.918,6.921
			s-0.03-0.024-0.044-0.038C7.857,6.925,7.838,6.966,7.817,7.005S7.774,7.083,7.748,7.12S7.695,7.192,7.664,7.225
			S7.599,7.289,7.561,7.318c-0.044,0.033-0.09,0.061-0.137,0.086S7.328,7.449,7.278,7.466S7.176,7.495,7.123,7.504
			s-0.106,0.013-0.16,0.013c-0.012,0-0.024,0-0.037-0.001S6.902,7.515,6.889,7.514S6.865,7.512,6.852,7.511S6.828,7.508,6.815,7.506
			C6.749,7.496,6.684,7.48,6.623,7.458s-0.121-0.05-0.177-0.083S6.338,7.303,6.289,7.259S6.196,7.166,6.156,7.112
			c-0.04-0.054-0.074-0.111-0.102-0.17s-0.05-0.121-0.066-0.184S5.963,6.631,5.959,6.566s0-0.131,0.01-0.198
			c0.012-0.087,0.036-0.171,0.07-0.25S6.117,5.966,6.17,5.898s0.114-0.129,0.182-0.181s0.144-0.097,0.226-0.13
			C6.592,5.58,6.604,5.572,6.615,5.561s0.018-0.023,0.023-0.037s0.008-0.029,0.008-0.044S6.644,5.45,6.638,5.435
			c-0.004-0.01-0.009-0.019-0.016-0.027S6.607,5.394,6.598,5.388s-0.019-0.01-0.03-0.013S6.546,5.37,6.534,5.37
			c-0.004,0-0.008,0-0.012,0.001S6.515,5.371,6.511,5.372S6.503,5.374,6.5,5.375S6.492,5.377,6.488,5.379
			c-0.1,0.041-0.193,0.094-0.278,0.159S6.05,5.676,5.985,5.759S5.866,5.933,5.824,6.03s-0.071,0.2-0.087,0.307
			C5.713,6.506,5.723,6.671,5.763,6.826s0.11,0.3,0.204,0.426s0.212,0.235,0.348,0.319s0.291,0.141,0.458,0.166
			C6.789,7.74,6.804,7.742,6.82,7.744s0.031,0.003,0.046,0.004S6.896,7.75,6.912,7.751S6.942,7.752,6.958,7.752z"/>
	</g>
	<g>
		<path class="st0" d="M13.265,25.746v-0.745v-0.745v-0.745v-0.745c0-0.016-0.003-0.032-0.009-0.045
			c-0.006-0.014-0.014-0.026-0.024-0.036s-0.022-0.018-0.036-0.024c-0.014-0.006-0.029-0.009-0.045-0.009s-0.032,0.003-0.045,0.009
			c-0.014,0.006-0.026,0.014-0.036,0.024s-0.018,0.022-0.024,0.036c-0.006,0.014-0.009,0.029-0.009,0.045v0.745v0.745v0.745v0.745
			c0,0.015,0.003,0.03,0.008,0.043c0.005,0.013,0.013,0.024,0.022,0.034s0.021,0.018,0.034,0.023
			c0.013,0.006,0.027,0.009,0.042,0.011h0.004h0.004h0.004h0.004c0.015-0.001,0.029-0.005,0.042-0.011
			c0.013-0.006,0.024-0.014,0.034-0.023s0.017-0.021,0.022-0.034C13.262,25.776,13.265,25.762,13.265,25.746z"/>
	</g>
	<g>
		<path class="st0" d="M8.145,6.617c-0.006-0.005-0.012-0.01-0.018-0.015s-0.013-0.008-0.02-0.011S8.092,6.586,8.085,6.584
			S8.07,6.582,8.062,6.582c-0.008,0-0.015,0.001-0.022,0.002S8.025,6.588,8.018,6.591s-0.014,0.006-0.02,0.01S7.986,6.61,7.98,6.615
			C7.969,6.626,7.961,6.639,7.955,6.653S7.947,6.681,7.947,6.696S7.95,6.725,7.955,6.739S7.969,6.767,7.98,6.779
			C8.053,6.852,8.132,6.92,8.217,6.981s0.174,0.116,0.268,0.163s0.192,0.087,0.293,0.119S8.982,7.32,9.088,7.336
			C9.113,7.34,9.137,7.343,9.161,7.345S9.209,7.35,9.233,7.351s0.048,0.003,0.072,0.003s0.048,0.001,0.073,0.001
			c0.105,0,0.209-0.009,0.312-0.025s0.205-0.042,0.304-0.075s0.198-0.074,0.293-0.123s0.188-0.106,0.277-0.17
			c0.106-0.079,0.203-0.167,0.29-0.263s0.163-0.199,0.229-0.309s0.12-0.226,0.163-0.346s0.074-0.247,0.092-0.376
			c0.019-0.131,0.024-0.262,0.018-0.391s-0.026-0.256-0.057-0.38s-0.074-0.245-0.129-0.361s-0.122-0.227-0.2-0.332
			c-0.079-0.107-0.168-0.204-0.264-0.291s-0.199-0.164-0.309-0.23s-0.226-0.12-0.347-0.163S9.803,3.445,9.674,3.427
			C9.649,3.423,9.625,3.42,9.601,3.417S9.553,3.412,9.529,3.41S9.481,3.407,9.457,3.406S9.409,3.405,9.386,3.405
			c-0.189,0-0.375,0.028-0.552,0.079S8.487,3.613,8.332,3.71S8.034,3.927,7.911,4.064S7.682,4.356,7.6,4.527
			C7.594,4.541,7.591,4.556,7.591,4.57S7.593,4.6,7.598,4.614S7.611,4.642,7.62,4.653s0.022,0.021,0.036,0.028
			c0.003,0.001,0.006,0.002,0.01,0.003s0.007,0.002,0.011,0.003S7.686,4.688,7.69,4.689s0.009,0.001,0.013,0.001
			c0.009,0,0.019-0.001,0.029-0.003s0.02-0.006,0.03-0.011s0.019-0.012,0.027-0.02s0.016-0.018,0.021-0.03
			c0.072-0.15,0.165-0.288,0.274-0.409s0.234-0.226,0.371-0.312s0.286-0.154,0.442-0.2s0.32-0.07,0.487-0.07
			c0.022,0,0.043,0,0.065,0.001s0.043,0.002,0.065,0.004s0.043,0.004,0.065,0.006S9.622,3.65,9.644,3.653
			c0.115,0.018,0.227,0.046,0.335,0.085s0.21,0.087,0.307,0.146s0.188,0.126,0.272,0.203s0.161,0.162,0.23,0.255
			c0.069,0.094,0.129,0.194,0.178,0.297s0.087,0.211,0.114,0.321s0.044,0.223,0.049,0.337s0,0.23-0.018,0.345
			c-0.018,0.116-0.046,0.228-0.085,0.335s-0.087,0.21-0.146,0.307s-0.126,0.188-0.203,0.272s-0.162,0.161-0.255,0.23
			c-0.077,0.057-0.157,0.107-0.24,0.15s-0.169,0.08-0.256,0.109S9.75,7.097,9.659,7.112S9.475,7.134,9.382,7.134
			c-0.021,0-0.042,0-0.063-0.001S9.276,7.131,9.255,7.129S9.213,7.126,9.192,7.123S9.149,7.118,9.128,7.115
			C9.034,7.1,8.941,7.078,8.852,7.05s-0.177-0.065-0.26-0.107S8.429,6.852,8.354,6.798S8.209,6.683,8.145,6.617z"/>
	</g>
	<g>
		<path class="st0" d="M13.678,26.007H13.08h-0.598h-0.598h-0.598c-0.016,0-0.032,0.003-0.045,0.009
			c-0.014,0.006-0.026,0.014-0.036,0.024s-0.018,0.022-0.024,0.036c-0.006,0.014-0.009,0.029-0.009,0.045s0.003,0.032,0.009,0.045
			c0.006,0.014,0.014,0.026,0.024,0.036s0.022,0.018,0.036,0.024c0.014,0.006,0.029,0.009,0.045,0.009h0.598h0.598h0.598h0.598
			c-0.005-0.009-0.01-0.018-0.015-0.027c-0.005-0.009-0.011-0.018-0.015-0.027s-0.009-0.019-0.012-0.029
			c-0.003-0.01-0.005-0.02-0.005-0.032s0.002-0.022,0.005-0.032s0.007-0.019,0.012-0.029s0.01-0.018,0.015-0.027
			S13.673,26.016,13.678,26.007z"/>
	</g>
	<g>
		<path class="st0" d="M15.756,22.652c-0.016,0-0.032,0.003-0.045,0.009c-0.014,0.006-0.026,0.014-0.036,0.024
			s-0.018,0.022-0.024,0.036c-0.006,0.014-0.009,0.029-0.009,0.045v0.745v0.745v0.745v0.745c0,0.015,0.003,0.03,0.008,0.043
			c0.005,0.013,0.013,0.024,0.022,0.034s0.021,0.018,0.034,0.023c0.013,0.006,0.027,0.009,0.042,0.011h0.004h0.004h0.004h0.004
			c0.015-0.001,0.029-0.005,0.042-0.011c0.013-0.006,0.024-0.014,0.034-0.023s0.017-0.021,0.022-0.034
			c0.005-0.013,0.008-0.027,0.008-0.043v-0.745v-0.745v-0.745v-0.745c0-0.016-0.003-0.032-0.009-0.045
			c-0.006-0.014-0.014-0.026-0.024-0.036s-0.022-0.018-0.036-0.024C15.787,22.655,15.772,22.652,15.756,22.652z"/>
	</g>
	<g>
		<path class="st0" d="M15.011,26.007h-0.279h-0.279h-0.279h-0.279c-0.016,0-0.032,0.003-0.045,0.009
			c-0.014,0.006-0.026,0.014-0.036,0.024s-0.018,0.022-0.024,0.036c-0.006,0.014-0.009,0.029-0.009,0.045s0.003,0.032,0.009,0.045
			c0.006,0.014,0.014,0.026,0.024,0.036s0.022,0.018,0.036,0.024c0.014,0.006,0.029,0.009,0.045,0.009h0.279h0.279h0.279h0.279
			h0.651h0.651h0.651h0.651c0.016,0,0.032-0.003,0.045-0.009c0.014-0.006,0.026-0.014,0.036-0.024s0.018-0.022,0.024-0.036
			c0.006-0.014,0.009-0.029,0.009-0.045s-0.003-0.032-0.009-0.045c-0.006-0.014-0.014-0.026-0.024-0.036s-0.022-0.018-0.036-0.024
			c-0.014-0.006-0.029-0.009-0.045-0.009h-0.651h-0.651h-0.651H15.011z"/>
	</g>
</g>
<g>
	<path class="st0" d="M29.819,29.905h-7.432h-7.432H7.523H0.091v-7.432v-7.432V7.608V0.176h7.432h7.432h7.432h7.432v7.432v7.432
		v7.432V29.905z M0.341,29.655h7.307h7.307h7.307h7.307v-7.307v-7.307V7.733V0.426h-7.307h-7.307H7.648H0.341v7.307v7.307v7.307
		V29.655z"/>
</g>
</svg>
