<?xml version="1.0" encoding="utf-8"?>
<!-- Generator: Adobe Illustrator 19.1.0, SVG Export Plug-In . SVG Version: 6.00 Build 0)  -->
<svg version="1.1" id="Layer_1" xmlns="http://www.w3.org/2000/svg" xmlns:xlink="http://www.w3.org/1999/xlink" x="0px" y="0px"
	 viewBox="0 0 29.91 30.086" style="enable-background:new 0 0 29.91 30.086;" xml:space="preserve">
<style type="text/css">
	.st0{fill:#115C78;}
	.st1{fill-rule:evenodd;clip-rule:evenodd;fill:#4D4D4D;}
	.st2{fill:#4D4D4D;}
	.st3{fill-rule:evenodd;clip-rule:evenodd;}
	.st4{fill:#FFFFFF;}
	.st5{fill:none;}
	.st6{fill:none;stroke:#4D4D4D;stroke-width:0.3;stroke-miterlimit:10;}
	.st7{fill:#4D4D4D;stroke:#4D4D4D;stroke-width:0.1;stroke-miterlimit:10;}
	.st8{fill:#F0047F;}
	.st9{fill:none;stroke:#4D4D4D;stroke-width:0;stroke-linecap:round;stroke-linejoin:round;}
	.st10{fill:none;stroke:#4D4D4D;stroke-width:0.25;stroke-miterlimit:10;}
	.st11{fill:none;stroke:#4D4D4D;stroke-width:0.2;stroke-miterlimit:10;}
	.st12{fill:none;stroke:#4D4D4D;stroke-width:0.8;stroke-miterlimit:10;}
	.st13{fill:#4D4D4D;stroke:#4D4D4D;stroke-width:0.3;stroke-miterlimit:10;}
	.st14{fill:none;stroke:#4D4D4D;stroke-width:0.24;stroke-miterlimit:10;}
</style>
<path class="st10" d="M0.216,0.491h7.37h7.37h7.37h7.37v7.276v7.276v7.276v7.276h-7.37h-7.37h-7.37h-7.37v-7.276v-7.276V7.767V0.491
	z M29.694,0.492v5.614v5.614v5.614v5.614c-0.983-0.525-2.045-0.992-3.174-1.397c-1.129-0.405-2.323-0.747-3.57-1.024
	s-2.546-0.488-3.883-0.63c-1.337-0.142-2.713-0.215-4.113-0.215c-1.4,0-2.776,0.073-4.113,0.215
	c-1.337,0.142-2.636,0.353-3.883,0.63s-2.441,0.619-3.57,1.024s-2.191,0.871-3.174,1.397v-5.614v-5.614V6.106V0.492h7.37h7.37h7.37
	H29.694z"/>
<path class="st13" d="M22.711,8.251c-0.185,0-0.368,0.012-0.547,0.036c-0.179,0.024-0.354,0.06-0.525,0.106s-0.337,0.103-0.497,0.17
	c-0.161,0.067-0.316,0.144-0.465,0.23c-0.149-0.086-0.305-0.163-0.465-0.23c-0.161-0.067-0.327-0.124-0.497-0.17
	s-0.346-0.082-0.525-0.106c-0.179-0.024-0.361-0.036-0.547-0.036s-0.368,0.012-0.547,0.036c-0.179,0.024-0.354,0.06-0.525,0.106
	s-0.337,0.103-0.497,0.17c-0.161,0.067-0.316,0.144-0.465,0.23c-0.149-0.086-0.305-0.163-0.465-0.23
	c-0.161-0.067-0.327-0.124-0.497-0.17s-0.346-0.082-0.525-0.106c-0.179-0.024-0.361-0.036-0.547-0.036s-0.368,0.012-0.547,0.036
	c-0.179,0.024-0.354,0.06-0.525,0.106s-0.337,0.103-0.497,0.17c-0.161,0.067-0.316,0.144-0.465,0.23
	c-0.149-0.086-0.305-0.163-0.465-0.23c-0.161-0.067-0.327-0.124-0.497-0.17s-0.346-0.082-0.525-0.106
	c-0.179-0.024-0.361-0.036-0.547-0.036c-0.183,0-0.363,0.012-0.54,0.035S9.619,8.344,9.45,8.389C9.282,8.434,9.118,8.49,8.96,8.556
	C8.801,8.622,8.648,8.699,8.501,8.785C8.35,8.696,8.192,8.617,8.029,8.548C7.866,8.479,7.698,8.42,7.525,8.372
	s-0.35-0.085-0.531-0.11C6.812,8.237,6.628,8.224,6.44,8.224c-0.565,0-1.103,0.115-1.593,0.322c-0.49,0.207-0.931,0.507-1.302,0.878
	c-0.371,0.371-0.671,0.812-0.878,1.302c-0.207,0.49-0.322,1.028-0.322,1.593c0,0.565,0.115,1.103,0.322,1.593
	c0.207,0.49,0.507,0.931,0.878,1.302c0.371,0.371,0.812,0.671,1.302,0.878c0.49,0.207,1.028,0.322,1.593,0.322
	c0.188,0,0.372-0.013,0.553-0.038c0.181-0.025,0.358-0.062,0.531-0.11c0.173-0.048,0.341-0.107,0.504-0.176
	c0.163-0.069,0.321-0.148,0.472-0.236c0.149,0.084,0.303,0.159,0.462,0.224c0.159,0.066,0.322,0.122,0.49,0.168
	c0.168,0.046,0.34,0.081,0.516,0.105s0.355,0.036,0.539,0.036c0.185,0,0.368-0.012,0.547-0.036c0.179-0.024,0.354-0.06,0.525-0.106
	s0.337-0.103,0.497-0.17s0.316-0.144,0.465-0.23c0.149,0.086,0.305,0.163,0.465,0.23s0.327,0.124,0.497,0.17
	s0.346,0.082,0.525,0.106c0.179,0.024,0.361,0.036,0.547,0.036s0.368-0.012,0.547-0.036c0.179-0.024,0.354-0.06,0.525-0.106
	s0.337-0.103,0.497-0.17c0.161-0.067,0.316-0.144,0.465-0.23c0.149,0.086,0.305,0.163,0.465,0.23
	c0.161,0.067,0.327,0.124,0.497,0.17s0.346,0.082,0.525,0.106c0.179,0.024,0.361,0.036,0.547,0.036s0.368-0.012,0.547-0.036
	c0.179-0.024,0.354-0.06,0.525-0.106s0.337-0.103,0.497-0.17c0.161-0.067,0.316-0.144,0.465-0.23
	c0.149,0.086,0.305,0.163,0.465,0.23c0.161,0.067,0.327,0.124,0.497,0.17s0.346,0.082,0.525,0.106
	c0.179,0.024,0.361,0.036,0.547,0.036c0.563,0,1.098-0.114,1.585-0.319c0.487-0.205,0.925-0.503,1.293-0.871
	c0.368-0.368,0.665-0.806,0.871-1.293c0.205-0.487,0.319-1.022,0.319-1.585s-0.114-1.098-0.319-1.585
	c-0.205-0.487-0.503-0.925-0.871-1.293c-0.368-0.368-0.806-0.665-1.293-0.871C23.809,8.365,23.273,8.251,22.711,8.251z
	 M10.508,8.351c0.176,0,0.349,0.011,0.518,0.033s0.335,0.055,0.496,0.098c0.162,0.043,0.319,0.096,0.473,0.159
	s0.303,0.135,0.447,0.216c-0.269,0.167-0.517,0.364-0.739,0.587s-0.419,0.471-0.585,0.74c-0.166,0.269-0.302,0.559-0.402,0.865
	c-0.1,0.306-0.165,0.629-0.19,0.963c-0.025-0.334-0.09-0.658-0.19-0.965c-0.1-0.307-0.236-0.598-0.403-0.869
	S9.569,9.657,9.345,9.432C9.121,9.208,8.872,9.008,8.6,8.839c0.142-0.077,0.29-0.146,0.442-0.206C9.194,8.573,9.35,8.521,9.51,8.48
	S9.833,8.406,10,8.384S10.336,8.351,10.508,8.351z M6.44,16.359c-0.558,0-1.09-0.114-1.573-0.319
	c-0.483-0.205-0.919-0.502-1.284-0.868s-0.661-0.802-0.866-1.285C2.513,13.405,2.4,12.875,2.4,12.319
	c0-0.556,0.114-1.086,0.319-1.569c0.205-0.483,0.502-0.919,0.868-1.285s0.802-0.663,1.285-0.868C5.354,8.392,5.884,8.278,6.44,8.278
	c0.183,0,0.363,0.012,0.54,0.036C7.156,8.339,7.329,8.374,7.498,8.42C7.666,8.465,7.83,8.522,7.988,8.587
	C8.147,8.653,8.3,8.728,8.447,8.812c-0.301,0.176-0.576,0.39-0.821,0.636C7.382,9.693,7.168,9.969,6.993,10.27
	c-0.176,0.301-0.314,0.627-0.408,0.97C6.49,11.584,6.44,11.946,6.44,12.319c0,0.373,0.05,0.734,0.144,1.078s0.232,0.669,0.408,0.97
	c0.176,0.301,0.389,0.578,0.633,0.823c0.244,0.245,0.52,0.459,0.821,0.636c-0.147,0.086-0.3,0.162-0.458,0.228
	c-0.158,0.066-0.322,0.122-0.491,0.167c-0.168,0.045-0.341,0.08-0.518,0.103C6.803,16.348,6.623,16.359,6.44,16.359z M6.54,12.319
	c0-0.368,0.051-0.725,0.146-1.064c0.095-0.339,0.234-0.66,0.41-0.956s0.39-0.567,0.634-0.807c0.244-0.24,0.519-0.447,0.817-0.617
	c0.289,0.179,0.555,0.392,0.79,0.635c0.236,0.243,0.441,0.514,0.611,0.809s0.303,0.613,0.394,0.948
	c0.091,0.335,0.14,0.688,0.14,1.052c0,0.364-0.049,0.717-0.14,1.053c-0.091,0.336-0.224,0.655-0.394,0.95
	c-0.169,0.295-0.375,0.567-0.611,0.81c-0.236,0.242-0.501,0.455-0.79,0.631c-0.298-0.169-0.573-0.377-0.817-0.617
	c-0.244-0.24-0.458-0.511-0.634-0.807s-0.315-0.617-0.41-0.956C6.59,13.044,6.54,12.687,6.54,12.319z M10.508,16.287
	c-0.174,0-0.345-0.011-0.513-0.033c-0.168-0.022-0.332-0.054-0.492-0.096c-0.16-0.042-0.316-0.093-0.466-0.153
	c-0.151-0.06-0.296-0.129-0.437-0.206c0.269-0.167,0.517-0.366,0.741-0.59c0.223-0.224,0.421-0.475,0.588-0.746
	c0.167-0.271,0.304-0.563,0.405-0.871c0.101-0.308,0.167-0.632,0.192-0.966c0.025,0.334,0.09,0.657,0.19,0.963
	s0.236,0.596,0.402,0.865s0.363,0.517,0.585,0.74c0.222,0.223,0.47,0.42,0.739,0.587c-0.142,0.079-0.29,0.15-0.443,0.213
	c-0.153,0.062-0.311,0.116-0.473,0.159s-0.329,0.077-0.498,0.1C10.857,16.275,10.684,16.287,10.508,16.287z M10.716,12.319
	c0-0.357,0.049-0.703,0.139-1.031s0.224-0.639,0.393-0.926c0.169-0.287,0.374-0.55,0.608-0.784s0.498-0.437,0.785-0.604
	c0.276,0.176,0.528,0.386,0.752,0.623c0.224,0.237,0.419,0.502,0.579,0.788c0.16,0.286,0.286,0.595,0.372,0.919
	c0.086,0.324,0.132,0.664,0.132,1.015c0,0.35-0.046,0.69-0.132,1.015c-0.086,0.324-0.212,0.632-0.372,0.919
	c-0.16,0.286-0.355,0.551-0.579,0.788c-0.224,0.237-0.476,0.447-0.752,0.623c-0.289-0.167-0.554-0.371-0.789-0.604
	c-0.235-0.233-0.439-0.497-0.608-0.784c-0.168-0.287-0.301-0.598-0.391-0.926S10.716,12.676,10.716,12.319z M14.575,16.188
	c-0.165,0-0.328-0.011-0.489-0.031s-0.318-0.051-0.473-0.091c-0.154-0.04-0.305-0.088-0.451-0.145
	c-0.146-0.057-0.287-0.122-0.423-0.194c0.276-0.181,0.528-0.395,0.752-0.637s0.419-0.511,0.579-0.802
	c0.16-0.291,0.286-0.604,0.372-0.932c0.086-0.329,0.132-0.673,0.132-1.028c0-0.355-0.046-0.699-0.132-1.028
	c-0.086-0.329-0.212-0.641-0.372-0.932c-0.16-0.291-0.355-0.56-0.579-0.802S13.016,9.11,12.74,8.929
	c0.136-0.075,0.277-0.141,0.423-0.198c0.146-0.057,0.296-0.106,0.451-0.144c0.154-0.039,0.312-0.069,0.473-0.089
	s0.324-0.03,0.489-0.03c0.165,0,0.328,0.011,0.489,0.031c0.161,0.021,0.318,0.051,0.473,0.091c0.154,0.04,0.305,0.088,0.451,0.145
	c0.146,0.057,0.287,0.122,0.423,0.194c-0.276,0.181-0.528,0.395-0.752,0.637s-0.419,0.511-0.579,0.802
	c-0.16,0.291-0.286,0.604-0.372,0.932c-0.086,0.329-0.132,0.673-0.132,1.028c0,0.355,0.046,0.699,0.132,1.028
	c0.086,0.329,0.212,0.641,0.372,0.932c0.16,0.291,0.355,0.56,0.579,0.802s0.476,0.456,0.752,0.637
	c-0.136,0.072-0.276,0.137-0.421,0.194s-0.295,0.105-0.449,0.145c-0.154,0.04-0.311,0.07-0.472,0.091S14.743,16.188,14.575,16.188z
	 M14.982,12.319c0-0.337,0.046-0.663,0.131-0.972s0.211-0.603,0.37-0.874c0.159-0.271,0.353-0.52,0.574-0.742
	c0.221-0.221,0.47-0.415,0.741-0.576c0.249,0.174,0.476,0.377,0.677,0.604c0.201,0.227,0.375,0.478,0.519,0.748
	c0.143,0.27,0.256,0.559,0.332,0.863c0.077,0.304,0.117,0.622,0.117,0.949c0,0.328-0.041,0.645-0.117,0.948
	c-0.077,0.303-0.189,0.591-0.332,0.861c-0.143,0.269-0.318,0.52-0.519,0.747c-0.201,0.227-0.428,0.431-0.677,0.607
	c-0.271-0.16-0.52-0.354-0.741-0.576c-0.221-0.221-0.414-0.471-0.574-0.742c-0.159-0.271-0.285-0.564-0.37-0.874
	S14.982,12.656,14.982,12.319z M18.643,15.98c-0.149,0-0.295-0.009-0.439-0.027c-0.143-0.018-0.284-0.044-0.421-0.077
	c-0.137-0.034-0.271-0.076-0.402-0.125c-0.131-0.049-0.259-0.106-0.383-0.169c0.249-0.183,0.476-0.395,0.677-0.631
	c0.201-0.236,0.375-0.495,0.519-0.774c0.143-0.279,0.256-0.576,0.332-0.887c0.077-0.311,0.117-0.637,0.117-0.971
	c0-0.334-0.041-0.66-0.117-0.971c-0.077-0.312-0.189-0.609-0.332-0.888c-0.143-0.279-0.318-0.54-0.519-0.777
	c-0.201-0.237-0.428-0.451-0.677-0.636c0.124-0.063,0.253-0.12,0.384-0.169c0.132-0.049,0.267-0.091,0.405-0.125
	c0.138-0.034,0.279-0.06,0.421-0.077c0.143-0.018,0.288-0.027,0.435-0.027s0.292,0.009,0.435,0.027
	c0.143,0.018,0.284,0.044,0.421,0.077c0.138,0.034,0.273,0.076,0.405,0.125c0.132,0.049,0.26,0.106,0.384,0.169
	c-0.249,0.185-0.476,0.399-0.677,0.636c-0.201,0.237-0.375,0.497-0.519,0.777c-0.143,0.279-0.256,0.577-0.332,0.888
	c-0.077,0.312-0.117,0.637-0.117,0.971c0,0.334,0.041,0.66,0.117,0.971c0.077,0.312,0.189,0.609,0.332,0.888
	c0.143,0.279,0.318,0.54,0.519,0.777c0.201,0.237,0.428,0.451,0.677,0.636c-0.122,0.061-0.249,0.116-0.379,0.164
	c-0.131,0.048-0.265,0.089-0.403,0.122c-0.138,0.033-0.279,0.059-0.423,0.076S18.792,15.98,18.643,15.98z"/>
</svg>
