<?xml version="1.0" encoding="utf-8"?>
<!-- Generator: Adobe Illustrator 19.1.0, SVG Export Plug-In . SVG Version: 6.00 Build 0)  -->
<svg version="1.1" id="Layer_1" xmlns="http://www.w3.org/2000/svg" xmlns:xlink="http://www.w3.org/1999/xlink" x="0px" y="0px"
	 viewBox="0 0 29.91 30.086" style="enable-background:new 0 0 29.91 30.086;" xml:space="preserve">
<style type="text/css">
	.st0{fill:#4D4D4D;}
	.st1{fill-rule:evenodd;clip-rule:evenodd;fill:#4C4C4C;}
	.st2{fill:#4C4C4C;}
	.st3{fill:#383330;}
	.st4{fill:#1F1A17;}
	.st5{fill:#4D4C4C;}
	.st6{fill:none;stroke:#000000;stroke-width:0.3;stroke-miterlimit:10;}
	.st7{fill:#E61413;}
	.st8{fill:#5F5357;}
	.st9{fill:#115C78;}
	.st10{fill-rule:evenodd;clip-rule:evenodd;fill:#4D4D4D;}
	.st11{fill-rule:evenodd;clip-rule:evenodd;}
	.st12{fill:#FFFFFF;}
	.st13{fill:none;}
	.st14{fill:#231F20;}
	.st15{clip-path:url(#SVGID_2_);}
	.st16{clip-path:url(#SVGID_4_);fill:#FCF118;}
	.st17{clip-path:url(#SVGID_4_);fill:#FCF018;}
	.st18{clip-path:url(#SVGID_4_);fill:#FCEF18;}
	.st19{clip-path:url(#SVGID_4_);fill:#FCEE18;}
	.st20{clip-path:url(#SVGID_4_);fill:#FCED18;}
	.st21{clip-path:url(#SVGID_4_);fill:#FCEC18;}
	.st22{clip-path:url(#SVGID_4_);fill:#FCEB18;}
	.st23{clip-path:url(#SVGID_4_);fill:#FCEA18;}
	.st24{clip-path:url(#SVGID_4_);fill:#FCE918;}
	.st25{clip-path:url(#SVGID_4_);fill:#FCE818;}
	.st26{clip-path:url(#SVGID_4_);fill:#FCE718;}
	.st27{clip-path:url(#SVGID_4_);fill:#FCE617;}
	.st28{clip-path:url(#SVGID_4_);fill:#FCE517;}
	.st29{clip-path:url(#SVGID_4_);fill:#FCE417;}
	.st30{clip-path:url(#SVGID_4_);fill:#FCE317;}
	.st31{clip-path:url(#SVGID_4_);fill:#FCE217;}
	.st32{clip-path:url(#SVGID_4_);fill:#FCE117;}
	.st33{clip-path:url(#SVGID_4_);fill:#FCE017;}
	.st34{clip-path:url(#SVGID_4_);fill:#FCDF17;}
	.st35{clip-path:url(#SVGID_4_);fill:#FCDE17;}
	.st36{clip-path:url(#SVGID_4_);fill:#FCDD17;}
	.st37{clip-path:url(#SVGID_4_);fill:#FCDC17;}
	.st38{clip-path:url(#SVGID_4_);fill:#FCDB17;}
	.st39{clip-path:url(#SVGID_4_);fill:#FCDA17;}
	.st40{clip-path:url(#SVGID_4_);fill:#FCD917;}
	.st41{clip-path:url(#SVGID_4_);fill:#FCD817;}
	.st42{clip-path:url(#SVGID_4_);fill:#FCD717;}
	.st43{clip-path:url(#SVGID_4_);fill:#FCD617;}
	.st44{clip-path:url(#SVGID_4_);fill:#FCD517;}
	.st45{clip-path:url(#SVGID_4_);fill:#FCD416;}
	.st46{clip-path:url(#SVGID_4_);fill:#FCD316;}
	.st47{clip-path:url(#SVGID_4_);fill:#FBD216;}
	.st48{clip-path:url(#SVGID_4_);fill:#FBD116;}
	.st49{clip-path:url(#SVGID_4_);fill:#FBD016;}
	.st50{clip-path:url(#SVGID_4_);fill:#FBCF16;}
	.st51{clip-path:url(#SVGID_4_);fill:#FBCE16;}
	.st52{clip-path:url(#SVGID_4_);fill:#FBCD16;}
	.st53{clip-path:url(#SVGID_4_);fill:#FBCC16;}
	.st54{clip-path:url(#SVGID_4_);fill:#FBCB16;}
	.st55{clip-path:url(#SVGID_4_);fill:#FBCA16;}
	.st56{clip-path:url(#SVGID_4_);fill:#FBC916;}
	.st57{clip-path:url(#SVGID_4_);fill:#FBC816;}
	.st58{clip-path:url(#SVGID_4_);fill:#FBC716;}
	.st59{clip-path:url(#SVGID_4_);fill:#FBC616;}
	.st60{clip-path:url(#SVGID_4_);fill:#FBC516;}
	.st61{clip-path:url(#SVGID_4_);fill:#FBC416;}
	.st62{clip-path:url(#SVGID_4_);fill:#FBC316;}
	.st63{clip-path:url(#SVGID_4_);fill:#FBC216;}
	.st64{clip-path:url(#SVGID_4_);fill:#FBC115;}
	.st65{clip-path:url(#SVGID_4_);fill:#FBC015;}
	.st66{clip-path:url(#SVGID_4_);fill:#FBBF15;}
	.st67{clip-path:url(#SVGID_4_);fill:#FBBE15;}
	.st68{clip-path:url(#SVGID_4_);fill:#FBBD15;}
	.st69{clip-path:url(#SVGID_4_);fill:#FBBC15;}
	.st70{clip-path:url(#SVGID_4_);fill:#FBBB15;}
	.st71{clip-path:url(#SVGID_4_);fill:#FBBA15;}
	.st72{clip-path:url(#SVGID_4_);fill:#FBB915;}
	.st73{clip-path:url(#SVGID_4_);fill:#FBB815;}
	.st74{clip-path:url(#SVGID_4_);fill:#FBB715;}
	.st75{clip-path:url(#SVGID_4_);fill:#FBB615;}
	.st76{clip-path:url(#SVGID_4_);fill:#FBB515;}
	.st77{clip-path:url(#SVGID_4_);fill:#FBB415;}
	.st78{clip-path:url(#SVGID_4_);fill:#FBB315;}
	.st79{clip-path:url(#SVGID_4_);fill:#FBB215;}
	.st80{clip-path:url(#SVGID_4_);fill:#FBB115;}
	.st81{clip-path:url(#SVGID_4_);fill:#FBB015;}
	.st82{clip-path:url(#SVGID_4_);fill:#FBAF15;}
	.st83{clip-path:url(#SVGID_4_);fill:#FAAE15;}
	.st84{clip-path:url(#SVGID_4_);fill:#FAAD14;}
	.st85{clip-path:url(#SVGID_4_);fill:#FAAC14;}
	.st86{clip-path:url(#SVGID_4_);fill:#FAAB14;}
	.st87{clip-path:url(#SVGID_4_);fill:#FAAA14;}
	.st88{clip-path:url(#SVGID_4_);fill:#FAA914;}
	.st89{clip-path:url(#SVGID_4_);fill:#FAA814;}
	.st90{clip-path:url(#SVGID_4_);fill:#FAA714;}
	.st91{clip-path:url(#SVGID_4_);fill:#FAA614;}
	.st92{clip-path:url(#SVGID_4_);fill:#FAA514;}
	.st93{clip-path:url(#SVGID_4_);fill:#FAA414;}
	.st94{clip-path:url(#SVGID_4_);fill:#FAA314;}
	.st95{clip-path:url(#SVGID_4_);fill:#FAA214;}
	.st96{clip-path:url(#SVGID_4_);fill:#FAA114;}
	.st97{clip-path:url(#SVGID_4_);fill:#FAA014;}
	.st98{clip-path:url(#SVGID_4_);fill:#FA9F14;}
	.st99{clip-path:url(#SVGID_4_);fill:#FA9E14;}
	.st100{clip-path:url(#SVGID_4_);fill:#FA9D14;}
	.st101{clip-path:url(#SVGID_4_);fill:#FA9C14;}
	.st102{clip-path:url(#SVGID_4_);fill:#FA9B14;}
	.st103{clip-path:url(#SVGID_4_);fill:#FA9A13;}
	.st104{clip-path:url(#SVGID_4_);fill:#FA9913;}
	.st105{clip-path:url(#SVGID_4_);fill:#FA9813;}
	.st106{clip-path:url(#SVGID_4_);fill:#FA9713;}
	.st107{clip-path:url(#SVGID_4_);fill:#FA9613;}
	.st108{clip-path:url(#SVGID_4_);fill:#FA9513;}
	.st109{clip-path:url(#SVGID_4_);fill:#FA9413;}
	.st110{clip-path:url(#SVGID_4_);fill:#FA9313;}
	.st111{clip-path:url(#SVGID_4_);fill:#FA9213;}
	.st112{clip-path:url(#SVGID_4_);fill:#FA9113;}
	.st113{clip-path:url(#SVGID_4_);fill:#FA9013;}
	.st114{clip-path:url(#SVGID_4_);fill:#FA8F13;}
	.st115{clip-path:url(#SVGID_4_);fill:#FA8E13;}
	.st116{clip-path:url(#SVGID_4_);fill:#FA8D13;}
	.st117{clip-path:url(#SVGID_4_);fill:#FA8C13;}
	.st118{clip-path:url(#SVGID_4_);fill:#FA8B13;}
	.st119{clip-path:url(#SVGID_4_);fill:#FA8A13;}
	.st120{clip-path:url(#SVGID_4_);fill:#FA8913;}
	.st121{clip-path:url(#SVGID_4_);fill:#FA8812;}
	.st122{clip-path:url(#SVGID_4_);fill:#FA8712;}
	.st123{clip-path:url(#SVGID_4_);fill:#FA8612;}
	.st124{clip-path:url(#SVGID_4_);fill:#F98512;}
	.st125{clip-path:url(#SVGID_4_);fill:#F98412;}
	.st126{clip-path:url(#SVGID_4_);fill:#F98312;}
	.st127{clip-path:url(#SVGID_4_);fill:#F98212;}
	.st128{clip-path:url(#SVGID_4_);fill:#F98112;}
	.st129{clip-path:url(#SVGID_4_);fill:#F98012;}
	.st130{clip-path:url(#SVGID_4_);fill:#F97F12;}
	.st131{clip-path:url(#SVGID_4_);fill:#F97E12;}
	.st132{clip-path:url(#SVGID_4_);fill:#F97D12;}
	.st133{clip-path:url(#SVGID_4_);fill:#F97C12;}
	.st134{clip-path:url(#SVGID_4_);fill:#F97B12;}
	.st135{clip-path:url(#SVGID_4_);fill:#F97A12;}
	.st136{clip-path:url(#SVGID_4_);fill:#F97912;}
	.st137{clip-path:url(#SVGID_4_);fill:#F97812;}
	.st138{clip-path:url(#SVGID_4_);fill:#F97712;}
	.st139{clip-path:url(#SVGID_4_);fill:#F97612;}
	.st140{clip-path:url(#SVGID_4_);fill:#F97511;}
	.st141{clip-path:url(#SVGID_4_);fill:#F97411;}
	.st142{clip-path:url(#SVGID_4_);fill:#F97311;}
	.st143{clip-path:url(#SVGID_4_);fill:#F97211;}
	.st144{clip-path:url(#SVGID_4_);fill:#F97111;}
	.st145{clip-path:url(#SVGID_4_);fill:#F97011;}
	.st146{clip-path:url(#SVGID_4_);fill:#F96F11;}
	.st147{clip-path:url(#SVGID_4_);fill:#F96E11;}
	.st148{clip-path:url(#SVGID_4_);fill:#F96D11;}
	.st149{clip-path:url(#SVGID_4_);fill:#F96C11;}
	.st150{clip-path:url(#SVGID_4_);fill:#F96B11;}
	.st151{clip-path:url(#SVGID_4_);fill:#F96A11;}
	.st152{clip-path:url(#SVGID_4_);fill:#F96911;}
	.st153{clip-path:url(#SVGID_4_);fill:#F96811;}
	.st154{clip-path:url(#SVGID_4_);fill:#F96711;}
	.st155{clip-path:url(#SVGID_4_);fill:#F96611;}
	.st156{clip-path:url(#SVGID_4_);fill:#F96511;}
	.st157{clip-path:url(#SVGID_4_);fill:#F96411;}
	.st158{clip-path:url(#SVGID_4_);fill:#F96311;}
	.st159{clip-path:url(#SVGID_4_);fill:#F96210;}
	.st160{clip-path:url(#SVGID_4_);fill:#F86110;}
	.st161{clip-path:url(#SVGID_4_);fill:#F86010;}
	.st162{clip-path:url(#SVGID_4_);fill:#F85F10;}
	.st163{clip-path:url(#SVGID_4_);fill:#F85E10;}
	.st164{clip-path:url(#SVGID_4_);fill:#F85D10;}
	.st165{clip-path:url(#SVGID_4_);fill:#F85C10;}
	.st166{clip-path:url(#SVGID_4_);fill:#F85B10;}
	.st167{clip-path:url(#SVGID_4_);fill:#F85A10;}
	.st168{clip-path:url(#SVGID_4_);fill:#F85910;}
	.st169{clip-path:url(#SVGID_4_);fill:#F85810;}
	.st170{clip-path:url(#SVGID_4_);fill:#F85710;}
	.st171{clip-path:url(#SVGID_4_);fill:#F85610;}
	.st172{clip-path:url(#SVGID_4_);fill:#F85510;}
	.st173{clip-path:url(#SVGID_4_);fill:#F85410;}
	.st174{clip-path:url(#SVGID_4_);fill:#F85310;}
	.st175{clip-path:url(#SVGID_4_);fill:#F85210;}
	.st176{clip-path:url(#SVGID_4_);fill:#F85110;}
	.st177{clip-path:url(#SVGID_4_);fill:#F85010;}
	.st178{clip-path:url(#SVGID_4_);fill:#F84F0F;}
	.st179{clip-path:url(#SVGID_4_);fill:#F84E0F;}
	.st180{clip-path:url(#SVGID_4_);fill:#F84D0F;}
	.st181{clip-path:url(#SVGID_4_);fill:#F84C0F;}
	.st182{clip-path:url(#SVGID_4_);fill:#F84B0F;}
	.st183{clip-path:url(#SVGID_4_);fill:#F84A0F;}
	.st184{clip-path:url(#SVGID_4_);fill:#F8490F;}
	.st185{clip-path:url(#SVGID_4_);fill:#F8480F;}
	.st186{clip-path:url(#SVGID_4_);fill:#F8470F;}
	.st187{clip-path:url(#SVGID_4_);fill:#F8460F;}
	.st188{clip-path:url(#SVGID_4_);fill:#F8450F;}
	.st189{clip-path:url(#SVGID_4_);fill:#F8440F;}
	.st190{clip-path:url(#SVGID_4_);fill:#F8430F;}
	.st191{clip-path:url(#SVGID_4_);fill:#F8420F;}
	.st192{clip-path:url(#SVGID_4_);fill:#F8410F;}
	.st193{clip-path:url(#SVGID_4_);fill:#F8400F;}
	.st194{clip-path:url(#SVGID_4_);fill:#F83F0F;}
	.st195{clip-path:url(#SVGID_4_);fill:#F83E0E;}
	.st196{clip-path:url(#SVGID_4_);fill:#F83D0E;}
	.st197{clip-path:url(#SVGID_4_);fill:#F83C0E;}
	.st198{clip-path:url(#SVGID_4_);fill:#F83B0E;}
	.st199{clip-path:url(#SVGID_4_);fill:#F73A0E;}
	.st200{clip-path:url(#SVGID_4_);fill:#F7390E;}
	.st201{clip-path:url(#SVGID_4_);fill:#F7380E;}
	.st202{clip-path:url(#SVGID_4_);fill:#F7370E;}
	.st203{clip-path:url(#SVGID_4_);fill:#F7360E;}
	.st204{clip-path:url(#SVGID_4_);fill:#F7340E;}
	.st205{clip-path:url(#SVGID_4_);fill:#F7330E;}
	.st206{clip-path:url(#SVGID_4_);fill:#F7320E;}
	.st207{clip-path:url(#SVGID_4_);fill:#F7310E;}
	.st208{clip-path:url(#SVGID_4_);fill:#F7300E;}
	.st209{clip-path:url(#SVGID_4_);fill:#F72F0E;}
	.st210{clip-path:url(#SVGID_4_);fill:#F72E0E;}
	.st211{clip-path:url(#SVGID_4_);fill:#F72D0E;}
	.st212{clip-path:url(#SVGID_4_);fill:#F72C0E;}
	.st213{clip-path:url(#SVGID_4_);fill:#F72B0E;}
	.st214{clip-path:url(#SVGID_4_);fill:#F72B0D;}
	.st215{clip-path:url(#SVGID_4_);fill:#F72A0D;}
	.st216{clip-path:url(#SVGID_4_);fill:#F7290D;}
	.st217{clip-path:url(#SVGID_4_);fill:#F7280D;}
	.st218{clip-path:url(#SVGID_4_);fill:#F7270D;}
	.st219{clip-path:url(#SVGID_4_);fill:#F7260D;}
</style>
<g>
	<g>
		<path class="st0" d="M21.001,14.196c-0.017,0-0.033,0.002-0.046,0.005c-0.013,0.003-0.025,0.007-0.034,0.013
			s-0.018,0.012-0.024,0.02c-0.007,0.008-0.012,0.016-0.016,0.026c-0.003,0.006-0.069,0.158-0.214,0.382
			c-0.145,0.224-0.368,0.521-0.684,0.817s-0.725,0.592-1.242,0.813c-0.517,0.221-1.141,0.369-1.887,0.369
			c-0.601,0-1.165-0.049-1.692-0.13c-0.527-0.082-1.019-0.197-1.476-0.329s-0.88-0.283-1.271-0.436s-0.75-0.308-1.078-0.45
			c-0.091-0.039-0.178-0.077-0.263-0.113s-0.166-0.071-0.245-0.104s-0.155-0.064-0.229-0.092s-0.145-0.055-0.214-0.079
			c-0.216-0.076-0.436-0.152-0.65-0.228s-0.425-0.149-0.623-0.219s-0.384-0.135-0.55-0.193s-0.313-0.11-0.432-0.152l-0.036-0.013
			l-0.036-0.013l-0.036-0.013l-0.036-0.013l-0.032-0.011l-0.032-0.011L7.89,14.032L7.858,14.02l-0.001-0.034l-0.001-0.034
			l-0.001-0.034l-0.001-0.034c-0.003-0.1,0-0.222,0.016-0.361s0.046-0.294,0.098-0.457s0.124-0.336,0.226-0.511
			s0.233-0.35,0.402-0.521c0.209-0.212,0.458-0.397,0.745-0.557s0.614-0.292,0.978-0.399s0.767-0.187,1.207-0.24
			s0.918-0.08,1.433-0.08c0.262,0,0.535,0.007,0.817,0.022s0.574,0.036,0.874,0.064s0.61,0.064,0.929,0.107s0.645,0.092,0.98,0.149
			c0,0,0.001,0,0.001,0c0,0,0.001,0,0.001,0s0.001,0,0.001,0c0,0,0.001,0,0.001,0c0.019,0,0.035-0.003,0.05-0.007
			c0.015-0.005,0.028-0.011,0.039-0.02s0.02-0.019,0.027-0.03c0.007-0.012,0.011-0.024,0.014-0.038
			c0.001-0.008,0.002-0.015,0.002-0.023c0-0.008-0.001-0.015-0.003-0.022s-0.004-0.015-0.007-0.022
			c-0.003-0.007-0.007-0.014-0.011-0.02c-0.004-0.006-0.01-0.012-0.015-0.017c-0.006-0.005-0.011-0.01-0.018-0.014
			s-0.013-0.007-0.02-0.01c-0.007-0.003-0.014-0.005-0.022-0.006c-0.34-0.058-0.673-0.108-0.996-0.152s-0.638-0.08-0.944-0.109
			s-0.602-0.051-0.888-0.065s-0.563-0.022-0.83-0.022c-0.527,0-1.018,0.028-1.47,0.085s-0.868,0.141-1.244,0.254
			S9.51,11.113,9.21,11.281s-0.56,0.365-0.781,0.588c-0.251,0.254-0.426,0.519-0.547,0.775s-0.189,0.501-0.226,0.717
			s-0.041,0.401-0.036,0.536s0.02,0.219,0.022,0.231c0.002,0.01,0.005,0.02,0.01,0.029s0.01,0.018,0.017,0.025
			s0.014,0.015,0.023,0.02s0.018,0.011,0.027,0.014c0,0,0.084,0.03,0.23,0.081s0.353,0.124,0.599,0.211s0.531,0.187,0.832,0.292
			s0.619,0.217,0.93,0.326c0.066,0.023,0.134,0.048,0.205,0.076s0.145,0.057,0.221,0.089s0.156,0.065,0.238,0.1
			s0.167,0.072,0.255,0.11c0.319,0.138,0.677,0.292,1.072,0.447s0.829,0.309,1.3,0.446s0.977,0.257,1.52,0.342
			c0.543,0.086,1.121,0.137,1.734,0.137c0.788,0,1.445-0.151,1.987-0.38c0.542-0.229,0.969-0.534,1.3-0.843s0.563-0.621,0.717-0.863
			c0.153-0.241,0.226-0.412,0.237-0.438c0.003-0.007,0.005-0.015,0.007-0.022s0.002-0.015,0.002-0.023s-0.001-0.015-0.002-0.023
			s-0.004-0.015-0.007-0.022s-0.007-0.014-0.011-0.02c-0.004-0.006-0.009-0.012-0.014-0.018s-0.011-0.01-0.017-0.014
			c-0.006-0.004-0.013-0.008-0.02-0.011c-0.003,0-0.006-0.001-0.009-0.001c-0.003,0-0.006,0-0.008-0.001s-0.005,0-0.008,0
			C21.006,14.197,21.003,14.196,21.001,14.196z"/>
	</g>
	<g>
		<path class="st0" d="M26.676,5.081c-0.001-0.001-0.011-0.02-0.031-0.053s-0.049-0.08-0.088-0.135s-0.086-0.12-0.142-0.19
			S26.294,4.56,26.22,4.486L26.195,4.46l-0.026-0.026l-0.026-0.026l-0.026-0.026l0.017-0.032l0.017-0.032l0.017-0.032l0.017-0.032
			c0.037-0.072,0.08-0.157,0.122-0.247c0.042-0.09,0.085-0.186,0.12-0.278s0.065-0.18,0.082-0.257
			c0.017-0.076,0.021-0.14,0.006-0.184c-0.004-0.011-0.008-0.022-0.014-0.032c-0.005-0.01-0.012-0.019-0.019-0.027
			s-0.015-0.016-0.024-0.022c-0.009-0.006-0.018-0.012-0.028-0.017c-0.005-0.003-0.011-0.005-0.016-0.007
			c-0.005-0.002-0.011-0.005-0.016-0.007s-0.011-0.004-0.016-0.006c-0.005-0.002-0.011-0.004-0.016-0.006l-0.041-0.014l-0.041-0.014
			l-0.041-0.014l-0.041-0.014l0.008-0.042l0.008-0.042l0.008-0.042l0.008-0.042c0.013-0.071,0.021-0.137,0.025-0.198
			s0.003-0.117-0.001-0.166s-0.014-0.091-0.027-0.125s-0.03-0.06-0.051-0.077c-0.007-0.005-0.014-0.01-0.021-0.014
			c-0.007-0.004-0.015-0.008-0.023-0.01s-0.016-0.005-0.024-0.006c-0.008-0.001-0.016-0.002-0.025-0.002
			c-0.007,0-0.014,0.001-0.022,0.002s-0.014,0.003-0.022,0.005s-0.014,0.005-0.022,0.008s-0.014,0.007-0.021,0.011
			c-0.006,0.004-0.012,0.007-0.018,0.011c-0.006,0.004-0.012,0.008-0.018,0.012s-0.012,0.009-0.018,0.013
			c-0.006,0.005-0.012,0.009-0.018,0.014l-0.091,0.073l-0.091,0.073l-0.091,0.073l-0.091,0.073l0.01-0.116l0.01-0.116l0.01-0.116
			l0.01-0.116c0.006-0.069,0.01-0.129,0.012-0.179c0.002-0.051,0.002-0.094-0.002-0.13s-0.01-0.066-0.021-0.091
			c-0.011-0.025-0.026-0.045-0.046-0.063c-0.007-0.006-0.015-0.012-0.023-0.017c-0.008-0.005-0.017-0.009-0.026-0.012
			S25.48,1.746,25.47,1.744c-0.009-0.002-0.019-0.002-0.029-0.002c-0.033,0.006-0.064,0.015-0.093,0.026s-0.057,0.024-0.084,0.039
			s-0.053,0.032-0.078,0.049s-0.051,0.037-0.078,0.057l-0.056,0.042l-0.056,0.042l-0.056,0.042l-0.056,0.042l-0.022-0.066
			l-0.022-0.066l-0.022-0.066l-0.022-0.066c-0.012-0.038-0.023-0.073-0.034-0.106s-0.022-0.063-0.033-0.091
			s-0.022-0.053-0.034-0.075s-0.025-0.041-0.039-0.058c-0.01-0.011-0.02-0.02-0.031-0.029s-0.023-0.015-0.036-0.021
			s-0.026-0.01-0.04-0.013S24.521,1.42,24.506,1.42c-0.004,0-0.009,0-0.013,0s-0.009,0.001-0.013,0.001s-0.009,0.001-0.013,0.002
			s-0.009,0.001-0.014,0.002c-0.03,0.006-0.063,0.018-0.096,0.035c-0.034,0.017-0.068,0.038-0.102,0.063s-0.066,0.053-0.096,0.083
			c-0.03,0.03-0.057,0.062-0.079,0.095L24.046,1.75L24.012,1.8l-0.034,0.049l-0.034,0.049l-0.043-0.042L23.86,1.814l-0.043-0.042
			L23.775,1.73c-0.009-0.009-0.018-0.016-0.028-0.023c-0.01-0.007-0.02-0.012-0.031-0.017s-0.022-0.008-0.033-0.01
			c-0.011-0.002-0.023-0.003-0.035-0.003c-0.054,0.008-0.105,0.032-0.151,0.067s-0.087,0.081-0.123,0.133s-0.067,0.108-0.091,0.165
			s-0.042,0.113-0.053,0.163c-0.005,0.025-0.01,0.052-0.013,0.078s-0.005,0.054-0.007,0.082s-0.001,0.057,0,0.086
			s0.003,0.059,0.006,0.09l0.004,0.042l0.004,0.042l0.004,0.042l0.004,0.042l-0.041,0.011l-0.041,0.011L23.11,2.743l-0.041,0.011
			c-0.137,0.037-0.279,0.085-0.423,0.143c-0.145,0.058-0.293,0.126-0.444,0.204s-0.306,0.166-0.463,0.264
			c-0.157,0.098-0.318,0.206-0.481,0.324c-0.217,0.157-0.44,0.32-0.658,0.485s-0.433,0.333-0.635,0.499s-0.391,0.332-0.558,0.492
			s-0.312,0.317-0.427,0.465c-0.03,0.039-0.061,0.08-0.093,0.122c-0.032,0.042-0.064,0.086-0.096,0.13s-0.066,0.091-0.1,0.138
			c-0.034,0.047-0.069,0.095-0.104,0.144c-0.102,0.142-0.21,0.291-0.323,0.443s-0.23,0.306-0.352,0.458s-0.248,0.302-0.377,0.444
			s-0.263,0.277-0.4,0.399c-0.191,0.17-0.413,0.346-0.661,0.513c-0.248,0.168-0.52,0.329-0.809,0.47s-0.596,0.265-0.912,0.357
			s-0.641,0.154-0.968,0.173c-0.045,0.003-0.09,0.005-0.136,0.007s-0.092,0.004-0.139,0.005s-0.094,0.002-0.142,0.003
			s-0.096,0.001-0.145,0.001c-0.278,0-0.578-0.012-0.884-0.037s-0.618-0.065-0.92-0.121s-0.593-0.128-0.858-0.219
			s-0.504-0.2-0.699-0.331C9.756,8.662,9.645,8.581,9.53,8.493S9.293,8.308,9.17,8.207S8.92,7.999,8.792,7.89
			S8.537,7.671,8.41,7.562C8.27,7.441,8.134,7.324,8.005,7.215S7.753,7.002,7.637,6.908S7.413,6.731,7.314,6.659
			s-0.19-0.132-0.271-0.176l-0.01-0.005l-0.01-0.005l-0.01-0.005l-0.01-0.005L6.998,6.452L6.991,6.443L6.985,6.434L6.978,6.425
			c-0.014-0.02-0.057-0.079-0.114-0.162s-0.129-0.19-0.201-0.304S6.518,5.721,6.458,5.606S6.35,5.383,6.329,5.299
			C6.299,5.181,6.241,5.063,6.158,4.951s-0.192-0.217-0.32-0.307S5.559,4.477,5.394,4.424S5.047,4.34,4.854,4.34
			c-0.092,0.002-0.175,0.01-0.25,0.022S4.46,4.393,4.4,4.416S4.286,4.467,4.239,4.501S4.151,4.573,4.117,4.616
			C4.087,4.654,4.062,4.695,4.041,4.74S4.004,4.833,3.992,4.886S3.973,4.994,3.97,5.055S3.969,5.179,3.975,5.247l0.004,0.042
			l0.004,0.042l0.004,0.042l0.004,0.042l-0.04,0.011l-0.04,0.011l-0.04,0.011l-0.04,0.011C3.783,5.469,3.741,5.484,3.701,5.502
			S3.624,5.539,3.588,5.562S3.52,5.611,3.49,5.639S3.431,5.699,3.406,5.732c-0.068,0.09-0.118,0.195-0.149,0.315
			S3.214,6.303,3.221,6.455s0.032,0.319,0.077,0.502s0.107,0.384,0.19,0.601l0.012,0.03l0.012,0.03l0.012,0.03l0.012,0.03
			L3.509,7.702L3.486,7.725L3.463,7.748L3.44,7.771C3.419,7.791,3.4,7.812,3.383,7.835S3.349,7.882,3.335,7.907
			S3.308,7.958,3.296,7.985C3.285,8.013,3.276,8.041,3.268,8.07c-0.023,0.086-0.03,0.179-0.022,0.278s0.032,0.203,0.071,0.314
			S3.41,8.888,3.48,9.01S3.635,9.26,3.735,9.392l0.017,0.023L3.77,9.439l0.017,0.023l0.017,0.023L3.794,9.511L3.782,9.538
			L3.771,9.565L3.76,9.591c-0.03,0.07-0.062,0.156-0.089,0.256s-0.05,0.212-0.062,0.334s-0.011,0.252,0.009,0.388
			s0.058,0.276,0.123,0.417l0.013,0.029l0.013,0.029l0.013,0.029l0.013,0.029l-0.021,0.024l-0.021,0.024l-0.021,0.024L3.71,11.2
			c-0.062,0.072-0.132,0.162-0.199,0.267s-0.13,0.225-0.177,0.356s-0.079,0.274-0.084,0.425s0.018,0.309,0.08,0.473l0.003,0.008
			l0.003,0.008l0.003,0.008l0.003,0.008l0,0.009l0,0.009l0,0.009l0,0.009c0.001,0.083,0.008,0.216,0.03,0.375
			s0.062,0.344,0.129,0.534s0.162,0.383,0.295,0.557s0.307,0.33,0.53,0.444l0.042,0.021l0.042,0.021l0.042,0.021l0.042,0.021
			l-0.019,0.043L4.458,14.87l-0.019,0.043L4.42,14.956c-0.055,0.125-0.114,0.278-0.164,0.447s-0.092,0.356-0.111,0.548
			s-0.016,0.39,0.023,0.583s0.114,0.381,0.238,0.554l0.012,0.016l0.012,0.016l0.012,0.016l0.012,0.016l-0.003,0.02l-0.003,0.02
			l-0.003,0.02l-0.003,0.02c-0.014,0.099-0.028,0.235-0.027,0.396c0,0.161,0.015,0.346,0.056,0.541s0.11,0.402,0.22,0.605
			c0.109,0.203,0.259,0.403,0.462,0.587c0.037,0.046,0.107,0.131,0.21,0.231c0.104,0.101,0.241,0.217,0.413,0.328
			s0.379,0.216,0.621,0.293c0.242,0.077,0.52,0.127,0.833,0.127c0.073,0,0.147-0.003,0.222-0.008
			c0.075-0.005,0.151-0.014,0.227-0.024s0.153-0.024,0.231-0.041c0.078-0.016,0.156-0.035,0.234-0.057
			c0.043-0.012,0.083-0.022,0.121-0.031s0.074-0.016,0.107-0.022s0.064-0.01,0.092-0.014s0.054-0.005,0.077-0.005l0.042,0l0.042,0
			l0.042,0l0.042,0l0.008,0.041l0.008,0.041l0.008,0.041l0.008,0.041c0.003,0.016,0.006,0.034,0.008,0.054
			c0.002,0.02,0.005,0.041,0.006,0.062s0.004,0.042,0.005,0.062c0.001,0.02,0.003,0.038,0.004,0.054
			c0.008,0.122,0.017,0.232,0.039,0.338s0.057,0.206,0.117,0.308s0.143,0.206,0.263,0.319s0.274,0.233,0.476,0.369
			c0.048,0.032,0.096,0.06,0.144,0.085c0.048,0.024,0.097,0.044,0.145,0.061s0.097,0.028,0.145,0.037
			c0.048,0.008,0.097,0.012,0.145,0.012c0.1,0,0.196-0.017,0.286-0.046s0.176-0.068,0.255-0.113s0.152-0.095,0.217-0.144
			s0.124-0.097,0.174-0.138c0.013-0.011,0.027-0.022,0.041-0.034s0.028-0.023,0.041-0.034s0.026-0.021,0.038-0.03
			s0.022-0.016,0.031-0.022l0.011-0.007l0.011-0.007l0.011-0.007l0.011-0.007l0.013-0.001l0.013-0.001l0.013-0.001l0.013-0.001
			c0.001,0,0.003,0,0.004,0s0.003,0,0.004,0s0.003,0,0.004,0s0.002,0,0.004,0c0.02,0,0.04,0.001,0.058,0.002
			c0.018,0.001,0.036,0.003,0.053,0.005s0.034,0.005,0.051,0.009c0.017,0.004,0.034,0.008,0.052,0.013l0.033,0.009l0.033,0.009
			l0.033,0.009l0.033,0.009l0.004,0.034l0.004,0.034l0.004,0.034l0.004,0.034c0.012,0.115,0.035,0.23,0.068,0.341
			c0.033,0.112,0.075,0.221,0.126,0.325s0.112,0.204,0.18,0.298c0.068,0.094,0.145,0.181,0.228,0.26l0.008,0.008l0.008,0.008
			l0.008,0.008l0.008,0.008l0.004,0.011l0.004,0.011l0.004,0.011l0.004,0.011c0.057,0.151,0.123,0.353,0.195,0.587
			c0.072,0.234,0.149,0.5,0.227,0.781s0.158,0.577,0.236,0.869c0.077,0.293,0.153,0.582,0.221,0.851l0.006,0.022l0.006,0.022
			l0.006,0.022l0.006,0.022l-0.013,0.019l-0.013,0.019l-0.013,0.019l-0.013,0.019c-0.031,0.045-0.074,0.106-0.127,0.174
			c-0.053,0.068-0.117,0.144-0.188,0.219s-0.149,0.148-0.232,0.212c-0.083,0.064-0.171,0.118-0.261,0.155
			c-0.007,0.003-0.014,0.006-0.02,0.011s-0.012,0.009-0.018,0.014s-0.01,0.011-0.015,0.017s-0.008,0.013-0.011,0.02
			c-0.003,0.007-0.005,0.014-0.007,0.022s-0.002,0.015-0.002,0.023s0.001,0.015,0.002,0.023s0.004,0.015,0.007,0.022
			c0.004,0.011,0.01,0.021,0.018,0.03s0.016,0.017,0.025,0.023s0.02,0.011,0.031,0.015s0.023,0.005,0.034,0.005
			c0.059-0.022,0.117-0.048,0.172-0.078s0.11-0.064,0.163-0.103s0.105-0.081,0.157-0.128s0.103-0.099,0.155-0.154l0.063-0.068
			l0.063-0.068l0.063-0.068l0.063-0.068l0.022,0.09l0.022,0.09l0.022,0.09l0.022,0.09l0.004,0.014l0.004,0.014l0.004,0.014
			l0.004,0.014c0.018,0.037,0.041,0.069,0.069,0.095s0.061,0.048,0.1,0.065s0.082,0.029,0.131,0.037s0.103,0.012,0.163,0.012
			c0.026,0,0.052-0.001,0.079-0.002s0.055-0.004,0.083-0.007s0.057-0.007,0.087-0.011s0.06-0.009,0.091-0.015l0.008-0.002
			l0.008-0.002l0.008-0.002l0.008-0.002l0.009,0.001l0.009,0.001l0.009,0.001l0.009,0.001c0.037,0.006,0.082,0.011,0.133,0.016
			c0.052,0.004,0.11,0.008,0.175,0.011s0.137,0.005,0.215,0.007c0.078,0.002,0.162,0.002,0.251,0.002c0.028,0,0.055,0,0.081,0
			s0.051,0,0.074-0.001s0.045,0,0.065-0.001s0.039-0.001,0.055-0.001l0,0l0,0l0,0l0,0l0.009-0.001l0.009-0.001l0.009-0.001
			l0.009-0.001l0.173,0.005l0.173,0.005l0.173,0.005l0.173,0.005c0.176,0.006,0.327,0.015,0.457,0.028s0.237,0.03,0.326,0.052
			s0.159,0.048,0.214,0.081s0.095,0.07,0.122,0.114c0.005,0.009,0.012,0.016,0.019,0.023c0.007,0.007,0.015,0.012,0.024,0.017
			s0.018,0.008,0.027,0.011c0.01,0.002,0.02,0.004,0.03,0.004c0.005,0,0.011,0,0.016-0.001s0.01-0.002,0.016-0.003
			s0.01-0.003,0.015-0.005s0.01-0.005,0.014-0.008c0.014-0.009,0.025-0.019,0.034-0.032c0.009-0.012,0.015-0.026,0.018-0.041
			s0.004-0.03,0.002-0.045c-0.002-0.015-0.008-0.03-0.016-0.043c-0.05-0.08-0.12-0.143-0.205-0.192s-0.187-0.085-0.3-0.112
			s-0.24-0.044-0.375-0.056s-0.279-0.018-0.428-0.024l-0.203-0.006l-0.203-0.006l-0.203-0.006l-0.203-0.006l-0.214-0.006
			l-0.214-0.006l-0.214-0.006l-0.214-0.006l0.195-0.089l0.195-0.089l0.195-0.089l0.195-0.089c0.158-0.072,0.318-0.133,0.47-0.183
			s0.295-0.089,0.42-0.12s0.23-0.052,0.306-0.067s0.123-0.021,0.13-0.022c0,0,0.001,0,0.001,0s0.001,0,0.001,0s0.001,0,0.001,0
			s0.001,0,0.001,0c0.037,0,0.07,0.001,0.1,0.004c0.029,0.002,0.055,0.006,0.079,0.011s0.044,0.011,0.063,0.019
			c0.019,0.008,0.036,0.017,0.051,0.027c0.008,0.006,0.016,0.011,0.024,0.015c0.007,0.004,0.014,0.007,0.021,0.009
			s0.012,0.003,0.018,0.004c0.005,0.001,0.01,0.001,0.014,0.001c0.009,0,0.019-0.001,0.027-0.003s0.017-0.005,0.025-0.009
			s0.016-0.009,0.023-0.015s0.013-0.013,0.019-0.02c0.005-0.006,0.009-0.013,0.012-0.02c0.003-0.007,0.006-0.014,0.008-0.021
			s0.003-0.015,0.003-0.022c0-0.008,0-0.015-0.001-0.023c-0.001-0.008-0.003-0.015-0.006-0.022c-0.003-0.007-0.006-0.014-0.01-0.02
			s-0.008-0.012-0.014-0.018c-0.005-0.006-0.011-0.011-0.017-0.015c-0.026-0.019-0.054-0.035-0.085-0.049s-0.065-0.026-0.102-0.035
			s-0.077-0.016-0.119-0.021s-0.089-0.007-0.138-0.007c-0.063,0-0.129,0.004-0.197,0.01s-0.139,0.016-0.21,0.027
			s-0.143,0.024-0.214,0.038c-0.071,0.014-0.141,0.028-0.208,0.042c-0.061,0.013-0.141,0.025-0.23,0.037
			c-0.089,0.012-0.187,0.022-0.285,0.032s-0.194,0.018-0.281,0.025c-0.086,0.007-0.163,0.013-0.218,0.017l-0.032,0.002l-0.032,0.002
			l-0.032,0.002l-0.032,0.002l-0.016-0.027l-0.016-0.027l-0.016-0.027l-0.016-0.027c-0.09-0.159-0.186-0.369-0.282-0.601
			s-0.19-0.486-0.278-0.734s-0.168-0.489-0.235-0.695s-0.12-0.377-0.153-0.484l-0.013-0.044l-0.013-0.044l-0.013-0.044l-0.013-0.044
			l0.042-0.017l0.042-0.017l0.042-0.017l0.042-0.017c0.098-0.04,0.195-0.091,0.288-0.151c0.093-0.06,0.182-0.129,0.263-0.204
			s0.156-0.155,0.221-0.239c0.064-0.084,0.119-0.171,0.16-0.258c0.037-0.08,0.076-0.15,0.117-0.215
			c0.041-0.064,0.083-0.123,0.128-0.178s0.091-0.107,0.14-0.159c0.049-0.052,0.101-0.103,0.155-0.158
			c0.018-0.018,0.037-0.037,0.056-0.056s0.038-0.038,0.057-0.058s0.039-0.04,0.058-0.06s0.039-0.042,0.06-0.064
			c0.023-0.025,0.047-0.05,0.07-0.075s0.047-0.049,0.07-0.073s0.047-0.048,0.07-0.071s0.046-0.047,0.069-0.07
			c0.054-0.055,0.109-0.11,0.163-0.166s0.108-0.114,0.161-0.173s0.105-0.121,0.156-0.185c0.051-0.065,0.101-0.132,0.148-0.203
			c0.028-0.041,0.059-0.078,0.094-0.11c0.035-0.032,0.074-0.061,0.115-0.088s0.086-0.051,0.133-0.075
			c0.047-0.024,0.096-0.047,0.147-0.071c0.057-0.027,0.116-0.055,0.176-0.085c0.06-0.031,0.12-0.064,0.179-0.103
			s0.118-0.082,0.175-0.132c0.057-0.05,0.111-0.108,0.163-0.174c0.074-0.095,0.17-0.189,0.285-0.285
			c0.115-0.096,0.25-0.193,0.4-0.292s0.318-0.203,0.499-0.31c0.181-0.107,0.375-0.219,0.581-0.337
			c0.042-0.024,0.084-0.048,0.127-0.073s0.086-0.05,0.129-0.075s0.088-0.051,0.132-0.077s0.089-0.052,0.134-0.078
			c0.258-0.151,0.487-0.353,0.694-0.591c0.207-0.238,0.391-0.512,0.559-0.806s0.32-0.609,0.461-0.929
			c0.141-0.32,0.272-0.644,0.399-0.958l0.031-0.076l0.031-0.076l0.031-0.076l0.031-0.076c0.084-0.205,0.153-0.433,0.211-0.676
			s0.104-0.502,0.143-0.771s0.07-0.548,0.098-0.83s0.051-0.568,0.075-0.852c0.015-0.178,0.029-0.352,0.045-0.522
			c0.015-0.17,0.031-0.336,0.048-0.497s0.036-0.318,0.056-0.47c0.021-0.152,0.044-0.299,0.07-0.441
			c0.033-0.179,0.07-0.381,0.116-0.594s0.1-0.436,0.166-0.659c0.067-0.222,0.146-0.444,0.241-0.652s0.208-0.403,0.341-0.573
			l0.03-0.038l0.03-0.038l0.03-0.038l0.03-0.038l0.039,0.028l0.039,0.028l0.039,0.028l0.039,0.028
			c0.039,0.028,0.077,0.049,0.113,0.066c0.036,0.017,0.071,0.029,0.103,0.038s0.062,0.014,0.087,0.018
			C24.292,6.999,24.315,7,24.333,7c0.087-0.001,0.171-0.02,0.249-0.052s0.151-0.077,0.216-0.13s0.123-0.115,0.172-0.181
			s0.088-0.136,0.116-0.205c0.007-0.018,0.015-0.04,0.021-0.069c0.007-0.029,0.013-0.064,0.017-0.107s0.008-0.093,0.008-0.152
			c0.001-0.059-0.001-0.127-0.005-0.206l-0.002-0.03l-0.002-0.03l-0.002-0.03l-0.002-0.03l0.026-0.016l0.026-0.016l0.026-0.016
			l0.026-0.016c0.022-0.013,0.043-0.026,0.064-0.038s0.041-0.024,0.06-0.036s0.038-0.022,0.055-0.032s0.034-0.02,0.05-0.029
			l0.029-0.017l0.029-0.017l0.029-0.017l0.029-0.017l0.026,0.02l0.026,0.02l0.026,0.02l0.026,0.02
			c0.043,0.033,0.082,0.064,0.119,0.094c0.036,0.03,0.069,0.058,0.099,0.085s0.057,0.053,0.08,0.077
			c0.024,0.024,0.044,0.048,0.062,0.07c0.006,0.007,0.012,0.013,0.019,0.018s0.014,0.01,0.022,0.014s0.016,0.007,0.025,0.008
			s0.017,0.003,0.026,0.003c0.005,0,0.01,0,0.015-0.001c0.006-0.001,0.012-0.002,0.018-0.004s0.013-0.004,0.019-0.008
			c0.007-0.003,0.013-0.008,0.02-0.013c0.006-0.005,0.012-0.01,0.016-0.016c0.005-0.006,0.009-0.012,0.013-0.019
			s0.007-0.014,0.009-0.021c0.002-0.007,0.004-0.015,0.005-0.022c0.001-0.008,0.001-0.015,0-0.023s-0.002-0.015-0.004-0.022
			s-0.005-0.014-0.008-0.021s-0.008-0.013-0.013-0.019c-0.039-0.049-0.09-0.102-0.153-0.161c-0.063-0.058-0.138-0.121-0.223-0.187
			s-0.183-0.137-0.29-0.211c-0.107-0.074-0.225-0.152-0.353-0.232L25.031,4.88l-0.165-0.104l-0.165-0.104l-0.165-0.104l0.194,0.012
			l0.194,0.012l0.194,0.012l0.194,0.012c0.198,0.012,0.368,0.053,0.513,0.108s0.263,0.124,0.358,0.192s0.164,0.136,0.212,0.187
			s0.072,0.088,0.076,0.093c0.006,0.009,0.013,0.017,0.02,0.024s0.015,0.013,0.024,0.018s0.018,0.008,0.027,0.011
			s0.019,0.004,0.029,0.004c0.005,0,0.01,0,0.016-0.001c0.005-0.001,0.01-0.002,0.015-0.003s0.01-0.003,0.015-0.005
			c0.005-0.002,0.009-0.004,0.014-0.007c0.013-0.008,0.025-0.018,0.034-0.03s0.015-0.025,0.019-0.039s0.005-0.029,0.004-0.043
			S26.683,5.095,26.676,5.081z M14.507,26.273l0.067,0.037l0.067,0.037l0.067,0.037l0.067,0.037l-0.051,0.055l-0.051,0.055
			l-0.051,0.055l-0.051,0.055c-0.014,0.011-0.029,0.022-0.043,0.034s-0.028,0.023-0.042,0.035s-0.027,0.024-0.041,0.036
			s-0.027,0.024-0.04,0.037l-0.011,0.01l-0.011,0.01l-0.011,0.01l-0.011,0.01l-0.015,0.003l-0.015,0.003l-0.015,0.003l-0.015,0.003
			c-0.028,0.005-0.057,0.01-0.085,0.014c-0.029,0.004-0.057,0.007-0.086,0.01s-0.056,0.005-0.082,0.006
			c-0.026,0.001-0.051,0.002-0.075,0.002c-0.006,0-0.013,0-0.019,0s-0.012,0-0.018,0s-0.011,0-0.017-0.001s-0.011-0.001-0.016-0.001
			l-0.036-0.003l-0.036-0.003l-0.036-0.003l-0.036-0.003l-0.009-0.035l-0.009-0.035l-0.009-0.035l-0.009-0.035
			c-0.029-0.118-0.077-0.308-0.137-0.543s-0.132-0.515-0.21-0.814s-0.163-0.616-0.249-0.925s-0.171-0.61-0.252-0.875l-0.024-0.08
			l-0.024-0.08l-0.024-0.08l-0.024-0.08l0.082,0.016l0.082,0.016l0.082,0.016l0.082,0.016c0.009,0.002,0.019,0.004,0.028,0.005
			c0.009,0.001,0.019,0.003,0.028,0.004s0.019,0.002,0.028,0.003c0.009,0.001,0.019,0.002,0.029,0.002l0.034,0.003l0.034,0.003
			l0.034,0.003l0.034,0.003l0.01,0.033l0.01,0.033l0.01,0.033l0.01,0.033c0.039,0.129,0.102,0.334,0.181,0.578
			s0.174,0.527,0.277,0.811s0.214,0.571,0.325,0.821S14.404,26.13,14.507,26.273z M25.154,4.376
			c-0.064,0.001-0.13,0.006-0.197,0.012s-0.134,0.017-0.203,0.029s-0.138,0.027-0.208,0.045s-0.141,0.038-0.213,0.061
			c-0.011,0.004-0.021,0.009-0.031,0.015c-0.009,0.006-0.018,0.014-0.025,0.023s-0.013,0.018-0.017,0.029
			c-0.004,0.01-0.007,0.022-0.008,0.033c-0.001,0.012,0,0.023,0.002,0.034c0.002,0.011,0.006,0.022,0.011,0.032
			s0.012,0.019,0.02,0.027c0.008,0.008,0.017,0.015,0.027,0.021c0.027,0.015,0.055,0.03,0.085,0.047
			c0.029,0.016,0.059,0.033,0.09,0.051s0.063,0.036,0.095,0.054c0.032,0.019,0.065,0.038,0.098,0.057l0.019,0.011l0.019,0.011
			l0.019,0.011l0.019,0.011l0.004,0.022l0.004,0.022l0.004,0.022l0.004,0.022c0.011,0.059,0.022,0.117,0.032,0.175
			c0.01,0.058,0.019,0.116,0.028,0.172s0.016,0.112,0.023,0.166C24.868,5.648,24.874,5.7,24.88,5.75
			c0.011,0.111,0.017,0.201,0.02,0.273s0.001,0.129-0.002,0.172S24.89,6.27,24.885,6.292s-0.01,0.036-0.014,0.046
			c-0.021,0.052-0.05,0.104-0.086,0.154c-0.036,0.05-0.078,0.096-0.124,0.137s-0.098,0.074-0.152,0.098
			c-0.054,0.024-0.112,0.038-0.17,0.04c-0.066,0-0.126-0.016-0.181-0.044c-0.055-0.028-0.104-0.067-0.148-0.114
			s-0.083-0.099-0.117-0.155c-0.034-0.055-0.063-0.113-0.088-0.167c-0.064-0.142-0.096-0.272-0.106-0.387s0-0.216,0.02-0.3
			s0.048-0.152,0.074-0.201s0.048-0.08,0.056-0.09c0.012-0.014,0.02-0.029,0.025-0.044s0.007-0.031,0.006-0.046
			s-0.005-0.03-0.012-0.044s-0.016-0.026-0.029-0.036c-0.007-0.006-0.014-0.01-0.02-0.014s-0.013-0.006-0.02-0.008
			s-0.013-0.003-0.019-0.004s-0.011-0.001-0.016-0.001c-0.009,0-0.017,0.001-0.025,0.003s-0.016,0.004-0.024,0.008
			S23.7,5.13,23.693,5.135s-0.013,0.011-0.018,0.017c-0.004,0.005-0.032,0.039-0.066,0.098s-0.075,0.144-0.105,0.251
			s-0.049,0.236-0.04,0.384s0.046,0.315,0.128,0.497l0.013,0.029l0.013,0.029l0.013,0.029l0.013,0.029l-0.013,0.041L23.62,6.584
			l-0.013,0.041l-0.013,0.041c-0.159,0.18-0.293,0.389-0.405,0.613s-0.204,0.463-0.28,0.705c-0.076,0.241-0.137,0.485-0.188,0.716
			s-0.091,0.452-0.128,0.647c-0.027,0.145-0.05,0.295-0.071,0.449s-0.04,0.313-0.057,0.475s-0.033,0.328-0.048,0.497
			s-0.029,0.341-0.044,0.515c-0.024,0.284-0.047,0.569-0.075,0.849s-0.058,0.556-0.096,0.82s-0.083,0.518-0.139,0.755
			s-0.122,0.456-0.202,0.653l-0.031,0.077l-0.031,0.077L21.77,14.59l-0.031,0.077c-0.123,0.305-0.251,0.621-0.387,0.932
			c-0.137,0.31-0.283,0.616-0.444,0.901s-0.337,0.549-0.532,0.777c-0.196,0.228-0.411,0.421-0.652,0.562l-0.13,0.075l-0.13,0.075
			l-0.13,0.075l-0.13,0.075c-0.211,0.121-0.411,0.236-0.597,0.347c-0.186,0.111-0.359,0.217-0.515,0.321s-0.296,0.206-0.417,0.308
			c-0.121,0.102-0.223,0.203-0.304,0.307c-0.043,0.055-0.089,0.103-0.137,0.145c-0.048,0.042-0.098,0.079-0.15,0.112
			s-0.104,0.062-0.158,0.089c-0.053,0.027-0.107,0.053-0.16,0.078c-0.054,0.025-0.109,0.051-0.163,0.079
			c-0.054,0.028-0.107,0.057-0.157,0.09s-0.099,0.07-0.144,0.112c-0.045,0.042-0.086,0.09-0.123,0.145
			c-0.045,0.067-0.091,0.13-0.139,0.191c-0.048,0.06-0.097,0.118-0.147,0.174s-0.102,0.111-0.154,0.165
			c-0.052,0.054-0.106,0.108-0.16,0.163c-0.024,0.024-0.048,0.048-0.071,0.072c-0.024,0.024-0.048,0.048-0.071,0.073
			s-0.047,0.049-0.071,0.074c-0.024,0.025-0.047,0.05-0.071,0.076c-0.017,0.019-0.034,0.037-0.051,0.054s-0.034,0.035-0.05,0.052
			s-0.033,0.034-0.049,0.05s-0.032,0.032-0.048,0.048c-0.063,0.063-0.122,0.122-0.178,0.181c-0.056,0.059-0.109,0.118-0.16,0.18
			s-0.098,0.128-0.144,0.2c-0.046,0.072-0.089,0.151-0.131,0.24c-0.039,0.084-0.101,0.177-0.179,0.27
			c-0.078,0.093-0.173,0.185-0.278,0.266s-0.222,0.153-0.345,0.203c-0.122,0.051-0.25,0.081-0.378,0.081
			c-0.02,0-0.04-0.001-0.06-0.002s-0.04-0.004-0.059-0.007s-0.039-0.007-0.058-0.012s-0.038-0.01-0.056-0.016
			c-0.153-0.051-0.295-0.131-0.423-0.233c-0.128-0.102-0.24-0.226-0.334-0.366s-0.168-0.296-0.219-0.461
			c-0.051-0.165-0.079-0.34-0.079-0.517c0-0.011-0.002-0.022-0.005-0.032s-0.007-0.02-0.013-0.029s-0.012-0.017-0.02-0.025
			s-0.017-0.013-0.026-0.018c-0.011-0.005-0.033-0.016-0.064-0.029s-0.07-0.029-0.116-0.043s-0.097-0.029-0.151-0.039
			s-0.112-0.017-0.17-0.017c-0.012,0-0.023,0-0.034,0.001s-0.022,0.001-0.033,0.003s-0.022,0.003-0.032,0.004
			s-0.021,0.004-0.031,0.006c-0.022,0.005-0.044,0.013-0.067,0.024c-0.023,0.011-0.046,0.025-0.07,0.042s-0.049,0.036-0.076,0.057
			c-0.027,0.021-0.055,0.045-0.085,0.07c-0.061,0.051-0.122,0.1-0.184,0.146s-0.124,0.087-0.188,0.123s-0.129,0.065-0.197,0.085
			s-0.137,0.032-0.21,0.032c-0.038,0-0.076-0.003-0.114-0.009c-0.038-0.006-0.076-0.016-0.113-0.028s-0.075-0.028-0.113-0.047
			c-0.038-0.019-0.076-0.041-0.114-0.067c-0.18-0.121-0.318-0.226-0.424-0.323s-0.18-0.186-0.232-0.273s-0.083-0.173-0.103-0.266
			s-0.027-0.19-0.034-0.301c-0.004-0.062-0.008-0.12-0.015-0.173c-0.006-0.054-0.015-0.103-0.028-0.148s-0.03-0.085-0.052-0.121
			c-0.023-0.036-0.051-0.066-0.087-0.092c-0.017-0.012-0.035-0.023-0.055-0.032c-0.02-0.009-0.041-0.017-0.063-0.023
			s-0.046-0.011-0.072-0.013c-0.025-0.003-0.052-0.004-0.081-0.004c-0.038,0-0.077,0.003-0.116,0.007s-0.08,0.011-0.119,0.019
			S8.228,19.95,8.19,19.96s-0.074,0.019-0.108,0.028c-0.072,0.02-0.144,0.037-0.216,0.052s-0.142,0.027-0.213,0.037
			s-0.14,0.017-0.21,0.022s-0.138,0.008-0.205,0.008c-0.311,0-0.583-0.053-0.817-0.132s-0.428-0.185-0.585-0.293
			s-0.276-0.216-0.357-0.299s-0.125-0.143-0.131-0.152c-0.235-0.209-0.395-0.44-0.501-0.67c-0.107-0.23-0.16-0.46-0.184-0.665
			s-0.018-0.386-0.005-0.518c0.013-0.132,0.032-0.217,0.035-0.229c0.002-0.009,0.003-0.019,0.003-0.028s-0.001-0.019-0.003-0.028
			s-0.005-0.018-0.01-0.026s-0.01-0.016-0.016-0.023c-0.18-0.204-0.266-0.445-0.292-0.692c-0.027-0.247,0.006-0.501,0.062-0.73
			s0.136-0.436,0.203-0.589s0.123-0.251,0.132-0.266c0.005-0.008,0.008-0.016,0.011-0.025s0.004-0.017,0.005-0.026
			s0-0.018-0.001-0.027s-0.004-0.017-0.007-0.026c-0.003-0.008-0.008-0.016-0.013-0.023s-0.011-0.014-0.017-0.02
			s-0.014-0.011-0.021-0.015s-0.016-0.008-0.024-0.01c-0.23-0.065-0.416-0.178-0.566-0.32s-0.263-0.313-0.348-0.494
			s-0.14-0.371-0.173-0.552s-0.045-0.352-0.042-0.495c0-0.005,0-0.01,0-0.014s-0.001-0.009-0.002-0.013S3.572,12.7,3.571,12.696
			s-0.003-0.008-0.004-0.012c-0.079-0.183-0.095-0.362-0.074-0.529s0.08-0.321,0.152-0.454S3.8,11.454,3.871,11.37
			S4,11.231,4.02,11.212c0.012-0.011,0.022-0.022,0.029-0.035s0.012-0.026,0.014-0.04s0.002-0.027-0.001-0.041
			s-0.008-0.027-0.016-0.039c-0.117-0.182-0.176-0.367-0.199-0.541s-0.01-0.339,0.018-0.482s0.071-0.264,0.109-0.351
			s0.069-0.141,0.074-0.149C4.053,9.524,4.058,9.512,4.061,9.5s0.004-0.024,0.003-0.036S4.06,9.441,4.056,9.43
			S4.045,9.408,4.038,9.399c-0.135-0.165-0.24-0.313-0.321-0.445S3.58,8.704,3.542,8.602S3.485,8.411,3.479,8.335
			S3.478,8.196,3.49,8.144c0.006-0.026,0.014-0.051,0.025-0.075s0.023-0.047,0.037-0.069C3.566,7.977,3.582,7.957,3.6,7.938
			s0.037-0.036,0.058-0.051l0.004-0.005l0.004-0.005l0.004-0.005l0.004-0.005l0.013-0.005l0.013-0.005l0.013-0.005l0.013-0.005
			c0.007-0.003,0.014-0.006,0.021-0.01s0.013-0.009,0.018-0.014S3.775,7.812,3.78,7.805s0.008-0.013,0.011-0.02
			C3.794,7.778,3.796,7.77,3.798,7.763S3.8,7.747,3.8,7.74S3.8,7.724,3.798,7.716S3.794,7.701,3.791,7.694
			C3.676,7.418,3.596,7.179,3.542,6.974s-0.08-0.377-0.087-0.521s0.006-0.261,0.03-0.355s0.061-0.166,0.101-0.22
			C3.623,5.828,3.666,5.79,3.711,5.76s0.091-0.051,0.136-0.067s0.089-0.024,0.127-0.029s0.071-0.006,0.095-0.006h0.004h0.004H4.08
			h0.004l0.012,0.001l0.012,0.001L4.119,5.66l0.012,0.001c0.01,0,0.02-0.001,0.029-0.003s0.017-0.004,0.025-0.007
			s0.015-0.007,0.022-0.012s0.013-0.01,0.018-0.016c0.006-0.007,0.012-0.015,0.016-0.023s0.008-0.017,0.01-0.025
			s0.004-0.018,0.004-0.027S4.254,5.53,4.252,5.521c-0.02-0.095-0.035-0.181-0.043-0.259s-0.011-0.147-0.007-0.21
			s0.014-0.117,0.03-0.165S4.27,4.796,4.298,4.76C4.322,4.73,4.35,4.704,4.383,4.682S4.454,4.64,4.497,4.624s0.09-0.027,0.143-0.036
			s0.11-0.014,0.173-0.015c0,0,0,0,0,0s0,0,0,0s0,0,0,0s0,0,0,0c0.189,0,0.36,0.029,0.51,0.078s0.28,0.117,0.389,0.195
			S5.909,5.012,5.974,5.1s0.108,0.176,0.128,0.255c0.019,0.077,0.056,0.17,0.106,0.273s0.111,0.215,0.18,0.329
			s0.144,0.232,0.22,0.345s0.153,0.222,0.225,0.32c0.003,0.004,0.006,0.007,0.009,0.011s0.007,0.007,0.01,0.01
			S6.86,6.648,6.864,6.651s0.008,0.005,0.013,0.007c0.072,0.035,0.159,0.09,0.259,0.16s0.21,0.155,0.329,0.251
			s0.247,0.203,0.38,0.316s0.271,0.232,0.412,0.353C8.385,7.849,8.515,7.96,8.644,8.07c0.129,0.11,0.257,0.218,0.382,0.32
			s0.248,0.201,0.366,0.291S9.623,8.853,9.73,8.924c0.176,0.117,0.389,0.222,0.632,0.315s0.518,0.171,0.816,0.235
			s0.62,0.114,0.96,0.147s0.697,0.051,1.065,0.051c0.052,0,0.103,0,0.154-0.001s0.101-0.002,0.15-0.003s0.098-0.003,0.147-0.005
			s0.096-0.004,0.142-0.007c0.342-0.02,0.682-0.084,1.011-0.18s0.649-0.223,0.951-0.371c0.302-0.147,0.585-0.314,0.843-0.489
			s0.489-0.356,0.687-0.533c0.141-0.126,0.279-0.265,0.412-0.41s0.261-0.298,0.385-0.451s0.242-0.31,0.355-0.462
			s0.22-0.301,0.321-0.441c0.036-0.05,0.072-0.1,0.106-0.148s0.069-0.095,0.102-0.141s0.066-0.09,0.098-0.133
			s0.063-0.084,0.094-0.124c0.125-0.161,0.294-0.337,0.486-0.516s0.407-0.36,0.622-0.534s0.431-0.338,0.626-0.483
			s0.367-0.27,0.497-0.363c0.189-0.136,0.374-0.259,0.556-0.369c0.181-0.109,0.359-0.205,0.531-0.286s0.339-0.149,0.499-0.201
			c0.16-0.052,0.314-0.09,0.46-0.112c0.014-0.002,0.028-0.004,0.042-0.006s0.028-0.003,0.043-0.004s0.029-0.002,0.043-0.002
			s0.029-0.001,0.044-0.001c0.112,0,0.229,0.015,0.344,0.04c0.116,0.025,0.23,0.059,0.339,0.098s0.21,0.082,0.299,0.124
			c0.089,0.042,0.167,0.084,0.226,0.119c0.064,0.034,0.127,0.1,0.187,0.182c0.06,0.082,0.116,0.178,0.164,0.271
			s0.089,0.183,0.118,0.251c0.029,0.068,0.047,0.115,0.05,0.122l0.025,0.066l0.025,0.066l0.025,0.066l0.025,0.066l-0.071,0.002
			l-0.071,0.002l-0.071,0.002L25.154,4.376z M25.935,4.231l-0.046-0.027l-0.046-0.027L25.796,4.15L25.75,4.123
			c-0.017-0.01-0.032-0.019-0.045-0.027s-0.024-0.014-0.033-0.02s-0.018-0.01-0.026-0.015s-0.015-0.008-0.022-0.011l-0.017-0.008
			l-0.017-0.008l-0.017-0.008l-0.017-0.008l-0.007-0.018L25.539,3.98l-0.007-0.018l-0.007-0.018c-0.044-0.11-0.091-0.213-0.14-0.307
			s-0.099-0.179-0.149-0.254s-0.102-0.138-0.152-0.19s-0.1-0.091-0.148-0.116c-0.004-0.002-0.048-0.028-0.12-0.066
			s-0.175-0.087-0.296-0.137s-0.262-0.1-0.412-0.138s-0.309-0.065-0.467-0.069l-0.045-0.001L23.55,2.666l-0.045-0.001l-0.045-0.001
			l-0.003-0.045l-0.003-0.045l-0.003-0.045l-0.003-0.045c-0.001-0.014-0.002-0.03-0.003-0.048s-0.001-0.036,0-0.056
			s0.002-0.041,0.004-0.062s0.006-0.043,0.01-0.065c0.002-0.01,0.004-0.019,0.007-0.029c0.003-0.01,0.005-0.019,0.008-0.029
			s0.006-0.019,0.01-0.028c0.003-0.009,0.007-0.019,0.011-0.028l0.02-0.048l0.02-0.048l0.02-0.048l0.02-0.048l0.047,0.021
			l0.047,0.021l0.047,0.021l0.047,0.021c0.012,0.006,0.025,0.011,0.038,0.015c0.013,0.004,0.026,0.008,0.04,0.011
			s0.027,0.005,0.042,0.006c0.014,0.001,0.029,0.002,0.043,0.002l0.011-0.001l0.011-0.001l0.011-0.001l0.011-0.001
			c0.03-0.003,0.058-0.008,0.085-0.017s0.052-0.019,0.075-0.031s0.043-0.027,0.061-0.044s0.032-0.035,0.043-0.055l0.055-0.101
			l0.055-0.101l0.055-0.101l0.055-0.101l0.036,0.11l0.036,0.11l0.036,0.11l0.036,0.11c0.013,0.04,0.026,0.076,0.039,0.109
			c0.013,0.033,0.027,0.063,0.041,0.09s0.03,0.05,0.047,0.069c0.017,0.02,0.036,0.036,0.056,0.049
			c0.008,0.005,0.016,0.009,0.024,0.013s0.016,0.007,0.024,0.009s0.016,0.004,0.024,0.005s0.016,0.002,0.024,0.002
			c0.013,0,0.026-0.001,0.04-0.004c0.014-0.003,0.028-0.007,0.044-0.012s0.031-0.012,0.048-0.02
			c0.017-0.008,0.034-0.018,0.053-0.028l0.078-0.046l0.078-0.046l0.078-0.046l0.078-0.046l-0.002,0.09l-0.002,0.09l-0.002,0.09
			L25.36,2.41c-0.001,0.039-0.001,0.074,0.001,0.107c0.002,0.033,0.005,0.063,0.01,0.091s0.011,0.053,0.018,0.076
			c0.008,0.023,0.017,0.044,0.027,0.063c0.007,0.013,0.016,0.026,0.026,0.039c0.01,0.013,0.022,0.026,0.036,0.038
			s0.03,0.023,0.047,0.032c0.018,0.009,0.038,0.016,0.06,0.019c0.004,0,0.007,0,0.011,0.001c0.003,0,0.007,0,0.01,0s0.006,0,0.009,0
			c0.003,0,0.006,0,0.009,0c0.009,0,0.018,0,0.025-0.001s0.014-0.001,0.02-0.002s0.012-0.002,0.017-0.003s0.011-0.003,0.016-0.004
			l0.079-0.025l0.079-0.025l0.079-0.025l0.079-0.025l-0.015,0.082l-0.015,0.082l-0.015,0.082L25.96,3.092
			c-0.002,0.012-0.003,0.023-0.004,0.035c0,0.011,0,0.023,0.002,0.033s0.004,0.022,0.007,0.032c0.003,0.01,0.008,0.02,0.013,0.03
			c0.006,0.012,0.014,0.023,0.023,0.033s0.019,0.02,0.03,0.029S26.055,3.3,26.07,3.308s0.03,0.015,0.048,0.022l0.046,0.018
			l0.046,0.018l0.046,0.018l0.046,0.018l-0.018,0.046l-0.018,0.046L26.25,3.541l-0.018,0.046c-0.011,0.029-0.024,0.062-0.039,0.096
			s-0.03,0.071-0.048,0.109s-0.036,0.078-0.055,0.119s-0.04,0.083-0.061,0.126l-0.024,0.048l-0.024,0.048l-0.024,0.048L25.935,4.231
			z"/>
	</g>
</g>
<g>
	<path class="st0" d="M29.819,29.907h-7.432h-7.432H7.523H0.091v-7.432v-7.432V7.611V0.179h7.432h7.432h7.432h7.432v7.432v7.432
		v7.432V29.907z M0.341,29.657h7.307h7.307h7.307h7.307V22.35v-7.307V7.736V0.429h-7.307h-7.307H7.648H0.341v7.307v7.307v7.307
		V29.657z"/>
</g>
</svg>
