<?xml version="1.0" encoding="utf-8"?>
<!-- Generator: Adobe Illustrator 24.1.0, SVG Export Plug-In . SVG Version: 6.00 Build 0)  -->
<svg version="1.1" id="Layer_1" xmlns="http://www.w3.org/2000/svg" xmlns:xlink="http://www.w3.org/1999/xlink" x="0px" y="0px"
	 viewBox="0 0 126 26.3" style="enable-background:new 0 0 126 26.3;" xml:space="preserve">
<path d="M13.5,8.8c-0.8,0-1.4,0.5-1.8,1.4C11.2,11.1,11,12.4,11,14c0,3.4,0.9,5.1,2.6,5.1c0.8,0,1.6-0.2,2.4-0.7v2.4
	c-0.7,0.5-1.6,0.7-2.7,0.7c-1.6,0-2.9-0.7-3.8-2c-0.9-1.3-1.3-3.2-1.3-5.5c0-2.4,0.5-4.2,1.4-5.5c0.9-1.3,2.2-2,3.8-2
	c0.5,0,1,0.1,1.5,0.2c0.5,0.1,1,0.4,1.6,0.8l-0.9,2.2c-0.3-0.2-0.6-0.4-1-0.6C14.3,8.9,13.9,8.8,13.5,8.8z M20.7,21.3H18V10.1h2.7
	V21.3z M17.9,7.2c0-0.4,0.1-0.8,0.4-1c0.3-0.3,0.6-0.4,1.1-0.4c0.4,0,0.8,0.1,1,0.4c0.3,0.3,0.4,0.6,0.4,1c0,0.5-0.1,0.8-0.4,1.1
	c-0.3,0.2-0.6,0.4-1,0.4c-0.4,0-0.8-0.1-1.1-0.4C18,8,17.9,7.7,17.9,7.2z M27.7,9.9c0.3,0,0.6,0,1,0.1l-0.3,2.6
	c-0.2-0.1-0.4-0.1-0.7-0.1c-0.6,0-1.1,0.3-1.5,0.8c-0.3,0.5-0.5,1.2-0.5,2.2v5.7H23V10.1h2.2l0.3,1.7h0.1c0.3-0.7,0.6-1.2,1-1.5
	C26.9,10.1,27.3,9.9,27.7,9.9z M33.5,21.5c-1.3,0-2.3-0.5-3-1.4c-0.7-1-1-2.4-1-4.3c0-2,0.3-3.4,1-4.4c0.7-1,1.7-1.4,3-1.4
	c0.4,0,0.8,0.1,1.3,0.2c0.5,0.1,0.9,0.3,1.2,0.5l-0.8,2.1c-0.6-0.3-1-0.5-1.5-0.5c-0.6,0-1,0.3-1.2,0.9c-0.2,0.6-0.4,1.5-0.4,2.6
	c0,1.2,0.1,2,0.4,2.6c0.2,0.6,0.6,0.8,1.2,0.8c0.7,0,1.4-0.2,2.1-0.7v2.3C35.2,21.3,34.4,21.5,33.5,21.5z M42.9,21.3l-0.5-1.5h-0.1
	c-0.4,0.7-0.8,1.1-1.2,1.3c-0.4,0.2-0.9,0.4-1.6,0.4c-0.8,0-1.5-0.3-1.9-0.9c-0.5-0.6-0.7-1.5-0.7-2.6c0-1.2,0.3-2,1-2.6
	c0.6-0.6,1.6-0.9,2.9-0.9l1.5-0.1v-0.8c0-1-0.4-1.6-1.3-1.6c-0.7,0-1.4,0.3-2.3,0.8L37.6,11c1.1-0.7,2.3-1,3.6-1
	c1.2,0,2.1,0.3,2.7,1c0.6,0.7,0.9,1.6,0.9,2.9v7.5H42.9z M40.6,19.4c0.5,0,0.9-0.2,1.2-0.6c0.3-0.4,0.4-1,0.4-1.7v-0.9l-0.8,0
	c-0.6,0-1.1,0.2-1.3,0.5c-0.3,0.3-0.4,0.8-0.4,1.4C39.6,18.9,40,19.4,40.6,19.4z M50,21.5c-1,0-1.8-0.5-2.4-1.5
	c-0.6-1-0.9-2.4-0.9-4.2c0-1.8,0.3-3.2,0.9-4.3c0.6-1,1.4-1.5,2.4-1.5c0.5,0,0.9,0.1,1.3,0.4c0.4,0.2,0.7,0.7,1,1.3h0.2
	c-0.1-1-0.1-1.7-0.1-2.1V5.7h2.7v15.6h-2l-0.4-1.4h-0.1C51.9,20.9,51,21.5,50,21.5z M50.8,19.2c0.5,0,0.9-0.2,1.1-0.7
	c0.2-0.5,0.3-1.3,0.4-2.5v-0.3c0-1.3-0.1-2.2-0.3-2.7c-0.2-0.5-0.6-0.8-1.1-0.8c-0.5,0-0.9,0.3-1.1,0.9c-0.2,0.6-0.3,1.5-0.3,2.6
	c0,1.2,0.1,2,0.3,2.6C49.9,18.9,50.3,19.2,50.8,19.2z M59.9,21.3h-2.7V10.1h2.7V21.3z M57.1,7.2c0-0.4,0.1-0.8,0.4-1
	c0.3-0.3,0.6-0.4,1.1-0.4c0.4,0,0.8,0.1,1,0.4c0.3,0.3,0.4,0.6,0.4,1c0,0.5-0.1,0.8-0.4,1.1c-0.3,0.2-0.6,0.4-1,0.4
	c-0.4,0-0.8-0.1-1.1-0.4C57.2,8,57.1,7.7,57.1,7.2z M67.6,21.3l-0.5-1.5H67c-0.4,0.7-0.8,1.1-1.2,1.3c-0.4,0.2-0.9,0.4-1.6,0.4
	c-0.8,0-1.5-0.3-1.9-0.9c-0.5-0.6-0.7-1.5-0.7-2.6c0-1.2,0.3-2,1-2.6c0.6-0.6,1.6-0.9,2.9-0.9l1.5-0.1v-0.8c0-1-0.4-1.6-1.3-1.6
	c-0.7,0-1.4,0.3-2.3,0.8L62.3,11c1.1-0.7,2.3-1,3.6-1c1.2,0,2.1,0.3,2.7,1c0.6,0.7,0.9,1.6,0.9,2.9v7.5H67.6z M65.3,19.4
	c0.5,0,0.9-0.2,1.2-0.6c0.3-0.4,0.4-1,0.4-1.7v-0.9l-0.8,0c-0.6,0-1.1,0.2-1.3,0.5c-0.3,0.3-0.4,0.8-0.4,1.4
	C64.3,18.9,64.6,19.4,65.3,19.4z M77.2,21.3v-6.6c0-0.8-0.1-1.4-0.3-1.8c-0.2-0.4-0.5-0.6-0.9-0.6c-0.6,0-1,0.3-1.3,0.9
	c-0.3,0.6-0.4,1.5-0.4,2.9v5.3h-2.7V10.1h2.1l0.3,1.4h0.2c0.2-0.5,0.6-0.9,1-1.2c0.4-0.3,1-0.4,1.6-0.4c1,0,1.8,0.3,2.3,1
	c0.5,0.7,0.8,1.7,0.8,3v7.3H77.2z M82.9,21.3V7.8h0.9v12.7h6.2v0.8H82.9z M95,21.5c-1,0-1.8-0.3-2.3-0.9C92.3,20,92,19,92,17.8v-6.3
	h0.9v6.2c0,1.1,0.2,1.8,0.5,2.3c0.4,0.5,0.9,0.7,1.7,0.7c0.6,0,1.1-0.2,1.6-0.5c0.5-0.3,1-0.8,1.6-1.5v-7.2h0.9v9.8h-0.8l-0.1-1.6h0
	c-0.5,0.6-1,1-1.5,1.4C96.3,21.4,95.7,21.5,95,21.5z M101.4,21.3l3.3-5.1l-3.1-4.7h1l1.6,2.5c0.2,0.3,0.3,0.5,0.5,0.8
	c0.2,0.3,0.4,0.5,0.6,0.8h0.1c0.2-0.3,0.3-0.5,0.5-0.8c0.2-0.3,0.3-0.5,0.5-0.8l1.5-2.5h0.9l-3.1,4.8l3.3,5.1h-1l-1.7-2.7
	c-0.2-0.3-0.4-0.6-0.6-0.9c-0.2-0.3-0.4-0.6-0.6-0.9h-0.1c-0.2,0.3-0.4,0.6-0.6,0.9c-0.2,0.3-0.4,0.6-0.6,0.9l-1.7,2.7H101.4z"/>
</svg>
