<svg width="110" height="17" viewBox="0 0 110 17" fill="none" xmlns="http://www.w3.org/2000/svg">
<path d="M5.77407 3.34498C4.9243 3.34498 4.25248 3.83615 3.75859 4.8185C3.27197 5.80084 3.02866 7.1668 3.02866 8.91637C3.02866 12.5589 3.99101 14.3802 5.9157 14.3802C6.7582 14.3802 7.64066 14.1149 8.56305 13.5843V16.1871C7.78592 16.6962 6.79089 16.9508 5.57797 16.9508C3.78401 16.9508 2.40405 16.2481 1.43807 14.8427C0.479357 13.4301 0 11.4475 0 8.89486C0 6.3422 0.493883 4.35242 1.48165 2.92552C2.47668 1.49861 3.85664 0.785157 5.62155 0.785157C6.20259 0.785157 6.7582 0.864031 7.2884 1.02178C7.82586 1.17953 8.39964 1.45559 9.00973 1.84996L8.02923 4.22694C7.70239 4.00466 7.35377 3.80389 6.98336 3.62463C6.61294 3.4382 6.20985 3.34498 5.77407 3.34498Z" fill="black"/>
<path d="M13.5636 16.7357H10.6657V4.75396H13.5636V16.7357ZM10.5458 1.62409C10.5458 1.15085 10.6838 0.777986 10.9598 0.505512C11.2431 0.225867 11.6353 0.0860446 12.1364 0.0860446C12.6085 0.0860446 12.9862 0.225867 13.2695 0.505512C13.5527 0.777986 13.6944 1.15085 13.6944 1.62409C13.6944 2.11168 13.5491 2.49171 13.2586 2.76418C12.9681 3.02949 12.594 3.16214 12.1364 3.16214C11.6571 3.16214 11.2721 3.02949 10.9816 2.76418C10.6911 2.49171 10.5458 2.11168 10.5458 1.62409Z" fill="black"/>
<path d="M21.2224 4.5281C21.5783 4.5281 21.9269 4.58187 22.2683 4.68943L21.9306 7.46437C21.7272 7.39266 21.4621 7.35681 21.1353 7.35681C20.4308 7.35681 19.8897 7.63287 19.512 8.18499C19.1343 8.72994 18.9455 9.52585 18.9455 10.5727V16.7357H16.0476V4.75396H18.4334L18.7603 6.62543H18.8583C19.1779 5.87254 19.5265 5.33476 19.9042 5.0121C20.2819 4.68943 20.7213 4.5281 21.2224 4.5281Z" fill="black"/>
<path d="M27.5739 16.9508C26.1286 16.9508 25.0282 16.4309 24.2729 15.3912C23.5175 14.3515 23.1399 12.8242 23.1399 10.8094C23.1399 8.70126 23.4957 7.12736 24.2075 6.08765C24.9266 5.04795 26.0342 4.5281 27.5303 4.5281C27.9806 4.5281 28.4527 4.59263 28.9466 4.7217C29.4405 4.85076 29.8835 5.03719 30.2757 5.28099L29.4478 7.50739C28.8449 7.15604 28.3111 6.98037 27.8463 6.98037C27.2289 6.98037 26.7822 7.29945 26.5062 7.93761C26.2375 8.56861 26.1032 9.51868 26.1032 10.7878C26.1032 12.0283 26.2375 12.9569 26.5062 13.5735C26.775 14.183 27.2144 14.4878 27.8245 14.4878C28.5508 14.4878 29.3098 14.2368 30.1014 13.7349V16.2517C29.3388 16.7177 28.4963 16.9508 27.5739 16.9508Z" fill="black"/>
<path d="M37.7929 16.7357L37.2155 15.1008H37.1501C36.7216 15.8035 36.2786 16.2875 35.821 16.5528C35.3635 16.8181 34.786 16.9508 34.0888 16.9508C33.1955 16.9508 32.4909 16.6209 31.9753 15.9613C31.4669 15.3016 31.2127 14.3838 31.2127 13.2078C31.2127 11.9459 31.5613 11.0101 32.2585 10.4006C32.963 9.78399 34.0125 9.44339 35.407 9.37886L37.0194 9.31433V8.45388C37.0194 7.3353 36.5292 6.77601 35.5487 6.77601C34.8224 6.77601 33.9871 7.05566 33.0429 7.61495L32.0406 5.63592C33.2463 4.88303 34.5573 4.50659 35.9735 4.50659C37.2591 4.50659 38.236 4.87227 38.9042 5.60365C39.5796 6.32786 39.9173 7.35681 39.9173 8.6905V16.7357H37.7929ZM35.2763 14.7136C35.8065 14.7136 36.2277 14.4806 36.5401 14.0145C36.8596 13.5413 37.0194 12.9139 37.0194 12.1323V11.1213L36.1261 11.1643C35.4651 11.2001 34.9785 11.3866 34.6662 11.7236C34.3612 12.0606 34.2086 12.5625 34.2086 13.2294C34.2086 14.2189 34.5645 14.7136 35.2763 14.7136Z" fill="black"/>
<path d="M45.4517 16.9508C44.3332 16.9508 43.4508 16.4058 42.8044 15.3159C42.158 14.226 41.8348 12.7095 41.8348 10.7663C41.8348 8.81598 42.1507 7.28869 42.7826 6.18445C43.4145 5.08022 44.286 4.5281 45.3973 4.5281C45.9492 4.5281 46.425 4.66433 46.8244 4.93681C47.2312 5.20211 47.6052 5.65385 47.9466 6.29201H48.1209C48.0337 5.20211 47.9901 4.43847 47.9901 4.00107V0H50.8881V16.7357H48.731L48.2407 15.1761H48.1427C47.5253 16.3592 46.6283 16.9508 45.4517 16.9508ZM46.3887 14.5308C46.9261 14.5308 47.3183 14.2906 47.5653 13.8102C47.8122 13.3226 47.9466 12.4406 47.9684 11.1643V10.7878C47.9684 9.39679 47.8413 8.41803 47.5871 7.85157C47.3401 7.28511 46.9298 7.00188 46.356 7.00188C45.8185 7.00188 45.4263 7.32813 45.1794 7.98064C44.9397 8.62597 44.8199 9.56887 44.8199 10.8094C44.8199 12.0498 44.9433 12.982 45.1903 13.6058C45.4372 14.2225 45.8367 14.5308 46.3887 14.5308Z" fill="black"/>
<path d="M56.2482 16.7357H53.3502V4.75396H56.2482V16.7357ZM53.2304 1.62409C53.2304 1.15085 53.3684 0.777986 53.6444 0.505512C53.9276 0.225867 54.3198 0.0860446 54.821 0.0860446C55.2931 0.0860446 55.6707 0.225867 55.954 0.505512C56.2373 0.777986 56.3789 1.15085 56.3789 1.62409C56.3789 2.11168 56.2336 2.49171 55.9431 2.76418C55.6526 3.02949 55.2785 3.16214 54.821 3.16214C54.3416 3.16214 53.9567 3.02949 53.6662 2.76418C53.3756 2.49171 53.2304 2.11168 53.2304 1.62409Z" fill="black"/>
<path d="M64.6805 16.7357L64.1031 15.1008H64.0377C63.6092 15.8035 63.1661 16.2875 62.7086 16.5528C62.251 16.8181 61.6736 16.9508 60.9764 16.9508C60.083 16.9508 59.3785 16.6209 58.8628 15.9613C58.3544 15.3016 58.1002 14.3838 58.1002 13.2078C58.1002 11.9459 58.4488 11.0101 59.1461 10.4006C59.8506 9.78399 60.9001 9.44339 62.2946 9.37886L63.907 9.31433V8.45388C63.907 7.3353 63.4167 6.77601 62.4362 6.77601C61.7099 6.77601 60.8747 7.05566 59.9305 7.61495L58.9282 5.63592C60.1339 4.88303 61.4448 4.50659 62.8611 4.50659C64.1466 4.50659 65.1235 4.87227 65.7917 5.60365C66.4672 6.32786 66.8049 7.35681 66.8049 8.6905V16.7357H64.6805ZM62.1639 14.7136C62.6941 14.7136 63.1153 14.4806 63.4276 14.0145C63.7472 13.5413 63.907 12.9139 63.907 12.1323V11.1213L63.0136 11.1643C62.3527 11.2001 61.8661 11.3866 61.5538 11.7236C61.2487 12.0606 61.0962 12.5625 61.0962 13.2294C61.0962 14.2189 61.4521 14.7136 62.1639 14.7136Z" fill="black"/>
<path d="M75.1936 16.7357V9.59397C75.1936 8.72635 75.0883 8.07026 74.8777 7.6257C74.6671 7.18114 74.3257 6.95886 73.8536 6.95886C73.229 6.95886 72.7714 7.26718 72.4809 7.88383C72.1904 8.49332 72.0451 9.52585 72.0451 10.9814V16.7357H69.1472V4.75396H71.4459L71.7946 6.29201H71.9798C72.2412 5.73989 72.6153 5.30967 73.1019 5.00134C73.5885 4.68584 74.1587 4.5281 74.8123 4.5281C75.9163 4.5281 76.7407 4.90096 77.2854 5.64668C77.8374 6.3924 78.1134 7.48229 78.1134 8.91637V16.7357H75.1936Z" fill="black"/>
<path d="M81.3889 16.7357V2.21961H82.4152V15.8546H89.198V16.7357H81.3889Z" fill="black"/>
<path d="M94.5536 17C93.438 17 92.6199 16.6696 92.0992 16.0088C91.5786 15.3479 91.3183 14.3273 91.3183 12.947V6.16251H92.3001V12.8148C92.3001 13.9455 92.486 14.7826 92.8579 15.3259C93.2446 15.8546 93.8693 16.1189 94.732 16.1189C95.3717 16.1189 95.9518 15.95 96.4724 15.6123C96.993 15.2598 97.5657 14.7091 98.1904 13.9602V6.16251H99.1721V16.7357H98.3466L98.235 14.9735H98.1904C97.6698 15.5902 97.1194 16.0822 96.5393 16.4493C95.9592 16.8164 95.2973 17 94.5536 17Z" fill="black"/>
<path d="M101.544 16.7357L105.181 11.2068L101.834 6.16251H102.927L104.667 8.84986C104.846 9.14356 105.024 9.43726 105.203 9.73095C105.396 10.01 105.597 10.2963 105.805 10.59H105.895C106.088 10.2963 106.266 10.01 106.43 9.73095C106.609 9.43726 106.795 9.14356 106.988 8.84986L108.661 6.16251H109.688L106.363 11.2949L110 16.7357H108.907L107.01 13.8501C106.802 13.5123 106.594 13.1819 106.385 12.8588C106.177 12.5358 105.962 12.2201 105.738 11.9117H105.649C105.441 12.2201 105.233 12.5358 105.024 12.8588C104.831 13.1819 104.63 13.5123 104.422 13.8501L102.592 16.7357H101.544Z" fill="black"/>
</svg>
