<?xml version="1.0" encoding="utf-8"?>
<!-- Generator: Adobe Illustrator 24.1.0, SVG Export Plug-In . SVG Version: 6.00 Build 0)  -->
<svg version="1.1" id="Layer_1" xmlns="http://www.w3.org/2000/svg" xmlns:xlink="http://www.w3.org/1999/xlink" x="0px" y="0px"
	 viewBox="0 0 60 11" style="enable-background:new 0 0 60 11;" xml:space="preserve">
<path d="M3.6,2.7C3.1,2.7,2.8,3,2.5,3.5C2.3,4,2.1,4.8,2.1,5.7c0,2,0.5,3,1.6,3c0.5,0,0.9-0.1,1.4-0.4v1.4c-0.4,0.3-1,0.4-1.6,0.4
	c-1,0-1.7-0.4-2.2-1.1C0.8,8.2,0.5,7.1,0.5,5.7c0-1.4,0.3-2.5,0.8-3.3c0.5-0.8,1.3-1.2,2.2-1.2c0.3,0,0.6,0,0.9,0.1
	C4.7,1.5,5,1.7,5.3,1.9L4.8,3.2C4.6,3.1,4.4,3,4.2,2.9C4,2.8,3.8,2.7,3.6,2.7z M7.8,10H6.2V3.5h1.6V10z M6.2,1.8
	c0-0.3,0.1-0.5,0.2-0.6C6.5,1,6.8,0.9,7,0.9c0.3,0,0.5,0.1,0.6,0.2c0.2,0.1,0.2,0.4,0.2,0.6c0,0.3-0.1,0.5-0.2,0.6
	C7.5,2.5,7.3,2.6,7,2.6c-0.3,0-0.5-0.1-0.6-0.2C6.2,2.2,6.2,2,6.2,1.8z M11.9,3.3c0.2,0,0.4,0,0.6,0.1l-0.2,1.5
	c-0.1,0-0.3-0.1-0.4-0.1c-0.4,0-0.7,0.2-0.9,0.5c-0.2,0.3-0.3,0.7-0.3,1.3V10H9.1V3.5h1.3l0.2,1h0.1c0.2-0.4,0.4-0.7,0.6-0.9
	C11.4,3.4,11.6,3.3,11.9,3.3z M15.3,10.1c-0.8,0-1.4-0.3-1.8-0.8c-0.4-0.6-0.6-1.4-0.6-2.5c0-1.1,0.2-2,0.6-2.6
	c0.4-0.6,1-0.8,1.8-0.8c0.2,0,0.5,0,0.8,0.1c0.3,0.1,0.5,0.2,0.7,0.3L16.3,5c-0.3-0.2-0.6-0.3-0.9-0.3c-0.3,0-0.6,0.2-0.7,0.5
	c-0.1,0.3-0.2,0.9-0.2,1.6c0,0.7,0.1,1.2,0.2,1.5c0.1,0.3,0.4,0.5,0.7,0.5c0.4,0,0.8-0.1,1.2-0.4v1.4C16.3,10,15.8,10.1,15.3,10.1z
	 M20.8,10l-0.3-0.9h0c-0.2,0.4-0.5,0.6-0.7,0.8c-0.2,0.1-0.6,0.2-0.9,0.2c-0.5,0-0.9-0.2-1.1-0.5c-0.3-0.4-0.4-0.9-0.4-1.5
	c0-0.7,0.2-1.2,0.6-1.5C18.2,6.2,18.8,6,19.5,6l0.9,0V5.5c0-0.6-0.3-0.9-0.8-0.9c-0.4,0-0.8,0.2-1.3,0.5L17.7,4
	c0.6-0.4,1.4-0.6,2.1-0.6c0.7,0,1.2,0.2,1.6,0.6c0.4,0.4,0.5,1,0.5,1.7V10H20.8z M19.5,8.9c0.3,0,0.5-0.1,0.7-0.4
	c0.2-0.3,0.3-0.6,0.3-1V6.9l-0.5,0c-0.4,0-0.6,0.1-0.8,0.3c-0.2,0.2-0.2,0.5-0.2,0.8C18.9,8.6,19.1,8.9,19.5,8.9z M24.9,10.1
	c-0.6,0-1.1-0.3-1.4-0.9C23.2,8.6,23,7.8,23,6.7c0-1.1,0.2-1.9,0.5-2.5c0.3-0.6,0.8-0.9,1.4-0.9c0.3,0,0.6,0.1,0.8,0.2
	c0.2,0.1,0.4,0.4,0.6,0.7h0.1c0-0.6-0.1-1-0.1-1.2V0.9h1.6V10h-1.2l-0.3-0.8h-0.1C26.1,9.8,25.6,10.1,24.9,10.1z M25.4,8.8
	c0.3,0,0.5-0.1,0.6-0.4c0.1-0.3,0.2-0.7,0.2-1.4V6.8c0-0.8-0.1-1.3-0.2-1.6c-0.1-0.3-0.4-0.5-0.7-0.5c-0.3,0-0.5,0.2-0.6,0.5
	c-0.1,0.4-0.2,0.9-0.2,1.5c0,0.7,0.1,1.2,0.2,1.5C24.9,8.6,25.1,8.8,25.4,8.8z M30.7,10h-1.6V3.5h1.6V10z M29.1,1.8
	c0-0.3,0.1-0.5,0.2-0.6C29.5,1,29.7,0.9,30,0.9c0.3,0,0.5,0.1,0.6,0.2c0.2,0.1,0.2,0.4,0.2,0.6c0,0.3-0.1,0.5-0.2,0.6
	c-0.2,0.1-0.4,0.2-0.6,0.2c-0.3,0-0.5-0.1-0.6-0.2C29.2,2.2,29.1,2,29.1,1.8z M35.3,10L35,9.1h0c-0.2,0.4-0.5,0.6-0.7,0.8
	c-0.2,0.1-0.6,0.2-0.9,0.2c-0.5,0-0.9-0.2-1.1-0.5c-0.3-0.4-0.4-0.9-0.4-1.5c0-0.7,0.2-1.2,0.6-1.5C32.7,6.2,33.2,6,34,6l0.9,0V5.5
	c0-0.6-0.3-0.9-0.8-0.9c-0.4,0-0.8,0.2-1.3,0.5L32.2,4c0.6-0.4,1.4-0.6,2.1-0.6c0.7,0,1.2,0.2,1.6,0.6c0.4,0.4,0.5,1,0.5,1.7V10
	H35.3z M33.9,8.9c0.3,0,0.5-0.1,0.7-0.4c0.2-0.3,0.3-0.6,0.3-1V6.9l-0.5,0c-0.4,0-0.6,0.1-0.8,0.3c-0.2,0.2-0.2,0.5-0.2,0.8
	C33.4,8.6,33.5,8.9,33.9,8.9z M40.9,10V6.1c0-0.5-0.1-0.8-0.2-1.1c-0.1-0.2-0.3-0.4-0.6-0.4c-0.3,0-0.6,0.2-0.7,0.5
	c-0.2,0.3-0.2,0.9-0.2,1.7V10h-1.6V3.5h1.2l0.2,0.8h0.1c0.1-0.3,0.3-0.5,0.6-0.7c0.3-0.2,0.6-0.3,0.9-0.3c0.6,0,1,0.2,1.3,0.6
	c0.3,0.4,0.4,1,0.4,1.8V10H40.9z M44.3,10V2.1h0.6v7.4h3.6V10H44.3z M51.3,10.1c-0.6,0-1-0.2-1.3-0.5c-0.3-0.4-0.4-0.9-0.4-1.7V4.2
	h0.5v3.6c0,0.6,0.1,1.1,0.3,1.4c0.2,0.3,0.5,0.4,1,0.4c0.3,0,0.7-0.1,0.9-0.3c0.3-0.2,0.6-0.5,0.9-0.9V4.2h0.5V10h-0.4l-0.1-1h0
	c-0.3,0.3-0.6,0.6-0.9,0.8S51.7,10.1,51.3,10.1z M55.1,10l2-3l-1.8-2.7h0.6l0.9,1.5C56.9,5.9,57,6,57.1,6.2c0.1,0.2,0.2,0.3,0.3,0.5
	h0c0.1-0.2,0.2-0.3,0.3-0.5C57.8,6,57.9,5.9,58,5.7l0.9-1.5h0.6L57.7,7l2,3h-0.6l-1-1.6c-0.1-0.2-0.2-0.4-0.3-0.5s-0.2-0.3-0.3-0.5
	h0c-0.1,0.2-0.2,0.3-0.3,0.5c-0.1,0.2-0.2,0.4-0.3,0.5l-1,1.6H55.1z"/>
</svg>
