<svg width="60" height="11" viewBox="0 0 60 11" fill="none" xmlns="http://www.w3.org/2000/svg">
<path d="M3.59766 2.70508C3.14062 2.70508 2.7793 2.97266 2.51367 3.50781C2.25195 4.04297 2.12109 4.78711 2.12109 5.74023C2.12109 7.72461 2.63867 8.7168 3.67383 8.7168C4.12695 8.7168 4.60156 8.57227 5.09766 8.2832V9.70117C4.67969 9.97852 4.14453 10.1172 3.49219 10.1172C2.52734 10.1172 1.78516 9.73438 1.26562 8.96875C0.75 8.19922 0.492188 7.11914 0.492188 5.72852C0.492188 4.33789 0.757812 3.25391 1.28906 2.47656C1.82422 1.69922 2.56641 1.31055 3.51562 1.31055C3.82812 1.31055 4.12695 1.35352 4.41211 1.43945C4.70117 1.52539 5.00977 1.67578 5.33789 1.89062L4.81055 3.18555C4.63477 3.06445 4.44727 2.95508 4.24805 2.85742C4.04883 2.75586 3.83203 2.70508 3.59766 2.70508ZM7.78711 10H6.22852V3.47266H7.78711V10ZM6.16406 1.76758C6.16406 1.50977 6.23828 1.30664 6.38672 1.1582C6.53906 1.00586 6.75 0.929688 7.01953 0.929688C7.27344 0.929688 7.47656 1.00586 7.62891 1.1582C7.78125 1.30664 7.85742 1.50977 7.85742 1.76758C7.85742 2.0332 7.7793 2.24023 7.62305 2.38867C7.4668 2.5332 7.26562 2.60547 7.01953 2.60547C6.76172 2.60547 6.55469 2.5332 6.39844 2.38867C6.24219 2.24023 6.16406 2.0332 6.16406 1.76758ZM11.9062 3.34961C12.0977 3.34961 12.2852 3.37891 12.4688 3.4375L12.2871 4.94922C12.1777 4.91016 12.0352 4.89062 11.8594 4.89062C11.4805 4.89062 11.1895 5.04102 10.9863 5.3418C10.7832 5.63867 10.6816 6.07227 10.6816 6.64258V10H9.12305V3.47266H10.4062L10.582 4.49219H10.6348C10.8066 4.08203 10.9941 3.78906 11.1973 3.61328C11.4004 3.4375 11.6367 3.34961 11.9062 3.34961ZM15.3223 10.1172C14.5449 10.1172 13.9531 9.83398 13.5469 9.26758C13.1406 8.70117 12.9375 7.86914 12.9375 6.77148C12.9375 5.62305 13.1289 4.76562 13.5117 4.19922C13.8984 3.63281 14.4941 3.34961 15.2988 3.34961C15.541 3.34961 15.7949 3.38477 16.0605 3.45508C16.3262 3.52539 16.5645 3.62695 16.7754 3.75977L16.3301 4.97266C16.0059 4.78125 15.7188 4.68555 15.4688 4.68555C15.1367 4.68555 14.8965 4.85938 14.748 5.20703C14.6035 5.55078 14.5312 6.06836 14.5312 6.75977C14.5312 7.43555 14.6035 7.94141 14.748 8.27734C14.8926 8.60938 15.1289 8.77539 15.457 8.77539C15.8477 8.77539 16.2559 8.63867 16.6816 8.36523V9.73633C16.2715 9.99023 15.8184 10.1172 15.3223 10.1172ZM20.8184 10L20.5078 9.10938H20.4727C20.2422 9.49219 20.0039 9.75586 19.7578 9.90039C19.5117 10.0449 19.2012 10.1172 18.8262 10.1172C18.3457 10.1172 17.9668 9.9375 17.6895 9.57812C17.416 9.21875 17.2793 8.71875 17.2793 8.07812C17.2793 7.39062 17.4668 6.88086 17.8418 6.54883C18.2207 6.21289 18.7852 6.02734 19.5352 5.99219L20.4023 5.95703V5.48828C20.4023 4.87891 20.1387 4.57422 19.6113 4.57422C19.2207 4.57422 18.7715 4.72656 18.2637 5.03125L17.7246 3.95312C18.373 3.54297 19.0781 3.33789 19.8398 3.33789C20.5312 3.33789 21.0566 3.53711 21.416 3.93555C21.7793 4.33008 21.9609 4.89062 21.9609 5.61719V10H20.8184ZM19.4648 8.89844C19.75 8.89844 19.9766 8.77148 20.1445 8.51758C20.3164 8.25977 20.4023 7.91797 20.4023 7.49219V6.94141L19.9219 6.96484C19.5664 6.98438 19.3047 7.08594 19.1367 7.26953C18.9727 7.45312 18.8906 7.72656 18.8906 8.08984C18.8906 8.62891 19.082 8.89844 19.4648 8.89844ZM24.9375 10.1172C24.3359 10.1172 23.8613 9.82031 23.5137 9.22656C23.166 8.63281 22.9922 7.80664 22.9922 6.74805C22.9922 5.68555 23.1621 4.85352 23.502 4.25195C23.8418 3.65039 24.3105 3.34961 24.9082 3.34961C25.2051 3.34961 25.4609 3.42383 25.6758 3.57227C25.8945 3.7168 26.0957 3.96289 26.2793 4.31055H26.373C26.3262 3.7168 26.3027 3.30078 26.3027 3.0625V0.882812H27.8613V10H26.7012L26.4375 9.15039H26.3848C26.0527 9.79492 25.5703 10.1172 24.9375 10.1172ZM25.4414 8.79883C25.7305 8.79883 25.9414 8.66797 26.0742 8.40625C26.207 8.14062 26.2793 7.66016 26.291 6.96484V6.75977C26.291 6.00195 26.2227 5.46875 26.0859 5.16016C25.9531 4.85156 25.7324 4.69727 25.4238 4.69727C25.1348 4.69727 24.9238 4.875 24.791 5.23047C24.6621 5.58203 24.5977 6.0957 24.5977 6.77148C24.5977 7.44727 24.6641 7.95508 24.7969 8.29492C24.9297 8.63086 25.1445 8.79883 25.4414 8.79883ZM30.7441 10H29.1855V3.47266H30.7441V10ZM29.1211 1.76758C29.1211 1.50977 29.1953 1.30664 29.3438 1.1582C29.4961 1.00586 29.707 0.929688 29.9766 0.929688C30.2305 0.929688 30.4336 1.00586 30.5859 1.1582C30.7383 1.30664 30.8145 1.50977 30.8145 1.76758C30.8145 2.0332 30.7363 2.24023 30.5801 2.38867C30.4238 2.5332 30.2227 2.60547 29.9766 2.60547C29.7188 2.60547 29.5117 2.5332 29.3555 2.38867C29.1992 2.24023 29.1211 2.0332 29.1211 1.76758ZM35.2793 10L34.9688 9.10938H34.9336C34.7031 9.49219 34.4648 9.75586 34.2188 9.90039C33.9727 10.0449 33.6621 10.1172 33.2871 10.1172C32.8066 10.1172 32.4277 9.9375 32.1504 9.57812C31.877 9.21875 31.7402 8.71875 31.7402 8.07812C31.7402 7.39062 31.9277 6.88086 32.3027 6.54883C32.6816 6.21289 33.2461 6.02734 33.9961 5.99219L34.8633 5.95703V5.48828C34.8633 4.87891 34.5996 4.57422 34.0723 4.57422C33.6816 4.57422 33.2324 4.72656 32.7246 5.03125L32.1855 3.95312C32.834 3.54297 33.5391 3.33789 34.3008 3.33789C34.9922 3.33789 35.5176 3.53711 35.877 3.93555C36.2402 4.33008 36.4219 4.89062 36.4219 5.61719V10H35.2793ZM33.9258 8.89844C34.2109 8.89844 34.4375 8.77148 34.6055 8.51758C34.7773 8.25977 34.8633 7.91797 34.8633 7.49219V6.94141L34.3828 6.96484C34.0273 6.98438 33.7656 7.08594 33.5977 7.26953C33.4336 7.45312 33.3516 7.72656 33.3516 8.08984C33.3516 8.62891 33.543 8.89844 33.9258 8.89844ZM40.9336 10V6.10938C40.9336 5.63672 40.877 5.2793 40.7637 5.03711C40.6504 4.79492 40.4668 4.67383 40.2129 4.67383C39.877 4.67383 39.6309 4.8418 39.4746 5.17773C39.3184 5.50977 39.2402 6.07227 39.2402 6.86523V10H37.6816V3.47266H38.918L39.1055 4.31055H39.2051C39.3457 4.00977 39.5469 3.77539 39.8086 3.60742C40.0703 3.43555 40.377 3.34961 40.7285 3.34961C41.3223 3.34961 41.7656 3.55273 42.0586 3.95898C42.3555 4.36523 42.5039 4.95898 42.5039 5.74023V10H40.9336ZM44.2656 10V2.092H44.8176V9.52H48.4656V10H44.2656ZM51.3459 10.144C50.7459 10.144 50.3059 9.964 50.0259 9.604C49.7459 9.244 49.6059 8.688 49.6059 7.936V4.24H50.1339V7.864C50.1339 8.48 50.2339 8.936 50.4339 9.232C50.6419 9.52 50.9779 9.664 51.4419 9.664C51.7859 9.664 52.0979 9.572 52.3779 9.388C52.6579 9.196 52.9659 8.896 53.3019 8.488V4.24H53.8299V10H53.3859L53.3259 9.04H53.3019C53.0219 9.376 52.7259 9.644 52.4139 9.844C52.1019 10.044 51.7459 10.144 51.3459 10.144ZM55.1055 10L57.0615 6.988L55.2615 4.24H55.8495L56.7855 5.704C56.8815 5.864 56.9775 6.024 57.0735 6.184C57.1775 6.336 57.2855 6.492 57.3975 6.652H57.4455C57.5495 6.492 57.6455 6.336 57.7335 6.184C57.8295 6.024 57.9295 5.864 58.0335 5.704L58.9335 4.24H59.4855L57.6975 7.036L59.6535 10H59.0655L58.0455 8.428C57.9335 8.244 57.8215 8.064 57.7095 7.888C57.5975 7.712 57.4815 7.54 57.3615 7.372H57.3135C57.2015 7.54 57.0895 7.712 56.9775 7.888C56.8735 8.064 56.7655 8.244 56.6535 8.428L55.6695 10H55.1055Z" fill="black"/>
</svg>
