<?xml version="1.0" encoding="utf-8"?>
<!-- Generator: Adobe Illustrator 24.1.0, SVG Export Plug-In . SVG Version: 6.00 Build 0)  -->
<svg version="1.1" id="Layer_1" xmlns="http://www.w3.org/2000/svg" xmlns:xlink="http://www.w3.org/1999/xlink" x="0px" y="0px"
	 viewBox="0 0 60 11" style="enable-background:new 0 0 60 11;" xml:space="preserve">
<path d="M8,3C7.6,3,7.4,3.3,7.1,3.7C7,4.1,6.8,4.7,6.8,5.5c0,1.6,0.4,2.4,1.3,2.4c0.4,0,0.7-0.1,1.1-0.3v1.1C8.9,9,8.4,9.1,7.9,9.1
	c-0.8,0-1.4-0.3-1.8-0.9C5.7,7.5,5.5,6.6,5.5,5.5s0.2-2,0.7-2.7c0.4-0.7,1.1-1,1.8-1c0.2,0,0.5,0,0.7,0.1C8.9,2,9.2,2.2,9.4,2.4
	L9,3.4C8.8,3.3,8.7,3.3,8.5,3.2C8.4,3.1,8.2,3,8,3z M11.5,9h-1.3V3.7h1.3C11.5,3.7,11.5,9,11.5,9z M10.1,2.3c0-0.2,0.1-0.4,0.2-0.5
	c0.1-0.2,0.3-0.2,0.5-0.2c0.2,0,0.4,0.1,0.5,0.2c0.2,0.1,0.2,0.3,0.2,0.5c0,0.2-0.1,0.4-0.2,0.5c-0.1,0.2-0.2,0.2-0.5,0.2
	c-0.2,0-0.4-0.1-0.5-0.2C10.1,2.6,10.1,2.4,10.1,2.3z M14.8,3.5c0.2,0,0.3,0,0.5,0.1l-0.2,1.2c-0.1,0-0.2-0.1-0.3-0.1
	c-0.3,0-0.6,0.2-0.7,0.4c-0.2,0.2-0.2,0.6-0.2,1.1V9h-1.3V3.7h1.1l0.2,0.8h0.1c0.2-0.3,0.3-0.6,0.5-0.7C14.4,3.6,14.5,3.5,14.8,3.5z
	 M17.6,9.1c-0.7,0-1.1-0.2-1.5-0.7c-0.3-0.5-0.5-1.1-0.5-2s0.2-1.6,0.5-2.1c0.3-0.5,0.8-0.7,1.5-0.7c0.2,0,0.4,0,0.7,0.1
	c0.2,0.1,0.4,0.2,0.6,0.2l-0.4,1c-0.2-0.2-0.5-0.2-0.7-0.2c-0.2,0-0.5,0.2-0.6,0.4c-0.1,0.2-0.2,0.7-0.2,1.3s0.1,1,0.2,1.2
	C17.2,7.8,17.4,8,17.6,8c0.3,0,0.7-0.1,1-0.3v1.1C18.4,9,18,9.1,17.6,9.1z M22,9l-0.2-0.7l0,0c-0.2,0.3-0.4,0.5-0.6,0.7
	c-0.2,0.1-0.5,0.2-0.7,0.2c-0.4,0-0.7-0.2-0.9-0.4c-0.2-0.3-0.3-0.7-0.3-1.2c0-0.6,0.2-1,0.5-1.2c0.2-0.3,0.7-0.5,1.2-0.5h0.7V5.3
	c0-0.5-0.2-0.7-0.7-0.7c-0.3,0-0.7,0.2-1.1,0.4l-0.5-0.9c0.5-0.3,1.1-0.5,1.7-0.5c0.6,0,1,0.2,1.3,0.5c0.3,0.3,0.4,0.8,0.4,1.4V9H22
	z M21,8.1c0.2,0,0.4-0.1,0.6-0.3c0.2-0.2,0.2-0.5,0.2-0.8V6.4h-0.4c-0.3,0-0.5,0.1-0.7,0.2c-0.2,0.2-0.2,0.4-0.2,0.7
	C20.5,7.8,20.7,8.1,21,8.1z M25.4,9.1c-0.5,0-0.9-0.2-1.1-0.7s-0.4-1.1-0.4-2s0.2-1.5,0.4-2s0.7-0.7,1.1-0.7c0.2,0,0.5,0.1,0.7,0.2
	s0.3,0.3,0.5,0.6h0.1c0-0.5-0.1-0.8-0.1-1V1.6h1.3V9h-1l-0.2-0.7h-0.1C26.4,8.8,26,9.1,25.4,9.1z M25.8,8c0.2,0,0.4-0.1,0.5-0.3
	c0.1-0.2,0.2-0.6,0.2-1.1V6.4c0-0.7-0.1-1.1-0.2-1.3S26,4.6,25.7,4.6c-0.2,0-0.4,0.2-0.5,0.4c-0.1,0.3-0.2,0.7-0.2,1.2
	c0,0.6,0.1,1,0.2,1.2C25.4,7.8,25.6,8,25.8,8z M30.1,9h-1.3V3.7h1.3V9z M28.8,2.3c0-0.2,0.1-0.4,0.2-0.5c0.2-0.2,0.3-0.2,0.6-0.2
	c0.2,0,0.4,0.1,0.5,0.2c0.2,0.1,0.2,0.3,0.2,0.5c0,0.2-0.1,0.4-0.2,0.5c-0.2,0.1-0.3,0.2-0.5,0.2c-0.2,0-0.4-0.1-0.5-0.2
	C28.9,2.6,28.8,2.4,28.8,2.3z M33.9,9l-0.2-0.7l0,0c-0.2,0.3-0.4,0.5-0.6,0.7c-0.2,0.1-0.5,0.2-0.7,0.2c-0.4,0-0.7-0.2-0.9-0.4
	c-0.2-0.3-0.3-0.7-0.3-1.2c0-0.6,0.2-1,0.5-1.2c0.2-0.3,0.6-0.5,1.2-0.5h0.7V5.3c0-0.5-0.2-0.7-0.7-0.7c-0.3,0-0.7,0.2-1.1,0.4
	l-0.5-0.9c0.5-0.3,1.1-0.5,1.7-0.5c0.6,0,1,0.2,1.3,0.5s0.4,0.8,0.4,1.4V9H33.9z M32.7,8.1c0.2,0,0.4-0.1,0.6-0.3
	c0.2-0.2,0.2-0.5,0.2-0.8V6.4h-0.4c-0.3,0-0.5,0.1-0.7,0.2c-0.2,0.2-0.2,0.4-0.2,0.7C32.3,7.8,32.4,8.1,32.7,8.1z M38.4,9V5.8
	c0-0.4-0.1-0.7-0.2-0.9c-0.1-0.2-0.2-0.3-0.5-0.3S37.3,4.7,37.2,5C37,5.2,37,5.7,37,6.4V9h-1.3V3.7h1l0.2,0.7H37
	c0.1-0.2,0.2-0.4,0.5-0.6s0.5-0.2,0.7-0.2c0.5,0,0.8,0.2,1.1,0.5c0.2,0.3,0.3,0.8,0.3,1.5V9H38.4z M41.2,9V2.5h0.5v6h2.9V9H41.2z
	 M46.9,9.1c-0.5,0-0.8-0.2-1.1-0.4c-0.2-0.3-0.3-0.7-0.3-1.4v-3h0.4v2.9c0,0.5,0.1,0.9,0.2,1.1c0.2,0.2,0.4,0.3,0.8,0.3
	c0.2,0,0.6-0.1,0.7-0.2C48,8.2,48.2,8,48.5,7.7V4.2h0.4V9h-0.3l-0.1-0.8l0,0c-0.2,0.2-0.5,0.5-0.7,0.7S47.2,9.1,46.9,9.1z M50,9
	l1.6-2.4l-1.5-2.2h0.5l0.7,1.2c0.1,0.1,0.2,0.2,0.2,0.3s0.2,0.2,0.2,0.4l0,0C52,6.1,52,6,52.1,5.9c0.1-0.2,0.2-0.2,0.2-0.4l0.7-1.2
	h0.5l-1.5,2.3L53.8,9h-0.5l-0.8-1.3c-0.1-0.2-0.2-0.3-0.2-0.4C52.1,7.2,52,7,52,6.9l0,0c-0.1,0.2-0.2,0.2-0.2,0.4
	c-0.1,0.2-0.2,0.3-0.2,0.4L50.7,9H50z"/>
</svg>
