<?xml version="1.0" encoding="utf-8"?>
<!-- Generator: Adobe Illustrator 19.1.0, SVG Export Plug-In . SVG Version: 6.00 Build 0)  -->
<svg version="1.1" id="Layer_1" xmlns="http://www.w3.org/2000/svg" xmlns:xlink="http://www.w3.org/1999/xlink" x="0px" y="0px"
	 viewBox="0 0 29.91 30.086" style="enable-background:new 0 0 29.91 30.086;" xml:space="preserve">
<style type="text/css">
	.st0{fill:#4D4D4D;}
	.st1{fill-rule:evenodd;clip-rule:evenodd;fill:#4C4C4C;}
	.st2{fill:#4C4C4C;}
	.st3{fill:#383330;}
	.st4{fill:#1F1A17;}
	.st5{fill:#4D4C4C;}
	.st6{fill:none;stroke:#000000;stroke-width:0.3;stroke-miterlimit:10;}
	.st7{fill:#E61413;}
	.st8{fill:#5F5357;}
	.st9{fill:#115C78;}
	.st10{fill-rule:evenodd;clip-rule:evenodd;fill:#4D4D4D;}
	.st11{fill-rule:evenodd;clip-rule:evenodd;}
	.st12{fill:#FFFFFF;}
	.st13{fill:none;}
	.st14{fill:#231F20;}
	.st15{clip-path:url(#SVGID_2_);}
	.st16{clip-path:url(#SVGID_4_);fill:#FCF118;}
	.st17{clip-path:url(#SVGID_4_);fill:#FCF018;}
	.st18{clip-path:url(#SVGID_4_);fill:#FCEF18;}
	.st19{clip-path:url(#SVGID_4_);fill:#FCEE18;}
	.st20{clip-path:url(#SVGID_4_);fill:#FCED18;}
	.st21{clip-path:url(#SVGID_4_);fill:#FCEC18;}
	.st22{clip-path:url(#SVGID_4_);fill:#FCEB18;}
	.st23{clip-path:url(#SVGID_4_);fill:#FCEA18;}
	.st24{clip-path:url(#SVGID_4_);fill:#FCE918;}
	.st25{clip-path:url(#SVGID_4_);fill:#FCE818;}
	.st26{clip-path:url(#SVGID_4_);fill:#FCE718;}
	.st27{clip-path:url(#SVGID_4_);fill:#FCE617;}
	.st28{clip-path:url(#SVGID_4_);fill:#FCE517;}
	.st29{clip-path:url(#SVGID_4_);fill:#FCE417;}
	.st30{clip-path:url(#SVGID_4_);fill:#FCE317;}
	.st31{clip-path:url(#SVGID_4_);fill:#FCE217;}
	.st32{clip-path:url(#SVGID_4_);fill:#FCE117;}
	.st33{clip-path:url(#SVGID_4_);fill:#FCE017;}
	.st34{clip-path:url(#SVGID_4_);fill:#FCDF17;}
	.st35{clip-path:url(#SVGID_4_);fill:#FCDE17;}
	.st36{clip-path:url(#SVGID_4_);fill:#FCDD17;}
	.st37{clip-path:url(#SVGID_4_);fill:#FCDC17;}
	.st38{clip-path:url(#SVGID_4_);fill:#FCDB17;}
	.st39{clip-path:url(#SVGID_4_);fill:#FCDA17;}
	.st40{clip-path:url(#SVGID_4_);fill:#FCD917;}
	.st41{clip-path:url(#SVGID_4_);fill:#FCD817;}
	.st42{clip-path:url(#SVGID_4_);fill:#FCD717;}
	.st43{clip-path:url(#SVGID_4_);fill:#FCD617;}
	.st44{clip-path:url(#SVGID_4_);fill:#FCD517;}
	.st45{clip-path:url(#SVGID_4_);fill:#FCD416;}
	.st46{clip-path:url(#SVGID_4_);fill:#FCD316;}
	.st47{clip-path:url(#SVGID_4_);fill:#FBD216;}
	.st48{clip-path:url(#SVGID_4_);fill:#FBD116;}
	.st49{clip-path:url(#SVGID_4_);fill:#FBD016;}
	.st50{clip-path:url(#SVGID_4_);fill:#FBCF16;}
	.st51{clip-path:url(#SVGID_4_);fill:#FBCE16;}
	.st52{clip-path:url(#SVGID_4_);fill:#FBCD16;}
	.st53{clip-path:url(#SVGID_4_);fill:#FBCC16;}
	.st54{clip-path:url(#SVGID_4_);fill:#FBCB16;}
	.st55{clip-path:url(#SVGID_4_);fill:#FBCA16;}
	.st56{clip-path:url(#SVGID_4_);fill:#FBC916;}
	.st57{clip-path:url(#SVGID_4_);fill:#FBC816;}
	.st58{clip-path:url(#SVGID_4_);fill:#FBC716;}
	.st59{clip-path:url(#SVGID_4_);fill:#FBC616;}
	.st60{clip-path:url(#SVGID_4_);fill:#FBC516;}
	.st61{clip-path:url(#SVGID_4_);fill:#FBC416;}
	.st62{clip-path:url(#SVGID_4_);fill:#FBC316;}
	.st63{clip-path:url(#SVGID_4_);fill:#FBC216;}
	.st64{clip-path:url(#SVGID_4_);fill:#FBC115;}
	.st65{clip-path:url(#SVGID_4_);fill:#FBC015;}
	.st66{clip-path:url(#SVGID_4_);fill:#FBBF15;}
	.st67{clip-path:url(#SVGID_4_);fill:#FBBE15;}
	.st68{clip-path:url(#SVGID_4_);fill:#FBBD15;}
	.st69{clip-path:url(#SVGID_4_);fill:#FBBC15;}
	.st70{clip-path:url(#SVGID_4_);fill:#FBBB15;}
	.st71{clip-path:url(#SVGID_4_);fill:#FBBA15;}
	.st72{clip-path:url(#SVGID_4_);fill:#FBB915;}
	.st73{clip-path:url(#SVGID_4_);fill:#FBB815;}
	.st74{clip-path:url(#SVGID_4_);fill:#FBB715;}
	.st75{clip-path:url(#SVGID_4_);fill:#FBB615;}
	.st76{clip-path:url(#SVGID_4_);fill:#FBB515;}
	.st77{clip-path:url(#SVGID_4_);fill:#FBB415;}
	.st78{clip-path:url(#SVGID_4_);fill:#FBB315;}
	.st79{clip-path:url(#SVGID_4_);fill:#FBB215;}
	.st80{clip-path:url(#SVGID_4_);fill:#FBB115;}
	.st81{clip-path:url(#SVGID_4_);fill:#FBB015;}
	.st82{clip-path:url(#SVGID_4_);fill:#FBAF15;}
	.st83{clip-path:url(#SVGID_4_);fill:#FAAE15;}
	.st84{clip-path:url(#SVGID_4_);fill:#FAAD14;}
	.st85{clip-path:url(#SVGID_4_);fill:#FAAC14;}
	.st86{clip-path:url(#SVGID_4_);fill:#FAAB14;}
	.st87{clip-path:url(#SVGID_4_);fill:#FAAA14;}
	.st88{clip-path:url(#SVGID_4_);fill:#FAA914;}
	.st89{clip-path:url(#SVGID_4_);fill:#FAA814;}
	.st90{clip-path:url(#SVGID_4_);fill:#FAA714;}
	.st91{clip-path:url(#SVGID_4_);fill:#FAA614;}
	.st92{clip-path:url(#SVGID_4_);fill:#FAA514;}
	.st93{clip-path:url(#SVGID_4_);fill:#FAA414;}
	.st94{clip-path:url(#SVGID_4_);fill:#FAA314;}
	.st95{clip-path:url(#SVGID_4_);fill:#FAA214;}
	.st96{clip-path:url(#SVGID_4_);fill:#FAA114;}
	.st97{clip-path:url(#SVGID_4_);fill:#FAA014;}
	.st98{clip-path:url(#SVGID_4_);fill:#FA9F14;}
	.st99{clip-path:url(#SVGID_4_);fill:#FA9E14;}
	.st100{clip-path:url(#SVGID_4_);fill:#FA9D14;}
	.st101{clip-path:url(#SVGID_4_);fill:#FA9C14;}
	.st102{clip-path:url(#SVGID_4_);fill:#FA9B14;}
	.st103{clip-path:url(#SVGID_4_);fill:#FA9A13;}
	.st104{clip-path:url(#SVGID_4_);fill:#FA9913;}
	.st105{clip-path:url(#SVGID_4_);fill:#FA9813;}
	.st106{clip-path:url(#SVGID_4_);fill:#FA9713;}
	.st107{clip-path:url(#SVGID_4_);fill:#FA9613;}
	.st108{clip-path:url(#SVGID_4_);fill:#FA9513;}
	.st109{clip-path:url(#SVGID_4_);fill:#FA9413;}
	.st110{clip-path:url(#SVGID_4_);fill:#FA9313;}
	.st111{clip-path:url(#SVGID_4_);fill:#FA9213;}
	.st112{clip-path:url(#SVGID_4_);fill:#FA9113;}
	.st113{clip-path:url(#SVGID_4_);fill:#FA9013;}
	.st114{clip-path:url(#SVGID_4_);fill:#FA8F13;}
	.st115{clip-path:url(#SVGID_4_);fill:#FA8E13;}
	.st116{clip-path:url(#SVGID_4_);fill:#FA8D13;}
	.st117{clip-path:url(#SVGID_4_);fill:#FA8C13;}
	.st118{clip-path:url(#SVGID_4_);fill:#FA8B13;}
	.st119{clip-path:url(#SVGID_4_);fill:#FA8A13;}
	.st120{clip-path:url(#SVGID_4_);fill:#FA8913;}
	.st121{clip-path:url(#SVGID_4_);fill:#FA8812;}
	.st122{clip-path:url(#SVGID_4_);fill:#FA8712;}
	.st123{clip-path:url(#SVGID_4_);fill:#FA8612;}
	.st124{clip-path:url(#SVGID_4_);fill:#F98512;}
	.st125{clip-path:url(#SVGID_4_);fill:#F98412;}
	.st126{clip-path:url(#SVGID_4_);fill:#F98312;}
	.st127{clip-path:url(#SVGID_4_);fill:#F98212;}
	.st128{clip-path:url(#SVGID_4_);fill:#F98112;}
	.st129{clip-path:url(#SVGID_4_);fill:#F98012;}
	.st130{clip-path:url(#SVGID_4_);fill:#F97F12;}
	.st131{clip-path:url(#SVGID_4_);fill:#F97E12;}
	.st132{clip-path:url(#SVGID_4_);fill:#F97D12;}
	.st133{clip-path:url(#SVGID_4_);fill:#F97C12;}
	.st134{clip-path:url(#SVGID_4_);fill:#F97B12;}
	.st135{clip-path:url(#SVGID_4_);fill:#F97A12;}
	.st136{clip-path:url(#SVGID_4_);fill:#F97912;}
	.st137{clip-path:url(#SVGID_4_);fill:#F97812;}
	.st138{clip-path:url(#SVGID_4_);fill:#F97712;}
	.st139{clip-path:url(#SVGID_4_);fill:#F97612;}
	.st140{clip-path:url(#SVGID_4_);fill:#F97511;}
	.st141{clip-path:url(#SVGID_4_);fill:#F97411;}
	.st142{clip-path:url(#SVGID_4_);fill:#F97311;}
	.st143{clip-path:url(#SVGID_4_);fill:#F97211;}
	.st144{clip-path:url(#SVGID_4_);fill:#F97111;}
	.st145{clip-path:url(#SVGID_4_);fill:#F97011;}
	.st146{clip-path:url(#SVGID_4_);fill:#F96F11;}
	.st147{clip-path:url(#SVGID_4_);fill:#F96E11;}
	.st148{clip-path:url(#SVGID_4_);fill:#F96D11;}
	.st149{clip-path:url(#SVGID_4_);fill:#F96C11;}
	.st150{clip-path:url(#SVGID_4_);fill:#F96B11;}
	.st151{clip-path:url(#SVGID_4_);fill:#F96A11;}
	.st152{clip-path:url(#SVGID_4_);fill:#F96911;}
	.st153{clip-path:url(#SVGID_4_);fill:#F96811;}
	.st154{clip-path:url(#SVGID_4_);fill:#F96711;}
	.st155{clip-path:url(#SVGID_4_);fill:#F96611;}
	.st156{clip-path:url(#SVGID_4_);fill:#F96511;}
	.st157{clip-path:url(#SVGID_4_);fill:#F96411;}
	.st158{clip-path:url(#SVGID_4_);fill:#F96311;}
	.st159{clip-path:url(#SVGID_4_);fill:#F96210;}
	.st160{clip-path:url(#SVGID_4_);fill:#F86110;}
	.st161{clip-path:url(#SVGID_4_);fill:#F86010;}
	.st162{clip-path:url(#SVGID_4_);fill:#F85F10;}
	.st163{clip-path:url(#SVGID_4_);fill:#F85E10;}
	.st164{clip-path:url(#SVGID_4_);fill:#F85D10;}
	.st165{clip-path:url(#SVGID_4_);fill:#F85C10;}
	.st166{clip-path:url(#SVGID_4_);fill:#F85B10;}
	.st167{clip-path:url(#SVGID_4_);fill:#F85A10;}
	.st168{clip-path:url(#SVGID_4_);fill:#F85910;}
	.st169{clip-path:url(#SVGID_4_);fill:#F85810;}
	.st170{clip-path:url(#SVGID_4_);fill:#F85710;}
	.st171{clip-path:url(#SVGID_4_);fill:#F85610;}
	.st172{clip-path:url(#SVGID_4_);fill:#F85510;}
	.st173{clip-path:url(#SVGID_4_);fill:#F85410;}
	.st174{clip-path:url(#SVGID_4_);fill:#F85310;}
	.st175{clip-path:url(#SVGID_4_);fill:#F85210;}
	.st176{clip-path:url(#SVGID_4_);fill:#F85110;}
	.st177{clip-path:url(#SVGID_4_);fill:#F85010;}
	.st178{clip-path:url(#SVGID_4_);fill:#F84F0F;}
	.st179{clip-path:url(#SVGID_4_);fill:#F84E0F;}
	.st180{clip-path:url(#SVGID_4_);fill:#F84D0F;}
	.st181{clip-path:url(#SVGID_4_);fill:#F84C0F;}
	.st182{clip-path:url(#SVGID_4_);fill:#F84B0F;}
	.st183{clip-path:url(#SVGID_4_);fill:#F84A0F;}
	.st184{clip-path:url(#SVGID_4_);fill:#F8490F;}
	.st185{clip-path:url(#SVGID_4_);fill:#F8480F;}
	.st186{clip-path:url(#SVGID_4_);fill:#F8470F;}
	.st187{clip-path:url(#SVGID_4_);fill:#F8460F;}
	.st188{clip-path:url(#SVGID_4_);fill:#F8450F;}
	.st189{clip-path:url(#SVGID_4_);fill:#F8440F;}
	.st190{clip-path:url(#SVGID_4_);fill:#F8430F;}
	.st191{clip-path:url(#SVGID_4_);fill:#F8420F;}
	.st192{clip-path:url(#SVGID_4_);fill:#F8410F;}
	.st193{clip-path:url(#SVGID_4_);fill:#F8400F;}
	.st194{clip-path:url(#SVGID_4_);fill:#F83F0F;}
	.st195{clip-path:url(#SVGID_4_);fill:#F83E0E;}
	.st196{clip-path:url(#SVGID_4_);fill:#F83D0E;}
	.st197{clip-path:url(#SVGID_4_);fill:#F83C0E;}
	.st198{clip-path:url(#SVGID_4_);fill:#F83B0E;}
	.st199{clip-path:url(#SVGID_4_);fill:#F73A0E;}
	.st200{clip-path:url(#SVGID_4_);fill:#F7390E;}
	.st201{clip-path:url(#SVGID_4_);fill:#F7380E;}
	.st202{clip-path:url(#SVGID_4_);fill:#F7370E;}
	.st203{clip-path:url(#SVGID_4_);fill:#F7360E;}
	.st204{clip-path:url(#SVGID_4_);fill:#F7340E;}
	.st205{clip-path:url(#SVGID_4_);fill:#F7330E;}
	.st206{clip-path:url(#SVGID_4_);fill:#F7320E;}
	.st207{clip-path:url(#SVGID_4_);fill:#F7310E;}
	.st208{clip-path:url(#SVGID_4_);fill:#F7300E;}
	.st209{clip-path:url(#SVGID_4_);fill:#F72F0E;}
	.st210{clip-path:url(#SVGID_4_);fill:#F72E0E;}
	.st211{clip-path:url(#SVGID_4_);fill:#F72D0E;}
	.st212{clip-path:url(#SVGID_4_);fill:#F72C0E;}
	.st213{clip-path:url(#SVGID_4_);fill:#F72B0E;}
	.st214{clip-path:url(#SVGID_4_);fill:#F72B0D;}
	.st215{clip-path:url(#SVGID_4_);fill:#F72A0D;}
	.st216{clip-path:url(#SVGID_4_);fill:#F7290D;}
	.st217{clip-path:url(#SVGID_4_);fill:#F7280D;}
	.st218{clip-path:url(#SVGID_4_);fill:#F7270D;}
	.st219{clip-path:url(#SVGID_4_);fill:#F7260D;}
</style>
<g>
	<g>
		<path class="st0" d="M5.294,27.294l0.005,0.035l0.005,0.035L5.309,27.4l0.005,0.035l0.026-0.034l0.026-0.034l0.026-0.034
			L5.419,27.3H5.416H5.412H5.409H5.406c-0.017,0-0.031,0-0.044-0.001s-0.023-0.001-0.032-0.001s-0.016-0.001-0.022-0.002
			S5.298,27.295,5.294,27.294z"/>
	</g>
	<g>
		<path class="st0" d="M25.155,11.663c-0.008,0-0.015,0.001-0.023,0.002s-0.015,0.003-0.022,0.006s-0.014,0.006-0.021,0.01
			s-0.013,0.008-0.019,0.013l-0.862,0.69l-0.862,0.69l-0.862,0.69l-0.862,0.69l-0.059,0.047l-0.059,0.047l-0.059,0.047l-0.059,0.047
			l-0.047-0.06l-0.047-0.06l-0.047-0.06l-0.047-0.06l-0.291-0.373l-0.291-0.373l-0.291-0.373l-0.291-0.373
			c-0.007-0.008-0.014-0.016-0.022-0.022s-0.017-0.012-0.026-0.017s-0.019-0.008-0.029-0.01s-0.021-0.004-0.031-0.004
			c-0.005,0-0.011,0-0.018,0.001c-0.006,0.001-0.013,0.002-0.021,0.004s-0.015,0.005-0.022,0.009
			c-0.008,0.004-0.015,0.009-0.023,0.015c-0.01,0.008-0.018,0.016-0.024,0.024s-0.011,0.017-0.015,0.025s-0.007,0.016-0.009,0.023
			s-0.003,0.014-0.004,0.019c-0.001,0.005-0.001,0.012-0.001,0.019s0.001,0.016,0.003,0.025s0.005,0.018,0.009,0.028
			s0.01,0.019,0.017,0.029l0.359,0.46L20.535,14l0.359,0.46l0.359,0.46c0.006,0.008,0.014,0.015,0.022,0.022
			s0.017,0.012,0.026,0.016s0.019,0.008,0.029,0.01s0.02,0.003,0.031,0.003c0.005,0,0.011,0,0.018-0.001
			c0.006-0.001,0.013-0.002,0.021-0.004s0.015-0.005,0.022-0.009c0.008-0.004,0.015-0.009,0.023-0.015l0.948-0.758l0.948-0.758
			l0.948-0.758l0.948-0.758c0.016-0.012,0.028-0.027,0.037-0.042s0.015-0.033,0.017-0.05s0.001-0.035-0.003-0.052
			s-0.013-0.034-0.024-0.049c-0.006-0.008-0.014-0.016-0.022-0.022s-0.017-0.012-0.026-0.017s-0.019-0.008-0.029-0.01
			s-0.02-0.004-0.031-0.004v-0.037v-0.037v-0.037v-0.037c0,0,0,0,0,0s0,0,0,0s0,0,0,0s0,0,0,0l0,0.037l0,0.037l0,0.037
			L25.155,11.663z"/>
	</g>
	<g>
		<path class="st0" d="M23.33,27h0.085H23.5h0.085h0.085c0.077,0,0.155-0.004,0.233-0.012s0.158-0.019,0.239-0.035
			s0.163-0.035,0.247-0.059s0.17-0.051,0.257-0.083c0.525-0.151,1.009-0.386,1.441-0.688c0.432-0.302,0.81-0.67,1.123-1.087
			s0.561-0.884,0.73-1.383c0.169-0.499,0.261-1.03,0.261-1.577c-0.001-0.383-0.044-0.759-0.129-1.123
			c-0.084-0.363-0.209-0.714-0.372-1.046s-0.363-0.646-0.598-0.935c-0.235-0.289-0.506-0.554-0.808-0.79l-0.071-0.055l-0.071-0.055
			l-0.071-0.055l-0.071-0.055l0.066-0.06l0.066-0.06l0.066-0.06l0.066-0.06c0.306-0.276,0.579-0.581,0.817-0.909
			c0.238-0.328,0.44-0.679,0.604-1.046s0.29-0.751,0.375-1.144c0.085-0.394,0.129-0.798,0.129-1.205
			c0-0.801-0.163-1.564-0.457-2.259c-0.294-0.695-0.72-1.321-1.246-1.847s-1.152-0.952-1.847-1.246
			c-0.695-0.294-1.458-0.457-2.259-0.457c-0.488,0-0.966,0.061-1.427,0.178c-0.461,0.117-0.904,0.29-1.32,0.514
			s-0.805,0.499-1.157,0.82c-0.352,0.321-0.669,0.688-0.939,1.096l-0.02,0.03l-0.02,0.03l-0.02,0.03l-0.02,0.03l-0.035,0.003
			l-0.035,0.003l-0.035,0.003l-0.035,0.003c-0.577,0.057-1.133,0.194-1.656,0.402s-1.013,0.488-1.458,0.831
			s-0.845,0.746-1.188,1.203s-0.629,0.967-0.846,1.521l-0.022,0.056l-0.022,0.056l-0.022,0.056l-0.022,0.056l-0.059-0.009
			l-0.059-0.009l-0.059-0.009l-0.059-0.009l-0.027-0.004l-0.027-0.004l-0.027-0.004l-0.027-0.004
			c-0.051-0.008-0.102-0.016-0.152-0.023s-0.099-0.014-0.148-0.02s-0.098-0.011-0.146-0.014s-0.096-0.005-0.144-0.006
			c-0.577,0-1.134,0.107-1.652,0.303s-0.996,0.483-1.415,0.842s-0.78,0.792-1.063,1.282s-0.488,1.036-0.595,1.622l-0.014,0.079
			l-0.014,0.079L6.387,18.7l-0.014,0.079l-0.078-0.02l-0.078-0.02l-0.078-0.02L6.062,18.7l-0.03-0.008l-0.03-0.008l-0.03-0.008
			l-0.03-0.008c-0.076-0.02-0.15-0.039-0.224-0.057c-0.074-0.018-0.147-0.034-0.219-0.049s-0.144-0.026-0.216-0.034
			c-0.072-0.008-0.143-0.013-0.214-0.013c-0.578,0-1.13,0.12-1.632,0.335s-0.954,0.527-1.334,0.911s-0.687,0.842-0.9,1.349
			s-0.33,1.065-0.33,1.65c0,0.584,0.118,1.142,0.33,1.649c0.213,0.507,0.52,0.964,0.9,1.348s0.832,0.695,1.334,0.909
			C3.939,26.881,4.49,27,5.068,27C5.083,27,5.098,27,5.111,27s0.027-0.001,0.04-0.002s0.025-0.002,0.036-0.003
			s0.023-0.002,0.033-0.003c0.006-0.001,0.013-0.001,0.02-0.002s0.014-0.001,0.021-0.002s0.014-0.001,0.022-0.001s0.015,0,0.024,0
			l0.001,0.036l0.001,0.036l0.001,0.036l0.001,0.036l0.006-0.033l0.006-0.033l0.006-0.033l0.006-0.033
			c0.003,0,0.007,0.001,0.012,0.001c0.005,0,0.01,0,0.015,0.001s0.012,0,0.019,0c0.007,0,0.015,0,0.023,0h4.481h4.481h4.481H23.33z
			 M22.393,7.883c0.763,0,1.491,0.155,2.153,0.436c0.662,0.281,1.259,0.686,1.76,1.188s0.907,1.098,1.188,1.76
			c0.281,0.662,0.436,1.39,0.436,2.153s-0.155,1.491-0.436,2.153c-0.281,0.662-0.686,1.259-1.188,1.76s-1.098,0.907-1.76,1.188
			c-0.662,0.281-1.39,0.436-2.153,0.436c-0.763,0-1.491-0.155-2.153-0.436s-1.259-0.686-1.76-1.188s-0.907-1.098-1.188-1.76
			s-0.436-1.39-0.436-2.153s0.155-1.491,0.436-2.153s0.686-1.259,1.188-1.76s1.098-0.907,1.76-1.188S21.629,7.883,22.393,7.883z
			 M5.298,26.716c-0.026,0.002-0.05,0.004-0.073,0.005s-0.043,0.003-0.062,0.004s-0.037,0.002-0.052,0.002s-0.03,0.001-0.042,0.001
			c-0.541,0-1.056-0.111-1.525-0.312c-0.469-0.201-0.892-0.492-1.247-0.851s-0.643-0.787-0.841-1.261
			c-0.199-0.474-0.309-0.996-0.309-1.542c0-0.547,0.11-1.068,0.309-1.543c0.199-0.474,0.486-0.902,0.841-1.261
			s0.777-0.65,1.246-0.852c0.469-0.201,0.984-0.313,1.525-0.313c0.112,0,0.224,0.005,0.336,0.015s0.223,0.025,0.334,0.045
			s0.221,0.045,0.331,0.075s0.219,0.065,0.327,0.105c0.003,0,0.006,0.001,0.009,0.001s0.006,0,0.008,0s0.005,0,0.008,0
			s0.005,0,0.008,0c0.019,0,0.036-0.002,0.051-0.005c0.015-0.003,0.029-0.009,0.041-0.015s0.022-0.015,0.03-0.026
			c0.008-0.01,0.015-0.022,0.02-0.036c0.056-0.611,0.222-1.183,0.475-1.697s0.595-0.97,1.005-1.35s0.886-0.684,1.411-0.893
			s1.095-0.323,1.693-0.323c0.081,0,0.162,0.003,0.243,0.007s0.162,0.011,0.243,0.02s0.161,0.02,0.241,0.033s0.16,0.028,0.239,0.046
			c0.001,0,0.002,0,0.003,0s0.002,0,0.003,0s0.002,0,0.003,0s0.002,0,0.003,0c0.021,0,0.039-0.002,0.055-0.007
			s0.031-0.011,0.043-0.019s0.023-0.018,0.031-0.029s0.015-0.023,0.019-0.037c0.167-0.507,0.398-0.983,0.684-1.418
			s0.626-0.83,1.01-1.175s0.812-0.64,1.273-0.876s0.956-0.413,1.474-0.521l0.141-0.03l0.141-0.03l0.141-0.03l0.141-0.03
			l-0.057,0.133l-0.057,0.133l-0.057,0.133l-0.057,0.133c-0.079,0.182-0.147,0.367-0.206,0.554
			c-0.059,0.187-0.108,0.377-0.148,0.568s-0.069,0.385-0.089,0.58c-0.02,0.195-0.03,0.392-0.03,0.591
			c0,0.801,0.163,1.564,0.457,2.259s0.72,1.321,1.246,1.847s1.152,0.952,1.847,1.246s1.458,0.457,2.259,0.457
			c0.286,0,0.57-0.021,0.85-0.062s0.556-0.103,0.826-0.185s0.534-0.183,0.79-0.304s0.505-0.261,0.743-0.42l0.043-0.028l0.043-0.028
			l0.043-0.028l0.043-0.028l0.042,0.029l0.042,0.029l0.042,0.029l0.042,0.029c0.311,0.217,0.59,0.47,0.835,0.75
			c0.245,0.28,0.454,0.587,0.625,0.915s0.303,0.676,0.392,1.037c0.089,0.361,0.136,0.735,0.137,1.115
			c-0.001,0.518-0.087,1.021-0.248,1.493c-0.16,0.472-0.394,0.914-0.69,1.308s-0.652,0.742-1.058,1.026
			c-0.406,0.284-0.861,0.504-1.354,0.645c-0.083,0.03-0.163,0.057-0.242,0.079c-0.079,0.022-0.155,0.041-0.231,0.056
			s-0.149,0.026-0.222,0.033c-0.073,0.007-0.145,0.011-0.216,0.011h-0.085H23.5h-0.085H23.33h-4.481h-4.481H9.887H5.406v-0.026
			v-0.026v-0.026v-0.026l-0.004,0.023l-0.004,0.023l-0.004,0.023l-0.004,0.023c-0.004,0-0.009-0.001-0.015-0.001
			s-0.012-0.001-0.02-0.001s-0.016,0-0.025-0.001S5.309,26.716,5.298,26.716z"/>
	</g>
</g>
<g>
	<path class="st0" d="M29.819,29.908h-7.432h-7.432H7.523H0.091v-7.432v-7.432V7.611V0.179h7.432h7.432h7.432h7.432v7.432v7.432
		v7.432V29.908z M0.341,29.658h7.307h7.307h7.307h7.307V22.35v-7.307V7.736V0.429h-7.307h-7.307H7.648H0.341v7.307v7.307v7.307
		V29.658z"/>
</g>
</svg>
