<?xml version="1.0" encoding="utf-8"?>
<!-- Generator: Adobe Illustrator 19.1.0, SVG Export Plug-In . SVG Version: 6.00 Build 0)  -->
<svg version="1.1" id="Layer_1" xmlns="http://www.w3.org/2000/svg" xmlns:xlink="http://www.w3.org/1999/xlink" x="0px" y="0px"
	 viewBox="0 0 29.91 30.086" style="enable-background:new 0 0 29.91 30.086;" xml:space="preserve">
<style type="text/css">
	.st0{fill:#4D4D4D;}
	.st1{fill-rule:evenodd;clip-rule:evenodd;fill:#4C4C4C;}
	.st2{fill:#4C4C4C;}
	.st3{fill:#383330;}
	.st4{fill:#1F1A17;}
	.st5{fill:#4D4C4C;}
	.st6{fill:none;stroke:#000000;stroke-width:0.3;stroke-miterlimit:10;}
	.st7{fill:#E61413;}
	.st8{fill:#5F5357;}
	.st9{fill:#115C78;}
	.st10{fill-rule:evenodd;clip-rule:evenodd;fill:#4D4D4D;}
	.st11{fill-rule:evenodd;clip-rule:evenodd;}
	.st12{fill:#FFFFFF;}
	.st13{fill:none;}
	.st14{fill:#231F20;}
	.st15{clip-path:url(#SVGID_2_);}
	.st16{clip-path:url(#SVGID_4_);fill:#FCF118;}
	.st17{clip-path:url(#SVGID_4_);fill:#FCF018;}
	.st18{clip-path:url(#SVGID_4_);fill:#FCEF18;}
	.st19{clip-path:url(#SVGID_4_);fill:#FCEE18;}
	.st20{clip-path:url(#SVGID_4_);fill:#FCED18;}
	.st21{clip-path:url(#SVGID_4_);fill:#FCEC18;}
	.st22{clip-path:url(#SVGID_4_);fill:#FCEB18;}
	.st23{clip-path:url(#SVGID_4_);fill:#FCEA18;}
	.st24{clip-path:url(#SVGID_4_);fill:#FCE918;}
	.st25{clip-path:url(#SVGID_4_);fill:#FCE818;}
	.st26{clip-path:url(#SVGID_4_);fill:#FCE718;}
	.st27{clip-path:url(#SVGID_4_);fill:#FCE617;}
	.st28{clip-path:url(#SVGID_4_);fill:#FCE517;}
	.st29{clip-path:url(#SVGID_4_);fill:#FCE417;}
	.st30{clip-path:url(#SVGID_4_);fill:#FCE317;}
	.st31{clip-path:url(#SVGID_4_);fill:#FCE217;}
	.st32{clip-path:url(#SVGID_4_);fill:#FCE117;}
	.st33{clip-path:url(#SVGID_4_);fill:#FCE017;}
	.st34{clip-path:url(#SVGID_4_);fill:#FCDF17;}
	.st35{clip-path:url(#SVGID_4_);fill:#FCDE17;}
	.st36{clip-path:url(#SVGID_4_);fill:#FCDD17;}
	.st37{clip-path:url(#SVGID_4_);fill:#FCDC17;}
	.st38{clip-path:url(#SVGID_4_);fill:#FCDB17;}
	.st39{clip-path:url(#SVGID_4_);fill:#FCDA17;}
	.st40{clip-path:url(#SVGID_4_);fill:#FCD917;}
	.st41{clip-path:url(#SVGID_4_);fill:#FCD817;}
	.st42{clip-path:url(#SVGID_4_);fill:#FCD717;}
	.st43{clip-path:url(#SVGID_4_);fill:#FCD617;}
	.st44{clip-path:url(#SVGID_4_);fill:#FCD517;}
	.st45{clip-path:url(#SVGID_4_);fill:#FCD416;}
	.st46{clip-path:url(#SVGID_4_);fill:#FCD316;}
	.st47{clip-path:url(#SVGID_4_);fill:#FBD216;}
	.st48{clip-path:url(#SVGID_4_);fill:#FBD116;}
	.st49{clip-path:url(#SVGID_4_);fill:#FBD016;}
	.st50{clip-path:url(#SVGID_4_);fill:#FBCF16;}
	.st51{clip-path:url(#SVGID_4_);fill:#FBCE16;}
	.st52{clip-path:url(#SVGID_4_);fill:#FBCD16;}
	.st53{clip-path:url(#SVGID_4_);fill:#FBCC16;}
	.st54{clip-path:url(#SVGID_4_);fill:#FBCB16;}
	.st55{clip-path:url(#SVGID_4_);fill:#FBCA16;}
	.st56{clip-path:url(#SVGID_4_);fill:#FBC916;}
	.st57{clip-path:url(#SVGID_4_);fill:#FBC816;}
	.st58{clip-path:url(#SVGID_4_);fill:#FBC716;}
	.st59{clip-path:url(#SVGID_4_);fill:#FBC616;}
	.st60{clip-path:url(#SVGID_4_);fill:#FBC516;}
	.st61{clip-path:url(#SVGID_4_);fill:#FBC416;}
	.st62{clip-path:url(#SVGID_4_);fill:#FBC316;}
	.st63{clip-path:url(#SVGID_4_);fill:#FBC216;}
	.st64{clip-path:url(#SVGID_4_);fill:#FBC115;}
	.st65{clip-path:url(#SVGID_4_);fill:#FBC015;}
	.st66{clip-path:url(#SVGID_4_);fill:#FBBF15;}
	.st67{clip-path:url(#SVGID_4_);fill:#FBBE15;}
	.st68{clip-path:url(#SVGID_4_);fill:#FBBD15;}
	.st69{clip-path:url(#SVGID_4_);fill:#FBBC15;}
	.st70{clip-path:url(#SVGID_4_);fill:#FBBB15;}
	.st71{clip-path:url(#SVGID_4_);fill:#FBBA15;}
	.st72{clip-path:url(#SVGID_4_);fill:#FBB915;}
	.st73{clip-path:url(#SVGID_4_);fill:#FBB815;}
	.st74{clip-path:url(#SVGID_4_);fill:#FBB715;}
	.st75{clip-path:url(#SVGID_4_);fill:#FBB615;}
	.st76{clip-path:url(#SVGID_4_);fill:#FBB515;}
	.st77{clip-path:url(#SVGID_4_);fill:#FBB415;}
	.st78{clip-path:url(#SVGID_4_);fill:#FBB315;}
	.st79{clip-path:url(#SVGID_4_);fill:#FBB215;}
	.st80{clip-path:url(#SVGID_4_);fill:#FBB115;}
	.st81{clip-path:url(#SVGID_4_);fill:#FBB015;}
	.st82{clip-path:url(#SVGID_4_);fill:#FBAF15;}
	.st83{clip-path:url(#SVGID_4_);fill:#FAAE15;}
	.st84{clip-path:url(#SVGID_4_);fill:#FAAD14;}
	.st85{clip-path:url(#SVGID_4_);fill:#FAAC14;}
	.st86{clip-path:url(#SVGID_4_);fill:#FAAB14;}
	.st87{clip-path:url(#SVGID_4_);fill:#FAAA14;}
	.st88{clip-path:url(#SVGID_4_);fill:#FAA914;}
	.st89{clip-path:url(#SVGID_4_);fill:#FAA814;}
	.st90{clip-path:url(#SVGID_4_);fill:#FAA714;}
	.st91{clip-path:url(#SVGID_4_);fill:#FAA614;}
	.st92{clip-path:url(#SVGID_4_);fill:#FAA514;}
	.st93{clip-path:url(#SVGID_4_);fill:#FAA414;}
	.st94{clip-path:url(#SVGID_4_);fill:#FAA314;}
	.st95{clip-path:url(#SVGID_4_);fill:#FAA214;}
	.st96{clip-path:url(#SVGID_4_);fill:#FAA114;}
	.st97{clip-path:url(#SVGID_4_);fill:#FAA014;}
	.st98{clip-path:url(#SVGID_4_);fill:#FA9F14;}
	.st99{clip-path:url(#SVGID_4_);fill:#FA9E14;}
	.st100{clip-path:url(#SVGID_4_);fill:#FA9D14;}
	.st101{clip-path:url(#SVGID_4_);fill:#FA9C14;}
	.st102{clip-path:url(#SVGID_4_);fill:#FA9B14;}
	.st103{clip-path:url(#SVGID_4_);fill:#FA9A13;}
	.st104{clip-path:url(#SVGID_4_);fill:#FA9913;}
	.st105{clip-path:url(#SVGID_4_);fill:#FA9813;}
	.st106{clip-path:url(#SVGID_4_);fill:#FA9713;}
	.st107{clip-path:url(#SVGID_4_);fill:#FA9613;}
	.st108{clip-path:url(#SVGID_4_);fill:#FA9513;}
	.st109{clip-path:url(#SVGID_4_);fill:#FA9413;}
	.st110{clip-path:url(#SVGID_4_);fill:#FA9313;}
	.st111{clip-path:url(#SVGID_4_);fill:#FA9213;}
	.st112{clip-path:url(#SVGID_4_);fill:#FA9113;}
	.st113{clip-path:url(#SVGID_4_);fill:#FA9013;}
	.st114{clip-path:url(#SVGID_4_);fill:#FA8F13;}
	.st115{clip-path:url(#SVGID_4_);fill:#FA8E13;}
	.st116{clip-path:url(#SVGID_4_);fill:#FA8D13;}
	.st117{clip-path:url(#SVGID_4_);fill:#FA8C13;}
	.st118{clip-path:url(#SVGID_4_);fill:#FA8B13;}
	.st119{clip-path:url(#SVGID_4_);fill:#FA8A13;}
	.st120{clip-path:url(#SVGID_4_);fill:#FA8913;}
	.st121{clip-path:url(#SVGID_4_);fill:#FA8812;}
	.st122{clip-path:url(#SVGID_4_);fill:#FA8712;}
	.st123{clip-path:url(#SVGID_4_);fill:#FA8612;}
	.st124{clip-path:url(#SVGID_4_);fill:#F98512;}
	.st125{clip-path:url(#SVGID_4_);fill:#F98412;}
	.st126{clip-path:url(#SVGID_4_);fill:#F98312;}
	.st127{clip-path:url(#SVGID_4_);fill:#F98212;}
	.st128{clip-path:url(#SVGID_4_);fill:#F98112;}
	.st129{clip-path:url(#SVGID_4_);fill:#F98012;}
	.st130{clip-path:url(#SVGID_4_);fill:#F97F12;}
	.st131{clip-path:url(#SVGID_4_);fill:#F97E12;}
	.st132{clip-path:url(#SVGID_4_);fill:#F97D12;}
	.st133{clip-path:url(#SVGID_4_);fill:#F97C12;}
	.st134{clip-path:url(#SVGID_4_);fill:#F97B12;}
	.st135{clip-path:url(#SVGID_4_);fill:#F97A12;}
	.st136{clip-path:url(#SVGID_4_);fill:#F97912;}
	.st137{clip-path:url(#SVGID_4_);fill:#F97812;}
	.st138{clip-path:url(#SVGID_4_);fill:#F97712;}
	.st139{clip-path:url(#SVGID_4_);fill:#F97612;}
	.st140{clip-path:url(#SVGID_4_);fill:#F97511;}
	.st141{clip-path:url(#SVGID_4_);fill:#F97411;}
	.st142{clip-path:url(#SVGID_4_);fill:#F97311;}
	.st143{clip-path:url(#SVGID_4_);fill:#F97211;}
	.st144{clip-path:url(#SVGID_4_);fill:#F97111;}
	.st145{clip-path:url(#SVGID_4_);fill:#F97011;}
	.st146{clip-path:url(#SVGID_4_);fill:#F96F11;}
	.st147{clip-path:url(#SVGID_4_);fill:#F96E11;}
	.st148{clip-path:url(#SVGID_4_);fill:#F96D11;}
	.st149{clip-path:url(#SVGID_4_);fill:#F96C11;}
	.st150{clip-path:url(#SVGID_4_);fill:#F96B11;}
	.st151{clip-path:url(#SVGID_4_);fill:#F96A11;}
	.st152{clip-path:url(#SVGID_4_);fill:#F96911;}
	.st153{clip-path:url(#SVGID_4_);fill:#F96811;}
	.st154{clip-path:url(#SVGID_4_);fill:#F96711;}
	.st155{clip-path:url(#SVGID_4_);fill:#F96611;}
	.st156{clip-path:url(#SVGID_4_);fill:#F96511;}
	.st157{clip-path:url(#SVGID_4_);fill:#F96411;}
	.st158{clip-path:url(#SVGID_4_);fill:#F96311;}
	.st159{clip-path:url(#SVGID_4_);fill:#F96210;}
	.st160{clip-path:url(#SVGID_4_);fill:#F86110;}
	.st161{clip-path:url(#SVGID_4_);fill:#F86010;}
	.st162{clip-path:url(#SVGID_4_);fill:#F85F10;}
	.st163{clip-path:url(#SVGID_4_);fill:#F85E10;}
	.st164{clip-path:url(#SVGID_4_);fill:#F85D10;}
	.st165{clip-path:url(#SVGID_4_);fill:#F85C10;}
	.st166{clip-path:url(#SVGID_4_);fill:#F85B10;}
	.st167{clip-path:url(#SVGID_4_);fill:#F85A10;}
	.st168{clip-path:url(#SVGID_4_);fill:#F85910;}
	.st169{clip-path:url(#SVGID_4_);fill:#F85810;}
	.st170{clip-path:url(#SVGID_4_);fill:#F85710;}
	.st171{clip-path:url(#SVGID_4_);fill:#F85610;}
	.st172{clip-path:url(#SVGID_4_);fill:#F85510;}
	.st173{clip-path:url(#SVGID_4_);fill:#F85410;}
	.st174{clip-path:url(#SVGID_4_);fill:#F85310;}
	.st175{clip-path:url(#SVGID_4_);fill:#F85210;}
	.st176{clip-path:url(#SVGID_4_);fill:#F85110;}
	.st177{clip-path:url(#SVGID_4_);fill:#F85010;}
	.st178{clip-path:url(#SVGID_4_);fill:#F84F0F;}
	.st179{clip-path:url(#SVGID_4_);fill:#F84E0F;}
	.st180{clip-path:url(#SVGID_4_);fill:#F84D0F;}
	.st181{clip-path:url(#SVGID_4_);fill:#F84C0F;}
	.st182{clip-path:url(#SVGID_4_);fill:#F84B0F;}
	.st183{clip-path:url(#SVGID_4_);fill:#F84A0F;}
	.st184{clip-path:url(#SVGID_4_);fill:#F8490F;}
	.st185{clip-path:url(#SVGID_4_);fill:#F8480F;}
	.st186{clip-path:url(#SVGID_4_);fill:#F8470F;}
	.st187{clip-path:url(#SVGID_4_);fill:#F8460F;}
	.st188{clip-path:url(#SVGID_4_);fill:#F8450F;}
	.st189{clip-path:url(#SVGID_4_);fill:#F8440F;}
	.st190{clip-path:url(#SVGID_4_);fill:#F8430F;}
	.st191{clip-path:url(#SVGID_4_);fill:#F8420F;}
	.st192{clip-path:url(#SVGID_4_);fill:#F8410F;}
	.st193{clip-path:url(#SVGID_4_);fill:#F8400F;}
	.st194{clip-path:url(#SVGID_4_);fill:#F83F0F;}
	.st195{clip-path:url(#SVGID_4_);fill:#F83E0E;}
	.st196{clip-path:url(#SVGID_4_);fill:#F83D0E;}
	.st197{clip-path:url(#SVGID_4_);fill:#F83C0E;}
	.st198{clip-path:url(#SVGID_4_);fill:#F83B0E;}
	.st199{clip-path:url(#SVGID_4_);fill:#F73A0E;}
	.st200{clip-path:url(#SVGID_4_);fill:#F7390E;}
	.st201{clip-path:url(#SVGID_4_);fill:#F7380E;}
	.st202{clip-path:url(#SVGID_4_);fill:#F7370E;}
	.st203{clip-path:url(#SVGID_4_);fill:#F7360E;}
	.st204{clip-path:url(#SVGID_4_);fill:#F7340E;}
	.st205{clip-path:url(#SVGID_4_);fill:#F7330E;}
	.st206{clip-path:url(#SVGID_4_);fill:#F7320E;}
	.st207{clip-path:url(#SVGID_4_);fill:#F7310E;}
	.st208{clip-path:url(#SVGID_4_);fill:#F7300E;}
	.st209{clip-path:url(#SVGID_4_);fill:#F72F0E;}
	.st210{clip-path:url(#SVGID_4_);fill:#F72E0E;}
	.st211{clip-path:url(#SVGID_4_);fill:#F72D0E;}
	.st212{clip-path:url(#SVGID_4_);fill:#F72C0E;}
	.st213{clip-path:url(#SVGID_4_);fill:#F72B0E;}
	.st214{clip-path:url(#SVGID_4_);fill:#F72B0D;}
	.st215{clip-path:url(#SVGID_4_);fill:#F72A0D;}
	.st216{clip-path:url(#SVGID_4_);fill:#F7290D;}
	.st217{clip-path:url(#SVGID_4_);fill:#F7280D;}
	.st218{clip-path:url(#SVGID_4_);fill:#F7270D;}
	.st219{clip-path:url(#SVGID_4_);fill:#F7260D;}
</style>
<g>
	<path class="st2" d="M13.316,7.28c-0.112,0-0.218,0.009-0.318,0.027s-0.194,0.045-0.282,0.08s-0.17,0.08-0.246,0.134
		s-0.146,0.116-0.211,0.188c-0.064,0.072-0.121,0.15-0.169,0.235c-0.048,0.085-0.088,0.177-0.121,0.275s-0.056,0.203-0.072,0.314
		s-0.024,0.229-0.024,0.354c0,0.127,0.008,0.247,0.023,0.36s0.038,0.219,0.068,0.318s0.068,0.191,0.114,0.275
		s0.099,0.162,0.159,0.232c0.061,0.071,0.128,0.132,0.202,0.185s0.154,0.097,0.241,0.132s0.18,0.062,0.28,0.079
		s0.206,0.026,0.319,0.026c0.075,0,0.148-0.002,0.22-0.007s0.142-0.012,0.211-0.021s0.136-0.021,0.202-0.036s0.13-0.031,0.193-0.05
		v0.055v0.055v0.055v0.055c-0.059,0.021-0.122,0.039-0.188,0.055s-0.136,0.029-0.21,0.039s-0.151,0.018-0.232,0.023
		s-0.166,0.008-0.254,0.008c-0.125,0-0.244-0.01-0.356-0.03s-0.217-0.051-0.316-0.091s-0.191-0.091-0.276-0.152
		s-0.164-0.132-0.236-0.213c-0.072-0.081-0.135-0.17-0.189-0.267S11.746,9.77,11.71,9.656s-0.063-0.234-0.081-0.364
		s-0.027-0.267-0.027-0.412c0-0.091,0.004-0.179,0.013-0.264s0.022-0.168,0.039-0.248s0.039-0.157,0.065-0.232
		s0.056-0.146,0.09-0.215c0.034-0.069,0.072-0.135,0.114-0.196s0.088-0.119,0.137-0.172s0.103-0.103,0.16-0.148
		s0.118-0.087,0.182-0.125c0.065-0.038,0.132-0.071,0.202-0.099s0.142-0.052,0.217-0.071s0.153-0.033,0.233-0.042
		s0.163-0.014,0.248-0.014c0.087,0,0.172,0.004,0.254,0.012s0.163,0.02,0.241,0.037s0.154,0.037,0.227,0.061
		s0.144,0.053,0.213,0.086l-0.025,0.056l-0.025,0.056l-0.025,0.056l-0.025,0.056c-0.065-0.033-0.131-0.061-0.198-0.086
		s-0.134-0.045-0.203-0.061S13.598,7.3,13.528,7.292S13.387,7.28,13.316,7.28z"/>
	<path class="st2" d="M15.147,9.121V9.51v0.389v0.389v0.389h-0.062h-0.062H14.96h-0.062V9.783V8.891V7.999V7.106h0.212h0.212h0.212
		h0.212c0.111,0,0.214,0.005,0.31,0.015c0.096,0.01,0.185,0.026,0.267,0.046s0.156,0.046,0.224,0.077s0.127,0.066,0.18,0.107
		c0.053,0.041,0.099,0.087,0.139,0.138s0.073,0.108,0.099,0.169s0.046,0.128,0.06,0.2s0.02,0.149,0.02,0.231
		c0,0.06-0.004,0.118-0.012,0.173s-0.02,0.108-0.035,0.158s-0.035,0.098-0.059,0.144s-0.051,0.089-0.083,0.13
		c-0.032,0.041-0.067,0.08-0.107,0.115s-0.084,0.068-0.131,0.097s-0.1,0.056-0.156,0.08s-0.116,0.044-0.181,0.062l0.242,0.406
		l0.242,0.406l0.242,0.406l0.242,0.406h-0.074h-0.074h-0.074h-0.074l-0.23-0.389l-0.23-0.389l-0.23-0.389l-0.23-0.389h-0.222H15.59
		h-0.222H15.147z M15.147,8.906h0.17h0.17h0.17h0.17c0.075,0,0.146-0.004,0.213-0.013c0.067-0.008,0.129-0.021,0.188-0.038
		s0.113-0.038,0.162-0.063s0.096-0.055,0.137-0.088c0.042-0.033,0.078-0.071,0.109-0.112s0.057-0.087,0.078-0.137
		s0.036-0.103,0.047-0.161s0.016-0.119,0.016-0.185c0-0.068-0.005-0.131-0.015-0.19s-0.025-0.113-0.046-0.162
		s-0.046-0.094-0.076-0.134s-0.066-0.076-0.107-0.107c-0.041-0.031-0.088-0.058-0.141-0.081s-0.113-0.043-0.18-0.058
		s-0.139-0.027-0.218-0.035c-0.079-0.008-0.165-0.012-0.257-0.012H15.59h-0.148h-0.148h-0.148v0.394v0.394v0.394V8.906z"/>
	<path class="st2" d="M17.869,10.676V9.783V8.891V7.999V7.106h0.062h0.062h0.062h0.062v0.892v0.892v0.892v0.892h-0.062h-0.062
		h-0.062H17.869z"/>
	<path class="st2" d="M13.531,13.06c0.085,0,0.167,0.005,0.244,0.014s0.15,0.024,0.219,0.044s0.134,0.044,0.194,0.073
		s0.117,0.063,0.169,0.102c0.052,0.039,0.098,0.081,0.137,0.127s0.072,0.095,0.098,0.147s0.046,0.108,0.059,0.167
		s0.02,0.122,0.02,0.188c0,0.046-0.003,0.09-0.009,0.133s-0.016,0.085-0.028,0.126s-0.028,0.08-0.047,0.118
		s-0.041,0.075-0.066,0.111s-0.054,0.07-0.087,0.104s-0.07,0.066-0.11,0.098s-0.085,0.063-0.134,0.093s-0.101,0.059-0.157,0.087
		c0.067,0.036,0.129,0.072,0.186,0.109s0.11,0.074,0.158,0.111s0.091,0.075,0.13,0.113s0.072,0.077,0.101,0.115
		c0.029,0.039,0.055,0.079,0.077,0.119s0.04,0.082,0.055,0.125s0.025,0.086,0.033,0.13s0.011,0.09,0.011,0.136
		c0,0.073-0.007,0.143-0.022,0.209s-0.036,0.129-0.065,0.188s-0.065,0.114-0.108,0.166s-0.093,0.1-0.151,0.144
		c-0.057,0.045-0.119,0.084-0.186,0.117s-0.137,0.061-0.213,0.084s-0.155,0.039-0.24,0.05s-0.174,0.017-0.267,0.017
		c-0.098,0-0.19-0.005-0.277-0.016s-0.169-0.026-0.246-0.047s-0.148-0.047-0.214-0.078s-0.127-0.067-0.183-0.109
		s-0.105-0.087-0.146-0.138s-0.077-0.105-0.105-0.164s-0.049-0.122-0.063-0.19s-0.021-0.139-0.021-0.216
		c0-0.051,0.003-0.1,0.01-0.148s0.017-0.094,0.03-0.14s0.03-0.089,0.051-0.131s0.044-0.083,0.071-0.122
		c0.027-0.04,0.058-0.078,0.094-0.115s0.075-0.073,0.118-0.108s0.091-0.069,0.143-0.101S12.9,14.84,12.96,14.81
		c-0.051-0.032-0.098-0.065-0.142-0.098s-0.084-0.067-0.121-0.101s-0.07-0.069-0.099-0.105s-0.055-0.071-0.078-0.108
		s-0.042-0.074-0.059-0.113s-0.031-0.078-0.042-0.118s-0.02-0.081-0.025-0.123s-0.008-0.085-0.008-0.128
		c0-0.064,0.007-0.125,0.02-0.183s0.033-0.112,0.06-0.164s0.06-0.1,0.099-0.146s0.086-0.088,0.139-0.128s0.11-0.074,0.171-0.104
		s0.126-0.054,0.195-0.074s0.142-0.034,0.219-0.044S13.446,13.06,13.531,13.06z M12.975,15.726c0,0.035,0.003,0.068,0.009,0.099
		s0.015,0.06,0.027,0.087s0.027,0.052,0.046,0.076s0.04,0.045,0.064,0.064s0.051,0.037,0.08,0.051s0.06,0.027,0.093,0.037
		s0.069,0.017,0.107,0.022s0.078,0.007,0.12,0.007c0.047,0,0.091-0.003,0.131-0.008s0.079-0.013,0.114-0.023
		s0.067-0.023,0.096-0.038s0.055-0.033,0.078-0.053c0.023-0.02,0.043-0.042,0.061-0.065s0.032-0.048,0.043-0.075
		s0.02-0.055,0.026-0.085s0.009-0.061,0.009-0.095c0-0.027-0.003-0.054-0.009-0.08s-0.014-0.052-0.026-0.078
		s-0.026-0.051-0.043-0.075s-0.037-0.049-0.061-0.072c-0.023-0.024-0.049-0.048-0.08-0.073s-0.064-0.049-0.101-0.075
		s-0.078-0.051-0.123-0.077s-0.093-0.052-0.144-0.079c-0.087,0.04-0.163,0.082-0.228,0.127s-0.119,0.093-0.163,0.143
		s-0.076,0.104-0.098,0.159S12.975,15.665,12.975,15.726z M13.527,13.611c-0.032,0-0.063,0.002-0.092,0.006s-0.057,0.01-0.083,0.019
		s-0.05,0.019-0.073,0.031s-0.044,0.027-0.064,0.044c-0.02,0.016-0.037,0.034-0.052,0.053s-0.027,0.04-0.037,0.062
		s-0.017,0.046-0.022,0.07s-0.007,0.051-0.007,0.079c0,0.024,0.002,0.048,0.006,0.071s0.01,0.046,0.018,0.068
		s0.018,0.043,0.029,0.064s0.025,0.041,0.041,0.06c0.016,0.019,0.035,0.039,0.057,0.058s0.047,0.039,0.076,0.059
		s0.06,0.04,0.095,0.06s0.073,0.04,0.114,0.061c0.04-0.019,0.077-0.038,0.111-0.057s0.065-0.038,0.093-0.057
		s0.053-0.039,0.075-0.058s0.041-0.039,0.057-0.058s0.03-0.04,0.042-0.061s0.022-0.043,0.03-0.065s0.014-0.046,0.018-0.07
		s0.006-0.049,0.006-0.075c0-0.028-0.003-0.055-0.008-0.08s-0.013-0.049-0.023-0.071s-0.023-0.043-0.038-0.062
		s-0.033-0.037-0.053-0.053c-0.02-0.016-0.042-0.03-0.065-0.042s-0.048-0.022-0.074-0.031s-0.053-0.014-0.082-0.018
		S13.558,13.611,13.527,13.611z"/>
	<path class="st2" d="M17.631,14.89c0,0.156-0.006,0.302-0.019,0.437s-0.032,0.261-0.057,0.376s-0.057,0.221-0.096,0.316
		s-0.083,0.18-0.134,0.255c-0.051,0.075-0.109,0.141-0.174,0.197s-0.137,0.103-0.215,0.14s-0.164,0.065-0.257,0.084
		s-0.192,0.028-0.298,0.028c-0.103,0-0.199-0.01-0.29-0.029s-0.174-0.048-0.252-0.087s-0.149-0.087-0.214-0.145
		s-0.124-0.126-0.176-0.203c-0.052-0.077-0.098-0.164-0.137-0.26s-0.072-0.201-0.098-0.315s-0.046-0.237-0.059-0.37
		s-0.02-0.274-0.02-0.426c0-0.157,0.006-0.304,0.019-0.441s0.032-0.263,0.057-0.379s0.057-0.222,0.095-0.317
		s0.083-0.181,0.134-0.255s0.109-0.14,0.173-0.196s0.136-0.103,0.214-0.14s0.163-0.065,0.256-0.084
		c0.092-0.019,0.191-0.028,0.297-0.028c0.103,0,0.2,0.01,0.29,0.029s0.174,0.049,0.252,0.088s0.149,0.088,0.215,0.146
		s0.124,0.127,0.177,0.205c0.053,0.078,0.099,0.165,0.138,0.261s0.073,0.201,0.099,0.316s0.046,0.238,0.059,0.37
		S17.631,14.74,17.631,14.89z M15.885,14.89c0,0.11,0.002,0.211,0.007,0.305s0.012,0.18,0.021,0.259s0.021,0.149,0.036,0.212
		s0.031,0.118,0.05,0.165c0.019,0.047,0.041,0.089,0.066,0.124s0.054,0.065,0.086,0.089s0.067,0.042,0.105,0.054
		s0.08,0.018,0.125,0.018c0.044,0,0.085-0.006,0.123-0.018s0.073-0.03,0.104-0.054s0.06-0.054,0.086-0.09s0.048-0.078,0.068-0.126
		c0.02-0.048,0.037-0.103,0.051-0.166s0.027-0.134,0.037-0.212s0.017-0.164,0.022-0.257s0.007-0.194,0.007-0.302
		c0-0.109-0.002-0.211-0.007-0.305s-0.012-0.18-0.022-0.259s-0.022-0.15-0.037-0.213s-0.032-0.119-0.052-0.167
		c-0.02-0.048-0.043-0.09-0.068-0.126s-0.054-0.066-0.086-0.09s-0.066-0.042-0.104-0.054s-0.078-0.018-0.122-0.018
		c-0.044,0-0.085,0.006-0.124,0.018s-0.073,0.03-0.105,0.054s-0.06,0.054-0.086,0.09S16.019,13.899,16,13.947
		c-0.019,0.048-0.036,0.103-0.05,0.167s-0.026,0.134-0.036,0.213s-0.017,0.165-0.021,0.259S15.885,14.781,15.885,14.89z"/>
</g>
<g>
	<path class="st0" d="M29.819,29.908h-7.432h-7.432H7.523H0.091v-7.432v-7.432V7.611V0.179h7.432h7.432h7.432h7.432v7.432v7.432
		v7.432V29.908z M0.341,29.658h7.307h7.307h7.307h7.307V22.35v-7.307V7.736V0.429h-7.307h-7.307H7.648H0.341v7.307v7.307v7.307
		V29.658z"/>
</g>
<g>
	<path class="st0" d="M29.593,22.938v-0.061v-0.061v-0.061v-0.061c-1.128-0.469-2.283-0.886-3.461-1.248
		c-1.179-0.362-2.382-0.668-3.605-0.915s-2.469-0.436-3.731-0.563c-1.263-0.127-2.543-0.192-3.839-0.192
		c-1.296,0-2.577,0.065-3.839,0.192c-1.263,0.127-2.508,0.316-3.731,0.563s-2.426,0.554-3.605,0.915
		c-1.179,0.362-2.333,0.779-3.461,1.248v0.061v0.061v0.061v0.061c1.127-0.472,2.281-0.891,3.46-1.255
		c1.178-0.364,2.381-0.672,3.605-0.92s2.469-0.439,3.732-0.566c1.263-0.128,2.544-0.193,3.841-0.193c1.296,0,2.577,0.065,3.84,0.193
		c1.263,0.128,2.508,0.318,3.732,0.566s2.426,0.557,3.605,0.92C27.312,22.047,28.466,22.466,29.593,22.938"/>
</g>
</svg>
