<?xml version="1.0" encoding="utf-8"?>
<!-- Generator: Adobe Illustrator 19.1.0, SVG Export Plug-In . SVG Version: 6.00 Build 0)  -->
<svg version="1.1" id="Layer_1" xmlns="http://www.w3.org/2000/svg" xmlns:xlink="http://www.w3.org/1999/xlink" x="0px" y="0px"
	 viewBox="0 0 29.91 30.086" style="enable-background:new 0 0 29.91 30.086;" xml:space="preserve">
<style type="text/css">
	.st0{fill:#4D4D4D;}
	.st1{fill-rule:evenodd;clip-rule:evenodd;fill:#4C4C4C;}
	.st2{fill:#4C4C4C;}
	.st3{fill:#383330;}
	.st4{fill:#1F1A17;}
	.st5{fill:#4D4C4C;}
	.st6{fill:none;stroke:#000000;stroke-width:0.3;stroke-miterlimit:10;}
	.st7{fill:#E61413;}
	.st8{fill:#5F5357;}
	.st9{fill:#115C78;}
	.st10{fill-rule:evenodd;clip-rule:evenodd;fill:#4D4D4D;}
	.st11{fill-rule:evenodd;clip-rule:evenodd;}
	.st12{fill:#FFFFFF;}
	.st13{fill:none;}
	.st14{fill:#231F20;}
	.st15{clip-path:url(#SVGID_2_);}
	.st16{clip-path:url(#SVGID_4_);fill:#FCF118;}
	.st17{clip-path:url(#SVGID_4_);fill:#FCF018;}
	.st18{clip-path:url(#SVGID_4_);fill:#FCEF18;}
	.st19{clip-path:url(#SVGID_4_);fill:#FCEE18;}
	.st20{clip-path:url(#SVGID_4_);fill:#FCED18;}
	.st21{clip-path:url(#SVGID_4_);fill:#FCEC18;}
	.st22{clip-path:url(#SVGID_4_);fill:#FCEB18;}
	.st23{clip-path:url(#SVGID_4_);fill:#FCEA18;}
	.st24{clip-path:url(#SVGID_4_);fill:#FCE918;}
	.st25{clip-path:url(#SVGID_4_);fill:#FCE818;}
	.st26{clip-path:url(#SVGID_4_);fill:#FCE718;}
	.st27{clip-path:url(#SVGID_4_);fill:#FCE617;}
	.st28{clip-path:url(#SVGID_4_);fill:#FCE517;}
	.st29{clip-path:url(#SVGID_4_);fill:#FCE417;}
	.st30{clip-path:url(#SVGID_4_);fill:#FCE317;}
	.st31{clip-path:url(#SVGID_4_);fill:#FCE217;}
	.st32{clip-path:url(#SVGID_4_);fill:#FCE117;}
	.st33{clip-path:url(#SVGID_4_);fill:#FCE017;}
	.st34{clip-path:url(#SVGID_4_);fill:#FCDF17;}
	.st35{clip-path:url(#SVGID_4_);fill:#FCDE17;}
	.st36{clip-path:url(#SVGID_4_);fill:#FCDD17;}
	.st37{clip-path:url(#SVGID_4_);fill:#FCDC17;}
	.st38{clip-path:url(#SVGID_4_);fill:#FCDB17;}
	.st39{clip-path:url(#SVGID_4_);fill:#FCDA17;}
	.st40{clip-path:url(#SVGID_4_);fill:#FCD917;}
	.st41{clip-path:url(#SVGID_4_);fill:#FCD817;}
	.st42{clip-path:url(#SVGID_4_);fill:#FCD717;}
	.st43{clip-path:url(#SVGID_4_);fill:#FCD617;}
	.st44{clip-path:url(#SVGID_4_);fill:#FCD517;}
	.st45{clip-path:url(#SVGID_4_);fill:#FCD416;}
	.st46{clip-path:url(#SVGID_4_);fill:#FCD316;}
	.st47{clip-path:url(#SVGID_4_);fill:#FBD216;}
	.st48{clip-path:url(#SVGID_4_);fill:#FBD116;}
	.st49{clip-path:url(#SVGID_4_);fill:#FBD016;}
	.st50{clip-path:url(#SVGID_4_);fill:#FBCF16;}
	.st51{clip-path:url(#SVGID_4_);fill:#FBCE16;}
	.st52{clip-path:url(#SVGID_4_);fill:#FBCD16;}
	.st53{clip-path:url(#SVGID_4_);fill:#FBCC16;}
	.st54{clip-path:url(#SVGID_4_);fill:#FBCB16;}
	.st55{clip-path:url(#SVGID_4_);fill:#FBCA16;}
	.st56{clip-path:url(#SVGID_4_);fill:#FBC916;}
	.st57{clip-path:url(#SVGID_4_);fill:#FBC816;}
	.st58{clip-path:url(#SVGID_4_);fill:#FBC716;}
	.st59{clip-path:url(#SVGID_4_);fill:#FBC616;}
	.st60{clip-path:url(#SVGID_4_);fill:#FBC516;}
	.st61{clip-path:url(#SVGID_4_);fill:#FBC416;}
	.st62{clip-path:url(#SVGID_4_);fill:#FBC316;}
	.st63{clip-path:url(#SVGID_4_);fill:#FBC216;}
	.st64{clip-path:url(#SVGID_4_);fill:#FBC115;}
	.st65{clip-path:url(#SVGID_4_);fill:#FBC015;}
	.st66{clip-path:url(#SVGID_4_);fill:#FBBF15;}
	.st67{clip-path:url(#SVGID_4_);fill:#FBBE15;}
	.st68{clip-path:url(#SVGID_4_);fill:#FBBD15;}
	.st69{clip-path:url(#SVGID_4_);fill:#FBBC15;}
	.st70{clip-path:url(#SVGID_4_);fill:#FBBB15;}
	.st71{clip-path:url(#SVGID_4_);fill:#FBBA15;}
	.st72{clip-path:url(#SVGID_4_);fill:#FBB915;}
	.st73{clip-path:url(#SVGID_4_);fill:#FBB815;}
	.st74{clip-path:url(#SVGID_4_);fill:#FBB715;}
	.st75{clip-path:url(#SVGID_4_);fill:#FBB615;}
	.st76{clip-path:url(#SVGID_4_);fill:#FBB515;}
	.st77{clip-path:url(#SVGID_4_);fill:#FBB415;}
	.st78{clip-path:url(#SVGID_4_);fill:#FBB315;}
	.st79{clip-path:url(#SVGID_4_);fill:#FBB215;}
	.st80{clip-path:url(#SVGID_4_);fill:#FBB115;}
	.st81{clip-path:url(#SVGID_4_);fill:#FBB015;}
	.st82{clip-path:url(#SVGID_4_);fill:#FBAF15;}
	.st83{clip-path:url(#SVGID_4_);fill:#FAAE15;}
	.st84{clip-path:url(#SVGID_4_);fill:#FAAD14;}
	.st85{clip-path:url(#SVGID_4_);fill:#FAAC14;}
	.st86{clip-path:url(#SVGID_4_);fill:#FAAB14;}
	.st87{clip-path:url(#SVGID_4_);fill:#FAAA14;}
	.st88{clip-path:url(#SVGID_4_);fill:#FAA914;}
	.st89{clip-path:url(#SVGID_4_);fill:#FAA814;}
	.st90{clip-path:url(#SVGID_4_);fill:#FAA714;}
	.st91{clip-path:url(#SVGID_4_);fill:#FAA614;}
	.st92{clip-path:url(#SVGID_4_);fill:#FAA514;}
	.st93{clip-path:url(#SVGID_4_);fill:#FAA414;}
	.st94{clip-path:url(#SVGID_4_);fill:#FAA314;}
	.st95{clip-path:url(#SVGID_4_);fill:#FAA214;}
	.st96{clip-path:url(#SVGID_4_);fill:#FAA114;}
	.st97{clip-path:url(#SVGID_4_);fill:#FAA014;}
	.st98{clip-path:url(#SVGID_4_);fill:#FA9F14;}
	.st99{clip-path:url(#SVGID_4_);fill:#FA9E14;}
	.st100{clip-path:url(#SVGID_4_);fill:#FA9D14;}
	.st101{clip-path:url(#SVGID_4_);fill:#FA9C14;}
	.st102{clip-path:url(#SVGID_4_);fill:#FA9B14;}
	.st103{clip-path:url(#SVGID_4_);fill:#FA9A13;}
	.st104{clip-path:url(#SVGID_4_);fill:#FA9913;}
	.st105{clip-path:url(#SVGID_4_);fill:#FA9813;}
	.st106{clip-path:url(#SVGID_4_);fill:#FA9713;}
	.st107{clip-path:url(#SVGID_4_);fill:#FA9613;}
	.st108{clip-path:url(#SVGID_4_);fill:#FA9513;}
	.st109{clip-path:url(#SVGID_4_);fill:#FA9413;}
	.st110{clip-path:url(#SVGID_4_);fill:#FA9313;}
	.st111{clip-path:url(#SVGID_4_);fill:#FA9213;}
	.st112{clip-path:url(#SVGID_4_);fill:#FA9113;}
	.st113{clip-path:url(#SVGID_4_);fill:#FA9013;}
	.st114{clip-path:url(#SVGID_4_);fill:#FA8F13;}
	.st115{clip-path:url(#SVGID_4_);fill:#FA8E13;}
	.st116{clip-path:url(#SVGID_4_);fill:#FA8D13;}
	.st117{clip-path:url(#SVGID_4_);fill:#FA8C13;}
	.st118{clip-path:url(#SVGID_4_);fill:#FA8B13;}
	.st119{clip-path:url(#SVGID_4_);fill:#FA8A13;}
	.st120{clip-path:url(#SVGID_4_);fill:#FA8913;}
	.st121{clip-path:url(#SVGID_4_);fill:#FA8812;}
	.st122{clip-path:url(#SVGID_4_);fill:#FA8712;}
	.st123{clip-path:url(#SVGID_4_);fill:#FA8612;}
	.st124{clip-path:url(#SVGID_4_);fill:#F98512;}
	.st125{clip-path:url(#SVGID_4_);fill:#F98412;}
	.st126{clip-path:url(#SVGID_4_);fill:#F98312;}
	.st127{clip-path:url(#SVGID_4_);fill:#F98212;}
	.st128{clip-path:url(#SVGID_4_);fill:#F98112;}
	.st129{clip-path:url(#SVGID_4_);fill:#F98012;}
	.st130{clip-path:url(#SVGID_4_);fill:#F97F12;}
	.st131{clip-path:url(#SVGID_4_);fill:#F97E12;}
	.st132{clip-path:url(#SVGID_4_);fill:#F97D12;}
	.st133{clip-path:url(#SVGID_4_);fill:#F97C12;}
	.st134{clip-path:url(#SVGID_4_);fill:#F97B12;}
	.st135{clip-path:url(#SVGID_4_);fill:#F97A12;}
	.st136{clip-path:url(#SVGID_4_);fill:#F97912;}
	.st137{clip-path:url(#SVGID_4_);fill:#F97812;}
	.st138{clip-path:url(#SVGID_4_);fill:#F97712;}
	.st139{clip-path:url(#SVGID_4_);fill:#F97612;}
	.st140{clip-path:url(#SVGID_4_);fill:#F97511;}
	.st141{clip-path:url(#SVGID_4_);fill:#F97411;}
	.st142{clip-path:url(#SVGID_4_);fill:#F97311;}
	.st143{clip-path:url(#SVGID_4_);fill:#F97211;}
	.st144{clip-path:url(#SVGID_4_);fill:#F97111;}
	.st145{clip-path:url(#SVGID_4_);fill:#F97011;}
	.st146{clip-path:url(#SVGID_4_);fill:#F96F11;}
	.st147{clip-path:url(#SVGID_4_);fill:#F96E11;}
	.st148{clip-path:url(#SVGID_4_);fill:#F96D11;}
	.st149{clip-path:url(#SVGID_4_);fill:#F96C11;}
	.st150{clip-path:url(#SVGID_4_);fill:#F96B11;}
	.st151{clip-path:url(#SVGID_4_);fill:#F96A11;}
	.st152{clip-path:url(#SVGID_4_);fill:#F96911;}
	.st153{clip-path:url(#SVGID_4_);fill:#F96811;}
	.st154{clip-path:url(#SVGID_4_);fill:#F96711;}
	.st155{clip-path:url(#SVGID_4_);fill:#F96611;}
	.st156{clip-path:url(#SVGID_4_);fill:#F96511;}
	.st157{clip-path:url(#SVGID_4_);fill:#F96411;}
	.st158{clip-path:url(#SVGID_4_);fill:#F96311;}
	.st159{clip-path:url(#SVGID_4_);fill:#F96210;}
	.st160{clip-path:url(#SVGID_4_);fill:#F86110;}
	.st161{clip-path:url(#SVGID_4_);fill:#F86010;}
	.st162{clip-path:url(#SVGID_4_);fill:#F85F10;}
	.st163{clip-path:url(#SVGID_4_);fill:#F85E10;}
	.st164{clip-path:url(#SVGID_4_);fill:#F85D10;}
	.st165{clip-path:url(#SVGID_4_);fill:#F85C10;}
	.st166{clip-path:url(#SVGID_4_);fill:#F85B10;}
	.st167{clip-path:url(#SVGID_4_);fill:#F85A10;}
	.st168{clip-path:url(#SVGID_4_);fill:#F85910;}
	.st169{clip-path:url(#SVGID_4_);fill:#F85810;}
	.st170{clip-path:url(#SVGID_4_);fill:#F85710;}
	.st171{clip-path:url(#SVGID_4_);fill:#F85610;}
	.st172{clip-path:url(#SVGID_4_);fill:#F85510;}
	.st173{clip-path:url(#SVGID_4_);fill:#F85410;}
	.st174{clip-path:url(#SVGID_4_);fill:#F85310;}
	.st175{clip-path:url(#SVGID_4_);fill:#F85210;}
	.st176{clip-path:url(#SVGID_4_);fill:#F85110;}
	.st177{clip-path:url(#SVGID_4_);fill:#F85010;}
	.st178{clip-path:url(#SVGID_4_);fill:#F84F0F;}
	.st179{clip-path:url(#SVGID_4_);fill:#F84E0F;}
	.st180{clip-path:url(#SVGID_4_);fill:#F84D0F;}
	.st181{clip-path:url(#SVGID_4_);fill:#F84C0F;}
	.st182{clip-path:url(#SVGID_4_);fill:#F84B0F;}
	.st183{clip-path:url(#SVGID_4_);fill:#F84A0F;}
	.st184{clip-path:url(#SVGID_4_);fill:#F8490F;}
	.st185{clip-path:url(#SVGID_4_);fill:#F8480F;}
	.st186{clip-path:url(#SVGID_4_);fill:#F8470F;}
	.st187{clip-path:url(#SVGID_4_);fill:#F8460F;}
	.st188{clip-path:url(#SVGID_4_);fill:#F8450F;}
	.st189{clip-path:url(#SVGID_4_);fill:#F8440F;}
	.st190{clip-path:url(#SVGID_4_);fill:#F8430F;}
	.st191{clip-path:url(#SVGID_4_);fill:#F8420F;}
	.st192{clip-path:url(#SVGID_4_);fill:#F8410F;}
	.st193{clip-path:url(#SVGID_4_);fill:#F8400F;}
	.st194{clip-path:url(#SVGID_4_);fill:#F83F0F;}
	.st195{clip-path:url(#SVGID_4_);fill:#F83E0E;}
	.st196{clip-path:url(#SVGID_4_);fill:#F83D0E;}
	.st197{clip-path:url(#SVGID_4_);fill:#F83C0E;}
	.st198{clip-path:url(#SVGID_4_);fill:#F83B0E;}
	.st199{clip-path:url(#SVGID_4_);fill:#F73A0E;}
	.st200{clip-path:url(#SVGID_4_);fill:#F7390E;}
	.st201{clip-path:url(#SVGID_4_);fill:#F7380E;}
	.st202{clip-path:url(#SVGID_4_);fill:#F7370E;}
	.st203{clip-path:url(#SVGID_4_);fill:#F7360E;}
	.st204{clip-path:url(#SVGID_4_);fill:#F7340E;}
	.st205{clip-path:url(#SVGID_4_);fill:#F7330E;}
	.st206{clip-path:url(#SVGID_4_);fill:#F7320E;}
	.st207{clip-path:url(#SVGID_4_);fill:#F7310E;}
	.st208{clip-path:url(#SVGID_4_);fill:#F7300E;}
	.st209{clip-path:url(#SVGID_4_);fill:#F72F0E;}
	.st210{clip-path:url(#SVGID_4_);fill:#F72E0E;}
	.st211{clip-path:url(#SVGID_4_);fill:#F72D0E;}
	.st212{clip-path:url(#SVGID_4_);fill:#F72C0E;}
	.st213{clip-path:url(#SVGID_4_);fill:#F72B0E;}
	.st214{clip-path:url(#SVGID_4_);fill:#F72B0D;}
	.st215{clip-path:url(#SVGID_4_);fill:#F72A0D;}
	.st216{clip-path:url(#SVGID_4_);fill:#F7290D;}
	.st217{clip-path:url(#SVGID_4_);fill:#F7280D;}
	.st218{clip-path:url(#SVGID_4_);fill:#F7270D;}
	.st219{clip-path:url(#SVGID_4_);fill:#F7260D;}
</style>
<g>
	<path class="st0" d="M29.819,29.908h-7.432h-7.432H7.523H0.092v-7.432v-7.432V7.611V0.179h7.432h7.432h7.432h7.432v7.432v7.432
		v7.432V29.908z M0.342,29.658h7.307h7.307h7.307h7.307V22.35v-7.307V7.736V0.429h-7.307h-7.307H7.648H0.342v7.307v7.307v7.307
		V29.658z"/>
</g>
<g>
	<polygon class="st8" points="2.845,12.42 2.845,11.956 2.845,11.492 2.845,11.027 2.845,10.563 5.335,10.563 7.824,10.563 
		10.313,10.563 12.802,10.563 12.802,10.507 12.802,10.45 12.802,10.394 12.802,10.338 10.256,10.338 7.71,10.338 5.164,10.338 
		2.618,10.338 2.618,10.915 2.618,11.492 2.618,12.068 2.618,12.645 5.164,12.645 7.71,12.645 10.256,12.645 12.802,12.645 
		12.802,12.589 12.802,12.533 12.802,12.476 12.802,12.42 10.313,12.42 7.824,12.42 5.335,12.42 	"/>
</g>
<g>
	<polygon class="st8" points="12.802,10.339 12.802,10.395 12.802,10.451 12.802,10.507 12.802,10.564 12.802,10.664 12.802,10.764 
		12.802,10.864 12.802,10.965 12.859,10.965 12.915,10.965 12.972,10.965 13.029,10.965 13.029,10.864 13.029,10.764 13.029,10.664 
		13.029,10.564 13.029,10.507 13.029,10.451 13.029,10.395 13.029,10.339 12.972,10.339 12.915,10.339 12.859,10.339 	"/>
</g>
<g>
	<polygon class="st8" points="12.801,11.702 12.858,11.702 12.915,11.702 12.972,11.702 13.028,11.702 13.028,11.606 13.028,11.51 
		13.028,11.414 13.028,11.319 12.972,11.319 12.915,11.319 12.858,11.319 12.801,11.319 12.801,11.414 12.801,11.51 12.801,11.606 	
		"/>
</g>
<g>
	<polygon class="st8" points="12.802,12.054 12.802,12.146 12.802,12.237 12.802,12.329 12.802,12.42 12.802,12.476 12.802,12.533 
		12.802,12.589 12.802,12.645 12.859,12.645 12.915,12.645 12.972,12.645 13.029,12.645 13.029,12.589 13.029,12.533 13.029,12.476 
		13.029,12.42 13.029,12.329 13.029,12.237 13.029,12.146 13.029,12.054 12.972,12.054 12.915,12.054 12.859,12.054 	"/>
</g>
<g>
	<polygon class="st12" points="12.801,11.319 12.858,11.319 12.915,11.319 12.972,11.319 13.028,11.319 13.028,11.23 13.028,11.142 
		13.028,11.053 13.028,10.965 12.972,10.965 12.915,10.965 12.858,10.965 12.801,10.965 12.801,11.053 12.801,11.142 12.801,11.23 	
		"/>
</g>
<g>
	<polygon class="st12" points="12.801,12.054 12.858,12.054 12.915,12.054 12.972,12.054 13.028,12.054 13.028,11.966 
		13.028,11.877 13.028,11.789 13.028,11.701 12.972,11.701 12.915,11.701 12.858,11.701 12.801,11.701 12.801,11.789 12.801,11.877 
		12.801,11.966 	"/>
</g>
<g>
	<path class="st12" d="M23.237,18.982c-0.022,0.094-0.042,0.185-0.067,0.271c-0.025,0.086-0.054,0.166-0.096,0.237
		s-0.097,0.132-0.173,0.181c-0.076,0.049-0.172,0.084-0.297,0.103c-0.151,0.023-0.357-0.039-0.58-0.145
		c-0.223-0.106-0.463-0.255-0.684-0.407s-0.424-0.307-0.571-0.425c-0.147-0.117-0.239-0.196-0.239-0.196l-0.282-0.238l-0.282-0.238
		l-0.282-0.238l-0.282-0.238c0.188-0.185,0.43-0.313,0.695-0.395c0.265-0.082,0.553-0.119,0.833-0.121s0.551,0.03,0.784,0.086
		c0.232,0.055,0.425,0.134,0.548,0.225c0.123,0.091,0.254,0.196,0.379,0.312c0.125,0.116,0.245,0.243,0.345,0.376
		s0.18,0.274,0.227,0.417C23.26,18.691,23.273,18.837,23.237,18.982 M18.441,22.258c-0.035,0.164-0.074,0.297-0.121,0.405
		c-0.047,0.107-0.104,0.189-0.174,0.249s-0.155,0.099-0.26,0.121c-0.104,0.022-0.228,0.027-0.377,0.02
		c-0.151-0.007-0.288-0.044-0.411-0.103c-0.124-0.06-0.234-0.143-0.333-0.243s-0.185-0.216-0.261-0.343
		c-0.076-0.127-0.14-0.264-0.195-0.405c-0.055-0.141-0.079-0.363-0.07-0.621s0.052-0.551,0.13-0.834s0.192-0.555,0.344-0.772
		c0.152-0.216,0.342-0.377,0.573-0.435c0,0,0.074,0.16,0.186,0.406c0.111,0.246,0.259,0.579,0.405,0.924s0.292,0.703,0.399,0.999
		C18.383,21.922,18.45,22.157,18.441,22.258z M19.96,16.496c-0.325,0.083-0.623,0.123-0.885,0.136c-0.263,0.013-0.491,0-0.678-0.024
		s-0.334-0.058-0.434-0.086c-0.1-0.028-0.153-0.051-0.153-0.051l-0.227-0.168l-0.227-0.168l-0.227-0.168L16.904,15.8
		c-0.22-0.564-0.503-1.247-0.812-1.977c-0.31-0.73-0.646-1.508-0.975-2.264c-0.328-0.755-0.648-1.488-0.925-2.128
		c-0.276-0.64-0.509-1.187-0.662-1.57c-0.204-0.512-0.399-0.894-0.576-1.178s-0.337-0.47-0.472-0.593s-0.243-0.181-0.319-0.209
		s-0.117-0.025-0.117-0.025l0.87,2.231l0.87,2.231l0.87,2.231l0.87,2.231l-1.95-1.442l-1.95-1.442l-1.95-1.442l-1.95-1.442
		c0,0-0.012,0.043-0.004,0.128c0.009,0.084,0.038,0.21,0.123,0.376s0.224,0.37,0.451,0.613c0.227,0.243,0.543,0.523,0.98,0.839
		c0.34,0.246,0.819,0.622,1.378,1.071c0.559,0.449,1.197,0.971,1.854,1.508s1.332,1.087,1.965,1.595
		c0.633,0.507,1.224,0.97,1.713,1.331l0.096,0.247l0.096,0.247l0.096,0.247l0.096,0.247c0,0,0.007,0.056,0.008,0.159
		s-0.006,0.251-0.033,0.436s-0.076,0.405-0.16,0.651s-0.204,0.517-0.373,0.804c-0.152,0.257-0.297,0.584-0.401,0.948
		c-0.104,0.364-0.166,0.766-0.151,1.173s0.106,0.817,0.309,1.201s0.518,0.738,0.98,1.032c0.392,0.25,0.755,0.354,1.081,0.363
		c0.325,0.009,0.613-0.079,0.851-0.214s0.429-0.317,0.56-0.497c0.131-0.18,0.203-0.359,0.206-0.486
		c0.003-0.128-0.1-0.459-0.257-0.885c-0.156-0.426-0.365-0.946-0.575-1.449s-0.419-0.992-0.577-1.354
		c-0.158-0.362-0.263-0.598-0.263-0.598l-0.148-0.379l-0.148-0.379l-0.148-0.379l-0.148-0.379c0,0-0.005-0.014-0.016-0.04
		c-0.01-0.026-0.026-0.065-0.045-0.116s-0.044-0.112-0.072-0.183s-0.06-0.152-0.095-0.242c0.071,0.052,0.135,0.1,0.191,0.141
		c0.056,0.042,0.105,0.078,0.145,0.107s0.071,0.052,0.092,0.068c0.021,0.016,0.032,0.024,0.032,0.024l0.397,0.294l0.397,0.294
		l0.397,0.294l0.397,0.294c0,0,0.193,0.173,0.498,0.431s0.719,0.601,1.163,0.939s0.916,0.673,1.334,0.914
		c0.418,0.241,0.783,0.389,1.011,0.355c0.098-0.014,0.244-0.063,0.398-0.155c0.154-0.092,0.318-0.228,0.451-0.418
		s0.238-0.432,0.275-0.737c0.037-0.305,0.006-0.673-0.131-1.112c-0.161-0.519-0.422-0.915-0.74-1.212s-0.694-0.496-1.086-0.621
		s-0.801-0.175-1.184-0.175C20.61,16.372,20.252,16.421,19.96,16.496z"/>
</g>
<g>
	<path class="st0" d="M17.878,24.353c-0.098,0-0.197-0.008-0.296-0.024s-0.199-0.04-0.3-0.072s-0.201-0.072-0.301-0.119
		s-0.2-0.103-0.3-0.166c-0.46-0.293-0.782-0.649-0.996-1.036s-0.318-0.806-0.344-1.224s0.028-0.837,0.132-1.225
		s0.257-0.744,0.431-1.038c0.161-0.273,0.275-0.532,0.357-0.767s0.129-0.447,0.156-0.624s0.035-0.321,0.035-0.421
		s-0.006-0.156-0.006-0.158l-0.091-0.231l-0.091-0.231l-0.091-0.231l-0.091-0.231c-0.255-0.189-0.535-0.403-0.834-0.637
		c-0.299-0.233-0.615-0.485-0.943-0.748s-0.667-0.538-1.011-0.817s-0.691-0.563-1.036-0.845c-0.31-0.253-0.615-0.503-0.909-0.742
		s-0.577-0.468-0.841-0.68s-0.51-0.407-0.73-0.578s-0.414-0.319-0.576-0.436c-0.442-0.32-0.765-0.605-0.999-0.855
		c-0.234-0.25-0.381-0.464-0.471-0.64S7.61,9.261,7.599,9.161s0.003-0.161,0.009-0.18l0.012-0.043l0.012-0.043l0.012-0.043
		l0.012-0.043l1.899,1.404l1.899,1.404l1.899,1.404l1.899,1.404l-0.846-2.17l-0.846-2.17l-0.846-2.17l-0.846-2.17l0.042-0.003
		l0.042-0.003l0.042-0.003l0.042-0.003c0.017-0.001,0.075-0.002,0.164,0.03s0.211,0.098,0.355,0.229s0.314,0.326,0.498,0.62
		s0.384,0.684,0.591,1.203c0.065,0.162,0.143,0.351,0.232,0.564s0.19,0.45,0.3,0.706s0.229,0.531,0.355,0.822
		s0.259,0.596,0.396,0.912c0.184,0.422,0.373,0.858,0.562,1.294s0.378,0.874,0.56,1.3s0.356,0.84,0.518,1.228
		s0.309,0.753,0.436,1.079l0.219,0.162l0.219,0.162l0.219,0.162l0.219,0.162l0,0l0,0l0,0l0,0c0.003,0,0.055,0.02,0.152,0.044
		s0.238,0.054,0.416,0.074s0.395,0.03,0.643,0.016s0.528-0.053,0.833-0.131l0,0l0,0l0,0l0,0c0.333-0.085,0.722-0.134,1.127-0.126
		s0.828,0.07,1.228,0.209s0.78,0.352,1.099,0.66s0.578,0.711,0.739,1.227c0.073,0.236,0.116,0.451,0.136,0.645
		s0.016,0.369-0.003,0.525s-0.054,0.292-0.098,0.411s-0.096,0.22-0.149,0.305c-0.076,0.12-0.162,0.222-0.252,0.307
		s-0.184,0.155-0.274,0.21s-0.179,0.096-0.257,0.125s-0.146,0.046-0.198,0.054c-0.239,0.037-0.596-0.094-1.001-0.315
		s-0.858-0.532-1.292-0.857s-0.847-0.663-1.172-0.939s-0.562-0.487-0.642-0.559l-0.422-0.312l-0.422-0.312l-0.422-0.312
		l-0.422-0.312l0.165,0.424l0.165,0.424l0.165,0.424l0.165,0.424c0.043,0.096,0.17,0.382,0.336,0.765s0.372,0.864,0.572,1.349
		s0.394,0.974,0.538,1.375s0.236,0.713,0.234,0.844c-0.002,0.079-0.024,0.17-0.064,0.267s-0.099,0.199-0.174,0.301
		s-0.166,0.202-0.272,0.295s-0.225,0.177-0.357,0.248c-0.065,0.035-0.131,0.065-0.199,0.091s-0.135,0.048-0.205,0.065
		s-0.139,0.03-0.21,0.039S17.95,24.353,17.878,24.353z M7.885,9.287c0.024,0.071,0.062,0.158,0.122,0.261
		C8.066,9.65,8.148,9.768,8.26,9.9s0.253,0.28,0.433,0.442s0.396,0.338,0.659,0.528c0.163,0.118,0.359,0.266,0.58,0.438
		s0.468,0.368,0.733,0.58s0.548,0.442,0.843,0.682s0.601,0.49,0.911,0.744c0.347,0.284,0.698,0.57,1.044,0.852
		s0.688,0.558,1.018,0.823s0.648,0.517,0.948,0.751s0.58,0.448,0.834,0.636l0.007,0.005l0.007,0.005l0.007,0.005l0.007,0.005
		l0.099,0.255l0.099,0.255l0.099,0.255l0.099,0.255c0.003,0.017,0.012,0.087,0.014,0.201s-0.005,0.272-0.034,0.465
		s-0.079,0.419-0.166,0.671s-0.209,0.529-0.382,0.822c-0.162,0.273-0.305,0.604-0.402,0.963s-0.148,0.747-0.126,1.135
		s0.117,0.775,0.312,1.132s0.49,0.685,0.913,0.954c0.196,0.125,0.381,0.21,0.554,0.264s0.335,0.078,0.484,0.08
		s0.285-0.018,0.407-0.051s0.231-0.079,0.325-0.129c0.116-0.062,0.22-0.136,0.311-0.216s0.167-0.164,0.23-0.247
		s0.11-0.165,0.143-0.24s0.05-0.141,0.051-0.193c0.002-0.089-0.059-0.303-0.162-0.599s-0.248-0.672-0.414-1.085
		s-0.353-0.861-0.541-1.301s-0.376-0.871-0.544-1.247l-0.245-0.626l-0.245-0.626l-0.245-0.626l-0.245-0.626l0.599,0.443l0.599,0.443
		l0.599,0.443l0.599,0.443c0.209,0.187,0.507,0.444,0.847,0.725s0.725,0.585,1.107,0.866s0.762,0.538,1.094,0.725
		s0.616,0.304,0.807,0.304c0.005,0,0.01,0,0.015,0s0.01,0,0.014-0.001s0.009-0.001,0.014-0.001s0.009-0.001,0.014-0.002
		c0.049-0.007,0.109-0.024,0.175-0.05s0.139-0.063,0.213-0.111s0.149-0.106,0.22-0.176s0.139-0.151,0.198-0.245
		c0.068-0.107,0.12-0.223,0.158-0.347s0.06-0.256,0.067-0.397s-0.001-0.288-0.023-0.444s-0.061-0.32-0.114-0.491
		c-0.148-0.475-0.387-0.844-0.682-1.127s-0.647-0.478-1.019-0.604s-0.764-0.183-1.142-0.189s-0.739,0.04-1.05,0.118l0,0l0,0l0,0l0,0
		c-0.332,0.085-0.634,0.127-0.903,0.141s-0.502,0.001-0.696-0.023s-0.347-0.059-0.454-0.09s-0.168-0.055-0.177-0.059l-0.24-0.177
		l-0.24-0.177l-0.24-0.177l-0.24-0.177l-0.003-0.008l-0.003-0.008l-0.003-0.008l-0.003-0.008c-0.127-0.325-0.274-0.689-0.436-1.079
		s-0.337-0.806-0.52-1.234s-0.373-0.869-0.563-1.309s-0.382-0.879-0.567-1.304c-0.138-0.317-0.271-0.623-0.397-0.913
		s-0.246-0.567-0.356-0.823s-0.211-0.494-0.301-0.708s-0.168-0.404-0.233-0.567c-0.121-0.303-0.238-0.559-0.349-0.774
		S12.848,6.743,12.75,6.6s-0.189-0.252-0.27-0.336s-0.153-0.144-0.213-0.185l0.883,2.265l0.883,2.265l0.883,2.265l0.883,2.265
		l-1.979-1.463l-1.979-1.463L9.864,10.75L7.885,9.287z M17.624,23.18c-0.01,0-0.019,0-0.029,0s-0.02,0-0.03-0.001
		s-0.02-0.001-0.03-0.001s-0.02-0.001-0.031-0.001c-0.142-0.007-0.277-0.037-0.404-0.09s-0.246-0.13-0.356-0.228
		s-0.212-0.22-0.304-0.362s-0.175-0.307-0.247-0.492c-0.041-0.106-0.067-0.247-0.077-0.41s-0.004-0.348,0.019-0.541
		s0.061-0.395,0.116-0.592s0.127-0.388,0.216-0.561c0.051-0.099,0.106-0.188,0.165-0.269s0.122-0.151,0.188-0.212
		s0.136-0.112,0.209-0.153s0.148-0.071,0.226-0.091l0.025-0.006l0.025-0.006l0.025-0.006l0.025-0.006l0.011,0.023l0.011,0.023
		l0.011,0.023l0.011,0.023c0.05,0.108,0.151,0.325,0.272,0.597s0.265,0.597,0.4,0.923s0.264,0.65,0.355,0.919
		s0.148,0.483,0.138,0.587l-0.001,0.004l-0.001,0.004l-0.001,0.004l-0.001,0.004c-0.036,0.168-0.077,0.307-0.127,0.423
		s-0.11,0.206-0.183,0.277s-0.159,0.119-0.263,0.151S17.766,23.18,17.624,23.18z M17.22,19.45c-0.063,0.027-0.121,0.063-0.174,0.105
		s-0.102,0.09-0.146,0.141s-0.083,0.105-0.118,0.159s-0.066,0.108-0.092,0.159c-0.086,0.167-0.153,0.349-0.203,0.534
		s-0.084,0.372-0.103,0.548s-0.024,0.341-0.016,0.482s0.028,0.257,0.059,0.336c0.044,0.112,0.097,0.23,0.162,0.344
		s0.141,0.224,0.23,0.321s0.19,0.181,0.306,0.242s0.246,0.1,0.392,0.107c0.134,0.006,0.244,0.004,0.334-0.013
		s0.162-0.048,0.221-0.099s0.105-0.12,0.144-0.214s0.071-0.212,0.103-0.36c0.003-0.069-0.036-0.217-0.103-0.415
		s-0.162-0.446-0.272-0.717s-0.234-0.562-0.359-0.848S17.333,19.695,17.22,19.45z M22.543,19.903c-0.168,0-0.374-0.067-0.59-0.171
		S21.51,19.49,21.3,19.347s-0.405-0.29-0.555-0.409s-0.258-0.211-0.295-0.243l-0.308-0.26l-0.308-0.26l-0.308-0.26l-0.308-0.26
		l0.024-0.024l0.024-0.024l0.024-0.024l0.024-0.024c0.201-0.198,0.458-0.336,0.737-0.424s0.582-0.128,0.876-0.13
		s0.579,0.033,0.825,0.093s0.451,0.146,0.584,0.244c0.138,0.102,0.281,0.218,0.415,0.343s0.259,0.262,0.362,0.405
		s0.184,0.293,0.229,0.448s0.055,0.313,0.016,0.473l-0.005,0.019l-0.005,0.019l-0.005,0.019l-0.005,0.019
		c-0.02,0.085-0.04,0.173-0.068,0.258s-0.064,0.168-0.114,0.243s-0.116,0.142-0.202,0.195s-0.195,0.093-0.332,0.114
		c-0.006,0.001-0.013,0.002-0.02,0.003s-0.013,0.001-0.02,0.002s-0.013,0.001-0.02,0.001S22.55,19.903,22.543,19.903z
		 M19.595,17.646l0.254,0.215l0.254,0.215l0.254,0.215l0.254,0.215c0.099,0.085,0.244,0.204,0.413,0.332s0.361,0.267,0.555,0.392
		s0.39,0.239,0.565,0.316s0.33,0.12,0.442,0.104c0.095-0.015,0.17-0.039,0.229-0.074s0.104-0.078,0.14-0.131
		s0.061-0.114,0.083-0.184s0.04-0.147,0.06-0.231l0.005-0.02l0.005-0.02l0.005-0.02l0.005-0.02c0.032-0.133,0.016-0.269-0.034-0.403
		s-0.132-0.265-0.231-0.389s-0.214-0.241-0.33-0.346s-0.232-0.196-0.333-0.271c-0.112-0.083-0.285-0.153-0.493-0.203
		s-0.45-0.08-0.701-0.082s-0.511,0.024-0.753,0.086S19.776,17.504,19.595,17.646z"/>
</g>
<g>
	<polygon class="st8" points="13.029,10.338 13.029,10.394 13.029,10.451 13.029,10.507 13.029,10.563 15.528,10.563 18.028,10.563 
		20.527,10.563 23.026,10.563 23.026,11.028 23.026,11.492 23.026,11.956 23.026,12.42 20.527,12.42 18.028,12.42 15.528,12.42 
		13.029,12.42 13.029,12.477 13.029,12.533 13.029,12.589 13.029,12.645 15.585,12.645 18.142,12.645 20.698,12.645 23.254,12.645 
		23.254,12.069 23.254,11.492 23.254,10.915 23.254,10.338 20.698,10.338 18.142,10.338 15.585,10.338 	"/>
</g>
<g>
	<polygon class="st12" points="13.029,12.42 15.529,12.42 18.028,12.42 20.527,12.42 23.026,12.42 23.026,11.955 23.026,11.491 
		23.026,11.027 23.026,10.563 20.527,10.563 18.028,10.563 15.529,10.563 13.029,10.563 13.029,11.027 13.029,11.491 13.029,11.955 
			"/>
</g>
</svg>
