<?xml version="1.0" encoding="utf-8"?>
<!-- Generator: Adobe Illustrator 19.1.0, SVG Export Plug-In . SVG Version: 6.00 Build 0)  -->
<svg version="1.1" id="Layer_1" xmlns="http://www.w3.org/2000/svg" xmlns:xlink="http://www.w3.org/1999/xlink" x="0px" y="0px"
	 viewBox="0 0 29.91 30.086" style="enable-background:new 0 0 29.91 30.086;" xml:space="preserve">
<style type="text/css">
	.st0{fill:#4D4D4D;}
	.st1{fill-rule:evenodd;clip-rule:evenodd;fill:#4C4C4C;}
	.st2{fill:#4C4C4C;}
	.st3{fill:#383330;}
	.st4{fill:#1F1A17;}
	.st5{fill:#4D4C4C;}
	.st6{fill:none;stroke:#000000;stroke-width:0.3;stroke-miterlimit:10;}
	.st7{fill:#E61413;}
	.st8{fill:#5F5357;}
	.st9{fill:#115C78;}
	.st10{fill-rule:evenodd;clip-rule:evenodd;fill:#4D4D4D;}
	.st11{fill-rule:evenodd;clip-rule:evenodd;}
	.st12{fill:#FFFFFF;}
	.st13{fill:none;}
	.st14{fill:#231F20;}
	.st15{clip-path:url(#SVGID_2_);}
	.st16{clip-path:url(#SVGID_4_);fill:#FCF118;}
	.st17{clip-path:url(#SVGID_4_);fill:#FCF018;}
	.st18{clip-path:url(#SVGID_4_);fill:#FCEF18;}
	.st19{clip-path:url(#SVGID_4_);fill:#FCEE18;}
	.st20{clip-path:url(#SVGID_4_);fill:#FCED18;}
	.st21{clip-path:url(#SVGID_4_);fill:#FCEC18;}
	.st22{clip-path:url(#SVGID_4_);fill:#FCEB18;}
	.st23{clip-path:url(#SVGID_4_);fill:#FCEA18;}
	.st24{clip-path:url(#SVGID_4_);fill:#FCE918;}
	.st25{clip-path:url(#SVGID_4_);fill:#FCE818;}
	.st26{clip-path:url(#SVGID_4_);fill:#FCE718;}
	.st27{clip-path:url(#SVGID_4_);fill:#FCE617;}
	.st28{clip-path:url(#SVGID_4_);fill:#FCE517;}
	.st29{clip-path:url(#SVGID_4_);fill:#FCE417;}
	.st30{clip-path:url(#SVGID_4_);fill:#FCE317;}
	.st31{clip-path:url(#SVGID_4_);fill:#FCE217;}
	.st32{clip-path:url(#SVGID_4_);fill:#FCE117;}
	.st33{clip-path:url(#SVGID_4_);fill:#FCE017;}
	.st34{clip-path:url(#SVGID_4_);fill:#FCDF17;}
	.st35{clip-path:url(#SVGID_4_);fill:#FCDE17;}
	.st36{clip-path:url(#SVGID_4_);fill:#FCDD17;}
	.st37{clip-path:url(#SVGID_4_);fill:#FCDC17;}
	.st38{clip-path:url(#SVGID_4_);fill:#FCDB17;}
	.st39{clip-path:url(#SVGID_4_);fill:#FCDA17;}
	.st40{clip-path:url(#SVGID_4_);fill:#FCD917;}
	.st41{clip-path:url(#SVGID_4_);fill:#FCD817;}
	.st42{clip-path:url(#SVGID_4_);fill:#FCD717;}
	.st43{clip-path:url(#SVGID_4_);fill:#FCD617;}
	.st44{clip-path:url(#SVGID_4_);fill:#FCD517;}
	.st45{clip-path:url(#SVGID_4_);fill:#FCD416;}
	.st46{clip-path:url(#SVGID_4_);fill:#FCD316;}
	.st47{clip-path:url(#SVGID_4_);fill:#FBD216;}
	.st48{clip-path:url(#SVGID_4_);fill:#FBD116;}
	.st49{clip-path:url(#SVGID_4_);fill:#FBD016;}
	.st50{clip-path:url(#SVGID_4_);fill:#FBCF16;}
	.st51{clip-path:url(#SVGID_4_);fill:#FBCE16;}
	.st52{clip-path:url(#SVGID_4_);fill:#FBCD16;}
	.st53{clip-path:url(#SVGID_4_);fill:#FBCC16;}
	.st54{clip-path:url(#SVGID_4_);fill:#FBCB16;}
	.st55{clip-path:url(#SVGID_4_);fill:#FBCA16;}
	.st56{clip-path:url(#SVGID_4_);fill:#FBC916;}
	.st57{clip-path:url(#SVGID_4_);fill:#FBC816;}
	.st58{clip-path:url(#SVGID_4_);fill:#FBC716;}
	.st59{clip-path:url(#SVGID_4_);fill:#FBC616;}
	.st60{clip-path:url(#SVGID_4_);fill:#FBC516;}
	.st61{clip-path:url(#SVGID_4_);fill:#FBC416;}
	.st62{clip-path:url(#SVGID_4_);fill:#FBC316;}
	.st63{clip-path:url(#SVGID_4_);fill:#FBC216;}
	.st64{clip-path:url(#SVGID_4_);fill:#FBC115;}
	.st65{clip-path:url(#SVGID_4_);fill:#FBC015;}
	.st66{clip-path:url(#SVGID_4_);fill:#FBBF15;}
	.st67{clip-path:url(#SVGID_4_);fill:#FBBE15;}
	.st68{clip-path:url(#SVGID_4_);fill:#FBBD15;}
	.st69{clip-path:url(#SVGID_4_);fill:#FBBC15;}
	.st70{clip-path:url(#SVGID_4_);fill:#FBBB15;}
	.st71{clip-path:url(#SVGID_4_);fill:#FBBA15;}
	.st72{clip-path:url(#SVGID_4_);fill:#FBB915;}
	.st73{clip-path:url(#SVGID_4_);fill:#FBB815;}
	.st74{clip-path:url(#SVGID_4_);fill:#FBB715;}
	.st75{clip-path:url(#SVGID_4_);fill:#FBB615;}
	.st76{clip-path:url(#SVGID_4_);fill:#FBB515;}
	.st77{clip-path:url(#SVGID_4_);fill:#FBB415;}
	.st78{clip-path:url(#SVGID_4_);fill:#FBB315;}
	.st79{clip-path:url(#SVGID_4_);fill:#FBB215;}
	.st80{clip-path:url(#SVGID_4_);fill:#FBB115;}
	.st81{clip-path:url(#SVGID_4_);fill:#FBB015;}
	.st82{clip-path:url(#SVGID_4_);fill:#FBAF15;}
	.st83{clip-path:url(#SVGID_4_);fill:#FAAE15;}
	.st84{clip-path:url(#SVGID_4_);fill:#FAAD14;}
	.st85{clip-path:url(#SVGID_4_);fill:#FAAC14;}
	.st86{clip-path:url(#SVGID_4_);fill:#FAAB14;}
	.st87{clip-path:url(#SVGID_4_);fill:#FAAA14;}
	.st88{clip-path:url(#SVGID_4_);fill:#FAA914;}
	.st89{clip-path:url(#SVGID_4_);fill:#FAA814;}
	.st90{clip-path:url(#SVGID_4_);fill:#FAA714;}
	.st91{clip-path:url(#SVGID_4_);fill:#FAA614;}
	.st92{clip-path:url(#SVGID_4_);fill:#FAA514;}
	.st93{clip-path:url(#SVGID_4_);fill:#FAA414;}
	.st94{clip-path:url(#SVGID_4_);fill:#FAA314;}
	.st95{clip-path:url(#SVGID_4_);fill:#FAA214;}
	.st96{clip-path:url(#SVGID_4_);fill:#FAA114;}
	.st97{clip-path:url(#SVGID_4_);fill:#FAA014;}
	.st98{clip-path:url(#SVGID_4_);fill:#FA9F14;}
	.st99{clip-path:url(#SVGID_4_);fill:#FA9E14;}
	.st100{clip-path:url(#SVGID_4_);fill:#FA9D14;}
	.st101{clip-path:url(#SVGID_4_);fill:#FA9C14;}
	.st102{clip-path:url(#SVGID_4_);fill:#FA9B14;}
	.st103{clip-path:url(#SVGID_4_);fill:#FA9A13;}
	.st104{clip-path:url(#SVGID_4_);fill:#FA9913;}
	.st105{clip-path:url(#SVGID_4_);fill:#FA9813;}
	.st106{clip-path:url(#SVGID_4_);fill:#FA9713;}
	.st107{clip-path:url(#SVGID_4_);fill:#FA9613;}
	.st108{clip-path:url(#SVGID_4_);fill:#FA9513;}
	.st109{clip-path:url(#SVGID_4_);fill:#FA9413;}
	.st110{clip-path:url(#SVGID_4_);fill:#FA9313;}
	.st111{clip-path:url(#SVGID_4_);fill:#FA9213;}
	.st112{clip-path:url(#SVGID_4_);fill:#FA9113;}
	.st113{clip-path:url(#SVGID_4_);fill:#FA9013;}
	.st114{clip-path:url(#SVGID_4_);fill:#FA8F13;}
	.st115{clip-path:url(#SVGID_4_);fill:#FA8E13;}
	.st116{clip-path:url(#SVGID_4_);fill:#FA8D13;}
	.st117{clip-path:url(#SVGID_4_);fill:#FA8C13;}
	.st118{clip-path:url(#SVGID_4_);fill:#FA8B13;}
	.st119{clip-path:url(#SVGID_4_);fill:#FA8A13;}
	.st120{clip-path:url(#SVGID_4_);fill:#FA8913;}
	.st121{clip-path:url(#SVGID_4_);fill:#FA8812;}
	.st122{clip-path:url(#SVGID_4_);fill:#FA8712;}
	.st123{clip-path:url(#SVGID_4_);fill:#FA8612;}
	.st124{clip-path:url(#SVGID_4_);fill:#F98512;}
	.st125{clip-path:url(#SVGID_4_);fill:#F98412;}
	.st126{clip-path:url(#SVGID_4_);fill:#F98312;}
	.st127{clip-path:url(#SVGID_4_);fill:#F98212;}
	.st128{clip-path:url(#SVGID_4_);fill:#F98112;}
	.st129{clip-path:url(#SVGID_4_);fill:#F98012;}
	.st130{clip-path:url(#SVGID_4_);fill:#F97F12;}
	.st131{clip-path:url(#SVGID_4_);fill:#F97E12;}
	.st132{clip-path:url(#SVGID_4_);fill:#F97D12;}
	.st133{clip-path:url(#SVGID_4_);fill:#F97C12;}
	.st134{clip-path:url(#SVGID_4_);fill:#F97B12;}
	.st135{clip-path:url(#SVGID_4_);fill:#F97A12;}
	.st136{clip-path:url(#SVGID_4_);fill:#F97912;}
	.st137{clip-path:url(#SVGID_4_);fill:#F97812;}
	.st138{clip-path:url(#SVGID_4_);fill:#F97712;}
	.st139{clip-path:url(#SVGID_4_);fill:#F97612;}
	.st140{clip-path:url(#SVGID_4_);fill:#F97511;}
	.st141{clip-path:url(#SVGID_4_);fill:#F97411;}
	.st142{clip-path:url(#SVGID_4_);fill:#F97311;}
	.st143{clip-path:url(#SVGID_4_);fill:#F97211;}
	.st144{clip-path:url(#SVGID_4_);fill:#F97111;}
	.st145{clip-path:url(#SVGID_4_);fill:#F97011;}
	.st146{clip-path:url(#SVGID_4_);fill:#F96F11;}
	.st147{clip-path:url(#SVGID_4_);fill:#F96E11;}
	.st148{clip-path:url(#SVGID_4_);fill:#F96D11;}
	.st149{clip-path:url(#SVGID_4_);fill:#F96C11;}
	.st150{clip-path:url(#SVGID_4_);fill:#F96B11;}
	.st151{clip-path:url(#SVGID_4_);fill:#F96A11;}
	.st152{clip-path:url(#SVGID_4_);fill:#F96911;}
	.st153{clip-path:url(#SVGID_4_);fill:#F96811;}
	.st154{clip-path:url(#SVGID_4_);fill:#F96711;}
	.st155{clip-path:url(#SVGID_4_);fill:#F96611;}
	.st156{clip-path:url(#SVGID_4_);fill:#F96511;}
	.st157{clip-path:url(#SVGID_4_);fill:#F96411;}
	.st158{clip-path:url(#SVGID_4_);fill:#F96311;}
	.st159{clip-path:url(#SVGID_4_);fill:#F96210;}
	.st160{clip-path:url(#SVGID_4_);fill:#F86110;}
	.st161{clip-path:url(#SVGID_4_);fill:#F86010;}
	.st162{clip-path:url(#SVGID_4_);fill:#F85F10;}
	.st163{clip-path:url(#SVGID_4_);fill:#F85E10;}
	.st164{clip-path:url(#SVGID_4_);fill:#F85D10;}
	.st165{clip-path:url(#SVGID_4_);fill:#F85C10;}
	.st166{clip-path:url(#SVGID_4_);fill:#F85B10;}
	.st167{clip-path:url(#SVGID_4_);fill:#F85A10;}
	.st168{clip-path:url(#SVGID_4_);fill:#F85910;}
	.st169{clip-path:url(#SVGID_4_);fill:#F85810;}
	.st170{clip-path:url(#SVGID_4_);fill:#F85710;}
	.st171{clip-path:url(#SVGID_4_);fill:#F85610;}
	.st172{clip-path:url(#SVGID_4_);fill:#F85510;}
	.st173{clip-path:url(#SVGID_4_);fill:#F85410;}
	.st174{clip-path:url(#SVGID_4_);fill:#F85310;}
	.st175{clip-path:url(#SVGID_4_);fill:#F85210;}
	.st176{clip-path:url(#SVGID_4_);fill:#F85110;}
	.st177{clip-path:url(#SVGID_4_);fill:#F85010;}
	.st178{clip-path:url(#SVGID_4_);fill:#F84F0F;}
	.st179{clip-path:url(#SVGID_4_);fill:#F84E0F;}
	.st180{clip-path:url(#SVGID_4_);fill:#F84D0F;}
	.st181{clip-path:url(#SVGID_4_);fill:#F84C0F;}
	.st182{clip-path:url(#SVGID_4_);fill:#F84B0F;}
	.st183{clip-path:url(#SVGID_4_);fill:#F84A0F;}
	.st184{clip-path:url(#SVGID_4_);fill:#F8490F;}
	.st185{clip-path:url(#SVGID_4_);fill:#F8480F;}
	.st186{clip-path:url(#SVGID_4_);fill:#F8470F;}
	.st187{clip-path:url(#SVGID_4_);fill:#F8460F;}
	.st188{clip-path:url(#SVGID_4_);fill:#F8450F;}
	.st189{clip-path:url(#SVGID_4_);fill:#F8440F;}
	.st190{clip-path:url(#SVGID_4_);fill:#F8430F;}
	.st191{clip-path:url(#SVGID_4_);fill:#F8420F;}
	.st192{clip-path:url(#SVGID_4_);fill:#F8410F;}
	.st193{clip-path:url(#SVGID_4_);fill:#F8400F;}
	.st194{clip-path:url(#SVGID_4_);fill:#F83F0F;}
	.st195{clip-path:url(#SVGID_4_);fill:#F83E0E;}
	.st196{clip-path:url(#SVGID_4_);fill:#F83D0E;}
	.st197{clip-path:url(#SVGID_4_);fill:#F83C0E;}
	.st198{clip-path:url(#SVGID_4_);fill:#F83B0E;}
	.st199{clip-path:url(#SVGID_4_);fill:#F73A0E;}
	.st200{clip-path:url(#SVGID_4_);fill:#F7390E;}
	.st201{clip-path:url(#SVGID_4_);fill:#F7380E;}
	.st202{clip-path:url(#SVGID_4_);fill:#F7370E;}
	.st203{clip-path:url(#SVGID_4_);fill:#F7360E;}
	.st204{clip-path:url(#SVGID_4_);fill:#F7340E;}
	.st205{clip-path:url(#SVGID_4_);fill:#F7330E;}
	.st206{clip-path:url(#SVGID_4_);fill:#F7320E;}
	.st207{clip-path:url(#SVGID_4_);fill:#F7310E;}
	.st208{clip-path:url(#SVGID_4_);fill:#F7300E;}
	.st209{clip-path:url(#SVGID_4_);fill:#F72F0E;}
	.st210{clip-path:url(#SVGID_4_);fill:#F72E0E;}
	.st211{clip-path:url(#SVGID_4_);fill:#F72D0E;}
	.st212{clip-path:url(#SVGID_4_);fill:#F72C0E;}
	.st213{clip-path:url(#SVGID_4_);fill:#F72B0E;}
	.st214{clip-path:url(#SVGID_4_);fill:#F72B0D;}
	.st215{clip-path:url(#SVGID_4_);fill:#F72A0D;}
	.st216{clip-path:url(#SVGID_4_);fill:#F7290D;}
	.st217{clip-path:url(#SVGID_4_);fill:#F7280D;}
	.st218{clip-path:url(#SVGID_4_);fill:#F7270D;}
	.st219{clip-path:url(#SVGID_4_);fill:#F7260D;}
</style>
<g>
	<g>
		<path class="st0" d="M5.061,14.164l-0.008,0.001l-0.008,0.001l-0.008,0.001l-0.008,0.001l-0.02,0.001l-0.02,0.001l-0.02,0.001
			l-0.02,0.001H4.635H4.322H4.009H3.696H3.688H3.679H3.67H3.661l-0.009-0.001l-0.009-0.001l-0.009-0.001l-0.009-0.001l-0.012-0.001
			l-0.012-0.001l-0.012-0.001L3.58,14.164c-0.049,0-0.096,0.008-0.14,0.023s-0.085,0.036-0.122,0.063s-0.07,0.06-0.097,0.097
			s-0.049,0.079-0.063,0.124c0.015,0.045,0.036,0.086,0.063,0.123s0.06,0.07,0.097,0.097s0.078,0.048,0.122,0.063
			s0.091,0.023,0.139,0.023l0.009-0.001l0.009-0.001l0.009-0.001l0.009-0.001l0.02-0.001l0.02-0.001l0.02-0.001l0.02-0.001h0.313
			h0.313h0.313h0.313h0.009h0.009h0.009h0.009l0.008,0.001l0.008,0.001l0.008,0.001l0.008,0.001c0,0,0.001,0,0.001,0
			s0.001,0,0.001,0s0.001,0,0.001,0s0.001,0,0.001,0c0.058,0,0.112-0.008,0.161-0.022s0.095-0.036,0.134-0.063
			s0.074-0.059,0.103-0.096s0.051-0.078,0.066-0.122c-0.015-0.045-0.037-0.086-0.064-0.124s-0.06-0.07-0.097-0.097
			s-0.078-0.049-0.123-0.063S5.11,14.164,5.061,14.164z"/>
	</g>
</g>
<g>
	<g>
		<path class="st0" d="M7.508,21.668c-0.034,0-0.067,0.004-0.099,0.011s-0.063,0.018-0.093,0.032s-0.057,0.031-0.083,0.052
			s-0.05,0.044-0.071,0.07l-0.006,0.007l-0.006,0.007l-0.006,0.007L7.14,21.86l-0.006,0.006l-0.006,0.006L7.12,21.88l-0.006,0.006
			l-0.223,0.223l-0.223,0.223l-0.223,0.223l-0.223,0.223l-0.006,0.006l-0.006,0.006l-0.006,0.006l-0.006,0.006l-0.007,0.006
			l-0.007,0.006l-0.007,0.006l-0.007,0.006c-0.041,0.033-0.074,0.072-0.099,0.116c-0.026,0.043-0.043,0.09-0.053,0.138
			s-0.012,0.098-0.006,0.147c0.006,0.049,0.02,0.098,0.043,0.143c0.019,0.009,0.037,0.017,0.055,0.023
			c0.018,0.006,0.036,0.011,0.052,0.014s0.033,0.006,0.048,0.007c0.015,0.001,0.029,0.002,0.042,0.002
			c0.034,0,0.067-0.004,0.099-0.011c0.032-0.007,0.063-0.018,0.092-0.032s0.057-0.031,0.083-0.051
			c0.026-0.02,0.05-0.043,0.071-0.069l0.006-0.007l0.006-0.007l0.006-0.007l0.006-0.007l0.006-0.006l0.006-0.006l0.006-0.006
			l0.006-0.006l0.223-0.223l0.223-0.223l0.223-0.223l0.223-0.223l0.006-0.006l0.006-0.006l0.006-0.006l0.006-0.006l0.007-0.005
			l0.007-0.005l0.007-0.005l0.007-0.005c0.042-0.034,0.076-0.074,0.102-0.117c0.026-0.043,0.044-0.09,0.054-0.139
			s0.012-0.098,0.006-0.148c-0.006-0.049-0.021-0.098-0.044-0.144c-0.019-0.009-0.037-0.017-0.055-0.023
			c-0.018-0.006-0.035-0.011-0.052-0.014s-0.033-0.006-0.048-0.007C7.535,21.669,7.521,21.668,7.508,21.668z"/>
	</g>
</g>
<g>
	<g>
		<path class="st0" d="M7.699,7.222c0.023-0.046,0.037-0.095,0.044-0.144S7.747,6.98,7.737,6.931S7.709,6.836,7.683,6.793
			S7.623,6.71,7.582,6.676L7.575,6.671L7.569,6.666L7.562,6.66L7.556,6.655L7.55,6.649L7.544,6.643L7.538,6.637L7.532,6.631
			L7.309,6.408L7.086,6.186L6.864,5.963L6.641,5.74L6.635,5.734L6.629,5.728L6.623,5.722L6.617,5.716L6.612,5.71L6.606,5.703
			L6.601,5.697L6.596,5.69C6.574,5.664,6.55,5.641,6.524,5.621S6.47,5.583,6.44,5.569S6.38,5.545,6.347,5.537
			S6.282,5.527,6.248,5.527c-0.013,0-0.027,0.001-0.043,0.002S6.174,5.532,6.157,5.536S6.123,5.544,6.105,5.55
			S6.068,5.563,6.05,5.573C6.026,5.619,6.012,5.668,6.005,5.717S6.001,5.816,6.011,5.865S6.04,5.96,6.066,6.003
			s0.06,0.083,0.102,0.117l0.007,0.005L6.18,6.131l0.007,0.005l0.007,0.005l0.006,0.006l0.006,0.006L6.211,6.16l0.006,0.006
			L6.44,6.387l0.223,0.222l0.223,0.222l0.223,0.222l0.006,0.006l0.006,0.006l0.006,0.006l0.006,0.006l0.006,0.007l0.006,0.007
			l0.006,0.007l0.006,0.007c0.021,0.026,0.045,0.049,0.071,0.069s0.054,0.037,0.083,0.051s0.06,0.025,0.092,0.032
			s0.065,0.011,0.099,0.011c0.013,0,0.027-0.001,0.042-0.002S7.575,7.263,7.592,7.26s0.034-0.008,0.052-0.014
			S7.681,7.232,7.699,7.222z"/>
	</g>
</g>
<g>
	<g>
		<path class="st0" d="M23.656,5.525c-0.034,0-0.067,0.004-0.099,0.011s-0.063,0.018-0.092,0.032s-0.057,0.031-0.083,0.051
			s-0.05,0.043-0.071,0.069l-0.006,0.007L23.3,5.702l-0.006,0.007l-0.006,0.007l-0.006,0.006l-0.006,0.006l-0.006,0.006L23.264,5.74
			l-0.223,0.223l-0.223,0.223l-0.223,0.223l-0.223,0.223l-0.006,0.006l-0.006,0.006l-0.006,0.006l-0.006,0.006L22.343,6.66
			l-0.007,0.005L22.33,6.671l-0.007,0.005c-0.041,0.034-0.075,0.073-0.101,0.117s-0.044,0.09-0.054,0.138s-0.012,0.098-0.006,0.147
			s0.02,0.098,0.043,0.144c0.019,0.009,0.037,0.017,0.055,0.023c0.018,0.006,0.035,0.011,0.052,0.014s0.033,0.006,0.048,0.007
			c0.015,0.001,0.029,0.002,0.042,0.002c0.034,0,0.067-0.004,0.099-0.011s0.063-0.018,0.093-0.032s0.058-0.031,0.084-0.051
			s0.05-0.043,0.071-0.069l0.005-0.007l0.005-0.007l0.005-0.007l0.005-0.007l0.006-0.006l0.006-0.006l0.006-0.006l0.006-0.006
			l0.223-0.223l0.223-0.223l0.223-0.223l0.223-0.223l0.006-0.006l0.006-0.006l0.006-0.006l0.006-0.006l0.007-0.005l0.007-0.005
			l0.007-0.005l0.007-0.005C23.778,6.083,23.812,6.044,23.837,6c0.026-0.043,0.044-0.09,0.054-0.138s0.012-0.098,0.006-0.147
			c-0.006-0.049-0.021-0.098-0.044-0.144c-0.019-0.009-0.037-0.017-0.055-0.023c-0.018-0.006-0.035-0.011-0.052-0.014
			s-0.033-0.006-0.048-0.007C23.684,5.525,23.669,5.525,23.656,5.525z"/>
	</g>
</g>
<g>
	<g>
		<path class="st0" d="M15.253,3.214V3.205V3.196V3.187V3.178l0.001-0.009l0.001-0.009l0.001-0.009l0.001-0.009
			c0.005-0.052,0.001-0.104-0.011-0.152s-0.033-0.094-0.06-0.136s-0.061-0.078-0.1-0.109s-0.084-0.055-0.132-0.071
			c-0.048,0.016-0.093,0.04-0.132,0.07s-0.073,0.067-0.101,0.109s-0.048,0.087-0.06,0.136s-0.017,0.1-0.011,0.153l0.001,0.009
			l0.001,0.009l0.001,0.009l0.001,0.009v0.009v0.009v0.009v0.009v0.313v0.313v0.313v0.313v0.009v0.009v0.009v0.009l-0.001,0.009
			l-0.001,0.009L14.65,4.527l-0.001,0.009c-0.005,0.053-0.001,0.104,0.011,0.153s0.033,0.095,0.06,0.136s0.061,0.078,0.101,0.109
			s0.084,0.055,0.132,0.07c0.048-0.016,0.093-0.04,0.132-0.071s0.073-0.067,0.1-0.109s0.048-0.087,0.06-0.136s0.017-0.1,0.011-0.152
			l-0.001-0.009l-0.001-0.009L15.254,4.51l-0.001-0.009V4.492V4.483V4.474V4.465V4.152V3.839V3.527V3.214z"/>
	</g>
</g>
<g>
	<g>
		<path class="st0" d="M23.806,22.88l-0.017-0.011l-0.017-0.011l-0.017-0.011l-0.017-0.011l-0.014-0.014l-0.014-0.014l-0.014-0.014
			l-0.014-0.014l-0.222-0.223l-0.222-0.223l-0.222-0.223l-0.222-0.223l-0.014-0.014l-0.014-0.014l-0.014-0.014l-0.014-0.014
			l-0.01-0.016l-0.01-0.016l-0.01-0.016l-0.01-0.016c-0.015-0.024-0.033-0.045-0.052-0.064s-0.042-0.035-0.065-0.047
			s-0.049-0.023-0.075-0.03s-0.054-0.01-0.082-0.01c-0.015,0-0.031,0.001-0.046,0.003s-0.03,0.005-0.044,0.01
			s-0.029,0.01-0.042,0.016s-0.027,0.014-0.041,0.022c-0.025,0.016-0.045,0.033-0.063,0.051c-0.017,0.018-0.031,0.037-0.042,0.055
			s-0.019,0.036-0.025,0.053c-0.006,0.016-0.01,0.031-0.013,0.044s-0.005,0.028-0.007,0.045c-0.001,0.018-0.002,0.037,0,0.059
			s0.006,0.044,0.014,0.068c0.008,0.024,0.019,0.048,0.035,0.073c0.006,0.01,0.013,0.02,0.021,0.029
			c0.007,0.009,0.015,0.018,0.024,0.027s0.017,0.016,0.026,0.024c0.009,0.007,0.019,0.014,0.029,0.021l0.016,0.01l0.016,0.01
			l0.016,0.01l0.016,0.01l0.014,0.014l0.014,0.014l0.014,0.014l0.014,0.014l0.223,0.223l0.223,0.223l0.223,0.223l0.223,0.223
			l0.014,0.014l0.014,0.014l0.014,0.014l0.014,0.014l0.011,0.017l0.011,0.017l0.011,0.017l0.011,0.017
			c0.015,0.024,0.033,0.045,0.052,0.064c0.02,0.019,0.042,0.035,0.066,0.048s0.049,0.023,0.076,0.03
			c0.027,0.007,0.054,0.01,0.082,0.01c0.015,0,0.03-0.001,0.045-0.003s0.029-0.005,0.044-0.009s0.028-0.009,0.042-0.016
			s0.027-0.013,0.04-0.022c0.025-0.016,0.045-0.033,0.063-0.051c0.017-0.018,0.031-0.037,0.042-0.055s0.019-0.036,0.026-0.053
			c0.006-0.016,0.011-0.031,0.013-0.044c0.003-0.012,0.006-0.028,0.007-0.045s0.002-0.037,0-0.059s-0.006-0.044-0.014-0.068
			s-0.019-0.048-0.034-0.073c-0.006-0.01-0.014-0.02-0.021-0.03s-0.016-0.019-0.024-0.027s-0.018-0.017-0.027-0.024
			S23.816,22.886,23.806,22.88z"/>
	</g>
</g>
<g>
	<g>
		<path class="st0" d="M26.751,14.472c-0.015-0.045-0.037-0.087-0.064-0.124c-0.027-0.037-0.06-0.07-0.098-0.097
			s-0.079-0.049-0.123-0.063c-0.044-0.015-0.092-0.023-0.141-0.023l-0.008,0.001l-0.008,0.001L26.3,14.167l-0.008,0.001l-0.02,0.001
			l-0.02,0.001l-0.02,0.001l-0.02,0.001h-0.306h-0.306h-0.306h-0.306h-0.009H24.97h-0.009h-0.009l-0.009-0.001l-0.009-0.001
			l-0.009-0.001l-0.009-0.001l-0.012-0.001l-0.012-0.001l-0.012-0.001l-0.012-0.001c-0.049,0-0.096,0.008-0.14,0.023
			s-0.085,0.036-0.122,0.063s-0.07,0.06-0.097,0.097s-0.049,0.079-0.063,0.124c0.015,0.045,0.036,0.086,0.063,0.123
			s0.06,0.07,0.097,0.097s0.078,0.048,0.122,0.063s0.091,0.023,0.139,0.023l0.009-0.001l0.009-0.001l0.009-0.001l0.009-0.001
			l0.02-0.001l0.02-0.001l0.02-0.001l0.02-0.001h0.306h0.306h0.306h0.306h0.009h0.009h0.009h0.009l0.009,0.001l0.009,0.001
			l0.009,0.001l0.009,0.001c0,0,0.001,0,0.001,0s0.001,0,0.001,0s0.001,0,0.001,0s0.001,0,0.001,0c0.058,0,0.112-0.008,0.161-0.022
			s0.094-0.036,0.134-0.062s0.074-0.059,0.102-0.096S26.736,14.516,26.751,14.472z"/>
	</g>
</g>
<g>
	<g>
		<path class="st0" d="M14.957,8.293c-0.852,0-1.665,0.173-2.404,0.486s-1.405,0.766-1.965,1.325s-1.013,1.225-1.326,1.964
			s-0.486,1.551-0.486,2.403c0,0.852,0.173,1.664,0.486,2.403c0.313,0.739,0.766,1.405,1.325,1.964s1.225,1.012,1.964,1.325
			c0.739,0.313,1.551,0.486,2.403,0.486c0.852,0,1.664-0.173,2.403-0.486c0.739-0.313,1.405-0.766,1.964-1.325
			s1.012-1.225,1.325-1.964c0.313-0.739,0.486-1.551,0.486-2.403c0.001-0.412-0.037-0.817-0.114-1.212
			c-0.077-0.395-0.192-0.779-0.344-1.149s-0.339-0.724-0.562-1.059c-0.222-0.335-0.479-0.65-0.769-0.942
			c-0.29-0.292-0.604-0.551-0.937-0.775c-0.333-0.225-0.686-0.415-1.055-0.569s-0.752-0.272-1.146-0.351
			c-0.394-0.079-0.799-0.121-1.21-0.122l-0.002-0.087l-0.002-0.087L14.99,8.032l-0.002-0.087c-0.002,0-0.003,0-0.005,0
			s-0.003,0-0.005,0s-0.003,0-0.005,0s-0.003,0-0.005,0l-0.003,0.087l-0.003,0.087l-0.003,0.087L14.957,8.293z M15.655,9.469v2.502
			v2.502v2.502v2.502v0.175v0.175V20v0.175l-0.175,0l-0.175,0l-0.175,0l-0.175,0c-0.786,0-1.536-0.16-2.218-0.449
			c-0.682-0.289-1.297-0.707-1.813-1.224s-0.934-1.131-1.223-1.813c-0.289-0.682-0.449-1.432-0.449-2.218
			c0-0.786,0.16-1.535,0.449-2.217s0.707-1.296,1.223-1.813s1.131-0.934,1.813-1.223s1.431-0.449,2.217-0.449l0.175,0l0.175,0
			l0.175,0l0.175,0v0.175v0.175v0.175V9.469z"/>
	</g>
</g>
<g>
	<g>
		<path class="st0" d="M15.256,25.801l-0.001-0.009l-0.001-0.009l-0.001-0.009l-0.001-0.009v-0.009v-0.009v-0.009V25.73v-0.313
			v-0.313v-0.313v-0.313V24.47v-0.009v-0.009v-0.009l0.001-0.009l0.001-0.009l0.001-0.009l0.001-0.009
			c0.005-0.052,0.001-0.104-0.011-0.152s-0.033-0.094-0.06-0.136s-0.061-0.078-0.1-0.109s-0.084-0.055-0.132-0.071
			c-0.048,0.016-0.093,0.04-0.132,0.07c-0.039,0.03-0.073,0.067-0.101,0.109s-0.048,0.087-0.06,0.136
			c-0.012,0.049-0.017,0.1-0.011,0.153l0.001,0.009l0.001,0.009l0.001,0.009l0.001,0.009v0.009v0.009v0.009v0.009v0.313v0.313v0.313
			v0.313v0.009v0.009v0.009v0.009l-0.001,0.009l-0.001,0.009l-0.001,0.009l-0.001,0.009c-0.005,0.053-0.001,0.104,0.011,0.153
			s0.033,0.095,0.06,0.136s0.061,0.078,0.101,0.109s0.084,0.055,0.132,0.07c0.048-0.016,0.093-0.04,0.132-0.071
			s0.073-0.067,0.1-0.109s0.048-0.087,0.06-0.136S15.262,25.853,15.256,25.801z"/>
	</g>
</g>
<g>
	<path class="st0" d="M29.792,29.891H22.36h-7.432H7.496H0.064v-7.432v-7.432V7.595V0.162h7.432h7.432h7.432h7.432v7.432v7.432
		v7.432V29.891z M0.314,29.641h7.307h7.307h7.307h7.307v-7.307v-7.307V7.72V0.412h-7.307h-7.307H7.621H0.314V7.72v7.307v7.307
		V29.641z"/>
</g>
</svg>
