<?xml version="1.0" encoding="utf-8"?>
<!-- Generator: Adobe Illustrator 19.1.0, SVG Export Plug-In . SVG Version: 6.00 Build 0)  -->
<svg version="1.1" id="Layer_1" xmlns="http://www.w3.org/2000/svg" xmlns:xlink="http://www.w3.org/1999/xlink" x="0px" y="0px"
	 viewBox="0 0 29.91 30.086" style="enable-background:new 0 0 29.91 30.086;" xml:space="preserve">
<style type="text/css">
	.st0{fill:#4D4D4D;}
	.st1{fill-rule:evenodd;clip-rule:evenodd;fill:#4C4C4C;}
	.st2{fill:#4C4C4C;}
	.st3{fill:#383330;}
	.st4{fill:#1F1A17;}
	.st5{fill:#4D4C4C;}
	.st6{fill:none;stroke:#000000;stroke-width:0.3;stroke-miterlimit:10;}
	.st7{fill:#E61413;}
	.st8{fill:#5F5357;}
	.st9{fill:#115C78;}
	.st10{fill-rule:evenodd;clip-rule:evenodd;fill:#4D4D4D;}
	.st11{fill-rule:evenodd;clip-rule:evenodd;}
	.st12{fill:#FFFFFF;}
	.st13{fill:none;}
	.st14{fill:#231F20;}
	.st15{clip-path:url(#SVGID_2_);}
	.st16{clip-path:url(#SVGID_4_);fill:#FCF118;}
	.st17{clip-path:url(#SVGID_4_);fill:#FCF018;}
	.st18{clip-path:url(#SVGID_4_);fill:#FCEF18;}
	.st19{clip-path:url(#SVGID_4_);fill:#FCEE18;}
	.st20{clip-path:url(#SVGID_4_);fill:#FCED18;}
	.st21{clip-path:url(#SVGID_4_);fill:#FCEC18;}
	.st22{clip-path:url(#SVGID_4_);fill:#FCEB18;}
	.st23{clip-path:url(#SVGID_4_);fill:#FCEA18;}
	.st24{clip-path:url(#SVGID_4_);fill:#FCE918;}
	.st25{clip-path:url(#SVGID_4_);fill:#FCE818;}
	.st26{clip-path:url(#SVGID_4_);fill:#FCE718;}
	.st27{clip-path:url(#SVGID_4_);fill:#FCE617;}
	.st28{clip-path:url(#SVGID_4_);fill:#FCE517;}
	.st29{clip-path:url(#SVGID_4_);fill:#FCE417;}
	.st30{clip-path:url(#SVGID_4_);fill:#FCE317;}
	.st31{clip-path:url(#SVGID_4_);fill:#FCE217;}
	.st32{clip-path:url(#SVGID_4_);fill:#FCE117;}
	.st33{clip-path:url(#SVGID_4_);fill:#FCE017;}
	.st34{clip-path:url(#SVGID_4_);fill:#FCDF17;}
	.st35{clip-path:url(#SVGID_4_);fill:#FCDE17;}
	.st36{clip-path:url(#SVGID_4_);fill:#FCDD17;}
	.st37{clip-path:url(#SVGID_4_);fill:#FCDC17;}
	.st38{clip-path:url(#SVGID_4_);fill:#FCDB17;}
	.st39{clip-path:url(#SVGID_4_);fill:#FCDA17;}
	.st40{clip-path:url(#SVGID_4_);fill:#FCD917;}
	.st41{clip-path:url(#SVGID_4_);fill:#FCD817;}
	.st42{clip-path:url(#SVGID_4_);fill:#FCD717;}
	.st43{clip-path:url(#SVGID_4_);fill:#FCD617;}
	.st44{clip-path:url(#SVGID_4_);fill:#FCD517;}
	.st45{clip-path:url(#SVGID_4_);fill:#FCD416;}
	.st46{clip-path:url(#SVGID_4_);fill:#FCD316;}
	.st47{clip-path:url(#SVGID_4_);fill:#FBD216;}
	.st48{clip-path:url(#SVGID_4_);fill:#FBD116;}
	.st49{clip-path:url(#SVGID_4_);fill:#FBD016;}
	.st50{clip-path:url(#SVGID_4_);fill:#FBCF16;}
	.st51{clip-path:url(#SVGID_4_);fill:#FBCE16;}
	.st52{clip-path:url(#SVGID_4_);fill:#FBCD16;}
	.st53{clip-path:url(#SVGID_4_);fill:#FBCC16;}
	.st54{clip-path:url(#SVGID_4_);fill:#FBCB16;}
	.st55{clip-path:url(#SVGID_4_);fill:#FBCA16;}
	.st56{clip-path:url(#SVGID_4_);fill:#FBC916;}
	.st57{clip-path:url(#SVGID_4_);fill:#FBC816;}
	.st58{clip-path:url(#SVGID_4_);fill:#FBC716;}
	.st59{clip-path:url(#SVGID_4_);fill:#FBC616;}
	.st60{clip-path:url(#SVGID_4_);fill:#FBC516;}
	.st61{clip-path:url(#SVGID_4_);fill:#FBC416;}
	.st62{clip-path:url(#SVGID_4_);fill:#FBC316;}
	.st63{clip-path:url(#SVGID_4_);fill:#FBC216;}
	.st64{clip-path:url(#SVGID_4_);fill:#FBC115;}
	.st65{clip-path:url(#SVGID_4_);fill:#FBC015;}
	.st66{clip-path:url(#SVGID_4_);fill:#FBBF15;}
	.st67{clip-path:url(#SVGID_4_);fill:#FBBE15;}
	.st68{clip-path:url(#SVGID_4_);fill:#FBBD15;}
	.st69{clip-path:url(#SVGID_4_);fill:#FBBC15;}
	.st70{clip-path:url(#SVGID_4_);fill:#FBBB15;}
	.st71{clip-path:url(#SVGID_4_);fill:#FBBA15;}
	.st72{clip-path:url(#SVGID_4_);fill:#FBB915;}
	.st73{clip-path:url(#SVGID_4_);fill:#FBB815;}
	.st74{clip-path:url(#SVGID_4_);fill:#FBB715;}
	.st75{clip-path:url(#SVGID_4_);fill:#FBB615;}
	.st76{clip-path:url(#SVGID_4_);fill:#FBB515;}
	.st77{clip-path:url(#SVGID_4_);fill:#FBB415;}
	.st78{clip-path:url(#SVGID_4_);fill:#FBB315;}
	.st79{clip-path:url(#SVGID_4_);fill:#FBB215;}
	.st80{clip-path:url(#SVGID_4_);fill:#FBB115;}
	.st81{clip-path:url(#SVGID_4_);fill:#FBB015;}
	.st82{clip-path:url(#SVGID_4_);fill:#FBAF15;}
	.st83{clip-path:url(#SVGID_4_);fill:#FAAE15;}
	.st84{clip-path:url(#SVGID_4_);fill:#FAAD14;}
	.st85{clip-path:url(#SVGID_4_);fill:#FAAC14;}
	.st86{clip-path:url(#SVGID_4_);fill:#FAAB14;}
	.st87{clip-path:url(#SVGID_4_);fill:#FAAA14;}
	.st88{clip-path:url(#SVGID_4_);fill:#FAA914;}
	.st89{clip-path:url(#SVGID_4_);fill:#FAA814;}
	.st90{clip-path:url(#SVGID_4_);fill:#FAA714;}
	.st91{clip-path:url(#SVGID_4_);fill:#FAA614;}
	.st92{clip-path:url(#SVGID_4_);fill:#FAA514;}
	.st93{clip-path:url(#SVGID_4_);fill:#FAA414;}
	.st94{clip-path:url(#SVGID_4_);fill:#FAA314;}
	.st95{clip-path:url(#SVGID_4_);fill:#FAA214;}
	.st96{clip-path:url(#SVGID_4_);fill:#FAA114;}
	.st97{clip-path:url(#SVGID_4_);fill:#FAA014;}
	.st98{clip-path:url(#SVGID_4_);fill:#FA9F14;}
	.st99{clip-path:url(#SVGID_4_);fill:#FA9E14;}
	.st100{clip-path:url(#SVGID_4_);fill:#FA9D14;}
	.st101{clip-path:url(#SVGID_4_);fill:#FA9C14;}
	.st102{clip-path:url(#SVGID_4_);fill:#FA9B14;}
	.st103{clip-path:url(#SVGID_4_);fill:#FA9A13;}
	.st104{clip-path:url(#SVGID_4_);fill:#FA9913;}
	.st105{clip-path:url(#SVGID_4_);fill:#FA9813;}
	.st106{clip-path:url(#SVGID_4_);fill:#FA9713;}
	.st107{clip-path:url(#SVGID_4_);fill:#FA9613;}
	.st108{clip-path:url(#SVGID_4_);fill:#FA9513;}
	.st109{clip-path:url(#SVGID_4_);fill:#FA9413;}
	.st110{clip-path:url(#SVGID_4_);fill:#FA9313;}
	.st111{clip-path:url(#SVGID_4_);fill:#FA9213;}
	.st112{clip-path:url(#SVGID_4_);fill:#FA9113;}
	.st113{clip-path:url(#SVGID_4_);fill:#FA9013;}
	.st114{clip-path:url(#SVGID_4_);fill:#FA8F13;}
	.st115{clip-path:url(#SVGID_4_);fill:#FA8E13;}
	.st116{clip-path:url(#SVGID_4_);fill:#FA8D13;}
	.st117{clip-path:url(#SVGID_4_);fill:#FA8C13;}
	.st118{clip-path:url(#SVGID_4_);fill:#FA8B13;}
	.st119{clip-path:url(#SVGID_4_);fill:#FA8A13;}
	.st120{clip-path:url(#SVGID_4_);fill:#FA8913;}
	.st121{clip-path:url(#SVGID_4_);fill:#FA8812;}
	.st122{clip-path:url(#SVGID_4_);fill:#FA8712;}
	.st123{clip-path:url(#SVGID_4_);fill:#FA8612;}
	.st124{clip-path:url(#SVGID_4_);fill:#F98512;}
	.st125{clip-path:url(#SVGID_4_);fill:#F98412;}
	.st126{clip-path:url(#SVGID_4_);fill:#F98312;}
	.st127{clip-path:url(#SVGID_4_);fill:#F98212;}
	.st128{clip-path:url(#SVGID_4_);fill:#F98112;}
	.st129{clip-path:url(#SVGID_4_);fill:#F98012;}
	.st130{clip-path:url(#SVGID_4_);fill:#F97F12;}
	.st131{clip-path:url(#SVGID_4_);fill:#F97E12;}
	.st132{clip-path:url(#SVGID_4_);fill:#F97D12;}
	.st133{clip-path:url(#SVGID_4_);fill:#F97C12;}
	.st134{clip-path:url(#SVGID_4_);fill:#F97B12;}
	.st135{clip-path:url(#SVGID_4_);fill:#F97A12;}
	.st136{clip-path:url(#SVGID_4_);fill:#F97912;}
	.st137{clip-path:url(#SVGID_4_);fill:#F97812;}
	.st138{clip-path:url(#SVGID_4_);fill:#F97712;}
	.st139{clip-path:url(#SVGID_4_);fill:#F97612;}
	.st140{clip-path:url(#SVGID_4_);fill:#F97511;}
	.st141{clip-path:url(#SVGID_4_);fill:#F97411;}
	.st142{clip-path:url(#SVGID_4_);fill:#F97311;}
	.st143{clip-path:url(#SVGID_4_);fill:#F97211;}
	.st144{clip-path:url(#SVGID_4_);fill:#F97111;}
	.st145{clip-path:url(#SVGID_4_);fill:#F97011;}
	.st146{clip-path:url(#SVGID_4_);fill:#F96F11;}
	.st147{clip-path:url(#SVGID_4_);fill:#F96E11;}
	.st148{clip-path:url(#SVGID_4_);fill:#F96D11;}
	.st149{clip-path:url(#SVGID_4_);fill:#F96C11;}
	.st150{clip-path:url(#SVGID_4_);fill:#F96B11;}
	.st151{clip-path:url(#SVGID_4_);fill:#F96A11;}
	.st152{clip-path:url(#SVGID_4_);fill:#F96911;}
	.st153{clip-path:url(#SVGID_4_);fill:#F96811;}
	.st154{clip-path:url(#SVGID_4_);fill:#F96711;}
	.st155{clip-path:url(#SVGID_4_);fill:#F96611;}
	.st156{clip-path:url(#SVGID_4_);fill:#F96511;}
	.st157{clip-path:url(#SVGID_4_);fill:#F96411;}
	.st158{clip-path:url(#SVGID_4_);fill:#F96311;}
	.st159{clip-path:url(#SVGID_4_);fill:#F96210;}
	.st160{clip-path:url(#SVGID_4_);fill:#F86110;}
	.st161{clip-path:url(#SVGID_4_);fill:#F86010;}
	.st162{clip-path:url(#SVGID_4_);fill:#F85F10;}
	.st163{clip-path:url(#SVGID_4_);fill:#F85E10;}
	.st164{clip-path:url(#SVGID_4_);fill:#F85D10;}
	.st165{clip-path:url(#SVGID_4_);fill:#F85C10;}
	.st166{clip-path:url(#SVGID_4_);fill:#F85B10;}
	.st167{clip-path:url(#SVGID_4_);fill:#F85A10;}
	.st168{clip-path:url(#SVGID_4_);fill:#F85910;}
	.st169{clip-path:url(#SVGID_4_);fill:#F85810;}
	.st170{clip-path:url(#SVGID_4_);fill:#F85710;}
	.st171{clip-path:url(#SVGID_4_);fill:#F85610;}
	.st172{clip-path:url(#SVGID_4_);fill:#F85510;}
	.st173{clip-path:url(#SVGID_4_);fill:#F85410;}
	.st174{clip-path:url(#SVGID_4_);fill:#F85310;}
	.st175{clip-path:url(#SVGID_4_);fill:#F85210;}
	.st176{clip-path:url(#SVGID_4_);fill:#F85110;}
	.st177{clip-path:url(#SVGID_4_);fill:#F85010;}
	.st178{clip-path:url(#SVGID_4_);fill:#F84F0F;}
	.st179{clip-path:url(#SVGID_4_);fill:#F84E0F;}
	.st180{clip-path:url(#SVGID_4_);fill:#F84D0F;}
	.st181{clip-path:url(#SVGID_4_);fill:#F84C0F;}
	.st182{clip-path:url(#SVGID_4_);fill:#F84B0F;}
	.st183{clip-path:url(#SVGID_4_);fill:#F84A0F;}
	.st184{clip-path:url(#SVGID_4_);fill:#F8490F;}
	.st185{clip-path:url(#SVGID_4_);fill:#F8480F;}
	.st186{clip-path:url(#SVGID_4_);fill:#F8470F;}
	.st187{clip-path:url(#SVGID_4_);fill:#F8460F;}
	.st188{clip-path:url(#SVGID_4_);fill:#F8450F;}
	.st189{clip-path:url(#SVGID_4_);fill:#F8440F;}
	.st190{clip-path:url(#SVGID_4_);fill:#F8430F;}
	.st191{clip-path:url(#SVGID_4_);fill:#F8420F;}
	.st192{clip-path:url(#SVGID_4_);fill:#F8410F;}
	.st193{clip-path:url(#SVGID_4_);fill:#F8400F;}
	.st194{clip-path:url(#SVGID_4_);fill:#F83F0F;}
	.st195{clip-path:url(#SVGID_4_);fill:#F83E0E;}
	.st196{clip-path:url(#SVGID_4_);fill:#F83D0E;}
	.st197{clip-path:url(#SVGID_4_);fill:#F83C0E;}
	.st198{clip-path:url(#SVGID_4_);fill:#F83B0E;}
	.st199{clip-path:url(#SVGID_4_);fill:#F73A0E;}
	.st200{clip-path:url(#SVGID_4_);fill:#F7390E;}
	.st201{clip-path:url(#SVGID_4_);fill:#F7380E;}
	.st202{clip-path:url(#SVGID_4_);fill:#F7370E;}
	.st203{clip-path:url(#SVGID_4_);fill:#F7360E;}
	.st204{clip-path:url(#SVGID_4_);fill:#F7340E;}
	.st205{clip-path:url(#SVGID_4_);fill:#F7330E;}
	.st206{clip-path:url(#SVGID_4_);fill:#F7320E;}
	.st207{clip-path:url(#SVGID_4_);fill:#F7310E;}
	.st208{clip-path:url(#SVGID_4_);fill:#F7300E;}
	.st209{clip-path:url(#SVGID_4_);fill:#F72F0E;}
	.st210{clip-path:url(#SVGID_4_);fill:#F72E0E;}
	.st211{clip-path:url(#SVGID_4_);fill:#F72D0E;}
	.st212{clip-path:url(#SVGID_4_);fill:#F72C0E;}
	.st213{clip-path:url(#SVGID_4_);fill:#F72B0E;}
	.st214{clip-path:url(#SVGID_4_);fill:#F72B0D;}
	.st215{clip-path:url(#SVGID_4_);fill:#F72A0D;}
	.st216{clip-path:url(#SVGID_4_);fill:#F7290D;}
	.st217{clip-path:url(#SVGID_4_);fill:#F7280D;}
	.st218{clip-path:url(#SVGID_4_);fill:#F7270D;}
	.st219{clip-path:url(#SVGID_4_);fill:#F7260D;}
</style>
<g>
	<path class="st0" d="M14.953,7c0.073,0,0.143-0.015,0.206-0.042c0.063-0.027,0.121-0.066,0.169-0.114s0.087-0.105,0.114-0.169
		s0.042-0.133,0.042-0.206V5.557V4.644V3.73V2.817c0-0.073-0.015-0.143-0.042-0.206s-0.066-0.121-0.114-0.169
		c-0.048-0.048-0.105-0.087-0.169-0.114c-0.063-0.027-0.133-0.042-0.206-0.042s-0.143,0.015-0.206,0.042
		c-0.063,0.027-0.121,0.066-0.169,0.114c-0.048,0.048-0.087,0.105-0.114,0.169s-0.042,0.133-0.042,0.206V3.73v0.913v0.913V6.47
		c0,0.073,0.015,0.143,0.042,0.206s0.066,0.121,0.114,0.169s0.105,0.087,0.169,0.114C14.81,6.985,14.88,7,14.953,7z M23.701,6.661
		l-0.646,0.646l-0.646,0.646l-0.646,0.646l-0.646,0.646c-0.052,0.052-0.112,0.091-0.175,0.117c-0.064,0.026-0.132,0.039-0.2,0.039
		c-0.068,0-0.136-0.013-0.2-0.039c-0.064-0.026-0.124-0.065-0.175-0.117c-0.052-0.052-0.091-0.112-0.117-0.175
		s-0.039-0.132-0.039-0.2s0.013-0.136,0.039-0.2s0.065-0.124,0.117-0.175l0.646-0.646l0.646-0.646l0.646-0.646l0.646-0.646
		c0.052-0.052,0.111-0.091,0.175-0.117c0.064-0.026,0.132-0.039,0.199-0.039c0.068,0,0.136,0.013,0.2,0.039
		c0.064,0.026,0.124,0.065,0.175,0.117c0.052,0.052,0.091,0.112,0.117,0.175c0.026,0.064,0.039,0.132,0.039,0.2
		c0,0.068-0.013,0.136-0.039,0.2C23.791,6.549,23.752,6.609,23.701,6.661z M6.954,5.911C6.903,5.859,6.843,5.82,6.779,5.794
		s-0.132-0.039-0.2-0.039s-0.136,0.013-0.2,0.039C6.316,5.82,6.256,5.859,6.204,5.911C6.153,5.962,6.114,6.022,6.088,6.086
		c-0.026,0.064-0.039,0.132-0.039,0.2c0,0.068,0.013,0.136,0.039,0.2c0.026,0.064,0.065,0.124,0.117,0.175L6.85,7.306l0.646,0.646
		l0.646,0.646l0.646,0.646C8.839,9.295,8.899,9.334,8.963,9.36c0.064,0.026,0.132,0.039,0.2,0.039s0.136-0.013,0.2-0.039
		c0.064-0.026,0.124-0.065,0.175-0.117c0.052-0.052,0.09-0.112,0.116-0.175c0.026-0.064,0.039-0.132,0.039-0.2
		c0-0.068-0.013-0.136-0.039-0.2C9.628,8.605,9.589,8.545,9.538,8.493L8.892,7.848L8.246,7.202L7.6,6.556L6.954,5.911z
		 M14.928,9.464c-0.72,0-1.406,0.146-2.029,0.41c-0.624,0.264-1.185,0.646-1.657,1.117c-0.472,0.472-0.854,1.033-1.117,1.657
		s-0.41,1.31-0.41,2.029s0.146,1.406,0.41,2.029c0.264,0.624,0.646,1.185,1.117,1.657c0.472,0.472,1.033,0.854,1.657,1.117
		c0.624,0.264,1.31,0.41,2.029,0.41c0.72,0,1.406-0.146,2.029-0.41c0.624-0.264,1.185-0.646,1.657-1.117s0.854-1.033,1.117-1.657
		c0.264-0.624,0.41-1.31,0.41-2.029s-0.146-1.406-0.41-2.029s-0.646-1.185-1.117-1.657c-0.472-0.472-1.033-0.854-1.657-1.117
		C16.334,9.61,15.648,9.464,14.928,9.464z M20.368,20.074c0.052-0.052,0.112-0.09,0.175-0.116c0.064-0.026,0.132-0.039,0.2-0.039
		c0.068,0,0.136,0.013,0.2,0.039c0.064,0.026,0.124,0.065,0.175,0.116l0.646,0.646l0.646,0.646l0.646,0.646l0.646,0.646
		c0.052,0.052,0.091,0.112,0.117,0.175c0.026,0.064,0.039,0.132,0.039,0.2c0,0.068-0.013,0.136-0.039,0.2
		c-0.026,0.064-0.065,0.124-0.117,0.175c-0.052,0.052-0.112,0.091-0.175,0.117c-0.064,0.026-0.132,0.039-0.2,0.039
		c-0.068,0-0.136-0.013-0.199-0.039c-0.064-0.026-0.123-0.065-0.175-0.117l-0.646-0.646l-0.646-0.646l-0.646-0.646l-0.646-0.646
		c-0.052-0.052-0.091-0.112-0.117-0.176c-0.026-0.064-0.039-0.132-0.039-0.2s0.013-0.136,0.039-0.2
		C20.278,20.185,20.316,20.126,20.368,20.074z M8.787,20.074L8.142,20.72l-0.646,0.646l-0.646,0.646l-0.646,0.646
		c-0.052,0.052-0.091,0.112-0.117,0.175c-0.026,0.064-0.039,0.132-0.039,0.2c0,0.068,0.013,0.136,0.039,0.2
		c0.026,0.064,0.065,0.124,0.117,0.175c0.052,0.052,0.112,0.091,0.175,0.117s0.132,0.039,0.2,0.039s0.136-0.013,0.199-0.039
		c0.064-0.026,0.123-0.065,0.175-0.117L7.6,22.761l0.646-0.646l0.646-0.646l0.646-0.646c0.052-0.052,0.091-0.112,0.117-0.176
		c0.026-0.064,0.039-0.132,0.039-0.2s-0.013-0.136-0.039-0.2c-0.026-0.064-0.065-0.124-0.117-0.176
		c-0.052-0.052-0.112-0.09-0.175-0.116c-0.064-0.026-0.132-0.039-0.2-0.039c-0.068,0-0.136,0.013-0.2,0.039
		C8.899,19.983,8.839,20.022,8.787,20.074z M14.423,22.848c0-0.073,0.015-0.143,0.042-0.206c0.027-0.063,0.066-0.121,0.114-0.169
		s0.105-0.087,0.169-0.114s0.133-0.042,0.206-0.042s0.143,0.015,0.206,0.042s0.121,0.066,0.169,0.114s0.087,0.105,0.114,0.169
		c0.027,0.063,0.042,0.133,0.042,0.206v0.913v0.913v0.913V26.5c0,0.073-0.015,0.143-0.042,0.206
		c-0.027,0.063-0.066,0.121-0.114,0.169s-0.105,0.087-0.169,0.114s-0.133,0.042-0.206,0.042s-0.143-0.015-0.206-0.042
		s-0.121-0.066-0.169-0.114s-0.087-0.105-0.114-0.169c-0.027-0.063-0.042-0.133-0.042-0.206v-0.913v-0.913v-0.913V22.848z
		 M7.294,14.658c0-0.073-0.015-0.143-0.042-0.206c-0.027-0.063-0.066-0.121-0.113-0.169s-0.105-0.087-0.169-0.114
		c-0.063-0.027-0.133-0.042-0.207-0.042H5.851H4.938H4.024H3.111c-0.073,0-0.143,0.015-0.206,0.042s-0.121,0.066-0.169,0.114
		c-0.048,0.048-0.087,0.105-0.114,0.169c-0.027,0.063-0.042,0.133-0.042,0.206s0.015,0.143,0.042,0.206
		c0.027,0.063,0.066,0.121,0.114,0.169c0.048,0.048,0.105,0.087,0.169,0.114s0.133,0.042,0.206,0.042h0.913h0.913h0.913h0.913
		c0.073,0,0.143-0.015,0.207-0.042c0.063-0.027,0.121-0.066,0.169-0.114s0.087-0.105,0.113-0.169
		C7.279,14.801,7.294,14.732,7.294,14.658z M23.141,14.128h0.913h0.913h0.913h0.913c0.073,0,0.143,0.015,0.206,0.042
		c0.063,0.027,0.121,0.066,0.169,0.114s0.087,0.105,0.114,0.169s0.042,0.133,0.042,0.206s-0.015,0.143-0.042,0.206
		s-0.066,0.121-0.114,0.169S27.064,15.12,27,15.147c-0.063,0.027-0.133,0.042-0.206,0.042h-0.913h-0.913h-0.913h-0.913
		c-0.073,0-0.143-0.015-0.206-0.042s-0.121-0.066-0.169-0.114c-0.048-0.048-0.087-0.105-0.114-0.169s-0.042-0.133-0.042-0.206
		s0.015-0.143,0.042-0.206s0.066-0.121,0.114-0.169c0.048-0.048,0.105-0.087,0.169-0.114S23.068,14.128,23.141,14.128z"/>
</g>
</svg>
