<?xml version="1.0" encoding="utf-8"?>
<!-- Generator: Adobe Illustrator 19.1.0, SVG Export Plug-In . SVG Version: 6.00 Build 0)  -->
<svg version="1.1" id="Layer_1" xmlns="http://www.w3.org/2000/svg" xmlns:xlink="http://www.w3.org/1999/xlink" x="0px" y="0px"
	 viewBox="0 0 29.9 30.1" style="enable-background:new 0 0 29.9 30.1;" xml:space="preserve">
<style type="text/css">
	.st0{fill:#115C78;}
	.st1{fill-rule:evenodd;clip-rule:evenodd;fill:#4D4D4D;}
	.st2{fill:#4D4D4D;}
	.st3{fill-rule:evenodd;clip-rule:evenodd;}
	.st4{fill:#FFFFFF;}
	.st5{fill:none;}
	.st6{fill:#4C4C4C;}
	.st7{fill:none;stroke:#4D4D4D;stroke-width:0.3;stroke-miterlimit:10;}
	.st8{fill:#4D4D4D;stroke:#4D4D4D;stroke-width:0.1;stroke-miterlimit:10;}
	.st9{fill:#F0047F;}
	.st10{fill:none;stroke:#4D4D4D;stroke-width:0;stroke-linecap:round;stroke-linejoin:round;}
	.st11{fill:none;stroke:#4D4D4D;stroke-width:0.25;stroke-miterlimit:10;}
	.st12{fill:none;stroke:#4D4D4D;stroke-width:0.2;stroke-miterlimit:10;}
	.st13{fill:none;stroke:#4D4D4D;stroke-width:0.8;stroke-miterlimit:10;}
	.st14{fill:#4D4D4D;stroke:#4D4D4D;stroke-width:0.3;stroke-miterlimit:10;}
	.st15{fill:none;stroke:#4D4D4D;stroke-width:0.24;stroke-miterlimit:10;}
</style>
<g>
	<g>
		<path class="st2" d="M23.9,15.6l0-0.7c-0.2-4.6-4.1-8.3-8.7-8.3c-4.6,0-8.5,3.7-8.7,8.4l0,0.7c0.2,4.6,4.1,8.3,8.7,8.3
			C19.8,24,23.7,20.2,23.9,15.6z M15.3,23.7c-4.7,0-8.4-3.8-8.4-8.4s3.8-8.4,8.4-8.4s8.4,3.8,8.4,8.4S19.9,23.7,15.3,23.7z"/>
	</g>
	<g>
		<g>
			<rect x="15.1" y="6.8" class="st2" width="0.2" height="17.2"/>
		</g>
	</g>
	<g>
		<g>
			<rect x="15.8" y="6.8" class="st2" width="0.2" height="17.1"/>
		</g>
	</g>
	<g>
		<g>
			<rect x="16.6" y="6.8" class="st2" width="0.2" height="16.9"/>
		</g>
	</g>
	<g>
		<g>
			<rect x="17.4" y="7" class="st2" width="0.2" height="16.6"/>
		</g>
	</g>
	<g>
		<g>
			<rect x="18.2" y="7.3" class="st2" width="0.2" height="16"/>
		</g>
	</g>
	<g>
		<g>
			<rect x="19" y="7.6" class="st2" width="0.2" height="15.4"/>
		</g>
	</g>
	<g>
		<g>
			<rect x="19.8" y="8.1" class="st2" width="0.2" height="14.4"/>
		</g>
	</g>
	<g>
		<g>
			<rect x="20.6" y="8.7" class="st2" width="0.2" height="13.2"/>
		</g>
	</g>
	<g>
		<g>
			<rect x="21.4" y="9.4" class="st2" width="0.2" height="11.7"/>
		</g>
	</g>
	<g>
		<g>
			<rect x="22.2" y="10.4" class="st2" width="0.2" height="9.7"/>
		</g>
	</g>
	<g>
		<g>
			<rect x="23" y="11.8" class="st2" width="0.2" height="6.9"/>
		</g>
	</g>
	<path class="st2" d="M15.1,5.5L15.1,5.5c-0.1,0-0.2,0-0.2-0.1V2.3c0-0.1,0-0.1,0.1-0.1h0.1c0.1,0,0.1,0,0.1,0.1v3.1
		C15.2,5.4,15.2,5.5,15.1,5.5z"/>
	<path class="st2" d="M8,8.4L8,8.4C7.9,8.5,7.8,8.5,7.8,8.5L5.6,6.3c0,0,0-0.1,0-0.1l0.1-0.1c0,0,0.1,0,0.1,0L8,8.3
		C8.1,8.3,8.1,8.4,8,8.4z"/>
	<path class="st2" d="M22.8,8.5L22.8,8.5c-0.1-0.1-0.1-0.2-0.1-0.2l2.2-2.2c0,0,0.1,0,0.1,0l0.1,0.1c0,0,0,0.1,0,0.1l-2.2,2.2
		C22.9,8.5,22.8,8.5,22.8,8.5z"/>
	<path class="st2" d="M8,22.1L8,22.1c0.1,0.1,0.1,0.2,0.1,0.2l-2.2,2.2c0,0-0.1,0-0.2,0l-0.1-0.1c0,0,0-0.1,0-0.2l2.2-2.2
		C7.8,22.1,7.9,22.1,8,22.1z"/>
	<path class="st2" d="M15,24.8L15,24.8c0.1,0,0.2,0,0.2,0.1V28c0,0.1,0,0.1-0.1,0.1H15c-0.1,0-0.1,0-0.1-0.1v-3.1
		C14.9,24.9,14.9,24.8,15,24.8z"/>
	<path class="st2" d="M5.6,15.2L5.6,15.2c0,0.1,0,0.2-0.1,0.2l-3.1,0c-0.1,0-0.1,0-0.1-0.1v-0.1c0-0.1,0-0.1,0.1-0.1h3.1
		C5.6,15.1,5.6,15.2,5.6,15.2z"/>
	<path class="st2" d="M22,22.3L22,22.3c0.1-0.1,0.2-0.1,0.2-0.1l2.2,2.2c0,0,0,0.1,0,0.2l-0.1,0.1c0,0-0.1,0-0.2,0L22,22.4
		C21.9,22.4,21.9,22.3,22,22.3z"/>
	<path class="st2" d="M24.6,15.3L24.6,15.3c0-0.1,0-0.2,0.1-0.2h3.1c0.1,0,0.1,0,0.1,0.1v0.1c0,0.1,0,0.1-0.1,0.1l-3.1,0
		C24.6,15.4,24.6,15.4,24.6,15.3z"/>
</g>
<path class="st11" d="M0.4,0.5h29.5v29.1H0.4V0.5z"/>
</svg>
