<?xml version="1.0" encoding="utf-8"?>
<!-- Generator: Adobe Illustrator 19.1.0, SVG Export Plug-In . SVG Version: 6.00 Build 0)  -->
<svg version="1.1" id="Layer_1" xmlns="http://www.w3.org/2000/svg" xmlns:xlink="http://www.w3.org/1999/xlink" x="0px" y="0px"
	 viewBox="0 0 29.91 30.086" style="enable-background:new 0 0 29.91 30.086;" xml:space="preserve">
<style type="text/css">
	.st0{fill:#115C78;}
	.st1{fill-rule:evenodd;clip-rule:evenodd;fill:#4D4D4D;}
	.st2{fill:#4D4D4D;}
	.st3{fill-rule:evenodd;clip-rule:evenodd;}
	.st4{fill:#FFFFFF;}
	.st5{fill:none;}
	.st6{fill:none;stroke:#4D4D4D;stroke-width:0.3;stroke-miterlimit:10;}
	.st7{fill:#4D4D4D;stroke:#4D4D4D;stroke-width:0.1;stroke-miterlimit:10;}
	.st8{fill:#F0047F;}
	.st9{fill:none;stroke:#4D4D4D;stroke-width:0;stroke-linecap:round;stroke-linejoin:round;}
	.st10{fill:none;stroke:#4D4D4D;stroke-width:0.25;stroke-miterlimit:10;}
	.st11{fill:none;stroke:#4D4D4D;stroke-width:0.2;stroke-miterlimit:10;}
	.st12{fill:none;stroke:#4D4D4D;stroke-width:0.8;stroke-miterlimit:10;}
	.st13{fill:#4D4D4D;stroke:#4D4D4D;stroke-width:0.3;stroke-miterlimit:10;}
	.st14{fill:none;stroke:#4D4D4D;stroke-width:0.24;stroke-miterlimit:10;}
</style>
<g>
	<g>
		<path class="st2" d="M23.331,15.202l0-0.169l0-0.169l0-0.169l0-0.169c-0.055-1.163-0.343-2.272-0.817-3.281
			c-0.473-1.01-1.131-1.92-1.927-2.685c-0.796-0.765-1.729-1.385-2.753-1.813c-1.023-0.428-2.137-0.666-3.293-0.666
			c-1.156,0-2.27,0.237-3.293,0.666S9.291,7.796,8.496,8.562s-1.454,1.677-1.927,2.689s-0.761,2.123-0.817,3.289l0,0.169l0,0.169
			l0,0.169l0,0.169c0.055,1.163,0.343,2.272,0.817,3.281c0.473,1.01,1.131,1.92,1.927,2.685s1.729,1.385,2.753,1.813
			c1.023,0.428,2.137,0.666,3.293,0.666c1.156,0,2.27-0.237,3.293-0.666c1.023-0.429,1.957-1.049,2.753-1.814
			c0.796-0.766,1.454-1.677,1.927-2.689S23.275,16.368,23.331,15.202z M14.541,23.421c-1.179,0-2.302-0.24-3.325-0.673
			s-1.944-1.06-2.718-1.834c-0.774-0.774-1.401-1.695-1.834-2.718c-0.433-1.022-0.673-2.146-0.673-3.325s0.24-2.302,0.673-3.325
			s1.06-1.944,1.834-2.718c0.774-0.774,1.695-1.401,2.718-1.834c1.022-0.433,2.146-0.673,3.325-0.673s2.302,0.24,3.325,0.673
			c1.022,0.433,1.944,1.06,2.718,1.834c0.774,0.774,1.401,1.695,1.834,2.718s0.673,2.146,0.673,3.325s-0.24,2.302-0.673,3.325
			c-0.433,1.022-1.06,1.944-1.834,2.718c-0.774,0.774-1.695,1.401-2.718,1.834C16.843,23.181,15.72,23.421,14.541,23.421z"/>
	</g>
	<g>
		<g>
			<polygon class="st2" points="14.488,6.276 14.442,6.276 14.397,6.276 14.352,6.276 14.352,10.622 14.352,14.968 14.352,19.314 
				14.352,23.66 14.397,23.66 14.442,23.66 14.488,23.66 14.533,23.66 14.533,19.314 14.533,14.968 14.533,10.622 14.533,6.276 			
				"/>
		</g>
	</g>
	<g>
		<g>
			<polygon class="st2" points="15.232,6.276 15.186,6.276 15.141,6.276 15.096,6.276 15.096,10.594 15.096,14.912 15.096,19.23 
				15.096,23.549 15.141,23.549 15.186,23.549 15.232,23.549 15.277,23.549 15.277,19.23 15.277,14.912 15.277,10.594 15.277,6.276 
							"/>
		</g>
	</g>
	<g>
		<g>
			<polygon class="st2" points="16.032,6.276 15.986,6.276 15.941,6.276 15.896,6.276 15.896,10.562 15.896,14.848 15.896,19.134 
				15.896,23.421 15.941,23.421 15.986,23.421 16.032,23.421 16.077,23.421 16.077,19.134 16.077,14.848 16.077,10.562 
				16.077,6.276 			"/>
		</g>
	</g>
	<g>
		<g>
			<polygon class="st2" points="16.832,6.47 16.786,6.47 16.741,6.47 16.696,6.47 16.696,10.668 16.696,14.865 16.696,19.063 
				16.696,23.261 16.741,23.261 16.786,23.261 16.832,23.261 16.877,23.261 16.877,19.063 16.877,14.865 16.877,10.668 16.877,6.47 
							"/>
		</g>
	</g>
	<g>
		<g>
			<polygon class="st2" points="17.658,6.763 17.613,6.763 17.568,6.763 17.522,6.763 17.522,10.825 17.522,14.886 17.522,18.947 
				17.522,23.009 17.568,23.009 17.613,23.009 17.658,23.009 17.704,23.009 17.704,18.947 17.704,14.886 17.704,10.825 
				17.704,6.763 			"/>
		</g>
	</g>
	<g>
		<g>
			<polygon class="st2" points="18.458,7.121 18.413,7.121 18.368,7.121 18.322,7.121 18.322,11.011 18.322,14.901 18.322,18.791 
				18.322,22.682 18.368,22.682 18.413,22.682 18.458,22.682 18.504,22.682 18.504,18.791 18.504,14.901 18.504,11.011 
				18.504,7.121 			"/>
		</g>
	</g>
	<g>
		<g>
			<polygon class="st2" points="19.285,7.619 19.24,7.619 19.194,7.619 19.149,7.619 19.149,11.261 19.149,14.902 19.149,18.543 
				19.149,22.184 19.194,22.184 19.24,22.184 19.285,22.184 19.33,22.184 19.33,18.543 19.33,14.902 19.33,11.261 19.33,7.619 			
				"/>
		</g>
	</g>
	<g>
		<g>
			<polygon class="st2" points="20.085,8.163 20.04,8.163 19.994,8.163 19.949,8.163 19.949,11.511 19.949,14.858 19.949,18.205 
				19.949,21.552 19.994,21.552 20.04,21.552 20.085,21.552 20.13,21.552 20.13,18.205 20.13,14.858 20.13,11.511 20.13,8.163 			
				"/>
		</g>
	</g>
	<g>
		<g>
			<polygon class="st2" points="20.885,8.947 20.84,8.947 20.794,8.947 20.749,8.947 20.749,11.911 20.749,14.875 20.749,17.839 
				20.749,20.802 20.794,20.802 20.84,20.802 20.885,20.802 20.93,20.802 20.93,17.839 20.93,14.875 20.93,11.911 20.93,8.947 			
				"/>
		</g>
	</g>
	<g>
		<g>
			<polygon class="st2" points="21.712,9.937 21.666,9.937 21.621,9.937 21.575,9.937 21.575,12.398 21.575,14.86 21.575,17.321 
				21.575,19.782 21.621,19.782 21.666,19.782 21.712,19.782 21.757,19.782 21.757,17.321 21.757,14.86 21.757,12.398 21.757,9.937 
							"/>
		</g>
	</g>
	<g>
		<g>
			<polygon class="st2" points="22.533,11.371 22.488,11.371 22.443,11.371 22.397,11.371 22.397,13.119 22.397,14.868 
				22.397,16.616 22.397,18.365 22.443,18.365 22.488,18.365 22.533,18.365 22.579,18.365 22.579,16.616 22.579,14.868 
				22.579,13.119 22.579,11.371 			"/>
		</g>
	</g>
	<path class="st2" d="M14.398,4.941h-0.023h-0.023h-0.023h-0.023c-0.015,0-0.029-0.003-0.042-0.008
		C14.25,4.928,14.239,4.92,14.229,4.91c-0.01-0.01-0.018-0.021-0.023-0.034c-0.005-0.013-0.008-0.027-0.008-0.042V4.051V3.268V2.485
		V1.701c0-0.015,0.003-0.029,0.008-0.042c0.005-0.013,0.013-0.024,0.023-0.034c0.01-0.01,0.021-0.018,0.034-0.023
		s0.027-0.008,0.042-0.008h0.023h0.023h0.023h0.023c0.015,0,0.029,0.003,0.042,0.008s0.024,0.013,0.034,0.023
		c0.01,0.01,0.018,0.021,0.023,0.034c0.005,0.013,0.008,0.027,0.008,0.042v0.783v0.783v0.783v0.783c0,0.015-0.003,0.029-0.008,0.042
		C14.492,4.889,14.484,4.9,14.474,4.91c-0.01,0.01-0.021,0.018-0.034,0.023C14.427,4.938,14.413,4.941,14.398,4.941z"/>
	<path class="st2" d="M7.207,7.915L7.191,7.931L7.175,7.947L7.16,7.962L7.144,7.978C7.134,7.988,7.123,7.995,7.111,8
		C7.099,8.005,7.086,8.007,7.073,8.007S7.047,8.005,7.035,8C7.023,7.995,7.012,7.988,7.002,7.978L6.446,7.422L5.89,6.865
		L5.334,6.309L4.777,5.753C4.768,5.743,4.76,5.732,4.755,5.72C4.75,5.708,4.748,5.695,4.748,5.682S4.75,5.656,4.755,5.644
		C4.76,5.632,4.768,5.621,4.777,5.611l0.016-0.016L4.809,5.58l0.016-0.016L4.84,5.549c0.01-0.01,0.021-0.017,0.033-0.022
		c0.012-0.005,0.025-0.007,0.038-0.007s0.026,0.002,0.038,0.007c0.012,0.005,0.023,0.012,0.033,0.022l0.556,0.556l0.556,0.556
		L6.65,7.217l0.556,0.556c0.01,0.01,0.017,0.021,0.022,0.033c0.005,0.012,0.007,0.025,0.007,0.038S7.233,7.87,7.229,7.882
		C7.224,7.894,7.216,7.906,7.207,7.915z"/>
	<path class="st2" d="M22.179,7.978l-0.016-0.016l-0.016-0.016l-0.016-0.016l-0.016-0.016c-0.01-0.01-0.017-0.021-0.022-0.033
		c-0.005-0.012-0.007-0.025-0.007-0.038s0.002-0.026,0.007-0.038c0.005-0.012,0.012-0.023,0.022-0.033l0.556-0.556l0.556-0.556
		l0.556-0.556l0.556-0.556c0.01-0.01,0.021-0.017,0.033-0.022c0.012-0.005,0.025-0.007,0.038-0.007c0.013,0,0.026,0.002,0.038,0.007
		s0.023,0.012,0.033,0.022l0.016,0.016l0.016,0.016l0.016,0.016l0.016,0.016c0.01,0.01,0.017,0.021,0.022,0.033
		c0.005,0.012,0.007,0.025,0.007,0.038c0,0.013-0.002,0.026-0.007,0.038c-0.005,0.012-0.012,0.023-0.022,0.033l-0.556,0.556
		l-0.556,0.556l-0.556,0.556l-0.556,0.556C22.311,7.988,22.3,7.995,22.288,8c-0.012,0.005-0.025,0.007-0.038,0.007
		S22.224,8.005,22.212,8C22.2,7.995,22.188,7.988,22.179,7.978z"/>
	<path class="st2" d="M7.142,21.792l0.017,0.017l0.017,0.017l0.017,0.017l0.017,0.017c0.01,0.01,0.018,0.023,0.023,0.035
		s0.008,0.027,0.008,0.04c0,0.014-0.003,0.027-0.008,0.04S7.219,22,7.209,22.01l-0.554,0.554l-0.554,0.554l-0.554,0.554
		l-0.554,0.554c-0.01,0.01-0.023,0.018-0.035,0.023c-0.013,0.005-0.027,0.008-0.04,0.008s-0.027-0.003-0.04-0.008
		s-0.025-0.013-0.035-0.023l-0.017-0.017l-0.017-0.017l-0.017-0.017l-0.017-0.017c-0.01-0.01-0.018-0.023-0.023-0.035
		c-0.005-0.013-0.008-0.027-0.008-0.04c0-0.014,0.003-0.027,0.008-0.04c0.005-0.013,0.013-0.025,0.023-0.035l0.554-0.554L5.883,22.9
		l0.554-0.554l0.554-0.554c0.01-0.01,0.023-0.018,0.035-0.023s0.027-0.008,0.04-0.008s0.027,0.003,0.04,0.008
		C7.12,21.774,7.132,21.782,7.142,21.792z"/>
	<path class="st2" d="M14.269,24.539h0.022h0.022h0.022h0.022c0.014,0,0.027,0.003,0.039,0.008c0.012,0.005,0.023,0.013,0.032,0.022
		s0.017,0.02,0.022,0.032s0.008,0.025,0.008,0.039v0.787v0.787v0.787v0.787c0,0.014-0.003,0.027-0.008,0.039
		s-0.012,0.023-0.022,0.032s-0.02,0.017-0.032,0.022s-0.025,0.008-0.039,0.008h-0.022h-0.022h-0.022h-0.022
		c-0.014,0-0.027-0.003-0.039-0.008s-0.023-0.012-0.032-0.022s-0.017-0.02-0.022-0.032s-0.008-0.025-0.008-0.039v-0.787v-0.787
		v-0.787v-0.787c0-0.014,0.003-0.027,0.008-0.039s0.012-0.023,0.022-0.032s0.02-0.017,0.032-0.022S14.255,24.539,14.269,24.539z"/>
	<path class="st2" d="M4.788,14.811l0,0.022v0.022v0.022v0.022c0,0.014-0.003,0.027-0.008,0.039
		c-0.005,0.012-0.012,0.023-0.022,0.032c-0.009,0.009-0.02,0.017-0.032,0.022c-0.012,0.005-0.025,0.008-0.039,0.008H3.901H3.114
		H2.328H1.541c-0.014,0-0.027-0.003-0.039-0.008S1.479,14.979,1.47,14.97c-0.009-0.009-0.017-0.02-0.022-0.032
		c-0.005-0.012-0.008-0.025-0.008-0.039v-0.022v-0.022v-0.022v-0.022c0-0.014,0.003-0.027,0.008-0.039
		c0.005-0.012,0.012-0.023,0.022-0.032c0.009-0.009,0.02-0.017,0.032-0.022s0.025-0.008,0.039-0.008h0.787h0.787h0.787h0.787
		c0.014,0,0.027,0.003,0.039,0.008c0.012,0.005,0.023,0.012,0.032,0.022c0.009,0.009,0.017,0.02,0.022,0.032
		C4.785,14.784,4.788,14.797,4.788,14.811z"/>
	<path class="st2" d="M21.35,21.964l0.017-0.017l0.017-0.017l0.017-0.017l0.017-0.017c0.01-0.01,0.023-0.018,0.035-0.023
		s0.027-0.008,0.04-0.008s0.027,0.003,0.04,0.008s0.025,0.013,0.035,0.023l0.554,0.554l0.554,0.554l0.554,0.554l0.554,0.554
		c0.01,0.01,0.018,0.023,0.023,0.035s0.008,0.027,0.008,0.04c0,0.014-0.003,0.027-0.008,0.04s-0.013,0.025-0.023,0.035l-0.017,0.017
		l-0.017,0.017l-0.017,0.017l-0.017,0.017c-0.01,0.01-0.023,0.018-0.035,0.023s-0.027,0.008-0.04,0.008
		c-0.014,0-0.027-0.003-0.04-0.008s-0.025-0.013-0.035-0.023l-0.554-0.554l-0.554-0.554l-0.554-0.554l-0.554-0.554
		c-0.01-0.01-0.018-0.023-0.023-0.035s-0.008-0.027-0.008-0.04s0.003-0.027,0.008-0.04S21.339,21.975,21.35,21.964z"/>
	<path class="st2" d="M23.977,14.899v-0.022v-0.022v-0.022v-0.022c0-0.014,0.003-0.027,0.008-0.039
		c0.005-0.012,0.012-0.023,0.022-0.032c0.009-0.009,0.02-0.017,0.032-0.022s0.025-0.008,0.039-0.008h0.787h0.787h0.787h0.787
		c0.014,0,0.027,0.003,0.039,0.008c0.012,0.005,0.023,0.012,0.032,0.022c0.009,0.009,0.017,0.02,0.022,0.032
		c0.005,0.012,0.008,0.025,0.008,0.039v0.022v0.022v0.022v0.022c0,0.014-0.003,0.027-0.008,0.039
		c-0.005,0.012-0.012,0.023-0.022,0.032c-0.009,0.009-0.02,0.017-0.032,0.022s-0.025,0.008-0.039,0.008h-0.787h-0.787h-0.787h-0.787
		c-0.014,0-0.027-0.003-0.039-0.008s-0.023-0.012-0.032-0.022c-0.009-0.009-0.017-0.02-0.022-0.032
		C23.98,14.926,23.977,14.913,23.977,14.899z"/>
	<g>
		<g>
			<polygon class="st2" points="14.488,6.22 14.442,6.22 14.397,6.22 14.352,6.22 14.352,10.538 14.352,14.856 14.352,19.174 
				14.352,23.493 14.397,23.493 14.442,23.493 14.488,23.493 14.533,23.493 14.533,19.174 14.533,14.856 14.533,10.538 14.533,6.22 
							"/>
		</g>
	</g>
	<g>
		<g>
			<polygon class="st2" points="13.743,6.331 13.698,6.331 13.653,6.331 13.607,6.331 13.607,10.621 13.607,14.912 13.607,19.202 
				13.607,23.493 13.653,23.493 13.698,23.493 13.743,23.493 13.789,23.493 13.789,19.202 13.789,14.912 13.789,10.621 
				13.789,6.331 			"/>
		</g>
	</g>
	<g>
		<g>
			<polygon class="st2" points="12.943,6.458 12.898,6.458 12.853,6.458 12.807,6.458 12.807,10.697 12.807,14.936 12.807,19.175 
				12.807,23.414 12.853,23.414 12.898,23.414 12.943,23.414 12.989,23.414 12.989,19.175 12.989,14.936 12.989,10.697 
				12.989,6.458 			"/>
		</g>
	</g>
	<g>
		<g>
			<polygon class="st2" points="12.143,6.617 12.098,6.617 12.053,6.617 12.007,6.617 12.007,10.751 12.007,14.885 12.007,19.019 
				12.007,23.153 12.053,23.153 12.098,23.153 12.143,23.153 12.189,23.153 12.189,19.019 12.189,14.885 12.189,10.751 
				12.189,6.617 			"/>
		</g>
	</g>
	<g>
		<g>
			<polygon class="st2" points="11.317,6.867 11.271,6.867 11.226,6.867 11.181,6.867 11.181,10.865 11.181,14.863 11.181,18.861 
				11.181,22.86 11.226,22.86 11.271,22.86 11.317,22.86 11.362,22.86 11.362,18.861 11.362,14.863 11.362,10.865 11.362,6.867 			
				"/>
		</g>
	</g>
	<g>
		<g>
			<polygon class="st2" points="10.517,7.192 10.472,7.192 10.426,7.192 10.381,7.192 10.381,11.024 10.381,14.855 10.381,18.686 
				10.381,22.517 10.426,22.517 10.472,22.517 10.517,22.517 10.562,22.517 10.562,18.686 10.562,14.855 10.562,11.024 
				10.562,7.192 			"/>
		</g>
	</g>
	<g>
		<g>
			<polygon class="st2" points="9.69,7.687 9.645,7.687 9.6,7.687 9.554,7.687 9.554,11.258 9.554,14.83 9.554,18.401 9.554,21.973 
				9.6,21.973 9.645,21.973 9.69,21.973 9.736,21.973 9.736,18.401 9.736,14.83 9.736,11.258 9.736,7.687 			"/>
		</g>
	</g>
	<g>
		<g>
			<polygon class="st2" points="8.89,8.315 8.845,8.315 8.8,8.315 8.754,8.315 8.754,11.569 8.754,14.824 8.754,18.079 
				8.754,21.334 8.8,21.334 8.845,21.334 8.89,21.334 8.936,21.334 8.936,18.079 8.936,14.824 8.936,11.569 8.936,8.315 			"/>
		</g>
	</g>
	<g>
		<g>
			<polygon class="st2" points="8.09,9.221 8.045,9.221 8,9.221 7.954,9.221 7.954,12.049 7.954,14.876 7.954,17.704 7.954,20.531 
				8,20.531 8.045,20.531 8.09,20.531 8.136,20.531 8.136,17.704 8.136,14.876 8.136,12.049 8.136,9.221 			"/>
		</g>
	</g>
	<g>
		<g>
			<polygon class="st2" points="7.264,10.312 7.218,10.312 7.173,10.312 7.128,10.312 7.128,12.594 7.128,14.875 7.128,17.156 
				7.128,19.438 7.173,19.438 7.218,19.438 7.264,19.438 7.309,19.438 7.309,17.156 7.309,14.875 7.309,12.594 7.309,10.312 			"/>
		</g>
	</g>
	<g>
		<g>
			<polygon class="st2" points="6.442,11.921 6.397,11.921 6.351,11.921 6.306,11.921 6.306,13.372 6.306,14.823 6.306,16.274 
				6.306,17.725 6.351,17.725 6.397,17.725 6.442,17.725 6.487,17.725 6.487,16.274 6.487,14.823 6.487,13.372 6.487,11.921 			"/>
		</g>
	</g>
</g>
<path class="st10" d="M0.216,0.296h7.37h7.37h7.37h7.37v7.276v7.276v7.276V29.4h-7.37h-7.37h-7.37h-7.37v-7.276v-7.276V7.572V0.296z
	"/>
</svg>
