<?xml version="1.0" encoding="utf-8"?>
<!-- Generator: Adobe Illustrator 19.1.0, SVG Export Plug-In . SVG Version: 6.00 Build 0)  -->
<svg version="1.1" id="Layer_1" xmlns="http://www.w3.org/2000/svg" xmlns:xlink="http://www.w3.org/1999/xlink" x="0px" y="0px"
	 viewBox="0 0 29.91 30.086" style="enable-background:new 0 0 29.91 30.086;" xml:space="preserve">
<style type="text/css">
	.st0{fill:#4D4D4D;}
	.st1{fill-rule:evenodd;clip-rule:evenodd;fill:#4C4C4C;}
	.st2{fill:#4C4C4C;}
	.st3{fill:#383330;}
	.st4{fill:#1F1A17;}
	.st5{fill:#4D4C4C;}
	.st6{fill:none;stroke:#000000;stroke-width:0.3;stroke-miterlimit:10;}
	.st7{fill:#E61413;}
	.st8{fill:#5F5357;}
	.st9{fill:#115C78;}
	.st10{fill-rule:evenodd;clip-rule:evenodd;fill:#4D4D4D;}
	.st11{fill-rule:evenodd;clip-rule:evenodd;}
	.st12{fill:#FFFFFF;}
	.st13{fill:none;}
	.st14{fill:#231F20;}
	.st15{clip-path:url(#SVGID_2_);}
	.st16{clip-path:url(#SVGID_4_);fill:#FCF118;}
	.st17{clip-path:url(#SVGID_4_);fill:#FCF018;}
	.st18{clip-path:url(#SVGID_4_);fill:#FCEF18;}
	.st19{clip-path:url(#SVGID_4_);fill:#FCEE18;}
	.st20{clip-path:url(#SVGID_4_);fill:#FCED18;}
	.st21{clip-path:url(#SVGID_4_);fill:#FCEC18;}
	.st22{clip-path:url(#SVGID_4_);fill:#FCEB18;}
	.st23{clip-path:url(#SVGID_4_);fill:#FCEA18;}
	.st24{clip-path:url(#SVGID_4_);fill:#FCE918;}
	.st25{clip-path:url(#SVGID_4_);fill:#FCE818;}
	.st26{clip-path:url(#SVGID_4_);fill:#FCE718;}
	.st27{clip-path:url(#SVGID_4_);fill:#FCE617;}
	.st28{clip-path:url(#SVGID_4_);fill:#FCE517;}
	.st29{clip-path:url(#SVGID_4_);fill:#FCE417;}
	.st30{clip-path:url(#SVGID_4_);fill:#FCE317;}
	.st31{clip-path:url(#SVGID_4_);fill:#FCE217;}
	.st32{clip-path:url(#SVGID_4_);fill:#FCE117;}
	.st33{clip-path:url(#SVGID_4_);fill:#FCE017;}
	.st34{clip-path:url(#SVGID_4_);fill:#FCDF17;}
	.st35{clip-path:url(#SVGID_4_);fill:#FCDE17;}
	.st36{clip-path:url(#SVGID_4_);fill:#FCDD17;}
	.st37{clip-path:url(#SVGID_4_);fill:#FCDC17;}
	.st38{clip-path:url(#SVGID_4_);fill:#FCDB17;}
	.st39{clip-path:url(#SVGID_4_);fill:#FCDA17;}
	.st40{clip-path:url(#SVGID_4_);fill:#FCD917;}
	.st41{clip-path:url(#SVGID_4_);fill:#FCD817;}
	.st42{clip-path:url(#SVGID_4_);fill:#FCD717;}
	.st43{clip-path:url(#SVGID_4_);fill:#FCD617;}
	.st44{clip-path:url(#SVGID_4_);fill:#FCD517;}
	.st45{clip-path:url(#SVGID_4_);fill:#FCD416;}
	.st46{clip-path:url(#SVGID_4_);fill:#FCD316;}
	.st47{clip-path:url(#SVGID_4_);fill:#FBD216;}
	.st48{clip-path:url(#SVGID_4_);fill:#FBD116;}
	.st49{clip-path:url(#SVGID_4_);fill:#FBD016;}
	.st50{clip-path:url(#SVGID_4_);fill:#FBCF16;}
	.st51{clip-path:url(#SVGID_4_);fill:#FBCE16;}
	.st52{clip-path:url(#SVGID_4_);fill:#FBCD16;}
	.st53{clip-path:url(#SVGID_4_);fill:#FBCC16;}
	.st54{clip-path:url(#SVGID_4_);fill:#FBCB16;}
	.st55{clip-path:url(#SVGID_4_);fill:#FBCA16;}
	.st56{clip-path:url(#SVGID_4_);fill:#FBC916;}
	.st57{clip-path:url(#SVGID_4_);fill:#FBC816;}
	.st58{clip-path:url(#SVGID_4_);fill:#FBC716;}
	.st59{clip-path:url(#SVGID_4_);fill:#FBC616;}
	.st60{clip-path:url(#SVGID_4_);fill:#FBC516;}
	.st61{clip-path:url(#SVGID_4_);fill:#FBC416;}
	.st62{clip-path:url(#SVGID_4_);fill:#FBC316;}
	.st63{clip-path:url(#SVGID_4_);fill:#FBC216;}
	.st64{clip-path:url(#SVGID_4_);fill:#FBC115;}
	.st65{clip-path:url(#SVGID_4_);fill:#FBC015;}
	.st66{clip-path:url(#SVGID_4_);fill:#FBBF15;}
	.st67{clip-path:url(#SVGID_4_);fill:#FBBE15;}
	.st68{clip-path:url(#SVGID_4_);fill:#FBBD15;}
	.st69{clip-path:url(#SVGID_4_);fill:#FBBC15;}
	.st70{clip-path:url(#SVGID_4_);fill:#FBBB15;}
	.st71{clip-path:url(#SVGID_4_);fill:#FBBA15;}
	.st72{clip-path:url(#SVGID_4_);fill:#FBB915;}
	.st73{clip-path:url(#SVGID_4_);fill:#FBB815;}
	.st74{clip-path:url(#SVGID_4_);fill:#FBB715;}
	.st75{clip-path:url(#SVGID_4_);fill:#FBB615;}
	.st76{clip-path:url(#SVGID_4_);fill:#FBB515;}
	.st77{clip-path:url(#SVGID_4_);fill:#FBB415;}
	.st78{clip-path:url(#SVGID_4_);fill:#FBB315;}
	.st79{clip-path:url(#SVGID_4_);fill:#FBB215;}
	.st80{clip-path:url(#SVGID_4_);fill:#FBB115;}
	.st81{clip-path:url(#SVGID_4_);fill:#FBB015;}
	.st82{clip-path:url(#SVGID_4_);fill:#FBAF15;}
	.st83{clip-path:url(#SVGID_4_);fill:#FAAE15;}
	.st84{clip-path:url(#SVGID_4_);fill:#FAAD14;}
	.st85{clip-path:url(#SVGID_4_);fill:#FAAC14;}
	.st86{clip-path:url(#SVGID_4_);fill:#FAAB14;}
	.st87{clip-path:url(#SVGID_4_);fill:#FAAA14;}
	.st88{clip-path:url(#SVGID_4_);fill:#FAA914;}
	.st89{clip-path:url(#SVGID_4_);fill:#FAA814;}
	.st90{clip-path:url(#SVGID_4_);fill:#FAA714;}
	.st91{clip-path:url(#SVGID_4_);fill:#FAA614;}
	.st92{clip-path:url(#SVGID_4_);fill:#FAA514;}
	.st93{clip-path:url(#SVGID_4_);fill:#FAA414;}
	.st94{clip-path:url(#SVGID_4_);fill:#FAA314;}
	.st95{clip-path:url(#SVGID_4_);fill:#FAA214;}
	.st96{clip-path:url(#SVGID_4_);fill:#FAA114;}
	.st97{clip-path:url(#SVGID_4_);fill:#FAA014;}
	.st98{clip-path:url(#SVGID_4_);fill:#FA9F14;}
	.st99{clip-path:url(#SVGID_4_);fill:#FA9E14;}
	.st100{clip-path:url(#SVGID_4_);fill:#FA9D14;}
	.st101{clip-path:url(#SVGID_4_);fill:#FA9C14;}
	.st102{clip-path:url(#SVGID_4_);fill:#FA9B14;}
	.st103{clip-path:url(#SVGID_4_);fill:#FA9A13;}
	.st104{clip-path:url(#SVGID_4_);fill:#FA9913;}
	.st105{clip-path:url(#SVGID_4_);fill:#FA9813;}
	.st106{clip-path:url(#SVGID_4_);fill:#FA9713;}
	.st107{clip-path:url(#SVGID_4_);fill:#FA9613;}
	.st108{clip-path:url(#SVGID_4_);fill:#FA9513;}
	.st109{clip-path:url(#SVGID_4_);fill:#FA9413;}
	.st110{clip-path:url(#SVGID_4_);fill:#FA9313;}
	.st111{clip-path:url(#SVGID_4_);fill:#FA9213;}
	.st112{clip-path:url(#SVGID_4_);fill:#FA9113;}
	.st113{clip-path:url(#SVGID_4_);fill:#FA9013;}
	.st114{clip-path:url(#SVGID_4_);fill:#FA8F13;}
	.st115{clip-path:url(#SVGID_4_);fill:#FA8E13;}
	.st116{clip-path:url(#SVGID_4_);fill:#FA8D13;}
	.st117{clip-path:url(#SVGID_4_);fill:#FA8C13;}
	.st118{clip-path:url(#SVGID_4_);fill:#FA8B13;}
	.st119{clip-path:url(#SVGID_4_);fill:#FA8A13;}
	.st120{clip-path:url(#SVGID_4_);fill:#FA8913;}
	.st121{clip-path:url(#SVGID_4_);fill:#FA8812;}
	.st122{clip-path:url(#SVGID_4_);fill:#FA8712;}
	.st123{clip-path:url(#SVGID_4_);fill:#FA8612;}
	.st124{clip-path:url(#SVGID_4_);fill:#F98512;}
	.st125{clip-path:url(#SVGID_4_);fill:#F98412;}
	.st126{clip-path:url(#SVGID_4_);fill:#F98312;}
	.st127{clip-path:url(#SVGID_4_);fill:#F98212;}
	.st128{clip-path:url(#SVGID_4_);fill:#F98112;}
	.st129{clip-path:url(#SVGID_4_);fill:#F98012;}
	.st130{clip-path:url(#SVGID_4_);fill:#F97F12;}
	.st131{clip-path:url(#SVGID_4_);fill:#F97E12;}
	.st132{clip-path:url(#SVGID_4_);fill:#F97D12;}
	.st133{clip-path:url(#SVGID_4_);fill:#F97C12;}
	.st134{clip-path:url(#SVGID_4_);fill:#F97B12;}
	.st135{clip-path:url(#SVGID_4_);fill:#F97A12;}
	.st136{clip-path:url(#SVGID_4_);fill:#F97912;}
	.st137{clip-path:url(#SVGID_4_);fill:#F97812;}
	.st138{clip-path:url(#SVGID_4_);fill:#F97712;}
	.st139{clip-path:url(#SVGID_4_);fill:#F97612;}
	.st140{clip-path:url(#SVGID_4_);fill:#F97511;}
	.st141{clip-path:url(#SVGID_4_);fill:#F97411;}
	.st142{clip-path:url(#SVGID_4_);fill:#F97311;}
	.st143{clip-path:url(#SVGID_4_);fill:#F97211;}
	.st144{clip-path:url(#SVGID_4_);fill:#F97111;}
	.st145{clip-path:url(#SVGID_4_);fill:#F97011;}
	.st146{clip-path:url(#SVGID_4_);fill:#F96F11;}
	.st147{clip-path:url(#SVGID_4_);fill:#F96E11;}
	.st148{clip-path:url(#SVGID_4_);fill:#F96D11;}
	.st149{clip-path:url(#SVGID_4_);fill:#F96C11;}
	.st150{clip-path:url(#SVGID_4_);fill:#F96B11;}
	.st151{clip-path:url(#SVGID_4_);fill:#F96A11;}
	.st152{clip-path:url(#SVGID_4_);fill:#F96911;}
	.st153{clip-path:url(#SVGID_4_);fill:#F96811;}
	.st154{clip-path:url(#SVGID_4_);fill:#F96711;}
	.st155{clip-path:url(#SVGID_4_);fill:#F96611;}
	.st156{clip-path:url(#SVGID_4_);fill:#F96511;}
	.st157{clip-path:url(#SVGID_4_);fill:#F96411;}
	.st158{clip-path:url(#SVGID_4_);fill:#F96311;}
	.st159{clip-path:url(#SVGID_4_);fill:#F96210;}
	.st160{clip-path:url(#SVGID_4_);fill:#F86110;}
	.st161{clip-path:url(#SVGID_4_);fill:#F86010;}
	.st162{clip-path:url(#SVGID_4_);fill:#F85F10;}
	.st163{clip-path:url(#SVGID_4_);fill:#F85E10;}
	.st164{clip-path:url(#SVGID_4_);fill:#F85D10;}
	.st165{clip-path:url(#SVGID_4_);fill:#F85C10;}
	.st166{clip-path:url(#SVGID_4_);fill:#F85B10;}
	.st167{clip-path:url(#SVGID_4_);fill:#F85A10;}
	.st168{clip-path:url(#SVGID_4_);fill:#F85910;}
	.st169{clip-path:url(#SVGID_4_);fill:#F85810;}
	.st170{clip-path:url(#SVGID_4_);fill:#F85710;}
	.st171{clip-path:url(#SVGID_4_);fill:#F85610;}
	.st172{clip-path:url(#SVGID_4_);fill:#F85510;}
	.st173{clip-path:url(#SVGID_4_);fill:#F85410;}
	.st174{clip-path:url(#SVGID_4_);fill:#F85310;}
	.st175{clip-path:url(#SVGID_4_);fill:#F85210;}
	.st176{clip-path:url(#SVGID_4_);fill:#F85110;}
	.st177{clip-path:url(#SVGID_4_);fill:#F85010;}
	.st178{clip-path:url(#SVGID_4_);fill:#F84F0F;}
	.st179{clip-path:url(#SVGID_4_);fill:#F84E0F;}
	.st180{clip-path:url(#SVGID_4_);fill:#F84D0F;}
	.st181{clip-path:url(#SVGID_4_);fill:#F84C0F;}
	.st182{clip-path:url(#SVGID_4_);fill:#F84B0F;}
	.st183{clip-path:url(#SVGID_4_);fill:#F84A0F;}
	.st184{clip-path:url(#SVGID_4_);fill:#F8490F;}
	.st185{clip-path:url(#SVGID_4_);fill:#F8480F;}
	.st186{clip-path:url(#SVGID_4_);fill:#F8470F;}
	.st187{clip-path:url(#SVGID_4_);fill:#F8460F;}
	.st188{clip-path:url(#SVGID_4_);fill:#F8450F;}
	.st189{clip-path:url(#SVGID_4_);fill:#F8440F;}
	.st190{clip-path:url(#SVGID_4_);fill:#F8430F;}
	.st191{clip-path:url(#SVGID_4_);fill:#F8420F;}
	.st192{clip-path:url(#SVGID_4_);fill:#F8410F;}
	.st193{clip-path:url(#SVGID_4_);fill:#F8400F;}
	.st194{clip-path:url(#SVGID_4_);fill:#F83F0F;}
	.st195{clip-path:url(#SVGID_4_);fill:#F83E0E;}
	.st196{clip-path:url(#SVGID_4_);fill:#F83D0E;}
	.st197{clip-path:url(#SVGID_4_);fill:#F83C0E;}
	.st198{clip-path:url(#SVGID_4_);fill:#F83B0E;}
	.st199{clip-path:url(#SVGID_4_);fill:#F73A0E;}
	.st200{clip-path:url(#SVGID_4_);fill:#F7390E;}
	.st201{clip-path:url(#SVGID_4_);fill:#F7380E;}
	.st202{clip-path:url(#SVGID_4_);fill:#F7370E;}
	.st203{clip-path:url(#SVGID_4_);fill:#F7360E;}
	.st204{clip-path:url(#SVGID_4_);fill:#F7340E;}
	.st205{clip-path:url(#SVGID_4_);fill:#F7330E;}
	.st206{clip-path:url(#SVGID_4_);fill:#F7320E;}
	.st207{clip-path:url(#SVGID_4_);fill:#F7310E;}
	.st208{clip-path:url(#SVGID_4_);fill:#F7300E;}
	.st209{clip-path:url(#SVGID_4_);fill:#F72F0E;}
	.st210{clip-path:url(#SVGID_4_);fill:#F72E0E;}
	.st211{clip-path:url(#SVGID_4_);fill:#F72D0E;}
	.st212{clip-path:url(#SVGID_4_);fill:#F72C0E;}
	.st213{clip-path:url(#SVGID_4_);fill:#F72B0E;}
	.st214{clip-path:url(#SVGID_4_);fill:#F72B0D;}
	.st215{clip-path:url(#SVGID_4_);fill:#F72A0D;}
	.st216{clip-path:url(#SVGID_4_);fill:#F7290D;}
	.st217{clip-path:url(#SVGID_4_);fill:#F7280D;}
	.st218{clip-path:url(#SVGID_4_);fill:#F7270D;}
	.st219{clip-path:url(#SVGID_4_);fill:#F7260D;}
</style>
<g>
	<g>
		<path class="st0" d="M25.36,6.514c-0.002,0-0.003,0-0.005,0s-0.003,0-0.005,0s-0.003,0-0.005,0.001s-0.003,0.001-0.005,0.001
			l-1.019,0.236l-1.019,0.236l-1.019,0.236L21.266,7.46c-0.011,0.003-0.021,0.007-0.03,0.013s-0.016,0.014-0.021,0.023
			s-0.009,0.019-0.011,0.029s-0.002,0.021,0.001,0.032l0.227,0.239l0.227,0.239l0.227,0.239l0.227,0.239l0.127,0.131l0.127,0.131
			l0.127,0.131l0.127,0.131l-0.136,0.121l-0.136,0.121l-0.136,0.121l-0.136,0.121l-1.188,1.06l-1.188,1.06l-1.188,1.06l-1.188,1.06
			l-0.12,0.107l-0.12,0.107l-0.12,0.107l-0.12,0.107l-0.117-0.111l-0.117-0.111l-0.117-0.111l-0.117-0.111l-0.617-0.584
			l-0.617-0.584l-0.617-0.584l-0.617-0.584c-0.004-0.004-0.008-0.007-0.012-0.01s-0.009-0.005-0.013-0.007s-0.01-0.003-0.015-0.004
			s-0.01-0.001-0.016-0.001c-0.006,0-0.011,0.001-0.017,0.002s-0.011,0.003-0.015,0.005s-0.01,0.005-0.014,0.008
			s-0.009,0.007-0.013,0.011l-1.323,1.388l-1.323,1.388l-1.323,1.388l-1.323,1.388l-0.067,0.07l-0.067,0.07l-0.067,0.07l-0.067,0.07
			l-0.095-0.02l-0.095-0.02l-0.095-0.02l-0.095-0.02c-0.015-0.003-0.03-0.006-0.044-0.008c-0.015-0.002-0.03-0.004-0.045-0.006
			s-0.03-0.003-0.045-0.004c-0.015-0.001-0.03-0.001-0.045-0.001c-0.101,0-0.2,0.018-0.291,0.051s-0.176,0.082-0.251,0.143
			s-0.14,0.134-0.191,0.217s-0.089,0.176-0.11,0.275c-0.024,0.116-0.024,0.232-0.002,0.342s0.065,0.214,0.125,0.306
			s0.139,0.173,0.231,0.237s0.198,0.111,0.315,0.135c0.015,0.003,0.03,0.006,0.044,0.008s0.03,0.004,0.045,0.006
			s0.03,0.003,0.045,0.004s0.03,0.001,0.045,0.001c0.101,0,0.2-0.018,0.291-0.051c0.092-0.033,0.176-0.082,0.251-0.143
			s0.14-0.134,0.191-0.217c0.051-0.083,0.089-0.176,0.11-0.275c0.003-0.014,0.006-0.029,0.008-0.044s0.004-0.029,0.006-0.044
			s0.003-0.03,0.003-0.044s0.001-0.03,0.001-0.044c0-0.02-0.001-0.039-0.003-0.06s-0.005-0.041-0.009-0.063
			s-0.009-0.044-0.015-0.067s-0.013-0.048-0.022-0.073l-0.033-0.1l-0.033-0.1l-0.033-0.1l-0.033-0.1l0.072-0.076L8.505,17.2
			l0.072-0.076l0.072-0.076l1.182-1.239l1.182-1.239l1.182-1.239l1.182-1.239l0.12-0.126l0.12-0.126l0.12-0.126l0.12-0.126
			l0.127,0.12l0.127,0.12l0.127,0.12l0.127,0.12l0.606,0.574l0.606,0.574l0.606,0.574l0.606,0.574
			c0.005,0.005,0.01,0.008,0.015,0.011c0.005,0.003,0.01,0.005,0.015,0.007s0.01,0.003,0.014,0.003
			c0.004,0.001,0.009,0.001,0.012,0.001c0.005,0,0.01,0,0.015-0.001c0.005-0.001,0.01-0.002,0.014-0.004s0.009-0.004,0.013-0.006
			c0.004-0.003,0.008-0.006,0.012-0.009l1.333-1.189l1.333-1.189l1.333-1.189l1.333-1.189l0.126-0.112l0.126-0.112l0.126-0.112
			l0.126-0.112l0.117,0.121l0.117,0.121l0.117,0.121l0.117,0.121l0.253,0.262l0.253,0.262l0.253,0.262l0.253,0.262
			c0.004,0.004,0.008,0.008,0.013,0.011s0.009,0.006,0.014,0.008s0.01,0.004,0.015,0.005s0.011,0.002,0.017,0.002
			c0.005,0,0.011,0,0.016-0.001c0.005-0.001,0.01-0.002,0.015-0.004s0.009-0.004,0.014-0.007c0.004-0.003,0.008-0.006,0.012-0.01
			l0.277-1.019l0.277-1.019l0.277-1.019l0.277-1.019c-0.002-0.02-0.006-0.037-0.011-0.05c-0.005-0.013-0.012-0.024-0.019-0.031
			s-0.015-0.013-0.023-0.016C25.376,6.515,25.368,6.514,25.36,6.514z"/>
	</g>
</g>
<g>
	<g>
		<path class="st0" d="M4.942,25.121c-0.011,0-0.022,0.002-0.032,0.006s-0.019,0.01-0.026,0.017s-0.013,0.016-0.017,0.026
			s-0.006,0.02-0.006,0.032s0.002,0.022,0.006,0.032s0.01,0.019,0.017,0.026S4.9,25.274,4.91,25.278s0.02,0.006,0.032,0.006h4.884
			h4.884h4.884h4.884c0.011,0,0.022-0.002,0.032-0.006c0.01-0.004,0.019-0.01,0.026-0.017s0.013-0.016,0.017-0.026
			c0.004-0.01,0.006-0.02,0.006-0.032s-0.002-0.022-0.006-0.032c-0.004-0.01-0.01-0.019-0.017-0.026s-0.016-0.013-0.026-0.017
			c-0.01-0.004-0.02-0.006-0.032-0.006h-4.884H14.71H9.826H4.942z"/>
	</g>
	<g>
		<path class="st0" d="M24.951,20.514v-1.548v-1.548V15.87v-1.548c0-0.011-0.002-0.022-0.006-0.032s-0.01-0.019-0.017-0.026
			s-0.016-0.013-0.026-0.017s-0.02-0.006-0.032-0.006c-0.011,0-0.022,0.002-0.032,0.006c-0.01,0.004-0.019,0.01-0.026,0.017
			s-0.013,0.016-0.017,0.026c-0.004,0.01-0.006,0.02-0.006,0.032v1.548v1.548v1.548v1.548c0,0.204-0.042,0.399-0.117,0.576
			c-0.075,0.177-0.184,0.337-0.318,0.471s-0.294,0.243-0.471,0.318c-0.177,0.075-0.372,0.117-0.576,0.117h-4.298H14.71h-4.298H6.114
			c-0.204,0-0.399-0.042-0.576-0.117c-0.177-0.075-0.337-0.184-0.471-0.318s-0.243-0.294-0.318-0.471
			c-0.075-0.177-0.117-0.372-0.117-0.576v-3.517V13.48V9.963V6.447c0-0.204,0.042-0.399,0.117-0.576S4.933,5.534,5.067,5.4
			s0.294-0.243,0.471-0.318S5.91,4.965,6.114,4.965h3.24h3.24h3.24h3.24c0.011,0,0.022-0.002,0.032-0.006
			c0.01-0.004,0.019-0.01,0.026-0.017s0.013-0.016,0.017-0.026c0.004-0.01,0.006-0.02,0.006-0.032s-0.002-0.022-0.006-0.032
			c-0.004-0.01-0.01-0.019-0.017-0.026s-0.016-0.013-0.026-0.017c-0.01-0.004-0.02-0.006-0.032-0.006h-3.24h-3.24h-3.24h-3.24
			c-0.227,0-0.443,0.046-0.64,0.129S5.1,5.136,4.952,5.284S4.682,5.611,4.599,5.807S4.469,6.22,4.469,6.447v3.517v3.517v3.517v3.517
			c0,0.227,0.046,0.443,0.129,0.64c0.083,0.197,0.204,0.374,0.353,0.523s0.326,0.269,0.523,0.353
			c0.197,0.083,0.413,0.129,0.64,0.129h4.298h4.298h4.298h4.298c0.227,0,0.443-0.046,0.64-0.129
			c0.197-0.083,0.374-0.204,0.523-0.353s0.269-0.326,0.353-0.523C24.905,20.957,24.951,20.74,24.951,20.514z"/>
	</g>
</g>
<g>
	<path class="st0" d="M29.819,29.908h-7.432h-7.432H7.523H0.091v-7.432v-7.432V7.611V0.179h7.432h7.432h7.432h7.432v7.432v7.432
		v7.432V29.908z M0.341,29.658h7.307h7.307h7.307h7.307V22.35v-7.307V7.736V0.429h-7.307h-7.307H7.648H0.341v7.307v7.307v7.307
		V29.658z"/>
</g>
</svg>
