<?xml version="1.0" encoding="utf-8"?>
<!-- Generator: Adobe Illustrator 19.1.0, SVG Export Plug-In . SVG Version: 6.00 Build 0)  -->
<svg version="1.1" id="Layer_1" xmlns="http://www.w3.org/2000/svg" xmlns:xlink="http://www.w3.org/1999/xlink" x="0px" y="0px"
	 viewBox="0 0 29.91 30.086" style="enable-background:new 0 0 29.91 30.086;" xml:space="preserve">
<style type="text/css">
	.st0{fill:#115C78;}
	.st1{fill-rule:evenodd;clip-rule:evenodd;fill:#4D4D4D;}
	.st2{fill:#4D4D4D;}
	.st3{fill-rule:evenodd;clip-rule:evenodd;}
	.st4{fill:#FFFFFF;}
	.st5{fill:none;}
	.st6{fill:none;stroke:#4D4D4D;stroke-width:0.3;stroke-miterlimit:10;}
	.st7{fill:#4D4D4D;stroke:#4D4D4D;stroke-width:0.1;stroke-miterlimit:10;}
	.st8{fill:#F0047F;}
	.st9{fill:none;stroke:#4D4D4D;stroke-width:0;stroke-linecap:round;stroke-linejoin:round;}
	.st10{fill:none;stroke:#4D4D4D;stroke-width:0.25;stroke-miterlimit:10;}
	.st11{fill:none;stroke:#4D4D4D;stroke-width:0.2;stroke-miterlimit:10;}
	.st12{fill:none;stroke:#4D4D4D;stroke-width:0.8;stroke-miterlimit:10;}
	.st13{fill:#4D4D4D;stroke:#4D4D4D;stroke-width:0.3;stroke-miterlimit:10;}
	.st14{fill:none;stroke:#4D4D4D;stroke-width:0.24;stroke-miterlimit:10;}
</style>
<g>
	<path class="st2" d="M27.424,15.467l0-0.24l0-0.24l0-0.24l0-0.24c-0.079-1.649-0.487-3.223-1.158-4.655s-1.605-2.724-2.734-3.809
		s-2.453-1.964-3.905-2.572s-3.032-0.944-4.672-0.944c-1.64,0-3.22,0.336-4.672,0.944S7.507,4.96,6.378,6.047
		S4.316,8.426,3.644,9.861s-1.08,3.012-1.159,4.666l0,0.24l0,0.24l0,0.24l0,0.24c0.079,1.649,0.487,3.223,1.158,4.655
		s1.605,2.724,2.734,3.809s2.453,1.964,3.905,2.572s3.032,0.944,4.672,0.944c1.64,0,3.22-0.336,4.672-0.944
		c1.452-0.608,2.776-1.488,3.905-2.574s2.063-2.379,2.734-3.814C26.936,18.698,27.345,17.121,27.424,15.467z M14.955,27.125
		c-1.672,0-3.266-0.34-4.716-0.955c-1.451-0.615-2.758-1.504-3.856-2.602s-1.987-2.405-2.602-3.856
		c-0.615-1.451-0.955-3.044-0.955-4.716s0.34-3.266,0.955-4.716s1.504-2.758,2.602-3.856s2.405-1.987,3.856-2.602
		s3.044-0.955,4.716-0.955s3.266,0.34,4.716,0.955c1.451,0.615,2.758,1.504,3.856,2.602s1.987,2.405,2.602,3.856
		c0.615,1.451,0.955,3.044,0.955,4.716s-0.34,3.266-0.955,4.716c-0.615,1.451-1.504,2.758-2.602,3.856s-2.405,1.987-3.856,2.602
		C18.221,26.785,16.627,27.125,14.955,27.125z"/>
</g>
<g>
	<g>
		<polygon class="st2" points="15.128,8.555 15.042,8.555 14.955,8.555 14.868,8.555 14.868,10.823 14.868,13.092 14.868,15.361 
			14.868,17.629 14.955,17.629 15.042,17.629 15.128,17.629 15.215,17.629 15.215,15.361 15.215,13.092 15.215,10.823 15.215,8.555 
					"/>
	</g>
</g>
<g>
	<g>
		<polygon class="st2" points="17.31,12.918 15.042,12.918 12.773,12.918 10.504,12.918 10.504,13.005 10.504,13.092 10.504,13.179 
			10.504,13.265 12.773,13.265 15.042,13.265 17.31,13.265 19.579,13.265 19.579,13.179 19.579,13.092 19.579,13.005 19.579,12.918 
					"/>
	</g>
</g>
<g>
	<g>
		<polygon class="st2" points="17.137,21.092 14.868,21.092 12.599,21.092 10.331,21.092 10.331,21.179 10.331,21.265 
			10.331,21.352 10.331,21.439 12.599,21.439 14.868,21.439 17.137,21.439 19.405,21.439 19.405,21.352 19.405,21.265 
			19.405,21.179 19.405,21.092 		"/>
	</g>
</g>
<polygon class="st10" points="0.112,0.257 7.485,0.257 14.859,0.257 22.232,0.257 29.606,0.257 29.606,7.627 29.606,14.997 
	29.606,22.367 29.606,29.736 22.232,29.736 14.859,29.736 7.485,29.736 0.112,29.736 0.112,22.367 0.112,14.997 0.112,7.627 "/>
</svg>
