<?xml version="1.0" encoding="utf-8"?>
<!-- Generator: Adobe Illustrator 19.1.0, SVG Export Plug-In . SVG Version: 6.00 Build 0)  -->
<svg version="1.1" id="Layer_1" xmlns="http://www.w3.org/2000/svg" xmlns:xlink="http://www.w3.org/1999/xlink" x="0px" y="0px"
	 viewBox="0 0 178.146 26.342" style="enable-background:new 0 0 178.146 26.342;" xml:space="preserve">
<style type="text/css">
	.st0{fill:#115C78;}
	.st1{fill-rule:evenodd;clip-rule:evenodd;fill:#4D4D4D;}
	.st2{fill:#4D4D4D;}
	.st3{fill-rule:evenodd;clip-rule:evenodd;}
	.st4{fill:#FFFFFF;}
	.st5{fill:none;}
	.st6{fill:none;stroke:#4D4D4D;stroke-width:0.3;stroke-miterlimit:10;}
	.st7{fill:#4D4D4D;stroke:#4D4D4D;stroke-width:0.1;stroke-miterlimit:10;}
	.st8{fill:#F0047F;}
	.st9{fill:none;stroke:#4D4D4D;stroke-width:0;stroke-linecap:round;stroke-linejoin:round;}
	.st10{fill:none;stroke:#4D4D4D;stroke-width:0.25;stroke-miterlimit:10;}
	.st11{fill:none;stroke:#4D4D4D;stroke-width:0.2;stroke-miterlimit:10;}
	.st12{fill:none;stroke:#4D4D4D;stroke-width:0.8;stroke-miterlimit:10;}
	.st13{fill:#4D4D4D;stroke:#4D4D4D;stroke-width:0.3;stroke-miterlimit:10;}
	.st14{fill:none;stroke:#4D4D4D;stroke-width:0.24;stroke-miterlimit:10;}
</style>
<g>
	<g>
		<path class="st0" d="M10.646,6.849h2.983c0.986,0,1.851,0.151,2.586,0.448c0.728,0.301,1.341,0.733,1.822,1.287
			c0.481,0.562,0.84,1.229,1.074,2.011c0.231,0.781,0.351,1.658,0.351,2.637c0,0.972-0.119,1.862-0.351,2.658
			c-0.234,0.799-0.594,1.485-1.074,2.05c-0.482,0.567-1.085,1.003-1.815,1.311c-0.727,0.305-1.586,0.458-2.577,0.458h-2.999V6.849z
			 M13.53,18.943c0.872,0,1.626-0.139,2.254-0.416c0.629-0.28,1.147-0.674,1.552-1.18c0.404-0.51,0.702-1.111,0.898-1.805
			c0.197-0.698,0.292-1.466,0.292-2.311c0-0.834-0.095-1.6-0.292-2.284c-0.195-0.691-0.493-1.282-0.898-1.774
			c-0.404-0.497-0.923-0.88-1.552-1.155c-0.628-0.271-1.382-0.407-2.254-0.407h-1.99v11.332H13.53z"/>
		<path class="st0" d="M22.427,6.849h7.044v0.783h-6.146v4.855h3.746v0.781h-3.746v5.656h6.339v0.783h-7.237V6.849z"/>
		<path class="st0" d="M32.067,17.385c0.463,0.534,1.021,0.956,1.675,1.27c0.648,0.309,1.346,0.464,2.084,0.464
			c0.991,0,1.771-0.234,2.344-0.709c0.574-0.473,0.857-1.094,0.857-1.862c0-0.404-0.061-0.739-0.184-1.013
			c-0.125-0.275-0.288-0.51-0.499-0.714c-0.207-0.203-0.449-0.376-0.733-0.526c-0.276-0.151-0.574-0.296-0.885-0.438l-1.95-0.879
			c-0.286-0.118-0.58-0.259-0.891-0.429c-0.303-0.169-0.587-0.381-0.834-0.633c-0.254-0.256-0.47-0.554-0.639-0.901
			c-0.169-0.344-0.253-0.757-0.253-1.236c0-0.466,0.097-0.895,0.284-1.278c0.188-0.38,0.449-0.715,0.778-0.993
			c0.336-0.282,0.73-0.501,1.193-0.656c0.461-0.155,0.958-0.231,1.489-0.231c0.783,0,1.475,0.152,2.082,0.457
			c0.603,0.307,1.102,0.667,1.487,1.081l-0.507,0.606c-0.376-0.404-0.818-0.724-1.326-0.965c-0.505-0.242-1.084-0.363-1.736-0.363
			c-0.853,0-1.545,0.213-2.064,0.624c-0.522,0.42-0.781,0.979-0.781,1.681c0,0.378,0.07,0.695,0.215,0.956
			c0.142,0.26,0.324,0.483,0.547,0.674c0.22,0.188,0.459,0.35,0.721,0.485c0.258,0.138,0.51,0.254,0.741,0.361l1.951,0.857
			c0.362,0.16,0.709,0.333,1.032,0.527c0.325,0.195,0.614,0.427,0.858,0.685c0.246,0.259,0.444,0.567,0.598,0.926
			c0.146,0.357,0.225,0.783,0.225,1.275c0,0.497-0.1,0.959-0.293,1.379c-0.197,0.42-0.471,0.783-0.833,1.092
			c-0.356,0.305-0.787,0.545-1.294,0.722c-0.51,0.176-1.075,0.263-1.701,0.263c-0.934,0-1.768-0.177-2.494-0.536
			c-0.729-0.354-1.345-0.822-1.854-1.396L32.067,17.385z"/>
		<path class="st0" d="M42.638,6.849h0.896v12.859h-0.896V6.849z"/>
		<path class="st0" d="M46.498,13.25c0-1.018,0.137-1.93,0.414-2.748c0.272-0.821,0.659-1.519,1.155-2.101
			c0.505-0.58,1.101-1.02,1.797-1.326c0.695-0.305,1.473-0.457,2.333-0.457c0.429,0,0.814,0.043,1.17,0.133
			c0.351,0.092,0.667,0.215,0.956,0.363c0.286,0.146,0.543,0.315,0.769,0.497c0.229,0.184,0.43,0.363,0.599,0.545l-0.527,0.589
			c-0.339-0.366-0.744-0.679-1.211-0.931c-0.468-0.251-1.057-0.381-1.755-0.381c-0.742,0-1.407,0.143-1.992,0.409
			c-0.583,0.278-1.081,0.663-1.494,1.162c-0.407,0.501-0.722,1.111-0.941,1.825c-0.224,0.72-0.334,1.522-0.334,2.42
			c0,0.899,0.105,1.709,0.313,2.429c0.207,0.72,0.508,1.337,0.91,1.844c0.393,0.508,0.883,0.899,1.459,1.18
			c0.576,0.278,1.232,0.416,1.961,0.416c0.585,0,1.134-0.081,1.651-0.25c0.511-0.17,0.925-0.411,1.238-0.722v-3.997h-2.057
			l0.674-0.764h2.237v5.089c-0.402,0.434-0.926,0.783-1.572,1.06c-0.642,0.271-1.387,0.406-2.249,0.406
			c-0.819,0-1.568-0.155-2.242-0.468c-0.678-0.315-1.256-0.755-1.737-1.339c-0.481-0.578-0.857-1.278-1.125-2.104
			C46.635,15.206,46.498,14.278,46.498,13.25z"/>
		<path class="st0" d="M59.121,6.849h0.938l5.425,9.074l1.443,2.551h0.075c-0.026-0.621-0.052-1.243-0.075-1.868
			c-0.031-0.624-0.039-1.25-0.039-1.873V6.849h0.859v12.859h-0.939l-5.423-9.071l-1.441-2.556h-0.08
			c0.025,0.621,0.052,1.229,0.08,1.824c0.024,0.591,0.035,1.197,0.035,1.82v7.982h-0.858V6.849z"/>
	</g>
	<g>
		<path class="st0" d="M77.618,20.339V6.23h2.22v14.108H77.618z"/>
		<path class="st0" d="M91.595,20.339h-2.883l-3.928-10.221h-0.111c0.144,0.779,0.215,1.615,0.215,2.508v7.713h-2.188V6.23H85.6
			l3.894,10.113h0.095c-0.107-0.679-0.165-1.479-0.165-2.413v-7.7h2.172V20.339z"/>
		<path class="st0" d="M102.091,13.149c0,2.325-0.429,4.108-1.281,5.341c-0.854,1.232-2.085,1.849-3.688,1.849h-3.107V6.23h3.396
			c1.476,0,2.626,0.605,3.446,1.818C101.678,9.261,102.091,10.961,102.091,13.149z M99.669,13.225c0-3.152-0.782-4.728-2.348-4.728
			h-0.945v9.545h0.765c0.861,0,1.5-0.403,1.908-1.202C99.462,16.037,99.669,14.834,99.669,13.225z"/>
		<path class="st0" d="M111.927,6.23v9.129c0,1.678-0.342,2.958-1.026,3.844c-0.682,0.887-1.669,1.328-2.962,1.328
			c-1.261,0-2.223-0.439-2.881-1.317c-0.66-0.879-0.991-2.177-0.991-3.895V6.23h2.347v9.281c0,1.797,0.534,2.694,1.606,2.694
			c0.496,0,0.881-0.23,1.152-0.686c0.272-0.459,0.41-1.107,0.41-1.951V6.23H111.927z"/>
		<path class="st0" d="M114.293,20.339V6.23h2.36v11.811h3.274l-0.954,2.297H114.293z"/>
		<path class="st0" d="M126.931,12.51h2.408v7.238c-1.101,0.523-2.271,0.783-3.509,0.783c-1.478,0-2.612-0.623-3.409-1.873
			c-0.796-1.249-1.194-3.048-1.194-5.396c0-2.262,0.457-4.034,1.369-5.316c0.913-1.278,2.185-1.919,3.824-1.919
			c1.012,0,1.983,0.288,2.9,0.868l-0.744,2.143c-0.72-0.464-1.392-0.696-2.017-0.696c-0.896,0-1.608,0.446-2.131,1.337
			c-0.525,0.891-0.787,2.106-0.787,3.646c0,1.582,0.19,2.794,0.571,3.637c0.379,0.842,0.929,1.263,1.653,1.263
			c0.381,0,0.771-0.056,1.163-0.162v-3.236h-2.181L126.931,12.51z"/>
		<path class="st0" d="M137.178,20.339h-5.722V6.23h5.722v2.267h-3.361v3.359h3.118v2.275h-3.118v3.91h3.361V20.339z"/>
		<path class="st0" d="M148.098,20.339h-2.884l-3.924-10.221h-0.113c0.144,0.779,0.216,1.615,0.216,2.508v7.713h-2.188V6.23h2.9
			l3.893,10.113h0.092c-0.107-0.679-0.16-1.479-0.16-2.413v-7.7h2.169V20.339z"/>
		<path class="st0" d="M154.729,8.324c-0.676,0-1.212,0.44-1.603,1.322c-0.39,0.879-0.586,2.104-0.586,3.678
			c0,3.267,0.767,4.899,2.302,4.899c0.671,0,1.376-0.236,2.11-0.714v2.335c-0.62,0.457-1.412,0.687-2.379,0.687
			c-1.431,0-2.528-0.632-3.296-1.896c-0.767-1.263-1.151-3.042-1.151-5.33c0-2.293,0.393-4.076,1.186-5.358
			c0.789-1.278,1.89-1.919,3.297-1.919c0.464,0,0.908,0.069,1.333,0.212c0.426,0.141,0.882,0.388,1.367,0.742l-0.78,2.133
			c-0.261-0.199-0.538-0.383-0.835-0.545C155.399,8.405,155.077,8.324,154.729,8.324z"/>
		<path class="st0" d="M164.654,20.339h-5.723V6.23h5.723v2.267h-3.363v3.359h3.119v2.275h-3.119v3.91h3.363V20.339z"/>
	</g>
</g>
</svg>
