<?xml version="1.0" encoding="utf-8"?>
<!-- Generator: Adobe Illustrator 19.1.0, SVG Export Plug-In . SVG Version: 6.00 Build 0)  -->
<svg version="1.1" id="Layer_1" xmlns="http://www.w3.org/2000/svg" xmlns:xlink="http://www.w3.org/1999/xlink" x="0px" y="0px"
	 viewBox="0 0 29.91 30.086" style="enable-background:new 0 0 29.91 30.086;" xml:space="preserve">
<style type="text/css">
	.st0{fill:#115C78;}
	.st1{fill-rule:evenodd;clip-rule:evenodd;fill:#4D4D4D;}
	.st2{fill:#4D4D4D;}
	.st3{fill-rule:evenodd;clip-rule:evenodd;}
	.st4{fill:#FFFFFF;}
	.st5{fill:none;}
	.st6{fill:none;stroke:#4D4D4D;stroke-width:0.3;stroke-miterlimit:10;}
	.st7{fill:#4D4D4D;stroke:#4D4D4D;stroke-width:0.1;stroke-miterlimit:10;}
	.st8{fill:#F0047F;}
	.st9{fill:none;stroke:#4D4D4D;stroke-width:0;stroke-linecap:round;stroke-linejoin:round;}
	.st10{fill:none;stroke:#4D4D4D;stroke-width:0.25;stroke-miterlimit:10;}
	.st11{fill:none;stroke:#4D4D4D;stroke-width:0.2;stroke-miterlimit:10;}
	.st12{fill:none;stroke:#4D4D4D;stroke-width:0.8;stroke-miterlimit:10;}
	.st13{fill:#4D4D4D;stroke:#4D4D4D;stroke-width:0.3;stroke-miterlimit:10;}
	.st14{fill:none;stroke:#4D4D4D;stroke-width:0.24;stroke-miterlimit:10;}
</style>
<path class="st10" d="M0.216,0.336h7.37h7.37h7.37h7.37v7.37v7.37v7.37v7.37h-7.37h-7.37h-7.37h-7.37v-7.37v-7.37v-7.37V0.336z"/>
<g>
	<g>
		<path class="st1" d="M23.16,18.032l-0.935,0.002l-0.935,0.002l-0.935,0.002l-0.935,0.002c0,0-0.009-0.298-0.092-0.761
			c-0.083-0.463-0.241-1.092-0.539-1.754c-0.298-0.662-0.736-1.357-1.38-1.953c-0.644-0.596-1.494-1.092-2.615-1.357
			c-0.263-0.044-0.838-0.155-1.566-0.179c-0.729-0.025-1.611,0.037-2.489,0.337c-0.878,0.3-1.751,0.839-2.461,1.77
			c-0.71,0.93-1.257,2.252-1.483,4.118c-0.031-0.331-0.056-0.741-0.038-1.206c0.017-0.465,0.077-0.987,0.215-1.541
			c0.138-0.554,0.356-1.142,0.688-1.739c0.332-0.598,0.78-1.205,1.38-1.801c0.847-0.841,1.804-1.473,2.812-1.891
			s2.067-0.625,3.12-0.616s2.1,0.232,3.084,0.672c0.983,0.44,1.903,1.097,2.701,1.973c0.307,0.337,0.599,0.712,0.867,1.125
			c0.268,0.413,0.512,0.865,0.724,1.357c0.212,0.492,0.391,1.023,0.529,1.596C23.015,16.762,23.112,17.376,23.16,18.032"/>
	</g>
</g>
<path class="st10" d="M29.694,0.271v5.614v5.614v5.614v5.614c-0.982-0.525-2.045-0.992-3.173-1.397
	c-1.128-0.405-2.323-0.747-3.57-1.024c-1.247-0.277-2.546-0.488-3.883-0.63c-1.337-0.142-2.713-0.215-4.113-0.215
	c-1.4,0-2.775,0.073-4.113,0.215s-2.636,0.353-3.883,0.63s-2.441,0.619-3.57,1.024c-1.129,0.405-2.191,0.871-3.174,1.397v-5.614
	v-5.614V5.885V0.271h7.37h7.37h7.37H29.694z"/>
</svg>
