<?xml version="1.0" encoding="utf-8"?>
<!-- Generator: Adobe Illustrator 19.1.0, SVG Export Plug-In . SVG Version: 6.00 Build 0)  -->
<svg version="1.1" id="Layer_1" xmlns="http://www.w3.org/2000/svg" xmlns:xlink="http://www.w3.org/1999/xlink" x="0px" y="0px"
	 viewBox="0 0 29.91 30.086" style="enable-background:new 0 0 29.91 30.086;" xml:space="preserve">
<style type="text/css">
	.st0{fill:#115C78;}
	.st1{fill-rule:evenodd;clip-rule:evenodd;fill:#4D4D4D;}
	.st2{fill:#4D4D4D;}
	.st3{fill-rule:evenodd;clip-rule:evenodd;}
	.st4{fill:#FFFFFF;}
	.st5{fill:none;}
	.st6{fill:none;stroke:#4D4D4D;stroke-width:0.3;stroke-miterlimit:10;}
	.st7{fill:#4D4D4D;stroke:#4D4D4D;stroke-width:0.1;stroke-miterlimit:10;}
	.st8{fill:#F0047F;}
	.st9{fill:none;stroke:#4D4D4D;stroke-width:0;stroke-linecap:round;stroke-linejoin:round;}
	.st10{fill:none;stroke:#4D4D4D;stroke-width:0.25;stroke-miterlimit:10;}
	.st11{fill:none;stroke:#4D4D4D;stroke-width:0.2;stroke-miterlimit:10;}
	.st12{fill:none;stroke:#4D4D4D;stroke-width:0.8;stroke-miterlimit:10;}
	.st13{fill:#4D4D4D;stroke:#4D4D4D;stroke-width:0.3;stroke-miterlimit:10;}
	.st14{fill:none;stroke:#4D4D4D;stroke-width:0.24;stroke-miterlimit:10;}
</style>
<polygon class="st10" points="0.216,0.304 7.585,0.304 14.955,0.304 22.324,0.304 29.694,0.304 29.694,7.673 29.694,15.043 
	29.694,22.413 29.694,29.783 22.324,29.783 14.955,29.783 7.585,29.783 0.216,29.783 0.216,22.413 0.216,15.043 0.216,7.673 "/>
<g>
	<g>
		<g>
			<g>
				<path class="st2" d="M22.495,6.893c-0.43-1.015-1.052-1.93-1.821-2.699s-1.683-1.391-2.699-1.821
					c-1.015-0.43-2.131-0.668-3.301-0.668s-2.286,0.238-3.301,0.668c-1.015,0.43-1.93,1.052-2.699,1.821S7.284,5.878,6.854,6.893
					c-0.43,1.015-0.668,2.131-0.668,3.301s0.238,2.286,0.668,3.301c0.43,1.015,1.052,1.93,1.821,2.699s1.683,1.391,2.699,1.821
					c1.015,0.43,2.131,0.668,3.301,0.668c1.169-0.001,2.283-0.24,3.298-0.671c1.015-0.431,1.929-1.053,2.698-1.822
					s1.391-1.683,1.822-2.698c0.431-1.015,0.67-2.129,0.671-3.298C23.163,9.024,22.925,7.909,22.495,6.893z M22.244,13.389
					c-0.416,0.983-1.019,1.868-1.762,2.612s-1.629,1.346-2.612,1.762c-0.983,0.416-2.062,0.647-3.195,0.647s-2.212-0.23-3.195-0.647
					c-0.983-0.416-1.868-1.019-2.612-1.762s-1.346-1.629-1.762-2.612c-0.416-0.983-0.647-2.062-0.647-3.195s0.23-2.212,0.647-3.195
					c0.416-0.983,1.019-1.868,1.762-2.612s1.629-1.346,2.612-1.762s2.062-0.647,3.195-0.647c1.131,0.001,2.21,0.233,3.192,0.65
					c0.982,0.417,1.867,1.02,2.611,1.763s1.346,1.629,1.763,2.611c0.417,0.982,0.648,2.061,0.65,3.192
					C22.89,11.327,22.66,12.407,22.244,13.389z"/>
			</g>
		</g>
	</g>
	<path class="st2" d="M10.463,11.521c0.199,0,0.388,0.04,0.56,0.113s0.327,0.178,0.457,0.308c0.13,0.13,0.236,0.285,0.308,0.457
		s0.113,0.361,0.113,0.56s-0.04,0.388-0.113,0.56s-0.178,0.327-0.308,0.457c-0.13,0.13-0.285,0.236-0.457,0.308
		s-0.361,0.113-0.56,0.113s-0.388-0.04-0.56-0.113s-0.327-0.178-0.457-0.308c-0.13-0.13-0.236-0.285-0.308-0.457
		s-0.113-0.361-0.113-0.56s0.04-0.388,0.113-0.56s0.178-0.327,0.308-0.457c0.13-0.13,0.285-0.236,0.457-0.308
		S10.264,11.521,10.463,11.521z"/>
	<path class="st2" d="M18.853,11.521c0.199,0,0.388,0.04,0.56,0.113c0.172,0.073,0.327,0.178,0.457,0.308
		c0.13,0.13,0.236,0.285,0.308,0.457s0.113,0.361,0.113,0.56s-0.04,0.388-0.113,0.56S20,13.846,19.87,13.977
		s-0.285,0.236-0.457,0.308c-0.172,0.073-0.361,0.113-0.56,0.113s-0.388-0.04-0.56-0.113c-0.172-0.073-0.327-0.178-0.457-0.308
		c-0.13-0.13-0.236-0.285-0.308-0.457s-0.113-0.361-0.113-0.56s0.04-0.388,0.113-0.56s0.178-0.327,0.308-0.457
		c0.13-0.13,0.285-0.236,0.457-0.308C18.465,11.561,18.654,11.521,18.853,11.521z"/>
	<path class="st2" d="M10.07,6.755c0.199,0,0.388,0.04,0.56,0.113s0.327,0.178,0.457,0.308c0.13,0.13,0.236,0.285,0.308,0.457
		c0.073,0.172,0.113,0.361,0.113,0.56c0,0.199-0.04,0.388-0.113,0.56s-0.178,0.327-0.308,0.457c-0.13,0.13-0.285,0.236-0.457,0.308
		s-0.361,0.113-0.56,0.113s-0.388-0.04-0.56-0.113S9.183,9.341,9.053,9.211S8.817,8.926,8.744,8.754s-0.113-0.361-0.113-0.56
		c0-0.199,0.04-0.388,0.113-0.56c0.073-0.172,0.178-0.327,0.308-0.457c0.13-0.13,0.285-0.236,0.457-0.308S9.871,6.755,10.07,6.755z"
		/>
	<path class="st2" d="M19.246,6.755c0.199,0,0.388,0.04,0.56,0.113c0.172,0.073,0.327,0.178,0.457,0.308
		c0.13,0.13,0.236,0.285,0.308,0.457c0.073,0.172,0.113,0.361,0.113,0.56c0,0.199-0.04,0.388-0.113,0.56s-0.178,0.327-0.308,0.457
		s-0.285,0.236-0.457,0.308c-0.172,0.073-0.361,0.113-0.56,0.113s-0.388-0.04-0.56-0.113c-0.172-0.073-0.327-0.178-0.457-0.308
		c-0.13-0.13-0.236-0.285-0.308-0.457s-0.113-0.361-0.113-0.56c0-0.199,0.04-0.388,0.113-0.56c0.073-0.172,0.178-0.327,0.308-0.457
		c0.13-0.13,0.285-0.236,0.457-0.308C18.858,6.795,19.047,6.755,19.246,6.755z"/>
	<path class="st2" d="M14.674,14.097c0.199,0,0.388,0.04,0.56,0.113s0.327,0.178,0.457,0.308c0.13,0.13,0.236,0.285,0.308,0.457
		c0.073,0.172,0.113,0.361,0.113,0.56c0,0.199-0.04,0.388-0.113,0.56c-0.073,0.172-0.178,0.327-0.308,0.457
		c-0.13,0.13-0.285,0.236-0.457,0.308s-0.361,0.113-0.56,0.113s-0.388-0.04-0.56-0.113s-0.327-0.178-0.457-0.308
		c-0.13-0.13-0.236-0.285-0.308-0.457c-0.073-0.172-0.113-0.361-0.113-0.56c0-0.199,0.04-0.388,0.113-0.56s0.178-0.327,0.308-0.457
		c0.13-0.13,0.285-0.236,0.457-0.308S14.476,14.097,14.674,14.097z"/>
	<g>
		<g>
			<polyline class="st12" points="3.396,24.184 9.279,24.184 15.162,24.184 21.045,24.184 21.188,24.184 			"/>
			<g>
				<polygon class="st2" points="20.021,28.173 26.929,24.184 20.021,20.195 				"/>
			</g>
		</g>
	</g>
</g>
</svg>
