<?xml version="1.0" encoding="utf-8"?>
<!-- Generator: Adobe Illustrator 19.1.0, SVG Export Plug-In . SVG Version: 6.00 Build 0)  -->
<svg version="1.1" id="Layer_1" xmlns="http://www.w3.org/2000/svg" xmlns:xlink="http://www.w3.org/1999/xlink" x="0px" y="0px"
	 viewBox="0 0 29.91 30.086" style="enable-background:new 0 0 29.91 30.086;" xml:space="preserve">
<style type="text/css">
	.st0{fill:#4D4D4D;}
	.st1{fill-rule:evenodd;clip-rule:evenodd;fill:#4C4C4C;}
	.st2{fill:#4C4C4C;}
	.st3{fill:#383330;}
	.st4{fill:#1F1A17;}
	.st5{fill:#4D4C4C;}
	.st6{fill:none;stroke:#000000;stroke-width:0.3;stroke-miterlimit:10;}
	.st7{fill:#E61413;}
	.st8{fill:#5F5357;}
	.st9{fill:#115C78;}
	.st10{fill-rule:evenodd;clip-rule:evenodd;fill:#4D4D4D;}
	.st11{fill-rule:evenodd;clip-rule:evenodd;}
	.st12{fill:#FFFFFF;}
	.st13{fill:none;}
	.st14{fill:#231F20;}
	.st15{clip-path:url(#SVGID_2_);}
	.st16{clip-path:url(#SVGID_4_);fill:#FCF118;}
	.st17{clip-path:url(#SVGID_4_);fill:#FCF018;}
	.st18{clip-path:url(#SVGID_4_);fill:#FCEF18;}
	.st19{clip-path:url(#SVGID_4_);fill:#FCEE18;}
	.st20{clip-path:url(#SVGID_4_);fill:#FCED18;}
	.st21{clip-path:url(#SVGID_4_);fill:#FCEC18;}
	.st22{clip-path:url(#SVGID_4_);fill:#FCEB18;}
	.st23{clip-path:url(#SVGID_4_);fill:#FCEA18;}
	.st24{clip-path:url(#SVGID_4_);fill:#FCE918;}
	.st25{clip-path:url(#SVGID_4_);fill:#FCE818;}
	.st26{clip-path:url(#SVGID_4_);fill:#FCE718;}
	.st27{clip-path:url(#SVGID_4_);fill:#FCE617;}
	.st28{clip-path:url(#SVGID_4_);fill:#FCE517;}
	.st29{clip-path:url(#SVGID_4_);fill:#FCE417;}
	.st30{clip-path:url(#SVGID_4_);fill:#FCE317;}
	.st31{clip-path:url(#SVGID_4_);fill:#FCE217;}
	.st32{clip-path:url(#SVGID_4_);fill:#FCE117;}
	.st33{clip-path:url(#SVGID_4_);fill:#FCE017;}
	.st34{clip-path:url(#SVGID_4_);fill:#FCDF17;}
	.st35{clip-path:url(#SVGID_4_);fill:#FCDE17;}
	.st36{clip-path:url(#SVGID_4_);fill:#FCDD17;}
	.st37{clip-path:url(#SVGID_4_);fill:#FCDC17;}
	.st38{clip-path:url(#SVGID_4_);fill:#FCDB17;}
	.st39{clip-path:url(#SVGID_4_);fill:#FCDA17;}
	.st40{clip-path:url(#SVGID_4_);fill:#FCD917;}
	.st41{clip-path:url(#SVGID_4_);fill:#FCD817;}
	.st42{clip-path:url(#SVGID_4_);fill:#FCD717;}
	.st43{clip-path:url(#SVGID_4_);fill:#FCD617;}
	.st44{clip-path:url(#SVGID_4_);fill:#FCD517;}
	.st45{clip-path:url(#SVGID_4_);fill:#FCD416;}
	.st46{clip-path:url(#SVGID_4_);fill:#FCD316;}
	.st47{clip-path:url(#SVGID_4_);fill:#FBD216;}
	.st48{clip-path:url(#SVGID_4_);fill:#FBD116;}
	.st49{clip-path:url(#SVGID_4_);fill:#FBD016;}
	.st50{clip-path:url(#SVGID_4_);fill:#FBCF16;}
	.st51{clip-path:url(#SVGID_4_);fill:#FBCE16;}
	.st52{clip-path:url(#SVGID_4_);fill:#FBCD16;}
	.st53{clip-path:url(#SVGID_4_);fill:#FBCC16;}
	.st54{clip-path:url(#SVGID_4_);fill:#FBCB16;}
	.st55{clip-path:url(#SVGID_4_);fill:#FBCA16;}
	.st56{clip-path:url(#SVGID_4_);fill:#FBC916;}
	.st57{clip-path:url(#SVGID_4_);fill:#FBC816;}
	.st58{clip-path:url(#SVGID_4_);fill:#FBC716;}
	.st59{clip-path:url(#SVGID_4_);fill:#FBC616;}
	.st60{clip-path:url(#SVGID_4_);fill:#FBC516;}
	.st61{clip-path:url(#SVGID_4_);fill:#FBC416;}
	.st62{clip-path:url(#SVGID_4_);fill:#FBC316;}
	.st63{clip-path:url(#SVGID_4_);fill:#FBC216;}
	.st64{clip-path:url(#SVGID_4_);fill:#FBC115;}
	.st65{clip-path:url(#SVGID_4_);fill:#FBC015;}
	.st66{clip-path:url(#SVGID_4_);fill:#FBBF15;}
	.st67{clip-path:url(#SVGID_4_);fill:#FBBE15;}
	.st68{clip-path:url(#SVGID_4_);fill:#FBBD15;}
	.st69{clip-path:url(#SVGID_4_);fill:#FBBC15;}
	.st70{clip-path:url(#SVGID_4_);fill:#FBBB15;}
	.st71{clip-path:url(#SVGID_4_);fill:#FBBA15;}
	.st72{clip-path:url(#SVGID_4_);fill:#FBB915;}
	.st73{clip-path:url(#SVGID_4_);fill:#FBB815;}
	.st74{clip-path:url(#SVGID_4_);fill:#FBB715;}
	.st75{clip-path:url(#SVGID_4_);fill:#FBB615;}
	.st76{clip-path:url(#SVGID_4_);fill:#FBB515;}
	.st77{clip-path:url(#SVGID_4_);fill:#FBB415;}
	.st78{clip-path:url(#SVGID_4_);fill:#FBB315;}
	.st79{clip-path:url(#SVGID_4_);fill:#FBB215;}
	.st80{clip-path:url(#SVGID_4_);fill:#FBB115;}
	.st81{clip-path:url(#SVGID_4_);fill:#FBB015;}
	.st82{clip-path:url(#SVGID_4_);fill:#FBAF15;}
	.st83{clip-path:url(#SVGID_4_);fill:#FAAE15;}
	.st84{clip-path:url(#SVGID_4_);fill:#FAAD14;}
	.st85{clip-path:url(#SVGID_4_);fill:#FAAC14;}
	.st86{clip-path:url(#SVGID_4_);fill:#FAAB14;}
	.st87{clip-path:url(#SVGID_4_);fill:#FAAA14;}
	.st88{clip-path:url(#SVGID_4_);fill:#FAA914;}
	.st89{clip-path:url(#SVGID_4_);fill:#FAA814;}
	.st90{clip-path:url(#SVGID_4_);fill:#FAA714;}
	.st91{clip-path:url(#SVGID_4_);fill:#FAA614;}
	.st92{clip-path:url(#SVGID_4_);fill:#FAA514;}
	.st93{clip-path:url(#SVGID_4_);fill:#FAA414;}
	.st94{clip-path:url(#SVGID_4_);fill:#FAA314;}
	.st95{clip-path:url(#SVGID_4_);fill:#FAA214;}
	.st96{clip-path:url(#SVGID_4_);fill:#FAA114;}
	.st97{clip-path:url(#SVGID_4_);fill:#FAA014;}
	.st98{clip-path:url(#SVGID_4_);fill:#FA9F14;}
	.st99{clip-path:url(#SVGID_4_);fill:#FA9E14;}
	.st100{clip-path:url(#SVGID_4_);fill:#FA9D14;}
	.st101{clip-path:url(#SVGID_4_);fill:#FA9C14;}
	.st102{clip-path:url(#SVGID_4_);fill:#FA9B14;}
	.st103{clip-path:url(#SVGID_4_);fill:#FA9A13;}
	.st104{clip-path:url(#SVGID_4_);fill:#FA9913;}
	.st105{clip-path:url(#SVGID_4_);fill:#FA9813;}
	.st106{clip-path:url(#SVGID_4_);fill:#FA9713;}
	.st107{clip-path:url(#SVGID_4_);fill:#FA9613;}
	.st108{clip-path:url(#SVGID_4_);fill:#FA9513;}
	.st109{clip-path:url(#SVGID_4_);fill:#FA9413;}
	.st110{clip-path:url(#SVGID_4_);fill:#FA9313;}
	.st111{clip-path:url(#SVGID_4_);fill:#FA9213;}
	.st112{clip-path:url(#SVGID_4_);fill:#FA9113;}
	.st113{clip-path:url(#SVGID_4_);fill:#FA9013;}
	.st114{clip-path:url(#SVGID_4_);fill:#FA8F13;}
	.st115{clip-path:url(#SVGID_4_);fill:#FA8E13;}
	.st116{clip-path:url(#SVGID_4_);fill:#FA8D13;}
	.st117{clip-path:url(#SVGID_4_);fill:#FA8C13;}
	.st118{clip-path:url(#SVGID_4_);fill:#FA8B13;}
	.st119{clip-path:url(#SVGID_4_);fill:#FA8A13;}
	.st120{clip-path:url(#SVGID_4_);fill:#FA8913;}
	.st121{clip-path:url(#SVGID_4_);fill:#FA8812;}
	.st122{clip-path:url(#SVGID_4_);fill:#FA8712;}
	.st123{clip-path:url(#SVGID_4_);fill:#FA8612;}
	.st124{clip-path:url(#SVGID_4_);fill:#F98512;}
	.st125{clip-path:url(#SVGID_4_);fill:#F98412;}
	.st126{clip-path:url(#SVGID_4_);fill:#F98312;}
	.st127{clip-path:url(#SVGID_4_);fill:#F98212;}
	.st128{clip-path:url(#SVGID_4_);fill:#F98112;}
	.st129{clip-path:url(#SVGID_4_);fill:#F98012;}
	.st130{clip-path:url(#SVGID_4_);fill:#F97F12;}
	.st131{clip-path:url(#SVGID_4_);fill:#F97E12;}
	.st132{clip-path:url(#SVGID_4_);fill:#F97D12;}
	.st133{clip-path:url(#SVGID_4_);fill:#F97C12;}
	.st134{clip-path:url(#SVGID_4_);fill:#F97B12;}
	.st135{clip-path:url(#SVGID_4_);fill:#F97A12;}
	.st136{clip-path:url(#SVGID_4_);fill:#F97912;}
	.st137{clip-path:url(#SVGID_4_);fill:#F97812;}
	.st138{clip-path:url(#SVGID_4_);fill:#F97712;}
	.st139{clip-path:url(#SVGID_4_);fill:#F97612;}
	.st140{clip-path:url(#SVGID_4_);fill:#F97511;}
	.st141{clip-path:url(#SVGID_4_);fill:#F97411;}
	.st142{clip-path:url(#SVGID_4_);fill:#F97311;}
	.st143{clip-path:url(#SVGID_4_);fill:#F97211;}
	.st144{clip-path:url(#SVGID_4_);fill:#F97111;}
	.st145{clip-path:url(#SVGID_4_);fill:#F97011;}
	.st146{clip-path:url(#SVGID_4_);fill:#F96F11;}
	.st147{clip-path:url(#SVGID_4_);fill:#F96E11;}
	.st148{clip-path:url(#SVGID_4_);fill:#F96D11;}
	.st149{clip-path:url(#SVGID_4_);fill:#F96C11;}
	.st150{clip-path:url(#SVGID_4_);fill:#F96B11;}
	.st151{clip-path:url(#SVGID_4_);fill:#F96A11;}
	.st152{clip-path:url(#SVGID_4_);fill:#F96911;}
	.st153{clip-path:url(#SVGID_4_);fill:#F96811;}
	.st154{clip-path:url(#SVGID_4_);fill:#F96711;}
	.st155{clip-path:url(#SVGID_4_);fill:#F96611;}
	.st156{clip-path:url(#SVGID_4_);fill:#F96511;}
	.st157{clip-path:url(#SVGID_4_);fill:#F96411;}
	.st158{clip-path:url(#SVGID_4_);fill:#F96311;}
	.st159{clip-path:url(#SVGID_4_);fill:#F96210;}
	.st160{clip-path:url(#SVGID_4_);fill:#F86110;}
	.st161{clip-path:url(#SVGID_4_);fill:#F86010;}
	.st162{clip-path:url(#SVGID_4_);fill:#F85F10;}
	.st163{clip-path:url(#SVGID_4_);fill:#F85E10;}
	.st164{clip-path:url(#SVGID_4_);fill:#F85D10;}
	.st165{clip-path:url(#SVGID_4_);fill:#F85C10;}
	.st166{clip-path:url(#SVGID_4_);fill:#F85B10;}
	.st167{clip-path:url(#SVGID_4_);fill:#F85A10;}
	.st168{clip-path:url(#SVGID_4_);fill:#F85910;}
	.st169{clip-path:url(#SVGID_4_);fill:#F85810;}
	.st170{clip-path:url(#SVGID_4_);fill:#F85710;}
	.st171{clip-path:url(#SVGID_4_);fill:#F85610;}
	.st172{clip-path:url(#SVGID_4_);fill:#F85510;}
	.st173{clip-path:url(#SVGID_4_);fill:#F85410;}
	.st174{clip-path:url(#SVGID_4_);fill:#F85310;}
	.st175{clip-path:url(#SVGID_4_);fill:#F85210;}
	.st176{clip-path:url(#SVGID_4_);fill:#F85110;}
	.st177{clip-path:url(#SVGID_4_);fill:#F85010;}
	.st178{clip-path:url(#SVGID_4_);fill:#F84F0F;}
	.st179{clip-path:url(#SVGID_4_);fill:#F84E0F;}
	.st180{clip-path:url(#SVGID_4_);fill:#F84D0F;}
	.st181{clip-path:url(#SVGID_4_);fill:#F84C0F;}
	.st182{clip-path:url(#SVGID_4_);fill:#F84B0F;}
	.st183{clip-path:url(#SVGID_4_);fill:#F84A0F;}
	.st184{clip-path:url(#SVGID_4_);fill:#F8490F;}
	.st185{clip-path:url(#SVGID_4_);fill:#F8480F;}
	.st186{clip-path:url(#SVGID_4_);fill:#F8470F;}
	.st187{clip-path:url(#SVGID_4_);fill:#F8460F;}
	.st188{clip-path:url(#SVGID_4_);fill:#F8450F;}
	.st189{clip-path:url(#SVGID_4_);fill:#F8440F;}
	.st190{clip-path:url(#SVGID_4_);fill:#F8430F;}
	.st191{clip-path:url(#SVGID_4_);fill:#F8420F;}
	.st192{clip-path:url(#SVGID_4_);fill:#F8410F;}
	.st193{clip-path:url(#SVGID_4_);fill:#F8400F;}
	.st194{clip-path:url(#SVGID_4_);fill:#F83F0F;}
	.st195{clip-path:url(#SVGID_4_);fill:#F83E0E;}
	.st196{clip-path:url(#SVGID_4_);fill:#F83D0E;}
	.st197{clip-path:url(#SVGID_4_);fill:#F83C0E;}
	.st198{clip-path:url(#SVGID_4_);fill:#F83B0E;}
	.st199{clip-path:url(#SVGID_4_);fill:#F73A0E;}
	.st200{clip-path:url(#SVGID_4_);fill:#F7390E;}
	.st201{clip-path:url(#SVGID_4_);fill:#F7380E;}
	.st202{clip-path:url(#SVGID_4_);fill:#F7370E;}
	.st203{clip-path:url(#SVGID_4_);fill:#F7360E;}
	.st204{clip-path:url(#SVGID_4_);fill:#F7340E;}
	.st205{clip-path:url(#SVGID_4_);fill:#F7330E;}
	.st206{clip-path:url(#SVGID_4_);fill:#F7320E;}
	.st207{clip-path:url(#SVGID_4_);fill:#F7310E;}
	.st208{clip-path:url(#SVGID_4_);fill:#F7300E;}
	.st209{clip-path:url(#SVGID_4_);fill:#F72F0E;}
	.st210{clip-path:url(#SVGID_4_);fill:#F72E0E;}
	.st211{clip-path:url(#SVGID_4_);fill:#F72D0E;}
	.st212{clip-path:url(#SVGID_4_);fill:#F72C0E;}
	.st213{clip-path:url(#SVGID_4_);fill:#F72B0E;}
	.st214{clip-path:url(#SVGID_4_);fill:#F72B0D;}
	.st215{clip-path:url(#SVGID_4_);fill:#F72A0D;}
	.st216{clip-path:url(#SVGID_4_);fill:#F7290D;}
	.st217{clip-path:url(#SVGID_4_);fill:#F7280D;}
	.st218{clip-path:url(#SVGID_4_);fill:#F7270D;}
	.st219{clip-path:url(#SVGID_4_);fill:#F7260D;}
</style>
<g>
	<g>
		<path class="st0" d="M22.39,9.069l-0.088-0.021l-0.088-0.021l-0.088-0.021l-0.088-0.021l-0.034-0.083L21.971,8.82l-0.034-0.083
			l-0.034-0.083c-0.291-0.708-0.679-1.353-1.146-1.922c-0.467-0.57-1.013-1.064-1.618-1.469s-1.269-0.723-1.973-0.938
			c-0.704-0.216-1.449-0.33-2.214-0.33c-0.244,0-0.488,0.012-0.729,0.036s-0.482,0.059-0.72,0.106s-0.474,0.106-0.707,0.177
			s-0.465,0.153-0.693,0.246c-0.461,0.189-0.901,0.425-1.312,0.7s-0.795,0.591-1.144,0.94s-0.665,0.733-0.94,1.144
			s-0.511,0.851-0.7,1.312L7.974,8.737L7.939,8.82L7.905,8.903L7.871,8.987L7.784,9.007L7.696,9.028L7.608,9.049L7.521,9.069
			C6.903,9.215,6.333,9.46,5.824,9.786s-0.954,0.732-1.322,1.2s-0.659,0.996-0.857,1.567s-0.303,1.183-0.3,1.817
			c0,0.753,0.153,1.47,0.429,2.123c0.276,0.653,0.676,1.241,1.17,1.735s1.082,0.894,1.734,1.17c0.652,0.276,1.369,0.429,2.121,0.429
			h0.587h0.587h0.587h0.587c0.017,0,0.032-0.003,0.047-0.009c0.014-0.006,0.027-0.015,0.038-0.026s0.02-0.024,0.026-0.038
			c0.006-0.014,0.009-0.03,0.009-0.047c0-0.017-0.003-0.032-0.009-0.047s-0.015-0.027-0.026-0.038s-0.024-0.02-0.038-0.026
			s-0.03-0.009-0.047-0.009H10.56H9.973H9.387H8.8c-0.718-0.001-1.403-0.148-2.026-0.412c-0.623-0.265-1.185-0.647-1.657-1.119
			s-0.854-1.033-1.119-1.656c-0.265-0.623-0.411-1.307-0.412-2.025c-0.003-0.637,0.113-1.254,0.328-1.826s0.529-1.1,0.922-1.561
			s0.866-0.853,1.398-1.155s1.123-0.513,1.753-0.61L8.006,9.22l0.017-0.003L8.04,9.214l0.017-0.003l0.006-0.017l0.006-0.017
			l0.006-0.017l0.006-0.017C8.332,8.41,8.694,7.736,9.143,7.139s0.986-1.119,1.588-1.549s1.27-0.768,1.981-0.999
			s1.466-0.354,2.242-0.354s1.531,0.123,2.242,0.354s1.379,0.569,1.981,0.999s1.139,0.951,1.588,1.549s0.81,1.271,1.062,2.005
			l0.006,0.017l0.006,0.017l0.006,0.017l0.006,0.017l0.018,0.003l0.018,0.003l0.018,0.003l0.018,0.003
			c0.63,0.097,1.221,0.308,1.752,0.61c0.532,0.302,1.004,0.695,1.397,1.156s0.707,0.989,0.922,1.562
			c0.215,0.573,0.331,1.189,0.328,1.827c0,0.718-0.146,1.402-0.41,2.025c-0.264,0.623-0.646,1.184-1.118,1.656
			s-1.034,0.854-1.657,1.118c-0.623,0.264-1.309,0.41-2.027,0.41h-0.624h-0.624h-0.624h-0.624c-0.017,0-0.032,0.003-0.047,0.009
			s-0.027,0.015-0.038,0.026s-0.02,0.024-0.026,0.038s-0.009,0.03-0.009,0.047c0,0.017,0.003,0.032,0.009,0.047
			c0.006,0.014,0.015,0.027,0.026,0.038s0.024,0.02,0.038,0.026c0.014,0.006,0.03,0.009,0.047,0.009h0.624h0.624h0.624h0.624
			c0.752,0,1.469-0.153,2.121-0.429s1.24-0.676,1.734-1.17s0.894-1.082,1.17-1.734s0.429-1.369,0.429-2.121
			c0.003-0.635-0.102-1.248-0.299-1.819c-0.198-0.571-0.488-1.1-0.856-1.568s-0.814-0.874-1.322-1.2
			C23.578,9.46,23.007,9.215,22.39,9.069z"/>
	</g>
</g>
<g>
	<g>
		<path class="st0" d="M19.022,22.824c-0.007,0-0.013,0.001-0.02,0.002c-0.006,0.001-0.013,0.003-0.019,0.005
			s-0.012,0.005-0.018,0.008c-0.006,0.003-0.011,0.007-0.017,0.011l-0.682,0.559l-0.682,0.559l-0.682,0.559l-0.682,0.559
			l-0.286,0.234l-0.286,0.234l-0.286,0.234l-0.286,0.234V25.65v-0.369v-0.369v-0.369v-2.747v-2.747V16.3v-2.747
			c0-0.017-0.003-0.032-0.009-0.047s-0.015-0.027-0.026-0.038s-0.024-0.02-0.038-0.026s-0.03-0.009-0.047-0.009
			c-0.017,0-0.032,0.003-0.047,0.009s-0.027,0.015-0.038,0.026s-0.02,0.024-0.026,0.038s-0.009,0.03-0.009,0.047V16.3v2.747v2.747
			v2.747v0.37v0.37v0.37v0.37l-0.286-0.234l-0.286-0.234l-0.286-0.234l-0.286-0.234l-0.684-0.56l-0.684-0.56l-0.684-0.56
			l-0.684-0.56c-0.006-0.005-0.011-0.009-0.017-0.012c-0.006-0.003-0.012-0.006-0.018-0.009s-0.013-0.004-0.02-0.005
			c-0.007-0.001-0.014-0.002-0.021-0.002c-0.005,0-0.012,0-0.019,0.001c-0.007,0.001-0.015,0.003-0.024,0.006
			s-0.017,0.007-0.026,0.013c-0.009,0.006-0.017,0.013-0.025,0.023c-0.007,0.008-0.012,0.016-0.016,0.024s-0.007,0.016-0.008,0.024
			s-0.003,0.015-0.003,0.022s0,0.013,0,0.019s0.002,0.012,0.003,0.019c0.002,0.007,0.004,0.014,0.007,0.021s0.008,0.014,0.013,0.021
			c0.005,0.007,0.012,0.014,0.02,0.021l1.02,0.835l1.02,0.835l1.02,0.835l1.02,0.835c0.007,0.006,0.014,0.01,0.021,0.014
			s0.014,0.006,0.02,0.008s0.013,0.003,0.019,0.004s0.011,0.001,0.016,0.001s0.01,0,0.016-0.001s0.012-0.002,0.019-0.004
			s0.013-0.005,0.02-0.008s0.014-0.008,0.021-0.014l1.013-0.83l1.013-0.83l1.013-0.83l1.013-0.83
			c0.016-0.013,0.029-0.027,0.038-0.042c0.009-0.015,0.015-0.031,0.018-0.047s0.002-0.032-0.002-0.047
			c-0.004-0.015-0.011-0.03-0.021-0.043c-0.008-0.01-0.016-0.018-0.025-0.024c-0.009-0.006-0.018-0.011-0.026-0.014
			s-0.017-0.005-0.024-0.006C19.035,22.824,19.028,22.824,19.022,22.824z"/>
	</g>
</g>
<g>
	<path class="st0" d="M29.814,29.908h-7.432H14.95H7.518H0.086v-7.432v-7.432V7.611V0.179h7.432h7.432h7.432h7.432v7.432v7.432
		v7.432V29.908z M0.336,29.658h7.307h7.307h7.307h7.307V22.35v-7.307V7.736V0.429h-7.307H14.95H7.643H0.336v7.307v7.307v7.307
		V29.658z"/>
</g>
</svg>
