<?xml version="1.0" encoding="utf-8"?>
<!-- Generator: Adobe Illustrator 19.1.0, SVG Export Plug-In . SVG Version: 6.00 Build 0)  -->
<svg version="1.1" id="Layer_1" xmlns="http://www.w3.org/2000/svg" xmlns:xlink="http://www.w3.org/1999/xlink" x="0px" y="0px"
	 viewBox="0 0 29.91 30.086" style="enable-background:new 0 0 29.91 30.086;" xml:space="preserve">
<style type="text/css">
	.st0{fill:#4D4D4D;}
	.st1{fill-rule:evenodd;clip-rule:evenodd;fill:#4C4C4C;}
	.st2{fill:#4C4C4C;}
	.st3{fill:#383330;}
	.st4{fill:#1F1A17;}
	.st5{fill:#4D4C4C;}
	.st6{fill:none;stroke:#000000;stroke-width:0.3;stroke-miterlimit:10;}
	.st7{fill:#E61413;}
	.st8{fill:#5F5357;}
	.st9{fill:#115C78;}
	.st10{fill-rule:evenodd;clip-rule:evenodd;fill:#4D4D4D;}
	.st11{fill-rule:evenodd;clip-rule:evenodd;}
	.st12{fill:#FFFFFF;}
	.st13{fill:none;}
	.st14{fill:#231F20;}
	.st15{clip-path:url(#SVGID_2_);}
	.st16{clip-path:url(#SVGID_4_);fill:#FCF118;}
	.st17{clip-path:url(#SVGID_4_);fill:#FCF018;}
	.st18{clip-path:url(#SVGID_4_);fill:#FCEF18;}
	.st19{clip-path:url(#SVGID_4_);fill:#FCEE18;}
	.st20{clip-path:url(#SVGID_4_);fill:#FCED18;}
	.st21{clip-path:url(#SVGID_4_);fill:#FCEC18;}
	.st22{clip-path:url(#SVGID_4_);fill:#FCEB18;}
	.st23{clip-path:url(#SVGID_4_);fill:#FCEA18;}
	.st24{clip-path:url(#SVGID_4_);fill:#FCE918;}
	.st25{clip-path:url(#SVGID_4_);fill:#FCE818;}
	.st26{clip-path:url(#SVGID_4_);fill:#FCE718;}
	.st27{clip-path:url(#SVGID_4_);fill:#FCE617;}
	.st28{clip-path:url(#SVGID_4_);fill:#FCE517;}
	.st29{clip-path:url(#SVGID_4_);fill:#FCE417;}
	.st30{clip-path:url(#SVGID_4_);fill:#FCE317;}
	.st31{clip-path:url(#SVGID_4_);fill:#FCE217;}
	.st32{clip-path:url(#SVGID_4_);fill:#FCE117;}
	.st33{clip-path:url(#SVGID_4_);fill:#FCE017;}
	.st34{clip-path:url(#SVGID_4_);fill:#FCDF17;}
	.st35{clip-path:url(#SVGID_4_);fill:#FCDE17;}
	.st36{clip-path:url(#SVGID_4_);fill:#FCDD17;}
	.st37{clip-path:url(#SVGID_4_);fill:#FCDC17;}
	.st38{clip-path:url(#SVGID_4_);fill:#FCDB17;}
	.st39{clip-path:url(#SVGID_4_);fill:#FCDA17;}
	.st40{clip-path:url(#SVGID_4_);fill:#FCD917;}
	.st41{clip-path:url(#SVGID_4_);fill:#FCD817;}
	.st42{clip-path:url(#SVGID_4_);fill:#FCD717;}
	.st43{clip-path:url(#SVGID_4_);fill:#FCD617;}
	.st44{clip-path:url(#SVGID_4_);fill:#FCD517;}
	.st45{clip-path:url(#SVGID_4_);fill:#FCD416;}
	.st46{clip-path:url(#SVGID_4_);fill:#FCD316;}
	.st47{clip-path:url(#SVGID_4_);fill:#FBD216;}
	.st48{clip-path:url(#SVGID_4_);fill:#FBD116;}
	.st49{clip-path:url(#SVGID_4_);fill:#FBD016;}
	.st50{clip-path:url(#SVGID_4_);fill:#FBCF16;}
	.st51{clip-path:url(#SVGID_4_);fill:#FBCE16;}
	.st52{clip-path:url(#SVGID_4_);fill:#FBCD16;}
	.st53{clip-path:url(#SVGID_4_);fill:#FBCC16;}
	.st54{clip-path:url(#SVGID_4_);fill:#FBCB16;}
	.st55{clip-path:url(#SVGID_4_);fill:#FBCA16;}
	.st56{clip-path:url(#SVGID_4_);fill:#FBC916;}
	.st57{clip-path:url(#SVGID_4_);fill:#FBC816;}
	.st58{clip-path:url(#SVGID_4_);fill:#FBC716;}
	.st59{clip-path:url(#SVGID_4_);fill:#FBC616;}
	.st60{clip-path:url(#SVGID_4_);fill:#FBC516;}
	.st61{clip-path:url(#SVGID_4_);fill:#FBC416;}
	.st62{clip-path:url(#SVGID_4_);fill:#FBC316;}
	.st63{clip-path:url(#SVGID_4_);fill:#FBC216;}
	.st64{clip-path:url(#SVGID_4_);fill:#FBC115;}
	.st65{clip-path:url(#SVGID_4_);fill:#FBC015;}
	.st66{clip-path:url(#SVGID_4_);fill:#FBBF15;}
	.st67{clip-path:url(#SVGID_4_);fill:#FBBE15;}
	.st68{clip-path:url(#SVGID_4_);fill:#FBBD15;}
	.st69{clip-path:url(#SVGID_4_);fill:#FBBC15;}
	.st70{clip-path:url(#SVGID_4_);fill:#FBBB15;}
	.st71{clip-path:url(#SVGID_4_);fill:#FBBA15;}
	.st72{clip-path:url(#SVGID_4_);fill:#FBB915;}
	.st73{clip-path:url(#SVGID_4_);fill:#FBB815;}
	.st74{clip-path:url(#SVGID_4_);fill:#FBB715;}
	.st75{clip-path:url(#SVGID_4_);fill:#FBB615;}
	.st76{clip-path:url(#SVGID_4_);fill:#FBB515;}
	.st77{clip-path:url(#SVGID_4_);fill:#FBB415;}
	.st78{clip-path:url(#SVGID_4_);fill:#FBB315;}
	.st79{clip-path:url(#SVGID_4_);fill:#FBB215;}
	.st80{clip-path:url(#SVGID_4_);fill:#FBB115;}
	.st81{clip-path:url(#SVGID_4_);fill:#FBB015;}
	.st82{clip-path:url(#SVGID_4_);fill:#FBAF15;}
	.st83{clip-path:url(#SVGID_4_);fill:#FAAE15;}
	.st84{clip-path:url(#SVGID_4_);fill:#FAAD14;}
	.st85{clip-path:url(#SVGID_4_);fill:#FAAC14;}
	.st86{clip-path:url(#SVGID_4_);fill:#FAAB14;}
	.st87{clip-path:url(#SVGID_4_);fill:#FAAA14;}
	.st88{clip-path:url(#SVGID_4_);fill:#FAA914;}
	.st89{clip-path:url(#SVGID_4_);fill:#FAA814;}
	.st90{clip-path:url(#SVGID_4_);fill:#FAA714;}
	.st91{clip-path:url(#SVGID_4_);fill:#FAA614;}
	.st92{clip-path:url(#SVGID_4_);fill:#FAA514;}
	.st93{clip-path:url(#SVGID_4_);fill:#FAA414;}
	.st94{clip-path:url(#SVGID_4_);fill:#FAA314;}
	.st95{clip-path:url(#SVGID_4_);fill:#FAA214;}
	.st96{clip-path:url(#SVGID_4_);fill:#FAA114;}
	.st97{clip-path:url(#SVGID_4_);fill:#FAA014;}
	.st98{clip-path:url(#SVGID_4_);fill:#FA9F14;}
	.st99{clip-path:url(#SVGID_4_);fill:#FA9E14;}
	.st100{clip-path:url(#SVGID_4_);fill:#FA9D14;}
	.st101{clip-path:url(#SVGID_4_);fill:#FA9C14;}
	.st102{clip-path:url(#SVGID_4_);fill:#FA9B14;}
	.st103{clip-path:url(#SVGID_4_);fill:#FA9A13;}
	.st104{clip-path:url(#SVGID_4_);fill:#FA9913;}
	.st105{clip-path:url(#SVGID_4_);fill:#FA9813;}
	.st106{clip-path:url(#SVGID_4_);fill:#FA9713;}
	.st107{clip-path:url(#SVGID_4_);fill:#FA9613;}
	.st108{clip-path:url(#SVGID_4_);fill:#FA9513;}
	.st109{clip-path:url(#SVGID_4_);fill:#FA9413;}
	.st110{clip-path:url(#SVGID_4_);fill:#FA9313;}
	.st111{clip-path:url(#SVGID_4_);fill:#FA9213;}
	.st112{clip-path:url(#SVGID_4_);fill:#FA9113;}
	.st113{clip-path:url(#SVGID_4_);fill:#FA9013;}
	.st114{clip-path:url(#SVGID_4_);fill:#FA8F13;}
	.st115{clip-path:url(#SVGID_4_);fill:#FA8E13;}
	.st116{clip-path:url(#SVGID_4_);fill:#FA8D13;}
	.st117{clip-path:url(#SVGID_4_);fill:#FA8C13;}
	.st118{clip-path:url(#SVGID_4_);fill:#FA8B13;}
	.st119{clip-path:url(#SVGID_4_);fill:#FA8A13;}
	.st120{clip-path:url(#SVGID_4_);fill:#FA8913;}
	.st121{clip-path:url(#SVGID_4_);fill:#FA8812;}
	.st122{clip-path:url(#SVGID_4_);fill:#FA8712;}
	.st123{clip-path:url(#SVGID_4_);fill:#FA8612;}
	.st124{clip-path:url(#SVGID_4_);fill:#F98512;}
	.st125{clip-path:url(#SVGID_4_);fill:#F98412;}
	.st126{clip-path:url(#SVGID_4_);fill:#F98312;}
	.st127{clip-path:url(#SVGID_4_);fill:#F98212;}
	.st128{clip-path:url(#SVGID_4_);fill:#F98112;}
	.st129{clip-path:url(#SVGID_4_);fill:#F98012;}
	.st130{clip-path:url(#SVGID_4_);fill:#F97F12;}
	.st131{clip-path:url(#SVGID_4_);fill:#F97E12;}
	.st132{clip-path:url(#SVGID_4_);fill:#F97D12;}
	.st133{clip-path:url(#SVGID_4_);fill:#F97C12;}
	.st134{clip-path:url(#SVGID_4_);fill:#F97B12;}
	.st135{clip-path:url(#SVGID_4_);fill:#F97A12;}
	.st136{clip-path:url(#SVGID_4_);fill:#F97912;}
	.st137{clip-path:url(#SVGID_4_);fill:#F97812;}
	.st138{clip-path:url(#SVGID_4_);fill:#F97712;}
	.st139{clip-path:url(#SVGID_4_);fill:#F97612;}
	.st140{clip-path:url(#SVGID_4_);fill:#F97511;}
	.st141{clip-path:url(#SVGID_4_);fill:#F97411;}
	.st142{clip-path:url(#SVGID_4_);fill:#F97311;}
	.st143{clip-path:url(#SVGID_4_);fill:#F97211;}
	.st144{clip-path:url(#SVGID_4_);fill:#F97111;}
	.st145{clip-path:url(#SVGID_4_);fill:#F97011;}
	.st146{clip-path:url(#SVGID_4_);fill:#F96F11;}
	.st147{clip-path:url(#SVGID_4_);fill:#F96E11;}
	.st148{clip-path:url(#SVGID_4_);fill:#F96D11;}
	.st149{clip-path:url(#SVGID_4_);fill:#F96C11;}
	.st150{clip-path:url(#SVGID_4_);fill:#F96B11;}
	.st151{clip-path:url(#SVGID_4_);fill:#F96A11;}
	.st152{clip-path:url(#SVGID_4_);fill:#F96911;}
	.st153{clip-path:url(#SVGID_4_);fill:#F96811;}
	.st154{clip-path:url(#SVGID_4_);fill:#F96711;}
	.st155{clip-path:url(#SVGID_4_);fill:#F96611;}
	.st156{clip-path:url(#SVGID_4_);fill:#F96511;}
	.st157{clip-path:url(#SVGID_4_);fill:#F96411;}
	.st158{clip-path:url(#SVGID_4_);fill:#F96311;}
	.st159{clip-path:url(#SVGID_4_);fill:#F96210;}
	.st160{clip-path:url(#SVGID_4_);fill:#F86110;}
	.st161{clip-path:url(#SVGID_4_);fill:#F86010;}
	.st162{clip-path:url(#SVGID_4_);fill:#F85F10;}
	.st163{clip-path:url(#SVGID_4_);fill:#F85E10;}
	.st164{clip-path:url(#SVGID_4_);fill:#F85D10;}
	.st165{clip-path:url(#SVGID_4_);fill:#F85C10;}
	.st166{clip-path:url(#SVGID_4_);fill:#F85B10;}
	.st167{clip-path:url(#SVGID_4_);fill:#F85A10;}
	.st168{clip-path:url(#SVGID_4_);fill:#F85910;}
	.st169{clip-path:url(#SVGID_4_);fill:#F85810;}
	.st170{clip-path:url(#SVGID_4_);fill:#F85710;}
	.st171{clip-path:url(#SVGID_4_);fill:#F85610;}
	.st172{clip-path:url(#SVGID_4_);fill:#F85510;}
	.st173{clip-path:url(#SVGID_4_);fill:#F85410;}
	.st174{clip-path:url(#SVGID_4_);fill:#F85310;}
	.st175{clip-path:url(#SVGID_4_);fill:#F85210;}
	.st176{clip-path:url(#SVGID_4_);fill:#F85110;}
	.st177{clip-path:url(#SVGID_4_);fill:#F85010;}
	.st178{clip-path:url(#SVGID_4_);fill:#F84F0F;}
	.st179{clip-path:url(#SVGID_4_);fill:#F84E0F;}
	.st180{clip-path:url(#SVGID_4_);fill:#F84D0F;}
	.st181{clip-path:url(#SVGID_4_);fill:#F84C0F;}
	.st182{clip-path:url(#SVGID_4_);fill:#F84B0F;}
	.st183{clip-path:url(#SVGID_4_);fill:#F84A0F;}
	.st184{clip-path:url(#SVGID_4_);fill:#F8490F;}
	.st185{clip-path:url(#SVGID_4_);fill:#F8480F;}
	.st186{clip-path:url(#SVGID_4_);fill:#F8470F;}
	.st187{clip-path:url(#SVGID_4_);fill:#F8460F;}
	.st188{clip-path:url(#SVGID_4_);fill:#F8450F;}
	.st189{clip-path:url(#SVGID_4_);fill:#F8440F;}
	.st190{clip-path:url(#SVGID_4_);fill:#F8430F;}
	.st191{clip-path:url(#SVGID_4_);fill:#F8420F;}
	.st192{clip-path:url(#SVGID_4_);fill:#F8410F;}
	.st193{clip-path:url(#SVGID_4_);fill:#F8400F;}
	.st194{clip-path:url(#SVGID_4_);fill:#F83F0F;}
	.st195{clip-path:url(#SVGID_4_);fill:#F83E0E;}
	.st196{clip-path:url(#SVGID_4_);fill:#F83D0E;}
	.st197{clip-path:url(#SVGID_4_);fill:#F83C0E;}
	.st198{clip-path:url(#SVGID_4_);fill:#F83B0E;}
	.st199{clip-path:url(#SVGID_4_);fill:#F73A0E;}
	.st200{clip-path:url(#SVGID_4_);fill:#F7390E;}
	.st201{clip-path:url(#SVGID_4_);fill:#F7380E;}
	.st202{clip-path:url(#SVGID_4_);fill:#F7370E;}
	.st203{clip-path:url(#SVGID_4_);fill:#F7360E;}
	.st204{clip-path:url(#SVGID_4_);fill:#F7340E;}
	.st205{clip-path:url(#SVGID_4_);fill:#F7330E;}
	.st206{clip-path:url(#SVGID_4_);fill:#F7320E;}
	.st207{clip-path:url(#SVGID_4_);fill:#F7310E;}
	.st208{clip-path:url(#SVGID_4_);fill:#F7300E;}
	.st209{clip-path:url(#SVGID_4_);fill:#F72F0E;}
	.st210{clip-path:url(#SVGID_4_);fill:#F72E0E;}
	.st211{clip-path:url(#SVGID_4_);fill:#F72D0E;}
	.st212{clip-path:url(#SVGID_4_);fill:#F72C0E;}
	.st213{clip-path:url(#SVGID_4_);fill:#F72B0E;}
	.st214{clip-path:url(#SVGID_4_);fill:#F72B0D;}
	.st215{clip-path:url(#SVGID_4_);fill:#F72A0D;}
	.st216{clip-path:url(#SVGID_4_);fill:#F7290D;}
	.st217{clip-path:url(#SVGID_4_);fill:#F7280D;}
	.st218{clip-path:url(#SVGID_4_);fill:#F7270D;}
	.st219{clip-path:url(#SVGID_4_);fill:#F7260D;}
</style>
<g>
	<defs>
		<path id="SVGID_1_" d="M2.132,26.044c0.41-0.881,0.941-1.695,1.571-2.42c0.63-0.725,1.359-1.361,2.167-1.886
			s1.694-0.941,2.637-1.225c0.943-0.284,1.943-0.437,2.98-0.437c1.039,0,2.041,0.154,2.986,0.439s1.832,0.703,2.64,1.232
			c0.808,0.528,1.538,1.167,2.168,1.895c0.63,0.728,1.16,1.545,1.568,2.43h2.047h2.047h2.047h2.047
			c-0.432-1.538-1.11-2.974-1.987-4.262c-0.877-1.288-1.955-2.429-3.188-3.378s-2.622-1.705-4.121-2.224
			c-1.499-0.519-3.109-0.801-4.786-0.801c-1.674,0-3.283,0.281-4.781,0.799c-1.498,0.518-2.886,1.272-4.119,2.218
			c-1.233,0.946-2.311,2.084-3.189,3.37c-0.878,1.285-1.557,2.718-1.991,4.253"/>
	</defs>
	<clipPath id="SVGID_2_">
		<use xlink:href="#SVGID_1_"  style="overflow:visible;"/>
	</clipPath>
	<g class="st15">
		<g>
			<defs>
				<polygon id="SVGID_3_" points="29.036,30.038 21.858,30.038 14.679,30.038 7.501,30.038 0.322,30.038 0.322,26.38 0.322,22.722 
					0.322,19.064 0.322,15.406 7.501,15.406 14.679,15.406 21.858,15.406 29.036,15.406 29.036,19.064 29.036,22.722 29.036,26.38 
									"/>
			</defs>
			<clipPath id="SVGID_4_">
				<use xlink:href="#SVGID_3_"  style="overflow:visible;"/>
			</clipPath>
			<polygon class="st16" points="29.036,30.038 29.036,26.38 29.036,22.722 29.036,19.064 29.036,15.406 29.036,15.406 
				29.036,15.406 29.036,15.406 29.036,15.406 29.036,19.064 29.036,22.722 29.036,26.38 29.036,30.038 29.036,30.038 
				29.036,30.038 29.036,30.038 			"/>
			<polygon class="st16" points="26.165,30.038 26.165,26.38 26.165,22.722 26.165,19.064 26.165,15.406 26.883,15.406 
				27.601,15.406 28.318,15.406 29.036,15.406 29.036,19.064 29.036,22.722 29.036,26.38 29.036,30.038 28.318,30.038 
				27.601,30.038 26.883,30.038 			"/>
			<polygon class="st16" points="26.039,30.038 26.039,26.38 26.039,22.722 26.039,19.064 26.039,15.406 26.071,15.406 
				26.102,15.406 26.134,15.406 26.165,15.406 26.165,19.064 26.165,22.722 26.165,26.38 26.165,30.038 26.134,30.038 
				26.102,30.038 26.071,30.038 			"/>
			<polygon class="st17" points="25.914,30.038 25.914,26.38 25.914,22.722 25.914,19.064 25.914,15.406 25.945,15.406 
				25.977,15.406 26.008,15.406 26.039,15.406 26.039,19.064 26.039,22.722 26.039,26.38 26.039,30.038 26.008,30.038 
				25.977,30.038 25.945,30.038 			"/>
			<polygon class="st18" points="25.789,30.038 25.789,26.38 25.789,22.722 25.789,19.064 25.789,15.406 25.82,15.406 
				25.851,15.406 25.883,15.406 25.914,15.406 25.914,19.064 25.914,22.722 25.914,26.38 25.914,30.038 25.883,30.038 
				25.851,30.038 25.82,30.038 			"/>
			<polygon class="st19" points="25.663,30.038 25.663,26.38 25.663,22.722 25.663,19.064 25.663,15.406 25.694,15.406 
				25.726,15.406 25.757,15.406 25.789,15.406 25.789,19.064 25.789,22.722 25.789,26.38 25.789,30.038 25.757,30.038 
				25.726,30.038 25.694,30.038 			"/>
			<polygon class="st20" points="25.538,30.038 25.538,26.38 25.538,22.722 25.538,19.064 25.538,15.406 25.569,15.406 25.6,15.406 
				25.632,15.406 25.663,15.406 25.663,19.064 25.663,22.722 25.663,26.38 25.663,30.038 25.632,30.038 25.6,30.038 25.569,30.038 
							"/>
			<polygon class="st21" points="25.412,30.038 25.412,26.38 25.412,22.722 25.412,19.064 25.412,15.406 25.444,15.406 
				25.475,15.406 25.506,15.406 25.538,15.406 25.538,19.064 25.538,22.722 25.538,26.38 25.538,30.038 25.506,30.038 
				25.475,30.038 25.444,30.038 			"/>
			<polygon class="st22" points="25.287,30.038 25.287,26.38 25.287,22.722 25.287,19.064 25.287,15.406 25.318,15.406 
				25.35,15.406 25.381,15.406 25.412,15.406 25.412,19.064 25.412,22.722 25.412,26.38 25.412,30.038 25.381,30.038 25.35,30.038 
				25.318,30.038 			"/>
			<polygon class="st23" points="25.161,30.038 25.161,26.38 25.161,22.722 25.161,19.064 25.161,15.406 25.193,15.406 
				25.224,15.406 25.255,15.406 25.287,15.406 25.287,19.064 25.287,22.722 25.287,26.38 25.287,30.038 25.255,30.038 
				25.224,30.038 25.193,30.038 			"/>
			<polygon class="st24" points="25.036,30.038 25.036,26.38 25.036,22.722 25.036,19.064 25.036,15.406 25.067,15.406 
				25.099,15.406 25.13,15.406 25.161,15.406 25.161,19.064 25.161,22.722 25.161,26.38 25.161,30.038 25.13,30.038 25.099,30.038 
				25.067,30.038 			"/>
			<polygon class="st25" points="24.91,30.038 24.91,26.38 24.91,22.722 24.91,19.064 24.91,15.406 24.942,15.406 24.973,15.406 
				25.005,15.406 25.036,15.406 25.036,19.064 25.036,22.722 25.036,26.38 25.036,30.038 25.005,30.038 24.973,30.038 
				24.942,30.038 			"/>
			<polygon class="st26" points="24.785,30.038 24.785,26.38 24.785,22.722 24.785,19.064 24.785,15.406 24.816,15.406 
				24.848,15.406 24.879,15.406 24.91,15.406 24.91,19.064 24.91,22.722 24.91,26.38 24.91,30.038 24.879,30.038 24.848,30.038 
				24.816,30.038 			"/>
			<polygon class="st27" points="24.66,30.038 24.66,26.38 24.66,22.722 24.66,19.064 24.66,15.406 24.691,15.406 24.722,15.406 
				24.754,15.406 24.785,15.406 24.785,19.064 24.785,22.722 24.785,26.38 24.785,30.038 24.754,30.038 24.722,30.038 
				24.691,30.038 			"/>
			<polygon class="st28" points="24.534,30.038 24.534,26.38 24.534,22.722 24.534,19.064 24.534,15.406 24.565,15.406 
				24.597,15.406 24.628,15.406 24.66,15.406 24.66,19.064 24.66,22.722 24.66,26.38 24.66,30.038 24.628,30.038 24.597,30.038 
				24.565,30.038 			"/>
			<polygon class="st29" points="24.409,30.038 24.409,26.38 24.409,22.722 24.409,19.064 24.409,15.406 24.44,15.406 
				24.471,15.406 24.503,15.406 24.534,15.406 24.534,19.064 24.534,22.722 24.534,26.38 24.534,30.038 24.503,30.038 
				24.471,30.038 24.44,30.038 			"/>
			<polygon class="st30" points="24.283,30.038 24.283,26.38 24.283,22.722 24.283,19.064 24.283,15.406 24.315,15.406 
				24.346,15.406 24.377,15.406 24.409,15.406 24.409,19.064 24.409,22.722 24.409,26.38 24.409,30.038 24.377,30.038 
				24.346,30.038 24.315,30.038 			"/>
			<polygon class="st31" points="24.158,30.038 24.158,26.38 24.158,22.722 24.158,19.064 24.158,15.406 24.189,15.406 
				24.22,15.406 24.252,15.406 24.283,15.406 24.283,19.064 24.283,22.722 24.283,26.38 24.283,30.038 24.252,30.038 24.22,30.038 
				24.189,30.038 			"/>
			<polygon class="st32" points="24.032,30.038 24.032,26.38 24.032,22.722 24.032,19.064 24.032,15.406 24.064,15.406 
				24.095,15.406 24.126,15.406 24.158,15.406 24.158,19.064 24.158,22.722 24.158,26.38 24.158,30.038 24.126,30.038 
				24.095,30.038 24.064,30.038 			"/>
			<polygon class="st33" points="23.907,30.038 23.907,26.38 23.907,22.722 23.907,19.064 23.907,15.406 23.938,15.406 
				23.97,15.406 24.001,15.406 24.032,15.406 24.032,19.064 24.032,22.722 24.032,26.38 24.032,30.038 24.001,30.038 23.97,30.038 
				23.938,30.038 			"/>
			<polygon class="st34" points="23.781,30.038 23.781,26.38 23.781,22.722 23.781,19.064 23.781,15.406 23.813,15.406 
				23.844,15.406 23.875,15.406 23.907,15.406 23.907,19.064 23.907,22.722 23.907,26.38 23.907,30.038 23.875,30.038 
				23.844,30.038 23.813,30.038 			"/>
			<polygon class="st35" points="23.656,30.038 23.656,26.38 23.656,22.722 23.656,19.064 23.656,15.406 23.687,15.406 
				23.719,15.406 23.75,15.406 23.781,15.406 23.781,19.064 23.781,22.722 23.781,26.38 23.781,30.038 23.75,30.038 23.719,30.038 
				23.687,30.038 			"/>
			<polygon class="st36" points="23.53,30.038 23.53,26.38 23.53,22.722 23.53,19.064 23.53,15.406 23.562,15.406 23.593,15.406 
				23.625,15.406 23.656,15.406 23.656,19.064 23.656,22.722 23.656,26.38 23.656,30.038 23.625,30.038 23.593,30.038 
				23.562,30.038 			"/>
			<polygon class="st37" points="23.405,30.038 23.405,26.38 23.405,22.722 23.405,19.064 23.405,15.406 23.436,15.406 
				23.468,15.406 23.499,15.406 23.53,15.406 23.53,19.064 23.53,22.722 23.53,26.38 23.53,30.038 23.499,30.038 23.468,30.038 
				23.436,30.038 			"/>
			<polygon class="st38" points="23.28,30.038 23.28,26.38 23.28,22.722 23.28,19.064 23.28,15.406 23.311,15.406 23.342,15.406 
				23.374,15.406 23.405,15.406 23.405,19.064 23.405,22.722 23.405,26.38 23.405,30.038 23.374,30.038 23.342,30.038 
				23.311,30.038 			"/>
			<polygon class="st39" points="23.154,30.038 23.154,26.38 23.154,22.722 23.154,19.064 23.154,15.406 23.186,15.406 
				23.217,15.406 23.248,15.406 23.28,15.406 23.28,19.064 23.28,22.722 23.28,26.38 23.28,30.038 23.248,30.038 23.217,30.038 
				23.186,30.038 			"/>
			<polygon class="st40" points="23.029,30.038 23.029,26.38 23.029,22.722 23.029,19.064 23.029,15.406 23.06,15.406 
				23.091,15.406 23.123,15.406 23.154,15.406 23.154,19.064 23.154,22.722 23.154,26.38 23.154,30.038 23.123,30.038 
				23.091,30.038 23.06,30.038 			"/>
			<polygon class="st41" points="22.903,30.038 22.903,26.38 22.903,22.722 22.903,19.064 22.903,15.406 22.935,15.406 
				22.966,15.406 22.997,15.406 23.029,15.406 23.029,19.064 23.029,22.722 23.029,26.38 23.029,30.038 22.997,30.038 
				22.966,30.038 22.935,30.038 			"/>
			<polygon class="st42" points="22.778,30.038 22.778,26.38 22.778,22.722 22.778,19.064 22.778,15.406 22.809,15.406 
				22.841,15.406 22.872,15.406 22.903,15.406 22.903,19.064 22.903,22.722 22.903,26.38 22.903,30.038 22.872,30.038 
				22.841,30.038 22.809,30.038 			"/>
			<polygon class="st43" points="22.652,30.038 22.652,26.38 22.652,22.722 22.652,19.064 22.652,15.406 22.684,15.406 
				22.715,15.406 22.746,15.406 22.778,15.406 22.778,19.064 22.778,22.722 22.778,26.38 22.778,30.038 22.746,30.038 
				22.715,30.038 22.684,30.038 			"/>
			<polygon class="st44" points="22.527,30.038 22.527,26.38 22.527,22.722 22.527,19.064 22.527,15.406 22.558,15.406 
				22.59,15.406 22.621,15.406 22.652,15.406 22.652,19.064 22.652,22.722 22.652,26.38 22.652,30.038 22.621,30.038 22.59,30.038 
				22.558,30.038 			"/>
			<polygon class="st45" points="22.401,30.038 22.401,26.38 22.401,22.722 22.401,19.064 22.401,15.406 22.433,15.406 
				22.464,15.406 22.496,15.406 22.527,15.406 22.527,19.064 22.527,22.722 22.527,26.38 22.527,30.038 22.496,30.038 
				22.464,30.038 22.433,30.038 			"/>
			<polygon class="st46" points="22.276,30.038 22.276,26.38 22.276,22.722 22.276,19.064 22.276,15.406 22.307,15.406 
				22.339,15.406 22.37,15.406 22.401,15.406 22.401,19.064 22.401,22.722 22.401,26.38 22.401,30.038 22.37,30.038 22.339,30.038 
				22.307,30.038 			"/>
			<polygon class="st47" points="22.151,30.038 22.151,26.38 22.151,22.722 22.151,19.064 22.151,15.406 22.182,15.406 
				22.213,15.406 22.245,15.406 22.276,15.406 22.276,19.064 22.276,22.722 22.276,26.38 22.276,30.038 22.245,30.038 
				22.213,30.038 22.182,30.038 			"/>
			<polygon class="st48" points="22.025,30.038 22.025,26.38 22.025,22.722 22.025,19.064 22.025,15.406 22.056,15.406 
				22.088,15.406 22.119,15.406 22.151,15.406 22.151,19.064 22.151,22.722 22.151,26.38 22.151,30.038 22.119,30.038 
				22.088,30.038 22.056,30.038 			"/>
			<polygon class="st49" points="21.9,30.038 21.9,26.38 21.9,22.722 21.9,19.064 21.9,15.406 21.931,15.406 21.962,15.406 
				21.994,15.406 22.025,15.406 22.025,19.064 22.025,22.722 22.025,26.38 22.025,30.038 21.994,30.038 21.962,30.038 
				21.931,30.038 			"/>
			<polygon class="st50" points="21.774,30.038 21.774,26.38 21.774,22.722 21.774,19.064 21.774,15.406 21.806,15.406 
				21.837,15.406 21.868,15.406 21.9,15.406 21.9,19.064 21.9,22.722 21.9,26.38 21.9,30.038 21.868,30.038 21.837,30.038 
				21.806,30.038 			"/>
			<polygon class="st51" points="21.649,30.038 21.649,26.38 21.649,22.722 21.649,19.064 21.649,15.406 21.68,15.406 
				21.711,15.406 21.743,15.406 21.774,15.406 21.774,19.064 21.774,22.722 21.774,26.38 21.774,30.038 21.743,30.038 
				21.711,30.038 21.68,30.038 			"/>
			<polygon class="st52" points="21.523,30.038 21.523,26.38 21.523,22.722 21.523,19.064 21.523,15.406 21.555,15.406 
				21.586,15.406 21.617,15.406 21.649,15.406 21.649,19.064 21.649,22.722 21.649,26.38 21.649,30.038 21.617,30.038 
				21.586,30.038 21.555,30.038 			"/>
			<polygon class="st53" points="21.398,30.038 21.398,26.38 21.398,22.722 21.398,19.064 21.398,15.406 21.429,15.406 
				21.461,15.406 21.492,15.406 21.523,15.406 21.523,19.064 21.523,22.722 21.523,26.38 21.523,30.038 21.492,30.038 
				21.461,30.038 21.429,30.038 			"/>
			<polygon class="st54" points="21.272,30.038 21.272,26.38 21.272,22.722 21.272,19.064 21.272,15.406 21.304,15.406 
				21.335,15.406 21.366,15.406 21.398,15.406 21.398,19.064 21.398,22.722 21.398,26.38 21.398,30.038 21.366,30.038 
				21.335,30.038 21.304,30.038 			"/>
			<polygon class="st55" points="21.147,30.038 21.147,26.38 21.147,22.722 21.147,19.064 21.147,15.406 21.178,15.406 
				21.21,15.406 21.241,15.406 21.272,15.406 21.272,19.064 21.272,22.722 21.272,26.38 21.272,30.038 21.241,30.038 21.21,30.038 
				21.178,30.038 			"/>
			<polygon class="st56" points="21.021,30.038 21.021,26.38 21.021,22.722 21.021,19.064 21.021,15.406 21.053,15.406 
				21.084,15.406 21.116,15.406 21.147,15.406 21.147,19.064 21.147,22.722 21.147,26.38 21.147,30.038 21.116,30.038 
				21.084,30.038 21.053,30.038 			"/>
			<polygon class="st57" points="20.896,30.038 20.896,26.38 20.896,22.722 20.896,19.064 20.896,15.406 20.927,15.406 
				20.959,15.406 20.99,15.406 21.021,15.406 21.021,19.064 21.021,22.722 21.021,26.38 21.021,30.038 20.99,30.038 20.959,30.038 
				20.927,30.038 			"/>
			<polygon class="st58" points="20.771,30.038 20.771,26.38 20.771,22.722 20.771,19.064 20.771,15.406 20.802,15.406 
				20.833,15.406 20.865,15.406 20.896,15.406 20.896,19.064 20.896,22.722 20.896,26.38 20.896,30.038 20.865,30.038 
				20.833,30.038 20.802,30.038 			"/>
			<polygon class="st59" points="20.645,30.038 20.645,26.38 20.645,22.722 20.645,19.064 20.645,15.406 20.677,15.406 
				20.708,15.406 20.739,15.406 20.771,15.406 20.771,19.064 20.771,22.722 20.771,26.38 20.771,30.038 20.739,30.038 
				20.708,30.038 20.677,30.038 			"/>
			<polygon class="st60" points="20.52,30.038 20.52,26.38 20.52,22.722 20.52,19.064 20.52,15.406 20.551,15.406 20.582,15.406 
				20.614,15.406 20.645,15.406 20.645,19.064 20.645,22.722 20.645,26.38 20.645,30.038 20.614,30.038 20.582,30.038 
				20.551,30.038 			"/>
			<polygon class="st61" points="20.394,30.038 20.394,26.38 20.394,22.722 20.394,19.064 20.394,15.406 20.426,15.406 
				20.457,15.406 20.488,15.406 20.52,15.406 20.52,19.064 20.52,22.722 20.52,26.38 20.52,30.038 20.488,30.038 20.457,30.038 
				20.426,30.038 			"/>
			<polygon class="st62" points="20.269,30.038 20.269,26.38 20.269,22.722 20.269,19.064 20.269,15.406 20.3,15.406 20.332,15.406 
				20.363,15.406 20.394,15.406 20.394,19.064 20.394,22.722 20.394,26.38 20.394,30.038 20.363,30.038 20.332,30.038 20.3,30.038 
							"/>
			<polygon class="st63" points="20.143,30.038 20.143,26.38 20.143,22.722 20.143,19.064 20.143,15.406 20.175,15.406 
				20.206,15.406 20.237,15.406 20.269,15.406 20.269,19.064 20.269,22.722 20.269,26.38 20.269,30.038 20.237,30.038 
				20.206,30.038 20.175,30.038 			"/>
			<polygon class="st64" points="20.018,30.038 20.018,26.38 20.018,22.722 20.018,19.064 20.018,15.406 20.049,15.406 
				20.081,15.406 20.112,15.406 20.143,15.406 20.143,19.064 20.143,22.722 20.143,26.38 20.143,30.038 20.112,30.038 
				20.081,30.038 20.049,30.038 			"/>
			<polygon class="st65" points="19.892,30.038 19.892,26.38 19.892,22.722 19.892,19.064 19.892,15.406 19.924,15.406 
				19.955,15.406 19.987,15.406 20.018,15.406 20.018,19.064 20.018,22.722 20.018,26.38 20.018,30.038 19.987,30.038 
				19.955,30.038 19.924,30.038 			"/>
			<polygon class="st66" points="19.767,30.038 19.767,26.38 19.767,22.722 19.767,19.064 19.767,15.406 19.798,15.406 
				19.83,15.406 19.861,15.406 19.892,15.406 19.892,19.064 19.892,22.722 19.892,26.38 19.892,30.038 19.861,30.038 19.83,30.038 
				19.798,30.038 			"/>
			<polygon class="st67" points="19.642,30.038 19.642,26.38 19.642,22.722 19.642,19.064 19.642,15.406 19.673,15.406 
				19.704,15.406 19.736,15.406 19.767,15.406 19.767,19.064 19.767,22.722 19.767,26.38 19.767,30.038 19.736,30.038 
				19.704,30.038 19.673,30.038 			"/>
			<polygon class="st68" points="19.516,30.038 19.516,26.38 19.516,22.722 19.516,19.064 19.516,15.406 19.547,15.406 
				19.579,15.406 19.61,15.406 19.642,15.406 19.642,19.064 19.642,22.722 19.642,26.38 19.642,30.038 19.61,30.038 19.579,30.038 
				19.547,30.038 			"/>
			<polygon class="st69" points="19.391,30.038 19.391,26.38 19.391,22.722 19.391,19.064 19.391,15.406 19.422,15.406 
				19.453,15.406 19.485,15.406 19.516,15.406 19.516,19.064 19.516,22.722 19.516,26.38 19.516,30.038 19.485,30.038 
				19.453,30.038 19.422,30.038 			"/>
			<polygon class="st70" points="19.265,30.038 19.265,26.38 19.265,22.722 19.265,19.064 19.265,15.406 19.297,15.406 
				19.328,15.406 19.359,15.406 19.391,15.406 19.391,19.064 19.391,22.722 19.391,26.38 19.391,30.038 19.359,30.038 
				19.328,30.038 19.297,30.038 			"/>
			<polygon class="st71" points="19.14,30.038 19.14,26.38 19.14,22.722 19.14,19.064 19.14,15.406 19.171,15.406 19.202,15.406 
				19.234,15.406 19.265,15.406 19.265,19.064 19.265,22.722 19.265,26.38 19.265,30.038 19.234,30.038 19.202,30.038 
				19.171,30.038 			"/>
			<polygon class="st72" points="19.014,30.038 19.014,26.38 19.014,22.722 19.014,19.064 19.014,15.406 19.046,15.406 
				19.077,15.406 19.108,15.406 19.14,15.406 19.14,19.064 19.14,22.722 19.14,26.38 19.14,30.038 19.108,30.038 19.077,30.038 
				19.046,30.038 			"/>
			<polygon class="st73" points="18.889,30.038 18.889,26.38 18.889,22.722 18.889,19.064 18.889,15.406 18.92,15.406 
				18.952,15.406 18.983,15.406 19.014,15.406 19.014,19.064 19.014,22.722 19.014,26.38 19.014,30.038 18.983,30.038 
				18.952,30.038 18.92,30.038 			"/>
			<polygon class="st74" points="18.763,30.038 18.763,26.38 18.763,22.722 18.763,19.064 18.763,15.406 18.795,15.406 
				18.826,15.406 18.857,15.406 18.889,15.406 18.889,19.064 18.889,22.722 18.889,26.38 18.889,30.038 18.857,30.038 
				18.826,30.038 18.795,30.038 			"/>
			<polygon class="st75" points="18.638,30.038 18.638,26.38 18.638,22.722 18.638,19.064 18.638,15.406 18.669,15.406 
				18.701,15.406 18.732,15.406 18.763,15.406 18.763,19.064 18.763,22.722 18.763,26.38 18.763,30.038 18.732,30.038 
				18.701,30.038 18.669,30.038 			"/>
			<polygon class="st76" points="18.513,30.038 18.513,26.38 18.513,22.722 18.513,19.064 18.513,15.406 18.544,15.406 
				18.575,15.406 18.607,15.406 18.638,15.406 18.638,19.064 18.638,22.722 18.638,26.38 18.638,30.038 18.607,30.038 
				18.575,30.038 18.544,30.038 			"/>
			<polygon class="st77" points="18.387,30.038 18.387,26.38 18.387,22.722 18.387,19.064 18.387,15.406 18.418,15.406 
				18.45,15.406 18.481,15.406 18.513,15.406 18.513,19.064 18.513,22.722 18.513,26.38 18.513,30.038 18.481,30.038 18.45,30.038 
				18.418,30.038 			"/>
			<polygon class="st78" points="18.262,30.038 18.262,26.38 18.262,22.722 18.262,19.064 18.262,15.406 18.293,15.406 
				18.324,15.406 18.356,15.406 18.387,15.406 18.387,19.064 18.387,22.722 18.387,26.38 18.387,30.038 18.356,30.038 
				18.324,30.038 18.293,30.038 			"/>
			<polygon class="st79" points="18.136,30.038 18.136,26.38 18.136,22.722 18.136,19.064 18.136,15.406 18.168,15.406 
				18.199,15.406 18.23,15.406 18.262,15.406 18.262,19.064 18.262,22.722 18.262,26.38 18.262,30.038 18.23,30.038 18.199,30.038 
				18.168,30.038 			"/>
			<polygon class="st80" points="18.011,30.038 18.011,26.38 18.011,22.722 18.011,19.064 18.011,15.406 18.042,15.406 
				18.073,15.406 18.105,15.406 18.136,15.406 18.136,19.064 18.136,22.722 18.136,26.38 18.136,30.038 18.105,30.038 
				18.073,30.038 18.042,30.038 			"/>
			<polygon class="st81" points="17.885,30.038 17.885,26.38 17.885,22.722 17.885,19.064 17.885,15.406 17.917,15.406 
				17.948,15.406 17.979,15.406 18.011,15.406 18.011,19.064 18.011,22.722 18.011,26.38 18.011,30.038 17.979,30.038 
				17.948,30.038 17.917,30.038 			"/>
			<polygon class="st82" points="17.76,30.038 17.76,26.38 17.76,22.722 17.76,19.064 17.76,15.406 17.791,15.406 17.823,15.406 
				17.854,15.406 17.885,15.406 17.885,19.064 17.885,22.722 17.885,26.38 17.885,30.038 17.854,30.038 17.823,30.038 
				17.791,30.038 			"/>
			<polygon class="st83" points="17.634,30.038 17.634,26.38 17.634,22.722 17.634,19.064 17.634,15.406 17.666,15.406 
				17.697,15.406 17.728,15.406 17.76,15.406 17.76,19.064 17.76,22.722 17.76,26.38 17.76,30.038 17.728,30.038 17.697,30.038 
				17.666,30.038 			"/>
			<polygon class="st84" points="17.509,30.038 17.509,26.38 17.509,22.722 17.509,19.064 17.509,15.406 17.54,15.406 
				17.572,15.406 17.603,15.406 17.634,15.406 17.634,19.064 17.634,22.722 17.634,26.38 17.634,30.038 17.603,30.038 
				17.572,30.038 17.54,30.038 			"/>
			<polygon class="st85" points="17.383,30.038 17.383,26.38 17.383,22.722 17.383,19.064 17.383,15.406 17.415,15.406 
				17.446,15.406 17.478,15.406 17.509,15.406 17.509,19.064 17.509,22.722 17.509,26.38 17.509,30.038 17.478,30.038 
				17.446,30.038 17.415,30.038 			"/>
			<polygon class="st86" points="17.258,30.038 17.258,26.38 17.258,22.722 17.258,19.064 17.258,15.406 17.289,15.406 
				17.321,15.406 17.352,15.406 17.383,15.406 17.383,19.064 17.383,22.722 17.383,26.38 17.383,30.038 17.352,30.038 
				17.321,30.038 17.289,30.038 			"/>
			<polygon class="st87" points="17.133,30.038 17.133,26.38 17.133,22.722 17.133,19.064 17.133,15.406 17.164,15.406 
				17.195,15.406 17.227,15.406 17.258,15.406 17.258,19.064 17.258,22.722 17.258,26.38 17.258,30.038 17.227,30.038 
				17.195,30.038 17.164,30.038 			"/>
			<polygon class="st88" points="17.007,30.038 17.007,26.38 17.007,22.722 17.007,19.064 17.007,15.406 17.038,15.406 
				17.07,15.406 17.101,15.406 17.133,15.406 17.133,19.064 17.133,22.722 17.133,26.38 17.133,30.038 17.101,30.038 17.07,30.038 
				17.038,30.038 			"/>
			<polygon class="st89" points="16.882,30.038 16.882,26.38 16.882,22.722 16.882,19.064 16.882,15.406 16.913,15.406 
				16.944,15.406 16.976,15.406 17.007,15.406 17.007,19.064 17.007,22.722 17.007,26.38 17.007,30.038 16.976,30.038 
				16.944,30.038 16.913,30.038 			"/>
			<polygon class="st90" points="16.756,30.038 16.756,26.38 16.756,22.722 16.756,19.064 16.756,15.406 16.788,15.406 
				16.819,15.406 16.85,15.406 16.882,15.406 16.882,19.064 16.882,22.722 16.882,26.38 16.882,30.038 16.85,30.038 16.819,30.038 
				16.788,30.038 			"/>
			<polygon class="st91" points="16.631,30.038 16.631,26.38 16.631,22.722 16.631,19.064 16.631,15.406 16.662,15.406 
				16.693,15.406 16.725,15.406 16.756,15.406 16.756,19.064 16.756,22.722 16.756,26.38 16.756,30.038 16.725,30.038 
				16.693,30.038 16.662,30.038 			"/>
			<polygon class="st92" points="16.505,30.038 16.505,26.38 16.505,22.722 16.505,19.064 16.505,15.406 16.537,15.406 
				16.568,15.406 16.599,15.406 16.631,15.406 16.631,19.064 16.631,22.722 16.631,26.38 16.631,30.038 16.599,30.038 
				16.568,30.038 16.537,30.038 			"/>
			<polygon class="st93" points="16.38,30.038 16.38,26.38 16.38,22.722 16.38,19.064 16.38,15.406 16.411,15.406 16.443,15.406 
				16.474,15.406 16.505,15.406 16.505,19.064 16.505,22.722 16.505,26.38 16.505,30.038 16.474,30.038 16.443,30.038 
				16.411,30.038 			"/>
			<polygon class="st94" points="16.254,30.038 16.254,26.38 16.254,22.722 16.254,19.064 16.254,15.406 16.286,15.406 
				16.317,15.406 16.348,15.406 16.38,15.406 16.38,19.064 16.38,22.722 16.38,26.38 16.38,30.038 16.348,30.038 16.317,30.038 
				16.286,30.038 			"/>
			<polygon class="st95" points="16.129,30.038 16.129,26.38 16.129,22.722 16.129,19.064 16.129,15.406 16.16,15.406 
				16.192,15.406 16.223,15.406 16.254,15.406 16.254,19.064 16.254,22.722 16.254,26.38 16.254,30.038 16.223,30.038 
				16.192,30.038 16.16,30.038 			"/>
			<polygon class="st96" points="16.004,30.038 16.004,26.38 16.004,22.722 16.004,19.064 16.004,15.406 16.035,15.406 
				16.066,15.406 16.098,15.406 16.129,15.406 16.129,19.064 16.129,22.722 16.129,26.38 16.129,30.038 16.098,30.038 
				16.066,30.038 16.035,30.038 			"/>
			<polygon class="st97" points="15.878,30.038 15.878,26.38 15.878,22.722 15.878,19.064 15.878,15.406 15.909,15.406 
				15.941,15.406 15.972,15.406 16.004,15.406 16.004,19.064 16.004,22.722 16.004,26.38 16.004,30.038 15.972,30.038 
				15.941,30.038 15.909,30.038 			"/>
			<polygon class="st98" points="15.753,30.038 15.753,26.38 15.753,22.722 15.753,19.064 15.753,15.406 15.784,15.406 
				15.815,15.406 15.847,15.406 15.878,15.406 15.878,19.064 15.878,22.722 15.878,26.38 15.878,30.038 15.847,30.038 
				15.815,30.038 15.784,30.038 			"/>
			<polygon class="st99" points="15.627,30.038 15.627,26.38 15.627,22.722 15.627,19.064 15.627,15.406 15.659,15.406 
				15.69,15.406 15.721,15.406 15.753,15.406 15.753,19.064 15.753,22.722 15.753,26.38 15.753,30.038 15.721,30.038 15.69,30.038 
				15.659,30.038 			"/>
			<polygon class="st100" points="15.502,30.038 15.502,26.38 15.502,22.722 15.502,19.064 15.502,15.406 15.533,15.406 
				15.564,15.406 15.596,15.406 15.627,15.406 15.627,19.064 15.627,22.722 15.627,26.38 15.627,30.038 15.596,30.038 
				15.564,30.038 15.533,30.038 			"/>
			<polygon class="st101" points="15.376,30.038 15.376,26.38 15.376,22.722 15.376,19.064 15.376,15.406 15.408,15.406 
				15.439,15.406 15.47,15.406 15.502,15.406 15.502,19.064 15.502,22.722 15.502,26.38 15.502,30.038 15.47,30.038 15.439,30.038 
				15.408,30.038 			"/>
			<polygon class="st102" points="15.251,30.038 15.251,26.38 15.251,22.722 15.251,19.064 15.251,15.406 15.282,15.406 
				15.314,15.406 15.345,15.406 15.376,15.406 15.376,19.064 15.376,22.722 15.376,26.38 15.376,30.038 15.345,30.038 
				15.314,30.038 15.282,30.038 			"/>
			<polygon class="st103" points="15.125,30.038 15.125,26.38 15.125,22.722 15.125,19.064 15.125,15.406 15.157,15.406 
				15.188,15.406 15.219,15.406 15.251,15.406 15.251,19.064 15.251,22.722 15.251,26.38 15.251,30.038 15.219,30.038 
				15.188,30.038 15.157,30.038 			"/>
			<polygon class="st104" points="15,30.038 15,26.38 15,22.722 15,19.064 15,15.406 15.031,15.406 15.063,15.406 15.094,15.406 
				15.125,15.406 15.125,19.064 15.125,22.722 15.125,26.38 15.125,30.038 15.094,30.038 15.063,30.038 15.031,30.038 			"/>
			<polygon class="st105" points="14.874,30.038 14.874,26.38 14.874,22.722 14.874,19.064 14.874,15.406 14.906,15.406 
				14.937,15.406 14.969,15.406 15,15.406 15,19.064 15,22.722 15,26.38 15,30.038 14.969,30.038 14.937,30.038 14.906,30.038 			
				"/>
			<polygon class="st106" points="14.749,30.038 14.749,26.38 14.749,22.722 14.749,19.064 14.749,15.406 14.78,15.406 
				14.812,15.406 14.843,15.406 14.874,15.406 14.874,19.064 14.874,22.722 14.874,26.38 14.874,30.038 14.843,30.038 
				14.812,30.038 14.78,30.038 			"/>
			<polygon class="st107" points="14.624,30.038 14.624,26.38 14.624,22.722 14.624,19.064 14.624,15.406 14.655,15.406 
				14.686,15.406 14.718,15.406 14.749,15.406 14.749,19.064 14.749,22.722 14.749,26.38 14.749,30.038 14.718,30.038 
				14.686,30.038 14.655,30.038 			"/>
			<polygon class="st108" points="14.498,30.038 14.498,26.38 14.498,22.722 14.498,19.064 14.498,15.406 14.529,15.406 
				14.561,15.406 14.592,15.406 14.624,15.406 14.624,19.064 14.624,22.722 14.624,26.38 14.624,30.038 14.592,30.038 
				14.561,30.038 14.529,30.038 			"/>
			<polygon class="st109" points="14.373,30.038 14.373,26.38 14.373,22.722 14.373,19.064 14.373,15.406 14.404,15.406 
				14.435,15.406 14.467,15.406 14.498,15.406 14.498,19.064 14.498,22.722 14.498,26.38 14.498,30.038 14.467,30.038 
				14.435,30.038 14.404,30.038 			"/>
			<polygon class="st110" points="14.247,30.038 14.247,26.38 14.247,22.722 14.247,19.064 14.247,15.406 14.279,15.406 
				14.31,15.406 14.341,15.406 14.373,15.406 14.373,19.064 14.373,22.722 14.373,26.38 14.373,30.038 14.341,30.038 14.31,30.038 
				14.279,30.038 			"/>
			<polygon class="st111" points="14.122,30.038 14.122,26.38 14.122,22.722 14.122,19.064 14.122,15.406 14.153,15.406 
				14.184,15.406 14.216,15.406 14.247,15.406 14.247,19.064 14.247,22.722 14.247,26.38 14.247,30.038 14.216,30.038 
				14.184,30.038 14.153,30.038 			"/>
			<polygon class="st112" points="13.996,30.038 13.996,26.38 13.996,22.722 13.996,19.064 13.996,15.406 14.028,15.406 
				14.059,15.406 14.09,15.406 14.122,15.406 14.122,19.064 14.122,22.722 14.122,26.38 14.122,30.038 14.09,30.038 14.059,30.038 
				14.028,30.038 			"/>
			<polygon class="st113" points="13.871,30.038 13.871,26.38 13.871,22.722 13.871,19.064 13.871,15.406 13.902,15.406 
				13.934,15.406 13.965,15.406 13.996,15.406 13.996,19.064 13.996,22.722 13.996,26.38 13.996,30.038 13.965,30.038 
				13.934,30.038 13.902,30.038 			"/>
			<polygon class="st114" points="13.745,30.038 13.745,26.38 13.745,22.722 13.745,19.064 13.745,15.406 13.777,15.406 
				13.808,15.406 13.839,15.406 13.871,15.406 13.871,19.064 13.871,22.722 13.871,26.38 13.871,30.038 13.839,30.038 
				13.808,30.038 13.777,30.038 			"/>
			<polygon class="st115" points="13.62,30.038 13.62,26.38 13.62,22.722 13.62,19.064 13.62,15.406 13.651,15.406 13.683,15.406 
				13.714,15.406 13.745,15.406 13.745,19.064 13.745,22.722 13.745,26.38 13.745,30.038 13.714,30.038 13.683,30.038 
				13.651,30.038 			"/>
			<polygon class="st116" points="13.495,30.038 13.495,26.38 13.495,22.722 13.495,19.064 13.495,15.406 13.526,15.406 
				13.557,15.406 13.589,15.406 13.62,15.406 13.62,19.064 13.62,22.722 13.62,26.38 13.62,30.038 13.589,30.038 13.557,30.038 
				13.526,30.038 			"/>
			<polygon class="st117" points="13.369,30.038 13.369,26.38 13.369,22.722 13.369,19.064 13.369,15.406 13.4,15.406 
				13.432,15.406 13.463,15.406 13.495,15.406 13.495,19.064 13.495,22.722 13.495,26.38 13.495,30.038 13.463,30.038 
				13.432,30.038 13.4,30.038 			"/>
			<polygon class="st118" points="13.244,30.038 13.244,26.38 13.244,22.722 13.244,19.064 13.244,15.406 13.275,15.406 
				13.306,15.406 13.338,15.406 13.369,15.406 13.369,19.064 13.369,22.722 13.369,26.38 13.369,30.038 13.338,30.038 
				13.306,30.038 13.275,30.038 			"/>
			<polygon class="st119" points="13.118,30.038 13.118,26.38 13.118,22.722 13.118,19.064 13.118,15.406 13.15,15.406 
				13.181,15.406 13.212,15.406 13.244,15.406 13.244,19.064 13.244,22.722 13.244,26.38 13.244,30.038 13.212,30.038 
				13.181,30.038 13.15,30.038 			"/>
			<polygon class="st120" points="12.993,30.038 12.993,26.38 12.993,22.722 12.993,19.064 12.993,15.406 13.024,15.406 
				13.055,15.406 13.087,15.406 13.118,15.406 13.118,19.064 13.118,22.722 13.118,26.38 13.118,30.038 13.087,30.038 
				13.055,30.038 13.024,30.038 			"/>
			<polygon class="st121" points="12.867,30.038 12.867,26.38 12.867,22.722 12.867,19.064 12.867,15.406 12.899,15.406 
				12.93,15.406 12.961,15.406 12.993,15.406 12.993,19.064 12.993,22.722 12.993,26.38 12.993,30.038 12.961,30.038 12.93,30.038 
				12.899,30.038 			"/>
			<polygon class="st122" points="12.742,30.038 12.742,26.38 12.742,22.722 12.742,19.064 12.742,15.406 12.773,15.406 
				12.805,15.406 12.836,15.406 12.867,15.406 12.867,19.064 12.867,22.722 12.867,26.38 12.867,30.038 12.836,30.038 
				12.805,30.038 12.773,30.038 			"/>
			<polygon class="st123" points="12.616,30.038 12.616,26.38 12.616,22.722 12.616,19.064 12.616,15.406 12.648,15.406 
				12.679,15.406 12.71,15.406 12.742,15.406 12.742,19.064 12.742,22.722 12.742,26.38 12.742,30.038 12.71,30.038 12.679,30.038 
				12.648,30.038 			"/>
			<polygon class="st124" points="12.491,30.038 12.491,26.38 12.491,22.722 12.491,19.064 12.491,15.406 12.522,15.406 
				12.554,15.406 12.585,15.406 12.616,15.406 12.616,19.064 12.616,22.722 12.616,26.38 12.616,30.038 12.585,30.038 
				12.554,30.038 12.522,30.038 			"/>
			<polygon class="st125" points="12.365,30.038 12.365,26.38 12.365,22.722 12.365,19.064 12.365,15.406 12.397,15.406 
				12.428,15.406 12.46,15.406 12.491,15.406 12.491,19.064 12.491,22.722 12.491,26.38 12.491,30.038 12.46,30.038 12.428,30.038 
				12.397,30.038 			"/>
			<polygon class="st126" points="12.24,30.038 12.24,26.38 12.24,22.722 12.24,19.064 12.24,15.406 12.271,15.406 12.303,15.406 
				12.334,15.406 12.365,15.406 12.365,19.064 12.365,22.722 12.365,26.38 12.365,30.038 12.334,30.038 12.303,30.038 
				12.271,30.038 			"/>
			<polygon class="st127" points="12.115,30.038 12.115,26.38 12.115,22.722 12.115,19.064 12.115,15.406 12.146,15.406 
				12.177,15.406 12.209,15.406 12.24,15.406 12.24,19.064 12.24,22.722 12.24,26.38 12.24,30.038 12.209,30.038 12.177,30.038 
				12.146,30.038 			"/>
			<polygon class="st128" points="11.989,30.038 11.989,26.38 11.989,22.722 11.989,19.064 11.989,15.406 12.02,15.406 
				12.052,15.406 12.083,15.406 12.115,15.406 12.115,19.064 12.115,22.722 12.115,26.38 12.115,30.038 12.083,30.038 
				12.052,30.038 12.02,30.038 			"/>
			<polygon class="st129" points="11.864,30.038 11.864,26.38 11.864,22.722 11.864,19.064 11.864,15.406 11.895,15.406 
				11.926,15.406 11.958,15.406 11.989,15.406 11.989,19.064 11.989,22.722 11.989,26.38 11.989,30.038 11.958,30.038 
				11.926,30.038 11.895,30.038 			"/>
			<polygon class="st130" points="11.738,30.038 11.738,26.38 11.738,22.722 11.738,19.064 11.738,15.406 11.77,15.406 
				11.801,15.406 11.832,15.406 11.864,15.406 11.864,19.064 11.864,22.722 11.864,26.38 11.864,30.038 11.832,30.038 
				11.801,30.038 11.77,30.038 			"/>
			<polygon class="st131" points="11.613,30.038 11.613,26.38 11.613,22.722 11.613,19.064 11.613,15.406 11.644,15.406 
				11.675,15.406 11.707,15.406 11.738,15.406 11.738,19.064 11.738,22.722 11.738,26.38 11.738,30.038 11.707,30.038 
				11.675,30.038 11.644,30.038 			"/>
			<polygon class="st132" points="11.487,30.038 11.487,26.38 11.487,22.722 11.487,19.064 11.487,15.406 11.519,15.406 
				11.55,15.406 11.581,15.406 11.613,15.406 11.613,19.064 11.613,22.722 11.613,26.38 11.613,30.038 11.581,30.038 11.55,30.038 
				11.519,30.038 			"/>
			<polygon class="st133" points="11.362,30.038 11.362,26.38 11.362,22.722 11.362,19.064 11.362,15.406 11.393,15.406 
				11.425,15.406 11.456,15.406 11.487,15.406 11.487,19.064 11.487,22.722 11.487,26.38 11.487,30.038 11.456,30.038 
				11.425,30.038 11.393,30.038 			"/>
			<polygon class="st134" points="11.236,30.038 11.236,26.38 11.236,22.722 11.236,19.064 11.236,15.406 11.268,15.406 
				11.299,15.406 11.331,15.406 11.362,15.406 11.362,19.064 11.362,22.722 11.362,26.38 11.362,30.038 11.331,30.038 
				11.299,30.038 11.268,30.038 			"/>
			<polygon class="st135" points="11.111,30.038 11.111,26.38 11.111,22.722 11.111,19.064 11.111,15.406 11.142,15.406 
				11.174,15.406 11.205,15.406 11.236,15.406 11.236,19.064 11.236,22.722 11.236,26.38 11.236,30.038 11.205,30.038 
				11.174,30.038 11.142,30.038 			"/>
			<polygon class="st136" points="10.986,30.038 10.986,26.38 10.986,22.722 10.986,19.064 10.986,15.406 11.017,15.406 
				11.048,15.406 11.08,15.406 11.111,15.406 11.111,19.064 11.111,22.722 11.111,26.38 11.111,30.038 11.08,30.038 11.048,30.038 
				11.017,30.038 			"/>
			<polygon class="st137" points="10.86,30.038 10.86,26.38 10.86,22.722 10.86,19.064 10.86,15.406 10.891,15.406 10.923,15.406 
				10.954,15.406 10.986,15.406 10.986,19.064 10.986,22.722 10.986,26.38 10.986,30.038 10.954,30.038 10.923,30.038 
				10.891,30.038 			"/>
			<polygon class="st138" points="10.735,30.038 10.735,26.38 10.735,22.722 10.735,19.064 10.735,15.406 10.766,15.406 
				10.797,15.406 10.829,15.406 10.86,15.406 10.86,19.064 10.86,22.722 10.86,26.38 10.86,30.038 10.829,30.038 10.797,30.038 
				10.766,30.038 			"/>
			<polygon class="st139" points="10.609,30.038 10.609,26.38 10.609,22.722 10.609,19.064 10.609,15.406 10.641,15.406 
				10.672,15.406 10.703,15.406 10.735,15.406 10.735,19.064 10.735,22.722 10.735,26.38 10.735,30.038 10.703,30.038 
				10.672,30.038 10.641,30.038 			"/>
			<polygon class="st140" points="10.484,30.038 10.484,26.38 10.484,22.722 10.484,19.064 10.484,15.406 10.515,15.406 
				10.546,15.406 10.578,15.406 10.609,15.406 10.609,19.064 10.609,22.722 10.609,26.38 10.609,30.038 10.578,30.038 
				10.546,30.038 10.515,30.038 			"/>
			<polygon class="st141" points="10.358,30.038 10.358,26.38 10.358,22.722 10.358,19.064 10.358,15.406 10.39,15.406 
				10.421,15.406 10.452,15.406 10.484,15.406 10.484,19.064 10.484,22.722 10.484,26.38 10.484,30.038 10.452,30.038 
				10.421,30.038 10.39,30.038 			"/>
			<polygon class="st142" points="10.233,30.038 10.233,26.38 10.233,22.722 10.233,19.064 10.233,15.406 10.264,15.406 
				10.296,15.406 10.327,15.406 10.358,15.406 10.358,19.064 10.358,22.722 10.358,26.38 10.358,30.038 10.327,30.038 
				10.296,30.038 10.264,30.038 			"/>
			<polygon class="st143" points="10.107,30.038 10.107,26.38 10.107,22.722 10.107,19.064 10.107,15.406 10.139,15.406 
				10.17,15.406 10.201,15.406 10.233,15.406 10.233,19.064 10.233,22.722 10.233,26.38 10.233,30.038 10.201,30.038 10.17,30.038 
				10.139,30.038 			"/>
			<polygon class="st144" points="9.982,30.038 9.982,26.38 9.982,22.722 9.982,19.064 9.982,15.406 10.013,15.406 10.045,15.406 
				10.076,15.406 10.107,15.406 10.107,19.064 10.107,22.722 10.107,26.38 10.107,30.038 10.076,30.038 10.045,30.038 
				10.013,30.038 			"/>
			<polygon class="st145" points="9.856,30.038 9.856,26.38 9.856,22.722 9.856,19.064 9.856,15.406 9.888,15.406 9.919,15.406 
				9.951,15.406 9.982,15.406 9.982,19.064 9.982,22.722 9.982,26.38 9.982,30.038 9.951,30.038 9.919,30.038 9.888,30.038 			"/>
			<polygon class="st146" points="9.731,30.038 9.731,26.38 9.731,22.722 9.731,19.064 9.731,15.406 9.762,15.406 9.794,15.406 
				9.825,15.406 9.856,15.406 9.856,19.064 9.856,22.722 9.856,26.38 9.856,30.038 9.825,30.038 9.794,30.038 9.762,30.038 			"/>
			<polygon class="st147" points="9.606,30.038 9.606,26.38 9.606,22.722 9.606,19.064 9.606,15.406 9.637,15.406 9.668,15.406 
				9.7,15.406 9.731,15.406 9.731,19.064 9.731,22.722 9.731,26.38 9.731,30.038 9.7,30.038 9.668,30.038 9.637,30.038 			"/>
			<polygon class="st148" points="9.48,30.038 9.48,26.38 9.48,22.722 9.48,19.064 9.48,15.406 9.511,15.406 9.543,15.406 
				9.574,15.406 9.606,15.406 9.606,19.064 9.606,22.722 9.606,26.38 9.606,30.038 9.574,30.038 9.543,30.038 9.511,30.038 			"/>
			<polygon class="st149" points="9.355,30.038 9.355,26.38 9.355,22.722 9.355,19.064 9.355,15.406 9.386,15.406 9.417,15.406 
				9.449,15.406 9.48,15.406 9.48,19.064 9.48,22.722 9.48,26.38 9.48,30.038 9.449,30.038 9.417,30.038 9.386,30.038 			"/>
			<polygon class="st150" points="9.229,30.038 9.229,26.38 9.229,22.722 9.229,19.064 9.229,15.406 9.261,15.406 9.292,15.406 
				9.323,15.406 9.355,15.406 9.355,19.064 9.355,22.722 9.355,26.38 9.355,30.038 9.323,30.038 9.292,30.038 9.261,30.038 			"/>
			<polygon class="st151" points="9.104,30.038 9.104,26.38 9.104,22.722 9.104,19.064 9.104,15.406 9.135,15.406 9.166,15.406 
				9.198,15.406 9.229,15.406 9.229,19.064 9.229,22.722 9.229,26.38 9.229,30.038 9.198,30.038 9.166,30.038 9.135,30.038 			"/>
			<polygon class="st152" points="8.978,30.038 8.978,26.38 8.978,22.722 8.978,19.064 8.978,15.406 9.01,15.406 9.041,15.406 
				9.072,15.406 9.104,15.406 9.104,19.064 9.104,22.722 9.104,26.38 9.104,30.038 9.072,30.038 9.041,30.038 9.01,30.038 			"/>
			<polygon class="st153" points="8.853,30.038 8.853,26.38 8.853,22.722 8.853,19.064 8.853,15.406 8.884,15.406 8.916,15.406 
				8.947,15.406 8.978,15.406 8.978,19.064 8.978,22.722 8.978,26.38 8.978,30.038 8.947,30.038 8.916,30.038 8.884,30.038 			"/>
			<polygon class="st154" points="8.727,30.038 8.727,26.38 8.727,22.722 8.727,19.064 8.727,15.406 8.759,15.406 8.79,15.406 
				8.822,15.406 8.853,15.406 8.853,19.064 8.853,22.722 8.853,26.38 8.853,30.038 8.822,30.038 8.79,30.038 8.759,30.038 			"/>
			<polygon class="st155" points="8.602,30.038 8.602,26.38 8.602,22.722 8.602,19.064 8.602,15.406 8.633,15.406 8.665,15.406 
				8.696,15.406 8.727,15.406 8.727,19.064 8.727,22.722 8.727,26.38 8.727,30.038 8.696,30.038 8.665,30.038 8.633,30.038 			"/>
			<polygon class="st156" points="8.477,30.038 8.477,26.38 8.477,22.722 8.477,19.064 8.477,15.406 8.508,15.406 8.539,15.406 
				8.571,15.406 8.602,15.406 8.602,19.064 8.602,22.722 8.602,26.38 8.602,30.038 8.571,30.038 8.539,30.038 8.508,30.038 			"/>
			<polygon class="st157" points="8.351,30.038 8.351,26.38 8.351,22.722 8.351,19.064 8.351,15.406 8.382,15.406 8.414,15.406 
				8.445,15.406 8.477,15.406 8.477,19.064 8.477,22.722 8.477,26.38 8.477,30.038 8.445,30.038 8.414,30.038 8.382,30.038 			"/>
			<polygon class="st158" points="8.226,30.038 8.226,26.38 8.226,22.722 8.226,19.064 8.226,15.406 8.257,15.406 8.288,15.406 
				8.32,15.406 8.351,15.406 8.351,19.064 8.351,22.722 8.351,26.38 8.351,30.038 8.32,30.038 8.288,30.038 8.257,30.038 			"/>
			<polygon class="st159" points="8.1,30.038 8.1,26.38 8.1,22.722 8.1,19.064 8.1,15.406 8.132,15.406 8.163,15.406 8.194,15.406 
				8.226,15.406 8.226,19.064 8.226,22.722 8.226,26.38 8.226,30.038 8.194,30.038 8.163,30.038 8.132,30.038 			"/>
			<polygon class="st160" points="7.975,30.038 7.975,26.38 7.975,22.722 7.975,19.064 7.975,15.406 8.006,15.406 8.037,15.406 
				8.069,15.406 8.1,15.406 8.1,19.064 8.1,22.722 8.1,26.38 8.1,30.038 8.069,30.038 8.037,30.038 8.006,30.038 			"/>
			<polygon class="st161" points="7.849,30.038 7.849,26.38 7.849,22.722 7.849,19.064 7.849,15.406 7.881,15.406 7.912,15.406 
				7.943,15.406 7.975,15.406 7.975,19.064 7.975,22.722 7.975,26.38 7.975,30.038 7.943,30.038 7.912,30.038 7.881,30.038 			"/>
			<polygon class="st162" points="7.724,30.038 7.724,26.38 7.724,22.722 7.724,19.064 7.724,15.406 7.755,15.406 7.787,15.406 
				7.818,15.406 7.849,15.406 7.849,19.064 7.849,22.722 7.849,26.38 7.849,30.038 7.818,30.038 7.787,30.038 7.755,30.038 			"/>
			<polygon class="st163" points="7.598,30.038 7.598,26.38 7.598,22.722 7.598,19.064 7.598,15.406 7.63,15.406 7.661,15.406 
				7.692,15.406 7.724,15.406 7.724,19.064 7.724,22.722 7.724,26.38 7.724,30.038 7.692,30.038 7.661,30.038 7.63,30.038 			"/>
			<polygon class="st164" points="7.473,30.038 7.473,26.38 7.473,22.722 7.473,19.064 7.473,15.406 7.504,15.406 7.536,15.406 
				7.567,15.406 7.598,15.406 7.598,19.064 7.598,22.722 7.598,26.38 7.598,30.038 7.567,30.038 7.536,30.038 7.504,30.038 			"/>
			<polygon class="st165" points="7.347,30.038 7.347,26.38 7.347,22.722 7.347,19.064 7.347,15.406 7.379,15.406 7.41,15.406 
				7.442,15.406 7.473,15.406 7.473,19.064 7.473,22.722 7.473,26.38 7.473,30.038 7.442,30.038 7.41,30.038 7.379,30.038 			"/>
			<polygon class="st166" points="7.222,30.038 7.222,26.38 7.222,22.722 7.222,19.064 7.222,15.406 7.253,15.406 7.285,15.406 
				7.316,15.406 7.347,15.406 7.347,19.064 7.347,22.722 7.347,26.38 7.347,30.038 7.316,30.038 7.285,30.038 7.253,30.038 			"/>
			<polygon class="st167" points="7.097,30.038 7.097,26.38 7.097,22.722 7.097,19.064 7.097,15.406 7.128,15.406 7.159,15.406 
				7.191,15.406 7.222,15.406 7.222,19.064 7.222,22.722 7.222,26.38 7.222,30.038 7.191,30.038 7.159,30.038 7.128,30.038 			"/>
			<polygon class="st168" points="6.971,30.038 6.971,26.38 6.971,22.722 6.971,19.064 6.971,15.406 7.002,15.406 7.034,15.406 
				7.065,15.406 7.097,15.406 7.097,19.064 7.097,22.722 7.097,26.38 7.097,30.038 7.065,30.038 7.034,30.038 7.002,30.038 			"/>
			<polygon class="st169" points="6.846,30.038 6.846,26.38 6.846,22.722 6.846,19.064 6.846,15.406 6.877,15.406 6.908,15.406 
				6.94,15.406 6.971,15.406 6.971,19.064 6.971,22.722 6.971,26.38 6.971,30.038 6.94,30.038 6.908,30.038 6.877,30.038 			"/>
			<polygon class="st170" points="6.72,30.038 6.72,26.38 6.72,22.722 6.72,19.064 6.72,15.406 6.752,15.406 6.783,15.406 
				6.814,15.406 6.846,15.406 6.846,19.064 6.846,22.722 6.846,26.38 6.846,30.038 6.814,30.038 6.783,30.038 6.752,30.038 			"/>
			<polygon class="st171" points="6.595,30.038 6.595,26.38 6.595,22.722 6.595,19.064 6.595,15.406 6.626,15.406 6.657,15.406 
				6.689,15.406 6.72,15.406 6.72,19.064 6.72,22.722 6.72,26.38 6.72,30.038 6.689,30.038 6.657,30.038 6.626,30.038 			"/>
			<polygon class="st172" points="6.469,30.038 6.469,26.38 6.469,22.722 6.469,19.064 6.469,15.406 6.501,15.406 6.532,15.406 
				6.563,15.406 6.595,15.406 6.595,19.064 6.595,22.722 6.595,26.38 6.595,30.038 6.563,30.038 6.532,30.038 6.501,30.038 			"/>
			<polygon class="st173" points="6.344,30.038 6.344,26.38 6.344,22.722 6.344,19.064 6.344,15.406 6.375,15.406 6.407,15.406 
				6.438,15.406 6.469,15.406 6.469,19.064 6.469,22.722 6.469,26.38 6.469,30.038 6.438,30.038 6.407,30.038 6.375,30.038 			"/>
			<polygon class="st174" points="6.218,30.038 6.218,26.38 6.218,22.722 6.218,19.064 6.218,15.406 6.25,15.406 6.281,15.406 
				6.313,15.406 6.344,15.406 6.344,19.064 6.344,22.722 6.344,26.38 6.344,30.038 6.313,30.038 6.281,30.038 6.25,30.038 			"/>
			<polygon class="st175" points="6.093,30.038 6.093,26.38 6.093,22.722 6.093,19.064 6.093,15.406 6.124,15.406 6.156,15.406 
				6.187,15.406 6.218,15.406 6.218,19.064 6.218,22.722 6.218,26.38 6.218,30.038 6.187,30.038 6.156,30.038 6.124,30.038 			"/>
			<polygon class="st176" points="5.968,30.038 5.968,26.38 5.968,22.722 5.968,19.064 5.968,15.406 5.999,15.406 6.03,15.406 
				6.062,15.406 6.093,15.406 6.093,19.064 6.093,22.722 6.093,26.38 6.093,30.038 6.062,30.038 6.03,30.038 5.999,30.038 			"/>
			<polygon class="st177" points="5.842,30.038 5.842,26.38 5.842,22.722 5.842,19.064 5.842,15.406 5.873,15.406 5.905,15.406 
				5.936,15.406 5.968,15.406 5.968,19.064 5.968,22.722 5.968,26.38 5.968,30.038 5.936,30.038 5.905,30.038 5.873,30.038 			"/>
			<polygon class="st178" points="5.717,30.038 5.717,26.38 5.717,22.722 5.717,19.064 5.717,15.406 5.748,15.406 5.779,15.406 
				5.811,15.406 5.842,15.406 5.842,19.064 5.842,22.722 5.842,26.38 5.842,30.038 5.811,30.038 5.779,30.038 5.748,30.038 			"/>
			<polygon class="st179" points="5.591,30.038 5.591,26.38 5.591,22.722 5.591,19.064 5.591,15.406 5.623,15.406 5.654,15.406 
				5.685,15.406 5.717,15.406 5.717,19.064 5.717,22.722 5.717,26.38 5.717,30.038 5.685,30.038 5.654,30.038 5.623,30.038 			"/>
			<polygon class="st180" points="5.466,30.038 5.466,26.38 5.466,22.722 5.466,19.064 5.466,15.406 5.497,15.406 5.528,15.406 
				5.56,15.406 5.591,15.406 5.591,19.064 5.591,22.722 5.591,26.38 5.591,30.038 5.56,30.038 5.528,30.038 5.497,30.038 			"/>
			<polygon class="st181" points="5.34,30.038 5.34,26.38 5.34,22.722 5.34,19.064 5.34,15.406 5.372,15.406 5.403,15.406 
				5.434,15.406 5.466,15.406 5.466,19.064 5.466,22.722 5.466,26.38 5.466,30.038 5.434,30.038 5.403,30.038 5.372,30.038 			"/>
			<polygon class="st182" points="5.215,30.038 5.215,26.38 5.215,22.722 5.215,19.064 5.215,15.406 5.246,15.406 5.278,15.406 
				5.309,15.406 5.34,15.406 5.34,19.064 5.34,22.722 5.34,26.38 5.34,30.038 5.309,30.038 5.278,30.038 5.246,30.038 			"/>
			<polygon class="st183" points="5.089,30.038 5.089,26.38 5.089,22.722 5.089,19.064 5.089,15.406 5.121,15.406 5.152,15.406 
				5.183,15.406 5.215,15.406 5.215,19.064 5.215,22.722 5.215,26.38 5.215,30.038 5.183,30.038 5.152,30.038 5.121,30.038 			"/>
			<polygon class="st184" points="4.964,30.038 4.964,26.38 4.964,22.722 4.964,19.064 4.964,15.406 4.995,15.406 5.027,15.406 
				5.058,15.406 5.089,15.406 5.089,19.064 5.089,22.722 5.089,26.38 5.089,30.038 5.058,30.038 5.027,30.038 4.995,30.038 			"/>
			<polygon class="st185" points="4.838,30.038 4.838,26.38 4.838,22.722 4.838,19.064 4.838,15.406 4.87,15.406 4.901,15.406 
				4.933,15.406 4.964,15.406 4.964,19.064 4.964,22.722 4.964,26.38 4.964,30.038 4.933,30.038 4.901,30.038 4.87,30.038 			"/>
			<polygon class="st185" points="4.713,30.038 4.713,26.38 4.713,22.722 4.713,19.064 4.713,15.406 4.744,15.406 4.776,15.406 
				4.807,15.406 4.838,15.406 4.838,19.064 4.838,22.722 4.838,26.38 4.838,30.038 4.807,30.038 4.776,30.038 4.744,30.038 			"/>
			<polygon class="st186" points="4.588,30.038 4.588,26.38 4.588,22.722 4.588,19.064 4.588,15.406 4.619,15.406 4.65,15.406 
				4.682,15.406 4.713,15.406 4.713,19.064 4.713,22.722 4.713,26.38 4.713,30.038 4.682,30.038 4.65,30.038 4.619,30.038 			"/>
			<polygon class="st187" points="4.462,30.038 4.462,26.38 4.462,22.722 4.462,19.064 4.462,15.406 4.493,15.406 4.525,15.406 
				4.556,15.406 4.588,15.406 4.588,19.064 4.588,22.722 4.588,26.38 4.588,30.038 4.556,30.038 4.525,30.038 4.493,30.038 			"/>
			<polygon class="st188" points="4.337,30.038 4.337,26.38 4.337,22.722 4.337,19.064 4.337,15.406 4.368,15.406 4.399,15.406 
				4.431,15.406 4.462,15.406 4.462,19.064 4.462,22.722 4.462,26.38 4.462,30.038 4.431,30.038 4.399,30.038 4.368,30.038 			"/>
			<polygon class="st189" points="4.211,30.038 4.211,26.38 4.211,22.722 4.211,19.064 4.211,15.406 4.243,15.406 4.274,15.406 
				4.305,15.406 4.337,15.406 4.337,19.064 4.337,22.722 4.337,26.38 4.337,30.038 4.305,30.038 4.274,30.038 4.243,30.038 			"/>
			<polygon class="st190" points="4.086,30.038 4.086,26.38 4.086,22.722 4.086,19.064 4.086,15.406 4.117,15.406 4.149,15.406 
				4.18,15.406 4.211,15.406 4.211,19.064 4.211,22.722 4.211,26.38 4.211,30.038 4.18,30.038 4.149,30.038 4.117,30.038 			"/>
			<polygon class="st191" points="3.96,30.038 3.96,26.38 3.96,22.722 3.96,19.064 3.96,15.406 3.992,15.406 4.023,15.406 
				4.054,15.406 4.086,15.406 4.086,19.064 4.086,22.722 4.086,26.38 4.086,30.038 4.054,30.038 4.023,30.038 3.992,30.038 			"/>
			<polygon class="st192" points="3.835,30.038 3.835,26.38 3.835,22.722 3.835,19.064 3.835,15.406 3.866,15.406 3.898,15.406 
				3.929,15.406 3.96,15.406 3.96,19.064 3.96,22.722 3.96,26.38 3.96,30.038 3.929,30.038 3.898,30.038 3.866,30.038 			"/>
			<polygon class="st193" points="3.709,30.038 3.709,26.38 3.709,22.722 3.709,19.064 3.709,15.406 3.741,15.406 3.772,15.406 
				3.804,15.406 3.835,15.406 3.835,19.064 3.835,22.722 3.835,26.38 3.835,30.038 3.804,30.038 3.772,30.038 3.741,30.038 			"/>
			<polygon class="st194" points="3.584,30.038 3.584,26.38 3.584,22.722 3.584,19.064 3.584,15.406 3.615,15.406 3.647,15.406 
				3.678,15.406 3.709,15.406 3.709,19.064 3.709,22.722 3.709,26.38 3.709,30.038 3.678,30.038 3.647,30.038 3.615,30.038 			"/>
			<polygon class="st195" points="3.459,30.038 3.459,26.38 3.459,22.722 3.459,19.064 3.459,15.406 3.49,15.406 3.521,15.406 
				3.553,15.406 3.584,15.406 3.584,19.064 3.584,22.722 3.584,26.38 3.584,30.038 3.553,30.038 3.521,30.038 3.49,30.038 			"/>
			<polygon class="st196" points="3.333,30.038 3.333,26.38 3.333,22.722 3.333,19.064 3.333,15.406 3.364,15.406 3.396,15.406 
				3.427,15.406 3.459,15.406 3.459,19.064 3.459,22.722 3.459,26.38 3.459,30.038 3.427,30.038 3.396,30.038 3.364,30.038 			"/>
			<polygon class="st197" points="3.208,30.038 3.208,26.38 3.208,22.722 3.208,19.064 3.208,15.406 3.239,15.406 3.27,15.406 
				3.302,15.406 3.333,15.406 3.333,19.064 3.333,22.722 3.333,26.38 3.333,30.038 3.302,30.038 3.27,30.038 3.239,30.038 			"/>
			<polygon class="st198" points="3.082,30.038 3.082,26.38 3.082,22.722 3.082,19.064 3.082,15.406 3.114,15.406 3.145,15.406 
				3.176,15.406 3.208,15.406 3.208,19.064 3.208,22.722 3.208,26.38 3.208,30.038 3.176,30.038 3.145,30.038 3.114,30.038 			"/>
			<polygon class="st199" points="2.957,30.038 2.957,26.38 2.957,22.722 2.957,19.064 2.957,15.406 2.988,15.406 3.019,15.406 
				3.051,15.406 3.082,15.406 3.082,19.064 3.082,22.722 3.082,26.38 3.082,30.038 3.051,30.038 3.019,30.038 2.988,30.038 			"/>
			<polygon class="st200" points="2.831,30.038 2.831,26.38 2.831,22.722 2.831,19.064 2.831,15.406 2.863,15.406 2.894,15.406 
				2.925,15.406 2.957,15.406 2.957,19.064 2.957,22.722 2.957,26.38 2.957,30.038 2.925,30.038 2.894,30.038 2.863,30.038 			"/>
			<polygon class="st201" points="2.706,30.038 2.706,26.38 2.706,22.722 2.706,19.064 2.706,15.406 2.737,15.406 2.769,15.406 
				2.8,15.406 2.831,15.406 2.831,19.064 2.831,22.722 2.831,26.38 2.831,30.038 2.8,30.038 2.769,30.038 2.737,30.038 			"/>
			<polygon class="st202" points="2.58,30.038 2.58,26.38 2.58,22.722 2.58,19.064 2.58,15.406 2.612,15.406 2.643,15.406 
				2.674,15.406 2.706,15.406 2.706,19.064 2.706,22.722 2.706,26.38 2.706,30.038 2.674,30.038 2.643,30.038 2.612,30.038 			"/>
			<polygon class="st203" points="2.455,30.038 2.455,26.38 2.455,22.722 2.455,19.064 2.455,15.406 2.486,15.406 2.518,15.406 
				2.549,15.406 2.58,15.406 2.58,19.064 2.58,22.722 2.58,26.38 2.58,30.038 2.549,30.038 2.518,30.038 2.486,30.038 			"/>
			<polygon class="st204" points="2.329,30.038 2.329,26.38 2.329,22.722 2.329,19.064 2.329,15.406 2.361,15.406 2.392,15.406 
				2.424,15.406 2.455,15.406 2.455,19.064 2.455,22.722 2.455,26.38 2.455,30.038 2.424,30.038 2.392,30.038 2.361,30.038 			"/>
			<polygon class="st205" points="2.204,30.038 2.204,26.38 2.204,22.722 2.204,19.064 2.204,15.406 2.235,15.406 2.267,15.406 
				2.298,15.406 2.329,15.406 2.329,19.064 2.329,22.722 2.329,26.38 2.329,30.038 2.298,30.038 2.267,30.038 2.235,30.038 			"/>
			<polygon class="st206" points="2.079,30.038 2.079,26.38 2.079,22.722 2.079,19.064 2.079,15.406 2.11,15.406 2.141,15.406 
				2.173,15.406 2.204,15.406 2.204,19.064 2.204,22.722 2.204,26.38 2.204,30.038 2.173,30.038 2.141,30.038 2.11,30.038 			"/>
			<polygon class="st206" points="1.953,30.038 1.953,26.38 1.953,22.722 1.953,19.064 1.953,15.406 1.984,15.406 2.016,15.406 
				2.047,15.406 2.079,15.406 2.079,19.064 2.079,22.722 2.079,26.38 2.079,30.038 2.047,30.038 2.016,30.038 1.984,30.038 			"/>
			<polygon class="st207" points="1.828,30.038 1.828,26.38 1.828,22.722 1.828,19.064 1.828,15.406 1.859,15.406 1.89,15.406 
				1.922,15.406 1.953,15.406 1.953,19.064 1.953,22.722 1.953,26.38 1.953,30.038 1.922,30.038 1.89,30.038 1.859,30.038 			"/>
			<polygon class="st208" points="1.702,30.038 1.702,26.38 1.702,22.722 1.702,19.064 1.702,15.406 1.734,15.406 1.765,15.406 
				1.796,15.406 1.828,15.406 1.828,19.064 1.828,22.722 1.828,26.38 1.828,30.038 1.796,30.038 1.765,30.038 1.734,30.038 			"/>
			<polygon class="st209" points="1.577,30.038 1.577,26.38 1.577,22.722 1.577,19.064 1.577,15.406 1.608,15.406 1.64,15.406 
				1.671,15.406 1.702,15.406 1.702,19.064 1.702,22.722 1.702,26.38 1.702,30.038 1.671,30.038 1.64,30.038 1.608,30.038 			"/>
			<polygon class="st210" points="1.451,30.038 1.451,26.38 1.451,22.722 1.451,19.064 1.451,15.406 1.483,15.406 1.514,15.406 
				1.545,15.406 1.577,15.406 1.577,19.064 1.577,22.722 1.577,26.38 1.577,30.038 1.545,30.038 1.514,30.038 1.483,30.038 			"/>
			<polygon class="st211" points="1.326,30.038 1.326,26.38 1.326,22.722 1.326,19.064 1.326,15.406 1.357,15.406 1.389,15.406 
				1.42,15.406 1.451,15.406 1.451,19.064 1.451,22.722 1.451,26.38 1.451,30.038 1.42,30.038 1.389,30.038 1.357,30.038 			"/>
			<polygon class="st212" points="1.2,30.038 1.2,26.38 1.2,22.722 1.2,19.064 1.2,15.406 1.232,15.406 1.263,15.406 1.295,15.406 
				1.326,15.406 1.326,19.064 1.326,22.722 1.326,26.38 1.326,30.038 1.295,30.038 1.263,30.038 1.232,30.038 			"/>
			<polygon class="st213" points="1.075,30.038 1.075,26.38 1.075,22.722 1.075,19.064 1.075,15.406 1.106,15.406 1.138,15.406 
				1.169,15.406 1.2,15.406 1.2,19.064 1.2,22.722 1.2,26.38 1.2,30.038 1.169,30.038 1.138,30.038 1.106,30.038 			"/>
			<polygon class="st214" points="0.95,30.038 0.95,26.38 0.95,22.722 0.95,19.064 0.95,15.406 0.981,15.406 1.012,15.406 
				1.044,15.406 1.075,15.406 1.075,19.064 1.075,22.722 1.075,26.38 1.075,30.038 1.044,30.038 1.012,30.038 0.981,30.038 			"/>
			<polygon class="st215" points="0.824,30.038 0.824,26.38 0.824,22.722 0.824,19.064 0.824,15.406 0.855,15.406 0.887,15.406 
				0.918,15.406 0.95,15.406 0.95,19.064 0.95,22.722 0.95,26.38 0.95,30.038 0.918,30.038 0.887,30.038 0.855,30.038 			"/>
			<polygon class="st216" points="0.699,30.038 0.699,26.38 0.699,22.722 0.699,19.064 0.699,15.406 0.73,15.406 0.761,15.406 
				0.793,15.406 0.824,15.406 0.824,19.064 0.824,22.722 0.824,26.38 0.824,30.038 0.793,30.038 0.761,30.038 0.73,30.038 			"/>
			<polygon class="st217" points="0.573,30.038 0.573,26.38 0.573,22.722 0.573,19.064 0.573,15.406 0.605,15.406 0.636,15.406 
				0.667,15.406 0.699,15.406 0.699,19.064 0.699,22.722 0.699,26.38 0.699,30.038 0.667,30.038 0.636,30.038 0.605,30.038 			"/>
			<polygon class="st218" points="0.448,30.038 0.448,26.38 0.448,22.722 0.448,19.064 0.448,15.406 0.479,15.406 0.51,15.406 
				0.542,15.406 0.573,15.406 0.573,19.064 0.573,22.722 0.573,26.38 0.573,30.038 0.542,30.038 0.51,30.038 0.479,30.038 			"/>
			<polygon class="st219" points="0.448,15.406 0.448,19.064 0.448,22.722 0.448,26.38 0.448,30.038 0.416,30.038 0.385,30.038 
				0.354,30.038 0.322,30.038 0.322,26.38 0.322,22.722 0.322,19.064 0.322,15.406 0.354,15.406 0.385,15.406 0.416,15.406 			"/>
		</g>
	</g>
</g>
<g>
	<path class="st2" d="M10.032,4.916c0,0.15-0.01,0.29-0.029,0.422S9.953,5.592,9.914,5.705S9.825,5.922,9.766,6.017
		S9.639,6.198,9.56,6.274S9.394,6.418,9.297,6.476S9.094,6.581,8.979,6.619s-0.24,0.067-0.374,0.086S8.328,6.734,8.176,6.734H7.963
		H7.749H7.535H7.322V5.842V4.95V4.057V3.165h0.241h0.241h0.241h0.241c0.142,0,0.276,0.009,0.402,0.028S8.93,3.24,9.038,3.277
		S9.246,3.36,9.338,3.416s0.174,0.121,0.248,0.195C9.66,3.686,9.725,3.769,9.781,3.861s0.102,0.192,0.139,0.3
		s0.065,0.226,0.084,0.352S10.032,4.773,10.032,4.916z M9.761,4.926c0-0.128-0.008-0.248-0.024-0.36S9.696,4.35,9.663,4.253
		S9.59,4.069,9.541,3.989s-0.106-0.153-0.17-0.217C9.306,3.707,9.234,3.651,9.154,3.602S8.986,3.514,8.891,3.481
		S8.692,3.425,8.582,3.409S8.353,3.385,8.227,3.385H8.063H7.899H7.735H7.571v0.782V4.95v0.782v0.782h0.148h0.148h0.148h0.148
		c0.266,0,0.5-0.033,0.7-0.099s0.366-0.166,0.5-0.298s0.233-0.298,0.3-0.497S9.761,5.19,9.761,4.926z"/>
	<path class="st2" d="M10.757,3.343c0-0.039,0.003-0.073,0.01-0.103s0.016-0.054,0.029-0.073s0.029-0.034,0.048-0.044
		s0.042-0.015,0.067-0.015c0.013,0,0.024,0.001,0.036,0.004s0.022,0.006,0.032,0.011s0.019,0.011,0.028,0.019
		s0.016,0.017,0.024,0.027c0.007,0.01,0.013,0.021,0.019,0.034s0.01,0.026,0.013,0.04s0.006,0.03,0.008,0.047
		s0.003,0.034,0.003,0.053c0,0.018-0.001,0.036-0.003,0.052s-0.004,0.032-0.008,0.046s-0.008,0.028-0.013,0.04
		s-0.012,0.024-0.019,0.035c-0.007,0.01-0.015,0.02-0.024,0.028s-0.018,0.015-0.028,0.02s-0.02,0.009-0.032,0.012
		S10.923,3.58,10.911,3.58c-0.026,0-0.048-0.005-0.067-0.015s-0.035-0.025-0.048-0.044s-0.022-0.044-0.029-0.074
		S10.757,3.383,10.757,3.343z M11.033,6.734h-0.06h-0.06h-0.06h-0.06V6.071V5.407V4.744V4.08h0.06h0.06h0.06h0.06v0.664v0.664v0.664
		V6.734z"/>
	<path class="st2" d="M15.237,6.734V6.299V5.864V5.429V4.994c0-0.065-0.003-0.125-0.009-0.181s-0.016-0.108-0.028-0.155
		s-0.028-0.09-0.047-0.128s-0.041-0.072-0.066-0.102C15.06,4.398,15.031,4.372,15,4.35s-0.067-0.041-0.106-0.056
		s-0.081-0.026-0.126-0.034s-0.094-0.011-0.146-0.011c-0.068,0-0.132,0.005-0.191,0.014s-0.114,0.023-0.164,0.042
		s-0.096,0.042-0.137,0.07s-0.078,0.061-0.111,0.098s-0.061,0.08-0.086,0.128s-0.045,0.102-0.061,0.16s-0.028,0.123-0.037,0.193
		s-0.012,0.145-0.012,0.225v0.389v0.389v0.389v0.389h-0.062H13.7h-0.062h-0.062V6.281V5.827V5.374V4.92
		c0-0.112-0.013-0.21-0.038-0.294s-0.064-0.154-0.115-0.21s-0.115-0.098-0.192-0.126s-0.167-0.042-0.269-0.042
		c-0.07,0-0.134,0.005-0.195,0.015S12.651,4.29,12.601,4.31s-0.097,0.046-0.138,0.076s-0.078,0.066-0.109,0.106
		s-0.06,0.087-0.083,0.14s-0.044,0.111-0.06,0.176s-0.028,0.136-0.036,0.213s-0.012,0.16-0.012,0.249v0.366v0.366v0.366v0.366h-0.06
		h-0.06h-0.06h-0.06V6.071V5.407V4.744V4.08h0.05h0.05h0.05h0.05l0.013,0.091l0.013,0.091l0.013,0.091l0.013,0.091h0.004h0.004
		h0.004h0.004c0.018-0.033,0.039-0.064,0.061-0.093s0.046-0.057,0.072-0.082s0.054-0.049,0.084-0.071s0.062-0.042,0.096-0.06
		s0.068-0.034,0.104-0.047s0.072-0.025,0.109-0.034s0.075-0.016,0.114-0.02s0.079-0.007,0.119-0.007c0.105,0,0.2,0.01,0.286,0.029
		s0.162,0.049,0.23,0.088s0.125,0.088,0.173,0.147s0.087,0.127,0.117,0.206h0.002h0.002h0.002h0.002
		c0.022-0.038,0.045-0.073,0.07-0.107s0.052-0.065,0.081-0.094s0.06-0.056,0.092-0.081s0.067-0.047,0.104-0.068
		c0.036-0.02,0.074-0.038,0.113-0.053s0.079-0.028,0.121-0.038s0.084-0.018,0.128-0.023s0.089-0.008,0.135-0.008
		c0.072,0,0.14,0.005,0.204,0.014s0.122,0.024,0.177,0.044s0.104,0.044,0.149,0.073s0.086,0.063,0.122,0.102
		c0.036,0.039,0.068,0.083,0.095,0.133s0.05,0.106,0.068,0.167s0.032,0.128,0.041,0.201s0.014,0.151,0.014,0.235v0.434v0.434V6.3
		v0.434h-0.06h-0.06h-0.06H15.237z"/>
	<path class="st2" d="M18.335,6.568c0.038,0,0.075-0.001,0.111-0.002s0.07-0.004,0.104-0.007s0.066-0.007,0.096-0.012
		s0.061-0.011,0.089-0.017v0.049v0.049v0.049v0.049c-0.029,0.01-0.06,0.018-0.091,0.026s-0.064,0.013-0.098,0.018
		s-0.069,0.009-0.105,0.011s-0.073,0.004-0.111,0.004c-0.059,0-0.113-0.004-0.164-0.012s-0.098-0.02-0.141-0.035
		s-0.083-0.035-0.118-0.059s-0.067-0.051-0.095-0.082c-0.028-0.031-0.052-0.067-0.073-0.108S17.7,6.403,17.686,6.354
		s-0.024-0.103-0.031-0.161s-0.01-0.121-0.01-0.188V5.576V5.148V4.719V4.291h-0.098h-0.098h-0.098h-0.098V4.255V4.22V4.184V4.148
		l0.098-0.027l0.098-0.027l0.098-0.027l0.098-0.027l0.031-0.15l0.031-0.15l0.031-0.15l0.031-0.15h0.031h0.031h0.031h0.031v0.16v0.16
		v0.16v0.16h0.195h0.195h0.195h0.195v0.053v0.053v0.053v0.053h-0.195H18.28h-0.195H17.89v0.42v0.42v0.42v0.42
		c0,0.051,0.002,0.098,0.007,0.142s0.011,0.085,0.02,0.123s0.02,0.072,0.034,0.103s0.029,0.059,0.047,0.083s0.038,0.046,0.061,0.064
		s0.049,0.034,0.077,0.046s0.059,0.021,0.092,0.027S18.297,6.568,18.335,6.568z"/>
	<path class="st2" d="M21.504,5.404c0,0.108-0.007,0.21-0.02,0.307s-0.033,0.187-0.059,0.271s-0.059,0.163-0.098,0.236
		s-0.085,0.139-0.138,0.2s-0.11,0.114-0.172,0.16s-0.13,0.084-0.202,0.114s-0.15,0.053-0.232,0.069s-0.17,0.023-0.262,0.023
		c-0.058,0-0.115-0.004-0.169-0.011s-0.108-0.018-0.159-0.032s-0.101-0.032-0.149-0.053s-0.094-0.045-0.138-0.073
		c-0.044-0.028-0.086-0.06-0.125-0.094s-0.076-0.071-0.11-0.112s-0.065-0.084-0.094-0.13s-0.055-0.096-0.079-0.149
		c-0.024-0.052-0.044-0.107-0.062-0.163s-0.032-0.115-0.044-0.176s-0.021-0.123-0.027-0.188s-0.009-0.131-0.009-0.2
		c0-0.108,0.007-0.211,0.02-0.307s0.033-0.187,0.059-0.271s0.059-0.163,0.098-0.235s0.085-0.139,0.138-0.199
		c0.052-0.06,0.11-0.113,0.172-0.158s0.129-0.083,0.201-0.113s0.149-0.053,0.231-0.068s0.168-0.023,0.26-0.023
		c0.091,0,0.177,0.008,0.259,0.023s0.158,0.038,0.229,0.069s0.138,0.069,0.2,0.115s0.119,0.1,0.171,0.161
		c0.052,0.061,0.097,0.128,0.136,0.201s0.071,0.151,0.097,0.235s0.045,0.174,0.058,0.269S21.504,5.298,21.504,5.404z M19.409,5.404
		c0,0.091,0.005,0.177,0.015,0.258s0.025,0.157,0.045,0.228s0.045,0.137,0.075,0.198s0.065,0.117,0.105,0.168
		c0.04,0.051,0.084,0.096,0.133,0.134s0.101,0.07,0.157,0.096s0.117,0.045,0.182,0.058s0.134,0.019,0.207,0.019
		s0.142-0.006,0.207-0.019s0.126-0.032,0.182-0.058s0.109-0.058,0.157-0.096s0.093-0.083,0.133-0.134
		c0.04-0.051,0.075-0.107,0.105-0.168s0.055-0.127,0.075-0.198s0.035-0.147,0.045-0.228s0.015-0.167,0.015-0.258
		c0-0.092-0.005-0.178-0.015-0.26s-0.025-0.157-0.046-0.228s-0.046-0.137-0.076-0.198s-0.066-0.116-0.106-0.167
		c-0.041-0.051-0.085-0.095-0.134-0.133s-0.102-0.069-0.158-0.095s-0.118-0.044-0.183-0.057s-0.134-0.019-0.207-0.019
		s-0.142,0.006-0.207,0.019s-0.125,0.031-0.182,0.057s-0.109,0.057-0.157,0.094s-0.092,0.082-0.132,0.132
		c-0.04,0.05-0.074,0.106-0.104,0.166s-0.054,0.127-0.074,0.198s-0.035,0.147-0.045,0.229S19.409,5.312,19.409,5.404z"/>
	<path class="st2" d="M11.57,12.734h-0.051h-0.051h-0.051h-0.051l-0.196-0.688l-0.196-0.688l-0.196-0.688l-0.196-0.688
		c-0.016-0.057-0.031-0.111-0.046-0.162s-0.027-0.1-0.04-0.147s-0.023-0.09-0.034-0.131s-0.019-0.08-0.028-0.116
		c-0.006,0.035-0.014,0.072-0.022,0.11s-0.016,0.077-0.026,0.118s-0.019,0.083-0.03,0.126s-0.022,0.088-0.034,0.134
		c-0.012,0.046-0.038,0.139-0.076,0.28s-0.091,0.329-0.157,0.564s-0.145,0.518-0.237,0.848s-0.198,0.707-0.318,1.131H9.484H9.431
		H9.379H9.326l-0.245-0.892L8.835,10.95L8.59,10.057L8.345,9.165H8.41h0.065h0.065h0.065L8.762,9.74l0.156,0.575l0.156,0.575
		l0.156,0.575c0.006,0.023,0.012,0.046,0.018,0.068s0.012,0.044,0.017,0.066s0.011,0.043,0.017,0.063s0.011,0.041,0.016,0.061
		s0.01,0.039,0.015,0.058s0.01,0.038,0.015,0.056s0.009,0.037,0.014,0.054s0.009,0.035,0.013,0.053
		c0.004,0.017,0.008,0.034,0.012,0.051s0.008,0.034,0.012,0.05s0.008,0.033,0.011,0.05s0.007,0.033,0.011,0.049
		c0.004,0.016,0.007,0.032,0.01,0.048s0.007,0.032,0.01,0.048s0.006,0.032,0.009,0.049s0.006,0.033,0.009,0.049
		c0.01-0.055,0.022-0.118,0.038-0.188s0.033-0.147,0.054-0.231s0.044-0.175,0.07-0.274s0.055-0.204,0.087-0.317l0.153-0.541
		l0.153-0.541l0.153-0.541L10.3,9.165h0.069h0.069h0.069h0.069l0.179,0.621l0.179,0.621l0.179,0.621l0.179,0.621
		c0.021,0.072,0.04,0.14,0.058,0.204s0.034,0.126,0.049,0.184s0.028,0.112,0.04,0.163s0.022,0.098,0.031,0.142
		c0.005-0.029,0.011-0.059,0.017-0.089s0.012-0.061,0.019-0.092s0.014-0.063,0.022-0.095s0.015-0.064,0.024-0.097
		c0.008-0.033,0.03-0.117,0.066-0.25s0.085-0.317,0.148-0.551s0.139-0.518,0.229-0.852s0.194-0.718,0.311-1.153h0.063h0.063h0.063
		h0.063l-0.247,0.892l-0.247,0.892l-0.247,0.892L11.57,12.734z"/>
	<path class="st2" d="M14.736,12.734l-0.015-0.105l-0.015-0.105l-0.015-0.105l-0.015-0.105H14.67h-0.005h-0.005h-0.005
		c-0.033,0.043-0.067,0.082-0.101,0.119s-0.068,0.07-0.102,0.1s-0.069,0.057-0.104,0.081s-0.07,0.045-0.105,0.062
		c-0.035,0.018-0.072,0.033-0.11,0.047s-0.078,0.024-0.12,0.033s-0.085,0.015-0.13,0.02s-0.091,0.007-0.139,0.007
		c-0.065,0-0.127-0.004-0.184-0.012s-0.112-0.021-0.163-0.037s-0.098-0.038-0.141-0.063s-0.083-0.054-0.12-0.088
		s-0.068-0.07-0.095-0.11s-0.05-0.083-0.068-0.129s-0.032-0.095-0.041-0.148s-0.014-0.108-0.014-0.167
		c0-0.065,0.007-0.126,0.02-0.184s0.034-0.111,0.061-0.162s0.061-0.097,0.101-0.14s0.088-0.082,0.141-0.118
		c0.054-0.036,0.114-0.068,0.18-0.095s0.138-0.05,0.216-0.069s0.162-0.033,0.252-0.044s0.186-0.017,0.288-0.019l0.126-0.004
		l0.126-0.004l0.126-0.004l0.126-0.004V11.14v-0.044v-0.044v-0.044c0-0.063-0.003-0.122-0.01-0.177s-0.016-0.107-0.029-0.154
		s-0.029-0.091-0.048-0.131s-0.042-0.076-0.067-0.108c-0.026-0.032-0.055-0.06-0.089-0.085s-0.071-0.044-0.112-0.06
		s-0.087-0.028-0.136-0.036s-0.102-0.012-0.159-0.012c-0.061,0-0.123,0.004-0.186,0.013s-0.126,0.021-0.189,0.038
		s-0.128,0.038-0.193,0.064s-0.13,0.056-0.196,0.09l-0.023-0.052l-0.023-0.052l-0.023-0.052l-0.023-0.052
		c0.073-0.034,0.146-0.064,0.218-0.09s0.145-0.047,0.217-0.064s0.144-0.03,0.215-0.038s0.143-0.013,0.214-0.013
		c0.073,0,0.141,0.005,0.205,0.014s0.123,0.024,0.177,0.043s0.104,0.043,0.149,0.071s0.086,0.062,0.122,0.1
		c0.036,0.038,0.068,0.081,0.095,0.129s0.05,0.102,0.068,0.161s0.031,0.123,0.04,0.193s0.013,0.144,0.013,0.224v0.441v0.441v0.441
		v0.441H14.87h-0.045h-0.045H14.736z M13.76,12.564c0.071,0,0.138-0.005,0.201-0.015s0.123-0.025,0.179-0.046
		s0.108-0.046,0.156-0.076s0.093-0.066,0.134-0.106c0.041-0.041,0.077-0.085,0.108-0.133s0.056-0.101,0.077-0.157
		s0.036-0.116,0.046-0.18s0.015-0.132,0.015-0.204V11.58v-0.065V11.45v-0.065l-0.116,0.005l-0.116,0.005l-0.116,0.005l-0.116,0.005
		c-0.093,0.004-0.18,0.011-0.259,0.021s-0.153,0.021-0.219,0.036s-0.126,0.031-0.179,0.051s-0.1,0.042-0.139,0.066
		c-0.04,0.025-0.074,0.053-0.104,0.084s-0.054,0.066-0.074,0.105s-0.035,0.08-0.045,0.126s-0.015,0.094-0.015,0.146
		c0,0.042,0.003,0.081,0.01,0.118s0.016,0.071,0.029,0.104s0.029,0.062,0.048,0.09s0.041,0.053,0.067,0.076
		c0.025,0.023,0.053,0.043,0.084,0.06s0.064,0.032,0.1,0.043s0.074,0.02,0.116,0.026S13.713,12.564,13.76,12.564z"/>
	<path class="st2" d="M16.819,10.029c0.028,0,0.057,0.001,0.086,0.002s0.059,0.004,0.089,0.006s0.061,0.006,0.092,0.011
		s0.063,0.009,0.095,0.015l-0.012,0.058l-0.012,0.058l-0.012,0.058l-0.012,0.058c-0.028-0.007-0.056-0.013-0.084-0.018
		s-0.057-0.009-0.085-0.013s-0.058-0.006-0.087-0.008s-0.059-0.003-0.088-0.003c-0.057,0-0.111,0.006-0.162,0.018
		s-0.1,0.03-0.147,0.054s-0.09,0.054-0.132,0.09s-0.08,0.078-0.116,0.126s-0.068,0.099-0.095,0.154s-0.05,0.112-0.068,0.172
		s-0.032,0.124-0.041,0.191s-0.014,0.137-0.014,0.21v0.366v0.366v0.366v0.366h-0.06h-0.06h-0.06h-0.06v-0.664v-0.664v-0.664V10.08
		h0.051h0.051h0.051h0.051l0.006,0.12l0.006,0.12l0.006,0.12l0.006,0.12h0.004h0.004h0.004h0.004
		c0.027-0.049,0.055-0.094,0.083-0.136s0.057-0.079,0.086-0.114s0.059-0.065,0.089-0.092s0.06-0.05,0.091-0.07
		s0.063-0.037,0.098-0.052s0.07-0.027,0.107-0.037s0.077-0.017,0.117-0.022S16.775,10.029,16.819,10.029z"/>
	<path class="st2" d="M21.035,12.734v-0.435v-0.435v-0.435v-0.435c0-0.065-0.003-0.125-0.009-0.181s-0.016-0.108-0.028-0.155
		s-0.028-0.09-0.047-0.128s-0.041-0.072-0.066-0.102c-0.025-0.03-0.054-0.056-0.086-0.078s-0.067-0.041-0.106-0.056
		s-0.081-0.026-0.126-0.034s-0.094-0.011-0.146-0.011c-0.068,0-0.132,0.005-0.191,0.014s-0.114,0.023-0.164,0.042
		s-0.096,0.042-0.137,0.07s-0.078,0.061-0.111,0.098s-0.061,0.08-0.086,0.128s-0.045,0.102-0.061,0.16s-0.028,0.123-0.037,0.193
		s-0.012,0.145-0.012,0.225v0.389v0.389v0.389v0.389H19.56h-0.062h-0.062h-0.062v-0.454v-0.454v-0.454V10.92
		c0-0.112-0.013-0.21-0.038-0.294s-0.064-0.154-0.115-0.21s-0.115-0.098-0.192-0.126s-0.167-0.042-0.269-0.042
		c-0.07,0-0.134,0.005-0.195,0.015s-0.116,0.025-0.166,0.046s-0.097,0.046-0.138,0.076s-0.078,0.066-0.109,0.106
		s-0.06,0.087-0.083,0.14s-0.044,0.111-0.06,0.176s-0.028,0.136-0.036,0.213s-0.012,0.16-0.012,0.249v0.366v0.366v0.366v0.366h-0.06
		h-0.06h-0.06h-0.06v-0.664v-0.664v-0.664V10.08h0.05h0.05h0.05h0.05l0.013,0.091l0.013,0.091l0.013,0.091l0.013,0.091h0.004h0.004
		h0.004h0.004c0.018-0.033,0.039-0.064,0.061-0.093s0.046-0.057,0.072-0.082s0.054-0.049,0.084-0.071s0.062-0.042,0.096-0.06
		s0.068-0.034,0.104-0.047s0.072-0.025,0.109-0.034s0.075-0.016,0.114-0.02s0.079-0.007,0.119-0.007c0.105,0,0.2,0.01,0.286,0.029
		s0.162,0.049,0.23,0.088s0.125,0.088,0.173,0.147s0.087,0.127,0.117,0.206h0.002h0.002h0.002h0.002
		c0.022-0.038,0.045-0.073,0.07-0.107s0.052-0.065,0.081-0.094s0.06-0.056,0.092-0.081s0.067-0.047,0.104-0.068
		c0.036-0.02,0.074-0.038,0.113-0.053s0.079-0.028,0.121-0.038s0.084-0.018,0.128-0.023s0.089-0.008,0.135-0.008
		c0.072,0,0.14,0.005,0.204,0.014s0.122,0.024,0.177,0.044s0.104,0.044,0.149,0.073s0.086,0.063,0.122,0.102
		c0.036,0.039,0.068,0.083,0.095,0.133s0.05,0.106,0.068,0.167s0.032,0.128,0.041,0.201s0.014,0.151,0.014,0.235v0.434v0.434V12.3
		v0.434h-0.06h-0.06h-0.06H21.035z"/>
</g>
<g>
	<path class="st0" d="M29.819,29.824h-7.432h-7.432H7.523H0.091v-7.432V14.96V7.528V0.095h7.432h7.432h7.432h7.432v7.432v7.432
		v7.432V29.824z M0.341,29.574h7.307h7.307h7.307h7.307v-7.307V14.96V7.653V0.345h-7.307h-7.307H7.648H0.341v7.307v7.307v7.307
		V29.574z"/>
</g>
</svg>
