<?xml version="1.0" encoding="utf-8"?>
<!-- Generator: Adobe Illustrator 19.1.0, SVG Export Plug-In . SVG Version: 6.00 Build 0)  -->
<svg version="1.1" id="Layer_1" xmlns="http://www.w3.org/2000/svg" xmlns:xlink="http://www.w3.org/1999/xlink" x="0px" y="0px"
	 viewBox="0 0 29.91 30.086" style="enable-background:new 0 0 29.91 30.086;" xml:space="preserve">
<style type="text/css">
	.st0{fill:#4D4D4D;}
	.st1{fill-rule:evenodd;clip-rule:evenodd;fill:#4C4C4C;}
	.st2{fill:#4C4C4C;}
	.st3{fill:#383330;}
	.st4{fill:#1F1A17;}
	.st5{fill:#4D4C4C;}
	.st6{fill:none;stroke:#000000;stroke-width:0.3;stroke-miterlimit:10;}
	.st7{fill:#E61413;}
	.st8{fill:#5F5357;}
	.st9{fill:#115C78;}
	.st10{fill-rule:evenodd;clip-rule:evenodd;fill:#4D4D4D;}
	.st11{fill-rule:evenodd;clip-rule:evenodd;}
	.st12{fill:#FFFFFF;}
	.st13{fill:none;}
	.st14{fill:#231F20;}
	.st15{clip-path:url(#SVGID_2_);}
	.st16{clip-path:url(#SVGID_4_);fill:#FCF118;}
	.st17{clip-path:url(#SVGID_4_);fill:#FCF018;}
	.st18{clip-path:url(#SVGID_4_);fill:#FCEF18;}
	.st19{clip-path:url(#SVGID_4_);fill:#FCEE18;}
	.st20{clip-path:url(#SVGID_4_);fill:#FCED18;}
	.st21{clip-path:url(#SVGID_4_);fill:#FCEC18;}
	.st22{clip-path:url(#SVGID_4_);fill:#FCEB18;}
	.st23{clip-path:url(#SVGID_4_);fill:#FCEA18;}
	.st24{clip-path:url(#SVGID_4_);fill:#FCE918;}
	.st25{clip-path:url(#SVGID_4_);fill:#FCE818;}
	.st26{clip-path:url(#SVGID_4_);fill:#FCE718;}
	.st27{clip-path:url(#SVGID_4_);fill:#FCE617;}
	.st28{clip-path:url(#SVGID_4_);fill:#FCE517;}
	.st29{clip-path:url(#SVGID_4_);fill:#FCE417;}
	.st30{clip-path:url(#SVGID_4_);fill:#FCE317;}
	.st31{clip-path:url(#SVGID_4_);fill:#FCE217;}
	.st32{clip-path:url(#SVGID_4_);fill:#FCE117;}
	.st33{clip-path:url(#SVGID_4_);fill:#FCE017;}
	.st34{clip-path:url(#SVGID_4_);fill:#FCDF17;}
	.st35{clip-path:url(#SVGID_4_);fill:#FCDE17;}
	.st36{clip-path:url(#SVGID_4_);fill:#FCDD17;}
	.st37{clip-path:url(#SVGID_4_);fill:#FCDC17;}
	.st38{clip-path:url(#SVGID_4_);fill:#FCDB17;}
	.st39{clip-path:url(#SVGID_4_);fill:#FCDA17;}
	.st40{clip-path:url(#SVGID_4_);fill:#FCD917;}
	.st41{clip-path:url(#SVGID_4_);fill:#FCD817;}
	.st42{clip-path:url(#SVGID_4_);fill:#FCD717;}
	.st43{clip-path:url(#SVGID_4_);fill:#FCD617;}
	.st44{clip-path:url(#SVGID_4_);fill:#FCD517;}
	.st45{clip-path:url(#SVGID_4_);fill:#FCD416;}
	.st46{clip-path:url(#SVGID_4_);fill:#FCD316;}
	.st47{clip-path:url(#SVGID_4_);fill:#FBD216;}
	.st48{clip-path:url(#SVGID_4_);fill:#FBD116;}
	.st49{clip-path:url(#SVGID_4_);fill:#FBD016;}
	.st50{clip-path:url(#SVGID_4_);fill:#FBCF16;}
	.st51{clip-path:url(#SVGID_4_);fill:#FBCE16;}
	.st52{clip-path:url(#SVGID_4_);fill:#FBCD16;}
	.st53{clip-path:url(#SVGID_4_);fill:#FBCC16;}
	.st54{clip-path:url(#SVGID_4_);fill:#FBCB16;}
	.st55{clip-path:url(#SVGID_4_);fill:#FBCA16;}
	.st56{clip-path:url(#SVGID_4_);fill:#FBC916;}
	.st57{clip-path:url(#SVGID_4_);fill:#FBC816;}
	.st58{clip-path:url(#SVGID_4_);fill:#FBC716;}
	.st59{clip-path:url(#SVGID_4_);fill:#FBC616;}
	.st60{clip-path:url(#SVGID_4_);fill:#FBC516;}
	.st61{clip-path:url(#SVGID_4_);fill:#FBC416;}
	.st62{clip-path:url(#SVGID_4_);fill:#FBC316;}
	.st63{clip-path:url(#SVGID_4_);fill:#FBC216;}
	.st64{clip-path:url(#SVGID_4_);fill:#FBC115;}
	.st65{clip-path:url(#SVGID_4_);fill:#FBC015;}
	.st66{clip-path:url(#SVGID_4_);fill:#FBBF15;}
	.st67{clip-path:url(#SVGID_4_);fill:#FBBE15;}
	.st68{clip-path:url(#SVGID_4_);fill:#FBBD15;}
	.st69{clip-path:url(#SVGID_4_);fill:#FBBC15;}
	.st70{clip-path:url(#SVGID_4_);fill:#FBBB15;}
	.st71{clip-path:url(#SVGID_4_);fill:#FBBA15;}
	.st72{clip-path:url(#SVGID_4_);fill:#FBB915;}
	.st73{clip-path:url(#SVGID_4_);fill:#FBB815;}
	.st74{clip-path:url(#SVGID_4_);fill:#FBB715;}
	.st75{clip-path:url(#SVGID_4_);fill:#FBB615;}
	.st76{clip-path:url(#SVGID_4_);fill:#FBB515;}
	.st77{clip-path:url(#SVGID_4_);fill:#FBB415;}
	.st78{clip-path:url(#SVGID_4_);fill:#FBB315;}
	.st79{clip-path:url(#SVGID_4_);fill:#FBB215;}
	.st80{clip-path:url(#SVGID_4_);fill:#FBB115;}
	.st81{clip-path:url(#SVGID_4_);fill:#FBB015;}
	.st82{clip-path:url(#SVGID_4_);fill:#FBAF15;}
	.st83{clip-path:url(#SVGID_4_);fill:#FAAE15;}
	.st84{clip-path:url(#SVGID_4_);fill:#FAAD14;}
	.st85{clip-path:url(#SVGID_4_);fill:#FAAC14;}
	.st86{clip-path:url(#SVGID_4_);fill:#FAAB14;}
	.st87{clip-path:url(#SVGID_4_);fill:#FAAA14;}
	.st88{clip-path:url(#SVGID_4_);fill:#FAA914;}
	.st89{clip-path:url(#SVGID_4_);fill:#FAA814;}
	.st90{clip-path:url(#SVGID_4_);fill:#FAA714;}
	.st91{clip-path:url(#SVGID_4_);fill:#FAA614;}
	.st92{clip-path:url(#SVGID_4_);fill:#FAA514;}
	.st93{clip-path:url(#SVGID_4_);fill:#FAA414;}
	.st94{clip-path:url(#SVGID_4_);fill:#FAA314;}
	.st95{clip-path:url(#SVGID_4_);fill:#FAA214;}
	.st96{clip-path:url(#SVGID_4_);fill:#FAA114;}
	.st97{clip-path:url(#SVGID_4_);fill:#FAA014;}
	.st98{clip-path:url(#SVGID_4_);fill:#FA9F14;}
	.st99{clip-path:url(#SVGID_4_);fill:#FA9E14;}
	.st100{clip-path:url(#SVGID_4_);fill:#FA9D14;}
	.st101{clip-path:url(#SVGID_4_);fill:#FA9C14;}
	.st102{clip-path:url(#SVGID_4_);fill:#FA9B14;}
	.st103{clip-path:url(#SVGID_4_);fill:#FA9A13;}
	.st104{clip-path:url(#SVGID_4_);fill:#FA9913;}
	.st105{clip-path:url(#SVGID_4_);fill:#FA9813;}
	.st106{clip-path:url(#SVGID_4_);fill:#FA9713;}
	.st107{clip-path:url(#SVGID_4_);fill:#FA9613;}
	.st108{clip-path:url(#SVGID_4_);fill:#FA9513;}
	.st109{clip-path:url(#SVGID_4_);fill:#FA9413;}
	.st110{clip-path:url(#SVGID_4_);fill:#FA9313;}
	.st111{clip-path:url(#SVGID_4_);fill:#FA9213;}
	.st112{clip-path:url(#SVGID_4_);fill:#FA9113;}
	.st113{clip-path:url(#SVGID_4_);fill:#FA9013;}
	.st114{clip-path:url(#SVGID_4_);fill:#FA8F13;}
	.st115{clip-path:url(#SVGID_4_);fill:#FA8E13;}
	.st116{clip-path:url(#SVGID_4_);fill:#FA8D13;}
	.st117{clip-path:url(#SVGID_4_);fill:#FA8C13;}
	.st118{clip-path:url(#SVGID_4_);fill:#FA8B13;}
	.st119{clip-path:url(#SVGID_4_);fill:#FA8A13;}
	.st120{clip-path:url(#SVGID_4_);fill:#FA8913;}
	.st121{clip-path:url(#SVGID_4_);fill:#FA8812;}
	.st122{clip-path:url(#SVGID_4_);fill:#FA8712;}
	.st123{clip-path:url(#SVGID_4_);fill:#FA8612;}
	.st124{clip-path:url(#SVGID_4_);fill:#F98512;}
	.st125{clip-path:url(#SVGID_4_);fill:#F98412;}
	.st126{clip-path:url(#SVGID_4_);fill:#F98312;}
	.st127{clip-path:url(#SVGID_4_);fill:#F98212;}
	.st128{clip-path:url(#SVGID_4_);fill:#F98112;}
	.st129{clip-path:url(#SVGID_4_);fill:#F98012;}
	.st130{clip-path:url(#SVGID_4_);fill:#F97F12;}
	.st131{clip-path:url(#SVGID_4_);fill:#F97E12;}
	.st132{clip-path:url(#SVGID_4_);fill:#F97D12;}
	.st133{clip-path:url(#SVGID_4_);fill:#F97C12;}
	.st134{clip-path:url(#SVGID_4_);fill:#F97B12;}
	.st135{clip-path:url(#SVGID_4_);fill:#F97A12;}
	.st136{clip-path:url(#SVGID_4_);fill:#F97912;}
	.st137{clip-path:url(#SVGID_4_);fill:#F97812;}
	.st138{clip-path:url(#SVGID_4_);fill:#F97712;}
	.st139{clip-path:url(#SVGID_4_);fill:#F97612;}
	.st140{clip-path:url(#SVGID_4_);fill:#F97511;}
	.st141{clip-path:url(#SVGID_4_);fill:#F97411;}
	.st142{clip-path:url(#SVGID_4_);fill:#F97311;}
	.st143{clip-path:url(#SVGID_4_);fill:#F97211;}
	.st144{clip-path:url(#SVGID_4_);fill:#F97111;}
	.st145{clip-path:url(#SVGID_4_);fill:#F97011;}
	.st146{clip-path:url(#SVGID_4_);fill:#F96F11;}
	.st147{clip-path:url(#SVGID_4_);fill:#F96E11;}
	.st148{clip-path:url(#SVGID_4_);fill:#F96D11;}
	.st149{clip-path:url(#SVGID_4_);fill:#F96C11;}
	.st150{clip-path:url(#SVGID_4_);fill:#F96B11;}
	.st151{clip-path:url(#SVGID_4_);fill:#F96A11;}
	.st152{clip-path:url(#SVGID_4_);fill:#F96911;}
	.st153{clip-path:url(#SVGID_4_);fill:#F96811;}
	.st154{clip-path:url(#SVGID_4_);fill:#F96711;}
	.st155{clip-path:url(#SVGID_4_);fill:#F96611;}
	.st156{clip-path:url(#SVGID_4_);fill:#F96511;}
	.st157{clip-path:url(#SVGID_4_);fill:#F96411;}
	.st158{clip-path:url(#SVGID_4_);fill:#F96311;}
	.st159{clip-path:url(#SVGID_4_);fill:#F96210;}
	.st160{clip-path:url(#SVGID_4_);fill:#F86110;}
	.st161{clip-path:url(#SVGID_4_);fill:#F86010;}
	.st162{clip-path:url(#SVGID_4_);fill:#F85F10;}
	.st163{clip-path:url(#SVGID_4_);fill:#F85E10;}
	.st164{clip-path:url(#SVGID_4_);fill:#F85D10;}
	.st165{clip-path:url(#SVGID_4_);fill:#F85C10;}
	.st166{clip-path:url(#SVGID_4_);fill:#F85B10;}
	.st167{clip-path:url(#SVGID_4_);fill:#F85A10;}
	.st168{clip-path:url(#SVGID_4_);fill:#F85910;}
	.st169{clip-path:url(#SVGID_4_);fill:#F85810;}
	.st170{clip-path:url(#SVGID_4_);fill:#F85710;}
	.st171{clip-path:url(#SVGID_4_);fill:#F85610;}
	.st172{clip-path:url(#SVGID_4_);fill:#F85510;}
	.st173{clip-path:url(#SVGID_4_);fill:#F85410;}
	.st174{clip-path:url(#SVGID_4_);fill:#F85310;}
	.st175{clip-path:url(#SVGID_4_);fill:#F85210;}
	.st176{clip-path:url(#SVGID_4_);fill:#F85110;}
	.st177{clip-path:url(#SVGID_4_);fill:#F85010;}
	.st178{clip-path:url(#SVGID_4_);fill:#F84F0F;}
	.st179{clip-path:url(#SVGID_4_);fill:#F84E0F;}
	.st180{clip-path:url(#SVGID_4_);fill:#F84D0F;}
	.st181{clip-path:url(#SVGID_4_);fill:#F84C0F;}
	.st182{clip-path:url(#SVGID_4_);fill:#F84B0F;}
	.st183{clip-path:url(#SVGID_4_);fill:#F84A0F;}
	.st184{clip-path:url(#SVGID_4_);fill:#F8490F;}
	.st185{clip-path:url(#SVGID_4_);fill:#F8480F;}
	.st186{clip-path:url(#SVGID_4_);fill:#F8470F;}
	.st187{clip-path:url(#SVGID_4_);fill:#F8460F;}
	.st188{clip-path:url(#SVGID_4_);fill:#F8450F;}
	.st189{clip-path:url(#SVGID_4_);fill:#F8440F;}
	.st190{clip-path:url(#SVGID_4_);fill:#F8430F;}
	.st191{clip-path:url(#SVGID_4_);fill:#F8420F;}
	.st192{clip-path:url(#SVGID_4_);fill:#F8410F;}
	.st193{clip-path:url(#SVGID_4_);fill:#F8400F;}
	.st194{clip-path:url(#SVGID_4_);fill:#F83F0F;}
	.st195{clip-path:url(#SVGID_4_);fill:#F83E0E;}
	.st196{clip-path:url(#SVGID_4_);fill:#F83D0E;}
	.st197{clip-path:url(#SVGID_4_);fill:#F83C0E;}
	.st198{clip-path:url(#SVGID_4_);fill:#F83B0E;}
	.st199{clip-path:url(#SVGID_4_);fill:#F73A0E;}
	.st200{clip-path:url(#SVGID_4_);fill:#F7390E;}
	.st201{clip-path:url(#SVGID_4_);fill:#F7380E;}
	.st202{clip-path:url(#SVGID_4_);fill:#F7370E;}
	.st203{clip-path:url(#SVGID_4_);fill:#F7360E;}
	.st204{clip-path:url(#SVGID_4_);fill:#F7340E;}
	.st205{clip-path:url(#SVGID_4_);fill:#F7330E;}
	.st206{clip-path:url(#SVGID_4_);fill:#F7320E;}
	.st207{clip-path:url(#SVGID_4_);fill:#F7310E;}
	.st208{clip-path:url(#SVGID_4_);fill:#F7300E;}
	.st209{clip-path:url(#SVGID_4_);fill:#F72F0E;}
	.st210{clip-path:url(#SVGID_4_);fill:#F72E0E;}
	.st211{clip-path:url(#SVGID_4_);fill:#F72D0E;}
	.st212{clip-path:url(#SVGID_4_);fill:#F72C0E;}
	.st213{clip-path:url(#SVGID_4_);fill:#F72B0E;}
	.st214{clip-path:url(#SVGID_4_);fill:#F72B0D;}
	.st215{clip-path:url(#SVGID_4_);fill:#F72A0D;}
	.st216{clip-path:url(#SVGID_4_);fill:#F7290D;}
	.st217{clip-path:url(#SVGID_4_);fill:#F7280D;}
	.st218{clip-path:url(#SVGID_4_);fill:#F7270D;}
	.st219{clip-path:url(#SVGID_4_);fill:#F7260D;}
</style>
<g>
	<g>
		<path class="st0" d="M25.725,22.796v-0.05v-0.05v-0.05v-0.05V20.54v-2.056v-2.056v-2.056v-0.05v-0.05v-0.05v-0.05h0.05h0.05h0.05
			h0.05h0.127h0.127h0.127h0.127c0.015,0,0.029-0.003,0.042-0.009c0.013-0.006,0.025-0.013,0.034-0.023s0.018-0.022,0.023-0.035
			c0.005-0.013,0.009-0.027,0.009-0.042v-0.641v-0.641v-0.641V11.5c0-0.015-0.003-0.029-0.009-0.042
			c-0.005-0.013-0.013-0.025-0.023-0.035s-0.022-0.018-0.034-0.023c-0.013-0.006-0.027-0.009-0.042-0.009h-0.127H26.18h-0.127
			h-0.127h-0.05h-0.05h-0.05h-0.05v-0.05v-0.05v-0.05v-0.05V9.257V7.323V5.389V3.455c0-0.015-0.003-0.029-0.009-0.042
			c-0.006-0.013-0.013-0.025-0.023-0.035s-0.022-0.018-0.035-0.023c-0.013-0.006-0.027-0.009-0.042-0.009h-0.615h-0.615h-0.615
			h-0.615c-0.015,0-0.029,0.003-0.042,0.009s-0.025,0.013-0.035,0.023S23.063,3.4,23.057,3.413s-0.009,0.027-0.009,0.042v1.934
			v1.934v1.934v1.934v0.05v0.05v0.05v0.05h-0.05h-0.05h-0.05h-0.05H22.24h-0.608h-0.608h-0.608h-0.18h-0.18h-0.18h-0.18l0.154-0.093
			l0.154-0.093l0.154-0.093l0.154-0.093c0.232-0.14,0.44-0.306,0.623-0.492c0.182-0.187,0.338-0.395,0.466-0.619
			s0.225-0.464,0.292-0.715c0.066-0.251,0.101-0.514,0.101-0.782c0-0.382-0.08-0.852-0.229-1.343s-0.364-1.001-0.635-1.463
			s-0.597-0.878-0.965-1.177s-0.779-0.483-1.219-0.483c-0.44,0-0.851,0.184-1.219,0.483c-0.368,0.299-0.694,0.714-0.965,1.177
			s-0.487,0.973-0.635,1.463s-0.229,0.961-0.229,1.343c0,0.269,0.035,0.531,0.101,0.782s0.165,0.491,0.292,0.715
			s0.283,0.432,0.466,0.619c0.182,0.187,0.391,0.353,0.623,0.492l0.154,0.093l0.154,0.093l0.154,0.093l0.154,0.093h-0.18h-0.18
			h-0.18h-0.18h-1.338h-1.338h-1.338h-1.338h-0.18h-0.18h-0.18h-0.18l0.154-0.093l0.154-0.093l0.154-0.093l0.154-0.093
			c0.232-0.14,0.44-0.306,0.623-0.492s0.338-0.395,0.466-0.619s0.225-0.464,0.292-0.715s0.101-0.514,0.101-0.782
			c0-0.382-0.08-0.852-0.229-1.343s-0.364-1.001-0.635-1.463s-0.597-0.878-0.965-1.177s-0.779-0.483-1.219-0.483
			c-0.44,0-0.851,0.184-1.219,0.483S8.144,5.142,7.873,5.605C7.602,6.068,7.386,6.578,7.238,7.069S7.01,8.029,7.01,8.411
			c0,0.269,0.035,0.531,0.101,0.782s0.165,0.491,0.292,0.715s0.283,0.432,0.466,0.619c0.182,0.187,0.391,0.353,0.623,0.492
			l0.154,0.093l0.154,0.093l0.154,0.093l0.154,0.093h-0.18h-0.18h-0.18h-0.18H7.783H7.178H6.574H5.97H5.92H5.87H5.82H5.77v-0.05
			v-0.05v-0.05v-0.05V9.257V7.323V5.389V3.455c0-0.015-0.003-0.029-0.009-0.042S5.748,3.388,5.738,3.379S5.716,3.361,5.703,3.355
			S5.676,3.347,5.661,3.347H5.046H4.431H3.816H3.202c-0.015,0-0.029,0.003-0.042,0.009S3.135,3.369,3.125,3.379
			S3.107,3.4,3.102,3.413S3.093,3.44,3.093,3.455v1.934v1.934v1.934v1.934v0.05v0.05v0.05v0.05h-0.05h-0.05h-0.05h-0.05H2.762H2.631
			H2.5H2.369c-0.015,0-0.029,0.003-0.042,0.009s-0.025,0.013-0.034,0.023s-0.018,0.022-0.023,0.035S2.26,11.485,2.26,11.5v0.641
			v0.641v0.641v0.641c0,0.015,0.003,0.029,0.009,0.042s0.013,0.025,0.023,0.035s0.022,0.018,0.034,0.023s0.027,0.009,0.042,0.009
			H2.5h0.131h0.131h0.131h0.05h0.05h0.05h0.05v0.05v0.05v0.05v0.05v2.056v2.056v2.056v2.056v0.05v0.05v0.05v0.05h-0.05h-0.05h-0.05
			h-0.05H2.762H2.631H2.5H2.369c-0.015,0-0.029,0.003-0.042,0.009s-0.025,0.013-0.034,0.023s-0.018,0.022-0.023,0.035
			S2.26,22.889,2.26,22.904v0.641v0.641v0.641v0.641c0,0.015,0.003,0.029,0.009,0.042s0.013,0.025,0.023,0.035
			s0.022,0.018,0.034,0.023s0.027,0.009,0.042,0.009H2.5h0.131h0.131h0.131h0.05h0.05h0.05h0.05v0.05v0.05v0.05v0.05v0.436v0.436
			v0.436v0.436c0,0.015,0.003,0.029,0.009,0.042s0.013,0.025,0.023,0.035s0.022,0.018,0.035,0.023s0.027,0.009,0.042,0.009h0.615
			h0.615h0.615h0.615c0.015,0,0.029-0.003,0.042-0.009s0.025-0.013,0.035-0.023s0.018-0.022,0.023-0.035s0.009-0.027,0.009-0.042
			v-0.436v-0.436v-0.436v-0.436v-0.05v-0.05v-0.05v-0.05h0.05h0.05h0.05h0.05h4.22h4.22h4.22h4.22h0.05h0.05h0.05h0.05v0.05v0.05
			v0.05v0.05v0.436v0.436v0.436v0.436c0,0.015,0.003,0.029,0.009,0.042s0.013,0.025,0.023,0.035s0.022,0.018,0.035,0.023
			s0.027,0.009,0.042,0.009h0.615h0.615h0.615h0.615c0.015,0,0.029-0.003,0.042-0.009c0.013-0.006,0.025-0.013,0.035-0.023
			s0.018-0.022,0.023-0.035c0.006-0.013,0.009-0.027,0.009-0.042v-0.436v-0.436v-0.436v-0.436v-0.05v-0.05v-0.05v-0.05h0.05h0.05
			h0.05h0.05h0.127h0.127h0.127h0.127c0.015,0,0.029-0.003,0.042-0.009c0.013-0.006,0.025-0.013,0.034-0.023
			s0.018-0.022,0.023-0.035c0.005-0.013,0.009-0.027,0.009-0.042v-0.641v-0.641v-0.641v-0.641c0-0.015-0.003-0.029-0.009-0.042
			c-0.005-0.013-0.013-0.025-0.023-0.035s-0.022-0.018-0.034-0.023c-0.013-0.006-0.027-0.009-0.042-0.009h-0.127H26.18h-0.127
			h-0.127h-0.05h-0.05h-0.05H25.725z M23.266,11.191V9.334V7.477V5.621V3.764v-0.05v-0.05v-0.05v-0.05h0.05h0.05h0.05h0.05h0.461
			h0.461h0.461h0.461h0.05h0.05h0.05h0.05v0.05v0.05v0.05v0.05v1.857v1.857v1.857v1.857v0.05v0.05v0.05v0.05h-0.05h-0.05h-0.05
			h-0.05h-0.461h-0.461h-0.461h-0.461h-0.05h-0.05h-0.05h-0.05v-0.05v-0.05v-0.05V11.191z M15.916,8.411
			c0-0.41,0.081-0.88,0.226-1.355c0.145-0.475,0.355-0.955,0.613-1.384s0.564-0.806,0.901-1.076c0.337-0.27,0.706-0.433,1.09-0.433
			c0.384,0,0.752,0.163,1.09,0.433s0.643,0.648,0.901,1.076s0.468,0.909,0.613,1.384s0.226,0.946,0.226,1.355
			c0,0.39-0.079,0.762-0.223,1.1c-0.143,0.338-0.351,0.643-0.607,0.9s-0.561,0.464-0.9,0.607c-0.338,0.143-0.71,0.223-1.101,0.223
			s-0.762-0.079-1.101-0.223c-0.338-0.143-0.643-0.351-0.9-0.607s-0.464-0.561-0.607-0.9C15.995,9.173,15.916,8.801,15.916,8.411z
			 M7.227,8.411c0-0.41,0.081-0.88,0.226-1.355s0.355-0.955,0.613-1.384C8.324,5.244,8.63,4.866,8.967,4.596s0.706-0.433,1.09-0.433
			c0.384,0,0.752,0.163,1.09,0.433s0.643,0.648,0.901,1.076s0.468,0.909,0.613,1.384s0.226,0.946,0.226,1.355
			c0,0.39-0.079,0.762-0.223,1.1s-0.351,0.643-0.607,0.9s-0.561,0.464-0.9,0.607s-0.71,0.223-1.101,0.223s-0.762-0.079-1.101-0.223
			s-0.643-0.351-0.9-0.607C7.8,10.155,7.593,9.85,7.449,9.512S7.227,8.801,7.227,8.411z M3.31,11.191V9.334V7.477V5.621V3.764v-0.05
			v-0.05v-0.05v-0.05h0.05h0.05h0.05h0.05h0.461h0.461h0.461h0.461h0.05h0.05h0.05h0.05v0.05v0.05v0.05v0.05v1.857v1.857v1.857
			v1.857v0.05v0.05v0.05v0.05h-0.05h-0.05h-0.05h-0.05H4.892H4.431H3.971H3.51H3.46H3.41H3.36H3.31v-0.05v-0.05v-0.05V11.191z
			 M2.677,13.955h-0.05h-0.05h-0.05h-0.05v-0.05v-0.05v-0.05v-0.05v-0.487v-0.487v-0.487v-0.487v-0.05v-0.05v-0.05v-0.05h0.05h0.05
			h0.05h0.05h5.862h5.862h5.862h5.862h0.05h0.05h0.05h0.05v0.05v0.05v0.05v0.05v0.487v0.487v0.487v0.487v0.05v0.05v0.05v0.05h-0.05
			h-0.05h-0.05h-0.05h-5.862h-5.862H8.539H2.677z M25.508,14.172v0.05v0.05v0.05v0.05v2.056v2.056v2.056v2.056v0.05v0.05v0.05v0.05
			h-0.05h-0.05h-0.05h-0.05h-0.461h-0.461h-0.461h-0.461h-0.05h-0.05h-0.05h-0.05v-0.05v-0.05v-0.05v-0.05V20.54v-2.056v-2.056
			v-2.056v-0.05v-0.05v-0.05v-0.05h0.05h0.05h0.05h0.05h0.461h0.461h0.461h0.461h0.05h0.05h0.05H25.508z M20.424,22.429
			c0.214-0.142,0.407-0.308,0.576-0.493c0.169-0.185,0.313-0.389,0.43-0.607s0.208-0.45,0.27-0.692
			c0.061-0.242,0.093-0.493,0.093-0.748c0-0.382-0.08-0.852-0.229-1.343s-0.364-1.001-0.635-1.463s-0.597-0.878-0.965-1.177
			c-0.368-0.299-0.779-0.483-1.219-0.483c-0.44,0-0.851,0.184-1.219,0.483c-0.368,0.299-0.694,0.714-0.965,1.177
			s-0.487,0.973-0.635,1.463s-0.229,0.961-0.229,1.343c0,0.256,0.032,0.507,0.093,0.748c0.061,0.242,0.152,0.474,0.27,0.692
			s0.262,0.422,0.43,0.607c0.169,0.185,0.361,0.351,0.576,0.493l0.138,0.092l0.138,0.092l0.138,0.092l0.138,0.092h-0.166h-0.166
			h-0.166h-0.166h-1.278h-1.278h-1.278h-1.278h-0.166h-0.166h-0.166h-0.166l0.138-0.092l0.138-0.092l0.138-0.092l0.138-0.092
			c0.214-0.142,0.407-0.308,0.576-0.493c0.169-0.185,0.313-0.389,0.43-0.607s0.208-0.45,0.27-0.692
			c0.061-0.242,0.093-0.493,0.093-0.748c0-0.382-0.08-0.852-0.229-1.343s-0.364-1.001-0.635-1.463s-0.597-0.878-0.965-1.177
			c-0.368-0.299-0.779-0.483-1.219-0.483c-0.44,0-0.851,0.184-1.219,0.483c-0.368,0.299-0.694,0.714-0.965,1.177
			c-0.271,0.463-0.487,0.973-0.635,1.463S7.01,19.506,7.01,19.889c0,0.256,0.032,0.507,0.093,0.748
			c0.061,0.242,0.152,0.474,0.27,0.692s0.262,0.422,0.43,0.607c0.169,0.185,0.361,0.351,0.576,0.493l0.138,0.092l0.138,0.092
			l0.138,0.092l0.138,0.092H8.766H8.6H8.434H8.268H7.693H7.119H6.544H5.97H5.92H5.87H5.82H5.77v-0.05v-0.05v-0.05v-0.05V20.54
			v-2.056v-2.056v-2.056v-0.05v-0.05v-0.05v-0.05h0.05h0.05h0.05h0.05h4.22h4.22h4.22h4.22h0.05h0.05h0.05h0.05v0.05v0.05v0.05v0.05
			v2.056v2.056v2.056v2.056v0.05v0.05v0.05v0.05h-0.05h-0.05h-0.05h-0.05H22.27h-0.579h-0.579h-0.579h-0.166h-0.166h-0.166h-0.166
			l0.138-0.092l0.138-0.092l0.138-0.092L20.424,22.429z M18.746,22.719c-0.39,0-0.762-0.079-1.101-0.223
			c-0.338-0.143-0.643-0.351-0.9-0.607s-0.464-0.561-0.607-0.9c-0.143-0.338-0.223-0.71-0.223-1.1c0-0.41,0.081-0.88,0.226-1.355
			c0.145-0.475,0.355-0.955,0.613-1.384s0.564-0.806,0.901-1.076c0.337-0.27,0.706-0.433,1.09-0.433c0.384,0,0.752,0.163,1.09,0.433
			c0.337,0.27,0.643,0.648,0.901,1.076s0.468,0.909,0.613,1.384c0.145,0.475,0.226,0.946,0.226,1.355c0,0.39-0.079,0.762-0.223,1.1
			c-0.143,0.338-0.351,0.643-0.607,0.9s-0.561,0.464-0.9,0.607C19.508,22.639,19.136,22.719,18.746,22.719z M10.057,22.719
			c-0.39,0-0.762-0.079-1.101-0.223s-0.643-0.351-0.9-0.607c-0.256-0.256-0.464-0.561-0.607-0.9s-0.223-0.71-0.223-1.1
			c0-0.41,0.081-0.88,0.226-1.355c0.145-0.475,0.355-0.955,0.613-1.384c0.258-0.429,0.564-0.806,0.901-1.076
			c0.337-0.27,0.706-0.433,1.09-0.433c0.384,0,0.752,0.163,1.09,0.433c0.337,0.27,0.643,0.648,0.901,1.076s0.468,0.909,0.613,1.384
			c0.145,0.475,0.226,0.946,0.226,1.355c0,0.39-0.079,0.762-0.223,1.1s-0.351,0.643-0.607,0.9s-0.561,0.464-0.9,0.607
			S10.447,22.719,10.057,22.719z M5.552,14.172v0.05v0.05v0.05v0.05v2.056v2.056v2.056v2.056v0.05v0.05v0.05v0.05h-0.05h-0.05h-0.05
			h-0.05H4.892H4.431H3.971H3.51H3.46H3.41H3.36H3.31v-0.05v-0.05v-0.05v-0.05V20.54v-2.056v-2.056v-2.056v-0.05v-0.05v-0.05v-0.05
			h0.05h0.05h0.05h0.05h0.461h0.461h0.461h0.461h0.05h0.05h0.05H5.552z M5.552,25.777v0.359v0.359v0.359v0.359v0.05v0.05v0.05v0.05
			h-0.05h-0.05h-0.05h-0.05H4.892H4.431H3.971H3.51H3.46H3.41H3.36H3.31v-0.05v-0.05v-0.05v-0.05v-0.359v-0.359v-0.359v-0.359v-0.05
			v-0.05v-0.05v-0.05h0.05h0.05h0.05h0.05h0.461h0.461h0.461h0.461h0.05h0.05h0.05h0.05v0.05v0.05v0.05V25.777z M25.508,25.777
			v0.359v0.359v0.359v0.359v0.05v0.05v0.05v0.05h-0.05h-0.05h-0.05h-0.05h-0.461h-0.461h-0.461h-0.461h-0.05h-0.05h-0.05h-0.05
			v-0.05v-0.05v-0.05v-0.05v-0.359v-0.359v-0.359v-0.359v-0.05v-0.05v-0.05v-0.05h0.05h0.05h0.05h0.05h0.461h0.461h0.461h0.461h0.05
			h0.05h0.05h0.05v0.05v0.05v0.05V25.777z M26.325,23.013v0.05v0.05v0.05v0.05V23.7v0.487v0.487v0.487v0.05v0.05v0.05v0.05h-0.05
			h-0.05h-0.05h-0.05h-5.862h-5.862H8.539H2.677h-0.05h-0.05h-0.05h-0.05v-0.05v-0.05v-0.05v-0.05v-0.487v-0.487V23.7v-0.487v-0.05
			v-0.05v-0.05v-0.05h0.05h0.05h0.05h0.05h5.862h5.862h5.862h5.862h0.05h0.05h0.05H26.325z"/>
	</g>
</g>
<g>
	<g>
		<path d="M24.706,12.673h-0.16h-0.16h-0.16h-0.16c-0.015,0-0.029,0.003-0.042,0.009s-0.025,0.013-0.035,0.023
			s-0.018,0.022-0.023,0.035s-0.009,0.027-0.009,0.042c0,0.015,0.003,0.029,0.009,0.042s0.013,0.025,0.023,0.034
			s0.022,0.018,0.035,0.023s0.027,0.009,0.042,0.009h0.16h0.16h0.16h0.16c0.015,0,0.029-0.003,0.042-0.009
			c0.013-0.005,0.025-0.013,0.035-0.023s0.018-0.022,0.023-0.034c0.006-0.013,0.009-0.027,0.009-0.042
			c0-0.015-0.003-0.029-0.009-0.042c-0.006-0.013-0.013-0.025-0.023-0.035s-0.022-0.018-0.035-0.023
			C24.736,12.676,24.721,12.673,24.706,12.673z"/>
	</g>
</g>
<g>
	<g>
		<path d="M24.706,24.078h-0.16h-0.16h-0.16h-0.16c-0.015,0-0.029,0.003-0.042,0.009s-0.025,0.013-0.035,0.023
			s-0.018,0.022-0.023,0.035s-0.009,0.027-0.009,0.042c0,0.015,0.003,0.029,0.009,0.042c0.006,0.013,0.013,0.025,0.023,0.035
			s0.022,0.018,0.035,0.023c0.013,0.006,0.027,0.009,0.042,0.009h0.16h0.16h0.16h0.16c0.015,0,0.029-0.003,0.042-0.009
			c0.013-0.006,0.025-0.013,0.035-0.023s0.018-0.022,0.023-0.035c0.006-0.013,0.009-0.027,0.009-0.042
			c0-0.015-0.003-0.029-0.009-0.042c-0.006-0.013-0.013-0.025-0.023-0.035s-0.022-0.018-0.035-0.023
			C24.736,24.081,24.721,24.078,24.706,24.078z"/>
	</g>
</g>
<g>
	<g>
		<path d="M4.751,12.673h-0.16h-0.16h-0.16h-0.16c-0.015,0-0.029,0.003-0.042,0.009s-0.025,0.013-0.035,0.023
			s-0.018,0.022-0.023,0.035s-0.009,0.027-0.009,0.042c0,0.015,0.003,0.029,0.009,0.042s0.013,0.025,0.023,0.034
			s0.022,0.018,0.035,0.023s0.027,0.009,0.042,0.009h0.16h0.16h0.16h0.16c0.015,0,0.029-0.003,0.042-0.009s0.025-0.013,0.035-0.023
			s0.018-0.022,0.023-0.034s0.009-0.027,0.009-0.042c0-0.015-0.003-0.029-0.009-0.042s-0.013-0.025-0.023-0.035
			s-0.022-0.018-0.035-0.023S4.765,12.673,4.751,12.673z"/>
	</g>
</g>
<g>
	<g>
		<path d="M4.751,24.078h-0.16h-0.16h-0.16h-0.16c-0.015,0-0.029,0.003-0.042,0.009S4.045,24.1,4.035,24.109
			s-0.018,0.022-0.023,0.035s-0.009,0.027-0.009,0.042c0,0.015,0.003,0.029,0.009,0.042c0.006,0.013,0.013,0.025,0.023,0.035
			s0.022,0.018,0.035,0.023c0.013,0.006,0.027,0.009,0.042,0.009h0.16h0.16h0.16h0.16c0.015,0,0.029-0.003,0.042-0.009
			c0.013-0.006,0.025-0.013,0.035-0.023s0.018-0.022,0.023-0.035c0.006-0.013,0.009-0.027,0.009-0.042
			c0-0.015-0.003-0.029-0.009-0.042s-0.013-0.025-0.023-0.035s-0.022-0.018-0.035-0.023S4.765,24.078,4.751,24.078z"/>
	</g>
</g>
<g>
	<path class="st0" d="M29.819,30.02h-7.432h-7.432H7.523H0.091v-7.432v-7.432V7.723V0.291h7.432h7.432h7.432h7.432v7.432v7.432
		v7.432V30.02z M0.341,29.77h7.307h7.307h7.307h7.307v-7.307v-7.307V7.848V0.541h-7.307h-7.307H7.648H0.341v7.307v7.307v7.307V29.77
		z"/>
</g>
</svg>
