<?xml version="1.0" encoding="utf-8"?>
<!-- Generator: Adobe Illustrator 19.1.0, SVG Export Plug-In . SVG Version: 6.00 Build 0)  -->
<svg version="1.1" id="Layer_1" xmlns="http://www.w3.org/2000/svg" xmlns:xlink="http://www.w3.org/1999/xlink" x="0px" y="0px"
	 viewBox="0 0 29.91 30.086" style="enable-background:new 0 0 29.91 30.086;" xml:space="preserve">
<style type="text/css">
	.st0{fill:#4D4D4D;}
	.st1{fill-rule:evenodd;clip-rule:evenodd;fill:#4C4C4C;}
	.st2{fill:#4C4C4C;}
	.st3{fill:#383330;}
	.st4{fill:#1F1A17;}
	.st5{fill:#4D4C4C;}
	.st6{fill:none;stroke:#000000;stroke-width:0.3;stroke-miterlimit:10;}
	.st7{fill:#E61413;}
	.st8{fill:#5F5357;}
	.st9{fill:#115C78;}
	.st10{fill-rule:evenodd;clip-rule:evenodd;fill:#4D4D4D;}
	.st11{fill-rule:evenodd;clip-rule:evenodd;}
	.st12{fill:#FFFFFF;}
	.st13{fill:none;}
	.st14{fill:#231F20;}
	.st15{clip-path:url(#SVGID_2_);}
	.st16{clip-path:url(#SVGID_4_);fill:#FCF118;}
	.st17{clip-path:url(#SVGID_4_);fill:#FCF018;}
	.st18{clip-path:url(#SVGID_4_);fill:#FCEF18;}
	.st19{clip-path:url(#SVGID_4_);fill:#FCEE18;}
	.st20{clip-path:url(#SVGID_4_);fill:#FCED18;}
	.st21{clip-path:url(#SVGID_4_);fill:#FCEC18;}
	.st22{clip-path:url(#SVGID_4_);fill:#FCEB18;}
	.st23{clip-path:url(#SVGID_4_);fill:#FCEA18;}
	.st24{clip-path:url(#SVGID_4_);fill:#FCE918;}
	.st25{clip-path:url(#SVGID_4_);fill:#FCE818;}
	.st26{clip-path:url(#SVGID_4_);fill:#FCE718;}
	.st27{clip-path:url(#SVGID_4_);fill:#FCE617;}
	.st28{clip-path:url(#SVGID_4_);fill:#FCE517;}
	.st29{clip-path:url(#SVGID_4_);fill:#FCE417;}
	.st30{clip-path:url(#SVGID_4_);fill:#FCE317;}
	.st31{clip-path:url(#SVGID_4_);fill:#FCE217;}
	.st32{clip-path:url(#SVGID_4_);fill:#FCE117;}
	.st33{clip-path:url(#SVGID_4_);fill:#FCE017;}
	.st34{clip-path:url(#SVGID_4_);fill:#FCDF17;}
	.st35{clip-path:url(#SVGID_4_);fill:#FCDE17;}
	.st36{clip-path:url(#SVGID_4_);fill:#FCDD17;}
	.st37{clip-path:url(#SVGID_4_);fill:#FCDC17;}
	.st38{clip-path:url(#SVGID_4_);fill:#FCDB17;}
	.st39{clip-path:url(#SVGID_4_);fill:#FCDA17;}
	.st40{clip-path:url(#SVGID_4_);fill:#FCD917;}
	.st41{clip-path:url(#SVGID_4_);fill:#FCD817;}
	.st42{clip-path:url(#SVGID_4_);fill:#FCD717;}
	.st43{clip-path:url(#SVGID_4_);fill:#FCD617;}
	.st44{clip-path:url(#SVGID_4_);fill:#FCD517;}
	.st45{clip-path:url(#SVGID_4_);fill:#FCD416;}
	.st46{clip-path:url(#SVGID_4_);fill:#FCD316;}
	.st47{clip-path:url(#SVGID_4_);fill:#FBD216;}
	.st48{clip-path:url(#SVGID_4_);fill:#FBD116;}
	.st49{clip-path:url(#SVGID_4_);fill:#FBD016;}
	.st50{clip-path:url(#SVGID_4_);fill:#FBCF16;}
	.st51{clip-path:url(#SVGID_4_);fill:#FBCE16;}
	.st52{clip-path:url(#SVGID_4_);fill:#FBCD16;}
	.st53{clip-path:url(#SVGID_4_);fill:#FBCC16;}
	.st54{clip-path:url(#SVGID_4_);fill:#FBCB16;}
	.st55{clip-path:url(#SVGID_4_);fill:#FBCA16;}
	.st56{clip-path:url(#SVGID_4_);fill:#FBC916;}
	.st57{clip-path:url(#SVGID_4_);fill:#FBC816;}
	.st58{clip-path:url(#SVGID_4_);fill:#FBC716;}
	.st59{clip-path:url(#SVGID_4_);fill:#FBC616;}
	.st60{clip-path:url(#SVGID_4_);fill:#FBC516;}
	.st61{clip-path:url(#SVGID_4_);fill:#FBC416;}
	.st62{clip-path:url(#SVGID_4_);fill:#FBC316;}
	.st63{clip-path:url(#SVGID_4_);fill:#FBC216;}
	.st64{clip-path:url(#SVGID_4_);fill:#FBC115;}
	.st65{clip-path:url(#SVGID_4_);fill:#FBC015;}
	.st66{clip-path:url(#SVGID_4_);fill:#FBBF15;}
	.st67{clip-path:url(#SVGID_4_);fill:#FBBE15;}
	.st68{clip-path:url(#SVGID_4_);fill:#FBBD15;}
	.st69{clip-path:url(#SVGID_4_);fill:#FBBC15;}
	.st70{clip-path:url(#SVGID_4_);fill:#FBBB15;}
	.st71{clip-path:url(#SVGID_4_);fill:#FBBA15;}
	.st72{clip-path:url(#SVGID_4_);fill:#FBB915;}
	.st73{clip-path:url(#SVGID_4_);fill:#FBB815;}
	.st74{clip-path:url(#SVGID_4_);fill:#FBB715;}
	.st75{clip-path:url(#SVGID_4_);fill:#FBB615;}
	.st76{clip-path:url(#SVGID_4_);fill:#FBB515;}
	.st77{clip-path:url(#SVGID_4_);fill:#FBB415;}
	.st78{clip-path:url(#SVGID_4_);fill:#FBB315;}
	.st79{clip-path:url(#SVGID_4_);fill:#FBB215;}
	.st80{clip-path:url(#SVGID_4_);fill:#FBB115;}
	.st81{clip-path:url(#SVGID_4_);fill:#FBB015;}
	.st82{clip-path:url(#SVGID_4_);fill:#FBAF15;}
	.st83{clip-path:url(#SVGID_4_);fill:#FAAE15;}
	.st84{clip-path:url(#SVGID_4_);fill:#FAAD14;}
	.st85{clip-path:url(#SVGID_4_);fill:#FAAC14;}
	.st86{clip-path:url(#SVGID_4_);fill:#FAAB14;}
	.st87{clip-path:url(#SVGID_4_);fill:#FAAA14;}
	.st88{clip-path:url(#SVGID_4_);fill:#FAA914;}
	.st89{clip-path:url(#SVGID_4_);fill:#FAA814;}
	.st90{clip-path:url(#SVGID_4_);fill:#FAA714;}
	.st91{clip-path:url(#SVGID_4_);fill:#FAA614;}
	.st92{clip-path:url(#SVGID_4_);fill:#FAA514;}
	.st93{clip-path:url(#SVGID_4_);fill:#FAA414;}
	.st94{clip-path:url(#SVGID_4_);fill:#FAA314;}
	.st95{clip-path:url(#SVGID_4_);fill:#FAA214;}
	.st96{clip-path:url(#SVGID_4_);fill:#FAA114;}
	.st97{clip-path:url(#SVGID_4_);fill:#FAA014;}
	.st98{clip-path:url(#SVGID_4_);fill:#FA9F14;}
	.st99{clip-path:url(#SVGID_4_);fill:#FA9E14;}
	.st100{clip-path:url(#SVGID_4_);fill:#FA9D14;}
	.st101{clip-path:url(#SVGID_4_);fill:#FA9C14;}
	.st102{clip-path:url(#SVGID_4_);fill:#FA9B14;}
	.st103{clip-path:url(#SVGID_4_);fill:#FA9A13;}
	.st104{clip-path:url(#SVGID_4_);fill:#FA9913;}
	.st105{clip-path:url(#SVGID_4_);fill:#FA9813;}
	.st106{clip-path:url(#SVGID_4_);fill:#FA9713;}
	.st107{clip-path:url(#SVGID_4_);fill:#FA9613;}
	.st108{clip-path:url(#SVGID_4_);fill:#FA9513;}
	.st109{clip-path:url(#SVGID_4_);fill:#FA9413;}
	.st110{clip-path:url(#SVGID_4_);fill:#FA9313;}
	.st111{clip-path:url(#SVGID_4_);fill:#FA9213;}
	.st112{clip-path:url(#SVGID_4_);fill:#FA9113;}
	.st113{clip-path:url(#SVGID_4_);fill:#FA9013;}
	.st114{clip-path:url(#SVGID_4_);fill:#FA8F13;}
	.st115{clip-path:url(#SVGID_4_);fill:#FA8E13;}
	.st116{clip-path:url(#SVGID_4_);fill:#FA8D13;}
	.st117{clip-path:url(#SVGID_4_);fill:#FA8C13;}
	.st118{clip-path:url(#SVGID_4_);fill:#FA8B13;}
	.st119{clip-path:url(#SVGID_4_);fill:#FA8A13;}
	.st120{clip-path:url(#SVGID_4_);fill:#FA8913;}
	.st121{clip-path:url(#SVGID_4_);fill:#FA8812;}
	.st122{clip-path:url(#SVGID_4_);fill:#FA8712;}
	.st123{clip-path:url(#SVGID_4_);fill:#FA8612;}
	.st124{clip-path:url(#SVGID_4_);fill:#F98512;}
	.st125{clip-path:url(#SVGID_4_);fill:#F98412;}
	.st126{clip-path:url(#SVGID_4_);fill:#F98312;}
	.st127{clip-path:url(#SVGID_4_);fill:#F98212;}
	.st128{clip-path:url(#SVGID_4_);fill:#F98112;}
	.st129{clip-path:url(#SVGID_4_);fill:#F98012;}
	.st130{clip-path:url(#SVGID_4_);fill:#F97F12;}
	.st131{clip-path:url(#SVGID_4_);fill:#F97E12;}
	.st132{clip-path:url(#SVGID_4_);fill:#F97D12;}
	.st133{clip-path:url(#SVGID_4_);fill:#F97C12;}
	.st134{clip-path:url(#SVGID_4_);fill:#F97B12;}
	.st135{clip-path:url(#SVGID_4_);fill:#F97A12;}
	.st136{clip-path:url(#SVGID_4_);fill:#F97912;}
	.st137{clip-path:url(#SVGID_4_);fill:#F97812;}
	.st138{clip-path:url(#SVGID_4_);fill:#F97712;}
	.st139{clip-path:url(#SVGID_4_);fill:#F97612;}
	.st140{clip-path:url(#SVGID_4_);fill:#F97511;}
	.st141{clip-path:url(#SVGID_4_);fill:#F97411;}
	.st142{clip-path:url(#SVGID_4_);fill:#F97311;}
	.st143{clip-path:url(#SVGID_4_);fill:#F97211;}
	.st144{clip-path:url(#SVGID_4_);fill:#F97111;}
	.st145{clip-path:url(#SVGID_4_);fill:#F97011;}
	.st146{clip-path:url(#SVGID_4_);fill:#F96F11;}
	.st147{clip-path:url(#SVGID_4_);fill:#F96E11;}
	.st148{clip-path:url(#SVGID_4_);fill:#F96D11;}
	.st149{clip-path:url(#SVGID_4_);fill:#F96C11;}
	.st150{clip-path:url(#SVGID_4_);fill:#F96B11;}
	.st151{clip-path:url(#SVGID_4_);fill:#F96A11;}
	.st152{clip-path:url(#SVGID_4_);fill:#F96911;}
	.st153{clip-path:url(#SVGID_4_);fill:#F96811;}
	.st154{clip-path:url(#SVGID_4_);fill:#F96711;}
	.st155{clip-path:url(#SVGID_4_);fill:#F96611;}
	.st156{clip-path:url(#SVGID_4_);fill:#F96511;}
	.st157{clip-path:url(#SVGID_4_);fill:#F96411;}
	.st158{clip-path:url(#SVGID_4_);fill:#F96311;}
	.st159{clip-path:url(#SVGID_4_);fill:#F96210;}
	.st160{clip-path:url(#SVGID_4_);fill:#F86110;}
	.st161{clip-path:url(#SVGID_4_);fill:#F86010;}
	.st162{clip-path:url(#SVGID_4_);fill:#F85F10;}
	.st163{clip-path:url(#SVGID_4_);fill:#F85E10;}
	.st164{clip-path:url(#SVGID_4_);fill:#F85D10;}
	.st165{clip-path:url(#SVGID_4_);fill:#F85C10;}
	.st166{clip-path:url(#SVGID_4_);fill:#F85B10;}
	.st167{clip-path:url(#SVGID_4_);fill:#F85A10;}
	.st168{clip-path:url(#SVGID_4_);fill:#F85910;}
	.st169{clip-path:url(#SVGID_4_);fill:#F85810;}
	.st170{clip-path:url(#SVGID_4_);fill:#F85710;}
	.st171{clip-path:url(#SVGID_4_);fill:#F85610;}
	.st172{clip-path:url(#SVGID_4_);fill:#F85510;}
	.st173{clip-path:url(#SVGID_4_);fill:#F85410;}
	.st174{clip-path:url(#SVGID_4_);fill:#F85310;}
	.st175{clip-path:url(#SVGID_4_);fill:#F85210;}
	.st176{clip-path:url(#SVGID_4_);fill:#F85110;}
	.st177{clip-path:url(#SVGID_4_);fill:#F85010;}
	.st178{clip-path:url(#SVGID_4_);fill:#F84F0F;}
	.st179{clip-path:url(#SVGID_4_);fill:#F84E0F;}
	.st180{clip-path:url(#SVGID_4_);fill:#F84D0F;}
	.st181{clip-path:url(#SVGID_4_);fill:#F84C0F;}
	.st182{clip-path:url(#SVGID_4_);fill:#F84B0F;}
	.st183{clip-path:url(#SVGID_4_);fill:#F84A0F;}
	.st184{clip-path:url(#SVGID_4_);fill:#F8490F;}
	.st185{clip-path:url(#SVGID_4_);fill:#F8480F;}
	.st186{clip-path:url(#SVGID_4_);fill:#F8470F;}
	.st187{clip-path:url(#SVGID_4_);fill:#F8460F;}
	.st188{clip-path:url(#SVGID_4_);fill:#F8450F;}
	.st189{clip-path:url(#SVGID_4_);fill:#F8440F;}
	.st190{clip-path:url(#SVGID_4_);fill:#F8430F;}
	.st191{clip-path:url(#SVGID_4_);fill:#F8420F;}
	.st192{clip-path:url(#SVGID_4_);fill:#F8410F;}
	.st193{clip-path:url(#SVGID_4_);fill:#F8400F;}
	.st194{clip-path:url(#SVGID_4_);fill:#F83F0F;}
	.st195{clip-path:url(#SVGID_4_);fill:#F83E0E;}
	.st196{clip-path:url(#SVGID_4_);fill:#F83D0E;}
	.st197{clip-path:url(#SVGID_4_);fill:#F83C0E;}
	.st198{clip-path:url(#SVGID_4_);fill:#F83B0E;}
	.st199{clip-path:url(#SVGID_4_);fill:#F73A0E;}
	.st200{clip-path:url(#SVGID_4_);fill:#F7390E;}
	.st201{clip-path:url(#SVGID_4_);fill:#F7380E;}
	.st202{clip-path:url(#SVGID_4_);fill:#F7370E;}
	.st203{clip-path:url(#SVGID_4_);fill:#F7360E;}
	.st204{clip-path:url(#SVGID_4_);fill:#F7340E;}
	.st205{clip-path:url(#SVGID_4_);fill:#F7330E;}
	.st206{clip-path:url(#SVGID_4_);fill:#F7320E;}
	.st207{clip-path:url(#SVGID_4_);fill:#F7310E;}
	.st208{clip-path:url(#SVGID_4_);fill:#F7300E;}
	.st209{clip-path:url(#SVGID_4_);fill:#F72F0E;}
	.st210{clip-path:url(#SVGID_4_);fill:#F72E0E;}
	.st211{clip-path:url(#SVGID_4_);fill:#F72D0E;}
	.st212{clip-path:url(#SVGID_4_);fill:#F72C0E;}
	.st213{clip-path:url(#SVGID_4_);fill:#F72B0E;}
	.st214{clip-path:url(#SVGID_4_);fill:#F72B0D;}
	.st215{clip-path:url(#SVGID_4_);fill:#F72A0D;}
	.st216{clip-path:url(#SVGID_4_);fill:#F7290D;}
	.st217{clip-path:url(#SVGID_4_);fill:#F7280D;}
	.st218{clip-path:url(#SVGID_4_);fill:#F7270D;}
	.st219{clip-path:url(#SVGID_4_);fill:#F7260D;}
</style>
<g>
	<g>
		<path class="st0" d="M26.862,24.908h-0.324h-0.324h-0.324h-0.324h-0.083h-0.083h-0.083h-0.083v-0.083v-0.083v-0.083v-0.083v-0.757
			v-0.757v-0.757v-0.757c0-0.014-0.003-0.028-0.008-0.04s-0.013-0.023-0.022-0.033s-0.02-0.017-0.033-0.022s-0.026-0.008-0.04-0.008
			h-0.432h-0.432h-0.432h-0.432h-0.083h-0.083h-0.083h-0.083v-0.083v-0.083v-0.083v-0.083v-1.946v-1.946V15.28v-1.946
			c0-0.009-0.001-0.018-0.003-0.026s-0.006-0.017-0.01-0.024s-0.01-0.015-0.016-0.021s-0.013-0.012-0.021-0.016l-2.162-1.297
			l-2.162-1.297l-2.162-1.297l-2.162-1.297c-0.004-0.002-0.008-0.005-0.012-0.006s-0.009-0.003-0.013-0.005
			s-0.009-0.002-0.014-0.003s-0.009-0.001-0.014-0.001c-0.005,0-0.009,0-0.014,0.001s-0.009,0.002-0.014,0.003
			s-0.009,0.003-0.013,0.005s-0.008,0.004-0.012,0.006l-2.162,1.297l-2.162,1.297L7.78,11.949l-2.162,1.297
			c-0.008,0.005-0.015,0.01-0.021,0.016s-0.011,0.013-0.016,0.021s-0.008,0.016-0.01,0.024s-0.003,0.017-0.003,0.026v1.946v1.946
			v1.946v1.946v0.083v0.083v0.083v0.083H5.485H5.403H5.32H5.238H4.805H4.373H3.94H3.508c-0.014,0-0.028,0.003-0.04,0.008
			s-0.023,0.013-0.033,0.022s-0.017,0.02-0.022,0.033s-0.008,0.026-0.008,0.04v0.757v0.757v0.757v0.757v0.083v0.083v0.083v0.083
			H3.323H3.24H3.158H3.075H2.751H2.427H2.102H1.778c-0.014,0-0.028,0.003-0.04,0.008s-0.023,0.013-0.033,0.022
			s-0.017,0.02-0.022,0.033s-0.008,0.026-0.008,0.04s0.003,0.028,0.008,0.04s0.013,0.023,0.022,0.033s0.02,0.017,0.033,0.022
			s0.026,0.008,0.04,0.008h6.271h6.271h6.271h6.271c0.014,0,0.028-0.003,0.04-0.008s0.023-0.013,0.033-0.022s0.017-0.02,0.022-0.033
			s0.008-0.026,0.008-0.04s-0.003-0.028-0.008-0.04s-0.013-0.023-0.022-0.033s-0.02-0.017-0.033-0.022S26.876,24.908,26.862,24.908z
			 M17.017,14.631V13.59v-1.042v-1.042v-1.042v-0.146v-0.146v-0.146V9.882l0.125,0.075l0.125,0.075l0.125,0.075l0.125,0.075
			l1.297,0.778l1.297,0.778l1.297,0.778l1.297,0.778l0.04,0.024l0.04,0.024l0.04,0.024l0.04,0.024v0.047v0.047v0.047v0.047v0.263
			v0.263v0.263v0.263v0.083v0.083v0.083v0.083h-0.083h-0.083h-0.083h-0.083h-1.297h-1.297h-1.297h-1.297h-0.083h-0.083H17.1h-0.083
			v-0.083v-0.083v-0.083V14.631z M17.017,21.118v-0.432v-0.432v-0.432v-0.432v-0.082v-0.082v-0.082v-0.082H17.1h0.083h0.083h0.083
			h0.973h0.973h0.973h0.973c0.014,0,0.028-0.003,0.04-0.008c0.012-0.005,0.023-0.013,0.033-0.022s0.017-0.02,0.022-0.033
			c0.005-0.012,0.008-0.026,0.008-0.04c0-0.014-0.003-0.028-0.008-0.04s-0.013-0.023-0.022-0.033s-0.02-0.017-0.033-0.022
			s-0.026-0.008-0.04-0.008h-0.973h-0.973H18.32h-0.973h-0.083h-0.083H17.1h-0.083v-0.083v-0.083v-0.083v-0.083v-0.757V17.01v-0.757
			v-0.757v-0.083v-0.083v-0.083v-0.083H17.1h0.083h0.083h0.083h1.297h1.297h1.297h1.297h0.083h0.083h0.083h0.083v0.083v0.083v0.083
			v0.083v1.406v1.406v1.406v1.406v0.083v0.083v0.083v0.083h-0.083h-0.083h-0.083h-0.083h-1.297h-1.297h-1.297h-1.297h-0.083h-0.083
			H17.1h-0.083v-0.083v-0.083v-0.083V21.118z M11.622,21.983v0.649v0.649v0.649v0.649v0.083v0.083v0.083v0.083H11.54h-0.083h-0.083
			h-0.083H9.454H7.616H5.778H3.94H3.858H3.775H3.693H3.61v-0.083v-0.083v-0.083v-0.083v-0.216v-0.216V23.93v-0.216v-0.083v-0.083
			v-0.083v-0.083h0.083h0.083h0.083H3.94h0.541h0.541h0.541h0.541c0.014,0,0.028-0.003,0.04-0.008s0.023-0.013,0.033-0.022
			s0.017-0.02,0.022-0.033s0.008-0.026,0.008-0.04c0-0.014-0.003-0.028-0.008-0.04c-0.005-0.012-0.013-0.023-0.022-0.033
			s-0.02-0.017-0.033-0.022c-0.012-0.005-0.026-0.008-0.04-0.008H5.562H5.022H4.481H3.94H3.858H3.775H3.693H3.61v-0.082v-0.082
			v-0.082v-0.082v-0.216v-0.216V22.2v-0.216v-0.082v-0.082v-0.082v-0.082h0.083h0.083h0.083H3.94h1.838h1.838h1.838h1.838h0.083
			h0.083h0.083h0.083v0.082v0.082v0.082V21.983z M11.622,19.389v0.432v0.432v0.432v0.432v0.083v0.083v0.083v0.083H11.54h-0.083
			h-0.083h-0.083H9.995H8.698H7.4H6.103H6.02H5.938H5.855H5.773v-0.083v-0.083v-0.083v-0.083v-0.432v-0.432v-0.432v-0.432v-0.082
			v-0.082v-0.082v-0.082h0.083h0.083H6.02h0.083H7.4h1.297h1.297h1.297h0.083h0.083h0.083h0.083v0.082v0.082v0.082V19.389z
			 M11.622,10.465v1.042v1.042v1.042v1.042v0.083v0.083v0.083v0.083H11.54h-0.083h-0.083h-0.083h-0.973H9.346H8.373H7.4
			c-0.014,0-0.028,0.003-0.04,0.008s-0.023,0.013-0.033,0.022s-0.017,0.02-0.022,0.033s-0.008,0.026-0.008,0.04
			s0.003,0.028,0.008,0.04s0.013,0.023,0.022,0.033s0.02,0.017,0.033,0.022s0.026,0.008,0.04,0.008h0.973h0.973h0.973h0.973h0.083
			h0.083h0.083h0.083v0.083v0.083v0.083v0.083v0.757v0.757v0.757v0.757v0.083v0.083v0.083v0.083H11.54h-0.083h-0.083h-0.083H9.995
			H8.698H7.4H6.103H6.02H5.938H5.855H5.773v-0.083v-0.083v-0.083v-0.083v-1.236v-1.236v-1.236v-1.236v-0.047v-0.047v-0.047v-0.047
			l0.04-0.024l0.04-0.024l0.04-0.024l0.04-0.024l1.297-0.778l1.297-0.778l1.297-0.778l1.297-0.778l0.125-0.075l0.125-0.075
			l0.125-0.075l0.125-0.075v0.146v0.146v0.146V10.465z M16.812,19.389v1.297v1.297v1.297v1.297v0.083v0.083v0.083v0.083H16.73
			h-0.083h-0.083h-0.083h-1.081H14.32h-1.081h-1.081h-0.083h-0.083H11.91h-0.083v-0.083v-0.083v-0.083v-0.083v-1.297v-1.297v-1.297
			v-1.297v-0.082v-0.082v-0.082v-0.082h0.083h0.083h0.083h0.083h1.081h1.081h1.081h1.081h0.083h0.083h0.083h0.083v0.082v0.082v0.082
			V19.389z M16.812,15.496v0.757v0.757v0.757v0.757v0.083v0.083v0.083v0.083H16.73h-0.083h-0.083h-0.083h-1.081H14.32h-1.081h-1.081
			h-0.083h-0.083H11.91h-0.083v-0.083v-0.083v-0.083v-0.083v-0.757V17.01v-0.757v-0.757v-0.083v-0.083v-0.083v-0.083h0.083h0.083
			h0.083h0.083h1.081h1.081h1.081h1.081h0.083h0.083h0.083h0.083v0.083v0.083v0.083V15.496z M16.812,9.946v1.171v1.171v1.171v1.171
			v0.083v0.083v0.083v0.083H16.73h-0.083h-0.083h-0.083h-1.081H14.32h-1.081h-1.081h-0.083h-0.083H11.91h-0.083v-0.083v-0.083
			v-0.083v-0.083V13.46v-1.171v-1.171V9.946V9.899V9.852V9.806V9.759l0.04-0.024l0.04-0.024l0.04-0.024l0.04-0.024l0.541-0.324
			l0.541-0.324l0.541-0.324l0.541-0.324l0.042-0.025l0.042-0.025l0.042-0.025l0.042-0.025l0.042,0.025l0.042,0.025l0.042,0.025
			l0.042,0.025L15.03,8.69l0.541,0.324l0.541,0.324l0.541,0.324l0.04,0.024l0.04,0.024l0.04,0.024l0.04,0.024v0.047v0.047v0.047
			V9.946z M25.029,21.983v0.649v0.649v0.649v0.649v0.083v0.083v0.083v0.083h-0.083h-0.083h-0.083h-0.083h-1.838h-1.838h-1.838
			h-1.838h-0.083h-0.083H17.1h-0.083v-0.083v-0.083v-0.083v-0.083v-0.216v-0.216V23.93v-0.216v-0.083v-0.083v-0.083v-0.083H17.1
			h0.083h0.083h0.083h0.541h0.541h0.541h0.541c0.014,0,0.028-0.003,0.04-0.008c0.012-0.005,0.023-0.013,0.033-0.022
			s0.017-0.02,0.022-0.033c0.005-0.012,0.008-0.026,0.008-0.04c0-0.014-0.003-0.028-0.008-0.04
			c-0.005-0.012-0.013-0.023-0.022-0.033s-0.02-0.017-0.033-0.022c-0.012-0.005-0.026-0.008-0.04-0.008h-0.541h-0.541h-0.541h-0.541
			h-0.083h-0.083H17.1h-0.083v-0.082v-0.082v-0.082v-0.082v-0.216v-0.216V22.2v-0.216v-0.082v-0.082v-0.082v-0.082H17.1h0.083h0.083
			h0.083h1.838h1.838h1.838h1.838h0.083h0.083h0.083h0.083v0.082v0.082v0.082V21.983z"/>
	</g>
	<g>
		<path class="st0" d="M5.67,26.638H4.697H3.724H2.751H1.778c-0.014,0-0.028,0.003-0.04,0.008s-0.023,0.013-0.033,0.022
			s-0.017,0.02-0.022,0.033s-0.008,0.026-0.008,0.04c0,0.014,0.003,0.028,0.008,0.04c0.005,0.012,0.013,0.023,0.022,0.033
			s0.02,0.017,0.033,0.022c0.012,0.005,0.026,0.008,0.04,0.008h0.973h0.973h0.973H5.67c0.014,0,0.028-0.003,0.04-0.008
			c0.012-0.005,0.023-0.013,0.033-0.022s0.017-0.02,0.022-0.033c0.005-0.012,0.008-0.026,0.008-0.04c0-0.014-0.003-0.028-0.008-0.04
			s-0.013-0.023-0.022-0.033s-0.02-0.017-0.033-0.022S5.684,26.638,5.67,26.638z"/>
	</g>
	<g>
		<path class="st0" d="M26.862,26.638h-4.865h-4.865h-4.865H7.4c-0.014,0-0.028,0.003-0.04,0.008s-0.023,0.013-0.033,0.022
			s-0.017,0.02-0.022,0.033s-0.008,0.026-0.008,0.04c0,0.014,0.003,0.028,0.008,0.04c0.005,0.012,0.013,0.023,0.022,0.033
			s0.02,0.017,0.033,0.022c0.012,0.005,0.026,0.008,0.04,0.008h4.865h4.865h4.865h4.865c0.014,0,0.028-0.003,0.04-0.008
			c0.012-0.005,0.023-0.013,0.033-0.022s0.017-0.02,0.022-0.033c0.005-0.012,0.008-0.026,0.008-0.04c0-0.014-0.003-0.028-0.008-0.04
			s-0.013-0.023-0.022-0.033s-0.02-0.017-0.033-0.022S26.876,26.638,26.862,26.638z"/>
	</g>
	<g>
		<path class="st0" d="M9.995,23.178H9.454H8.914H8.373H7.833c-0.014,0-0.028,0.003-0.04,0.008
			c-0.012,0.005-0.023,0.013-0.033,0.022s-0.017,0.02-0.022,0.033c-0.005,0.012-0.008,0.026-0.008,0.04
			c0,0.014,0.003,0.028,0.008,0.04s0.013,0.023,0.022,0.033s0.02,0.017,0.033,0.022s0.026,0.008,0.04,0.008h0.541h0.541h0.541h0.541
			c0.014,0,0.028-0.003,0.04-0.008s0.023-0.013,0.033-0.022s0.017-0.02,0.022-0.033s0.008-0.026,0.008-0.04
			c0-0.014-0.003-0.028-0.008-0.04c-0.005-0.012-0.013-0.023-0.022-0.033s-0.02-0.017-0.033-0.022
			C10.023,23.181,10.009,23.178,9.995,23.178z"/>
	</g>
	<g>
		<path class="st0" d="M23.402,23.178h-0.541h-0.541H21.78h-0.541c-0.014,0-0.028,0.003-0.04,0.008
			c-0.012,0.005-0.023,0.013-0.033,0.022s-0.017,0.02-0.022,0.033c-0.005,0.012-0.008,0.026-0.008,0.04
			c0,0.014,0.003,0.028,0.008,0.04c0.005,0.012,0.013,0.023,0.022,0.033s0.02,0.017,0.033,0.022c0.012,0.005,0.026,0.008,0.04,0.008
			h0.541h0.541h0.541h0.541c0.014,0,0.028-0.003,0.04-0.008c0.012-0.005,0.023-0.013,0.033-0.022s0.017-0.02,0.022-0.033
			c0.005-0.012,0.008-0.026,0.008-0.04c0-0.014-0.003-0.028-0.008-0.04c-0.005-0.012-0.013-0.023-0.022-0.033
			s-0.02-0.017-0.033-0.022C23.429,23.181,23.416,23.178,23.402,23.178z"/>
	</g>
	<g>
		<path class="st0" d="M22.537,8.247c0.312,0,0.61-0.063,0.881-0.178s0.515-0.281,0.72-0.486s0.371-0.449,0.486-0.72
			s0.178-0.569,0.178-0.881s-0.063-0.61-0.178-0.881c-0.115-0.271-0.281-0.515-0.486-0.72s-0.449-0.371-0.72-0.486
			c-0.271-0.115-0.569-0.178-0.881-0.178s-0.61,0.063-0.881,0.178c-0.271,0.115-0.515,0.281-0.72,0.486s-0.371,0.449-0.486,0.72
			c-0.115,0.271-0.178,0.569-0.178,0.881c0,0.312,0.064,0.609,0.179,0.88s0.281,0.515,0.486,0.72s0.449,0.371,0.72,0.486
			S22.225,8.246,22.537,8.247z M22.537,3.922c0.284,0,0.555,0.058,0.801,0.162s0.468,0.255,0.655,0.442s0.338,0.408,0.442,0.655
			s0.162,0.517,0.162,0.801s-0.058,0.555-0.162,0.801s-0.255,0.468-0.442,0.655s-0.408,0.337-0.655,0.442s-0.517,0.162-0.801,0.162
			c-0.284,0-0.555-0.058-0.801-0.162c-0.246-0.104-0.468-0.255-0.655-0.442s-0.337-0.408-0.442-0.655
			c-0.104-0.246-0.162-0.517-0.162-0.801s0.058-0.555,0.162-0.801c0.104-0.246,0.255-0.468,0.442-0.655s0.408-0.337,0.655-0.442
			C21.982,3.98,22.253,3.922,22.537,3.922z"/>
	</g>
	<g>
		<path class="st0" d="M22.537,2.192c0.014,0,0.028-0.003,0.04-0.008s0.023-0.013,0.033-0.022s0.017-0.02,0.022-0.033
			s0.008-0.026,0.008-0.04V1.981V1.873V1.765V1.657c0-0.014-0.003-0.028-0.008-0.04s-0.013-0.023-0.022-0.033
			s-0.02-0.017-0.033-0.022s-0.026-0.008-0.04-0.008c-0.014,0-0.028,0.003-0.04,0.008c-0.012,0.005-0.023,0.013-0.033,0.022
			s-0.017,0.02-0.022,0.033c-0.005,0.012-0.008,0.026-0.008,0.04v0.108v0.108v0.108V2.09c0,0.014,0.003,0.028,0.008,0.04
			c0.005,0.012,0.013,0.023,0.022,0.033s0.02,0.017,0.033,0.022C22.509,2.189,22.523,2.192,22.537,2.192z"/>
	</g>
	<g>
		<path class="st0" d="M19.712,3.302c0.006,0.006,0.012,0.011,0.018,0.016c0.006,0.004,0.013,0.008,0.019,0.011
			s0.013,0.005,0.02,0.007c0.007,0.001,0.014,0.002,0.021,0.002c0.015-0.003,0.029-0.007,0.04-0.012
			c0.011-0.005,0.021-0.011,0.029-0.017s0.014-0.014,0.019-0.022c0.005-0.008,0.008-0.016,0.011-0.025
			c0.002-0.009,0.003-0.018,0.003-0.027c0-0.009-0.001-0.018-0.004-0.027s-0.006-0.017-0.011-0.025
			c-0.005-0.008-0.01-0.015-0.017-0.021l-0.077-0.077l-0.077-0.077l-0.077-0.077l-0.077-0.077c-0.005-0.005-0.011-0.009-0.016-0.012
			c-0.006-0.003-0.012-0.006-0.018-0.008S19.505,2.828,19.5,2.828c-0.006-0.001-0.011-0.001-0.016-0.001
			c-0.004,0-0.009,0-0.014,0.001s-0.012,0.002-0.018,0.004s-0.013,0.005-0.02,0.009s-0.014,0.009-0.02,0.016
			c-0.01,0.01-0.017,0.021-0.022,0.033c-0.005,0.012-0.008,0.025-0.008,0.038s0.002,0.026,0.007,0.038
			C19.394,2.979,19.401,2.99,19.41,3l0.075,0.075l0.075,0.075l0.075,0.075L19.712,3.302z"/>
	</g>
	<g>
		<path class="st0" d="M18.212,6.084h0.108h0.108h0.108h0.108c0.014,0,0.028-0.003,0.04-0.008s0.023-0.013,0.033-0.022
			s0.017-0.02,0.022-0.033s0.008-0.026,0.008-0.04s-0.003-0.028-0.008-0.04s-0.013-0.023-0.022-0.033s-0.02-0.017-0.033-0.022
			s-0.026-0.008-0.04-0.008h-0.108h-0.108H18.32h-0.108c-0.014,0-0.028,0.003-0.04,0.008S18.149,5.9,18.14,5.909
			s-0.017,0.02-0.022,0.033s-0.008,0.026-0.008,0.04s0.003,0.028,0.008,0.04s0.013,0.023,0.022,0.033s0.02,0.017,0.033,0.022
			S18.198,6.084,18.212,6.084z"/>
	</g>
	<g>
		<path class="st0" d="M19.465,9.145c0.011,0,0.02-0.001,0.028-0.002s0.016-0.003,0.022-0.006s0.012-0.005,0.018-0.009
			s0.01-0.007,0.014-0.012l0.077-0.077l0.077-0.077l0.077-0.077l0.077-0.077c0.009-0.009,0.015-0.02,0.019-0.031
			c0.004-0.012,0.006-0.024,0.006-0.037S19.879,8.712,19.874,8.7c-0.005-0.012-0.012-0.023-0.022-0.033
			c-0.007-0.007-0.013-0.012-0.02-0.016s-0.014-0.007-0.02-0.009s-0.013-0.003-0.018-0.004s-0.01-0.001-0.014-0.001
			c-0.005,0-0.01,0-0.016,0.001s-0.012,0.002-0.018,0.004s-0.013,0.005-0.019,0.009s-0.013,0.009-0.019,0.015l-0.075,0.075
			l-0.075,0.075l-0.075,0.075l-0.075,0.075c-0.008,0.007-0.014,0.015-0.019,0.024s-0.009,0.017-0.012,0.026
			s-0.004,0.018-0.004,0.027s0.001,0.018,0.003,0.027c0.002,0.009,0.006,0.017,0.01,0.025s0.01,0.015,0.016,0.021
			s0.013,0.012,0.021,0.016s0.016,0.008,0.025,0.01c0.002,0,0.003,0,0.005,0c0.002,0,0.003,0,0.004,0s0.003,0,0.004,0
			C19.462,9.145,19.464,9.145,19.465,9.145z"/>
	</g>
	<g>
		<path class="st0" d="M22.434,9.874v0.108v0.108v0.108v0.108c0,0.014,0.003,0.028,0.008,0.04c0.005,0.012,0.013,0.023,0.022,0.033
			s0.02,0.017,0.033,0.022c0.012,0.005,0.026,0.008,0.04,0.008c0.014,0,0.028-0.003,0.04-0.008s0.023-0.013,0.033-0.022
			s0.017-0.02,0.022-0.033s0.008-0.026,0.008-0.04v-0.108V10.09V9.982V9.874c0-0.014-0.003-0.028-0.008-0.04
			s-0.013-0.023-0.022-0.033s-0.02-0.017-0.033-0.022s-0.026-0.008-0.04-0.008c-0.014,0-0.028,0.003-0.04,0.008
			c-0.012,0.005-0.023,0.013-0.033,0.022s-0.017,0.02-0.022,0.033C22.437,9.847,22.434,9.86,22.434,9.874z"/>
	</g>
	<g>
		<path class="st0" d="M25.522,9.112c0.006,0.006,0.012,0.011,0.018,0.016s0.013,0.008,0.019,0.011s0.013,0.005,0.02,0.007
			s0.014,0.002,0.021,0.002c0.015-0.003,0.029-0.007,0.04-0.012c0.011-0.005,0.021-0.011,0.029-0.017s0.014-0.014,0.019-0.022
			c0.005-0.008,0.008-0.016,0.011-0.025c0.002-0.009,0.003-0.018,0.003-0.027c0-0.009-0.001-0.018-0.004-0.027
			s-0.006-0.017-0.011-0.025c-0.005-0.008-0.01-0.015-0.017-0.021l-0.077-0.077l-0.077-0.077l-0.077-0.077l-0.077-0.077
			c-0.007-0.007-0.013-0.012-0.02-0.016s-0.014-0.007-0.02-0.009s-0.013-0.003-0.018-0.004s-0.01-0.001-0.014-0.001
			c-0.005,0-0.01,0-0.016,0.001c-0.006,0.001-0.012,0.002-0.018,0.004s-0.013,0.005-0.019,0.009
			c-0.006,0.004-0.013,0.009-0.019,0.015c-0.005,0.005-0.009,0.01-0.013,0.016c-0.004,0.006-0.007,0.011-0.009,0.018
			s-0.004,0.013-0.006,0.019c-0.001,0.007-0.002,0.013-0.002,0.02c0,0.007,0.001,0.014,0.002,0.02
			c0.001,0.007,0.003,0.013,0.006,0.019s0.006,0.012,0.009,0.018c0.004,0.006,0.008,0.011,0.013,0.016l0.076,0.076l0.076,0.076
			l0.076,0.076L25.522,9.112z"/>
	</g>
	<g>
		<path class="st0" d="M26.429,6.084h0.108h0.108h0.108h0.108c0.014,0,0.028-0.003,0.04-0.008s0.023-0.013,0.033-0.022
			s0.017-0.02,0.022-0.033s0.008-0.026,0.008-0.04s-0.003-0.028-0.008-0.04s-0.013-0.023-0.022-0.033s-0.02-0.017-0.033-0.022
			s-0.026-0.008-0.04-0.008h-0.108h-0.108h-0.108h-0.108c-0.014,0-0.028,0.003-0.04,0.008c-0.012,0.005-0.023,0.013-0.033,0.022
			s-0.017,0.02-0.022,0.033c-0.005,0.012-0.008,0.026-0.008,0.04s0.003,0.028,0.008,0.04c0.005,0.012,0.013,0.023,0.022,0.033
			s0.02,0.017,0.033,0.022C26.401,6.081,26.415,6.084,26.429,6.084z"/>
	</g>
	<g>
		<path class="st0" d="M25.361,3.303l0.077-0.077l0.077-0.077l0.077-0.077l0.077-0.077c0.008-0.007,0.014-0.015,0.019-0.024
			s0.009-0.017,0.012-0.026s0.004-0.018,0.004-0.027s-0.001-0.018-0.003-0.027c-0.002-0.009-0.006-0.017-0.01-0.025
			c-0.005-0.008-0.01-0.015-0.016-0.021s-0.013-0.012-0.021-0.016c-0.008-0.005-0.016-0.008-0.025-0.01L25.62,2.819l-0.006-0.001
			l-0.006-0.001L25.6,2.816c-0.007,0-0.014,0.001-0.02,0.002s-0.013,0.003-0.02,0.006s-0.012,0.006-0.018,0.01
			s-0.011,0.008-0.016,0.013l-0.077,0.077l-0.077,0.077L25.294,3.08l-0.077,0.077c-0.007,0.007-0.013,0.016-0.018,0.024
			S25.191,3.2,25.189,3.21s-0.002,0.02-0.001,0.03s0.003,0.02,0.007,0.029c0.004,0.01,0.009,0.018,0.016,0.026
			s0.014,0.014,0.022,0.02s0.017,0.01,0.027,0.013s0.02,0.004,0.03,0.004c0.007,0,0.014-0.001,0.02-0.002
			c0.007-0.001,0.013-0.003,0.019-0.006s0.012-0.006,0.017-0.009C25.351,3.312,25.356,3.307,25.361,3.303z"/>
	</g>
</g>
</svg>
