<?xml version="1.0" encoding="utf-8"?>
<!-- Generator: Adobe Illustrator 19.1.0, SVG Export Plug-In . SVG Version: 6.00 Build 0)  -->
<svg version="1.1" id="Layer_1" xmlns="http://www.w3.org/2000/svg" xmlns:xlink="http://www.w3.org/1999/xlink" x="0px" y="0px"
	 viewBox="0 0 29.91 30.086" style="enable-background:new 0 0 29.91 30.086;" xml:space="preserve">
<style type="text/css">
	.st0{fill:#4D4D4D;}
	.st1{fill-rule:evenodd;clip-rule:evenodd;fill:#4C4C4C;}
	.st2{fill:#4C4C4C;}
	.st3{fill:#383330;}
	.st4{fill:#1F1A17;}
	.st5{fill:#4D4C4C;}
	.st6{fill:none;stroke:#000000;stroke-width:0.3;stroke-miterlimit:10;}
	.st7{fill:#E61413;}
	.st8{fill:#5F5357;}
	.st9{fill:#115C78;}
	.st10{fill-rule:evenodd;clip-rule:evenodd;fill:#4D4D4D;}
	.st11{fill-rule:evenodd;clip-rule:evenodd;}
	.st12{fill:#FFFFFF;}
	.st13{fill:none;}
	.st14{fill:#231F20;}
	.st15{clip-path:url(#SVGID_2_);}
	.st16{clip-path:url(#SVGID_4_);fill:#FCF118;}
	.st17{clip-path:url(#SVGID_4_);fill:#FCF018;}
	.st18{clip-path:url(#SVGID_4_);fill:#FCEF18;}
	.st19{clip-path:url(#SVGID_4_);fill:#FCEE18;}
	.st20{clip-path:url(#SVGID_4_);fill:#FCED18;}
	.st21{clip-path:url(#SVGID_4_);fill:#FCEC18;}
	.st22{clip-path:url(#SVGID_4_);fill:#FCEB18;}
	.st23{clip-path:url(#SVGID_4_);fill:#FCEA18;}
	.st24{clip-path:url(#SVGID_4_);fill:#FCE918;}
	.st25{clip-path:url(#SVGID_4_);fill:#FCE818;}
	.st26{clip-path:url(#SVGID_4_);fill:#FCE718;}
	.st27{clip-path:url(#SVGID_4_);fill:#FCE617;}
	.st28{clip-path:url(#SVGID_4_);fill:#FCE517;}
	.st29{clip-path:url(#SVGID_4_);fill:#FCE417;}
	.st30{clip-path:url(#SVGID_4_);fill:#FCE317;}
	.st31{clip-path:url(#SVGID_4_);fill:#FCE217;}
	.st32{clip-path:url(#SVGID_4_);fill:#FCE117;}
	.st33{clip-path:url(#SVGID_4_);fill:#FCE017;}
	.st34{clip-path:url(#SVGID_4_);fill:#FCDF17;}
	.st35{clip-path:url(#SVGID_4_);fill:#FCDE17;}
	.st36{clip-path:url(#SVGID_4_);fill:#FCDD17;}
	.st37{clip-path:url(#SVGID_4_);fill:#FCDC17;}
	.st38{clip-path:url(#SVGID_4_);fill:#FCDB17;}
	.st39{clip-path:url(#SVGID_4_);fill:#FCDA17;}
	.st40{clip-path:url(#SVGID_4_);fill:#FCD917;}
	.st41{clip-path:url(#SVGID_4_);fill:#FCD817;}
	.st42{clip-path:url(#SVGID_4_);fill:#FCD717;}
	.st43{clip-path:url(#SVGID_4_);fill:#FCD617;}
	.st44{clip-path:url(#SVGID_4_);fill:#FCD517;}
	.st45{clip-path:url(#SVGID_4_);fill:#FCD416;}
	.st46{clip-path:url(#SVGID_4_);fill:#FCD316;}
	.st47{clip-path:url(#SVGID_4_);fill:#FBD216;}
	.st48{clip-path:url(#SVGID_4_);fill:#FBD116;}
	.st49{clip-path:url(#SVGID_4_);fill:#FBD016;}
	.st50{clip-path:url(#SVGID_4_);fill:#FBCF16;}
	.st51{clip-path:url(#SVGID_4_);fill:#FBCE16;}
	.st52{clip-path:url(#SVGID_4_);fill:#FBCD16;}
	.st53{clip-path:url(#SVGID_4_);fill:#FBCC16;}
	.st54{clip-path:url(#SVGID_4_);fill:#FBCB16;}
	.st55{clip-path:url(#SVGID_4_);fill:#FBCA16;}
	.st56{clip-path:url(#SVGID_4_);fill:#FBC916;}
	.st57{clip-path:url(#SVGID_4_);fill:#FBC816;}
	.st58{clip-path:url(#SVGID_4_);fill:#FBC716;}
	.st59{clip-path:url(#SVGID_4_);fill:#FBC616;}
	.st60{clip-path:url(#SVGID_4_);fill:#FBC516;}
	.st61{clip-path:url(#SVGID_4_);fill:#FBC416;}
	.st62{clip-path:url(#SVGID_4_);fill:#FBC316;}
	.st63{clip-path:url(#SVGID_4_);fill:#FBC216;}
	.st64{clip-path:url(#SVGID_4_);fill:#FBC115;}
	.st65{clip-path:url(#SVGID_4_);fill:#FBC015;}
	.st66{clip-path:url(#SVGID_4_);fill:#FBBF15;}
	.st67{clip-path:url(#SVGID_4_);fill:#FBBE15;}
	.st68{clip-path:url(#SVGID_4_);fill:#FBBD15;}
	.st69{clip-path:url(#SVGID_4_);fill:#FBBC15;}
	.st70{clip-path:url(#SVGID_4_);fill:#FBBB15;}
	.st71{clip-path:url(#SVGID_4_);fill:#FBBA15;}
	.st72{clip-path:url(#SVGID_4_);fill:#FBB915;}
	.st73{clip-path:url(#SVGID_4_);fill:#FBB815;}
	.st74{clip-path:url(#SVGID_4_);fill:#FBB715;}
	.st75{clip-path:url(#SVGID_4_);fill:#FBB615;}
	.st76{clip-path:url(#SVGID_4_);fill:#FBB515;}
	.st77{clip-path:url(#SVGID_4_);fill:#FBB415;}
	.st78{clip-path:url(#SVGID_4_);fill:#FBB315;}
	.st79{clip-path:url(#SVGID_4_);fill:#FBB215;}
	.st80{clip-path:url(#SVGID_4_);fill:#FBB115;}
	.st81{clip-path:url(#SVGID_4_);fill:#FBB015;}
	.st82{clip-path:url(#SVGID_4_);fill:#FBAF15;}
	.st83{clip-path:url(#SVGID_4_);fill:#FAAE15;}
	.st84{clip-path:url(#SVGID_4_);fill:#FAAD14;}
	.st85{clip-path:url(#SVGID_4_);fill:#FAAC14;}
	.st86{clip-path:url(#SVGID_4_);fill:#FAAB14;}
	.st87{clip-path:url(#SVGID_4_);fill:#FAAA14;}
	.st88{clip-path:url(#SVGID_4_);fill:#FAA914;}
	.st89{clip-path:url(#SVGID_4_);fill:#FAA814;}
	.st90{clip-path:url(#SVGID_4_);fill:#FAA714;}
	.st91{clip-path:url(#SVGID_4_);fill:#FAA614;}
	.st92{clip-path:url(#SVGID_4_);fill:#FAA514;}
	.st93{clip-path:url(#SVGID_4_);fill:#FAA414;}
	.st94{clip-path:url(#SVGID_4_);fill:#FAA314;}
	.st95{clip-path:url(#SVGID_4_);fill:#FAA214;}
	.st96{clip-path:url(#SVGID_4_);fill:#FAA114;}
	.st97{clip-path:url(#SVGID_4_);fill:#FAA014;}
	.st98{clip-path:url(#SVGID_4_);fill:#FA9F14;}
	.st99{clip-path:url(#SVGID_4_);fill:#FA9E14;}
	.st100{clip-path:url(#SVGID_4_);fill:#FA9D14;}
	.st101{clip-path:url(#SVGID_4_);fill:#FA9C14;}
	.st102{clip-path:url(#SVGID_4_);fill:#FA9B14;}
	.st103{clip-path:url(#SVGID_4_);fill:#FA9A13;}
	.st104{clip-path:url(#SVGID_4_);fill:#FA9913;}
	.st105{clip-path:url(#SVGID_4_);fill:#FA9813;}
	.st106{clip-path:url(#SVGID_4_);fill:#FA9713;}
	.st107{clip-path:url(#SVGID_4_);fill:#FA9613;}
	.st108{clip-path:url(#SVGID_4_);fill:#FA9513;}
	.st109{clip-path:url(#SVGID_4_);fill:#FA9413;}
	.st110{clip-path:url(#SVGID_4_);fill:#FA9313;}
	.st111{clip-path:url(#SVGID_4_);fill:#FA9213;}
	.st112{clip-path:url(#SVGID_4_);fill:#FA9113;}
	.st113{clip-path:url(#SVGID_4_);fill:#FA9013;}
	.st114{clip-path:url(#SVGID_4_);fill:#FA8F13;}
	.st115{clip-path:url(#SVGID_4_);fill:#FA8E13;}
	.st116{clip-path:url(#SVGID_4_);fill:#FA8D13;}
	.st117{clip-path:url(#SVGID_4_);fill:#FA8C13;}
	.st118{clip-path:url(#SVGID_4_);fill:#FA8B13;}
	.st119{clip-path:url(#SVGID_4_);fill:#FA8A13;}
	.st120{clip-path:url(#SVGID_4_);fill:#FA8913;}
	.st121{clip-path:url(#SVGID_4_);fill:#FA8812;}
	.st122{clip-path:url(#SVGID_4_);fill:#FA8712;}
	.st123{clip-path:url(#SVGID_4_);fill:#FA8612;}
	.st124{clip-path:url(#SVGID_4_);fill:#F98512;}
	.st125{clip-path:url(#SVGID_4_);fill:#F98412;}
	.st126{clip-path:url(#SVGID_4_);fill:#F98312;}
	.st127{clip-path:url(#SVGID_4_);fill:#F98212;}
	.st128{clip-path:url(#SVGID_4_);fill:#F98112;}
	.st129{clip-path:url(#SVGID_4_);fill:#F98012;}
	.st130{clip-path:url(#SVGID_4_);fill:#F97F12;}
	.st131{clip-path:url(#SVGID_4_);fill:#F97E12;}
	.st132{clip-path:url(#SVGID_4_);fill:#F97D12;}
	.st133{clip-path:url(#SVGID_4_);fill:#F97C12;}
	.st134{clip-path:url(#SVGID_4_);fill:#F97B12;}
	.st135{clip-path:url(#SVGID_4_);fill:#F97A12;}
	.st136{clip-path:url(#SVGID_4_);fill:#F97912;}
	.st137{clip-path:url(#SVGID_4_);fill:#F97812;}
	.st138{clip-path:url(#SVGID_4_);fill:#F97712;}
	.st139{clip-path:url(#SVGID_4_);fill:#F97612;}
	.st140{clip-path:url(#SVGID_4_);fill:#F97511;}
	.st141{clip-path:url(#SVGID_4_);fill:#F97411;}
	.st142{clip-path:url(#SVGID_4_);fill:#F97311;}
	.st143{clip-path:url(#SVGID_4_);fill:#F97211;}
	.st144{clip-path:url(#SVGID_4_);fill:#F97111;}
	.st145{clip-path:url(#SVGID_4_);fill:#F97011;}
	.st146{clip-path:url(#SVGID_4_);fill:#F96F11;}
	.st147{clip-path:url(#SVGID_4_);fill:#F96E11;}
	.st148{clip-path:url(#SVGID_4_);fill:#F96D11;}
	.st149{clip-path:url(#SVGID_4_);fill:#F96C11;}
	.st150{clip-path:url(#SVGID_4_);fill:#F96B11;}
	.st151{clip-path:url(#SVGID_4_);fill:#F96A11;}
	.st152{clip-path:url(#SVGID_4_);fill:#F96911;}
	.st153{clip-path:url(#SVGID_4_);fill:#F96811;}
	.st154{clip-path:url(#SVGID_4_);fill:#F96711;}
	.st155{clip-path:url(#SVGID_4_);fill:#F96611;}
	.st156{clip-path:url(#SVGID_4_);fill:#F96511;}
	.st157{clip-path:url(#SVGID_4_);fill:#F96411;}
	.st158{clip-path:url(#SVGID_4_);fill:#F96311;}
	.st159{clip-path:url(#SVGID_4_);fill:#F96210;}
	.st160{clip-path:url(#SVGID_4_);fill:#F86110;}
	.st161{clip-path:url(#SVGID_4_);fill:#F86010;}
	.st162{clip-path:url(#SVGID_4_);fill:#F85F10;}
	.st163{clip-path:url(#SVGID_4_);fill:#F85E10;}
	.st164{clip-path:url(#SVGID_4_);fill:#F85D10;}
	.st165{clip-path:url(#SVGID_4_);fill:#F85C10;}
	.st166{clip-path:url(#SVGID_4_);fill:#F85B10;}
	.st167{clip-path:url(#SVGID_4_);fill:#F85A10;}
	.st168{clip-path:url(#SVGID_4_);fill:#F85910;}
	.st169{clip-path:url(#SVGID_4_);fill:#F85810;}
	.st170{clip-path:url(#SVGID_4_);fill:#F85710;}
	.st171{clip-path:url(#SVGID_4_);fill:#F85610;}
	.st172{clip-path:url(#SVGID_4_);fill:#F85510;}
	.st173{clip-path:url(#SVGID_4_);fill:#F85410;}
	.st174{clip-path:url(#SVGID_4_);fill:#F85310;}
	.st175{clip-path:url(#SVGID_4_);fill:#F85210;}
	.st176{clip-path:url(#SVGID_4_);fill:#F85110;}
	.st177{clip-path:url(#SVGID_4_);fill:#F85010;}
	.st178{clip-path:url(#SVGID_4_);fill:#F84F0F;}
	.st179{clip-path:url(#SVGID_4_);fill:#F84E0F;}
	.st180{clip-path:url(#SVGID_4_);fill:#F84D0F;}
	.st181{clip-path:url(#SVGID_4_);fill:#F84C0F;}
	.st182{clip-path:url(#SVGID_4_);fill:#F84B0F;}
	.st183{clip-path:url(#SVGID_4_);fill:#F84A0F;}
	.st184{clip-path:url(#SVGID_4_);fill:#F8490F;}
	.st185{clip-path:url(#SVGID_4_);fill:#F8480F;}
	.st186{clip-path:url(#SVGID_4_);fill:#F8470F;}
	.st187{clip-path:url(#SVGID_4_);fill:#F8460F;}
	.st188{clip-path:url(#SVGID_4_);fill:#F8450F;}
	.st189{clip-path:url(#SVGID_4_);fill:#F8440F;}
	.st190{clip-path:url(#SVGID_4_);fill:#F8430F;}
	.st191{clip-path:url(#SVGID_4_);fill:#F8420F;}
	.st192{clip-path:url(#SVGID_4_);fill:#F8410F;}
	.st193{clip-path:url(#SVGID_4_);fill:#F8400F;}
	.st194{clip-path:url(#SVGID_4_);fill:#F83F0F;}
	.st195{clip-path:url(#SVGID_4_);fill:#F83E0E;}
	.st196{clip-path:url(#SVGID_4_);fill:#F83D0E;}
	.st197{clip-path:url(#SVGID_4_);fill:#F83C0E;}
	.st198{clip-path:url(#SVGID_4_);fill:#F83B0E;}
	.st199{clip-path:url(#SVGID_4_);fill:#F73A0E;}
	.st200{clip-path:url(#SVGID_4_);fill:#F7390E;}
	.st201{clip-path:url(#SVGID_4_);fill:#F7380E;}
	.st202{clip-path:url(#SVGID_4_);fill:#F7370E;}
	.st203{clip-path:url(#SVGID_4_);fill:#F7360E;}
	.st204{clip-path:url(#SVGID_4_);fill:#F7340E;}
	.st205{clip-path:url(#SVGID_4_);fill:#F7330E;}
	.st206{clip-path:url(#SVGID_4_);fill:#F7320E;}
	.st207{clip-path:url(#SVGID_4_);fill:#F7310E;}
	.st208{clip-path:url(#SVGID_4_);fill:#F7300E;}
	.st209{clip-path:url(#SVGID_4_);fill:#F72F0E;}
	.st210{clip-path:url(#SVGID_4_);fill:#F72E0E;}
	.st211{clip-path:url(#SVGID_4_);fill:#F72D0E;}
	.st212{clip-path:url(#SVGID_4_);fill:#F72C0E;}
	.st213{clip-path:url(#SVGID_4_);fill:#F72B0E;}
	.st214{clip-path:url(#SVGID_4_);fill:#F72B0D;}
	.st215{clip-path:url(#SVGID_4_);fill:#F72A0D;}
	.st216{clip-path:url(#SVGID_4_);fill:#F7290D;}
	.st217{clip-path:url(#SVGID_4_);fill:#F7280D;}
	.st218{clip-path:url(#SVGID_4_);fill:#F7270D;}
	.st219{clip-path:url(#SVGID_4_);fill:#F7260D;}
</style>
<g>
	<path class="st0" d="M29.819,23.244l-0.046-0.025l-0.046-0.025l-0.046-0.025l-0.046-0.025c-0.835-0.452-1.725-0.861-2.665-1.223
		s-1.928-0.68-2.958-0.95s-2.102-0.492-3.209-0.665s-2.248-0.297-3.416-0.37l-0.093-0.006L17.2,19.924l-0.093-0.006l-0.093-0.006
		l0,0l0,0l0,0l0,0l-0.019-0.001l-0.019-0.001l-0.019-0.001l-0.019-0.001c-0.181-0.009-0.357-0.017-0.529-0.024
		s-0.34-0.012-0.505-0.017s-0.326-0.008-0.484-0.01s-0.313-0.003-0.466-0.003c-0.186,0-0.373,0.002-0.563,0.005
		s-0.382,0.008-0.577,0.014s-0.393,0.014-0.594,0.024s-0.407,0.021-0.616,0.034l-0.008,0l-0.008,0l-0.008,0l-0.008,0l0.002,0.001
		l0.002,0.001l0.002,0.001l0.002,0.001l-0.094,0.007l-0.094,0.007l-0.094,0.007l-0.094,0.007c-1.137,0.08-2.248,0.209-3.326,0.385
		s-2.121,0.398-3.124,0.666s-1.966,0.58-2.881,0.936s-1.783,0.755-2.596,1.195l-0.046,0.025l-0.046,0.025l-0.046,0.025l-0.046,0.025
		v-5.766v-5.766V5.945V0.179h7.432h7.432h7.432h7.432v5.766v5.766v5.766V23.244z M0.341,0.429v5.599v5.599v5.599v5.599
		c0.792-0.418,1.633-0.799,2.517-1.139s1.812-0.641,2.777-0.901s1.967-0.477,3-0.652s2.097-0.307,3.186-0.394
		c-0.424-0.292-0.779-0.589-1.066-0.895s-0.508-0.623-0.665-0.955s-0.25-0.68-0.282-1.049s-0.003-0.76,0.083-1.178
		c0.032-0.153,0.073-0.303,0.121-0.451s0.104-0.292,0.164-0.434s0.124-0.282,0.191-0.421s0.135-0.275,0.202-0.411
		c0.083-0.166,0.165-0.329,0.241-0.492s0.148-0.325,0.211-0.489s0.116-0.328,0.157-0.496s0.069-0.338,0.081-0.514l0.007-0.107
		l0.007-0.107l0.007-0.107l0.007-0.107l0.052,0.094l0.052,0.094l0.052,0.094l0.052,0.094c0.082,0.149,0.149,0.29,0.205,0.427
		s0.099,0.269,0.133,0.402s0.061,0.265,0.081,0.402s0.035,0.278,0.047,0.427c0.38-0.482,0.706-0.948,0.979-1.397
		s0.492-0.881,0.657-1.296s0.277-0.812,0.334-1.19s0.061-0.739,0.009-1.081L13.93,8.551l-0.007-0.049l-0.007-0.049l-0.007-0.049
		l0.048,0.015l0.048,0.015l0.048,0.015l0.048,0.015c0.024,0.007,0.179,0.058,0.413,0.183s0.548,0.324,0.889,0.627
		s0.71,0.711,1.054,1.254s0.664,1.221,0.908,2.064c0.091-0.126,0.152-0.273,0.191-0.429s0.053-0.321,0.05-0.485
		s-0.024-0.326-0.057-0.477s-0.079-0.288-0.131-0.402l-0.05-0.108l-0.05-0.108l-0.05-0.108l-0.05-0.108l0.096,0.07l0.096,0.07
		l0.096,0.07l0.096,0.07c0.143,0.104,0.374,0.322,0.641,0.628s0.568,0.703,0.85,1.162s0.544,0.983,0.733,1.545
		s0.303,1.163,0.289,1.777c-0.009,0.381-0.064,0.749-0.167,1.105s-0.253,0.699-0.45,1.029s-0.44,0.647-0.73,0.95
		s-0.626,0.593-1.008,0.868c1.121,0.08,2.216,0.207,3.279,0.38s2.094,0.391,3.086,0.652s1.946,0.567,2.856,0.915
		s1.774,0.738,2.588,1.168v-5.599v-5.599V6.028V0.429h-7.307h-7.307H7.648H0.341z M14.859,13.087l0.066,0.046l0.066,0.046
		l0.066,0.046l0.066,0.046c0.5,0.349,0.929,0.791,1.276,1.294s0.613,1.065,0.787,1.655s0.258,1.208,0.24,1.82
		s-0.136,1.22-0.364,1.79l-0.007,0.018l-0.007,0.018l-0.007,0.018L17.034,19.9l0.073-0.048l0.073-0.048l0.073-0.048l0.073-0.048
		c0.413-0.273,0.776-0.561,1.089-0.863s0.576-0.619,0.788-0.949s0.374-0.674,0.485-1.031s0.171-0.728,0.179-1.111
		c0.011-0.499-0.066-0.989-0.199-1.454s-0.324-0.907-0.539-1.311s-0.455-0.768-0.688-1.079s-0.46-0.57-0.648-0.76
		c0.033,0.149,0.055,0.308,0.061,0.469s-0.002,0.326-0.031,0.485s-0.076,0.313-0.147,0.455s-0.166,0.271-0.289,0.38l-0.038,0.034
		l-0.038,0.034l-0.038,0.034l-0.038,0.034l-0.013-0.049l-0.013-0.049l-0.013-0.049l-0.013-0.049
		c-0.188-0.711-0.432-1.307-0.702-1.804s-0.566-0.896-0.856-1.214s-0.573-0.555-0.819-0.729s-0.455-0.285-0.594-0.349
		c0.031,0.364,0.008,0.746-0.071,1.145s-0.213,0.816-0.401,1.25s-0.432,0.884-0.73,1.351s-0.65,0.949-1.056,1.447l-0.051,0.062
		l-0.051,0.062L11.8,14.157l-0.051,0.062l-0.005-0.08l-0.005-0.08l-0.005-0.08L11.73,13.9c-0.009-0.147-0.018-0.284-0.03-0.414
		s-0.026-0.254-0.046-0.375s-0.045-0.239-0.078-0.358s-0.074-0.238-0.126-0.361c-0.03,0.147-0.07,0.292-0.116,0.434
		s-0.1,0.282-0.159,0.421s-0.121,0.275-0.186,0.41s-0.132,0.269-0.198,0.402c-0.066,0.132-0.132,0.265-0.197,0.4
		s-0.127,0.27-0.185,0.408s-0.112,0.277-0.158,0.418s-0.086,0.284-0.116,0.43c-0.087,0.418-0.113,0.805-0.075,1.167
		s0.141,0.702,0.312,1.026s0.411,0.632,0.725,0.934s0.7,0.596,1.163,0.891l0.058,0.037l0.058,0.037l0.058,0.037l0.058,0.037
		l-0.003-0.007l-0.003-0.007l-0.003-0.007l-0.003-0.007c-0.146-0.375-0.226-0.713-0.254-1.02s-0.007-0.584,0.048-0.837
		s0.145-0.481,0.252-0.693s0.231-0.405,0.357-0.588l0,0l0,0l0,0l0,0c0.157-0.229,0.285-0.458,0.389-0.673s0.184-0.416,0.245-0.589
		s0.101-0.317,0.127-0.419s0.037-0.161,0.037-0.163l0.012-0.069l0.012-0.069l0.012-0.069l0.012-0.069l0.043,0.056l0.043,0.056
		l0.043,0.056l0.043,0.056c0.005,0.006,0.032,0.042,0.07,0.106s0.087,0.155,0.135,0.271s0.094,0.257,0.128,0.421
		s0.053,0.349,0.048,0.554c0.157-0.237,0.283-0.494,0.382-0.756s0.171-0.528,0.22-0.781s0.074-0.493,0.08-0.704
		s-0.008-0.391-0.038-0.525l-0.017-0.078l-0.017-0.078l-0.017-0.078L14.859,13.087z M13.851,15.228
		c-0.026,0.091-0.059,0.198-0.101,0.318s-0.093,0.252-0.155,0.393s-0.133,0.29-0.217,0.444s-0.179,0.312-0.288,0.472l0,0l0,0l0,0
		l0,0c-0.145,0.212-0.271,0.418-0.371,0.629s-0.174,0.424-0.217,0.648s-0.053,0.46-0.025,0.715s0.094,0.528,0.205,0.829
		c0.202-0.012,0.4-0.022,0.595-0.031s0.386-0.016,0.575-0.022s0.375-0.01,0.558-0.013s0.365-0.004,0.546-0.004
		c0.147,0,0.297,0.001,0.449,0.003s0.307,0.005,0.465,0.009s0.32,0.009,0.485,0.015s0.334,0.013,0.507,0.022
		c0.196-0.518,0.299-1.067,0.315-1.62s-0.053-1.111-0.201-1.646s-0.374-1.049-0.671-1.514s-0.664-0.882-1.094-1.225
		c0.01,0.187,0.004,0.413-0.023,0.66s-0.078,0.517-0.154,0.791s-0.181,0.555-0.317,0.823s-0.305,0.526-0.511,0.756l-0.076,0.084
		l-0.076,0.084l-0.076,0.084l-0.076,0.084l0.022-0.111l0.022-0.111l0.022-0.111l0.022-0.111c0.03-0.151,0.043-0.293,0.046-0.426
		s-0.007-0.257-0.025-0.37s-0.042-0.216-0.069-0.308S13.882,15.296,13.851,15.228z"/>
</g>
<g>
	<path class="st0" d="M29.819,29.908h-7.432h-7.432H7.523H0.091v-7.432v-7.432V7.611V0.179h7.432h7.432h7.432h7.432v7.432v7.432
		v7.432V29.908z M0.341,29.658h7.307h7.307h7.307h7.307v-7.307v-7.307V7.736V0.429h-7.307h-7.307H7.648H0.341v7.307v7.307v7.307
		V29.658z"/>
</g>
</svg>
