<?xml version="1.0" encoding="utf-8"?>
<!-- Generator: Adobe Illustrator 19.1.0, SVG Export Plug-In . SVG Version: 6.00 Build 0)  -->
<svg version="1.1" id="Layer_1" xmlns="http://www.w3.org/2000/svg" xmlns:xlink="http://www.w3.org/1999/xlink" x="0px" y="0px"
	 viewBox="0 0 29.91 30.086" style="enable-background:new 0 0 29.91 30.086;" xml:space="preserve">
<style type="text/css">
	.st0{fill:#4D4D4D;}
	.st1{fill-rule:evenodd;clip-rule:evenodd;fill:#4C4C4C;}
	.st2{fill:#4C4C4C;}
	.st3{fill:#383330;}
	.st4{fill:#1F1A17;}
	.st5{fill:#4D4C4C;}
	.st6{fill:none;stroke:#000000;stroke-width:0.3;stroke-miterlimit:10;}
	.st7{fill:#E61413;}
	.st8{fill:#5F5357;}
	.st9{fill:#115C78;}
	.st10{fill-rule:evenodd;clip-rule:evenodd;fill:#4D4D4D;}
	.st11{fill-rule:evenodd;clip-rule:evenodd;}
	.st12{fill:#FFFFFF;}
	.st13{fill:none;}
	.st14{fill:#231F20;}
	.st15{clip-path:url(#SVGID_2_);}
	.st16{clip-path:url(#SVGID_4_);fill:#FCF118;}
	.st17{clip-path:url(#SVGID_4_);fill:#FCF018;}
	.st18{clip-path:url(#SVGID_4_);fill:#FCEF18;}
	.st19{clip-path:url(#SVGID_4_);fill:#FCEE18;}
	.st20{clip-path:url(#SVGID_4_);fill:#FCED18;}
	.st21{clip-path:url(#SVGID_4_);fill:#FCEC18;}
	.st22{clip-path:url(#SVGID_4_);fill:#FCEB18;}
	.st23{clip-path:url(#SVGID_4_);fill:#FCEA18;}
	.st24{clip-path:url(#SVGID_4_);fill:#FCE918;}
	.st25{clip-path:url(#SVGID_4_);fill:#FCE818;}
	.st26{clip-path:url(#SVGID_4_);fill:#FCE718;}
	.st27{clip-path:url(#SVGID_4_);fill:#FCE617;}
	.st28{clip-path:url(#SVGID_4_);fill:#FCE517;}
	.st29{clip-path:url(#SVGID_4_);fill:#FCE417;}
	.st30{clip-path:url(#SVGID_4_);fill:#FCE317;}
	.st31{clip-path:url(#SVGID_4_);fill:#FCE217;}
	.st32{clip-path:url(#SVGID_4_);fill:#FCE117;}
	.st33{clip-path:url(#SVGID_4_);fill:#FCE017;}
	.st34{clip-path:url(#SVGID_4_);fill:#FCDF17;}
	.st35{clip-path:url(#SVGID_4_);fill:#FCDE17;}
	.st36{clip-path:url(#SVGID_4_);fill:#FCDD17;}
	.st37{clip-path:url(#SVGID_4_);fill:#FCDC17;}
	.st38{clip-path:url(#SVGID_4_);fill:#FCDB17;}
	.st39{clip-path:url(#SVGID_4_);fill:#FCDA17;}
	.st40{clip-path:url(#SVGID_4_);fill:#FCD917;}
	.st41{clip-path:url(#SVGID_4_);fill:#FCD817;}
	.st42{clip-path:url(#SVGID_4_);fill:#FCD717;}
	.st43{clip-path:url(#SVGID_4_);fill:#FCD617;}
	.st44{clip-path:url(#SVGID_4_);fill:#FCD517;}
	.st45{clip-path:url(#SVGID_4_);fill:#FCD416;}
	.st46{clip-path:url(#SVGID_4_);fill:#FCD316;}
	.st47{clip-path:url(#SVGID_4_);fill:#FBD216;}
	.st48{clip-path:url(#SVGID_4_);fill:#FBD116;}
	.st49{clip-path:url(#SVGID_4_);fill:#FBD016;}
	.st50{clip-path:url(#SVGID_4_);fill:#FBCF16;}
	.st51{clip-path:url(#SVGID_4_);fill:#FBCE16;}
	.st52{clip-path:url(#SVGID_4_);fill:#FBCD16;}
	.st53{clip-path:url(#SVGID_4_);fill:#FBCC16;}
	.st54{clip-path:url(#SVGID_4_);fill:#FBCB16;}
	.st55{clip-path:url(#SVGID_4_);fill:#FBCA16;}
	.st56{clip-path:url(#SVGID_4_);fill:#FBC916;}
	.st57{clip-path:url(#SVGID_4_);fill:#FBC816;}
	.st58{clip-path:url(#SVGID_4_);fill:#FBC716;}
	.st59{clip-path:url(#SVGID_4_);fill:#FBC616;}
	.st60{clip-path:url(#SVGID_4_);fill:#FBC516;}
	.st61{clip-path:url(#SVGID_4_);fill:#FBC416;}
	.st62{clip-path:url(#SVGID_4_);fill:#FBC316;}
	.st63{clip-path:url(#SVGID_4_);fill:#FBC216;}
	.st64{clip-path:url(#SVGID_4_);fill:#FBC115;}
	.st65{clip-path:url(#SVGID_4_);fill:#FBC015;}
	.st66{clip-path:url(#SVGID_4_);fill:#FBBF15;}
	.st67{clip-path:url(#SVGID_4_);fill:#FBBE15;}
	.st68{clip-path:url(#SVGID_4_);fill:#FBBD15;}
	.st69{clip-path:url(#SVGID_4_);fill:#FBBC15;}
	.st70{clip-path:url(#SVGID_4_);fill:#FBBB15;}
	.st71{clip-path:url(#SVGID_4_);fill:#FBBA15;}
	.st72{clip-path:url(#SVGID_4_);fill:#FBB915;}
	.st73{clip-path:url(#SVGID_4_);fill:#FBB815;}
	.st74{clip-path:url(#SVGID_4_);fill:#FBB715;}
	.st75{clip-path:url(#SVGID_4_);fill:#FBB615;}
	.st76{clip-path:url(#SVGID_4_);fill:#FBB515;}
	.st77{clip-path:url(#SVGID_4_);fill:#FBB415;}
	.st78{clip-path:url(#SVGID_4_);fill:#FBB315;}
	.st79{clip-path:url(#SVGID_4_);fill:#FBB215;}
	.st80{clip-path:url(#SVGID_4_);fill:#FBB115;}
	.st81{clip-path:url(#SVGID_4_);fill:#FBB015;}
	.st82{clip-path:url(#SVGID_4_);fill:#FBAF15;}
	.st83{clip-path:url(#SVGID_4_);fill:#FAAE15;}
	.st84{clip-path:url(#SVGID_4_);fill:#FAAD14;}
	.st85{clip-path:url(#SVGID_4_);fill:#FAAC14;}
	.st86{clip-path:url(#SVGID_4_);fill:#FAAB14;}
	.st87{clip-path:url(#SVGID_4_);fill:#FAAA14;}
	.st88{clip-path:url(#SVGID_4_);fill:#FAA914;}
	.st89{clip-path:url(#SVGID_4_);fill:#FAA814;}
	.st90{clip-path:url(#SVGID_4_);fill:#FAA714;}
	.st91{clip-path:url(#SVGID_4_);fill:#FAA614;}
	.st92{clip-path:url(#SVGID_4_);fill:#FAA514;}
	.st93{clip-path:url(#SVGID_4_);fill:#FAA414;}
	.st94{clip-path:url(#SVGID_4_);fill:#FAA314;}
	.st95{clip-path:url(#SVGID_4_);fill:#FAA214;}
	.st96{clip-path:url(#SVGID_4_);fill:#FAA114;}
	.st97{clip-path:url(#SVGID_4_);fill:#FAA014;}
	.st98{clip-path:url(#SVGID_4_);fill:#FA9F14;}
	.st99{clip-path:url(#SVGID_4_);fill:#FA9E14;}
	.st100{clip-path:url(#SVGID_4_);fill:#FA9D14;}
	.st101{clip-path:url(#SVGID_4_);fill:#FA9C14;}
	.st102{clip-path:url(#SVGID_4_);fill:#FA9B14;}
	.st103{clip-path:url(#SVGID_4_);fill:#FA9A13;}
	.st104{clip-path:url(#SVGID_4_);fill:#FA9913;}
	.st105{clip-path:url(#SVGID_4_);fill:#FA9813;}
	.st106{clip-path:url(#SVGID_4_);fill:#FA9713;}
	.st107{clip-path:url(#SVGID_4_);fill:#FA9613;}
	.st108{clip-path:url(#SVGID_4_);fill:#FA9513;}
	.st109{clip-path:url(#SVGID_4_);fill:#FA9413;}
	.st110{clip-path:url(#SVGID_4_);fill:#FA9313;}
	.st111{clip-path:url(#SVGID_4_);fill:#FA9213;}
	.st112{clip-path:url(#SVGID_4_);fill:#FA9113;}
	.st113{clip-path:url(#SVGID_4_);fill:#FA9013;}
	.st114{clip-path:url(#SVGID_4_);fill:#FA8F13;}
	.st115{clip-path:url(#SVGID_4_);fill:#FA8E13;}
	.st116{clip-path:url(#SVGID_4_);fill:#FA8D13;}
	.st117{clip-path:url(#SVGID_4_);fill:#FA8C13;}
	.st118{clip-path:url(#SVGID_4_);fill:#FA8B13;}
	.st119{clip-path:url(#SVGID_4_);fill:#FA8A13;}
	.st120{clip-path:url(#SVGID_4_);fill:#FA8913;}
	.st121{clip-path:url(#SVGID_4_);fill:#FA8812;}
	.st122{clip-path:url(#SVGID_4_);fill:#FA8712;}
	.st123{clip-path:url(#SVGID_4_);fill:#FA8612;}
	.st124{clip-path:url(#SVGID_4_);fill:#F98512;}
	.st125{clip-path:url(#SVGID_4_);fill:#F98412;}
	.st126{clip-path:url(#SVGID_4_);fill:#F98312;}
	.st127{clip-path:url(#SVGID_4_);fill:#F98212;}
	.st128{clip-path:url(#SVGID_4_);fill:#F98112;}
	.st129{clip-path:url(#SVGID_4_);fill:#F98012;}
	.st130{clip-path:url(#SVGID_4_);fill:#F97F12;}
	.st131{clip-path:url(#SVGID_4_);fill:#F97E12;}
	.st132{clip-path:url(#SVGID_4_);fill:#F97D12;}
	.st133{clip-path:url(#SVGID_4_);fill:#F97C12;}
	.st134{clip-path:url(#SVGID_4_);fill:#F97B12;}
	.st135{clip-path:url(#SVGID_4_);fill:#F97A12;}
	.st136{clip-path:url(#SVGID_4_);fill:#F97912;}
	.st137{clip-path:url(#SVGID_4_);fill:#F97812;}
	.st138{clip-path:url(#SVGID_4_);fill:#F97712;}
	.st139{clip-path:url(#SVGID_4_);fill:#F97612;}
	.st140{clip-path:url(#SVGID_4_);fill:#F97511;}
	.st141{clip-path:url(#SVGID_4_);fill:#F97411;}
	.st142{clip-path:url(#SVGID_4_);fill:#F97311;}
	.st143{clip-path:url(#SVGID_4_);fill:#F97211;}
	.st144{clip-path:url(#SVGID_4_);fill:#F97111;}
	.st145{clip-path:url(#SVGID_4_);fill:#F97011;}
	.st146{clip-path:url(#SVGID_4_);fill:#F96F11;}
	.st147{clip-path:url(#SVGID_4_);fill:#F96E11;}
	.st148{clip-path:url(#SVGID_4_);fill:#F96D11;}
	.st149{clip-path:url(#SVGID_4_);fill:#F96C11;}
	.st150{clip-path:url(#SVGID_4_);fill:#F96B11;}
	.st151{clip-path:url(#SVGID_4_);fill:#F96A11;}
	.st152{clip-path:url(#SVGID_4_);fill:#F96911;}
	.st153{clip-path:url(#SVGID_4_);fill:#F96811;}
	.st154{clip-path:url(#SVGID_4_);fill:#F96711;}
	.st155{clip-path:url(#SVGID_4_);fill:#F96611;}
	.st156{clip-path:url(#SVGID_4_);fill:#F96511;}
	.st157{clip-path:url(#SVGID_4_);fill:#F96411;}
	.st158{clip-path:url(#SVGID_4_);fill:#F96311;}
	.st159{clip-path:url(#SVGID_4_);fill:#F96210;}
	.st160{clip-path:url(#SVGID_4_);fill:#F86110;}
	.st161{clip-path:url(#SVGID_4_);fill:#F86010;}
	.st162{clip-path:url(#SVGID_4_);fill:#F85F10;}
	.st163{clip-path:url(#SVGID_4_);fill:#F85E10;}
	.st164{clip-path:url(#SVGID_4_);fill:#F85D10;}
	.st165{clip-path:url(#SVGID_4_);fill:#F85C10;}
	.st166{clip-path:url(#SVGID_4_);fill:#F85B10;}
	.st167{clip-path:url(#SVGID_4_);fill:#F85A10;}
	.st168{clip-path:url(#SVGID_4_);fill:#F85910;}
	.st169{clip-path:url(#SVGID_4_);fill:#F85810;}
	.st170{clip-path:url(#SVGID_4_);fill:#F85710;}
	.st171{clip-path:url(#SVGID_4_);fill:#F85610;}
	.st172{clip-path:url(#SVGID_4_);fill:#F85510;}
	.st173{clip-path:url(#SVGID_4_);fill:#F85410;}
	.st174{clip-path:url(#SVGID_4_);fill:#F85310;}
	.st175{clip-path:url(#SVGID_4_);fill:#F85210;}
	.st176{clip-path:url(#SVGID_4_);fill:#F85110;}
	.st177{clip-path:url(#SVGID_4_);fill:#F85010;}
	.st178{clip-path:url(#SVGID_4_);fill:#F84F0F;}
	.st179{clip-path:url(#SVGID_4_);fill:#F84E0F;}
	.st180{clip-path:url(#SVGID_4_);fill:#F84D0F;}
	.st181{clip-path:url(#SVGID_4_);fill:#F84C0F;}
	.st182{clip-path:url(#SVGID_4_);fill:#F84B0F;}
	.st183{clip-path:url(#SVGID_4_);fill:#F84A0F;}
	.st184{clip-path:url(#SVGID_4_);fill:#F8490F;}
	.st185{clip-path:url(#SVGID_4_);fill:#F8480F;}
	.st186{clip-path:url(#SVGID_4_);fill:#F8470F;}
	.st187{clip-path:url(#SVGID_4_);fill:#F8460F;}
	.st188{clip-path:url(#SVGID_4_);fill:#F8450F;}
	.st189{clip-path:url(#SVGID_4_);fill:#F8440F;}
	.st190{clip-path:url(#SVGID_4_);fill:#F8430F;}
	.st191{clip-path:url(#SVGID_4_);fill:#F8420F;}
	.st192{clip-path:url(#SVGID_4_);fill:#F8410F;}
	.st193{clip-path:url(#SVGID_4_);fill:#F8400F;}
	.st194{clip-path:url(#SVGID_4_);fill:#F83F0F;}
	.st195{clip-path:url(#SVGID_4_);fill:#F83E0E;}
	.st196{clip-path:url(#SVGID_4_);fill:#F83D0E;}
	.st197{clip-path:url(#SVGID_4_);fill:#F83C0E;}
	.st198{clip-path:url(#SVGID_4_);fill:#F83B0E;}
	.st199{clip-path:url(#SVGID_4_);fill:#F73A0E;}
	.st200{clip-path:url(#SVGID_4_);fill:#F7390E;}
	.st201{clip-path:url(#SVGID_4_);fill:#F7380E;}
	.st202{clip-path:url(#SVGID_4_);fill:#F7370E;}
	.st203{clip-path:url(#SVGID_4_);fill:#F7360E;}
	.st204{clip-path:url(#SVGID_4_);fill:#F7340E;}
	.st205{clip-path:url(#SVGID_4_);fill:#F7330E;}
	.st206{clip-path:url(#SVGID_4_);fill:#F7320E;}
	.st207{clip-path:url(#SVGID_4_);fill:#F7310E;}
	.st208{clip-path:url(#SVGID_4_);fill:#F7300E;}
	.st209{clip-path:url(#SVGID_4_);fill:#F72F0E;}
	.st210{clip-path:url(#SVGID_4_);fill:#F72E0E;}
	.st211{clip-path:url(#SVGID_4_);fill:#F72D0E;}
	.st212{clip-path:url(#SVGID_4_);fill:#F72C0E;}
	.st213{clip-path:url(#SVGID_4_);fill:#F72B0E;}
	.st214{clip-path:url(#SVGID_4_);fill:#F72B0D;}
	.st215{clip-path:url(#SVGID_4_);fill:#F72A0D;}
	.st216{clip-path:url(#SVGID_4_);fill:#F7290D;}
	.st217{clip-path:url(#SVGID_4_);fill:#F7280D;}
	.st218{clip-path:url(#SVGID_4_);fill:#F7270D;}
	.st219{clip-path:url(#SVGID_4_);fill:#F7260D;}
</style>
<g>
	<path class="st0" d="M25.836,16.009c-0.219,0-0.402-0.016-0.558-0.045s-0.287-0.07-0.401-0.122s-0.213-0.113-0.305-0.182
		s-0.18-0.144-0.272-0.224c-0.101-0.089-0.208-0.182-0.329-0.273s-0.258-0.179-0.419-0.255s-0.345-0.142-0.562-0.189
		s-0.468-0.074-0.76-0.074c-0.292,0-0.542,0.027-0.759,0.074s-0.402,0.112-0.562,0.188s-0.297,0.164-0.419,0.254
		s-0.228,0.183-0.328,0.271c-0.092,0.081-0.179,0.157-0.272,0.226s-0.191,0.131-0.305,0.183s-0.245,0.094-0.401,0.123
		s-0.34,0.045-0.559,0.045c-0.22,0-0.404-0.016-0.561-0.045s-0.287-0.071-0.402-0.122s-0.213-0.114-0.305-0.183
		s-0.18-0.145-0.272-0.226c-0.106-0.093-0.216-0.188-0.339-0.28s-0.259-0.178-0.418-0.254s-0.341-0.139-0.557-0.184
		s-0.464-0.071-0.755-0.071c-0.292,0-0.542,0.027-0.76,0.074s-0.402,0.112-0.562,0.189s-0.297,0.164-0.418,0.254
		s-0.228,0.183-0.328,0.271c-0.092,0.08-0.179,0.157-0.272,0.226s-0.191,0.131-0.306,0.183s-0.245,0.094-0.401,0.122
		s-0.34,0.045-0.56,0.045c-0.22,0-0.403-0.016-0.559-0.045s-0.287-0.07-0.401-0.122s-0.213-0.113-0.306-0.182
		s-0.18-0.145-0.272-0.225c-0.101-0.088-0.208-0.182-0.329-0.273s-0.258-0.178-0.419-0.255s-0.345-0.142-0.562-0.189
		S8.092,14.645,7.8,14.645c-0.292,0-0.543,0.027-0.76,0.074s-0.402,0.112-0.562,0.189s-0.296,0.164-0.418,0.254
		s-0.227,0.183-0.327,0.271c-0.092,0.081-0.18,0.157-0.273,0.226s-0.191,0.131-0.306,0.183s-0.245,0.094-0.401,0.122
		s-0.34,0.045-0.559,0.045c-0.22,0-0.404-0.016-0.56-0.045s-0.287-0.07-0.402-0.122s-0.213-0.114-0.305-0.182
		s-0.18-0.145-0.272-0.225c-0.011-0.01-0.022-0.02-0.034-0.03s-0.023-0.02-0.034-0.031s-0.023-0.021-0.035-0.032
		s-0.024-0.022-0.036-0.033c-0.1-0.092-0.213-0.196-0.347-0.3S1.882,14.801,1.7,14.708s-0.392-0.174-0.638-0.231
		s-0.528-0.093-0.854-0.093c-0.002,0-0.005,0-0.007,0s-0.005,0-0.007,0s-0.005,0-0.007,0s-0.005,0-0.007,0l0-0.062l0-0.062l0-0.062
		l0-0.062c0.003,0,0.005,0,0.008,0s0.005,0,0.008,0s0.005,0,0.008,0s0.005,0,0.008,0c0.35,0,0.653,0.037,0.917,0.099
		s0.49,0.149,0.685,0.248s0.36,0.211,0.503,0.322s0.264,0.223,0.371,0.321c0.012,0.011,0.023,0.021,0.035,0.032
		s0.023,0.021,0.034,0.031s0.022,0.02,0.033,0.03s0.021,0.019,0.032,0.028c0.089,0.078,0.17,0.148,0.254,0.211
		s0.171,0.117,0.272,0.162s0.215,0.08,0.353,0.104s0.3,0.037,0.497,0.037c0.196,0,0.358-0.013,0.496-0.037s0.252-0.059,0.352-0.104
		s0.188-0.099,0.272-0.162s0.165-0.133,0.254-0.211c0.102-0.09,0.214-0.188,0.344-0.285s0.278-0.192,0.452-0.276
		s0.376-0.156,0.612-0.208s0.508-0.082,0.824-0.082c0.316,0,0.586,0.029,0.82,0.08s0.434,0.121,0.607,0.203s0.32,0.177,0.451,0.274
		s0.246,0.198,0.354,0.292c0.089,0.078,0.171,0.149,0.255,0.211s0.172,0.117,0.272,0.162s0.215,0.08,0.353,0.104
		s0.3,0.037,0.496,0.037c0.196,0,0.358-0.013,0.496-0.037s0.252-0.059,0.353-0.104s0.188-0.1,0.272-0.162s0.165-0.134,0.254-0.211
		c0.108-0.095,0.223-0.195,0.354-0.292s0.278-0.192,0.451-0.274s0.372-0.153,0.607-0.203s0.505-0.08,0.821-0.08
		c0.315,0,0.584,0.029,0.818,0.079c0.234,0.05,0.433,0.12,0.606,0.203s0.32,0.176,0.451,0.273s0.246,0.197,0.354,0.291
		c0.089,0.078,0.171,0.15,0.255,0.213s0.172,0.118,0.272,0.163s0.215,0.08,0.353,0.105s0.3,0.037,0.497,0.037
		c0.196,0,0.358-0.013,0.496-0.037s0.252-0.059,0.352-0.104s0.187-0.1,0.271-0.162s0.165-0.134,0.254-0.211
		c0.108-0.095,0.223-0.195,0.354-0.293s0.279-0.192,0.452-0.274s0.372-0.153,0.607-0.203s0.505-0.079,0.82-0.079
		c0.316,0,0.586,0.029,0.821,0.08s0.434,0.121,0.607,0.203s0.32,0.177,0.451,0.274s0.245,0.198,0.353,0.293
		c0.089,0.078,0.171,0.148,0.256,0.211s0.172,0.117,0.272,0.162s0.215,0.08,0.352,0.104s0.299,0.037,0.495,0.037
		c0.197,0,0.359-0.013,0.496-0.037s0.252-0.059,0.352-0.104s0.187-0.099,0.271-0.162s0.165-0.133,0.253-0.21
		c0.117-0.103,0.247-0.207,0.396-0.304s0.318-0.188,0.514-0.265s0.419-0.139,0.677-0.18s0.55-0.06,0.885-0.051l-0.001,0.062
		l-0.001,0.062l-0.001,0.062l-0.001,0.062c-0.313-0.006-0.586,0.013-0.825,0.05s-0.445,0.093-0.626,0.161s-0.337,0.151-0.476,0.24
		s-0.261,0.187-0.375,0.286c-0.092,0.081-0.18,0.157-0.273,0.226s-0.191,0.131-0.306,0.183s-0.245,0.094-0.401,0.122
		S26.056,16.009,25.836,16.009z M25.836,13.694c-0.22,0-0.403-0.016-0.56-0.045s-0.287-0.071-0.401-0.122s-0.213-0.114-0.306-0.183
		s-0.18-0.145-0.273-0.225c-0.1-0.088-0.207-0.181-0.328-0.271s-0.258-0.178-0.418-0.254s-0.345-0.142-0.562-0.189
		s-0.467-0.074-0.759-0.074c-0.291,0-0.541,0.027-0.758,0.074s-0.401,0.112-0.562,0.188s-0.297,0.164-0.418,0.254
		s-0.228,0.183-0.329,0.27c-0.092,0.081-0.18,0.158-0.272,0.227s-0.191,0.132-0.305,0.184s-0.245,0.094-0.401,0.123
		s-0.34,0.045-0.56,0.045c-0.221,0-0.405-0.016-0.562-0.045s-0.288-0.071-0.402-0.123s-0.212-0.114-0.305-0.183
		s-0.179-0.145-0.271-0.226c-0.102-0.088-0.209-0.182-0.331-0.272s-0.259-0.178-0.419-0.254s-0.345-0.142-0.561-0.188
		s-0.466-0.073-0.757-0.073c-0.292,0-0.542,0.027-0.759,0.074s-0.401,0.112-0.562,0.188s-0.297,0.164-0.418,0.254
		s-0.228,0.183-0.328,0.271c-0.092,0.081-0.18,0.157-0.272,0.227s-0.191,0.131-0.306,0.183s-0.245,0.094-0.402,0.123
		s-0.34,0.045-0.561,0.045c-0.22,0-0.404-0.016-0.56-0.045s-0.287-0.071-0.402-0.122s-0.213-0.114-0.306-0.183
		s-0.18-0.145-0.272-0.226c-0.101-0.088-0.208-0.181-0.329-0.272S9.28,12.669,9.12,12.593s-0.345-0.142-0.562-0.188
		S8.091,12.331,7.8,12.331c-0.292,0-0.542,0.027-0.759,0.074s-0.401,0.112-0.562,0.188s-0.297,0.164-0.418,0.254
		s-0.228,0.183-0.328,0.271c-0.092,0.08-0.179,0.157-0.272,0.226s-0.191,0.131-0.306,0.183s-0.245,0.094-0.402,0.122
		s-0.34,0.045-0.56,0.045c-0.221,0-0.404-0.016-0.561-0.045s-0.288-0.071-0.402-0.122s-0.213-0.114-0.305-0.183
		s-0.18-0.145-0.272-0.226c-0.011-0.01-0.022-0.02-0.033-0.03s-0.023-0.02-0.034-0.031s-0.023-0.021-0.035-0.032
		s-0.024-0.022-0.036-0.033c-0.1-0.092-0.213-0.196-0.346-0.3s-0.287-0.208-0.469-0.3s-0.392-0.173-0.638-0.231
		S0.534,12.07,0.209,12.07c-0.003,0-0.005,0-0.008,0s-0.005,0-0.008,0s-0.005,0-0.008,0s-0.005,0-0.008,0l0-0.062l0-0.062l0-0.062
		l0-0.062c0.003,0,0.006,0,0.008,0s0.006,0,0.008,0s0.006,0,0.008,0s0.005,0,0.008,0c0.349,0,0.652,0.037,0.916,0.099
		s0.489,0.148,0.684,0.247s0.36,0.21,0.503,0.321s0.264,0.222,0.371,0.321c0.012,0.011,0.023,0.022,0.035,0.032
		s0.023,0.021,0.034,0.031s0.022,0.02,0.033,0.03s0.021,0.019,0.032,0.028c0.088,0.077,0.169,0.148,0.253,0.211
		s0.171,0.117,0.271,0.162s0.215,0.08,0.353,0.104s0.301,0.037,0.498,0.037c0.197,0,0.359-0.013,0.497-0.037
		s0.252-0.059,0.353-0.104s0.188-0.1,0.271-0.162s0.165-0.134,0.253-0.211c0.108-0.095,0.223-0.195,0.354-0.292
		s0.278-0.192,0.451-0.274S6.745,12.21,6.98,12.16s0.505-0.079,0.82-0.079c0.315,0,0.585,0.029,0.819,0.079s0.433,0.12,0.606,0.203
		s0.32,0.176,0.451,0.274s0.246,0.197,0.354,0.292c0.089,0.078,0.171,0.149,0.255,0.212s0.172,0.118,0.273,0.163
		s0.215,0.08,0.353,0.104s0.3,0.037,0.497,0.037c0.197,0,0.359-0.013,0.497-0.037s0.252-0.059,0.353-0.104s0.187-0.1,0.271-0.162
		s0.165-0.134,0.253-0.211c0.109-0.095,0.224-0.195,0.355-0.293s0.279-0.192,0.452-0.274s0.372-0.153,0.607-0.203
		s0.504-0.079,0.819-0.079c0.314,0,0.583,0.029,0.817,0.079c0.234,0.05,0.433,0.12,0.605,0.202s0.32,0.176,0.451,0.273
		s0.246,0.197,0.354,0.291c0.09,0.079,0.171,0.15,0.256,0.214s0.172,0.118,0.273,0.164s0.215,0.081,0.353,0.105
		s0.301,0.037,0.498,0.037c0.197,0,0.359-0.013,0.497-0.037s0.252-0.059,0.352-0.104s0.187-0.099,0.271-0.162
		s0.164-0.133,0.253-0.211c0.109-0.095,0.224-0.196,0.356-0.293s0.279-0.192,0.452-0.274s0.372-0.153,0.607-0.203
		s0.504-0.079,0.819-0.079c0.315,0,0.585,0.029,0.82,0.079s0.433,0.121,0.606,0.203s0.32,0.177,0.451,0.274s0.245,0.198,0.353,0.292
		c0.089,0.078,0.171,0.149,0.255,0.211s0.172,0.117,0.272,0.162s0.215,0.08,0.353,0.104s0.3,0.037,0.496,0.037
		c0.197,0,0.359-0.013,0.498-0.037s0.252-0.059,0.353-0.104s0.187-0.1,0.271-0.162s0.165-0.134,0.253-0.211
		c0.118-0.103,0.247-0.206,0.395-0.302s0.316-0.186,0.511-0.262s0.418-0.138,0.676-0.179s0.552-0.062,0.89-0.055l-0.001,0.062
		l-0.001,0.062l-0.001,0.062l-0.001,0.062c-0.312-0.007-0.583,0.011-0.822,0.047s-0.445,0.092-0.626,0.161s-0.338,0.151-0.477,0.241
		s-0.263,0.187-0.377,0.287c-0.092,0.08-0.179,0.157-0.271,0.226s-0.191,0.131-0.305,0.183s-0.245,0.094-0.402,0.122
		S26.056,13.694,25.836,13.694z M25.836,11.38c-0.22,0-0.403-0.016-0.56-0.045s-0.287-0.071-0.401-0.122s-0.213-0.114-0.306-0.183
		s-0.18-0.145-0.273-0.225c-0.1-0.088-0.206-0.181-0.327-0.271s-0.257-0.178-0.418-0.254s-0.345-0.142-0.562-0.189
		s-0.468-0.074-0.76-0.074c-0.292,0-0.542,0.027-0.759,0.074s-0.402,0.112-0.562,0.188s-0.297,0.164-0.419,0.254
		s-0.228,0.183-0.329,0.271c-0.092,0.08-0.179,0.156-0.271,0.225s-0.191,0.131-0.305,0.183s-0.244,0.094-0.401,0.123
		s-0.34,0.045-0.56,0.045c-0.221,0-0.405-0.016-0.562-0.045s-0.288-0.071-0.402-0.123s-0.212-0.114-0.305-0.183
		s-0.179-0.145-0.271-0.226c-0.106-0.093-0.216-0.188-0.338-0.279s-0.259-0.178-0.418-0.253s-0.342-0.139-0.557-0.184
		s-0.464-0.071-0.755-0.071c-0.292,0-0.543,0.027-0.76,0.074s-0.402,0.112-0.562,0.188s-0.297,0.164-0.418,0.254
		s-0.228,0.183-0.328,0.271c-0.092,0.08-0.179,0.157-0.272,0.226s-0.191,0.131-0.305,0.183s-0.245,0.094-0.402,0.122
		s-0.34,0.045-0.561,0.045c-0.22,0-0.404-0.016-0.56-0.045s-0.287-0.071-0.402-0.122s-0.213-0.114-0.306-0.183
		s-0.18-0.145-0.272-0.226c-0.1-0.088-0.207-0.181-0.328-0.271s-0.258-0.178-0.418-0.254s-0.345-0.142-0.562-0.188
		s-0.468-0.074-0.76-0.074c-0.292,0-0.543,0.027-0.76,0.074s-0.402,0.112-0.562,0.188s-0.296,0.164-0.417,0.254
		s-0.227,0.183-0.327,0.271c-0.092,0.081-0.179,0.157-0.272,0.226s-0.191,0.131-0.306,0.183s-0.245,0.094-0.402,0.123
		s-0.34,0.045-0.56,0.045c-0.221,0-0.404-0.016-0.561-0.045s-0.288-0.071-0.402-0.122s-0.213-0.114-0.305-0.183
		s-0.18-0.145-0.272-0.226c-0.011-0.01-0.022-0.019-0.033-0.029s-0.022-0.02-0.034-0.031s-0.023-0.021-0.035-0.032
		s-0.024-0.022-0.036-0.033c-0.1-0.092-0.213-0.196-0.346-0.3s-0.287-0.208-0.469-0.3S1.309,9.907,1.063,9.849
		S0.535,9.756,0.209,9.756c-0.003,0-0.005,0-0.008,0s-0.005,0-0.008,0s-0.005,0-0.008,0s-0.005,0-0.008,0l0-0.062l0-0.062l0-0.062
		l0-0.062c0.003,0,0.006,0,0.008,0s0.006,0,0.008,0s0.006,0,0.008,0s0.006,0,0.008,0c0.35,0,0.652,0.037,0.917,0.099
		s0.49,0.149,0.685,0.248s0.36,0.211,0.503,0.322s0.264,0.223,0.371,0.321c0.012,0.011,0.023,0.021,0.035,0.032
		s0.023,0.021,0.034,0.031s0.022,0.02,0.033,0.029s0.021,0.019,0.032,0.028c0.088,0.077,0.169,0.148,0.253,0.211
		s0.171,0.117,0.271,0.162s0.215,0.08,0.353,0.104s0.301,0.037,0.498,0.037c0.197,0,0.359-0.013,0.497-0.037
		s0.252-0.059,0.353-0.104s0.188-0.1,0.271-0.162s0.165-0.134,0.253-0.211c0.102-0.09,0.214-0.187,0.343-0.284
		s0.277-0.191,0.452-0.275s0.376-0.156,0.612-0.208S7.484,9.767,7.8,9.767c0.316,0,0.586,0.029,0.821,0.079s0.434,0.121,0.607,0.203
		s0.32,0.177,0.451,0.274s0.246,0.198,0.354,0.292c0.089,0.077,0.17,0.148,0.254,0.211s0.171,0.117,0.272,0.162
		s0.215,0.08,0.353,0.104s0.3,0.037,0.497,0.037c0.197,0,0.359-0.013,0.497-0.037s0.252-0.059,0.353-0.104s0.187-0.1,0.271-0.162
		s0.165-0.134,0.253-0.211c0.108-0.095,0.223-0.195,0.354-0.292s0.278-0.192,0.451-0.274s0.372-0.153,0.607-0.203
		s0.505-0.079,0.821-0.079c0.315,0,0.584,0.029,0.819,0.079c0.234,0.05,0.433,0.12,0.606,0.203s0.32,0.176,0.451,0.273
		s0.246,0.197,0.354,0.291c0.089,0.078,0.17,0.149,0.254,0.212s0.171,0.118,0.272,0.163s0.215,0.08,0.353,0.104
		s0.301,0.037,0.498,0.037c0.197,0,0.359-0.013,0.497-0.037s0.252-0.059,0.352-0.104s0.187-0.099,0.271-0.162
		s0.164-0.133,0.253-0.211c0.108-0.095,0.223-0.195,0.354-0.293s0.279-0.192,0.452-0.274s0.372-0.153,0.607-0.203
		s0.505-0.079,0.82-0.079c0.316,0,0.586,0.029,0.821,0.08s0.434,0.121,0.607,0.203s0.32,0.177,0.451,0.274s0.245,0.198,0.353,0.292
		c0.089,0.077,0.17,0.148,0.254,0.211s0.171,0.117,0.272,0.162s0.215,0.08,0.353,0.104s0.3,0.037,0.496,0.037
		c0.197,0,0.359-0.013,0.498-0.037s0.252-0.059,0.353-0.104s0.187-0.1,0.271-0.162s0.165-0.134,0.253-0.211
		c0.117-0.103,0.247-0.205,0.395-0.301s0.317-0.185,0.513-0.26s0.419-0.137,0.677-0.179s0.551-0.063,0.886-0.058l-0.001,0.062
		l-0.001,0.062l-0.001,0.062l-0.001,0.062c-0.313-0.006-0.585,0.012-0.824,0.049s-0.445,0.092-0.626,0.161s-0.337,0.151-0.476,0.24
		s-0.262,0.187-0.375,0.287c-0.092,0.08-0.179,0.157-0.272,0.226s-0.191,0.131-0.305,0.183s-0.245,0.094-0.402,0.122
		S26.056,11.38,25.836,11.38z M25.836,9.066c-0.22,0-0.403-0.016-0.56-0.045s-0.287-0.071-0.401-0.122s-0.213-0.114-0.306-0.183
		s-0.18-0.145-0.273-0.225c-0.1-0.088-0.206-0.181-0.327-0.271s-0.257-0.178-0.418-0.254c-0.16-0.077-0.345-0.142-0.562-0.189
		s-0.468-0.074-0.76-0.074c-0.292,0-0.542,0.027-0.759,0.074s-0.402,0.112-0.562,0.188c-0.161,0.077-0.297,0.164-0.419,0.254
		S20.26,8.403,20.16,8.491c-0.092,0.08-0.179,0.156-0.271,0.225s-0.191,0.131-0.305,0.183s-0.244,0.094-0.401,0.123
		s-0.34,0.045-0.56,0.045c-0.221,0-0.405-0.016-0.562-0.045s-0.288-0.071-0.402-0.123s-0.212-0.114-0.305-0.183
		s-0.179-0.145-0.271-0.226c-0.106-0.093-0.216-0.188-0.338-0.279s-0.259-0.178-0.418-0.253c-0.159-0.075-0.342-0.139-0.557-0.184
		s-0.464-0.071-0.755-0.071c-0.292,0-0.543,0.027-0.76,0.074s-0.402,0.112-0.562,0.188c-0.16,0.077-0.297,0.164-0.418,0.254
		s-0.228,0.183-0.328,0.271c-0.092,0.08-0.179,0.157-0.272,0.226s-0.191,0.131-0.305,0.183s-0.245,0.094-0.402,0.122
		s-0.34,0.045-0.561,0.045c-0.22,0-0.404-0.016-0.56-0.045s-0.287-0.071-0.402-0.122s-0.213-0.114-0.306-0.183
		S9.96,8.571,9.867,8.491C9.767,8.403,9.661,8.31,9.54,8.219S9.282,8.042,9.121,7.965c-0.16-0.077-0.345-0.142-0.562-0.188
		S8.092,7.703,7.8,7.703c-0.292,0-0.543,0.027-0.76,0.074S6.638,7.889,6.477,7.965C6.317,8.042,6.181,8.129,6.06,8.219
		S5.833,8.402,5.733,8.49C5.641,8.571,5.554,8.647,5.461,8.716S5.27,8.847,5.156,8.899S4.911,8.993,4.754,9.022
		s-0.34,0.045-0.56,0.045c-0.221,0-0.404-0.016-0.561-0.045S3.345,8.951,3.23,8.899S3.017,8.785,2.925,8.716
		s-0.18-0.145-0.272-0.226C2.642,8.481,2.631,8.471,2.62,8.461s-0.022-0.02-0.034-0.031S2.564,8.41,2.552,8.399
		S2.528,8.377,2.516,8.366c-0.1-0.092-0.213-0.196-0.346-0.3c-0.133-0.104-0.287-0.208-0.469-0.3S1.309,7.593,1.063,7.535
		S0.535,7.442,0.209,7.442c-0.003,0-0.005,0-0.008,0s-0.005,0-0.008,0s-0.005,0-0.008,0s-0.005,0-0.008,0l0-0.062l0-0.062l0-0.062
		l0-0.062c0.003,0,0.006,0,0.008,0s0.006,0,0.008,0s0.006,0,0.008,0s0.006,0,0.008,0c0.35,0,0.652,0.037,0.917,0.099
		s0.49,0.149,0.685,0.248s0.36,0.211,0.503,0.322s0.264,0.223,0.371,0.321C2.697,8.193,2.709,8.204,2.72,8.214
		s0.023,0.021,0.034,0.031s0.022,0.02,0.033,0.029s0.021,0.019,0.032,0.028C2.906,8.379,2.987,8.45,3.071,8.513
		S3.242,8.63,3.342,8.675s0.215,0.08,0.353,0.104s0.301,0.037,0.498,0.037c0.197,0,0.359-0.013,0.497-0.037S4.943,8.72,5.044,8.675
		s0.188-0.1,0.271-0.162S5.48,8.379,5.568,8.302c0.102-0.09,0.214-0.187,0.343-0.284c0.13-0.096,0.277-0.191,0.452-0.275
		s0.376-0.156,0.612-0.208S7.484,7.453,7.8,7.453c0.316,0,0.586,0.029,0.821,0.079s0.434,0.121,0.607,0.203s0.32,0.177,0.451,0.274
		c0.131,0.097,0.246,0.198,0.354,0.292c0.089,0.077,0.17,0.148,0.254,0.211s0.171,0.117,0.272,0.162s0.215,0.08,0.353,0.104
		s0.3,0.037,0.497,0.037c0.197,0,0.359-0.013,0.497-0.037s0.252-0.059,0.353-0.104s0.187-0.1,0.271-0.162s0.165-0.134,0.253-0.211
		c0.108-0.095,0.223-0.195,0.354-0.292c0.131-0.097,0.278-0.192,0.451-0.274s0.372-0.153,0.607-0.203s0.505-0.079,0.821-0.079
		c0.315,0,0.584,0.029,0.819,0.079c0.234,0.05,0.433,0.12,0.606,0.203s0.32,0.176,0.451,0.273c0.131,0.097,0.246,0.197,0.354,0.291
		c0.089,0.078,0.17,0.149,0.254,0.212s0.171,0.118,0.272,0.163s0.215,0.08,0.353,0.104s0.301,0.037,0.498,0.037
		c0.197,0,0.359-0.013,0.497-0.037s0.252-0.059,0.352-0.104s0.187-0.099,0.271-0.162s0.164-0.133,0.253-0.211
		c0.108-0.095,0.223-0.195,0.354-0.293c0.131-0.097,0.279-0.192,0.452-0.274s0.372-0.153,0.607-0.203s0.505-0.079,0.82-0.079
		c0.316,0,0.586,0.029,0.821,0.08s0.434,0.121,0.607,0.203s0.32,0.177,0.451,0.274c0.131,0.097,0.245,0.198,0.353,0.292
		c0.089,0.077,0.17,0.148,0.254,0.211s0.171,0.117,0.272,0.162s0.215,0.08,0.353,0.104s0.3,0.037,0.496,0.037
		c0.197,0,0.359-0.013,0.498-0.037s0.252-0.059,0.353-0.104s0.187-0.1,0.271-0.162s0.165-0.134,0.253-0.211
		c0.117-0.103,0.247-0.205,0.395-0.3c0.149-0.096,0.317-0.184,0.513-0.26s0.419-0.137,0.677-0.179s0.551-0.064,0.887-0.06
		l-0.001,0.062l-0.001,0.062L29.678,7.69l-0.001,0.062c-0.313-0.008-0.585,0.009-0.824,0.045s-0.445,0.092-0.626,0.162
		c-0.181,0.069-0.337,0.152-0.476,0.243s-0.262,0.188-0.375,0.288c-0.092,0.08-0.179,0.157-0.272,0.226s-0.191,0.131-0.305,0.183
		s-0.245,0.094-0.402,0.122S26.056,9.066,25.836,9.066z"/>
</g>
<g>
	<path class="st0" d="M29.565,22.577v-0.061v-0.061v-0.061v-0.061c-1.128-0.469-2.283-0.886-3.461-1.248
		c-1.179-0.362-2.382-0.668-3.605-0.915s-2.469-0.436-3.731-0.563c-1.263-0.127-2.543-0.192-3.839-0.192
		c-1.296,0-2.577,0.065-3.839,0.192c-1.263,0.127-2.508,0.316-3.731,0.563s-2.426,0.554-3.605,0.915
		c-1.179,0.362-2.333,0.779-3.461,1.248v0.061v0.061v0.061v0.061c1.127-0.472,2.281-0.891,3.46-1.255
		c1.178-0.364,2.381-0.672,3.605-0.92s2.469-0.439,3.732-0.566c1.263-0.128,2.544-0.193,3.841-0.193c1.296,0,2.577,0.065,3.84,0.193
		c1.263,0.128,2.508,0.318,3.732,0.566s2.426,0.557,3.605,0.92C27.283,21.686,28.438,22.105,29.565,22.577"/>
</g>
<g>
	<path class="st0" d="M29.565,22.577c0.019,0.008,0.038,0.016,0.057,0.024c0.019,0.008,0.038,0.016,0.057,0.023
		s0.038,0.016,0.057,0.023s0.038,0.016,0.056,0.024v-0.062v-0.062v-0.062v-0.062c-0.019-0.008-0.038-0.016-0.056-0.023
		s-0.038-0.015-0.057-0.022s-0.038-0.015-0.057-0.022c-0.019-0.007-0.038-0.015-0.057-0.023v0.061v0.061v0.061V22.577z"/>
</g>
<g>
	<path class="st0" d="M0.291,22.577v-0.061v-0.061v-0.061v-0.061c-0.019,0.008-0.038,0.015-0.057,0.023
		c-0.019,0.007-0.038,0.015-0.057,0.022S0.139,22.393,0.12,22.4s-0.038,0.015-0.056,0.023v0.062v0.062v0.062v0.062
		c0.019-0.008,0.037-0.016,0.056-0.024c0.019-0.008,0.038-0.016,0.057-0.023s0.038-0.016,0.057-0.023
		C0.253,22.593,0.272,22.585,0.291,22.577"/>
</g>
<g>
	<path class="st0" d="M29.808,29.908h-7.436h-7.436H7.5H0.064v-7.432v-7.432V7.611V0.179H7.5h7.436h7.436h7.436v7.432v7.432v7.432
		V29.908z M0.314,29.658h7.311h7.311h7.311h7.311v-7.307v-7.307V7.736V0.429h-7.311h-7.311H7.625H0.314v7.307v7.307v7.307V29.658z"
		/>
</g>
</svg>
