<?xml version="1.0" encoding="utf-8"?>
<!-- Generator: Adobe Illustrator 19.1.0, SVG Export Plug-In . SVG Version: 6.00 Build 0)  -->
<svg version="1.1" id="Layer_1" xmlns="http://www.w3.org/2000/svg" xmlns:xlink="http://www.w3.org/1999/xlink" x="0px" y="0px"
	 viewBox="0 0 29.91 30.086" style="enable-background:new 0 0 29.91 30.086;" xml:space="preserve">
<style type="text/css">
	.st0{fill:#4D4D4D;}
	.st1{fill-rule:evenodd;clip-rule:evenodd;fill:#4C4C4C;}
	.st2{fill:#4C4C4C;}
	.st3{fill:#383330;}
	.st4{fill:#1F1A17;}
	.st5{fill:#4D4C4C;}
	.st6{fill:none;stroke:#000000;stroke-width:0.3;stroke-miterlimit:10;}
	.st7{fill:#E61413;}
	.st8{fill:#5F5357;}
	.st9{fill:#115C78;}
	.st10{fill-rule:evenodd;clip-rule:evenodd;fill:#4D4D4D;}
	.st11{fill-rule:evenodd;clip-rule:evenodd;}
	.st12{fill:#FFFFFF;}
	.st13{fill:none;}
	.st14{fill:#231F20;}
	.st15{clip-path:url(#SVGID_2_);}
	.st16{clip-path:url(#SVGID_4_);fill:#FCF118;}
	.st17{clip-path:url(#SVGID_4_);fill:#FCF018;}
	.st18{clip-path:url(#SVGID_4_);fill:#FCEF18;}
	.st19{clip-path:url(#SVGID_4_);fill:#FCEE18;}
	.st20{clip-path:url(#SVGID_4_);fill:#FCED18;}
	.st21{clip-path:url(#SVGID_4_);fill:#FCEC18;}
	.st22{clip-path:url(#SVGID_4_);fill:#FCEB18;}
	.st23{clip-path:url(#SVGID_4_);fill:#FCEA18;}
	.st24{clip-path:url(#SVGID_4_);fill:#FCE918;}
	.st25{clip-path:url(#SVGID_4_);fill:#FCE818;}
	.st26{clip-path:url(#SVGID_4_);fill:#FCE718;}
	.st27{clip-path:url(#SVGID_4_);fill:#FCE617;}
	.st28{clip-path:url(#SVGID_4_);fill:#FCE517;}
	.st29{clip-path:url(#SVGID_4_);fill:#FCE417;}
	.st30{clip-path:url(#SVGID_4_);fill:#FCE317;}
	.st31{clip-path:url(#SVGID_4_);fill:#FCE217;}
	.st32{clip-path:url(#SVGID_4_);fill:#FCE117;}
	.st33{clip-path:url(#SVGID_4_);fill:#FCE017;}
	.st34{clip-path:url(#SVGID_4_);fill:#FCDF17;}
	.st35{clip-path:url(#SVGID_4_);fill:#FCDE17;}
	.st36{clip-path:url(#SVGID_4_);fill:#FCDD17;}
	.st37{clip-path:url(#SVGID_4_);fill:#FCDC17;}
	.st38{clip-path:url(#SVGID_4_);fill:#FCDB17;}
	.st39{clip-path:url(#SVGID_4_);fill:#FCDA17;}
	.st40{clip-path:url(#SVGID_4_);fill:#FCD917;}
	.st41{clip-path:url(#SVGID_4_);fill:#FCD817;}
	.st42{clip-path:url(#SVGID_4_);fill:#FCD717;}
	.st43{clip-path:url(#SVGID_4_);fill:#FCD617;}
	.st44{clip-path:url(#SVGID_4_);fill:#FCD517;}
	.st45{clip-path:url(#SVGID_4_);fill:#FCD416;}
	.st46{clip-path:url(#SVGID_4_);fill:#FCD316;}
	.st47{clip-path:url(#SVGID_4_);fill:#FBD216;}
	.st48{clip-path:url(#SVGID_4_);fill:#FBD116;}
	.st49{clip-path:url(#SVGID_4_);fill:#FBD016;}
	.st50{clip-path:url(#SVGID_4_);fill:#FBCF16;}
	.st51{clip-path:url(#SVGID_4_);fill:#FBCE16;}
	.st52{clip-path:url(#SVGID_4_);fill:#FBCD16;}
	.st53{clip-path:url(#SVGID_4_);fill:#FBCC16;}
	.st54{clip-path:url(#SVGID_4_);fill:#FBCB16;}
	.st55{clip-path:url(#SVGID_4_);fill:#FBCA16;}
	.st56{clip-path:url(#SVGID_4_);fill:#FBC916;}
	.st57{clip-path:url(#SVGID_4_);fill:#FBC816;}
	.st58{clip-path:url(#SVGID_4_);fill:#FBC716;}
	.st59{clip-path:url(#SVGID_4_);fill:#FBC616;}
	.st60{clip-path:url(#SVGID_4_);fill:#FBC516;}
	.st61{clip-path:url(#SVGID_4_);fill:#FBC416;}
	.st62{clip-path:url(#SVGID_4_);fill:#FBC316;}
	.st63{clip-path:url(#SVGID_4_);fill:#FBC216;}
	.st64{clip-path:url(#SVGID_4_);fill:#FBC115;}
	.st65{clip-path:url(#SVGID_4_);fill:#FBC015;}
	.st66{clip-path:url(#SVGID_4_);fill:#FBBF15;}
	.st67{clip-path:url(#SVGID_4_);fill:#FBBE15;}
	.st68{clip-path:url(#SVGID_4_);fill:#FBBD15;}
	.st69{clip-path:url(#SVGID_4_);fill:#FBBC15;}
	.st70{clip-path:url(#SVGID_4_);fill:#FBBB15;}
	.st71{clip-path:url(#SVGID_4_);fill:#FBBA15;}
	.st72{clip-path:url(#SVGID_4_);fill:#FBB915;}
	.st73{clip-path:url(#SVGID_4_);fill:#FBB815;}
	.st74{clip-path:url(#SVGID_4_);fill:#FBB715;}
	.st75{clip-path:url(#SVGID_4_);fill:#FBB615;}
	.st76{clip-path:url(#SVGID_4_);fill:#FBB515;}
	.st77{clip-path:url(#SVGID_4_);fill:#FBB415;}
	.st78{clip-path:url(#SVGID_4_);fill:#FBB315;}
	.st79{clip-path:url(#SVGID_4_);fill:#FBB215;}
	.st80{clip-path:url(#SVGID_4_);fill:#FBB115;}
	.st81{clip-path:url(#SVGID_4_);fill:#FBB015;}
	.st82{clip-path:url(#SVGID_4_);fill:#FBAF15;}
	.st83{clip-path:url(#SVGID_4_);fill:#FAAE15;}
	.st84{clip-path:url(#SVGID_4_);fill:#FAAD14;}
	.st85{clip-path:url(#SVGID_4_);fill:#FAAC14;}
	.st86{clip-path:url(#SVGID_4_);fill:#FAAB14;}
	.st87{clip-path:url(#SVGID_4_);fill:#FAAA14;}
	.st88{clip-path:url(#SVGID_4_);fill:#FAA914;}
	.st89{clip-path:url(#SVGID_4_);fill:#FAA814;}
	.st90{clip-path:url(#SVGID_4_);fill:#FAA714;}
	.st91{clip-path:url(#SVGID_4_);fill:#FAA614;}
	.st92{clip-path:url(#SVGID_4_);fill:#FAA514;}
	.st93{clip-path:url(#SVGID_4_);fill:#FAA414;}
	.st94{clip-path:url(#SVGID_4_);fill:#FAA314;}
	.st95{clip-path:url(#SVGID_4_);fill:#FAA214;}
	.st96{clip-path:url(#SVGID_4_);fill:#FAA114;}
	.st97{clip-path:url(#SVGID_4_);fill:#FAA014;}
	.st98{clip-path:url(#SVGID_4_);fill:#FA9F14;}
	.st99{clip-path:url(#SVGID_4_);fill:#FA9E14;}
	.st100{clip-path:url(#SVGID_4_);fill:#FA9D14;}
	.st101{clip-path:url(#SVGID_4_);fill:#FA9C14;}
	.st102{clip-path:url(#SVGID_4_);fill:#FA9B14;}
	.st103{clip-path:url(#SVGID_4_);fill:#FA9A13;}
	.st104{clip-path:url(#SVGID_4_);fill:#FA9913;}
	.st105{clip-path:url(#SVGID_4_);fill:#FA9813;}
	.st106{clip-path:url(#SVGID_4_);fill:#FA9713;}
	.st107{clip-path:url(#SVGID_4_);fill:#FA9613;}
	.st108{clip-path:url(#SVGID_4_);fill:#FA9513;}
	.st109{clip-path:url(#SVGID_4_);fill:#FA9413;}
	.st110{clip-path:url(#SVGID_4_);fill:#FA9313;}
	.st111{clip-path:url(#SVGID_4_);fill:#FA9213;}
	.st112{clip-path:url(#SVGID_4_);fill:#FA9113;}
	.st113{clip-path:url(#SVGID_4_);fill:#FA9013;}
	.st114{clip-path:url(#SVGID_4_);fill:#FA8F13;}
	.st115{clip-path:url(#SVGID_4_);fill:#FA8E13;}
	.st116{clip-path:url(#SVGID_4_);fill:#FA8D13;}
	.st117{clip-path:url(#SVGID_4_);fill:#FA8C13;}
	.st118{clip-path:url(#SVGID_4_);fill:#FA8B13;}
	.st119{clip-path:url(#SVGID_4_);fill:#FA8A13;}
	.st120{clip-path:url(#SVGID_4_);fill:#FA8913;}
	.st121{clip-path:url(#SVGID_4_);fill:#FA8812;}
	.st122{clip-path:url(#SVGID_4_);fill:#FA8712;}
	.st123{clip-path:url(#SVGID_4_);fill:#FA8612;}
	.st124{clip-path:url(#SVGID_4_);fill:#F98512;}
	.st125{clip-path:url(#SVGID_4_);fill:#F98412;}
	.st126{clip-path:url(#SVGID_4_);fill:#F98312;}
	.st127{clip-path:url(#SVGID_4_);fill:#F98212;}
	.st128{clip-path:url(#SVGID_4_);fill:#F98112;}
	.st129{clip-path:url(#SVGID_4_);fill:#F98012;}
	.st130{clip-path:url(#SVGID_4_);fill:#F97F12;}
	.st131{clip-path:url(#SVGID_4_);fill:#F97E12;}
	.st132{clip-path:url(#SVGID_4_);fill:#F97D12;}
	.st133{clip-path:url(#SVGID_4_);fill:#F97C12;}
	.st134{clip-path:url(#SVGID_4_);fill:#F97B12;}
	.st135{clip-path:url(#SVGID_4_);fill:#F97A12;}
	.st136{clip-path:url(#SVGID_4_);fill:#F97912;}
	.st137{clip-path:url(#SVGID_4_);fill:#F97812;}
	.st138{clip-path:url(#SVGID_4_);fill:#F97712;}
	.st139{clip-path:url(#SVGID_4_);fill:#F97612;}
	.st140{clip-path:url(#SVGID_4_);fill:#F97511;}
	.st141{clip-path:url(#SVGID_4_);fill:#F97411;}
	.st142{clip-path:url(#SVGID_4_);fill:#F97311;}
	.st143{clip-path:url(#SVGID_4_);fill:#F97211;}
	.st144{clip-path:url(#SVGID_4_);fill:#F97111;}
	.st145{clip-path:url(#SVGID_4_);fill:#F97011;}
	.st146{clip-path:url(#SVGID_4_);fill:#F96F11;}
	.st147{clip-path:url(#SVGID_4_);fill:#F96E11;}
	.st148{clip-path:url(#SVGID_4_);fill:#F96D11;}
	.st149{clip-path:url(#SVGID_4_);fill:#F96C11;}
	.st150{clip-path:url(#SVGID_4_);fill:#F96B11;}
	.st151{clip-path:url(#SVGID_4_);fill:#F96A11;}
	.st152{clip-path:url(#SVGID_4_);fill:#F96911;}
	.st153{clip-path:url(#SVGID_4_);fill:#F96811;}
	.st154{clip-path:url(#SVGID_4_);fill:#F96711;}
	.st155{clip-path:url(#SVGID_4_);fill:#F96611;}
	.st156{clip-path:url(#SVGID_4_);fill:#F96511;}
	.st157{clip-path:url(#SVGID_4_);fill:#F96411;}
	.st158{clip-path:url(#SVGID_4_);fill:#F96311;}
	.st159{clip-path:url(#SVGID_4_);fill:#F96210;}
	.st160{clip-path:url(#SVGID_4_);fill:#F86110;}
	.st161{clip-path:url(#SVGID_4_);fill:#F86010;}
	.st162{clip-path:url(#SVGID_4_);fill:#F85F10;}
	.st163{clip-path:url(#SVGID_4_);fill:#F85E10;}
	.st164{clip-path:url(#SVGID_4_);fill:#F85D10;}
	.st165{clip-path:url(#SVGID_4_);fill:#F85C10;}
	.st166{clip-path:url(#SVGID_4_);fill:#F85B10;}
	.st167{clip-path:url(#SVGID_4_);fill:#F85A10;}
	.st168{clip-path:url(#SVGID_4_);fill:#F85910;}
	.st169{clip-path:url(#SVGID_4_);fill:#F85810;}
	.st170{clip-path:url(#SVGID_4_);fill:#F85710;}
	.st171{clip-path:url(#SVGID_4_);fill:#F85610;}
	.st172{clip-path:url(#SVGID_4_);fill:#F85510;}
	.st173{clip-path:url(#SVGID_4_);fill:#F85410;}
	.st174{clip-path:url(#SVGID_4_);fill:#F85310;}
	.st175{clip-path:url(#SVGID_4_);fill:#F85210;}
	.st176{clip-path:url(#SVGID_4_);fill:#F85110;}
	.st177{clip-path:url(#SVGID_4_);fill:#F85010;}
	.st178{clip-path:url(#SVGID_4_);fill:#F84F0F;}
	.st179{clip-path:url(#SVGID_4_);fill:#F84E0F;}
	.st180{clip-path:url(#SVGID_4_);fill:#F84D0F;}
	.st181{clip-path:url(#SVGID_4_);fill:#F84C0F;}
	.st182{clip-path:url(#SVGID_4_);fill:#F84B0F;}
	.st183{clip-path:url(#SVGID_4_);fill:#F84A0F;}
	.st184{clip-path:url(#SVGID_4_);fill:#F8490F;}
	.st185{clip-path:url(#SVGID_4_);fill:#F8480F;}
	.st186{clip-path:url(#SVGID_4_);fill:#F8470F;}
	.st187{clip-path:url(#SVGID_4_);fill:#F8460F;}
	.st188{clip-path:url(#SVGID_4_);fill:#F8450F;}
	.st189{clip-path:url(#SVGID_4_);fill:#F8440F;}
	.st190{clip-path:url(#SVGID_4_);fill:#F8430F;}
	.st191{clip-path:url(#SVGID_4_);fill:#F8420F;}
	.st192{clip-path:url(#SVGID_4_);fill:#F8410F;}
	.st193{clip-path:url(#SVGID_4_);fill:#F8400F;}
	.st194{clip-path:url(#SVGID_4_);fill:#F83F0F;}
	.st195{clip-path:url(#SVGID_4_);fill:#F83E0E;}
	.st196{clip-path:url(#SVGID_4_);fill:#F83D0E;}
	.st197{clip-path:url(#SVGID_4_);fill:#F83C0E;}
	.st198{clip-path:url(#SVGID_4_);fill:#F83B0E;}
	.st199{clip-path:url(#SVGID_4_);fill:#F73A0E;}
	.st200{clip-path:url(#SVGID_4_);fill:#F7390E;}
	.st201{clip-path:url(#SVGID_4_);fill:#F7380E;}
	.st202{clip-path:url(#SVGID_4_);fill:#F7370E;}
	.st203{clip-path:url(#SVGID_4_);fill:#F7360E;}
	.st204{clip-path:url(#SVGID_4_);fill:#F7340E;}
	.st205{clip-path:url(#SVGID_4_);fill:#F7330E;}
	.st206{clip-path:url(#SVGID_4_);fill:#F7320E;}
	.st207{clip-path:url(#SVGID_4_);fill:#F7310E;}
	.st208{clip-path:url(#SVGID_4_);fill:#F7300E;}
	.st209{clip-path:url(#SVGID_4_);fill:#F72F0E;}
	.st210{clip-path:url(#SVGID_4_);fill:#F72E0E;}
	.st211{clip-path:url(#SVGID_4_);fill:#F72D0E;}
	.st212{clip-path:url(#SVGID_4_);fill:#F72C0E;}
	.st213{clip-path:url(#SVGID_4_);fill:#F72B0E;}
	.st214{clip-path:url(#SVGID_4_);fill:#F72B0D;}
	.st215{clip-path:url(#SVGID_4_);fill:#F72A0D;}
	.st216{clip-path:url(#SVGID_4_);fill:#F7290D;}
	.st217{clip-path:url(#SVGID_4_);fill:#F7280D;}
	.st218{clip-path:url(#SVGID_4_);fill:#F7270D;}
	.st219{clip-path:url(#SVGID_4_);fill:#F7260D;}
</style>
<g>
	<path class="st0" d="M29.819,29.908h-7.432h-7.432H7.523H0.091v-7.432v-7.432V7.611V0.179h7.432h7.432h7.432h7.432v7.432v7.432
		v7.432V29.908z M0.341,29.658h7.307h7.307h7.307h7.307V22.35v-7.307V7.736V0.429h-7.307h-7.307H7.648H0.341v7.307v7.307v7.307
		V29.658z"/>
</g>
<g>
	<g>
		<path class="st10" d="M15.056,12.515c0.154,0,0.3,0.031,0.434,0.088s0.253,0.138,0.354,0.239s0.182,0.221,0.239,0.354
			c0.056,0.133,0.088,0.28,0.088,0.434c0,0.154-0.031,0.3-0.088,0.434c-0.056,0.133-0.138,0.253-0.239,0.354
			s-0.221,0.182-0.354,0.239s-0.28,0.088-0.434,0.088c-0.154,0-0.3-0.031-0.433-0.088c-0.133-0.056-0.253-0.138-0.354-0.239
			s-0.182-0.221-0.239-0.354c-0.056-0.133-0.088-0.28-0.088-0.434c0-0.154,0.031-0.3,0.088-0.434
			c0.056-0.133,0.138-0.253,0.239-0.354s0.221-0.182,0.354-0.239C14.756,12.546,14.903,12.515,15.056,12.515 M15.056,11.214
			c0.333,0,0.651,0.068,0.94,0.19s0.549,0.299,0.768,0.518s0.395,0.479,0.517,0.768s0.19,0.607,0.19,0.94
			c0,0.333-0.068,0.651-0.19,0.94s-0.299,0.549-0.517,0.768s-0.479,0.395-0.768,0.517s-0.607,0.19-0.94,0.19
			c-0.333,0-0.651-0.068-0.94-0.19s-0.549-0.299-0.768-0.517s-0.395-0.479-0.518-0.768s-0.19-0.606-0.19-0.94
			c0-0.333,0.068-0.651,0.19-0.94s0.299-0.549,0.518-0.768s0.479-0.395,0.768-0.518S14.723,11.214,15.056,11.214z"/>
	</g>
	<g>
		<path class="st10" d="M15.056,9.629c0.552,0,1.078,0.112,1.557,0.314s0.909,0.495,1.271,0.857s0.655,0.793,0.857,1.271
			c0.202,0.479,0.314,1.005,0.314,1.557c0,0.552-0.112,1.078-0.314,1.557c-0.202,0.478-0.495,0.909-0.857,1.271
			s-0.793,0.655-1.271,0.857c-0.479,0.202-1.005,0.314-1.557,0.314c-0.552,0-1.078-0.112-1.557-0.314
			c-0.478-0.202-0.909-0.495-1.271-0.857s-0.655-0.793-0.857-1.271s-0.314-1.005-0.314-1.557c0-0.552,0.112-1.078,0.314-1.557
			s0.495-0.909,0.857-1.271s0.793-0.655,1.271-0.857S14.504,9.629,15.056,9.629 M7.011,13.546c1.087-1.816,2.376-3.177,3.763-4.083
			s2.874-1.355,4.355-1.347s2.956,0.473,4.323,1.397c1.366,0.924,2.624,2.307,3.668,4.15c-1.09,1.786-2.371,3.127-3.746,4.02
			c-1.376,0.893-2.846,1.338-4.316,1.332s-2.939-0.463-4.312-1.373C9.372,16.731,8.096,15.367,7.011,13.546z"/>
	</g>
	<g>
		<path class="st0" d="M5.131,9.547c0.131-0.134,0.282-0.253,0.451-0.356c0.169-0.103,0.355-0.19,0.554-0.262S6.548,8.801,6.77,8.76
			C6.992,8.72,7.223,8.695,7.46,8.686c0.236-0.009,0.477-0.002,0.72,0.02c0.243,0.022,0.488,0.06,0.73,0.114
			s0.483,0.123,0.717,0.209c0.234,0.085,0.462,0.187,0.68,0.304c0.458,0.246,0.882,0.403,1.286,0.49
			c0.404,0.087,0.788,0.104,1.165,0.073s0.748-0.111,1.126-0.219c0.378-0.108,0.762-0.244,1.168-0.387l0.044-0.016l0.044-0.016
			l0.044-0.016l0.044-0.016c0.596-0.21,1.113-0.338,1.57-0.403s0.856-0.069,1.216-0.03s0.683,0.119,0.988,0.222
			c0.305,0.102,0.593,0.227,0.885,0.352c0.156,0.067,0.313,0.135,0.475,0.2c0.162,0.065,0.327,0.127,0.501,0.183
			s0.355,0.106,0.547,0.146s0.396,0.072,0.613,0.09c0.37,0.031,0.681,0.037,0.945,0.025c0.264-0.012,0.481-0.042,0.663-0.082
			s0.329-0.09,0.454-0.143c0.125-0.053,0.227-0.108,0.32-0.157c0.026-0.014,0.051-0.027,0.076-0.04
			c0.025-0.013,0.049-0.025,0.073-0.037s0.048-0.023,0.072-0.033s0.048-0.02,0.073-0.029l0.02,0.055l0.02,0.055l0.02,0.055
			l0.02,0.055c-0.021,0.007-0.041,0.015-0.062,0.025c-0.021,0.009-0.042,0.019-0.064,0.03s-0.044,0.022-0.066,0.034
			s-0.046,0.024-0.069,0.037c-0.099,0.053-0.208,0.112-0.341,0.168s-0.289,0.11-0.482,0.153s-0.421,0.076-0.698,0.089
			s-0.603,0.008-0.991-0.025c-0.227-0.019-0.439-0.051-0.639-0.093S20.98,10.034,20.8,9.976s-0.35-0.122-0.517-0.188
			s-0.328-0.136-0.488-0.205c-0.281-0.121-0.559-0.241-0.853-0.339s-0.604-0.176-0.952-0.213s-0.731-0.034-1.172,0.029
			c-0.441,0.063-0.938,0.186-1.513,0.389l-0.044,0.016l-0.044,0.016l-0.044,0.016L15.13,9.511c-0.419,0.148-0.817,0.289-1.207,0.4
			s-0.775,0.194-1.167,0.225s-0.791,0.012-1.213-0.08c-0.422-0.092-0.866-0.257-1.347-0.515C9.987,9.428,9.768,9.331,9.544,9.249
			C9.32,9.167,9.09,9.101,8.857,9.049S8.39,8.961,8.158,8.94c-0.233-0.021-0.464-0.028-0.69-0.019
			C7.246,8.929,7.029,8.952,6.821,8.989S6.415,9.078,6.23,9.144S5.871,9.29,5.715,9.385S5.419,9.588,5.299,9.711L5.257,9.67
			L5.215,9.629L5.173,9.588L5.131,9.547z"/>
	</g>
	<g>
		<path class="st0" d="M5.131,10.736c0.131-0.134,0.282-0.252,0.451-0.355c0.169-0.103,0.355-0.19,0.554-0.262
			S6.548,9.99,6.77,9.949c0.222-0.041,0.453-0.065,0.69-0.074c0.236-0.009,0.477-0.002,0.72,0.02c0.243,0.022,0.488,0.06,0.73,0.114
			s0.483,0.123,0.717,0.209c0.234,0.085,0.462,0.187,0.68,0.304c0.458,0.246,0.882,0.403,1.286,0.49
			c0.404,0.087,0.788,0.104,1.165,0.073s0.748-0.111,1.126-0.219c0.378-0.108,0.762-0.244,1.168-0.387l0.044-0.016l0.044-0.016
			l0.044-0.016l0.044-0.016c0.596-0.21,1.113-0.338,1.57-0.403s0.856-0.069,1.216-0.03s0.683,0.119,0.988,0.222
			c0.305,0.102,0.593,0.227,0.885,0.352c0.156,0.067,0.313,0.135,0.475,0.2c0.162,0.065,0.327,0.127,0.501,0.183
			s0.355,0.106,0.547,0.147s0.396,0.072,0.613,0.09c0.37,0.031,0.681,0.037,0.945,0.025c0.264-0.012,0.481-0.042,0.663-0.082
			s0.329-0.091,0.454-0.143c0.125-0.053,0.227-0.108,0.32-0.157c0.026-0.014,0.051-0.027,0.076-0.04
			c0.025-0.013,0.049-0.025,0.073-0.037s0.048-0.023,0.072-0.033s0.048-0.02,0.073-0.029l0.02,0.056l0.02,0.056l0.02,0.056
			l0.02,0.056c-0.021,0.007-0.041,0.015-0.062,0.025c-0.021,0.009-0.042,0.019-0.064,0.03s-0.044,0.022-0.066,0.034
			s-0.046,0.024-0.069,0.037c-0.099,0.053-0.208,0.112-0.341,0.168s-0.289,0.11-0.482,0.153s-0.421,0.076-0.698,0.089
			s-0.603,0.008-0.991-0.025c-0.227-0.019-0.439-0.052-0.639-0.093s-0.387-0.093-0.567-0.151s-0.35-0.121-0.517-0.188
			s-0.328-0.136-0.488-0.205c-0.281-0.121-0.559-0.241-0.853-0.339s-0.604-0.176-0.952-0.213s-0.731-0.034-1.172,0.029
			c-0.441,0.063-0.938,0.186-1.513,0.389l-0.044,0.016l-0.044,0.016l-0.044,0.016L15.13,10.7c-0.419,0.148-0.817,0.289-1.207,0.4
			s-0.775,0.194-1.167,0.225s-0.791,0.012-1.213-0.08c-0.422-0.092-0.866-0.257-1.347-0.515c-0.209-0.112-0.427-0.209-0.651-0.291
			c-0.224-0.082-0.454-0.148-0.687-0.2s-0.467-0.088-0.7-0.109c-0.233-0.021-0.464-0.028-0.69-0.019
			c-0.222,0.008-0.439,0.031-0.646,0.069s-0.406,0.089-0.592,0.155s-0.358,0.146-0.515,0.241s-0.296,0.203-0.416,0.326l-0.042-0.041
			l-0.042-0.041l-0.042-0.041L5.131,10.736z"/>
	</g>
	<g>
		<path class="st0" d="M5.131,11.924c0.131-0.134,0.282-0.253,0.451-0.356c0.169-0.103,0.355-0.19,0.554-0.262
			s0.412-0.128,0.634-0.168c0.222-0.04,0.453-0.065,0.69-0.074c0.236-0.009,0.477-0.002,0.72,0.02
			c0.243,0.022,0.488,0.06,0.73,0.114s0.483,0.123,0.717,0.209c0.234,0.085,0.462,0.187,0.68,0.304
			c0.458,0.246,0.882,0.403,1.286,0.49c0.404,0.087,0.788,0.104,1.165,0.073s0.748-0.111,1.126-0.219
			c0.378-0.108,0.762-0.244,1.168-0.387l0.044-0.016l0.044-0.016l0.044-0.016l0.044-0.016c0.596-0.21,1.113-0.338,1.57-0.403
			s0.856-0.069,1.216-0.03s0.683,0.119,0.988,0.222c0.305,0.102,0.593,0.227,0.885,0.352c0.156,0.067,0.313,0.135,0.475,0.2
			c0.162,0.065,0.327,0.127,0.501,0.183s0.355,0.106,0.547,0.146s0.396,0.072,0.613,0.09c0.37,0.031,0.681,0.037,0.945,0.025
			c0.264-0.012,0.481-0.042,0.663-0.082s0.329-0.09,0.454-0.143c0.125-0.053,0.227-0.108,0.32-0.157
			c0.026-0.014,0.051-0.027,0.076-0.04c0.025-0.013,0.049-0.025,0.073-0.037s0.048-0.023,0.072-0.033s0.048-0.02,0.073-0.029
			l0.02,0.055l0.02,0.055l0.02,0.055l0.02,0.055c-0.021,0.007-0.041,0.015-0.062,0.025c-0.021,0.009-0.042,0.019-0.064,0.03
			s-0.044,0.022-0.066,0.034s-0.046,0.024-0.069,0.037c-0.099,0.053-0.208,0.112-0.341,0.168s-0.289,0.11-0.482,0.153
			s-0.421,0.076-0.698,0.089s-0.603,0.008-0.991-0.025c-0.227-0.019-0.439-0.052-0.639-0.093s-0.387-0.093-0.567-0.151
			s-0.35-0.121-0.517-0.188s-0.328-0.136-0.488-0.205c-0.281-0.121-0.559-0.241-0.853-0.339s-0.604-0.176-0.952-0.213
			s-0.731-0.034-1.172,0.029c-0.441,0.063-0.938,0.186-1.513,0.389l-0.044,0.016l-0.044,0.016l-0.044,0.016l-0.044,0.016
			c-0.419,0.148-0.817,0.289-1.207,0.4s-0.775,0.194-1.167,0.225s-0.791,0.012-1.213-0.08c-0.422-0.092-0.866-0.257-1.347-0.515
			c-0.209-0.112-0.427-0.209-0.651-0.291c-0.224-0.082-0.454-0.148-0.687-0.2s-0.467-0.088-0.7-0.109
			c-0.233-0.021-0.464-0.028-0.69-0.019c-0.222,0.008-0.439,0.031-0.646,0.069s-0.406,0.089-0.592,0.155s-0.358,0.146-0.515,0.241
			s-0.296,0.203-0.416,0.326l-0.042-0.041l-0.042-0.041l-0.042-0.041L5.131,11.924z"/>
	</g>
	<g>
		<path class="st0" d="M5.131,13.113c0.131-0.134,0.282-0.253,0.451-0.356c0.169-0.103,0.355-0.19,0.554-0.262
			s0.412-0.128,0.634-0.169c0.222-0.04,0.453-0.065,0.69-0.074c0.236-0.009,0.477-0.002,0.72,0.02
			c0.243,0.022,0.488,0.06,0.73,0.114s0.483,0.123,0.717,0.209c0.234,0.085,0.462,0.187,0.68,0.304
			c0.458,0.246,0.882,0.403,1.286,0.49c0.404,0.087,0.788,0.104,1.165,0.073s0.748-0.111,1.126-0.219
			c0.378-0.108,0.762-0.244,1.168-0.388l0.044-0.016l0.044-0.016l0.044-0.016l0.044-0.016c0.596-0.21,1.113-0.338,1.57-0.404
			s0.856-0.069,1.216-0.03s0.683,0.119,0.988,0.222c0.305,0.102,0.593,0.227,0.885,0.352c0.156,0.067,0.313,0.135,0.475,0.2
			c0.162,0.065,0.327,0.127,0.501,0.183s0.355,0.106,0.547,0.146s0.396,0.072,0.613,0.09c0.37,0.031,0.681,0.037,0.945,0.025
			c0.264-0.012,0.481-0.042,0.663-0.082s0.329-0.09,0.454-0.143c0.125-0.053,0.227-0.108,0.32-0.157
			c0.026-0.014,0.051-0.027,0.076-0.04c0.025-0.013,0.049-0.025,0.073-0.037s0.048-0.023,0.072-0.033s0.048-0.02,0.073-0.029
			l0.02,0.055l0.02,0.055l0.02,0.055l0.02,0.055c-0.021,0.007-0.041,0.016-0.062,0.025c-0.021,0.009-0.042,0.019-0.064,0.03
			s-0.044,0.022-0.066,0.034s-0.046,0.024-0.069,0.037c-0.099,0.053-0.208,0.112-0.341,0.168s-0.289,0.11-0.482,0.153
			s-0.421,0.076-0.698,0.089s-0.603,0.008-0.991-0.025c-0.227-0.019-0.439-0.051-0.639-0.093s-0.387-0.093-0.567-0.151
			s-0.35-0.121-0.517-0.188s-0.328-0.136-0.488-0.205c-0.281-0.121-0.559-0.241-0.853-0.339s-0.604-0.176-0.952-0.213
			s-0.731-0.034-1.172,0.029c-0.441,0.063-0.938,0.186-1.513,0.389l-0.044,0.016l-0.044,0.016l-0.044,0.016l-0.044,0.016
			c-0.419,0.148-0.817,0.289-1.207,0.4s-0.775,0.194-1.167,0.225s-0.791,0.012-1.213-0.08c-0.422-0.092-0.866-0.257-1.347-0.515
			c-0.209-0.112-0.427-0.209-0.651-0.291c-0.224-0.082-0.454-0.149-0.687-0.2s-0.467-0.088-0.7-0.109
			c-0.233-0.021-0.464-0.028-0.69-0.019c-0.222,0.008-0.439,0.031-0.646,0.069s-0.406,0.089-0.592,0.155s-0.358,0.146-0.515,0.241
			s-0.296,0.203-0.416,0.326l-0.042-0.041l-0.042-0.041l-0.042-0.041L5.131,13.113z"/>
	</g>
	<g>
		<path class="st0" d="M5.131,14.302c0.131-0.134,0.282-0.253,0.451-0.356c0.169-0.103,0.355-0.19,0.554-0.262
			s0.412-0.128,0.634-0.168c0.222-0.04,0.453-0.065,0.69-0.074c0.236-0.009,0.477-0.002,0.72,0.02
			c0.243,0.022,0.488,0.06,0.73,0.114s0.483,0.123,0.717,0.209c0.234,0.085,0.462,0.187,0.68,0.304
			c0.458,0.246,0.882,0.403,1.286,0.49c0.404,0.087,0.788,0.104,1.165,0.073s0.748-0.111,1.126-0.219
			c0.378-0.108,0.762-0.244,1.168-0.387l0.044-0.016l0.044-0.016l0.044-0.016l0.044-0.016c0.596-0.21,1.113-0.338,1.57-0.404
			s0.856-0.069,1.216-0.03s0.683,0.119,0.988,0.222c0.305,0.102,0.593,0.227,0.885,0.352c0.156,0.067,0.313,0.135,0.475,0.2
			c0.162,0.065,0.327,0.127,0.501,0.183s0.355,0.106,0.547,0.146s0.396,0.072,0.613,0.09c0.37,0.031,0.681,0.037,0.945,0.025
			c0.264-0.012,0.481-0.042,0.663-0.082s0.329-0.09,0.454-0.143c0.125-0.053,0.227-0.108,0.32-0.157
			c0.026-0.014,0.051-0.027,0.076-0.04c0.025-0.013,0.049-0.025,0.073-0.037s0.048-0.023,0.072-0.033s0.048-0.02,0.073-0.029
			l0.02,0.055l0.02,0.055l0.02,0.055l0.02,0.055c-0.021,0.007-0.041,0.016-0.062,0.025c-0.021,0.009-0.042,0.019-0.064,0.03
			s-0.044,0.022-0.066,0.034s-0.046,0.024-0.069,0.037c-0.099,0.053-0.208,0.112-0.341,0.168s-0.289,0.11-0.482,0.153
			s-0.421,0.076-0.698,0.089s-0.603,0.008-0.991-0.025c-0.227-0.019-0.439-0.052-0.639-0.093s-0.387-0.093-0.567-0.151
			s-0.35-0.122-0.517-0.188s-0.328-0.136-0.488-0.205c-0.281-0.121-0.559-0.241-0.853-0.34s-0.604-0.176-0.952-0.213
			s-0.731-0.034-1.172,0.029c-0.441,0.063-0.938,0.186-1.513,0.389l-0.044,0.016l-0.044,0.016l-0.044,0.016l-0.044,0.016
			c-0.419,0.148-0.817,0.289-1.207,0.4s-0.775,0.194-1.167,0.225s-0.791,0.012-1.213-0.08c-0.422-0.092-0.866-0.257-1.347-0.515
			c-0.209-0.112-0.427-0.209-0.651-0.291c-0.224-0.082-0.454-0.148-0.687-0.2s-0.467-0.088-0.7-0.109
			c-0.233-0.021-0.464-0.028-0.69-0.019c-0.222,0.008-0.439,0.031-0.646,0.069S6.415,13.834,6.23,13.9s-0.358,0.146-0.515,0.241
			s-0.296,0.203-0.416,0.326l-0.042-0.041l-0.042-0.041l-0.042-0.041L5.131,14.302z"/>
	</g>
	<g>
		<path class="st0" d="M5.131,15.491c0.131-0.134,0.282-0.253,0.451-0.356c0.169-0.103,0.355-0.19,0.554-0.262
			s0.412-0.128,0.634-0.169c0.222-0.04,0.453-0.065,0.69-0.074c0.236-0.009,0.477-0.002,0.72,0.02
			c0.243,0.022,0.488,0.06,0.73,0.114s0.483,0.123,0.717,0.209c0.234,0.085,0.462,0.187,0.68,0.304
			c0.458,0.246,0.882,0.403,1.286,0.49c0.404,0.087,0.788,0.104,1.165,0.073s0.748-0.111,1.126-0.219
			c0.378-0.108,0.762-0.244,1.168-0.387l0.044-0.016l0.044-0.016l0.044-0.016l0.044-0.016c0.596-0.21,1.113-0.338,1.57-0.403
			s0.856-0.069,1.216-0.03s0.683,0.119,0.988,0.222c0.305,0.102,0.593,0.227,0.885,0.353c0.156,0.067,0.313,0.135,0.475,0.2
			c0.162,0.065,0.327,0.127,0.501,0.183s0.355,0.106,0.547,0.146s0.396,0.072,0.613,0.09c0.37,0.031,0.681,0.037,0.945,0.025
			c0.264-0.012,0.481-0.042,0.663-0.082s0.329-0.09,0.454-0.143c0.125-0.053,0.227-0.108,0.32-0.157
			c0.026-0.014,0.051-0.027,0.076-0.04c0.025-0.013,0.049-0.025,0.073-0.037s0.048-0.023,0.072-0.033s0.048-0.02,0.073-0.029
			l0.02,0.055l0.02,0.055l0.02,0.055l0.02,0.055c-0.021,0.007-0.041,0.016-0.062,0.025c-0.021,0.009-0.042,0.019-0.064,0.03
			s-0.044,0.022-0.066,0.034s-0.046,0.024-0.069,0.037c-0.099,0.053-0.208,0.112-0.341,0.168c-0.133,0.056-0.289,0.11-0.482,0.153
			s-0.421,0.076-0.698,0.089c-0.277,0.013-0.603,0.008-0.991-0.025c-0.227-0.019-0.439-0.052-0.639-0.093
			c-0.2-0.042-0.387-0.093-0.567-0.151s-0.35-0.122-0.517-0.188s-0.328-0.136-0.488-0.205c-0.281-0.121-0.559-0.241-0.853-0.34
			s-0.604-0.176-0.952-0.213s-0.731-0.034-1.172,0.029c-0.441,0.063-0.938,0.186-1.513,0.389l-0.044,0.016l-0.044,0.016
			l-0.044,0.016l-0.044,0.016c-0.419,0.148-0.817,0.289-1.207,0.4s-0.775,0.194-1.167,0.225s-0.791,0.012-1.213-0.08
			c-0.422-0.092-0.866-0.257-1.347-0.515c-0.209-0.112-0.427-0.209-0.651-0.291c-0.224-0.082-0.454-0.148-0.687-0.2
			s-0.467-0.088-0.7-0.109c-0.233-0.021-0.464-0.028-0.69-0.019c-0.222,0.009-0.439,0.031-0.646,0.069s-0.406,0.089-0.592,0.155
			s-0.358,0.146-0.515,0.241s-0.296,0.203-0.416,0.326l-0.042-0.041l-0.042-0.041l-0.042-0.041L5.131,15.491z"/>
	</g>
	<g>
		<path class="st0" d="M5.131,16.68c0.131-0.134,0.282-0.253,0.451-0.356c0.169-0.103,0.355-0.191,0.554-0.262
			c0.199-0.072,0.412-0.128,0.634-0.169c0.222-0.041,0.453-0.065,0.69-0.074c0.236-0.009,0.477-0.002,0.72,0.02
			c0.243,0.022,0.488,0.06,0.73,0.114c0.242,0.054,0.483,0.123,0.717,0.209c0.234,0.085,0.462,0.187,0.68,0.304
			c0.458,0.246,0.882,0.403,1.286,0.49c0.404,0.087,0.788,0.104,1.165,0.073s0.748-0.111,1.126-0.219
			c0.378-0.108,0.762-0.244,1.168-0.387l0.044-0.016l0.044-0.016l0.044-0.016l0.044-0.016c0.596-0.21,1.113-0.338,1.57-0.403
			c0.457-0.066,0.856-0.069,1.216-0.03s0.683,0.119,0.988,0.222c0.305,0.102,0.593,0.227,0.885,0.352
			c0.156,0.067,0.313,0.135,0.475,0.2c0.162,0.065,0.327,0.127,0.501,0.183s0.355,0.106,0.547,0.147
			c0.192,0.041,0.396,0.072,0.613,0.09c0.37,0.031,0.681,0.037,0.945,0.025c0.264-0.012,0.481-0.042,0.663-0.082
			s0.329-0.09,0.454-0.143c0.125-0.053,0.227-0.108,0.32-0.157c0.026-0.014,0.051-0.027,0.076-0.04
			c0.025-0.013,0.049-0.025,0.073-0.037s0.048-0.023,0.072-0.033s0.048-0.02,0.073-0.029l0.02,0.055l0.02,0.055l0.02,0.055
			l0.02,0.055c-0.021,0.007-0.041,0.016-0.062,0.025c-0.021,0.009-0.042,0.019-0.064,0.03s-0.044,0.022-0.066,0.034
			s-0.046,0.024-0.069,0.037c-0.099,0.053-0.208,0.112-0.341,0.168s-0.289,0.11-0.482,0.153s-0.421,0.076-0.698,0.089
			s-0.603,0.008-0.991-0.025c-0.227-0.019-0.439-0.052-0.639-0.093s-0.387-0.093-0.567-0.151s-0.35-0.122-0.517-0.188
			s-0.328-0.136-0.488-0.205c-0.281-0.121-0.559-0.241-0.853-0.339s-0.604-0.176-0.952-0.213s-0.731-0.034-1.172,0.029
			c-0.441,0.063-0.938,0.186-1.513,0.389l-0.044,0.016l-0.044,0.016l-0.044,0.016l-0.044,0.016c-0.419,0.148-0.817,0.289-1.207,0.4
			c-0.391,0.111-0.775,0.194-1.167,0.225s-0.791,0.012-1.213-0.08c-0.422-0.092-0.866-0.257-1.347-0.516
			c-0.209-0.112-0.427-0.209-0.651-0.291c-0.224-0.082-0.454-0.148-0.687-0.2s-0.467-0.088-0.7-0.109
			c-0.233-0.021-0.464-0.028-0.69-0.019c-0.222,0.008-0.439,0.031-0.646,0.069s-0.406,0.089-0.592,0.155s-0.358,0.146-0.515,0.241
			s-0.296,0.203-0.416,0.326l-0.042-0.041l-0.042-0.041l-0.042-0.041L5.131,16.68z"/>
	</g>
	<g>
		<path class="st0" d="M5.131,17.869c0.131-0.134,0.282-0.253,0.451-0.356c0.169-0.103,0.355-0.191,0.554-0.262
			s0.412-0.128,0.634-0.169c0.222-0.041,0.453-0.065,0.69-0.074c0.236-0.009,0.477-0.002,0.72,0.02
			c0.243,0.022,0.488,0.06,0.73,0.114s0.483,0.123,0.717,0.209c0.234,0.085,0.462,0.187,0.68,0.304
			c0.458,0.246,0.882,0.403,1.286,0.49c0.404,0.087,0.788,0.104,1.165,0.073s0.748-0.111,1.126-0.219
			c0.378-0.108,0.762-0.244,1.168-0.387l0.044-0.016l0.044-0.016l0.044-0.016l0.044-0.016c0.596-0.21,1.113-0.338,1.57-0.403
			s0.856-0.069,1.216-0.03s0.683,0.119,0.988,0.222c0.305,0.102,0.593,0.227,0.885,0.352c0.156,0.067,0.313,0.135,0.475,0.2
			c0.162,0.065,0.327,0.127,0.501,0.183s0.355,0.106,0.547,0.146s0.396,0.072,0.613,0.09c0.37,0.031,0.681,0.037,0.945,0.025
			c0.264-0.012,0.481-0.042,0.663-0.082s0.329-0.09,0.454-0.143c0.125-0.053,0.227-0.108,0.32-0.157
			c0.026-0.014,0.051-0.027,0.076-0.04c0.025-0.013,0.049-0.025,0.073-0.037s0.048-0.023,0.072-0.033s0.048-0.02,0.073-0.029
			l0.02,0.055l0.02,0.055l0.02,0.055l0.02,0.055c-0.021,0.007-0.041,0.016-0.062,0.025c-0.021,0.009-0.042,0.019-0.064,0.03
			s-0.044,0.022-0.066,0.034c-0.022,0.012-0.046,0.024-0.069,0.037c-0.099,0.053-0.208,0.112-0.341,0.168
			c-0.133,0.056-0.289,0.11-0.482,0.153s-0.421,0.076-0.698,0.089c-0.277,0.013-0.603,0.008-0.991-0.025
			c-0.227-0.019-0.439-0.052-0.639-0.093c-0.2-0.042-0.387-0.093-0.567-0.151s-0.35-0.122-0.517-0.188
			c-0.166-0.067-0.328-0.136-0.488-0.205c-0.281-0.121-0.559-0.241-0.853-0.339s-0.604-0.176-0.952-0.213s-0.731-0.034-1.172,0.029
			c-0.441,0.063-0.938,0.186-1.513,0.389l-0.044,0.016l-0.044,0.016l-0.044,0.016l-0.044,0.016c-0.419,0.148-0.817,0.289-1.207,0.4
			c-0.391,0.111-0.775,0.194-1.167,0.225s-0.791,0.012-1.213-0.08c-0.422-0.092-0.866-0.257-1.347-0.515
			c-0.209-0.112-0.427-0.209-0.651-0.291c-0.224-0.082-0.454-0.148-0.687-0.2s-0.467-0.088-0.7-0.109
			c-0.233-0.021-0.464-0.028-0.69-0.019c-0.222,0.008-0.439,0.031-0.646,0.069C6.614,17.348,6.415,17.4,6.23,17.466
			s-0.358,0.146-0.515,0.241c-0.156,0.094-0.296,0.203-0.416,0.326l-0.042-0.041l-0.042-0.041L5.173,17.91L5.131,17.869z"/>
	</g>
</g>
</svg>
