<?xml version="1.0" encoding="utf-8"?>
<!-- Generator: Adobe Illustrator 19.1.0, SVG Export Plug-In . SVG Version: 6.00 Build 0)  -->
<svg version="1.1" id="Layer_1" xmlns="http://www.w3.org/2000/svg" xmlns:xlink="http://www.w3.org/1999/xlink" x="0px" y="0px"
	 viewBox="0 0 29.91 30.086" style="enable-background:new 0 0 29.91 30.086;" xml:space="preserve">
<style type="text/css">
	.st0{fill:#4D4D4D;}
	.st1{fill-rule:evenodd;clip-rule:evenodd;fill:#4C4C4C;}
	.st2{fill:#4C4C4C;}
	.st3{fill:#383330;}
	.st4{fill:#1F1A17;}
	.st5{fill:#4D4C4C;}
	.st6{fill:none;stroke:#000000;stroke-width:0.3;stroke-miterlimit:10;}
	.st7{fill:#E61413;}
	.st8{fill:#5F5357;}
	.st9{fill:#115C78;}
	.st10{fill-rule:evenodd;clip-rule:evenodd;fill:#4D4D4D;}
	.st11{fill-rule:evenodd;clip-rule:evenodd;}
	.st12{fill:#FFFFFF;}
	.st13{fill:none;}
	.st14{fill:#231F20;}
	.st15{clip-path:url(#SVGID_2_);}
	.st16{clip-path:url(#SVGID_4_);fill:#FCF118;}
	.st17{clip-path:url(#SVGID_4_);fill:#FCF018;}
	.st18{clip-path:url(#SVGID_4_);fill:#FCEF18;}
	.st19{clip-path:url(#SVGID_4_);fill:#FCEE18;}
	.st20{clip-path:url(#SVGID_4_);fill:#FCED18;}
	.st21{clip-path:url(#SVGID_4_);fill:#FCEC18;}
	.st22{clip-path:url(#SVGID_4_);fill:#FCEB18;}
	.st23{clip-path:url(#SVGID_4_);fill:#FCEA18;}
	.st24{clip-path:url(#SVGID_4_);fill:#FCE918;}
	.st25{clip-path:url(#SVGID_4_);fill:#FCE818;}
	.st26{clip-path:url(#SVGID_4_);fill:#FCE718;}
	.st27{clip-path:url(#SVGID_4_);fill:#FCE617;}
	.st28{clip-path:url(#SVGID_4_);fill:#FCE517;}
	.st29{clip-path:url(#SVGID_4_);fill:#FCE417;}
	.st30{clip-path:url(#SVGID_4_);fill:#FCE317;}
	.st31{clip-path:url(#SVGID_4_);fill:#FCE217;}
	.st32{clip-path:url(#SVGID_4_);fill:#FCE117;}
	.st33{clip-path:url(#SVGID_4_);fill:#FCE017;}
	.st34{clip-path:url(#SVGID_4_);fill:#FCDF17;}
	.st35{clip-path:url(#SVGID_4_);fill:#FCDE17;}
	.st36{clip-path:url(#SVGID_4_);fill:#FCDD17;}
	.st37{clip-path:url(#SVGID_4_);fill:#FCDC17;}
	.st38{clip-path:url(#SVGID_4_);fill:#FCDB17;}
	.st39{clip-path:url(#SVGID_4_);fill:#FCDA17;}
	.st40{clip-path:url(#SVGID_4_);fill:#FCD917;}
	.st41{clip-path:url(#SVGID_4_);fill:#FCD817;}
	.st42{clip-path:url(#SVGID_4_);fill:#FCD717;}
	.st43{clip-path:url(#SVGID_4_);fill:#FCD617;}
	.st44{clip-path:url(#SVGID_4_);fill:#FCD517;}
	.st45{clip-path:url(#SVGID_4_);fill:#FCD416;}
	.st46{clip-path:url(#SVGID_4_);fill:#FCD316;}
	.st47{clip-path:url(#SVGID_4_);fill:#FBD216;}
	.st48{clip-path:url(#SVGID_4_);fill:#FBD116;}
	.st49{clip-path:url(#SVGID_4_);fill:#FBD016;}
	.st50{clip-path:url(#SVGID_4_);fill:#FBCF16;}
	.st51{clip-path:url(#SVGID_4_);fill:#FBCE16;}
	.st52{clip-path:url(#SVGID_4_);fill:#FBCD16;}
	.st53{clip-path:url(#SVGID_4_);fill:#FBCC16;}
	.st54{clip-path:url(#SVGID_4_);fill:#FBCB16;}
	.st55{clip-path:url(#SVGID_4_);fill:#FBCA16;}
	.st56{clip-path:url(#SVGID_4_);fill:#FBC916;}
	.st57{clip-path:url(#SVGID_4_);fill:#FBC816;}
	.st58{clip-path:url(#SVGID_4_);fill:#FBC716;}
	.st59{clip-path:url(#SVGID_4_);fill:#FBC616;}
	.st60{clip-path:url(#SVGID_4_);fill:#FBC516;}
	.st61{clip-path:url(#SVGID_4_);fill:#FBC416;}
	.st62{clip-path:url(#SVGID_4_);fill:#FBC316;}
	.st63{clip-path:url(#SVGID_4_);fill:#FBC216;}
	.st64{clip-path:url(#SVGID_4_);fill:#FBC115;}
	.st65{clip-path:url(#SVGID_4_);fill:#FBC015;}
	.st66{clip-path:url(#SVGID_4_);fill:#FBBF15;}
	.st67{clip-path:url(#SVGID_4_);fill:#FBBE15;}
	.st68{clip-path:url(#SVGID_4_);fill:#FBBD15;}
	.st69{clip-path:url(#SVGID_4_);fill:#FBBC15;}
	.st70{clip-path:url(#SVGID_4_);fill:#FBBB15;}
	.st71{clip-path:url(#SVGID_4_);fill:#FBBA15;}
	.st72{clip-path:url(#SVGID_4_);fill:#FBB915;}
	.st73{clip-path:url(#SVGID_4_);fill:#FBB815;}
	.st74{clip-path:url(#SVGID_4_);fill:#FBB715;}
	.st75{clip-path:url(#SVGID_4_);fill:#FBB615;}
	.st76{clip-path:url(#SVGID_4_);fill:#FBB515;}
	.st77{clip-path:url(#SVGID_4_);fill:#FBB415;}
	.st78{clip-path:url(#SVGID_4_);fill:#FBB315;}
	.st79{clip-path:url(#SVGID_4_);fill:#FBB215;}
	.st80{clip-path:url(#SVGID_4_);fill:#FBB115;}
	.st81{clip-path:url(#SVGID_4_);fill:#FBB015;}
	.st82{clip-path:url(#SVGID_4_);fill:#FBAF15;}
	.st83{clip-path:url(#SVGID_4_);fill:#FAAE15;}
	.st84{clip-path:url(#SVGID_4_);fill:#FAAD14;}
	.st85{clip-path:url(#SVGID_4_);fill:#FAAC14;}
	.st86{clip-path:url(#SVGID_4_);fill:#FAAB14;}
	.st87{clip-path:url(#SVGID_4_);fill:#FAAA14;}
	.st88{clip-path:url(#SVGID_4_);fill:#FAA914;}
	.st89{clip-path:url(#SVGID_4_);fill:#FAA814;}
	.st90{clip-path:url(#SVGID_4_);fill:#FAA714;}
	.st91{clip-path:url(#SVGID_4_);fill:#FAA614;}
	.st92{clip-path:url(#SVGID_4_);fill:#FAA514;}
	.st93{clip-path:url(#SVGID_4_);fill:#FAA414;}
	.st94{clip-path:url(#SVGID_4_);fill:#FAA314;}
	.st95{clip-path:url(#SVGID_4_);fill:#FAA214;}
	.st96{clip-path:url(#SVGID_4_);fill:#FAA114;}
	.st97{clip-path:url(#SVGID_4_);fill:#FAA014;}
	.st98{clip-path:url(#SVGID_4_);fill:#FA9F14;}
	.st99{clip-path:url(#SVGID_4_);fill:#FA9E14;}
	.st100{clip-path:url(#SVGID_4_);fill:#FA9D14;}
	.st101{clip-path:url(#SVGID_4_);fill:#FA9C14;}
	.st102{clip-path:url(#SVGID_4_);fill:#FA9B14;}
	.st103{clip-path:url(#SVGID_4_);fill:#FA9A13;}
	.st104{clip-path:url(#SVGID_4_);fill:#FA9913;}
	.st105{clip-path:url(#SVGID_4_);fill:#FA9813;}
	.st106{clip-path:url(#SVGID_4_);fill:#FA9713;}
	.st107{clip-path:url(#SVGID_4_);fill:#FA9613;}
	.st108{clip-path:url(#SVGID_4_);fill:#FA9513;}
	.st109{clip-path:url(#SVGID_4_);fill:#FA9413;}
	.st110{clip-path:url(#SVGID_4_);fill:#FA9313;}
	.st111{clip-path:url(#SVGID_4_);fill:#FA9213;}
	.st112{clip-path:url(#SVGID_4_);fill:#FA9113;}
	.st113{clip-path:url(#SVGID_4_);fill:#FA9013;}
	.st114{clip-path:url(#SVGID_4_);fill:#FA8F13;}
	.st115{clip-path:url(#SVGID_4_);fill:#FA8E13;}
	.st116{clip-path:url(#SVGID_4_);fill:#FA8D13;}
	.st117{clip-path:url(#SVGID_4_);fill:#FA8C13;}
	.st118{clip-path:url(#SVGID_4_);fill:#FA8B13;}
	.st119{clip-path:url(#SVGID_4_);fill:#FA8A13;}
	.st120{clip-path:url(#SVGID_4_);fill:#FA8913;}
	.st121{clip-path:url(#SVGID_4_);fill:#FA8812;}
	.st122{clip-path:url(#SVGID_4_);fill:#FA8712;}
	.st123{clip-path:url(#SVGID_4_);fill:#FA8612;}
	.st124{clip-path:url(#SVGID_4_);fill:#F98512;}
	.st125{clip-path:url(#SVGID_4_);fill:#F98412;}
	.st126{clip-path:url(#SVGID_4_);fill:#F98312;}
	.st127{clip-path:url(#SVGID_4_);fill:#F98212;}
	.st128{clip-path:url(#SVGID_4_);fill:#F98112;}
	.st129{clip-path:url(#SVGID_4_);fill:#F98012;}
	.st130{clip-path:url(#SVGID_4_);fill:#F97F12;}
	.st131{clip-path:url(#SVGID_4_);fill:#F97E12;}
	.st132{clip-path:url(#SVGID_4_);fill:#F97D12;}
	.st133{clip-path:url(#SVGID_4_);fill:#F97C12;}
	.st134{clip-path:url(#SVGID_4_);fill:#F97B12;}
	.st135{clip-path:url(#SVGID_4_);fill:#F97A12;}
	.st136{clip-path:url(#SVGID_4_);fill:#F97912;}
	.st137{clip-path:url(#SVGID_4_);fill:#F97812;}
	.st138{clip-path:url(#SVGID_4_);fill:#F97712;}
	.st139{clip-path:url(#SVGID_4_);fill:#F97612;}
	.st140{clip-path:url(#SVGID_4_);fill:#F97511;}
	.st141{clip-path:url(#SVGID_4_);fill:#F97411;}
	.st142{clip-path:url(#SVGID_4_);fill:#F97311;}
	.st143{clip-path:url(#SVGID_4_);fill:#F97211;}
	.st144{clip-path:url(#SVGID_4_);fill:#F97111;}
	.st145{clip-path:url(#SVGID_4_);fill:#F97011;}
	.st146{clip-path:url(#SVGID_4_);fill:#F96F11;}
	.st147{clip-path:url(#SVGID_4_);fill:#F96E11;}
	.st148{clip-path:url(#SVGID_4_);fill:#F96D11;}
	.st149{clip-path:url(#SVGID_4_);fill:#F96C11;}
	.st150{clip-path:url(#SVGID_4_);fill:#F96B11;}
	.st151{clip-path:url(#SVGID_4_);fill:#F96A11;}
	.st152{clip-path:url(#SVGID_4_);fill:#F96911;}
	.st153{clip-path:url(#SVGID_4_);fill:#F96811;}
	.st154{clip-path:url(#SVGID_4_);fill:#F96711;}
	.st155{clip-path:url(#SVGID_4_);fill:#F96611;}
	.st156{clip-path:url(#SVGID_4_);fill:#F96511;}
	.st157{clip-path:url(#SVGID_4_);fill:#F96411;}
	.st158{clip-path:url(#SVGID_4_);fill:#F96311;}
	.st159{clip-path:url(#SVGID_4_);fill:#F96210;}
	.st160{clip-path:url(#SVGID_4_);fill:#F86110;}
	.st161{clip-path:url(#SVGID_4_);fill:#F86010;}
	.st162{clip-path:url(#SVGID_4_);fill:#F85F10;}
	.st163{clip-path:url(#SVGID_4_);fill:#F85E10;}
	.st164{clip-path:url(#SVGID_4_);fill:#F85D10;}
	.st165{clip-path:url(#SVGID_4_);fill:#F85C10;}
	.st166{clip-path:url(#SVGID_4_);fill:#F85B10;}
	.st167{clip-path:url(#SVGID_4_);fill:#F85A10;}
	.st168{clip-path:url(#SVGID_4_);fill:#F85910;}
	.st169{clip-path:url(#SVGID_4_);fill:#F85810;}
	.st170{clip-path:url(#SVGID_4_);fill:#F85710;}
	.st171{clip-path:url(#SVGID_4_);fill:#F85610;}
	.st172{clip-path:url(#SVGID_4_);fill:#F85510;}
	.st173{clip-path:url(#SVGID_4_);fill:#F85410;}
	.st174{clip-path:url(#SVGID_4_);fill:#F85310;}
	.st175{clip-path:url(#SVGID_4_);fill:#F85210;}
	.st176{clip-path:url(#SVGID_4_);fill:#F85110;}
	.st177{clip-path:url(#SVGID_4_);fill:#F85010;}
	.st178{clip-path:url(#SVGID_4_);fill:#F84F0F;}
	.st179{clip-path:url(#SVGID_4_);fill:#F84E0F;}
	.st180{clip-path:url(#SVGID_4_);fill:#F84D0F;}
	.st181{clip-path:url(#SVGID_4_);fill:#F84C0F;}
	.st182{clip-path:url(#SVGID_4_);fill:#F84B0F;}
	.st183{clip-path:url(#SVGID_4_);fill:#F84A0F;}
	.st184{clip-path:url(#SVGID_4_);fill:#F8490F;}
	.st185{clip-path:url(#SVGID_4_);fill:#F8480F;}
	.st186{clip-path:url(#SVGID_4_);fill:#F8470F;}
	.st187{clip-path:url(#SVGID_4_);fill:#F8460F;}
	.st188{clip-path:url(#SVGID_4_);fill:#F8450F;}
	.st189{clip-path:url(#SVGID_4_);fill:#F8440F;}
	.st190{clip-path:url(#SVGID_4_);fill:#F8430F;}
	.st191{clip-path:url(#SVGID_4_);fill:#F8420F;}
	.st192{clip-path:url(#SVGID_4_);fill:#F8410F;}
	.st193{clip-path:url(#SVGID_4_);fill:#F8400F;}
	.st194{clip-path:url(#SVGID_4_);fill:#F83F0F;}
	.st195{clip-path:url(#SVGID_4_);fill:#F83E0E;}
	.st196{clip-path:url(#SVGID_4_);fill:#F83D0E;}
	.st197{clip-path:url(#SVGID_4_);fill:#F83C0E;}
	.st198{clip-path:url(#SVGID_4_);fill:#F83B0E;}
	.st199{clip-path:url(#SVGID_4_);fill:#F73A0E;}
	.st200{clip-path:url(#SVGID_4_);fill:#F7390E;}
	.st201{clip-path:url(#SVGID_4_);fill:#F7380E;}
	.st202{clip-path:url(#SVGID_4_);fill:#F7370E;}
	.st203{clip-path:url(#SVGID_4_);fill:#F7360E;}
	.st204{clip-path:url(#SVGID_4_);fill:#F7340E;}
	.st205{clip-path:url(#SVGID_4_);fill:#F7330E;}
	.st206{clip-path:url(#SVGID_4_);fill:#F7320E;}
	.st207{clip-path:url(#SVGID_4_);fill:#F7310E;}
	.st208{clip-path:url(#SVGID_4_);fill:#F7300E;}
	.st209{clip-path:url(#SVGID_4_);fill:#F72F0E;}
	.st210{clip-path:url(#SVGID_4_);fill:#F72E0E;}
	.st211{clip-path:url(#SVGID_4_);fill:#F72D0E;}
	.st212{clip-path:url(#SVGID_4_);fill:#F72C0E;}
	.st213{clip-path:url(#SVGID_4_);fill:#F72B0E;}
	.st214{clip-path:url(#SVGID_4_);fill:#F72B0D;}
	.st215{clip-path:url(#SVGID_4_);fill:#F72A0D;}
	.st216{clip-path:url(#SVGID_4_);fill:#F7290D;}
	.st217{clip-path:url(#SVGID_4_);fill:#F7280D;}
	.st218{clip-path:url(#SVGID_4_);fill:#F7270D;}
	.st219{clip-path:url(#SVGID_4_);fill:#F7260D;}
</style>
<g>
	<g>
		<path class="st0" d="M22.983,17.15h-0.075h-0.075h-0.075h-0.075v-0.075V17v-0.075V16.85v-0.2v-0.2v-0.2v-0.2v-0.075v-0.075v-0.075
			v-0.075h0.075h0.075h0.075h0.075h0.701h0.701h0.701h0.701c0.014,0,0.027-0.003,0.039-0.008c0.012-0.005,0.023-0.012,0.032-0.022
			s0.016-0.02,0.022-0.032c0.005-0.012,0.008-0.025,0.008-0.039v-1.201v-1.201v-1.201v-1.201c0-0.014-0.003-0.027-0.008-0.039
			c-0.005-0.012-0.012-0.023-0.022-0.032s-0.02-0.016-0.032-0.022c-0.012-0.005-0.025-0.008-0.039-0.008h-1.546h-1.546h-1.546
			h-1.546h-0.049h-0.049h-0.049h-0.049l-0.02-0.045l-0.02-0.045l-0.02-0.045l-0.02-0.045c-0.052-0.117-0.115-0.226-0.188-0.326
			s-0.157-0.192-0.249-0.273s-0.193-0.152-0.301-0.211s-0.223-0.107-0.343-0.141L18.18,9.596l-0.065-0.019l-0.065-0.019L17.983,9.54
			l-0.102-0.029L17.78,9.482l-0.102-0.029l-0.102-0.029l0.061-0.086l0.061-0.086l0.061-0.086l0.061-0.086
			c0.075-0.106,0.141-0.217,0.198-0.331c0.057-0.114,0.105-0.232,0.143-0.353s0.068-0.245,0.087-0.37
			c0.02-0.126,0.029-0.254,0.029-0.383c0-0.345-0.07-0.674-0.197-0.973s-0.31-0.569-0.537-0.796s-0.496-0.41-0.796-0.537
			s-0.628-0.197-0.973-0.197s-0.674,0.07-0.973,0.197s-0.569,0.31-0.796,0.537s-0.41,0.496-0.537,0.796s-0.197,0.628-0.197,0.973
			c0,0.141,0.012,0.28,0.035,0.416c0.023,0.136,0.057,0.27,0.102,0.4s0.101,0.256,0.168,0.378s0.145,0.239,0.232,0.351l0.062,0.079
			l0.062,0.079l0.062,0.079l0.062,0.079l-0.093,0.037l-0.093,0.037L13.78,9.613L13.687,9.65l-0.111,0.045l-0.111,0.045l-0.111,0.045
			l-0.111,0.045C13.188,9.85,13.135,9.874,13.084,9.9s-0.1,0.056-0.148,0.087s-0.094,0.065-0.138,0.102s-0.087,0.075-0.128,0.116
			l-0.313,0.313l-0.313,0.313l-0.313,0.313l-0.313,0.313l-0.022,0.022l-0.022,0.022l-0.022,0.022l-0.022,0.022h-0.031h-0.031h-0.031
			h-0.031h-0.709H9.787H9.078H8.369c-0.152,0-0.297,0.031-0.428,0.087c-0.132,0.056-0.25,0.137-0.35,0.236s-0.18,0.218-0.236,0.35
			s-0.087,0.276-0.087,0.428c0,0.04,0.002,0.079,0.007,0.119s0.012,0.079,0.021,0.118s0.021,0.079,0.035,0.118
			s0.03,0.078,0.049,0.116l0.051,0.107l0.051,0.107l0.051,0.107l0.051,0.107H7.465H7.346H7.227H7.108H6.172H5.236H4.3H3.364
			c-0.014,0-0.027,0.003-0.039,0.008s-0.023,0.012-0.032,0.022s-0.016,0.02-0.022,0.032s-0.008,0.025-0.008,0.039v0.801v0.801v0.801
			v0.801v0.075V17v0.075v0.075H3.189H3.114H3.039H2.964h-0.1h-0.1h-0.1h-0.1c-0.014,0-0.027,0.003-0.039,0.008
			c-0.012,0.005-0.023,0.012-0.032,0.022s-0.016,0.02-0.022,0.032c-0.005,0.012-0.008,0.025-0.008,0.039v0.4v0.4v0.4v0.4
			c0,0.008,0.001,0.017,0.003,0.025s0.005,0.016,0.009,0.023s0.009,0.014,0.014,0.02s0.012,0.012,0.019,0.016l0.3,0.2l0.3,0.2
			l0.3,0.2l0.3,0.2c0.004,0.003,0.008,0.005,0.013,0.007c0.004,0.002,0.009,0.004,0.014,0.005s0.01,0.003,0.014,0.003
			c0.005,0.001,0.01,0.001,0.015,0.001h0.1h0.1h0.1h0.1H4.24h0.075H4.39h0.075v0.075v0.075v0.075v0.075v1.401v1.401v1.401v1.401
			c0,0.014,0.003,0.027,0.008,0.039c0.005,0.012,0.012,0.023,0.022,0.032s0.02,0.016,0.032,0.022
			c0.012,0.005,0.025,0.008,0.039,0.008H9.37h4.805h4.805h4.805c0.014,0,0.027-0.003,0.039-0.008
			c0.012-0.005,0.023-0.012,0.032-0.022s0.016-0.02,0.022-0.032c0.005-0.012,0.008-0.025,0.008-0.039v-1.401v-1.401v-1.401v-1.401
			v-0.075v-0.075v-0.075v-0.075h0.075h0.075h0.075h0.075h0.1h0.1h0.1h0.1c0.005,0,0.01,0,0.015-0.001
			c0.005-0.001,0.01-0.002,0.014-0.003s0.009-0.003,0.014-0.005c0.005-0.002,0.009-0.005,0.013-0.007l0.3-0.2l0.3-0.2l0.3-0.2
			l0.3-0.2c0.007-0.005,0.013-0.01,0.019-0.016c0.005-0.006,0.01-0.013,0.014-0.02s0.007-0.015,0.009-0.023
			c0.002-0.008,0.003-0.016,0.003-0.025v-0.4v-0.4v-0.4v-0.4c0-0.014-0.003-0.027-0.008-0.039c-0.005-0.012-0.012-0.023-0.022-0.032
			s-0.02-0.016-0.032-0.022c-0.012-0.005-0.025-0.008-0.039-0.008h-0.701h-0.701h-0.701H22.983z M25.385,10.945h0.075h0.075h0.075
			h0.075v0.075v0.075v0.075v0.075v1.001v1.001v1.001v1.001v0.075v0.075v0.075v0.075H25.61h-0.075H25.46h-0.075h-0.701h-0.701h-0.701
			h-0.701h-0.4h-0.4h-0.4h-0.4h-0.4h-0.4h-0.4h-0.4h-0.2h-0.2h-0.2h-0.2h-0.075h-0.075h-0.075h-0.075v-0.075v-0.075v-0.075v-0.075
			v-1.001v-1.001v-1.001v-1.001V11.17v-0.075V11.02v-0.075h0.075h0.075h0.075h0.075h0.186h0.186h0.186h0.186h1.516h1.516h1.516
			H25.385z M22.482,15.749v0.075v0.075v0.075v0.075v0.2v0.2v0.2v0.2v0.075V17v0.075v0.075h-0.075h-0.075h-0.075h-0.075h-0.2h-0.2
			h-0.2h-0.2h-0.075h-0.075h-0.075h-0.075v-0.075V17v-0.075V16.85v-0.2v-0.2v-0.2v-0.2v-0.075v-0.075v-0.075v-0.075h0.075h0.075
			h0.075h0.075h0.2h0.2h0.2h0.2h0.075h0.075h0.075H22.482z M20.881,15.749v0.075v0.075v0.075v0.075v0.2v0.2v0.2v0.2v0.075V17v0.075
			v0.075h-0.075h-0.075h-0.075h-0.075h-0.2h-0.2h-0.2h-0.2h-0.075H19.63h-0.075H19.48v-0.075V17v-0.075V16.85v-0.2v-0.2v-0.2v-0.2
			v-0.075v-0.075v-0.075v-0.075h0.075h0.075h0.075h0.075h0.2h0.2h0.2h0.2h0.075h0.075h0.075H20.881z M13.474,7.641
			c0-0.317,0.065-0.62,0.181-0.895s0.285-0.523,0.494-0.732s0.456-0.377,0.732-0.494s0.578-0.181,0.895-0.181
			s0.62,0.065,0.895,0.181s0.523,0.285,0.732,0.494s0.377,0.456,0.494,0.732s0.181,0.578,0.181,0.895
			c0,0.178-0.021,0.353-0.06,0.522c-0.04,0.169-0.099,0.333-0.176,0.487s-0.172,0.302-0.284,0.437s-0.24,0.26-0.383,0.371
			c-0.016,0.012-0.031,0.024-0.046,0.035c-0.016,0.012-0.031,0.023-0.047,0.034S17.05,9.55,17.034,9.561
			c-0.016,0.011-0.032,0.021-0.048,0.031c-0.007,0.004-0.014,0.009-0.021,0.013c-0.007,0.004-0.015,0.008-0.022,0.012
			s-0.015,0.008-0.022,0.012c-0.008,0.004-0.015,0.008-0.023,0.012c-0.092,0.049-0.185,0.091-0.278,0.127s-0.187,0.066-0.281,0.09
			s-0.189,0.041-0.284,0.053s-0.191,0.018-0.286,0.018c-0.059,0-0.117-0.002-0.176-0.006s-0.116-0.011-0.174-0.019
			s-0.115-0.019-0.171-0.032s-0.113-0.028-0.168-0.045l0.005-0.038l0.005-0.038l0.005-0.038l0.005-0.038
			c-0.002-0.001-0.005-0.001-0.007-0.002s-0.004-0.001-0.007-0.001s-0.004-0.001-0.007-0.001s-0.005-0.001-0.007-0.002h0h0h0h0
			L15.06,9.701l-0.012,0.036l-0.012,0.036l-0.012,0.036c-0.023-0.008-0.046-0.016-0.069-0.025s-0.046-0.018-0.068-0.028
			s-0.045-0.02-0.067-0.03s-0.044-0.021-0.067-0.032c-0.013-0.007-0.027-0.013-0.04-0.02s-0.026-0.014-0.038-0.02
			S14.65,9.64,14.637,9.633s-0.025-0.014-0.037-0.021c-0.015-0.009-0.031-0.018-0.046-0.028s-0.031-0.019-0.046-0.03
			s-0.031-0.02-0.046-0.031s-0.03-0.021-0.046-0.032c-0.15-0.111-0.284-0.236-0.4-0.373s-0.216-0.286-0.296-0.443
			s-0.142-0.324-0.183-0.498S13.474,7.824,13.474,7.641z M7.468,12.646c0-0.124,0.025-0.243,0.071-0.35s0.112-0.205,0.193-0.286
			s0.179-0.148,0.286-0.193c0.108-0.046,0.226-0.071,0.35-0.071H9.12H9.87h0.751h0.751c0.007,0,0.013-0.001,0.02-0.002
			s0.013-0.003,0.019-0.006s0.012-0.005,0.017-0.009s0.01-0.008,0.015-0.012l0.343-0.342l0.343-0.342l0.343-0.342l0.343-0.342
			c0.036-0.036,0.073-0.07,0.112-0.102s0.079-0.062,0.121-0.089s0.086-0.053,0.13-0.077s0.091-0.045,0.139-0.064l0.2-0.08l0.2-0.08
			l0.2-0.08l0.2-0.08l0.039-0.016l0.039-0.016l0.039-0.016l0.039-0.016l0.034,0.025l0.034,0.025l0.034,0.025l0.034,0.025l0,0l0,0
			l0,0l0,0c0.029,0.018,0.057,0.035,0.084,0.05s0.052,0.03,0.077,0.043s0.049,0.026,0.073,0.038s0.048,0.024,0.072,0.035
			c0.089,0.041,0.177,0.077,0.266,0.107s0.177,0.056,0.265,0.076s0.177,0.035,0.266,0.045s0.178,0.015,0.268,0.015
			c0.131,0,0.26-0.01,0.388-0.03s0.253-0.05,0.375-0.09s0.242-0.089,0.358-0.148s0.228-0.127,0.335-0.204l0.029-0.021L17.29,9.63
			l0.029-0.021l0.029-0.021l0.04,0.007l0.04,0.007l0.04,0.007l0.04,0.007l0.17,0.048l0.17,0.048l0.17,0.048l0.17,0.048
			c0.067,0.019,0.132,0.043,0.195,0.071s0.124,0.061,0.182,0.097s0.114,0.077,0.168,0.122s0.103,0.093,0.15,0.145l0.113,0.125
			l0.113,0.125l0.113,0.125l0.113,0.125h-0.168h-0.168H18.83h-0.168h-0.121H18.42h-0.121h-0.121c-0.014,0-0.027,0.003-0.039,0.008
			s-0.023,0.012-0.032,0.022s-0.016,0.02-0.022,0.032s-0.008,0.025-0.008,0.039v1.201v1.201v1.201v1.201
			c0,0.014,0.003,0.027,0.008,0.039s0.012,0.023,0.022,0.032s0.02,0.016,0.032,0.022s0.025,0.008,0.039,0.008h0.2h0.2h0.2h0.2h0.075
			h0.075h0.075h0.075v0.075v0.075v0.075v0.075v0.2v0.2v0.2v0.2v0.075V17v0.075v0.075h-0.075h-0.075h-0.075h-0.075h-1.201h-1.201
			h-1.201h-1.201H14.1h-0.075H13.95h-0.075v-0.075V17v-0.075V16.85v-1.101v-1.101v-1.101v-1.101c0-0.01-0.001-0.019-0.004-0.028
			s-0.006-0.017-0.011-0.025s-0.011-0.015-0.018-0.021s-0.015-0.012-0.023-0.016c-0.006-0.001-0.011-0.002-0.016-0.003
			s-0.01-0.001-0.014-0.002s-0.009-0.001-0.013-0.001s-0.008,0-0.011,0c-0.006,0-0.011,0-0.016,0.001s-0.009,0.002-0.013,0.003
			s-0.008,0.003-0.012,0.005s-0.007,0.004-0.011,0.007l-0.374,0.28l-0.374,0.28l-0.374,0.28l-0.374,0.28l-0.02,0.015l-0.02,0.015
			l-0.02,0.015l-0.02,0.015h-0.025h-0.025h-0.025h-0.025h-0.767h-0.767H9.737H8.97h-0.15h-0.15h-0.15h-0.15
			c-0.124,0-0.243-0.025-0.35-0.071c-0.108-0.046-0.205-0.112-0.286-0.193s-0.148-0.179-0.193-0.286S7.468,12.77,7.468,12.646z
			 M13.674,12.647v0.15v0.15v0.15v0.15v0.901v0.901v0.901v0.901v0.075V17v0.075v0.075h-0.075h-0.075h-0.075h-0.075h-1.001h-1.001
			h-1.001H9.37H9.295H9.22H9.145H9.07v-0.075V17v-0.075V16.85v-0.701v-0.701v-0.701v-0.701v-0.075v-0.075v-0.075v-0.075h0.075H9.22
			h0.075H9.37h0.701h0.701h0.701h0.701c0.005,0,0.011,0,0.016-0.001s0.01-0.002,0.016-0.004s0.01-0.004,0.015-0.006
			s0.009-0.005,0.014-0.009l0.24-0.18l0.24-0.18l0.24-0.18l0.24-0.18l0.12-0.09l0.12-0.09l0.12-0.09L13.674,12.647z M3.465,16.85
			v-0.701v-0.701v-0.701v-0.701v-0.075v-0.075v-0.075v-0.075H3.54h0.075h0.075h0.075h1.151h1.151h1.151h1.151h0.05h0.05h0.05h0.05
			h0.075h0.075h0.075h0.075v0.075v0.075v0.075v0.075v0.701v0.701v0.701v0.701v0.075V17v0.075v0.075H8.794H8.719H8.644H8.569H7.368
			H6.167H4.966H3.764H3.689H3.614H3.54H3.465v-0.075V17v-0.075V16.85z M25.685,17.651v0.247v0.247v0.247v0.247v0.04v0.04v0.04v0.04
			l-0.033,0.022l-0.033,0.022l-0.033,0.022l-0.033,0.022l-0.231,0.154l-0.231,0.154l-0.231,0.154l-0.231,0.154l-0.019,0.013
			l-0.019,0.013l-0.019,0.013l-0.019,0.013h-0.023h-0.023h-0.023h-0.023h-0.17h-0.17h-0.17h-0.17c-0.014,0-0.027,0.003-0.039,0.008
			c-0.012,0.005-0.023,0.012-0.032,0.022s-0.016,0.02-0.022,0.032c-0.005,0.012-0.008,0.025-0.008,0.039v1.401v1.401v1.401v1.401
			v0.075v0.075v0.075v0.075h-0.075h-0.075h-0.075h-0.075h-4.604h-4.604H9.57H4.966H4.891H4.816H4.741H4.666v-0.075v-0.075v-0.075
			v-0.075v-1.401v-1.401v-1.401v-1.401c0-0.014-0.003-0.027-0.008-0.039c-0.005-0.012-0.012-0.023-0.022-0.032
			s-0.02-0.016-0.032-0.022c-0.012-0.005-0.025-0.008-0.039-0.008h-0.17h-0.17h-0.17h-0.17H3.863H3.84H3.818H3.795L3.776,19.54
			l-0.019-0.013l-0.019-0.013l-0.019-0.013l-0.231-0.154l-0.231-0.154l-0.231-0.154l-0.231-0.154l-0.033-0.022l-0.033-0.022
			l-0.033-0.022l-0.033-0.022v-0.04v-0.04v-0.04v-0.04v-0.247v-0.247v-0.247v-0.247v-0.075v-0.075v-0.075v-0.075h0.075h0.075h0.075
			h0.075h0.1h0.1h0.1h0.1h1.401h1.401h1.401H8.97h1.201h1.201h1.201h1.201h1.401h1.401h1.401h1.401h0.4h0.4h0.4h0.4h0.4h0.4h0.4h0.4
			h0.701h0.701h0.701h0.701h0.075h0.075h0.075h0.075v0.075v0.075v0.075V17.651z"/>
	</g>
</g>
<g>
	<g>
		<path class="st0" d="M9.07,5.639c0-0.455-0.093-0.89-0.26-1.285S8.4,3.604,8.101,3.304c-0.299-0.299-0.655-0.541-1.05-0.709
			s-0.829-0.26-1.285-0.26s-0.89,0.093-1.285,0.26s-0.751,0.41-1.05,0.709S2.89,3.96,2.723,4.355s-0.26,0.829-0.26,1.285
			s0.093,0.89,0.26,1.285s0.41,0.751,0.709,1.05c0.299,0.299,0.655,0.541,1.05,0.709s0.829,0.26,1.285,0.26s0.89-0.093,1.285-0.26
			s0.751-0.41,1.05-0.709C8.4,7.675,8.642,7.319,8.81,6.924S9.07,6.095,9.07,5.639z M6.21,8.707L6.124,8.719L6.038,8.732
			L5.953,8.744L5.867,8.756V8.67V8.583V8.497V8.41V8.293V8.176V8.058V7.941h-0.05h-0.05h-0.05h-0.05v0.117v0.117v0.117V8.41v0.087
			v0.087V8.67v0.087L5.58,8.744L5.495,8.732L5.409,8.719L5.323,8.707C4.986,8.658,4.665,8.554,4.371,8.405S3.809,8.06,3.578,7.828
			C3.346,7.597,3.151,7.329,3.001,7.035S2.747,6.42,2.699,6.082L2.686,5.997L2.674,5.911L2.662,5.825L2.649,5.74h0.087h0.087h0.087
			h0.087h0.117H3.23h0.117h0.117v-0.05v-0.05v-0.05v-0.05H3.347H3.23H3.113H2.996H2.909H2.823H2.736H2.649l0.012-0.086l0.012-0.086
			l0.012-0.086l0.012-0.086c0.049-0.338,0.153-0.658,0.302-0.952S3.346,3.682,3.578,3.45s0.499-0.427,0.793-0.576
			S4.986,2.62,5.323,2.572l0.086-0.012l0.086-0.012L5.58,2.535l0.086-0.012v0.087v0.087v0.087v0.087v0.117v0.117V3.22v0.117h0.05
			h0.05h0.05h0.05V3.22V3.103V2.986V2.869V2.782V2.695V2.609V2.522l0.086,0.012l0.086,0.012l0.086,0.012L6.21,2.572
			C6.547,2.62,6.868,2.724,7.162,2.874S7.724,3.219,7.955,3.45C8.187,3.682,8.382,3.95,8.532,4.244s0.254,0.615,0.302,0.952
			l0.012,0.086l0.012,0.086l0.012,0.086l0.012,0.086H8.797H8.71H8.624H8.537H8.42H8.303H8.186H8.068v0.05v0.05v0.05v0.05h0.117
			h0.117H8.42h0.117h0.087H8.71h0.087h0.087L8.871,5.825L8.859,5.911L8.846,5.997L8.834,6.082C8.785,6.42,8.681,6.741,8.532,7.035
			S8.187,7.597,7.955,7.828C7.724,8.06,7.456,8.255,7.162,8.405S6.547,8.658,6.21,8.707z"/>
	</g>
</g>
<g>
	<g>
		<path class="st0" d="M6.868,4.739l-0.04-0.03l-0.04-0.03l-0.04-0.03l-0.04-0.03L6.521,4.866L6.335,5.114L6.149,5.363L5.963,5.611
			L5.911,5.68L5.859,5.749L5.807,5.818L5.755,5.888L5.694,5.826L5.633,5.765L5.572,5.704L5.51,5.643L5.445,5.577L5.38,5.511
			L5.314,5.446L5.249,5.38L5.213,5.416L5.178,5.451L5.142,5.487L5.107,5.522l0.147,0.147l0.147,0.147l0.147,0.147l0.147,0.147
			C5.7,6.115,5.705,6.12,5.711,6.123S5.722,6.13,5.728,6.132S5.74,6.137,5.747,6.138S5.76,6.14,5.766,6.14
			c0.009-0.001,0.017-0.002,0.025-0.004s0.015-0.005,0.022-0.008S5.827,6.12,5.832,6.116S5.843,6.106,5.847,6.1l0.255-0.34
			l0.255-0.34l0.255-0.34L6.868,4.739z"/>
	</g>
</g>
<g>
	<path class="st0" d="M29.76,29.907h-7.432h-7.432H7.464H0.032v-7.432v-7.432V7.611V0.179h7.432h7.432h7.432h7.432v7.432v7.432
		v7.432V29.907z M0.282,29.657h7.307h7.307h7.307h7.307V22.35v-7.307V7.736V0.429h-7.307h-7.307H7.589H0.282v7.307v7.307v7.307
		V29.657z"/>
</g>
</svg>
