<?xml version="1.0" encoding="utf-8"?>
<!-- Generator: Adobe Illustrator 19.1.0, SVG Export Plug-In . SVG Version: 6.00 Build 0)  -->
<svg version="1.1" id="Layer_1" xmlns="http://www.w3.org/2000/svg" xmlns:xlink="http://www.w3.org/1999/xlink" x="0px" y="0px"
	 viewBox="0 0 29.91 30.086" style="enable-background:new 0 0 29.91 30.086;" xml:space="preserve">
<style type="text/css">
	.st0{fill:#4D4D4D;}
	.st1{fill-rule:evenodd;clip-rule:evenodd;fill:#4C4C4C;}
	.st2{fill:#4C4C4C;}
	.st3{fill:#383330;}
	.st4{fill:#1F1A17;}
	.st5{fill:#4D4C4C;}
	.st6{fill:none;stroke:#000000;stroke-width:0.3;stroke-miterlimit:10;}
	.st7{fill:#E61413;}
	.st8{fill:#5F5357;}
	.st9{fill:#115C78;}
	.st10{fill-rule:evenodd;clip-rule:evenodd;fill:#4D4D4D;}
	.st11{fill-rule:evenodd;clip-rule:evenodd;}
	.st12{fill:#FFFFFF;}
	.st13{fill:none;}
	.st14{fill:#231F20;}
	.st15{clip-path:url(#SVGID_2_);}
	.st16{clip-path:url(#SVGID_4_);fill:#FCF118;}
	.st17{clip-path:url(#SVGID_4_);fill:#FCF018;}
	.st18{clip-path:url(#SVGID_4_);fill:#FCEF18;}
	.st19{clip-path:url(#SVGID_4_);fill:#FCEE18;}
	.st20{clip-path:url(#SVGID_4_);fill:#FCED18;}
	.st21{clip-path:url(#SVGID_4_);fill:#FCEC18;}
	.st22{clip-path:url(#SVGID_4_);fill:#FCEB18;}
	.st23{clip-path:url(#SVGID_4_);fill:#FCEA18;}
	.st24{clip-path:url(#SVGID_4_);fill:#FCE918;}
	.st25{clip-path:url(#SVGID_4_);fill:#FCE818;}
	.st26{clip-path:url(#SVGID_4_);fill:#FCE718;}
	.st27{clip-path:url(#SVGID_4_);fill:#FCE617;}
	.st28{clip-path:url(#SVGID_4_);fill:#FCE517;}
	.st29{clip-path:url(#SVGID_4_);fill:#FCE417;}
	.st30{clip-path:url(#SVGID_4_);fill:#FCE317;}
	.st31{clip-path:url(#SVGID_4_);fill:#FCE217;}
	.st32{clip-path:url(#SVGID_4_);fill:#FCE117;}
	.st33{clip-path:url(#SVGID_4_);fill:#FCE017;}
	.st34{clip-path:url(#SVGID_4_);fill:#FCDF17;}
	.st35{clip-path:url(#SVGID_4_);fill:#FCDE17;}
	.st36{clip-path:url(#SVGID_4_);fill:#FCDD17;}
	.st37{clip-path:url(#SVGID_4_);fill:#FCDC17;}
	.st38{clip-path:url(#SVGID_4_);fill:#FCDB17;}
	.st39{clip-path:url(#SVGID_4_);fill:#FCDA17;}
	.st40{clip-path:url(#SVGID_4_);fill:#FCD917;}
	.st41{clip-path:url(#SVGID_4_);fill:#FCD817;}
	.st42{clip-path:url(#SVGID_4_);fill:#FCD717;}
	.st43{clip-path:url(#SVGID_4_);fill:#FCD617;}
	.st44{clip-path:url(#SVGID_4_);fill:#FCD517;}
	.st45{clip-path:url(#SVGID_4_);fill:#FCD416;}
	.st46{clip-path:url(#SVGID_4_);fill:#FCD316;}
	.st47{clip-path:url(#SVGID_4_);fill:#FBD216;}
	.st48{clip-path:url(#SVGID_4_);fill:#FBD116;}
	.st49{clip-path:url(#SVGID_4_);fill:#FBD016;}
	.st50{clip-path:url(#SVGID_4_);fill:#FBCF16;}
	.st51{clip-path:url(#SVGID_4_);fill:#FBCE16;}
	.st52{clip-path:url(#SVGID_4_);fill:#FBCD16;}
	.st53{clip-path:url(#SVGID_4_);fill:#FBCC16;}
	.st54{clip-path:url(#SVGID_4_);fill:#FBCB16;}
	.st55{clip-path:url(#SVGID_4_);fill:#FBCA16;}
	.st56{clip-path:url(#SVGID_4_);fill:#FBC916;}
	.st57{clip-path:url(#SVGID_4_);fill:#FBC816;}
	.st58{clip-path:url(#SVGID_4_);fill:#FBC716;}
	.st59{clip-path:url(#SVGID_4_);fill:#FBC616;}
	.st60{clip-path:url(#SVGID_4_);fill:#FBC516;}
	.st61{clip-path:url(#SVGID_4_);fill:#FBC416;}
	.st62{clip-path:url(#SVGID_4_);fill:#FBC316;}
	.st63{clip-path:url(#SVGID_4_);fill:#FBC216;}
	.st64{clip-path:url(#SVGID_4_);fill:#FBC115;}
	.st65{clip-path:url(#SVGID_4_);fill:#FBC015;}
	.st66{clip-path:url(#SVGID_4_);fill:#FBBF15;}
	.st67{clip-path:url(#SVGID_4_);fill:#FBBE15;}
	.st68{clip-path:url(#SVGID_4_);fill:#FBBD15;}
	.st69{clip-path:url(#SVGID_4_);fill:#FBBC15;}
	.st70{clip-path:url(#SVGID_4_);fill:#FBBB15;}
	.st71{clip-path:url(#SVGID_4_);fill:#FBBA15;}
	.st72{clip-path:url(#SVGID_4_);fill:#FBB915;}
	.st73{clip-path:url(#SVGID_4_);fill:#FBB815;}
	.st74{clip-path:url(#SVGID_4_);fill:#FBB715;}
	.st75{clip-path:url(#SVGID_4_);fill:#FBB615;}
	.st76{clip-path:url(#SVGID_4_);fill:#FBB515;}
	.st77{clip-path:url(#SVGID_4_);fill:#FBB415;}
	.st78{clip-path:url(#SVGID_4_);fill:#FBB315;}
	.st79{clip-path:url(#SVGID_4_);fill:#FBB215;}
	.st80{clip-path:url(#SVGID_4_);fill:#FBB115;}
	.st81{clip-path:url(#SVGID_4_);fill:#FBB015;}
	.st82{clip-path:url(#SVGID_4_);fill:#FBAF15;}
	.st83{clip-path:url(#SVGID_4_);fill:#FAAE15;}
	.st84{clip-path:url(#SVGID_4_);fill:#FAAD14;}
	.st85{clip-path:url(#SVGID_4_);fill:#FAAC14;}
	.st86{clip-path:url(#SVGID_4_);fill:#FAAB14;}
	.st87{clip-path:url(#SVGID_4_);fill:#FAAA14;}
	.st88{clip-path:url(#SVGID_4_);fill:#FAA914;}
	.st89{clip-path:url(#SVGID_4_);fill:#FAA814;}
	.st90{clip-path:url(#SVGID_4_);fill:#FAA714;}
	.st91{clip-path:url(#SVGID_4_);fill:#FAA614;}
	.st92{clip-path:url(#SVGID_4_);fill:#FAA514;}
	.st93{clip-path:url(#SVGID_4_);fill:#FAA414;}
	.st94{clip-path:url(#SVGID_4_);fill:#FAA314;}
	.st95{clip-path:url(#SVGID_4_);fill:#FAA214;}
	.st96{clip-path:url(#SVGID_4_);fill:#FAA114;}
	.st97{clip-path:url(#SVGID_4_);fill:#FAA014;}
	.st98{clip-path:url(#SVGID_4_);fill:#FA9F14;}
	.st99{clip-path:url(#SVGID_4_);fill:#FA9E14;}
	.st100{clip-path:url(#SVGID_4_);fill:#FA9D14;}
	.st101{clip-path:url(#SVGID_4_);fill:#FA9C14;}
	.st102{clip-path:url(#SVGID_4_);fill:#FA9B14;}
	.st103{clip-path:url(#SVGID_4_);fill:#FA9A13;}
	.st104{clip-path:url(#SVGID_4_);fill:#FA9913;}
	.st105{clip-path:url(#SVGID_4_);fill:#FA9813;}
	.st106{clip-path:url(#SVGID_4_);fill:#FA9713;}
	.st107{clip-path:url(#SVGID_4_);fill:#FA9613;}
	.st108{clip-path:url(#SVGID_4_);fill:#FA9513;}
	.st109{clip-path:url(#SVGID_4_);fill:#FA9413;}
	.st110{clip-path:url(#SVGID_4_);fill:#FA9313;}
	.st111{clip-path:url(#SVGID_4_);fill:#FA9213;}
	.st112{clip-path:url(#SVGID_4_);fill:#FA9113;}
	.st113{clip-path:url(#SVGID_4_);fill:#FA9013;}
	.st114{clip-path:url(#SVGID_4_);fill:#FA8F13;}
	.st115{clip-path:url(#SVGID_4_);fill:#FA8E13;}
	.st116{clip-path:url(#SVGID_4_);fill:#FA8D13;}
	.st117{clip-path:url(#SVGID_4_);fill:#FA8C13;}
	.st118{clip-path:url(#SVGID_4_);fill:#FA8B13;}
	.st119{clip-path:url(#SVGID_4_);fill:#FA8A13;}
	.st120{clip-path:url(#SVGID_4_);fill:#FA8913;}
	.st121{clip-path:url(#SVGID_4_);fill:#FA8812;}
	.st122{clip-path:url(#SVGID_4_);fill:#FA8712;}
	.st123{clip-path:url(#SVGID_4_);fill:#FA8612;}
	.st124{clip-path:url(#SVGID_4_);fill:#F98512;}
	.st125{clip-path:url(#SVGID_4_);fill:#F98412;}
	.st126{clip-path:url(#SVGID_4_);fill:#F98312;}
	.st127{clip-path:url(#SVGID_4_);fill:#F98212;}
	.st128{clip-path:url(#SVGID_4_);fill:#F98112;}
	.st129{clip-path:url(#SVGID_4_);fill:#F98012;}
	.st130{clip-path:url(#SVGID_4_);fill:#F97F12;}
	.st131{clip-path:url(#SVGID_4_);fill:#F97E12;}
	.st132{clip-path:url(#SVGID_4_);fill:#F97D12;}
	.st133{clip-path:url(#SVGID_4_);fill:#F97C12;}
	.st134{clip-path:url(#SVGID_4_);fill:#F97B12;}
	.st135{clip-path:url(#SVGID_4_);fill:#F97A12;}
	.st136{clip-path:url(#SVGID_4_);fill:#F97912;}
	.st137{clip-path:url(#SVGID_4_);fill:#F97812;}
	.st138{clip-path:url(#SVGID_4_);fill:#F97712;}
	.st139{clip-path:url(#SVGID_4_);fill:#F97612;}
	.st140{clip-path:url(#SVGID_4_);fill:#F97511;}
	.st141{clip-path:url(#SVGID_4_);fill:#F97411;}
	.st142{clip-path:url(#SVGID_4_);fill:#F97311;}
	.st143{clip-path:url(#SVGID_4_);fill:#F97211;}
	.st144{clip-path:url(#SVGID_4_);fill:#F97111;}
	.st145{clip-path:url(#SVGID_4_);fill:#F97011;}
	.st146{clip-path:url(#SVGID_4_);fill:#F96F11;}
	.st147{clip-path:url(#SVGID_4_);fill:#F96E11;}
	.st148{clip-path:url(#SVGID_4_);fill:#F96D11;}
	.st149{clip-path:url(#SVGID_4_);fill:#F96C11;}
	.st150{clip-path:url(#SVGID_4_);fill:#F96B11;}
	.st151{clip-path:url(#SVGID_4_);fill:#F96A11;}
	.st152{clip-path:url(#SVGID_4_);fill:#F96911;}
	.st153{clip-path:url(#SVGID_4_);fill:#F96811;}
	.st154{clip-path:url(#SVGID_4_);fill:#F96711;}
	.st155{clip-path:url(#SVGID_4_);fill:#F96611;}
	.st156{clip-path:url(#SVGID_4_);fill:#F96511;}
	.st157{clip-path:url(#SVGID_4_);fill:#F96411;}
	.st158{clip-path:url(#SVGID_4_);fill:#F96311;}
	.st159{clip-path:url(#SVGID_4_);fill:#F96210;}
	.st160{clip-path:url(#SVGID_4_);fill:#F86110;}
	.st161{clip-path:url(#SVGID_4_);fill:#F86010;}
	.st162{clip-path:url(#SVGID_4_);fill:#F85F10;}
	.st163{clip-path:url(#SVGID_4_);fill:#F85E10;}
	.st164{clip-path:url(#SVGID_4_);fill:#F85D10;}
	.st165{clip-path:url(#SVGID_4_);fill:#F85C10;}
	.st166{clip-path:url(#SVGID_4_);fill:#F85B10;}
	.st167{clip-path:url(#SVGID_4_);fill:#F85A10;}
	.st168{clip-path:url(#SVGID_4_);fill:#F85910;}
	.st169{clip-path:url(#SVGID_4_);fill:#F85810;}
	.st170{clip-path:url(#SVGID_4_);fill:#F85710;}
	.st171{clip-path:url(#SVGID_4_);fill:#F85610;}
	.st172{clip-path:url(#SVGID_4_);fill:#F85510;}
	.st173{clip-path:url(#SVGID_4_);fill:#F85410;}
	.st174{clip-path:url(#SVGID_4_);fill:#F85310;}
	.st175{clip-path:url(#SVGID_4_);fill:#F85210;}
	.st176{clip-path:url(#SVGID_4_);fill:#F85110;}
	.st177{clip-path:url(#SVGID_4_);fill:#F85010;}
	.st178{clip-path:url(#SVGID_4_);fill:#F84F0F;}
	.st179{clip-path:url(#SVGID_4_);fill:#F84E0F;}
	.st180{clip-path:url(#SVGID_4_);fill:#F84D0F;}
	.st181{clip-path:url(#SVGID_4_);fill:#F84C0F;}
	.st182{clip-path:url(#SVGID_4_);fill:#F84B0F;}
	.st183{clip-path:url(#SVGID_4_);fill:#F84A0F;}
	.st184{clip-path:url(#SVGID_4_);fill:#F8490F;}
	.st185{clip-path:url(#SVGID_4_);fill:#F8480F;}
	.st186{clip-path:url(#SVGID_4_);fill:#F8470F;}
	.st187{clip-path:url(#SVGID_4_);fill:#F8460F;}
	.st188{clip-path:url(#SVGID_4_);fill:#F8450F;}
	.st189{clip-path:url(#SVGID_4_);fill:#F8440F;}
	.st190{clip-path:url(#SVGID_4_);fill:#F8430F;}
	.st191{clip-path:url(#SVGID_4_);fill:#F8420F;}
	.st192{clip-path:url(#SVGID_4_);fill:#F8410F;}
	.st193{clip-path:url(#SVGID_4_);fill:#F8400F;}
	.st194{clip-path:url(#SVGID_4_);fill:#F83F0F;}
	.st195{clip-path:url(#SVGID_4_);fill:#F83E0E;}
	.st196{clip-path:url(#SVGID_4_);fill:#F83D0E;}
	.st197{clip-path:url(#SVGID_4_);fill:#F83C0E;}
	.st198{clip-path:url(#SVGID_4_);fill:#F83B0E;}
	.st199{clip-path:url(#SVGID_4_);fill:#F73A0E;}
	.st200{clip-path:url(#SVGID_4_);fill:#F7390E;}
	.st201{clip-path:url(#SVGID_4_);fill:#F7380E;}
	.st202{clip-path:url(#SVGID_4_);fill:#F7370E;}
	.st203{clip-path:url(#SVGID_4_);fill:#F7360E;}
	.st204{clip-path:url(#SVGID_4_);fill:#F7340E;}
	.st205{clip-path:url(#SVGID_4_);fill:#F7330E;}
	.st206{clip-path:url(#SVGID_4_);fill:#F7320E;}
	.st207{clip-path:url(#SVGID_4_);fill:#F7310E;}
	.st208{clip-path:url(#SVGID_4_);fill:#F7300E;}
	.st209{clip-path:url(#SVGID_4_);fill:#F72F0E;}
	.st210{clip-path:url(#SVGID_4_);fill:#F72E0E;}
	.st211{clip-path:url(#SVGID_4_);fill:#F72D0E;}
	.st212{clip-path:url(#SVGID_4_);fill:#F72C0E;}
	.st213{clip-path:url(#SVGID_4_);fill:#F72B0E;}
	.st214{clip-path:url(#SVGID_4_);fill:#F72B0D;}
	.st215{clip-path:url(#SVGID_4_);fill:#F72A0D;}
	.st216{clip-path:url(#SVGID_4_);fill:#F7290D;}
	.st217{clip-path:url(#SVGID_4_);fill:#F7280D;}
	.st218{clip-path:url(#SVGID_4_);fill:#F7270D;}
	.st219{clip-path:url(#SVGID_4_);fill:#F7260D;}
</style>
<g>
	<g transform="translate(-840.000000, -1130.000000)">
		<g transform="translate(841.000000, 1131.000000)">
			<g>
				<path class="st0" d="M26.812,24.136h-6.369h-6.369H7.705H1.336c-0.017,0-0.034-0.004-0.049-0.01s-0.028-0.016-0.04-0.027
					s-0.02-0.025-0.027-0.04s-0.01-0.031-0.01-0.049v-3.514v-3.514v-3.514V9.954c0-0.012,0.002-0.024,0.005-0.036
					s0.008-0.022,0.015-0.032S1.245,9.868,1.254,9.86s0.019-0.014,0.03-0.02l3.184-1.427l3.184-1.427l3.184-1.427l3.184-1.427
					c0.008-0.004,0.017-0.006,0.025-0.008s0.017-0.003,0.026-0.003s0.017,0.001,0.026,0.003s0.017,0.005,0.025,0.008l3.185,1.427
					l3.185,1.427l3.185,1.427l3.185,1.427c0.011,0.005,0.021,0.012,0.03,0.02s0.017,0.017,0.023,0.027s0.011,0.021,0.015,0.032
					s0.005,0.023,0.005,0.036v3.514v3.514v3.514v3.514c0,0.017-0.004,0.034-0.01,0.049s-0.016,0.028-0.027,0.04
					s-0.025,0.02-0.04,0.027S26.829,24.136,26.812,24.136z M1.461,23.886h6.307h6.307h6.307h6.307v-3.463v-3.463v-3.463v-3.463
					l-3.153-1.413L20.38,7.209l-3.153-1.413l-3.153-1.413L10.92,5.795L7.767,7.209L4.614,8.622l-3.153,1.413v3.463v3.463v3.463
					V23.886z"/>
			</g>
			<g>
				<path class="st0" d="M25.055,24.135h-5.491h-5.491H8.583H3.093c-0.017,0-0.034-0.004-0.049-0.01s-0.028-0.016-0.04-0.027
					s-0.02-0.025-0.027-0.04s-0.01-0.031-0.01-0.049v-0.439v-0.439v-0.439v-0.439c0-0.017,0.004-0.034,0.01-0.049
					s0.016-0.028,0.027-0.04s0.025-0.02,0.04-0.027s0.031-0.01,0.049-0.01h5.491h5.491h5.491h5.491c0.017,0,0.034,0.004,0.049,0.01
					s0.028,0.016,0.04,0.027s0.02,0.025,0.027,0.04s0.01,0.031,0.01,0.049v0.439v0.439v0.439v0.439c0,0.017-0.004,0.034-0.01,0.049
					s-0.016,0.028-0.027,0.04s-0.025,0.02-0.04,0.027S25.072,24.135,25.055,24.135z M3.218,23.885h5.428h5.428h5.428h5.428v-0.377
					v-0.377v-0.377v-0.377h-5.428h-5.428H8.646H3.218v0.377v0.377v0.377V23.885z"/>
			</g>
			<g>
				<path class="st0" d="M14.074,22.372c-0.017,0-0.034-0.004-0.049-0.01s-0.028-0.016-0.04-0.027s-0.02-0.025-0.027-0.04
					s-0.01-0.031-0.01-0.049v-2.939v-2.939V13.43v-2.939c0-0.017,0.004-0.034,0.01-0.049s0.016-0.028,0.027-0.04
					s0.025-0.02,0.04-0.027s0.031-0.01,0.049-0.01s0.034,0.004,0.049,0.01s0.028,0.016,0.04,0.027s0.02,0.025,0.027,0.04
					s0.01,0.031,0.01,0.049v2.939v2.939v2.939v2.939c0,0.017-0.004,0.034-0.01,0.049s-0.016,0.028-0.027,0.04
					s-0.025,0.02-0.04,0.027S14.091,22.372,14.074,22.372z"/>
			</g>
			<g>
				<path class="st0" d="M14.074,14.911c-0.017,0-0.034-0.004-0.049-0.01s-0.028-0.016-0.04-0.027s-0.02-0.025-0.027-0.04
					s-0.01-0.031-0.01-0.049c0-0.502,0.102-0.98,0.286-1.415s0.451-0.827,0.781-1.157s0.722-0.596,1.157-0.781
					s0.914-0.286,1.415-0.286c0.017,0,0.034,0.004,0.049,0.01s0.028,0.016,0.04,0.027s0.02,0.025,0.027,0.04s0.01,0.031,0.01,0.049
					c0,0.502-0.102,0.98-0.286,1.415s-0.451,0.827-0.781,1.157s-0.722,0.596-1.157,0.781S14.575,14.911,14.074,14.911z M17.46,11.4
					c-0.442,0.016-0.862,0.118-1.246,0.288s-0.729,0.41-1.022,0.703s-0.533,0.639-0.703,1.022s-0.272,0.804-0.288,1.246
					c0.442-0.016,0.862-0.118,1.246-0.288s0.729-0.41,1.022-0.703s0.533-0.639,0.703-1.022S17.444,11.842,17.46,11.4z"/>
			</g>
			<g>
				<path class="st0" d="M14.074,20.182c-0.017,0-0.034-0.004-0.049-0.01s-0.028-0.016-0.04-0.027s-0.02-0.025-0.027-0.04
					s-0.01-0.031-0.01-0.049c0-0.502,0.102-0.98,0.286-1.415s0.451-0.827,0.781-1.157s0.722-0.596,1.157-0.781
					s0.914-0.286,1.415-0.286c0.017,0,0.034,0.004,0.049,0.01s0.028,0.016,0.04,0.027s0.02,0.025,0.027,0.04s0.01,0.031,0.01,0.049
					c0,0.502-0.102,0.98-0.286,1.415s-0.451,0.827-0.781,1.157s-0.722,0.596-1.157,0.781S14.575,20.182,14.074,20.182z
					 M17.46,16.671c-0.442,0.016-0.862,0.118-1.246,0.288s-0.729,0.41-1.022,0.703s-0.533,0.639-0.703,1.022
					s-0.272,0.804-0.288,1.246c0.442-0.016,0.862-0.118,1.246-0.288s0.729-0.41,1.022-0.703s0.533-0.639,0.703-1.022
					S17.444,17.113,17.46,16.671z"/>
			</g>
			<g>
				<path class="st0" d="M14.074,17.547c-0.502,0-0.98-0.102-1.415-0.286s-0.827-0.451-1.157-0.781s-0.596-0.722-0.781-1.157
					s-0.286-0.914-0.286-1.415c0-0.017,0.004-0.034,0.01-0.049s0.016-0.028,0.027-0.04s0.025-0.02,0.04-0.027s0.031-0.01,0.049-0.01
					c0.502,0,0.98,0.102,1.415,0.286s0.827,0.451,1.157,0.781s0.596,0.722,0.781,1.157c0.184,0.435,0.286,0.914,0.286,1.415
					c0,0.017-0.004,0.034-0.01,0.049s-0.016,0.028-0.027,0.04s-0.025,0.02-0.04,0.027S14.091,17.547,14.074,17.547z M10.687,14.035
					c0.016,0.442,0.118,0.862,0.288,1.246s0.41,0.729,0.703,1.022s0.639,0.533,1.022,0.703s0.804,0.272,1.246,0.288
					c-0.016-0.442-0.118-0.862-0.288-1.246c-0.17-0.383-0.41-0.729-0.703-1.022s-0.639-0.533-1.022-0.703
					S11.129,14.051,10.687,14.035z"/>
			</g>
			<g>
				<path class="st0" d="M6.167,22.372c-0.017,0-0.034-0.004-0.049-0.01s-0.028-0.016-0.04-0.027s-0.02-0.025-0.027-0.04
					s-0.01-0.031-0.01-0.049v-2.939v-2.939V13.43v-2.939c0-0.017,0.004-0.034,0.01-0.049s0.016-0.028,0.027-0.04
					s0.025-0.02,0.04-0.027s0.031-0.01,0.049-0.01s0.034,0.004,0.049,0.01s0.028,0.016,0.04,0.027s0.02,0.025,0.027,0.04
					s0.01,0.031,0.01,0.049v2.939v2.939v2.939v2.939c0,0.017-0.004,0.034-0.01,0.049s-0.016,0.028-0.027,0.04
					s-0.025,0.02-0.04,0.027S6.184,22.372,6.167,22.372z"/>
			</g>
			<g>
				<path class="st0" d="M6.167,14.911c-0.017,0-0.034-0.004-0.049-0.01s-0.028-0.016-0.04-0.027s-0.02-0.025-0.027-0.04
					s-0.01-0.031-0.01-0.049c0-0.502,0.102-0.98,0.286-1.415s0.451-0.827,0.781-1.157s0.722-0.596,1.157-0.781
					s0.914-0.286,1.415-0.286c0.017,0,0.034,0.004,0.049,0.01s0.028,0.016,0.04,0.027s0.02,0.025,0.027,0.04s0.01,0.031,0.01,0.049
					c0,0.502-0.102,0.98-0.286,1.415s-0.451,0.827-0.781,1.157s-0.722,0.596-1.157,0.781S6.669,14.911,6.167,14.911z M9.554,11.4
					c-0.442,0.016-0.862,0.118-1.246,0.288s-0.729,0.41-1.022,0.703s-0.533,0.639-0.703,1.022s-0.272,0.804-0.288,1.246
					c0.442-0.016,0.862-0.118,1.246-0.288s0.729-0.41,1.022-0.703s0.533-0.639,0.703-1.022S9.538,11.842,9.554,11.4z"/>
			</g>
			<g>
				<path class="st0" d="M6.167,20.182c-0.017,0-0.034-0.004-0.049-0.01s-0.028-0.016-0.04-0.027s-0.02-0.025-0.027-0.04
					s-0.01-0.031-0.01-0.049c0-0.502,0.102-0.98,0.286-1.415s0.451-0.827,0.781-1.157s0.722-0.596,1.157-0.781
					s0.914-0.286,1.415-0.286c0.017,0,0.034,0.004,0.049,0.01s0.028,0.016,0.04,0.027s0.02,0.025,0.027,0.04s0.01,0.031,0.01,0.049
					c0,0.502-0.102,0.98-0.286,1.415s-0.451,0.827-0.781,1.157s-0.722,0.596-1.157,0.781S6.669,20.182,6.167,20.182z M9.554,16.671
					c-0.442,0.016-0.862,0.118-1.246,0.288s-0.729,0.41-1.022,0.703s-0.533,0.639-0.703,1.022s-0.272,0.804-0.288,1.246
					c0.442-0.016,0.862-0.118,1.246-0.288s0.729-0.41,1.022-0.703s0.533-0.639,0.703-1.022S9.538,17.113,9.554,16.671z"/>
			</g>
			<g>
				<path class="st0" d="M6.167,17.547c-0.502,0-0.98-0.102-1.415-0.286s-0.827-0.451-1.157-0.781s-0.596-0.722-0.781-1.157
					s-0.286-0.914-0.286-1.415c0-0.017,0.004-0.034,0.01-0.049s0.016-0.028,0.027-0.04s0.025-0.02,0.04-0.027s0.031-0.01,0.049-0.01
					c0.502,0,0.98,0.102,1.415,0.286s0.827,0.451,1.157,0.781s0.596,0.722,0.781,1.157c0.184,0.435,0.286,0.914,0.286,1.415
					c0,0.017-0.004,0.034-0.01,0.049s-0.016,0.028-0.027,0.04s-0.025,0.02-0.04,0.027S6.184,17.547,6.167,17.547z M2.781,14.035
					c0.016,0.442,0.118,0.862,0.288,1.246s0.41,0.729,0.703,1.022s0.639,0.533,1.022,0.703s0.804,0.272,1.246,0.288
					c-0.016-0.442-0.118-0.862-0.288-1.246c-0.171-0.383-0.41-0.729-0.703-1.022s-0.639-0.533-1.022-0.703
					S3.222,14.051,2.781,14.035z"/>
			</g>
			<g>
				<path class="st0" d="M21.98,22.372c-0.017,0-0.034-0.004-0.049-0.01s-0.028-0.016-0.04-0.027s-0.02-0.025-0.027-0.04
					s-0.01-0.031-0.01-0.049v-2.939v-2.939V13.43v-2.939c0-0.017,0.004-0.034,0.01-0.049s0.016-0.028,0.027-0.04
					s0.025-0.02,0.04-0.027s0.031-0.01,0.049-0.01s0.034,0.004,0.049,0.01s0.028,0.016,0.04,0.027s0.02,0.025,0.027,0.04
					s0.01,0.031,0.01,0.049v2.939v2.939v2.939v2.939c0,0.017-0.004,0.034-0.01,0.049s-0.016,0.028-0.027,0.04
					s-0.025,0.02-0.04,0.027S21.997,22.372,21.98,22.372z"/>
			</g>
			<g>
				<path class="st0" d="M21.98,14.911c-0.017,0-0.034-0.004-0.049-0.01s-0.028-0.016-0.04-0.027s-0.02-0.025-0.027-0.04
					s-0.01-0.031-0.01-0.049c0-0.502,0.102-0.98,0.286-1.415s0.451-0.827,0.781-1.157s0.722-0.596,1.157-0.781
					s0.913-0.286,1.415-0.286c0.017,0,0.034,0.004,0.049,0.01s0.028,0.016,0.04,0.027s0.02,0.025,0.027,0.04s0.01,0.031,0.01,0.049
					c0,0.502-0.102,0.98-0.286,1.415s-0.451,0.827-0.781,1.157s-0.722,0.596-1.157,0.781S22.482,14.911,21.98,14.911z M25.367,11.4
					c-0.442,0.016-0.862,0.118-1.246,0.288s-0.729,0.41-1.022,0.703s-0.532,0.639-0.703,1.022s-0.272,0.804-0.288,1.246
					c0.442-0.016,0.862-0.118,1.246-0.288s0.729-0.41,1.022-0.703s0.532-0.639,0.703-1.022S25.35,11.842,25.367,11.4z"/>
			</g>
			<g>
				<path class="st0" d="M21.98,20.182c-0.017,0-0.034-0.004-0.049-0.01s-0.028-0.016-0.04-0.027s-0.02-0.025-0.027-0.04
					s-0.01-0.031-0.01-0.049c0-0.502,0.102-0.98,0.286-1.415s0.451-0.827,0.781-1.157s0.722-0.596,1.157-0.781
					s0.913-0.286,1.415-0.286c0.017,0,0.034,0.004,0.049,0.01s0.028,0.016,0.04,0.027s0.02,0.025,0.027,0.04s0.01,0.031,0.01,0.049
					c0,0.502-0.102,0.98-0.286,1.415s-0.451,0.827-0.781,1.157s-0.722,0.596-1.157,0.781S22.482,20.182,21.98,20.182z
					 M25.367,16.671c-0.442,0.016-0.862,0.118-1.246,0.288s-0.729,0.41-1.022,0.703s-0.532,0.639-0.703,1.022
					s-0.272,0.804-0.288,1.246c0.442-0.016,0.862-0.118,1.246-0.288s0.729-0.41,1.022-0.703s0.532-0.639,0.703-1.022
					S25.35,17.113,25.367,16.671z"/>
			</g>
			<g>
				<path class="st0" d="M21.98,17.547c-0.502,0-0.98-0.102-1.415-0.286s-0.827-0.451-1.157-0.781s-0.596-0.722-0.781-1.157
					s-0.286-0.914-0.286-1.415c0-0.017,0.004-0.034,0.01-0.049s0.016-0.028,0.027-0.04s0.025-0.02,0.04-0.027s0.031-0.01,0.049-0.01
					c0.502,0,0.98,0.102,1.415,0.286s0.827,0.451,1.157,0.781s0.596,0.722,0.781,1.157c0.184,0.435,0.286,0.914,0.286,1.415
					c0,0.017-0.004,0.034-0.01,0.049s-0.016,0.028-0.027,0.04s-0.025,0.02-0.04,0.027S21.997,17.547,21.98,17.547z M18.594,14.035
					c0.016,0.442,0.118,0.862,0.288,1.246s0.41,0.729,0.703,1.022s0.639,0.533,1.022,0.703s0.804,0.272,1.246,0.288
					c-0.016-0.442-0.118-0.862-0.288-1.246c-0.171-0.383-0.41-0.729-0.703-1.022s-0.639-0.533-1.022-0.703
					S19.035,14.051,18.594,14.035z"/>
			</g>
		</g>
	</g>
</g>
<g>
	<path class="st0" d="M29.819,29.908h-7.432h-7.432H7.523H0.091v-7.432v-7.432V7.611V0.179h7.432h7.432h7.432h7.432v7.432v7.432
		v7.432V29.908z M0.341,29.658h7.307h7.307h7.307h7.307V22.35v-7.307V7.736V0.429h-7.307h-7.307H7.648H0.341v7.307v7.307v7.307
		V29.658z"/>
</g>
</svg>
