<?xml version="1.0" encoding="utf-8"?>
<!-- Generator: Adobe Illustrator 19.1.0, SVG Export Plug-In . SVG Version: 6.00 Build 0)  -->
<svg version="1.1" id="Layer_1" xmlns="http://www.w3.org/2000/svg" xmlns:xlink="http://www.w3.org/1999/xlink" x="0px" y="0px"
	 viewBox="0 0 126.038 26.342" style="enable-background:new 0 0 126.038 26.342;" xml:space="preserve">
<style type="text/css">
	.st0{fill:#115C78;}
	.st1{fill-rule:evenodd;clip-rule:evenodd;fill:#4D4D4D;}
	.st2{fill:#4D4D4D;}
	.st3{fill-rule:evenodd;clip-rule:evenodd;}
	.st4{fill:#FFFFFF;}
	.st5{fill:none;}
	.st6{fill:none;stroke:#4D4D4D;stroke-width:0.3;stroke-miterlimit:10;}
	.st7{fill:#4D4D4D;stroke:#4D4D4D;stroke-width:0.1;stroke-miterlimit:10;}
	.st8{fill:#F0047F;}
	.st9{fill:none;stroke:#4D4D4D;stroke-width:0;stroke-linecap:round;stroke-linejoin:round;}
	.st10{fill:none;stroke:#4D4D4D;stroke-width:0.25;stroke-miterlimit:10;}
	.st11{fill:none;stroke:#4D4D4D;stroke-width:0.2;stroke-miterlimit:10;}
	.st12{fill:none;stroke:#4D4D4D;stroke-width:0.8;stroke-miterlimit:10;}
	.st13{fill:#4D4D4D;stroke:#4D4D4D;stroke-width:0.3;stroke-miterlimit:10;}
	.st14{fill:none;stroke:#4D4D4D;stroke-width:0.24;stroke-miterlimit:10;}
</style>
<g>
	<g>
		<path d="M19.186,20.175h-0.77h-0.77h-0.77h-0.77v-1.814v-1.814v-1.814v-1.814h-1.016h-1.016h-1.016h-1.016v1.814v1.814v1.814
			v1.814h-0.77h-0.77h-0.77h-0.77v-4.138V11.9V7.762V3.624h0.77h0.77h0.77h0.77v1.644v1.644v1.644v1.644h1.016h1.016h1.016h1.016
			V8.557V6.913V5.269V3.624h0.77h0.77h0.77h0.77v4.138V11.9v4.138V20.175z"/>
	</g>
	<g>
		<path d="M31.265,13.847c0,0.517-0.027,1.005-0.082,1.465c-0.055,0.46-0.137,0.891-0.246,1.293s-0.246,0.776-0.41,1.121
			c-0.164,0.345-0.356,0.661-0.574,0.948c-0.219,0.288-0.458,0.54-0.717,0.756c-0.259,0.216-0.539,0.396-0.839,0.54
			c-0.3,0.144-0.62,0.252-0.961,0.324c-0.341,0.072-0.702,0.108-1.083,0.108c-0.241,0-0.476-0.016-0.703-0.049
			c-0.227-0.033-0.448-0.082-0.661-0.148c-0.213-0.066-0.419-0.149-0.619-0.248c-0.199-0.099-0.391-0.215-0.576-0.347
			c-0.185-0.132-0.359-0.279-0.523-0.44c-0.164-0.161-0.317-0.337-0.459-0.527c-0.143-0.19-0.274-0.394-0.396-0.613
			c-0.121-0.219-0.232-0.452-0.332-0.7c-0.1-0.248-0.187-0.507-0.262-0.776s-0.137-0.549-0.188-0.839
			c-0.05-0.29-0.088-0.591-0.113-0.902c-0.025-0.311-0.038-0.633-0.038-0.965c0-0.511,0.027-0.995,0.081-1.45
			s0.136-0.883,0.244-1.283c0.108-0.4,0.244-0.771,0.407-1.115c0.163-0.344,0.353-0.659,0.57-0.947
			c0.217-0.287,0.455-0.539,0.714-0.755s0.539-0.395,0.84-0.539c0.301-0.144,0.623-0.252,0.966-0.324s0.707-0.108,1.092-0.108
			c0.372,0,0.724,0.037,1.058,0.11c0.334,0.073,0.648,0.183,0.944,0.33c0.296,0.147,0.572,0.33,0.83,0.55
			c0.258,0.22,0.496,0.477,0.716,0.77c0.22,0.293,0.412,0.612,0.577,0.957s0.302,0.716,0.412,1.112
			c0.11,0.397,0.192,0.819,0.247,1.267C31.237,12.872,31.265,13.347,31.265,13.847z M24.563,13.847c0,0.328,0.009,0.637,0.027,0.925
			s0.045,0.556,0.081,0.805c0.036,0.248,0.081,0.476,0.134,0.684c0.054,0.208,0.116,0.396,0.188,0.564
			c0.072,0.168,0.154,0.315,0.247,0.441c0.093,0.126,0.198,0.231,0.313,0.315c0.115,0.084,0.241,0.147,0.378,0.189
			c0.137,0.042,0.284,0.063,0.443,0.063c0.302,0,0.566-0.083,0.793-0.249c0.226-0.166,0.415-0.415,0.566-0.747
			c0.151-0.332,0.264-0.747,0.339-1.245c0.075-0.498,0.113-1.079,0.113-1.744c0-0.33-0.009-0.64-0.027-0.928
			c-0.018-0.288-0.045-0.556-0.082-0.803s-0.082-0.473-0.136-0.678s-0.118-0.389-0.191-0.552c-0.072-0.163-0.155-0.306-0.249-0.428
			c-0.094-0.122-0.198-0.224-0.312-0.306s-0.24-0.143-0.375-0.184s-0.282-0.061-0.438-0.061c-0.158,0-0.306,0.02-0.443,0.061
			s-0.263,0.102-0.378,0.184c-0.115,0.082-0.219,0.184-0.313,0.306c-0.093,0.122-0.176,0.265-0.247,0.428
			c-0.072,0.163-0.134,0.347-0.188,0.552c-0.054,0.205-0.099,0.431-0.134,0.678s-0.063,0.514-0.081,0.803
			S24.563,13.516,24.563,13.847z"/>
	</g>
	<g>
		<path d="M38.759,7.326c0.093,0,0.185,0.004,0.276,0.011c0.092,0.007,0.183,0.018,0.273,0.032c0.091,0.014,0.181,0.032,0.27,0.053
			c0.09,0.021,0.179,0.046,0.267,0.074l-0.088,0.73l-0.088,0.73l-0.088,0.73l-0.088,0.73c-0.053-0.019-0.11-0.036-0.171-0.05
			c-0.061-0.014-0.126-0.026-0.195-0.035c-0.069-0.009-0.142-0.016-0.218-0.021c-0.077-0.005-0.158-0.007-0.243-0.007
			c-0.183,0-0.356,0.018-0.517,0.054c-0.162,0.036-0.313,0.09-0.453,0.162c-0.14,0.072-0.27,0.162-0.39,0.271
			c-0.119,0.108-0.228,0.235-0.326,0.38c-0.098,0.144-0.184,0.304-0.258,0.481c-0.074,0.177-0.135,0.371-0.184,0.58
			c-0.049,0.21-0.086,0.436-0.11,0.679s-0.037,0.502-0.037,0.777v1.622v1.622v1.622v1.622H35.64h-0.753h-0.753h-0.753v-3.153v-3.153
			v-3.153V7.564h0.62h0.62h0.62h0.62l0.085,0.492l0.085,0.492l0.085,0.492l0.085,0.492h0.025h0.025h0.025h0.025
			c0.083-0.198,0.168-0.382,0.254-0.552c0.087-0.17,0.175-0.325,0.266-0.467c0.091-0.142,0.183-0.269,0.277-0.382
			s0.191-0.212,0.289-0.297s0.2-0.159,0.307-0.223c0.106-0.064,0.216-0.117,0.33-0.159c0.114-0.042,0.232-0.074,0.354-0.096
			C38.503,7.337,38.629,7.326,38.759,7.326z"/>
	</g>
	<g>
		<path d="M45.574,17.854c0.106,0,0.213-0.007,0.323-0.02c0.11-0.013,0.222-0.033,0.336-0.059c0.114-0.026,0.231-0.059,0.349-0.099
			s0.239-0.086,0.361-0.139v0.589v0.589v0.589v0.589c-0.123,0.085-0.26,0.159-0.414,0.223s-0.322,0.117-0.506,0.159
			c-0.184,0.042-0.383,0.074-0.598,0.096c-0.215,0.021-0.445,0.032-0.69,0.032c-0.274,0-0.53-0.02-0.768-0.061
			c-0.238-0.041-0.459-0.102-0.661-0.184c-0.203-0.082-0.388-0.184-0.555-0.306c-0.167-0.123-0.317-0.265-0.449-0.429
			c-0.132-0.163-0.248-0.346-0.347-0.55s-0.182-0.428-0.248-0.673c-0.066-0.245-0.115-0.51-0.148-0.796
			c-0.033-0.286-0.049-0.592-0.049-0.918v-1.633v-1.633v-1.633V9.953h-0.306h-0.306h-0.306h-0.306V9.616V9.279V8.942V8.605
			l0.393-0.272l0.393-0.272l0.393-0.272l0.393-0.272l0.192-0.668l0.192-0.668l0.192-0.668l0.192-0.668h0.481h0.481h0.481h0.481
			v0.679v0.679v0.679v0.679h0.572h0.572h0.572h0.572v0.597v0.597v0.597v0.597H46.27h-0.572h-0.572h-0.572v1.658v1.658v1.658v1.658
			c0,0.211,0.021,0.396,0.064,0.555c0.042,0.159,0.106,0.291,0.191,0.396c0.085,0.106,0.191,0.185,0.318,0.238
			S45.404,17.854,45.574,17.854z"/>
	</g>
	<g>
		<path d="M48.608,4.27c0-0.125,0.009-0.243,0.027-0.354c0.018-0.112,0.045-0.217,0.082-0.315c0.036-0.099,0.082-0.191,0.136-0.276
			c0.055-0.085,0.118-0.164,0.191-0.237c0.072-0.073,0.152-0.136,0.239-0.191c0.087-0.055,0.181-0.1,0.282-0.136
			c0.101-0.036,0.21-0.064,0.326-0.082c0.116-0.018,0.239-0.027,0.369-0.027c0.123,0,0.239,0.009,0.349,0.027
			s0.215,0.045,0.313,0.082c0.098,0.036,0.19,0.082,0.276,0.136c0.086,0.055,0.166,0.118,0.239,0.191
			c0.074,0.072,0.138,0.151,0.193,0.237c0.055,0.085,0.101,0.178,0.138,0.276c0.037,0.099,0.064,0.204,0.083,0.315
			c0.018,0.112,0.028,0.23,0.028,0.354c0,0.128-0.009,0.249-0.028,0.363c-0.019,0.114-0.047,0.221-0.085,0.32
			c-0.038,0.1-0.085,0.192-0.141,0.277c-0.057,0.085-0.123,0.164-0.198,0.235c-0.076,0.07-0.157,0.132-0.243,0.185
			s-0.178,0.097-0.275,0.132s-0.2,0.062-0.308,0.08c-0.108,0.018-0.221,0.027-0.34,0.027c-0.125,0-0.243-0.009-0.355-0.027
			c-0.112-0.018-0.218-0.044-0.318-0.08c-0.1-0.035-0.194-0.08-0.282-0.132c-0.088-0.053-0.169-0.115-0.245-0.185
			c-0.076-0.071-0.142-0.149-0.198-0.235c-0.057-0.085-0.104-0.178-0.141-0.277c-0.038-0.1-0.066-0.206-0.085-0.32
			C48.617,4.519,48.608,4.398,48.608,4.27z M51.743,20.175h-0.753h-0.753h-0.753h-0.753v-3.153v-3.153v-3.153V7.564h0.753h0.753
			h0.753h0.753v3.153v3.153v3.153V20.175z"/>
	</g>
	<g>
		<path d="M55.295,4.897h1.043h1.043h1.043h1.043c0.213,0,0.42,0.005,0.621,0.014s0.397,0.023,0.587,0.041
			c0.19,0.018,0.375,0.041,0.554,0.069s0.353,0.06,0.521,0.096c0.168,0.037,0.33,0.08,0.486,0.128
			c0.156,0.049,0.305,0.103,0.448,0.164c0.143,0.061,0.28,0.128,0.41,0.2c0.13,0.073,0.255,0.152,0.373,0.237
			c0.118,0.085,0.228,0.177,0.332,0.274s0.201,0.202,0.291,0.312s0.173,0.227,0.249,0.349s0.145,0.252,0.207,0.387
			c0.061,0.135,0.115,0.278,0.162,0.428c0.046,0.151,0.085,0.309,0.116,0.475c0.031,0.166,0.054,0.34,0.07,0.521
			c0.016,0.182,0.023,0.371,0.023,0.568c0,0.375-0.03,0.726-0.09,1.053s-0.15,0.63-0.269,0.909c-0.12,0.279-0.27,0.534-0.449,0.766
			s-0.389,0.439-0.629,0.622c-0.24,0.184-0.503,0.344-0.79,0.482c-0.287,0.138-0.597,0.252-0.932,0.344
			c-0.334,0.092-0.692,0.161-1.073,0.206s-0.787,0.069-1.216,0.069H58.69h-0.777h-0.777H56.36v1.64v1.64v1.64v1.64h-0.266h-0.266
			h-0.266h-0.266v-3.819v-3.819V8.717V4.897z M59.211,12.71c0.391,0,0.756-0.017,1.096-0.052c0.34-0.035,0.655-0.087,0.945-0.156
			s0.554-0.156,0.794-0.261c0.24-0.104,0.454-0.226,0.644-0.365c0.189-0.139,0.355-0.3,0.497-0.482
			c0.142-0.183,0.26-0.387,0.355-0.613c0.095-0.226,0.166-0.474,0.213-0.744s0.071-0.561,0.071-0.875
			c0-0.162-0.006-0.317-0.018-0.465c-0.012-0.148-0.03-0.289-0.054-0.424c-0.024-0.134-0.054-0.261-0.09-0.382
			s-0.078-0.234-0.126-0.34c-0.049-0.106-0.103-0.208-0.163-0.304c-0.06-0.096-0.125-0.187-0.197-0.273
			c-0.071-0.086-0.148-0.167-0.231-0.243c-0.083-0.076-0.172-0.147-0.266-0.213c-0.095-0.065-0.196-0.126-0.304-0.182
			c-0.107-0.056-0.221-0.107-0.341-0.154c-0.12-0.046-0.246-0.088-0.378-0.125c-0.132-0.037-0.271-0.069-0.415-0.096
			c-0.145-0.027-0.296-0.051-0.453-0.071c-0.157-0.02-0.32-0.037-0.489-0.051c-0.169-0.013-0.344-0.023-0.525-0.03
			c-0.181-0.007-0.368-0.01-0.562-0.01h-0.713h-0.713h-0.713H56.36v1.727v1.727v1.727v1.727h0.713h0.713h0.713H59.211z"/>
	</g>
	<g>
		<path d="M66.631,14.634c0-0.232,0.008-0.458,0.025-0.678c0.017-0.22,0.042-0.433,0.076-0.641s0.076-0.409,0.127-0.605
			c0.051-0.196,0.11-0.385,0.177-0.569c0.068-0.184,0.141-0.36,0.22-0.528s0.164-0.33,0.255-0.483c0.091-0.154,0.188-0.3,0.29-0.438
			s0.211-0.27,0.325-0.394c0.114-0.124,0.233-0.24,0.356-0.349c0.123-0.109,0.251-0.211,0.383-0.306
			c0.132-0.095,0.269-0.182,0.411-0.262c0.142-0.08,0.288-0.153,0.438-0.219c0.151-0.065,0.304-0.123,0.458-0.172
			c0.155-0.049,0.311-0.09,0.47-0.123s0.319-0.057,0.481-0.074c0.162-0.016,0.327-0.025,0.493-0.025
			c0.166,0,0.331,0.008,0.493,0.025c0.163,0.016,0.324,0.041,0.483,0.074s0.317,0.074,0.473,0.123
			c0.156,0.049,0.31,0.106,0.462,0.172c0.153,0.066,0.301,0.139,0.444,0.219s0.281,0.168,0.415,0.262
			c0.133,0.095,0.262,0.197,0.386,0.306c0.124,0.109,0.243,0.226,0.357,0.349c0.114,0.124,0.222,0.255,0.324,0.394
			c0.102,0.139,0.199,0.285,0.29,0.438c0.091,0.154,0.176,0.315,0.255,0.483c0.079,0.169,0.153,0.345,0.22,0.528
			c0.068,0.184,0.127,0.373,0.178,0.569c0.051,0.196,0.093,0.397,0.127,0.605s0.059,0.421,0.076,0.641
			c0.017,0.22,0.025,0.446,0.025,0.678c0,0.232-0.008,0.457-0.025,0.676c-0.017,0.219-0.042,0.431-0.076,0.637
			s-0.076,0.405-0.127,0.597c-0.051,0.193-0.11,0.379-0.178,0.558c-0.068,0.18-0.141,0.353-0.22,0.519
			c-0.079,0.166-0.164,0.325-0.255,0.476c-0.091,0.152-0.187,0.296-0.29,0.434c-0.102,0.138-0.21,0.268-0.324,0.392
			c-0.114,0.124-0.233,0.24-0.357,0.349c-0.124,0.109-0.252,0.211-0.386,0.306c-0.133,0.095-0.272,0.182-0.415,0.262
			c-0.143,0.08-0.291,0.153-0.444,0.218c-0.152,0.066-0.307,0.124-0.462,0.173s-0.313,0.09-0.473,0.123
			c-0.159,0.033-0.32,0.057-0.483,0.074s-0.327,0.025-0.493,0.025c-0.166,0-0.33-0.008-0.493-0.025
			c-0.162-0.016-0.323-0.041-0.481-0.074c-0.158-0.033-0.315-0.074-0.47-0.123c-0.155-0.049-0.307-0.107-0.458-0.173
			c-0.151-0.065-0.297-0.138-0.438-0.218c-0.142-0.08-0.278-0.167-0.411-0.262c-0.132-0.095-0.26-0.196-0.383-0.306
			c-0.123-0.109-0.242-0.226-0.356-0.349c-0.114-0.124-0.222-0.254-0.325-0.392c-0.102-0.138-0.199-0.282-0.29-0.434
			s-0.176-0.31-0.255-0.476s-0.153-0.339-0.22-0.519c-0.068-0.18-0.127-0.366-0.177-0.558c-0.051-0.193-0.093-0.392-0.127-0.597
			s-0.059-0.418-0.076-0.637C66.64,15.091,66.631,14.866,66.631,14.634z M67.698,14.634c0,0.182,0.006,0.359,0.019,0.533
			c0.013,0.174,0.031,0.344,0.056,0.51c0.025,0.166,0.056,0.328,0.094,0.487c0.038,0.158,0.081,0.313,0.132,0.464
			c0.05,0.15,0.105,0.296,0.164,0.436c0.059,0.14,0.123,0.275,0.192,0.404c0.069,0.129,0.142,0.254,0.22,0.372
			s0.16,0.232,0.247,0.34c0.087,0.108,0.178,0.211,0.273,0.307s0.194,0.186,0.298,0.27c0.103,0.084,0.211,0.162,0.322,0.234
			c0.112,0.072,0.227,0.138,0.347,0.198c0.12,0.06,0.242,0.112,0.367,0.157c0.125,0.045,0.252,0.082,0.381,0.112
			c0.13,0.03,0.262,0.052,0.396,0.067c0.134,0.015,0.271,0.022,0.41,0.022c0.139,0,0.276-0.007,0.411-0.022
			c0.135-0.015,0.267-0.037,0.397-0.067s0.258-0.067,0.384-0.112c0.126-0.045,0.25-0.097,0.371-0.157
			c0.122-0.06,0.239-0.126,0.352-0.198c0.113-0.072,0.222-0.15,0.326-0.234c0.104-0.084,0.205-0.174,0.3-0.27
			c0.096-0.096,0.187-0.199,0.275-0.307c0.087-0.108,0.169-0.221,0.247-0.34c0.078-0.119,0.151-0.243,0.219-0.372
			s0.132-0.264,0.192-0.404c0.059-0.14,0.114-0.285,0.164-0.436c0.051-0.151,0.095-0.305,0.133-0.464
			c0.038-0.158,0.069-0.321,0.094-0.487c0.025-0.166,0.044-0.336,0.057-0.51c0.013-0.174,0.019-0.352,0.019-0.533
			c0-0.186-0.006-0.367-0.019-0.544c-0.013-0.177-0.031-0.349-0.057-0.518c-0.025-0.168-0.057-0.332-0.094-0.492
			c-0.038-0.159-0.082-0.315-0.133-0.465c-0.05-0.15-0.105-0.296-0.164-0.436c-0.059-0.14-0.123-0.276-0.192-0.406
			c-0.068-0.13-0.141-0.256-0.219-0.376c-0.078-0.12-0.16-0.235-0.247-0.345c-0.087-0.11-0.179-0.214-0.275-0.312
			c-0.096-0.098-0.196-0.189-0.3-0.274c-0.104-0.085-0.213-0.164-0.326-0.236c-0.113-0.072-0.23-0.138-0.352-0.198
			c-0.122-0.06-0.246-0.112-0.371-0.157c-0.126-0.045-0.254-0.082-0.384-0.112s-0.263-0.052-0.397-0.067
			c-0.135-0.015-0.272-0.022-0.411-0.022c-0.139,0-0.276,0.007-0.41,0.022c-0.134,0.015-0.266,0.037-0.396,0.067
			c-0.13,0.03-0.257,0.067-0.381,0.112c-0.125,0.045-0.247,0.097-0.367,0.157c-0.12,0.06-0.235,0.126-0.347,0.198
			c-0.112,0.072-0.219,0.151-0.322,0.236c-0.103,0.085-0.203,0.176-0.298,0.274s-0.186,0.202-0.273,0.312
			c-0.087,0.11-0.169,0.225-0.247,0.345s-0.151,0.246-0.22,0.376c-0.069,0.13-0.133,0.266-0.192,0.406
			c-0.059,0.14-0.114,0.286-0.164,0.436c-0.05,0.151-0.094,0.306-0.132,0.465c-0.038,0.159-0.069,0.323-0.094,0.492
			c-0.025,0.168-0.044,0.341-0.056,0.518C67.705,14.268,67.698,14.449,67.698,14.634z"/>
	</g>
	<g>
		<path d="M78.386,9.047h0.278h0.278h0.278h0.278l0.498,1.802l0.498,1.802l0.498,1.802l0.498,1.802
			c0.035,0.128,0.069,0.255,0.103,0.381c0.034,0.126,0.067,0.252,0.1,0.376c0.033,0.125,0.065,0.248,0.097,0.372
			c0.032,0.123,0.063,0.246,0.095,0.367c0.031,0.122,0.062,0.244,0.092,0.366c0.031,0.122,0.062,0.244,0.093,0.367
			c0.031,0.123,0.062,0.245,0.093,0.369c0.031,0.123,0.062,0.247,0.092,0.37h0.023h0.023h0.023h0.023
			c0.031-0.124,0.062-0.247,0.094-0.37c0.032-0.123,0.064-0.246,0.097-0.369c0.033-0.123,0.066-0.245,0.1-0.367
			c0.034-0.122,0.068-0.244,0.103-0.366c0.035-0.122,0.07-0.244,0.104-0.367c0.035-0.123,0.07-0.247,0.104-0.372
			c0.035-0.125,0.07-0.25,0.104-0.376c0.035-0.126,0.07-0.253,0.104-0.381l0.505-1.802l0.505-1.802l0.505-1.802l0.505-1.802h0.307
			h0.307h0.307h0.307l0.505,1.802l0.505,1.802l0.505,1.802l0.505,1.802c0.035,0.128,0.07,0.255,0.104,0.381
			c0.035,0.126,0.07,0.252,0.104,0.376c0.035,0.125,0.07,0.248,0.104,0.372c0.035,0.123,0.07,0.246,0.104,0.367
			c0.035,0.122,0.07,0.244,0.104,0.366c0.035,0.122,0.07,0.244,0.104,0.367c0.035,0.123,0.07,0.245,0.104,0.369
			c0.035,0.123,0.07,0.247,0.104,0.37h0.023h0.023h0.023h0.023c0.031-0.124,0.062-0.247,0.094-0.37
			c0.032-0.123,0.064-0.246,0.097-0.369c0.033-0.123,0.066-0.245,0.1-0.367c0.034-0.122,0.068-0.244,0.103-0.366
			c0.035-0.122,0.069-0.244,0.103-0.367c0.034-0.123,0.067-0.247,0.1-0.372c0.033-0.125,0.065-0.25,0.097-0.376
			c0.032-0.126,0.063-0.253,0.094-0.381l0.493-1.802l0.493-1.802l0.493-1.802l0.493-1.802h0.261h0.261h0.261h0.261l-0.8,2.782
			l-0.8,2.782l-0.8,2.782l-0.8,2.782h-0.336h-0.336h-0.336H88.61l-0.487-1.727l-0.487-1.727l-0.487-1.727l-0.487-1.727
			c-0.042-0.135-0.083-0.27-0.122-0.404c-0.039-0.134-0.077-0.267-0.112-0.399c-0.036-0.132-0.07-0.264-0.102-0.395
			c-0.032-0.131-0.063-0.261-0.092-0.39c-0.029-0.129-0.06-0.26-0.092-0.391c-0.032-0.131-0.066-0.263-0.102-0.395
			c-0.036-0.132-0.073-0.266-0.112-0.399s-0.08-0.268-0.122-0.403h-0.023h-0.023h-0.023h-0.023c-0.031,0.135-0.062,0.27-0.095,0.404
			c-0.032,0.135-0.065,0.269-0.099,0.403c-0.034,0.134-0.068,0.268-0.104,0.402c-0.035,0.134-0.071,0.267-0.108,0.401
			c-0.037,0.133-0.074,0.267-0.112,0.401c-0.038,0.134-0.077,0.268-0.116,0.402c-0.04,0.134-0.08,0.269-0.121,0.404
			c-0.041,0.135-0.083,0.27-0.126,0.405l-0.481,1.715l-0.481,1.715l-0.481,1.715l-0.481,1.715h-0.307h-0.307h-0.307h-0.307
			l-0.823-2.782l-0.823-2.782l-0.823-2.782L78.386,9.047z"/>
	</g>
	<g>
		<path d="M94.916,14.634c0-0.228,0.008-0.45,0.025-0.667c0.017-0.216,0.042-0.427,0.076-0.632c0.034-0.205,0.076-0.404,0.127-0.597
			s0.11-0.381,0.177-0.562c0.068-0.182,0.141-0.356,0.22-0.524c0.079-0.168,0.164-0.328,0.255-0.482
			c0.091-0.154,0.188-0.3,0.29-0.44s0.211-0.272,0.325-0.398c0.114-0.125,0.232-0.243,0.354-0.354s0.247-0.215,0.377-0.311
			c0.129-0.097,0.263-0.186,0.4-0.268c0.137-0.082,0.278-0.157,0.424-0.224c0.145-0.068,0.291-0.127,0.438-0.178
			c0.147-0.051,0.296-0.093,0.445-0.127c0.15-0.034,0.301-0.059,0.453-0.076c0.152-0.017,0.306-0.025,0.461-0.025
			c0.332,0,0.647,0.028,0.943,0.084c0.297,0.056,0.575,0.14,0.836,0.252c0.261,0.112,0.504,0.252,0.729,0.42
			c0.225,0.168,0.432,0.364,0.621,0.588c0.189,0.224,0.355,0.472,0.497,0.742s0.261,0.564,0.355,0.881
			c0.095,0.317,0.166,0.657,0.213,1.02c0.047,0.363,0.071,0.749,0.071,1.159c0,0.035,0,0.07,0,0.104c0,0.035,0,0.07,0,0.104
			c0,0.035,0,0.07,0,0.104c0,0.035,0,0.07,0,0.104c0,0.035-0.001,0.07-0.003,0.104c-0.002,0.035-0.005,0.07-0.009,0.104
			c-0.004,0.035-0.009,0.07-0.015,0.104c-0.006,0.035-0.013,0.07-0.02,0.104h-2.005h-2.005h-2.005H95.96
			c0.004,0.174,0.013,0.345,0.028,0.512c0.015,0.168,0.037,0.332,0.063,0.494c0.027,0.161,0.06,0.32,0.098,0.475
			c0.039,0.155,0.083,0.307,0.133,0.455c0.05,0.149,0.105,0.292,0.166,0.431s0.126,0.271,0.197,0.399
			c0.071,0.128,0.146,0.25,0.227,0.367c0.081,0.117,0.167,0.229,0.258,0.335c0.091,0.106,0.186,0.207,0.286,0.301
			s0.204,0.183,0.314,0.266c0.109,0.083,0.223,0.16,0.341,0.232c0.118,0.071,0.242,0.137,0.369,0.197
			c0.127,0.06,0.259,0.112,0.394,0.157s0.274,0.082,0.417,0.112c0.143,0.03,0.29,0.052,0.44,0.067s0.305,0.022,0.464,0.022
			c0.151,0,0.298-0.006,0.441-0.017s0.283-0.028,0.42-0.05c0.136-0.022,0.269-0.05,0.398-0.083c0.129-0.033,0.254-0.072,0.376-0.117
			c0.122-0.044,0.241-0.092,0.359-0.145c0.117-0.053,0.233-0.109,0.346-0.17c0.113-0.061,0.224-0.126,0.333-0.195
			c0.109-0.069,0.215-0.142,0.32-0.219l0.104,0.197l0.104,0.197l0.104,0.197l0.104,0.197c-0.112,0.066-0.227,0.131-0.345,0.195
			c-0.118,0.064-0.238,0.127-0.36,0.189s-0.248,0.123-0.376,0.183c-0.128,0.06-0.259,0.119-0.392,0.176
			c-0.133,0.058-0.275,0.108-0.426,0.152c-0.151,0.043-0.311,0.08-0.48,0.109c-0.169,0.029-0.347,0.051-0.534,0.065
			c-0.187,0.015-0.383,0.022-0.588,0.022c-0.178,0-0.353-0.008-0.526-0.025s-0.342-0.041-0.509-0.074
			c-0.167-0.033-0.331-0.074-0.493-0.123s-0.321-0.107-0.477-0.173c-0.156-0.065-0.308-0.139-0.454-0.219s-0.288-0.169-0.424-0.264
			c-0.136-0.096-0.267-0.199-0.394-0.309c-0.126-0.111-0.247-0.228-0.363-0.354c-0.116-0.126-0.225-0.258-0.329-0.397
			c-0.104-0.139-0.202-0.285-0.294-0.438c-0.092-0.153-0.178-0.312-0.258-0.478s-0.153-0.339-0.221-0.519
			c-0.068-0.18-0.127-0.365-0.177-0.557s-0.093-0.389-0.127-0.593c-0.034-0.204-0.059-0.414-0.076-0.629
			C94.924,15.084,94.916,14.862,94.916,14.634z M103.053,13.962c0-0.359-0.018-0.696-0.055-1.011
			c-0.037-0.315-0.092-0.607-0.165-0.876s-0.165-0.517-0.275-0.741s-0.238-0.427-0.385-0.606c-0.147-0.18-0.307-0.337-0.48-0.471
			c-0.173-0.135-0.359-0.247-0.558-0.337s-0.411-0.157-0.636-0.203c-0.225-0.045-0.463-0.068-0.714-0.068
			c-0.12,0-0.238,0.006-0.355,0.019c-0.117,0.013-0.232,0.032-0.346,0.057s-0.227,0.057-0.338,0.095
			c-0.111,0.038-0.221,0.082-0.329,0.132c-0.108,0.05-0.213,0.106-0.316,0.166s-0.203,0.127-0.301,0.198
			c-0.098,0.071-0.193,0.148-0.285,0.23c-0.092,0.082-0.182,0.169-0.269,0.262c-0.087,0.093-0.17,0.191-0.249,0.294
			c-0.079,0.103-0.155,0.211-0.226,0.324c-0.071,0.113-0.139,0.231-0.203,0.354c-0.064,0.123-0.123,0.251-0.179,0.385
			c-0.056,0.133-0.107,0.271-0.153,0.412s-0.087,0.287-0.122,0.437c-0.036,0.15-0.066,0.303-0.092,0.461
			c-0.025,0.158-0.046,0.32-0.061,0.486h1.773h1.773h1.773H103.053z"/>
	</g>
	<g>
		<path d="M107.041,9.047h0.22h0.22h0.22h0.22l0.023,0.516l0.023,0.516l0.023,0.516l0.023,0.516h0.017h0.017h0.017h0.017
			c0.093-0.174,0.19-0.34,0.293-0.497c0.103-0.157,0.211-0.307,0.324-0.448c0.113-0.141,0.231-0.274,0.355-0.399
			s0.252-0.241,0.385-0.35c0.133-0.108,0.27-0.202,0.412-0.283c0.141-0.081,0.287-0.149,0.437-0.203
			c0.15-0.054,0.304-0.095,0.462-0.122s0.32-0.041,0.486-0.041c0.054,0,0.106,0.001,0.157,0.003
			c0.051,0.002,0.101,0.005,0.149,0.008c0.048,0.004,0.095,0.008,0.141,0.014c0.045,0.006,0.089,0.012,0.132,0.02
			c0.042,0.008,0.085,0.018,0.129,0.03c0.043,0.012,0.087,0.025,0.132,0.041c0.044,0.015,0.089,0.033,0.135,0.052
			c0.045,0.019,0.091,0.04,0.138,0.063l-0.058,0.232l-0.058,0.232l-0.058,0.232l-0.058,0.232c-0.046-0.019-0.091-0.036-0.134-0.052
			c-0.043-0.016-0.085-0.03-0.126-0.042c-0.041-0.013-0.08-0.023-0.118-0.033c-0.038-0.009-0.074-0.017-0.109-0.023
			c-0.035-0.006-0.072-0.011-0.112-0.015s-0.082-0.008-0.126-0.011c-0.044-0.003-0.091-0.005-0.14-0.006s-0.101-0.002-0.154-0.002
			c-0.124,0-0.249,0.013-0.376,0.04c-0.127,0.027-0.256,0.066-0.386,0.119c-0.13,0.053-0.263,0.119-0.396,0.199
			s-0.269,0.173-0.406,0.279c-0.137,0.106-0.271,0.232-0.401,0.378c-0.13,0.145-0.256,0.31-0.379,0.495
			c-0.123,0.184-0.242,0.388-0.357,0.612c-0.115,0.224-0.227,0.467-0.335,0.73v1.895v1.895v1.895v1.895h-0.255h-0.255h-0.255h-0.255
			v-2.782v-2.782v-2.782V9.047z"/>
	</g>
</g>
</svg>
