<?xml version="1.0" encoding="utf-8"?>
<!-- Generator: Adobe Illustrator 19.1.0, SVG Export Plug-In . SVG Version: 6.00 Build 0)  -->
<svg version="1.1" id="Layer_1" xmlns="http://www.w3.org/2000/svg" xmlns:xlink="http://www.w3.org/1999/xlink" x="0px" y="0px"
	 viewBox="0 0 126.038 48.861" style="enable-background:new 0 0 126.038 48.861;" xml:space="preserve">
<style type="text/css">
	.st0{fill:#115C78;}
	.st1{fill-rule:evenodd;clip-rule:evenodd;fill:#4D4D4D;}
	.st2{fill:#4D4D4D;}
	.st3{fill-rule:evenodd;clip-rule:evenodd;}
	.st4{fill:#FFFFFF;}
	.st5{fill:none;}
	.st6{fill:none;stroke:#4D4D4D;stroke-width:0.3;stroke-miterlimit:10;}
	.st7{fill:#4D4D4D;stroke:#4D4D4D;stroke-width:0.1;stroke-miterlimit:10;}
	.st8{fill:#F0047F;}
	.st9{fill:none;stroke:#4D4D4D;stroke-width:0;stroke-linecap:round;stroke-linejoin:round;}
	.st10{fill:none;stroke:#4D4D4D;stroke-width:0.25;stroke-miterlimit:10;}
	.st11{fill:none;stroke:#4D4D4D;stroke-width:0.2;stroke-miterlimit:10;}
	.st12{fill:none;stroke:#4D4D4D;stroke-width:0.8;stroke-miterlimit:10;}
	.st13{fill:#4D4D4D;stroke:#4D4D4D;stroke-width:0.3;stroke-miterlimit:10;}
	.st14{fill:none;stroke:#4D4D4D;stroke-width:0.24;stroke-miterlimit:10;}
</style>
<g>
	<g>
		<path d="M22.293,25.838h-0.77h-0.77h-0.77h-0.77v-1.814V22.21v-1.814v-1.814h-1.016h-1.016h-1.016H15.15v1.814v1.814v1.814v1.814
			h-0.77h-0.77h-0.77h-0.77v-4.138v-4.138v-4.138V9.288h0.77h0.77h0.77h0.77v1.644v1.644v1.644v1.644h1.016h1.016h1.016h1.016
			v-1.644v-1.644v-1.644V9.288h0.77h0.77h0.77h0.77v4.138v4.138v4.138V25.838z"/>
	</g>
	<g>
		<path d="M34.372,19.51c0,0.517-0.027,1.005-0.082,1.465c-0.055,0.46-0.137,0.891-0.246,1.293s-0.246,0.776-0.41,1.121
			c-0.164,0.345-0.356,0.661-0.574,0.948c-0.219,0.288-0.458,0.54-0.717,0.756c-0.259,0.216-0.539,0.396-0.839,0.54
			c-0.3,0.144-0.62,0.252-0.961,0.324s-0.702,0.108-1.083,0.108c-0.241,0-0.476-0.016-0.703-0.049s-0.448-0.082-0.661-0.148
			s-0.419-0.149-0.619-0.248c-0.199-0.099-0.391-0.215-0.576-0.347c-0.185-0.132-0.359-0.279-0.523-0.44
			c-0.164-0.161-0.317-0.337-0.459-0.527s-0.274-0.394-0.396-0.613c-0.121-0.219-0.232-0.452-0.332-0.7
			c-0.1-0.248-0.187-0.507-0.262-0.776c-0.075-0.269-0.137-0.549-0.188-0.839s-0.088-0.591-0.113-0.902s-0.038-0.633-0.038-0.965
			c0-0.511,0.027-0.995,0.081-1.45s0.136-0.883,0.244-1.283c0.108-0.4,0.244-0.771,0.407-1.115c0.163-0.344,0.353-0.659,0.57-0.947
			c0.217-0.287,0.455-0.539,0.714-0.755c0.259-0.216,0.539-0.395,0.84-0.539c0.301-0.144,0.623-0.252,0.966-0.324
			s0.707-0.108,1.092-0.108c0.372,0,0.724,0.037,1.058,0.11c0.334,0.073,0.648,0.183,0.944,0.33c0.296,0.147,0.572,0.33,0.83,0.55
			c0.258,0.22,0.496,0.477,0.716,0.77c0.22,0.293,0.412,0.612,0.577,0.957c0.165,0.345,0.302,0.716,0.412,1.112
			c0.11,0.397,0.192,0.819,0.247,1.267C34.345,18.536,34.372,19.01,34.372,19.51z M27.671,19.51c0,0.328,0.009,0.637,0.027,0.925
			c0.018,0.288,0.045,0.556,0.081,0.805c0.036,0.248,0.081,0.476,0.134,0.684c0.054,0.208,0.116,0.396,0.188,0.564
			c0.072,0.168,0.154,0.315,0.247,0.441c0.093,0.126,0.198,0.231,0.313,0.315c0.115,0.084,0.241,0.147,0.378,0.189
			c0.137,0.042,0.284,0.063,0.443,0.063c0.302,0,0.566-0.083,0.793-0.249s0.415-0.415,0.566-0.747
			c0.151-0.332,0.264-0.747,0.339-1.245c0.075-0.498,0.113-1.079,0.113-1.744c0-0.33-0.009-0.64-0.027-0.928
			c-0.018-0.288-0.045-0.556-0.082-0.803c-0.036-0.247-0.082-0.473-0.136-0.678c-0.055-0.205-0.118-0.389-0.191-0.552
			c-0.072-0.163-0.155-0.306-0.249-0.428s-0.198-0.224-0.312-0.306c-0.115-0.082-0.24-0.143-0.375-0.184
			c-0.136-0.041-0.282-0.061-0.438-0.061c-0.158,0-0.306,0.02-0.443,0.061s-0.263,0.102-0.378,0.184
			c-0.115,0.082-0.219,0.183-0.313,0.306c-0.093,0.122-0.176,0.265-0.247,0.428c-0.072,0.163-0.134,0.347-0.188,0.552
			c-0.054,0.205-0.099,0.431-0.134,0.678c-0.036,0.247-0.063,0.514-0.081,0.803C27.679,18.87,27.671,19.18,27.671,19.51z"/>
	</g>
	<g>
		<path d="M41.866,12.99c0.093,0,0.185,0.004,0.276,0.011c0.092,0.007,0.183,0.018,0.273,0.032c0.091,0.014,0.181,0.032,0.27,0.053
			c0.09,0.021,0.179,0.046,0.267,0.074l-0.088,0.73l-0.088,0.73l-0.088,0.73l-0.088,0.73c-0.053-0.019-0.11-0.036-0.171-0.05
			c-0.061-0.014-0.126-0.026-0.195-0.035c-0.069-0.009-0.142-0.016-0.218-0.021c-0.077-0.005-0.158-0.007-0.243-0.007
			c-0.183,0-0.356,0.018-0.517,0.054c-0.162,0.036-0.313,0.09-0.453,0.162c-0.14,0.072-0.27,0.162-0.39,0.271
			c-0.119,0.108-0.228,0.235-0.326,0.38c-0.098,0.144-0.184,0.304-0.258,0.481c-0.074,0.177-0.135,0.371-0.184,0.58
			c-0.049,0.21-0.086,0.436-0.11,0.679c-0.024,0.243-0.037,0.502-0.037,0.777v1.622v1.622v1.622v1.622h-0.753h-0.753h-0.753h-0.753
			v-3.153v-3.153V16.38v-3.153h0.62h0.62h0.62h0.62l0.085,0.492l0.085,0.492l0.085,0.492l0.085,0.492h0.025h0.025h0.025h0.025
			c0.083-0.198,0.168-0.382,0.254-0.552c0.087-0.17,0.175-0.325,0.266-0.467c0.091-0.142,0.183-0.269,0.277-0.382
			c0.094-0.113,0.191-0.212,0.289-0.297c0.098-0.085,0.2-0.159,0.307-0.223c0.106-0.064,0.216-0.117,0.33-0.159
			s0.232-0.074,0.354-0.096C41.61,13,41.736,12.99,41.866,12.99z"/>
	</g>
	<g>
		<path d="M48.681,23.518c0.106,0,0.213-0.007,0.323-0.02c0.11-0.013,0.222-0.033,0.336-0.059c0.114-0.026,0.231-0.059,0.349-0.099
			s0.239-0.086,0.361-0.139v0.589v0.589v0.589v0.589c-0.123,0.085-0.26,0.159-0.414,0.223s-0.322,0.117-0.506,0.159
			c-0.184,0.042-0.383,0.074-0.598,0.096c-0.215,0.021-0.445,0.032-0.69,0.032c-0.274,0-0.53-0.02-0.768-0.061
			s-0.459-0.102-0.661-0.184c-0.203-0.082-0.388-0.184-0.555-0.306s-0.317-0.265-0.449-0.429c-0.132-0.163-0.248-0.346-0.347-0.55
			c-0.099-0.204-0.182-0.428-0.248-0.673c-0.066-0.245-0.115-0.51-0.148-0.796s-0.049-0.592-0.049-0.918v-1.633v-1.633v-1.633
			v-1.633h-0.306h-0.306H43.7h-0.306v-0.337v-0.337v-0.337v-0.337l0.393-0.272l0.393-0.272l0.393-0.272l0.393-0.272l0.192-0.668
			l0.192-0.668l0.192-0.668l0.192-0.668h0.481H46.7h0.481h0.481v0.679v0.679v0.679v0.679h0.572h0.572h0.572h0.572v0.597v0.597v0.597
			v0.597h-0.572h-0.572h-0.572h-0.572v1.658v1.658v1.658v1.658c0,0.211,0.021,0.396,0.064,0.555
			c0.042,0.159,0.106,0.291,0.191,0.396c0.085,0.106,0.191,0.185,0.318,0.238S48.511,23.518,48.681,23.518z"/>
	</g>
	<g>
		<path d="M51.715,9.933c0-0.125,0.009-0.243,0.027-0.354c0.018-0.112,0.045-0.217,0.082-0.315c0.036-0.099,0.082-0.191,0.136-0.276
			c0.055-0.085,0.118-0.164,0.191-0.237c0.072-0.073,0.152-0.136,0.239-0.191c0.087-0.055,0.181-0.1,0.282-0.136
			c0.101-0.036,0.21-0.064,0.326-0.082c0.116-0.018,0.239-0.027,0.369-0.027c0.123,0,0.239,0.009,0.349,0.027
			c0.11,0.018,0.215,0.045,0.313,0.082c0.098,0.036,0.19,0.082,0.276,0.136c0.086,0.055,0.166,0.118,0.239,0.191
			c0.074,0.072,0.138,0.151,0.193,0.237c0.055,0.085,0.101,0.178,0.138,0.276c0.037,0.099,0.064,0.204,0.083,0.315
			c0.018,0.112,0.028,0.23,0.028,0.354c0,0.128-0.009,0.249-0.028,0.363c-0.019,0.114-0.047,0.221-0.085,0.32
			s-0.085,0.192-0.141,0.277s-0.123,0.164-0.198,0.235c-0.076,0.07-0.157,0.132-0.243,0.185c-0.086,0.053-0.178,0.097-0.275,0.132
			c-0.097,0.035-0.2,0.062-0.308,0.08c-0.108,0.018-0.221,0.027-0.34,0.027c-0.125,0-0.243-0.009-0.355-0.027
			c-0.112-0.018-0.218-0.044-0.318-0.08c-0.1-0.035-0.194-0.08-0.282-0.132c-0.088-0.053-0.169-0.115-0.245-0.185
			c-0.076-0.071-0.142-0.149-0.198-0.235c-0.057-0.085-0.104-0.178-0.141-0.277s-0.066-0.206-0.085-0.32
			C51.724,10.182,51.715,10.061,51.715,9.933z M54.851,25.838h-0.753h-0.753h-0.753h-0.753v-3.153v-3.153V16.38v-3.153h0.753h0.753
			h0.753h0.753v3.153v3.153v3.153V25.838z"/>
	</g>
	<g>
		<path d="M58.402,10.561h1.043h1.043h1.043h1.043c0.213,0,0.42,0.005,0.621,0.014c0.201,0.009,0.397,0.023,0.587,0.041
			s0.375,0.041,0.554,0.069s0.353,0.06,0.521,0.096c0.168,0.037,0.33,0.08,0.486,0.128c0.156,0.049,0.305,0.103,0.448,0.164
			c0.143,0.061,0.28,0.128,0.41,0.2c0.13,0.073,0.255,0.152,0.373,0.237c0.118,0.085,0.228,0.177,0.332,0.274
			c0.104,0.098,0.201,0.202,0.291,0.312c0.09,0.11,0.173,0.227,0.249,0.349c0.076,0.123,0.145,0.252,0.207,0.387
			c0.061,0.135,0.115,0.278,0.162,0.428c0.046,0.151,0.085,0.309,0.116,0.475c0.031,0.166,0.054,0.34,0.07,0.521
			c0.016,0.182,0.023,0.371,0.023,0.568c0,0.375-0.03,0.726-0.09,1.053s-0.15,0.63-0.269,0.909c-0.12,0.279-0.27,0.534-0.449,0.766
			c-0.18,0.231-0.389,0.439-0.629,0.622c-0.24,0.184-0.503,0.344-0.79,0.482c-0.287,0.138-0.597,0.252-0.932,0.344
			c-0.334,0.092-0.692,0.161-1.073,0.206c-0.382,0.046-0.787,0.069-1.216,0.069h-0.777h-0.777h-0.777h-0.777v1.64v1.64v1.64v1.64
			h-0.266h-0.266h-0.266h-0.266v-3.819v-3.819V14.38V10.561z M62.319,18.373c0.391,0,0.756-0.017,1.096-0.052
			c0.34-0.035,0.655-0.087,0.945-0.156c0.29-0.07,0.554-0.156,0.794-0.261c0.24-0.104,0.454-0.226,0.644-0.365
			c0.189-0.139,0.355-0.3,0.497-0.482c0.142-0.183,0.26-0.387,0.355-0.613s0.166-0.474,0.213-0.744
			c0.047-0.27,0.071-0.561,0.071-0.875c0-0.162-0.006-0.317-0.018-0.465c-0.012-0.148-0.03-0.289-0.054-0.424
			c-0.024-0.134-0.054-0.261-0.09-0.382c-0.036-0.12-0.078-0.234-0.126-0.34c-0.049-0.106-0.103-0.208-0.163-0.304
			c-0.06-0.096-0.125-0.187-0.197-0.273c-0.071-0.086-0.148-0.167-0.231-0.243s-0.172-0.147-0.266-0.213
			c-0.095-0.065-0.196-0.126-0.304-0.182c-0.107-0.056-0.221-0.107-0.341-0.154c-0.12-0.046-0.246-0.088-0.378-0.125
			c-0.132-0.037-0.271-0.069-0.415-0.096c-0.145-0.027-0.296-0.051-0.453-0.071c-0.157-0.02-0.32-0.037-0.489-0.051
			s-0.344-0.023-0.525-0.03c-0.181-0.007-0.368-0.01-0.562-0.01h-0.713h-0.713H60.18h-0.713v1.727v1.727v1.727v1.727h0.713h0.713
			h0.713H62.319z"/>
	</g>
	<g>
		<path d="M69.738,20.298c0-0.232,0.008-0.458,0.025-0.678s0.042-0.433,0.076-0.641c0.034-0.208,0.076-0.409,0.127-0.605
			s0.11-0.385,0.177-0.569c0.068-0.184,0.141-0.36,0.22-0.528c0.079-0.169,0.164-0.33,0.255-0.483c0.091-0.154,0.188-0.3,0.29-0.438
			c0.102-0.139,0.211-0.27,0.325-0.394c0.114-0.124,0.233-0.24,0.356-0.349s0.251-0.211,0.383-0.306s0.269-0.182,0.411-0.262
			c0.142-0.08,0.288-0.153,0.438-0.219c0.151-0.065,0.304-0.123,0.458-0.172c0.155-0.049,0.311-0.09,0.47-0.123
			c0.158-0.033,0.319-0.057,0.481-0.074c0.162-0.016,0.327-0.025,0.493-0.025s0.331,0.008,0.493,0.025
			c0.163,0.016,0.324,0.041,0.483,0.074c0.159,0.033,0.317,0.074,0.473,0.123c0.156,0.049,0.31,0.106,0.462,0.172
			c0.153,0.066,0.301,0.139,0.444,0.219c0.143,0.08,0.281,0.168,0.415,0.262c0.133,0.095,0.262,0.197,0.386,0.306
			c0.124,0.109,0.243,0.226,0.357,0.349c0.114,0.124,0.222,0.255,0.324,0.394s0.199,0.285,0.29,0.438
			c0.091,0.154,0.176,0.315,0.255,0.483c0.079,0.169,0.153,0.345,0.22,0.528c0.068,0.184,0.127,0.373,0.178,0.569
			s0.093,0.397,0.127,0.605c0.034,0.208,0.059,0.421,0.076,0.641s0.025,0.446,0.025,0.678c0,0.232-0.008,0.457-0.025,0.676
			c-0.017,0.219-0.042,0.431-0.076,0.637c-0.034,0.206-0.076,0.405-0.127,0.597c-0.051,0.193-0.11,0.379-0.178,0.558
			c-0.068,0.18-0.141,0.353-0.22,0.519c-0.079,0.166-0.164,0.325-0.255,0.476s-0.187,0.296-0.29,0.434
			c-0.102,0.138-0.21,0.268-0.324,0.392c-0.114,0.124-0.233,0.24-0.357,0.349c-0.124,0.109-0.252,0.211-0.386,0.306
			c-0.133,0.095-0.272,0.182-0.415,0.262s-0.291,0.153-0.444,0.218c-0.152,0.066-0.307,0.124-0.462,0.173
			c-0.156,0.049-0.313,0.09-0.473,0.123c-0.159,0.033-0.32,0.057-0.483,0.074c-0.163,0.016-0.327,0.025-0.493,0.025
			s-0.33-0.008-0.493-0.025s-0.323-0.041-0.481-0.074s-0.315-0.074-0.47-0.123c-0.155-0.049-0.307-0.107-0.458-0.173
			c-0.151-0.065-0.297-0.138-0.438-0.218c-0.142-0.08-0.278-0.167-0.411-0.262c-0.132-0.095-0.26-0.196-0.383-0.306
			s-0.242-0.226-0.356-0.349s-0.222-0.254-0.325-0.392c-0.102-0.138-0.199-0.282-0.29-0.434s-0.176-0.31-0.255-0.476
			c-0.079-0.166-0.153-0.339-0.22-0.519c-0.068-0.18-0.127-0.366-0.177-0.558c-0.051-0.193-0.093-0.392-0.127-0.597
			s-0.059-0.418-0.076-0.637C69.747,20.755,69.738,20.529,69.738,20.298z M70.806,20.298c0,0.182,0.006,0.359,0.019,0.533
			c0.013,0.174,0.031,0.344,0.056,0.51c0.025,0.166,0.056,0.328,0.094,0.487c0.038,0.158,0.081,0.313,0.132,0.464
			c0.05,0.15,0.105,0.296,0.164,0.436c0.059,0.14,0.123,0.275,0.192,0.404c0.069,0.129,0.142,0.254,0.22,0.372
			c0.078,0.119,0.16,0.232,0.247,0.34c0.087,0.108,0.178,0.211,0.273,0.307c0.095,0.096,0.194,0.186,0.298,0.27
			c0.103,0.084,0.211,0.162,0.322,0.234c0.112,0.072,0.227,0.138,0.347,0.198c0.12,0.06,0.242,0.112,0.367,0.157
			c0.125,0.045,0.252,0.082,0.381,0.112c0.13,0.03,0.262,0.052,0.396,0.067s0.271,0.022,0.41,0.022S75,25.205,75.135,25.19
			c0.135-0.015,0.267-0.037,0.397-0.067c0.13-0.03,0.258-0.067,0.384-0.112c0.126-0.045,0.25-0.097,0.371-0.157
			c0.122-0.06,0.239-0.126,0.352-0.198c0.113-0.072,0.222-0.15,0.326-0.234s0.205-0.174,0.3-0.27
			c0.096-0.096,0.187-0.199,0.275-0.307c0.087-0.108,0.169-0.221,0.247-0.34c0.078-0.119,0.151-0.243,0.219-0.372
			c0.068-0.129,0.132-0.264,0.192-0.404c0.059-0.14,0.114-0.285,0.164-0.436c0.051-0.151,0.095-0.305,0.133-0.464
			c0.038-0.158,0.069-0.321,0.094-0.487c0.025-0.166,0.044-0.336,0.057-0.51s0.019-0.352,0.019-0.533
			c0-0.186-0.006-0.367-0.019-0.544c-0.013-0.177-0.031-0.349-0.057-0.518c-0.025-0.168-0.057-0.332-0.094-0.492
			c-0.038-0.159-0.082-0.315-0.133-0.465c-0.05-0.15-0.105-0.296-0.164-0.436c-0.059-0.14-0.123-0.276-0.192-0.406
			c-0.068-0.13-0.141-0.256-0.219-0.376s-0.16-0.235-0.247-0.345c-0.087-0.11-0.179-0.214-0.275-0.312
			c-0.096-0.098-0.196-0.189-0.3-0.274c-0.104-0.085-0.213-0.164-0.326-0.236c-0.113-0.072-0.23-0.138-0.352-0.198
			c-0.122-0.06-0.246-0.112-0.371-0.157c-0.126-0.045-0.254-0.082-0.384-0.112c-0.13-0.03-0.263-0.052-0.397-0.067
			c-0.135-0.015-0.272-0.022-0.411-0.022s-0.276,0.007-0.41,0.022s-0.266,0.037-0.396,0.067c-0.13,0.03-0.257,0.067-0.381,0.112
			c-0.125,0.045-0.247,0.097-0.367,0.157c-0.12,0.06-0.235,0.126-0.347,0.198c-0.112,0.072-0.219,0.151-0.322,0.236
			c-0.103,0.085-0.203,0.176-0.298,0.274c-0.095,0.098-0.186,0.202-0.273,0.312c-0.087,0.11-0.169,0.225-0.247,0.345
			c-0.078,0.12-0.151,0.246-0.22,0.376c-0.069,0.13-0.133,0.266-0.192,0.406c-0.059,0.14-0.114,0.286-0.164,0.436
			c-0.05,0.151-0.094,0.306-0.132,0.465c-0.038,0.159-0.069,0.323-0.094,0.492c-0.025,0.168-0.044,0.341-0.056,0.518
			C70.812,19.931,70.806,20.112,70.806,20.298z"/>
	</g>
	<g>
		<path d="M81.494,14.71h0.278h0.278h0.278h0.278l0.498,1.802l0.499,1.802l0.498,1.802L84.6,21.92
			c0.035,0.128,0.069,0.255,0.103,0.381c0.034,0.126,0.067,0.252,0.1,0.376c0.033,0.125,0.065,0.248,0.097,0.372
			c0.032,0.123,0.064,0.246,0.095,0.367c0.031,0.122,0.062,0.244,0.092,0.366s0.062,0.244,0.093,0.367
			c0.031,0.123,0.062,0.245,0.093,0.369c0.031,0.123,0.062,0.247,0.092,0.37h0.023h0.023h0.023h0.023
			c0.031-0.124,0.062-0.247,0.094-0.37c0.032-0.123,0.064-0.246,0.097-0.369c0.033-0.123,0.066-0.245,0.1-0.367
			s0.068-0.244,0.103-0.366c0.035-0.122,0.07-0.244,0.104-0.367c0.035-0.123,0.07-0.247,0.104-0.372
			c0.035-0.125,0.07-0.25,0.104-0.376c0.035-0.126,0.07-0.253,0.104-0.381l0.505-1.802l0.505-1.802l0.505-1.802l0.505-1.802h0.307
			h0.307h0.307h0.307l0.505,1.802l0.505,1.802l0.505,1.802l0.505,1.802c0.035,0.128,0.07,0.255,0.104,0.381
			c0.035,0.126,0.07,0.252,0.104,0.376c0.035,0.125,0.07,0.248,0.104,0.372c0.035,0.123,0.07,0.246,0.104,0.367
			c0.035,0.122,0.07,0.244,0.104,0.366c0.035,0.122,0.07,0.244,0.104,0.367c0.035,0.123,0.07,0.245,0.104,0.369
			c0.035,0.123,0.07,0.247,0.104,0.37h0.023h0.023h0.023h0.023c0.031-0.124,0.062-0.247,0.094-0.37
			c0.032-0.123,0.064-0.246,0.097-0.369c0.033-0.123,0.066-0.245,0.1-0.367c0.034-0.122,0.068-0.244,0.103-0.366
			c0.035-0.122,0.069-0.244,0.103-0.367c0.034-0.123,0.067-0.247,0.1-0.372c0.033-0.125,0.065-0.25,0.097-0.376
			c0.032-0.126,0.063-0.253,0.094-0.381l0.493-1.802l0.493-1.802l0.493-1.802l0.493-1.802h0.261h0.261h0.261h0.261l-0.8,2.782
			l-0.8,2.782l-0.8,2.782l-0.8,2.782h-0.336H92.39h-0.336h-0.336l-0.487-1.727l-0.487-1.727l-0.487-1.727L89.77,18.93
			c-0.042-0.135-0.083-0.27-0.122-0.404c-0.039-0.134-0.077-0.267-0.112-0.399c-0.036-0.132-0.07-0.264-0.102-0.395
			c-0.032-0.131-0.063-0.261-0.092-0.39c-0.029-0.129-0.06-0.26-0.092-0.39c-0.032-0.131-0.066-0.263-0.102-0.395
			c-0.036-0.132-0.073-0.266-0.112-0.399s-0.08-0.268-0.122-0.403H88.89h-0.023h-0.023H88.82c-0.031,0.135-0.062,0.27-0.095,0.404
			s-0.065,0.269-0.099,0.403s-0.068,0.268-0.104,0.402c-0.035,0.134-0.071,0.267-0.108,0.401c-0.037,0.133-0.074,0.267-0.112,0.401
			c-0.038,0.134-0.077,0.268-0.116,0.402c-0.04,0.134-0.08,0.269-0.121,0.404c-0.041,0.135-0.083,0.27-0.126,0.405l-0.481,1.715
			l-0.481,1.715l-0.481,1.715l-0.481,1.715h-0.307h-0.307h-0.307h-0.307l-0.823-2.782l-0.823-2.782l-0.823-2.782L81.494,14.71z"/>
	</g>
	<g>
		<path d="M98.023,20.298c0-0.228,0.008-0.45,0.025-0.667c0.017-0.216,0.042-0.427,0.076-0.632c0.034-0.205,0.076-0.404,0.127-0.597
			c0.051-0.193,0.11-0.381,0.177-0.562c0.068-0.182,0.141-0.356,0.22-0.524s0.164-0.328,0.255-0.482
			c0.091-0.154,0.188-0.3,0.29-0.44s0.211-0.272,0.325-0.398c0.114-0.125,0.232-0.243,0.354-0.354s0.247-0.215,0.377-0.311
			c0.129-0.097,0.263-0.186,0.4-0.268c0.137-0.082,0.278-0.157,0.424-0.224c0.145-0.068,0.291-0.127,0.438-0.178
			c0.147-0.051,0.296-0.093,0.445-0.127c0.15-0.034,0.301-0.059,0.453-0.076c0.152-0.017,0.306-0.025,0.461-0.025
			c0.332,0,0.647,0.028,0.943,0.084c0.297,0.056,0.575,0.14,0.836,0.252s0.504,0.252,0.729,0.42
			c0.225,0.168,0.432,0.364,0.621,0.588c0.189,0.224,0.355,0.472,0.497,0.742s0.261,0.564,0.355,0.881
			c0.095,0.317,0.166,0.657,0.213,1.02s0.071,0.749,0.071,1.159c0,0.035,0,0.07,0,0.104s0,0.07,0,0.104s0,0.07,0,0.104
			c0,0.035,0,0.07,0,0.104c0,0.035-0.001,0.07-0.003,0.104c-0.002,0.035-0.005,0.07-0.009,0.104s-0.009,0.07-0.015,0.104
			c-0.006,0.035-0.013,0.07-0.02,0.104h-2.005h-2.005h-2.005h-2.005c0.004,0.174,0.013,0.345,0.028,0.512
			c0.015,0.168,0.037,0.332,0.063,0.494c0.027,0.161,0.06,0.32,0.098,0.475c0.039,0.155,0.083,0.307,0.133,0.455
			c0.05,0.149,0.105,0.292,0.166,0.431s0.126,0.271,0.197,0.399c0.071,0.128,0.146,0.25,0.227,0.367
			c0.081,0.117,0.167,0.229,0.258,0.335c0.091,0.106,0.186,0.207,0.286,0.301s0.204,0.183,0.314,0.266
			c0.109,0.083,0.223,0.16,0.341,0.232c0.118,0.071,0.242,0.137,0.369,0.197c0.127,0.06,0.259,0.112,0.394,0.157
			c0.135,0.045,0.274,0.082,0.417,0.112c0.143,0.03,0.29,0.052,0.44,0.067c0.151,0.015,0.305,0.022,0.464,0.022
			c0.151,0,0.298-0.006,0.441-0.017c0.144-0.011,0.283-0.028,0.42-0.05c0.136-0.022,0.269-0.05,0.398-0.083
			c0.129-0.033,0.254-0.072,0.376-0.117c0.122-0.044,0.241-0.092,0.359-0.145c0.117-0.053,0.233-0.109,0.346-0.17
			c0.113-0.061,0.224-0.126,0.333-0.195s0.215-0.142,0.32-0.219l0.104,0.197l0.104,0.197l0.104,0.197l0.104,0.197
			c-0.112,0.066-0.227,0.131-0.345,0.195s-0.238,0.127-0.36,0.189s-0.248,0.123-0.376,0.183c-0.128,0.06-0.259,0.119-0.392,0.176
			c-0.133,0.058-0.275,0.108-0.426,0.152c-0.151,0.043-0.311,0.08-0.48,0.109c-0.169,0.029-0.347,0.051-0.534,0.065
			c-0.187,0.015-0.383,0.022-0.588,0.022c-0.178,0-0.353-0.008-0.526-0.025c-0.172-0.016-0.342-0.041-0.509-0.074
			s-0.331-0.074-0.493-0.123s-0.321-0.107-0.477-0.173c-0.156-0.065-0.308-0.139-0.454-0.219c-0.146-0.081-0.288-0.169-0.424-0.264
			c-0.136-0.096-0.267-0.199-0.394-0.309c-0.126-0.111-0.247-0.228-0.363-0.354c-0.116-0.126-0.225-0.258-0.329-0.397
			c-0.104-0.139-0.202-0.285-0.294-0.438c-0.092-0.153-0.178-0.312-0.258-0.478c-0.08-0.166-0.153-0.339-0.221-0.519
			c-0.068-0.18-0.127-0.365-0.177-0.557c-0.051-0.192-0.093-0.389-0.127-0.593c-0.034-0.204-0.059-0.414-0.076-0.629
			C98.031,20.748,98.023,20.526,98.023,20.298z M106.161,19.625c0-0.359-0.018-0.696-0.055-1.011
			c-0.037-0.315-0.092-0.607-0.165-0.876c-0.073-0.27-0.165-0.517-0.275-0.741s-0.238-0.427-0.385-0.606
			c-0.147-0.18-0.307-0.337-0.48-0.471c-0.173-0.135-0.359-0.247-0.558-0.337c-0.199-0.09-0.411-0.157-0.636-0.203
			s-0.463-0.068-0.714-0.068c-0.12,0-0.238,0.006-0.355,0.019s-0.232,0.032-0.346,0.057c-0.114,0.025-0.227,0.057-0.338,0.095
			s-0.221,0.082-0.329,0.132c-0.108,0.05-0.213,0.106-0.316,0.166c-0.103,0.061-0.203,0.127-0.301,0.198s-0.193,0.148-0.285,0.23
			s-0.182,0.169-0.269,0.262c-0.087,0.093-0.17,0.191-0.249,0.294c-0.079,0.103-0.155,0.211-0.226,0.324s-0.139,0.231-0.203,0.354
			c-0.064,0.123-0.123,0.251-0.179,0.385c-0.056,0.133-0.107,0.271-0.153,0.412s-0.087,0.287-0.122,0.437s-0.066,0.303-0.092,0.461
			s-0.046,0.32-0.061,0.486h1.773h1.773h1.773H106.161z"/>
	</g>
	<g>
		<path d="M110.149,14.71h0.22h0.22h0.22h0.22l0.023,0.516l0.023,0.516l0.023,0.516l0.023,0.516h0.017h0.017h0.017h0.017
			c0.093-0.174,0.19-0.34,0.293-0.497c0.103-0.157,0.211-0.307,0.324-0.448c0.113-0.141,0.231-0.274,0.355-0.399
			c0.123-0.125,0.252-0.241,0.385-0.35c0.133-0.108,0.27-0.202,0.412-0.283c0.141-0.081,0.287-0.149,0.437-0.203
			c0.15-0.054,0.304-0.095,0.462-0.122c0.158-0.027,0.32-0.041,0.486-0.041c0.054,0,0.106,0.001,0.157,0.003
			s0.101,0.005,0.149,0.008c0.048,0.004,0.095,0.008,0.141,0.014c0.045,0.006,0.089,0.012,0.132,0.02
			c0.042,0.008,0.085,0.018,0.129,0.03c0.043,0.012,0.087,0.025,0.132,0.041c0.044,0.015,0.089,0.033,0.135,0.052
			c0.045,0.019,0.091,0.04,0.138,0.063l-0.058,0.232l-0.058,0.232l-0.058,0.232l-0.058,0.232c-0.046-0.019-0.091-0.036-0.134-0.052
			c-0.043-0.016-0.085-0.03-0.126-0.042s-0.08-0.023-0.118-0.033c-0.038-0.009-0.074-0.017-0.109-0.023
			c-0.035-0.006-0.072-0.011-0.112-0.015c-0.04-0.004-0.082-0.008-0.126-0.011c-0.044-0.003-0.091-0.005-0.14-0.006
			c-0.049-0.001-0.101-0.002-0.154-0.002c-0.124,0-0.249,0.013-0.376,0.04c-0.127,0.027-0.256,0.066-0.386,0.119
			c-0.13,0.053-0.263,0.119-0.396,0.199s-0.269,0.173-0.406,0.279c-0.137,0.106-0.271,0.232-0.401,0.378
			c-0.13,0.145-0.256,0.31-0.379,0.495c-0.123,0.184-0.242,0.388-0.357,0.612c-0.115,0.224-0.227,0.467-0.335,0.73v1.895v1.895
			v1.895v1.895h-0.255h-0.255h-0.255h-0.255v-2.782v-2.782v-2.782V14.71z"/>
	</g>
</g>
<g>
	<g>
		<path d="M11.911,30.344h0.51h0.51h0.51h0.51c0.191,0,0.372,0.009,0.544,0.028c0.172,0.018,0.333,0.046,0.485,0.083
			c0.152,0.037,0.294,0.083,0.426,0.138c0.132,0.055,0.255,0.12,0.368,0.193c0.113,0.074,0.211,0.158,0.296,0.253
			c0.085,0.095,0.155,0.2,0.211,0.316c0.056,0.116,0.099,0.243,0.127,0.38c0.028,0.137,0.042,0.285,0.042,0.444
			c0,0.099-0.007,0.196-0.021,0.288c-0.014,0.093-0.035,0.183-0.064,0.269c-0.028,0.087-0.064,0.17-0.106,0.25
			c-0.042,0.08-0.092,0.157-0.148,0.23s-0.12,0.141-0.19,0.204c-0.07,0.062-0.147,0.119-0.23,0.17s-0.174,0.097-0.271,0.136
			c-0.097,0.04-0.201,0.074-0.312,0.103v0.011v0.011v0.011v0.011c0.14,0.021,0.272,0.049,0.396,0.083s0.242,0.076,0.352,0.124
			s0.212,0.103,0.307,0.165c0.095,0.062,0.182,0.13,0.262,0.206c0.08,0.076,0.151,0.158,0.211,0.248c0.06,0.09,0.11,0.186,0.15,0.29
			c0.04,0.104,0.07,0.214,0.09,0.332c0.02,0.118,0.03,0.242,0.03,0.374c0,0.092-0.004,0.181-0.013,0.267
			c-0.008,0.086-0.021,0.169-0.038,0.25c-0.017,0.08-0.038,0.158-0.062,0.232c-0.025,0.075-0.054,0.146-0.087,0.215
			c-0.034,0.069-0.071,0.135-0.111,0.198c-0.04,0.063-0.084,0.123-0.132,0.18s-0.098,0.112-0.152,0.163
			c-0.054,0.052-0.112,0.1-0.173,0.146c-0.061,0.046-0.125,0.089-0.193,0.129s-0.138,0.077-0.211,0.112
			c-0.074,0.034-0.15,0.066-0.23,0.095c-0.08,0.029-0.163,0.055-0.249,0.078c-0.086,0.023-0.175,0.043-0.266,0.06
			c-0.091,0.017-0.185,0.032-0.281,0.043c-0.096,0.011-0.196,0.02-0.297,0.026c-0.102,0.006-0.206,0.009-0.313,0.009h-0.547h-0.547
			h-0.547h-0.547V36.01v-1.889v-1.889V30.344z M13.745,33.668c0.195,0,0.376-0.008,0.543-0.023c0.167-0.016,0.32-0.039,0.46-0.07
			s0.265-0.07,0.377-0.116c0.112-0.047,0.21-0.101,0.294-0.163c0.084-0.062,0.158-0.132,0.221-0.21s0.116-0.164,0.158-0.258
			c0.042-0.094,0.074-0.196,0.095-0.306c0.021-0.11,0.032-0.228,0.032-0.354c0-0.122-0.011-0.236-0.034-0.342
			s-0.056-0.202-0.101-0.291c-0.045-0.088-0.101-0.168-0.168-0.24c-0.067-0.071-0.146-0.134-0.236-0.189
			c-0.09-0.054-0.19-0.102-0.301-0.143c-0.111-0.041-0.232-0.075-0.364-0.102c-0.132-0.027-0.274-0.048-0.427-0.061
			c-0.153-0.014-0.316-0.021-0.49-0.021h-0.341H13.12h-0.341h-0.341v0.722v0.722v0.722v0.722h0.327h0.327h0.327H13.745z
			 M13.962,37.462c0.189,0,0.368-0.009,0.537-0.027c0.169-0.018,0.328-0.044,0.476-0.08c0.149-0.035,0.287-0.079,0.415-0.132
			s0.246-0.115,0.354-0.185c0.108-0.071,0.202-0.152,0.283-0.243c0.081-0.091,0.148-0.193,0.202-0.305
			c0.054-0.112,0.094-0.234,0.121-0.366c0.027-0.132,0.04-0.275,0.04-0.428c0-0.136-0.013-0.262-0.04-0.381
			c-0.026-0.118-0.066-0.228-0.119-0.328c-0.053-0.101-0.118-0.193-0.197-0.276c-0.079-0.083-0.171-0.158-0.276-0.224
			c-0.105-0.066-0.221-0.124-0.348-0.173c-0.127-0.049-0.266-0.091-0.416-0.124c-0.15-0.033-0.311-0.058-0.484-0.074
			c-0.173-0.016-0.356-0.025-0.551-0.025h-0.381H13.2h-0.381h-0.381v0.843v0.843v0.843v0.843h0.381H13.2h0.381H13.962z"/>
	</g>
	<g>
		<path d="M18.479,32.396h0.109h0.109h0.109h0.109l0.011,0.255l0.011,0.255l0.011,0.255l0.011,0.255h0.009h0.009h0.009h0.009
			c0.046-0.086,0.094-0.168,0.145-0.246c0.051-0.078,0.104-0.152,0.16-0.221c0.056-0.07,0.114-0.135,0.175-0.197
			c0.061-0.062,0.124-0.119,0.19-0.173c0.066-0.053,0.134-0.1,0.204-0.14s0.142-0.073,0.216-0.1c0.074-0.027,0.15-0.047,0.228-0.06
			s0.158-0.02,0.241-0.02c0.026,0,0.052,0,0.077,0.001s0.05,0.002,0.074,0.004c0.024,0.002,0.047,0.004,0.07,0.007
			c0.023,0.003,0.044,0.006,0.066,0.01c0.021,0.004,0.042,0.009,0.063,0.015s0.043,0.013,0.065,0.02
			c0.022,0.008,0.044,0.016,0.067,0.026c0.023,0.01,0.045,0.02,0.069,0.031l-0.029,0.115l-0.029,0.115l-0.029,0.115l-0.029,0.115
			c-0.023-0.009-0.045-0.018-0.067-0.026c-0.022-0.008-0.042-0.015-0.063-0.021c-0.02-0.006-0.04-0.012-0.058-0.016
			s-0.037-0.008-0.054-0.011c-0.017-0.003-0.036-0.005-0.055-0.007c-0.02-0.002-0.04-0.004-0.062-0.005s-0.045-0.002-0.069-0.003
			c-0.024-0.001-0.049-0.001-0.076-0.001c-0.061,0-0.123,0.007-0.186,0.02c-0.063,0.013-0.127,0.033-0.191,0.059
			s-0.13,0.059-0.196,0.098c-0.066,0.039-0.133,0.085-0.201,0.138c-0.068,0.053-0.134,0.115-0.198,0.187s-0.127,0.153-0.188,0.245
			s-0.119,0.192-0.176,0.303c-0.057,0.111-0.112,0.231-0.165,0.361v0.937v0.937v0.937v0.937h-0.126h-0.126h-0.126h-0.126v-1.376
			v-1.376v-1.376V32.396z"/>
	</g>
	<g>
		<path d="M22.376,31.066c-0.032,0-0.063-0.003-0.093-0.008s-0.058-0.013-0.085-0.024c-0.027-0.011-0.053-0.024-0.078-0.039
			c-0.025-0.016-0.048-0.034-0.07-0.055c-0.022-0.021-0.041-0.043-0.058-0.067c-0.017-0.024-0.03-0.049-0.042-0.076
			c-0.011-0.027-0.019-0.055-0.025-0.084c-0.006-0.03-0.008-0.061-0.008-0.093c0-0.036,0.003-0.071,0.008-0.103
			c0.006-0.032,0.014-0.063,0.025-0.091c0.011-0.028,0.025-0.054,0.042-0.078c0.017-0.024,0.036-0.046,0.058-0.066
			c0.022-0.02,0.045-0.038,0.07-0.053c0.025-0.015,0.05-0.028,0.078-0.038c0.027-0.01,0.056-0.018,0.085-0.023
			c0.03-0.005,0.061-0.008,0.093-0.008c0.032,0,0.063,0.002,0.093,0.008c0.03,0.005,0.058,0.013,0.085,0.023
			c0.027,0.01,0.053,0.023,0.078,0.038c0.025,0.015,0.048,0.033,0.07,0.053c0.022,0.02,0.041,0.042,0.058,0.066
			c0.017,0.024,0.03,0.05,0.042,0.078c0.011,0.028,0.019,0.058,0.025,0.091c0.006,0.032,0.008,0.067,0.008,0.103
			c0,0.032-0.003,0.063-0.008,0.093c-0.006,0.03-0.014,0.058-0.025,0.084c-0.011,0.027-0.025,0.052-0.042,0.076
			c-0.017,0.024-0.036,0.046-0.058,0.067c-0.022,0.021-0.045,0.039-0.07,0.055c-0.025,0.016-0.05,0.029-0.078,0.039
			c-0.027,0.011-0.056,0.018-0.085,0.024S22.409,31.066,22.376,31.066z M22.112,32.396h0.126h0.126h0.126h0.126v1.376v1.376v1.376
			v1.376h-0.126h-0.126h-0.126h-0.126v-1.376v-1.376v-1.376V32.396z"/>
	</g>
	<g>
		<path d="M24.738,32.396h0.109h0.109h0.109h0.109l0.012,0.212l0.012,0.212l0.012,0.212l0.012,0.212h0.008h0.008h0.008h0.008
			c0.071-0.071,0.142-0.139,0.214-0.203c0.072-0.065,0.144-0.127,0.217-0.185s0.146-0.115,0.219-0.167
			c0.074-0.053,0.148-0.103,0.222-0.149c0.074-0.047,0.151-0.088,0.231-0.123c0.08-0.035,0.162-0.064,0.247-0.088
			c0.085-0.023,0.173-0.041,0.263-0.053c0.09-0.012,0.183-0.018,0.279-0.018c0.143,0,0.277,0.011,0.401,0.032
			c0.124,0.021,0.239,0.054,0.344,0.097s0.201,0.097,0.286,0.161s0.162,0.14,0.229,0.226c0.067,0.086,0.126,0.184,0.176,0.293
			c0.05,0.109,0.092,0.23,0.125,0.363c0.033,0.133,0.058,0.277,0.075,0.434c0.017,0.156,0.025,0.324,0.025,0.504v0.883v0.883v0.883
			v0.883h-0.126h-0.126h-0.126h-0.126v-0.865v-0.865v-0.865v-0.865c0-0.147-0.006-0.285-0.018-0.412
			c-0.012-0.128-0.03-0.246-0.055-0.355s-0.055-0.207-0.091-0.296c-0.037-0.089-0.079-0.169-0.128-0.238
			c-0.049-0.07-0.106-0.13-0.17-0.183c-0.065-0.052-0.138-0.096-0.218-0.131c-0.081-0.035-0.17-0.061-0.266-0.079
			c-0.097-0.017-0.202-0.026-0.314-0.026c-0.082,0-0.162,0.005-0.24,0.016c-0.078,0.011-0.155,0.027-0.229,0.048
			s-0.147,0.048-0.218,0.081s-0.14,0.07-0.207,0.113c-0.067,0.043-0.136,0.091-0.207,0.145c-0.071,0.054-0.144,0.113-0.22,0.177
			s-0.153,0.134-0.233,0.209c-0.08,0.075-0.162,0.156-0.246,0.242v1.038v1.038v1.038v1.038h-0.126H24.99h-0.126h-0.126v-1.376
			v-1.376v-1.376V32.396z"/>
	</g>
	<g>
		<path d="M30.378,39.022c0-0.061,0.005-0.122,0.014-0.182c0.009-0.06,0.023-0.12,0.041-0.179s0.041-0.118,0.068-0.176
			c0.027-0.058,0.059-0.116,0.096-0.173c0.036-0.057,0.075-0.113,0.118-0.168c0.043-0.054,0.089-0.108,0.139-0.159
			c0.05-0.052,0.103-0.102,0.159-0.15c0.056-0.049,0.116-0.096,0.179-0.142V37.68v-0.011v-0.011v-0.011
			c-0.034-0.021-0.067-0.044-0.099-0.069c-0.031-0.025-0.061-0.052-0.09-0.08c-0.029-0.029-0.056-0.059-0.082-0.092
			c-0.026-0.032-0.05-0.067-0.074-0.103c-0.023-0.036-0.043-0.075-0.06-0.116c-0.017-0.041-0.032-0.083-0.043-0.128
			c-0.011-0.045-0.02-0.092-0.026-0.141c-0.006-0.049-0.009-0.1-0.009-0.154c0-0.061,0.004-0.12,0.013-0.177
			c0.009-0.057,0.021-0.111,0.039-0.163c0.017-0.052,0.039-0.102,0.064-0.15s0.056-0.093,0.09-0.136
			c0.034-0.043,0.068-0.083,0.102-0.121c0.034-0.037,0.067-0.072,0.099-0.104s0.065-0.061,0.096-0.088s0.063-0.05,0.093-0.071
			v-0.011v-0.011V35.72v-0.011c-0.044-0.038-0.087-0.08-0.129-0.125c-0.042-0.045-0.082-0.093-0.122-0.145
			c-0.04-0.052-0.078-0.107-0.115-0.165c-0.037-0.058-0.074-0.12-0.109-0.185c-0.036-0.065-0.067-0.132-0.093-0.202
			c-0.027-0.07-0.049-0.142-0.066-0.217c-0.018-0.075-0.031-0.152-0.04-0.231s-0.013-0.161-0.013-0.245
			c0-0.071,0.003-0.14,0.009-0.207s0.015-0.134,0.028-0.199s0.028-0.128,0.046-0.19c0.019-0.062,0.04-0.123,0.065-0.182
			c0.025-0.059,0.052-0.117,0.082-0.172c0.03-0.055,0.062-0.108,0.096-0.159c0.034-0.051,0.071-0.1,0.11-0.147
			c0.039-0.047,0.081-0.092,0.125-0.135c0.044-0.043,0.09-0.084,0.138-0.122c0.048-0.038,0.097-0.074,0.149-0.107
			c0.052-0.033,0.105-0.064,0.16-0.093c0.055-0.029,0.113-0.055,0.172-0.079c0.059-0.024,0.119-0.045,0.18-0.063
			c0.061-0.018,0.123-0.033,0.186-0.045c0.063-0.012,0.127-0.021,0.192-0.027c0.065-0.006,0.131-0.009,0.198-0.009
			c0.038,0,0.076,0.001,0.112,0.002c0.036,0.002,0.072,0.004,0.106,0.007s0.068,0.007,0.1,0.012s0.064,0.011,0.094,0.018
			c0.031,0.007,0.06,0.014,0.089,0.021c0.028,0.007,0.055,0.015,0.081,0.023c0.026,0.008,0.05,0.017,0.074,0.026
			c0.023,0.009,0.046,0.018,0.067,0.028h0.467h0.467h0.467h0.467v0.106v0.106v0.106v0.106h-0.321h-0.321h-0.321h-0.321
			c0.044,0.038,0.085,0.079,0.125,0.123c0.04,0.044,0.078,0.09,0.114,0.139c0.036,0.049,0.071,0.101,0.103,0.156
			c0.033,0.055,0.063,0.112,0.092,0.172c0.029,0.06,0.054,0.122,0.075,0.186c0.021,0.063,0.039,0.128,0.053,0.195
			c0.014,0.066,0.025,0.134,0.032,0.204c0.007,0.069,0.011,0.14,0.011,0.213c0,0.071-0.003,0.14-0.009,0.208
			c-0.006,0.068-0.015,0.134-0.028,0.199c-0.012,0.065-0.028,0.128-0.046,0.191c-0.019,0.062-0.04,0.123-0.065,0.182
			c-0.025,0.059-0.052,0.116-0.081,0.172s-0.061,0.108-0.095,0.159c-0.034,0.051-0.07,0.1-0.108,0.147
			c-0.038,0.047-0.079,0.092-0.122,0.135c-0.043,0.043-0.088,0.084-0.135,0.122c-0.047,0.038-0.096,0.074-0.146,0.107
			c-0.051,0.033-0.103,0.064-0.157,0.093c-0.054,0.029-0.111,0.055-0.169,0.079c-0.058,0.024-0.118,0.045-0.178,0.063
			c-0.06,0.018-0.122,0.033-0.184,0.045s-0.126,0.021-0.191,0.027c-0.065,0.006-0.131,0.009-0.198,0.009
			c-0.038,0-0.076-0.001-0.115-0.004c-0.039-0.002-0.078-0.006-0.118-0.011c-0.04-0.005-0.08-0.011-0.12-0.018
			c-0.04-0.007-0.081-0.016-0.122-0.025c-0.041-0.01-0.081-0.02-0.12-0.032c-0.039-0.012-0.077-0.025-0.114-0.039
			c-0.037-0.014-0.072-0.03-0.107-0.047c-0.035-0.017-0.068-0.035-0.1-0.054c-0.031,0.025-0.06,0.05-0.089,0.077
			c-0.028,0.026-0.056,0.053-0.082,0.081s-0.051,0.056-0.075,0.085c-0.024,0.029-0.047,0.059-0.069,0.09
			c-0.022,0.031-0.041,0.063-0.058,0.097s-0.03,0.071-0.042,0.109c-0.011,0.038-0.019,0.078-0.025,0.12
			c-0.006,0.042-0.008,0.086-0.008,0.132c0,0.05,0.005,0.098,0.014,0.144s0.023,0.09,0.041,0.133s0.041,0.083,0.068,0.122
			c0.027,0.039,0.059,0.076,0.096,0.111c0.036,0.035,0.08,0.066,0.133,0.093s0.114,0.049,0.184,0.066s0.148,0.031,0.234,0.04
			c0.087,0.009,0.181,0.013,0.285,0.013h0.295h0.295h0.295h0.295c0.155,0,0.299,0.006,0.434,0.019
			c0.135,0.013,0.259,0.032,0.373,0.057c0.114,0.025,0.218,0.057,0.312,0.095c0.094,0.038,0.178,0.082,0.251,0.133
			c0.074,0.051,0.138,0.108,0.193,0.174c0.055,0.065,0.101,0.138,0.138,0.217c0.037,0.08,0.064,0.167,0.083,0.261
			c0.018,0.094,0.028,0.196,0.028,0.305c0,0.059-0.004,0.118-0.012,0.176c-0.008,0.058-0.019,0.117-0.035,0.174
			c-0.015,0.058-0.035,0.115-0.058,0.173c-0.023,0.057-0.05,0.114-0.08,0.171c-0.03,0.056-0.064,0.111-0.101,0.164
			c-0.037,0.053-0.077,0.104-0.121,0.154c-0.043,0.05-0.09,0.098-0.14,0.144c-0.05,0.046-0.103,0.091-0.16,0.134
			c-0.056,0.043-0.116,0.084-0.178,0.122c-0.062,0.039-0.128,0.075-0.196,0.11c-0.068,0.034-0.14,0.067-0.214,0.097
			c-0.074,0.03-0.152,0.058-0.232,0.084c-0.08,0.026-0.162,0.048-0.247,0.068s-0.172,0.036-0.262,0.048s-0.182,0.023-0.276,0.029
			c-0.095,0.006-0.191,0.01-0.291,0.01c-0.174,0-0.339-0.009-0.495-0.026c-0.156-0.017-0.302-0.043-0.44-0.077
			c-0.138-0.034-0.266-0.077-0.386-0.129c-0.12-0.052-0.23-0.112-0.332-0.181c-0.101-0.069-0.19-0.144-0.266-0.225
			c-0.076-0.081-0.139-0.168-0.19-0.26c-0.051-0.093-0.089-0.191-0.114-0.296S30.378,39.138,30.378,39.022z M30.861,38.976
			c0,0.086,0.01,0.168,0.03,0.246c0.02,0.078,0.049,0.152,0.089,0.221c0.04,0.07,0.089,0.135,0.148,0.197
			c0.059,0.062,0.129,0.119,0.208,0.173c0.079,0.054,0.167,0.1,0.263,0.141c0.096,0.04,0.201,0.074,0.314,0.1
			c0.113,0.027,0.235,0.047,0.365,0.06s0.269,0.02,0.416,0.02c0.076,0,0.151-0.003,0.224-0.008c0.073-0.005,0.145-0.013,0.215-0.023
			c0.07-0.01,0.138-0.023,0.205-0.038c0.067-0.015,0.131-0.033,0.195-0.053c0.063-0.02,0.123-0.042,0.181-0.065
			c0.058-0.023,0.114-0.048,0.167-0.074c0.053-0.026,0.105-0.054,0.153-0.083s0.095-0.06,0.139-0.093
			c0.044-0.033,0.085-0.066,0.124-0.101s0.075-0.07,0.109-0.107c0.034-0.037,0.065-0.075,0.094-0.114
			c0.029-0.039,0.055-0.079,0.079-0.12c0.024-0.041,0.044-0.083,0.062-0.124c0.018-0.042,0.033-0.084,0.045-0.126
			c0.012-0.042,0.021-0.085,0.027-0.129c0.006-0.043,0.009-0.087,0.009-0.131c0-0.077-0.007-0.147-0.02-0.213
			c-0.014-0.065-0.034-0.125-0.061-0.179s-0.061-0.102-0.102-0.145c-0.041-0.043-0.088-0.08-0.143-0.111
			c-0.054-0.032-0.115-0.059-0.181-0.083s-0.139-0.043-0.218-0.059c-0.079-0.016-0.164-0.028-0.255-0.036
			c-0.091-0.008-0.188-0.012-0.291-0.012h-0.295H32.86h-0.295h-0.295c-0.015,0-0.032,0-0.052-0.001
			c-0.019-0.001-0.041-0.002-0.064-0.003c-0.023-0.001-0.049-0.003-0.076-0.005c-0.027-0.002-0.057-0.005-0.088-0.007
			c-0.032-0.003-0.064-0.007-0.097-0.011s-0.066-0.01-0.1-0.016c-0.034-0.006-0.069-0.013-0.104-0.021
			c-0.035-0.008-0.071-0.017-0.107-0.026c-0.063,0.044-0.122,0.088-0.176,0.134c-0.054,0.045-0.105,0.091-0.15,0.138
			s-0.087,0.094-0.124,0.143s-0.07,0.097-0.099,0.147s-0.054,0.1-0.075,0.149c-0.021,0.05-0.039,0.099-0.053,0.149
			s-0.025,0.099-0.032,0.149C30.864,38.877,30.861,38.926,30.861,38.976z M32.556,35.743c0.048,0,0.095-0.002,0.142-0.007
			c0.047-0.005,0.093-0.011,0.138-0.02c0.045-0.009,0.09-0.02,0.134-0.034c0.044-0.014,0.088-0.029,0.131-0.048
			c0.043-0.018,0.084-0.038,0.125-0.061s0.079-0.047,0.117-0.073c0.038-0.026,0.074-0.055,0.109-0.085
			c0.035-0.03,0.069-0.063,0.101-0.097c0.032-0.034,0.063-0.07,0.092-0.108s0.057-0.077,0.083-0.118
			c0.026-0.041,0.05-0.084,0.073-0.128s0.043-0.09,0.063-0.138c0.019-0.048,0.035-0.097,0.049-0.147
			c0.014-0.05,0.026-0.102,0.036-0.154c0.009-0.053,0.017-0.106,0.021-0.161c0.005-0.055,0.007-0.111,0.007-0.169
			c0-0.057-0.002-0.113-0.007-0.168s-0.012-0.109-0.021-0.161s-0.021-0.104-0.036-0.154c-0.014-0.05-0.031-0.099-0.049-0.147
			c-0.019-0.048-0.04-0.094-0.062-0.138c-0.022-0.044-0.046-0.086-0.072-0.126c-0.025-0.04-0.052-0.078-0.081-0.115
			c-0.028-0.036-0.058-0.071-0.089-0.103c-0.032-0.033-0.065-0.063-0.1-0.092c-0.035-0.029-0.071-0.056-0.109-0.081
			s-0.077-0.049-0.118-0.07c-0.041-0.022-0.083-0.042-0.127-0.06s-0.088-0.034-0.133-0.048s-0.09-0.025-0.136-0.034
			s-0.092-0.016-0.139-0.02c-0.047-0.005-0.094-0.007-0.142-0.007c-0.05,0-0.098,0.002-0.146,0.007
			c-0.048,0.005-0.095,0.011-0.141,0.02c-0.046,0.009-0.092,0.02-0.136,0.034s-0.088,0.029-0.131,0.048
			c-0.043,0.018-0.085,0.038-0.125,0.06c-0.04,0.022-0.079,0.045-0.117,0.07s-0.074,0.052-0.109,0.081
			c-0.035,0.029-0.069,0.06-0.101,0.092c-0.033,0.033-0.064,0.067-0.093,0.103c-0.029,0.036-0.057,0.074-0.083,0.114
			c-0.026,0.04-0.05,0.081-0.072,0.124s-0.043,0.088-0.062,0.135s-0.036,0.095-0.05,0.145c-0.014,0.05-0.026,0.101-0.036,0.154
			c-0.01,0.053-0.017,0.108-0.022,0.164c-0.005,0.056-0.007,0.114-0.007,0.173c0,0.057,0.002,0.114,0.007,0.169
			c0.005,0.055,0.012,0.109,0.022,0.161c0.01,0.053,0.022,0.104,0.036,0.154c0.014,0.05,0.031,0.099,0.05,0.147
			s0.04,0.094,0.063,0.138c0.023,0.044,0.047,0.087,0.074,0.128c0.026,0.041,0.054,0.08,0.084,0.118s0.061,0.074,0.094,0.108
			c0.034,0.034,0.068,0.067,0.104,0.097c0.036,0.03,0.073,0.059,0.111,0.085s0.078,0.051,0.118,0.073s0.083,0.043,0.126,0.061
			c0.043,0.018,0.086,0.034,0.13,0.048c0.044,0.014,0.089,0.025,0.134,0.034c0.045,0.009,0.091,0.016,0.138,0.02
			C32.461,35.741,32.508,35.743,32.556,35.743z"/>
	</g>
	<g>
		<path d="M36.684,31.066c-0.032,0-0.063-0.003-0.093-0.008c-0.03-0.005-0.058-0.013-0.085-0.024
			c-0.027-0.011-0.053-0.024-0.078-0.039c-0.025-0.016-0.048-0.034-0.07-0.055c-0.022-0.021-0.041-0.043-0.058-0.067
			s-0.03-0.049-0.042-0.076c-0.011-0.027-0.019-0.055-0.025-0.084c-0.006-0.03-0.008-0.061-0.008-0.093
			c0-0.036,0.003-0.071,0.008-0.103s0.014-0.063,0.025-0.091c0.011-0.028,0.025-0.054,0.042-0.078
			c0.017-0.024,0.036-0.046,0.058-0.066c0.022-0.02,0.045-0.038,0.07-0.053c0.025-0.015,0.05-0.028,0.078-0.038
			c0.027-0.01,0.056-0.018,0.085-0.023c0.03-0.005,0.061-0.008,0.093-0.008c0.032,0,0.063,0.002,0.093,0.008
			c0.03,0.005,0.058,0.013,0.085,0.023c0.027,0.01,0.053,0.023,0.078,0.038c0.025,0.015,0.048,0.033,0.07,0.053
			c0.022,0.02,0.041,0.042,0.058,0.066c0.017,0.024,0.03,0.05,0.042,0.078c0.011,0.028,0.019,0.058,0.025,0.091
			s0.008,0.067,0.008,0.103c0,0.032-0.003,0.063-0.008,0.093c-0.006,0.03-0.014,0.058-0.025,0.084
			c-0.011,0.027-0.025,0.052-0.042,0.076s-0.036,0.046-0.058,0.067c-0.022,0.021-0.045,0.039-0.07,0.055
			c-0.025,0.016-0.05,0.029-0.078,0.039c-0.027,0.011-0.056,0.018-0.085,0.024C36.747,31.063,36.716,31.066,36.684,31.066z
			 M36.42,32.396h0.126h0.126h0.126h0.126v1.376v1.376v1.376v1.376h-0.126h-0.126h-0.126H36.42v-1.376v-1.376v-1.376V32.396z"/>
	</g>
	<g>
		<path d="M39.046,32.396h0.109h0.109h0.109h0.109l0.012,0.212l0.012,0.212l0.012,0.212l0.012,0.212h0.008h0.008h0.008h0.008
			c0.071-0.071,0.142-0.139,0.214-0.203c0.072-0.065,0.144-0.127,0.217-0.185c0.073-0.059,0.146-0.115,0.219-0.167
			c0.074-0.053,0.148-0.103,0.222-0.149c0.074-0.047,0.151-0.088,0.231-0.123c0.08-0.035,0.162-0.064,0.247-0.088
			c0.085-0.023,0.173-0.041,0.263-0.053c0.09-0.012,0.183-0.018,0.279-0.018c0.143,0,0.277,0.011,0.401,0.032
			c0.124,0.021,0.239,0.054,0.344,0.097s0.201,0.097,0.286,0.161s0.162,0.14,0.229,0.226c0.067,0.086,0.126,0.184,0.176,0.293
			s0.092,0.23,0.125,0.363c0.033,0.133,0.058,0.277,0.075,0.434c0.017,0.156,0.025,0.324,0.025,0.504v0.883v0.883v0.883v0.883
			h-0.126h-0.126h-0.126H42.61v-0.865v-0.865v-0.865v-0.865c0-0.147-0.006-0.285-0.018-0.412s-0.03-0.246-0.055-0.355
			c-0.024-0.109-0.055-0.207-0.091-0.296c-0.037-0.089-0.079-0.169-0.128-0.238c-0.049-0.07-0.106-0.13-0.17-0.183
			c-0.065-0.052-0.138-0.096-0.218-0.131c-0.081-0.035-0.17-0.061-0.266-0.079c-0.097-0.017-0.202-0.026-0.314-0.026
			c-0.082,0-0.162,0.005-0.24,0.016c-0.078,0.011-0.155,0.027-0.229,0.048s-0.147,0.048-0.218,0.081s-0.14,0.07-0.207,0.113
			c-0.067,0.043-0.136,0.091-0.207,0.145c-0.071,0.054-0.144,0.113-0.22,0.177s-0.153,0.134-0.233,0.209
			c-0.08,0.075-0.162,0.156-0.246,0.242v1.038v1.038v1.038v1.038h-0.126h-0.126h-0.126h-0.126v-1.376v-1.376v-1.376V32.396z"/>
	</g>
	<g>
		<path d="M44.685,39.022c0-0.061,0.005-0.122,0.014-0.182s0.023-0.12,0.041-0.179s0.041-0.118,0.068-0.176
			c0.027-0.058,0.059-0.116,0.096-0.173c0.036-0.057,0.075-0.113,0.118-0.168c0.043-0.054,0.089-0.108,0.139-0.159
			c0.05-0.052,0.103-0.102,0.159-0.15c0.056-0.049,0.116-0.096,0.179-0.142V37.68v-0.011v-0.011v-0.011
			c-0.034-0.021-0.067-0.044-0.099-0.069c-0.031-0.025-0.061-0.052-0.09-0.08c-0.029-0.029-0.056-0.059-0.082-0.092
			c-0.026-0.032-0.05-0.067-0.074-0.103c-0.023-0.036-0.043-0.075-0.06-0.116c-0.017-0.041-0.032-0.083-0.043-0.128
			c-0.011-0.045-0.02-0.092-0.026-0.141c-0.006-0.049-0.009-0.1-0.009-0.154c0-0.061,0.004-0.12,0.013-0.177
			c0.009-0.057,0.021-0.111,0.039-0.163c0.017-0.052,0.039-0.102,0.064-0.15c0.026-0.048,0.056-0.093,0.09-0.136
			c0.034-0.043,0.068-0.083,0.102-0.121s0.067-0.072,0.099-0.104s0.065-0.061,0.096-0.088s0.063-0.05,0.093-0.071v-0.011v-0.011
			V35.72v-0.011c-0.044-0.038-0.087-0.08-0.129-0.125c-0.042-0.045-0.082-0.093-0.122-0.145c-0.04-0.052-0.078-0.107-0.115-0.165
			c-0.037-0.058-0.074-0.12-0.109-0.185c-0.036-0.065-0.067-0.132-0.093-0.202c-0.027-0.07-0.049-0.142-0.066-0.217
			c-0.018-0.075-0.031-0.152-0.04-0.231c-0.009-0.079-0.013-0.161-0.013-0.245c0-0.071,0.003-0.14,0.009-0.207
			c0.006-0.068,0.015-0.134,0.028-0.199s0.028-0.128,0.046-0.19c0.019-0.062,0.04-0.123,0.065-0.182
			c0.025-0.059,0.052-0.117,0.082-0.172c0.03-0.055,0.062-0.108,0.096-0.159s0.071-0.1,0.11-0.147
			c0.039-0.047,0.081-0.092,0.125-0.135s0.09-0.084,0.138-0.122c0.048-0.038,0.097-0.074,0.149-0.107
			c0.052-0.033,0.105-0.064,0.16-0.093c0.055-0.029,0.113-0.055,0.172-0.079c0.059-0.024,0.119-0.045,0.18-0.063
			c0.061-0.018,0.123-0.033,0.186-0.045c0.063-0.012,0.127-0.021,0.192-0.027c0.065-0.006,0.131-0.009,0.198-0.009
			c0.038,0,0.076,0.001,0.112,0.002c0.036,0.002,0.072,0.004,0.106,0.007c0.034,0.003,0.068,0.007,0.1,0.012
			c0.032,0.005,0.064,0.011,0.094,0.018c0.031,0.007,0.06,0.014,0.089,0.021c0.028,0.007,0.055,0.015,0.081,0.023
			c0.026,0.008,0.05,0.017,0.074,0.026c0.023,0.009,0.046,0.018,0.067,0.028h0.467h0.467h0.467h0.467v0.106v0.106v0.106v0.106
			h-0.321h-0.321h-0.321h-0.321c0.044,0.038,0.085,0.079,0.125,0.123c0.04,0.044,0.078,0.09,0.114,0.139
			c0.036,0.049,0.071,0.101,0.103,0.156c0.033,0.055,0.063,0.112,0.092,0.172c0.029,0.06,0.054,0.122,0.075,0.186
			c0.021,0.063,0.039,0.128,0.053,0.195c0.014,0.066,0.025,0.134,0.032,0.204c0.007,0.069,0.011,0.14,0.011,0.213
			c0,0.071-0.003,0.14-0.009,0.208c-0.006,0.068-0.015,0.134-0.028,0.199s-0.028,0.128-0.046,0.191
			c-0.019,0.062-0.04,0.123-0.065,0.182s-0.052,0.116-0.081,0.172s-0.061,0.108-0.095,0.159c-0.034,0.051-0.07,0.1-0.108,0.147
			c-0.038,0.047-0.079,0.092-0.122,0.135c-0.043,0.043-0.088,0.084-0.135,0.122c-0.047,0.038-0.096,0.074-0.146,0.107
			c-0.051,0.033-0.103,0.064-0.157,0.093c-0.054,0.029-0.111,0.055-0.169,0.079c-0.058,0.024-0.118,0.045-0.178,0.063
			c-0.06,0.018-0.122,0.033-0.184,0.045s-0.126,0.021-0.191,0.027c-0.065,0.006-0.131,0.009-0.198,0.009
			c-0.038,0-0.076-0.001-0.115-0.004c-0.039-0.002-0.078-0.006-0.118-0.011c-0.04-0.005-0.08-0.011-0.12-0.018
			c-0.04-0.007-0.081-0.016-0.122-0.025c-0.041-0.01-0.081-0.02-0.12-0.032c-0.039-0.012-0.077-0.025-0.114-0.039
			c-0.037-0.014-0.072-0.03-0.107-0.047c-0.035-0.017-0.068-0.035-0.1-0.054c-0.031,0.025-0.06,0.05-0.089,0.077
			c-0.028,0.026-0.056,0.053-0.082,0.081s-0.051,0.056-0.075,0.085c-0.024,0.029-0.047,0.059-0.069,0.09s-0.041,0.063-0.058,0.097
			s-0.03,0.071-0.042,0.109c-0.011,0.038-0.019,0.078-0.025,0.12c-0.006,0.042-0.008,0.086-0.008,0.132
			c0,0.05,0.005,0.098,0.014,0.144s0.023,0.09,0.041,0.133s0.041,0.083,0.068,0.122c0.027,0.039,0.059,0.076,0.096,0.111
			c0.036,0.035,0.08,0.066,0.133,0.093c0.053,0.027,0.114,0.049,0.184,0.066c0.07,0.018,0.148,0.031,0.234,0.04
			c0.087,0.009,0.181,0.013,0.285,0.013h0.295h0.295h0.295h0.295c0.155,0,0.299,0.006,0.434,0.019
			c0.135,0.013,0.259,0.032,0.373,0.057c0.114,0.025,0.218,0.057,0.312,0.095c0.094,0.038,0.178,0.082,0.251,0.133
			c0.074,0.051,0.138,0.108,0.193,0.174c0.055,0.065,0.101,0.138,0.138,0.217c0.037,0.08,0.064,0.167,0.083,0.261
			c0.018,0.094,0.028,0.196,0.028,0.305c0,0.059-0.004,0.118-0.012,0.176c-0.008,0.058-0.019,0.117-0.035,0.174
			c-0.015,0.058-0.035,0.115-0.058,0.173c-0.023,0.057-0.05,0.114-0.08,0.171c-0.03,0.056-0.064,0.111-0.101,0.164
			c-0.037,0.053-0.077,0.104-0.121,0.154s-0.09,0.098-0.14,0.144c-0.05,0.046-0.103,0.091-0.16,0.134
			c-0.056,0.043-0.116,0.084-0.178,0.122c-0.062,0.039-0.128,0.075-0.196,0.11c-0.068,0.034-0.14,0.067-0.214,0.097
			s-0.152,0.058-0.232,0.084c-0.08,0.026-0.162,0.048-0.247,0.068c-0.085,0.019-0.172,0.036-0.262,0.048s-0.182,0.023-0.276,0.029
			c-0.095,0.006-0.191,0.01-0.291,0.01c-0.174,0-0.339-0.009-0.495-0.026c-0.156-0.017-0.302-0.043-0.44-0.077
			c-0.138-0.034-0.266-0.077-0.386-0.129c-0.12-0.052-0.23-0.112-0.332-0.181c-0.101-0.069-0.19-0.144-0.266-0.225
			c-0.076-0.081-0.139-0.168-0.19-0.26c-0.051-0.093-0.089-0.191-0.114-0.296S44.685,39.138,44.685,39.022z M45.168,38.976
			c0,0.086,0.01,0.168,0.03,0.246c0.02,0.078,0.049,0.152,0.089,0.221s0.089,0.135,0.148,0.197c0.059,0.062,0.129,0.119,0.208,0.173
			c0.079,0.054,0.167,0.1,0.263,0.141c0.096,0.04,0.201,0.074,0.314,0.1c0.113,0.027,0.235,0.047,0.365,0.06s0.269,0.02,0.416,0.02
			c0.076,0,0.151-0.003,0.224-0.008s0.145-0.013,0.215-0.023c0.07-0.01,0.138-0.023,0.205-0.038
			c0.067-0.015,0.131-0.033,0.195-0.053c0.063-0.02,0.123-0.042,0.181-0.065c0.058-0.023,0.114-0.048,0.167-0.074
			c0.053-0.026,0.105-0.054,0.153-0.083c0.049-0.029,0.095-0.06,0.139-0.093c0.044-0.033,0.085-0.066,0.124-0.101
			s0.075-0.07,0.109-0.107c0.034-0.037,0.065-0.075,0.094-0.114c0.029-0.039,0.055-0.079,0.079-0.12
			c0.024-0.041,0.044-0.083,0.062-0.124c0.018-0.042,0.033-0.084,0.045-0.126c0.012-0.042,0.021-0.085,0.027-0.129
			c0.006-0.043,0.009-0.087,0.009-0.131c0-0.077-0.007-0.147-0.02-0.213c-0.014-0.065-0.034-0.125-0.061-0.179
			s-0.061-0.102-0.102-0.145c-0.041-0.043-0.088-0.08-0.143-0.111c-0.054-0.032-0.115-0.059-0.181-0.083s-0.139-0.043-0.218-0.059
			c-0.079-0.016-0.164-0.028-0.255-0.036c-0.091-0.008-0.188-0.012-0.291-0.012h-0.295h-0.295h-0.295h-0.295
			c-0.015,0-0.032,0-0.052-0.001c-0.019-0.001-0.041-0.002-0.064-0.003c-0.023-0.001-0.049-0.003-0.076-0.005
			c-0.027-0.002-0.057-0.005-0.088-0.007c-0.032-0.003-0.064-0.007-0.097-0.011c-0.033-0.005-0.066-0.01-0.1-0.016
			c-0.034-0.006-0.069-0.013-0.104-0.021c-0.035-0.008-0.071-0.017-0.107-0.026c-0.063,0.044-0.122,0.088-0.176,0.134
			c-0.054,0.045-0.104,0.091-0.15,0.138s-0.087,0.094-0.124,0.143c-0.037,0.048-0.07,0.097-0.099,0.147
			c-0.029,0.05-0.054,0.1-0.075,0.149c-0.021,0.05-0.039,0.099-0.053,0.149s-0.025,0.099-0.032,0.149
			C45.171,38.877,45.168,38.926,45.168,38.976z M46.863,35.743c0.048,0,0.095-0.002,0.142-0.007c0.047-0.005,0.093-0.011,0.138-0.02
			c0.045-0.009,0.09-0.02,0.134-0.034s0.088-0.029,0.131-0.048c0.043-0.018,0.084-0.038,0.125-0.061s0.079-0.047,0.117-0.073
			c0.038-0.026,0.074-0.055,0.109-0.085c0.035-0.03,0.069-0.063,0.101-0.097c0.032-0.034,0.063-0.07,0.092-0.108
			c0.029-0.038,0.057-0.077,0.083-0.118c0.026-0.041,0.05-0.084,0.073-0.128c0.023-0.044,0.043-0.09,0.063-0.138
			c0.019-0.048,0.035-0.097,0.049-0.147c0.014-0.05,0.026-0.102,0.036-0.154c0.009-0.053,0.017-0.106,0.021-0.161
			c0.005-0.055,0.007-0.111,0.007-0.169c0-0.057-0.002-0.113-0.007-0.168c-0.005-0.055-0.012-0.109-0.021-0.161
			c-0.009-0.053-0.021-0.104-0.036-0.154c-0.014-0.05-0.031-0.099-0.049-0.147c-0.019-0.048-0.04-0.094-0.062-0.138
			c-0.022-0.044-0.046-0.086-0.072-0.126c-0.025-0.04-0.052-0.078-0.081-0.115c-0.028-0.036-0.058-0.071-0.089-0.103
			c-0.032-0.033-0.065-0.063-0.1-0.092c-0.035-0.029-0.071-0.056-0.109-0.081s-0.077-0.049-0.118-0.07
			c-0.041-0.022-0.083-0.042-0.127-0.06c-0.044-0.018-0.088-0.034-0.133-0.048c-0.045-0.014-0.09-0.025-0.136-0.034
			s-0.092-0.016-0.139-0.02c-0.047-0.005-0.094-0.007-0.142-0.007c-0.05,0-0.098,0.002-0.146,0.007
			c-0.048,0.005-0.095,0.011-0.141,0.02s-0.092,0.02-0.136,0.034s-0.088,0.029-0.131,0.048c-0.043,0.018-0.085,0.038-0.125,0.06
			c-0.04,0.022-0.079,0.045-0.117,0.07c-0.038,0.025-0.074,0.052-0.109,0.081c-0.035,0.029-0.069,0.06-0.101,0.092
			c-0.033,0.033-0.064,0.067-0.093,0.103c-0.029,0.036-0.057,0.074-0.083,0.114c-0.026,0.04-0.05,0.081-0.072,0.124
			c-0.022,0.043-0.043,0.088-0.062,0.135s-0.036,0.095-0.05,0.145c-0.014,0.05-0.026,0.101-0.036,0.154
			c-0.01,0.053-0.017,0.108-0.022,0.164s-0.007,0.114-0.007,0.173c0,0.057,0.002,0.114,0.007,0.169
			c0.005,0.055,0.012,0.109,0.022,0.161c0.01,0.053,0.022,0.104,0.036,0.154c0.014,0.05,0.031,0.099,0.05,0.147
			s0.04,0.094,0.063,0.138s0.047,0.087,0.074,0.128c0.026,0.041,0.054,0.08,0.084,0.118s0.061,0.074,0.094,0.108
			c0.034,0.034,0.068,0.067,0.104,0.097c0.036,0.03,0.073,0.059,0.111,0.085c0.038,0.026,0.078,0.051,0.118,0.073
			c0.041,0.022,0.083,0.043,0.126,0.061c0.043,0.018,0.086,0.034,0.13,0.048c0.044,0.014,0.089,0.025,0.134,0.034
			c0.045,0.009,0.091,0.016,0.138,0.02C46.768,35.741,46.815,35.743,46.863,35.743z"/>
	</g>
	<g>
		<path d="M53.067,30.344h0.138h0.138h0.138h0.138l0.796,1.333l0.796,1.333l0.796,1.333l0.796,1.333l0.212,0.375l0.212,0.375
			l0.212,0.375l0.212,0.375h0.011h0.011h0.011h0.011c-0.004-0.092-0.007-0.184-0.011-0.275c-0.004-0.092-0.008-0.183-0.011-0.275
			c-0.004-0.092-0.008-0.183-0.011-0.275c-0.004-0.092-0.007-0.183-0.011-0.275c-0.004-0.092-0.007-0.184-0.01-0.275
			s-0.006-0.184-0.007-0.275s-0.003-0.184-0.004-0.275s-0.001-0.184-0.001-0.275v-1.158v-1.158v-1.158v-1.158h0.126h0.126h0.126
			h0.126v1.889v1.889v1.889v1.889h-0.138h-0.138h-0.138h-0.138l-0.797-1.333l-0.797-1.333L55.192,33.9l-0.797-1.333l-0.212-0.375
			l-0.212-0.375l-0.212-0.375l-0.212-0.375h-0.012h-0.012h-0.012h-0.012c0.004,0.092,0.007,0.183,0.011,0.273s0.008,0.18,0.012,0.27
			c0.004,0.089,0.008,0.178,0.012,0.266c0.004,0.088,0.008,0.176,0.012,0.263c0.004,0.087,0.007,0.175,0.01,0.263
			s0.005,0.177,0.007,0.266c0.002,0.089,0.003,0.179,0.004,0.27c0.001,0.091,0.001,0.182,0.001,0.273v1.172v1.172v1.172v1.172
			h-0.126h-0.126h-0.126h-0.126V36.01v-1.889v-1.889V30.344z"/>
	</g>
	<g>
		<path d="M59.99,36.523c0-0.151,0.018-0.293,0.054-0.426c0.036-0.133,0.089-0.258,0.161-0.373c0.072-0.116,0.161-0.222,0.268-0.32
			c0.107-0.098,0.233-0.187,0.376-0.267c0.144-0.08,0.307-0.155,0.491-0.223s0.388-0.132,0.613-0.189
			c0.224-0.057,0.469-0.109,0.734-0.155s0.551-0.086,0.856-0.12c0.002-0.052,0.002-0.103,0.001-0.155
			c-0.001-0.052-0.003-0.104-0.006-0.156c-0.003-0.052-0.008-0.104-0.014-0.156c-0.006-0.052-0.013-0.105-0.021-0.157
			c-0.009-0.053-0.019-0.104-0.032-0.153c-0.012-0.05-0.027-0.098-0.043-0.145c-0.016-0.047-0.034-0.092-0.054-0.136
			c-0.02-0.044-0.042-0.087-0.066-0.128c-0.024-0.041-0.05-0.08-0.079-0.117c-0.029-0.037-0.06-0.073-0.093-0.106
			c-0.033-0.033-0.069-0.065-0.107-0.095c-0.038-0.03-0.079-0.057-0.121-0.083c-0.043-0.026-0.089-0.048-0.138-0.068
			c-0.049-0.019-0.101-0.035-0.156-0.048s-0.113-0.022-0.174-0.029c-0.061-0.006-0.125-0.01-0.191-0.01
			c-0.094,0-0.185,0.005-0.274,0.014c-0.089,0.009-0.177,0.023-0.262,0.041c-0.085,0.018-0.168,0.041-0.249,0.068
			c-0.081,0.027-0.159,0.059-0.236,0.095c-0.076,0.036-0.149,0.073-0.218,0.108c-0.069,0.036-0.134,0.072-0.195,0.107
			s-0.119,0.071-0.172,0.105c-0.054,0.035-0.103,0.07-0.149,0.104l-0.057-0.095l-0.057-0.095l-0.057-0.095l-0.057-0.095
			c0.025-0.017,0.051-0.035,0.078-0.053c0.027-0.018,0.056-0.037,0.086-0.056s0.061-0.039,0.094-0.059
			c0.033-0.02,0.066-0.041,0.102-0.062c0.036-0.021,0.072-0.042,0.109-0.062s0.076-0.04,0.115-0.059
			c0.039-0.019,0.079-0.038,0.12-0.056c0.041-0.018,0.083-0.036,0.126-0.053c0.043-0.017,0.087-0.034,0.133-0.05
			c0.045-0.016,0.091-0.031,0.139-0.046s0.096-0.029,0.145-0.043c0.049-0.014,0.1-0.027,0.151-0.039
			c0.052-0.012,0.104-0.023,0.156-0.033c0.053-0.009,0.106-0.017,0.159-0.023c0.054-0.006,0.108-0.011,0.162-0.014
			c0.055-0.003,0.11-0.005,0.165-0.005c0.082,0,0.161,0.003,0.236,0.01c0.075,0.007,0.147,0.017,0.216,0.031
			c0.069,0.014,0.134,0.031,0.196,0.052c0.062,0.021,0.121,0.045,0.177,0.073c0.055,0.028,0.108,0.058,0.158,0.09
			s0.098,0.068,0.143,0.106c0.045,0.038,0.087,0.078,0.127,0.121c0.04,0.043,0.077,0.088,0.111,0.136
			c0.034,0.048,0.066,0.098,0.096,0.149s0.056,0.106,0.08,0.161s0.046,0.114,0.065,0.174c0.019,0.06,0.036,0.122,0.05,0.186
			c0.014,0.064,0.027,0.13,0.038,0.196c0.011,0.067,0.02,0.135,0.027,0.204c0.007,0.069,0.013,0.14,0.016,0.212
			c0.004,0.072,0.005,0.145,0.005,0.22v0.88v0.88v0.88v0.88h-0.106h-0.106h-0.106h-0.106l-0.014-0.178l-0.014-0.178l-0.014-0.178
			l-0.014-0.178H63.56h-0.006h-0.006h-0.006c-0.071,0.055-0.143,0.109-0.216,0.161s-0.148,0.103-0.224,0.152
			c-0.076,0.049-0.153,0.097-0.232,0.143c-0.079,0.046-0.158,0.091-0.24,0.134c-0.081,0.043-0.164,0.081-0.247,0.113
			s-0.169,0.059-0.255,0.081c-0.086,0.021-0.174,0.038-0.263,0.048c-0.089,0.011-0.18,0.016-0.272,0.016
			c-0.055,0-0.109-0.002-0.163-0.006s-0.106-0.01-0.157-0.017c-0.052-0.008-0.102-0.017-0.152-0.029
			c-0.05-0.012-0.099-0.025-0.147-0.04c-0.048-0.015-0.094-0.032-0.139-0.051c-0.045-0.019-0.089-0.04-0.132-0.063
			c-0.043-0.023-0.084-0.048-0.124-0.075s-0.079-0.055-0.116-0.086c-0.037-0.03-0.072-0.063-0.106-0.098
			c-0.033-0.035-0.064-0.072-0.093-0.111c-0.029-0.039-0.056-0.08-0.081-0.124c-0.025-0.043-0.048-0.089-0.069-0.137
			c-0.021-0.048-0.04-0.098-0.056-0.15c-0.016-0.052-0.029-0.106-0.039-0.163c-0.01-0.056-0.018-0.115-0.024-0.176
			S59.99,36.588,59.99,36.523z M60.516,36.5c0,0.099,0.007,0.192,0.022,0.277s0.036,0.163,0.065,0.234
			c0.029,0.071,0.065,0.134,0.107,0.191s0.093,0.106,0.15,0.148c0.058,0.042,0.118,0.079,0.18,0.11
			c0.063,0.031,0.128,0.058,0.196,0.079c0.068,0.021,0.138,0.037,0.211,0.047s0.149,0.016,0.227,0.016
			c0.08,0,0.16-0.005,0.238-0.014c0.078-0.01,0.156-0.024,0.232-0.043s0.152-0.043,0.227-0.071c0.075-0.029,0.148-0.062,0.221-0.1
			c0.072-0.038,0.147-0.081,0.222-0.128c0.076-0.047,0.154-0.098,0.233-0.153c0.079-0.055,0.16-0.115,0.243-0.179
			s0.167-0.132,0.253-0.205v-0.467v-0.467v-0.467v-0.467c-0.142,0.017-0.277,0.035-0.408,0.055c-0.13,0.019-0.255,0.039-0.374,0.06
			c-0.119,0.021-0.232,0.043-0.34,0.066s-0.21,0.047-0.307,0.072c-0.096,0.025-0.188,0.051-0.275,0.078s-0.17,0.056-0.248,0.085
			s-0.151,0.06-0.22,0.092c-0.069,0.032-0.132,0.065-0.192,0.1c-0.059,0.034-0.114,0.07-0.165,0.107
			c-0.051,0.037-0.097,0.075-0.14,0.114c-0.042,0.039-0.081,0.08-0.115,0.121s-0.064,0.084-0.09,0.128
			c-0.026,0.044-0.048,0.089-0.067,0.136c-0.019,0.046-0.036,0.094-0.049,0.143c-0.013,0.049-0.023,0.099-0.029,0.15
			C60.519,36.394,60.516,36.446,60.516,36.5z"/>
	</g>
	<g>
		<path d="M66.146,32.831h-0.215h-0.215H65.5h-0.215v-0.097v-0.097v-0.097v-0.097l0.218-0.011l0.218-0.011l0.218-0.011l0.218-0.011
			l0.017-0.398l0.017-0.398l0.017-0.398l0.017-0.398h0.109h0.109h0.109h0.109v0.398v0.398v0.398v0.398h0.398h0.398h0.398h0.398
			v0.109v0.109v0.109v0.109h-0.398h-0.398H67.06h-0.398v0.897v0.897v0.897v0.897c0,0.044,0.001,0.087,0.002,0.129
			s0.004,0.083,0.007,0.122c0.003,0.04,0.007,0.078,0.012,0.116c0.005,0.037,0.011,0.074,0.018,0.109
			c0.006,0.035,0.014,0.07,0.023,0.102s0.02,0.065,0.032,0.095c0.012,0.03,0.025,0.06,0.04,0.088
			c0.015,0.028,0.03,0.055,0.048,0.081c0.017,0.026,0.036,0.05,0.056,0.073c0.02,0.023,0.042,0.045,0.066,0.065
			s0.049,0.039,0.075,0.056s0.055,0.033,0.084,0.047c0.03,0.014,0.061,0.027,0.096,0.038c0.034,0.011,0.071,0.02,0.109,0.027
			c0.039,0.007,0.08,0.013,0.123,0.016c0.043,0.004,0.089,0.005,0.136,0.005c0.027,0,0.054-0.001,0.082-0.003
			s0.057-0.005,0.086-0.01c0.029-0.004,0.059-0.01,0.089-0.016c0.03-0.006,0.061-0.014,0.093-0.023
			c0.032-0.009,0.062-0.018,0.092-0.027c0.03-0.009,0.059-0.019,0.087-0.029c0.028-0.01,0.055-0.02,0.082-0.031
			c0.026-0.011,0.052-0.022,0.077-0.033l0.034,0.103l0.034,0.103l0.034,0.103l0.034,0.103c-0.04,0.015-0.08,0.03-0.12,0.044
			s-0.08,0.027-0.12,0.039s-0.08,0.024-0.12,0.035s-0.08,0.021-0.121,0.031c-0.04,0.01-0.079,0.018-0.116,0.025
			c-0.037,0.007-0.073,0.013-0.107,0.018c-0.034,0.005-0.067,0.008-0.099,0.011c-0.032,0.002-0.062,0.004-0.091,0.004
			c-0.067,0-0.131-0.002-0.192-0.007c-0.061-0.005-0.119-0.012-0.175-0.022s-0.108-0.022-0.158-0.037
			c-0.05-0.015-0.097-0.032-0.141-0.052c-0.044-0.02-0.086-0.042-0.125-0.067c-0.04-0.024-0.077-0.05-0.112-0.079
			s-0.068-0.058-0.099-0.091c-0.031-0.032-0.06-0.066-0.087-0.103c-0.027-0.036-0.051-0.075-0.074-0.115
			c-0.023-0.04-0.043-0.082-0.062-0.126c-0.019-0.044-0.035-0.09-0.05-0.138c-0.015-0.048-0.027-0.097-0.038-0.149
			c-0.01-0.052-0.019-0.104-0.027-0.158c-0.008-0.054-0.014-0.109-0.019-0.166s-0.009-0.114-0.012-0.173s-0.004-0.119-0.004-0.18
			v-0.886v-0.886v-0.886V32.831z"/>
	</g>
	<g>
		<path d="M69.413,32.396h0.126h0.126h0.126h0.126v0.865v0.865v0.865v0.865c0,0.147,0.006,0.285,0.018,0.412
			c0.012,0.128,0.03,0.246,0.055,0.354s0.055,0.207,0.091,0.296c0.037,0.089,0.079,0.168,0.128,0.238
			c0.049,0.07,0.105,0.131,0.17,0.183s0.136,0.096,0.216,0.131s0.167,0.061,0.263,0.079c0.095,0.017,0.198,0.026,0.309,0.026
			c0.082,0,0.162-0.006,0.24-0.017c0.078-0.011,0.155-0.028,0.229-0.051c0.075-0.022,0.147-0.051,0.218-0.084
			s0.139-0.073,0.206-0.118c0.067-0.045,0.135-0.097,0.205-0.155s0.142-0.123,0.216-0.194c0.074-0.071,0.149-0.149,0.226-0.233
			s0.156-0.175,0.236-0.272v-1.015v-1.015V33.41v-1.015h0.126h0.126h0.126h0.126v1.376v1.376v1.376v1.376h-0.106h-0.106H73.13
			h-0.106l-0.014-0.229l-0.014-0.229l-0.014-0.229l-0.014-0.229h-0.006h-0.006H72.95h-0.006c-0.067,0.08-0.135,0.157-0.204,0.229
			c-0.069,0.072-0.139,0.14-0.209,0.204s-0.142,0.124-0.215,0.18c-0.073,0.056-0.146,0.108-0.221,0.155
			c-0.074,0.048-0.151,0.089-0.231,0.125c-0.08,0.036-0.162,0.066-0.247,0.089c-0.085,0.024-0.173,0.042-0.263,0.054
			c-0.09,0.012-0.183,0.018-0.279,0.018c-0.143,0-0.277-0.011-0.401-0.032c-0.124-0.021-0.239-0.054-0.344-0.097
			c-0.105-0.043-0.201-0.097-0.286-0.161c-0.086-0.064-0.162-0.14-0.229-0.226c-0.067-0.086-0.125-0.184-0.175-0.293
			c-0.05-0.109-0.092-0.23-0.125-0.363c-0.033-0.133-0.059-0.277-0.075-0.434c-0.017-0.156-0.025-0.324-0.025-0.504v-0.883v-0.883
			v-0.883V32.396z"/>
	</g>
	<g>
		<path d="M75.557,32.396h0.109h0.109h0.109h0.109l0.011,0.255l0.011,0.255l0.011,0.255l0.011,0.255h0.009h0.009h0.009h0.009
			c0.046-0.086,0.094-0.168,0.145-0.246c0.051-0.078,0.104-0.152,0.16-0.221c0.056-0.07,0.114-0.135,0.175-0.197
			c0.061-0.062,0.124-0.119,0.19-0.173c0.066-0.053,0.134-0.1,0.204-0.14c0.07-0.04,0.142-0.073,0.216-0.1s0.15-0.047,0.228-0.06
			s0.158-0.02,0.241-0.02c0.026,0,0.052,0,0.077,0.001c0.025,0.001,0.05,0.002,0.074,0.004c0.024,0.002,0.047,0.004,0.07,0.007
			c0.023,0.003,0.044,0.006,0.066,0.01c0.021,0.004,0.042,0.009,0.063,0.015s0.043,0.013,0.065,0.02
			c0.022,0.008,0.044,0.016,0.067,0.026c0.023,0.01,0.045,0.02,0.069,0.031l-0.029,0.115l-0.029,0.115l-0.029,0.115l-0.029,0.115
			c-0.023-0.009-0.045-0.018-0.067-0.026c-0.022-0.008-0.042-0.015-0.063-0.021c-0.02-0.006-0.04-0.012-0.058-0.016
			c-0.019-0.005-0.037-0.008-0.054-0.011c-0.017-0.003-0.036-0.005-0.055-0.007s-0.04-0.004-0.062-0.005
			c-0.022-0.001-0.045-0.002-0.069-0.003c-0.024-0.001-0.049-0.001-0.076-0.001c-0.061,0-0.123,0.007-0.186,0.02
			c-0.063,0.013-0.127,0.033-0.191,0.059c-0.065,0.026-0.13,0.059-0.196,0.098c-0.066,0.039-0.133,0.085-0.201,0.138
			c-0.068,0.053-0.134,0.115-0.198,0.187s-0.127,0.153-0.188,0.245c-0.061,0.091-0.119,0.192-0.176,0.303
			c-0.057,0.111-0.112,0.231-0.165,0.361v0.937v0.937v0.937v0.937h-0.126H75.81h-0.126h-0.126v-1.376v-1.376v-1.376V32.396z"/>
	</g>
	<g>
		<path d="M78.618,35.159c0-0.113,0.004-0.223,0.013-0.33c0.008-0.107,0.021-0.211,0.038-0.313c0.017-0.101,0.038-0.2,0.062-0.295
			c0.025-0.096,0.054-0.188,0.087-0.278c0.034-0.09,0.07-0.176,0.109-0.259c0.039-0.083,0.081-0.162,0.126-0.238
			c0.045-0.076,0.093-0.148,0.143-0.218c0.051-0.069,0.104-0.135,0.16-0.197c0.056-0.062,0.115-0.12,0.175-0.175
			c0.06-0.055,0.122-0.106,0.186-0.154s0.13-0.092,0.198-0.132s0.138-0.078,0.21-0.111c0.072-0.034,0.144-0.063,0.217-0.088
			c0.073-0.025,0.146-0.046,0.22-0.063s0.149-0.029,0.224-0.038c0.075-0.008,0.151-0.012,0.227-0.012
			c0.164,0,0.32,0.014,0.467,0.042c0.147,0.028,0.285,0.069,0.414,0.125c0.129,0.055,0.249,0.125,0.361,0.208
			c0.111,0.083,0.214,0.18,0.307,0.291c0.094,0.111,0.175,0.233,0.246,0.367s0.129,0.279,0.175,0.436
			c0.047,0.157,0.082,0.325,0.105,0.504c0.023,0.18,0.035,0.371,0.035,0.573c0,0.017,0,0.034,0,0.052s0,0.034,0,0.052
			c0,0.017,0,0.034,0,0.052s0,0.034,0,0.052s-0.001,0.034-0.001,0.052c-0.001,0.017-0.002,0.034-0.004,0.052
			s-0.004,0.034-0.007,0.052c-0.003,0.017-0.006,0.034-0.01,0.052H82.11h-0.992h-0.992h-0.992c0.002,0.086,0.006,0.17,0.014,0.253
			c0.008,0.083,0.018,0.164,0.031,0.244c0.013,0.08,0.03,0.158,0.049,0.235s0.041,0.152,0.066,0.225
			c0.025,0.074,0.052,0.145,0.082,0.213c0.03,0.068,0.062,0.134,0.097,0.197c0.035,0.063,0.072,0.124,0.112,0.181
			s0.083,0.113,0.128,0.166c0.045,0.053,0.092,0.102,0.141,0.149s0.101,0.091,0.155,0.132s0.11,0.079,0.169,0.114
			c0.059,0.035,0.119,0.068,0.183,0.097c0.063,0.03,0.128,0.055,0.194,0.078c0.067,0.022,0.135,0.041,0.206,0.055
			c0.071,0.015,0.143,0.026,0.218,0.033c0.075,0.007,0.151,0.011,0.229,0.011c0.074,0,0.147-0.003,0.218-0.008
			c0.071-0.005,0.14-0.014,0.207-0.025c0.067-0.011,0.133-0.025,0.197-0.041c0.064-0.016,0.126-0.036,0.186-0.058
			c0.06-0.022,0.12-0.046,0.178-0.072c0.058-0.026,0.115-0.054,0.171-0.084s0.111-0.062,0.165-0.096
			c0.054-0.034,0.106-0.07,0.158-0.109l0.052,0.097l0.052,0.097l0.052,0.097l0.052,0.097c-0.056,0.033-0.112,0.065-0.171,0.096
			s-0.118,0.063-0.178,0.093c-0.061,0.031-0.123,0.061-0.186,0.09s-0.128,0.059-0.194,0.087c-0.066,0.029-0.136,0.054-0.21,0.075
			c-0.075,0.021-0.154,0.039-0.237,0.054c-0.084,0.014-0.172,0.025-0.264,0.032s-0.19,0.011-0.291,0.011
			c-0.088,0-0.175-0.004-0.26-0.012s-0.169-0.02-0.252-0.037c-0.083-0.016-0.164-0.037-0.244-0.061
			c-0.08-0.024-0.159-0.053-0.236-0.085c-0.077-0.032-0.152-0.069-0.224-0.108c-0.072-0.04-0.142-0.083-0.21-0.131
			c-0.067-0.047-0.132-0.098-0.195-0.153c-0.062-0.055-0.122-0.113-0.179-0.175c-0.057-0.062-0.111-0.128-0.163-0.196
			c-0.051-0.069-0.1-0.141-0.145-0.216s-0.088-0.154-0.128-0.236c-0.04-0.082-0.076-0.168-0.11-0.257
			c-0.033-0.089-0.062-0.181-0.087-0.275s-0.046-0.193-0.062-0.293c-0.017-0.101-0.029-0.205-0.038-0.311
			C78.623,35.381,78.618,35.271,78.618,35.159z M82.642,34.826c0-0.178-0.009-0.344-0.027-0.5c-0.018-0.156-0.045-0.3-0.082-0.433
			c-0.036-0.133-0.082-0.255-0.136-0.367s-0.118-0.211-0.19-0.3c-0.073-0.089-0.152-0.166-0.238-0.233s-0.178-0.122-0.276-0.167
			c-0.098-0.044-0.203-0.078-0.315-0.1c-0.111-0.022-0.229-0.033-0.354-0.033c-0.059,0-0.118,0.003-0.175,0.009
			c-0.058,0.006-0.115,0.016-0.171,0.028s-0.112,0.028-0.167,0.047c-0.055,0.019-0.109,0.04-0.163,0.065
			c-0.053,0.025-0.105,0.052-0.156,0.082c-0.051,0.03-0.1,0.063-0.149,0.098s-0.095,0.073-0.141,0.114
			c-0.046,0.041-0.09,0.084-0.133,0.13c-0.043,0.046-0.084,0.094-0.123,0.145s-0.076,0.104-0.112,0.16s-0.069,0.114-0.1,0.175
			s-0.061,0.124-0.089,0.19c-0.028,0.066-0.053,0.134-0.075,0.204s-0.043,0.142-0.06,0.216s-0.033,0.15-0.045,0.228
			c-0.013,0.078-0.023,0.158-0.03,0.24h0.877h0.877h0.877H82.642z"/>
	</g>
	<g>
		<path d="M86.952,30.344h0.132h0.132h0.132h0.132v1.889v1.889v1.889v1.889h-0.132h-0.132h-0.132h-0.132V36.01v-1.889v-1.889V30.344
			z"/>
	</g>
	<g>
		<path d="M89.646,32.396h0.109h0.109h0.109h0.109l0.011,0.212l0.011,0.212l0.011,0.212l0.011,0.212h0.009h0.009h0.009h0.009
			c0.071-0.071,0.142-0.139,0.214-0.203c0.072-0.065,0.144-0.127,0.216-0.185c0.073-0.059,0.146-0.115,0.219-0.167
			c0.074-0.053,0.148-0.103,0.223-0.149c0.074-0.047,0.151-0.088,0.231-0.123c0.08-0.035,0.162-0.064,0.247-0.088
			c0.085-0.023,0.172-0.041,0.263-0.053s0.183-0.018,0.279-0.018c0.144,0,0.277,0.011,0.402,0.032
			c0.124,0.021,0.239,0.054,0.344,0.097c0.105,0.043,0.201,0.097,0.287,0.161s0.162,0.14,0.229,0.226
			c0.067,0.086,0.125,0.184,0.175,0.293c0.05,0.109,0.092,0.23,0.125,0.363c0.033,0.133,0.059,0.277,0.075,0.434
			c0.017,0.156,0.025,0.324,0.025,0.504v0.883v0.883v0.883v0.883h-0.126h-0.126h-0.126H93.21v-0.865v-0.865v-0.865v-0.865
			c0-0.147-0.006-0.285-0.018-0.412c-0.012-0.128-0.03-0.246-0.054-0.355c-0.024-0.109-0.054-0.207-0.091-0.296
			c-0.036-0.089-0.079-0.169-0.128-0.238c-0.049-0.07-0.106-0.13-0.17-0.183c-0.065-0.052-0.138-0.096-0.218-0.131
			s-0.17-0.061-0.266-0.079s-0.202-0.026-0.314-0.026c-0.082,0-0.163,0.005-0.241,0.016c-0.078,0.011-0.155,0.027-0.229,0.048
			s-0.147,0.048-0.218,0.081c-0.071,0.032-0.139,0.07-0.206,0.113c-0.067,0.043-0.136,0.091-0.207,0.145s-0.144,0.113-0.22,0.177
			c-0.075,0.064-0.153,0.134-0.233,0.209c-0.08,0.075-0.162,0.156-0.246,0.242v1.038v1.038v1.038v1.038h-0.126h-0.126h-0.126h-0.126
			v-1.376v-1.376v-1.376V32.396z"/>
	</g>
	<g>
		<path d="M95.355,36.901c0.059,0.05,0.119,0.097,0.18,0.143c0.061,0.046,0.123,0.089,0.186,0.131s0.127,0.081,0.192,0.119
			c0.065,0.037,0.131,0.073,0.198,0.106c0.067,0.034,0.138,0.063,0.213,0.088c0.075,0.025,0.154,0.046,0.237,0.063
			c0.083,0.017,0.17,0.029,0.262,0.038S97.01,37.6,97.109,37.6c0.109,0,0.211-0.007,0.306-0.02c0.095-0.014,0.184-0.034,0.265-0.061
			c0.082-0.027,0.157-0.061,0.225-0.102c0.068-0.041,0.13-0.088,0.184-0.143c0.054-0.055,0.102-0.111,0.143-0.17
			c0.041-0.059,0.075-0.12,0.102-0.184c0.027-0.064,0.048-0.129,0.061-0.197s0.02-0.139,0.02-0.211c0-0.042-0.003-0.083-0.007-0.122
			c-0.005-0.04-0.012-0.078-0.022-0.115c-0.01-0.037-0.022-0.073-0.037-0.108s-0.032-0.069-0.052-0.101
			c-0.02-0.032-0.042-0.064-0.065-0.094c-0.023-0.03-0.048-0.059-0.074-0.087c-0.026-0.028-0.054-0.054-0.084-0.08
			c-0.029-0.025-0.061-0.05-0.093-0.073c-0.032-0.023-0.066-0.045-0.1-0.066c-0.034-0.021-0.069-0.042-0.105-0.062
			s-0.072-0.039-0.11-0.058c-0.037-0.019-0.076-0.037-0.115-0.054s-0.078-0.034-0.118-0.051s-0.079-0.033-0.119-0.049
			s-0.08-0.032-0.12-0.048s-0.08-0.031-0.121-0.046c-0.052-0.019-0.103-0.039-0.155-0.058c-0.052-0.02-0.104-0.039-0.156-0.059
			c-0.052-0.02-0.104-0.04-0.156-0.061s-0.104-0.041-0.157-0.062c-0.053-0.021-0.104-0.043-0.154-0.066
			c-0.05-0.023-0.099-0.047-0.146-0.073c-0.047-0.025-0.093-0.052-0.138-0.079c-0.045-0.027-0.088-0.056-0.13-0.086
			c-0.042-0.03-0.082-0.061-0.12-0.093c-0.038-0.032-0.074-0.066-0.108-0.102c-0.034-0.035-0.066-0.072-0.096-0.111
			s-0.058-0.078-0.084-0.119c-0.026-0.041-0.048-0.084-0.067-0.13s-0.036-0.093-0.049-0.144c-0.013-0.05-0.023-0.103-0.029-0.157
			c-0.007-0.055-0.01-0.112-0.01-0.171c0-0.05,0.002-0.099,0.007-0.147s0.012-0.096,0.022-0.144c0.01-0.047,0.022-0.094,0.036-0.14
			c0.014-0.046,0.031-0.092,0.05-0.137c0.019-0.045,0.041-0.088,0.065-0.13s0.05-0.083,0.079-0.122
			c0.029-0.039,0.06-0.077,0.093-0.113c0.033-0.036,0.069-0.071,0.107-0.105c0.038-0.033,0.079-0.065,0.121-0.095
			c0.042-0.03,0.087-0.058,0.133-0.084c0.046-0.026,0.095-0.051,0.145-0.073s0.103-0.044,0.157-0.063
			c0.054-0.019,0.111-0.036,0.17-0.05c0.059-0.014,0.12-0.026,0.184-0.036c0.064-0.01,0.129-0.017,0.198-0.021
			c0.068-0.005,0.139-0.007,0.211-0.007c0.072,0,0.144,0.003,0.216,0.01c0.072,0.007,0.143,0.017,0.214,0.03s0.142,0.03,0.213,0.05
			c0.071,0.02,0.141,0.043,0.211,0.07c0.07,0.027,0.137,0.055,0.201,0.086c0.065,0.031,0.127,0.063,0.186,0.097
			c0.06,0.034,0.117,0.071,0.172,0.109c0.055,0.038,0.107,0.078,0.157,0.12L98.6,32.92l-0.069,0.089l-0.069,0.089l-0.069,0.089
			c-0.046-0.034-0.093-0.067-0.14-0.099c-0.047-0.032-0.095-0.062-0.144-0.091c-0.049-0.029-0.098-0.057-0.148-0.083
			c-0.05-0.026-0.101-0.052-0.153-0.075c-0.052-0.024-0.106-0.045-0.162-0.063c-0.056-0.018-0.115-0.033-0.176-0.045
			c-0.061-0.012-0.125-0.021-0.191-0.027s-0.134-0.009-0.205-0.009c-0.054,0-0.105,0.002-0.155,0.005
			c-0.05,0.004-0.097,0.009-0.143,0.016c-0.046,0.007-0.09,0.016-0.132,0.027c-0.042,0.011-0.082,0.023-0.121,0.038
			s-0.075,0.03-0.11,0.046c-0.035,0.017-0.068,0.034-0.1,0.053c-0.032,0.019-0.062,0.038-0.091,0.059
			c-0.029,0.021-0.056,0.043-0.082,0.066c-0.026,0.023-0.05,0.047-0.073,0.071c-0.022,0.025-0.043,0.051-0.062,0.077
			c-0.019,0.027-0.036,0.054-0.052,0.083c-0.016,0.029-0.03,0.058-0.042,0.089c-0.012,0.031-0.023,0.061-0.033,0.092
			c-0.009,0.031-0.017,0.061-0.024,0.092c-0.006,0.031-0.011,0.061-0.014,0.092s-0.005,0.061-0.005,0.092
			c0,0.04,0.002,0.078,0.007,0.115c0.005,0.037,0.011,0.072,0.021,0.106s0.02,0.066,0.034,0.097c0.014,0.031,0.029,0.06,0.047,0.088
			c0.018,0.028,0.038,0.054,0.059,0.08c0.021,0.026,0.044,0.051,0.068,0.075c0.024,0.024,0.05,0.048,0.078,0.071
			c0.027,0.023,0.057,0.045,0.087,0.066c0.03,0.021,0.062,0.041,0.095,0.061s0.067,0.039,0.102,0.058
			c0.035,0.019,0.071,0.037,0.108,0.054s0.075,0.034,0.114,0.051c0.039,0.016,0.078,0.032,0.117,0.048
			c0.039,0.016,0.079,0.032,0.119,0.048c0.04,0.016,0.08,0.031,0.119,0.047c0.04,0.015,0.08,0.031,0.12,0.046
			c0.054,0.021,0.107,0.042,0.161,0.063s0.107,0.042,0.161,0.063s0.107,0.042,0.16,0.063s0.107,0.042,0.16,0.063
			c0.054,0.021,0.106,0.043,0.157,0.067c0.051,0.023,0.101,0.048,0.149,0.074c0.048,0.026,0.095,0.053,0.141,0.081
			c0.046,0.028,0.09,0.058,0.133,0.088c0.043,0.031,0.084,0.063,0.123,0.097s0.076,0.07,0.111,0.108
			c0.035,0.038,0.068,0.077,0.099,0.119c0.031,0.041,0.06,0.084,0.086,0.129c0.027,0.045,0.05,0.093,0.07,0.143
			s0.037,0.104,0.05,0.159c0.013,0.056,0.023,0.114,0.03,0.176c0.007,0.061,0.01,0.126,0.01,0.193c0,0.052-0.003,0.103-0.007,0.153
			c-0.005,0.05-0.012,0.1-0.022,0.149c-0.01,0.049-0.022,0.098-0.037,0.146c-0.015,0.048-0.032,0.095-0.052,0.142
			s-0.042,0.092-0.067,0.136c-0.025,0.044-0.053,0.086-0.083,0.128c-0.03,0.041-0.063,0.081-0.098,0.119s-0.073,0.075-0.113,0.11
			c-0.04,0.035-0.082,0.069-0.127,0.101c-0.044,0.032-0.091,0.062-0.14,0.09c-0.049,0.028-0.1,0.055-0.152,0.079
			c-0.053,0.025-0.108,0.047-0.165,0.068c-0.058,0.021-0.117,0.039-0.179,0.055c-0.062,0.016-0.125,0.029-0.191,0.039
			c-0.066,0.011-0.134,0.018-0.204,0.024c-0.07,0.005-0.143,0.008-0.217,0.008c-0.103,0-0.204-0.005-0.303-0.014
			c-0.099-0.009-0.195-0.023-0.29-0.042c-0.094-0.019-0.187-0.042-0.277-0.07s-0.178-0.061-0.264-0.098
			c-0.086-0.037-0.169-0.076-0.249-0.117c-0.08-0.041-0.156-0.083-0.23-0.128c-0.074-0.044-0.144-0.091-0.211-0.139
			c-0.067-0.048-0.132-0.098-0.193-0.149l0.074-0.095l0.074-0.095l0.074-0.095L95.355,36.901z"/>
	</g>
	<g>
		<path d="M100.652,31.066c-0.033,0-0.064-0.003-0.094-0.008c-0.03-0.005-0.059-0.013-0.086-0.024
			c-0.027-0.011-0.053-0.024-0.078-0.039c-0.025-0.016-0.048-0.034-0.07-0.055c-0.022-0.021-0.041-0.043-0.058-0.067
			s-0.03-0.049-0.041-0.076c-0.011-0.027-0.019-0.055-0.024-0.084c-0.005-0.03-0.008-0.061-0.008-0.093
			c0-0.036,0.003-0.071,0.008-0.103s0.014-0.063,0.024-0.091c0.011-0.028,0.025-0.054,0.041-0.078
			c0.016-0.024,0.036-0.046,0.058-0.066c0.022-0.02,0.045-0.038,0.07-0.053c0.025-0.015,0.051-0.028,0.078-0.038
			c0.027-0.01,0.056-0.018,0.086-0.023c0.03-0.005,0.061-0.008,0.094-0.008c0.032,0,0.063,0.002,0.093,0.008
			c0.03,0.005,0.058,0.013,0.085,0.023c0.027,0.01,0.053,0.023,0.078,0.038s0.048,0.033,0.07,0.053
			c0.022,0.02,0.041,0.042,0.058,0.066c0.016,0.024,0.03,0.05,0.041,0.078c0.011,0.028,0.019,0.058,0.024,0.091
			c0.005,0.032,0.008,0.067,0.008,0.103c0,0.032-0.003,0.063-0.008,0.093c-0.005,0.03-0.014,0.058-0.024,0.084
			c-0.011,0.027-0.025,0.052-0.041,0.076c-0.016,0.024-0.036,0.046-0.058,0.067c-0.022,0.021-0.045,0.039-0.07,0.055
			c-0.025,0.016-0.05,0.029-0.078,0.039c-0.027,0.011-0.056,0.018-0.085,0.024C100.715,31.063,100.684,31.066,100.652,31.066z
			 M100.388,32.396h0.126h0.126h0.126h0.126v1.376v1.376v1.376v1.376h-0.126h-0.126h-0.126h-0.126v-1.376v-1.376v-1.376V32.396z"/>
	</g>
	<g>
		<path d="M102.553,35.159c0-0.111,0.004-0.219,0.012-0.324s0.02-0.209,0.037-0.309c0.016-0.1,0.037-0.198,0.061-0.293
			c0.024-0.095,0.053-0.188,0.085-0.278c0.033-0.09,0.068-0.176,0.107-0.259c0.039-0.083,0.08-0.163,0.125-0.239
			c0.044-0.076,0.092-0.149,0.142-0.219c0.05-0.07,0.104-0.136,0.16-0.199c0.056-0.063,0.115-0.123,0.175-0.178
			c0.061-0.056,0.123-0.108,0.188-0.156s0.132-0.093,0.201-0.134c0.069-0.041,0.141-0.078,0.214-0.111
			c0.074-0.034,0.148-0.063,0.224-0.088c0.076-0.025,0.153-0.046,0.23-0.063s0.157-0.029,0.237-0.038s0.161-0.012,0.243-0.012
			c0.084,0,0.165,0.004,0.244,0.011c0.079,0.007,0.154,0.018,0.228,0.033s0.144,0.033,0.211,0.055
			c0.068,0.022,0.133,0.048,0.195,0.078c0.062,0.03,0.125,0.062,0.189,0.098c0.064,0.036,0.128,0.074,0.194,0.116
			c0.065,0.042,0.132,0.086,0.199,0.134c0.067,0.048,0.135,0.098,0.204,0.152l-0.006-0.252l-0.006-0.252l-0.006-0.252l-0.006-0.252
			v-0.568v-0.568v-0.568v-0.568h0.126h0.126h0.126h0.126v2.061v2.061v2.061v2.061h-0.109h-0.109h-0.109h-0.109l-0.011-0.178
			l-0.011-0.178l-0.011-0.178l-0.011-0.178h-0.009h-0.009h-0.009h-0.009c-0.056,0.055-0.114,0.109-0.174,0.161
			c-0.06,0.052-0.123,0.103-0.189,0.152c-0.065,0.049-0.133,0.097-0.204,0.143c-0.07,0.046-0.143,0.091-0.219,0.134
			c-0.076,0.043-0.153,0.081-0.233,0.113s-0.161,0.059-0.245,0.081c-0.084,0.021-0.169,0.038-0.257,0.048
			c-0.088,0.011-0.177,0.016-0.269,0.016c-0.174,0-0.339-0.015-0.495-0.046c-0.156-0.031-0.303-0.077-0.442-0.139
			c-0.138-0.062-0.268-0.139-0.389-0.231c-0.121-0.092-0.233-0.2-0.336-0.324c-0.103-0.123-0.194-0.26-0.271-0.411
			c-0.078-0.151-0.142-0.315-0.194-0.493c-0.052-0.178-0.091-0.37-0.117-0.576C102.566,35.611,102.553,35.392,102.553,35.159z
			 M103.092,35.159c0,0.092,0.003,0.181,0.008,0.268s0.013,0.173,0.023,0.256c0.01,0.083,0.023,0.164,0.038,0.243
			s0.033,0.156,0.053,0.23c0.02,0.075,0.042,0.146,0.067,0.215c0.025,0.069,0.051,0.135,0.08,0.199
			c0.029,0.064,0.06,0.124,0.094,0.182c0.034,0.058,0.069,0.113,0.107,0.166c0.038,0.053,0.079,0.102,0.122,0.149
			c0.043,0.047,0.088,0.091,0.135,0.132c0.047,0.041,0.097,0.079,0.149,0.115c0.052,0.035,0.106,0.068,0.162,0.097
			s0.115,0.055,0.175,0.078c0.06,0.022,0.123,0.041,0.187,0.055c0.064,0.015,0.131,0.026,0.2,0.033
			c0.069,0.007,0.139,0.011,0.212,0.011c0.076,0,0.152-0.005,0.227-0.015c0.075-0.01,0.149-0.024,0.222-0.044
			c0.073-0.02,0.145-0.044,0.217-0.073c0.071-0.029,0.142-0.064,0.211-0.103c0.07-0.039,0.14-0.083,0.211-0.13
			c0.071-0.048,0.141-0.099,0.213-0.155s0.143-0.116,0.214-0.18c0.072-0.064,0.144-0.133,0.216-0.206v-0.817v-0.817v-0.817v-0.817
			c-0.072-0.065-0.144-0.125-0.214-0.181c-0.07-0.055-0.14-0.106-0.208-0.152c-0.068-0.046-0.135-0.087-0.202-0.123
			c-0.066-0.036-0.131-0.068-0.195-0.095c-0.064-0.027-0.128-0.05-0.193-0.07c-0.065-0.02-0.13-0.037-0.195-0.05
			c-0.065-0.013-0.131-0.023-0.197-0.03s-0.133-0.01-0.199-0.01c-0.069,0-0.136,0.004-0.203,0.012
			c-0.066,0.008-0.132,0.02-0.196,0.035s-0.127,0.035-0.188,0.059c-0.062,0.024-0.122,0.051-0.181,0.082
			c-0.06,0.032-0.117,0.066-0.172,0.103c-0.055,0.037-0.108,0.077-0.159,0.12c-0.051,0.043-0.1,0.089-0.147,0.137
			c-0.047,0.049-0.092,0.1-0.135,0.155c-0.043,0.055-0.083,0.112-0.122,0.172c-0.038,0.06-0.074,0.122-0.108,0.187
			c-0.034,0.065-0.066,0.133-0.095,0.203c-0.029,0.07-0.056,0.143-0.081,0.218c-0.025,0.076-0.047,0.152-0.066,0.231
			c-0.019,0.078-0.034,0.158-0.047,0.238c-0.012,0.081-0.022,0.163-0.028,0.246C103.095,34.988,103.092,35.073,103.092,35.159z"/>
	</g>
	<g>
		<path d="M108.791,35.159c0-0.113,0.004-0.223,0.013-0.33c0.008-0.107,0.021-0.211,0.038-0.313c0.017-0.101,0.038-0.2,0.062-0.295
			c0.025-0.096,0.054-0.188,0.087-0.278c0.034-0.09,0.07-0.176,0.109-0.259c0.039-0.083,0.081-0.162,0.126-0.238
			c0.045-0.076,0.093-0.148,0.143-0.218c0.051-0.069,0.104-0.135,0.16-0.197c0.056-0.062,0.115-0.12,0.175-0.175
			s0.122-0.106,0.186-0.154s0.13-0.092,0.198-0.132c0.068-0.041,0.138-0.078,0.21-0.111c0.072-0.034,0.144-0.063,0.216-0.088
			c0.073-0.025,0.146-0.046,0.22-0.063s0.149-0.029,0.224-0.038s0.151-0.012,0.227-0.012c0.164,0,0.32,0.014,0.467,0.042
			c0.147,0.028,0.285,0.069,0.414,0.125c0.129,0.055,0.249,0.125,0.361,0.208c0.111,0.083,0.214,0.18,0.307,0.291
			c0.094,0.111,0.175,0.233,0.246,0.367s0.129,0.279,0.175,0.436c0.047,0.157,0.082,0.325,0.105,0.504
			c0.023,0.18,0.035,0.371,0.035,0.573c0,0.017,0,0.034,0,0.052s0,0.034,0,0.052c0,0.017,0,0.034,0,0.052s0,0.034,0,0.052
			s0,0.034-0.001,0.052s-0.002,0.034-0.004,0.052s-0.004,0.034-0.007,0.052c-0.003,0.017-0.006,0.034-0.01,0.052h-0.992h-0.992
			h-0.992h-0.992c0.002,0.086,0.006,0.17,0.014,0.253c0.008,0.083,0.018,0.164,0.031,0.244c0.013,0.08,0.03,0.158,0.049,0.235
			s0.041,0.152,0.066,0.225c0.025,0.074,0.052,0.145,0.082,0.213c0.03,0.068,0.062,0.134,0.097,0.197
			c0.035,0.063,0.072,0.124,0.112,0.181s0.083,0.113,0.128,0.166c0.045,0.053,0.092,0.102,0.141,0.149s0.101,0.091,0.155,0.132
			c0.054,0.041,0.11,0.079,0.169,0.114c0.059,0.035,0.119,0.068,0.183,0.097c0.063,0.03,0.128,0.055,0.194,0.078
			c0.067,0.022,0.135,0.041,0.206,0.055s0.143,0.026,0.218,0.033c0.075,0.007,0.151,0.011,0.229,0.011
			c0.074,0,0.147-0.003,0.218-0.008c0.071-0.005,0.14-0.014,0.207-0.025s0.133-0.025,0.197-0.041
			c0.064-0.016,0.126-0.036,0.186-0.058c0.06-0.022,0.12-0.046,0.178-0.072c0.058-0.026,0.115-0.054,0.171-0.084
			c0.056-0.03,0.111-0.062,0.165-0.096c0.054-0.034,0.106-0.07,0.158-0.109l0.052,0.097l0.052,0.097l0.052,0.097l0.052,0.097
			c-0.056,0.033-0.112,0.065-0.171,0.096s-0.118,0.063-0.178,0.093s-0.123,0.061-0.186,0.09c-0.063,0.03-0.128,0.059-0.194,0.087
			c-0.066,0.029-0.136,0.054-0.21,0.075c-0.075,0.021-0.154,0.039-0.237,0.054c-0.084,0.014-0.172,0.025-0.264,0.032
			s-0.19,0.011-0.291,0.011c-0.088,0-0.175-0.004-0.26-0.012s-0.169-0.02-0.252-0.037s-0.164-0.037-0.244-0.061
			c-0.08-0.024-0.159-0.053-0.236-0.085c-0.077-0.032-0.152-0.069-0.224-0.108c-0.072-0.04-0.142-0.083-0.21-0.131
			s-0.132-0.098-0.195-0.153c-0.062-0.055-0.122-0.113-0.179-0.175c-0.057-0.062-0.111-0.128-0.163-0.196s-0.1-0.141-0.145-0.216
			c-0.045-0.075-0.088-0.154-0.128-0.236c-0.04-0.082-0.076-0.168-0.11-0.257c-0.033-0.089-0.062-0.181-0.087-0.275
			s-0.046-0.193-0.062-0.293c-0.017-0.101-0.029-0.205-0.038-0.311C108.795,35.381,108.791,35.271,108.791,35.159z M112.814,34.826
			c0-0.178-0.009-0.344-0.027-0.5c-0.018-0.156-0.045-0.3-0.082-0.433c-0.036-0.133-0.082-0.255-0.136-0.367s-0.118-0.211-0.19-0.3
			c-0.073-0.089-0.152-0.166-0.238-0.233s-0.178-0.122-0.276-0.167c-0.098-0.044-0.203-0.078-0.315-0.1s-0.229-0.033-0.354-0.033
			c-0.059,0-0.118,0.003-0.175,0.009c-0.058,0.006-0.115,0.016-0.171,0.028c-0.056,0.012-0.112,0.028-0.167,0.047
			c-0.055,0.019-0.109,0.04-0.163,0.065c-0.053,0.025-0.105,0.052-0.156,0.082c-0.051,0.03-0.1,0.063-0.149,0.098
			s-0.095,0.073-0.141,0.114s-0.09,0.084-0.133,0.13c-0.043,0.046-0.084,0.094-0.123,0.145s-0.076,0.104-0.112,0.16
			s-0.069,0.114-0.1,0.175c-0.032,0.061-0.061,0.124-0.089,0.19c-0.028,0.066-0.053,0.134-0.075,0.204s-0.043,0.142-0.06,0.216
			c-0.018,0.074-0.033,0.15-0.045,0.228c-0.013,0.078-0.023,0.158-0.03,0.24h0.877h0.877h0.877H112.814z"/>
	</g>
</g>
</svg>
