<?xml version="1.0" encoding="utf-8"?>
<!-- Generator: Adobe Illustrator 19.1.0, SVG Export Plug-In . SVG Version: 6.00 Build 0)  -->
<svg version="1.1" id="Layer_1" xmlns="http://www.w3.org/2000/svg" xmlns:xlink="http://www.w3.org/1999/xlink" x="0px" y="0px"
	 viewBox="0 0 29.91 30.086" style="enable-background:new 0 0 29.91 30.086;" xml:space="preserve">
<style type="text/css">
	.st0{fill:#4D4D4D;}
	.st1{fill-rule:evenodd;clip-rule:evenodd;fill:#4C4C4C;}
	.st2{fill:#4C4C4C;}
	.st3{fill:#383330;}
	.st4{fill:#1F1A17;}
	.st5{fill:#4D4C4C;}
	.st6{fill:none;stroke:#000000;stroke-width:0.3;stroke-miterlimit:10;}
	.st7{fill:#E61413;}
	.st8{fill:#5F5357;}
	.st9{fill:#115C78;}
	.st10{fill-rule:evenodd;clip-rule:evenodd;fill:#4D4D4D;}
	.st11{fill-rule:evenodd;clip-rule:evenodd;}
	.st12{fill:#FFFFFF;}
	.st13{fill:none;}
	.st14{fill:#231F20;}
	.st15{clip-path:url(#SVGID_2_);}
	.st16{clip-path:url(#SVGID_4_);fill:#FCF118;}
	.st17{clip-path:url(#SVGID_4_);fill:#FCF018;}
	.st18{clip-path:url(#SVGID_4_);fill:#FCEF18;}
	.st19{clip-path:url(#SVGID_4_);fill:#FCEE18;}
	.st20{clip-path:url(#SVGID_4_);fill:#FCED18;}
	.st21{clip-path:url(#SVGID_4_);fill:#FCEC18;}
	.st22{clip-path:url(#SVGID_4_);fill:#FCEB18;}
	.st23{clip-path:url(#SVGID_4_);fill:#FCEA18;}
	.st24{clip-path:url(#SVGID_4_);fill:#FCE918;}
	.st25{clip-path:url(#SVGID_4_);fill:#FCE818;}
	.st26{clip-path:url(#SVGID_4_);fill:#FCE718;}
	.st27{clip-path:url(#SVGID_4_);fill:#FCE617;}
	.st28{clip-path:url(#SVGID_4_);fill:#FCE517;}
	.st29{clip-path:url(#SVGID_4_);fill:#FCE417;}
	.st30{clip-path:url(#SVGID_4_);fill:#FCE317;}
	.st31{clip-path:url(#SVGID_4_);fill:#FCE217;}
	.st32{clip-path:url(#SVGID_4_);fill:#FCE117;}
	.st33{clip-path:url(#SVGID_4_);fill:#FCE017;}
	.st34{clip-path:url(#SVGID_4_);fill:#FCDF17;}
	.st35{clip-path:url(#SVGID_4_);fill:#FCDE17;}
	.st36{clip-path:url(#SVGID_4_);fill:#FCDD17;}
	.st37{clip-path:url(#SVGID_4_);fill:#FCDC17;}
	.st38{clip-path:url(#SVGID_4_);fill:#FCDB17;}
	.st39{clip-path:url(#SVGID_4_);fill:#FCDA17;}
	.st40{clip-path:url(#SVGID_4_);fill:#FCD917;}
	.st41{clip-path:url(#SVGID_4_);fill:#FCD817;}
	.st42{clip-path:url(#SVGID_4_);fill:#FCD717;}
	.st43{clip-path:url(#SVGID_4_);fill:#FCD617;}
	.st44{clip-path:url(#SVGID_4_);fill:#FCD517;}
	.st45{clip-path:url(#SVGID_4_);fill:#FCD416;}
	.st46{clip-path:url(#SVGID_4_);fill:#FCD316;}
	.st47{clip-path:url(#SVGID_4_);fill:#FBD216;}
	.st48{clip-path:url(#SVGID_4_);fill:#FBD116;}
	.st49{clip-path:url(#SVGID_4_);fill:#FBD016;}
	.st50{clip-path:url(#SVGID_4_);fill:#FBCF16;}
	.st51{clip-path:url(#SVGID_4_);fill:#FBCE16;}
	.st52{clip-path:url(#SVGID_4_);fill:#FBCD16;}
	.st53{clip-path:url(#SVGID_4_);fill:#FBCC16;}
	.st54{clip-path:url(#SVGID_4_);fill:#FBCB16;}
	.st55{clip-path:url(#SVGID_4_);fill:#FBCA16;}
	.st56{clip-path:url(#SVGID_4_);fill:#FBC916;}
	.st57{clip-path:url(#SVGID_4_);fill:#FBC816;}
	.st58{clip-path:url(#SVGID_4_);fill:#FBC716;}
	.st59{clip-path:url(#SVGID_4_);fill:#FBC616;}
	.st60{clip-path:url(#SVGID_4_);fill:#FBC516;}
	.st61{clip-path:url(#SVGID_4_);fill:#FBC416;}
	.st62{clip-path:url(#SVGID_4_);fill:#FBC316;}
	.st63{clip-path:url(#SVGID_4_);fill:#FBC216;}
	.st64{clip-path:url(#SVGID_4_);fill:#FBC115;}
	.st65{clip-path:url(#SVGID_4_);fill:#FBC015;}
	.st66{clip-path:url(#SVGID_4_);fill:#FBBF15;}
	.st67{clip-path:url(#SVGID_4_);fill:#FBBE15;}
	.st68{clip-path:url(#SVGID_4_);fill:#FBBD15;}
	.st69{clip-path:url(#SVGID_4_);fill:#FBBC15;}
	.st70{clip-path:url(#SVGID_4_);fill:#FBBB15;}
	.st71{clip-path:url(#SVGID_4_);fill:#FBBA15;}
	.st72{clip-path:url(#SVGID_4_);fill:#FBB915;}
	.st73{clip-path:url(#SVGID_4_);fill:#FBB815;}
	.st74{clip-path:url(#SVGID_4_);fill:#FBB715;}
	.st75{clip-path:url(#SVGID_4_);fill:#FBB615;}
	.st76{clip-path:url(#SVGID_4_);fill:#FBB515;}
	.st77{clip-path:url(#SVGID_4_);fill:#FBB415;}
	.st78{clip-path:url(#SVGID_4_);fill:#FBB315;}
	.st79{clip-path:url(#SVGID_4_);fill:#FBB215;}
	.st80{clip-path:url(#SVGID_4_);fill:#FBB115;}
	.st81{clip-path:url(#SVGID_4_);fill:#FBB015;}
	.st82{clip-path:url(#SVGID_4_);fill:#FBAF15;}
	.st83{clip-path:url(#SVGID_4_);fill:#FAAE15;}
	.st84{clip-path:url(#SVGID_4_);fill:#FAAD14;}
	.st85{clip-path:url(#SVGID_4_);fill:#FAAC14;}
	.st86{clip-path:url(#SVGID_4_);fill:#FAAB14;}
	.st87{clip-path:url(#SVGID_4_);fill:#FAAA14;}
	.st88{clip-path:url(#SVGID_4_);fill:#FAA914;}
	.st89{clip-path:url(#SVGID_4_);fill:#FAA814;}
	.st90{clip-path:url(#SVGID_4_);fill:#FAA714;}
	.st91{clip-path:url(#SVGID_4_);fill:#FAA614;}
	.st92{clip-path:url(#SVGID_4_);fill:#FAA514;}
	.st93{clip-path:url(#SVGID_4_);fill:#FAA414;}
	.st94{clip-path:url(#SVGID_4_);fill:#FAA314;}
	.st95{clip-path:url(#SVGID_4_);fill:#FAA214;}
	.st96{clip-path:url(#SVGID_4_);fill:#FAA114;}
	.st97{clip-path:url(#SVGID_4_);fill:#FAA014;}
	.st98{clip-path:url(#SVGID_4_);fill:#FA9F14;}
	.st99{clip-path:url(#SVGID_4_);fill:#FA9E14;}
	.st100{clip-path:url(#SVGID_4_);fill:#FA9D14;}
	.st101{clip-path:url(#SVGID_4_);fill:#FA9C14;}
	.st102{clip-path:url(#SVGID_4_);fill:#FA9B14;}
	.st103{clip-path:url(#SVGID_4_);fill:#FA9A13;}
	.st104{clip-path:url(#SVGID_4_);fill:#FA9913;}
	.st105{clip-path:url(#SVGID_4_);fill:#FA9813;}
	.st106{clip-path:url(#SVGID_4_);fill:#FA9713;}
	.st107{clip-path:url(#SVGID_4_);fill:#FA9613;}
	.st108{clip-path:url(#SVGID_4_);fill:#FA9513;}
	.st109{clip-path:url(#SVGID_4_);fill:#FA9413;}
	.st110{clip-path:url(#SVGID_4_);fill:#FA9313;}
	.st111{clip-path:url(#SVGID_4_);fill:#FA9213;}
	.st112{clip-path:url(#SVGID_4_);fill:#FA9113;}
	.st113{clip-path:url(#SVGID_4_);fill:#FA9013;}
	.st114{clip-path:url(#SVGID_4_);fill:#FA8F13;}
	.st115{clip-path:url(#SVGID_4_);fill:#FA8E13;}
	.st116{clip-path:url(#SVGID_4_);fill:#FA8D13;}
	.st117{clip-path:url(#SVGID_4_);fill:#FA8C13;}
	.st118{clip-path:url(#SVGID_4_);fill:#FA8B13;}
	.st119{clip-path:url(#SVGID_4_);fill:#FA8A13;}
	.st120{clip-path:url(#SVGID_4_);fill:#FA8913;}
	.st121{clip-path:url(#SVGID_4_);fill:#FA8812;}
	.st122{clip-path:url(#SVGID_4_);fill:#FA8712;}
	.st123{clip-path:url(#SVGID_4_);fill:#FA8612;}
	.st124{clip-path:url(#SVGID_4_);fill:#F98512;}
	.st125{clip-path:url(#SVGID_4_);fill:#F98412;}
	.st126{clip-path:url(#SVGID_4_);fill:#F98312;}
	.st127{clip-path:url(#SVGID_4_);fill:#F98212;}
	.st128{clip-path:url(#SVGID_4_);fill:#F98112;}
	.st129{clip-path:url(#SVGID_4_);fill:#F98012;}
	.st130{clip-path:url(#SVGID_4_);fill:#F97F12;}
	.st131{clip-path:url(#SVGID_4_);fill:#F97E12;}
	.st132{clip-path:url(#SVGID_4_);fill:#F97D12;}
	.st133{clip-path:url(#SVGID_4_);fill:#F97C12;}
	.st134{clip-path:url(#SVGID_4_);fill:#F97B12;}
	.st135{clip-path:url(#SVGID_4_);fill:#F97A12;}
	.st136{clip-path:url(#SVGID_4_);fill:#F97912;}
	.st137{clip-path:url(#SVGID_4_);fill:#F97812;}
	.st138{clip-path:url(#SVGID_4_);fill:#F97712;}
	.st139{clip-path:url(#SVGID_4_);fill:#F97612;}
	.st140{clip-path:url(#SVGID_4_);fill:#F97511;}
	.st141{clip-path:url(#SVGID_4_);fill:#F97411;}
	.st142{clip-path:url(#SVGID_4_);fill:#F97311;}
	.st143{clip-path:url(#SVGID_4_);fill:#F97211;}
	.st144{clip-path:url(#SVGID_4_);fill:#F97111;}
	.st145{clip-path:url(#SVGID_4_);fill:#F97011;}
	.st146{clip-path:url(#SVGID_4_);fill:#F96F11;}
	.st147{clip-path:url(#SVGID_4_);fill:#F96E11;}
	.st148{clip-path:url(#SVGID_4_);fill:#F96D11;}
	.st149{clip-path:url(#SVGID_4_);fill:#F96C11;}
	.st150{clip-path:url(#SVGID_4_);fill:#F96B11;}
	.st151{clip-path:url(#SVGID_4_);fill:#F96A11;}
	.st152{clip-path:url(#SVGID_4_);fill:#F96911;}
	.st153{clip-path:url(#SVGID_4_);fill:#F96811;}
	.st154{clip-path:url(#SVGID_4_);fill:#F96711;}
	.st155{clip-path:url(#SVGID_4_);fill:#F96611;}
	.st156{clip-path:url(#SVGID_4_);fill:#F96511;}
	.st157{clip-path:url(#SVGID_4_);fill:#F96411;}
	.st158{clip-path:url(#SVGID_4_);fill:#F96311;}
	.st159{clip-path:url(#SVGID_4_);fill:#F96210;}
	.st160{clip-path:url(#SVGID_4_);fill:#F86110;}
	.st161{clip-path:url(#SVGID_4_);fill:#F86010;}
	.st162{clip-path:url(#SVGID_4_);fill:#F85F10;}
	.st163{clip-path:url(#SVGID_4_);fill:#F85E10;}
	.st164{clip-path:url(#SVGID_4_);fill:#F85D10;}
	.st165{clip-path:url(#SVGID_4_);fill:#F85C10;}
	.st166{clip-path:url(#SVGID_4_);fill:#F85B10;}
	.st167{clip-path:url(#SVGID_4_);fill:#F85A10;}
	.st168{clip-path:url(#SVGID_4_);fill:#F85910;}
	.st169{clip-path:url(#SVGID_4_);fill:#F85810;}
	.st170{clip-path:url(#SVGID_4_);fill:#F85710;}
	.st171{clip-path:url(#SVGID_4_);fill:#F85610;}
	.st172{clip-path:url(#SVGID_4_);fill:#F85510;}
	.st173{clip-path:url(#SVGID_4_);fill:#F85410;}
	.st174{clip-path:url(#SVGID_4_);fill:#F85310;}
	.st175{clip-path:url(#SVGID_4_);fill:#F85210;}
	.st176{clip-path:url(#SVGID_4_);fill:#F85110;}
	.st177{clip-path:url(#SVGID_4_);fill:#F85010;}
	.st178{clip-path:url(#SVGID_4_);fill:#F84F0F;}
	.st179{clip-path:url(#SVGID_4_);fill:#F84E0F;}
	.st180{clip-path:url(#SVGID_4_);fill:#F84D0F;}
	.st181{clip-path:url(#SVGID_4_);fill:#F84C0F;}
	.st182{clip-path:url(#SVGID_4_);fill:#F84B0F;}
	.st183{clip-path:url(#SVGID_4_);fill:#F84A0F;}
	.st184{clip-path:url(#SVGID_4_);fill:#F8490F;}
	.st185{clip-path:url(#SVGID_4_);fill:#F8480F;}
	.st186{clip-path:url(#SVGID_4_);fill:#F8470F;}
	.st187{clip-path:url(#SVGID_4_);fill:#F8460F;}
	.st188{clip-path:url(#SVGID_4_);fill:#F8450F;}
	.st189{clip-path:url(#SVGID_4_);fill:#F8440F;}
	.st190{clip-path:url(#SVGID_4_);fill:#F8430F;}
	.st191{clip-path:url(#SVGID_4_);fill:#F8420F;}
	.st192{clip-path:url(#SVGID_4_);fill:#F8410F;}
	.st193{clip-path:url(#SVGID_4_);fill:#F8400F;}
	.st194{clip-path:url(#SVGID_4_);fill:#F83F0F;}
	.st195{clip-path:url(#SVGID_4_);fill:#F83E0E;}
	.st196{clip-path:url(#SVGID_4_);fill:#F83D0E;}
	.st197{clip-path:url(#SVGID_4_);fill:#F83C0E;}
	.st198{clip-path:url(#SVGID_4_);fill:#F83B0E;}
	.st199{clip-path:url(#SVGID_4_);fill:#F73A0E;}
	.st200{clip-path:url(#SVGID_4_);fill:#F7390E;}
	.st201{clip-path:url(#SVGID_4_);fill:#F7380E;}
	.st202{clip-path:url(#SVGID_4_);fill:#F7370E;}
	.st203{clip-path:url(#SVGID_4_);fill:#F7360E;}
	.st204{clip-path:url(#SVGID_4_);fill:#F7340E;}
	.st205{clip-path:url(#SVGID_4_);fill:#F7330E;}
	.st206{clip-path:url(#SVGID_4_);fill:#F7320E;}
	.st207{clip-path:url(#SVGID_4_);fill:#F7310E;}
	.st208{clip-path:url(#SVGID_4_);fill:#F7300E;}
	.st209{clip-path:url(#SVGID_4_);fill:#F72F0E;}
	.st210{clip-path:url(#SVGID_4_);fill:#F72E0E;}
	.st211{clip-path:url(#SVGID_4_);fill:#F72D0E;}
	.st212{clip-path:url(#SVGID_4_);fill:#F72C0E;}
	.st213{clip-path:url(#SVGID_4_);fill:#F72B0E;}
	.st214{clip-path:url(#SVGID_4_);fill:#F72B0D;}
	.st215{clip-path:url(#SVGID_4_);fill:#F72A0D;}
	.st216{clip-path:url(#SVGID_4_);fill:#F7290D;}
	.st217{clip-path:url(#SVGID_4_);fill:#F7280D;}
	.st218{clip-path:url(#SVGID_4_);fill:#F7270D;}
	.st219{clip-path:url(#SVGID_4_);fill:#F7260D;}
</style>
<g>
	<path class="st2" d="M8.511,23.32H8.357H8.204H8.05H7.896v0.228v0.228v0.228v0.228H7.839H7.781H7.724H7.667v-0.228v-0.228v-0.228
		V23.32H7.208H6.749H6.29H5.831v-0.041v-0.041v-0.041v-0.041l0.443-0.629l0.443-0.629l0.443-0.629l0.443-0.629h0.074h0.074h0.074
		h0.074v0.617v0.617v0.617v0.617H8.05h0.154h0.154h0.154v0.053v0.053v0.053V23.32z M7.667,23.109v-0.255v-0.255v-0.255v-0.255
		c0-0.123,0.001-0.241,0.002-0.354s0.004-0.221,0.006-0.324s0.006-0.201,0.011-0.295s0.009-0.182,0.015-0.265H7.696H7.691H7.686
		H7.681c-0.008,0.015-0.021,0.036-0.037,0.062s-0.037,0.059-0.062,0.097s-0.054,0.082-0.088,0.132s-0.071,0.106-0.113,0.167
		l-0.315,0.45l-0.315,0.45l-0.315,0.45l-0.315,0.45h0.386h0.386H7.28H7.667z"/>
	<path class="st2" d="M9.891,22.083c0.095,0,0.185,0.006,0.27,0.017s0.165,0.029,0.24,0.052s0.145,0.052,0.21,0.086
		s0.125,0.075,0.18,0.121c0.055,0.046,0.103,0.096,0.144,0.151s0.075,0.113,0.103,0.177s0.048,0.131,0.062,0.203
		s0.021,0.148,0.021,0.229c0,0.092-0.007,0.178-0.021,0.26s-0.036,0.158-0.064,0.229s-0.064,0.137-0.107,0.198
		s-0.093,0.117-0.15,0.168c-0.057,0.051-0.119,0.095-0.187,0.133s-0.141,0.07-0.219,0.095s-0.162,0.044-0.252,0.057
		s-0.184,0.019-0.284,0.019c-0.044,0-0.088-0.001-0.131-0.003s-0.086-0.005-0.128-0.01s-0.084-0.01-0.125-0.016
		s-0.081-0.014-0.121-0.023s-0.078-0.018-0.115-0.029s-0.072-0.022-0.105-0.035s-0.065-0.026-0.095-0.04s-0.059-0.03-0.085-0.046
		v-0.063V23.95v-0.063v-0.063c0.044,0.022,0.087,0.043,0.128,0.062s0.082,0.036,0.121,0.052s0.077,0.029,0.114,0.041
		s0.072,0.023,0.106,0.031s0.069,0.016,0.104,0.023s0.071,0.012,0.108,0.016s0.073,0.008,0.111,0.01s0.076,0.003,0.114,0.003
		c0.078,0,0.152-0.005,0.223-0.016s0.137-0.026,0.2-0.047s0.121-0.047,0.176-0.078s0.106-0.067,0.153-0.108s0.089-0.086,0.124-0.135
		s0.065-0.101,0.088-0.157s0.041-0.115,0.053-0.178s0.018-0.13,0.018-0.2c0-0.066-0.006-0.129-0.017-0.188s-0.029-0.115-0.052-0.167
		s-0.052-0.101-0.086-0.145s-0.075-0.086-0.121-0.124s-0.096-0.071-0.15-0.099s-0.113-0.052-0.175-0.071s-0.129-0.033-0.2-0.042
		s-0.146-0.014-0.225-0.014c-0.053,0-0.106,0.002-0.16,0.006s-0.109,0.01-0.164,0.018s-0.111,0.018-0.168,0.03
		s-0.114,0.026-0.171,0.042l-0.037-0.024l-0.037-0.024L9.07,22.318l-0.037-0.024l0.035-0.408l0.035-0.408l0.035-0.408l0.035-0.408
		h0.43h0.43h0.43h0.43v0.059v0.059v0.059v0.059h-0.372h-0.372H9.777H9.405L9.377,21.21L9.35,21.525L9.322,21.84l-0.027,0.315
		c0.063-0.012,0.124-0.022,0.18-0.031s0.11-0.016,0.159-0.022s0.096-0.01,0.139-0.014S9.855,22.083,9.891,22.083z"/>
	<path class="st2" d="M12.249,22.411c-0.02,0-0.04,0.002-0.061,0.005s-0.042,0.008-0.064,0.014s-0.044,0.014-0.067,0.023
		s-0.047,0.02-0.071,0.033s-0.048,0.026-0.072,0.042s-0.047,0.032-0.071,0.05s-0.047,0.038-0.07,0.059s-0.046,0.044-0.069,0.068
		v-0.058v-0.058v-0.058v-0.058c0.044-0.045,0.089-0.084,0.134-0.117s0.092-0.061,0.14-0.084s0.096-0.039,0.145-0.05
		s0.099-0.017,0.15-0.017c0.025,0,0.049,0.001,0.073,0.002s0.048,0.003,0.071,0.006s0.046,0.006,0.069,0.01s0.045,0.009,0.067,0.014
		c0.022,0.006,0.046,0.013,0.073,0.021s0.056,0.019,0.087,0.031s0.065,0.025,0.102,0.04s0.075,0.031,0.116,0.049
		c0.051,0.024,0.101,0.044,0.149,0.062s0.094,0.032,0.139,0.044s0.088,0.021,0.129,0.026s0.081,0.009,0.12,0.009
		c0.023,0,0.046-0.002,0.068-0.005s0.045-0.008,0.067-0.014s0.044-0.014,0.066-0.023s0.044-0.02,0.066-0.033
		c0.022-0.012,0.044-0.027,0.066-0.042s0.046-0.033,0.069-0.053s0.047-0.04,0.072-0.063s0.049-0.047,0.074-0.073v0.059v0.059v0.059
		v0.059c-0.02,0.02-0.039,0.039-0.06,0.057s-0.041,0.035-0.062,0.052s-0.043,0.032-0.065,0.047s-0.045,0.029-0.068,0.042
		c-0.023,0.013-0.047,0.024-0.071,0.034s-0.05,0.018-0.076,0.024s-0.054,0.011-0.082,0.015s-0.057,0.005-0.087,0.005
		c-0.047,0-0.096-0.004-0.147-0.011s-0.104-0.018-0.159-0.033s-0.112-0.033-0.171-0.055s-0.119-0.048-0.182-0.077
		c-0.05-0.023-0.099-0.043-0.147-0.061s-0.094-0.032-0.139-0.043s-0.089-0.02-0.131-0.026S12.288,22.411,12.249,22.411z"/>
	<path class="st2" d="M16.817,22.174c0,0.117-0.004,0.23-0.012,0.337s-0.019,0.211-0.035,0.309s-0.035,0.191-0.058,0.28
		s-0.05,0.172-0.081,0.251c-0.031,0.079-0.065,0.153-0.103,0.221s-0.079,0.132-0.124,0.191s-0.093,0.112-0.145,0.16
		s-0.107,0.091-0.166,0.129c-0.059,0.038-0.121,0.071-0.185,0.099s-0.133,0.052-0.204,0.071s-0.145,0.033-0.223,0.043
		s-0.158,0.014-0.241,0.014c-0.042,0-0.084-0.001-0.125-0.004s-0.081-0.007-0.12-0.012s-0.077-0.012-0.115-0.02
		s-0.074-0.017-0.11-0.028v-0.052V24.11v-0.052v-0.052c0.017,0.006,0.036,0.011,0.055,0.016s0.039,0.01,0.061,0.014
		s0.043,0.008,0.066,0.012s0.046,0.007,0.071,0.01c0.025,0.003,0.048,0.005,0.07,0.008s0.042,0.004,0.061,0.005
		s0.036,0.003,0.052,0.003s0.03,0.001,0.043,0.001c0.1,0,0.195-0.009,0.285-0.027s0.174-0.045,0.253-0.082s0.152-0.082,0.22-0.136
		s0.13-0.118,0.187-0.191c0.057-0.073,0.108-0.153,0.152-0.243s0.082-0.187,0.114-0.293s0.057-0.22,0.076-0.343
		s0.032-0.253,0.038-0.393H16.57h-0.007h-0.007h-0.007c-0.03,0.039-0.061,0.076-0.093,0.11s-0.066,0.067-0.102,0.097
		s-0.072,0.058-0.111,0.083s-0.078,0.049-0.119,0.07s-0.083,0.039-0.125,0.055s-0.084,0.029-0.127,0.039s-0.086,0.018-0.13,0.023
		s-0.088,0.008-0.133,0.008c-0.083,0-0.161-0.006-0.234-0.017s-0.142-0.028-0.207-0.051s-0.124-0.051-0.18-0.085
		s-0.106-0.074-0.152-0.12c-0.046-0.045-0.087-0.096-0.121-0.151s-0.063-0.115-0.087-0.18s-0.04-0.134-0.052-0.208
		s-0.017-0.153-0.017-0.237c0-0.09,0.006-0.175,0.019-0.256s0.032-0.158,0.057-0.23s0.057-0.141,0.095-0.205
		s0.082-0.123,0.133-0.179c0.051-0.055,0.105-0.104,0.163-0.145s0.12-0.076,0.186-0.104s0.135-0.048,0.209-0.062
		s0.151-0.021,0.232-0.021c0.059,0,0.115,0.004,0.17,0.012s0.108,0.019,0.159,0.035s0.101,0.035,0.148,0.058s0.093,0.05,0.137,0.08
		c0.044,0.031,0.085,0.065,0.124,0.103s0.075,0.079,0.109,0.124s0.065,0.094,0.094,0.146s0.055,0.108,0.079,0.168
		c0.024,0.059,0.044,0.121,0.062,0.186s0.033,0.133,0.045,0.203s0.021,0.144,0.027,0.22S16.817,22.093,16.817,22.174z
		 M15.652,20.819c-0.064,0-0.125,0.005-0.183,0.016s-0.112,0.027-0.164,0.049s-0.099,0.049-0.144,0.081s-0.086,0.071-0.124,0.114
		c-0.038,0.043-0.072,0.09-0.1,0.142s-0.053,0.107-0.072,0.166s-0.033,0.123-0.043,0.19s-0.014,0.138-0.014,0.214
		c0,0.071,0.004,0.137,0.013,0.2s0.022,0.12,0.04,0.174s0.04,0.103,0.066,0.148s0.058,0.086,0.093,0.123s0.075,0.069,0.118,0.096
		s0.09,0.051,0.141,0.069s0.105,0.032,0.163,0.042s0.12,0.014,0.186,0.014c0.041,0,0.082-0.002,0.121-0.007s0.079-0.012,0.117-0.021
		s0.076-0.021,0.113-0.035s0.073-0.03,0.109-0.048c0.036-0.018,0.069-0.038,0.101-0.059s0.062-0.044,0.09-0.069
		s0.055-0.05,0.079-0.078s0.047-0.056,0.068-0.086c0.021-0.03,0.039-0.061,0.055-0.091s0.029-0.061,0.039-0.092
		s0.018-0.062,0.024-0.093s0.008-0.062,0.008-0.093c0-0.048-0.002-0.095-0.007-0.141s-0.012-0.092-0.021-0.136
		s-0.021-0.088-0.035-0.131s-0.031-0.085-0.049-0.127c-0.019-0.042-0.04-0.081-0.063-0.118s-0.047-0.072-0.074-0.104
		s-0.055-0.063-0.085-0.091s-0.062-0.054-0.096-0.077c-0.034-0.023-0.069-0.044-0.106-0.061s-0.075-0.032-0.114-0.044
		s-0.08-0.02-0.121-0.026S15.697,20.819,15.652,20.819z"/>
	<path class="st2" d="M18.453,22.083c0.095,0,0.185,0.006,0.27,0.017s0.165,0.029,0.24,0.052s0.145,0.052,0.21,0.086
		s0.125,0.075,0.18,0.121c0.055,0.046,0.103,0.096,0.144,0.151s0.075,0.113,0.103,0.177s0.048,0.131,0.062,0.203
		s0.021,0.148,0.021,0.229c0,0.092-0.007,0.178-0.021,0.26s-0.036,0.158-0.064,0.229s-0.064,0.137-0.107,0.198
		s-0.093,0.117-0.15,0.168c-0.057,0.051-0.119,0.095-0.187,0.133s-0.141,0.07-0.219,0.095s-0.162,0.044-0.252,0.057
		s-0.184,0.019-0.284,0.019c-0.044,0-0.088-0.001-0.131-0.003s-0.086-0.005-0.128-0.01s-0.084-0.01-0.125-0.016
		s-0.081-0.014-0.121-0.023s-0.078-0.018-0.115-0.029s-0.072-0.022-0.105-0.035s-0.065-0.026-0.095-0.04s-0.059-0.03-0.085-0.046
		v-0.063V23.95v-0.063v-0.063c0.044,0.022,0.087,0.043,0.128,0.062s0.082,0.036,0.121,0.052s0.077,0.029,0.114,0.041
		s0.072,0.023,0.106,0.031s0.069,0.016,0.104,0.023s0.071,0.012,0.108,0.016s0.073,0.008,0.111,0.01s0.076,0.003,0.114,0.003
		c0.078,0,0.152-0.005,0.223-0.016s0.137-0.026,0.2-0.047s0.121-0.047,0.176-0.078s0.106-0.067,0.153-0.108s0.089-0.086,0.124-0.135
		s0.065-0.101,0.088-0.157s0.041-0.115,0.053-0.178s0.018-0.13,0.018-0.2c0-0.066-0.006-0.129-0.017-0.188s-0.029-0.115-0.052-0.167
		s-0.052-0.101-0.086-0.145s-0.075-0.086-0.121-0.124s-0.096-0.071-0.15-0.099s-0.113-0.052-0.175-0.071s-0.129-0.033-0.2-0.042
		s-0.146-0.014-0.225-0.014c-0.053,0-0.106,0.002-0.16,0.006s-0.109,0.01-0.164,0.018s-0.111,0.018-0.168,0.03
		s-0.114,0.026-0.171,0.042l-0.037-0.024l-0.037-0.024l-0.037-0.024l-0.037-0.024l0.035-0.408l0.035-0.408l0.035-0.408l0.035-0.408
		h0.43h0.43h0.43h0.43v0.059v0.059v0.059v0.059h-0.372h-0.372h-0.372h-0.372l-0.027,0.315l-0.027,0.315l-0.027,0.315l-0.027,0.315
		c0.063-0.012,0.124-0.022,0.18-0.031s0.11-0.016,0.159-0.022s0.096-0.01,0.139-0.014S18.417,22.083,18.453,22.083z"/>
	<path class="st2" d="M21.675,21.725c0,0.092-0.004,0.179-0.011,0.259s-0.019,0.156-0.034,0.226s-0.034,0.134-0.057,0.193
		s-0.05,0.112-0.08,0.16s-0.064,0.09-0.102,0.126s-0.078,0.066-0.122,0.09s-0.091,0.042-0.142,0.054s-0.105,0.018-0.162,0.018
		c-0.054,0-0.105-0.006-0.154-0.018s-0.094-0.031-0.136-0.055s-0.082-0.055-0.119-0.092s-0.07-0.08-0.101-0.129
		c-0.031-0.049-0.057-0.103-0.08-0.162s-0.042-0.123-0.058-0.192s-0.027-0.143-0.035-0.223s-0.012-0.164-0.012-0.253
		c0-0.091,0.004-0.176,0.011-0.256s0.018-0.155,0.033-0.224s0.033-0.133,0.055-0.191s0.048-0.111,0.077-0.159
		s0.062-0.089,0.098-0.125s0.076-0.065,0.119-0.089s0.09-0.042,0.14-0.054s0.104-0.018,0.161-0.018c0.057,0,0.11,0.006,0.16,0.018
		s0.097,0.031,0.141,0.055s0.084,0.055,0.122,0.092s0.071,0.08,0.102,0.129c0.031,0.049,0.058,0.103,0.081,0.161
		s0.043,0.122,0.058,0.191s0.027,0.142,0.035,0.22S21.675,21.637,21.675,21.725z M20.511,21.725c0,0.076,0.002,0.147,0.007,0.213
		s0.011,0.128,0.021,0.185s0.021,0.109,0.034,0.157s0.03,0.09,0.048,0.128s0.039,0.071,0.063,0.1s0.05,0.052,0.078,0.071
		s0.06,0.033,0.094,0.043s0.07,0.014,0.109,0.014c0.078,0,0.147-0.019,0.206-0.057s0.108-0.095,0.147-0.171s0.069-0.171,0.088-0.285
		s0.029-0.247,0.029-0.399c0-0.075-0.003-0.145-0.008-0.211s-0.013-0.126-0.023-0.183s-0.023-0.108-0.038-0.155
		s-0.033-0.089-0.053-0.127c-0.02-0.038-0.042-0.071-0.067-0.099s-0.052-0.052-0.081-0.071s-0.061-0.033-0.094-0.042
		s-0.07-0.014-0.108-0.014c-0.039,0-0.076,0.005-0.109,0.014s-0.065,0.024-0.094,0.042s-0.055,0.042-0.078,0.071
		s-0.044,0.061-0.063,0.099c-0.018,0.038-0.034,0.08-0.048,0.127s-0.025,0.098-0.034,0.155s-0.016,0.117-0.021,0.183
		S20.511,21.65,20.511,21.725z M23.121,20.661l-0.495,0.892l-0.495,0.892l-0.495,0.892l-0.495,0.892h-0.059h-0.059h-0.059h-0.059
		l0.495-0.892l0.495-0.892l0.495-0.892l0.495-0.892h0.059h0.059h0.059H23.121z M23.755,23.161c0,0.092-0.004,0.179-0.011,0.259
		s-0.019,0.156-0.034,0.226s-0.034,0.134-0.056,0.193s-0.049,0.112-0.079,0.16s-0.064,0.09-0.101,0.126s-0.077,0.066-0.121,0.09
		s-0.091,0.042-0.141,0.054s-0.104,0.018-0.162,0.018c-0.055,0-0.108-0.006-0.157-0.019s-0.095-0.031-0.138-0.056
		s-0.083-0.056-0.12-0.093s-0.07-0.08-0.101-0.13c-0.031-0.05-0.057-0.104-0.08-0.163s-0.042-0.124-0.057-0.193
		s-0.027-0.143-0.034-0.222s-0.011-0.163-0.011-0.251c0-0.092,0.004-0.178,0.011-0.258s0.019-0.155,0.034-0.225
		s0.034-0.133,0.056-0.192s0.048-0.111,0.078-0.159c0.03-0.047,0.063-0.088,0.1-0.124s0.077-0.065,0.12-0.089s0.09-0.041,0.14-0.053
		s0.103-0.018,0.16-0.018c0.056,0,0.108,0.006,0.158,0.018s0.096,0.031,0.139,0.055s0.084,0.055,0.121,0.092
		s0.071,0.079,0.102,0.128s0.058,0.103,0.081,0.161s0.043,0.122,0.058,0.191s0.027,0.142,0.035,0.221S23.755,23.072,23.755,23.161z
		 M22.591,23.161c0,0.075,0.002,0.146,0.007,0.212s0.011,0.127,0.021,0.184s0.021,0.108,0.034,0.155s0.03,0.089,0.048,0.127
		s0.039,0.07,0.063,0.099s0.05,0.052,0.078,0.07s0.06,0.033,0.094,0.042s0.07,0.014,0.109,0.014c0.078,0,0.147-0.019,0.206-0.056
		s0.108-0.094,0.147-0.169s0.069-0.169,0.088-0.282s0.029-0.245,0.029-0.395c0-0.15-0.01-0.282-0.029-0.394
		s-0.049-0.207-0.088-0.282s-0.088-0.132-0.147-0.169s-0.128-0.056-0.206-0.056c-0.039,0-0.076,0.005-0.109,0.014
		s-0.065,0.023-0.094,0.042s-0.055,0.042-0.078,0.07s-0.044,0.06-0.063,0.098c-0.018,0.037-0.034,0.079-0.048,0.126
		s-0.025,0.099-0.034,0.155s-0.016,0.118-0.021,0.184S22.591,23.085,22.591,23.161z"/>
</g>
<g>
	<path class="st0" d="M14.878,18.643c-0.581,0-1.114-0.045-1.599-0.135s-0.92-0.225-1.307-0.405s-0.724-0.404-1.011-0.672
		s-0.524-0.581-0.711-0.938c-0.553-1.058-0.583-2.411-0.312-3.852s0.843-2.969,1.491-4.376s1.375-2.695,1.956-3.654
		s1.015-1.59,1.081-1.684l0.103-0.148l0.103-0.148l0.103-0.148l0.103-0.148l0.103,0.148l0.103,0.148l0.103,0.148l0.103,0.148
		c0.066,0.095,0.5,0.726,1.08,1.686s1.306,2.248,1.954,3.656s1.22,2.936,1.491,4.376s0.242,2.792-0.31,3.848
		c-0.186,0.357-0.423,0.669-0.711,0.938s-0.624,0.492-1.011,0.672s-0.822,0.314-1.307,0.405S15.46,18.643,14.878,18.643z
		 M14.878,2.863l-0.041,0.059l-0.041,0.059L14.755,3.04l-0.041,0.059c-0.065,0.093-0.493,0.714-1.065,1.656S12.362,6.96,11.72,8.34
		s-1.208,2.874-1.482,4.279s-0.253,2.719,0.279,3.737c0.172,0.33,0.394,0.619,0.663,0.867s0.586,0.456,0.95,0.622
		s0.776,0.291,1.234,0.374s0.963,0.125,1.514,0.125c0.551,0,1.056-0.042,1.514-0.125s0.87-0.208,1.234-0.374s0.681-0.373,0.95-0.622
		s0.49-0.537,0.663-0.867c0.531-1.016,0.551-2.329,0.277-3.733s-0.84-2.899-1.482-4.279s-1.357-2.644-1.928-3.587
		s-0.999-1.564-1.064-1.657L15.002,3.04L14.96,2.981l-0.041-0.059L14.878,2.863z"/>
</g>
<g>
	<path class="st5" d="M14.548,11.863c0,0.192-0.025,0.361-0.07,0.505s-0.109,0.264-0.189,0.36s-0.173,0.168-0.277,0.215
		s-0.217,0.072-0.335,0.072c-0.115,0-0.226-0.023-0.327-0.068s-0.193-0.114-0.27-0.205s-0.141-0.205-0.185-0.342
		s-0.07-0.297-0.071-0.479c0-0.182,0.025-0.345,0.069-0.486s0.109-0.261,0.189-0.358s0.175-0.171,0.282-0.221
		s0.224-0.075,0.347-0.075c0.126,0,0.242,0.025,0.344,0.072s0.191,0.118,0.264,0.211s0.13,0.206,0.169,0.34
		S14.548,11.691,14.548,11.863z M13.212,11.897c-0.003,0.116,0.006,0.226,0.026,0.325s0.051,0.187,0.092,0.26
		s0.092,0.132,0.152,0.172s0.129,0.063,0.207,0.063c0.081,0,0.152-0.022,0.211-0.062s0.108-0.099,0.147-0.172
		s0.067-0.162,0.086-0.261s0.028-0.211,0.028-0.33c0-0.112-0.008-0.219-0.026-0.317s-0.045-0.185-0.083-0.259
		s-0.087-0.133-0.148-0.175s-0.134-0.064-0.221-0.064c-0.076,0-0.143,0.023-0.202,0.064s-0.108,0.101-0.148,0.175
		s-0.07,0.162-0.091,0.261S13.212,11.784,13.212,11.897z M13.639,14.558l0.538-0.946l0.538-0.946l0.538-0.946l0.538-0.946h0.079
		h0.079h0.079h0.079l-0.538,0.946l-0.538,0.946l-0.538,0.946l-0.538,0.946h-0.079h-0.079h-0.079H13.639z M16.929,13.38
		c0,0.192-0.025,0.36-0.07,0.504s-0.109,0.264-0.189,0.359s-0.173,0.168-0.277,0.215s-0.217,0.072-0.335,0.072
		c-0.115,0-0.226-0.023-0.327-0.069s-0.193-0.114-0.27-0.206s-0.141-0.206-0.185-0.344s-0.07-0.298-0.071-0.482
		c0-0.182,0.025-0.345,0.069-0.486s0.109-0.261,0.189-0.358s0.175-0.171,0.282-0.221s0.224-0.075,0.347-0.075
		c0.126,0,0.242,0.025,0.344,0.072s0.191,0.119,0.264,0.211s0.13,0.207,0.169,0.342S16.929,13.205,16.929,13.38z M15.593,13.413
		c-0.003,0.116,0.006,0.226,0.026,0.325s0.051,0.187,0.092,0.26s0.092,0.132,0.152,0.173s0.129,0.063,0.207,0.063
		c0.081,0,0.152-0.022,0.211-0.062s0.108-0.099,0.147-0.173s0.067-0.163,0.086-0.263s0.028-0.213,0.028-0.334
		c0-0.111-0.008-0.217-0.026-0.314s-0.045-0.185-0.083-0.259s-0.087-0.134-0.148-0.176s-0.134-0.065-0.221-0.065
		c-0.076,0-0.143,0.023-0.202,0.064s-0.108,0.101-0.148,0.176s-0.07,0.163-0.091,0.262S15.593,13.298,15.593,13.413z"/>
</g>
<g>
	<path class="st0" d="M29.844,29.908h-7.432H14.98H7.548H0.116v-7.432v-7.432V7.611V0.179h7.432h7.432h7.432h7.432v7.432v7.432
		v7.432V29.908z M0.366,29.658h7.307h7.307h7.307h7.307V22.35v-7.307V7.736V0.429h-7.307H14.98H7.673H0.366v7.307v7.307v7.307
		V29.658z"/>
</g>
</svg>
