<?xml version="1.0" encoding="utf-8"?>
<!-- Generator: Adobe Illustrator 19.1.0, SVG Export Plug-In . SVG Version: 6.00 Build 0)  -->
<svg version="1.1" id="Layer_1" xmlns="http://www.w3.org/2000/svg" xmlns:xlink="http://www.w3.org/1999/xlink" x="0px" y="0px"
	 viewBox="0 0 29.91 30.086" style="enable-background:new 0 0 29.91 30.086;" xml:space="preserve">
<style type="text/css">
	.st0{fill:#4D4D4D;}
	.st1{fill-rule:evenodd;clip-rule:evenodd;fill:#4C4C4C;}
	.st2{fill:#4C4C4C;}
	.st3{fill:#383330;}
	.st4{fill:#1F1A17;}
	.st5{fill:#4D4C4C;}
	.st6{fill:none;stroke:#000000;stroke-width:0.3;stroke-miterlimit:10;}
	.st7{fill:#E61413;}
	.st8{fill:#5F5357;}
	.st9{fill:#115C78;}
	.st10{fill-rule:evenodd;clip-rule:evenodd;fill:#4D4D4D;}
	.st11{fill-rule:evenodd;clip-rule:evenodd;}
	.st12{fill:#FFFFFF;}
	.st13{fill:none;}
	.st14{fill:#231F20;}
	.st15{clip-path:url(#SVGID_2_);}
	.st16{clip-path:url(#SVGID_4_);fill:#FCF118;}
	.st17{clip-path:url(#SVGID_4_);fill:#FCF018;}
	.st18{clip-path:url(#SVGID_4_);fill:#FCEF18;}
	.st19{clip-path:url(#SVGID_4_);fill:#FCEE18;}
	.st20{clip-path:url(#SVGID_4_);fill:#FCED18;}
	.st21{clip-path:url(#SVGID_4_);fill:#FCEC18;}
	.st22{clip-path:url(#SVGID_4_);fill:#FCEB18;}
	.st23{clip-path:url(#SVGID_4_);fill:#FCEA18;}
	.st24{clip-path:url(#SVGID_4_);fill:#FCE918;}
	.st25{clip-path:url(#SVGID_4_);fill:#FCE818;}
	.st26{clip-path:url(#SVGID_4_);fill:#FCE718;}
	.st27{clip-path:url(#SVGID_4_);fill:#FCE617;}
	.st28{clip-path:url(#SVGID_4_);fill:#FCE517;}
	.st29{clip-path:url(#SVGID_4_);fill:#FCE417;}
	.st30{clip-path:url(#SVGID_4_);fill:#FCE317;}
	.st31{clip-path:url(#SVGID_4_);fill:#FCE217;}
	.st32{clip-path:url(#SVGID_4_);fill:#FCE117;}
	.st33{clip-path:url(#SVGID_4_);fill:#FCE017;}
	.st34{clip-path:url(#SVGID_4_);fill:#FCDF17;}
	.st35{clip-path:url(#SVGID_4_);fill:#FCDE17;}
	.st36{clip-path:url(#SVGID_4_);fill:#FCDD17;}
	.st37{clip-path:url(#SVGID_4_);fill:#FCDC17;}
	.st38{clip-path:url(#SVGID_4_);fill:#FCDB17;}
	.st39{clip-path:url(#SVGID_4_);fill:#FCDA17;}
	.st40{clip-path:url(#SVGID_4_);fill:#FCD917;}
	.st41{clip-path:url(#SVGID_4_);fill:#FCD817;}
	.st42{clip-path:url(#SVGID_4_);fill:#FCD717;}
	.st43{clip-path:url(#SVGID_4_);fill:#FCD617;}
	.st44{clip-path:url(#SVGID_4_);fill:#FCD517;}
	.st45{clip-path:url(#SVGID_4_);fill:#FCD416;}
	.st46{clip-path:url(#SVGID_4_);fill:#FCD316;}
	.st47{clip-path:url(#SVGID_4_);fill:#FBD216;}
	.st48{clip-path:url(#SVGID_4_);fill:#FBD116;}
	.st49{clip-path:url(#SVGID_4_);fill:#FBD016;}
	.st50{clip-path:url(#SVGID_4_);fill:#FBCF16;}
	.st51{clip-path:url(#SVGID_4_);fill:#FBCE16;}
	.st52{clip-path:url(#SVGID_4_);fill:#FBCD16;}
	.st53{clip-path:url(#SVGID_4_);fill:#FBCC16;}
	.st54{clip-path:url(#SVGID_4_);fill:#FBCB16;}
	.st55{clip-path:url(#SVGID_4_);fill:#FBCA16;}
	.st56{clip-path:url(#SVGID_4_);fill:#FBC916;}
	.st57{clip-path:url(#SVGID_4_);fill:#FBC816;}
	.st58{clip-path:url(#SVGID_4_);fill:#FBC716;}
	.st59{clip-path:url(#SVGID_4_);fill:#FBC616;}
	.st60{clip-path:url(#SVGID_4_);fill:#FBC516;}
	.st61{clip-path:url(#SVGID_4_);fill:#FBC416;}
	.st62{clip-path:url(#SVGID_4_);fill:#FBC316;}
	.st63{clip-path:url(#SVGID_4_);fill:#FBC216;}
	.st64{clip-path:url(#SVGID_4_);fill:#FBC115;}
	.st65{clip-path:url(#SVGID_4_);fill:#FBC015;}
	.st66{clip-path:url(#SVGID_4_);fill:#FBBF15;}
	.st67{clip-path:url(#SVGID_4_);fill:#FBBE15;}
	.st68{clip-path:url(#SVGID_4_);fill:#FBBD15;}
	.st69{clip-path:url(#SVGID_4_);fill:#FBBC15;}
	.st70{clip-path:url(#SVGID_4_);fill:#FBBB15;}
	.st71{clip-path:url(#SVGID_4_);fill:#FBBA15;}
	.st72{clip-path:url(#SVGID_4_);fill:#FBB915;}
	.st73{clip-path:url(#SVGID_4_);fill:#FBB815;}
	.st74{clip-path:url(#SVGID_4_);fill:#FBB715;}
	.st75{clip-path:url(#SVGID_4_);fill:#FBB615;}
	.st76{clip-path:url(#SVGID_4_);fill:#FBB515;}
	.st77{clip-path:url(#SVGID_4_);fill:#FBB415;}
	.st78{clip-path:url(#SVGID_4_);fill:#FBB315;}
	.st79{clip-path:url(#SVGID_4_);fill:#FBB215;}
	.st80{clip-path:url(#SVGID_4_);fill:#FBB115;}
	.st81{clip-path:url(#SVGID_4_);fill:#FBB015;}
	.st82{clip-path:url(#SVGID_4_);fill:#FBAF15;}
	.st83{clip-path:url(#SVGID_4_);fill:#FAAE15;}
	.st84{clip-path:url(#SVGID_4_);fill:#FAAD14;}
	.st85{clip-path:url(#SVGID_4_);fill:#FAAC14;}
	.st86{clip-path:url(#SVGID_4_);fill:#FAAB14;}
	.st87{clip-path:url(#SVGID_4_);fill:#FAAA14;}
	.st88{clip-path:url(#SVGID_4_);fill:#FAA914;}
	.st89{clip-path:url(#SVGID_4_);fill:#FAA814;}
	.st90{clip-path:url(#SVGID_4_);fill:#FAA714;}
	.st91{clip-path:url(#SVGID_4_);fill:#FAA614;}
	.st92{clip-path:url(#SVGID_4_);fill:#FAA514;}
	.st93{clip-path:url(#SVGID_4_);fill:#FAA414;}
	.st94{clip-path:url(#SVGID_4_);fill:#FAA314;}
	.st95{clip-path:url(#SVGID_4_);fill:#FAA214;}
	.st96{clip-path:url(#SVGID_4_);fill:#FAA114;}
	.st97{clip-path:url(#SVGID_4_);fill:#FAA014;}
	.st98{clip-path:url(#SVGID_4_);fill:#FA9F14;}
	.st99{clip-path:url(#SVGID_4_);fill:#FA9E14;}
	.st100{clip-path:url(#SVGID_4_);fill:#FA9D14;}
	.st101{clip-path:url(#SVGID_4_);fill:#FA9C14;}
	.st102{clip-path:url(#SVGID_4_);fill:#FA9B14;}
	.st103{clip-path:url(#SVGID_4_);fill:#FA9A13;}
	.st104{clip-path:url(#SVGID_4_);fill:#FA9913;}
	.st105{clip-path:url(#SVGID_4_);fill:#FA9813;}
	.st106{clip-path:url(#SVGID_4_);fill:#FA9713;}
	.st107{clip-path:url(#SVGID_4_);fill:#FA9613;}
	.st108{clip-path:url(#SVGID_4_);fill:#FA9513;}
	.st109{clip-path:url(#SVGID_4_);fill:#FA9413;}
	.st110{clip-path:url(#SVGID_4_);fill:#FA9313;}
	.st111{clip-path:url(#SVGID_4_);fill:#FA9213;}
	.st112{clip-path:url(#SVGID_4_);fill:#FA9113;}
	.st113{clip-path:url(#SVGID_4_);fill:#FA9013;}
	.st114{clip-path:url(#SVGID_4_);fill:#FA8F13;}
	.st115{clip-path:url(#SVGID_4_);fill:#FA8E13;}
	.st116{clip-path:url(#SVGID_4_);fill:#FA8D13;}
	.st117{clip-path:url(#SVGID_4_);fill:#FA8C13;}
	.st118{clip-path:url(#SVGID_4_);fill:#FA8B13;}
	.st119{clip-path:url(#SVGID_4_);fill:#FA8A13;}
	.st120{clip-path:url(#SVGID_4_);fill:#FA8913;}
	.st121{clip-path:url(#SVGID_4_);fill:#FA8812;}
	.st122{clip-path:url(#SVGID_4_);fill:#FA8712;}
	.st123{clip-path:url(#SVGID_4_);fill:#FA8612;}
	.st124{clip-path:url(#SVGID_4_);fill:#F98512;}
	.st125{clip-path:url(#SVGID_4_);fill:#F98412;}
	.st126{clip-path:url(#SVGID_4_);fill:#F98312;}
	.st127{clip-path:url(#SVGID_4_);fill:#F98212;}
	.st128{clip-path:url(#SVGID_4_);fill:#F98112;}
	.st129{clip-path:url(#SVGID_4_);fill:#F98012;}
	.st130{clip-path:url(#SVGID_4_);fill:#F97F12;}
	.st131{clip-path:url(#SVGID_4_);fill:#F97E12;}
	.st132{clip-path:url(#SVGID_4_);fill:#F97D12;}
	.st133{clip-path:url(#SVGID_4_);fill:#F97C12;}
	.st134{clip-path:url(#SVGID_4_);fill:#F97B12;}
	.st135{clip-path:url(#SVGID_4_);fill:#F97A12;}
	.st136{clip-path:url(#SVGID_4_);fill:#F97912;}
	.st137{clip-path:url(#SVGID_4_);fill:#F97812;}
	.st138{clip-path:url(#SVGID_4_);fill:#F97712;}
	.st139{clip-path:url(#SVGID_4_);fill:#F97612;}
	.st140{clip-path:url(#SVGID_4_);fill:#F97511;}
	.st141{clip-path:url(#SVGID_4_);fill:#F97411;}
	.st142{clip-path:url(#SVGID_4_);fill:#F97311;}
	.st143{clip-path:url(#SVGID_4_);fill:#F97211;}
	.st144{clip-path:url(#SVGID_4_);fill:#F97111;}
	.st145{clip-path:url(#SVGID_4_);fill:#F97011;}
	.st146{clip-path:url(#SVGID_4_);fill:#F96F11;}
	.st147{clip-path:url(#SVGID_4_);fill:#F96E11;}
	.st148{clip-path:url(#SVGID_4_);fill:#F96D11;}
	.st149{clip-path:url(#SVGID_4_);fill:#F96C11;}
	.st150{clip-path:url(#SVGID_4_);fill:#F96B11;}
	.st151{clip-path:url(#SVGID_4_);fill:#F96A11;}
	.st152{clip-path:url(#SVGID_4_);fill:#F96911;}
	.st153{clip-path:url(#SVGID_4_);fill:#F96811;}
	.st154{clip-path:url(#SVGID_4_);fill:#F96711;}
	.st155{clip-path:url(#SVGID_4_);fill:#F96611;}
	.st156{clip-path:url(#SVGID_4_);fill:#F96511;}
	.st157{clip-path:url(#SVGID_4_);fill:#F96411;}
	.st158{clip-path:url(#SVGID_4_);fill:#F96311;}
	.st159{clip-path:url(#SVGID_4_);fill:#F96210;}
	.st160{clip-path:url(#SVGID_4_);fill:#F86110;}
	.st161{clip-path:url(#SVGID_4_);fill:#F86010;}
	.st162{clip-path:url(#SVGID_4_);fill:#F85F10;}
	.st163{clip-path:url(#SVGID_4_);fill:#F85E10;}
	.st164{clip-path:url(#SVGID_4_);fill:#F85D10;}
	.st165{clip-path:url(#SVGID_4_);fill:#F85C10;}
	.st166{clip-path:url(#SVGID_4_);fill:#F85B10;}
	.st167{clip-path:url(#SVGID_4_);fill:#F85A10;}
	.st168{clip-path:url(#SVGID_4_);fill:#F85910;}
	.st169{clip-path:url(#SVGID_4_);fill:#F85810;}
	.st170{clip-path:url(#SVGID_4_);fill:#F85710;}
	.st171{clip-path:url(#SVGID_4_);fill:#F85610;}
	.st172{clip-path:url(#SVGID_4_);fill:#F85510;}
	.st173{clip-path:url(#SVGID_4_);fill:#F85410;}
	.st174{clip-path:url(#SVGID_4_);fill:#F85310;}
	.st175{clip-path:url(#SVGID_4_);fill:#F85210;}
	.st176{clip-path:url(#SVGID_4_);fill:#F85110;}
	.st177{clip-path:url(#SVGID_4_);fill:#F85010;}
	.st178{clip-path:url(#SVGID_4_);fill:#F84F0F;}
	.st179{clip-path:url(#SVGID_4_);fill:#F84E0F;}
	.st180{clip-path:url(#SVGID_4_);fill:#F84D0F;}
	.st181{clip-path:url(#SVGID_4_);fill:#F84C0F;}
	.st182{clip-path:url(#SVGID_4_);fill:#F84B0F;}
	.st183{clip-path:url(#SVGID_4_);fill:#F84A0F;}
	.st184{clip-path:url(#SVGID_4_);fill:#F8490F;}
	.st185{clip-path:url(#SVGID_4_);fill:#F8480F;}
	.st186{clip-path:url(#SVGID_4_);fill:#F8470F;}
	.st187{clip-path:url(#SVGID_4_);fill:#F8460F;}
	.st188{clip-path:url(#SVGID_4_);fill:#F8450F;}
	.st189{clip-path:url(#SVGID_4_);fill:#F8440F;}
	.st190{clip-path:url(#SVGID_4_);fill:#F8430F;}
	.st191{clip-path:url(#SVGID_4_);fill:#F8420F;}
	.st192{clip-path:url(#SVGID_4_);fill:#F8410F;}
	.st193{clip-path:url(#SVGID_4_);fill:#F8400F;}
	.st194{clip-path:url(#SVGID_4_);fill:#F83F0F;}
	.st195{clip-path:url(#SVGID_4_);fill:#F83E0E;}
	.st196{clip-path:url(#SVGID_4_);fill:#F83D0E;}
	.st197{clip-path:url(#SVGID_4_);fill:#F83C0E;}
	.st198{clip-path:url(#SVGID_4_);fill:#F83B0E;}
	.st199{clip-path:url(#SVGID_4_);fill:#F73A0E;}
	.st200{clip-path:url(#SVGID_4_);fill:#F7390E;}
	.st201{clip-path:url(#SVGID_4_);fill:#F7380E;}
	.st202{clip-path:url(#SVGID_4_);fill:#F7370E;}
	.st203{clip-path:url(#SVGID_4_);fill:#F7360E;}
	.st204{clip-path:url(#SVGID_4_);fill:#F7340E;}
	.st205{clip-path:url(#SVGID_4_);fill:#F7330E;}
	.st206{clip-path:url(#SVGID_4_);fill:#F7320E;}
	.st207{clip-path:url(#SVGID_4_);fill:#F7310E;}
	.st208{clip-path:url(#SVGID_4_);fill:#F7300E;}
	.st209{clip-path:url(#SVGID_4_);fill:#F72F0E;}
	.st210{clip-path:url(#SVGID_4_);fill:#F72E0E;}
	.st211{clip-path:url(#SVGID_4_);fill:#F72D0E;}
	.st212{clip-path:url(#SVGID_4_);fill:#F72C0E;}
	.st213{clip-path:url(#SVGID_4_);fill:#F72B0E;}
	.st214{clip-path:url(#SVGID_4_);fill:#F72B0D;}
	.st215{clip-path:url(#SVGID_4_);fill:#F72A0D;}
	.st216{clip-path:url(#SVGID_4_);fill:#F7290D;}
	.st217{clip-path:url(#SVGID_4_);fill:#F7280D;}
	.st218{clip-path:url(#SVGID_4_);fill:#F7270D;}
	.st219{clip-path:url(#SVGID_4_);fill:#F7260D;}
</style>
<g>
	<path class="st0" d="M14.966,15.289c-0.277,0-0.541-0.021-0.79-0.064s-0.482-0.105-0.7-0.188s-0.418-0.186-0.6-0.309
		s-0.347-0.266-0.492-0.427c-0.144-0.161-0.268-0.34-0.37-0.535s-0.182-0.405-0.241-0.63s-0.095-0.464-0.11-0.717
		s-0.007-0.517,0.024-0.793c0.031-0.281,0.101-0.841,0.225-1.525s0.305-1.489,0.556-2.259s0.574-1.506,0.985-2.049
		s0.909-0.893,1.512-0.893c0.558,0,1.033,0.304,1.432,0.788c0.4,0.485,0.724,1.15,0.984,1.874s0.455,1.507,0.594,2.225
		s0.223,1.373,0.261,1.841l0,0l0,0l0,0l0,0c0.023,0.285,0.024,0.558,0.003,0.816s-0.063,0.503-0.127,0.731s-0.149,0.441-0.254,0.637
		s-0.232,0.374-0.379,0.533c-0.142,0.154-0.303,0.29-0.482,0.407s-0.374,0.216-0.585,0.295s-0.439,0.139-0.68,0.18
		S15.235,15.289,14.966,15.289z M14.966,5.151c-0.561,0-1.027,0.365-1.41,0.922s-0.685,1.308-0.919,2.079s-0.4,1.563-0.512,2.204
		s-0.171,1.13-0.189,1.297c-0.028,0.258-0.036,0.505-0.023,0.74s0.046,0.457,0.1,0.666s0.127,0.404,0.22,0.583
		s0.206,0.344,0.339,0.492c0.133,0.148,0.284,0.279,0.452,0.391s0.354,0.207,0.555,0.283s0.419,0.134,0.65,0.172
		s0.478,0.058,0.737,0.058c0.251,0,0.49-0.019,0.714-0.055s0.436-0.092,0.632-0.164s0.377-0.163,0.541-0.27s0.312-0.232,0.442-0.373
		c0.135-0.146,0.251-0.31,0.348-0.491s0.175-0.378,0.233-0.591s0.097-0.44,0.116-0.682s0.018-0.497-0.004-0.764
		c-0.034-0.422-0.113-1.038-0.244-1.727s-0.314-1.448-0.556-2.155s-0.543-1.361-0.911-1.839C15.909,5.452,15.475,5.151,14.966,5.151
		z"/>
</g>
<g>
	<path class="st8" d="M14.966,15.289c-0.277,0-0.541-0.021-0.79-0.064s-0.482-0.105-0.7-0.188s-0.418-0.186-0.6-0.309
		s-0.347-0.266-0.492-0.427c-0.144-0.161-0.268-0.34-0.37-0.535s-0.182-0.405-0.241-0.63s-0.095-0.464-0.11-0.717
		s-0.007-0.517,0.024-0.793c0.031-0.281,0.101-0.841,0.225-1.525s0.305-1.489,0.556-2.259s0.574-1.506,0.985-2.049
		s0.909-0.893,1.512-0.893c0.558,0,1.033,0.304,1.432,0.788c0.4,0.485,0.724,1.15,0.984,1.874s0.455,1.507,0.594,2.225
		s0.223,1.373,0.261,1.841l0,0l0,0l0,0l0,0c0.023,0.285,0.024,0.558,0.003,0.816s-0.063,0.503-0.127,0.731s-0.149,0.441-0.254,0.637
		s-0.232,0.374-0.379,0.533c-0.142,0.154-0.303,0.29-0.482,0.407s-0.374,0.216-0.585,0.295s-0.439,0.139-0.68,0.18
		S15.235,15.289,14.966,15.289z M14.966,5.151c-0.561,0-1.027,0.365-1.41,0.922s-0.685,1.308-0.919,2.079s-0.4,1.563-0.512,2.204
		s-0.171,1.13-0.189,1.297c-0.028,0.258-0.036,0.505-0.023,0.74s0.046,0.457,0.1,0.666s0.127,0.404,0.22,0.583
		s0.206,0.344,0.339,0.492c0.133,0.148,0.284,0.279,0.452,0.391s0.354,0.207,0.555,0.283s0.419,0.134,0.65,0.172
		s0.478,0.058,0.737,0.058c0.251,0,0.49-0.019,0.714-0.055s0.436-0.092,0.632-0.164s0.377-0.163,0.541-0.27s0.312-0.232,0.442-0.373
		c0.135-0.146,0.251-0.31,0.348-0.491s0.175-0.378,0.233-0.591s0.097-0.44,0.116-0.682s0.018-0.497-0.004-0.764
		c-0.034-0.422-0.113-1.038-0.244-1.727s-0.314-1.448-0.556-2.155s-0.543-1.361-0.911-1.839C15.909,5.452,15.475,5.151,14.966,5.151
		z"/>
</g>
<g>
	<path class="st0" d="M14.966,15.289c-0.277,0-0.541-0.021-0.79-0.064s-0.482-0.105-0.7-0.188s-0.418-0.186-0.6-0.309
		s-0.347-0.266-0.492-0.427c-0.144-0.161-0.268-0.34-0.37-0.535s-0.182-0.405-0.241-0.63s-0.095-0.464-0.11-0.717
		s-0.007-0.517,0.024-0.793c0.031-0.281,0.101-0.841,0.225-1.525s0.305-1.489,0.556-2.259s0.574-1.506,0.985-2.049
		s0.909-0.893,1.512-0.893c0.558,0,1.033,0.304,1.432,0.788c0.4,0.485,0.724,1.15,0.984,1.874s0.455,1.507,0.594,2.225
		s0.223,1.373,0.261,1.841l0,0l0,0l0,0l0,0c0.023,0.285,0.024,0.558,0.003,0.816s-0.063,0.503-0.127,0.731s-0.149,0.441-0.254,0.637
		s-0.232,0.374-0.379,0.533c-0.142,0.154-0.303,0.29-0.482,0.407s-0.374,0.216-0.585,0.295s-0.439,0.139-0.68,0.18
		S15.235,15.289,14.966,15.289z M14.966,5.151c-0.561,0-1.027,0.365-1.41,0.922s-0.685,1.308-0.919,2.079s-0.4,1.563-0.512,2.204
		s-0.171,1.13-0.189,1.297c-0.028,0.258-0.036,0.505-0.023,0.74s0.046,0.457,0.1,0.666s0.127,0.404,0.22,0.583
		s0.206,0.344,0.339,0.492c0.133,0.148,0.284,0.279,0.452,0.391s0.354,0.207,0.555,0.283s0.419,0.134,0.65,0.172
		s0.478,0.058,0.737,0.058c0.251,0,0.49-0.019,0.714-0.055s0.436-0.092,0.632-0.164s0.377-0.163,0.541-0.27s0.312-0.232,0.442-0.373
		c0.135-0.146,0.251-0.31,0.348-0.491s0.175-0.378,0.233-0.591s0.097-0.44,0.116-0.682s0.018-0.497-0.004-0.764
		c-0.034-0.422-0.113-1.038-0.244-1.727s-0.314-1.448-0.556-2.155s-0.543-1.361-0.911-1.839C15.909,5.452,15.475,5.151,14.966,5.151
		z"/>
</g>
<g>
	<polygon class="st8" points="15.08,15.164 15.017,15.164 14.955,15.164 14.892,15.164 14.83,15.164 14.83,12.661 14.83,10.157 
		14.83,7.654 14.83,5.15 13.218,5.15 11.605,5.15 9.993,5.15 8.381,5.15 8.381,5.088 8.381,5.025 8.381,4.963 8.381,4.9 11.668,4.9 
		14.955,4.9 18.243,4.9 21.53,4.9 21.53,4.963 21.53,5.025 21.53,5.088 21.53,5.15 19.917,5.15 18.305,5.15 16.692,5.15 15.08,5.15 
		15.08,7.654 15.08,10.157 15.08,12.661 	"/>
</g>
<g>
	<path class="st2" d="M11.053,24.059v-0.892v-0.892v-0.892V20.49h0.063h0.063h0.063h0.063v0.892v0.892v0.892v0.892h-0.063h-0.063
		h-0.063H11.053z"/>
	<path class="st2" d="M14.301,24.059h-0.493h-0.493h-0.493h-0.493v-0.892v-0.892v-0.892V20.49h0.493h0.493h0.493h0.493v0.057v0.057
		v0.057v0.057h-0.43h-0.43h-0.43h-0.43v0.337v0.337v0.337v0.337h0.406h0.406h0.406h0.406v0.058v0.058v0.058v0.058h-0.406h-0.406
		h-0.406H12.58v0.383v0.383v0.383v0.383h0.43h0.43h0.43h0.43v0.057v0.057v0.057V24.059z"/>
	<path class="st2" d="M17.111,23.139c0,0.074-0.007,0.145-0.021,0.211s-0.035,0.129-0.062,0.188s-0.062,0.114-0.104,0.165
		s-0.09,0.099-0.145,0.142c-0.055,0.044-0.115,0.082-0.179,0.115s-0.133,0.06-0.207,0.082s-0.152,0.038-0.235,0.049
		s-0.17,0.016-0.262,0.016c-0.11,0-0.214-0.003-0.312-0.009s-0.188-0.015-0.273-0.027s-0.163-0.027-0.234-0.045
		s-0.137-0.039-0.196-0.063v-0.062v-0.062v-0.062v-0.062c0.065,0.027,0.134,0.051,0.208,0.071s0.152,0.037,0.235,0.051
		s0.17,0.024,0.262,0.031s0.188,0.01,0.289,0.01c0.074,0,0.144-0.004,0.211-0.013s0.129-0.021,0.188-0.038s0.114-0.038,0.165-0.063
		s0.098-0.054,0.142-0.088c0.043-0.034,0.081-0.07,0.114-0.109s0.06-0.08,0.081-0.124s0.038-0.091,0.049-0.14
		s0.016-0.101,0.016-0.155c0-0.034-0.002-0.066-0.005-0.097s-0.009-0.06-0.016-0.088s-0.016-0.054-0.027-0.079
		s-0.023-0.049-0.038-0.071s-0.031-0.044-0.05-0.065s-0.04-0.042-0.064-0.062s-0.049-0.04-0.077-0.059s-0.058-0.038-0.091-0.056
		s-0.069-0.037-0.109-0.056s-0.084-0.038-0.132-0.058s-0.099-0.04-0.155-0.06s-0.115-0.041-0.178-0.063
		c-0.092-0.031-0.177-0.063-0.255-0.096s-0.149-0.066-0.212-0.1s-0.12-0.068-0.17-0.104s-0.092-0.071-0.127-0.107
		s-0.066-0.076-0.092-0.118s-0.049-0.088-0.066-0.136s-0.031-0.1-0.04-0.155s-0.013-0.112-0.013-0.173
		c0-0.067,0.007-0.13,0.02-0.191s0.033-0.118,0.06-0.172s0.06-0.106,0.099-0.154s0.086-0.094,0.139-0.136
		c0.053-0.042,0.11-0.079,0.17-0.11s0.125-0.058,0.193-0.079s0.14-0.037,0.215-0.048s0.155-0.016,0.238-0.016
		c0.085,0,0.168,0.004,0.25,0.012s0.163,0.02,0.243,0.036s0.158,0.036,0.235,0.06s0.153,0.052,0.227,0.083l-0.023,0.054
		l-0.023,0.054l-0.023,0.054l-0.023,0.054c-0.075-0.031-0.149-0.058-0.222-0.081s-0.146-0.043-0.217-0.058s-0.142-0.027-0.212-0.035
		s-0.139-0.012-0.207-0.012c-0.067,0-0.13,0.004-0.19,0.011s-0.116,0.019-0.169,0.034s-0.103,0.034-0.149,0.057
		s-0.089,0.05-0.129,0.08s-0.074,0.064-0.104,0.1s-0.054,0.075-0.074,0.116s-0.035,0.086-0.044,0.133s-0.015,0.097-0.015,0.149
		c0,0.033,0.002,0.064,0.005,0.094s0.008,0.059,0.014,0.086s0.014,0.053,0.023,0.077s0.02,0.047,0.032,0.068
		c0.012,0.021,0.026,0.042,0.042,0.062s0.034,0.04,0.054,0.058s0.042,0.037,0.066,0.055s0.049,0.035,0.077,0.052
		s0.06,0.035,0.097,0.053s0.08,0.038,0.127,0.058s0.099,0.041,0.157,0.063s0.119,0.045,0.186,0.068
		c0.071,0.024,0.137,0.048,0.198,0.071s0.119,0.047,0.172,0.07s0.101,0.046,0.145,0.069s0.084,0.046,0.119,0.068
		c0.035,0.023,0.068,0.046,0.099,0.07s0.059,0.049,0.085,0.075s0.049,0.052,0.07,0.079s0.04,0.055,0.056,0.083
		c0.016,0.029,0.03,0.059,0.042,0.091s0.022,0.065,0.03,0.1s0.014,0.071,0.018,0.109S17.111,23.098,17.111,23.139z"/>
</g>
<g>
	<path class="st0" d="M29.819,29.908h-7.432h-7.432H7.523H0.091v-7.432v-7.432V7.611V0.179h7.432h7.432h7.432h7.432v7.432v7.432
		v7.432V29.908z M0.341,29.658h7.307h7.307h7.307h7.307V22.35v-7.307V7.736V0.429h-7.307h-7.307H7.648H0.341v7.307v7.307v7.307
		V29.658z"/>
</g>
</svg>
