<?xml version="1.0" encoding="utf-8"?>
<!-- Generator: Adobe Illustrator 19.1.0, SVG Export Plug-In . SVG Version: 6.00 Build 0)  -->
<svg version="1.1" id="Layer_1" xmlns="http://www.w3.org/2000/svg" xmlns:xlink="http://www.w3.org/1999/xlink" x="0px" y="0px"
	 viewBox="0 0 126.038 26.342" style="enable-background:new 0 0 126.038 26.342;" xml:space="preserve">
<style type="text/css">
	.st0{fill:#4D4D4D;}
	.st1{fill-rule:evenodd;clip-rule:evenodd;fill:#4C4C4C;}
	.st2{fill:#4C4C4C;}
	.st3{fill:#383330;}
	.st4{fill:#1F1A17;}
	.st5{fill:#4D4C4C;}
	.st6{fill:none;stroke:#000000;stroke-width:0.3;stroke-miterlimit:10;}
	.st7{fill:#E61413;}
	.st8{fill:#5F5357;}
	.st9{fill:#115C78;}
	.st10{fill-rule:evenodd;clip-rule:evenodd;fill:#4D4D4D;}
	.st11{fill-rule:evenodd;clip-rule:evenodd;}
	.st12{fill:#FFFFFF;}
	.st13{fill:none;}
	.st14{fill:#231F20;}
	.st15{clip-path:url(#SVGID_2_);}
	.st16{clip-path:url(#SVGID_4_);fill:#FCF118;}
	.st17{clip-path:url(#SVGID_4_);fill:#FCF018;}
	.st18{clip-path:url(#SVGID_4_);fill:#FCEF18;}
	.st19{clip-path:url(#SVGID_4_);fill:#FCEE18;}
	.st20{clip-path:url(#SVGID_4_);fill:#FCED18;}
	.st21{clip-path:url(#SVGID_4_);fill:#FCEC18;}
	.st22{clip-path:url(#SVGID_4_);fill:#FCEB18;}
	.st23{clip-path:url(#SVGID_4_);fill:#FCEA18;}
	.st24{clip-path:url(#SVGID_4_);fill:#FCE918;}
	.st25{clip-path:url(#SVGID_4_);fill:#FCE818;}
	.st26{clip-path:url(#SVGID_4_);fill:#FCE718;}
	.st27{clip-path:url(#SVGID_4_);fill:#FCE617;}
	.st28{clip-path:url(#SVGID_4_);fill:#FCE517;}
	.st29{clip-path:url(#SVGID_4_);fill:#FCE417;}
	.st30{clip-path:url(#SVGID_4_);fill:#FCE317;}
	.st31{clip-path:url(#SVGID_4_);fill:#FCE217;}
	.st32{clip-path:url(#SVGID_4_);fill:#FCE117;}
	.st33{clip-path:url(#SVGID_4_);fill:#FCE017;}
	.st34{clip-path:url(#SVGID_4_);fill:#FCDF17;}
	.st35{clip-path:url(#SVGID_4_);fill:#FCDE17;}
	.st36{clip-path:url(#SVGID_4_);fill:#FCDD17;}
	.st37{clip-path:url(#SVGID_4_);fill:#FCDC17;}
	.st38{clip-path:url(#SVGID_4_);fill:#FCDB17;}
	.st39{clip-path:url(#SVGID_4_);fill:#FCDA17;}
	.st40{clip-path:url(#SVGID_4_);fill:#FCD917;}
	.st41{clip-path:url(#SVGID_4_);fill:#FCD817;}
	.st42{clip-path:url(#SVGID_4_);fill:#FCD717;}
	.st43{clip-path:url(#SVGID_4_);fill:#FCD617;}
	.st44{clip-path:url(#SVGID_4_);fill:#FCD517;}
	.st45{clip-path:url(#SVGID_4_);fill:#FCD416;}
	.st46{clip-path:url(#SVGID_4_);fill:#FCD316;}
	.st47{clip-path:url(#SVGID_4_);fill:#FBD216;}
	.st48{clip-path:url(#SVGID_4_);fill:#FBD116;}
	.st49{clip-path:url(#SVGID_4_);fill:#FBD016;}
	.st50{clip-path:url(#SVGID_4_);fill:#FBCF16;}
	.st51{clip-path:url(#SVGID_4_);fill:#FBCE16;}
	.st52{clip-path:url(#SVGID_4_);fill:#FBCD16;}
	.st53{clip-path:url(#SVGID_4_);fill:#FBCC16;}
	.st54{clip-path:url(#SVGID_4_);fill:#FBCB16;}
	.st55{clip-path:url(#SVGID_4_);fill:#FBCA16;}
	.st56{clip-path:url(#SVGID_4_);fill:#FBC916;}
	.st57{clip-path:url(#SVGID_4_);fill:#FBC816;}
	.st58{clip-path:url(#SVGID_4_);fill:#FBC716;}
	.st59{clip-path:url(#SVGID_4_);fill:#FBC616;}
	.st60{clip-path:url(#SVGID_4_);fill:#FBC516;}
	.st61{clip-path:url(#SVGID_4_);fill:#FBC416;}
	.st62{clip-path:url(#SVGID_4_);fill:#FBC316;}
	.st63{clip-path:url(#SVGID_4_);fill:#FBC216;}
	.st64{clip-path:url(#SVGID_4_);fill:#FBC115;}
	.st65{clip-path:url(#SVGID_4_);fill:#FBC015;}
	.st66{clip-path:url(#SVGID_4_);fill:#FBBF15;}
	.st67{clip-path:url(#SVGID_4_);fill:#FBBE15;}
	.st68{clip-path:url(#SVGID_4_);fill:#FBBD15;}
	.st69{clip-path:url(#SVGID_4_);fill:#FBBC15;}
	.st70{clip-path:url(#SVGID_4_);fill:#FBBB15;}
	.st71{clip-path:url(#SVGID_4_);fill:#FBBA15;}
	.st72{clip-path:url(#SVGID_4_);fill:#FBB915;}
	.st73{clip-path:url(#SVGID_4_);fill:#FBB815;}
	.st74{clip-path:url(#SVGID_4_);fill:#FBB715;}
	.st75{clip-path:url(#SVGID_4_);fill:#FBB615;}
	.st76{clip-path:url(#SVGID_4_);fill:#FBB515;}
	.st77{clip-path:url(#SVGID_4_);fill:#FBB415;}
	.st78{clip-path:url(#SVGID_4_);fill:#FBB315;}
	.st79{clip-path:url(#SVGID_4_);fill:#FBB215;}
	.st80{clip-path:url(#SVGID_4_);fill:#FBB115;}
	.st81{clip-path:url(#SVGID_4_);fill:#FBB015;}
	.st82{clip-path:url(#SVGID_4_);fill:#FBAF15;}
	.st83{clip-path:url(#SVGID_4_);fill:#FAAE15;}
	.st84{clip-path:url(#SVGID_4_);fill:#FAAD14;}
	.st85{clip-path:url(#SVGID_4_);fill:#FAAC14;}
	.st86{clip-path:url(#SVGID_4_);fill:#FAAB14;}
	.st87{clip-path:url(#SVGID_4_);fill:#FAAA14;}
	.st88{clip-path:url(#SVGID_4_);fill:#FAA914;}
	.st89{clip-path:url(#SVGID_4_);fill:#FAA814;}
	.st90{clip-path:url(#SVGID_4_);fill:#FAA714;}
	.st91{clip-path:url(#SVGID_4_);fill:#FAA614;}
	.st92{clip-path:url(#SVGID_4_);fill:#FAA514;}
	.st93{clip-path:url(#SVGID_4_);fill:#FAA414;}
	.st94{clip-path:url(#SVGID_4_);fill:#FAA314;}
	.st95{clip-path:url(#SVGID_4_);fill:#FAA214;}
	.st96{clip-path:url(#SVGID_4_);fill:#FAA114;}
	.st97{clip-path:url(#SVGID_4_);fill:#FAA014;}
	.st98{clip-path:url(#SVGID_4_);fill:#FA9F14;}
	.st99{clip-path:url(#SVGID_4_);fill:#FA9E14;}
	.st100{clip-path:url(#SVGID_4_);fill:#FA9D14;}
	.st101{clip-path:url(#SVGID_4_);fill:#FA9C14;}
	.st102{clip-path:url(#SVGID_4_);fill:#FA9B14;}
	.st103{clip-path:url(#SVGID_4_);fill:#FA9A13;}
	.st104{clip-path:url(#SVGID_4_);fill:#FA9913;}
	.st105{clip-path:url(#SVGID_4_);fill:#FA9813;}
	.st106{clip-path:url(#SVGID_4_);fill:#FA9713;}
	.st107{clip-path:url(#SVGID_4_);fill:#FA9613;}
	.st108{clip-path:url(#SVGID_4_);fill:#FA9513;}
	.st109{clip-path:url(#SVGID_4_);fill:#FA9413;}
	.st110{clip-path:url(#SVGID_4_);fill:#FA9313;}
	.st111{clip-path:url(#SVGID_4_);fill:#FA9213;}
	.st112{clip-path:url(#SVGID_4_);fill:#FA9113;}
	.st113{clip-path:url(#SVGID_4_);fill:#FA9013;}
	.st114{clip-path:url(#SVGID_4_);fill:#FA8F13;}
	.st115{clip-path:url(#SVGID_4_);fill:#FA8E13;}
	.st116{clip-path:url(#SVGID_4_);fill:#FA8D13;}
	.st117{clip-path:url(#SVGID_4_);fill:#FA8C13;}
	.st118{clip-path:url(#SVGID_4_);fill:#FA8B13;}
	.st119{clip-path:url(#SVGID_4_);fill:#FA8A13;}
	.st120{clip-path:url(#SVGID_4_);fill:#FA8913;}
	.st121{clip-path:url(#SVGID_4_);fill:#FA8812;}
	.st122{clip-path:url(#SVGID_4_);fill:#FA8712;}
	.st123{clip-path:url(#SVGID_4_);fill:#FA8612;}
	.st124{clip-path:url(#SVGID_4_);fill:#F98512;}
	.st125{clip-path:url(#SVGID_4_);fill:#F98412;}
	.st126{clip-path:url(#SVGID_4_);fill:#F98312;}
	.st127{clip-path:url(#SVGID_4_);fill:#F98212;}
	.st128{clip-path:url(#SVGID_4_);fill:#F98112;}
	.st129{clip-path:url(#SVGID_4_);fill:#F98012;}
	.st130{clip-path:url(#SVGID_4_);fill:#F97F12;}
	.st131{clip-path:url(#SVGID_4_);fill:#F97E12;}
	.st132{clip-path:url(#SVGID_4_);fill:#F97D12;}
	.st133{clip-path:url(#SVGID_4_);fill:#F97C12;}
	.st134{clip-path:url(#SVGID_4_);fill:#F97B12;}
	.st135{clip-path:url(#SVGID_4_);fill:#F97A12;}
	.st136{clip-path:url(#SVGID_4_);fill:#F97912;}
	.st137{clip-path:url(#SVGID_4_);fill:#F97812;}
	.st138{clip-path:url(#SVGID_4_);fill:#F97712;}
	.st139{clip-path:url(#SVGID_4_);fill:#F97612;}
	.st140{clip-path:url(#SVGID_4_);fill:#F97511;}
	.st141{clip-path:url(#SVGID_4_);fill:#F97411;}
	.st142{clip-path:url(#SVGID_4_);fill:#F97311;}
	.st143{clip-path:url(#SVGID_4_);fill:#F97211;}
	.st144{clip-path:url(#SVGID_4_);fill:#F97111;}
	.st145{clip-path:url(#SVGID_4_);fill:#F97011;}
	.st146{clip-path:url(#SVGID_4_);fill:#F96F11;}
	.st147{clip-path:url(#SVGID_4_);fill:#F96E11;}
	.st148{clip-path:url(#SVGID_4_);fill:#F96D11;}
	.st149{clip-path:url(#SVGID_4_);fill:#F96C11;}
	.st150{clip-path:url(#SVGID_4_);fill:#F96B11;}
	.st151{clip-path:url(#SVGID_4_);fill:#F96A11;}
	.st152{clip-path:url(#SVGID_4_);fill:#F96911;}
	.st153{clip-path:url(#SVGID_4_);fill:#F96811;}
	.st154{clip-path:url(#SVGID_4_);fill:#F96711;}
	.st155{clip-path:url(#SVGID_4_);fill:#F96611;}
	.st156{clip-path:url(#SVGID_4_);fill:#F96511;}
	.st157{clip-path:url(#SVGID_4_);fill:#F96411;}
	.st158{clip-path:url(#SVGID_4_);fill:#F96311;}
	.st159{clip-path:url(#SVGID_4_);fill:#F96210;}
	.st160{clip-path:url(#SVGID_4_);fill:#F86110;}
	.st161{clip-path:url(#SVGID_4_);fill:#F86010;}
	.st162{clip-path:url(#SVGID_4_);fill:#F85F10;}
	.st163{clip-path:url(#SVGID_4_);fill:#F85E10;}
	.st164{clip-path:url(#SVGID_4_);fill:#F85D10;}
	.st165{clip-path:url(#SVGID_4_);fill:#F85C10;}
	.st166{clip-path:url(#SVGID_4_);fill:#F85B10;}
	.st167{clip-path:url(#SVGID_4_);fill:#F85A10;}
	.st168{clip-path:url(#SVGID_4_);fill:#F85910;}
	.st169{clip-path:url(#SVGID_4_);fill:#F85810;}
	.st170{clip-path:url(#SVGID_4_);fill:#F85710;}
	.st171{clip-path:url(#SVGID_4_);fill:#F85610;}
	.st172{clip-path:url(#SVGID_4_);fill:#F85510;}
	.st173{clip-path:url(#SVGID_4_);fill:#F85410;}
	.st174{clip-path:url(#SVGID_4_);fill:#F85310;}
	.st175{clip-path:url(#SVGID_4_);fill:#F85210;}
	.st176{clip-path:url(#SVGID_4_);fill:#F85110;}
	.st177{clip-path:url(#SVGID_4_);fill:#F85010;}
	.st178{clip-path:url(#SVGID_4_);fill:#F84F0F;}
	.st179{clip-path:url(#SVGID_4_);fill:#F84E0F;}
	.st180{clip-path:url(#SVGID_4_);fill:#F84D0F;}
	.st181{clip-path:url(#SVGID_4_);fill:#F84C0F;}
	.st182{clip-path:url(#SVGID_4_);fill:#F84B0F;}
	.st183{clip-path:url(#SVGID_4_);fill:#F84A0F;}
	.st184{clip-path:url(#SVGID_4_);fill:#F8490F;}
	.st185{clip-path:url(#SVGID_4_);fill:#F8480F;}
	.st186{clip-path:url(#SVGID_4_);fill:#F8470F;}
	.st187{clip-path:url(#SVGID_4_);fill:#F8460F;}
	.st188{clip-path:url(#SVGID_4_);fill:#F8450F;}
	.st189{clip-path:url(#SVGID_4_);fill:#F8440F;}
	.st190{clip-path:url(#SVGID_4_);fill:#F8430F;}
	.st191{clip-path:url(#SVGID_4_);fill:#F8420F;}
	.st192{clip-path:url(#SVGID_4_);fill:#F8410F;}
	.st193{clip-path:url(#SVGID_4_);fill:#F8400F;}
	.st194{clip-path:url(#SVGID_4_);fill:#F83F0F;}
	.st195{clip-path:url(#SVGID_4_);fill:#F83E0E;}
	.st196{clip-path:url(#SVGID_4_);fill:#F83D0E;}
	.st197{clip-path:url(#SVGID_4_);fill:#F83C0E;}
	.st198{clip-path:url(#SVGID_4_);fill:#F83B0E;}
	.st199{clip-path:url(#SVGID_4_);fill:#F73A0E;}
	.st200{clip-path:url(#SVGID_4_);fill:#F7390E;}
	.st201{clip-path:url(#SVGID_4_);fill:#F7380E;}
	.st202{clip-path:url(#SVGID_4_);fill:#F7370E;}
	.st203{clip-path:url(#SVGID_4_);fill:#F7360E;}
	.st204{clip-path:url(#SVGID_4_);fill:#F7340E;}
	.st205{clip-path:url(#SVGID_4_);fill:#F7330E;}
	.st206{clip-path:url(#SVGID_4_);fill:#F7320E;}
	.st207{clip-path:url(#SVGID_4_);fill:#F7310E;}
	.st208{clip-path:url(#SVGID_4_);fill:#F7300E;}
	.st209{clip-path:url(#SVGID_4_);fill:#F72F0E;}
	.st210{clip-path:url(#SVGID_4_);fill:#F72E0E;}
	.st211{clip-path:url(#SVGID_4_);fill:#F72D0E;}
	.st212{clip-path:url(#SVGID_4_);fill:#F72C0E;}
	.st213{clip-path:url(#SVGID_4_);fill:#F72B0E;}
	.st214{clip-path:url(#SVGID_4_);fill:#F72B0D;}
	.st215{clip-path:url(#SVGID_4_);fill:#F72A0D;}
	.st216{clip-path:url(#SVGID_4_);fill:#F7290D;}
	.st217{clip-path:url(#SVGID_4_);fill:#F7280D;}
	.st218{clip-path:url(#SVGID_4_);fill:#F7270D;}
	.st219{clip-path:url(#SVGID_4_);fill:#F7260D;}
</style>
<g>
	<polygon points="11.3,5.73 11.125,6.651 10.951,7.571 10.776,8.492 10.602,9.412 11.604,9.412 12.607,9.412 13.609,9.412 
		14.612,9.412 14.786,8.492 14.961,7.571 15.135,6.651 15.31,5.73 14.307,5.73 13.305,5.73 12.302,5.73 	"/>
</g>
<g>
	<polygon points="8.604,21.5 9.571,21.5 10.538,21.5 11.505,21.5 12.472,21.5 12.853,19.12 13.234,16.74 13.615,14.359 
		13.997,11.979 13.03,11.979 12.063,11.979 11.095,11.979 10.128,11.979 9.747,14.359 9.366,16.74 8.985,19.12 	"/>
</g>
<g>
	<polygon points="19.887,12.032 20.002,11.382 20.118,10.732 20.233,10.082 20.348,9.432 22.141,9.432 23.934,9.432 25.726,9.432 
		27.519,9.432 27.682,8.518 27.845,7.603 28.007,6.688 28.17,5.774 25.4,5.774 22.63,5.774 19.859,5.774 17.089,5.774 16.397,9.705 
		15.704,13.637 15.012,17.569 14.319,21.501 15.297,21.501 16.274,21.501 17.252,21.501 18.229,21.501 18.482,20.048 18.734,18.596 
		18.987,17.143 19.239,15.691 20.856,15.691 22.472,15.691 24.089,15.691 25.705,15.691 25.86,14.776 26.015,13.861 26.17,12.946 
		26.325,12.032 24.716,12.032 23.106,12.032 21.497,12.032 	"/>
</g>
<g>
	<polygon points="30.74,17.739 31.265,14.748 31.79,11.756 32.316,8.765 32.841,5.774 31.869,5.774 30.897,5.774 29.925,5.774 
		28.953,5.774 28.26,9.705 27.568,13.637 26.875,17.569 26.183,21.5 28.816,21.5 31.449,21.5 34.083,21.5 36.716,21.5 36.884,20.56 
		37.052,19.62 37.221,18.68 37.389,17.739 35.727,17.739 34.064,17.739 32.402,17.739 	"/>
</g>
<g>
	<polygon points="51.024,9.432 51.187,8.518 51.35,7.603 51.512,6.688 51.675,5.774 48.829,5.774 45.983,5.774 43.137,5.774 
		40.291,5.774 39.599,9.705 38.906,13.637 38.213,17.569 37.521,21.5 40.392,21.5 43.262,21.5 46.133,21.5 49.004,21.5 
		49.167,20.586 49.329,19.671 49.492,18.756 49.655,17.841 47.755,17.841 45.855,17.841 43.956,17.841 42.056,17.841 42.172,17.171 
		42.288,16.501 42.405,15.831 42.521,15.16 44.172,15.16 45.823,15.16 47.473,15.16 49.124,15.16 49.287,14.251 49.45,13.341 
		49.614,12.431 49.777,11.521 48.126,11.521 46.474,11.521 44.823,11.521 43.172,11.521 43.266,10.999 43.36,10.477 43.455,9.955 
		43.549,9.432 45.418,9.432 47.287,9.432 49.155,9.432 	"/>
</g>
<g>
	<polygon points="112.495,7.605 110.586,7.605 108.677,7.605 106.768,7.605 104.859,7.605 104.662,8.796 104.465,9.987 
		104.268,11.178 104.071,12.369 105.763,12.369 107.455,12.369 109.147,12.369 110.839,12.369 110.763,12.829 110.688,13.289 
		110.612,13.748 110.536,14.208 108.854,14.208 107.173,14.208 105.491,14.208 103.809,14.208 103.587,15.566 103.364,16.923 
		103.142,18.281 102.92,19.638 104.849,19.638 106.778,19.638 108.708,19.638 110.637,19.638 110.571,20.098 110.505,20.558 
		110.44,21.017 110.374,21.477 107.985,21.477 105.596,21.477 103.208,21.477 100.819,21.477 101.445,17.549 102.071,13.622 
		102.698,9.694 103.324,5.766 105.687,5.766 108.051,5.766 110.415,5.766 112.778,5.766 112.707,6.226 112.637,6.686 112.566,7.145 
			"/>
</g>
<g>
	<path d="M99.646,12.001c0.06-0.089,0.116-0.179,0.169-0.272s0.103-0.187,0.149-0.283c0.046-0.096,0.089-0.194,0.129-0.294
		c0.039-0.1,0.076-0.202,0.108-0.305c0.033-0.103,0.061-0.207,0.086-0.31s0.045-0.207,0.062-0.31s0.029-0.207,0.037-0.31
		c0.008-0.103,0.012-0.207,0.012-0.31c0-0.144-0.006-0.285-0.017-0.423s-0.029-0.272-0.052-0.404
		c-0.023-0.131-0.052-0.259-0.086-0.384c-0.034-0.125-0.074-0.246-0.12-0.365c-0.046-0.118-0.097-0.233-0.152-0.342
		c-0.055-0.11-0.116-0.215-0.18-0.316s-0.134-0.197-0.209-0.289s-0.153-0.18-0.237-0.263c-0.084-0.083-0.172-0.162-0.263-0.236
		s-0.188-0.143-0.288-0.208s-0.204-0.125-0.312-0.18s-0.22-0.106-0.336-0.153c-0.116-0.046-0.236-0.087-0.358-0.121
		c-0.122-0.035-0.248-0.064-0.377-0.087c-0.129-0.023-0.261-0.041-0.396-0.052C96.88,5.771,96.742,5.766,96.6,5.766h-0.038h-0.038
		h-0.038H96.45h-1.376h-1.376H92.32h-1.376h-0.41h-0.41h-0.41h-0.41h-0.454h-0.454h-0.454h-0.454h0h0h0h0l-0.419,2.598l-0.419,2.598
		l-0.419,2.598l-0.419,2.598c-0.02,0.133-0.044,0.264-0.072,0.392c-0.028,0.128-0.059,0.254-0.095,0.378
		c-0.035,0.124-0.075,0.245-0.118,0.364c-0.043,0.119-0.09,0.236-0.14,0.35c-0.05,0.115-0.104,0.225-0.162,0.332
		c-0.058,0.107-0.119,0.209-0.184,0.308s-0.133,0.194-0.205,0.284c-0.072,0.091-0.148,0.178-0.227,0.261
		c-0.079,0.083-0.161,0.162-0.247,0.236s-0.174,0.143-0.266,0.208s-0.187,0.125-0.285,0.18c-0.098,0.055-0.199,0.106-0.304,0.152
		c-0.104,0.046-0.212,0.087-0.322,0.121s-0.223,0.064-0.34,0.087c-0.116,0.023-0.235,0.04-0.357,0.052s-0.247,0.017-0.374,0.017
		c-0.243,0-0.473-0.016-0.69-0.049s-0.423-0.081-0.616-0.146s-0.373-0.146-0.541-0.243c-0.168-0.097-0.323-0.21-0.466-0.339
		c-0.143-0.129-0.269-0.276-0.376-0.439c-0.107-0.163-0.197-0.344-0.268-0.541c-0.072-0.198-0.125-0.412-0.161-0.644
		c-0.036-0.232-0.054-0.481-0.054-0.747c0-0.052,0.001-0.103,0.002-0.154c0.001-0.051,0.003-0.101,0.006-0.151
		s0.006-0.099,0.009-0.148c0.004-0.049,0.008-0.097,0.013-0.145c0.005-0.048,0.011-0.096,0.016-0.145
		c0.006-0.049,0.011-0.098,0.017-0.148s0.012-0.1,0.018-0.151c0.006-0.051,0.013-0.102,0.02-0.154l0.394-2.443l0.394-2.443
		l0.394-2.443l0.394-2.443h-0.239h-0.239h-0.239h-0.239h-0.216H79.23h-0.216h-0.216H75.72h-3.077h-3.077h-3.077h-0.013h-0.013
		h-0.013h-0.013h-1.145h-1.145h-1.145h-1.145l-0.895,1.129l-0.895,1.129l-0.895,1.129l-0.895,1.129l-0.492-1.129L57.29,8.023
		l-0.492-1.129l-0.492-1.129h-1.029h-1.029h-1.029h-1.029l0.854,1.91l0.854,1.91l0.854,1.91l0.854,1.91l-1.582,2.022l-1.582,2.022
		l-1.582,2.022l-1.582,2.022h1.15h1.15h1.15h1.15l0.909-1.174l0.909-1.174l0.909-1.174l0.909-1.174l0.501,1.174l0.501,1.174
		l0.501,1.174l0.501,1.174h1.033h1.033h1.033h1.033l-0.862-1.969l-0.862-1.969l-0.862-1.969l-0.862-1.969l1.203-1.503l1.203-1.503
		l1.203-1.503l1.203-1.503h1.345h1.345h1.345h1.345l-0.556,3.468l-0.556,3.468l-0.556,3.468l-0.556,3.468h0.46h0.46h0.46h0.46
		l0.55-3.468l0.55-3.468l0.55-3.468l0.55-3.468h1.573h1.573h1.573h1.573l-0.31,1.928l-0.31,1.928l-0.31,1.928l-0.31,1.928
		c-0.02,0.122-0.038,0.244-0.053,0.367s-0.028,0.246-0.038,0.37c-0.01,0.124-0.018,0.248-0.023,0.372
		c-0.005,0.125-0.008,0.249-0.008,0.375c0,0.189,0.007,0.373,0.022,0.552c0.015,0.18,0.037,0.355,0.066,0.526
		c0.03,0.171,0.066,0.337,0.111,0.499c0.044,0.162,0.096,0.32,0.155,0.473c0.059,0.154,0.124,0.301,0.194,0.443
		c0.071,0.142,0.147,0.278,0.23,0.408s0.171,0.255,0.265,0.373c0.094,0.119,0.195,0.232,0.301,0.339
		c0.106,0.107,0.218,0.208,0.334,0.303s0.239,0.184,0.367,0.267s0.261,0.16,0.4,0.231s0.283,0.136,0.433,0.195
		c0.15,0.059,0.303,0.111,0.461,0.155c0.158,0.044,0.32,0.081,0.485,0.111s0.336,0.052,0.51,0.066s0.352,0.022,0.534,0.022
		c0.195,0,0.386-0.008,0.572-0.025c0.186-0.017,0.367-0.043,0.544-0.077s0.349-0.077,0.516-0.128c0.168-0.051,0.33-0.111,0.489-0.18
		c0.158-0.068,0.312-0.143,0.46-0.226c0.149-0.082,0.292-0.171,0.431-0.267c0.139-0.096,0.273-0.199,0.402-0.309
		c0.129-0.11,0.253-0.227,0.373-0.35c0.119-0.124,0.234-0.253,0.342-0.388c0.109-0.135,0.212-0.276,0.309-0.423
		s0.19-0.299,0.277-0.458c0.087-0.158,0.168-0.323,0.244-0.493c0.076-0.17,0.146-0.344,0.212-0.522
		c0.065-0.178,0.125-0.36,0.18-0.547c0.055-0.186,0.104-0.377,0.148-0.572c0.044-0.195,0.083-0.394,0.117-0.597l0.346-2.155
		l0.346-2.155l0.346-2.155l0.346-2.155h0.41h0.41h0.41h0.41h0.439h0.439h0.439h0.439h1.111h1.111h1.111h1.111
		c0.095,0.021,0.188,0.048,0.278,0.08c0.09,0.032,0.177,0.07,0.261,0.113s0.166,0.093,0.244,0.148s0.154,0.116,0.227,0.183
		c0.106,0.098,0.199,0.206,0.278,0.322c0.08,0.116,0.146,0.242,0.199,0.376c0.053,0.134,0.093,0.278,0.119,0.43
		c0.026,0.153,0.04,0.314,0.04,0.485c0,0.115-0.005,0.227-0.014,0.334s-0.024,0.212-0.043,0.312c-0.019,0.1-0.044,0.197-0.073,0.289
		s-0.063,0.182-0.102,0.267c-0.039,0.085-0.081,0.167-0.126,0.245c-0.045,0.078-0.094,0.153-0.146,0.224s-0.108,0.139-0.167,0.204
		s-0.121,0.125-0.187,0.183c-0.066,0.057-0.134,0.112-0.205,0.162s-0.145,0.098-0.222,0.142c-0.077,0.044-0.156,0.084-0.238,0.121
		s-0.167,0.07-0.255,0.1c-0.087,0.029-0.176,0.055-0.265,0.077s-0.179,0.041-0.27,0.056s-0.182,0.026-0.275,0.033
		c-0.093,0.007-0.186,0.011-0.28,0.011h-0.552h-0.552h-0.552h-0.552l-0.072,0.427l-0.072,0.427l-0.072,0.427l-0.072,0.427h0.564
		h0.564h0.564h0.564c0.172,0,0.336,0.013,0.494,0.04s0.308,0.067,0.451,0.12c0.143,0.053,0.279,0.12,0.408,0.2
		c0.129,0.08,0.25,0.173,0.365,0.28c0.115,0.106,0.215,0.223,0.301,0.349c0.086,0.126,0.157,0.262,0.215,0.407s0.1,0.3,0.129,0.465
		c0.029,0.165,0.043,0.339,0.043,0.523c0,0.129-0.005,0.254-0.016,0.374c-0.011,0.121-0.026,0.237-0.047,0.349
		c-0.021,0.112-0.047,0.22-0.079,0.324c-0.031,0.104-0.068,0.203-0.11,0.299c-0.042,0.096-0.088,0.187-0.137,0.275
		c-0.049,0.087-0.102,0.171-0.158,0.25s-0.116,0.154-0.18,0.225c-0.064,0.071-0.131,0.137-0.201,0.2
		c-0.071,0.063-0.145,0.122-0.222,0.177c-0.077,0.055-0.157,0.107-0.24,0.155c-0.083,0.048-0.17,0.092-0.259,0.133
		c-0.09,0.041-0.182,0.077-0.278,0.111c-0.096,0.033-0.193,0.062-0.291,0.087s-0.197,0.045-0.298,0.062s-0.201,0.029-0.304,0.037
		s-0.205,0.012-0.31,0.012h-1.489h-1.489h-1.489h-1.489l-0.071,0.46l-0.071,0.46l-0.071,0.46l-0.071,0.46h1.52h1.52h1.52h1.52
		c0.165,0,0.329-0.006,0.491-0.018c0.162-0.012,0.324-0.03,0.484-0.054c0.16-0.024,0.319-0.054,0.476-0.09
		c0.157-0.036,0.313-0.078,0.468-0.126c0.155-0.048,0.306-0.102,0.452-0.162c0.146-0.06,0.288-0.127,0.425-0.2
		c0.137-0.073,0.27-0.152,0.398-0.237c0.128-0.085,0.252-0.177,0.372-0.275c0.119-0.098,0.233-0.202,0.341-0.313
		s0.21-0.229,0.306-0.353s0.186-0.256,0.27-0.394c0.084-0.138,0.162-0.282,0.235-0.434c0.072-0.151,0.136-0.309,0.19-0.475
		c0.054-0.165,0.1-0.337,0.136-0.516c0.036-0.179,0.063-0.365,0.082-0.558c0.018-0.193,0.027-0.393,0.027-0.599
		c0-0.081-0.003-0.162-0.009-0.244c-0.006-0.082-0.015-0.164-0.027-0.247c-0.012-0.083-0.027-0.166-0.044-0.25
		c-0.018-0.084-0.038-0.168-0.062-0.253c-0.024-0.085-0.049-0.168-0.078-0.25s-0.059-0.163-0.091-0.242
		c-0.033-0.079-0.068-0.157-0.105-0.234s-0.077-0.152-0.12-0.225c-0.042-0.074-0.086-0.145-0.132-0.214s-0.094-0.136-0.143-0.201
		c-0.05-0.065-0.101-0.127-0.155-0.187c-0.054-0.06-0.109-0.118-0.166-0.173c-0.057-0.055-0.115-0.107-0.174-0.156
		c-0.059-0.049-0.119-0.095-0.179-0.137s-0.122-0.082-0.184-0.118s-0.125-0.069-0.189-0.098c0.091-0.022,0.18-0.05,0.268-0.083
		c0.088-0.033,0.174-0.071,0.259-0.114c0.085-0.043,0.168-0.092,0.25-0.146c0.082-0.054,0.162-0.113,0.242-0.178
		c0.079-0.065,0.156-0.132,0.23-0.203s0.146-0.144,0.216-0.221c0.07-0.077,0.137-0.157,0.201-0.239S99.586,12.089,99.646,12.001"/>
</g>
</svg>
