<?xml version="1.0" encoding="utf-8"?>
<!-- Generator: Adobe Illustrator 19.1.0, SVG Export Plug-In . SVG Version: 6.00 Build 0)  -->
<svg version="1.1" id="Layer_1" xmlns="http://www.w3.org/2000/svg" xmlns:xlink="http://www.w3.org/1999/xlink" x="0px" y="0px"
	 viewBox="0 0 126.038 48.861" style="enable-background:new 0 0 126.038 48.861;" xml:space="preserve">
<style type="text/css">
	.st0{fill:#115C78;}
	.st1{fill-rule:evenodd;clip-rule:evenodd;fill:#4D4D4D;}
	.st2{fill:#4D4D4D;}
	.st3{fill-rule:evenodd;clip-rule:evenodd;}
	.st4{fill:#FFFFFF;}
	.st5{fill:none;}
	.st6{fill:none;stroke:#4D4D4D;stroke-width:0.3;stroke-miterlimit:10;}
	.st7{fill:#4D4D4D;stroke:#4D4D4D;stroke-width:0.1;stroke-miterlimit:10;}
	.st8{fill:#F0047F;}
	.st9{fill:none;stroke:#4D4D4D;stroke-width:0;stroke-linecap:round;stroke-linejoin:round;}
	.st10{fill:none;stroke:#4D4D4D;stroke-width:0.25;stroke-miterlimit:10;}
	.st11{fill:none;stroke:#4D4D4D;stroke-width:0.2;stroke-miterlimit:10;}
	.st12{fill:none;stroke:#4D4D4D;stroke-width:0.8;stroke-miterlimit:10;}
	.st13{fill:#4D4D4D;stroke:#4D4D4D;stroke-width:0.3;stroke-miterlimit:10;}
	.st14{fill:none;stroke:#4D4D4D;stroke-width:0.24;stroke-miterlimit:10;}
</style>
<g>
	<g>
		<path d="M57.668,33.365c0-0.022-0.001-0.043-0.002-0.064c-0.001-0.021-0.003-0.042-0.005-0.062
			c-0.002-0.02-0.005-0.041-0.009-0.06c-0.004-0.02-0.008-0.039-0.012-0.058c-0.004-0.019-0.01-0.038-0.016-0.056
			c-0.006-0.018-0.013-0.036-0.021-0.053s-0.016-0.034-0.025-0.051c-0.009-0.016-0.019-0.032-0.03-0.048
			c-0.014-0.02-0.029-0.039-0.046-0.057s-0.035-0.035-0.055-0.05c-0.02-0.016-0.041-0.03-0.063-0.043
			c-0.023-0.013-0.047-0.025-0.072-0.036c-0.025-0.011-0.052-0.021-0.079-0.029c-0.027-0.008-0.055-0.015-0.084-0.021
			c-0.029-0.006-0.059-0.01-0.089-0.012c-0.031-0.003-0.062-0.004-0.094-0.004h-0.13h-0.13h-0.13h-0.13l-0.097,0.557l-0.097,0.557
			l-0.097,0.557l-0.097,0.557h0.162h0.162h0.162h0.162c0.033,0,0.064-0.001,0.094-0.004c0.03-0.002,0.059-0.006,0.086-0.011
			s0.054-0.01,0.078-0.017s0.048-0.015,0.071-0.024c0.022-0.009,0.044-0.02,0.065-0.031c0.021-0.011,0.041-0.024,0.06-0.037
			s0.038-0.027,0.056-0.043c0.018-0.015,0.035-0.031,0.051-0.048c0.016-0.017,0.032-0.035,0.047-0.055
			c0.015-0.02,0.03-0.041,0.044-0.063s0.028-0.046,0.041-0.071c0.013-0.025,0.026-0.052,0.039-0.079
			c0.012-0.027,0.024-0.055,0.036-0.084s0.023-0.057,0.033-0.087c0.011-0.029,0.021-0.059,0.031-0.089
			c0.01-0.03,0.019-0.061,0.028-0.092c0.009-0.031,0.017-0.062,0.025-0.093c0.008-0.031,0.015-0.062,0.022-0.093
			c0.007-0.031,0.013-0.061,0.018-0.092c0.005-0.031,0.01-0.061,0.014-0.091c0.004-0.03,0.008-0.06,0.011-0.088
			c0.003-0.028,0.006-0.056,0.008-0.082c0.002-0.026,0.004-0.052,0.005-0.076C57.668,33.411,57.668,33.387,57.668,33.365
			 M58.256,33.323c0,0.033-0.001,0.067-0.002,0.102s-0.003,0.071-0.006,0.109c-0.003,0.037-0.006,0.076-0.01,0.115
			c-0.004,0.04-0.009,0.08-0.014,0.122c-0.006,0.042-0.012,0.084-0.019,0.127c-0.007,0.042-0.015,0.084-0.025,0.127
			s-0.019,0.084-0.03,0.127s-0.023,0.084-0.035,0.127c-0.013,0.043-0.027,0.084-0.042,0.126c-0.015,0.041-0.031,0.082-0.048,0.123
			s-0.035,0.08-0.055,0.119c-0.019,0.039-0.04,0.078-0.061,0.116c-0.022,0.038-0.045,0.074-0.069,0.109s-0.049,0.068-0.076,0.1
			c-0.027,0.032-0.054,0.062-0.084,0.091c-0.029,0.029-0.06,0.056-0.091,0.082c-0.061,0.047-0.126,0.089-0.196,0.125
			c-0.07,0.036-0.145,0.065-0.224,0.089s-0.163,0.042-0.251,0.053c-0.088,0.012-0.181,0.018-0.278,0.018h-0.319h-0.319h-0.319
			h-0.319l0.145-0.828l0.145-0.828l0.145-0.828l0.145-0.828h0.275h0.275h0.275h0.275c0.047,0,0.093,0.002,0.139,0.007
			s0.092,0.011,0.137,0.02s0.09,0.02,0.135,0.033s0.089,0.028,0.133,0.046c0.044,0.018,0.087,0.038,0.127,0.061
			c0.04,0.023,0.079,0.048,0.115,0.077c0.037,0.028,0.071,0.059,0.104,0.093c0.033,0.034,0.063,0.07,0.092,0.109
			c0.021,0.029,0.041,0.059,0.06,0.089c0.018,0.03,0.035,0.06,0.05,0.09s0.028,0.061,0.04,0.092c0.012,0.031,0.022,0.062,0.03,0.093
			c0.009,0.031,0.016,0.063,0.022,0.095c0.006,0.032,0.012,0.065,0.016,0.098c0.004,0.033,0.007,0.067,0.01,0.101
			S58.256,33.288,58.256,33.323z"/>
	</g>
	<g>
		<polygon points="61.428,32.664 60.999,32.664 60.571,32.664 60.143,32.664 59.715,32.664 59.68,32.857 59.645,33.049 
			59.61,33.242 59.575,33.435 59.954,33.435 60.332,33.435 60.711,33.435 61.089,33.435 61.065,33.57 61.041,33.706 61.017,33.841 
			60.992,33.977 60.614,33.977 60.235,33.977 59.857,33.977 59.478,33.977 59.439,34.203 59.4,34.43 59.361,34.656 59.321,34.883 
			59.756,34.883 60.191,34.883 60.627,34.883 61.062,34.883 61.037,35.02 61.013,35.156 60.989,35.293 60.964,35.43 60.38,35.43 
			59.796,35.43 59.211,35.43 58.627,35.43 58.773,34.602 58.919,33.774 59.065,32.946 59.211,32.118 59.789,32.118 60.368,32.118 
			60.946,32.118 61.524,32.118 61.5,32.254 61.476,32.391 61.452,32.527 		"/>
	</g>
	<g>
		<path d="M63.701,33.108c0-0.022-0.001-0.043-0.003-0.064c-0.002-0.021-0.006-0.04-0.01-0.06s-0.01-0.038-0.017-0.056
			c-0.007-0.018-0.014-0.035-0.023-0.052c-0.009-0.017-0.019-0.033-0.029-0.048s-0.021-0.03-0.033-0.044
			c-0.012-0.014-0.024-0.027-0.037-0.039s-0.026-0.024-0.041-0.035c-0.014-0.011-0.029-0.021-0.045-0.031
			c-0.015-0.01-0.032-0.018-0.048-0.027c-0.017-0.008-0.034-0.016-0.052-0.022c-0.018-0.007-0.036-0.013-0.055-0.018
			c-0.019-0.005-0.038-0.01-0.057-0.014c-0.019-0.004-0.039-0.008-0.058-0.01s-0.039-0.005-0.059-0.006
			c-0.02-0.001-0.04-0.002-0.06-0.002c-0.036,0-0.072,0.002-0.106,0.007s-0.068,0.012-0.101,0.022s-0.065,0.022-0.096,0.037
			c-0.031,0.015-0.062,0.032-0.091,0.051c-0.014,0.01-0.028,0.021-0.042,0.032s-0.026,0.023-0.038,0.035
			c-0.012,0.012-0.024,0.025-0.034,0.038s-0.021,0.027-0.031,0.042c-0.01,0.014-0.018,0.029-0.026,0.045
			c-0.007,0.016-0.013,0.032-0.018,0.049c-0.005,0.017-0.008,0.035-0.011,0.053c-0.002,0.018-0.004,0.037-0.004,0.057
			c0,0.025,0.002,0.049,0.006,0.071c0.004,0.022,0.009,0.043,0.017,0.062s0.017,0.037,0.028,0.053
			c0.011,0.016,0.024,0.031,0.039,0.044c0.015,0.013,0.03,0.025,0.045,0.036c0.015,0.011,0.029,0.02,0.044,0.028
			c0.015,0.008,0.029,0.015,0.043,0.021c0.014,0.006,0.028,0.01,0.043,0.013l0.17,0.041l0.17,0.041l0.17,0.041l0.17,0.041
			c0.025,0.006,0.049,0.013,0.073,0.021c0.024,0.008,0.048,0.016,0.072,0.026c0.024,0.009,0.047,0.019,0.07,0.03
			c0.023,0.011,0.046,0.023,0.068,0.035c0.022,0.012,0.044,0.025,0.065,0.039c0.021,0.014,0.041,0.029,0.06,0.044
			s0.038,0.032,0.056,0.049s0.035,0.035,0.052,0.054c0.017,0.019,0.032,0.038,0.047,0.058c0.015,0.02,0.029,0.041,0.042,0.063
			s0.026,0.044,0.038,0.067c0.012,0.023,0.023,0.047,0.033,0.071c0.01,0.025,0.019,0.05,0.026,0.075
			c0.008,0.026,0.014,0.052,0.019,0.079c0.005,0.027,0.009,0.055,0.011,0.083s0.004,0.057,0.004,0.087
			c0,0.039-0.002,0.076-0.005,0.113c-0.003,0.037-0.009,0.072-0.016,0.107s-0.016,0.068-0.026,0.1s-0.022,0.063-0.036,0.093
			c-0.014,0.03-0.029,0.059-0.046,0.087s-0.034,0.055-0.053,0.081c-0.019,0.026-0.039,0.052-0.061,0.076
			c-0.021,0.024-0.044,0.048-0.068,0.07c-0.031,0.029-0.063,0.056-0.097,0.081c-0.034,0.025-0.069,0.048-0.106,0.07
			s-0.075,0.041-0.114,0.059s-0.081,0.034-0.123,0.048c-0.043,0.014-0.085,0.026-0.129,0.037c-0.043,0.01-0.087,0.019-0.132,0.026
			c-0.044,0.007-0.089,0.012-0.134,0.016c-0.045,0.004-0.091,0.005-0.137,0.005c-0.049,0-0.097-0.002-0.144-0.005
			c-0.047-0.003-0.093-0.008-0.138-0.015c-0.045-0.007-0.09-0.015-0.133-0.025c-0.044-0.01-0.086-0.021-0.128-0.035
			c-0.042-0.013-0.083-0.029-0.123-0.047c-0.04-0.018-0.079-0.039-0.117-0.062c-0.038-0.023-0.075-0.048-0.111-0.076
			c-0.036-0.028-0.071-0.058-0.105-0.091c-0.025-0.024-0.048-0.049-0.07-0.075c-0.022-0.026-0.043-0.053-0.063-0.081
			c-0.02-0.028-0.038-0.057-0.055-0.087s-0.033-0.061-0.048-0.093c-0.015-0.032-0.028-0.064-0.039-0.096
			c-0.011-0.032-0.02-0.065-0.028-0.098s-0.013-0.066-0.016-0.099s-0.005-0.066-0.005-0.099v-0.019v-0.019v-0.019v-0.019h0.154
			h0.154h0.154h0.154c0,0.036,0.003,0.071,0.008,0.105c0.005,0.034,0.014,0.067,0.025,0.099c0.011,0.032,0.024,0.064,0.041,0.094
			c0.016,0.031,0.035,0.06,0.057,0.089c0.018,0.025,0.038,0.048,0.058,0.068c0.02,0.021,0.041,0.039,0.063,0.056
			c0.022,0.016,0.044,0.031,0.068,0.043c0.024,0.012,0.048,0.022,0.073,0.03c0.025,0.008,0.051,0.014,0.078,0.02
			c0.027,0.006,0.055,0.011,0.083,0.014c0.029,0.004,0.058,0.007,0.089,0.009c0.031,0.002,0.062,0.003,0.094,0.003
			c0.018,0,0.036-0.001,0.054-0.002c0.018-0.001,0.036-0.003,0.055-0.005c0.018-0.002,0.037-0.005,0.055-0.009
			c0.019-0.004,0.037-0.008,0.056-0.012c0.019-0.004,0.038-0.01,0.056-0.015c0.018-0.006,0.036-0.012,0.053-0.02
			c0.017-0.007,0.034-0.015,0.051-0.024c0.017-0.008,0.033-0.018,0.049-0.027c0.016-0.01,0.031-0.02,0.045-0.031
			c0.014-0.011,0.028-0.023,0.041-0.035c0.013-0.012,0.025-0.026,0.037-0.04s0.022-0.028,0.032-0.044
			c0.01-0.015,0.019-0.031,0.026-0.047c0.007-0.017,0.014-0.034,0.019-0.052c0.005-0.018,0.009-0.037,0.011-0.057
			c0.002-0.02,0.004-0.04,0.004-0.061c0-0.025-0.002-0.048-0.006-0.071s-0.009-0.044-0.017-0.064s-0.017-0.039-0.028-0.057
			s-0.024-0.035-0.039-0.051c-0.015-0.016-0.031-0.03-0.048-0.043c-0.017-0.013-0.035-0.025-0.053-0.035s-0.038-0.02-0.059-0.028
			c-0.021-0.008-0.042-0.015-0.065-0.02l-0.173-0.042l-0.173-0.042l-0.173-0.042l-0.173-0.042c-0.023-0.006-0.046-0.012-0.069-0.019
			c-0.023-0.007-0.045-0.015-0.066-0.024c-0.022-0.009-0.043-0.019-0.064-0.029c-0.021-0.011-0.042-0.022-0.062-0.034
			c-0.02-0.012-0.04-0.026-0.059-0.039c-0.019-0.014-0.038-0.028-0.056-0.044c-0.018-0.015-0.035-0.031-0.052-0.048
			c-0.017-0.017-0.033-0.034-0.048-0.052c-0.016-0.018-0.03-0.036-0.044-0.055c-0.014-0.019-0.027-0.039-0.039-0.059
			c-0.012-0.02-0.023-0.041-0.034-0.062s-0.02-0.043-0.029-0.066c-0.009-0.023-0.016-0.046-0.023-0.069
			c-0.007-0.023-0.012-0.047-0.017-0.071s-0.008-0.049-0.01-0.074c-0.002-0.025-0.003-0.05-0.003-0.076
			c0-0.043,0.002-0.085,0.007-0.125c0.005-0.04,0.012-0.079,0.021-0.117c0.009-0.038,0.021-0.074,0.035-0.109
			s0.03-0.069,0.049-0.102c0.019-0.033,0.038-0.064,0.059-0.094s0.043-0.059,0.066-0.087s0.047-0.054,0.073-0.079
			c0.025-0.025,0.052-0.049,0.08-0.071c0.06-0.047,0.124-0.088,0.19-0.123c0.066-0.035,0.135-0.064,0.207-0.088
			c0.072-0.023,0.147-0.041,0.225-0.052s0.159-0.017,0.243-0.017c0.097,0,0.188,0.007,0.274,0.021
			c0.086,0.014,0.167,0.034,0.243,0.062s0.146,0.062,0.211,0.103s0.125,0.09,0.18,0.145c0.023,0.023,0.045,0.048,0.065,0.073
			c0.021,0.025,0.04,0.05,0.058,0.077s0.035,0.053,0.05,0.081s0.029,0.056,0.042,0.085c0.013,0.029,0.024,0.059,0.033,0.089
			c0.01,0.03,0.017,0.06,0.024,0.091c0.006,0.031,0.011,0.062,0.014,0.094c0.003,0.032,0.005,0.064,0.005,0.097v0.008v0.008V33.1
			v0.008h-0.154h-0.154h-0.154H63.701z"/>
	</g>
	<g>
		<polygon points="65.232,35.43 65.08,35.43 64.927,35.43 64.774,35.43 64.622,35.43 64.766,34.602 64.911,33.774 65.056,32.946 
			65.2,32.118 65.353,32.118 65.506,32.118 65.659,32.118 65.812,32.118 65.667,32.946 65.522,33.774 65.377,34.602 		"/>
	</g>
	<g>
		<path d="M68.311,33.15c0-0.018-0.001-0.036-0.002-0.053c-0.002-0.017-0.004-0.034-0.007-0.051s-0.007-0.033-0.011-0.049
			s-0.01-0.032-0.016-0.047c-0.006-0.015-0.013-0.031-0.02-0.045c-0.007-0.015-0.015-0.029-0.024-0.043s-0.018-0.028-0.027-0.041
			c-0.01-0.013-0.02-0.026-0.031-0.039c-0.011-0.013-0.024-0.026-0.037-0.038c-0.013-0.012-0.028-0.023-0.043-0.034
			s-0.031-0.02-0.049-0.029s-0.035-0.018-0.054-0.025c-0.019-0.008-0.038-0.015-0.059-0.02s-0.042-0.011-0.064-0.015
			s-0.045-0.007-0.069-0.009s-0.049-0.003-0.074-0.003c-0.029,0-0.057,0.001-0.085,0.004c-0.027,0.003-0.053,0.007-0.079,0.012
			s-0.049,0.012-0.072,0.02c-0.023,0.008-0.045,0.017-0.066,0.028c-0.021,0.01-0.041,0.022-0.061,0.034
			c-0.02,0.012-0.039,0.025-0.057,0.038s-0.036,0.028-0.054,0.042c-0.017,0.015-0.034,0.03-0.05,0.047
			c-0.018,0.018-0.035,0.037-0.052,0.058s-0.033,0.042-0.049,0.065c-0.016,0.023-0.031,0.047-0.045,0.073
			c-0.015,0.025-0.029,0.052-0.042,0.08c-0.014,0.028-0.026,0.056-0.039,0.085c-0.012,0.029-0.024,0.059-0.035,0.089
			s-0.021,0.061-0.031,0.092c-0.01,0.031-0.019,0.062-0.028,0.094c-0.008,0.032-0.016,0.063-0.024,0.095
			c-0.007,0.032-0.014,0.063-0.021,0.095s-0.012,0.063-0.017,0.095s-0.01,0.063-0.014,0.095c-0.004,0.031-0.008,0.062-0.011,0.092
			c-0.003,0.03-0.006,0.059-0.008,0.087c-0.002,0.028-0.004,0.056-0.005,0.082s-0.002,0.052-0.002,0.078
			c0,0.027,0.001,0.054,0.003,0.081c0.002,0.027,0.004,0.053,0.008,0.079s0.008,0.052,0.013,0.077s0.011,0.051,0.018,0.076
			c0.007,0.025,0.015,0.049,0.025,0.073c0.01,0.023,0.021,0.046,0.033,0.068s0.026,0.043,0.041,0.063
			c0.015,0.02,0.031,0.04,0.049,0.058c0.014,0.015,0.029,0.029,0.044,0.042c0.016,0.013,0.032,0.025,0.049,0.036
			c0.017,0.011,0.036,0.022,0.055,0.031c0.019,0.01,0.039,0.018,0.06,0.026c0.021,0.008,0.041,0.015,0.062,0.02
			c0.021,0.006,0.041,0.011,0.062,0.015s0.041,0.007,0.061,0.009s0.04,0.003,0.06,0.003c0.054,0,0.106-0.004,0.155-0.013
			c0.049-0.009,0.096-0.022,0.14-0.04s0.086-0.04,0.126-0.067c0.04-0.027,0.077-0.058,0.111-0.094
			c0.016-0.016,0.03-0.032,0.045-0.049c0.014-0.017,0.028-0.034,0.041-0.052s0.025-0.037,0.037-0.056
			c0.012-0.019,0.023-0.039,0.033-0.06c0.01-0.021,0.02-0.042,0.028-0.063s0.017-0.043,0.024-0.064s0.013-0.044,0.019-0.066
			c0.006-0.022,0.01-0.045,0.014-0.067c0.001-0.004,0.002-0.008,0.002-0.011c0.001-0.004,0.002-0.008,0.002-0.012
			s0.002-0.008,0.002-0.012c0.001-0.004,0.002-0.008,0.003-0.011c0.001-0.004,0.001-0.008,0.002-0.012
			c0.001-0.004,0.001-0.008,0.002-0.011c0.001-0.004,0.001-0.007,0.002-0.011c0.001-0.003,0.001-0.007,0.002-0.01
			c0-0.004,0.001-0.007,0.001-0.011c0-0.004,0.001-0.007,0.001-0.011c0.001-0.004,0.001-0.007,0.002-0.011
			c0.001-0.004,0.001-0.008,0.002-0.012h-0.195h-0.195h-0.195h-0.195l0.022-0.125l0.022-0.125l0.022-0.125l0.022-0.125h0.338H68.2
			h0.338h0.338l-0.08,0.453l-0.08,0.453l-0.08,0.453l-0.08,0.453h-0.098H68.36h-0.098h-0.098v-0.069v-0.069v-0.069v-0.069
			c-0.017,0.023-0.036,0.044-0.057,0.065c-0.021,0.021-0.045,0.041-0.07,0.061c-0.025,0.019-0.053,0.038-0.083,0.056
			c-0.03,0.018-0.062,0.035-0.096,0.051c-0.034,0.017-0.069,0.031-0.106,0.043c-0.037,0.012-0.075,0.023-0.114,0.031
			s-0.08,0.014-0.122,0.019c-0.042,0.004-0.085,0.006-0.13,0.006c-0.042,0-0.083-0.002-0.123-0.005
			c-0.04-0.003-0.08-0.008-0.118-0.015s-0.077-0.015-0.114-0.025c-0.037-0.01-0.074-0.022-0.11-0.035
			c-0.036-0.013-0.071-0.029-0.105-0.046s-0.068-0.037-0.1-0.058c-0.033-0.021-0.064-0.045-0.095-0.07
			c-0.031-0.026-0.061-0.053-0.09-0.083c-0.033-0.033-0.063-0.066-0.09-0.101c-0.028-0.035-0.053-0.071-0.075-0.109
			c-0.023-0.038-0.043-0.076-0.06-0.116s-0.033-0.081-0.046-0.123c-0.013-0.042-0.024-0.085-0.034-0.128
			c-0.01-0.043-0.018-0.086-0.024-0.13c-0.006-0.043-0.011-0.087-0.015-0.131s-0.005-0.088-0.005-0.132
			c0-0.035,0.001-0.071,0.002-0.107c0.001-0.036,0.004-0.073,0.007-0.11s0.007-0.075,0.011-0.113
			c0.004-0.038,0.009-0.077,0.015-0.117c0.006-0.039,0.012-0.078,0.02-0.117c0.007-0.039,0.016-0.078,0.024-0.117
			s0.019-0.078,0.029-0.116c0.01-0.039,0.022-0.077,0.034-0.116c0.012-0.039,0.024-0.077,0.038-0.114s0.028-0.075,0.043-0.111
			s0.031-0.073,0.047-0.108c0.017-0.036,0.034-0.071,0.052-0.106c0.018-0.035,0.037-0.068,0.057-0.1
			c0.02-0.032,0.04-0.063,0.062-0.093s0.044-0.058,0.067-0.086c0.023-0.027,0.047-0.053,0.072-0.078
			c0.032-0.033,0.066-0.064,0.1-0.093c0.035-0.029,0.07-0.056,0.107-0.082s0.074-0.049,0.113-0.07
			c0.039-0.022,0.079-0.041,0.12-0.059c0.041-0.018,0.082-0.033,0.125-0.047c0.043-0.013,0.086-0.024,0.131-0.033
			s0.09-0.016,0.137-0.02c0.047-0.004,0.094-0.007,0.143-0.007c0.05,0,0.098,0.002,0.145,0.005c0.046,0.004,0.091,0.009,0.134,0.016
			s0.084,0.016,0.123,0.027s0.077,0.023,0.112,0.037c0.035,0.015,0.07,0.031,0.103,0.048c0.033,0.018,0.064,0.037,0.095,0.057
			s0.059,0.043,0.087,0.066s0.055,0.049,0.08,0.075c0.025,0.025,0.048,0.051,0.07,0.078c0.022,0.027,0.042,0.055,0.061,0.084
			s0.036,0.06,0.052,0.091s0.03,0.064,0.043,0.097c0.013,0.033,0.025,0.067,0.035,0.101s0.018,0.068,0.025,0.102
			c0.007,0.034,0.011,0.069,0.015,0.103c0.003,0.035,0.005,0.069,0.005,0.104H68.77h-0.153h-0.153H68.311z"/>
	</g>
	<g>
		<polygon points="71.959,35.43 71.805,35.43 71.651,35.43 71.497,35.43 71.343,35.43 71.086,34.835 70.829,34.241 70.572,33.646 
			70.315,33.052 70.218,33.646 70.121,34.241 70.024,34.835 69.927,35.43 69.778,35.43 69.63,35.43 69.482,35.43 69.334,35.43 
			69.478,34.602 69.623,33.774 69.768,32.946 69.913,32.118 70.072,32.118 70.232,32.118 70.392,32.118 70.552,32.118 
			70.804,32.705 71.056,33.292 71.309,33.879 71.561,34.467 71.658,33.879 71.755,33.292 71.853,32.705 71.95,32.118 72.097,32.118 
			72.244,32.118 72.391,32.118 72.538,32.118 72.393,32.946 72.248,33.774 72.104,34.602 		"/>
	</g>
	<g>
		<polygon points="76.648,32.664 76.238,32.664 75.827,32.664 75.416,32.664 75.005,32.664 74.966,32.886 74.927,33.108 
			74.887,33.33 74.848,33.552 75.217,33.552 75.586,33.552 75.955,33.552 76.324,33.552 76.301,33.689 76.278,33.825 76.255,33.962 
			76.231,34.099 75.861,34.099 75.491,34.099 75.121,34.099 74.75,34.099 74.693,34.431 74.635,34.764 74.577,35.097 74.519,35.43 
			74.369,35.43 74.218,35.43 74.068,35.43 73.918,35.43 74.063,34.602 74.209,33.774 74.355,32.946 74.5,32.118 75.062,32.118 
			75.623,32.118 76.184,32.118 76.745,32.118 76.721,32.254 76.697,32.391 76.673,32.527 		"/>
	</g>
	<g>
		<path d="M78.986,33.365c0-0.027-0.001-0.055-0.003-0.081c-0.002-0.027-0.004-0.053-0.008-0.079
			c-0.003-0.026-0.008-0.052-0.013-0.077c-0.005-0.026-0.011-0.051-0.018-0.076c-0.007-0.025-0.015-0.049-0.025-0.072
			c-0.01-0.023-0.021-0.046-0.033-0.068c-0.012-0.022-0.026-0.043-0.041-0.063c-0.015-0.02-0.031-0.04-0.049-0.058
			c-0.03-0.03-0.062-0.057-0.095-0.08s-0.069-0.042-0.106-0.057s-0.076-0.027-0.116-0.034c-0.041-0.008-0.083-0.011-0.127-0.011
			c-0.03,0-0.058,0.001-0.085,0.004c-0.027,0.003-0.053,0.007-0.078,0.012s-0.048,0.012-0.071,0.02s-0.044,0.017-0.064,0.028
			c-0.02,0.01-0.039,0.022-0.058,0.034c-0.019,0.012-0.038,0.025-0.056,0.038c-0.018,0.013-0.036,0.028-0.053,0.042
			c-0.017,0.015-0.034,0.031-0.05,0.047c-0.018,0.018-0.035,0.037-0.052,0.058c-0.017,0.02-0.033,0.042-0.049,0.065
			c-0.016,0.023-0.031,0.047-0.045,0.073c-0.015,0.026-0.029,0.052-0.042,0.081c-0.013,0.028-0.026,0.056-0.039,0.085
			c-0.012,0.029-0.024,0.058-0.035,0.088s-0.021,0.06-0.031,0.091c-0.01,0.031-0.019,0.062-0.027,0.094
			c-0.008,0.032-0.016,0.064-0.024,0.096c-0.007,0.032-0.014,0.064-0.021,0.095s-0.012,0.063-0.018,0.095s-0.01,0.063-0.014,0.095
			c-0.004,0.032-0.008,0.062-0.011,0.092c-0.003,0.03-0.006,0.059-0.008,0.087c-0.002,0.028-0.004,0.056-0.005,0.082
			c-0.001,0.027-0.002,0.052-0.002,0.077c0,0.027,0.001,0.054,0.002,0.081s0.004,0.053,0.008,0.079s0.008,0.052,0.013,0.077
			c0.005,0.025,0.011,0.051,0.018,0.076c0.007,0.025,0.015,0.049,0.025,0.073c0.01,0.023,0.021,0.046,0.033,0.068
			s0.026,0.043,0.041,0.063c0.015,0.02,0.031,0.039,0.049,0.058c0.03,0.031,0.062,0.057,0.096,0.08s0.069,0.042,0.106,0.057
			c0.037,0.015,0.076,0.026,0.116,0.034c0.041,0.008,0.083,0.011,0.127,0.011c0.029,0,0.057-0.001,0.084-0.004
			c0.027-0.002,0.053-0.006,0.078-0.011c0.025-0.005,0.049-0.011,0.071-0.019c0.023-0.007,0.044-0.016,0.065-0.026
			c0.02-0.01,0.04-0.021,0.06-0.033c0.019-0.012,0.038-0.024,0.057-0.038c0.018-0.013,0.036-0.027,0.053-0.042
			c0.017-0.015,0.034-0.03,0.05-0.046c0.018-0.018,0.035-0.037,0.052-0.058s0.033-0.042,0.048-0.066s0.03-0.048,0.045-0.073
			c0.014-0.026,0.028-0.053,0.041-0.081c0.013-0.029,0.026-0.057,0.037-0.087s0.023-0.059,0.034-0.089s0.021-0.06,0.031-0.091
			c0.01-0.031,0.019-0.062,0.027-0.093c0.008-0.032,0.016-0.063,0.024-0.095c0.007-0.032,0.014-0.063,0.021-0.095
			s0.012-0.064,0.017-0.095c0.005-0.032,0.01-0.064,0.014-0.096c0.004-0.032,0.008-0.063,0.011-0.093
			c0.003-0.03,0.006-0.059,0.008-0.088s0.004-0.056,0.005-0.083C78.986,33.416,78.986,33.39,78.986,33.365 M79.597,33.374
			c0,0.035-0.001,0.071-0.002,0.107s-0.004,0.073-0.006,0.11c-0.003,0.037-0.007,0.075-0.011,0.113
			c-0.004,0.038-0.01,0.077-0.016,0.116c-0.006,0.039-0.012,0.078-0.019,0.117c-0.007,0.039-0.015,0.078-0.024,0.117
			s-0.018,0.077-0.028,0.116c-0.01,0.039-0.021,0.077-0.033,0.115c-0.011,0.038-0.024,0.076-0.037,0.113
			c-0.013,0.037-0.027,0.074-0.042,0.11s-0.031,0.072-0.047,0.108c-0.016,0.035-0.034,0.07-0.052,0.105
			c-0.018,0.035-0.037,0.068-0.057,0.1s-0.04,0.063-0.062,0.093c-0.021,0.03-0.044,0.058-0.067,0.086
			c-0.023,0.027-0.047,0.054-0.072,0.079c-0.033,0.033-0.066,0.064-0.101,0.093s-0.07,0.056-0.107,0.081s-0.075,0.049-0.114,0.07
			s-0.079,0.041-0.12,0.059c-0.041,0.018-0.083,0.033-0.126,0.047c-0.043,0.013-0.087,0.025-0.132,0.034
			c-0.045,0.009-0.091,0.016-0.138,0.02c-0.047,0.004-0.095,0.007-0.143,0.007c-0.042,0-0.083-0.002-0.123-0.005
			s-0.081-0.009-0.121-0.016s-0.079-0.016-0.118-0.026c-0.039-0.01-0.077-0.023-0.115-0.037c-0.038-0.014-0.074-0.03-0.11-0.048
			c-0.036-0.018-0.07-0.038-0.104-0.06c-0.034-0.022-0.066-0.046-0.098-0.071c-0.031-0.026-0.062-0.054-0.091-0.083
			c-0.033-0.033-0.063-0.067-0.09-0.102c-0.028-0.035-0.053-0.071-0.075-0.108c-0.023-0.037-0.043-0.076-0.06-0.115
			c-0.018-0.04-0.033-0.08-0.046-0.122c-0.013-0.042-0.024-0.084-0.033-0.127c-0.01-0.043-0.017-0.086-0.024-0.129
			c-0.006-0.043-0.011-0.087-0.014-0.131c-0.003-0.044-0.005-0.088-0.005-0.133c0-0.035,0.001-0.071,0.002-0.107
			c0.001-0.036,0.003-0.073,0.006-0.11c0.003-0.037,0.006-0.075,0.011-0.113c0.004-0.038,0.01-0.077,0.016-0.117
			c0.006-0.039,0.012-0.078,0.02-0.117c0.007-0.039,0.015-0.078,0.024-0.117s0.018-0.077,0.029-0.116
			c0.01-0.038,0.022-0.077,0.034-0.115c0.012-0.038,0.025-0.076,0.038-0.113s0.028-0.074,0.043-0.111s0.031-0.073,0.047-0.108
			c0.017-0.036,0.034-0.071,0.052-0.106c0.018-0.034,0.037-0.068,0.057-0.1s0.041-0.063,0.062-0.093s0.044-0.058,0.067-0.086
			s0.047-0.054,0.071-0.079c0.032-0.033,0.066-0.064,0.1-0.093c0.034-0.029,0.07-0.056,0.106-0.081s0.074-0.049,0.112-0.07
			c0.038-0.022,0.078-0.041,0.118-0.059c0.04-0.018,0.081-0.033,0.123-0.047c0.042-0.013,0.085-0.025,0.13-0.034
			c0.044-0.009,0.09-0.016,0.136-0.02c0.046-0.004,0.094-0.007,0.143-0.007c0.042,0,0.083,0.002,0.124,0.005
			c0.041,0.004,0.081,0.009,0.121,0.016c0.04,0.007,0.079,0.016,0.118,0.026c0.039,0.01,0.077,0.023,0.115,0.037
			c0.038,0.014,0.075,0.03,0.111,0.048s0.071,0.038,0.105,0.06s0.066,0.046,0.098,0.071c0.032,0.026,0.062,0.053,0.091,0.083
			c0.033,0.033,0.063,0.067,0.09,0.102s0.053,0.071,0.076,0.108c0.023,0.037,0.043,0.076,0.061,0.115
			c0.018,0.04,0.033,0.08,0.046,0.122c0.013,0.042,0.025,0.085,0.035,0.127s0.018,0.086,0.025,0.129
			c0.007,0.043,0.011,0.087,0.015,0.131C79.596,33.286,79.597,33.33,79.597,33.374z"/>
	</g>
	<g>
		<path d="M82.281,33.07c0-0.033-0.003-0.063-0.008-0.093c-0.006-0.029-0.014-0.057-0.025-0.083s-0.025-0.05-0.042-0.073
			c-0.017-0.022-0.036-0.043-0.058-0.062c-0.022-0.019-0.047-0.036-0.075-0.05c-0.028-0.014-0.058-0.026-0.091-0.036
			s-0.069-0.017-0.108-0.021s-0.08-0.007-0.124-0.007h-0.175H81.4h-0.175h-0.175l-0.043,0.247l-0.043,0.247l-0.043,0.247
			l-0.043,0.247h0.184h0.184h0.184h0.184c0.023,0,0.046-0.001,0.068-0.002c0.022-0.001,0.044-0.003,0.066-0.006
			c0.022-0.003,0.043-0.006,0.064-0.009c0.021-0.004,0.041-0.008,0.061-0.013c0.02-0.005,0.039-0.011,0.058-0.018
			c0.019-0.007,0.037-0.014,0.054-0.022s0.035-0.017,0.051-0.027c0.016-0.01,0.032-0.02,0.047-0.032
			c0.015-0.011,0.029-0.023,0.043-0.036c0.013-0.013,0.026-0.026,0.038-0.041s0.023-0.03,0.033-0.045
			c0.01-0.016,0.02-0.033,0.029-0.05c0.009-0.018,0.017-0.036,0.023-0.056c0.007-0.02,0.012-0.04,0.017-0.062
			s0.008-0.044,0.01-0.068S82.281,33.096,82.281,33.07 M82.898,33.033c0,0.035-0.001,0.069-0.004,0.103
			c-0.003,0.034-0.006,0.067-0.011,0.099c-0.005,0.032-0.011,0.064-0.019,0.094s-0.016,0.061-0.026,0.09
			c-0.01,0.029-0.021,0.057-0.033,0.084c-0.012,0.027-0.025,0.054-0.038,0.08s-0.028,0.05-0.044,0.074
			c-0.016,0.024-0.032,0.047-0.049,0.069c-0.018,0.022-0.036,0.044-0.055,0.064c-0.019,0.02-0.039,0.04-0.06,0.059
			s-0.042,0.036-0.065,0.053c-0.023,0.017-0.046,0.033-0.07,0.048c-0.024,0.015-0.049,0.029-0.075,0.043
			c-0.025,0.013-0.051,0.025-0.077,0.036s-0.053,0.021-0.079,0.03s-0.054,0.017-0.082,0.024l0.101,0.336l0.101,0.336l0.101,0.336
			l0.101,0.336h-0.155h-0.155h-0.155h-0.155l-0.093-0.318l-0.093-0.318l-0.093-0.318l-0.093-0.318h-0.183h-0.183H80.97h-0.183
			l-0.055,0.318l-0.055,0.318l-0.055,0.318l-0.055,0.318h-0.149h-0.149h-0.149h-0.149l0.145-0.828l0.145-0.828l0.145-0.828
			l0.145-0.828h0.324h0.324h0.324h0.324c0.039,0,0.078,0.001,0.115,0.004c0.038,0.003,0.074,0.007,0.11,0.013
			c0.036,0.006,0.071,0.013,0.105,0.021s0.067,0.018,0.1,0.03c0.032,0.011,0.064,0.024,0.094,0.038
			c0.03,0.014,0.059,0.028,0.087,0.044s0.054,0.033,0.08,0.051c0.026,0.018,0.05,0.038,0.073,0.059
			c0.023,0.02,0.045,0.042,0.065,0.064s0.04,0.046,0.058,0.07s0.035,0.05,0.05,0.076c0.015,0.026,0.029,0.054,0.042,0.082
			c0.013,0.028,0.024,0.057,0.033,0.086c0.01,0.029,0.017,0.059,0.024,0.089c0.006,0.03,0.011,0.061,0.014,0.093
			S82.898,33,82.898,33.033z"/>
	</g>
	<g>
		<polygon points="86.976,32.664 86.565,32.664 86.154,32.664 85.743,32.664 85.332,32.664 85.293,32.886 85.254,33.108 
			85.214,33.33 85.175,33.552 85.544,33.552 85.914,33.552 86.283,33.552 86.652,33.552 86.629,33.689 86.606,33.825 86.582,33.962 
			86.559,34.099 86.189,34.099 85.819,34.099 85.448,34.099 85.078,34.099 85.02,34.431 84.963,34.764 84.905,35.097 84.847,35.43 
			84.697,35.43 84.546,35.43 84.396,35.43 84.245,35.43 84.391,34.602 84.537,33.774 84.682,32.946 84.828,32.118 85.389,32.118 
			85.951,32.118 86.512,32.118 87.073,32.118 87.049,32.254 87.025,32.391 87,32.527 		"/>
	</g>
	<g>
		<polygon points="89.193,35.43 88.663,35.43 88.133,35.43 87.603,35.43 87.073,35.43 87.219,34.602 87.365,33.774 87.511,32.946 
			87.657,32.118 87.806,32.118 87.955,32.118 88.104,32.118 88.253,32.118 88.133,32.803 88.013,33.489 87.893,34.174 87.772,34.86 
			88.153,34.86 88.534,34.86 88.915,34.86 89.296,34.86 89.27,35.002 89.245,35.145 89.219,35.287 		"/>
	</g>
	<g>
		<polygon points="92.536,32.664 92.108,32.664 91.68,32.664 91.251,32.664 90.823,32.664 90.788,32.857 90.754,33.049 
			90.719,33.242 90.684,33.435 91.062,33.435 91.441,33.435 91.819,33.435 92.198,33.435 92.174,33.57 92.149,33.706 92.125,33.841 
			92.101,33.977 91.722,33.977 91.344,33.977 90.965,33.977 90.587,33.977 90.548,34.203 90.508,34.43 90.469,34.656 90.43,34.883 
			90.865,34.883 91.3,34.883 91.735,34.883 92.17,34.883 92.146,35.02 92.122,35.156 92.097,35.293 92.073,35.43 91.488,35.43 
			90.904,35.43 90.319,35.43 89.735,35.43 89.881,34.602 90.027,33.774 90.173,32.946 90.319,32.118 90.898,32.118 91.476,32.118 
			92.055,32.118 92.633,32.118 92.609,32.254 92.585,32.391 92.56,32.527 		"/>
	</g>
	<g>
		<polygon points="94.42,33.748 94.604,34.168 94.788,34.589 94.972,35.009 95.156,35.43 94.998,35.43 94.841,35.43 94.683,35.43 
			94.526,35.43 94.397,35.126 94.267,34.822 94.138,34.519 94.008,34.215 93.773,34.519 93.538,34.822 93.303,35.126 93.068,35.43 
			92.897,35.43 92.725,35.43 92.554,35.43 92.383,35.43 92.713,35.008 93.042,34.586 93.372,34.164 93.702,33.743 93.52,33.336 
			93.339,32.93 93.158,32.524 92.976,32.118 93.132,32.118 93.288,32.118 93.444,32.118 93.6,32.118 93.727,32.41 93.855,32.702 
			93.982,32.994 94.11,33.286 94.341,32.994 94.573,32.702 94.804,32.41 95.036,32.118 95.208,32.118 95.381,32.118 95.553,32.118 
			95.726,32.118 95.399,32.525 95.073,32.933 94.746,33.34 		"/>
	</g>
	<g>
		<polygon points="96.262,35.43 96.11,35.43 95.957,35.43 95.804,35.43 95.651,35.43 95.796,34.602 95.941,33.774 96.085,32.946 
			96.23,32.118 96.383,32.118 96.536,32.118 96.689,32.118 96.842,32.118 96.697,32.946 96.552,33.774 96.407,34.602 		"/>
	</g>
	<g>
		<path d="M99.387,32.995c0-0.024-0.002-0.047-0.007-0.07c-0.005-0.022-0.012-0.044-0.021-0.065s-0.021-0.041-0.035-0.061
			s-0.03-0.038-0.049-0.056c-0.018-0.018-0.04-0.034-0.063-0.047c-0.024-0.013-0.05-0.024-0.079-0.033
			c-0.029-0.009-0.06-0.015-0.095-0.02c-0.034-0.004-0.071-0.007-0.11-0.007h-0.176h-0.176h-0.176h-0.176l-0.036,0.208l-0.036,0.208
			l-0.036,0.208l-0.036,0.208h0.183h0.183h0.183h0.183c0.02,0,0.04-0.001,0.059-0.002c0.019-0.001,0.038-0.003,0.057-0.004
			s0.037-0.004,0.055-0.007c0.018-0.003,0.036-0.006,0.053-0.01c0.018-0.004,0.034-0.009,0.051-0.014
			c0.016-0.005,0.032-0.011,0.047-0.018c0.015-0.007,0.03-0.014,0.044-0.022s0.028-0.017,0.041-0.026
			c0.013-0.009,0.026-0.019,0.038-0.03s0.023-0.022,0.033-0.034c0.01-0.012,0.02-0.025,0.029-0.039
			c0.009-0.014,0.017-0.028,0.024-0.043c0.008-0.015,0.014-0.031,0.02-0.048c0.006-0.017,0.01-0.034,0.014-0.053
			c0.004-0.019,0.006-0.038,0.008-0.058C99.387,33.038,99.387,33.017,99.387,32.995 M99.229,34.364c0-0.033-0.003-0.063-0.009-0.092
			c-0.006-0.029-0.014-0.055-0.026-0.08s-0.026-0.048-0.043-0.068c-0.017-0.021-0.037-0.04-0.06-0.056
			c-0.023-0.017-0.048-0.031-0.074-0.044S98.964,34,98.935,33.992c-0.029-0.008-0.059-0.015-0.091-0.019
			c-0.032-0.004-0.065-0.006-0.1-0.006h-0.188h-0.188h-0.188h-0.188l-0.04,0.23l-0.04,0.23l-0.04,0.23l-0.04,0.23h0.179h0.179h0.179
			h0.179c0.022,0,0.043,0,0.065-0.002c0.021-0.001,0.043-0.003,0.064-0.005c0.021-0.002,0.042-0.005,0.063-0.008
			s0.042-0.007,0.063-0.012c0.021-0.004,0.041-0.009,0.06-0.015c0.019-0.006,0.038-0.012,0.056-0.02
			c0.018-0.007,0.035-0.016,0.052-0.025c0.017-0.009,0.033-0.019,0.048-0.029c0.016-0.01,0.03-0.022,0.044-0.034
			c0.014-0.012,0.027-0.025,0.04-0.038s0.024-0.028,0.036-0.042c0.011-0.015,0.022-0.03,0.031-0.047
			c0.009-0.017,0.018-0.034,0.025-0.053c0.007-0.019,0.013-0.038,0.018-0.059s0.008-0.042,0.011-0.065
			C99.228,34.413,99.229,34.389,99.229,34.364z M100.012,32.911c0,0.021-0.001,0.042-0.002,0.063
			c-0.001,0.021-0.004,0.042-0.007,0.063c-0.003,0.021-0.007,0.042-0.011,0.063c-0.004,0.021-0.009,0.042-0.015,0.064
			c-0.006,0.021-0.012,0.041-0.019,0.061c-0.007,0.02-0.015,0.04-0.023,0.059c-0.008,0.019-0.018,0.039-0.027,0.057
			c-0.01,0.019-0.02,0.037-0.031,0.055c-0.011,0.018-0.023,0.035-0.036,0.052c-0.013,0.017-0.026,0.034-0.039,0.05
			c-0.014,0.016-0.028,0.032-0.043,0.047s-0.031,0.03-0.047,0.045c-0.016,0.014-0.033,0.028-0.051,0.041
			c-0.018,0.013-0.036,0.026-0.055,0.037c-0.019,0.012-0.038,0.023-0.059,0.034c-0.02,0.011-0.041,0.021-0.063,0.03
			c0.029,0.015,0.056,0.032,0.081,0.05c0.025,0.018,0.049,0.039,0.071,0.061c0.022,0.022,0.042,0.046,0.061,0.071
			c0.019,0.025,0.036,0.053,0.051,0.082c0.016,0.029,0.029,0.059,0.041,0.089c0.012,0.03,0.021,0.06,0.029,0.091
			c0.008,0.031,0.014,0.062,0.017,0.093c0.004,0.031,0.006,0.063,0.006,0.094c0,0.044-0.003,0.086-0.008,0.128
			c-0.005,0.042-0.013,0.083-0.023,0.124c-0.01,0.041-0.023,0.08-0.038,0.119c-0.015,0.039-0.033,0.077-0.054,0.114
			c-0.02,0.037-0.043,0.073-0.067,0.107c-0.024,0.034-0.05,0.066-0.077,0.097c-0.028,0.031-0.057,0.06-0.088,0.087
			c-0.031,0.028-0.064,0.053-0.099,0.078c-0.018,0.013-0.036,0.024-0.054,0.036c-0.018,0.011-0.036,0.022-0.055,0.031
			s-0.037,0.019-0.055,0.027c-0.019,0.008-0.038,0.016-0.057,0.022c-0.019,0.007-0.038,0.014-0.057,0.02
			c-0.019,0.006-0.038,0.012-0.057,0.017s-0.038,0.01-0.058,0.015c-0.019,0.004-0.039,0.008-0.059,0.012
			c-0.02,0.004-0.04,0.007-0.059,0.009c-0.02,0.003-0.04,0.005-0.06,0.007s-0.04,0.004-0.06,0.005
			c-0.02,0.001-0.04,0.002-0.06,0.003c-0.02,0.001-0.04,0.002-0.06,0.003s-0.04,0.001-0.059,0.002s-0.039,0.001-0.059,0.001
			c-0.019,0-0.039,0-0.058,0h-0.33h-0.33h-0.33h-0.33l0.145-0.828l0.145-0.828l0.145-0.828l0.145-0.828h0.316h0.316h0.316h0.316
			c0.033,0,0.066,0.001,0.099,0.003c0.033,0.002,0.066,0.005,0.099,0.008s0.066,0.008,0.098,0.014
			c0.033,0.006,0.065,0.012,0.098,0.02c0.032,0.007,0.064,0.016,0.094,0.026c0.03,0.01,0.06,0.021,0.089,0.034
			s0.056,0.027,0.083,0.042c0.027,0.015,0.052,0.032,0.076,0.05c0.023,0.016,0.044,0.034,0.064,0.053
			c0.02,0.019,0.039,0.04,0.057,0.061c0.018,0.022,0.034,0.045,0.05,0.07c0.015,0.025,0.03,0.05,0.043,0.078
			c0.013,0.027,0.025,0.055,0.035,0.082s0.018,0.055,0.025,0.083c0.007,0.028,0.011,0.056,0.015,0.085
			C100.011,32.854,100.012,32.882,100.012,32.911z"/>
	</g>
	<g>
		<polygon points="100.943,35.43 100.79,35.43 100.637,35.43 100.485,35.43 100.332,35.43 100.477,34.602 100.621,33.774 
			100.766,32.946 100.911,32.118 101.064,32.118 101.216,32.118 101.369,32.118 101.522,32.118 101.377,32.946 101.232,33.774 
			101.088,34.602 		"/>
	</g>
	<g>
		<polygon points="103.942,35.43 103.412,35.43 102.882,35.43 102.352,35.43 101.822,35.43 101.968,34.602 102.114,33.774 
			102.26,32.946 102.405,32.118 102.555,32.118 102.704,32.118 102.853,32.118 103.002,32.118 102.882,32.803 102.762,33.489 
			102.642,34.174 102.521,34.86 102.902,34.86 103.283,34.86 103.664,34.86 104.044,34.86 104.019,35.002 103.993,35.145 
			103.968,35.287 		"/>
	</g>
	<g>
		<polygon points="105.095,35.43 104.943,35.43 104.79,35.43 104.637,35.43 104.484,35.43 104.629,34.602 104.774,33.774 
			104.919,32.946 105.064,32.118 105.216,32.118 105.369,32.118 105.522,32.118 105.674,32.118 105.53,32.946 105.385,33.774 
			105.24,34.602 		"/>
	</g>
	<g>
		<polygon points="108.614,32.678 108.374,32.678 108.135,32.678 107.895,32.678 107.656,32.678 107.537,33.366 107.417,34.054 
			107.298,34.742 107.179,35.43 107.028,35.43 106.878,35.43 106.727,35.43 106.577,35.43 106.697,34.742 106.817,34.054 
			106.937,33.366 107.058,32.678 106.818,32.678 106.579,32.678 106.339,32.678 106.1,32.678 106.125,32.538 106.151,32.398 
			106.176,32.258 106.202,32.118 106.83,32.118 107.459,32.118 108.087,32.118 108.716,32.118 108.69,32.258 108.665,32.398 
			108.639,32.538 		"/>
	</g>
	<g>
		<polygon points="110.22,34.159 110.165,34.477 110.109,34.794 110.053,35.112 109.998,35.43 109.847,35.43 109.697,35.43 
			109.546,35.43 109.396,35.43 109.451,35.112 109.507,34.794 109.562,34.477 109.618,34.159 109.423,33.649 109.229,33.138 
			109.034,32.628 108.84,32.118 108.993,32.118 109.145,32.118 109.298,32.118 109.451,32.118 109.588,32.483 109.724,32.849 
			109.861,33.214 109.998,33.58 110.264,33.214 110.53,32.849 110.796,32.483 111.062,32.118 111.229,32.118 111.395,32.118 
			111.562,32.118 111.729,32.118 111.352,32.628 110.974,33.138 110.597,33.649 		"/>
	</g>
	<g>
		<polygon points="12.522,13.371 12.347,14.291 12.173,15.212 11.998,16.132 11.824,17.053 12.826,17.053 13.829,17.053 
			14.831,17.053 15.834,17.053 16.008,16.132 16.183,15.212 16.357,14.291 16.532,13.371 15.529,13.371 14.527,13.371 
			13.524,13.371 		"/>
	</g>
	<g>
		<polygon points="9.826,29.141 10.793,29.141 11.76,29.141 12.727,29.141 13.694,29.141 14.075,26.76 14.456,24.38 14.837,22 
			15.219,19.62 14.252,19.62 13.285,19.62 12.317,19.62 11.35,19.62 10.969,22 10.588,24.38 10.207,26.76 		"/>
	</g>
	<g>
		<polygon points="21.109,19.672 21.225,19.022 21.34,18.373 21.455,17.723 21.57,17.073 23.363,17.073 25.156,17.073 
			26.948,17.073 28.741,17.073 28.904,16.158 29.067,15.244 29.229,14.329 29.392,13.414 26.622,13.414 23.852,13.414 
			21.081,13.414 18.311,13.414 17.619,17.346 16.926,21.278 16.234,25.209 15.541,29.141 16.519,29.141 17.496,29.141 
			18.474,29.141 19.451,29.141 19.704,27.689 19.956,26.236 20.209,24.784 20.461,23.331 22.078,23.331 23.694,23.331 
			25.311,23.331 26.927,23.331 27.082,22.416 27.237,21.502 27.392,20.587 27.547,19.672 25.938,19.672 24.328,19.672 
			22.719,19.672 		"/>
	</g>
	<g>
		<polygon points="31.962,25.38 32.487,22.388 33.012,19.397 33.538,16.406 34.063,13.414 33.091,13.414 32.119,13.414 
			31.147,13.414 30.175,13.414 29.482,17.346 28.79,21.277 28.097,25.209 27.405,29.141 30.038,29.141 32.671,29.141 35.305,29.141 
			37.938,29.141 38.106,28.201 38.274,27.26 38.443,26.32 38.611,25.38 36.949,25.38 35.286,25.38 33.624,25.38 		"/>
	</g>
	<g>
		<polygon points="52.246,17.073 52.409,16.158 52.572,15.244 52.734,14.329 52.897,13.414 50.051,13.414 47.205,13.414 
			44.359,13.414 41.513,13.414 40.821,17.346 40.128,21.277 39.436,25.209 38.743,29.141 41.614,29.141 44.484,29.141 
			47.355,29.141 50.226,29.141 50.389,28.226 50.551,27.311 50.714,26.397 50.877,25.482 48.977,25.482 47.077,25.482 
			45.178,25.482 43.278,25.482 43.394,24.812 43.51,24.141 43.627,23.471 43.743,22.801 45.394,22.801 47.045,22.801 48.695,22.801 
			50.346,22.801 50.509,21.891 50.672,20.981 50.836,20.072 50.999,19.162 49.348,19.162 47.696,19.162 46.045,19.162 
			44.394,19.162 44.488,18.64 44.582,18.117 44.677,17.595 44.771,17.073 46.64,17.073 48.509,17.073 50.377,17.073 		"/>
	</g>
	<g>
		<polygon points="113.717,15.246 111.808,15.246 109.899,15.246 107.99,15.246 106.081,15.246 105.884,16.437 105.687,17.628 
			105.49,18.819 105.293,20.01 106.985,20.01 108.677,20.01 110.369,20.01 112.061,20.01 111.985,20.469 111.91,20.929 
			111.834,21.389 111.758,21.849 110.076,21.849 108.395,21.849 106.713,21.849 105.031,21.849 104.809,23.206 104.586,24.564 
			104.364,25.921 104.142,27.279 106.071,27.279 108,27.279 109.93,27.279 111.859,27.279 111.793,27.739 111.727,28.198 
			111.662,28.658 111.596,29.118 109.207,29.118 106.818,29.118 104.43,29.118 102.041,29.118 102.667,25.19 103.293,21.262 
			103.92,17.334 104.546,13.407 106.909,13.407 109.273,13.407 111.637,13.407 114,13.407 113.929,13.866 113.859,14.326 
			113.788,14.786 		"/>
	</g>
	<g>
		<path d="M100.868,19.641c0.06-0.089,0.116-0.179,0.169-0.272c0.053-0.092,0.103-0.187,0.149-0.283
			c0.046-0.096,0.089-0.194,0.129-0.294c0.039-0.1,0.076-0.202,0.108-0.305c0.033-0.103,0.061-0.207,0.086-0.31
			s0.045-0.207,0.062-0.31s0.029-0.207,0.037-0.31c0.008-0.103,0.012-0.207,0.012-0.31c0-0.144-0.006-0.285-0.017-0.423
			s-0.029-0.272-0.052-0.404c-0.023-0.131-0.052-0.259-0.086-0.384c-0.034-0.125-0.074-0.246-0.12-0.365
			c-0.046-0.118-0.097-0.233-0.152-0.342c-0.055-0.11-0.116-0.215-0.18-0.316s-0.134-0.197-0.209-0.289s-0.153-0.18-0.237-0.263
			c-0.084-0.083-0.172-0.162-0.263-0.236s-0.188-0.143-0.288-0.208s-0.204-0.125-0.312-0.18s-0.22-0.106-0.336-0.153
			c-0.116-0.046-0.236-0.087-0.358-0.121c-0.122-0.035-0.248-0.064-0.377-0.087c-0.129-0.023-0.261-0.041-0.396-0.052
			c-0.135-0.012-0.273-0.017-0.415-0.017h-0.038h-0.038h-0.038h-0.038h-1.376h-1.376h-1.376h-1.376h-0.41h-0.41h-0.41h-0.41H90.07
			h-0.454h-0.454h-0.454h0h0h0h0l-0.419,2.598l-0.419,2.598l-0.419,2.598l-0.419,2.598c-0.02,0.133-0.044,0.264-0.072,0.392
			c-0.028,0.128-0.059,0.254-0.095,0.378c-0.035,0.124-0.075,0.245-0.118,0.364c-0.043,0.119-0.09,0.236-0.14,0.35
			c-0.05,0.115-0.104,0.225-0.162,0.332c-0.058,0.107-0.119,0.209-0.184,0.308s-0.133,0.194-0.205,0.284
			c-0.072,0.091-0.148,0.178-0.227,0.261c-0.079,0.083-0.161,0.162-0.247,0.236s-0.174,0.143-0.266,0.208s-0.187,0.125-0.285,0.18
			c-0.098,0.055-0.199,0.106-0.304,0.152c-0.104,0.046-0.212,0.087-0.322,0.121s-0.223,0.064-0.34,0.087
			c-0.116,0.023-0.235,0.04-0.357,0.052s-0.247,0.017-0.374,0.017c-0.243,0-0.473-0.016-0.69-0.049s-0.423-0.081-0.616-0.146
			s-0.373-0.146-0.541-0.243c-0.168-0.097-0.323-0.21-0.466-0.339c-0.143-0.129-0.269-0.276-0.376-0.439
			c-0.107-0.163-0.197-0.344-0.268-0.541c-0.072-0.198-0.125-0.412-0.161-0.644c-0.036-0.232-0.054-0.481-0.054-0.747
			c0-0.052,0.001-0.103,0.002-0.154c0.001-0.051,0.003-0.101,0.006-0.151s0.006-0.099,0.009-0.148
			c0.004-0.049,0.008-0.097,0.013-0.145c0.005-0.048,0.011-0.096,0.016-0.145c0.006-0.049,0.011-0.098,0.017-0.148
			s0.012-0.1,0.018-0.151c0.006-0.051,0.013-0.102,0.02-0.154l0.394-2.443l0.394-2.443l0.394-2.443l0.394-2.443H81.6h-0.239h-0.239
			h-0.239h-0.216h-0.216h-0.216H80.02h-3.077h-3.077h-3.077H67.71h-0.013h-0.013H67.67h-0.013h-1.145h-1.145h-1.145h-1.145
			l-0.895,1.129l-0.895,1.129l-0.895,1.129l-0.895,1.129l-0.492-1.129l-0.492-1.129l-0.492-1.129l-0.492-1.129h-1.029h-1.029H54.44
			h-1.029l0.854,1.91l0.854,1.91l0.854,1.91l0.854,1.91l-1.582,2.022l-1.582,2.022l-1.582,2.022L50.5,29.133h1.15h1.15h1.15h1.15
			l0.909-1.174l0.909-1.174l0.909-1.174l0.909-1.174l0.501,1.174l0.501,1.174l0.501,1.174l0.501,1.174h1.033h1.033h1.033h1.033
			l-0.862-1.969l-0.862-1.969l-0.862-1.969l-0.862-1.969l1.203-1.503l1.203-1.503l1.203-1.503l1.203-1.503h1.345h1.345h1.345h1.345
			l-0.556,3.468l-0.556,3.468l-0.556,3.468l-0.556,3.468h0.46h0.46h0.46h0.46l0.55-3.468l0.55-3.468l0.55-3.468l0.55-3.468h1.573
			h1.573h1.573h1.573l-0.31,1.928l-0.31,1.928l-0.31,1.928l-0.31,1.928c-0.02,0.122-0.038,0.244-0.053,0.367
			s-0.028,0.246-0.038,0.37c-0.01,0.124-0.018,0.248-0.023,0.372c-0.005,0.125-0.008,0.249-0.008,0.375
			c0,0.189,0.007,0.373,0.022,0.552c0.015,0.18,0.037,0.355,0.066,0.526c0.03,0.171,0.066,0.337,0.111,0.499
			c0.044,0.162,0.096,0.32,0.155,0.473c0.059,0.154,0.124,0.301,0.194,0.443c0.071,0.142,0.147,0.278,0.23,0.408
			s0.171,0.255,0.265,0.373c0.094,0.119,0.195,0.232,0.301,0.339c0.106,0.107,0.218,0.208,0.334,0.303s0.239,0.184,0.367,0.267
			s0.261,0.16,0.4,0.231s0.283,0.136,0.433,0.195c0.15,0.059,0.303,0.111,0.461,0.155c0.158,0.044,0.32,0.081,0.485,0.111
			s0.336,0.052,0.51,0.066s0.352,0.022,0.534,0.022c0.195,0,0.386-0.008,0.572-0.025c0.186-0.017,0.367-0.043,0.544-0.077
			s0.349-0.077,0.516-0.128c0.168-0.051,0.33-0.111,0.489-0.18c0.158-0.068,0.312-0.143,0.46-0.226
			c0.149-0.082,0.292-0.171,0.431-0.267c0.139-0.096,0.273-0.199,0.402-0.309c0.129-0.11,0.253-0.227,0.373-0.35
			c0.119-0.124,0.234-0.253,0.342-0.388c0.109-0.135,0.212-0.276,0.309-0.423s0.19-0.299,0.277-0.458
			c0.087-0.158,0.168-0.323,0.244-0.493c0.076-0.17,0.146-0.344,0.212-0.522c0.065-0.178,0.125-0.36,0.18-0.547
			c0.055-0.186,0.104-0.377,0.148-0.572c0.044-0.195,0.083-0.394,0.117-0.597l0.346-2.155l0.346-2.155l0.346-2.155l0.346-2.155h0.41
			h0.41h0.41h0.41h0.439h0.439h0.439h0.439h1.111h1.111h1.111h1.111c0.095,0.021,0.188,0.048,0.278,0.08
			c0.09,0.032,0.177,0.07,0.261,0.113s0.166,0.093,0.244,0.148s0.154,0.116,0.227,0.183c0.106,0.098,0.199,0.206,0.278,0.322
			c0.08,0.116,0.146,0.242,0.199,0.376c0.053,0.134,0.093,0.278,0.119,0.43c0.026,0.153,0.04,0.314,0.04,0.485
			c0,0.115-0.005,0.227-0.014,0.334s-0.024,0.212-0.043,0.312c-0.019,0.1-0.044,0.197-0.073,0.289s-0.063,0.182-0.102,0.267
			c-0.039,0.085-0.081,0.167-0.126,0.245c-0.045,0.078-0.094,0.153-0.146,0.224s-0.108,0.139-0.167,0.204
			c-0.059,0.064-0.121,0.125-0.187,0.183c-0.066,0.057-0.134,0.112-0.205,0.162c-0.071,0.051-0.145,0.098-0.222,0.142
			c-0.077,0.044-0.156,0.084-0.238,0.121c-0.082,0.037-0.167,0.07-0.255,0.1c-0.087,0.029-0.176,0.055-0.265,0.077
			c-0.089,0.022-0.179,0.041-0.27,0.056s-0.182,0.026-0.275,0.033c-0.093,0.007-0.186,0.011-0.28,0.011h-0.552h-0.552h-0.552h-0.552
			l-0.072,0.427l-0.072,0.427l-0.072,0.427l-0.072,0.427h0.564h0.564h0.564h0.564c0.172,0,0.336,0.013,0.494,0.04
			c0.157,0.027,0.308,0.067,0.451,0.12c0.143,0.053,0.279,0.12,0.408,0.2c0.129,0.08,0.25,0.173,0.365,0.28
			c0.115,0.106,0.215,0.223,0.301,0.349c0.086,0.126,0.157,0.262,0.215,0.407s0.1,0.3,0.129,0.465
			c0.029,0.165,0.043,0.339,0.043,0.523c0,0.129-0.005,0.254-0.016,0.374c-0.011,0.121-0.026,0.237-0.047,0.349
			c-0.021,0.112-0.047,0.22-0.079,0.324c-0.031,0.104-0.068,0.203-0.11,0.299c-0.042,0.096-0.088,0.187-0.137,0.275
			c-0.049,0.087-0.102,0.171-0.158,0.25s-0.116,0.154-0.18,0.225c-0.064,0.071-0.131,0.137-0.201,0.2
			c-0.071,0.063-0.145,0.122-0.222,0.177c-0.077,0.055-0.157,0.107-0.24,0.155c-0.083,0.048-0.17,0.092-0.259,0.133
			c-0.09,0.041-0.182,0.077-0.278,0.111c-0.096,0.033-0.193,0.062-0.291,0.087s-0.197,0.045-0.298,0.062s-0.201,0.029-0.304,0.037
			s-0.205,0.012-0.31,0.012h-1.489h-1.489h-1.489h-1.489l-0.071,0.46l-0.071,0.46l-0.071,0.46l-0.071,0.46h1.52h1.52h1.52h1.52
			c0.165,0,0.329-0.006,0.491-0.018c0.162-0.012,0.324-0.03,0.484-0.054c0.16-0.024,0.319-0.054,0.476-0.09
			c0.157-0.036,0.313-0.078,0.468-0.126c0.155-0.048,0.306-0.102,0.452-0.162c0.146-0.06,0.288-0.127,0.425-0.2
			c0.137-0.073,0.27-0.152,0.398-0.237c0.128-0.085,0.252-0.177,0.372-0.275c0.119-0.098,0.233-0.202,0.341-0.313
			s0.21-0.229,0.306-0.353s0.186-0.256,0.27-0.394c0.084-0.138,0.162-0.282,0.235-0.434c0.072-0.151,0.136-0.309,0.19-0.475
			c0.054-0.165,0.1-0.337,0.136-0.516c0.036-0.179,0.063-0.365,0.082-0.558c0.018-0.193,0.027-0.393,0.027-0.599
			c0-0.081-0.003-0.162-0.009-0.244c-0.006-0.082-0.015-0.164-0.027-0.247c-0.012-0.083-0.027-0.166-0.044-0.25
			c-0.018-0.084-0.038-0.168-0.062-0.253c-0.024-0.085-0.049-0.168-0.078-0.25c-0.028-0.082-0.059-0.163-0.091-0.242
			c-0.033-0.079-0.068-0.157-0.105-0.234c-0.037-0.077-0.077-0.152-0.12-0.225c-0.042-0.074-0.086-0.145-0.132-0.214
			c-0.046-0.069-0.094-0.136-0.143-0.201c-0.05-0.065-0.101-0.127-0.155-0.187c-0.054-0.06-0.109-0.118-0.166-0.173
			c-0.057-0.055-0.115-0.107-0.174-0.156c-0.059-0.049-0.119-0.095-0.179-0.137s-0.122-0.082-0.184-0.118s-0.125-0.069-0.189-0.098
			c0.091-0.022,0.18-0.05,0.268-0.083c0.088-0.033,0.174-0.071,0.259-0.114c0.085-0.043,0.168-0.092,0.25-0.146
			c0.082-0.054,0.162-0.113,0.242-0.178c0.079-0.065,0.156-0.132,0.23-0.203s0.146-0.144,0.216-0.221
			c0.07-0.077,0.137-0.157,0.201-0.239S100.808,19.73,100.868,19.641"/>
	</g>
</g>
</svg>
