<?xml version="1.0" encoding="utf-8"?>
<!-- Generator: Adobe Illustrator 19.1.0, SVG Export Plug-In . SVG Version: 6.00 Build 0)  -->
<svg version="1.1" id="Layer_1" xmlns="http://www.w3.org/2000/svg" xmlns:xlink="http://www.w3.org/1999/xlink" x="0px" y="0px"
	 viewBox="0 0 29.91 30.086" style="enable-background:new 0 0 29.91 30.086;" xml:space="preserve">
<style type="text/css">
	.st0{fill:#115C78;}
	.st1{fill-rule:evenodd;clip-rule:evenodd;fill:#4D4D4D;}
	.st2{fill:#4D4D4D;}
	.st3{fill-rule:evenodd;clip-rule:evenodd;}
	.st4{fill:#FFFFFF;}
	.st5{fill:none;}
	.st6{fill:none;stroke:#4D4D4D;stroke-width:0.3;stroke-miterlimit:10;}
	.st7{fill:#4D4D4D;stroke:#4D4D4D;stroke-width:0.1;stroke-miterlimit:10;}
	.st8{fill:#F0047F;}
	.st9{fill:none;stroke:#4D4D4D;stroke-width:0;stroke-linecap:round;stroke-linejoin:round;}
	.st10{fill:none;stroke:#4D4D4D;stroke-width:0.25;stroke-miterlimit:10;}
	.st11{fill:none;stroke:#4D4D4D;stroke-width:0.2;stroke-miterlimit:10;}
	.st12{fill:none;stroke:#4D4D4D;stroke-width:0.8;stroke-miterlimit:10;}
	.st13{fill:#4D4D4D;stroke:#4D4D4D;stroke-width:0.3;stroke-miterlimit:10;}
	.st14{fill:none;stroke:#4D4D4D;stroke-width:0.24;stroke-miterlimit:10;}
</style>
<g>
	<g>
		<path class="st2" d="M19.154,7.652v0.075v0.075v0.075v0.075v1.434v1.434v1.434v1.434h0.042h0.042h0.042h0.042v-1.529v-1.529V9.1
			V7.571c0-0.011-0.002-0.022-0.007-0.032c-0.004-0.01-0.01-0.018-0.018-0.026S19.28,7.5,19.27,7.496
			c-0.01-0.004-0.021-0.006-0.033-0.006H18.47h-0.767h-0.767H16.17V7.53v0.041v0.041v0.041h0.671h0.671h0.671h0.671h0.075h0.075
			h0.075H19.154z"/>
	</g>
</g>
<g>
	<g>
		<path class="st2" d="M10.029,15.491v0.656v0.656v0.656v0.656v0.075v0.075v0.075v0.075H9.954H9.879H9.804H9.729H9.362H8.996H8.63
			H8.263H8.188H8.113H8.038H7.963v-0.075v-0.075v-0.075v-0.075v-2.541v-2.541v-2.541V7.952V7.877V7.802V7.727V7.652h0.075h0.075
			h0.075h0.075h0.77h0.77h0.77h0.77V7.611V7.571V7.53V7.489h-0.866H9.611H8.745H7.88c-0.012,0-0.023,0.002-0.033,0.006
			s-0.019,0.01-0.027,0.017S7.807,7.529,7.803,7.539s-0.007,0.02-0.007,0.032v2.732v2.732v2.732v2.732
			c0,0.011,0.002,0.022,0.007,0.032s0.01,0.018,0.018,0.026s0.017,0.013,0.027,0.017s0.021,0.006,0.033,0.006h1.277h1.277h1.277
			h1.277v-0.041v-0.041v-0.041v-0.041h-0.623h-0.623h-0.623h-0.623h-0.075h-0.075h-0.075h-0.075v-0.075v-0.075v-0.075v-0.075v-0.561
			v-0.561v-0.561v-0.561v-0.075v-0.075v-0.075v-0.075h0.075h0.075h0.075h0.075h0.623h0.623h0.623h0.623v-0.041v-0.041V15.45V15.41
			h-0.719h-0.719h-0.719h-0.719c-0.012,0-0.023,0.002-0.033,0.006s-0.019,0.01-0.027,0.017s-0.014,0.016-0.018,0.026
			S10.029,15.48,10.029,15.491z"/>
	</g>
</g>
<g>
	<g>
		<path class="st2" d="M16.006,8.988c-0.012,0-0.023,0.002-0.033,0.006s-0.019,0.01-0.027,0.017s-0.014,0.016-0.018,0.026
			s-0.007,0.02-0.007,0.032v0.477v0.477v0.477v0.477c0,0.011,0.002,0.022,0.007,0.032s0.01,0.018,0.018,0.026
			s0.017,0.013,0.027,0.017s0.021,0.006,0.033,0.006h0.144h0.144h0.144h0.144h0.075h0.075h0.075h0.075v0.075v0.075v0.075v0.075
			v0.173v0.173v0.173v0.173v0.075V12.2v0.075v0.075h-0.075h-0.075h-0.075h-0.075h-0.592h-0.592h-0.592h-0.592h-0.075h-0.075h-0.075
			h-0.075v-0.075V12.2v-0.075V12.05v-0.81v-0.81V9.62V8.81V8.735V8.66V8.585V8.51h0.075h0.075h0.075h0.075h0.127h0.127h0.127h0.127
			c0.012,0,0.023-0.002,0.033-0.006s0.019-0.01,0.027-0.017s0.014-0.016,0.018-0.026s0.007-0.02,0.007-0.032V7.952V7.475V6.999
			V6.522c0-0.011-0.002-0.022-0.007-0.032s-0.01-0.018-0.018-0.026s-0.017-0.013-0.027-0.017s-0.021-0.006-0.033-0.006h-0.479H13.76
			h-0.479h-0.479c-0.012,0-0.023,0.002-0.033,0.006s-0.019,0.01-0.027,0.017s-0.014,0.016-0.018,0.026s-0.007,0.02-0.007,0.032
			v0.477v0.477v0.477v0.477c0,0.011,0.002,0.022,0.007,0.032s0.01,0.018,0.018,0.026s0.017,0.013,0.027,0.017
			S12.79,8.51,12.801,8.51h0.163h0.163h0.163h0.163h0.075h0.075h0.075h0.075v0.075V8.66v0.075V8.81v0.81v0.81v0.81v0.81v0.075V12.2
			v0.075v0.075h-0.075h-0.075h-0.075h-0.075H12.82h-0.631h-0.631h-0.631h-0.075h-0.075h-0.075h-0.075v-0.075V12.2v-0.075V12.05
			v-0.173v-0.173V11.53v-0.173v-0.075v-0.075v-0.075v-0.075h0.075h0.075h0.075h0.075h0.144h0.144h0.144h0.144
			c0.012,0,0.023-0.002,0.032-0.006s0.019-0.01,0.027-0.017s0.014-0.016,0.018-0.026s0.007-0.02,0.007-0.032v-0.477v-0.477V9.545
			V9.069c0-0.011-0.002-0.022-0.007-0.032s-0.01-0.018-0.018-0.026s-0.017-0.013-0.027-0.017s-0.021-0.006-0.032-0.006h-0.479
			h-0.479h-0.479H9.585c-0.012,0-0.023,0.002-0.032,0.006s-0.019,0.01-0.027,0.017S9.512,9.028,9.508,9.037s-0.007,0.02-0.007,0.032
			v0.477v0.477v0.477v0.477c0,0.011,0.002,0.022,0.007,0.032s0.01,0.018,0.018,0.026s0.017,0.013,0.027,0.017
			s0.021,0.006,0.032,0.006h0.144h0.144h0.144h0.144h0.075h0.075h0.075h0.075v0.075v0.075v0.075v0.075v0.269v0.269v0.269v0.269
			c0,0.011,0.002,0.022,0.007,0.032s0.01,0.018,0.018,0.026s0.017,0.013,0.027,0.017s0.021,0.006,0.033,0.006h0.725h0.725h0.725
			h0.725h0.075h0.075h0.075h0.075v0.075v0.075v0.075v0.075v0.263v0.263v0.263v0.263c0.013-0.007,0.027-0.014,0.041-0.021
			s0.028-0.014,0.041-0.02s0.028-0.013,0.042-0.019s0.028-0.012,0.043-0.017v-0.243v-0.243v-0.243v-0.243V12.74v-0.075V12.59v-0.075
			h0.075h0.075h0.075h0.075h0.688h0.688h0.688h0.688c0.012,0,0.023-0.002,0.032-0.006c0.01-0.004,0.019-0.01,0.027-0.017
			s0.014-0.016,0.018-0.026c0.004-0.01,0.007-0.02,0.007-0.032v-0.269v-0.269v-0.269v-0.269v-0.075v-0.075v-0.075v-0.075h0.075
			h0.075h0.075h0.075h0.144h0.144h0.144h0.144c0.012,0,0.023-0.002,0.033-0.006c0.01-0.004,0.019-0.01,0.027-0.017
			s0.014-0.016,0.018-0.026c0.004-0.01,0.007-0.02,0.007-0.032v-0.477v-0.477V9.545V9.069c0-0.011-0.002-0.022-0.007-0.032
			c-0.004-0.01-0.01-0.018-0.018-0.026s-0.017-0.013-0.027-0.017c-0.01-0.004-0.021-0.006-0.033-0.006h-0.479h-0.479h-0.479H16.006z
			 M9.968,10.894H9.893H9.818H9.743H9.668v-0.075v-0.075v-0.075v-0.075v-0.286v-0.286V9.736V9.45V9.375V9.3V9.225V9.15h0.075h0.075
			h0.075h0.075h0.288h0.288h0.288h0.288h0.075h0.075h0.075h0.075v0.075V9.3v0.075V9.45v0.286v0.286v0.286v0.286v0.075v0.075v0.075
			v0.075h-0.075h-0.075h-0.075h-0.075h-0.288h-0.288h-0.288H9.968z M13.177,8.343h-0.075h-0.075h-0.075h-0.075V8.268V8.193V8.118
			V8.043V7.757V7.472V7.186V6.9V6.825V6.75V6.675V6.6h0.075h0.075h0.075h0.075h0.288h0.288h0.288h0.288h0.075h0.075h0.075h0.075
			v0.075V6.75v0.075V6.9v0.286v0.286v0.286v0.286v0.075v0.075v0.075v0.075h-0.075h-0.075h-0.075h-0.075H14.04h-0.288h-0.288H13.177z
			 M17.836,9.45v0.286v0.286v0.286v0.286v0.075v0.075v0.075v0.075h-0.075h-0.075h-0.075h-0.075h-0.288h-0.288h-0.288h-0.288h-0.075
			h-0.075h-0.075h-0.075v-0.075v-0.075v-0.075v-0.075v-0.286v-0.286V9.736V9.45V9.375V9.3V9.225V9.15h0.075h0.075h0.075h0.075h0.288
			h0.288h0.288h0.288h0.075h0.075h0.075h0.075v0.075V9.3v0.075V9.45z"/>
	</g>
</g>
<g>
	<g>
		<path class="st2" d="M23.777,10.919h-0.318H23.14h-0.318h-0.318h-0.075h-0.075h-0.075h-0.075v-0.075v-0.075v-0.075v-0.075v-0.365
			V9.889V9.524V9.159V9.084V9.009V8.934V8.859h0.075h0.075h0.075h0.075h0.318h0.318h0.318h0.318c0.012,0,0.023-0.002,0.033-0.006
			c0.01-0.004,0.019-0.01,0.027-0.017s0.014-0.016,0.018-0.026c0.004-0.01,0.007-0.02,0.007-0.032s-0.002-0.022-0.007-0.032
			c-0.004-0.01-0.01-0.018-0.018-0.026S23.82,8.707,23.81,8.702c-0.01-0.004-0.021-0.006-0.033-0.006h-0.318H23.14h-0.318h-0.318
			h-0.075h-0.075h-0.075h-0.075V8.621V8.546V8.471V8.396V8.031V7.665V7.3V6.934V6.859V6.784V6.709V6.634h0.075h0.075h0.075h0.075
			h0.318h0.318h0.318h0.318c0.012,0,0.023-0.002,0.033-0.006c0.01-0.004,0.019-0.01,0.027-0.017s0.014-0.016,0.018-0.026
			c0.004-0.01,0.007-0.02,0.007-0.032s-0.002-0.022-0.007-0.032c-0.004-0.01-0.01-0.018-0.018-0.026S23.82,6.482,23.81,6.478
			c-0.01-0.004-0.021-0.006-0.033-0.006h-0.318H23.14h-0.318h-0.318h-0.075h-0.075h-0.075h-0.075V6.396V6.321V6.246V6.171V5.828
			V5.485V5.142V4.799c0-0.011-0.002-0.022-0.007-0.032c-0.004-0.01-0.01-0.018-0.018-0.026s-0.017-0.013-0.027-0.017
			c-0.01-0.004-0.021-0.006-0.033-0.006h-0.401h-0.401h-0.401h-0.401h-0.075h-0.075h-0.075h-0.075V4.643V4.568V4.493V4.418V4.094
			V3.77V3.446V3.122c0-0.011-0.002-0.022-0.007-0.032c-0.004-0.01-0.01-0.018-0.018-0.026s-0.017-0.013-0.027-0.017
			c-0.01-0.004-0.021-0.006-0.032-0.006s-0.023,0.002-0.033,0.006c-0.01,0.004-0.019,0.01-0.027,0.017S20.06,3.08,20.056,3.09
			c-0.004,0.01-0.007,0.02-0.007,0.032v0.324V3.77v0.324v0.324v0.075v0.075v0.075v0.075h-0.075h-0.075h-0.075h-0.075h-0.368h-0.368
			h-0.368h-0.368h-0.075h-0.075h-0.075h-0.075V4.643V4.568V4.493V4.418V4.094V3.77V3.446V3.122c0-0.011-0.002-0.022-0.007-0.032
			c-0.004-0.01-0.01-0.018-0.018-0.026s-0.017-0.013-0.027-0.017c-0.01-0.004-0.021-0.006-0.032-0.006s-0.023,0.002-0.033,0.006
			c-0.01,0.004-0.019,0.01-0.027,0.017S17.822,3.08,17.818,3.09c-0.004,0.01-0.007,0.02-0.007,0.032v0.324V3.77v0.324v0.324v0.075
			v0.075v0.075v0.075h-0.075h-0.075h-0.075h-0.075h-0.367h-0.367H16.41h-0.367h-0.075h-0.075h-0.075h-0.075V4.643V4.568V4.493V4.418
			V4.094V3.77V3.446V3.122c0-0.011-0.002-0.022-0.007-0.032s-0.01-0.018-0.018-0.026s-0.017-0.013-0.027-0.017
			S15.67,3.04,15.659,3.04s-0.023,0.002-0.032,0.006s-0.019,0.01-0.027,0.017S15.586,3.08,15.582,3.09s-0.007,0.02-0.007,0.032
			v0.324V3.77v0.324v0.324v0.075v0.075v0.075v0.075H15.5h-0.075H15.35h-0.075h-0.368H14.54h-0.368h-0.368h-0.075h-0.075h-0.075
			h-0.075V4.643V4.568V4.493V4.418V4.094V3.77V3.446V3.122c0-0.011-0.002-0.022-0.007-0.032s-0.01-0.018-0.018-0.026
			s-0.017-0.013-0.027-0.017S13.432,3.04,13.42,3.04s-0.023,0.002-0.032,0.006s-0.019,0.01-0.027,0.017S13.348,3.08,13.344,3.09
			s-0.007,0.02-0.007,0.032v0.324V3.77v0.324v0.324v0.075v0.075v0.075v0.075h-0.075h-0.075h-0.075h-0.075h-0.368h-0.368h-0.368
			h-0.368h-0.075h-0.075h-0.075h-0.075V4.643V4.568V4.493V4.418V4.094V3.77V3.446V3.122c0-0.011-0.002-0.022-0.007-0.032
			s-0.01-0.018-0.018-0.026s-0.017-0.013-0.027-0.017S11.194,3.04,11.182,3.04S11.16,3.043,11.15,3.047s-0.019,0.01-0.027,0.017
			S11.11,3.08,11.105,3.09s-0.007,0.02-0.007,0.032v0.324V3.77v0.324v0.324v0.075v0.075v0.075v0.075h-0.075h-0.075h-0.075h-0.075
			h-0.367h-0.367H9.697H9.33H9.255H9.18H9.105H9.03V4.643V4.568V4.493V4.418V4.094V3.77V3.446V3.122C9.03,3.11,9.027,3.1,9.023,3.09
			s-0.01-0.018-0.018-0.026S8.989,3.051,8.979,3.047S8.958,3.04,8.946,3.04S8.924,3.043,8.914,3.047s-0.019,0.01-0.027,0.017
			S8.873,3.08,8.869,3.09S8.863,3.11,8.863,3.122v0.324V3.77v0.324v0.324v0.075v0.075v0.075v0.075H8.788H8.713H8.638H8.563H8.195
			H7.827H7.459H7.092H7.017H6.942H6.867H6.792V4.643V4.568V4.493V4.418V4.094V3.77V3.446V3.122c0-0.011-0.002-0.022-0.007-0.032
			s-0.01-0.018-0.018-0.026S6.75,3.051,6.74,3.047S6.719,3.04,6.708,3.04S6.685,3.043,6.675,3.047s-0.019,0.01-0.027,0.017
			S6.635,3.08,6.631,3.09S6.624,3.11,6.624,3.122v0.324V3.77v0.324v0.324v0.075v0.075v0.075v0.075H6.549H6.474H6.399H6.324H5.993
			H5.661H5.329H4.997c-0.012,0-0.023,0.002-0.032,0.006s-0.019,0.01-0.027,0.017S4.924,4.758,4.92,4.767s-0.007,0.02-0.007,0.032
			v0.343v0.343v0.343v0.343v0.075v0.075v0.075v0.075H4.839H4.764H4.689H4.614H4.226H3.839H3.451H3.064
			c-0.012,0-0.023,0.002-0.032,0.006s-0.019,0.01-0.027,0.017S2.991,6.511,2.987,6.521S2.98,6.542,2.98,6.553
			s0.002,0.022,0.007,0.032s0.01,0.018,0.018,0.026s0.017,0.013,0.027,0.017s0.021,0.006,0.032,0.006h0.387h0.387h0.387h0.387h0.075
			h0.075h0.075h0.075v0.075v0.075v0.075v0.075V7.3v0.366v0.366v0.366v0.075v0.075v0.075v0.075H4.839H4.764H4.689H4.614H4.226H3.839
			H3.451H3.064c-0.012,0-0.023,0.002-0.032,0.006s-0.019,0.01-0.027,0.017S2.991,8.738,2.987,8.748S2.98,8.768,2.98,8.779
			s0.002,0.022,0.007,0.032s0.01,0.018,0.018,0.026S3.021,8.85,3.031,8.854S3.052,8.86,3.064,8.86h0.387h0.387h0.387h0.387h0.075
			h0.075h0.075h0.075v0.075V9.01v0.075V9.16v0.366v0.366v0.366v0.366v0.075v0.075v0.075v0.075H4.839H4.764H4.689H4.614H4.226H3.839
			H3.451H3.064c-0.012,0-0.023,0.002-0.032,0.006s-0.019,0.01-0.027,0.017s-0.014,0.016-0.018,0.026s-0.007,0.02-0.007,0.032
			s0.002,0.022,0.007,0.032s0.01,0.018,0.018,0.026s0.017,0.013,0.027,0.017s0.021,0.006,0.032,0.006h0.387h0.387h0.387h0.387h0.075
			h0.075h0.075h0.075v0.075v0.075v0.075v0.075v0.364v0.364v0.364v0.364v0.075v0.075v0.075v0.075H4.839H4.764H4.689H4.614H4.226
			H3.839H3.451H3.064c-0.012,0-0.023,0.002-0.032,0.006s-0.019,0.01-0.027,0.017s-0.014,0.016-0.018,0.026s-0.007,0.02-0.007,0.032
			s0.002,0.022,0.007,0.032s0.01,0.018,0.018,0.026s0.017,0.013,0.027,0.017s0.021,0.006,0.032,0.006h0.387h0.387h0.387h0.387h0.075
			h0.075h0.075h0.075v0.075v0.075v0.075v0.075v0.366v0.366v0.366v0.366v0.075v0.075v0.075v0.075H4.839H4.764H4.689H4.614H4.226
			H3.839H3.451H3.064c-0.012,0-0.023,0.002-0.032,0.006s-0.019,0.01-0.027,0.017s-0.014,0.016-0.018,0.026S2.98,15.44,2.98,15.451
			s0.002,0.022,0.007,0.032s0.01,0.018,0.018,0.026s0.017,0.013,0.027,0.017s0.021,0.006,0.032,0.006h0.387h0.387h0.387h0.387h0.075
			h0.075h0.075h0.075v0.075v0.075v0.075v0.075v0.366v0.366v0.366v0.366v0.075v0.075v0.075v0.075H4.839H4.764H4.689H4.614H4.226
			H3.839H3.451H3.064c-0.012,0-0.023,0.002-0.032,0.006s-0.019,0.01-0.027,0.017s-0.014,0.016-0.018,0.026s-0.007,0.02-0.007,0.032
			s0.002,0.022,0.007,0.032s0.01,0.018,0.018,0.026s0.017,0.013,0.027,0.017s0.021,0.006,0.032,0.006h0.387h0.387h0.387h0.387h0.075
			h0.075h0.075h0.075v0.075v0.075v0.075v0.075v0.364v0.364v0.364v0.364v0.075v0.075v0.075v0.075H4.839H4.764H4.689H4.614H4.226
			H3.839H3.451H3.064c-0.012,0-0.023,0.002-0.032,0.006s-0.019,0.01-0.027,0.017s-0.014,0.016-0.018,0.026s-0.007,0.02-0.007,0.032
			s0.002,0.022,0.007,0.032s0.01,0.018,0.018,0.026s0.017,0.013,0.027,0.017s0.021,0.006,0.032,0.006h0.387h0.387h0.387h0.387h0.075
			h0.075h0.075h0.075v0.075v0.075v0.075v0.075v0.248v0.248v0.248v0.248c0,0.011,0.002,0.022,0.007,0.032s0.01,0.018,0.018,0.026
			s0.017,0.013,0.027,0.017s0.021,0.006,0.032,0.006h0.332h0.332h0.332h0.332h0.075h0.075h0.075h0.075v0.075V21.5v0.075v0.075v0.419
			v0.419v0.419v0.419c0,0.011,0.002,0.022,0.007,0.032s0.01,0.018,0.018,0.026s0.017,0.013,0.027,0.017s0.021,0.006,0.033,0.006
			s0.023-0.002,0.032-0.006s0.019-0.01,0.027-0.017s0.014-0.016,0.018-0.026s0.007-0.02,0.007-0.032v-0.419v-0.419v-0.419V21.65
			v-0.075V21.5v-0.075V21.35h0.075h0.075h0.075h0.075h0.368h0.368h0.368h0.368h0.075h0.075h0.075h0.075v0.075V21.5v0.075v0.075
			v0.419v0.419v0.419v0.419c0,0.01,0.003,0.02,0.008,0.029s0.012,0.018,0.02,0.026s0.017,0.014,0.027,0.019s0.02,0.007,0.029,0.007
			c0.011,0,0.022-0.002,0.032-0.006s0.019-0.01,0.027-0.017s0.014-0.016,0.018-0.026s0.007-0.02,0.007-0.032v-0.419v-0.419v-0.419
			V21.65v-0.075V21.5v-0.075V21.35h0.075H9.18h0.075H9.33h0.368h0.368h0.368h0.368h0.075h0.075h0.075h0.075v0.075V21.5v0.075v0.075
			v0.419v0.419v0.419v0.419c0,0.011,0.002,0.022,0.007,0.032s0.01,0.018,0.018,0.026s0.017,0.013,0.027,0.017
			s0.021,0.006,0.033,0.006s0.023-0.002,0.032-0.006s0.019-0.01,0.027-0.017s0.014-0.016,0.018-0.026s0.007-0.02,0.007-0.032v-0.419
			v-0.419v-0.419V21.65v-0.075V21.5v-0.075V21.35h0.075h0.075h0.075h0.075h0.355h0.355h0.355h0.355v-0.041v-0.041v-0.041v-0.041
			h-1.901H9.183H7.282H5.381H5.306H5.231H5.156H5.081v-0.075v-0.075v-0.075v-0.075v-3.927v-3.927V9.107V5.18V5.105V5.03V4.955V4.88
			h0.075h0.075h0.075h0.075H9.47h4.089h4.089h4.089h0.075h0.075h0.075h0.075v0.075V5.03v0.075V5.18v2.127v2.127v2.127v2.127h0.042
			h0.042h0.042h0.042v-0.02v-0.02v-0.02v-0.02v-0.075v-0.075v-0.075v-0.075h0.075h0.075h0.075h0.075h0.318h0.318h0.318h0.318
			c0.012,0,0.023-0.002,0.033-0.006c0.01-0.004,0.019-0.01,0.027-0.017s0.014-0.016,0.018-0.026c0.004-0.01,0.007-0.02,0.007-0.032
			s-0.002-0.022-0.007-0.032c-0.004-0.01-0.01-0.018-0.018-0.026s-0.017-0.013-0.027-0.017c-0.01-0.004-0.021-0.006-0.033-0.006
			h-0.318H23.14h-0.318h-0.318h-0.075h-0.075h-0.075h-0.075v-0.075v-0.075v-0.075v-0.075v-0.366v-0.366v-0.366v-0.366v-0.075v-0.075
			v-0.075v-0.075h0.075h0.075h0.075h0.075h0.318h0.318h0.318h0.318c0.012,0,0.023-0.002,0.033-0.006
			c0.01-0.004,0.019-0.01,0.027-0.017s0.014-0.016,0.018-0.026c0.004-0.01,0.007-0.02,0.007-0.032s-0.002-0.022-0.007-0.032
			c-0.004-0.01-0.01-0.018-0.018-0.026s-0.017-0.013-0.027-0.017C23.8,10.921,23.789,10.919,23.777,10.919z"/>
	</g>
</g>
<g>
	<g>
		<path class="st2" d="M14.437,15.049c-0.012,0-0.023,0.002-0.032,0.006s-0.019,0.01-0.027,0.017s-0.014,0.016-0.018,0.026
			s-0.007,0.02-0.007,0.032v2.907v2.907v2.907v2.907c0,0.011,0.002,0.022,0.007,0.032s0.01,0.018,0.018,0.026
			s0.017,0.013,0.027,0.017s0.021,0.006,0.032,0.006h3.102h3.102h3.102h3.102c0.012,0,0.023-0.002,0.033-0.006
			c0.01-0.004,0.019-0.01,0.027-0.017s0.014-0.016,0.018-0.026c0.004-0.01,0.007-0.02,0.007-0.032v-2.907v-2.907v-2.907v-2.907
			c0-0.011-0.002-0.022-0.007-0.032c-0.004-0.01-0.01-0.018-0.018-0.026s-0.017-0.013-0.027-0.017
			c-0.01-0.004-0.021-0.006-0.033-0.006h-3.102h-3.102h-3.102H14.437z M26.762,15.512v2.716v2.716v2.716v2.716v0.075v0.075v0.075
			v0.075h-0.075h-0.075h-0.075h-0.075h-2.91h-2.91h-2.91h-2.91h-0.075h-0.075h-0.075h-0.075v-0.075v-0.075v-0.075v-0.075v-2.716
			v-2.716v-2.716v-2.716v-0.075v-0.075v-0.075v-0.075h0.075h0.075h0.075h0.075h2.91h2.91h2.91h2.91h0.075h0.075h0.075h0.075v0.075
			v0.075v0.075V15.512z"/>
	</g>
</g>
<path class="st10" d="M26.929,20.369c-0.143-0.003-0.267,0.006-0.375,0.024c-0.108,0.018-0.2,0.044-0.279,0.076
	s-0.147,0.069-0.205,0.107s-0.108,0.079-0.152,0.118c-0.038,0.033-0.074,0.065-0.111,0.093s-0.077,0.053-0.122,0.073
	c-0.045,0.02-0.097,0.037-0.16,0.048c-0.062,0.011-0.136,0.017-0.224,0.017c-0.088,0-0.161-0.006-0.224-0.017
	c-0.062-0.011-0.114-0.027-0.16-0.048c-0.046-0.02-0.085-0.045-0.122-0.073s-0.073-0.059-0.112-0.093
	c-0.044-0.039-0.091-0.08-0.144-0.119c-0.053-0.04-0.113-0.078-0.184-0.112c-0.071-0.034-0.152-0.063-0.248-0.083
	c-0.096-0.02-0.206-0.032-0.335-0.032c-0.129,0-0.239,0.012-0.334,0.032s-0.177,0.049-0.248,0.083
	c-0.071,0.034-0.131,0.072-0.184,0.112c-0.054,0.04-0.1,0.081-0.145,0.119c-0.038,0.033-0.074,0.065-0.111,0.093
	s-0.077,0.053-0.122,0.073c-0.045,0.02-0.097,0.037-0.16,0.048c-0.062,0.011-0.135,0.017-0.223,0.017
	c-0.088,0-0.161-0.006-0.224-0.017c-0.062-0.011-0.114-0.027-0.16-0.048c-0.046-0.02-0.085-0.045-0.122-0.073
	s-0.073-0.059-0.111-0.093c-0.044-0.039-0.091-0.08-0.145-0.119c-0.054-0.04-0.114-0.078-0.184-0.112
	c-0.071-0.034-0.152-0.063-0.247-0.083s-0.206-0.032-0.335-0.032c-0.129,0-0.239,0.012-0.335,0.032
	c-0.096,0.02-0.177,0.049-0.248,0.083c-0.071,0.034-0.131,0.072-0.184,0.112c-0.053,0.04-0.1,0.081-0.144,0.119
	c-0.038,0.033-0.074,0.065-0.112,0.093c-0.038,0.028-0.077,0.053-0.122,0.073c-0.046,0.02-0.097,0.037-0.16,0.048
	c-0.062,0.011-0.135,0.017-0.224,0.017c-0.088,0-0.161-0.006-0.224-0.017c-0.062-0.011-0.114-0.027-0.16-0.048
	c-0.046-0.02-0.085-0.045-0.122-0.073s-0.073-0.059-0.112-0.093c-0.044-0.039-0.091-0.08-0.144-0.119
	c-0.053-0.04-0.114-0.078-0.184-0.112c-0.071-0.034-0.152-0.063-0.248-0.083s-0.206-0.032-0.335-0.032
	c-0.128,0-0.239,0.012-0.334,0.032c-0.096,0.02-0.177,0.049-0.248,0.083c-0.071,0.034-0.131,0.072-0.184,0.112
	c-0.053,0.04-0.1,0.081-0.144,0.119c-0.038,0.033-0.074,0.065-0.112,0.093c-0.037,0.028-0.077,0.053-0.122,0.073
	c-0.046,0.02-0.097,0.037-0.16,0.048c-0.062,0.011-0.136,0.017-0.224,0.017c-0.088,0-0.162-0.006-0.224-0.017
	c-0.062-0.011-0.114-0.027-0.16-0.048c-0.046-0.02-0.085-0.045-0.122-0.073c-0.037-0.028-0.073-0.059-0.111-0.093
	c-0.044-0.039-0.093-0.087-0.153-0.137c-0.059-0.05-0.128-0.103-0.212-0.151s-0.183-0.091-0.301-0.121s-0.256-0.049-0.418-0.048"/>
<polygon class="st11" points="0.216,0.123 7.585,0.123 14.955,0.123 22.324,0.123 29.694,0.123 29.694,7.493 29.694,14.863 
	29.694,22.232 29.694,29.602 22.324,29.602 14.955,29.602 7.585,29.602 0.216,29.602 0.216,22.232 0.216,14.863 0.216,7.493 "/>
</svg>
