<?xml version="1.0" encoding="utf-8"?>
<!-- Generator: Adobe Illustrator 19.1.0, SVG Export Plug-In . SVG Version: 6.00 Build 0)  -->
<svg version="1.1" id="Layer_1" xmlns="http://www.w3.org/2000/svg" xmlns:xlink="http://www.w3.org/1999/xlink" x="0px" y="0px"
	 viewBox="0 0 29.91 30.086" style="enable-background:new 0 0 29.91 30.086;" xml:space="preserve">
<style type="text/css">
	.st0{fill:#4D4D4D;}
	.st1{fill-rule:evenodd;clip-rule:evenodd;fill:#4C4C4C;}
	.st2{fill:#4C4C4C;}
	.st3{fill:#383330;}
	.st4{fill:#1F1A17;}
	.st5{fill:#4D4C4C;}
	.st6{fill:none;stroke:#000000;stroke-width:0.3;stroke-miterlimit:10;}
	.st7{fill:#E61413;}
	.st8{fill:#5F5357;}
	.st9{fill:#115C78;}
	.st10{fill-rule:evenodd;clip-rule:evenodd;fill:#4D4D4D;}
	.st11{fill-rule:evenodd;clip-rule:evenodd;}
	.st12{fill:#FFFFFF;}
	.st13{fill:none;}
	.st14{fill:#231F20;}
	.st15{clip-path:url(#SVGID_2_);}
	.st16{clip-path:url(#SVGID_4_);fill:#FCF118;}
	.st17{clip-path:url(#SVGID_4_);fill:#FCF018;}
	.st18{clip-path:url(#SVGID_4_);fill:#FCEF18;}
	.st19{clip-path:url(#SVGID_4_);fill:#FCEE18;}
	.st20{clip-path:url(#SVGID_4_);fill:#FCED18;}
	.st21{clip-path:url(#SVGID_4_);fill:#FCEC18;}
	.st22{clip-path:url(#SVGID_4_);fill:#FCEB18;}
	.st23{clip-path:url(#SVGID_4_);fill:#FCEA18;}
	.st24{clip-path:url(#SVGID_4_);fill:#FCE918;}
	.st25{clip-path:url(#SVGID_4_);fill:#FCE818;}
	.st26{clip-path:url(#SVGID_4_);fill:#FCE718;}
	.st27{clip-path:url(#SVGID_4_);fill:#FCE617;}
	.st28{clip-path:url(#SVGID_4_);fill:#FCE517;}
	.st29{clip-path:url(#SVGID_4_);fill:#FCE417;}
	.st30{clip-path:url(#SVGID_4_);fill:#FCE317;}
	.st31{clip-path:url(#SVGID_4_);fill:#FCE217;}
	.st32{clip-path:url(#SVGID_4_);fill:#FCE117;}
	.st33{clip-path:url(#SVGID_4_);fill:#FCE017;}
	.st34{clip-path:url(#SVGID_4_);fill:#FCDF17;}
	.st35{clip-path:url(#SVGID_4_);fill:#FCDE17;}
	.st36{clip-path:url(#SVGID_4_);fill:#FCDD17;}
	.st37{clip-path:url(#SVGID_4_);fill:#FCDC17;}
	.st38{clip-path:url(#SVGID_4_);fill:#FCDB17;}
	.st39{clip-path:url(#SVGID_4_);fill:#FCDA17;}
	.st40{clip-path:url(#SVGID_4_);fill:#FCD917;}
	.st41{clip-path:url(#SVGID_4_);fill:#FCD817;}
	.st42{clip-path:url(#SVGID_4_);fill:#FCD717;}
	.st43{clip-path:url(#SVGID_4_);fill:#FCD617;}
	.st44{clip-path:url(#SVGID_4_);fill:#FCD517;}
	.st45{clip-path:url(#SVGID_4_);fill:#FCD416;}
	.st46{clip-path:url(#SVGID_4_);fill:#FCD316;}
	.st47{clip-path:url(#SVGID_4_);fill:#FBD216;}
	.st48{clip-path:url(#SVGID_4_);fill:#FBD116;}
	.st49{clip-path:url(#SVGID_4_);fill:#FBD016;}
	.st50{clip-path:url(#SVGID_4_);fill:#FBCF16;}
	.st51{clip-path:url(#SVGID_4_);fill:#FBCE16;}
	.st52{clip-path:url(#SVGID_4_);fill:#FBCD16;}
	.st53{clip-path:url(#SVGID_4_);fill:#FBCC16;}
	.st54{clip-path:url(#SVGID_4_);fill:#FBCB16;}
	.st55{clip-path:url(#SVGID_4_);fill:#FBCA16;}
	.st56{clip-path:url(#SVGID_4_);fill:#FBC916;}
	.st57{clip-path:url(#SVGID_4_);fill:#FBC816;}
	.st58{clip-path:url(#SVGID_4_);fill:#FBC716;}
	.st59{clip-path:url(#SVGID_4_);fill:#FBC616;}
	.st60{clip-path:url(#SVGID_4_);fill:#FBC516;}
	.st61{clip-path:url(#SVGID_4_);fill:#FBC416;}
	.st62{clip-path:url(#SVGID_4_);fill:#FBC316;}
	.st63{clip-path:url(#SVGID_4_);fill:#FBC216;}
	.st64{clip-path:url(#SVGID_4_);fill:#FBC115;}
	.st65{clip-path:url(#SVGID_4_);fill:#FBC015;}
	.st66{clip-path:url(#SVGID_4_);fill:#FBBF15;}
	.st67{clip-path:url(#SVGID_4_);fill:#FBBE15;}
	.st68{clip-path:url(#SVGID_4_);fill:#FBBD15;}
	.st69{clip-path:url(#SVGID_4_);fill:#FBBC15;}
	.st70{clip-path:url(#SVGID_4_);fill:#FBBB15;}
	.st71{clip-path:url(#SVGID_4_);fill:#FBBA15;}
	.st72{clip-path:url(#SVGID_4_);fill:#FBB915;}
	.st73{clip-path:url(#SVGID_4_);fill:#FBB815;}
	.st74{clip-path:url(#SVGID_4_);fill:#FBB715;}
	.st75{clip-path:url(#SVGID_4_);fill:#FBB615;}
	.st76{clip-path:url(#SVGID_4_);fill:#FBB515;}
	.st77{clip-path:url(#SVGID_4_);fill:#FBB415;}
	.st78{clip-path:url(#SVGID_4_);fill:#FBB315;}
	.st79{clip-path:url(#SVGID_4_);fill:#FBB215;}
	.st80{clip-path:url(#SVGID_4_);fill:#FBB115;}
	.st81{clip-path:url(#SVGID_4_);fill:#FBB015;}
	.st82{clip-path:url(#SVGID_4_);fill:#FBAF15;}
	.st83{clip-path:url(#SVGID_4_);fill:#FAAE15;}
	.st84{clip-path:url(#SVGID_4_);fill:#FAAD14;}
	.st85{clip-path:url(#SVGID_4_);fill:#FAAC14;}
	.st86{clip-path:url(#SVGID_4_);fill:#FAAB14;}
	.st87{clip-path:url(#SVGID_4_);fill:#FAAA14;}
	.st88{clip-path:url(#SVGID_4_);fill:#FAA914;}
	.st89{clip-path:url(#SVGID_4_);fill:#FAA814;}
	.st90{clip-path:url(#SVGID_4_);fill:#FAA714;}
	.st91{clip-path:url(#SVGID_4_);fill:#FAA614;}
	.st92{clip-path:url(#SVGID_4_);fill:#FAA514;}
	.st93{clip-path:url(#SVGID_4_);fill:#FAA414;}
	.st94{clip-path:url(#SVGID_4_);fill:#FAA314;}
	.st95{clip-path:url(#SVGID_4_);fill:#FAA214;}
	.st96{clip-path:url(#SVGID_4_);fill:#FAA114;}
	.st97{clip-path:url(#SVGID_4_);fill:#FAA014;}
	.st98{clip-path:url(#SVGID_4_);fill:#FA9F14;}
	.st99{clip-path:url(#SVGID_4_);fill:#FA9E14;}
	.st100{clip-path:url(#SVGID_4_);fill:#FA9D14;}
	.st101{clip-path:url(#SVGID_4_);fill:#FA9C14;}
	.st102{clip-path:url(#SVGID_4_);fill:#FA9B14;}
	.st103{clip-path:url(#SVGID_4_);fill:#FA9A13;}
	.st104{clip-path:url(#SVGID_4_);fill:#FA9913;}
	.st105{clip-path:url(#SVGID_4_);fill:#FA9813;}
	.st106{clip-path:url(#SVGID_4_);fill:#FA9713;}
	.st107{clip-path:url(#SVGID_4_);fill:#FA9613;}
	.st108{clip-path:url(#SVGID_4_);fill:#FA9513;}
	.st109{clip-path:url(#SVGID_4_);fill:#FA9413;}
	.st110{clip-path:url(#SVGID_4_);fill:#FA9313;}
	.st111{clip-path:url(#SVGID_4_);fill:#FA9213;}
	.st112{clip-path:url(#SVGID_4_);fill:#FA9113;}
	.st113{clip-path:url(#SVGID_4_);fill:#FA9013;}
	.st114{clip-path:url(#SVGID_4_);fill:#FA8F13;}
	.st115{clip-path:url(#SVGID_4_);fill:#FA8E13;}
	.st116{clip-path:url(#SVGID_4_);fill:#FA8D13;}
	.st117{clip-path:url(#SVGID_4_);fill:#FA8C13;}
	.st118{clip-path:url(#SVGID_4_);fill:#FA8B13;}
	.st119{clip-path:url(#SVGID_4_);fill:#FA8A13;}
	.st120{clip-path:url(#SVGID_4_);fill:#FA8913;}
	.st121{clip-path:url(#SVGID_4_);fill:#FA8812;}
	.st122{clip-path:url(#SVGID_4_);fill:#FA8712;}
	.st123{clip-path:url(#SVGID_4_);fill:#FA8612;}
	.st124{clip-path:url(#SVGID_4_);fill:#F98512;}
	.st125{clip-path:url(#SVGID_4_);fill:#F98412;}
	.st126{clip-path:url(#SVGID_4_);fill:#F98312;}
	.st127{clip-path:url(#SVGID_4_);fill:#F98212;}
	.st128{clip-path:url(#SVGID_4_);fill:#F98112;}
	.st129{clip-path:url(#SVGID_4_);fill:#F98012;}
	.st130{clip-path:url(#SVGID_4_);fill:#F97F12;}
	.st131{clip-path:url(#SVGID_4_);fill:#F97E12;}
	.st132{clip-path:url(#SVGID_4_);fill:#F97D12;}
	.st133{clip-path:url(#SVGID_4_);fill:#F97C12;}
	.st134{clip-path:url(#SVGID_4_);fill:#F97B12;}
	.st135{clip-path:url(#SVGID_4_);fill:#F97A12;}
	.st136{clip-path:url(#SVGID_4_);fill:#F97912;}
	.st137{clip-path:url(#SVGID_4_);fill:#F97812;}
	.st138{clip-path:url(#SVGID_4_);fill:#F97712;}
	.st139{clip-path:url(#SVGID_4_);fill:#F97612;}
	.st140{clip-path:url(#SVGID_4_);fill:#F97511;}
	.st141{clip-path:url(#SVGID_4_);fill:#F97411;}
	.st142{clip-path:url(#SVGID_4_);fill:#F97311;}
	.st143{clip-path:url(#SVGID_4_);fill:#F97211;}
	.st144{clip-path:url(#SVGID_4_);fill:#F97111;}
	.st145{clip-path:url(#SVGID_4_);fill:#F97011;}
	.st146{clip-path:url(#SVGID_4_);fill:#F96F11;}
	.st147{clip-path:url(#SVGID_4_);fill:#F96E11;}
	.st148{clip-path:url(#SVGID_4_);fill:#F96D11;}
	.st149{clip-path:url(#SVGID_4_);fill:#F96C11;}
	.st150{clip-path:url(#SVGID_4_);fill:#F96B11;}
	.st151{clip-path:url(#SVGID_4_);fill:#F96A11;}
	.st152{clip-path:url(#SVGID_4_);fill:#F96911;}
	.st153{clip-path:url(#SVGID_4_);fill:#F96811;}
	.st154{clip-path:url(#SVGID_4_);fill:#F96711;}
	.st155{clip-path:url(#SVGID_4_);fill:#F96611;}
	.st156{clip-path:url(#SVGID_4_);fill:#F96511;}
	.st157{clip-path:url(#SVGID_4_);fill:#F96411;}
	.st158{clip-path:url(#SVGID_4_);fill:#F96311;}
	.st159{clip-path:url(#SVGID_4_);fill:#F96210;}
	.st160{clip-path:url(#SVGID_4_);fill:#F86110;}
	.st161{clip-path:url(#SVGID_4_);fill:#F86010;}
	.st162{clip-path:url(#SVGID_4_);fill:#F85F10;}
	.st163{clip-path:url(#SVGID_4_);fill:#F85E10;}
	.st164{clip-path:url(#SVGID_4_);fill:#F85D10;}
	.st165{clip-path:url(#SVGID_4_);fill:#F85C10;}
	.st166{clip-path:url(#SVGID_4_);fill:#F85B10;}
	.st167{clip-path:url(#SVGID_4_);fill:#F85A10;}
	.st168{clip-path:url(#SVGID_4_);fill:#F85910;}
	.st169{clip-path:url(#SVGID_4_);fill:#F85810;}
	.st170{clip-path:url(#SVGID_4_);fill:#F85710;}
	.st171{clip-path:url(#SVGID_4_);fill:#F85610;}
	.st172{clip-path:url(#SVGID_4_);fill:#F85510;}
	.st173{clip-path:url(#SVGID_4_);fill:#F85410;}
	.st174{clip-path:url(#SVGID_4_);fill:#F85310;}
	.st175{clip-path:url(#SVGID_4_);fill:#F85210;}
	.st176{clip-path:url(#SVGID_4_);fill:#F85110;}
	.st177{clip-path:url(#SVGID_4_);fill:#F85010;}
	.st178{clip-path:url(#SVGID_4_);fill:#F84F0F;}
	.st179{clip-path:url(#SVGID_4_);fill:#F84E0F;}
	.st180{clip-path:url(#SVGID_4_);fill:#F84D0F;}
	.st181{clip-path:url(#SVGID_4_);fill:#F84C0F;}
	.st182{clip-path:url(#SVGID_4_);fill:#F84B0F;}
	.st183{clip-path:url(#SVGID_4_);fill:#F84A0F;}
	.st184{clip-path:url(#SVGID_4_);fill:#F8490F;}
	.st185{clip-path:url(#SVGID_4_);fill:#F8480F;}
	.st186{clip-path:url(#SVGID_4_);fill:#F8470F;}
	.st187{clip-path:url(#SVGID_4_);fill:#F8460F;}
	.st188{clip-path:url(#SVGID_4_);fill:#F8450F;}
	.st189{clip-path:url(#SVGID_4_);fill:#F8440F;}
	.st190{clip-path:url(#SVGID_4_);fill:#F8430F;}
	.st191{clip-path:url(#SVGID_4_);fill:#F8420F;}
	.st192{clip-path:url(#SVGID_4_);fill:#F8410F;}
	.st193{clip-path:url(#SVGID_4_);fill:#F8400F;}
	.st194{clip-path:url(#SVGID_4_);fill:#F83F0F;}
	.st195{clip-path:url(#SVGID_4_);fill:#F83E0E;}
	.st196{clip-path:url(#SVGID_4_);fill:#F83D0E;}
	.st197{clip-path:url(#SVGID_4_);fill:#F83C0E;}
	.st198{clip-path:url(#SVGID_4_);fill:#F83B0E;}
	.st199{clip-path:url(#SVGID_4_);fill:#F73A0E;}
	.st200{clip-path:url(#SVGID_4_);fill:#F7390E;}
	.st201{clip-path:url(#SVGID_4_);fill:#F7380E;}
	.st202{clip-path:url(#SVGID_4_);fill:#F7370E;}
	.st203{clip-path:url(#SVGID_4_);fill:#F7360E;}
	.st204{clip-path:url(#SVGID_4_);fill:#F7340E;}
	.st205{clip-path:url(#SVGID_4_);fill:#F7330E;}
	.st206{clip-path:url(#SVGID_4_);fill:#F7320E;}
	.st207{clip-path:url(#SVGID_4_);fill:#F7310E;}
	.st208{clip-path:url(#SVGID_4_);fill:#F7300E;}
	.st209{clip-path:url(#SVGID_4_);fill:#F72F0E;}
	.st210{clip-path:url(#SVGID_4_);fill:#F72E0E;}
	.st211{clip-path:url(#SVGID_4_);fill:#F72D0E;}
	.st212{clip-path:url(#SVGID_4_);fill:#F72C0E;}
	.st213{clip-path:url(#SVGID_4_);fill:#F72B0E;}
	.st214{clip-path:url(#SVGID_4_);fill:#F72B0D;}
	.st215{clip-path:url(#SVGID_4_);fill:#F72A0D;}
	.st216{clip-path:url(#SVGID_4_);fill:#F7290D;}
	.st217{clip-path:url(#SVGID_4_);fill:#F7280D;}
	.st218{clip-path:url(#SVGID_4_);fill:#F7270D;}
	.st219{clip-path:url(#SVGID_4_);fill:#F7260D;}
</style>
<g>
	<path class="st0" d="M29.819,29.908h-7.432h-7.432H7.523H0.091v-7.432v-7.432V7.611V0.179h7.432h7.432h7.432h7.432v7.432v7.432
		v7.432V29.908z M0.341,29.658h7.307h7.307h7.307h7.307V22.35v-7.307V7.736V0.429h-7.307h-7.307H7.648H0.341v7.307v7.307v7.307
		V29.658z"/>
</g>
<g>
	<path class="st2" d="M10.48,12.227v-0.892v-0.892V9.55V8.658h0.062h0.062h0.062h0.062V9.55v0.892v0.892v0.892h-0.062h-0.062h-0.062
		H10.48z"/>
	<path class="st2" d="M13.888,9.683c0,0.086-0.007,0.167-0.022,0.244s-0.037,0.147-0.066,0.214s-0.066,0.127-0.11,0.183
		s-0.095,0.107-0.154,0.153c-0.059,0.046-0.123,0.086-0.194,0.12s-0.148,0.063-0.231,0.086s-0.172,0.04-0.267,0.052
		s-0.197,0.017-0.304,0.017h-0.138h-0.138h-0.138h-0.138v0.369v0.369v0.369v0.369h-0.062h-0.062h-0.062H11.74v-0.892v-0.892V9.55
		V8.658h0.219h0.219h0.219h0.219c0.212,0,0.398,0.021,0.558,0.064s0.292,0.107,0.398,0.192s0.186,0.192,0.239,0.32
		S13.888,9.513,13.888,9.683z M11.989,10.538h0.123h0.123h0.123h0.123c0.1,0,0.194-0.004,0.281-0.012s0.166-0.021,0.239-0.037
		s0.138-0.037,0.197-0.062s0.11-0.054,0.155-0.087s0.084-0.072,0.118-0.115s0.062-0.092,0.084-0.146s0.039-0.113,0.05-0.177
		s0.017-0.133,0.017-0.208c0-0.069-0.005-0.133-0.016-0.193s-0.026-0.115-0.048-0.166s-0.048-0.097-0.079-0.139
		s-0.069-0.079-0.111-0.112c-0.042-0.033-0.09-0.062-0.144-0.087s-0.114-0.046-0.179-0.062s-0.137-0.029-0.214-0.037
		s-0.16-0.012-0.249-0.012h-0.148h-0.148h-0.148h-0.148v0.414V9.71v0.414V10.538z"/>
	<path class="st2" d="M14.479,10.706c0-0.116,0.004-0.227,0.012-0.334s0.02-0.209,0.035-0.306s0.035-0.19,0.059-0.279
		s0.051-0.172,0.083-0.251c0.032-0.079,0.067-0.153,0.105-0.222s0.08-0.133,0.124-0.192s0.093-0.112,0.144-0.161
		s0.106-0.092,0.164-0.13c0.058-0.038,0.119-0.072,0.183-0.1s0.131-0.053,0.201-0.072s0.143-0.033,0.219-0.043
		s0.155-0.014,0.236-0.014c0.038,0,0.076,0.001,0.112,0.003s0.072,0.006,0.107,0.01s0.069,0.011,0.103,0.018
		s0.066,0.015,0.098,0.025v0.054v0.054v0.054v0.054c-0.03-0.011-0.061-0.021-0.094-0.029s-0.067-0.015-0.103-0.021
		s-0.073-0.01-0.112-0.012s-0.079-0.004-0.121-0.004c-0.1,0-0.195,0.009-0.285,0.027s-0.173,0.045-0.251,0.081
		s-0.151,0.081-0.218,0.136s-0.129,0.118-0.184,0.19c-0.056,0.073-0.106,0.153-0.15,0.242s-0.081,0.186-0.113,0.292
		s-0.057,0.219-0.076,0.341s-0.032,0.252-0.039,0.391h0.008h0.008h0.008h0.008c0.031-0.04,0.063-0.078,0.096-0.113
		s0.067-0.068,0.103-0.098s0.072-0.058,0.11-0.083s0.076-0.048,0.116-0.068c0.04-0.021,0.08-0.038,0.121-0.054
		s0.083-0.028,0.125-0.038s0.085-0.018,0.128-0.023s0.087-0.008,0.131-0.008c0.083,0,0.162,0.006,0.236,0.018
		s0.144,0.03,0.209,0.054s0.126,0.054,0.182,0.089s0.108,0.077,0.155,0.125c0.047,0.048,0.088,0.1,0.123,0.156
		s0.065,0.118,0.088,0.183s0.041,0.136,0.053,0.211s0.018,0.154,0.018,0.238c0,0.091-0.006,0.178-0.019,0.259
		s-0.031,0.158-0.056,0.23s-0.056,0.139-0.093,0.201s-0.08,0.12-0.13,0.173c-0.05,0.053-0.103,0.099-0.161,0.138
		s-0.12,0.073-0.187,0.099s-0.138,0.046-0.213,0.059s-0.155,0.02-0.239,0.02c-0.09,0-0.176-0.009-0.257-0.026
		s-0.157-0.043-0.228-0.078s-0.138-0.078-0.2-0.129s-0.119-0.112-0.171-0.181c-0.052-0.069-0.098-0.145-0.137-0.227
		s-0.072-0.172-0.098-0.269s-0.046-0.2-0.059-0.31S14.479,10.83,14.479,10.706z M15.648,12.061c0.067,0,0.13-0.005,0.189-0.016
		s0.115-0.026,0.167-0.047s0.1-0.047,0.144-0.079s0.085-0.068,0.122-0.11c0.037-0.042,0.069-0.088,0.097-0.139
		s0.051-0.106,0.069-0.166s0.032-0.124,0.042-0.193s0.014-0.142,0.014-0.22c0-0.068-0.005-0.133-0.014-0.194
		s-0.023-0.118-0.041-0.171s-0.041-0.103-0.069-0.149s-0.06-0.088-0.096-0.126c-0.037-0.038-0.077-0.071-0.12-0.1
		s-0.09-0.052-0.14-0.071s-0.103-0.033-0.159-0.043s-0.116-0.014-0.179-0.014c-0.042,0-0.082,0.002-0.122,0.007
		s-0.079,0.011-0.118,0.02s-0.076,0.02-0.113,0.034s-0.073,0.03-0.109,0.048c-0.036,0.018-0.069,0.038-0.102,0.059
		s-0.062,0.044-0.091,0.069s-0.055,0.05-0.08,0.078s-0.048,0.056-0.069,0.086s-0.04,0.061-0.055,0.091s-0.029,0.061-0.04,0.092
		s-0.019,0.062-0.024,0.094s-0.008,0.063-0.008,0.095c0,0.045,0.003,0.09,0.008,0.134s0.013,0.088,0.023,0.132
		s0.023,0.086,0.038,0.129s0.033,0.085,0.053,0.127c0.02,0.042,0.042,0.081,0.066,0.119s0.049,0.073,0.076,0.106
		s0.056,0.064,0.087,0.093s0.064,0.055,0.098,0.08c0.034,0.024,0.07,0.046,0.106,0.064s0.073,0.034,0.111,0.046
		s0.077,0.021,0.116,0.027S15.607,12.061,15.648,12.061z"/>
	<path class="st2" d="M18.324,10.081c0.095,0,0.185,0.006,0.27,0.017s0.165,0.029,0.24,0.052s0.145,0.052,0.21,0.086
		s0.125,0.075,0.18,0.121c0.055,0.046,0.103,0.096,0.144,0.151s0.075,0.113,0.103,0.177s0.048,0.131,0.062,0.203
		s0.021,0.148,0.021,0.229c0,0.092-0.007,0.178-0.021,0.26s-0.036,0.158-0.064,0.229s-0.064,0.137-0.107,0.198
		s-0.093,0.117-0.15,0.168c-0.057,0.051-0.119,0.095-0.187,0.133s-0.141,0.07-0.219,0.095s-0.162,0.044-0.252,0.057
		s-0.184,0.019-0.284,0.019c-0.044,0-0.088-0.001-0.131-0.003s-0.086-0.005-0.128-0.01s-0.084-0.01-0.125-0.016
		s-0.081-0.014-0.121-0.023s-0.078-0.018-0.115-0.029s-0.072-0.022-0.105-0.035s-0.065-0.026-0.095-0.04s-0.059-0.03-0.085-0.046
		V12.01v-0.063v-0.063v-0.063c0.044,0.022,0.087,0.043,0.128,0.062s0.082,0.036,0.121,0.052s0.077,0.029,0.114,0.041
		s0.072,0.023,0.106,0.031s0.069,0.016,0.104,0.023s0.071,0.012,0.108,0.016s0.073,0.008,0.111,0.01s0.076,0.003,0.114,0.003
		c0.078,0,0.152-0.005,0.223-0.016s0.137-0.026,0.2-0.047s0.121-0.047,0.176-0.078s0.106-0.067,0.153-0.108s0.089-0.086,0.124-0.135
		s0.065-0.101,0.088-0.157s0.041-0.115,0.053-0.178s0.018-0.13,0.018-0.2c0-0.066-0.006-0.129-0.017-0.188s-0.029-0.115-0.052-0.167
		s-0.052-0.101-0.086-0.145s-0.075-0.086-0.121-0.124s-0.096-0.071-0.15-0.099s-0.113-0.052-0.175-0.071s-0.129-0.033-0.2-0.042
		s-0.146-0.014-0.225-0.014c-0.053,0-0.106,0.002-0.16,0.006s-0.109,0.01-0.164,0.018s-0.111,0.018-0.168,0.03
		s-0.114,0.026-0.171,0.042l-0.037-0.024l-0.037-0.024l-0.037-0.024l-0.037-0.024l0.035-0.408l0.035-0.408l0.035-0.408l0.035-0.408
		h0.43h0.43h0.43h0.43v0.059v0.059v0.059v0.059h-0.372h-0.372h-0.372h-0.372l-0.027,0.315l-0.027,0.315l-0.027,0.315l-0.027,0.315
		c0.063-0.012,0.124-0.022,0.18-0.031s0.11-0.016,0.159-0.022s0.096-0.01,0.139-0.014S18.288,10.081,18.324,10.081z"/>
</g>
<g>
	<path class="st0" d="M29.558,22.938v-0.061v-0.061v-0.061v-0.061c-1.128-0.469-2.283-0.886-3.461-1.248
		c-1.179-0.362-2.382-0.668-3.605-0.915s-2.469-0.436-3.731-0.563c-1.263-0.127-2.543-0.192-3.839-0.192
		c-1.296,0-2.577,0.065-3.839,0.192c-1.263,0.127-2.508,0.316-3.731,0.563s-2.426,0.554-3.605,0.915
		c-1.179,0.362-2.333,0.779-3.461,1.248v0.061v0.061v0.061v0.061c1.127-0.472,2.281-0.891,3.46-1.255
		c1.178-0.364,2.381-0.672,3.605-0.92s2.469-0.439,3.732-0.566c1.263-0.128,2.544-0.193,3.841-0.193c1.296,0,2.577,0.065,3.84,0.193
		c1.263,0.128,2.508,0.318,3.732,0.566s2.426,0.557,3.605,0.92C27.276,22.047,28.431,22.466,29.558,22.938"/>
</g>
</svg>
