<?xml version="1.0" encoding="utf-8"?>
<!-- Generator: Adobe Illustrator 19.1.0, SVG Export Plug-In . SVG Version: 6.00 Build 0)  -->
<svg version="1.1" id="Layer_1" xmlns="http://www.w3.org/2000/svg" xmlns:xlink="http://www.w3.org/1999/xlink" x="0px" y="0px"
	 viewBox="0 0 29.91 30.086" style="enable-background:new 0 0 29.91 30.086;" xml:space="preserve">
<style type="text/css">
	.st0{fill:#115C78;}
	.st1{fill-rule:evenodd;clip-rule:evenodd;fill:#4D4D4D;}
	.st2{fill:#4D4D4D;}
	.st3{fill-rule:evenodd;clip-rule:evenodd;}
	.st4{fill:#FFFFFF;}
	.st5{fill:none;}
	.st6{fill:none;stroke:#4D4D4D;stroke-width:0.3;stroke-miterlimit:10;}
	.st7{fill:#4D4D4D;stroke:#4D4D4D;stroke-width:0.1;stroke-miterlimit:10;}
	.st8{fill:#F0047F;}
	.st9{fill:none;stroke:#4D4D4D;stroke-width:0;stroke-linecap:round;stroke-linejoin:round;}
	.st10{fill:none;stroke:#4D4D4D;stroke-width:0.25;stroke-miterlimit:10;}
	.st11{fill:none;stroke:#4D4D4D;stroke-width:0.2;stroke-miterlimit:10;}
	.st12{fill:none;stroke:#4D4D4D;stroke-width:0.8;stroke-miterlimit:10;}
	.st13{fill:#4D4D4D;stroke:#4D4D4D;stroke-width:0.3;stroke-miterlimit:10;}
	.st14{fill:none;stroke:#4D4D4D;stroke-width:0.24;stroke-miterlimit:10;}
</style>
<g>
	<path class="st2" d="M20.513,1.964h-2.636h-2.636h-2.636H9.968c-0.226,0-0.442,0.046-0.639,0.129S8.956,2.298,8.807,2.447
		S8.538,2.773,8.455,2.97s-0.129,0.413-0.129,0.64v5.826v5.826v5.826v5.826c0,0.227,0.046,0.443,0.129,0.64s0.204,0.374,0.352,0.523
		s0.326,0.27,0.522,0.353s0.412,0.129,0.639,0.129h2.636h2.636h2.636h2.636c0.226,0,0.442-0.046,0.639-0.129
		s0.373-0.204,0.522-0.353s0.269-0.326,0.352-0.523s0.129-0.413,0.129-0.64v-5.826v-5.826V9.436V3.609
		c0-0.227-0.046-0.443-0.129-0.64s-0.204-0.374-0.352-0.523s-0.326-0.27-0.522-0.353S20.74,1.964,20.513,1.964z M21.923,26.918
		c0,0.194-0.04,0.38-0.111,0.548c-0.071,0.169-0.175,0.32-0.303,0.448s-0.28,0.231-0.448,0.302
		c-0.169,0.071-0.354,0.111-0.548,0.111h-2.636h-2.636h-2.636H9.968c-0.194,0-0.38-0.04-0.548-0.111
		c-0.169-0.071-0.321-0.175-0.448-0.302s-0.231-0.279-0.303-0.448c-0.071-0.169-0.111-0.354-0.111-0.548V21.09v-5.828V9.434V3.606
		c0-0.194,0.039-0.379,0.111-0.548s0.175-0.32,0.302-0.448S9.25,2.379,9.419,2.308s0.354-0.111,0.548-0.111h0.486h0.486h0.486h0.486
		c0.065,0,0.131,0.01,0.197,0.029s0.13,0.046,0.19,0.08s0.117,0.075,0.166,0.122s0.092,0.098,0.126,0.154l0.137,0.228l0.137,0.228
		l0.137,0.228l0.137,0.228c0.006,0.01,0.017,0.021,0.029,0.032s0.028,0.021,0.044,0.03s0.032,0.017,0.048,0.022
		s0.03,0.009,0.042,0.009h0.971h0.971h0.971h0.971c0.012,0,0.026-0.003,0.042-0.009c0.016-0.006,0.032-0.013,0.048-0.023
		s0.031-0.019,0.044-0.03c0.013-0.011,0.023-0.021,0.029-0.031l0.137-0.228l0.137-0.228l0.137-0.228l0.137-0.228
		c0.033-0.056,0.076-0.107,0.126-0.154c0.05-0.046,0.106-0.088,0.166-0.122s0.124-0.061,0.19-0.08
		c0.065-0.019,0.132-0.029,0.197-0.029h0.486h0.486h0.486h0.486c0.194,0,0.379,0.04,0.548,0.111s0.32,0.175,0.448,0.302
		s0.231,0.279,0.302,0.448s0.111,0.354,0.111,0.548v5.828v5.828v5.828V26.918z"/>
</g>
<path class="st10" d="M0.216,0.36h7.37h7.37h7.37h7.37v7.276v7.276v7.276v7.276h-7.37h-7.37h-7.37h-7.37v-7.276v-7.276V7.636V0.36z"
	/>
</svg>
