<?xml version="1.0" encoding="utf-8"?>
<!-- Generator: Adobe Illustrator 19.1.0, SVG Export Plug-In . SVG Version: 6.00 Build 0)  -->
<svg version="1.1" id="Layer_1" xmlns="http://www.w3.org/2000/svg" xmlns:xlink="http://www.w3.org/1999/xlink" x="0px" y="0px"
	 viewBox="0 0 29.91 30.086" style="enable-background:new 0 0 29.91 30.086;" xml:space="preserve">
<style type="text/css">
	.st0{fill:#4D4D4D;}
	.st1{fill-rule:evenodd;clip-rule:evenodd;fill:#4C4C4C;}
	.st2{fill:#4C4C4C;}
	.st3{fill:#383330;}
	.st4{fill:#1F1A17;}
	.st5{fill:#4D4C4C;}
	.st6{fill:none;stroke:#000000;stroke-width:0.3;stroke-miterlimit:10;}
	.st7{fill:#E61413;}
	.st8{fill:#5F5357;}
	.st9{fill:#115C78;}
	.st10{fill-rule:evenodd;clip-rule:evenodd;fill:#4D4D4D;}
	.st11{fill-rule:evenodd;clip-rule:evenodd;}
	.st12{fill:#FFFFFF;}
	.st13{fill:none;}
	.st14{fill:#231F20;}
	.st15{clip-path:url(#SVGID_2_);}
	.st16{clip-path:url(#SVGID_4_);fill:#FCF118;}
	.st17{clip-path:url(#SVGID_4_);fill:#FCF018;}
	.st18{clip-path:url(#SVGID_4_);fill:#FCEF18;}
	.st19{clip-path:url(#SVGID_4_);fill:#FCEE18;}
	.st20{clip-path:url(#SVGID_4_);fill:#FCED18;}
	.st21{clip-path:url(#SVGID_4_);fill:#FCEC18;}
	.st22{clip-path:url(#SVGID_4_);fill:#FCEB18;}
	.st23{clip-path:url(#SVGID_4_);fill:#FCEA18;}
	.st24{clip-path:url(#SVGID_4_);fill:#FCE918;}
	.st25{clip-path:url(#SVGID_4_);fill:#FCE818;}
	.st26{clip-path:url(#SVGID_4_);fill:#FCE718;}
	.st27{clip-path:url(#SVGID_4_);fill:#FCE617;}
	.st28{clip-path:url(#SVGID_4_);fill:#FCE517;}
	.st29{clip-path:url(#SVGID_4_);fill:#FCE417;}
	.st30{clip-path:url(#SVGID_4_);fill:#FCE317;}
	.st31{clip-path:url(#SVGID_4_);fill:#FCE217;}
	.st32{clip-path:url(#SVGID_4_);fill:#FCE117;}
	.st33{clip-path:url(#SVGID_4_);fill:#FCE017;}
	.st34{clip-path:url(#SVGID_4_);fill:#FCDF17;}
	.st35{clip-path:url(#SVGID_4_);fill:#FCDE17;}
	.st36{clip-path:url(#SVGID_4_);fill:#FCDD17;}
	.st37{clip-path:url(#SVGID_4_);fill:#FCDC17;}
	.st38{clip-path:url(#SVGID_4_);fill:#FCDB17;}
	.st39{clip-path:url(#SVGID_4_);fill:#FCDA17;}
	.st40{clip-path:url(#SVGID_4_);fill:#FCD917;}
	.st41{clip-path:url(#SVGID_4_);fill:#FCD817;}
	.st42{clip-path:url(#SVGID_4_);fill:#FCD717;}
	.st43{clip-path:url(#SVGID_4_);fill:#FCD617;}
	.st44{clip-path:url(#SVGID_4_);fill:#FCD517;}
	.st45{clip-path:url(#SVGID_4_);fill:#FCD416;}
	.st46{clip-path:url(#SVGID_4_);fill:#FCD316;}
	.st47{clip-path:url(#SVGID_4_);fill:#FBD216;}
	.st48{clip-path:url(#SVGID_4_);fill:#FBD116;}
	.st49{clip-path:url(#SVGID_4_);fill:#FBD016;}
	.st50{clip-path:url(#SVGID_4_);fill:#FBCF16;}
	.st51{clip-path:url(#SVGID_4_);fill:#FBCE16;}
	.st52{clip-path:url(#SVGID_4_);fill:#FBCD16;}
	.st53{clip-path:url(#SVGID_4_);fill:#FBCC16;}
	.st54{clip-path:url(#SVGID_4_);fill:#FBCB16;}
	.st55{clip-path:url(#SVGID_4_);fill:#FBCA16;}
	.st56{clip-path:url(#SVGID_4_);fill:#FBC916;}
	.st57{clip-path:url(#SVGID_4_);fill:#FBC816;}
	.st58{clip-path:url(#SVGID_4_);fill:#FBC716;}
	.st59{clip-path:url(#SVGID_4_);fill:#FBC616;}
	.st60{clip-path:url(#SVGID_4_);fill:#FBC516;}
	.st61{clip-path:url(#SVGID_4_);fill:#FBC416;}
	.st62{clip-path:url(#SVGID_4_);fill:#FBC316;}
	.st63{clip-path:url(#SVGID_4_);fill:#FBC216;}
	.st64{clip-path:url(#SVGID_4_);fill:#FBC115;}
	.st65{clip-path:url(#SVGID_4_);fill:#FBC015;}
	.st66{clip-path:url(#SVGID_4_);fill:#FBBF15;}
	.st67{clip-path:url(#SVGID_4_);fill:#FBBE15;}
	.st68{clip-path:url(#SVGID_4_);fill:#FBBD15;}
	.st69{clip-path:url(#SVGID_4_);fill:#FBBC15;}
	.st70{clip-path:url(#SVGID_4_);fill:#FBBB15;}
	.st71{clip-path:url(#SVGID_4_);fill:#FBBA15;}
	.st72{clip-path:url(#SVGID_4_);fill:#FBB915;}
	.st73{clip-path:url(#SVGID_4_);fill:#FBB815;}
	.st74{clip-path:url(#SVGID_4_);fill:#FBB715;}
	.st75{clip-path:url(#SVGID_4_);fill:#FBB615;}
	.st76{clip-path:url(#SVGID_4_);fill:#FBB515;}
	.st77{clip-path:url(#SVGID_4_);fill:#FBB415;}
	.st78{clip-path:url(#SVGID_4_);fill:#FBB315;}
	.st79{clip-path:url(#SVGID_4_);fill:#FBB215;}
	.st80{clip-path:url(#SVGID_4_);fill:#FBB115;}
	.st81{clip-path:url(#SVGID_4_);fill:#FBB015;}
	.st82{clip-path:url(#SVGID_4_);fill:#FBAF15;}
	.st83{clip-path:url(#SVGID_4_);fill:#FAAE15;}
	.st84{clip-path:url(#SVGID_4_);fill:#FAAD14;}
	.st85{clip-path:url(#SVGID_4_);fill:#FAAC14;}
	.st86{clip-path:url(#SVGID_4_);fill:#FAAB14;}
	.st87{clip-path:url(#SVGID_4_);fill:#FAAA14;}
	.st88{clip-path:url(#SVGID_4_);fill:#FAA914;}
	.st89{clip-path:url(#SVGID_4_);fill:#FAA814;}
	.st90{clip-path:url(#SVGID_4_);fill:#FAA714;}
	.st91{clip-path:url(#SVGID_4_);fill:#FAA614;}
	.st92{clip-path:url(#SVGID_4_);fill:#FAA514;}
	.st93{clip-path:url(#SVGID_4_);fill:#FAA414;}
	.st94{clip-path:url(#SVGID_4_);fill:#FAA314;}
	.st95{clip-path:url(#SVGID_4_);fill:#FAA214;}
	.st96{clip-path:url(#SVGID_4_);fill:#FAA114;}
	.st97{clip-path:url(#SVGID_4_);fill:#FAA014;}
	.st98{clip-path:url(#SVGID_4_);fill:#FA9F14;}
	.st99{clip-path:url(#SVGID_4_);fill:#FA9E14;}
	.st100{clip-path:url(#SVGID_4_);fill:#FA9D14;}
	.st101{clip-path:url(#SVGID_4_);fill:#FA9C14;}
	.st102{clip-path:url(#SVGID_4_);fill:#FA9B14;}
	.st103{clip-path:url(#SVGID_4_);fill:#FA9A13;}
	.st104{clip-path:url(#SVGID_4_);fill:#FA9913;}
	.st105{clip-path:url(#SVGID_4_);fill:#FA9813;}
	.st106{clip-path:url(#SVGID_4_);fill:#FA9713;}
	.st107{clip-path:url(#SVGID_4_);fill:#FA9613;}
	.st108{clip-path:url(#SVGID_4_);fill:#FA9513;}
	.st109{clip-path:url(#SVGID_4_);fill:#FA9413;}
	.st110{clip-path:url(#SVGID_4_);fill:#FA9313;}
	.st111{clip-path:url(#SVGID_4_);fill:#FA9213;}
	.st112{clip-path:url(#SVGID_4_);fill:#FA9113;}
	.st113{clip-path:url(#SVGID_4_);fill:#FA9013;}
	.st114{clip-path:url(#SVGID_4_);fill:#FA8F13;}
	.st115{clip-path:url(#SVGID_4_);fill:#FA8E13;}
	.st116{clip-path:url(#SVGID_4_);fill:#FA8D13;}
	.st117{clip-path:url(#SVGID_4_);fill:#FA8C13;}
	.st118{clip-path:url(#SVGID_4_);fill:#FA8B13;}
	.st119{clip-path:url(#SVGID_4_);fill:#FA8A13;}
	.st120{clip-path:url(#SVGID_4_);fill:#FA8913;}
	.st121{clip-path:url(#SVGID_4_);fill:#FA8812;}
	.st122{clip-path:url(#SVGID_4_);fill:#FA8712;}
	.st123{clip-path:url(#SVGID_4_);fill:#FA8612;}
	.st124{clip-path:url(#SVGID_4_);fill:#F98512;}
	.st125{clip-path:url(#SVGID_4_);fill:#F98412;}
	.st126{clip-path:url(#SVGID_4_);fill:#F98312;}
	.st127{clip-path:url(#SVGID_4_);fill:#F98212;}
	.st128{clip-path:url(#SVGID_4_);fill:#F98112;}
	.st129{clip-path:url(#SVGID_4_);fill:#F98012;}
	.st130{clip-path:url(#SVGID_4_);fill:#F97F12;}
	.st131{clip-path:url(#SVGID_4_);fill:#F97E12;}
	.st132{clip-path:url(#SVGID_4_);fill:#F97D12;}
	.st133{clip-path:url(#SVGID_4_);fill:#F97C12;}
	.st134{clip-path:url(#SVGID_4_);fill:#F97B12;}
	.st135{clip-path:url(#SVGID_4_);fill:#F97A12;}
	.st136{clip-path:url(#SVGID_4_);fill:#F97912;}
	.st137{clip-path:url(#SVGID_4_);fill:#F97812;}
	.st138{clip-path:url(#SVGID_4_);fill:#F97712;}
	.st139{clip-path:url(#SVGID_4_);fill:#F97612;}
	.st140{clip-path:url(#SVGID_4_);fill:#F97511;}
	.st141{clip-path:url(#SVGID_4_);fill:#F97411;}
	.st142{clip-path:url(#SVGID_4_);fill:#F97311;}
	.st143{clip-path:url(#SVGID_4_);fill:#F97211;}
	.st144{clip-path:url(#SVGID_4_);fill:#F97111;}
	.st145{clip-path:url(#SVGID_4_);fill:#F97011;}
	.st146{clip-path:url(#SVGID_4_);fill:#F96F11;}
	.st147{clip-path:url(#SVGID_4_);fill:#F96E11;}
	.st148{clip-path:url(#SVGID_4_);fill:#F96D11;}
	.st149{clip-path:url(#SVGID_4_);fill:#F96C11;}
	.st150{clip-path:url(#SVGID_4_);fill:#F96B11;}
	.st151{clip-path:url(#SVGID_4_);fill:#F96A11;}
	.st152{clip-path:url(#SVGID_4_);fill:#F96911;}
	.st153{clip-path:url(#SVGID_4_);fill:#F96811;}
	.st154{clip-path:url(#SVGID_4_);fill:#F96711;}
	.st155{clip-path:url(#SVGID_4_);fill:#F96611;}
	.st156{clip-path:url(#SVGID_4_);fill:#F96511;}
	.st157{clip-path:url(#SVGID_4_);fill:#F96411;}
	.st158{clip-path:url(#SVGID_4_);fill:#F96311;}
	.st159{clip-path:url(#SVGID_4_);fill:#F96210;}
	.st160{clip-path:url(#SVGID_4_);fill:#F86110;}
	.st161{clip-path:url(#SVGID_4_);fill:#F86010;}
	.st162{clip-path:url(#SVGID_4_);fill:#F85F10;}
	.st163{clip-path:url(#SVGID_4_);fill:#F85E10;}
	.st164{clip-path:url(#SVGID_4_);fill:#F85D10;}
	.st165{clip-path:url(#SVGID_4_);fill:#F85C10;}
	.st166{clip-path:url(#SVGID_4_);fill:#F85B10;}
	.st167{clip-path:url(#SVGID_4_);fill:#F85A10;}
	.st168{clip-path:url(#SVGID_4_);fill:#F85910;}
	.st169{clip-path:url(#SVGID_4_);fill:#F85810;}
	.st170{clip-path:url(#SVGID_4_);fill:#F85710;}
	.st171{clip-path:url(#SVGID_4_);fill:#F85610;}
	.st172{clip-path:url(#SVGID_4_);fill:#F85510;}
	.st173{clip-path:url(#SVGID_4_);fill:#F85410;}
	.st174{clip-path:url(#SVGID_4_);fill:#F85310;}
	.st175{clip-path:url(#SVGID_4_);fill:#F85210;}
	.st176{clip-path:url(#SVGID_4_);fill:#F85110;}
	.st177{clip-path:url(#SVGID_4_);fill:#F85010;}
	.st178{clip-path:url(#SVGID_4_);fill:#F84F0F;}
	.st179{clip-path:url(#SVGID_4_);fill:#F84E0F;}
	.st180{clip-path:url(#SVGID_4_);fill:#F84D0F;}
	.st181{clip-path:url(#SVGID_4_);fill:#F84C0F;}
	.st182{clip-path:url(#SVGID_4_);fill:#F84B0F;}
	.st183{clip-path:url(#SVGID_4_);fill:#F84A0F;}
	.st184{clip-path:url(#SVGID_4_);fill:#F8490F;}
	.st185{clip-path:url(#SVGID_4_);fill:#F8480F;}
	.st186{clip-path:url(#SVGID_4_);fill:#F8470F;}
	.st187{clip-path:url(#SVGID_4_);fill:#F8460F;}
	.st188{clip-path:url(#SVGID_4_);fill:#F8450F;}
	.st189{clip-path:url(#SVGID_4_);fill:#F8440F;}
	.st190{clip-path:url(#SVGID_4_);fill:#F8430F;}
	.st191{clip-path:url(#SVGID_4_);fill:#F8420F;}
	.st192{clip-path:url(#SVGID_4_);fill:#F8410F;}
	.st193{clip-path:url(#SVGID_4_);fill:#F8400F;}
	.st194{clip-path:url(#SVGID_4_);fill:#F83F0F;}
	.st195{clip-path:url(#SVGID_4_);fill:#F83E0E;}
	.st196{clip-path:url(#SVGID_4_);fill:#F83D0E;}
	.st197{clip-path:url(#SVGID_4_);fill:#F83C0E;}
	.st198{clip-path:url(#SVGID_4_);fill:#F83B0E;}
	.st199{clip-path:url(#SVGID_4_);fill:#F73A0E;}
	.st200{clip-path:url(#SVGID_4_);fill:#F7390E;}
	.st201{clip-path:url(#SVGID_4_);fill:#F7380E;}
	.st202{clip-path:url(#SVGID_4_);fill:#F7370E;}
	.st203{clip-path:url(#SVGID_4_);fill:#F7360E;}
	.st204{clip-path:url(#SVGID_4_);fill:#F7340E;}
	.st205{clip-path:url(#SVGID_4_);fill:#F7330E;}
	.st206{clip-path:url(#SVGID_4_);fill:#F7320E;}
	.st207{clip-path:url(#SVGID_4_);fill:#F7310E;}
	.st208{clip-path:url(#SVGID_4_);fill:#F7300E;}
	.st209{clip-path:url(#SVGID_4_);fill:#F72F0E;}
	.st210{clip-path:url(#SVGID_4_);fill:#F72E0E;}
	.st211{clip-path:url(#SVGID_4_);fill:#F72D0E;}
	.st212{clip-path:url(#SVGID_4_);fill:#F72C0E;}
	.st213{clip-path:url(#SVGID_4_);fill:#F72B0E;}
	.st214{clip-path:url(#SVGID_4_);fill:#F72B0D;}
	.st215{clip-path:url(#SVGID_4_);fill:#F72A0D;}
	.st216{clip-path:url(#SVGID_4_);fill:#F7290D;}
	.st217{clip-path:url(#SVGID_4_);fill:#F7280D;}
	.st218{clip-path:url(#SVGID_4_);fill:#F7270D;}
	.st219{clip-path:url(#SVGID_4_);fill:#F7260D;}
</style>
<g>
	<g>
		<path class="st0" d="M20.018,10.527h-0.584h-0.584h-0.584h-0.584h-0.021h-0.021H17.62h-0.021v-0.021v-0.021v-0.021v-0.021v-0.286
			V9.87V9.584V9.299V9.277V9.256V9.234V9.213h0.021h0.021h0.021h0.021h0.173h0.173h0.173h0.173c0.164,0,0.321-0.033,0.464-0.094
			c0.143-0.06,0.271-0.148,0.379-0.256s0.195-0.237,0.256-0.379c0.06-0.143,0.094-0.299,0.094-0.464s-0.033-0.321-0.094-0.464
			c-0.06-0.143-0.148-0.271-0.256-0.379s-0.237-0.195-0.379-0.256c-0.143-0.06-0.299-0.094-0.464-0.094h-1.71h-1.71h-1.71h-1.71
			c-0.164,0-0.321,0.033-0.464,0.094s-0.271,0.148-0.379,0.256s-0.195,0.237-0.256,0.379s-0.094,0.299-0.094,0.464
			s0.033,0.321,0.094,0.464s0.148,0.271,0.256,0.379s0.237,0.195,0.379,0.256s0.299,0.094,0.464,0.094h0.173h0.173h0.173h0.173
			h0.021h0.021h0.021h0.021v0.021v0.021v0.021v0.021v0.286V9.87v0.286v0.286v0.021v0.021v0.021v0.021H12.29h-0.021h-0.021h-0.021
			h-0.584h-0.584h-0.584H9.891c-0.194,0-0.38,0.04-0.548,0.111s-0.32,0.175-0.448,0.302s-0.231,0.28-0.302,0.448
			s-0.111,0.354-0.111,0.548v2.518v2.518v2.518v2.518c0,0.194,0.04,0.38,0.111,0.548c0.071,0.169,0.175,0.321,0.302,0.448
			s0.28,0.231,0.448,0.302c0.169,0.071,0.354,0.111,0.548,0.111h2.532h2.532h2.532h2.532c0.194,0,0.38-0.04,0.548-0.111
			c0.169-0.071,0.321-0.175,0.448-0.302s0.231-0.28,0.302-0.448c0.071-0.169,0.111-0.354,0.111-0.548v-2.518v-2.518v-2.518v-2.518
			c0-0.194-0.04-0.38-0.111-0.548c-0.071-0.169-0.175-0.32-0.302-0.448s-0.28-0.231-0.448-0.302
			C20.398,10.566,20.212,10.527,20.018,10.527z M11.536,9.039c-0.14,0-0.274-0.029-0.396-0.08s-0.232-0.126-0.324-0.219
			s-0.167-0.202-0.219-0.324s-0.08-0.256-0.08-0.396c0-0.141,0.029-0.274,0.08-0.396s0.126-0.232,0.219-0.324
			s0.202-0.167,0.324-0.219s0.256-0.08,0.396-0.08h1.71h1.71h1.71h1.71c0.14,0,0.274,0.029,0.396,0.08
			c0.122,0.052,0.232,0.126,0.324,0.219s0.167,0.202,0.219,0.324c0.052,0.122,0.08,0.256,0.08,0.396c0,0.14-0.029,0.274-0.08,0.396
			c-0.052,0.122-0.126,0.232-0.219,0.324s-0.202,0.167-0.324,0.219c-0.122,0.052-0.256,0.08-0.396,0.08h-1.71h-1.71h-1.71H11.536z
			 M17.425,9.213v0.021v0.021v0.021v0.021v0.286V9.87v0.286v0.286v0.021v0.021v0.021v0.021h-0.021h-0.021H17.36h-0.021h-1.192
			h-1.192h-1.192h-1.192h-0.021h-0.021h-0.021h-0.021v-0.021v-0.021v-0.021v-0.021v-0.286V9.87V9.584V9.299V9.277V9.256V9.234V9.213
			h0.021h0.021h0.021h0.021h1.192h1.192h1.192h1.192h0.021h0.021h0.021H17.425z M21.254,17.79v1.054v1.054v1.054v1.054
			c0,0.17-0.035,0.333-0.097,0.481c-0.063,0.148-0.153,0.281-0.265,0.393s-0.245,0.203-0.393,0.265
			c-0.148,0.063-0.31,0.097-0.481,0.097h-2.532h-2.532h-2.532H9.891c-0.17,0-0.333-0.035-0.481-0.097
			c-0.148-0.063-0.281-0.153-0.393-0.265s-0.203-0.245-0.265-0.393c-0.063-0.148-0.097-0.31-0.097-0.481V20.64v-1.366v-1.366v-1.366
			v-0.02v-0.02v-0.02v-0.02l0.02-0.002l0.02-0.002l0.02-0.002l0.02-0.002c0.036-0.003,0.078-0.007,0.125-0.01
			s0.099-0.006,0.157-0.009s0.12-0.005,0.187-0.007s0.139-0.003,0.215-0.003c0.087,0,0.174,0.001,0.262,0.004
			c0.088,0.002,0.176,0.006,0.265,0.011s0.178,0.011,0.268,0.018c0.09,0.007,0.179,0.016,0.269,0.025
			c0.267,0.028,0.568,0.071,0.898,0.134c0.33,0.063,0.687,0.147,1.065,0.258s0.776,0.25,1.187,0.422
			c0.411,0.172,0.835,0.378,1.264,0.624c0.194,0.111,0.392,0.211,0.592,0.299c0.2,0.088,0.403,0.163,0.608,0.227
			s0.412,0.116,0.621,0.155c0.209,0.04,0.42,0.067,0.633,0.083c0.033,0.002,0.067,0.005,0.101,0.006
			c0.034,0.002,0.067,0.003,0.101,0.005s0.068,0.002,0.101,0.003c0.034,0.001,0.068,0.001,0.101,0.001
			c0.138,0,0.276-0.005,0.415-0.015c0.139-0.01,0.278-0.025,0.417-0.045s0.279-0.045,0.419-0.075c0.14-0.03,0.279-0.064,0.418-0.104
			c0.19-0.054,0.369-0.114,0.536-0.176c0.167-0.063,0.323-0.128,0.466-0.194s0.273-0.132,0.39-0.195
			c0.117-0.063,0.22-0.124,0.309-0.179l0.033-0.02l0.033-0.02l0.033-0.02l0.033-0.02v0.038v0.038v0.038V17.79z M21.254,17.378v0.011
			v0.011v0.011v0.011l-0.009,0.006l-0.009,0.006l-0.009,0.006l-0.009,0.006c-0.048,0.033-0.127,0.085-0.235,0.15
			c-0.107,0.065-0.243,0.141-0.402,0.222s-0.343,0.167-0.547,0.249c-0.204,0.082-0.429,0.161-0.67,0.229
			c-0.136,0.038-0.272,0.072-0.408,0.101s-0.271,0.053-0.406,0.072s-0.269,0.034-0.403,0.044s-0.266,0.015-0.398,0.015
			c-0.239,0-0.477-0.016-0.713-0.048s-0.469-0.079-0.7-0.143s-0.46-0.142-0.685-0.237s-0.448-0.205-0.668-0.331
			c-0.437-0.25-0.868-0.46-1.287-0.635s-0.824-0.316-1.209-0.429s-0.749-0.198-1.085-0.262s-0.643-0.107-0.915-0.136
			c-0.091-0.01-0.183-0.018-0.273-0.025s-0.181-0.013-0.271-0.018s-0.179-0.008-0.267-0.011s-0.176-0.004-0.263-0.004
			c-0.074,0-0.143,0.001-0.208,0.002s-0.126,0.004-0.181,0.006S8.915,16.267,8.87,16.27s-0.086,0.006-0.121,0.009l-0.023,0.002
			l-0.023,0.002l-0.023,0.002l-0.023,0.002v-0.023v-0.023v-0.023v-0.023V15.13v-1.065v-1.065v-1.065
			c0-0.082,0.008-0.164,0.024-0.243s0.039-0.156,0.07-0.23s0.069-0.145,0.114-0.212s0.097-0.13,0.155-0.189s0.122-0.11,0.189-0.155
			s0.138-0.083,0.212-0.114s0.151-0.054,0.23-0.07S9.809,10.7,9.891,10.7h2.532h2.532h2.532h2.532c0.17,0,0.333,0.035,0.481,0.097
			s0.281,0.153,0.393,0.265s0.203,0.245,0.265,0.393s0.097,0.31,0.097,0.481v1.361v1.361v1.361V17.378z"/>
	</g>
	<g>
		<path class="st0" d="M21.169,17.809v-0.005V17.8v-0.005V17.79c-0.011,0.007-0.023,0.014-0.035,0.021
			c-0.013,0.007-0.026,0.015-0.039,0.023s-0.027,0.016-0.041,0.023c-0.014,0.008-0.027,0.016-0.04,0.023
			c0.013-0.006,0.026-0.012,0.04-0.018c0.013-0.006,0.027-0.012,0.04-0.018s0.026-0.012,0.039-0.018
			C21.144,17.82,21.157,17.815,21.169,17.809z"/>
	</g>
</g>
<g>
	<path class="st0" d="M29.819,29.987h-7.432h-7.432H7.523H0.091v-7.432v-7.432V7.69V0.258h7.432h7.432h7.432h7.432V7.69v7.432v7.432
		V29.987z M0.341,29.737h7.307h7.307h7.307h7.307v-7.307v-7.307V7.815V0.508h-7.307h-7.307H7.648H0.341v7.307v7.307v7.307V29.737z"
		/>
</g>
</svg>
