<?xml version="1.0" encoding="utf-8"?>
<!-- Generator: Adobe Illustrator 19.1.0, SVG Export Plug-In . SVG Version: 6.00 Build 0)  -->
<svg version="1.1" id="Layer_1" xmlns="http://www.w3.org/2000/svg" xmlns:xlink="http://www.w3.org/1999/xlink" x="0px" y="0px"
	 viewBox="0 0 29.91 30.086" style="enable-background:new 0 0 29.91 30.086;" xml:space="preserve">
<style type="text/css">
	.st0{fill:#4D4D4D;}
	.st1{fill-rule:evenodd;clip-rule:evenodd;fill:#4C4C4C;}
	.st2{fill:#4C4C4C;}
	.st3{fill:#383330;}
	.st4{fill:#1F1A17;}
	.st5{fill:#4D4C4C;}
	.st6{fill:none;stroke:#000000;stroke-width:0.3;stroke-miterlimit:10;}
	.st7{fill:#E61413;}
	.st8{fill:#5F5357;}
	.st9{fill:#115C78;}
	.st10{fill-rule:evenodd;clip-rule:evenodd;fill:#4D4D4D;}
	.st11{fill-rule:evenodd;clip-rule:evenodd;}
	.st12{fill:#FFFFFF;}
	.st13{fill:none;}
	.st14{fill:#231F20;}
	.st15{clip-path:url(#SVGID_2_);}
	.st16{clip-path:url(#SVGID_4_);fill:#FCF118;}
	.st17{clip-path:url(#SVGID_4_);fill:#FCF018;}
	.st18{clip-path:url(#SVGID_4_);fill:#FCEF18;}
	.st19{clip-path:url(#SVGID_4_);fill:#FCEE18;}
	.st20{clip-path:url(#SVGID_4_);fill:#FCED18;}
	.st21{clip-path:url(#SVGID_4_);fill:#FCEC18;}
	.st22{clip-path:url(#SVGID_4_);fill:#FCEB18;}
	.st23{clip-path:url(#SVGID_4_);fill:#FCEA18;}
	.st24{clip-path:url(#SVGID_4_);fill:#FCE918;}
	.st25{clip-path:url(#SVGID_4_);fill:#FCE818;}
	.st26{clip-path:url(#SVGID_4_);fill:#FCE718;}
	.st27{clip-path:url(#SVGID_4_);fill:#FCE617;}
	.st28{clip-path:url(#SVGID_4_);fill:#FCE517;}
	.st29{clip-path:url(#SVGID_4_);fill:#FCE417;}
	.st30{clip-path:url(#SVGID_4_);fill:#FCE317;}
	.st31{clip-path:url(#SVGID_4_);fill:#FCE217;}
	.st32{clip-path:url(#SVGID_4_);fill:#FCE117;}
	.st33{clip-path:url(#SVGID_4_);fill:#FCE017;}
	.st34{clip-path:url(#SVGID_4_);fill:#FCDF17;}
	.st35{clip-path:url(#SVGID_4_);fill:#FCDE17;}
	.st36{clip-path:url(#SVGID_4_);fill:#FCDD17;}
	.st37{clip-path:url(#SVGID_4_);fill:#FCDC17;}
	.st38{clip-path:url(#SVGID_4_);fill:#FCDB17;}
	.st39{clip-path:url(#SVGID_4_);fill:#FCDA17;}
	.st40{clip-path:url(#SVGID_4_);fill:#FCD917;}
	.st41{clip-path:url(#SVGID_4_);fill:#FCD817;}
	.st42{clip-path:url(#SVGID_4_);fill:#FCD717;}
	.st43{clip-path:url(#SVGID_4_);fill:#FCD617;}
	.st44{clip-path:url(#SVGID_4_);fill:#FCD517;}
	.st45{clip-path:url(#SVGID_4_);fill:#FCD416;}
	.st46{clip-path:url(#SVGID_4_);fill:#FCD316;}
	.st47{clip-path:url(#SVGID_4_);fill:#FBD216;}
	.st48{clip-path:url(#SVGID_4_);fill:#FBD116;}
	.st49{clip-path:url(#SVGID_4_);fill:#FBD016;}
	.st50{clip-path:url(#SVGID_4_);fill:#FBCF16;}
	.st51{clip-path:url(#SVGID_4_);fill:#FBCE16;}
	.st52{clip-path:url(#SVGID_4_);fill:#FBCD16;}
	.st53{clip-path:url(#SVGID_4_);fill:#FBCC16;}
	.st54{clip-path:url(#SVGID_4_);fill:#FBCB16;}
	.st55{clip-path:url(#SVGID_4_);fill:#FBCA16;}
	.st56{clip-path:url(#SVGID_4_);fill:#FBC916;}
	.st57{clip-path:url(#SVGID_4_);fill:#FBC816;}
	.st58{clip-path:url(#SVGID_4_);fill:#FBC716;}
	.st59{clip-path:url(#SVGID_4_);fill:#FBC616;}
	.st60{clip-path:url(#SVGID_4_);fill:#FBC516;}
	.st61{clip-path:url(#SVGID_4_);fill:#FBC416;}
	.st62{clip-path:url(#SVGID_4_);fill:#FBC316;}
	.st63{clip-path:url(#SVGID_4_);fill:#FBC216;}
	.st64{clip-path:url(#SVGID_4_);fill:#FBC115;}
	.st65{clip-path:url(#SVGID_4_);fill:#FBC015;}
	.st66{clip-path:url(#SVGID_4_);fill:#FBBF15;}
	.st67{clip-path:url(#SVGID_4_);fill:#FBBE15;}
	.st68{clip-path:url(#SVGID_4_);fill:#FBBD15;}
	.st69{clip-path:url(#SVGID_4_);fill:#FBBC15;}
	.st70{clip-path:url(#SVGID_4_);fill:#FBBB15;}
	.st71{clip-path:url(#SVGID_4_);fill:#FBBA15;}
	.st72{clip-path:url(#SVGID_4_);fill:#FBB915;}
	.st73{clip-path:url(#SVGID_4_);fill:#FBB815;}
	.st74{clip-path:url(#SVGID_4_);fill:#FBB715;}
	.st75{clip-path:url(#SVGID_4_);fill:#FBB615;}
	.st76{clip-path:url(#SVGID_4_);fill:#FBB515;}
	.st77{clip-path:url(#SVGID_4_);fill:#FBB415;}
	.st78{clip-path:url(#SVGID_4_);fill:#FBB315;}
	.st79{clip-path:url(#SVGID_4_);fill:#FBB215;}
	.st80{clip-path:url(#SVGID_4_);fill:#FBB115;}
	.st81{clip-path:url(#SVGID_4_);fill:#FBB015;}
	.st82{clip-path:url(#SVGID_4_);fill:#FBAF15;}
	.st83{clip-path:url(#SVGID_4_);fill:#FAAE15;}
	.st84{clip-path:url(#SVGID_4_);fill:#FAAD14;}
	.st85{clip-path:url(#SVGID_4_);fill:#FAAC14;}
	.st86{clip-path:url(#SVGID_4_);fill:#FAAB14;}
	.st87{clip-path:url(#SVGID_4_);fill:#FAAA14;}
	.st88{clip-path:url(#SVGID_4_);fill:#FAA914;}
	.st89{clip-path:url(#SVGID_4_);fill:#FAA814;}
	.st90{clip-path:url(#SVGID_4_);fill:#FAA714;}
	.st91{clip-path:url(#SVGID_4_);fill:#FAA614;}
	.st92{clip-path:url(#SVGID_4_);fill:#FAA514;}
	.st93{clip-path:url(#SVGID_4_);fill:#FAA414;}
	.st94{clip-path:url(#SVGID_4_);fill:#FAA314;}
	.st95{clip-path:url(#SVGID_4_);fill:#FAA214;}
	.st96{clip-path:url(#SVGID_4_);fill:#FAA114;}
	.st97{clip-path:url(#SVGID_4_);fill:#FAA014;}
	.st98{clip-path:url(#SVGID_4_);fill:#FA9F14;}
	.st99{clip-path:url(#SVGID_4_);fill:#FA9E14;}
	.st100{clip-path:url(#SVGID_4_);fill:#FA9D14;}
	.st101{clip-path:url(#SVGID_4_);fill:#FA9C14;}
	.st102{clip-path:url(#SVGID_4_);fill:#FA9B14;}
	.st103{clip-path:url(#SVGID_4_);fill:#FA9A13;}
	.st104{clip-path:url(#SVGID_4_);fill:#FA9913;}
	.st105{clip-path:url(#SVGID_4_);fill:#FA9813;}
	.st106{clip-path:url(#SVGID_4_);fill:#FA9713;}
	.st107{clip-path:url(#SVGID_4_);fill:#FA9613;}
	.st108{clip-path:url(#SVGID_4_);fill:#FA9513;}
	.st109{clip-path:url(#SVGID_4_);fill:#FA9413;}
	.st110{clip-path:url(#SVGID_4_);fill:#FA9313;}
	.st111{clip-path:url(#SVGID_4_);fill:#FA9213;}
	.st112{clip-path:url(#SVGID_4_);fill:#FA9113;}
	.st113{clip-path:url(#SVGID_4_);fill:#FA9013;}
	.st114{clip-path:url(#SVGID_4_);fill:#FA8F13;}
	.st115{clip-path:url(#SVGID_4_);fill:#FA8E13;}
	.st116{clip-path:url(#SVGID_4_);fill:#FA8D13;}
	.st117{clip-path:url(#SVGID_4_);fill:#FA8C13;}
	.st118{clip-path:url(#SVGID_4_);fill:#FA8B13;}
	.st119{clip-path:url(#SVGID_4_);fill:#FA8A13;}
	.st120{clip-path:url(#SVGID_4_);fill:#FA8913;}
	.st121{clip-path:url(#SVGID_4_);fill:#FA8812;}
	.st122{clip-path:url(#SVGID_4_);fill:#FA8712;}
	.st123{clip-path:url(#SVGID_4_);fill:#FA8612;}
	.st124{clip-path:url(#SVGID_4_);fill:#F98512;}
	.st125{clip-path:url(#SVGID_4_);fill:#F98412;}
	.st126{clip-path:url(#SVGID_4_);fill:#F98312;}
	.st127{clip-path:url(#SVGID_4_);fill:#F98212;}
	.st128{clip-path:url(#SVGID_4_);fill:#F98112;}
	.st129{clip-path:url(#SVGID_4_);fill:#F98012;}
	.st130{clip-path:url(#SVGID_4_);fill:#F97F12;}
	.st131{clip-path:url(#SVGID_4_);fill:#F97E12;}
	.st132{clip-path:url(#SVGID_4_);fill:#F97D12;}
	.st133{clip-path:url(#SVGID_4_);fill:#F97C12;}
	.st134{clip-path:url(#SVGID_4_);fill:#F97B12;}
	.st135{clip-path:url(#SVGID_4_);fill:#F97A12;}
	.st136{clip-path:url(#SVGID_4_);fill:#F97912;}
	.st137{clip-path:url(#SVGID_4_);fill:#F97812;}
	.st138{clip-path:url(#SVGID_4_);fill:#F97712;}
	.st139{clip-path:url(#SVGID_4_);fill:#F97612;}
	.st140{clip-path:url(#SVGID_4_);fill:#F97511;}
	.st141{clip-path:url(#SVGID_4_);fill:#F97411;}
	.st142{clip-path:url(#SVGID_4_);fill:#F97311;}
	.st143{clip-path:url(#SVGID_4_);fill:#F97211;}
	.st144{clip-path:url(#SVGID_4_);fill:#F97111;}
	.st145{clip-path:url(#SVGID_4_);fill:#F97011;}
	.st146{clip-path:url(#SVGID_4_);fill:#F96F11;}
	.st147{clip-path:url(#SVGID_4_);fill:#F96E11;}
	.st148{clip-path:url(#SVGID_4_);fill:#F96D11;}
	.st149{clip-path:url(#SVGID_4_);fill:#F96C11;}
	.st150{clip-path:url(#SVGID_4_);fill:#F96B11;}
	.st151{clip-path:url(#SVGID_4_);fill:#F96A11;}
	.st152{clip-path:url(#SVGID_4_);fill:#F96911;}
	.st153{clip-path:url(#SVGID_4_);fill:#F96811;}
	.st154{clip-path:url(#SVGID_4_);fill:#F96711;}
	.st155{clip-path:url(#SVGID_4_);fill:#F96611;}
	.st156{clip-path:url(#SVGID_4_);fill:#F96511;}
	.st157{clip-path:url(#SVGID_4_);fill:#F96411;}
	.st158{clip-path:url(#SVGID_4_);fill:#F96311;}
	.st159{clip-path:url(#SVGID_4_);fill:#F96210;}
	.st160{clip-path:url(#SVGID_4_);fill:#F86110;}
	.st161{clip-path:url(#SVGID_4_);fill:#F86010;}
	.st162{clip-path:url(#SVGID_4_);fill:#F85F10;}
	.st163{clip-path:url(#SVGID_4_);fill:#F85E10;}
	.st164{clip-path:url(#SVGID_4_);fill:#F85D10;}
	.st165{clip-path:url(#SVGID_4_);fill:#F85C10;}
	.st166{clip-path:url(#SVGID_4_);fill:#F85B10;}
	.st167{clip-path:url(#SVGID_4_);fill:#F85A10;}
	.st168{clip-path:url(#SVGID_4_);fill:#F85910;}
	.st169{clip-path:url(#SVGID_4_);fill:#F85810;}
	.st170{clip-path:url(#SVGID_4_);fill:#F85710;}
	.st171{clip-path:url(#SVGID_4_);fill:#F85610;}
	.st172{clip-path:url(#SVGID_4_);fill:#F85510;}
	.st173{clip-path:url(#SVGID_4_);fill:#F85410;}
	.st174{clip-path:url(#SVGID_4_);fill:#F85310;}
	.st175{clip-path:url(#SVGID_4_);fill:#F85210;}
	.st176{clip-path:url(#SVGID_4_);fill:#F85110;}
	.st177{clip-path:url(#SVGID_4_);fill:#F85010;}
	.st178{clip-path:url(#SVGID_4_);fill:#F84F0F;}
	.st179{clip-path:url(#SVGID_4_);fill:#F84E0F;}
	.st180{clip-path:url(#SVGID_4_);fill:#F84D0F;}
	.st181{clip-path:url(#SVGID_4_);fill:#F84C0F;}
	.st182{clip-path:url(#SVGID_4_);fill:#F84B0F;}
	.st183{clip-path:url(#SVGID_4_);fill:#F84A0F;}
	.st184{clip-path:url(#SVGID_4_);fill:#F8490F;}
	.st185{clip-path:url(#SVGID_4_);fill:#F8480F;}
	.st186{clip-path:url(#SVGID_4_);fill:#F8470F;}
	.st187{clip-path:url(#SVGID_4_);fill:#F8460F;}
	.st188{clip-path:url(#SVGID_4_);fill:#F8450F;}
	.st189{clip-path:url(#SVGID_4_);fill:#F8440F;}
	.st190{clip-path:url(#SVGID_4_);fill:#F8430F;}
	.st191{clip-path:url(#SVGID_4_);fill:#F8420F;}
	.st192{clip-path:url(#SVGID_4_);fill:#F8410F;}
	.st193{clip-path:url(#SVGID_4_);fill:#F8400F;}
	.st194{clip-path:url(#SVGID_4_);fill:#F83F0F;}
	.st195{clip-path:url(#SVGID_4_);fill:#F83E0E;}
	.st196{clip-path:url(#SVGID_4_);fill:#F83D0E;}
	.st197{clip-path:url(#SVGID_4_);fill:#F83C0E;}
	.st198{clip-path:url(#SVGID_4_);fill:#F83B0E;}
	.st199{clip-path:url(#SVGID_4_);fill:#F73A0E;}
	.st200{clip-path:url(#SVGID_4_);fill:#F7390E;}
	.st201{clip-path:url(#SVGID_4_);fill:#F7380E;}
	.st202{clip-path:url(#SVGID_4_);fill:#F7370E;}
	.st203{clip-path:url(#SVGID_4_);fill:#F7360E;}
	.st204{clip-path:url(#SVGID_4_);fill:#F7340E;}
	.st205{clip-path:url(#SVGID_4_);fill:#F7330E;}
	.st206{clip-path:url(#SVGID_4_);fill:#F7320E;}
	.st207{clip-path:url(#SVGID_4_);fill:#F7310E;}
	.st208{clip-path:url(#SVGID_4_);fill:#F7300E;}
	.st209{clip-path:url(#SVGID_4_);fill:#F72F0E;}
	.st210{clip-path:url(#SVGID_4_);fill:#F72E0E;}
	.st211{clip-path:url(#SVGID_4_);fill:#F72D0E;}
	.st212{clip-path:url(#SVGID_4_);fill:#F72C0E;}
	.st213{clip-path:url(#SVGID_4_);fill:#F72B0E;}
	.st214{clip-path:url(#SVGID_4_);fill:#F72B0D;}
	.st215{clip-path:url(#SVGID_4_);fill:#F72A0D;}
	.st216{clip-path:url(#SVGID_4_);fill:#F7290D;}
	.st217{clip-path:url(#SVGID_4_);fill:#F7280D;}
	.st218{clip-path:url(#SVGID_4_);fill:#F7270D;}
	.st219{clip-path:url(#SVGID_4_);fill:#F7260D;}
</style>
<g>
	<g>
		<path class="st0" d="M20.941,8.526h-4.297h-4.297H8.051H3.754c-0.182,0-0.359,0.042-0.522,0.118S2.921,8.829,2.795,8.962
			s-0.228,0.291-0.3,0.463s-0.111,0.36-0.111,0.554v2.532v2.532v2.532v2.532c0,0.194,0.04,0.381,0.111,0.554
			c0.071,0.173,0.174,0.33,0.3,0.463s0.274,0.242,0.437,0.318c0.163,0.076,0.339,0.118,0.522,0.118h4.297h4.297h4.297h4.297
			c0.182,0,0.359-0.042,0.522-0.118c0.163-0.076,0.311-0.185,0.437-0.318s0.228-0.291,0.3-0.463c0.071-0.173,0.111-0.36,0.111-0.554
			v-2.525v-2.525v-2.525v-2.525c0-0.201-0.039-0.394-0.11-0.57S22.029,9.1,21.904,8.965s-0.273-0.245-0.436-0.321
			S21.127,8.526,20.941,8.526z M22.055,20.135c0,0.159-0.033,0.314-0.091,0.456s-0.142,0.272-0.244,0.382s-0.223,0.2-0.355,0.262
			s-0.276,0.097-0.424,0.097h-4.297h-4.297H8.051H3.754c-0.151,0-0.296-0.034-0.429-0.096s-0.253-0.15-0.355-0.26
			s-0.184-0.239-0.241-0.381S2.64,20.298,2.64,20.135v-2.532v-2.532v-2.532v-2.532c0-0.159,0.033-0.314,0.091-0.456
			s0.142-0.272,0.244-0.382s0.223-0.2,0.355-0.262s0.276-0.097,0.424-0.097h4.297h4.297h4.297h4.297
			c0.151,0,0.296,0.034,0.429,0.096s0.253,0.15,0.355,0.26s0.184,0.239,0.241,0.381s0.089,0.299,0.089,0.461v2.532v2.532v2.532
			V20.135z"/>
	</g>
</g>
<g>
	<g>
		<path class="st0" d="M25.599,12.436c-0.003-0.003-0.007-0.006-0.013-0.009s-0.011-0.006-0.018-0.008s-0.015-0.004-0.023-0.006
			s-0.018-0.002-0.028-0.002s-0.019,0.001-0.028,0.002s-0.016,0.003-0.023,0.006s-0.013,0.005-0.018,0.008s-0.009,0.006-0.013,0.009
			c-0.008,0.008-0.015,0.021-0.019,0.035s-0.006,0.031-0.006,0.047s0.002,0.032,0.006,0.047s0.011,0.027,0.019,0.035
			c0.285,0.285,0.499,0.614,0.641,0.966s0.214,0.726,0.214,1.1s-0.071,0.748-0.214,1.1s-0.356,0.681-0.641,0.966
			c-0.008,0.008-0.015,0.021-0.019,0.035s-0.006,0.031-0.006,0.047s0.002,0.032,0.006,0.047s0.011,0.027,0.019,0.035
			c0.003,0.003,0.007,0.006,0.013,0.009c0.005,0.003,0.011,0.006,0.018,0.008s0.015,0.004,0.023,0.006
			c0.009,0.001,0.018,0.002,0.028,0.002s0.019-0.001,0.028-0.002c0.009-0.001,0.016-0.003,0.023-0.006s0.013-0.005,0.018-0.008
			c0.005-0.003,0.009-0.006,0.013-0.009c0.149-0.149,0.281-0.31,0.396-0.482c0.115-0.171,0.212-0.353,0.29-0.541
			s0.138-0.385,0.178-0.587c0.04-0.202,0.061-0.409,0.061-0.62s-0.021-0.418-0.061-0.62s-0.1-0.398-0.178-0.587
			s-0.175-0.37-0.29-0.541S25.748,12.585,25.599,12.436z"/>
	</g>
</g>
<g>
	<g>
		<path class="st0" d="M26.519,11.542c-0.003-0.003-0.007-0.006-0.012-0.009s-0.011-0.005-0.018-0.008s-0.015-0.004-0.023-0.006
			s-0.018-0.002-0.028-0.002c-0.01,0-0.019,0.001-0.028,0.002c-0.009,0.001-0.016,0.003-0.023,0.006s-0.013,0.005-0.018,0.008
			c-0.005,0.003-0.009,0.006-0.013,0.009c-0.008,0.008-0.015,0.021-0.019,0.035s-0.006,0.031-0.006,0.047s0.002,0.033,0.006,0.047
			s0.011,0.027,0.019,0.035c0.198,0.198,0.374,0.413,0.527,0.64c0.153,0.228,0.282,0.468,0.386,0.719s0.184,0.511,0.237,0.779
			c0.053,0.268,0.081,0.542,0.081,0.821s-0.027,0.554-0.081,0.821c-0.053,0.268-0.133,0.528-0.237,0.779s-0.233,0.491-0.386,0.719
			c-0.153,0.228-0.329,0.442-0.527,0.64c-0.008,0.008-0.015,0.021-0.019,0.035s-0.006,0.031-0.006,0.047s0.002,0.032,0.006,0.047
			s0.011,0.027,0.019,0.035c0.003,0.003,0.007,0.006,0.013,0.009c0.005,0.003,0.011,0.006,0.018,0.008s0.015,0.004,0.023,0.006
			c0.009,0.001,0.018,0.002,0.028,0.002c0.01,0,0.019-0.001,0.028-0.002c0.009-0.001,0.016-0.003,0.023-0.006
			s0.013-0.005,0.018-0.008c0.005-0.003,0.009-0.006,0.013-0.009c0.427-0.427,0.748-0.923,0.961-1.453s0.32-1.095,0.32-1.661
			s-0.107-1.132-0.321-1.666S26.946,11.976,26.519,11.542z"/>
	</g>
</g>
<g>
	<g>
		<path class="st0" d="M24.704,13.355c-0.003-0.003-0.006-0.005-0.011-0.008s-0.011-0.005-0.018-0.007s-0.015-0.004-0.023-0.005
			s-0.018-0.002-0.027-0.002s-0.019,0.001-0.028,0.002c-0.009,0.001-0.016,0.003-0.023,0.006s-0.013,0.005-0.018,0.008
			c-0.005,0.003-0.009,0.006-0.013,0.009c-0.003,0.003-0.006,0.007-0.009,0.013s-0.006,0.011-0.008,0.018s-0.004,0.015-0.006,0.023
			s-0.002,0.018-0.002,0.028s0.001,0.019,0.002,0.028c0.001,0.009,0.003,0.016,0.006,0.023s0.005,0.013,0.008,0.018
			c0.003,0.005,0.006,0.009,0.009,0.013c0.158,0.158,0.276,0.341,0.355,0.536c0.079,0.195,0.118,0.403,0.118,0.61
			s-0.039,0.415-0.118,0.61c-0.079,0.195-0.197,0.378-0.355,0.536c-0.003,0.003-0.006,0.007-0.009,0.013s-0.006,0.011-0.008,0.018
			s-0.004,0.015-0.006,0.023s-0.002,0.018-0.002,0.028c0,0.01,0.001,0.019,0.002,0.028c0.001,0.009,0.003,0.016,0.006,0.023
			s0.005,0.013,0.008,0.018c0.003,0.005,0.006,0.009,0.009,0.013c0.003,0.003,0.007,0.006,0.013,0.009s0.011,0.006,0.018,0.008
			s0.015,0.004,0.023,0.006s0.018,0.002,0.028,0.002s0.019-0.001,0.028-0.002s0.016-0.003,0.023-0.006s0.013-0.005,0.018-0.008
			s0.009-0.006,0.013-0.009c0.177-0.177,0.31-0.384,0.399-0.605s0.133-0.458,0.132-0.695s-0.045-0.476-0.134-0.7
			S24.881,13.539,24.704,13.355z"/>
	</g>
</g>
<g>
	<g>
		<path class="st0" d="M18.872,12.323c-0.179-0.185-0.376-0.351-0.586-0.495c-0.211-0.144-0.436-0.267-0.671-0.366
			s-0.48-0.176-0.732-0.227c-0.251-0.051-0.509-0.078-0.768-0.078c-0.534,0-1.043,0.109-1.506,0.305s-0.881,0.48-1.231,0.831
			s-0.635,0.768-0.831,1.231s-0.305,0.972-0.305,1.506c0,0.218,0.019,0.435,0.056,0.649s0.092,0.424,0.164,0.629
			s0.161,0.403,0.266,0.593s0.227,0.372,0.364,0.543l0.011,0.014l0.011,0.014l0.011,0.014l0.011,0.014v0.007v0.007v0.007v0.007
			c0.018,0.022,0.036,0.043,0.055,0.064s0.038,0.041,0.057,0.061s0.038,0.039,0.056,0.057s0.036,0.036,0.052,0.052
			c0.015,0.01,0.028,0.019,0.039,0.027s0.022,0.015,0.031,0.022s0.017,0.013,0.024,0.019s0.013,0.011,0.019,0.017l0.012,0.011
			l0.012,0.011l0.012,0.011l0.012,0.011c0.013,0.011,0.027,0.023,0.041,0.036c0.014,0.013,0.029,0.027,0.044,0.042
			s0.03,0.031,0.044,0.048c0.014,0.017,0.029,0.036,0.042,0.056c0.002,0.001,0.006,0.002,0.011,0.004s0.012,0.005,0.019,0.009
			s0.017,0.008,0.027,0.013s0.021,0.011,0.033,0.017c0.009,0.005,0.019,0.01,0.029,0.016s0.019,0.012,0.029,0.018
			s0.019,0.013,0.029,0.02s0.019,0.014,0.028,0.021c0.004,0.003,0.009,0.007,0.013,0.01c0.004,0.003,0.009,0.007,0.013,0.01
			s0.009,0.006,0.013,0.009c0.004,0.003,0.009,0.005,0.013,0.008c0.007,0.004,0.014,0.007,0.021,0.011s0.014,0.008,0.022,0.013
			s0.015,0.009,0.022,0.014s0.015,0.01,0.022,0.015c0.007,0.005,0.015,0.01,0.022,0.015s0.014,0.009,0.021,0.013
			s0.013,0.008,0.02,0.011s0.013,0.006,0.019,0.008c0.02,0.009,0.039,0.018,0.057,0.028s0.037,0.019,0.055,0.03
			s0.036,0.022,0.053,0.034s0.035,0.026,0.052,0.042c0.005,0.002,0.009,0.004,0.014,0.006c0.005,0.002,0.01,0.004,0.015,0.006
			s0.01,0.004,0.015,0.006c0.005,0.002,0.01,0.004,0.015,0.006c0.01,0.004,0.02,0.008,0.03,0.012s0.02,0.008,0.029,0.012
			s0.019,0.008,0.028,0.012s0.017,0.008,0.026,0.012c0.006,0.003,0.012,0.006,0.019,0.009s0.013,0.006,0.02,0.009
			s0.014,0.006,0.021,0.009s0.015,0.006,0.022,0.009c0.01,0.004,0.02,0.008,0.03,0.012s0.02,0.008,0.029,0.012
			s0.019,0.008,0.028,0.012s0.017,0.008,0.026,0.012c0.006,0.003,0.012,0.006,0.019,0.009c0.007,0.003,0.013,0.006,0.02,0.009
			s0.014,0.006,0.021,0.009c0.007,0.003,0.015,0.006,0.022,0.009c0.01,0.004,0.02,0.008,0.03,0.012s0.02,0.008,0.029,0.012
			s0.019,0.008,0.028,0.012s0.017,0.008,0.026,0.012l0.007,0.002l0.007,0.002l0.007,0.002l0.007,0.002
			c0.013,0.005,0.025,0.009,0.035,0.012c0.01,0.003,0.019,0.006,0.027,0.008s0.015,0.004,0.023,0.005
			c0.007,0.001,0.014,0.002,0.022,0.002h0.012h0.012h0.012h0.012l0.011,0.005l0.011,0.005l0.011,0.005l0.011,0.005
			c0.019,0.005,0.036,0.01,0.051,0.014s0.03,0.008,0.043,0.013s0.026,0.008,0.038,0.013s0.024,0.01,0.036,0.016h0h0h0h0
			c0.002,0,0.006,0,0.01,0.001s0.011,0.001,0.018,0.002s0.015,0.002,0.023,0.003s0.017,0.002,0.026,0.003
			c0.013,0.002,0.025,0.004,0.038,0.006c0.012,0.002,0.025,0.004,0.037,0.006s0.024,0.005,0.036,0.007
			c0.012,0.003,0.024,0.005,0.035,0.008c0.011,0.001,0.021,0.003,0.031,0.004s0.018,0.004,0.027,0.006s0.016,0.004,0.023,0.006
			s0.013,0.004,0.018,0.006c0.041,0.008,0.08,0.014,0.118,0.018c0.038,0.004,0.074,0.007,0.11,0.009s0.072,0.003,0.109,0.003
			c0.037,0,0.075,0,0.115,0s0.078,0,0.114,0c0.036,0,0.071-0.001,0.104-0.003s0.065-0.004,0.097-0.007
			c0.031-0.003,0.062-0.008,0.092-0.014l0.019-0.003l0.019-0.003l0.019-0.003l0.019-0.003l0.007-0.002l0.007-0.002l0.007-0.002
			l0.007-0.002l0.019-0.003l0.019-0.003l0.019-0.003l0.019-0.003c0.012,0,0.026-0.001,0.042-0.003
			c0.016-0.002,0.034-0.005,0.052-0.009s0.039-0.009,0.059-0.014c0.02-0.006,0.041-0.012,0.062-0.019l0.008-0.003l0.008-0.003
			l0.008-0.003l0.008-0.003h0.008h0.008h0.008h0.008c0.003,0,0.008-0.002,0.014-0.004c0.006-0.002,0.013-0.005,0.02-0.009
			s0.015-0.007,0.023-0.011c0.008-0.004,0.015-0.007,0.021-0.011c0.019-0.007,0.035-0.012,0.051-0.017
			c0.016-0.005,0.03-0.009,0.043-0.012s0.026-0.006,0.038-0.009c0.012-0.002,0.023-0.004,0.034-0.006
			c0.005-0.001,0.011-0.002,0.016-0.003c0.005-0.001,0.01-0.002,0.015-0.003s0.01-0.002,0.014-0.003
			c0.005-0.001,0.009-0.003,0.013-0.004c0.008-0.004,0.016-0.008,0.024-0.012s0.018-0.008,0.027-0.012s0.019-0.008,0.029-0.012
			s0.02-0.008,0.03-0.012c0.007-0.003,0.015-0.006,0.022-0.009s0.014-0.006,0.021-0.009s0.014-0.006,0.02-0.009
			s0.013-0.006,0.019-0.009c0.008-0.004,0.017-0.008,0.026-0.012c0.009-0.004,0.018-0.008,0.028-0.012s0.019-0.008,0.029-0.012
			c0.01-0.004,0.02-0.008,0.03-0.012c0.007-0.003,0.015-0.006,0.022-0.009c0.007-0.003,0.014-0.006,0.021-0.009
			s0.014-0.006,0.02-0.009c0.007-0.003,0.013-0.006,0.019-0.009c0.008-0.004,0.017-0.008,0.026-0.012
			c0.009-0.004,0.018-0.008,0.028-0.012s0.019-0.008,0.029-0.012c0.01-0.004,0.02-0.008,0.03-0.012
			c0.007-0.003,0.015-0.006,0.022-0.009s0.014-0.006,0.021-0.009s0.014-0.006,0.02-0.009s0.013-0.006,0.019-0.009
			c0.012-0.006,0.023-0.012,0.034-0.017s0.02-0.011,0.03-0.017s0.018-0.012,0.027-0.018s0.017-0.014,0.025-0.022l0.006-0.006
			l0.006-0.006l0.006-0.006l0.006-0.006l0.007-0.004l0.007-0.004l0.007-0.004l0.007-0.004c0.021-0.014,0.04-0.027,0.059-0.039
			c0.018-0.012,0.036-0.023,0.054-0.033s0.035-0.019,0.053-0.028c0.018-0.008,0.037-0.016,0.056-0.022c0,0,0,0,0,0s0,0,0,0s0,0,0,0
			s0,0,0,0c-0.001,0-0.001-0.001,0-0.002c0.001-0.001,0.003-0.004,0.006-0.006s0.006-0.005,0.01-0.008
			c0.004-0.003,0.008-0.006,0.012-0.009c0.009-0.007,0.019-0.014,0.028-0.021c0.01-0.007,0.019-0.014,0.029-0.02
			s0.019-0.012,0.029-0.018c0.01-0.006,0.019-0.011,0.029-0.016c0.004-0.002,0.009-0.005,0.013-0.008
			c0.004-0.003,0.009-0.006,0.013-0.009s0.009-0.007,0.013-0.01c0.004-0.003,0.009-0.007,0.013-0.01
			c0.009-0.007,0.019-0.014,0.029-0.021s0.019-0.014,0.029-0.02s0.019-0.012,0.029-0.018s0.019-0.011,0.029-0.016
			c0.012-0.009,0.024-0.018,0.037-0.028c0.012-0.01,0.024-0.021,0.036-0.032s0.024-0.023,0.035-0.034
			c0.012-0.012,0.024-0.024,0.035-0.035l0.002-0.002l0.002-0.002l0.002-0.002l0.002-0.002l0.01-0.009l0.01-0.009l0.01-0.009
			l0.01-0.009l0.004-0.007l0.004-0.007l0.004-0.007l0.004-0.007l0.012-0.01l0.012-0.01l0.012-0.01l0.012-0.01
			c0.026-0.026,0.05-0.05,0.074-0.074c0.023-0.024,0.045-0.046,0.066-0.069s0.042-0.045,0.061-0.069
			c0.02-0.024,0.039-0.048,0.059-0.074l0.002-0.003l0.002-0.003l0.002-0.003l0.002-0.003l0.009-0.009l0.009-0.009l0.009-0.009
			l0.009-0.009c0.133-0.167,0.252-0.346,0.355-0.534c0.103-0.188,0.191-0.385,0.262-0.588s0.125-0.413,0.162-0.627
			c0.037-0.213,0.055-0.431,0.055-0.649c0.009-0.255-0.006-0.505-0.047-0.75s-0.104-0.483-0.192-0.712s-0.198-0.449-0.331-0.658
			S19.048,12.505,18.872,12.323z M18.697,17.338l-0.013,0.031L18.67,17.4l-0.013,0.031l-0.013,0.031l0.004,0.007l0.004,0.007
			l0.004,0.007l0.004,0.007l0.013,0.013l0.013,0.013l0.013,0.013l0.013,0.013l-0.004,0.004l-0.004,0.004l-0.004,0.004l-0.004,0.004
			l0.001,0.001l0.001,0.001l0.001,0.001l0.001,0.001c-0.001,0.001-0.002,0.001-0.004,0.002c-0.001,0.001-0.003,0.002-0.004,0.003
			s-0.003,0.002-0.005,0.003c-0.002,0.001-0.004,0.002-0.006,0.003l-0.027,0.027l-0.027,0.027l-0.027,0.027l-0.027,0.027
			l-0.014,0.014l-0.014,0.014l-0.014,0.014l-0.014,0.014l-0.014,0.014l-0.014,0.014l-0.014,0.014l-0.014,0.014
			c-0.005,0.005-0.012,0.011-0.018,0.017c-0.007,0.006-0.014,0.011-0.021,0.017s-0.015,0.011-0.023,0.017
			c-0.008,0.006-0.016,0.011-0.024,0.017l-0.006,0.006l-0.006,0.006l-0.006,0.006l-0.006,0.006l-0.014,0.008l-0.014,0.008
			l-0.014,0.008l-0.014,0.008c-0.007,0.003-0.015,0.009-0.023,0.015c-0.008,0.006-0.017,0.014-0.025,0.021s-0.016,0.015-0.023,0.022
			c-0.007,0.007-0.012,0.012-0.016,0.016c-0.005,0.005-0.012,0.011-0.018,0.017c-0.007,0.006-0.014,0.011-0.021,0.017
			s-0.015,0.011-0.023,0.017c-0.008,0.006-0.016,0.011-0.024,0.017l-0.006,0.006l-0.006,0.006l-0.006,0.006l-0.006,0.006
			l-0.014,0.008l-0.014,0.008l-0.014,0.008l-0.014,0.008c-0.004,0.002-0.009,0.005-0.013,0.008s-0.009,0.006-0.013,0.009
			s-0.009,0.007-0.013,0.01s-0.009,0.007-0.013,0.01c-0.007,0.006-0.015,0.011-0.022,0.016c-0.007,0.005-0.015,0.011-0.022,0.016
			s-0.015,0.01-0.022,0.015c-0.007,0.005-0.015,0.009-0.022,0.014c-0.01,0.008-0.019,0.014-0.029,0.02
			c-0.009,0.006-0.018,0.011-0.027,0.015s-0.017,0.008-0.025,0.011c-0.008,0.003-0.015,0.006-0.022,0.008
			c-0.017,0.008-0.032,0.015-0.046,0.021s-0.027,0.012-0.038,0.017s-0.023,0.01-0.033,0.014s-0.021,0.008-0.031,0.012
			c-0.006,0.002-0.011,0.005-0.017,0.007c-0.006,0.002-0.011,0.005-0.017,0.007s-0.011,0.005-0.016,0.007
			c-0.005,0.002-0.011,0.005-0.016,0.007c-0.014,0.01-0.029,0.018-0.045,0.025c-0.015,0.007-0.03,0.012-0.045,0.016
			s-0.029,0.007-0.043,0.009c-0.014,0.002-0.027,0.004-0.039,0.004c-0.006,0.002-0.011,0.005-0.017,0.007
			c-0.006,0.002-0.012,0.005-0.017,0.007s-0.012,0.005-0.018,0.007c-0.006,0.002-0.012,0.005-0.018,0.007
			c-0.007,0.003-0.015,0.006-0.022,0.009c-0.007,0.003-0.014,0.006-0.021,0.009s-0.014,0.006-0.02,0.009
			c-0.007,0.003-0.013,0.006-0.019,0.009c-0.019,0.01-0.037,0.017-0.055,0.024s-0.033,0.011-0.049,0.014s-0.03,0.006-0.044,0.008
			s-0.027,0.002-0.041,0.003c-0.009,0.003-0.017,0.006-0.026,0.009c-0.008,0.003-0.017,0.005-0.025,0.007s-0.016,0.004-0.024,0.006
			c-0.008,0.002-0.015,0.003-0.023,0.005c-0.006,0.001-0.011,0.002-0.017,0.004s-0.012,0.003-0.018,0.004s-0.013,0.003-0.02,0.005
			s-0.014,0.004-0.021,0.006c-0.017,0.004-0.033,0.008-0.047,0.012c-0.014,0.003-0.027,0.006-0.039,0.009s-0.023,0.005-0.033,0.007
			c-0.01,0.002-0.02,0.004-0.03,0.005c-0.009,0.002-0.017,0.003-0.025,0.005c-0.008,0.002-0.016,0.003-0.025,0.005
			s-0.017,0.004-0.025,0.006c-0.009,0.002-0.017,0.005-0.027,0.008l-0.008,0.003l-0.008,0.003l-0.008,0.003l-0.008,0.003h-0.008
			h-0.008h-0.008h-0.008c-0.008,0.003-0.018,0.007-0.028,0.01c-0.01,0.003-0.021,0.006-0.032,0.009s-0.024,0.005-0.037,0.007
			c-0.013,0.002-0.027,0.003-0.043,0.003c-0.011,0-0.023,0-0.034,0.001c-0.011,0.001-0.023,0.002-0.034,0.003
			s-0.023,0.002-0.035,0.004c-0.012,0.001-0.023,0.003-0.035,0.004c-0.017,0.002-0.035,0.004-0.053,0.006
			c-0.018,0.002-0.036,0.004-0.055,0.005s-0.038,0.003-0.057,0.004c-0.02,0.001-0.04,0.001-0.06,0.001c-0.037,0-0.07,0-0.102,0
			c-0.032,0-0.063-0.001-0.094-0.003s-0.063-0.005-0.096-0.009c-0.034-0.004-0.07-0.01-0.109-0.018c-0.001,0-0.003,0-0.005,0.001
			s-0.003,0-0.005,0s-0.004,0-0.006,0s-0.004,0-0.007,0c-0.007,0-0.014,0-0.023-0.001c-0.009-0.001-0.018-0.002-0.029-0.004
			s-0.022-0.005-0.034-0.008c-0.012-0.004-0.025-0.008-0.039-0.014c-0.009-0.001-0.018-0.002-0.027-0.003
			c-0.009-0.001-0.018-0.002-0.026-0.004s-0.017-0.003-0.026-0.004c-0.008-0.002-0.017-0.003-0.025-0.005
			c-0.006-0.001-0.011-0.002-0.017-0.003s-0.012-0.002-0.017-0.003s-0.012-0.002-0.018-0.002s-0.013-0.001-0.02-0.001
			c-0.019,0-0.037-0.001-0.055-0.004c-0.018-0.003-0.035-0.006-0.051-0.011s-0.033-0.009-0.049-0.015
			c-0.016-0.005-0.032-0.011-0.047-0.017l-0.008-0.003l-0.008-0.003l-0.008-0.003l-0.008-0.003c-0.01-0.001-0.02-0.003-0.028-0.004
			c-0.009-0.002-0.017-0.004-0.025-0.006s-0.015-0.004-0.021-0.006c-0.006-0.002-0.012-0.004-0.017-0.006h-0.008h-0.008h-0.008H15
			l-0.009-0.003l-0.009-0.003l-0.009-0.003l-0.009-0.003c-0.024-0.008-0.045-0.016-0.066-0.024s-0.039-0.016-0.057-0.024
			s-0.035-0.016-0.051-0.024s-0.032-0.016-0.048-0.024l-0.003-0.002l-0.003-0.002l-0.003-0.002l-0.003-0.002h-0.009h-0.009h-0.009
			h-0.009l-0.016-0.005L14.662,18.4l-0.016-0.005l-0.016-0.005c-0.006-0.003-0.012-0.006-0.019-0.009s-0.013-0.006-0.02-0.009
			s-0.014-0.006-0.021-0.009s-0.015-0.006-0.022-0.009c-0.01-0.004-0.02-0.008-0.03-0.012s-0.02-0.008-0.029-0.012
			s-0.019-0.008-0.028-0.012s-0.018-0.008-0.026-0.012l-0.007-0.004l-0.007-0.004l-0.007-0.004l-0.007-0.004L14.4,18.285
			l-0.006-0.006l-0.006-0.006l-0.006-0.006c0,0-0.001,0.001-0.002,0.001c-0.001,0-0.001,0.001-0.002,0.001s-0.002,0-0.002,0
			c-0.001,0-0.002,0-0.003,0c-0.004,0-0.008-0.001-0.014-0.002s-0.011-0.003-0.018-0.006s-0.013-0.006-0.02-0.01
			s-0.015-0.009-0.022-0.015c-0.008-0.004-0.015-0.009-0.023-0.014s-0.015-0.01-0.023-0.015s-0.015-0.011-0.023-0.016
			s-0.015-0.011-0.023-0.017c-0.004-0.003-0.009-0.007-0.013-0.01s-0.009-0.007-0.013-0.01s-0.009-0.006-0.013-0.009
			s-0.009-0.005-0.013-0.008l-0.007-0.004l-0.007-0.004l-0.007-0.004l-0.007-0.004l-0.006-0.006l-0.006-0.006l-0.006-0.006
			L14.103,18.1c-0.009-0.006-0.018-0.012-0.026-0.018c-0.008-0.005-0.016-0.011-0.022-0.016s-0.013-0.009-0.019-0.014
			c-0.006-0.004-0.011-0.008-0.016-0.012c-0.019-0.011-0.036-0.023-0.053-0.035s-0.032-0.025-0.047-0.037s-0.027-0.024-0.039-0.035
			s-0.021-0.021-0.029-0.028c-0.01-0.006-0.019-0.012-0.027-0.018s-0.016-0.011-0.023-0.016s-0.013-0.01-0.019-0.014
			s-0.011-0.009-0.016-0.013c-0.016-0.01-0.031-0.02-0.044-0.031c-0.013-0.011-0.025-0.022-0.035-0.033s-0.02-0.022-0.028-0.031
			c-0.008-0.01-0.015-0.019-0.022-0.027c-0.012-0.008-0.024-0.017-0.034-0.026s-0.02-0.018-0.029-0.028s-0.017-0.019-0.025-0.028
			s-0.015-0.018-0.022-0.026c-0.003-0.003-0.006-0.007-0.009-0.011c-0.003-0.004-0.006-0.007-0.009-0.011s-0.006-0.007-0.01-0.011
			c-0.003-0.004-0.007-0.007-0.011-0.011l-0.034-0.034l-0.034-0.034l-0.034-0.034l-0.034-0.034l0.025-0.042l0.025-0.042l0.025-0.042
			l0.025-0.042c0.168-0.183,0.355-0.347,0.557-0.489c0.201-0.142,0.418-0.264,0.644-0.362s0.464-0.174,0.708-0.225
			c0.244-0.051,0.495-0.077,0.749-0.077c0.254,0,0.505,0.026,0.749,0.077c0.244,0.051,0.482,0.126,0.708,0.225
			s0.443,0.22,0.644,0.362c0.201,0.142,0.388,0.306,0.557,0.489l-0.019,0.018l-0.019,0.018l-0.019,0.018L18.697,17.338z
			 M14.659,14.388c0-0.201,0.041-0.392,0.115-0.566s0.18-0.331,0.312-0.463s0.289-0.238,0.463-0.312s0.365-0.115,0.566-0.115
			s0.392,0.041,0.566,0.115s0.331,0.18,0.463,0.312s0.238,0.289,0.312,0.463s0.115,0.365,0.115,0.566s-0.041,0.392-0.115,0.566
			s-0.18,0.331-0.312,0.463s-0.289,0.238-0.463,0.312s-0.365,0.115-0.566,0.115s-0.392-0.041-0.566-0.115s-0.331-0.18-0.463-0.312
			s-0.238-0.289-0.312-0.463S14.659,14.588,14.659,14.388z M19.021,17.187l-0.044-0.044L18.934,17.1l-0.044-0.044l-0.044-0.044
			c-0.113-0.113-0.232-0.219-0.358-0.318s-0.256-0.191-0.391-0.274s-0.274-0.158-0.415-0.224s-0.285-0.122-0.429-0.168l-0.089-0.028
			l-0.089-0.028l-0.089-0.028l-0.089-0.028l0.073-0.058l0.073-0.058l0.073-0.058l0.073-0.058c0.094-0.076,0.179-0.162,0.252-0.257
			c0.073-0.095,0.136-0.198,0.187-0.309s0.09-0.228,0.116-0.35c0.026-0.122,0.04-0.249,0.04-0.379c0-0.234-0.048-0.457-0.134-0.66
			s-0.21-0.386-0.364-0.54s-0.337-0.278-0.54-0.364s-0.426-0.134-0.66-0.134c-0.238,0-0.463,0.047-0.667,0.131
			s-0.386,0.208-0.539,0.36s-0.276,0.335-0.36,0.539s-0.131,0.429-0.131,0.667c0,0.127,0.013,0.251,0.039,0.37
			s0.064,0.234,0.114,0.343s0.113,0.213,0.188,0.311s0.161,0.19,0.26,0.275l0.068,0.059l0.068,0.059l0.068,0.059l0.068,0.059
			l-0.087,0.026l-0.087,0.026l-0.087,0.026l-0.087,0.026c-0.145,0.044-0.287,0.098-0.427,0.161
			c-0.139,0.063-0.275,0.136-0.408,0.218s-0.262,0.173-0.389,0.274c-0.126,0.101-0.249,0.21-0.367,0.329l-0.044,0.044l-0.044,0.044
			l-0.044,0.044l-0.044,0.044l-0.033-0.053l-0.033-0.053l-0.033-0.053l-0.033-0.053c-0.096-0.153-0.181-0.31-0.255-0.47
			s-0.135-0.324-0.184-0.491s-0.087-0.335-0.112-0.504s-0.038-0.34-0.038-0.511c0.007-0.501,0.117-0.978,0.307-1.413
			s0.463-0.826,0.797-1.155s0.729-0.595,1.167-0.779s0.916-0.286,1.417-0.286c0.501,0,0.978,0.102,1.412,0.286
			s0.826,0.45,1.155,0.779s0.595,0.72,0.779,1.155s0.286,0.912,0.286,1.412c0,0.18-0.012,0.356-0.036,0.527s-0.061,0.339-0.11,0.503
			s-0.11,0.325-0.184,0.483s-0.161,0.313-0.26,0.466l-0.034,0.052l-0.034,0.052l-0.034,0.052L19.021,17.187z"/>
	</g>
</g>
<g>
	<g>
		<path class="st0" d="M10.138,13.132c0-0.015-0.004-0.03-0.01-0.043s-0.016-0.024-0.028-0.034s-0.026-0.017-0.043-0.022
			s-0.034-0.008-0.054-0.008H8.776H7.548H6.321H5.093c-0.014,0-0.028,0.003-0.041,0.009s-0.024,0.014-0.034,0.023
			S5,13.079,4.995,13.091s-0.009,0.026-0.009,0.041c0,0.014,0.003,0.028,0.009,0.041s0.014,0.024,0.023,0.034
			s0.021,0.018,0.034,0.023s0.026,0.009,0.041,0.009h1.235h1.235h1.235h1.235c0.014,0,0.028-0.003,0.041-0.009
			s0.024-0.014,0.034-0.023s0.018-0.021,0.023-0.034S10.138,13.146,10.138,13.132z"/>
	</g>
</g>
<g>
	<g>
		<path class="st0" d="M10.138,14.388c0-0.015-0.004-0.03-0.01-0.043s-0.016-0.024-0.028-0.034s-0.026-0.017-0.043-0.022
			s-0.034-0.008-0.054-0.008H8.776H7.548H6.321H5.093c-0.014,0-0.028,0.003-0.041,0.009s-0.024,0.014-0.034,0.023
			S5,14.334,4.995,14.347s-0.009,0.027-0.009,0.041c0,0.014,0.003,0.028,0.009,0.041s0.014,0.024,0.023,0.034
			s0.021,0.018,0.034,0.023s0.026,0.009,0.041,0.009h1.235h1.235h1.235h1.235c0.014,0,0.028-0.003,0.041-0.009
			s0.024-0.014,0.034-0.023s0.018-0.021,0.023-0.034S10.138,14.402,10.138,14.388z"/>
	</g>
</g>
<g>
	<g>
		<path class="st0" d="M10.138,15.643c0-0.015-0.004-0.03-0.01-0.043s-0.016-0.024-0.028-0.034s-0.026-0.017-0.043-0.022
			s-0.034-0.008-0.054-0.008H8.776H7.548H6.321H5.093c-0.014,0-0.028,0.003-0.041,0.009s-0.024,0.014-0.034,0.023
			S5,15.59,4.995,15.602s-0.009,0.026-0.009,0.041s0.003,0.028,0.009,0.041s0.014,0.024,0.023,0.034s0.021,0.018,0.034,0.023
			s0.026,0.009,0.041,0.009h1.235h1.235h1.235h1.235c0.014,0,0.028-0.003,0.041-0.009s0.024-0.014,0.034-0.023
			s0.018-0.021,0.023-0.034S10.138,15.657,10.138,15.643z"/>
	</g>
</g>
<g>
	<g>
		<path class="st0" d="M7.548,16.764H6.934H6.321H5.707H5.093c-0.014,0-0.028,0.003-0.041,0.009s-0.024,0.014-0.034,0.023
			S5,16.817,4.995,16.83s-0.009,0.027-0.009,0.041c0,0.014,0.003,0.028,0.009,0.041C5,16.924,5.008,16.936,5.018,16.946
			s0.021,0.018,0.034,0.023c0.013,0.006,0.026,0.009,0.041,0.009h0.614h0.614h0.614h0.614c0.014,0,0.028-0.003,0.041-0.009
			c0.013-0.006,0.024-0.014,0.034-0.023s0.018-0.021,0.023-0.034c0.006-0.013,0.009-0.026,0.009-0.041
			c0-0.014-0.003-0.028-0.009-0.041s-0.014-0.024-0.023-0.034s-0.021-0.018-0.034-0.023S7.563,16.764,7.548,16.764z"/>
	</g>
</g>
<g>
	<path class="st0" d="M29.819,29.891h-7.432h-7.432H7.523H0.091v-7.432v-7.432V7.595V0.162h7.432h7.432h7.432h7.432v7.432v7.432
		v7.432V29.891z M0.341,29.641h7.307h7.307h7.307h7.307v-7.307v-7.307V7.72V0.412h-7.307h-7.307H7.648H0.341V7.72v7.307v7.307
		V29.641z"/>
</g>
</svg>
