<?xml version="1.0" encoding="utf-8"?>
<!-- Generator: Adobe Illustrator 19.1.0, SVG Export Plug-In . SVG Version: 6.00 Build 0)  -->
<svg version="1.1" id="Layer_1" xmlns="http://www.w3.org/2000/svg" xmlns:xlink="http://www.w3.org/1999/xlink" x="0px" y="0px"
	 viewBox="0 0 29.91 30.086" style="enable-background:new 0 0 29.91 30.086;" xml:space="preserve">
<style type="text/css">
	.st0{fill:#115C78;}
	.st1{fill-rule:evenodd;clip-rule:evenodd;fill:#4D4D4D;}
	.st2{fill:#4D4D4D;}
	.st3{fill-rule:evenodd;clip-rule:evenodd;}
	.st4{fill:#FFFFFF;}
	.st5{fill:none;}
	.st6{fill:none;stroke:#4D4D4D;stroke-width:0.3;stroke-miterlimit:10;}
	.st7{fill:#4D4D4D;stroke:#4D4D4D;stroke-width:0.1;stroke-miterlimit:10;}
	.st8{fill:#F0047F;}
	.st9{fill:none;stroke:#4D4D4D;stroke-width:0;stroke-linecap:round;stroke-linejoin:round;}
	.st10{fill:none;stroke:#4D4D4D;stroke-width:0.25;stroke-miterlimit:10;}
	.st11{fill:none;stroke:#4D4D4D;stroke-width:0.2;stroke-miterlimit:10;}
	.st12{fill:none;stroke:#4D4D4D;stroke-width:0.8;stroke-miterlimit:10;}
	.st13{fill:#4D4D4D;stroke:#4D4D4D;stroke-width:0.3;stroke-miterlimit:10;}
	.st14{fill:none;stroke:#4D4D4D;stroke-width:0.24;stroke-miterlimit:10;}
</style>
<g>
	<g>
		<g>
			<path class="st2" d="M17.946,12.166l-4.691-2.877L8.565,6.411L3.874,3.534v5.755v5.755v5.755v5.755l4.691-2.877l4.691-2.877
				l4.691-2.877l4.691-2.877L17.946,12.166z M17.535,17.765l-4.438,2.722L8.66,23.208L4.222,25.93v-5.443v-5.443V9.599V4.156
				L8.66,6.878L13.097,9.6l4.438,2.722l4.438,2.722L17.535,17.765z"/>
		</g>
	</g>
</g>
<g>
	<g>
		<polygon class="st2" points="26.103,4.5 26.016,4.5 25.929,4.5 25.842,4.5 25.842,9.772 25.842,15.043 25.842,20.315 
			25.842,25.587 25.929,25.587 26.016,25.587 26.103,25.587 26.189,25.587 26.189,20.315 26.189,15.043 26.189,9.772 26.189,4.5 		
			"/>
	</g>
</g>
<polygon class="st10" points="0.51,0.646 7.776,0.646 15.042,0.646 22.308,0.646 29.574,0.646 29.574,7.913 29.574,15.179 
	29.574,22.445 29.574,29.711 22.308,29.711 15.042,29.711 7.776,29.711 0.51,29.711 0.51,22.445 0.51,15.179 0.51,7.913 "/>
</svg>
