<?xml version="1.0" encoding="utf-8"?>
<!-- Generator: Adobe Illustrator 19.1.0, SVG Export Plug-In . SVG Version: 6.00 Build 0)  -->
<svg version="1.1" id="Layer_1" xmlns="http://www.w3.org/2000/svg" xmlns:xlink="http://www.w3.org/1999/xlink" x="0px" y="0px"
	 viewBox="0 0 29.91 30.086" style="enable-background:new 0 0 29.91 30.086;" xml:space="preserve">
<style type="text/css">
	.st0{fill:#115C78;}
	.st1{fill-rule:evenodd;clip-rule:evenodd;fill:#4D4D4D;}
	.st2{fill:#4D4D4D;}
	.st3{fill-rule:evenodd;clip-rule:evenodd;}
	.st4{fill:#FFFFFF;}
	.st5{fill:none;}
	.st6{fill:none;stroke:#4D4D4D;stroke-width:0.3;stroke-miterlimit:10;}
	.st7{fill:#4D4D4D;stroke:#4D4D4D;stroke-width:0.1;stroke-miterlimit:10;}
	.st8{fill:#F0047F;}
	.st9{fill:none;stroke:#4D4D4D;stroke-width:0;stroke-linecap:round;stroke-linejoin:round;}
	.st10{fill:none;stroke:#4D4D4D;stroke-width:0.25;stroke-miterlimit:10;}
	.st11{fill:none;stroke:#4D4D4D;stroke-width:0.2;stroke-miterlimit:10;}
	.st12{fill:none;stroke:#4D4D4D;stroke-width:0.8;stroke-miterlimit:10;}
	.st13{fill:#4D4D4D;stroke:#4D4D4D;stroke-width:0.3;stroke-miterlimit:10;}
	.st14{fill:none;stroke:#4D4D4D;stroke-width:0.24;stroke-miterlimit:10;}
</style>
<g>
	<g>
		<g>
			<path class="st2" d="M24.522,7.812c-0.005-0.028-0.013-0.052-0.021-0.073s-0.017-0.037-0.026-0.05s-0.017-0.022-0.023-0.028H19.3
				h-5.151H8.997H3.846c0,0.002-0.004,0.009-0.009,0.02C3.831,7.692,3.823,7.708,3.815,7.729C3.807,7.75,3.799,7.775,3.793,7.804
				c-0.006,0.03-0.01,0.064-0.01,0.102v4.347V16.6v4.347v4.347c0,0.038,0.004,0.072,0.01,0.102s0.015,0.055,0.024,0.076
				c0.009,0.021,0.019,0.038,0.028,0.05c0.009,0.012,0.017,0.02,0.023,0.023l5.15-0.001l5.15-0.001l5.15-0.001l5.15-0.001
				c0-0.002,0.004-0.009,0.01-0.02c0.006-0.011,0.014-0.028,0.022-0.048c0.008-0.021,0.016-0.046,0.022-0.076s0.01-0.064,0.01-0.102
				v-4.347V16.6v-4.347V7.906C24.531,7.871,24.527,7.839,24.522,7.812z M24.405,8.202v0.05v0.05v0.05v4.124V16.6v4.124v4.124v0.05
				v0.05v0.05v0.05h-0.05h-0.05h-0.05h-0.05h-5.024h-5.024H9.133H4.109h-0.05h-0.05h-0.05h-0.05v-0.05v-0.05v-0.05v-0.05v-4.124
				V16.6v-4.124V8.352v-0.05v-0.05v-0.05v-0.05h0.05h0.05h0.05h0.05h5.024h5.024h5.024h5.024h0.05h0.05h0.05h0.05V8.202z"/>
		</g>
	</g>
</g>
<g>
	<g>
		<path class="st2" d="M26.118,5.467c-0.005-0.028-0.013-0.052-0.021-0.073c-0.008-0.021-0.017-0.037-0.026-0.05
			c-0.009-0.013-0.017-0.022-0.023-0.028h-3.89h-3.89h-3.89h-3.89c0,0.002-0.003,0.009-0.009,0.02
			c-0.006,0.011-0.014,0.028-0.021,0.048C10.448,5.405,10.44,5.43,10.434,5.46c-0.006,0.03-0.01,0.064-0.01,0.102
			c0,0.038,0.004,0.072,0.01,0.102c0.006,0.03,0.015,0.055,0.024,0.076c0.009,0.021,0.019,0.038,0.028,0.05s0.017,0.02,0.022,0.023
			l3.823-0.001l3.823-0.001l3.823-0.001l3.823-0.001h0.05h0.05h0.05h0.05v0.05v0.05v0.05v0.05v4.356v4.356v4.356v4.356
			c0,0.038,0.004,0.071,0.01,0.101c0.006,0.029,0.015,0.055,0.024,0.076s0.019,0.037,0.028,0.05c0.009,0.012,0.017,0.02,0.023,0.023
			c-0.005-0.003-0.005-0.011-0.003-0.024c0.003-0.012,0.009-0.029,0.015-0.05c0.006-0.021,0.014-0.046,0.019-0.076
			c0.005-0.029,0.009-0.063,0.009-0.101v-4.468v-4.468v-4.468V5.562C26.126,5.526,26.123,5.495,26.118,5.467z"/>
	</g>
</g>
<path class="st10" d="M0.216,0.472h7.37h7.37h7.37h7.37v7.37v7.37v7.37v7.37h-7.37h-7.37h-7.37h-7.37v-7.37v-7.37v-7.37V0.472z"/>
</svg>
