<?xml version="1.0" encoding="utf-8"?>
<!-- Generator: Adobe Illustrator 19.1.0, SVG Export Plug-In . SVG Version: 6.00 Build 0)  -->
<svg version="1.1" id="Layer_1" xmlns="http://www.w3.org/2000/svg" xmlns:xlink="http://www.w3.org/1999/xlink" x="0px" y="0px"
	 viewBox="0 0 29.91 30.086" style="enable-background:new 0 0 29.91 30.086;" xml:space="preserve">
<style type="text/css">
	.st0{fill:#4D4D4D;}
	.st1{fill-rule:evenodd;clip-rule:evenodd;fill:#4C4C4C;}
	.st2{fill:#4C4C4C;}
	.st3{fill:#383330;}
	.st4{fill:#1F1A17;}
	.st5{fill:#4D4C4C;}
	.st6{fill:none;stroke:#000000;stroke-width:0.3;stroke-miterlimit:10;}
	.st7{fill:#E61413;}
	.st8{fill:#5F5357;}
	.st9{fill:#115C78;}
	.st10{fill-rule:evenodd;clip-rule:evenodd;fill:#4D4D4D;}
	.st11{fill-rule:evenodd;clip-rule:evenodd;}
	.st12{fill:#FFFFFF;}
	.st13{fill:none;}
	.st14{fill:#231F20;}
	.st15{clip-path:url(#SVGID_2_);}
	.st16{clip-path:url(#SVGID_4_);fill:#FCF118;}
	.st17{clip-path:url(#SVGID_4_);fill:#FCF018;}
	.st18{clip-path:url(#SVGID_4_);fill:#FCEF18;}
	.st19{clip-path:url(#SVGID_4_);fill:#FCEE18;}
	.st20{clip-path:url(#SVGID_4_);fill:#FCED18;}
	.st21{clip-path:url(#SVGID_4_);fill:#FCEC18;}
	.st22{clip-path:url(#SVGID_4_);fill:#FCEB18;}
	.st23{clip-path:url(#SVGID_4_);fill:#FCEA18;}
	.st24{clip-path:url(#SVGID_4_);fill:#FCE918;}
	.st25{clip-path:url(#SVGID_4_);fill:#FCE818;}
	.st26{clip-path:url(#SVGID_4_);fill:#FCE718;}
	.st27{clip-path:url(#SVGID_4_);fill:#FCE617;}
	.st28{clip-path:url(#SVGID_4_);fill:#FCE517;}
	.st29{clip-path:url(#SVGID_4_);fill:#FCE417;}
	.st30{clip-path:url(#SVGID_4_);fill:#FCE317;}
	.st31{clip-path:url(#SVGID_4_);fill:#FCE217;}
	.st32{clip-path:url(#SVGID_4_);fill:#FCE117;}
	.st33{clip-path:url(#SVGID_4_);fill:#FCE017;}
	.st34{clip-path:url(#SVGID_4_);fill:#FCDF17;}
	.st35{clip-path:url(#SVGID_4_);fill:#FCDE17;}
	.st36{clip-path:url(#SVGID_4_);fill:#FCDD17;}
	.st37{clip-path:url(#SVGID_4_);fill:#FCDC17;}
	.st38{clip-path:url(#SVGID_4_);fill:#FCDB17;}
	.st39{clip-path:url(#SVGID_4_);fill:#FCDA17;}
	.st40{clip-path:url(#SVGID_4_);fill:#FCD917;}
	.st41{clip-path:url(#SVGID_4_);fill:#FCD817;}
	.st42{clip-path:url(#SVGID_4_);fill:#FCD717;}
	.st43{clip-path:url(#SVGID_4_);fill:#FCD617;}
	.st44{clip-path:url(#SVGID_4_);fill:#FCD517;}
	.st45{clip-path:url(#SVGID_4_);fill:#FCD416;}
	.st46{clip-path:url(#SVGID_4_);fill:#FCD316;}
	.st47{clip-path:url(#SVGID_4_);fill:#FBD216;}
	.st48{clip-path:url(#SVGID_4_);fill:#FBD116;}
	.st49{clip-path:url(#SVGID_4_);fill:#FBD016;}
	.st50{clip-path:url(#SVGID_4_);fill:#FBCF16;}
	.st51{clip-path:url(#SVGID_4_);fill:#FBCE16;}
	.st52{clip-path:url(#SVGID_4_);fill:#FBCD16;}
	.st53{clip-path:url(#SVGID_4_);fill:#FBCC16;}
	.st54{clip-path:url(#SVGID_4_);fill:#FBCB16;}
	.st55{clip-path:url(#SVGID_4_);fill:#FBCA16;}
	.st56{clip-path:url(#SVGID_4_);fill:#FBC916;}
	.st57{clip-path:url(#SVGID_4_);fill:#FBC816;}
	.st58{clip-path:url(#SVGID_4_);fill:#FBC716;}
	.st59{clip-path:url(#SVGID_4_);fill:#FBC616;}
	.st60{clip-path:url(#SVGID_4_);fill:#FBC516;}
	.st61{clip-path:url(#SVGID_4_);fill:#FBC416;}
	.st62{clip-path:url(#SVGID_4_);fill:#FBC316;}
	.st63{clip-path:url(#SVGID_4_);fill:#FBC216;}
	.st64{clip-path:url(#SVGID_4_);fill:#FBC115;}
	.st65{clip-path:url(#SVGID_4_);fill:#FBC015;}
	.st66{clip-path:url(#SVGID_4_);fill:#FBBF15;}
	.st67{clip-path:url(#SVGID_4_);fill:#FBBE15;}
	.st68{clip-path:url(#SVGID_4_);fill:#FBBD15;}
	.st69{clip-path:url(#SVGID_4_);fill:#FBBC15;}
	.st70{clip-path:url(#SVGID_4_);fill:#FBBB15;}
	.st71{clip-path:url(#SVGID_4_);fill:#FBBA15;}
	.st72{clip-path:url(#SVGID_4_);fill:#FBB915;}
	.st73{clip-path:url(#SVGID_4_);fill:#FBB815;}
	.st74{clip-path:url(#SVGID_4_);fill:#FBB715;}
	.st75{clip-path:url(#SVGID_4_);fill:#FBB615;}
	.st76{clip-path:url(#SVGID_4_);fill:#FBB515;}
	.st77{clip-path:url(#SVGID_4_);fill:#FBB415;}
	.st78{clip-path:url(#SVGID_4_);fill:#FBB315;}
	.st79{clip-path:url(#SVGID_4_);fill:#FBB215;}
	.st80{clip-path:url(#SVGID_4_);fill:#FBB115;}
	.st81{clip-path:url(#SVGID_4_);fill:#FBB015;}
	.st82{clip-path:url(#SVGID_4_);fill:#FBAF15;}
	.st83{clip-path:url(#SVGID_4_);fill:#FAAE15;}
	.st84{clip-path:url(#SVGID_4_);fill:#FAAD14;}
	.st85{clip-path:url(#SVGID_4_);fill:#FAAC14;}
	.st86{clip-path:url(#SVGID_4_);fill:#FAAB14;}
	.st87{clip-path:url(#SVGID_4_);fill:#FAAA14;}
	.st88{clip-path:url(#SVGID_4_);fill:#FAA914;}
	.st89{clip-path:url(#SVGID_4_);fill:#FAA814;}
	.st90{clip-path:url(#SVGID_4_);fill:#FAA714;}
	.st91{clip-path:url(#SVGID_4_);fill:#FAA614;}
	.st92{clip-path:url(#SVGID_4_);fill:#FAA514;}
	.st93{clip-path:url(#SVGID_4_);fill:#FAA414;}
	.st94{clip-path:url(#SVGID_4_);fill:#FAA314;}
	.st95{clip-path:url(#SVGID_4_);fill:#FAA214;}
	.st96{clip-path:url(#SVGID_4_);fill:#FAA114;}
	.st97{clip-path:url(#SVGID_4_);fill:#FAA014;}
	.st98{clip-path:url(#SVGID_4_);fill:#FA9F14;}
	.st99{clip-path:url(#SVGID_4_);fill:#FA9E14;}
	.st100{clip-path:url(#SVGID_4_);fill:#FA9D14;}
	.st101{clip-path:url(#SVGID_4_);fill:#FA9C14;}
	.st102{clip-path:url(#SVGID_4_);fill:#FA9B14;}
	.st103{clip-path:url(#SVGID_4_);fill:#FA9A13;}
	.st104{clip-path:url(#SVGID_4_);fill:#FA9913;}
	.st105{clip-path:url(#SVGID_4_);fill:#FA9813;}
	.st106{clip-path:url(#SVGID_4_);fill:#FA9713;}
	.st107{clip-path:url(#SVGID_4_);fill:#FA9613;}
	.st108{clip-path:url(#SVGID_4_);fill:#FA9513;}
	.st109{clip-path:url(#SVGID_4_);fill:#FA9413;}
	.st110{clip-path:url(#SVGID_4_);fill:#FA9313;}
	.st111{clip-path:url(#SVGID_4_);fill:#FA9213;}
	.st112{clip-path:url(#SVGID_4_);fill:#FA9113;}
	.st113{clip-path:url(#SVGID_4_);fill:#FA9013;}
	.st114{clip-path:url(#SVGID_4_);fill:#FA8F13;}
	.st115{clip-path:url(#SVGID_4_);fill:#FA8E13;}
	.st116{clip-path:url(#SVGID_4_);fill:#FA8D13;}
	.st117{clip-path:url(#SVGID_4_);fill:#FA8C13;}
	.st118{clip-path:url(#SVGID_4_);fill:#FA8B13;}
	.st119{clip-path:url(#SVGID_4_);fill:#FA8A13;}
	.st120{clip-path:url(#SVGID_4_);fill:#FA8913;}
	.st121{clip-path:url(#SVGID_4_);fill:#FA8812;}
	.st122{clip-path:url(#SVGID_4_);fill:#FA8712;}
	.st123{clip-path:url(#SVGID_4_);fill:#FA8612;}
	.st124{clip-path:url(#SVGID_4_);fill:#F98512;}
	.st125{clip-path:url(#SVGID_4_);fill:#F98412;}
	.st126{clip-path:url(#SVGID_4_);fill:#F98312;}
	.st127{clip-path:url(#SVGID_4_);fill:#F98212;}
	.st128{clip-path:url(#SVGID_4_);fill:#F98112;}
	.st129{clip-path:url(#SVGID_4_);fill:#F98012;}
	.st130{clip-path:url(#SVGID_4_);fill:#F97F12;}
	.st131{clip-path:url(#SVGID_4_);fill:#F97E12;}
	.st132{clip-path:url(#SVGID_4_);fill:#F97D12;}
	.st133{clip-path:url(#SVGID_4_);fill:#F97C12;}
	.st134{clip-path:url(#SVGID_4_);fill:#F97B12;}
	.st135{clip-path:url(#SVGID_4_);fill:#F97A12;}
	.st136{clip-path:url(#SVGID_4_);fill:#F97912;}
	.st137{clip-path:url(#SVGID_4_);fill:#F97812;}
	.st138{clip-path:url(#SVGID_4_);fill:#F97712;}
	.st139{clip-path:url(#SVGID_4_);fill:#F97612;}
	.st140{clip-path:url(#SVGID_4_);fill:#F97511;}
	.st141{clip-path:url(#SVGID_4_);fill:#F97411;}
	.st142{clip-path:url(#SVGID_4_);fill:#F97311;}
	.st143{clip-path:url(#SVGID_4_);fill:#F97211;}
	.st144{clip-path:url(#SVGID_4_);fill:#F97111;}
	.st145{clip-path:url(#SVGID_4_);fill:#F97011;}
	.st146{clip-path:url(#SVGID_4_);fill:#F96F11;}
	.st147{clip-path:url(#SVGID_4_);fill:#F96E11;}
	.st148{clip-path:url(#SVGID_4_);fill:#F96D11;}
	.st149{clip-path:url(#SVGID_4_);fill:#F96C11;}
	.st150{clip-path:url(#SVGID_4_);fill:#F96B11;}
	.st151{clip-path:url(#SVGID_4_);fill:#F96A11;}
	.st152{clip-path:url(#SVGID_4_);fill:#F96911;}
	.st153{clip-path:url(#SVGID_4_);fill:#F96811;}
	.st154{clip-path:url(#SVGID_4_);fill:#F96711;}
	.st155{clip-path:url(#SVGID_4_);fill:#F96611;}
	.st156{clip-path:url(#SVGID_4_);fill:#F96511;}
	.st157{clip-path:url(#SVGID_4_);fill:#F96411;}
	.st158{clip-path:url(#SVGID_4_);fill:#F96311;}
	.st159{clip-path:url(#SVGID_4_);fill:#F96210;}
	.st160{clip-path:url(#SVGID_4_);fill:#F86110;}
	.st161{clip-path:url(#SVGID_4_);fill:#F86010;}
	.st162{clip-path:url(#SVGID_4_);fill:#F85F10;}
	.st163{clip-path:url(#SVGID_4_);fill:#F85E10;}
	.st164{clip-path:url(#SVGID_4_);fill:#F85D10;}
	.st165{clip-path:url(#SVGID_4_);fill:#F85C10;}
	.st166{clip-path:url(#SVGID_4_);fill:#F85B10;}
	.st167{clip-path:url(#SVGID_4_);fill:#F85A10;}
	.st168{clip-path:url(#SVGID_4_);fill:#F85910;}
	.st169{clip-path:url(#SVGID_4_);fill:#F85810;}
	.st170{clip-path:url(#SVGID_4_);fill:#F85710;}
	.st171{clip-path:url(#SVGID_4_);fill:#F85610;}
	.st172{clip-path:url(#SVGID_4_);fill:#F85510;}
	.st173{clip-path:url(#SVGID_4_);fill:#F85410;}
	.st174{clip-path:url(#SVGID_4_);fill:#F85310;}
	.st175{clip-path:url(#SVGID_4_);fill:#F85210;}
	.st176{clip-path:url(#SVGID_4_);fill:#F85110;}
	.st177{clip-path:url(#SVGID_4_);fill:#F85010;}
	.st178{clip-path:url(#SVGID_4_);fill:#F84F0F;}
	.st179{clip-path:url(#SVGID_4_);fill:#F84E0F;}
	.st180{clip-path:url(#SVGID_4_);fill:#F84D0F;}
	.st181{clip-path:url(#SVGID_4_);fill:#F84C0F;}
	.st182{clip-path:url(#SVGID_4_);fill:#F84B0F;}
	.st183{clip-path:url(#SVGID_4_);fill:#F84A0F;}
	.st184{clip-path:url(#SVGID_4_);fill:#F8490F;}
	.st185{clip-path:url(#SVGID_4_);fill:#F8480F;}
	.st186{clip-path:url(#SVGID_4_);fill:#F8470F;}
	.st187{clip-path:url(#SVGID_4_);fill:#F8460F;}
	.st188{clip-path:url(#SVGID_4_);fill:#F8450F;}
	.st189{clip-path:url(#SVGID_4_);fill:#F8440F;}
	.st190{clip-path:url(#SVGID_4_);fill:#F8430F;}
	.st191{clip-path:url(#SVGID_4_);fill:#F8420F;}
	.st192{clip-path:url(#SVGID_4_);fill:#F8410F;}
	.st193{clip-path:url(#SVGID_4_);fill:#F8400F;}
	.st194{clip-path:url(#SVGID_4_);fill:#F83F0F;}
	.st195{clip-path:url(#SVGID_4_);fill:#F83E0E;}
	.st196{clip-path:url(#SVGID_4_);fill:#F83D0E;}
	.st197{clip-path:url(#SVGID_4_);fill:#F83C0E;}
	.st198{clip-path:url(#SVGID_4_);fill:#F83B0E;}
	.st199{clip-path:url(#SVGID_4_);fill:#F73A0E;}
	.st200{clip-path:url(#SVGID_4_);fill:#F7390E;}
	.st201{clip-path:url(#SVGID_4_);fill:#F7380E;}
	.st202{clip-path:url(#SVGID_4_);fill:#F7370E;}
	.st203{clip-path:url(#SVGID_4_);fill:#F7360E;}
	.st204{clip-path:url(#SVGID_4_);fill:#F7340E;}
	.st205{clip-path:url(#SVGID_4_);fill:#F7330E;}
	.st206{clip-path:url(#SVGID_4_);fill:#F7320E;}
	.st207{clip-path:url(#SVGID_4_);fill:#F7310E;}
	.st208{clip-path:url(#SVGID_4_);fill:#F7300E;}
	.st209{clip-path:url(#SVGID_4_);fill:#F72F0E;}
	.st210{clip-path:url(#SVGID_4_);fill:#F72E0E;}
	.st211{clip-path:url(#SVGID_4_);fill:#F72D0E;}
	.st212{clip-path:url(#SVGID_4_);fill:#F72C0E;}
	.st213{clip-path:url(#SVGID_4_);fill:#F72B0E;}
	.st214{clip-path:url(#SVGID_4_);fill:#F72B0D;}
	.st215{clip-path:url(#SVGID_4_);fill:#F72A0D;}
	.st216{clip-path:url(#SVGID_4_);fill:#F7290D;}
	.st217{clip-path:url(#SVGID_4_);fill:#F7280D;}
	.st218{clip-path:url(#SVGID_4_);fill:#F7270D;}
	.st219{clip-path:url(#SVGID_4_);fill:#F7260D;}
</style>
<g>
	<path class="st0" d="M29.819,29.908h-7.432h-7.432H7.523H0.091v-7.432v-7.432V7.611V0.179h7.432h7.432h7.432h7.432v7.432v7.432
		v7.432V29.908z M0.341,29.658h7.307h7.307h7.307h7.307V22.35v-7.307V7.736V0.429h-7.307h-7.307H7.648H0.341v7.307v7.307v7.307
		V29.658z"/>
</g>
<g>
	<path class="st0" d="M29.703,22.938v-0.061v-0.061v-0.061v-0.061c-1.128-0.469-2.283-0.886-3.461-1.248
		c-1.179-0.362-2.382-0.668-3.605-0.915s-2.469-0.436-3.731-0.563c-1.263-0.127-2.543-0.192-3.839-0.192
		c-1.296,0-2.577,0.065-3.839,0.192c-1.263,0.127-2.508,0.316-3.731,0.563s-2.426,0.554-3.605,0.915
		c-1.179,0.362-2.333,0.779-3.461,1.248v0.061v0.061v0.061v0.061c1.127-0.472,2.281-0.891,3.46-1.255
		c1.178-0.364,2.381-0.672,3.605-0.92s2.469-0.439,3.732-0.566c1.263-0.128,2.544-0.193,3.841-0.193c1.296,0,2.577,0.065,3.84,0.193
		c1.263,0.128,2.508,0.318,3.732,0.566s2.426,0.557,3.605,0.92C27.421,22.047,28.576,22.466,29.703,22.938"/>
</g>
<g>
	<path class="st2" d="M9.694,3.587v0.43v0.43v0.43v0.43c0,0.067,0.004,0.129,0.011,0.187s0.018,0.111,0.032,0.159
		s0.032,0.093,0.053,0.132s0.046,0.074,0.074,0.105s0.06,0.057,0.096,0.079s0.076,0.042,0.119,0.057s0.091,0.026,0.142,0.034
		s0.106,0.011,0.165,0.011c0.079,0,0.153-0.005,0.221-0.015s0.132-0.025,0.19-0.045s0.111-0.045,0.159-0.075s0.09-0.065,0.127-0.105
		c0.037-0.04,0.07-0.086,0.098-0.138s0.051-0.111,0.07-0.176s0.033-0.136,0.042-0.214s0.014-0.161,0.014-0.251V4.685V4.319V3.953
		V3.587h0.06h0.06h0.06h0.06V4.25v0.664v0.664v0.664h-0.051h-0.051h-0.051H11.34l-0.011-0.092l-0.011-0.092l-0.011-0.092
		l-0.011-0.092h-0.004h-0.004h-0.004h-0.004c-0.043,0.069-0.095,0.13-0.155,0.181s-0.128,0.095-0.205,0.13s-0.162,0.061-0.255,0.078
		S10.471,6.29,10.361,6.29c-0.151,0-0.283-0.02-0.396-0.061S9.757,6.128,9.681,6.048s-0.132-0.182-0.17-0.303
		S9.455,5.482,9.455,5.321V4.888V4.454V4.02V3.587h0.06h0.06h0.06H9.694z"/>
	<path class="st2" d="M13.569,6.29c-0.102,0-0.197-0.01-0.286-0.029s-0.17-0.048-0.244-0.086s-0.142-0.086-0.203-0.143
		s-0.114-0.124-0.161-0.201h-0.004h-0.004h-0.004h-0.004l0.002,0.051l0.002,0.051l0.002,0.051l0.002,0.051
		c0.002,0.03,0.003,0.061,0.004,0.092s0.002,0.064,0.003,0.097s0.001,0.067,0.002,0.101s0.001,0.07,0.001,0.105v0.253v0.253V7.19
		v0.253h-0.06h-0.06h-0.06h-0.06V6.478V5.514V4.551V3.587h0.051h0.051h0.051h0.051l0.012,0.095l0.012,0.095l0.012,0.095l0.012,0.095
		h0.004h0.004h0.004H12.7c0.046-0.072,0.098-0.134,0.157-0.188s0.125-0.098,0.198-0.134s0.153-0.063,0.239-0.081
		s0.18-0.027,0.28-0.027c0.089,0,0.174,0.007,0.253,0.022s0.152,0.037,0.221,0.066s0.131,0.066,0.189,0.11s0.11,0.096,0.157,0.154
		c0.047,0.059,0.088,0.124,0.124,0.196s0.065,0.151,0.088,0.236s0.041,0.178,0.053,0.277s0.018,0.204,0.018,0.317
		c0,0.109-0.006,0.212-0.019,0.309s-0.031,0.187-0.056,0.272s-0.056,0.163-0.093,0.235s-0.08,0.138-0.13,0.199
		c-0.049,0.06-0.103,0.113-0.162,0.158S14.095,6.17,14.028,6.2s-0.139,0.053-0.216,0.068S13.654,6.29,13.569,6.29z M13.564,6.075
		c0.068,0,0.132-0.006,0.192-0.019s0.117-0.031,0.169-0.057s0.101-0.057,0.146-0.095s0.086-0.082,0.123-0.133
		c0.037-0.051,0.07-0.106,0.097-0.167s0.051-0.126,0.07-0.197s0.033-0.146,0.042-0.227s0.014-0.166,0.014-0.257
		c0-0.195-0.018-0.365-0.053-0.511s-0.088-0.268-0.158-0.365s-0.158-0.17-0.264-0.219s-0.229-0.073-0.369-0.073
		c-0.077,0-0.149,0.005-0.216,0.016s-0.129,0.027-0.186,0.048s-0.108,0.048-0.155,0.08s-0.088,0.069-0.124,0.112
		s-0.068,0.092-0.095,0.148s-0.05,0.119-0.068,0.188s-0.032,0.145-0.041,0.228s-0.014,0.172-0.014,0.268v0.02v0.02v0.02v0.02
		c0,0.104,0.004,0.2,0.013,0.289s0.022,0.17,0.039,0.244s0.039,0.141,0.065,0.2s0.056,0.111,0.091,0.156
		c0.035,0.044,0.075,0.083,0.121,0.116s0.097,0.061,0.154,0.083s0.119,0.039,0.186,0.05S13.485,6.075,13.564,6.075z"/>
	<path class="st2" d="M17.409,6.075c0.038,0,0.075-0.001,0.111-0.002s0.07-0.004,0.104-0.007s0.066-0.007,0.096-0.012
		s0.061-0.011,0.089-0.017v0.049v0.049v0.049v0.049c-0.029,0.01-0.06,0.018-0.091,0.026S17.654,6.27,17.62,6.275
		s-0.069,0.009-0.105,0.011S17.442,6.29,17.404,6.29c-0.059,0-0.113-0.004-0.164-0.012s-0.098-0.02-0.141-0.035
		s-0.083-0.035-0.118-0.059s-0.067-0.051-0.095-0.082c-0.028-0.031-0.052-0.067-0.073-0.108S16.774,5.91,16.76,5.86
		s-0.024-0.103-0.031-0.161s-0.01-0.121-0.01-0.188V5.082V4.654V4.226V3.798H16.62h-0.098h-0.098h-0.098V3.762V3.726V3.691V3.655
		l0.098-0.027L16.522,3.6l0.098-0.027l0.098-0.027l0.031-0.15l0.031-0.15l0.031-0.15l0.031-0.15h0.031h0.031h0.031h0.031v0.16v0.16
		v0.16v0.16h0.195h0.195h0.195h0.195v0.053v0.053v0.053v0.053h-0.195h-0.195H17.16h-0.195v0.42v0.42v0.42v0.42
		c0,0.051,0.002,0.098,0.007,0.142s0.011,0.085,0.02,0.123s0.02,0.072,0.034,0.103s0.029,0.059,0.047,0.083s0.038,0.046,0.061,0.064
		s0.049,0.034,0.077,0.046s0.059,0.021,0.092,0.027S17.371,6.075,17.409,6.075z"/>
	<path class="st2" d="M20.578,4.911c0,0.108-0.007,0.21-0.02,0.307s-0.033,0.187-0.059,0.271s-0.059,0.163-0.098,0.236
		s-0.085,0.139-0.138,0.2s-0.11,0.114-0.172,0.16s-0.13,0.084-0.202,0.114s-0.15,0.053-0.232,0.069s-0.17,0.023-0.262,0.023
		c-0.058,0-0.115-0.004-0.169-0.011s-0.108-0.018-0.159-0.032s-0.101-0.032-0.149-0.053s-0.094-0.045-0.138-0.073
		c-0.044-0.028-0.086-0.06-0.125-0.094s-0.076-0.071-0.11-0.112s-0.065-0.084-0.094-0.13s-0.055-0.096-0.079-0.149
		c-0.024-0.052-0.044-0.107-0.062-0.163s-0.032-0.115-0.044-0.176s-0.021-0.123-0.027-0.188s-0.009-0.131-0.009-0.2
		c0-0.108,0.007-0.211,0.02-0.307s0.033-0.187,0.059-0.271s0.059-0.163,0.098-0.235s0.085-0.139,0.138-0.199
		c0.052-0.06,0.11-0.113,0.172-0.158s0.129-0.083,0.201-0.113s0.149-0.053,0.231-0.068s0.168-0.023,0.26-0.023
		c0.091,0,0.177,0.008,0.259,0.023s0.158,0.038,0.229,0.069s0.138,0.069,0.2,0.115s0.119,0.1,0.171,0.161
		c0.052,0.061,0.097,0.128,0.136,0.201s0.071,0.151,0.097,0.235s0.045,0.174,0.058,0.269S20.578,4.804,20.578,4.911z M18.483,4.911
		c0,0.091,0.005,0.177,0.015,0.258s0.025,0.157,0.045,0.228s0.045,0.137,0.075,0.198s0.065,0.117,0.105,0.168
		c0.04,0.051,0.084,0.096,0.133,0.134s0.101,0.07,0.157,0.096s0.117,0.045,0.182,0.058s0.134,0.019,0.207,0.019
		s0.142-0.006,0.207-0.019s0.126-0.032,0.182-0.058s0.109-0.058,0.157-0.096s0.093-0.083,0.133-0.134
		c0.04-0.051,0.075-0.107,0.105-0.168s0.055-0.127,0.075-0.198s0.035-0.147,0.045-0.228s0.015-0.167,0.015-0.258
		c0-0.092-0.005-0.178-0.015-0.26s-0.025-0.157-0.046-0.228s-0.046-0.137-0.076-0.198s-0.066-0.116-0.106-0.167
		c-0.041-0.051-0.085-0.095-0.134-0.133s-0.102-0.069-0.158-0.095s-0.118-0.044-0.183-0.057s-0.134-0.019-0.207-0.019
		s-0.142,0.006-0.207,0.019s-0.125,0.031-0.182,0.057s-0.109,0.057-0.157,0.094s-0.092,0.082-0.132,0.132
		c-0.04,0.05-0.074,0.106-0.104,0.166s-0.054,0.127-0.074,0.198s-0.035,0.147-0.045,0.229S18.483,4.819,18.483,4.911z"/>
	<path class="st2" d="M8.606,9.961c0.086,0,0.168,0.006,0.246,0.018s0.151,0.03,0.219,0.054s0.133,0.054,0.193,0.091
		s0.115,0.079,0.167,0.127c0.051,0.049,0.096,0.102,0.134,0.159s0.07,0.119,0.096,0.186s0.045,0.137,0.057,0.213
		s0.019,0.155,0.019,0.24c0,0.1-0.008,0.193-0.023,0.282S9.675,11.5,9.644,11.576s-0.069,0.148-0.115,0.213s-0.1,0.125-0.161,0.178
		s-0.129,0.101-0.204,0.141s-0.156,0.074-0.244,0.101s-0.182,0.047-0.284,0.06s-0.209,0.02-0.323,0.02
		c-0.099,0-0.194-0.004-0.283-0.012c-0.09-0.008-0.175-0.02-0.255-0.036s-0.156-0.036-0.226-0.06s-0.136-0.052-0.197-0.085v-0.163
		v-0.163v-0.163v-0.163c0.032,0.017,0.066,0.033,0.1,0.049s0.071,0.03,0.108,0.044s0.076,0.027,0.116,0.039s0.082,0.024,0.124,0.035
		s0.085,0.02,0.127,0.028s0.083,0.015,0.123,0.02s0.08,0.009,0.12,0.012s0.078,0.004,0.116,0.004c0.115,0,0.216-0.012,0.302-0.035
		s0.158-0.059,0.216-0.106s0.101-0.106,0.13-0.177s0.043-0.153,0.043-0.248c0-0.09-0.015-0.168-0.045-0.236
		s-0.074-0.124-0.134-0.168s-0.134-0.079-0.224-0.101s-0.194-0.034-0.313-0.034c-0.022,0-0.044,0.001-0.066,0.002
		s-0.046,0.003-0.07,0.005s-0.048,0.005-0.073,0.008s-0.05,0.007-0.076,0.011c-0.026,0.004-0.051,0.009-0.074,0.013
		s-0.046,0.009-0.067,0.013s-0.041,0.009-0.06,0.014s-0.036,0.009-0.052,0.014l-0.075-0.04l-0.075-0.04l-0.075-0.04l-0.075-0.04
		l0.034-0.455l0.034-0.455l0.034-0.455l0.034-0.455H8.04h0.484h0.484h0.484v0.16v0.16v0.16v0.16H9.174H8.855H8.536H8.218
		L8.201,9.487L8.185,9.662L8.168,9.837l-0.016,0.175l0.021-0.004l0.021-0.004l0.021-0.004l0.021-0.004
		C8.262,9.989,8.288,9.984,8.316,9.98s0.057-0.008,0.088-0.011S8.467,9.964,8.5,9.963S8.569,9.961,8.606,9.961z"/>
	<path class="st2" d="M12.637,10.456c0,0.156-0.006,0.302-0.019,0.437s-0.032,0.261-0.057,0.376s-0.057,0.221-0.096,0.316
		s-0.083,0.18-0.134,0.255c-0.051,0.075-0.109,0.141-0.174,0.197s-0.137,0.103-0.215,0.14s-0.164,0.065-0.257,0.084
		s-0.192,0.028-0.298,0.028c-0.103,0-0.199-0.01-0.29-0.029s-0.174-0.048-0.252-0.087s-0.149-0.087-0.214-0.145
		s-0.124-0.126-0.176-0.203c-0.052-0.077-0.098-0.164-0.137-0.26s-0.072-0.201-0.098-0.315s-0.046-0.237-0.059-0.37
		s-0.02-0.274-0.02-0.426c0-0.157,0.006-0.304,0.019-0.441s0.032-0.263,0.057-0.379s0.057-0.222,0.095-0.317
		s0.083-0.181,0.134-0.255s0.109-0.14,0.173-0.196s0.136-0.103,0.214-0.14s0.163-0.065,0.256-0.084s0.191-0.028,0.297-0.028
		c0.103,0,0.2,0.01,0.29,0.029s0.174,0.049,0.252,0.088s0.149,0.088,0.215,0.146s0.124,0.127,0.177,0.205
		c0.053,0.078,0.099,0.165,0.138,0.261s0.073,0.201,0.099,0.316s0.046,0.238,0.059,0.37S12.637,10.305,12.637,10.456z
		 M10.891,10.456c0,0.11,0.002,0.211,0.007,0.305s0.012,0.18,0.021,0.259s0.021,0.149,0.036,0.212s0.031,0.118,0.05,0.165
		c0.019,0.047,0.041,0.089,0.066,0.124s0.054,0.065,0.086,0.089s0.067,0.042,0.105,0.054s0.08,0.018,0.125,0.018
		c0.044,0,0.085-0.006,0.123-0.018s0.073-0.03,0.104-0.054s0.06-0.054,0.086-0.09s0.048-0.078,0.068-0.126
		c0.02-0.048,0.037-0.103,0.051-0.166s0.027-0.134,0.037-0.212s0.017-0.164,0.022-0.257s0.007-0.194,0.007-0.302
		c0-0.109-0.002-0.211-0.007-0.305s-0.012-0.18-0.022-0.259s-0.022-0.15-0.037-0.213s-0.032-0.119-0.052-0.167
		c-0.02-0.048-0.043-0.09-0.068-0.126s-0.054-0.066-0.086-0.09s-0.066-0.042-0.104-0.054s-0.078-0.018-0.122-0.018
		c-0.044,0-0.085,0.006-0.124,0.018s-0.073,0.03-0.105,0.054s-0.06,0.054-0.086,0.09s-0.048,0.078-0.067,0.126
		s-0.036,0.103-0.05,0.167s-0.026,0.134-0.036,0.213s-0.017,0.165-0.021,0.259S10.891,10.346,10.891,10.456z"/>
	<path class="st2" d="M13.101,11.891c0-0.034,0.002-0.066,0.007-0.096s0.011-0.058,0.021-0.084s0.021-0.049,0.034-0.071
		s0.03-0.041,0.048-0.059s0.039-0.033,0.061-0.046s0.047-0.024,0.074-0.033s0.055-0.015,0.086-0.019s0.064-0.006,0.099-0.006
		c0.034,0,0.066,0.002,0.096,0.007s0.058,0.011,0.084,0.02s0.05,0.02,0.073,0.034s0.043,0.029,0.061,0.047
		c0.018,0.018,0.035,0.038,0.048,0.059s0.025,0.045,0.035,0.071s0.016,0.053,0.021,0.082s0.007,0.061,0.007,0.094
		c0,0.032-0.002,0.063-0.007,0.092s-0.012,0.056-0.021,0.081s-0.021,0.049-0.035,0.071s-0.03,0.042-0.049,0.061
		s-0.039,0.035-0.062,0.049s-0.047,0.026-0.073,0.035s-0.054,0.016-0.084,0.021s-0.061,0.007-0.095,0.007
		c-0.034,0-0.066-0.002-0.097-0.007s-0.059-0.012-0.085-0.021s-0.051-0.021-0.074-0.034s-0.043-0.03-0.062-0.048
		s-0.035-0.038-0.049-0.06s-0.026-0.045-0.035-0.071s-0.016-0.053-0.021-0.082S13.101,11.925,13.101,11.891z"/>
	<path class="st2" d="M16.916,10.456c0,0.156-0.006,0.302-0.019,0.437s-0.032,0.261-0.057,0.376s-0.057,0.221-0.096,0.316
		s-0.083,0.18-0.134,0.255c-0.051,0.075-0.109,0.141-0.174,0.197s-0.137,0.103-0.215,0.14s-0.164,0.065-0.257,0.084
		s-0.192,0.028-0.298,0.028c-0.103,0-0.199-0.01-0.29-0.029s-0.174-0.048-0.252-0.087s-0.149-0.087-0.214-0.145
		s-0.124-0.126-0.176-0.203c-0.052-0.077-0.098-0.164-0.137-0.26s-0.072-0.201-0.098-0.315s-0.046-0.237-0.059-0.37
		s-0.02-0.274-0.02-0.426c0-0.157,0.006-0.304,0.019-0.441s0.032-0.263,0.057-0.379s0.057-0.222,0.095-0.317
		s0.083-0.181,0.134-0.255s0.109-0.14,0.173-0.196s0.136-0.103,0.214-0.14s0.163-0.065,0.256-0.084s0.191-0.028,0.297-0.028
		c0.103,0,0.2,0.01,0.29,0.029s0.174,0.049,0.252,0.088s0.149,0.088,0.215,0.146s0.124,0.127,0.177,0.205
		c0.053,0.078,0.099,0.165,0.138,0.261s0.073,0.201,0.099,0.316s0.046,0.238,0.059,0.37S16.916,10.305,16.916,10.456z
		 M15.171,10.456c0,0.11,0.002,0.211,0.007,0.305s0.012,0.18,0.021,0.259s0.021,0.149,0.036,0.212s0.031,0.118,0.05,0.165
		c0.019,0.047,0.041,0.089,0.066,0.124s0.054,0.065,0.086,0.089s0.067,0.042,0.105,0.054s0.08,0.018,0.125,0.018
		c0.044,0,0.085-0.006,0.123-0.018s0.073-0.03,0.104-0.054s0.06-0.054,0.086-0.09s0.048-0.078,0.068-0.126
		c0.02-0.048,0.037-0.103,0.051-0.166s0.027-0.134,0.037-0.212s0.017-0.164,0.022-0.257s0.007-0.194,0.007-0.302
		c0-0.109-0.002-0.211-0.007-0.305s-0.012-0.18-0.022-0.259s-0.022-0.15-0.037-0.213s-0.032-0.119-0.052-0.167
		c-0.02-0.048-0.043-0.09-0.068-0.126s-0.054-0.066-0.086-0.09s-0.066-0.042-0.104-0.054s-0.078-0.018-0.122-0.018
		c-0.044,0-0.085,0.006-0.124,0.018s-0.073,0.03-0.105,0.054s-0.06,0.054-0.086,0.09s-0.048,0.078-0.067,0.126
		s-0.036,0.103-0.05,0.167S15.209,9.813,15.2,9.892s-0.017,0.165-0.021,0.259S15.171,10.346,15.171,10.456z"/>
	<path class="st2" d="M19.771,10.456c0,0.156-0.006,0.302-0.019,0.437s-0.032,0.261-0.057,0.376s-0.057,0.221-0.096,0.316
		s-0.083,0.18-0.134,0.255c-0.051,0.075-0.109,0.141-0.174,0.197s-0.137,0.103-0.215,0.14s-0.164,0.065-0.257,0.084
		s-0.192,0.028-0.298,0.028c-0.103,0-0.199-0.01-0.29-0.029s-0.174-0.048-0.252-0.087s-0.149-0.087-0.214-0.145
		s-0.124-0.126-0.176-0.203c-0.052-0.077-0.098-0.164-0.137-0.26s-0.072-0.201-0.098-0.315s-0.046-0.237-0.059-0.37
		s-0.02-0.274-0.02-0.426c0-0.157,0.006-0.304,0.019-0.441s0.032-0.263,0.057-0.379s0.057-0.222,0.095-0.317
		s0.083-0.181,0.134-0.255s0.109-0.14,0.173-0.196s0.136-0.103,0.214-0.14s0.163-0.065,0.256-0.084s0.191-0.028,0.297-0.028
		c0.103,0,0.2,0.01,0.29,0.029s0.174,0.049,0.252,0.088s0.149,0.088,0.215,0.146s0.124,0.127,0.177,0.205
		c0.053,0.078,0.099,0.165,0.138,0.261s0.073,0.201,0.099,0.316s0.046,0.238,0.059,0.37S19.771,10.305,19.771,10.456z
		 M18.025,10.456c0,0.11,0.002,0.211,0.007,0.305s0.012,0.18,0.021,0.259s0.021,0.149,0.036,0.212s0.031,0.118,0.05,0.165
		c0.019,0.047,0.041,0.089,0.066,0.124s0.054,0.065,0.086,0.089s0.067,0.042,0.105,0.054s0.08,0.018,0.125,0.018
		c0.044,0,0.085-0.006,0.123-0.018s0.073-0.03,0.104-0.054s0.06-0.054,0.086-0.09s0.048-0.078,0.068-0.126
		c0.02-0.048,0.037-0.103,0.051-0.166s0.027-0.134,0.037-0.212s0.017-0.164,0.022-0.257s0.007-0.194,0.007-0.302
		c0-0.109-0.002-0.211-0.007-0.305s-0.012-0.18-0.022-0.259s-0.022-0.15-0.037-0.213S18.92,9.56,18.9,9.513
		c-0.02-0.048-0.043-0.09-0.068-0.126s-0.054-0.066-0.086-0.09s-0.066-0.042-0.104-0.054s-0.078-0.018-0.122-0.018
		c-0.044,0-0.085,0.006-0.124,0.018s-0.073,0.03-0.105,0.054s-0.06,0.054-0.086,0.09s-0.048,0.078-0.067,0.126
		s-0.036,0.103-0.05,0.167s-0.026,0.134-0.036,0.213s-0.017,0.165-0.021,0.259S18.025,10.346,18.025,10.456z"/>
	<path class="st2" d="M22.625,10.456c0,0.156-0.006,0.302-0.019,0.437s-0.032,0.261-0.057,0.376s-0.057,0.221-0.096,0.316
		s-0.083,0.18-0.134,0.255c-0.051,0.075-0.109,0.141-0.174,0.197s-0.137,0.103-0.215,0.14s-0.164,0.065-0.257,0.084
		s-0.192,0.028-0.298,0.028c-0.103,0-0.199-0.01-0.29-0.029s-0.174-0.048-0.252-0.087s-0.149-0.087-0.214-0.145
		s-0.124-0.126-0.176-0.203c-0.052-0.077-0.098-0.164-0.137-0.26s-0.072-0.201-0.098-0.315s-0.046-0.237-0.059-0.37
		s-0.02-0.274-0.02-0.426c0-0.157,0.006-0.304,0.019-0.441s0.032-0.263,0.057-0.379s0.057-0.222,0.095-0.317
		s0.083-0.181,0.134-0.255s0.109-0.14,0.173-0.196s0.136-0.103,0.214-0.14s0.163-0.065,0.256-0.084s0.191-0.028,0.297-0.028
		c0.103,0,0.2,0.01,0.29,0.029s0.174,0.049,0.252,0.088s0.149,0.088,0.215,0.146s0.124,0.127,0.177,0.205
		c0.053,0.078,0.099,0.165,0.138,0.261s0.073,0.201,0.099,0.316s0.046,0.238,0.059,0.37S22.625,10.305,22.625,10.456z
		 M20.879,10.456c0,0.11,0.002,0.211,0.007,0.305s0.012,0.18,0.021,0.259s0.021,0.149,0.036,0.212s0.031,0.118,0.05,0.165
		c0.019,0.047,0.041,0.089,0.066,0.124s0.054,0.065,0.086,0.089s0.067,0.042,0.105,0.054s0.08,0.018,0.125,0.018
		c0.044,0,0.085-0.006,0.123-0.018s0.073-0.03,0.104-0.054s0.06-0.054,0.086-0.09s0.048-0.078,0.068-0.126
		c0.02-0.048,0.037-0.103,0.051-0.166s0.027-0.134,0.037-0.212s0.017-0.164,0.022-0.257s0.007-0.194,0.007-0.302
		c0-0.109-0.002-0.211-0.007-0.305s-0.012-0.18-0.022-0.259s-0.022-0.15-0.037-0.213s-0.032-0.119-0.052-0.167
		c-0.02-0.048-0.043-0.09-0.068-0.126s-0.054-0.066-0.086-0.09s-0.066-0.042-0.104-0.054s-0.078-0.018-0.122-0.018
		c-0.044,0-0.085,0.006-0.124,0.018s-0.073,0.03-0.105,0.054s-0.06,0.054-0.086,0.09s-0.048,0.078-0.067,0.126
		s-0.036,0.103-0.05,0.167s-0.026,0.134-0.036,0.213s-0.017,0.165-0.021,0.259S20.879,10.346,20.879,10.456z"/>
	<path class="st2" d="M10.698,18.241v-0.43v-0.43v-0.43v-0.43c0-0.067-0.004-0.129-0.011-0.187s-0.018-0.111-0.032-0.159
		s-0.032-0.093-0.053-0.132s-0.046-0.074-0.074-0.105s-0.06-0.057-0.096-0.079s-0.076-0.042-0.119-0.057s-0.091-0.026-0.142-0.034
		s-0.106-0.011-0.165-0.011c-0.079,0-0.153,0.005-0.222,0.015s-0.132,0.025-0.19,0.045s-0.111,0.045-0.158,0.075
		s-0.09,0.065-0.126,0.105c-0.037,0.04-0.069,0.086-0.097,0.139s-0.051,0.111-0.069,0.176s-0.032,0.136-0.041,0.214
		s-0.014,0.161-0.014,0.251v0.366v0.366v0.366v0.366h-0.06h-0.06h-0.06h-0.06v-0.95v-0.95v-0.95v-0.95h0.06h0.06h0.06h0.06v0.302
		v0.302v0.302v0.302l-0.003,0.085l-0.003,0.085L9.08,15.905L9.077,15.99h0.004h0.004H9.09h0.004c0.025-0.04,0.051-0.077,0.079-0.111
		s0.058-0.066,0.089-0.095s0.064-0.055,0.099-0.079s0.071-0.044,0.109-0.062s0.078-0.033,0.12-0.047s0.087-0.025,0.134-0.034
		s0.096-0.016,0.148-0.02s0.105-0.007,0.162-0.007c0.151,0,0.282,0.02,0.395,0.061s0.207,0.101,0.282,0.182s0.132,0.182,0.169,0.303
		s0.056,0.262,0.056,0.424v0.434v0.434v0.434v0.434h-0.06h-0.06h-0.06H10.698z"/>
	<path class="st2" d="M13.992,16.911c0,0.108-0.007,0.21-0.02,0.307s-0.033,0.187-0.059,0.271s-0.059,0.163-0.098,0.236
		s-0.085,0.139-0.138,0.2s-0.11,0.114-0.172,0.16s-0.13,0.084-0.202,0.114s-0.15,0.053-0.232,0.069s-0.17,0.023-0.262,0.023
		c-0.058,0-0.115-0.004-0.169-0.011s-0.108-0.018-0.159-0.032s-0.101-0.032-0.149-0.053s-0.094-0.045-0.138-0.073
		c-0.044-0.028-0.086-0.06-0.125-0.094s-0.076-0.071-0.11-0.112s-0.065-0.084-0.094-0.13s-0.055-0.096-0.079-0.149
		c-0.024-0.052-0.044-0.107-0.062-0.163s-0.032-0.115-0.044-0.176s-0.021-0.123-0.027-0.188s-0.009-0.131-0.009-0.2
		c0-0.108,0.007-0.211,0.02-0.307s0.033-0.187,0.059-0.271s0.059-0.163,0.098-0.235s0.085-0.139,0.138-0.199
		c0.052-0.06,0.11-0.113,0.172-0.158s0.129-0.083,0.201-0.113s0.149-0.053,0.231-0.068s0.168-0.023,0.26-0.023
		c0.091,0,0.177,0.008,0.259,0.023s0.158,0.038,0.229,0.069s0.138,0.069,0.2,0.115s0.119,0.1,0.171,0.161
		c0.052,0.061,0.097,0.128,0.136,0.201s0.071,0.151,0.097,0.235s0.045,0.174,0.058,0.269S13.992,16.804,13.992,16.911z
		 M11.897,16.911c0,0.091,0.005,0.177,0.015,0.258s0.025,0.157,0.045,0.228s0.045,0.137,0.075,0.198s0.065,0.117,0.105,0.168
		c0.04,0.051,0.084,0.096,0.133,0.134s0.101,0.07,0.157,0.096s0.117,0.045,0.182,0.058s0.134,0.019,0.207,0.019
		s0.142-0.006,0.207-0.019s0.126-0.032,0.182-0.058s0.109-0.058,0.157-0.096s0.093-0.083,0.133-0.134
		c0.04-0.051,0.075-0.107,0.105-0.168s0.055-0.127,0.075-0.198s0.035-0.147,0.045-0.228s0.015-0.167,0.015-0.258
		c0-0.092-0.005-0.178-0.015-0.26s-0.025-0.157-0.046-0.228s-0.046-0.137-0.076-0.198s-0.066-0.116-0.106-0.167
		c-0.041-0.051-0.085-0.095-0.134-0.133s-0.102-0.069-0.158-0.095s-0.118-0.044-0.183-0.057s-0.134-0.019-0.207-0.019
		s-0.142,0.006-0.207,0.019s-0.125,0.031-0.182,0.057s-0.109,0.057-0.157,0.094s-0.092,0.082-0.132,0.132
		c-0.04,0.05-0.074,0.106-0.104,0.166s-0.054,0.127-0.074,0.198s-0.035,0.147-0.045,0.229S11.897,16.819,11.897,16.911z"/>
	<path class="st2" d="M14.937,15.587v0.43v0.43v0.43v0.43c0,0.067,0.004,0.129,0.011,0.187s0.018,0.111,0.032,0.159
		s0.032,0.093,0.053,0.132s0.046,0.074,0.074,0.105s0.06,0.057,0.096,0.079s0.076,0.042,0.119,0.057s0.091,0.026,0.142,0.034
		s0.106,0.011,0.165,0.011c0.079,0,0.153-0.005,0.221-0.015s0.132-0.025,0.19-0.045s0.111-0.045,0.159-0.075s0.09-0.065,0.127-0.105
		c0.037-0.04,0.07-0.086,0.098-0.138s0.051-0.111,0.07-0.176s0.033-0.136,0.042-0.214s0.014-0.161,0.014-0.251v-0.366v-0.366v-0.366
		v-0.366h0.06h0.06h0.06h0.06v0.664v0.664v0.664v0.664h-0.051h-0.051h-0.051h-0.051l-0.011-0.092l-0.011-0.092l-0.011-0.092
		l-0.011-0.092h-0.004h-0.004h-0.004h-0.004c-0.043,0.069-0.095,0.13-0.155,0.181s-0.128,0.095-0.205,0.13s-0.162,0.061-0.255,0.078
		s-0.195,0.026-0.306,0.026c-0.151,0-0.283-0.02-0.396-0.061s-0.208-0.101-0.283-0.182s-0.132-0.182-0.17-0.303
		s-0.057-0.262-0.057-0.424v-0.434v-0.434V16.02v-0.434h0.06h0.06h0.06H14.937z"/>
	<path class="st2" d="M18.721,15.536c0.028,0,0.057,0.001,0.086,0.002s0.059,0.004,0.089,0.006s0.061,0.006,0.092,0.011
		s0.063,0.009,0.095,0.015l-0.012,0.058l-0.012,0.058l-0.012,0.058l-0.012,0.058c-0.028-0.007-0.056-0.013-0.084-0.018
		s-0.057-0.009-0.085-0.013s-0.058-0.006-0.087-0.008s-0.059-0.003-0.088-0.003c-0.057,0-0.111,0.006-0.162,0.018
		s-0.1,0.03-0.147,0.054s-0.09,0.054-0.132,0.09s-0.08,0.078-0.116,0.126s-0.068,0.099-0.095,0.154s-0.05,0.112-0.068,0.172
		s-0.032,0.124-0.041,0.191s-0.014,0.137-0.014,0.21v0.366v0.366v0.366v0.366h-0.06h-0.06h-0.06h-0.06v-0.664v-0.664V16.25v-0.664
		h0.051h0.051h0.051h0.051l0.006,0.12l0.006,0.12l0.006,0.12l0.006,0.12h0.004h0.004h0.004h0.004
		c0.027-0.049,0.055-0.094,0.083-0.136s0.057-0.079,0.086-0.114s0.059-0.065,0.089-0.092s0.06-0.05,0.091-0.07
		s0.063-0.037,0.098-0.052s0.07-0.027,0.107-0.037s0.077-0.017,0.117-0.022S18.677,15.536,18.721,15.536z"/>
	<path class="st2" d="M21.267,17.55c0,0.06-0.006,0.116-0.017,0.168s-0.028,0.102-0.051,0.148s-0.051,0.088-0.085,0.127
		s-0.073,0.074-0.119,0.106s-0.095,0.06-0.15,0.084s-0.114,0.044-0.178,0.06s-0.133,0.028-0.206,0.036s-0.152,0.012-0.235,0.012
		c-0.089,0-0.173-0.003-0.252-0.01s-0.154-0.017-0.225-0.031s-0.136-0.031-0.197-0.051s-0.118-0.044-0.17-0.072v-0.065v-0.065V17.93
		v-0.065c0.067,0.033,0.134,0.063,0.203,0.088s0.138,0.046,0.208,0.063s0.142,0.029,0.214,0.037s0.145,0.012,0.219,0.012
		c0.066,0,0.127-0.003,0.185-0.008s0.111-0.014,0.161-0.025s0.095-0.025,0.137-0.041s0.08-0.035,0.114-0.057
		c0.034-0.022,0.064-0.045,0.089-0.071s0.047-0.053,0.064-0.082s0.03-0.06,0.038-0.092s0.013-0.067,0.013-0.103
		c0-0.033-0.003-0.066-0.01-0.096s-0.017-0.06-0.03-0.088s-0.03-0.055-0.051-0.08s-0.044-0.049-0.071-0.072
		c-0.027-0.023-0.059-0.045-0.094-0.068s-0.076-0.045-0.12-0.067s-0.093-0.045-0.146-0.067s-0.111-0.044-0.173-0.066
		c-0.066-0.024-0.128-0.047-0.184-0.069s-0.108-0.044-0.155-0.065s-0.088-0.041-0.125-0.06s-0.069-0.037-0.095-0.055
		s-0.052-0.035-0.076-0.054s-0.045-0.037-0.066-0.057s-0.039-0.04-0.056-0.06s-0.032-0.042-0.046-0.064
		c-0.014-0.022-0.025-0.045-0.036-0.069s-0.019-0.05-0.025-0.076s-0.012-0.054-0.015-0.083s-0.005-0.059-0.005-0.09
		c0-0.05,0.005-0.097,0.016-0.141s0.026-0.086,0.047-0.126s0.047-0.076,0.078-0.11s0.068-0.065,0.11-0.094
		c0.042-0.029,0.087-0.054,0.137-0.076s0.104-0.04,0.162-0.054s0.121-0.025,0.187-0.033s0.137-0.011,0.212-0.011
		c0.072,0,0.142,0.003,0.212,0.01s0.139,0.017,0.207,0.03s0.135,0.03,0.201,0.05s0.131,0.044,0.196,0.07l-0.023,0.055l-0.023,0.055
		l-0.023,0.055l-0.023,0.055c-0.065-0.027-0.129-0.05-0.192-0.07s-0.124-0.037-0.185-0.05s-0.12-0.023-0.178-0.03
		s-0.115-0.01-0.171-0.01c-0.054,0-0.105,0.002-0.154,0.007s-0.094,0.011-0.137,0.02s-0.083,0.02-0.12,0.034
		s-0.072,0.029-0.104,0.047s-0.06,0.037-0.083,0.059s-0.044,0.044-0.06,0.069s-0.028,0.051-0.036,0.08s-0.012,0.058-0.012,0.09
		c0,0.035,0.003,0.068,0.009,0.099s0.015,0.061,0.028,0.088s0.028,0.054,0.046,0.078s0.04,0.047,0.065,0.067
		c0.025,0.021,0.055,0.042,0.091,0.064s0.079,0.045,0.127,0.068s0.102,0.047,0.162,0.071s0.126,0.049,0.197,0.075
		c0.06,0.021,0.116,0.042,0.167,0.063s0.099,0.04,0.143,0.06s0.083,0.038,0.118,0.057s0.067,0.036,0.094,0.054
		s0.053,0.035,0.077,0.054s0.046,0.037,0.066,0.057s0.039,0.04,0.056,0.061s0.032,0.042,0.046,0.064
		c0.014,0.022,0.026,0.045,0.036,0.069s0.019,0.049,0.026,0.075s0.012,0.053,0.015,0.08S21.267,17.52,21.267,17.55z"/>
</g>
</svg>
