<?xml version="1.0" encoding="utf-8"?>
<!-- Generator: Adobe Illustrator 19.1.0, SVG Export Plug-In . SVG Version: 6.00 Build 0)  -->
<svg version="1.1" id="Layer_1" xmlns="http://www.w3.org/2000/svg" xmlns:xlink="http://www.w3.org/1999/xlink" x="0px" y="0px"
	 viewBox="0 0 99.213 99.213" style="enable-background:new 0 0 99.213 99.213;" xml:space="preserve">
<style type="text/css">
	.st0{fill:#115C78;}
	.st1{fill-rule:evenodd;clip-rule:evenodd;fill:#4D4D4D;}
	.st2{fill:#4D4D4D;}
	.st3{fill-rule:evenodd;clip-rule:evenodd;}
	.st4{fill:#FFFFFF;}
	.st5{fill:none;}
	.st6{fill:none;stroke:#4D4D4D;stroke-width:0.3;stroke-miterlimit:10;}
	.st7{fill:#4D4D4D;stroke:#4D4D4D;stroke-width:0.1;stroke-miterlimit:10;}
	.st8{fill:#F0047F;}
	.st9{fill:none;stroke:#4D4D4D;stroke-width:0;stroke-linecap:round;stroke-linejoin:round;}
	.st10{fill:none;stroke:#4D4D4D;stroke-width:0.25;stroke-miterlimit:10;}
	.st11{fill:none;stroke:#4D4D4D;stroke-width:0.2;stroke-miterlimit:10;}
	.st12{fill:none;stroke:#4D4D4D;stroke-width:0.8;stroke-miterlimit:10;}
	.st13{fill:#4D4D4D;stroke:#4D4D4D;stroke-width:0.3;stroke-miterlimit:10;}
	.st14{fill:none;stroke:#4D4D4D;stroke-width:0.24;stroke-miterlimit:10;}
</style>
<g>
	<path class="st0" d="M49.611,4.568c-3.757,0-7.405,0.465-10.89,1.341c-3.485,0.876-6.807,2.162-9.912,3.805
		s-5.993,3.642-8.609,5.943s-4.961,4.904-6.98,7.756c-1.285,1.816-2.438,3.733-3.444,5.736s-1.866,4.092-2.566,6.254
		c-0.699,2.161-1.238,4.394-1.602,6.685c-0.364,2.291-0.553,4.639-0.553,7.03c0,0.816,0.022,1.627,0.065,2.431
		c0.043,0.804,0.108,1.603,0.193,2.395c0.085,0.792,0.192,1.578,0.319,2.357c0.127,0.779,0.275,1.552,0.443,2.317
		c1.088,5.012,3.019,9.71,5.636,13.937s5.923,7.984,9.759,11.114c3.836,3.13,8.203,5.634,12.946,7.355
		c4.742,1.721,9.859,2.66,15.196,2.66c1.554,0,3.09-0.08,4.603-0.236c1.514-0.156,3.005-0.388,4.47-0.691s2.904-0.679,4.313-1.122
		c1.409-0.443,2.788-0.954,4.133-1.529c3.267-1.402,6.333-3.184,9.143-5.29c2.81-2.106,5.364-4.535,7.606-7.233
		c2.242-2.698,4.171-5.664,5.733-8.844c1.562-3.179,2.756-6.572,3.526-10.122c0.168-0.766,0.316-1.539,0.443-2.319
		c0.127-0.78,0.234-1.566,0.319-2.359s0.15-1.591,0.193-2.395c0.043-0.804,0.065-1.613,0.065-2.427c0-6.15-1.247-12.01-3.502-17.34
		s-5.518-10.129-9.549-14.16s-8.831-7.293-14.16-9.548S55.759,4.568,49.611,4.568z M56.16,15.263
		c1.448-0.467,3.447-0.65,5.637-0.414c2.19,0.236,4.573,0.891,6.788,2.102s4.265,2.976,5.79,5.433
		c1.525,2.457,2.525,5.605,2.642,9.58c0.002,0.051,0.004,0.101,0.005,0.152c0.001,0.051,0.002,0.102,0.003,0.153
		s0.001,0.103,0.001,0.155c0,0.052,0,0.104,0,0.157c-0.051-0.032-0.101-0.065-0.152-0.098c-0.051-0.033-0.102-0.066-0.153-0.1
		s-0.102-0.067-0.154-0.1c-0.052-0.033-0.104-0.066-0.157-0.098c-0.384-0.239-0.777-0.465-1.178-0.678
		c-0.401-0.213-0.81-0.413-1.227-0.599c-0.416-0.187-0.839-0.361-1.268-0.522c-0.429-0.161-0.864-0.309-1.303-0.445
		c-0.188-1.694-0.641-3.101-1.281-4.258s-1.467-2.064-2.404-2.761c-0.937-0.697-1.984-1.182-3.063-1.496
		c-1.079-0.313-2.191-0.454-3.258-0.461c0.005,0.041,0.01,0.084,0.015,0.127c0.005,0.043,0.009,0.087,0.014,0.132
		c0.005,0.044,0.009,0.089,0.014,0.133s0.009,0.089,0.013,0.132c0.012,0.17,0.02,0.338,0.024,0.503
		c0.004,0.165,0.005,0.328,0.002,0.489c-0.003,0.16-0.011,0.318-0.023,0.473c-0.012,0.155-0.028,0.307-0.049,0.457
		c-0.087,0.713-0.257,1.364-0.497,1.944s-0.55,1.086-0.917,1.509s-0.792,0.762-1.26,1.006s-0.982,0.392-1.527,0.434
		c-0.589,0.046-1.163-0.037-1.704-0.238c-0.54-0.2-1.047-0.518-1.499-0.941c-0.452-0.423-0.851-0.952-1.176-1.575
		c-0.325-0.623-0.577-1.34-0.735-2.14c-0.021-0.094-0.04-0.189-0.057-0.285c-0.017-0.096-0.033-0.192-0.047-0.289
		c-0.014-0.097-0.026-0.195-0.036-0.294c-0.01-0.099-0.019-0.199-0.025-0.3c-0.076-0.975-0.008-1.848,0.175-2.621
		c0.184-0.774,0.483-1.449,0.87-2.027c0.387-0.578,0.863-1.06,1.398-1.448C54.936,15.759,55.532,15.465,56.16,15.263z
		 M49.676,35.128c0.372,0.262,0.74,0.535,1.103,0.819c0.363,0.284,0.721,0.579,1.074,0.886c0.353,0.306,0.701,0.624,1.043,0.953
		c0.342,0.329,0.679,0.669,1.01,1.021c0.386,0.412,0.765,0.839,1.136,1.283s0.733,0.904,1.087,1.38
		c0.354,0.476,0.698,0.969,1.033,1.479c0.335,0.509,0.66,1.035,0.975,1.578c0.297,0.513,0.553,0.948,0.78,1.346
		s0.425,0.756,0.606,1.116s0.345,0.719,0.504,1.117c0.159,0.398,0.313,0.836,0.474,1.351c-0.382,0.202-0.773,0.394-1.173,0.574
		c-0.4,0.18-0.809,0.348-1.228,0.504c-0.418,0.156-0.846,0.3-1.283,0.432c-0.437,0.132-0.882,0.25-1.337,0.356
		c-0.129-0.444-0.25-0.811-0.376-1.142s-0.256-0.623-0.403-0.916c-0.147-0.293-0.31-0.587-0.501-0.919
		c-0.191-0.333-0.411-0.704-0.671-1.152c-0.283-0.492-0.577-0.966-0.88-1.423s-0.617-0.896-0.94-1.319
		c-0.322-0.422-0.654-0.828-0.993-1.217c-0.339-0.389-0.686-0.761-1.04-1.118c-0.331-0.331-0.668-0.649-1.01-0.952
		c-0.342-0.304-0.69-0.593-1.042-0.869c-0.352-0.276-0.71-0.538-1.071-0.786c-0.362-0.248-0.728-0.483-1.098-0.703
		c-1.365-0.819-2.776-1.457-4.186-1.933c-1.41-0.475-2.819-0.788-4.18-0.953c-1.361-0.166-2.675-0.184-3.894-0.073
		s-2.344,0.352-3.329,0.706c-0.05-0.255-0.094-0.511-0.132-0.766c-0.038-0.255-0.069-0.51-0.094-0.765
		c-0.025-0.255-0.044-0.509-0.057-0.763c-0.013-0.254-0.019-0.507-0.019-0.76c0-0.237,0.003-0.47,0.01-0.699
		c0.007-0.229,0.017-0.455,0.03-0.676c0.013-0.222,0.029-0.44,0.049-0.655c0.019-0.215,0.042-0.427,0.068-0.636
		c1.365-0.402,2.885-0.624,4.499-0.658s3.322,0.119,5.065,0.468c1.743,0.348,3.52,0.892,5.272,1.637
		C46.307,33.024,48.034,33.972,49.676,35.128z M67.131,53.273c-0.384,0.269-0.778,0.53-1.183,0.783
		c-0.405,0.253-0.821,0.499-1.247,0.737c-0.427,0.238-0.864,0.468-1.313,0.692s-0.908,0.439-1.379,0.649
		c-0.412,0.179-0.831,0.35-1.256,0.513s-0.858,0.316-1.297,0.461c-0.439,0.144-0.885,0.279-1.338,0.404
		c-0.453,0.125-0.913,0.239-1.379,0.343c-0.522,0.115-1.053,0.217-1.592,0.305c-0.54,0.088-1.088,0.162-1.645,0.222
		c-0.557,0.06-1.122,0.105-1.696,0.136c-0.573,0.03-1.155,0.046-1.743,0.046c-0.66,0-1.238-0.003-1.77-0.016
		c-0.532-0.013-1.019-0.037-1.495-0.079c-0.477-0.042-0.943-0.102-1.435-0.188s-1.01-0.197-1.589-0.342
		c0.018-0.43,0.051-0.863,0.098-1.298s0.109-0.874,0.186-1.315c0.076-0.441,0.168-0.884,0.274-1.33
		c0.106-0.446,0.227-0.894,0.363-1.345c0.497,0.14,0.934,0.247,1.347,0.33c0.413,0.082,0.803,0.139,1.203,0.179
		c0.401,0.04,0.812,0.062,1.27,0.074c0.458,0.012,0.963,0.014,1.549,0.014c0.515,0,1.022-0.014,1.521-0.043
		c0.499-0.028,0.989-0.071,1.472-0.127s0.956-0.126,1.421-0.21s0.922-0.181,1.37-0.291c0.455-0.106,0.901-0.225,1.338-0.358
		c0.437-0.132,0.865-0.277,1.283-0.434c0.419-0.157,0.828-0.326,1.228-0.505c0.4-0.18,0.791-0.37,1.173-0.57
		c0.644-0.338,1.257-0.69,1.84-1.057s1.135-0.748,1.657-1.145c0.522-0.396,1.013-0.808,1.474-1.235
		c0.461-0.427,0.892-0.869,1.292-1.326c0.499-0.561,0.953-1.145,1.361-1.75c0.409-0.605,0.773-1.232,1.094-1.88
		s0.598-1.317,0.832-2.006c0.234-0.689,0.426-1.398,0.575-2.127c0.184,0.074,0.367,0.15,0.548,0.228s0.36,0.16,0.538,0.244
		c0.177,0.084,0.352,0.171,0.524,0.261c0.172,0.09,0.341,0.183,0.507,0.279c0.269,0.154,0.529,0.31,0.781,0.469
		c0.252,0.158,0.495,0.319,0.73,0.481c0.235,0.162,0.462,0.326,0.681,0.491c0.219,0.165,0.429,0.332,0.632,0.5
		c-0.357,1.237-0.808,2.42-1.353,3.547c-0.545,1.127-1.184,2.199-1.918,3.213c-0.733,1.014-1.561,1.97-2.483,2.868
		C69.257,51.658,68.241,52.496,67.131,53.273z M48.811,73.276c-0.17,0.143-0.343,0.281-0.519,0.414
		c-0.176,0.133-0.354,0.262-0.533,0.387c-0.18,0.125-0.362,0.245-0.545,0.361c-0.183,0.116-0.368,0.228-0.554,0.337
		c-0.251,0.145-0.499,0.282-0.745,0.412c-0.246,0.13-0.489,0.253-0.73,0.368s-0.479,0.224-0.715,0.325
		c-0.236,0.101-0.468,0.195-0.698,0.282c-0.987-0.993-1.899-2.133-2.71-3.398c-0.812-1.265-1.522-2.655-2.106-4.147
		s-1.04-3.086-1.342-4.761c-0.302-1.674-0.45-3.429-0.418-5.24c0.002-0.232,0.008-0.466,0.017-0.7
		c0.009-0.234,0.022-0.469,0.037-0.705c0.016-0.236,0.035-0.472,0.056-0.708s0.047-0.474,0.075-0.711
		c0.053-0.446,0.117-0.895,0.194-1.346c0.077-0.451,0.166-0.904,0.268-1.359s0.216-0.91,0.342-1.367
		c0.126-0.457,0.265-0.914,0.416-1.372c0.159-0.483,0.333-0.968,0.52-1.453c0.188-0.485,0.39-0.971,0.608-1.457
		s0.45-0.971,0.697-1.455c0.248-0.484,0.51-0.967,0.789-1.447c0.312-0.543,0.585-1.016,0.843-1.446s0.501-0.818,0.753-1.189
		c0.252-0.371,0.514-0.727,0.81-1.092s0.626-0.742,1.014-1.156c0.37,0.221,0.737,0.456,1.1,0.705
		c0.363,0.249,0.721,0.512,1.074,0.79s0.702,0.568,1.045,0.872c0.343,0.304,0.68,0.622,1.011,0.953
		c-0.356,0.357-0.653,0.676-0.917,0.985c-0.264,0.309-0.494,0.608-0.715,0.923c-0.221,0.316-0.434,0.648-0.662,1.025
		s-0.472,0.797-0.757,1.289c-0.248,0.432-0.482,0.866-0.7,1.3c-0.218,0.434-0.422,0.868-0.61,1.302s-0.362,0.868-0.521,1.3
		c-0.159,0.433-0.303,0.864-0.431,1.294c-0.136,0.448-0.257,0.895-0.363,1.341c-0.106,0.445-0.198,0.889-0.275,1.331
		c-0.077,0.441-0.14,0.881-0.188,1.317s-0.083,0.87-0.103,1.3c-0.005,0.08-0.009,0.16-0.012,0.238
		c-0.003,0.079-0.006,0.156-0.008,0.234c-0.002,0.078-0.003,0.155-0.002,0.233c0,0.078,0.001,0.155,0.003,0.234
		c-0.018,1.612,0.135,3.16,0.431,4.619c0.296,1.459,0.736,2.83,1.29,4.086c0.555,1.256,1.225,2.397,1.982,3.398
		C47.063,71.721,47.908,72.581,48.811,73.276z M22.959,33.408c0.032-1.028,0.115-2.004,0.244-2.931
		c0.129-0.927,0.303-1.804,0.519-2.634c0.216-0.83,0.474-1.613,0.768-2.351c0.294-0.738,0.625-1.431,0.989-2.082
		c1.138-2.062,2.588-3.691,4.19-4.952s3.358-2.155,5.109-2.746c1.751-0.591,3.497-0.881,5.081-0.934
		c1.584-0.053,3.005,0.13,4.106,0.484c0.628,0.202,1.223,0.496,1.759,0.884c0.535,0.388,1.011,0.87,1.398,1.448
		c0.387,0.578,0.687,1.253,0.871,2.027c0.184,0.774,0.251,1.647,0.176,2.621c-0.007,0.101-0.015,0.201-0.026,0.3
		c-0.01,0.099-0.022,0.197-0.035,0.294s-0.028,0.193-0.044,0.289c-0.016,0.096-0.033,0.19-0.051,0.285
		c-0.161,0.802-0.413,1.524-0.737,2.152c-0.324,0.628-0.72,1.162-1.17,1.589s-0.952,0.749-1.49,0.951s-1.11,0.285-1.698,0.237
		c-0.543-0.041-1.057-0.191-1.528-0.438s-0.899-0.589-1.27-1.016c-0.371-0.427-0.685-0.938-0.929-1.522
		c-0.243-0.583-0.415-1.238-0.503-1.953c-0.019-0.152-0.034-0.306-0.045-0.462c-0.011-0.156-0.019-0.315-0.023-0.475
		c-0.004-0.16-0.003-0.323,0.002-0.487c0.005-0.164,0.014-0.33,0.028-0.498c0.002-0.044,0.005-0.088,0.008-0.132
		s0.007-0.089,0.011-0.133c0.004-0.044,0.009-0.088,0.013-0.132c0.005-0.043,0.009-0.086,0.014-0.127
		c-0.545,0.005-1.103,0.052-1.664,0.147s-1.124,0.238-1.679,0.435s-1.102,0.447-1.631,0.756c-0.528,0.309-1.038,0.677-1.519,1.109
		c-0.448,0.402-0.872,0.86-1.262,1.377c-0.39,0.517-0.747,1.093-1.063,1.733s-0.588,1.343-0.811,2.114
		c-0.223,0.771-0.394,1.61-0.507,2.52c-0.023,0.207-0.044,0.418-0.061,0.632c-0.018,0.215-0.033,0.434-0.046,0.656
		c-0.012,0.222-0.022,0.449-0.029,0.679c-0.006,0.23-0.01,0.463-0.01,0.7c0,0.25,0.006,0.502,0.019,0.755
		c0.012,0.253,0.031,0.506,0.056,0.76c0.025,0.254,0.055,0.509,0.092,0.764s0.079,0.51,0.127,0.766
		c0.244,1.294,0.576,2.548,1.024,3.747c0.448,1.2,1.01,2.347,1.714,3.428c0.704,1.082,1.548,2.098,2.559,3.038
		c1.011,0.94,2.189,1.803,3.559,2.578c-0.152,0.458-0.291,0.915-0.417,1.372c-0.126,0.457-0.24,0.913-0.341,1.368
		s-0.19,0.908-0.266,1.359s-0.139,0.9-0.19,1.346c-1.786-0.853-3.362-1.835-4.749-2.931c-1.386-1.096-2.583-2.307-3.611-3.618
		c-1.028-1.311-1.886-2.723-2.597-4.22c-0.71-1.498-1.273-3.081-1.707-4.737c-0.134-0.501-0.249-1.004-0.347-1.508
		c-0.097-0.504-0.177-1.009-0.238-1.515c-0.061-0.506-0.103-1.012-0.127-1.519c-0.024-0.506-0.029-1.013-0.016-1.519v-0.032v-0.032
		V33.44V33.408z M17.588,60.897c-0.158-0.145-0.318-0.302-0.476-0.47s-0.317-0.348-0.475-0.539
		c-0.157-0.191-0.314-0.393-0.468-0.605s-0.307-0.434-0.456-0.667c-0.911-1.407-1.714-3.168-2.225-5.132
		c-0.511-1.964-0.731-4.132-0.474-6.353c0.257-2.221,0.99-4.495,2.384-6.673c1.394-2.178,3.448-4.259,6.348-6.094
		c0.013-0.009,0.026-0.018,0.039-0.027c0.013-0.009,0.025-0.018,0.038-0.027s0.025-0.017,0.038-0.025
		c0.013-0.008,0.026-0.016,0.04-0.023c-0.014,0.506-0.009,1.013,0.015,1.52c0.024,0.507,0.066,1.014,0.127,1.521
		s0.14,1.012,0.237,1.516c0.097,0.504,0.213,1.005,0.346,1.504c-1.271,0.977-2.209,2.06-2.868,3.191s-1.039,2.311-1.195,3.483
		c-0.156,1.172-0.087,2.336,0.152,3.436c0.239,1.1,0.647,2.136,1.171,3.051c0.034-0.025,0.069-0.051,0.105-0.078
		c0.035-0.026,0.071-0.053,0.108-0.079c0.036-0.026,0.073-0.053,0.11-0.079s0.074-0.052,0.11-0.078
		c0.807-0.552,1.618-0.947,2.405-1.194s1.549-0.349,2.256-0.312c0.708,0.036,1.361,0.21,1.93,0.51
		c0.57,0.301,1.055,0.728,1.428,1.273c0.251,0.363,0.435,0.756,0.552,1.17s0.168,0.847,0.152,1.291
		c-0.016,0.444-0.099,0.898-0.249,1.353c-0.149,0.455-0.366,0.91-0.648,1.356c-0.138,0.216-0.292,0.43-0.462,0.642
		s-0.356,0.42-0.558,0.625c-0.202,0.205-0.42,0.405-0.653,0.601c-0.233,0.195-0.482,0.386-0.747,0.569
		c-0.807,0.552-1.596,0.929-2.358,1.157c-0.761,0.227-1.494,0.305-2.187,0.259c-0.693-0.047-1.347-0.218-1.949-0.488
		S18.078,61.34,17.588,60.897z M49.676,80.706c-3.748,1.963-7.167,2.738-10.207,2.702s-5.702-0.881-7.934-2.157
		c-2.232-1.276-4.036-2.982-5.361-4.74c-1.325-1.758-2.171-3.566-2.487-5.047c-0.14-0.644-0.184-1.306-0.117-1.963
		c0.067-0.657,0.247-1.31,0.554-1.935c0.307-0.625,0.741-1.222,1.319-1.768c0.578-0.546,1.299-1.041,2.18-1.462
		c0.885-0.421,1.751-0.686,2.569-0.811c0.818-0.125,1.59-0.108,2.286,0.035s1.317,0.413,1.835,0.795
		c0.518,0.382,0.934,0.877,1.218,1.471c0.283,0.598,0.408,1.236,0.382,1.884c-0.026,0.648-0.204,1.306-0.528,1.942
		c-0.324,0.636-0.793,1.251-1.402,1.813c-0.609,0.562-1.358,1.071-2.241,1.497c-0.041,0.018-0.083,0.037-0.124,0.055
		c-0.041,0.018-0.082,0.036-0.123,0.054s-0.081,0.035-0.121,0.052c-0.04,0.017-0.08,0.034-0.119,0.05
		c0.517,0.89,1.192,1.74,2.018,2.474c0.826,0.734,1.804,1.352,2.927,1.776c1.123,0.425,2.391,0.657,3.799,0.619
		c1.408-0.037,2.955-0.344,4.636-0.997c0.23-0.087,0.462-0.182,0.698-0.283c0.236-0.101,0.474-0.21,0.715-0.325
		c0.241-0.116,0.484-0.238,0.73-0.368c0.246-0.13,0.494-0.267,0.745-0.412c0.187-0.108,0.372-0.22,0.555-0.337
		c0.184-0.116,0.365-0.237,0.545-0.361c0.18-0.125,0.358-0.254,0.533-0.387s0.348-0.271,0.519-0.414
		c1.08-0.883,2.088-1.903,2.988-3.027c0.9-1.125,1.692-2.354,2.341-3.656c0.648-1.302,1.153-2.678,1.479-4.094
		c0.325-1.416,0.471-2.874,0.402-4.341c0.138-0.032,0.275-0.065,0.412-0.098c0.137-0.033,0.273-0.068,0.408-0.103
		c0.136-0.035,0.271-0.071,0.405-0.108s0.268-0.075,0.402-0.114c0.318-0.09,0.632-0.184,0.942-0.283
		c0.311-0.099,0.618-0.202,0.921-0.31c0.304-0.108,0.604-0.221,0.9-0.338s0.59-0.239,0.879-0.365
		c0.011,0.108,0.022,0.216,0.032,0.324s0.02,0.216,0.028,0.324c0.009,0.108,0.016,0.216,0.023,0.324
		c0.007,0.108,0.012,0.216,0.017,0.324c0.09,1.706-0.035,3.419-0.348,5.102c-0.313,1.683-0.814,3.335-1.477,4.92
		c-0.663,1.585-1.489,3.103-2.45,4.517c-0.961,1.414-2.058,2.723-3.266,3.891c-0.363,0.354-0.737,0.694-1.12,1.02
		s-0.776,0.637-1.178,0.933c-0.402,0.296-0.813,0.577-1.232,0.842c-0.419,0.265-0.846,0.514-1.281,0.746
		c-0.021,0.009-0.041,0.018-0.06,0.027s-0.039,0.019-0.058,0.029c-0.019,0.01-0.038,0.02-0.056,0.03
		C49.712,80.684,49.694,80.695,49.676,80.706z M75.665,71.464c-0.17,0.789-0.49,1.666-0.948,2.577s-1.056,1.856-1.781,2.781
		c-0.725,0.925-1.579,1.829-2.55,2.659c-0.971,0.83-2.06,1.584-3.255,2.21c-1.051,0.549-2.185,0.998-3.395,1.31
		c-1.21,0.311-2.496,0.486-3.85,0.485c-1.354,0-2.777-0.174-4.261-0.559s-3.028-0.981-4.627-1.825
		c0.016-0.009,0.034-0.018,0.052-0.027c0.018-0.009,0.037-0.018,0.056-0.028c0.019-0.009,0.038-0.018,0.057-0.028
		c0.019-0.009,0.038-0.019,0.057-0.028c0.435-0.232,0.862-0.481,1.28-0.746c0.419-0.265,0.829-0.546,1.231-0.842
		c0.402-0.296,0.795-0.607,1.178-0.933s0.757-0.666,1.12-1.02c1.214,0.497,2.37,0.745,3.457,0.793
		c1.087,0.048,2.106-0.103,3.045-0.407s1.799-0.759,2.569-1.317c0.77-0.559,1.45-1.221,2.03-1.938
		c0.089-0.113,0.177-0.227,0.261-0.343c0.085-0.116,0.167-0.233,0.247-0.35c0.08-0.118,0.157-0.236,0.232-0.356
		c0.075-0.119,0.146-0.239,0.215-0.358c-0.039-0.016-0.078-0.033-0.117-0.05c-0.039-0.017-0.079-0.035-0.118-0.052
		s-0.08-0.036-0.12-0.054c-0.04-0.018-0.081-0.036-0.122-0.055c-0.039-0.021-0.079-0.041-0.119-0.062s-0.08-0.042-0.121-0.062
		c-0.04-0.021-0.081-0.042-0.121-0.062c-0.04-0.021-0.08-0.041-0.119-0.062c-0.793-0.432-1.464-0.934-2.006-1.478
		s-0.956-1.132-1.237-1.736c-0.281-0.605-0.429-1.226-0.439-1.84c-0.01-0.613,0.118-1.218,0.39-1.788
		c0.149-0.315,0.336-0.603,0.554-0.862c0.219-0.259,0.47-0.488,0.75-0.687c0.28-0.198,0.588-0.365,0.921-0.499
		c0.333-0.133,0.69-0.233,1.067-0.298c0.335-0.053,0.686-0.078,1.049-0.074c0.363,0.004,0.739,0.038,1.125,0.102
		c0.386,0.065,0.782,0.161,1.185,0.291s0.815,0.292,1.231,0.49c0.883,0.421,1.605,0.916,2.184,1.462
		c0.578,0.546,1.013,1.143,1.32,1.768c0.307,0.625,0.486,1.277,0.554,1.935C75.846,70.158,75.803,70.82,75.665,71.464z
		 M81.763,60.897c-0.49,0.444-1.042,0.813-1.646,1.083c-0.604,0.27-1.258,0.441-1.953,0.488c-0.694,0.047-1.429-0.031-2.191-0.259
		c-0.762-0.227-1.553-0.605-2.36-1.157c-0.264-0.184-0.512-0.373-0.746-0.568c-0.233-0.195-0.451-0.394-0.652-0.598
		c-0.202-0.204-0.388-0.412-0.558-0.624c-0.17-0.212-0.324-0.427-0.462-0.646c-0.287-0.444-0.509-0.897-0.663-1.351
		c-0.155-0.453-0.243-0.907-0.263-1.35s0.026-0.876,0.14-1.29c0.114-0.413,0.296-0.806,0.547-1.17
		c0.374-0.542,0.864-0.969,1.438-1.27c0.574-0.301,1.233-0.476,1.946-0.514c0.713-0.038,1.48,0.061,2.27,0.307
		s1.604,0.64,2.412,1.192c0.037,0.025,0.073,0.051,0.11,0.078s0.074,0.053,0.11,0.079c0.037,0.026,0.074,0.053,0.11,0.079
		c0.037,0.026,0.074,0.052,0.111,0.078c0.503-0.883,0.898-1.88,1.121-2.95c0.223-1.07,0.275-2.211,0.094-3.383
		c-0.181-1.172-0.595-2.374-1.305-3.564c-0.709-1.19-1.713-2.369-3.075-3.493c-0.204-0.168-0.416-0.334-0.634-0.5
		s-0.445-0.329-0.68-0.491c-0.234-0.162-0.477-0.323-0.728-0.481s-0.511-0.315-0.779-0.469c-0.168-0.097-0.338-0.19-0.511-0.28
		c-0.172-0.09-0.347-0.177-0.523-0.261c-0.177-0.084-0.355-0.165-0.535-0.243s-0.363-0.154-0.547-0.228
		c-0.347-0.138-0.696-0.268-1.045-0.389c-0.35-0.121-0.701-0.234-1.053-0.338c-0.352-0.104-0.706-0.199-1.062-0.285
		c-0.355-0.086-0.712-0.162-1.071-0.229c-0.968-0.182-1.947-0.289-2.937-0.309c-0.99-0.02-1.99,0.048-3,0.216
		c-1.01,0.168-2.029,0.438-3.057,0.821c-1.028,0.383-2.064,0.881-3.108,1.506c-0.331-0.354-0.668-0.696-1.01-1.026
		s-0.69-0.648-1.043-0.955c-0.353-0.306-0.711-0.601-1.074-0.884s-0.731-0.554-1.103-0.814c1.341-0.945,2.691-1.719,4.049-2.337
		c1.357-0.618,2.721-1.079,4.087-1.399c1.366-0.32,2.735-0.497,4.102-0.547c1.367-0.05,2.734,0.028,4.095,0.219
		c0.375,0.048,0.748,0.106,1.121,0.172s0.744,0.141,1.115,0.225s0.741,0.175,1.11,0.275c0.369,0.1,0.738,0.207,1.105,0.322
		c0.439,0.135,0.874,0.284,1.303,0.446c0.429,0.162,0.852,0.337,1.268,0.524s0.825,0.387,1.227,0.6s0.794,0.437,1.178,0.674
		c0.052,0.035,0.105,0.069,0.156,0.102c0.052,0.034,0.103,0.067,0.154,0.099c0.051,0.033,0.102,0.065,0.153,0.098
		c0.051,0.032,0.102,0.065,0.152,0.097c2.959,1.94,5.065,4.099,6.503,6.332c1.439,2.233,2.21,4.541,2.501,6.781
		c0.29,2.24,0.099,4.412-0.388,6.373c-0.487,1.961-1.269,3.711-2.161,5.106c-0.147,0.232-0.298,0.455-0.451,0.668
		c-0.153,0.213-0.308,0.415-0.465,0.607c-0.157,0.191-0.315,0.371-0.474,0.539S81.921,60.754,81.763,60.897z"/>
</g>
</svg>
