<?xml version="1.0" encoding="utf-8"?>
<!-- Generator: Adobe Illustrator 19.1.0, SVG Export Plug-In . SVG Version: 6.00 Build 0)  -->
<svg version="1.1" id="Layer_1" xmlns="http://www.w3.org/2000/svg" xmlns:xlink="http://www.w3.org/1999/xlink" x="0px" y="0px"
	 viewBox="0 0 29.91 30.086" style="enable-background:new 0 0 29.91 30.086;" xml:space="preserve">
<style type="text/css">
	.st0{fill:#115C78;}
	.st1{fill-rule:evenodd;clip-rule:evenodd;fill:#4D4D4D;}
	.st2{fill:#4D4D4D;}
	.st3{fill-rule:evenodd;clip-rule:evenodd;}
	.st4{fill:#FFFFFF;}
	.st5{fill:none;}
	.st6{fill:none;stroke:#4D4D4D;stroke-width:0.3;stroke-miterlimit:10;}
	.st7{fill:#4D4D4D;stroke:#4D4D4D;stroke-width:0.1;stroke-miterlimit:10;}
	.st8{fill:#F0047F;}
	.st9{fill:none;stroke:#4D4D4D;stroke-width:0;stroke-linecap:round;stroke-linejoin:round;}
	.st10{fill:none;stroke:#4D4D4D;stroke-width:0.25;stroke-miterlimit:10;}
	.st11{fill:none;stroke:#4D4D4D;stroke-width:0.2;stroke-miterlimit:10;}
	.st12{fill:none;stroke:#4D4D4D;stroke-width:0.8;stroke-miterlimit:10;}
	.st13{fill:#4D4D4D;stroke:#4D4D4D;stroke-width:0.3;stroke-miterlimit:10;}
	.st14{fill:none;stroke:#4D4D4D;stroke-width:0.24;stroke-miterlimit:10;}
</style>
<g>
	<g>
		<path class="st2" d="M25.057,6.281c-0.278-0.293-0.579-0.553-0.899-0.778s-0.658-0.416-1.011-0.57s-0.72-0.271-1.097-0.35
			s-0.765-0.119-1.158-0.119s-0.781,0.04-1.158,0.119s-0.744,0.196-1.097,0.35s-0.691,0.344-1.011,0.57s-0.621,0.485-0.899,0.778
			l-0.405,0.424l-0.405,0.424l-0.405,0.424l-0.405,0.424l-0.036,0.038l-0.036,0.038L15,8.092L14.964,8.13l-0.036-0.038l-0.036-0.038
			l-0.036-0.038l-0.036-0.038l-0.41-0.429L14,7.12l-0.41-0.429l-0.41-0.429c-0.278-0.293-0.579-0.553-0.899-0.779
			s-0.658-0.416-1.011-0.57s-0.72-0.271-1.097-0.35S9.408,4.444,9.015,4.444c-0.393,0-0.781,0.04-1.158,0.119
			C7.48,4.642,7.113,4.759,6.76,4.913S6.069,5.258,5.75,5.483S5.129,5.969,4.851,6.262C4.278,6.865,3.849,7.563,3.562,8.308
			s-0.429,1.538-0.429,2.331s0.143,1.586,0.429,2.332s0.716,1.445,1.288,2.049l2.504,2.646l2.504,2.646l2.504,2.646l2.504,2.646
			c0.007,0.008,0.015,0.014,0.023,0.019c0.008,0.005,0.015,0.008,0.022,0.011s0.014,0.004,0.02,0.005
			c0.006,0.001,0.012,0.001,0.016,0.001c0.007,0,0.014-0.001,0.02-0.002c0.007-0.001,0.013-0.003,0.019-0.006
			s0.012-0.005,0.018-0.009c0.006-0.004,0.011-0.008,0.016-0.012l1.256-1.324l1.256-1.324l1.256-1.324l1.256-1.324l1.252-1.32
			l1.252-1.32l1.252-1.32l1.252-1.32c0.573-0.604,1.003-1.302,1.289-2.048s0.43-1.539,0.43-2.332s-0.143-1.586-0.43-2.332
			S25.63,6.885,25.057,6.281z M24.904,14.89l-1.234,1.299l-1.234,1.299l-1.234,1.299l-1.234,1.299l-1.218,1.282l-1.218,1.282
			l-1.218,1.282l-1.218,1.282l-0.036,0.038l-0.036,0.038l-0.036,0.038l-0.036,0.038l-0.036-0.038l-0.036-0.038l-0.036-0.038
			l-0.036-0.038l-2.451-2.586l-2.451-2.586l-2.451-2.586l-2.451-2.586c-0.553-0.584-0.968-1.259-1.244-1.979
			s-0.415-1.487-0.415-2.253S3.483,9.107,3.76,8.387S4.451,6.993,5.004,6.41c0.269-0.284,0.56-0.535,0.869-0.753
			s0.635-0.403,0.974-0.552S7.54,4.843,7.903,4.767C8.266,4.69,8.638,4.651,9.015,4.651c0.377,0,0.75,0.039,1.112,0.115
			s0.716,0.19,1.056,0.339s0.666,0.333,0.975,0.552s0.6,0.47,0.869,0.753L13.489,6.9l0.463,0.489l0.463,0.489l0.463,0.489
			c0.007,0.008,0.015,0.014,0.023,0.019s0.015,0.008,0.022,0.011s0.014,0.004,0.02,0.005s0.012,0.001,0.016,0.001
			c0.007,0,0.014-0.001,0.02-0.002s0.013-0.003,0.019-0.006s0.012-0.005,0.018-0.009s0.011-0.008,0.016-0.012l0.462-0.486
			l0.462-0.486l0.462-0.486l0.462-0.486c0.27-0.284,0.561-0.536,0.869-0.754s0.635-0.403,0.975-0.552s0.693-0.263,1.055-0.339
			s0.734-0.115,1.112-0.115c0.377,0,0.749,0.039,1.111,0.115s0.716,0.19,1.055,0.339s0.666,0.334,0.975,0.552s0.6,0.47,0.869,0.754
			c0.554,0.583,0.969,1.258,1.246,1.978s0.415,1.486,0.415,2.252s-0.138,1.532-0.415,2.252S25.458,14.307,24.904,14.89z"/>
	</g>
</g>
<g>
	<path class="st2" d="M23.594,12.487H22.85h-0.744h-0.744h-0.744v-0.056v-0.056V12.32v-0.056l0.627-0.945l0.627-0.945l0.627-0.945
		l0.627-0.945h-0.598h-0.598H21.33h-0.598v-0.07v-0.07v-0.07v-0.07h0.699h0.699h0.699h0.699v0.056v0.056V8.37v0.056l-0.628,0.945
		l-0.628,0.945l-0.628,0.945l-0.628,0.945h0.645h0.645h0.645h0.645v0.07v0.07v0.07V12.487z"/>
</g>
<g>
	<path class="st2" d="M19.252,15.048h-0.496h-0.496h-0.496h-0.496v-0.037v-0.037v-0.037V14.9l0.418-0.63l0.418-0.63l0.418-0.63
		l0.418-0.63H18.54h-0.399h-0.399h-0.399v-0.047v-0.047V12.24v-0.047h0.466h0.466h0.466h0.466v0.037v0.037v0.037v0.037l-0.419,0.63
		l-0.419,0.63l-0.419,0.63l-0.419,0.63h0.43h0.43h0.43h0.43v0.047v0.047v0.047V15.048z"/>
</g>
<path class="st10" d="M0.216,0.37h7.37h7.37h7.37h7.37v7.276v7.276v7.276v7.276h-7.37h-7.37h-7.37h-7.37v-7.276v-7.276V7.646V0.37z"
	/>
</svg>
