<?xml version="1.0" encoding="utf-8"?>
<!-- Generator: Adobe Illustrator 19.1.0, SVG Export Plug-In . SVG Version: 6.00 Build 0)  -->
<svg version="1.1" id="Layer_1" xmlns="http://www.w3.org/2000/svg" xmlns:xlink="http://www.w3.org/1999/xlink" x="0px" y="0px"
	 viewBox="0 0 29.91 30.086" style="enable-background:new 0 0 29.91 30.086;" xml:space="preserve">
<style type="text/css">
	.st0{fill:#4D4D4D;}
	.st1{fill-rule:evenodd;clip-rule:evenodd;fill:#4C4C4C;}
	.st2{fill:#4C4C4C;}
	.st3{fill:#383330;}
	.st4{fill:#1F1A17;}
	.st5{fill:#4D4C4C;}
	.st6{fill:none;stroke:#000000;stroke-width:0.3;stroke-miterlimit:10;}
	.st7{fill:#E61413;}
	.st8{fill:#5F5357;}
	.st9{fill:#115C78;}
	.st10{fill-rule:evenodd;clip-rule:evenodd;fill:#4D4D4D;}
	.st11{fill-rule:evenodd;clip-rule:evenodd;}
	.st12{fill:#FFFFFF;}
	.st13{fill:none;}
	.st14{fill:#231F20;}
	.st15{clip-path:url(#SVGID_2_);}
	.st16{clip-path:url(#SVGID_4_);fill:#FCF118;}
	.st17{clip-path:url(#SVGID_4_);fill:#FCF018;}
	.st18{clip-path:url(#SVGID_4_);fill:#FCEF18;}
	.st19{clip-path:url(#SVGID_4_);fill:#FCEE18;}
	.st20{clip-path:url(#SVGID_4_);fill:#FCED18;}
	.st21{clip-path:url(#SVGID_4_);fill:#FCEC18;}
	.st22{clip-path:url(#SVGID_4_);fill:#FCEB18;}
	.st23{clip-path:url(#SVGID_4_);fill:#FCEA18;}
	.st24{clip-path:url(#SVGID_4_);fill:#FCE918;}
	.st25{clip-path:url(#SVGID_4_);fill:#FCE818;}
	.st26{clip-path:url(#SVGID_4_);fill:#FCE718;}
	.st27{clip-path:url(#SVGID_4_);fill:#FCE617;}
	.st28{clip-path:url(#SVGID_4_);fill:#FCE517;}
	.st29{clip-path:url(#SVGID_4_);fill:#FCE417;}
	.st30{clip-path:url(#SVGID_4_);fill:#FCE317;}
	.st31{clip-path:url(#SVGID_4_);fill:#FCE217;}
	.st32{clip-path:url(#SVGID_4_);fill:#FCE117;}
	.st33{clip-path:url(#SVGID_4_);fill:#FCE017;}
	.st34{clip-path:url(#SVGID_4_);fill:#FCDF17;}
	.st35{clip-path:url(#SVGID_4_);fill:#FCDE17;}
	.st36{clip-path:url(#SVGID_4_);fill:#FCDD17;}
	.st37{clip-path:url(#SVGID_4_);fill:#FCDC17;}
	.st38{clip-path:url(#SVGID_4_);fill:#FCDB17;}
	.st39{clip-path:url(#SVGID_4_);fill:#FCDA17;}
	.st40{clip-path:url(#SVGID_4_);fill:#FCD917;}
	.st41{clip-path:url(#SVGID_4_);fill:#FCD817;}
	.st42{clip-path:url(#SVGID_4_);fill:#FCD717;}
	.st43{clip-path:url(#SVGID_4_);fill:#FCD617;}
	.st44{clip-path:url(#SVGID_4_);fill:#FCD517;}
	.st45{clip-path:url(#SVGID_4_);fill:#FCD416;}
	.st46{clip-path:url(#SVGID_4_);fill:#FCD316;}
	.st47{clip-path:url(#SVGID_4_);fill:#FBD216;}
	.st48{clip-path:url(#SVGID_4_);fill:#FBD116;}
	.st49{clip-path:url(#SVGID_4_);fill:#FBD016;}
	.st50{clip-path:url(#SVGID_4_);fill:#FBCF16;}
	.st51{clip-path:url(#SVGID_4_);fill:#FBCE16;}
	.st52{clip-path:url(#SVGID_4_);fill:#FBCD16;}
	.st53{clip-path:url(#SVGID_4_);fill:#FBCC16;}
	.st54{clip-path:url(#SVGID_4_);fill:#FBCB16;}
	.st55{clip-path:url(#SVGID_4_);fill:#FBCA16;}
	.st56{clip-path:url(#SVGID_4_);fill:#FBC916;}
	.st57{clip-path:url(#SVGID_4_);fill:#FBC816;}
	.st58{clip-path:url(#SVGID_4_);fill:#FBC716;}
	.st59{clip-path:url(#SVGID_4_);fill:#FBC616;}
	.st60{clip-path:url(#SVGID_4_);fill:#FBC516;}
	.st61{clip-path:url(#SVGID_4_);fill:#FBC416;}
	.st62{clip-path:url(#SVGID_4_);fill:#FBC316;}
	.st63{clip-path:url(#SVGID_4_);fill:#FBC216;}
	.st64{clip-path:url(#SVGID_4_);fill:#FBC115;}
	.st65{clip-path:url(#SVGID_4_);fill:#FBC015;}
	.st66{clip-path:url(#SVGID_4_);fill:#FBBF15;}
	.st67{clip-path:url(#SVGID_4_);fill:#FBBE15;}
	.st68{clip-path:url(#SVGID_4_);fill:#FBBD15;}
	.st69{clip-path:url(#SVGID_4_);fill:#FBBC15;}
	.st70{clip-path:url(#SVGID_4_);fill:#FBBB15;}
	.st71{clip-path:url(#SVGID_4_);fill:#FBBA15;}
	.st72{clip-path:url(#SVGID_4_);fill:#FBB915;}
	.st73{clip-path:url(#SVGID_4_);fill:#FBB815;}
	.st74{clip-path:url(#SVGID_4_);fill:#FBB715;}
	.st75{clip-path:url(#SVGID_4_);fill:#FBB615;}
	.st76{clip-path:url(#SVGID_4_);fill:#FBB515;}
	.st77{clip-path:url(#SVGID_4_);fill:#FBB415;}
	.st78{clip-path:url(#SVGID_4_);fill:#FBB315;}
	.st79{clip-path:url(#SVGID_4_);fill:#FBB215;}
	.st80{clip-path:url(#SVGID_4_);fill:#FBB115;}
	.st81{clip-path:url(#SVGID_4_);fill:#FBB015;}
	.st82{clip-path:url(#SVGID_4_);fill:#FBAF15;}
	.st83{clip-path:url(#SVGID_4_);fill:#FAAE15;}
	.st84{clip-path:url(#SVGID_4_);fill:#FAAD14;}
	.st85{clip-path:url(#SVGID_4_);fill:#FAAC14;}
	.st86{clip-path:url(#SVGID_4_);fill:#FAAB14;}
	.st87{clip-path:url(#SVGID_4_);fill:#FAAA14;}
	.st88{clip-path:url(#SVGID_4_);fill:#FAA914;}
	.st89{clip-path:url(#SVGID_4_);fill:#FAA814;}
	.st90{clip-path:url(#SVGID_4_);fill:#FAA714;}
	.st91{clip-path:url(#SVGID_4_);fill:#FAA614;}
	.st92{clip-path:url(#SVGID_4_);fill:#FAA514;}
	.st93{clip-path:url(#SVGID_4_);fill:#FAA414;}
	.st94{clip-path:url(#SVGID_4_);fill:#FAA314;}
	.st95{clip-path:url(#SVGID_4_);fill:#FAA214;}
	.st96{clip-path:url(#SVGID_4_);fill:#FAA114;}
	.st97{clip-path:url(#SVGID_4_);fill:#FAA014;}
	.st98{clip-path:url(#SVGID_4_);fill:#FA9F14;}
	.st99{clip-path:url(#SVGID_4_);fill:#FA9E14;}
	.st100{clip-path:url(#SVGID_4_);fill:#FA9D14;}
	.st101{clip-path:url(#SVGID_4_);fill:#FA9C14;}
	.st102{clip-path:url(#SVGID_4_);fill:#FA9B14;}
	.st103{clip-path:url(#SVGID_4_);fill:#FA9A13;}
	.st104{clip-path:url(#SVGID_4_);fill:#FA9913;}
	.st105{clip-path:url(#SVGID_4_);fill:#FA9813;}
	.st106{clip-path:url(#SVGID_4_);fill:#FA9713;}
	.st107{clip-path:url(#SVGID_4_);fill:#FA9613;}
	.st108{clip-path:url(#SVGID_4_);fill:#FA9513;}
	.st109{clip-path:url(#SVGID_4_);fill:#FA9413;}
	.st110{clip-path:url(#SVGID_4_);fill:#FA9313;}
	.st111{clip-path:url(#SVGID_4_);fill:#FA9213;}
	.st112{clip-path:url(#SVGID_4_);fill:#FA9113;}
	.st113{clip-path:url(#SVGID_4_);fill:#FA9013;}
	.st114{clip-path:url(#SVGID_4_);fill:#FA8F13;}
	.st115{clip-path:url(#SVGID_4_);fill:#FA8E13;}
	.st116{clip-path:url(#SVGID_4_);fill:#FA8D13;}
	.st117{clip-path:url(#SVGID_4_);fill:#FA8C13;}
	.st118{clip-path:url(#SVGID_4_);fill:#FA8B13;}
	.st119{clip-path:url(#SVGID_4_);fill:#FA8A13;}
	.st120{clip-path:url(#SVGID_4_);fill:#FA8913;}
	.st121{clip-path:url(#SVGID_4_);fill:#FA8812;}
	.st122{clip-path:url(#SVGID_4_);fill:#FA8712;}
	.st123{clip-path:url(#SVGID_4_);fill:#FA8612;}
	.st124{clip-path:url(#SVGID_4_);fill:#F98512;}
	.st125{clip-path:url(#SVGID_4_);fill:#F98412;}
	.st126{clip-path:url(#SVGID_4_);fill:#F98312;}
	.st127{clip-path:url(#SVGID_4_);fill:#F98212;}
	.st128{clip-path:url(#SVGID_4_);fill:#F98112;}
	.st129{clip-path:url(#SVGID_4_);fill:#F98012;}
	.st130{clip-path:url(#SVGID_4_);fill:#F97F12;}
	.st131{clip-path:url(#SVGID_4_);fill:#F97E12;}
	.st132{clip-path:url(#SVGID_4_);fill:#F97D12;}
	.st133{clip-path:url(#SVGID_4_);fill:#F97C12;}
	.st134{clip-path:url(#SVGID_4_);fill:#F97B12;}
	.st135{clip-path:url(#SVGID_4_);fill:#F97A12;}
	.st136{clip-path:url(#SVGID_4_);fill:#F97912;}
	.st137{clip-path:url(#SVGID_4_);fill:#F97812;}
	.st138{clip-path:url(#SVGID_4_);fill:#F97712;}
	.st139{clip-path:url(#SVGID_4_);fill:#F97612;}
	.st140{clip-path:url(#SVGID_4_);fill:#F97511;}
	.st141{clip-path:url(#SVGID_4_);fill:#F97411;}
	.st142{clip-path:url(#SVGID_4_);fill:#F97311;}
	.st143{clip-path:url(#SVGID_4_);fill:#F97211;}
	.st144{clip-path:url(#SVGID_4_);fill:#F97111;}
	.st145{clip-path:url(#SVGID_4_);fill:#F97011;}
	.st146{clip-path:url(#SVGID_4_);fill:#F96F11;}
	.st147{clip-path:url(#SVGID_4_);fill:#F96E11;}
	.st148{clip-path:url(#SVGID_4_);fill:#F96D11;}
	.st149{clip-path:url(#SVGID_4_);fill:#F96C11;}
	.st150{clip-path:url(#SVGID_4_);fill:#F96B11;}
	.st151{clip-path:url(#SVGID_4_);fill:#F96A11;}
	.st152{clip-path:url(#SVGID_4_);fill:#F96911;}
	.st153{clip-path:url(#SVGID_4_);fill:#F96811;}
	.st154{clip-path:url(#SVGID_4_);fill:#F96711;}
	.st155{clip-path:url(#SVGID_4_);fill:#F96611;}
	.st156{clip-path:url(#SVGID_4_);fill:#F96511;}
	.st157{clip-path:url(#SVGID_4_);fill:#F96411;}
	.st158{clip-path:url(#SVGID_4_);fill:#F96311;}
	.st159{clip-path:url(#SVGID_4_);fill:#F96210;}
	.st160{clip-path:url(#SVGID_4_);fill:#F86110;}
	.st161{clip-path:url(#SVGID_4_);fill:#F86010;}
	.st162{clip-path:url(#SVGID_4_);fill:#F85F10;}
	.st163{clip-path:url(#SVGID_4_);fill:#F85E10;}
	.st164{clip-path:url(#SVGID_4_);fill:#F85D10;}
	.st165{clip-path:url(#SVGID_4_);fill:#F85C10;}
	.st166{clip-path:url(#SVGID_4_);fill:#F85B10;}
	.st167{clip-path:url(#SVGID_4_);fill:#F85A10;}
	.st168{clip-path:url(#SVGID_4_);fill:#F85910;}
	.st169{clip-path:url(#SVGID_4_);fill:#F85810;}
	.st170{clip-path:url(#SVGID_4_);fill:#F85710;}
	.st171{clip-path:url(#SVGID_4_);fill:#F85610;}
	.st172{clip-path:url(#SVGID_4_);fill:#F85510;}
	.st173{clip-path:url(#SVGID_4_);fill:#F85410;}
	.st174{clip-path:url(#SVGID_4_);fill:#F85310;}
	.st175{clip-path:url(#SVGID_4_);fill:#F85210;}
	.st176{clip-path:url(#SVGID_4_);fill:#F85110;}
	.st177{clip-path:url(#SVGID_4_);fill:#F85010;}
	.st178{clip-path:url(#SVGID_4_);fill:#F84F0F;}
	.st179{clip-path:url(#SVGID_4_);fill:#F84E0F;}
	.st180{clip-path:url(#SVGID_4_);fill:#F84D0F;}
	.st181{clip-path:url(#SVGID_4_);fill:#F84C0F;}
	.st182{clip-path:url(#SVGID_4_);fill:#F84B0F;}
	.st183{clip-path:url(#SVGID_4_);fill:#F84A0F;}
	.st184{clip-path:url(#SVGID_4_);fill:#F8490F;}
	.st185{clip-path:url(#SVGID_4_);fill:#F8480F;}
	.st186{clip-path:url(#SVGID_4_);fill:#F8470F;}
	.st187{clip-path:url(#SVGID_4_);fill:#F8460F;}
	.st188{clip-path:url(#SVGID_4_);fill:#F8450F;}
	.st189{clip-path:url(#SVGID_4_);fill:#F8440F;}
	.st190{clip-path:url(#SVGID_4_);fill:#F8430F;}
	.st191{clip-path:url(#SVGID_4_);fill:#F8420F;}
	.st192{clip-path:url(#SVGID_4_);fill:#F8410F;}
	.st193{clip-path:url(#SVGID_4_);fill:#F8400F;}
	.st194{clip-path:url(#SVGID_4_);fill:#F83F0F;}
	.st195{clip-path:url(#SVGID_4_);fill:#F83E0E;}
	.st196{clip-path:url(#SVGID_4_);fill:#F83D0E;}
	.st197{clip-path:url(#SVGID_4_);fill:#F83C0E;}
	.st198{clip-path:url(#SVGID_4_);fill:#F83B0E;}
	.st199{clip-path:url(#SVGID_4_);fill:#F73A0E;}
	.st200{clip-path:url(#SVGID_4_);fill:#F7390E;}
	.st201{clip-path:url(#SVGID_4_);fill:#F7380E;}
	.st202{clip-path:url(#SVGID_4_);fill:#F7370E;}
	.st203{clip-path:url(#SVGID_4_);fill:#F7360E;}
	.st204{clip-path:url(#SVGID_4_);fill:#F7340E;}
	.st205{clip-path:url(#SVGID_4_);fill:#F7330E;}
	.st206{clip-path:url(#SVGID_4_);fill:#F7320E;}
	.st207{clip-path:url(#SVGID_4_);fill:#F7310E;}
	.st208{clip-path:url(#SVGID_4_);fill:#F7300E;}
	.st209{clip-path:url(#SVGID_4_);fill:#F72F0E;}
	.st210{clip-path:url(#SVGID_4_);fill:#F72E0E;}
	.st211{clip-path:url(#SVGID_4_);fill:#F72D0E;}
	.st212{clip-path:url(#SVGID_4_);fill:#F72C0E;}
	.st213{clip-path:url(#SVGID_4_);fill:#F72B0E;}
	.st214{clip-path:url(#SVGID_4_);fill:#F72B0D;}
	.st215{clip-path:url(#SVGID_4_);fill:#F72A0D;}
	.st216{clip-path:url(#SVGID_4_);fill:#F7290D;}
	.st217{clip-path:url(#SVGID_4_);fill:#F7280D;}
	.st218{clip-path:url(#SVGID_4_);fill:#F7270D;}
	.st219{clip-path:url(#SVGID_4_);fill:#F7260D;}
</style>
<g>
	<path class="st0" d="M29.819,29.9h-7.432h-7.432H7.523H0.091v-7.432v-7.432V7.603V0.171h7.432h7.432h7.432h7.432v7.432v7.432v7.432
		V29.9z M0.341,29.65h7.307h7.307h7.307h7.307v-7.307v-7.307V7.728V0.421h-7.307h-7.307H7.648H0.341v7.307v7.307v7.307V29.65z"/>
</g>
<g>
	<path class="st1" d="M21.356,20.6l-0.935,0.002l-0.935,0.002l-0.935,0.002l-0.935,0.002c0,0-0.009-0.298-0.092-0.761
		c-0.083-0.463-0.241-1.092-0.539-1.754c-0.298-0.662-0.736-1.357-1.38-1.953s-1.494-1.092-2.615-1.357
		c-0.263-0.044-0.838-0.155-1.566-0.179c-0.729-0.025-1.611,0.037-2.489,0.337c-0.878,0.3-1.751,0.839-2.461,1.77
		c-0.71,0.93-1.257,2.252-1.483,4.118c-0.031-0.331-0.056-0.741-0.038-1.206s0.077-0.987,0.215-1.541
		c0.138-0.554,0.356-1.142,0.688-1.739c0.332-0.598,0.78-1.205,1.38-1.801c0.847-0.841,1.804-1.473,2.812-1.891
		s2.067-0.625,3.12-0.616s2.1,0.232,3.084,0.672c0.983,0.44,1.903,1.097,2.701,1.973c0.307,0.337,0.599,0.712,0.867,1.125
		c0.268,0.413,0.512,0.865,0.724,1.357c0.212,0.492,0.391,1.023,0.529,1.596S21.308,19.943,21.356,20.6"/>
</g>
<g>
	<path class="st2" d="M4.883,23.711c0,0.157-0.006,0.303-0.018,0.44s-0.03,0.263-0.054,0.379s-0.054,0.222-0.09,0.318
		s-0.078,0.181-0.125,0.257c-0.048,0.075-0.102,0.141-0.162,0.197s-0.126,0.103-0.199,0.141s-0.151,0.066-0.235,0.085
		c-0.085,0.019-0.175,0.028-0.272,0.028c-0.093,0-0.181-0.01-0.263-0.029s-0.158-0.048-0.229-0.087s-0.136-0.087-0.196-0.145
		s-0.114-0.126-0.162-0.203c-0.048-0.078-0.091-0.165-0.127-0.261s-0.067-0.202-0.091-0.317s-0.042-0.239-0.054-0.373
		s-0.018-0.277-0.018-0.429c0-0.155,0.006-0.301,0.018-0.436s0.029-0.26,0.053-0.376s0.053-0.22,0.088-0.315s0.076-0.18,0.123-0.254
		c0.047-0.075,0.1-0.141,0.16-0.197s0.125-0.103,0.196-0.141s0.149-0.066,0.233-0.084s0.174-0.028,0.27-0.028
		c0.094,0,0.182,0.01,0.265,0.029c0.083,0.019,0.16,0.048,0.232,0.087s0.138,0.087,0.198,0.145s0.115,0.126,0.164,0.204
		c0.049,0.077,0.092,0.164,0.129,0.26s0.068,0.2,0.092,0.314s0.043,0.237,0.055,0.369S4.883,23.561,4.883,23.711z M2.852,23.711
		c0,0.138,0.005,0.268,0.014,0.388s0.023,0.232,0.041,0.334s0.041,0.196,0.068,0.28s0.059,0.159,0.095,0.226
		s0.077,0.124,0.123,0.174s0.096,0.091,0.151,0.124s0.115,0.058,0.179,0.074s0.133,0.025,0.207,0.025
		c0.077,0,0.149-0.009,0.215-0.026c0.066-0.017,0.128-0.043,0.184-0.077s0.107-0.077,0.153-0.128s0.086-0.111,0.121-0.179
		c0.035-0.068,0.066-0.145,0.092-0.23s0.048-0.178,0.066-0.279s0.031-0.21,0.04-0.328s0.013-0.243,0.013-0.377
		c0-0.132-0.004-0.256-0.013-0.372s-0.022-0.224-0.04-0.324s-0.04-0.192-0.066-0.276s-0.057-0.161-0.092-0.229
		c-0.035-0.068-0.076-0.128-0.121-0.179s-0.097-0.094-0.153-0.128s-0.117-0.06-0.184-0.077C3.877,22.109,3.805,22.1,3.729,22.1
		s-0.149,0.009-0.215,0.026s-0.127,0.043-0.183,0.077s-0.106,0.077-0.151,0.128s-0.085,0.111-0.12,0.179
		c-0.035,0.068-0.065,0.145-0.091,0.229s-0.048,0.176-0.065,0.276s-0.03,0.208-0.039,0.324S2.852,23.579,2.852,23.711z"/>
	<path class="st2" d="M5.557,25.315c0-0.04,0.004-0.075,0.012-0.105s0.02-0.055,0.037-0.075s0.037-0.035,0.061-0.045
		s0.053-0.015,0.086-0.015c0.033,0,0.062,0.005,0.088,0.015s0.046,0.025,0.063,0.045s0.029,0.045,0.038,0.075
		s0.013,0.065,0.013,0.105S5.948,25.39,5.94,25.42s-0.021,0.055-0.038,0.075S5.865,25.53,5.84,25.54s-0.054,0.015-0.088,0.015
		c-0.033,0-0.061-0.005-0.086-0.015s-0.045-0.025-0.061-0.045S5.577,25.45,5.569,25.42S5.557,25.355,5.557,25.315z"/>
	<path class="st2" d="M8.86,25.506H8.302H7.743H7.185H6.626v-0.054v-0.054v-0.054v-0.054l0.237-0.248l0.237-0.248l0.237-0.248
		L7.576,24.3c0.067-0.069,0.129-0.134,0.185-0.195s0.109-0.118,0.155-0.171s0.089-0.102,0.125-0.147s0.069-0.085,0.095-0.122
		s0.052-0.073,0.075-0.109s0.045-0.071,0.065-0.106s0.038-0.07,0.054-0.104s0.031-0.068,0.043-0.101s0.024-0.067,0.033-0.101
		s0.017-0.069,0.024-0.104s0.011-0.07,0.014-0.106s0.005-0.072,0.005-0.109c0-0.053-0.004-0.104-0.013-0.152
		s-0.022-0.094-0.039-0.138s-0.039-0.084-0.066-0.123s-0.057-0.074-0.092-0.108s-0.073-0.062-0.113-0.088s-0.083-0.046-0.128-0.063
		c-0.045-0.017-0.093-0.029-0.144-0.038s-0.104-0.013-0.16-0.013c-0.074,0-0.148,0.007-0.221,0.02s-0.145,0.034-0.216,0.061
		s-0.142,0.061-0.211,0.101s-0.138,0.088-0.206,0.142l-0.033-0.042l-0.033-0.042l-0.033-0.042l-0.033-0.042
		c0.074-0.063,0.151-0.117,0.23-0.164s0.159-0.086,0.242-0.118s0.167-0.055,0.254-0.071s0.175-0.024,0.266-0.024
		c0.078,0,0.151,0.005,0.221,0.016s0.135,0.026,0.196,0.047s0.118,0.047,0.171,0.078s0.102,0.067,0.146,0.109
		c0.044,0.042,0.083,0.087,0.117,0.136s0.061,0.103,0.083,0.16s0.039,0.118,0.05,0.183s0.017,0.134,0.017,0.207
		c0,0.059-0.004,0.118-0.011,0.176s-0.019,0.116-0.034,0.173s-0.034,0.114-0.056,0.17s-0.048,0.112-0.078,0.167
		c-0.03,0.055-0.066,0.114-0.109,0.175s-0.091,0.127-0.145,0.195s-0.115,0.139-0.182,0.214s-0.14,0.152-0.219,0.233l-0.229,0.235
		l-0.229,0.235L7.18,25.027l-0.229,0.235v0.002v0.002v0.002v0.002h0.477h0.477h0.477H8.86v0.059v0.059v0.059V25.506z"/>
	<path class="st2" d="M10.884,23.001c0,0.092-0.004,0.179-0.011,0.259s-0.019,0.156-0.034,0.226s-0.034,0.134-0.057,0.193
		s-0.05,0.112-0.08,0.16s-0.064,0.09-0.102,0.126s-0.078,0.066-0.122,0.09s-0.091,0.042-0.142,0.054s-0.105,0.018-0.162,0.018
		c-0.054,0-0.105-0.006-0.154-0.018s-0.094-0.031-0.136-0.055s-0.082-0.055-0.119-0.092s-0.07-0.08-0.101-0.129
		c-0.031-0.049-0.057-0.103-0.08-0.162s-0.042-0.123-0.058-0.192S9.5,23.334,9.492,23.254S9.48,23.091,9.48,23.001
		c0-0.091,0.004-0.176,0.011-0.256s0.018-0.155,0.033-0.224s0.033-0.133,0.055-0.191s0.048-0.111,0.077-0.159
		s0.062-0.089,0.098-0.125s0.076-0.065,0.119-0.089s0.09-0.042,0.14-0.054s0.104-0.018,0.161-0.018c0.057,0,0.11,0.006,0.16,0.018
		s0.097,0.031,0.141,0.055s0.084,0.055,0.122,0.092s0.071,0.08,0.102,0.129c0.031,0.049,0.058,0.103,0.081,0.161
		s0.043,0.122,0.058,0.191s0.027,0.142,0.035,0.22S10.884,22.913,10.884,23.001z M9.72,23.001c0,0.076,0.002,0.147,0.007,0.213
		s0.011,0.128,0.021,0.185s0.021,0.109,0.034,0.157s0.03,0.09,0.048,0.128s0.039,0.071,0.063,0.1s0.05,0.052,0.078,0.071
		s0.06,0.033,0.094,0.043s0.07,0.014,0.109,0.014c0.078,0,0.147-0.019,0.206-0.057s0.108-0.095,0.147-0.171s0.069-0.171,0.088-0.285
		s0.029-0.247,0.029-0.399c0-0.075-0.003-0.145-0.008-0.211s-0.013-0.126-0.023-0.183s-0.023-0.108-0.038-0.155
		s-0.033-0.089-0.053-0.127c-0.02-0.038-0.042-0.071-0.067-0.099s-0.052-0.052-0.081-0.071s-0.061-0.033-0.094-0.042
		s-0.07-0.014-0.108-0.014c-0.039,0-0.076,0.005-0.109,0.014s-0.065,0.024-0.094,0.042s-0.055,0.042-0.078,0.071
		s-0.044,0.061-0.063,0.099c-0.018,0.038-0.034,0.08-0.048,0.127s-0.025,0.098-0.034,0.155s-0.016,0.117-0.021,0.183
		S9.72,22.926,9.72,23.001z M12.33,21.937l-0.495,0.892l-0.495,0.892l-0.495,0.892l-0.495,0.892h-0.059h-0.059h-0.059h-0.059
		l0.495-0.892l0.495-0.892l0.495-0.892l0.495-0.892h0.059h0.059h0.059H12.33z M12.964,24.437c0,0.092-0.004,0.179-0.011,0.259
		s-0.019,0.156-0.034,0.226s-0.034,0.134-0.056,0.193s-0.049,0.112-0.079,0.16s-0.064,0.09-0.101,0.126s-0.077,0.066-0.121,0.09
		s-0.091,0.042-0.141,0.054s-0.104,0.018-0.162,0.018c-0.055,0-0.108-0.006-0.157-0.019s-0.095-0.031-0.138-0.056
		s-0.083-0.056-0.12-0.093s-0.07-0.08-0.101-0.13c-0.031-0.05-0.057-0.104-0.08-0.163s-0.042-0.124-0.057-0.193
		s-0.027-0.143-0.034-0.222s-0.011-0.163-0.011-0.251c0-0.092,0.004-0.178,0.011-0.258s0.019-0.155,0.034-0.225
		s0.034-0.133,0.056-0.192s0.048-0.111,0.078-0.159c0.03-0.047,0.063-0.088,0.1-0.124s0.077-0.065,0.12-0.089s0.09-0.041,0.14-0.053
		s0.103-0.018,0.16-0.018c0.056,0,0.108,0.006,0.158,0.018s0.096,0.031,0.139,0.055s0.084,0.055,0.121,0.092
		s0.071,0.079,0.102,0.128s0.058,0.103,0.081,0.161s0.043,0.122,0.058,0.191s0.027,0.142,0.035,0.221S12.964,24.348,12.964,24.437z
		 M11.8,24.437c0,0.075,0.002,0.146,0.007,0.212s0.011,0.127,0.021,0.184s0.021,0.108,0.034,0.155s0.03,0.089,0.048,0.127
		s0.039,0.07,0.063,0.099s0.05,0.052,0.078,0.07s0.06,0.033,0.094,0.042s0.07,0.014,0.109,0.014c0.078,0,0.147-0.019,0.206-0.056
		s0.108-0.094,0.147-0.169s0.069-0.169,0.088-0.282s0.029-0.245,0.029-0.395c0-0.15-0.01-0.282-0.029-0.394
		s-0.049-0.207-0.088-0.282s-0.088-0.132-0.147-0.169s-0.128-0.056-0.206-0.056c-0.039,0-0.076,0.005-0.109,0.014
		s-0.065,0.023-0.094,0.042s-0.055,0.042-0.078,0.07s-0.044,0.06-0.063,0.098c-0.018,0.037-0.034,0.079-0.048,0.126
		s-0.025,0.099-0.034,0.155s-0.016,0.118-0.021,0.184S11.8,24.361,11.8,24.437z"/>
</g>
<g>
	<g>
		<path class="st0" d="M25.149,20.418c-0.229,0-0.447-0.047-0.645-0.131s-0.377-0.206-0.527-0.356s-0.272-0.329-0.356-0.527
			s-0.13-0.416-0.13-0.645c0-0.229,0.046-0.447,0.13-0.645s0.206-0.377,0.356-0.528s0.329-0.272,0.527-0.356
			s0.416-0.131,0.645-0.131c0.229,0,0.447,0.047,0.645,0.131s0.377,0.206,0.528,0.356s0.272,0.329,0.356,0.528
			s0.131,0.417,0.131,0.645c0,0.229-0.047,0.447-0.131,0.645s-0.206,0.377-0.356,0.527s-0.329,0.272-0.528,0.356
			S25.378,20.418,25.149,20.418z M25.149,17.199c-0.215,0-0.42,0.044-0.606,0.123s-0.354,0.193-0.495,0.335
			s-0.255,0.309-0.334,0.496s-0.123,0.392-0.123,0.607c0,0.215,0.044,0.42,0.123,0.606s0.193,0.354,0.334,0.496
			s0.309,0.255,0.495,0.335s0.391,0.123,0.606,0.123c0.215,0,0.42-0.044,0.607-0.123s0.355-0.193,0.496-0.335
			s0.256-0.309,0.335-0.496s0.123-0.391,0.123-0.606c0-0.215-0.044-0.42-0.123-0.607s-0.193-0.355-0.335-0.496
			s-0.309-0.256-0.496-0.335S25.364,17.199,25.149,17.199z"/>
	</g>
	<g>
		<path class="st0" d="M25.213,17.15v-0.306v-0.306v-0.306v-0.306h-0.031H25.15h-0.031h-0.031v0.306v0.306v0.306v0.306
			c0.005,0,0.011-0.001,0.016-0.001c0.005-0.001,0.01-0.001,0.015-0.002c0.005-0.001,0.01-0.001,0.016-0.002s0.01-0.001,0.016-0.001
			c0.005,0,0.01,0,0.015,0.001c0.005,0.001,0.01,0.001,0.015,0.002s0.01,0.001,0.015,0.002S25.207,17.149,25.213,17.15"/>
	</g>
	<g>
		<path class="st0" d="M25.188,21.591v-0.306V20.98v-0.306v-0.306h-0.031h-0.031h-0.031h-0.031v0.306v0.306v0.306v0.306
			c0.005,0,0.011-0.001,0.016-0.001c0.005-0.001,0.01-0.001,0.015-0.002s0.01-0.001,0.016-0.002s0.01-0.001,0.016-0.001
			c0.005,0,0.01,0,0.015,0.001s0.01,0.001,0.015,0.002c0.005,0.001,0.01,0.001,0.015,0.002S25.183,21.591,25.188,21.591"/>
	</g>
	<g>
		<polyline class="st0" points="26.766,18.759 26.765,18.77 26.764,18.781 26.762,18.792 26.761,18.804 26.761,18.808 26.76,18.812 
			26.76,18.817 26.759,18.821 27.065,18.821 27.371,18.821 27.677,18.821 27.982,18.821 27.982,18.79 27.982,18.759 27.982,18.728 
			27.982,18.697 27.677,18.697 27.371,18.697 27.065,18.697 26.759,18.697 26.76,18.701 26.76,18.705 26.761,18.71 26.761,18.715 
			26.762,18.726 26.764,18.737 26.765,18.748 26.766,18.759 		"/>
	</g>
	<g>
		<polyline class="st0" points="22.324,18.697 22.323,18.708 22.322,18.719 22.321,18.73 22.32,18.742 22.319,18.746 22.319,18.75 
			22.318,18.755 22.318,18.759 22.624,18.759 22.929,18.759 23.235,18.759 23.541,18.759 23.541,18.728 23.541,18.697 
			23.541,18.666 23.541,18.635 23.235,18.635 22.929,18.635 22.624,18.635 22.318,18.635 22.318,18.639 22.319,18.643 
			22.319,18.648 22.32,18.652 22.321,18.664 22.322,18.675 22.323,18.686 22.324,18.697 		"/>
	</g>
	<g>
		<polyline class="st0" points="26.371,17.626 26.588,17.41 26.804,17.194 27.02,16.977 27.236,16.761 27.214,16.739 27.192,16.717 
			27.169,16.695 27.147,16.673 26.931,16.889 26.715,17.105 26.499,17.322 26.283,17.538 26.295,17.548 26.307,17.557 26.32,17.567 
			26.332,17.578 26.342,17.589 26.352,17.602 26.361,17.614 26.371,17.626 		"/>
	</g>
	<g>
		<polyline class="st0" points="23.153,20.845 23.369,20.628 23.585,20.412 23.801,20.196 24.017,19.98 23.995,19.958 
			23.973,19.936 23.951,19.914 23.929,19.892 23.713,20.108 23.496,20.324 23.28,20.54 23.064,20.756 23.076,20.767 23.089,20.776 
			23.101,20.786 23.113,20.796 23.124,20.808 23.133,20.82 23.143,20.833 23.153,20.845 		"/>
	</g>
	<g>
		<polyline class="st0" points="24.061,17.538 23.845,17.322 23.629,17.105 23.413,16.889 23.197,16.673 23.175,16.695 
			23.152,16.717 23.13,16.739 23.108,16.761 23.324,16.978 23.54,17.194 23.757,17.41 23.973,17.626 23.983,17.614 23.992,17.601 
			24.002,17.589 24.013,17.577 24.025,17.567 24.037,17.557 24.049,17.548 24.061,17.538 		"/>
	</g>
	<g>
		<polyline class="st0" points="27.236,20.756 27.02,20.54 26.804,20.324 26.588,20.108 26.371,19.892 26.349,19.914 26.327,19.936 
			26.305,19.958 26.283,19.98 26.499,20.196 26.715,20.413 26.931,20.629 27.148,20.845 27.158,20.833 27.167,20.82 27.177,20.808 
			27.188,20.796 27.199,20.786 27.212,20.776 27.224,20.767 27.236,20.756 		"/>
	</g>
</g>
</svg>
