<?xml version="1.0" encoding="utf-8"?>
<!-- Generator: Adobe Illustrator 19.1.0, SVG Export Plug-In . SVG Version: 6.00 Build 0)  -->
<svg version="1.1" id="Layer_1" xmlns="http://www.w3.org/2000/svg" xmlns:xlink="http://www.w3.org/1999/xlink" x="0px" y="0px"
	 viewBox="0 0 126.038 26.342" style="enable-background:new 0 0 126.038 26.342;" xml:space="preserve">
<style type="text/css">
	.st0{fill:#115C78;}
	.st1{fill-rule:evenodd;clip-rule:evenodd;fill:#4D4D4D;}
	.st2{fill:#4D4D4D;}
	.st3{fill-rule:evenodd;clip-rule:evenodd;}
	.st4{fill:#FFFFFF;}
	.st5{fill:none;}
	.st6{fill:none;stroke:#4D4D4D;stroke-width:0.3;stroke-miterlimit:10;}
	.st7{fill:#4D4D4D;stroke:#4D4D4D;stroke-width:0.1;stroke-miterlimit:10;}
	.st8{fill:#F0047F;}
	.st9{fill:none;stroke:#4D4D4D;stroke-width:0;stroke-linecap:round;stroke-linejoin:round;}
	.st10{fill:none;stroke:#4D4D4D;stroke-width:0.25;stroke-miterlimit:10;}
	.st11{fill:none;stroke:#4D4D4D;stroke-width:0.2;stroke-miterlimit:10;}
	.st12{fill:none;stroke:#4D4D4D;stroke-width:0.8;stroke-miterlimit:10;}
	.st13{fill:#4D4D4D;stroke:#4D4D4D;stroke-width:0.3;stroke-miterlimit:10;}
	.st14{fill:none;stroke:#4D4D4D;stroke-width:0.24;stroke-miterlimit:10;}
</style>
<g>
	<g>
		<path d="M8.978,20.416v-4.15v-4.15v-4.15v-4.15h0.694h0.694h0.694h0.694v3.474v3.474v3.474v3.474h0.963h0.963h0.963h0.963
			l-0.281,0.676l-0.281,0.676l-0.281,0.676l-0.281,0.676h-1.377h-1.377h-1.377H8.978z"/>
	</g>
	<g>
		<path d="M23.783,20.221l-0.092-0.4l-0.092-0.4l-0.092-0.4l-0.092-0.4h-0.039h-0.039h-0.039h-0.039
			c-0.069,0.142-0.146,0.276-0.229,0.403c-0.084,0.127-0.175,0.246-0.273,0.357c-0.098,0.111-0.204,0.215-0.317,0.312
			s-0.233,0.185-0.361,0.267c-0.128,0.081-0.26,0.152-0.397,0.212c-0.137,0.061-0.278,0.111-0.424,0.152
			c-0.146,0.041-0.297,0.071-0.452,0.091c-0.155,0.02-0.315,0.031-0.479,0.031c-0.28,0-0.543-0.024-0.788-0.071
			c-0.246-0.048-0.475-0.119-0.686-0.214c-0.212-0.095-0.406-0.214-0.584-0.357c-0.178-0.143-0.338-0.309-0.482-0.499
			c-0.144-0.19-0.269-0.404-0.377-0.642c-0.108-0.237-0.197-0.498-0.269-0.783c-0.072-0.285-0.126-0.593-0.162-0.924
			s-0.054-0.687-0.054-1.065v-2.034v-2.034V9.787V7.752h0.753h0.753h0.753h0.753v1.855v1.855v1.855v1.855
			c0,0.227,0.007,0.441,0.02,0.641c0.014,0.2,0.034,0.385,0.061,0.557s0.061,0.329,0.101,0.473c0.041,0.144,0.088,0.273,0.142,0.389
			c0.054,0.116,0.116,0.217,0.187,0.303c0.071,0.087,0.15,0.159,0.238,0.217c0.088,0.058,0.184,0.101,0.288,0.13
			c0.104,0.029,0.217,0.043,0.338,0.043c0.16,0,0.31-0.02,0.448-0.06c0.139-0.04,0.267-0.1,0.384-0.181s0.223-0.181,0.319-0.301
			c0.095-0.12,0.18-0.261,0.253-0.421c0.074-0.16,0.139-0.348,0.194-0.563s0.102-0.457,0.138-0.727
			c0.037-0.27,0.065-0.567,0.083-0.891s0.028-0.676,0.028-1.054v-1.494v-1.494V9.246V7.752h0.753h0.753h0.753h0.753v3.117v3.117
			v3.117v3.117h-0.596h-0.596h-0.596H23.783z"/>
	</g>
	<g>
		<path d="M30.812,13.852l-0.778-1.525l-0.778-1.525l-0.778-1.525l-0.778-1.525h0.772h0.772h0.772h0.772l0.414,0.951l0.414,0.951
			l0.414,0.951l0.414,0.951l0.383-0.951l0.383-0.951l0.383-0.951l0.383-0.951h0.767h0.767h0.767h0.767l-0.783,1.525l-0.783,1.525
			l-0.783,1.525l-0.783,1.525l0.817,1.592l0.817,1.592l0.817,1.592l0.817,1.592h-0.778h-0.778h-0.778h-0.778l-0.442-0.996
			l-0.442-0.996l-0.442-0.996l-0.442-0.996l-0.411,0.996l-0.411,0.996l-0.411,0.996l-0.411,0.996h-0.775h-0.775H28.33h-0.775
			l0.814-1.592l0.814-1.592l0.814-1.592L30.812,13.852z"/>
	</g>
	<g>
		<path d="M39.573,5.116h1.02h1.02h1.02h1.02c0.382,0,0.745,0.018,1.088,0.055s0.666,0.092,0.97,0.165
			c0.304,0.074,0.588,0.165,0.853,0.276c0.265,0.11,0.51,0.239,0.735,0.386c0.225,0.147,0.423,0.315,0.592,0.505
			c0.169,0.19,0.31,0.4,0.423,0.632c0.113,0.232,0.197,0.485,0.254,0.76c0.056,0.274,0.085,0.57,0.085,0.887
			c0,0.199-0.014,0.391-0.042,0.577c-0.028,0.186-0.07,0.365-0.127,0.538c-0.056,0.173-0.127,0.34-0.211,0.5
			s-0.183,0.314-0.296,0.461c-0.113,0.147-0.239,0.283-0.379,0.407s-0.293,0.238-0.461,0.34c-0.167,0.102-0.348,0.193-0.543,0.273
			c-0.194,0.08-0.403,0.148-0.625,0.206v0.023v0.023v0.023v0.023c0.279,0.042,0.543,0.098,0.793,0.167
			c0.249,0.069,0.484,0.152,0.704,0.249c0.22,0.097,0.425,0.207,0.615,0.33c0.19,0.124,0.365,0.261,0.526,0.412
			c0.16,0.151,0.301,0.316,0.421,0.495c0.12,0.179,0.221,0.372,0.301,0.579c0.08,0.207,0.14,0.428,0.181,0.664
			c0.04,0.235,0.06,0.485,0.06,0.748c0,0.183-0.008,0.361-0.025,0.533c-0.017,0.172-0.042,0.338-0.075,0.499
			c-0.033,0.161-0.075,0.315-0.125,0.465c-0.05,0.149-0.109,0.292-0.175,0.43s-0.141,0.269-0.221,0.395
			c-0.081,0.126-0.168,0.246-0.263,0.361c-0.095,0.115-0.196,0.223-0.304,0.327c-0.108,0.103-0.223,0.201-0.345,0.293
			c-0.122,0.092-0.251,0.177-0.386,0.258c-0.135,0.08-0.276,0.155-0.423,0.223c-0.147,0.069-0.3,0.132-0.46,0.189
			c-0.159,0.057-0.325,0.109-0.497,0.155c-0.172,0.046-0.349,0.086-0.532,0.121c-0.182,0.034-0.37,0.063-0.563,0.086
			c-0.193,0.023-0.391,0.04-0.595,0.051s-0.412,0.017-0.626,0.017h-1.094h-1.094h-1.094h-1.094v-3.776v-3.776V8.892V5.116z
			 M43.239,11.762c0.39,0,0.752-0.015,1.086-0.046s0.641-0.078,0.92-0.14s0.53-0.14,0.754-0.233s0.419-0.202,0.587-0.326
			c0.168-0.124,0.315-0.264,0.442-0.42c0.126-0.156,0.231-0.328,0.315-0.516c0.084-0.188,0.147-0.392,0.189-0.613
			c0.042-0.22,0.063-0.456,0.063-0.709c0-0.245-0.022-0.472-0.067-0.683c-0.045-0.211-0.112-0.404-0.202-0.581
			c-0.09-0.177-0.202-0.336-0.337-0.479c-0.135-0.143-0.292-0.268-0.472-0.377c-0.179-0.109-0.38-0.204-0.601-0.286
			c-0.221-0.082-0.464-0.15-0.728-0.204c-0.264-0.055-0.548-0.096-0.854-0.123c-0.306-0.027-0.632-0.041-0.98-0.041h-0.682h-0.682
			h-0.682h-0.682V7.43v1.444v1.444v1.444h0.653h0.653h0.653H43.239z M43.676,19.35c0.378,0,0.736-0.018,1.074-0.053
			c0.338-0.035,0.655-0.088,0.952-0.159s0.574-0.159,0.83-0.265s0.493-0.229,0.708-0.371c0.216-0.142,0.405-0.304,0.567-0.486
			c0.162-0.183,0.297-0.386,0.405-0.609c0.108-0.224,0.189-0.468,0.243-0.732c0.054-0.265,0.081-0.55,0.081-0.856
			c0-0.271-0.026-0.525-0.079-0.761s-0.131-0.455-0.237-0.657c-0.105-0.201-0.237-0.386-0.394-0.552
			c-0.158-0.167-0.342-0.316-0.552-0.448c-0.21-0.132-0.442-0.247-0.697-0.346c-0.255-0.099-0.532-0.181-0.832-0.247
			s-0.622-0.115-0.967-0.148c-0.345-0.033-0.712-0.049-1.102-0.049h-0.762h-0.762h-0.762h-0.762v1.685v1.685v1.685v1.685h0.762
			h0.762h0.762H43.676z"/>
	</g>
	<g>
		<path d="M52.088,17.471c0-0.302,0.036-0.586,0.107-0.853c0.072-0.267,0.179-0.516,0.322-0.747
			c0.143-0.231,0.322-0.445,0.537-0.641c0.215-0.196,0.466-0.374,0.752-0.534c0.287-0.16,0.614-0.309,0.982-0.447
			s0.776-0.264,1.225-0.378s0.938-0.218,1.468-0.31c0.53-0.092,1.101-0.172,1.712-0.241c0.004-0.103,0.005-0.206,0.003-0.31
			c-0.001-0.104-0.005-0.207-0.012-0.311s-0.016-0.208-0.028-0.313c-0.012-0.105-0.026-0.209-0.044-0.315s-0.038-0.207-0.063-0.307
			c-0.025-0.099-0.053-0.196-0.086-0.289c-0.032-0.094-0.069-0.184-0.109-0.272c-0.04-0.088-0.084-0.173-0.132-0.255
			c-0.048-0.082-0.101-0.16-0.158-0.235c-0.057-0.075-0.119-0.145-0.186-0.212s-0.138-0.13-0.215-0.189
			c-0.076-0.059-0.158-0.115-0.243-0.166c-0.086-0.052-0.178-0.097-0.276-0.135c-0.098-0.039-0.202-0.071-0.312-0.096
			c-0.11-0.026-0.226-0.045-0.347-0.058c-0.122-0.013-0.249-0.019-0.383-0.019c-0.187,0-0.37,0.009-0.549,0.027
			c-0.179,0.018-0.353,0.045-0.523,0.082c-0.17,0.036-0.336,0.082-0.497,0.136s-0.319,0.118-0.471,0.19
			c-0.153,0.073-0.298,0.145-0.435,0.217s-0.267,0.143-0.39,0.214s-0.237,0.141-0.344,0.211s-0.206,0.139-0.298,0.208l-0.115-0.189
			l-0.115-0.189l-0.115-0.189l-0.115-0.189c0.05-0.034,0.102-0.07,0.157-0.106c0.055-0.036,0.112-0.074,0.173-0.112
			c0.06-0.038,0.123-0.077,0.188-0.118s0.133-0.081,0.204-0.123c0.071-0.042,0.143-0.083,0.218-0.123
			c0.075-0.04,0.151-0.079,0.229-0.118c0.078-0.038,0.159-0.076,0.241-0.112s0.166-0.072,0.252-0.106
			c0.086-0.034,0.174-0.068,0.264-0.1c0.09-0.032,0.183-0.063,0.277-0.092c0.095-0.03,0.191-0.058,0.29-0.085
			c0.099-0.027,0.2-0.053,0.303-0.078c0.103-0.025,0.207-0.046,0.312-0.065c0.105-0.019,0.211-0.034,0.318-0.046
			s0.215-0.022,0.324-0.028c0.109-0.006,0.219-0.009,0.33-0.009c0.164,0,0.322,0.007,0.473,0.021s0.295,0.035,0.433,0.062
			c0.138,0.028,0.268,0.062,0.392,0.104c0.124,0.042,0.242,0.09,0.352,0.146c0.111,0.055,0.216,0.115,0.317,0.181
			c0.1,0.065,0.195,0.136,0.285,0.211c0.09,0.075,0.174,0.156,0.254,0.241c0.079,0.086,0.153,0.176,0.222,0.272
			c0.069,0.096,0.133,0.195,0.191,0.299c0.059,0.104,0.112,0.211,0.161,0.323c0.049,0.112,0.092,0.227,0.131,0.347
			c0.039,0.12,0.072,0.244,0.1,0.371c0.029,0.128,0.054,0.259,0.076,0.392c0.022,0.133,0.04,0.269,0.054,0.408
			s0.025,0.28,0.032,0.423c0.007,0.144,0.011,0.29,0.011,0.439v1.759v1.759v1.759v1.759h-0.212h-0.212h-0.212h-0.212l-0.028-0.355
			l-0.028-0.355l-0.028-0.355l-0.028-0.355h-0.012h-0.012h-0.012h-0.012c-0.142,0.111-0.286,0.218-0.432,0.323
			c-0.147,0.105-0.296,0.206-0.448,0.304s-0.306,0.194-0.463,0.286s-0.317,0.181-0.479,0.267c-0.162,0.086-0.327,0.162-0.495,0.226
			s-0.338,0.118-0.51,0.161s-0.348,0.075-0.526,0.097c-0.178,0.021-0.359,0.032-0.542,0.032c-0.111,0-0.22-0.004-0.326-0.011
			s-0.212-0.019-0.315-0.034c-0.103-0.015-0.204-0.034-0.304-0.057s-0.197-0.05-0.292-0.081c-0.096-0.03-0.188-0.065-0.279-0.103
			c-0.09-0.038-0.178-0.08-0.263-0.126c-0.085-0.046-0.167-0.096-0.247-0.149c-0.08-0.054-0.157-0.111-0.231-0.172
			c-0.075-0.061-0.145-0.126-0.212-0.195c-0.066-0.07-0.129-0.143-0.187-0.222s-0.112-0.161-0.162-0.248s-0.096-0.178-0.138-0.274
			c-0.042-0.096-0.079-0.195-0.111-0.3c-0.032-0.104-0.058-0.213-0.079-0.325c-0.021-0.113-0.037-0.23-0.047-0.351
			C52.093,17.726,52.088,17.601,52.088,17.471z M53.142,17.424c0,0.199,0.014,0.383,0.043,0.553c0.029,0.17,0.072,0.326,0.129,0.467
			c0.057,0.141,0.129,0.268,0.215,0.381c0.086,0.113,0.186,0.211,0.3,0.295c0.115,0.084,0.235,0.157,0.36,0.22
			c0.125,0.063,0.256,0.115,0.391,0.157s0.276,0.073,0.423,0.094s0.298,0.031,0.454,0.031c0.161,0,0.319-0.009,0.476-0.029
			s0.311-0.048,0.464-0.086c0.153-0.038,0.304-0.086,0.453-0.143c0.149-0.057,0.296-0.124,0.441-0.2
			c0.145-0.077,0.294-0.162,0.445-0.256c0.152-0.094,0.307-0.196,0.466-0.307c0.159-0.111,0.321-0.23,0.486-0.358
			c0.165-0.128,0.334-0.264,0.506-0.41v-0.934v-0.934v-0.934V14.1c-0.283,0.034-0.554,0.071-0.814,0.109
			c-0.26,0.038-0.509,0.079-0.747,0.121c-0.238,0.042-0.464,0.086-0.68,0.132c-0.215,0.046-0.42,0.094-0.613,0.143
			c-0.193,0.05-0.377,0.102-0.551,0.156c-0.174,0.054-0.339,0.111-0.495,0.17s-0.302,0.121-0.439,0.185s-0.265,0.13-0.383,0.199
			c-0.119,0.069-0.229,0.14-0.331,0.213s-0.195,0.15-0.28,0.228c-0.085,0.078-0.161,0.159-0.23,0.242
			c-0.068,0.083-0.128,0.169-0.18,0.257c-0.052,0.088-0.097,0.178-0.135,0.271s-0.071,0.188-0.097,0.285
			c-0.026,0.097-0.045,0.197-0.058,0.299S53.142,17.318,53.142,17.424z"/>
	</g>
	<g>
		<path d="M64.146,3.739h0.252h0.252h0.252h0.252v3.788v3.788v3.788v3.788c0,0.061,0.003,0.118,0.008,0.171
			c0.006,0.053,0.014,0.102,0.026,0.147c0.011,0.045,0.026,0.085,0.043,0.122c0.017,0.037,0.037,0.069,0.061,0.097
			c0.023,0.029,0.047,0.054,0.073,0.076c0.026,0.022,0.053,0.04,0.082,0.054c0.029,0.014,0.059,0.025,0.09,0.032
			c0.032,0.007,0.065,0.011,0.099,0.011c0.011,0,0.023,0,0.034,0c0.012,0,0.024,0,0.036,0s0.025,0,0.038,0s0.026,0,0.04,0
			c0.013,0,0.029-0.001,0.046-0.003c0.018-0.002,0.037-0.005,0.059-0.008c0.022-0.004,0.046-0.009,0.073-0.014
			s0.055-0.013,0.086-0.021l0.046,0.206l0.046,0.206l0.046,0.206l0.046,0.206c-0.026,0.008-0.053,0.015-0.079,0.022
			c-0.027,0.007-0.053,0.014-0.08,0.021c-0.027,0.007-0.053,0.013-0.08,0.02c-0.027,0.006-0.054,0.013-0.08,0.019
			c-0.027,0.006-0.055,0.01-0.086,0.015c-0.031,0.004-0.063,0.008-0.097,0.01s-0.071,0.005-0.109,0.006
			c-0.038,0.001-0.078,0.002-0.12,0.002c-0.225,0-0.423-0.036-0.592-0.109c-0.169-0.073-0.31-0.181-0.423-0.327
			c-0.113-0.145-0.197-0.327-0.254-0.545c-0.056-0.218-0.085-0.472-0.085-0.763V15v-3.754V7.492V3.739z"/>
	</g>
	<g>
		<path d="M68.96,17.471c0-0.302,0.036-0.586,0.107-0.853c0.072-0.267,0.179-0.516,0.322-0.747c0.143-0.231,0.322-0.445,0.537-0.641
			c0.215-0.196,0.466-0.374,0.752-0.534c0.287-0.16,0.614-0.309,0.982-0.447s0.776-0.264,1.225-0.378s0.938-0.218,1.468-0.31
			c0.53-0.092,1.101-0.172,1.712-0.241c0.004-0.103,0.005-0.206,0.003-0.31c-0.001-0.104-0.005-0.207-0.012-0.311
			c-0.007-0.104-0.016-0.208-0.028-0.313s-0.026-0.209-0.044-0.315s-0.038-0.207-0.063-0.307c-0.025-0.099-0.053-0.196-0.086-0.289
			c-0.032-0.094-0.069-0.184-0.109-0.272c-0.04-0.088-0.084-0.173-0.132-0.255c-0.048-0.082-0.101-0.16-0.158-0.235
			c-0.057-0.075-0.119-0.145-0.186-0.212s-0.138-0.13-0.215-0.189c-0.076-0.059-0.158-0.115-0.243-0.166
			c-0.086-0.052-0.178-0.097-0.276-0.135c-0.098-0.039-0.202-0.071-0.312-0.096c-0.11-0.026-0.226-0.045-0.347-0.058
			s-0.249-0.019-0.383-0.019c-0.187,0-0.37,0.009-0.549,0.027c-0.179,0.018-0.353,0.045-0.523,0.082
			c-0.17,0.036-0.336,0.082-0.497,0.136s-0.319,0.118-0.471,0.19c-0.153,0.073-0.298,0.145-0.435,0.217s-0.267,0.143-0.39,0.214
			c-0.122,0.071-0.237,0.141-0.344,0.211c-0.107,0.07-0.206,0.139-0.298,0.208l-0.115-0.189l-0.115-0.189l-0.115-0.189l-0.115-0.189
			c0.05-0.034,0.102-0.07,0.157-0.106c0.055-0.036,0.112-0.074,0.173-0.112c0.06-0.038,0.123-0.077,0.188-0.118
			s0.133-0.081,0.204-0.123c0.071-0.042,0.143-0.083,0.218-0.123c0.075-0.04,0.151-0.079,0.229-0.118
			c0.078-0.038,0.159-0.076,0.241-0.112s0.166-0.072,0.252-0.106c0.086-0.034,0.174-0.068,0.264-0.1
			c0.09-0.032,0.183-0.063,0.277-0.092c0.095-0.03,0.191-0.058,0.29-0.085c0.099-0.027,0.2-0.053,0.303-0.078
			s0.207-0.046,0.312-0.065c0.105-0.019,0.211-0.034,0.318-0.046c0.107-0.012,0.215-0.022,0.324-0.028s0.219-0.009,0.33-0.009
			c0.164,0,0.322,0.007,0.473,0.021s0.295,0.035,0.433,0.062c0.138,0.028,0.268,0.062,0.392,0.104
			c0.124,0.042,0.242,0.09,0.352,0.146c0.111,0.055,0.216,0.115,0.317,0.181c0.1,0.065,0.195,0.136,0.285,0.211
			c0.09,0.075,0.174,0.156,0.254,0.241c0.079,0.086,0.153,0.176,0.222,0.272c0.069,0.096,0.133,0.195,0.191,0.299
			c0.059,0.104,0.112,0.211,0.161,0.323c0.049,0.112,0.092,0.227,0.131,0.347c0.039,0.12,0.072,0.244,0.1,0.371
			c0.029,0.128,0.054,0.259,0.076,0.392c0.022,0.133,0.04,0.269,0.054,0.408s0.025,0.28,0.032,0.423
			c0.007,0.144,0.011,0.29,0.011,0.439v1.759v1.759v1.759v1.759h-0.212H76.65h-0.212h-0.212l-0.028-0.355l-0.028-0.355l-0.028-0.355
			l-0.028-0.355h-0.012h-0.012h-0.012h-0.012c-0.142,0.111-0.286,0.218-0.432,0.323c-0.147,0.105-0.296,0.206-0.448,0.304
			s-0.306,0.194-0.464,0.286s-0.317,0.181-0.479,0.267c-0.162,0.086-0.327,0.162-0.495,0.226c-0.168,0.065-0.338,0.118-0.51,0.161
			s-0.348,0.075-0.526,0.097c-0.178,0.021-0.359,0.032-0.542,0.032c-0.111,0-0.22-0.004-0.326-0.011
			c-0.107-0.008-0.212-0.019-0.315-0.034c-0.103-0.015-0.204-0.034-0.304-0.057s-0.197-0.05-0.292-0.081
			c-0.096-0.03-0.188-0.065-0.279-0.103c-0.09-0.038-0.178-0.08-0.263-0.126c-0.085-0.046-0.167-0.096-0.247-0.149
			c-0.08-0.054-0.157-0.111-0.231-0.172c-0.075-0.061-0.145-0.126-0.212-0.195c-0.066-0.07-0.129-0.143-0.187-0.222
			c-0.058-0.078-0.112-0.161-0.162-0.248s-0.096-0.178-0.138-0.274c-0.042-0.096-0.079-0.195-0.111-0.3
			c-0.032-0.104-0.058-0.213-0.079-0.325s-0.037-0.23-0.047-0.351C68.965,17.726,68.96,17.601,68.96,17.471z M70.014,17.424
			c0,0.199,0.014,0.383,0.043,0.553c0.029,0.17,0.072,0.326,0.129,0.467c0.057,0.141,0.129,0.268,0.215,0.381s0.186,0.211,0.3,0.295
			c0.115,0.084,0.235,0.157,0.36,0.22c0.125,0.063,0.256,0.115,0.391,0.157s0.276,0.073,0.423,0.094
			c0.146,0.021,0.298,0.031,0.454,0.031c0.161,0,0.319-0.009,0.476-0.029s0.311-0.048,0.464-0.086
			c0.153-0.038,0.304-0.086,0.453-0.143c0.149-0.057,0.296-0.124,0.441-0.2c0.145-0.077,0.294-0.162,0.445-0.256
			c0.152-0.094,0.307-0.196,0.466-0.307c0.159-0.111,0.321-0.23,0.486-0.358c0.165-0.128,0.334-0.264,0.506-0.41v-0.934v-0.934
			v-0.934V14.1c-0.283,0.034-0.554,0.071-0.814,0.109c-0.26,0.038-0.509,0.079-0.747,0.121c-0.238,0.042-0.464,0.086-0.68,0.132
			c-0.215,0.046-0.42,0.094-0.613,0.143c-0.193,0.05-0.377,0.102-0.551,0.156s-0.339,0.111-0.495,0.17
			c-0.156,0.059-0.302,0.121-0.439,0.185c-0.137,0.064-0.265,0.13-0.383,0.199c-0.119,0.069-0.229,0.14-0.331,0.213
			c-0.102,0.074-0.195,0.15-0.28,0.228c-0.085,0.078-0.161,0.159-0.23,0.242s-0.128,0.169-0.18,0.257
			c-0.052,0.088-0.097,0.178-0.135,0.271s-0.071,0.188-0.097,0.285c-0.026,0.097-0.045,0.197-0.058,0.299
			C70.02,17.213,70.014,17.318,70.014,17.424z"/>
	</g>
	<g>
		<path d="M81.018,9.219h0.218h0.218h0.218h0.218l0.023,0.424l0.023,0.424l0.023,0.424l0.023,0.424h0.017h0.017h0.017h0.017
			c0.142-0.142,0.284-0.277,0.427-0.407c0.143-0.13,0.288-0.253,0.433-0.371c0.145-0.118,0.291-0.229,0.438-0.335
			c0.147-0.106,0.295-0.205,0.444-0.299c0.149-0.094,0.303-0.175,0.462-0.246s0.324-0.129,0.494-0.175
			c0.17-0.047,0.345-0.082,0.526-0.105c0.18-0.023,0.366-0.035,0.557-0.035c0.287,0,0.554,0.021,0.803,0.064
			c0.248,0.043,0.478,0.107,0.688,0.193c0.21,0.086,0.401,0.193,0.573,0.322c0.172,0.129,0.325,0.279,0.458,0.451
			c0.134,0.172,0.251,0.367,0.351,0.586s0.184,0.461,0.251,0.726s0.117,0.554,0.15,0.867c0.033,0.312,0.05,0.648,0.05,1.008v1.765
			v1.765v1.765v1.765h-0.252h-0.252h-0.252h-0.252v-1.73v-1.73v-1.73v-1.73c0-0.294-0.012-0.569-0.036-0.825
			c-0.024-0.256-0.061-0.492-0.109-0.709s-0.109-0.415-0.182-0.593s-0.158-0.337-0.256-0.477c-0.098-0.139-0.211-0.261-0.341-0.365
			s-0.275-0.192-0.437-0.261c-0.161-0.07-0.339-0.122-0.532-0.157S85.85,9.86,85.625,9.86c-0.164,0-0.325,0.011-0.481,0.032
			c-0.157,0.022-0.309,0.054-0.458,0.097c-0.149,0.043-0.294,0.097-0.435,0.161c-0.141,0.065-0.279,0.14-0.413,0.226
			c-0.134,0.086-0.271,0.183-0.414,0.29s-0.289,0.225-0.44,0.354c-0.151,0.129-0.306,0.268-0.466,0.419
			c-0.159,0.15-0.323,0.311-0.491,0.483v2.075v2.075v2.075v2.075h-0.252h-0.252H81.27h-0.252V17.47V14.72v-2.751V9.219z"/>
	</g>
	<g>
		<path d="M92.295,14.743c0-0.229,0.009-0.453,0.026-0.67c0.017-0.217,0.043-0.429,0.078-0.634s0.078-0.405,0.129-0.598
			c0.052-0.193,0.112-0.381,0.181-0.562c0.069-0.181,0.143-0.356,0.223-0.522c0.08-0.167,0.166-0.326,0.258-0.478
			c0.092-0.152,0.189-0.296,0.292-0.434s0.212-0.267,0.327-0.389c0.114-0.122,0.233-0.237,0.357-0.345
			c0.124-0.108,0.252-0.209,0.384-0.302c0.133-0.094,0.27-0.18,0.412-0.26c0.142-0.079,0.288-0.152,0.44-0.217
			c0.151-0.065,0.304-0.121,0.459-0.17c0.155-0.049,0.312-0.089,0.472-0.121c0.159-0.032,0.321-0.057,0.485-0.073
			s0.33-0.024,0.498-0.024c0.191,0,0.374,0.009,0.55,0.026s0.343,0.043,0.502,0.077c0.159,0.034,0.311,0.077,0.455,0.129
			s0.28,0.112,0.407,0.18c0.128,0.069,0.251,0.14,0.37,0.213c0.119,0.074,0.233,0.15,0.343,0.228
			c0.11,0.078,0.215,0.159,0.316,0.242c0.101,0.083,0.197,0.169,0.288,0.257l-0.149,0.177l-0.149,0.177l-0.149,0.177l-0.149,0.177
			c-0.088-0.084-0.178-0.164-0.271-0.241c-0.093-0.077-0.188-0.15-0.285-0.22c-0.097-0.07-0.197-0.136-0.299-0.198
			c-0.102-0.063-0.207-0.121-0.313-0.177c-0.107-0.056-0.218-0.104-0.331-0.146c-0.114-0.042-0.231-0.076-0.351-0.104
			c-0.12-0.028-0.244-0.048-0.371-0.062c-0.127-0.014-0.258-0.021-0.392-0.021c-0.141,0-0.28,0.007-0.416,0.022
			c-0.136,0.015-0.27,0.037-0.4,0.067c-0.131,0.03-0.259,0.067-0.385,0.111c-0.126,0.044-0.249,0.096-0.369,0.155
			s-0.237,0.125-0.35,0.196c-0.113,0.072-0.222,0.149-0.327,0.233c-0.105,0.084-0.206,0.174-0.304,0.271
			c-0.097,0.097-0.191,0.199-0.28,0.309c-0.09,0.109-0.175,0.223-0.255,0.341c-0.08,0.119-0.156,0.243-0.227,0.372
			s-0.137,0.263-0.198,0.402c-0.061,0.139-0.118,0.283-0.169,0.431c-0.052,0.149-0.097,0.303-0.135,0.46
			c-0.039,0.158-0.071,0.32-0.096,0.486c-0.026,0.166-0.045,0.337-0.058,0.512s-0.019,0.354-0.019,0.538
			c0,0.179,0.006,0.355,0.018,0.527c0.012,0.172,0.03,0.34,0.054,0.504c0.024,0.164,0.054,0.325,0.089,0.481
			c0.036,0.157,0.077,0.31,0.125,0.459c0.048,0.149,0.101,0.292,0.158,0.431c0.057,0.138,0.119,0.272,0.186,0.4
			c0.067,0.128,0.138,0.251,0.215,0.368c0.076,0.117,0.158,0.23,0.243,0.336c0.086,0.107,0.177,0.208,0.272,0.303
			c0.096,0.095,0.196,0.184,0.301,0.267c0.105,0.083,0.215,0.16,0.329,0.231s0.234,0.136,0.358,0.195
			c0.124,0.059,0.252,0.111,0.382,0.155c0.13,0.044,0.264,0.081,0.401,0.111c0.137,0.03,0.276,0.052,0.419,0.067
			c0.143,0.015,0.288,0.022,0.437,0.022c0.145,0,0.288-0.008,0.428-0.023s0.277-0.038,0.412-0.069
			c0.135-0.03,0.267-0.069,0.396-0.114c0.13-0.046,0.256-0.099,0.381-0.16c0.124-0.061,0.245-0.126,0.362-0.194
			c0.117-0.068,0.23-0.139,0.34-0.214c0.11-0.075,0.216-0.153,0.318-0.234c0.103-0.081,0.202-0.166,0.297-0.254l0.132,0.172
			l0.132,0.172l0.132,0.172l0.132,0.172c-0.118,0.107-0.24,0.209-0.365,0.306s-0.254,0.19-0.385,0.278
			c-0.132,0.088-0.267,0.171-0.405,0.249c-0.138,0.078-0.28,0.152-0.425,0.221c-0.145,0.069-0.294,0.129-0.447,0.18
			c-0.153,0.052-0.31,0.095-0.47,0.129c-0.16,0.034-0.325,0.06-0.493,0.077c-0.168,0.017-0.34,0.026-0.515,0.026
			c-0.18,0-0.356-0.008-0.529-0.024s-0.341-0.041-0.507-0.073s-0.327-0.073-0.485-0.122c-0.158-0.049-0.312-0.106-0.463-0.171
			c-0.151-0.065-0.297-0.137-0.439-0.216c-0.142-0.079-0.278-0.165-0.41-0.259c-0.132-0.094-0.259-0.194-0.381-0.302
			c-0.122-0.108-0.24-0.223-0.353-0.345c-0.113-0.122-0.219-0.252-0.319-0.388c-0.1-0.136-0.194-0.279-0.282-0.429
			c-0.088-0.15-0.169-0.307-0.245-0.471c-0.075-0.164-0.145-0.335-0.208-0.513c-0.063-0.177-0.118-0.361-0.166-0.552
			c-0.047-0.19-0.087-0.387-0.118-0.591c-0.032-0.203-0.055-0.413-0.071-0.629C92.303,15.195,92.295,14.972,92.295,14.743z"/>
	</g>
	<g>
		<path d="M102.198,14.743c0-0.225,0.008-0.445,0.025-0.659c0.017-0.214,0.042-0.422,0.075-0.625s0.075-0.399,0.125-0.59
			s0.109-0.376,0.175-0.556c0.067-0.179,0.139-0.352,0.218-0.518c0.078-0.166,0.162-0.324,0.252-0.476s0.185-0.297,0.287-0.435
			c0.101-0.138,0.208-0.269,0.321-0.394c0.113-0.124,0.229-0.241,0.35-0.35c0.12-0.11,0.245-0.212,0.373-0.308
			c0.128-0.095,0.26-0.184,0.396-0.265s0.275-0.155,0.419-0.222c0.143-0.067,0.287-0.126,0.433-0.176
			c0.146-0.05,0.292-0.092,0.44-0.125c0.148-0.033,0.297-0.058,0.448-0.075c0.151-0.017,0.302-0.025,0.455-0.025
			c0.329,0,0.639,0.028,0.933,0.083c0.293,0.055,0.569,0.138,0.827,0.249c0.258,0.111,0.498,0.249,0.72,0.415
			c0.222,0.166,0.427,0.36,0.614,0.581c0.187,0.222,0.351,0.466,0.491,0.734c0.14,0.267,0.258,0.558,0.351,0.871
			c0.094,0.313,0.164,0.649,0.211,1.008c0.047,0.359,0.07,0.741,0.07,1.146c0,0.034,0,0.069,0,0.103c0,0.034,0,0.069,0,0.103
			c0,0.034,0,0.069,0,0.103c0,0.034,0,0.069,0,0.103c0,0.034-0.001,0.069-0.003,0.103c-0.002,0.034-0.005,0.069-0.009,0.103
			c-0.004,0.034-0.009,0.069-0.015,0.103c-0.006,0.034-0.012,0.069-0.02,0.103h-1.983h-1.983h-1.983h-1.983
			c0.004,0.172,0.013,0.341,0.028,0.507c0.015,0.166,0.036,0.329,0.063,0.488c0.027,0.16,0.059,0.316,0.097,0.469
			c0.038,0.153,0.082,0.303,0.132,0.45c0.05,0.147,0.104,0.289,0.164,0.426s0.125,0.268,0.194,0.394
			c0.07,0.126,0.145,0.247,0.225,0.363s0.165,0.226,0.255,0.331c0.09,0.105,0.184,0.204,0.282,0.298
			c0.099,0.094,0.202,0.181,0.31,0.263c0.108,0.082,0.22,0.158,0.338,0.229c0.117,0.071,0.239,0.135,0.365,0.195
			c0.126,0.059,0.256,0.111,0.389,0.155c0.134,0.044,0.271,0.081,0.412,0.111s0.286,0.052,0.435,0.067
			c0.149,0.015,0.302,0.022,0.458,0.022c0.149,0,0.295-0.005,0.437-0.016c0.142-0.011,0.28-0.027,0.415-0.049
			s0.266-0.049,0.393-0.082s0.251-0.071,0.372-0.115c0.12-0.044,0.239-0.091,0.355-0.143s0.23-0.108,0.342-0.168
			c0.112-0.06,0.222-0.124,0.329-0.193s0.213-0.141,0.316-0.217l0.103,0.195l0.103,0.195l0.103,0.195l0.103,0.195
			c-0.111,0.065-0.225,0.129-0.341,0.192c-0.116,0.063-0.235,0.125-0.356,0.186c-0.121,0.061-0.245,0.121-0.372,0.18
			c-0.127,0.059-0.256,0.117-0.388,0.174c-0.132,0.057-0.272,0.107-0.421,0.15c-0.149,0.043-0.308,0.079-0.475,0.107
			s-0.343,0.05-0.528,0.065c-0.185,0.014-0.379,0.022-0.581,0.022c-0.176,0-0.349-0.008-0.52-0.024s-0.338-0.041-0.504-0.073
			s-0.328-0.073-0.488-0.122c-0.16-0.049-0.317-0.106-0.472-0.171c-0.155-0.065-0.304-0.137-0.449-0.217
			c-0.145-0.08-0.284-0.167-0.419-0.261s-0.264-0.196-0.389-0.306c-0.125-0.109-0.244-0.226-0.359-0.35
			c-0.114-0.124-0.223-0.255-0.326-0.393c-0.103-0.138-0.199-0.282-0.29-0.433c-0.091-0.151-0.176-0.309-0.255-0.473
			c-0.079-0.164-0.152-0.335-0.218-0.513c-0.067-0.177-0.125-0.361-0.175-0.55s-0.092-0.385-0.125-0.586
			c-0.033-0.201-0.059-0.409-0.075-0.622C102.206,15.188,102.198,14.968,102.198,14.743z M110.244,14.078
			c0-0.355-0.018-0.689-0.054-1s-0.091-0.6-0.163-0.866c-0.072-0.267-0.163-0.511-0.272-0.733c-0.109-0.222-0.236-0.422-0.381-0.599
			c-0.146-0.177-0.304-0.333-0.475-0.466c-0.171-0.133-0.355-0.244-0.552-0.333c-0.197-0.089-0.406-0.156-0.629-0.2
			c-0.222-0.045-0.458-0.067-0.706-0.067c-0.118,0-0.235,0.006-0.351,0.019s-0.23,0.031-0.342,0.056
			c-0.113,0.025-0.224,0.056-0.334,0.093c-0.11,0.037-0.218,0.081-0.326,0.13c-0.107,0.05-0.211,0.104-0.313,0.165
			s-0.201,0.126-0.297,0.196s-0.19,0.147-0.282,0.228c-0.091,0.081-0.18,0.167-0.266,0.259c-0.086,0.092-0.168,0.189-0.246,0.291
			c-0.078,0.102-0.153,0.209-0.223,0.32c-0.071,0.112-0.137,0.228-0.2,0.35c-0.063,0.122-0.122,0.249-0.177,0.381
			c-0.056,0.132-0.106,0.268-0.151,0.408s-0.086,0.284-0.121,0.432s-0.066,0.3-0.091,0.456s-0.045,0.316-0.061,0.481h1.753h1.753
			h1.753H110.244z"/>
	</g>
</g>
</svg>
