<?xml version="1.0" encoding="utf-8"?>
<!-- Generator: Adobe Illustrator 19.1.0, SVG Export Plug-In . SVG Version: 6.00 Build 0)  -->
<svg version="1.1" id="Layer_1" xmlns="http://www.w3.org/2000/svg" xmlns:xlink="http://www.w3.org/1999/xlink" x="0px" y="0px"
	 viewBox="0 0 126.038 48.861" style="enable-background:new 0 0 126.038 48.861;" xml:space="preserve">
<style type="text/css">
	.st0{fill:#115C78;}
	.st1{fill-rule:evenodd;clip-rule:evenodd;fill:#4D4D4D;}
	.st2{fill:#4D4D4D;}
	.st3{fill-rule:evenodd;clip-rule:evenodd;}
	.st4{fill:#FFFFFF;}
	.st5{fill:none;}
	.st6{fill:none;stroke:#4D4D4D;stroke-width:0.3;stroke-miterlimit:10;}
	.st7{fill:#4D4D4D;stroke:#4D4D4D;stroke-width:0.1;stroke-miterlimit:10;}
	.st8{fill:#F0047F;}
	.st9{fill:none;stroke:#4D4D4D;stroke-width:0;stroke-linecap:round;stroke-linejoin:round;}
	.st10{fill:none;stroke:#4D4D4D;stroke-width:0.25;stroke-miterlimit:10;}
	.st11{fill:none;stroke:#4D4D4D;stroke-width:0.2;stroke-miterlimit:10;}
	.st12{fill:none;stroke:#4D4D4D;stroke-width:0.8;stroke-miterlimit:10;}
	.st13{fill:#4D4D4D;stroke:#4D4D4D;stroke-width:0.3;stroke-miterlimit:10;}
	.st14{fill:none;stroke:#4D4D4D;stroke-width:0.24;stroke-miterlimit:10;}
</style>
<g>
	<g>
		<path d="M11.904,24.647v-4.15v-4.15v-4.15v-4.15h0.694h0.694h0.694h0.694v3.474v3.474v3.474v3.474h0.963h0.963h0.963h0.963
			l-0.281,0.676l-0.281,0.676l-0.281,0.676l-0.281,0.676h-1.377h-1.377h-1.377H11.904z"/>
	</g>
	<g>
		<path d="M26.71,24.451l-0.092-0.4l-0.092-0.4l-0.092-0.4l-0.092-0.4h-0.039h-0.039h-0.039h-0.039
			c-0.069,0.142-0.146,0.276-0.229,0.403c-0.084,0.127-0.175,0.246-0.273,0.357s-0.204,0.215-0.317,0.312
			c-0.113,0.096-0.233,0.185-0.361,0.267c-0.128,0.081-0.26,0.152-0.397,0.212c-0.137,0.061-0.278,0.111-0.424,0.152
			c-0.146,0.041-0.297,0.071-0.452,0.091c-0.155,0.02-0.315,0.031-0.479,0.031c-0.28,0-0.543-0.024-0.788-0.071
			c-0.246-0.048-0.475-0.119-0.686-0.214c-0.212-0.095-0.406-0.214-0.584-0.357c-0.178-0.143-0.338-0.309-0.482-0.499
			c-0.144-0.19-0.269-0.404-0.377-0.642c-0.108-0.237-0.197-0.498-0.269-0.783c-0.072-0.285-0.126-0.593-0.162-0.924
			c-0.036-0.332-0.054-0.687-0.054-1.065v-2.034v-2.034v-2.034v-2.034h0.753h0.753h0.753h0.753v1.855v1.855v1.855v1.855
			c0,0.227,0.007,0.441,0.02,0.641c0.014,0.2,0.034,0.385,0.061,0.557s0.061,0.329,0.101,0.473s0.088,0.273,0.142,0.389
			s0.116,0.217,0.187,0.303c0.071,0.087,0.15,0.159,0.238,0.217c0.088,0.058,0.184,0.101,0.288,0.13
			c0.104,0.029,0.217,0.043,0.338,0.043c0.16,0,0.31-0.02,0.448-0.06c0.139-0.04,0.267-0.1,0.384-0.181
			c0.117-0.08,0.223-0.181,0.319-0.301s0.18-0.261,0.253-0.421c0.074-0.16,0.139-0.348,0.194-0.563
			c0.055-0.215,0.102-0.457,0.138-0.727c0.037-0.27,0.065-0.567,0.083-0.891c0.018-0.324,0.028-0.676,0.028-1.054v-1.494v-1.494
			v-1.494v-1.494h0.753h0.753h0.753h0.753V15.1v3.117v3.117v3.117h-0.596h-0.596h-0.596H26.71z"/>
	</g>
	<g>
		<path d="M33.739,18.083l-0.778-1.525l-0.778-1.525l-0.778-1.525l-0.778-1.525h0.772h0.772h0.772h0.772l0.414,0.951l0.414,0.951
			l0.414,0.951l0.414,0.951l0.383-0.951l0.383-0.951l0.383-0.951l0.383-0.951h0.767h0.767h0.767h0.767l-0.783,1.525l-0.783,1.525
			l-0.783,1.525l-0.783,1.525l0.817,1.592l0.817,1.592l0.817,1.592l0.817,1.592h-0.778h-0.778h-0.778h-0.778l-0.442-0.996
			l-0.442-0.996l-0.442-0.996l-0.442-0.996l-0.411,0.996l-0.411,0.996l-0.411,0.996l-0.411,0.996h-0.775h-0.775h-0.775h-0.775
			l0.814-1.592l0.814-1.592l0.814-1.592L33.739,18.083z"/>
	</g>
	<g>
		<path d="M42.499,9.346h1.02h1.02h1.02h1.02c0.382,0,0.745,0.018,1.088,0.055c0.343,0.037,0.666,0.092,0.97,0.165
			c0.304,0.074,0.588,0.165,0.853,0.276c0.265,0.11,0.51,0.239,0.735,0.386c0.225,0.147,0.423,0.315,0.592,0.505
			c0.169,0.19,0.31,0.4,0.423,0.632c0.113,0.232,0.197,0.485,0.254,0.76c0.056,0.274,0.085,0.57,0.085,0.887
			c0,0.199-0.014,0.391-0.042,0.577c-0.028,0.186-0.07,0.365-0.127,0.538c-0.056,0.173-0.127,0.34-0.211,0.5
			s-0.183,0.314-0.296,0.461c-0.113,0.147-0.239,0.283-0.379,0.407c-0.14,0.125-0.293,0.238-0.461,0.34
			c-0.167,0.102-0.348,0.193-0.543,0.273c-0.194,0.08-0.403,0.148-0.625,0.206v0.023v0.023v0.023v0.023
			c0.279,0.042,0.543,0.098,0.793,0.167c0.249,0.069,0.484,0.152,0.704,0.249c0.22,0.097,0.425,0.207,0.615,0.33
			c0.19,0.124,0.365,0.261,0.526,0.412c0.16,0.151,0.301,0.316,0.421,0.495c0.12,0.179,0.221,0.372,0.301,0.579
			c0.08,0.207,0.14,0.428,0.181,0.664s0.06,0.485,0.06,0.748c0,0.183-0.008,0.361-0.025,0.533c-0.017,0.172-0.042,0.338-0.075,0.499
			s-0.075,0.315-0.125,0.465c-0.05,0.149-0.109,0.292-0.175,0.43s-0.141,0.269-0.221,0.395c-0.081,0.126-0.168,0.246-0.263,0.361
			s-0.196,0.223-0.304,0.327c-0.108,0.103-0.223,0.201-0.345,0.293c-0.122,0.092-0.251,0.177-0.386,0.258
			c-0.135,0.08-0.276,0.155-0.423,0.223c-0.147,0.069-0.3,0.132-0.46,0.189c-0.159,0.057-0.325,0.109-0.497,0.155
			c-0.172,0.046-0.349,0.086-0.532,0.121c-0.182,0.034-0.37,0.063-0.563,0.086c-0.193,0.023-0.391,0.04-0.595,0.051
			c-0.203,0.011-0.412,0.017-0.626,0.017h-1.094h-1.094h-1.094h-1.094v-3.776v-3.776v-3.776V9.346z M46.166,15.993
			c0.39,0,0.752-0.015,1.086-0.046c0.334-0.031,0.641-0.078,0.92-0.14s0.53-0.14,0.754-0.233c0.223-0.093,0.419-0.202,0.587-0.326
			c0.168-0.124,0.315-0.264,0.442-0.42c0.126-0.156,0.231-0.328,0.315-0.516s0.147-0.392,0.189-0.613
			c0.042-0.22,0.063-0.456,0.063-0.709c0-0.245-0.022-0.472-0.067-0.683c-0.045-0.211-0.112-0.404-0.202-0.581
			c-0.09-0.177-0.202-0.336-0.337-0.479c-0.135-0.143-0.292-0.268-0.472-0.377c-0.179-0.109-0.38-0.204-0.601-0.286
			s-0.464-0.15-0.728-0.204c-0.264-0.055-0.548-0.096-0.854-0.123s-0.632-0.041-0.98-0.041h-0.682h-0.682h-0.682h-0.682v1.444v1.444
			v1.444v1.444h0.653h0.653h0.653H46.166z M46.602,23.58c0.378,0,0.736-0.018,1.074-0.053c0.338-0.035,0.655-0.088,0.952-0.159
			s0.574-0.159,0.83-0.265c0.256-0.106,0.493-0.229,0.708-0.371c0.216-0.142,0.405-0.304,0.567-0.486
			c0.162-0.183,0.297-0.386,0.405-0.609s0.189-0.468,0.243-0.732c0.054-0.265,0.081-0.55,0.081-0.856
			c0-0.271-0.026-0.525-0.079-0.761c-0.053-0.236-0.131-0.455-0.237-0.657c-0.105-0.201-0.237-0.386-0.394-0.552
			s-0.342-0.316-0.552-0.448c-0.21-0.132-0.442-0.247-0.697-0.346c-0.255-0.099-0.532-0.181-0.832-0.247s-0.622-0.115-0.967-0.148
			c-0.345-0.033-0.712-0.049-1.102-0.049H45.84h-0.762h-0.762h-0.762v1.685v1.685v1.685v1.685h0.762h0.762h0.762H46.602z"/>
	</g>
	<g>
		<path d="M55.014,21.701c0-0.302,0.036-0.586,0.107-0.853c0.072-0.267,0.179-0.516,0.322-0.747
			c0.143-0.231,0.322-0.445,0.537-0.641s0.466-0.374,0.752-0.534c0.287-0.16,0.614-0.309,0.982-0.447
			c0.368-0.137,0.776-0.264,1.225-0.378c0.449-0.115,0.938-0.218,1.468-0.31c0.53-0.092,1.101-0.172,1.712-0.241
			c0.004-0.103,0.005-0.206,0.003-0.31s-0.005-0.207-0.012-0.311c-0.007-0.104-0.016-0.208-0.028-0.313
			c-0.012-0.105-0.026-0.209-0.044-0.315c-0.017-0.105-0.038-0.207-0.063-0.307c-0.025-0.099-0.053-0.196-0.086-0.289
			c-0.032-0.094-0.069-0.184-0.109-0.272c-0.04-0.088-0.084-0.173-0.132-0.255c-0.048-0.082-0.101-0.16-0.158-0.235
			c-0.057-0.075-0.119-0.145-0.186-0.212c-0.067-0.067-0.138-0.13-0.215-0.189c-0.076-0.059-0.158-0.115-0.243-0.166
			c-0.086-0.052-0.178-0.097-0.276-0.135c-0.098-0.039-0.202-0.071-0.312-0.096c-0.11-0.026-0.226-0.045-0.347-0.058
			c-0.122-0.013-0.249-0.019-0.383-0.019c-0.187,0-0.37,0.009-0.549,0.027c-0.179,0.018-0.353,0.045-0.523,0.082
			c-0.17,0.036-0.336,0.082-0.497,0.136c-0.161,0.054-0.319,0.118-0.471,0.19c-0.153,0.073-0.298,0.145-0.435,0.217
			c-0.137,0.072-0.267,0.143-0.39,0.214c-0.122,0.071-0.237,0.141-0.344,0.211s-0.206,0.139-0.298,0.208l-0.115-0.189l-0.115-0.189
			l-0.115-0.189l-0.115-0.189c0.05-0.034,0.102-0.07,0.157-0.106c0.055-0.036,0.112-0.074,0.173-0.112
			c0.06-0.038,0.123-0.077,0.188-0.118c0.065-0.04,0.133-0.081,0.204-0.123c0.071-0.042,0.143-0.083,0.218-0.123
			s0.151-0.079,0.229-0.118c0.078-0.038,0.159-0.076,0.241-0.112s0.166-0.072,0.252-0.106c0.086-0.034,0.174-0.068,0.264-0.1
			c0.09-0.032,0.183-0.063,0.277-0.092s0.191-0.058,0.29-0.085c0.099-0.027,0.2-0.053,0.303-0.078
			c0.103-0.025,0.207-0.046,0.312-0.065c0.105-0.019,0.211-0.034,0.318-0.046s0.215-0.022,0.324-0.028
			c0.109-0.006,0.219-0.009,0.33-0.009c0.164,0,0.322,0.007,0.473,0.021s0.295,0.035,0.433,0.062
			c0.138,0.028,0.268,0.062,0.392,0.104c0.124,0.042,0.242,0.09,0.352,0.146c0.111,0.055,0.216,0.115,0.317,0.181
			c0.1,0.065,0.195,0.136,0.285,0.211c0.09,0.075,0.174,0.156,0.254,0.241c0.079,0.086,0.153,0.176,0.222,0.272
			c0.069,0.096,0.133,0.195,0.191,0.299c0.059,0.104,0.112,0.211,0.161,0.323c0.049,0.112,0.092,0.227,0.131,0.347
			c0.039,0.12,0.072,0.244,0.1,0.371c0.029,0.128,0.054,0.259,0.076,0.392c0.022,0.133,0.04,0.269,0.054,0.408
			c0.014,0.139,0.025,0.28,0.032,0.423c0.007,0.144,0.011,0.29,0.011,0.439v1.759v1.759v1.759v1.759h-0.212h-0.212h-0.212H62.28
			l-0.028-0.355l-0.028-0.355l-0.028-0.355l-0.028-0.355h-0.012h-0.012h-0.012H62.12c-0.142,0.111-0.286,0.218-0.432,0.323
			c-0.147,0.105-0.296,0.206-0.448,0.304c-0.152,0.098-0.306,0.194-0.463,0.286s-0.317,0.181-0.479,0.267
			c-0.162,0.086-0.327,0.162-0.495,0.226c-0.168,0.065-0.338,0.118-0.51,0.161c-0.173,0.043-0.348,0.075-0.526,0.097
			s-0.359,0.032-0.542,0.032c-0.111,0-0.22-0.004-0.326-0.011s-0.212-0.019-0.315-0.034c-0.103-0.015-0.204-0.034-0.304-0.057
			c-0.099-0.023-0.197-0.05-0.292-0.081c-0.096-0.03-0.188-0.065-0.279-0.103c-0.09-0.038-0.178-0.08-0.263-0.126
			c-0.085-0.046-0.167-0.096-0.247-0.149c-0.08-0.054-0.157-0.111-0.231-0.172c-0.075-0.061-0.145-0.126-0.212-0.195
			c-0.066-0.07-0.129-0.143-0.187-0.222s-0.112-0.161-0.162-0.248c-0.05-0.087-0.096-0.178-0.138-0.274
			c-0.042-0.096-0.079-0.195-0.111-0.3c-0.032-0.104-0.058-0.213-0.079-0.325c-0.021-0.113-0.037-0.23-0.047-0.351
			C55.02,21.957,55.014,21.831,55.014,21.701z M56.068,21.655c0,0.199,0.014,0.383,0.043,0.553c0.029,0.17,0.072,0.326,0.129,0.467
			c0.057,0.141,0.129,0.268,0.215,0.381c0.086,0.113,0.186,0.211,0.3,0.295c0.115,0.084,0.235,0.157,0.36,0.22
			c0.125,0.063,0.256,0.115,0.391,0.157c0.136,0.042,0.276,0.073,0.423,0.094c0.146,0.021,0.298,0.031,0.454,0.031
			c0.161,0,0.319-0.009,0.476-0.029s0.311-0.048,0.464-0.086c0.153-0.038,0.304-0.086,0.453-0.143
			c0.149-0.057,0.296-0.124,0.441-0.2c0.145-0.077,0.294-0.162,0.445-0.256c0.152-0.094,0.307-0.196,0.466-0.307
			c0.159-0.111,0.321-0.23,0.486-0.358s0.334-0.264,0.506-0.41v-0.934v-0.934v-0.934v-0.934c-0.283,0.034-0.554,0.071-0.814,0.109
			c-0.26,0.038-0.509,0.079-0.747,0.121c-0.238,0.042-0.465,0.086-0.68,0.132c-0.215,0.046-0.42,0.094-0.613,0.143
			c-0.193,0.05-0.377,0.102-0.551,0.156c-0.174,0.054-0.339,0.111-0.495,0.17c-0.156,0.059-0.302,0.121-0.439,0.185
			c-0.137,0.064-0.265,0.13-0.383,0.199c-0.119,0.069-0.229,0.14-0.331,0.213c-0.102,0.074-0.195,0.15-0.28,0.228
			c-0.085,0.078-0.161,0.159-0.23,0.242c-0.068,0.083-0.128,0.169-0.18,0.257c-0.052,0.088-0.097,0.178-0.135,0.271
			c-0.039,0.093-0.071,0.188-0.097,0.285s-0.045,0.197-0.058,0.299S56.068,21.548,56.068,21.655z"/>
	</g>
	<g>
		<path d="M67.072,7.969h0.252h0.252h0.252h0.252v3.788v3.788v3.788v3.788c0,0.061,0.003,0.118,0.008,0.171s0.014,0.102,0.026,0.147
			s0.026,0.085,0.043,0.122c0.017,0.037,0.037,0.069,0.061,0.097c0.023,0.029,0.047,0.054,0.073,0.076
			c0.026,0.022,0.053,0.04,0.082,0.054c0.029,0.014,0.059,0.025,0.09,0.032c0.032,0.007,0.065,0.011,0.099,0.011
			c0.011,0,0.023,0,0.034,0c0.012,0,0.024,0,0.036,0s0.025,0,0.038,0s0.026,0,0.04,0c0.013,0,0.029-0.001,0.046-0.003
			c0.018-0.002,0.037-0.005,0.059-0.008c0.022-0.004,0.046-0.009,0.073-0.014s0.055-0.013,0.086-0.021l0.046,0.206l0.046,0.206
			l0.046,0.206l0.046,0.206c-0.026,0.008-0.053,0.015-0.079,0.022s-0.053,0.014-0.08,0.021c-0.027,0.007-0.053,0.013-0.08,0.02
			s-0.054,0.013-0.08,0.019c-0.027,0.006-0.055,0.01-0.086,0.015c-0.031,0.004-0.063,0.008-0.097,0.01s-0.071,0.005-0.109,0.006
			c-0.038,0.001-0.078,0.002-0.12,0.002c-0.225,0-0.423-0.036-0.592-0.109c-0.169-0.073-0.31-0.181-0.423-0.327
			c-0.113-0.145-0.197-0.327-0.254-0.545c-0.056-0.218-0.085-0.472-0.085-0.763V19.23v-3.754v-3.754V7.969z"/>
	</g>
	<g>
		<path d="M71.887,21.701c0-0.302,0.036-0.586,0.107-0.853c0.072-0.267,0.179-0.516,0.322-0.747
			c0.143-0.231,0.322-0.445,0.537-0.641s0.466-0.374,0.752-0.534s0.614-0.309,0.982-0.447c0.368-0.137,0.776-0.264,1.225-0.378
			c0.449-0.115,0.938-0.218,1.468-0.31s1.101-0.172,1.712-0.241c0.004-0.103,0.005-0.206,0.003-0.31
			c-0.001-0.104-0.005-0.207-0.012-0.311c-0.007-0.104-0.016-0.208-0.028-0.313c-0.012-0.105-0.026-0.209-0.044-0.315
			s-0.038-0.207-0.063-0.307c-0.025-0.099-0.053-0.196-0.086-0.289c-0.032-0.094-0.069-0.184-0.109-0.272
			c-0.04-0.088-0.084-0.173-0.132-0.255c-0.048-0.082-0.101-0.16-0.158-0.235c-0.057-0.075-0.119-0.145-0.186-0.212
			c-0.067-0.067-0.138-0.13-0.215-0.189c-0.076-0.059-0.158-0.115-0.243-0.166s-0.178-0.097-0.276-0.135
			c-0.098-0.039-0.202-0.071-0.312-0.096c-0.11-0.026-0.226-0.045-0.347-0.058c-0.122-0.013-0.249-0.019-0.383-0.019
			c-0.187,0-0.37,0.009-0.549,0.027c-0.179,0.018-0.353,0.045-0.523,0.082c-0.17,0.036-0.336,0.082-0.497,0.136
			c-0.161,0.054-0.319,0.118-0.471,0.19c-0.153,0.073-0.298,0.145-0.435,0.217c-0.137,0.072-0.267,0.143-0.39,0.214
			c-0.122,0.071-0.237,0.141-0.344,0.211c-0.107,0.07-0.206,0.139-0.298,0.208l-0.115-0.189l-0.115-0.189l-0.115-0.189l-0.115-0.189
			c0.05-0.034,0.102-0.07,0.157-0.106c0.055-0.036,0.112-0.074,0.173-0.112c0.06-0.038,0.123-0.077,0.188-0.118
			c0.065-0.04,0.133-0.081,0.204-0.123c0.071-0.042,0.143-0.083,0.218-0.123s0.151-0.079,0.229-0.118
			c0.078-0.038,0.159-0.076,0.241-0.112s0.166-0.072,0.252-0.106c0.086-0.034,0.174-0.068,0.264-0.1
			c0.09-0.032,0.183-0.063,0.277-0.092s0.191-0.058,0.29-0.085c0.099-0.027,0.2-0.053,0.303-0.078s0.207-0.046,0.312-0.065
			c0.105-0.019,0.211-0.034,0.318-0.046c0.107-0.012,0.215-0.022,0.324-0.028s0.219-0.009,0.33-0.009
			c0.164,0,0.322,0.007,0.473,0.021s0.295,0.035,0.433,0.062c0.138,0.028,0.268,0.062,0.392,0.104
			c0.124,0.042,0.242,0.09,0.352,0.146c0.111,0.055,0.216,0.115,0.317,0.181c0.1,0.065,0.195,0.136,0.285,0.211
			c0.09,0.075,0.174,0.156,0.254,0.241c0.079,0.086,0.153,0.176,0.222,0.272c0.069,0.096,0.133,0.195,0.191,0.299
			c0.059,0.104,0.112,0.211,0.161,0.323c0.049,0.112,0.092,0.227,0.131,0.347c0.039,0.12,0.072,0.244,0.1,0.371
			c0.029,0.128,0.054,0.259,0.076,0.392c0.022,0.133,0.04,0.269,0.054,0.408s0.025,0.28,0.032,0.423
			c0.007,0.144,0.011,0.29,0.011,0.439v1.759v1.759v1.759v1.759h-0.212h-0.212h-0.212h-0.212l-0.028-0.355l-0.028-0.355
			l-0.028-0.355l-0.028-0.355h-0.012h-0.012h-0.012h-0.012c-0.142,0.111-0.286,0.218-0.432,0.323s-0.296,0.206-0.448,0.304
			c-0.152,0.098-0.306,0.194-0.464,0.286s-0.317,0.181-0.479,0.267c-0.162,0.086-0.327,0.162-0.495,0.226
			c-0.168,0.065-0.338,0.118-0.51,0.161c-0.173,0.043-0.348,0.075-0.526,0.097s-0.359,0.032-0.542,0.032
			c-0.111,0-0.22-0.004-0.326-0.011c-0.107-0.008-0.212-0.019-0.315-0.034c-0.103-0.015-0.204-0.034-0.304-0.057
			c-0.099-0.023-0.197-0.05-0.292-0.081c-0.096-0.03-0.188-0.065-0.279-0.103s-0.178-0.08-0.263-0.126s-0.167-0.096-0.247-0.149
			c-0.08-0.054-0.157-0.111-0.231-0.172c-0.075-0.061-0.145-0.126-0.212-0.195c-0.066-0.07-0.129-0.143-0.187-0.222
			c-0.058-0.078-0.112-0.161-0.162-0.248c-0.05-0.087-0.096-0.178-0.138-0.274c-0.042-0.096-0.079-0.195-0.111-0.3
			c-0.032-0.104-0.058-0.213-0.079-0.325c-0.021-0.113-0.037-0.23-0.047-0.351S71.887,21.831,71.887,21.701z M72.94,21.655
			c0,0.199,0.014,0.383,0.043,0.553s0.072,0.326,0.129,0.467c0.057,0.141,0.129,0.268,0.215,0.381s0.186,0.211,0.3,0.295
			c0.115,0.084,0.235,0.157,0.36,0.22c0.125,0.063,0.256,0.115,0.391,0.157c0.136,0.042,0.276,0.073,0.423,0.094
			c0.146,0.021,0.298,0.031,0.454,0.031c0.161,0,0.319-0.009,0.476-0.029s0.311-0.048,0.464-0.086
			c0.153-0.038,0.304-0.086,0.453-0.143c0.149-0.057,0.296-0.124,0.441-0.2c0.145-0.077,0.294-0.162,0.445-0.256
			s0.307-0.196,0.466-0.307c0.159-0.111,0.321-0.23,0.486-0.358s0.334-0.264,0.506-0.41v-0.934v-0.934v-0.934v-0.934
			c-0.283,0.034-0.554,0.071-0.814,0.109s-0.509,0.079-0.747,0.121c-0.238,0.042-0.464,0.086-0.68,0.132
			c-0.215,0.046-0.42,0.094-0.613,0.143c-0.193,0.05-0.377,0.102-0.551,0.156s-0.339,0.111-0.495,0.17
			c-0.156,0.059-0.302,0.121-0.439,0.185c-0.137,0.064-0.265,0.13-0.383,0.199c-0.119,0.069-0.229,0.14-0.331,0.213
			c-0.102,0.074-0.195,0.15-0.28,0.228c-0.085,0.078-0.161,0.159-0.23,0.242s-0.128,0.169-0.18,0.257
			c-0.052,0.088-0.097,0.178-0.135,0.271c-0.039,0.093-0.071,0.188-0.097,0.285s-0.045,0.197-0.058,0.299
			C72.947,21.444,72.94,21.548,72.94,21.655z"/>
	</g>
	<g>
		<path d="M83.944,13.449h0.218h0.218h0.218h0.218l0.023,0.424l0.023,0.424l0.023,0.424l0.023,0.424h0.017h0.017h0.017h0.017
			c0.142-0.142,0.284-0.277,0.427-0.407c0.143-0.13,0.288-0.253,0.433-0.371c0.145-0.118,0.291-0.229,0.438-0.335
			c0.147-0.106,0.295-0.205,0.444-0.299c0.149-0.094,0.303-0.175,0.462-0.246s0.324-0.129,0.494-0.175
			c0.17-0.047,0.345-0.082,0.526-0.105c0.18-0.023,0.366-0.035,0.557-0.035c0.287,0,0.554,0.021,0.803,0.064
			c0.248,0.043,0.478,0.107,0.688,0.193c0.21,0.086,0.401,0.193,0.573,0.322c0.172,0.129,0.325,0.279,0.458,0.451
			c0.134,0.172,0.251,0.367,0.351,0.586s0.184,0.461,0.251,0.726s0.117,0.554,0.15,0.867c0.033,0.312,0.05,0.648,0.05,1.008v1.765
			v1.765v1.765v1.765h-0.252h-0.252h-0.252h-0.252v-1.73v-1.73v-1.73v-1.73c0-0.294-0.012-0.569-0.036-0.825
			c-0.024-0.256-0.061-0.492-0.109-0.709c-0.049-0.217-0.109-0.415-0.182-0.593c-0.073-0.178-0.158-0.337-0.256-0.477
			c-0.098-0.139-0.211-0.261-0.341-0.365s-0.275-0.192-0.437-0.261s-0.339-0.122-0.532-0.157c-0.193-0.035-0.403-0.052-0.628-0.052
			c-0.164,0-0.325,0.011-0.481,0.032s-0.309,0.054-0.458,0.097s-0.294,0.097-0.435,0.161c-0.141,0.065-0.279,0.14-0.413,0.226
			c-0.134,0.086-0.271,0.183-0.414,0.29s-0.289,0.225-0.44,0.354c-0.151,0.129-0.306,0.268-0.466,0.419
			c-0.159,0.15-0.323,0.311-0.491,0.483v2.075v2.075v2.075v2.075h-0.252h-0.252h-0.252h-0.252v-2.751V18.95V16.2V13.449z"/>
	</g>
	<g>
		<path d="M95.222,18.973c0-0.229,0.009-0.453,0.026-0.67s0.043-0.429,0.078-0.634c0.034-0.205,0.078-0.405,0.129-0.598
			c0.052-0.193,0.112-0.381,0.181-0.562c0.069-0.181,0.143-0.356,0.223-0.522s0.166-0.326,0.258-0.478
			c0.092-0.152,0.189-0.296,0.292-0.434s0.212-0.267,0.327-0.389c0.114-0.122,0.233-0.237,0.357-0.345
			c0.124-0.108,0.252-0.209,0.384-0.302c0.133-0.094,0.27-0.18,0.412-0.26c0.142-0.079,0.288-0.152,0.44-0.217
			c0.151-0.065,0.304-0.121,0.459-0.17c0.155-0.049,0.312-0.089,0.472-0.121c0.16-0.032,0.321-0.057,0.485-0.073
			c0.164-0.016,0.33-0.024,0.498-0.024c0.191,0,0.374,0.009,0.55,0.026c0.175,0.017,0.343,0.043,0.502,0.077
			c0.16,0.034,0.311,0.077,0.455,0.129c0.144,0.052,0.28,0.112,0.407,0.18c0.128,0.069,0.251,0.14,0.37,0.213
			c0.119,0.074,0.233,0.15,0.343,0.228c0.11,0.078,0.215,0.159,0.316,0.242c0.101,0.083,0.197,0.169,0.288,0.257l-0.149,0.177
			l-0.149,0.177l-0.149,0.177l-0.149,0.177c-0.088-0.084-0.178-0.164-0.271-0.241c-0.093-0.077-0.188-0.15-0.285-0.22
			c-0.097-0.07-0.197-0.136-0.299-0.198c-0.102-0.063-0.207-0.121-0.313-0.177c-0.107-0.056-0.218-0.104-0.331-0.146
			c-0.114-0.042-0.231-0.076-0.351-0.104c-0.12-0.028-0.244-0.048-0.371-0.062s-0.258-0.021-0.392-0.021
			c-0.141,0-0.28,0.007-0.416,0.022s-0.27,0.037-0.4,0.067c-0.131,0.03-0.259,0.067-0.385,0.111
			c-0.126,0.044-0.249,0.096-0.369,0.155s-0.237,0.125-0.35,0.196c-0.113,0.072-0.222,0.149-0.327,0.233
			c-0.105,0.084-0.206,0.174-0.304,0.271c-0.097,0.097-0.191,0.199-0.28,0.309c-0.09,0.109-0.175,0.223-0.255,0.341
			c-0.08,0.119-0.156,0.243-0.227,0.372s-0.137,0.263-0.198,0.402c-0.061,0.139-0.118,0.283-0.169,0.431
			c-0.052,0.149-0.097,0.303-0.135,0.46s-0.071,0.32-0.096,0.486c-0.026,0.166-0.045,0.337-0.058,0.512
			c-0.013,0.175-0.019,0.354-0.019,0.538c0,0.179,0.006,0.355,0.018,0.527c0.012,0.172,0.03,0.34,0.054,0.504
			s0.054,0.325,0.089,0.481s0.077,0.31,0.125,0.459c0.048,0.149,0.101,0.292,0.158,0.431c0.057,0.138,0.119,0.272,0.186,0.4
			c0.067,0.128,0.138,0.251,0.215,0.368c0.076,0.117,0.158,0.23,0.243,0.336c0.086,0.107,0.177,0.208,0.272,0.303
			s0.196,0.184,0.301,0.267s0.215,0.16,0.329,0.231s0.234,0.136,0.358,0.195c0.124,0.059,0.252,0.111,0.382,0.155
			s0.264,0.081,0.401,0.111s0.276,0.052,0.419,0.067c0.143,0.015,0.288,0.022,0.437,0.022c0.145,0,0.288-0.008,0.428-0.023
			s0.277-0.038,0.412-0.069c0.135-0.03,0.267-0.069,0.396-0.114s0.256-0.099,0.381-0.16c0.124-0.061,0.245-0.126,0.362-0.194
			s0.23-0.139,0.34-0.214c0.11-0.075,0.216-0.153,0.318-0.234c0.103-0.081,0.202-0.166,0.297-0.254l0.132,0.172l0.132,0.172
			l0.132,0.172l0.132,0.172c-0.118,0.107-0.24,0.209-0.365,0.306c-0.125,0.097-0.254,0.19-0.385,0.278
			c-0.132,0.088-0.267,0.171-0.405,0.249c-0.138,0.078-0.28,0.152-0.425,0.221c-0.145,0.069-0.294,0.129-0.447,0.18
			c-0.153,0.052-0.31,0.095-0.47,0.129c-0.16,0.034-0.325,0.06-0.493,0.077c-0.168,0.017-0.34,0.026-0.515,0.026
			c-0.18,0-0.356-0.008-0.529-0.024s-0.341-0.041-0.507-0.073c-0.165-0.032-0.327-0.073-0.485-0.122
			c-0.158-0.049-0.312-0.106-0.463-0.171c-0.151-0.065-0.297-0.137-0.439-0.216s-0.278-0.165-0.41-0.259s-0.259-0.194-0.381-0.302
			s-0.24-0.223-0.353-0.345c-0.113-0.122-0.219-0.252-0.319-0.388c-0.1-0.136-0.194-0.279-0.282-0.429
			c-0.088-0.15-0.169-0.307-0.245-0.471s-0.145-0.335-0.208-0.513c-0.063-0.177-0.118-0.361-0.166-0.552s-0.087-0.387-0.118-0.591
			s-0.055-0.413-0.071-0.629C95.23,19.425,95.222,19.203,95.222,18.973z"/>
	</g>
	<g>
		<path d="M105.124,18.973c0-0.225,0.008-0.445,0.025-0.659c0.017-0.214,0.042-0.422,0.075-0.625
			c0.033-0.203,0.075-0.399,0.125-0.59c0.05-0.191,0.109-0.376,0.175-0.556c0.067-0.179,0.139-0.352,0.218-0.518
			c0.078-0.166,0.162-0.324,0.252-0.476c0.09-0.152,0.185-0.297,0.287-0.435c0.101-0.138,0.208-0.269,0.321-0.394
			c0.113-0.124,0.229-0.241,0.35-0.35c0.12-0.11,0.245-0.212,0.373-0.308s0.26-0.184,0.396-0.265s0.275-0.155,0.419-0.222
			c0.143-0.067,0.287-0.126,0.433-0.176s0.292-0.092,0.44-0.125c0.148-0.033,0.297-0.058,0.448-0.075
			c0.151-0.017,0.302-0.025,0.455-0.025c0.329,0,0.639,0.028,0.933,0.083c0.293,0.055,0.569,0.138,0.827,0.249
			c0.258,0.111,0.498,0.249,0.72,0.415c0.222,0.166,0.427,0.36,0.614,0.581c0.187,0.222,0.351,0.466,0.491,0.734
			c0.14,0.267,0.258,0.558,0.351,0.871c0.094,0.313,0.164,0.649,0.211,1.008s0.07,0.741,0.07,1.146c0,0.034,0,0.069,0,0.103
			s0,0.069,0,0.103s0,0.069,0,0.103c0,0.034,0,0.069,0,0.103c0,0.034-0.001,0.069-0.003,0.103s-0.005,0.069-0.009,0.103
			s-0.009,0.069-0.015,0.103c-0.006,0.034-0.012,0.069-0.02,0.103h-1.983h-1.983h-1.983h-1.983c0.004,0.172,0.013,0.341,0.028,0.507
			s0.036,0.329,0.063,0.488c0.027,0.16,0.059,0.316,0.097,0.469c0.038,0.153,0.082,0.303,0.132,0.45
			c0.05,0.147,0.104,0.289,0.164,0.426c0.06,0.137,0.125,0.268,0.194,0.394c0.07,0.126,0.145,0.247,0.225,0.363
			c0.08,0.116,0.165,0.226,0.255,0.331c0.09,0.105,0.184,0.204,0.282,0.298c0.099,0.094,0.202,0.181,0.31,0.263
			c0.108,0.082,0.22,0.158,0.338,0.229c0.117,0.071,0.239,0.135,0.365,0.195c0.126,0.059,0.256,0.111,0.389,0.155
			c0.134,0.044,0.271,0.081,0.412,0.111c0.141,0.03,0.286,0.052,0.435,0.067c0.149,0.015,0.302,0.022,0.458,0.022
			c0.149,0,0.295-0.005,0.437-0.016c0.142-0.011,0.28-0.027,0.415-0.049c0.135-0.022,0.266-0.049,0.393-0.082
			s0.251-0.071,0.372-0.115c0.12-0.044,0.239-0.091,0.355-0.143s0.23-0.108,0.342-0.168c0.112-0.06,0.222-0.124,0.329-0.193
			c0.108-0.068,0.213-0.141,0.316-0.217l0.103,0.195l0.103,0.195l0.103,0.195l0.103,0.195c-0.111,0.065-0.225,0.129-0.341,0.192
			c-0.116,0.063-0.235,0.125-0.356,0.186c-0.121,0.061-0.245,0.121-0.372,0.18c-0.127,0.059-0.256,0.117-0.388,0.174
			c-0.132,0.057-0.272,0.107-0.421,0.15c-0.149,0.043-0.308,0.079-0.475,0.107s-0.343,0.05-0.528,0.065
			c-0.185,0.014-0.379,0.022-0.581,0.022c-0.176,0-0.349-0.008-0.52-0.024s-0.338-0.041-0.504-0.073
			c-0.165-0.032-0.328-0.073-0.488-0.122c-0.16-0.049-0.317-0.106-0.472-0.171c-0.155-0.065-0.304-0.137-0.449-0.217
			c-0.145-0.08-0.284-0.167-0.419-0.261c-0.135-0.095-0.264-0.196-0.389-0.306c-0.125-0.109-0.244-0.226-0.359-0.35
			c-0.114-0.124-0.223-0.255-0.326-0.393c-0.103-0.138-0.199-0.282-0.29-0.433s-0.176-0.308-0.255-0.473s-0.152-0.335-0.218-0.513
			c-0.067-0.177-0.125-0.361-0.175-0.55c-0.05-0.189-0.092-0.385-0.125-0.586c-0.033-0.201-0.059-0.409-0.075-0.622
			C105.133,19.418,105.124,19.199,105.124,18.973z M113.17,18.308c0-0.355-0.018-0.689-0.054-1s-0.091-0.6-0.163-0.866
			c-0.072-0.267-0.163-0.511-0.272-0.733c-0.109-0.222-0.236-0.422-0.381-0.599c-0.146-0.177-0.304-0.333-0.475-0.466
			c-0.171-0.133-0.355-0.244-0.552-0.333c-0.197-0.089-0.406-0.156-0.629-0.2c-0.222-0.045-0.458-0.067-0.706-0.067
			c-0.118,0-0.235,0.006-0.351,0.019c-0.116,0.013-0.23,0.031-0.342,0.056c-0.113,0.025-0.224,0.056-0.334,0.093
			c-0.11,0.037-0.218,0.081-0.326,0.13c-0.107,0.05-0.211,0.104-0.313,0.165s-0.201,0.126-0.297,0.196s-0.19,0.147-0.282,0.228
			c-0.091,0.081-0.18,0.167-0.266,0.259c-0.086,0.092-0.168,0.189-0.246,0.291c-0.078,0.102-0.153,0.209-0.223,0.32
			c-0.071,0.112-0.137,0.228-0.2,0.35c-0.063,0.122-0.122,0.249-0.177,0.381c-0.056,0.132-0.106,0.268-0.151,0.408
			c-0.045,0.14-0.086,0.284-0.121,0.432c-0.035,0.148-0.066,0.3-0.091,0.456c-0.025,0.156-0.045,0.316-0.061,0.481h1.753h1.753
			h1.753H113.17z"/>
	</g>
</g>
<g>
	<g>
		<path d="M11.742,30.689h0.51h0.51h0.51h0.51c0.191,0,0.372,0.009,0.544,0.028c0.172,0.018,0.333,0.046,0.485,0.083
			c0.152,0.037,0.294,0.083,0.426,0.138c0.132,0.055,0.255,0.12,0.368,0.193c0.113,0.074,0.211,0.158,0.296,0.253
			c0.085,0.095,0.155,0.2,0.211,0.316c0.056,0.116,0.099,0.243,0.127,0.38c0.028,0.137,0.042,0.285,0.042,0.444
			c0,0.099-0.007,0.196-0.021,0.288c-0.014,0.093-0.035,0.183-0.064,0.269c-0.028,0.087-0.064,0.17-0.106,0.25
			c-0.042,0.08-0.092,0.157-0.148,0.23c-0.056,0.074-0.12,0.141-0.19,0.204c-0.07,0.062-0.147,0.119-0.23,0.17
			c-0.084,0.051-0.174,0.097-0.271,0.136c-0.097,0.04-0.201,0.074-0.312,0.103v0.011v0.011v0.011v0.011
			c0.14,0.021,0.272,0.049,0.396,0.083c0.125,0.035,0.242,0.076,0.352,0.124c0.11,0.048,0.212,0.103,0.307,0.165
			c0.095,0.062,0.182,0.13,0.262,0.206c0.08,0.076,0.151,0.158,0.211,0.248c0.06,0.09,0.11,0.186,0.15,0.29
			c0.04,0.104,0.07,0.214,0.09,0.332c0.02,0.118,0.03,0.242,0.03,0.374c0,0.092-0.004,0.181-0.013,0.267
			c-0.008,0.086-0.021,0.169-0.038,0.25c-0.017,0.08-0.038,0.158-0.062,0.232s-0.054,0.146-0.087,0.215
			c-0.034,0.069-0.071,0.135-0.111,0.198c-0.04,0.063-0.084,0.123-0.132,0.18s-0.098,0.112-0.152,0.163
			c-0.054,0.052-0.112,0.1-0.173,0.146c-0.061,0.046-0.125,0.089-0.193,0.129c-0.067,0.04-0.138,0.077-0.211,0.112
			c-0.074,0.034-0.15,0.066-0.23,0.095c-0.08,0.029-0.163,0.055-0.249,0.078c-0.086,0.023-0.175,0.043-0.266,0.06
			c-0.091,0.017-0.185,0.032-0.281,0.043c-0.096,0.011-0.196,0.02-0.297,0.026c-0.102,0.006-0.206,0.009-0.313,0.009h-0.547h-0.547
			h-0.547h-0.547v-1.889v-1.889v-1.889V30.689z M13.576,34.013c0.195,0,0.376-0.008,0.543-0.023c0.167-0.016,0.32-0.039,0.46-0.07
			c0.139-0.031,0.265-0.07,0.377-0.116s0.21-0.101,0.294-0.163c0.084-0.062,0.158-0.132,0.221-0.21
			c0.063-0.078,0.116-0.164,0.158-0.258c0.042-0.094,0.074-0.196,0.095-0.306c0.021-0.11,0.032-0.228,0.032-0.354
			c0-0.122-0.011-0.236-0.034-0.342s-0.056-0.202-0.101-0.291s-0.101-0.168-0.168-0.24c-0.067-0.071-0.146-0.134-0.236-0.189
			c-0.09-0.054-0.19-0.102-0.301-0.143c-0.111-0.041-0.232-0.075-0.364-0.102c-0.132-0.027-0.274-0.048-0.427-0.061
			c-0.153-0.014-0.316-0.021-0.49-0.021h-0.341h-0.341h-0.341H12.27v0.722v0.722v0.722v0.722h0.327h0.327h0.327H13.576z
			 M13.794,37.807c0.189,0,0.368-0.009,0.537-0.027c0.169-0.018,0.328-0.044,0.476-0.08c0.149-0.035,0.287-0.079,0.415-0.132
			s0.246-0.115,0.354-0.185c0.108-0.071,0.202-0.152,0.283-0.243c0.081-0.091,0.148-0.193,0.202-0.305
			c0.054-0.112,0.094-0.234,0.121-0.366c0.027-0.132,0.04-0.275,0.04-0.428c0-0.136-0.013-0.262-0.04-0.381
			c-0.026-0.118-0.066-0.228-0.119-0.328c-0.053-0.101-0.118-0.193-0.197-0.276c-0.079-0.083-0.171-0.158-0.276-0.224
			c-0.105-0.066-0.221-0.124-0.348-0.173s-0.266-0.091-0.416-0.124c-0.15-0.033-0.311-0.058-0.484-0.074
			c-0.173-0.016-0.356-0.025-0.551-0.025h-0.381h-0.381h-0.381H12.27v0.843v0.843v0.843v0.843h0.381h0.381h0.381H13.794z"/>
	</g>
	<g>
		<path d="M18.31,32.741h0.109h0.109h0.109h0.109l0.011,0.255l0.011,0.255l0.011,0.255l0.011,0.255H18.8h0.009h0.009h0.009
			c0.046-0.086,0.094-0.168,0.145-0.246s0.104-0.152,0.16-0.221c0.056-0.07,0.114-0.135,0.175-0.197
			c0.061-0.062,0.124-0.119,0.19-0.173c0.066-0.053,0.134-0.1,0.204-0.14c0.07-0.04,0.142-0.073,0.216-0.1
			c0.074-0.027,0.15-0.047,0.228-0.06s0.158-0.02,0.241-0.02c0.026,0,0.052,0,0.077,0.001s0.05,0.002,0.074,0.004
			c0.024,0.002,0.047,0.004,0.07,0.007s0.044,0.006,0.066,0.01c0.021,0.004,0.042,0.009,0.063,0.015s0.043,0.013,0.065,0.02
			c0.022,0.008,0.044,0.016,0.067,0.026c0.023,0.01,0.045,0.02,0.069,0.031l-0.029,0.115l-0.029,0.115l-0.029,0.115l-0.029,0.115
			c-0.023-0.009-0.045-0.018-0.067-0.026c-0.022-0.008-0.042-0.015-0.063-0.021c-0.02-0.006-0.04-0.012-0.058-0.016
			c-0.019-0.005-0.037-0.008-0.054-0.011c-0.017-0.003-0.036-0.005-0.055-0.007c-0.02-0.002-0.04-0.004-0.062-0.005
			s-0.045-0.002-0.069-0.003c-0.024-0.001-0.049-0.001-0.076-0.001c-0.061,0-0.123,0.007-0.186,0.02s-0.127,0.033-0.191,0.059
			s-0.13,0.059-0.196,0.098c-0.066,0.039-0.133,0.085-0.201,0.138c-0.068,0.053-0.134,0.115-0.198,0.187
			c-0.064,0.072-0.127,0.153-0.188,0.245s-0.119,0.192-0.176,0.303c-0.057,0.111-0.112,0.231-0.165,0.361v0.937v0.937v0.937v0.937
			h-0.126h-0.126h-0.126H18.31v-1.376v-1.376v-1.376V32.741z"/>
	</g>
	<g>
		<path d="M22.208,31.411c-0.032,0-0.063-0.003-0.093-0.008s-0.058-0.013-0.085-0.024c-0.027-0.011-0.053-0.024-0.078-0.039
			c-0.025-0.016-0.048-0.034-0.07-0.055s-0.041-0.043-0.058-0.067c-0.017-0.024-0.03-0.049-0.042-0.076
			c-0.011-0.027-0.019-0.055-0.025-0.084c-0.006-0.03-0.008-0.061-0.008-0.093c0-0.036,0.003-0.071,0.008-0.103
			c0.006-0.032,0.014-0.063,0.025-0.091c0.011-0.028,0.025-0.054,0.042-0.078c0.017-0.024,0.036-0.046,0.058-0.066
			c0.022-0.02,0.045-0.038,0.07-0.053c0.025-0.015,0.05-0.028,0.078-0.038c0.027-0.01,0.056-0.018,0.085-0.023
			c0.03-0.005,0.061-0.008,0.093-0.008c0.032,0,0.063,0.003,0.093,0.008c0.03,0.005,0.058,0.013,0.085,0.023
			c0.027,0.01,0.053,0.023,0.078,0.038c0.025,0.015,0.048,0.033,0.07,0.053c0.022,0.02,0.041,0.042,0.058,0.066
			c0.017,0.024,0.03,0.05,0.042,0.078c0.011,0.028,0.019,0.058,0.025,0.091c0.006,0.032,0.008,0.067,0.008,0.103
			c0,0.032-0.003,0.063-0.008,0.093c-0.006,0.03-0.014,0.058-0.025,0.084c-0.011,0.027-0.025,0.052-0.042,0.076
			c-0.017,0.024-0.036,0.046-0.058,0.067s-0.045,0.039-0.07,0.055c-0.025,0.016-0.05,0.029-0.078,0.039
			c-0.027,0.011-0.056,0.018-0.085,0.024S22.24,31.411,22.208,31.411z M21.944,32.741h0.126h0.126h0.126h0.126v1.376v1.376v1.376
			v1.376h-0.126h-0.126H22.07h-0.126v-1.376v-1.376v-1.376V32.741z"/>
	</g>
	<g>
		<path d="M24.57,32.741h0.109h0.109h0.109h0.109l0.012,0.212l0.012,0.212l0.012,0.212l0.012,0.212h0.008h0.008h0.008h0.008
			c0.071-0.071,0.142-0.139,0.214-0.203c0.072-0.065,0.144-0.127,0.217-0.185s0.146-0.115,0.219-0.167
			c0.074-0.053,0.148-0.103,0.222-0.149c0.074-0.047,0.151-0.088,0.231-0.123c0.08-0.035,0.162-0.064,0.247-0.088
			c0.085-0.023,0.173-0.041,0.263-0.053c0.09-0.012,0.183-0.018,0.279-0.018c0.143,0,0.277,0.011,0.401,0.032
			c0.124,0.021,0.239,0.054,0.344,0.097s0.201,0.097,0.286,0.161c0.086,0.064,0.162,0.14,0.229,0.226
			c0.067,0.086,0.126,0.184,0.176,0.293c0.05,0.109,0.092,0.23,0.125,0.363c0.033,0.133,0.058,0.277,0.075,0.434
			c0.017,0.156,0.025,0.324,0.025,0.504v0.883v0.883v0.883v0.883h-0.126h-0.126h-0.126h-0.126v-0.865v-0.865v-0.865v-0.865
			c0-0.147-0.006-0.285-0.018-0.412c-0.012-0.128-0.03-0.246-0.055-0.355s-0.055-0.207-0.091-0.296
			c-0.037-0.089-0.079-0.169-0.128-0.238c-0.049-0.07-0.106-0.13-0.17-0.183c-0.065-0.052-0.138-0.096-0.218-0.131
			c-0.081-0.035-0.17-0.061-0.266-0.079c-0.097-0.017-0.202-0.026-0.314-0.026c-0.082,0-0.162,0.005-0.24,0.016
			s-0.155,0.027-0.229,0.048c-0.074,0.022-0.147,0.048-0.218,0.081c-0.071,0.032-0.14,0.07-0.207,0.113
			c-0.067,0.043-0.136,0.091-0.207,0.145c-0.071,0.054-0.144,0.113-0.22,0.177s-0.153,0.134-0.233,0.209
			c-0.08,0.075-0.162,0.156-0.246,0.242v1.038v1.038v1.038v1.038h-0.126h-0.126h-0.126H24.57v-1.376v-1.376v-1.376V32.741z"/>
	</g>
	<g>
		<path d="M30.209,39.367c0-0.061,0.005-0.122,0.014-0.182c0.009-0.06,0.023-0.12,0.041-0.179s0.041-0.118,0.068-0.176
			c0.027-0.058,0.059-0.116,0.096-0.173c0.036-0.057,0.075-0.113,0.118-0.168c0.043-0.054,0.089-0.108,0.139-0.159
			c0.05-0.052,0.103-0.102,0.159-0.15c0.056-0.049,0.116-0.096,0.179-0.142v-0.011v-0.011v-0.011v-0.011
			c-0.034-0.021-0.067-0.044-0.099-0.069c-0.031-0.025-0.061-0.052-0.09-0.08s-0.056-0.059-0.082-0.092
			c-0.026-0.032-0.05-0.067-0.074-0.103c-0.023-0.036-0.043-0.075-0.06-0.116s-0.032-0.083-0.043-0.128
			c-0.011-0.045-0.02-0.092-0.026-0.141c-0.006-0.049-0.009-0.1-0.009-0.154c0-0.061,0.004-0.12,0.013-0.177
			c0.009-0.057,0.021-0.111,0.039-0.163c0.017-0.052,0.039-0.102,0.064-0.15s0.056-0.093,0.09-0.136
			c0.034-0.043,0.068-0.083,0.102-0.121c0.034-0.037,0.067-0.072,0.099-0.104s0.065-0.061,0.096-0.088
			c0.032-0.026,0.063-0.05,0.093-0.071v-0.011v-0.011v-0.011v-0.011c-0.044-0.038-0.087-0.08-0.129-0.125
			c-0.042-0.045-0.082-0.093-0.122-0.145c-0.04-0.052-0.078-0.107-0.115-0.165c-0.037-0.058-0.074-0.12-0.109-0.185
			c-0.036-0.065-0.067-0.132-0.093-0.202c-0.027-0.07-0.049-0.142-0.066-0.217c-0.018-0.075-0.031-0.152-0.04-0.231
			s-0.013-0.161-0.013-0.245c0-0.071,0.003-0.14,0.009-0.207s0.015-0.134,0.028-0.199c0.012-0.065,0.028-0.128,0.046-0.19
			c0.019-0.062,0.04-0.123,0.065-0.182c0.025-0.059,0.052-0.117,0.082-0.172c0.03-0.055,0.062-0.108,0.096-0.159
			c0.034-0.051,0.071-0.1,0.11-0.147s0.081-0.092,0.125-0.135c0.044-0.043,0.09-0.084,0.138-0.122
			c0.048-0.038,0.097-0.074,0.149-0.107c0.052-0.033,0.105-0.064,0.16-0.093c0.055-0.029,0.113-0.055,0.172-0.079
			c0.059-0.024,0.119-0.045,0.18-0.063c0.061-0.018,0.123-0.033,0.186-0.045c0.063-0.012,0.127-0.021,0.192-0.027
			c0.065-0.006,0.131-0.009,0.198-0.009c0.038,0,0.076,0.001,0.112,0.002c0.036,0.002,0.072,0.004,0.106,0.007
			c0.034,0.003,0.068,0.007,0.1,0.012c0.032,0.005,0.064,0.011,0.094,0.018c0.031,0.007,0.06,0.014,0.089,0.021
			c0.028,0.007,0.055,0.015,0.081,0.023c0.026,0.008,0.05,0.017,0.074,0.026s0.046,0.018,0.067,0.028h0.467h0.467h0.467h0.467v0.106
			v0.106v0.106v0.106h-0.321h-0.321h-0.321h-0.321c0.044,0.038,0.085,0.079,0.125,0.123c0.04,0.044,0.078,0.09,0.114,0.139
			c0.036,0.049,0.071,0.101,0.103,0.156c0.033,0.055,0.063,0.112,0.092,0.172c0.029,0.06,0.054,0.122,0.075,0.186
			c0.021,0.063,0.039,0.128,0.053,0.195c0.014,0.066,0.025,0.134,0.032,0.204c0.007,0.069,0.011,0.141,0.011,0.213
			c0,0.071-0.003,0.14-0.009,0.208c-0.006,0.068-0.015,0.134-0.028,0.199s-0.028,0.128-0.046,0.191
			c-0.019,0.062-0.04,0.123-0.065,0.182c-0.025,0.059-0.052,0.116-0.081,0.172c-0.029,0.055-0.061,0.108-0.095,0.159
			c-0.034,0.051-0.07,0.1-0.108,0.147c-0.038,0.047-0.079,0.092-0.122,0.135c-0.043,0.043-0.088,0.084-0.135,0.122
			c-0.047,0.038-0.096,0.074-0.146,0.107c-0.051,0.033-0.103,0.064-0.157,0.093c-0.054,0.029-0.111,0.055-0.169,0.079
			c-0.058,0.024-0.118,0.045-0.178,0.063c-0.06,0.018-0.122,0.033-0.184,0.045c-0.063,0.012-0.126,0.021-0.191,0.027
			c-0.065,0.006-0.131,0.009-0.198,0.009c-0.038,0-0.076-0.001-0.115-0.004c-0.039-0.002-0.078-0.006-0.118-0.011
			c-0.04-0.005-0.08-0.011-0.12-0.018c-0.04-0.007-0.081-0.016-0.122-0.025s-0.081-0.02-0.12-0.032
			c-0.039-0.012-0.077-0.025-0.114-0.039c-0.037-0.014-0.072-0.03-0.107-0.047s-0.068-0.035-0.1-0.054
			c-0.031,0.025-0.06,0.05-0.089,0.077c-0.028,0.026-0.056,0.053-0.082,0.081s-0.051,0.056-0.075,0.085
			c-0.024,0.029-0.047,0.059-0.069,0.09c-0.022,0.031-0.041,0.063-0.058,0.097c-0.017,0.034-0.03,0.071-0.042,0.109
			c-0.011,0.038-0.019,0.078-0.025,0.12c-0.006,0.042-0.008,0.086-0.008,0.132c0,0.05,0.005,0.098,0.014,0.144
			s0.023,0.09,0.041,0.133c0.018,0.042,0.041,0.083,0.068,0.122c0.027,0.039,0.059,0.076,0.096,0.111
			c0.036,0.035,0.08,0.066,0.133,0.093s0.114,0.049,0.184,0.066s0.148,0.031,0.234,0.04s0.181,0.013,0.285,0.013h0.295h0.295h0.295
			h0.295c0.155,0,0.299,0.006,0.434,0.019c0.135,0.013,0.259,0.032,0.373,0.057c0.114,0.025,0.218,0.057,0.312,0.095
			s0.178,0.082,0.251,0.133c0.074,0.051,0.138,0.108,0.193,0.174c0.055,0.065,0.101,0.138,0.138,0.217
			c0.037,0.08,0.064,0.167,0.083,0.261c0.018,0.094,0.028,0.196,0.028,0.305c0,0.059-0.004,0.118-0.012,0.176
			s-0.019,0.117-0.035,0.174c-0.015,0.058-0.035,0.115-0.058,0.173c-0.023,0.057-0.05,0.114-0.08,0.171
			c-0.03,0.056-0.064,0.111-0.101,0.164c-0.037,0.053-0.077,0.104-0.121,0.154s-0.09,0.098-0.14,0.144
			c-0.05,0.046-0.103,0.091-0.16,0.134c-0.056,0.043-0.116,0.084-0.178,0.122c-0.062,0.039-0.128,0.075-0.196,0.11
			c-0.068,0.034-0.14,0.067-0.214,0.097s-0.152,0.058-0.232,0.084c-0.08,0.026-0.162,0.048-0.247,0.068
			c-0.085,0.019-0.172,0.036-0.262,0.048c-0.09,0.013-0.182,0.023-0.276,0.029c-0.095,0.006-0.191,0.01-0.291,0.01
			c-0.174,0-0.339-0.009-0.495-0.026s-0.302-0.043-0.44-0.077c-0.138-0.034-0.266-0.077-0.386-0.129
			c-0.12-0.052-0.23-0.112-0.332-0.181c-0.101-0.069-0.19-0.144-0.266-0.225c-0.076-0.081-0.139-0.168-0.19-0.26
			c-0.051-0.093-0.089-0.191-0.114-0.296C30.222,39.594,30.209,39.483,30.209,39.367z M30.692,39.321c0,0.086,0.01,0.168,0.03,0.246
			c0.02,0.078,0.049,0.152,0.089,0.221c0.04,0.07,0.089,0.135,0.148,0.197c0.059,0.062,0.129,0.119,0.208,0.173
			c0.079,0.054,0.167,0.1,0.263,0.141c0.096,0.04,0.201,0.074,0.314,0.1c0.113,0.027,0.235,0.047,0.365,0.06s0.269,0.02,0.416,0.02
			c0.076,0,0.151-0.003,0.224-0.008c0.073-0.005,0.145-0.013,0.215-0.023c0.07-0.01,0.138-0.023,0.205-0.038
			c0.067-0.015,0.131-0.033,0.195-0.053c0.063-0.02,0.123-0.042,0.181-0.065c0.058-0.023,0.114-0.048,0.167-0.074
			c0.053-0.026,0.105-0.054,0.153-0.083c0.049-0.029,0.095-0.06,0.139-0.093c0.044-0.033,0.085-0.066,0.124-0.101
			c0.039-0.035,0.075-0.07,0.109-0.107c0.034-0.037,0.065-0.075,0.094-0.114s0.055-0.079,0.079-0.12
			c0.024-0.041,0.044-0.083,0.062-0.124c0.018-0.042,0.033-0.084,0.045-0.126c0.012-0.042,0.021-0.085,0.027-0.129
			c0.006-0.043,0.009-0.087,0.009-0.131c0-0.077-0.007-0.147-0.02-0.213c-0.014-0.065-0.034-0.125-0.061-0.179
			c-0.027-0.054-0.061-0.102-0.102-0.145c-0.041-0.043-0.088-0.08-0.143-0.111c-0.054-0.032-0.115-0.059-0.181-0.083
			s-0.139-0.043-0.218-0.059c-0.079-0.016-0.164-0.028-0.255-0.036c-0.091-0.008-0.188-0.012-0.291-0.012h-0.295h-0.295h-0.295
			h-0.295c-0.015,0-0.032,0-0.052-0.001c-0.019-0.001-0.041-0.002-0.064-0.003c-0.023-0.001-0.049-0.003-0.076-0.005
			s-0.057-0.005-0.088-0.007c-0.032-0.003-0.064-0.007-0.097-0.011s-0.066-0.01-0.1-0.016c-0.034-0.006-0.069-0.013-0.104-0.021
			c-0.035-0.008-0.071-0.017-0.107-0.026c-0.063,0.044-0.122,0.088-0.176,0.134c-0.054,0.045-0.105,0.091-0.15,0.138
			c-0.046,0.047-0.087,0.094-0.124,0.143s-0.07,0.097-0.099,0.147s-0.054,0.1-0.075,0.149c-0.021,0.05-0.039,0.099-0.053,0.149
			s-0.025,0.099-0.032,0.149C30.696,39.221,30.692,39.271,30.692,39.321z M32.387,36.088c0.048,0,0.095-0.002,0.142-0.007
			c0.047-0.005,0.093-0.011,0.138-0.02c0.045-0.009,0.09-0.02,0.134-0.034s0.088-0.029,0.131-0.048
			c0.043-0.018,0.084-0.038,0.125-0.061c0.04-0.022,0.079-0.047,0.117-0.073c0.038-0.026,0.074-0.055,0.109-0.085
			s0.069-0.063,0.101-0.097c0.032-0.034,0.063-0.07,0.092-0.108c0.029-0.038,0.057-0.077,0.083-0.118
			c0.026-0.041,0.05-0.084,0.073-0.128c0.023-0.044,0.043-0.09,0.063-0.138c0.019-0.048,0.035-0.097,0.049-0.147
			s0.026-0.102,0.036-0.154c0.009-0.053,0.017-0.106,0.021-0.161c0.005-0.055,0.007-0.111,0.007-0.169
			c0-0.057-0.002-0.113-0.007-0.168s-0.012-0.109-0.021-0.161c-0.009-0.053-0.021-0.104-0.036-0.154
			c-0.014-0.05-0.031-0.099-0.049-0.147c-0.019-0.048-0.04-0.094-0.062-0.138c-0.022-0.044-0.046-0.086-0.072-0.126
			c-0.025-0.04-0.052-0.078-0.081-0.115c-0.028-0.036-0.058-0.071-0.089-0.103c-0.032-0.033-0.065-0.063-0.1-0.092
			c-0.035-0.029-0.071-0.056-0.109-0.081s-0.077-0.049-0.118-0.07c-0.041-0.022-0.083-0.042-0.127-0.06
			c-0.044-0.018-0.088-0.034-0.133-0.048s-0.09-0.025-0.136-0.034s-0.092-0.016-0.139-0.02s-0.094-0.007-0.142-0.007
			c-0.05,0-0.098,0.002-0.146,0.007c-0.048,0.005-0.095,0.011-0.141,0.02s-0.092,0.02-0.136,0.034
			c-0.045,0.014-0.088,0.029-0.131,0.048c-0.043,0.018-0.085,0.038-0.125,0.06c-0.04,0.022-0.079,0.045-0.117,0.07
			s-0.074,0.052-0.109,0.081c-0.035,0.029-0.069,0.06-0.101,0.092c-0.033,0.033-0.064,0.067-0.093,0.103
			c-0.029,0.036-0.057,0.074-0.083,0.114c-0.026,0.04-0.05,0.081-0.072,0.124s-0.043,0.088-0.062,0.135s-0.036,0.095-0.05,0.145
			c-0.014,0.05-0.026,0.101-0.036,0.154c-0.01,0.053-0.017,0.108-0.022,0.164c-0.005,0.056-0.007,0.114-0.007,0.173
			c0,0.057,0.002,0.114,0.007,0.169c0.005,0.055,0.012,0.109,0.022,0.161c0.01,0.053,0.022,0.104,0.036,0.154
			c0.014,0.05,0.031,0.099,0.05,0.147s0.04,0.094,0.063,0.138c0.023,0.044,0.047,0.087,0.074,0.128
			c0.026,0.041,0.054,0.08,0.084,0.118c0.03,0.038,0.061,0.074,0.094,0.108c0.034,0.034,0.068,0.067,0.104,0.097
			c0.036,0.03,0.073,0.059,0.111,0.085c0.038,0.026,0.078,0.051,0.118,0.073c0.041,0.022,0.083,0.043,0.126,0.061
			c0.043,0.018,0.086,0.034,0.13,0.048c0.044,0.014,0.089,0.025,0.134,0.034c0.045,0.009,0.091,0.016,0.138,0.02
			C32.293,36.086,32.34,36.088,32.387,36.088z"/>
	</g>
	<g>
		<path d="M36.515,31.411c-0.032,0-0.063-0.003-0.093-0.008c-0.03-0.005-0.058-0.013-0.085-0.024
			c-0.027-0.011-0.053-0.024-0.078-0.039c-0.025-0.016-0.048-0.034-0.07-0.055c-0.022-0.021-0.041-0.043-0.058-0.067
			c-0.017-0.024-0.03-0.049-0.042-0.076c-0.011-0.027-0.019-0.055-0.025-0.084c-0.006-0.03-0.008-0.061-0.008-0.093
			c0-0.036,0.003-0.071,0.008-0.103c0.006-0.032,0.014-0.063,0.025-0.091c0.011-0.028,0.025-0.054,0.042-0.078
			c0.017-0.024,0.036-0.046,0.058-0.066c0.022-0.02,0.045-0.038,0.07-0.053s0.05-0.028,0.078-0.038
			c0.027-0.01,0.056-0.018,0.085-0.023c0.03-0.005,0.061-0.008,0.093-0.008s0.063,0.003,0.093,0.008
			c0.03,0.005,0.058,0.013,0.085,0.023c0.027,0.01,0.053,0.023,0.078,0.038s0.048,0.033,0.07,0.053
			c0.022,0.02,0.041,0.042,0.058,0.066c0.017,0.024,0.03,0.05,0.042,0.078c0.011,0.028,0.019,0.058,0.025,0.091
			c0.006,0.032,0.008,0.067,0.008,0.103c0,0.032-0.003,0.063-0.008,0.093c-0.006,0.03-0.014,0.058-0.025,0.084
			c-0.011,0.027-0.025,0.052-0.042,0.076c-0.017,0.024-0.036,0.046-0.058,0.067c-0.022,0.021-0.045,0.039-0.07,0.055
			c-0.025,0.016-0.05,0.029-0.078,0.039c-0.027,0.011-0.056,0.018-0.085,0.024C36.578,31.408,36.547,31.411,36.515,31.411z
			 M36.251,32.741h0.126h0.126h0.126h0.126v1.376v1.376v1.376v1.376H36.63h-0.126h-0.126h-0.126v-1.376v-1.376v-1.376V32.741z"/>
	</g>
	<g>
		<path d="M38.877,32.741h0.109h0.109h0.109h0.109l0.012,0.212l0.012,0.212l0.012,0.212l0.012,0.212h0.008h0.008h0.008h0.008
			c0.071-0.071,0.142-0.139,0.214-0.203c0.072-0.065,0.144-0.127,0.217-0.185c0.073-0.059,0.146-0.115,0.219-0.167
			s0.148-0.103,0.222-0.149c0.074-0.047,0.151-0.088,0.231-0.123c0.08-0.035,0.162-0.064,0.247-0.088
			c0.085-0.023,0.173-0.041,0.263-0.053c0.09-0.012,0.183-0.018,0.279-0.018c0.143,0,0.277,0.011,0.401,0.032
			c0.124,0.021,0.239,0.054,0.344,0.097s0.201,0.097,0.286,0.161c0.086,0.064,0.162,0.14,0.229,0.226
			c0.067,0.086,0.126,0.184,0.176,0.293c0.05,0.109,0.092,0.23,0.125,0.363c0.033,0.133,0.058,0.277,0.075,0.434
			c0.017,0.156,0.025,0.324,0.025,0.504v0.883v0.883v0.883v0.883H42.82h-0.126h-0.126h-0.126v-0.865v-0.865v-0.865v-0.865
			c0-0.147-0.006-0.285-0.018-0.412c-0.012-0.128-0.03-0.246-0.055-0.355c-0.024-0.109-0.055-0.207-0.091-0.296
			s-0.079-0.169-0.128-0.238c-0.049-0.07-0.106-0.13-0.17-0.183c-0.065-0.052-0.138-0.096-0.218-0.131s-0.17-0.061-0.266-0.079
			s-0.202-0.026-0.314-0.026c-0.082,0-0.162,0.005-0.24,0.016s-0.155,0.027-0.229,0.048c-0.074,0.022-0.147,0.048-0.218,0.081
			c-0.071,0.032-0.14,0.07-0.207,0.113c-0.067,0.043-0.136,0.091-0.207,0.145s-0.144,0.113-0.22,0.177s-0.153,0.134-0.233,0.209
			c-0.08,0.075-0.162,0.156-0.246,0.242v1.038v1.038v1.038v1.038h-0.126h-0.126h-0.126h-0.126v-1.376v-1.376v-1.376V32.741z"/>
	</g>
	<g>
		<path d="M44.516,39.367c0-0.061,0.005-0.122,0.014-0.182c0.009-0.06,0.023-0.12,0.041-0.179c0.018-0.059,0.041-0.118,0.068-0.176
			c0.027-0.058,0.059-0.116,0.096-0.173c0.036-0.057,0.075-0.113,0.118-0.168c0.043-0.054,0.089-0.108,0.139-0.159
			c0.05-0.052,0.103-0.102,0.159-0.15c0.056-0.049,0.116-0.096,0.179-0.142v-0.011v-0.011v-0.011v-0.011
			c-0.034-0.021-0.067-0.044-0.099-0.069s-0.061-0.052-0.09-0.08s-0.056-0.059-0.082-0.092c-0.026-0.032-0.05-0.067-0.074-0.103
			c-0.023-0.036-0.043-0.075-0.06-0.116c-0.017-0.041-0.032-0.083-0.043-0.128c-0.011-0.045-0.02-0.092-0.026-0.141
			c-0.006-0.049-0.009-0.1-0.009-0.154c0-0.061,0.004-0.12,0.013-0.177s0.021-0.111,0.039-0.163c0.017-0.052,0.039-0.102,0.064-0.15
			c0.026-0.048,0.056-0.093,0.09-0.136c0.034-0.043,0.068-0.083,0.102-0.121s0.067-0.072,0.099-0.104s0.065-0.061,0.096-0.088
			c0.032-0.026,0.063-0.05,0.093-0.071v-0.011v-0.011v-0.011v-0.011c-0.044-0.038-0.087-0.08-0.129-0.125s-0.082-0.093-0.122-0.145
			c-0.04-0.052-0.078-0.107-0.115-0.165c-0.037-0.058-0.074-0.12-0.109-0.185c-0.036-0.065-0.067-0.132-0.093-0.202
			c-0.027-0.07-0.049-0.142-0.066-0.217c-0.018-0.075-0.031-0.152-0.04-0.231c-0.009-0.079-0.013-0.161-0.013-0.245
			c0-0.071,0.003-0.14,0.009-0.207c0.006-0.068,0.015-0.134,0.028-0.199s0.028-0.128,0.046-0.19c0.019-0.062,0.04-0.123,0.065-0.182
			c0.025-0.059,0.052-0.117,0.082-0.172c0.03-0.055,0.062-0.108,0.096-0.159c0.034-0.051,0.071-0.1,0.11-0.147
			c0.039-0.047,0.081-0.092,0.125-0.135c0.044-0.043,0.09-0.084,0.138-0.122c0.048-0.038,0.097-0.074,0.149-0.107
			s0.105-0.064,0.16-0.093c0.055-0.029,0.113-0.055,0.172-0.079c0.059-0.024,0.119-0.045,0.18-0.063
			c0.061-0.018,0.123-0.033,0.186-0.045s0.127-0.021,0.192-0.027c0.065-0.006,0.131-0.009,0.198-0.009
			c0.038,0,0.076,0.001,0.112,0.002c0.036,0.002,0.072,0.004,0.106,0.007s0.068,0.007,0.1,0.012
			c0.032,0.005,0.064,0.011,0.094,0.018c0.031,0.007,0.06,0.014,0.089,0.021c0.028,0.007,0.055,0.015,0.081,0.023
			c0.026,0.008,0.05,0.017,0.074,0.026c0.023,0.009,0.046,0.018,0.067,0.028h0.467h0.467h0.467h0.467v0.106v0.106v0.106v0.106
			h-0.321h-0.321h-0.321h-0.321c0.044,0.038,0.085,0.079,0.125,0.123c0.04,0.044,0.078,0.09,0.114,0.139
			c0.036,0.049,0.071,0.101,0.103,0.156c0.033,0.055,0.063,0.112,0.092,0.172c0.029,0.06,0.054,0.122,0.075,0.186
			c0.021,0.063,0.039,0.128,0.053,0.195s0.025,0.134,0.032,0.204c0.007,0.069,0.011,0.141,0.011,0.213
			c0,0.071-0.003,0.14-0.009,0.208c-0.006,0.068-0.015,0.134-0.028,0.199s-0.028,0.128-0.046,0.191
			c-0.019,0.062-0.04,0.123-0.065,0.182c-0.025,0.059-0.052,0.116-0.081,0.172c-0.029,0.055-0.061,0.108-0.095,0.159
			c-0.034,0.051-0.07,0.1-0.108,0.147c-0.038,0.047-0.079,0.092-0.122,0.135c-0.043,0.043-0.088,0.084-0.135,0.122
			c-0.047,0.038-0.096,0.074-0.146,0.107c-0.051,0.033-0.103,0.064-0.157,0.093s-0.111,0.055-0.169,0.079
			c-0.058,0.024-0.118,0.045-0.178,0.063c-0.06,0.018-0.122,0.033-0.184,0.045c-0.063,0.012-0.126,0.021-0.191,0.027
			c-0.065,0.006-0.131,0.009-0.198,0.009c-0.038,0-0.076-0.001-0.115-0.004c-0.039-0.002-0.078-0.006-0.118-0.011
			c-0.04-0.005-0.08-0.011-0.12-0.018s-0.081-0.016-0.122-0.025c-0.041-0.01-0.081-0.02-0.12-0.032s-0.077-0.025-0.114-0.039
			c-0.037-0.014-0.072-0.03-0.107-0.047s-0.068-0.035-0.1-0.054c-0.031,0.025-0.06,0.05-0.089,0.077
			c-0.028,0.026-0.056,0.053-0.082,0.081s-0.051,0.056-0.075,0.085c-0.024,0.029-0.047,0.059-0.069,0.09
			c-0.022,0.031-0.041,0.063-0.058,0.097c-0.017,0.034-0.03,0.071-0.042,0.109c-0.011,0.038-0.019,0.078-0.025,0.12
			c-0.006,0.042-0.008,0.086-0.008,0.132c0,0.05,0.005,0.098,0.014,0.144s0.023,0.09,0.041,0.133
			c0.018,0.042,0.041,0.083,0.068,0.122c0.027,0.039,0.059,0.076,0.096,0.111c0.036,0.035,0.08,0.066,0.133,0.093
			c0.053,0.027,0.114,0.049,0.184,0.066c0.07,0.018,0.148,0.031,0.234,0.04c0.087,0.009,0.181,0.013,0.285,0.013h0.295h0.295h0.295
			h0.295c0.155,0,0.299,0.006,0.434,0.019c0.135,0.013,0.259,0.032,0.373,0.057c0.114,0.025,0.218,0.057,0.312,0.095
			s0.178,0.082,0.251,0.133c0.074,0.051,0.138,0.108,0.193,0.174c0.055,0.065,0.101,0.138,0.138,0.217
			c0.037,0.08,0.064,0.167,0.083,0.261c0.018,0.094,0.028,0.196,0.028,0.305c0,0.059-0.004,0.118-0.012,0.176
			s-0.019,0.117-0.035,0.174c-0.015,0.058-0.035,0.115-0.058,0.173c-0.023,0.057-0.05,0.114-0.08,0.171
			c-0.03,0.056-0.064,0.111-0.101,0.164s-0.077,0.104-0.121,0.154s-0.09,0.098-0.14,0.144c-0.05,0.046-0.103,0.091-0.16,0.134
			s-0.116,0.084-0.178,0.122c-0.062,0.039-0.128,0.075-0.196,0.11c-0.068,0.034-0.14,0.067-0.214,0.097
			c-0.074,0.03-0.152,0.058-0.232,0.084c-0.08,0.026-0.162,0.048-0.247,0.068s-0.172,0.036-0.262,0.048
			c-0.09,0.013-0.182,0.023-0.276,0.029s-0.191,0.01-0.291,0.01c-0.174,0-0.339-0.009-0.495-0.026
			c-0.156-0.017-0.302-0.043-0.44-0.077c-0.138-0.034-0.266-0.077-0.386-0.129c-0.12-0.052-0.23-0.112-0.332-0.181
			c-0.101-0.069-0.19-0.144-0.266-0.225c-0.076-0.081-0.139-0.168-0.19-0.26c-0.051-0.093-0.089-0.191-0.114-0.296
			C44.529,39.594,44.516,39.483,44.516,39.367z M44.999,39.321c0,0.086,0.01,0.168,0.03,0.246c0.02,0.078,0.049,0.152,0.089,0.221
			c0.04,0.07,0.089,0.135,0.148,0.197c0.059,0.062,0.129,0.119,0.208,0.173c0.079,0.054,0.167,0.1,0.263,0.141
			c0.096,0.04,0.201,0.074,0.314,0.1c0.113,0.027,0.235,0.047,0.365,0.06s0.269,0.02,0.416,0.02c0.076,0,0.151-0.003,0.224-0.008
			c0.073-0.005,0.145-0.013,0.215-0.023c0.07-0.01,0.138-0.023,0.205-0.038c0.067-0.015,0.131-0.033,0.195-0.053
			c0.063-0.02,0.123-0.042,0.181-0.065c0.058-0.023,0.114-0.048,0.167-0.074c0.053-0.026,0.105-0.054,0.153-0.083
			c0.049-0.029,0.095-0.06,0.139-0.093c0.044-0.033,0.085-0.066,0.124-0.101s0.075-0.07,0.109-0.107
			c0.034-0.037,0.065-0.075,0.094-0.114s0.055-0.079,0.079-0.12c0.024-0.041,0.044-0.083,0.062-0.124
			c0.018-0.042,0.033-0.084,0.045-0.126c0.012-0.042,0.021-0.085,0.027-0.129s0.009-0.087,0.009-0.131
			c0-0.077-0.007-0.147-0.02-0.213c-0.014-0.065-0.034-0.125-0.061-0.179c-0.027-0.054-0.061-0.102-0.102-0.145
			c-0.041-0.043-0.088-0.08-0.143-0.111s-0.115-0.059-0.181-0.083s-0.139-0.043-0.218-0.059c-0.079-0.016-0.164-0.028-0.255-0.036
			c-0.091-0.008-0.188-0.012-0.291-0.012h-0.295h-0.295h-0.295h-0.295c-0.015,0-0.032,0-0.052-0.001
			c-0.019-0.001-0.041-0.002-0.064-0.003c-0.023-0.001-0.049-0.003-0.076-0.005s-0.057-0.005-0.088-0.007
			c-0.032-0.003-0.064-0.007-0.097-0.011c-0.033-0.005-0.066-0.01-0.1-0.016s-0.069-0.013-0.104-0.021
			c-0.035-0.008-0.071-0.017-0.107-0.026c-0.063,0.044-0.122,0.088-0.176,0.134c-0.054,0.045-0.105,0.091-0.15,0.138
			c-0.046,0.047-0.087,0.094-0.124,0.143c-0.037,0.048-0.07,0.097-0.099,0.147c-0.029,0.05-0.054,0.1-0.075,0.149
			c-0.021,0.05-0.039,0.099-0.053,0.149c-0.014,0.05-0.025,0.099-0.032,0.149S44.999,39.271,44.999,39.321z M46.694,36.088
			c0.048,0,0.095-0.002,0.142-0.007c0.047-0.005,0.093-0.011,0.138-0.02c0.045-0.009,0.09-0.02,0.134-0.034
			c0.044-0.014,0.088-0.029,0.131-0.048c0.043-0.018,0.084-0.038,0.125-0.061c0.04-0.022,0.079-0.047,0.117-0.073
			c0.038-0.026,0.074-0.055,0.109-0.085s0.069-0.063,0.101-0.097c0.032-0.034,0.063-0.07,0.092-0.108
			c0.029-0.038,0.057-0.077,0.083-0.118c0.026-0.041,0.05-0.084,0.073-0.128s0.043-0.09,0.063-0.138
			c0.019-0.048,0.035-0.097,0.049-0.147c0.014-0.05,0.026-0.102,0.036-0.154c0.009-0.053,0.017-0.106,0.021-0.161
			c0.005-0.055,0.007-0.111,0.007-0.169c0-0.057-0.002-0.113-0.007-0.168s-0.012-0.109-0.021-0.161
			c-0.009-0.053-0.021-0.104-0.036-0.154c-0.014-0.05-0.031-0.099-0.049-0.147c-0.019-0.048-0.04-0.094-0.062-0.138
			c-0.022-0.044-0.046-0.086-0.072-0.126c-0.025-0.04-0.052-0.078-0.081-0.115c-0.028-0.036-0.058-0.071-0.089-0.103
			c-0.032-0.033-0.065-0.063-0.1-0.092c-0.035-0.029-0.071-0.056-0.109-0.081c-0.038-0.025-0.077-0.049-0.118-0.07
			c-0.041-0.022-0.083-0.042-0.127-0.06s-0.088-0.034-0.133-0.048s-0.09-0.025-0.136-0.034c-0.046-0.009-0.092-0.016-0.139-0.02
			s-0.094-0.007-0.142-0.007c-0.05,0-0.098,0.002-0.146,0.007s-0.095,0.011-0.141,0.02s-0.092,0.02-0.136,0.034
			s-0.088,0.029-0.131,0.048c-0.043,0.018-0.085,0.038-0.125,0.06c-0.04,0.022-0.079,0.045-0.117,0.07
			c-0.038,0.025-0.074,0.052-0.109,0.081c-0.035,0.029-0.069,0.06-0.101,0.092c-0.033,0.033-0.064,0.067-0.093,0.103
			c-0.029,0.036-0.057,0.074-0.083,0.114c-0.026,0.04-0.05,0.081-0.072,0.124c-0.022,0.043-0.043,0.088-0.062,0.135
			s-0.036,0.095-0.05,0.145S45.3,34.15,45.29,34.203c-0.01,0.053-0.017,0.108-0.022,0.164c-0.005,0.056-0.007,0.114-0.007,0.173
			c0,0.057,0.002,0.114,0.007,0.169c0.005,0.055,0.012,0.109,0.022,0.161c0.01,0.053,0.022,0.104,0.036,0.154
			s0.031,0.099,0.05,0.147s0.04,0.094,0.063,0.138c0.023,0.044,0.047,0.087,0.074,0.128c0.026,0.041,0.054,0.08,0.084,0.118
			c0.03,0.038,0.061,0.074,0.094,0.108c0.034,0.034,0.068,0.067,0.104,0.097c0.036,0.03,0.073,0.059,0.111,0.085
			c0.038,0.026,0.078,0.051,0.118,0.073c0.041,0.022,0.083,0.043,0.126,0.061c0.043,0.018,0.086,0.034,0.13,0.048
			c0.044,0.014,0.089,0.025,0.134,0.034c0.045,0.009,0.091,0.016,0.138,0.02C46.6,36.086,46.647,36.088,46.694,36.088z"/>
	</g>
	<g>
		<path d="M52.898,30.689h0.138h0.138h0.138h0.138l0.796,1.333l0.796,1.333l0.796,1.333l0.796,1.333l0.212,0.375l0.212,0.375
			l0.212,0.375l0.212,0.375h0.011h0.011h0.011h0.011c-0.004-0.092-0.007-0.184-0.011-0.275c-0.004-0.092-0.008-0.183-0.011-0.275
			s-0.008-0.183-0.011-0.275c-0.004-0.092-0.007-0.183-0.011-0.275c-0.004-0.092-0.007-0.184-0.01-0.275s-0.005-0.184-0.007-0.275
			c-0.002-0.092-0.003-0.184-0.004-0.275s-0.001-0.184-0.001-0.275v-1.158v-1.158v-1.158v-1.158h0.126h0.126h0.126h0.126v1.889
			v1.889v1.889v1.889h-0.138H57.69h-0.138h-0.138l-0.797-1.333l-0.797-1.333l-0.797-1.333l-0.797-1.333l-0.212-0.375l-0.212-0.375
			l-0.212-0.375l-0.212-0.375h-0.012h-0.012h-0.012h-0.012c0.004,0.092,0.007,0.183,0.011,0.273c0.004,0.09,0.008,0.18,0.012,0.27
			c0.004,0.089,0.008,0.178,0.012,0.266c0.004,0.088,0.008,0.176,0.012,0.263c0.004,0.087,0.007,0.175,0.01,0.263
			c0.003,0.088,0.005,0.177,0.007,0.266s0.003,0.179,0.004,0.27c0.001,0.091,0.001,0.182,0.001,0.273v1.172v1.172v1.172v1.172
			h-0.126H53.15h-0.126h-0.126v-1.889v-1.889v-1.889V30.689z"/>
	</g>
	<g>
		<path d="M59.821,36.868c0-0.151,0.018-0.293,0.054-0.426c0.036-0.133,0.089-0.258,0.161-0.373c0.072-0.116,0.161-0.222,0.268-0.32
			s0.233-0.187,0.376-0.267c0.144-0.08,0.307-0.155,0.491-0.223s0.388-0.132,0.613-0.189s0.469-0.109,0.734-0.155
			c0.265-0.046,0.551-0.086,0.856-0.12c0.002-0.052,0.002-0.103,0.001-0.155c-0.001-0.052-0.003-0.104-0.006-0.156
			c-0.003-0.052-0.008-0.104-0.014-0.156c-0.006-0.052-0.013-0.105-0.021-0.157c-0.009-0.053-0.019-0.104-0.032-0.153
			s-0.027-0.098-0.043-0.145c-0.016-0.047-0.034-0.092-0.054-0.136c-0.02-0.044-0.042-0.087-0.066-0.128
			c-0.024-0.041-0.05-0.08-0.079-0.117c-0.029-0.037-0.06-0.073-0.093-0.106s-0.069-0.065-0.107-0.095
			c-0.038-0.03-0.079-0.057-0.121-0.083c-0.043-0.026-0.089-0.048-0.138-0.068c-0.049-0.019-0.101-0.035-0.156-0.048
			c-0.055-0.013-0.113-0.022-0.173-0.029c-0.061-0.006-0.125-0.01-0.191-0.01c-0.094,0-0.185,0.005-0.274,0.014
			c-0.089,0.009-0.177,0.023-0.262,0.041c-0.085,0.018-0.168,0.041-0.249,0.068c-0.081,0.027-0.159,0.059-0.236,0.095
			c-0.076,0.036-0.149,0.073-0.218,0.108c-0.069,0.036-0.134,0.072-0.195,0.107c-0.061,0.035-0.119,0.071-0.172,0.105
			c-0.054,0.035-0.103,0.07-0.149,0.104l-0.057-0.095l-0.057-0.095l-0.057-0.095l-0.057-0.095c0.025-0.017,0.051-0.035,0.078-0.053
			c0.027-0.018,0.056-0.037,0.086-0.056s0.061-0.039,0.094-0.059c0.033-0.02,0.066-0.041,0.102-0.062
			c0.036-0.021,0.072-0.042,0.109-0.062c0.037-0.02,0.076-0.04,0.115-0.059c0.039-0.019,0.079-0.038,0.12-0.056
			c0.041-0.018,0.083-0.036,0.126-0.053c0.043-0.017,0.087-0.034,0.133-0.05c0.045-0.016,0.091-0.031,0.139-0.046
			s0.096-0.029,0.145-0.043c0.049-0.014,0.1-0.027,0.151-0.039s0.104-0.023,0.156-0.033s0.106-0.017,0.159-0.023
			c0.054-0.006,0.108-0.011,0.162-0.014c0.055-0.003,0.11-0.005,0.165-0.005c0.082,0,0.161,0.003,0.236,0.01
			c0.075,0.007,0.147,0.017,0.216,0.031c0.069,0.014,0.134,0.031,0.196,0.052c0.062,0.021,0.121,0.045,0.177,0.073
			c0.055,0.028,0.108,0.058,0.158,0.09c0.05,0.033,0.098,0.068,0.143,0.106c0.045,0.038,0.087,0.078,0.127,0.121
			c0.04,0.043,0.077,0.088,0.111,0.136c0.034,0.048,0.066,0.098,0.096,0.149c0.029,0.052,0.056,0.106,0.08,0.161
			c0.024,0.056,0.046,0.114,0.065,0.174c0.019,0.06,0.036,0.122,0.05,0.186c0.014,0.064,0.027,0.13,0.038,0.196
			c0.011,0.067,0.02,0.135,0.027,0.204c0.007,0.069,0.013,0.14,0.016,0.212c0.004,0.072,0.005,0.145,0.005,0.22v0.88v0.88v0.88v0.88
			h-0.106h-0.106h-0.106h-0.106l-0.014-0.178l-0.014-0.178l-0.014-0.178l-0.014-0.178h-0.006h-0.006h-0.006h-0.006
			c-0.071,0.055-0.143,0.109-0.216,0.161c-0.073,0.052-0.148,0.103-0.224,0.152s-0.153,0.097-0.232,0.143
			c-0.079,0.046-0.158,0.091-0.24,0.134c-0.081,0.043-0.164,0.081-0.247,0.113c-0.084,0.032-0.169,0.059-0.255,0.081
			c-0.086,0.021-0.174,0.038-0.263,0.048c-0.089,0.011-0.18,0.016-0.272,0.016c-0.055,0-0.109-0.002-0.163-0.006
			c-0.053-0.004-0.106-0.01-0.157-0.017c-0.052-0.008-0.102-0.017-0.152-0.029c-0.05-0.012-0.099-0.025-0.147-0.04
			c-0.048-0.015-0.094-0.032-0.139-0.051c-0.045-0.019-0.089-0.04-0.132-0.063c-0.043-0.023-0.084-0.048-0.124-0.075
			c-0.04-0.027-0.079-0.055-0.116-0.086c-0.037-0.03-0.072-0.063-0.106-0.098s-0.064-0.072-0.093-0.111s-0.056-0.08-0.081-0.124
			c-0.025-0.043-0.048-0.089-0.069-0.137c-0.021-0.048-0.04-0.098-0.056-0.15c-0.016-0.052-0.029-0.106-0.039-0.163
			c-0.01-0.056-0.018-0.115-0.024-0.176S59.821,36.933,59.821,36.868z M60.348,36.844c0,0.099,0.007,0.192,0.022,0.277
			c0.014,0.085,0.036,0.163,0.065,0.234c0.029,0.071,0.065,0.134,0.107,0.191c0.043,0.056,0.093,0.106,0.15,0.148
			c0.058,0.042,0.118,0.079,0.18,0.11s0.128,0.058,0.196,0.079s0.138,0.037,0.211,0.047c0.073,0.01,0.149,0.016,0.227,0.016
			c0.08,0,0.16-0.005,0.238-0.014c0.078-0.01,0.156-0.024,0.232-0.043s0.152-0.043,0.227-0.071c0.075-0.029,0.148-0.062,0.221-0.1
			c0.072-0.038,0.147-0.081,0.222-0.128c0.076-0.047,0.154-0.098,0.233-0.153c0.079-0.055,0.16-0.115,0.243-0.179
			c0.083-0.064,0.167-0.132,0.253-0.205v-0.467v-0.467v-0.467v-0.467c-0.142,0.017-0.277,0.035-0.408,0.055s-0.255,0.039-0.374,0.06
			c-0.119,0.021-0.232,0.043-0.34,0.066c-0.108,0.023-0.21,0.047-0.307,0.072c-0.096,0.025-0.188,0.051-0.275,0.078
			c-0.087,0.027-0.17,0.056-0.248,0.085s-0.151,0.06-0.22,0.092c-0.069,0.032-0.132,0.065-0.192,0.1
			c-0.059,0.034-0.114,0.07-0.165,0.107c-0.051,0.037-0.097,0.075-0.14,0.114c-0.042,0.039-0.081,0.08-0.115,0.121
			c-0.034,0.042-0.064,0.084-0.09,0.128c-0.026,0.044-0.048,0.089-0.067,0.136s-0.036,0.094-0.049,0.143
			c-0.013,0.049-0.023,0.099-0.029,0.15C60.351,36.739,60.348,36.791,60.348,36.844z"/>
	</g>
	<g>
		<path d="M65.977,33.176h-0.215h-0.215h-0.215h-0.215v-0.097v-0.097v-0.097v-0.097l0.218-0.011l0.218-0.011l0.218-0.011
			l0.218-0.011l0.017-0.398l0.017-0.398l0.017-0.398l0.017-0.398h0.109h0.109h0.109h0.109v0.398v0.398v0.398v0.398h0.398h0.398
			h0.398h0.398v0.109v0.109v0.109v0.109h-0.398H67.29h-0.398h-0.398v0.897v0.897v0.897v0.897c0,0.044,0.001,0.087,0.002,0.129
			s0.004,0.083,0.007,0.122c0.003,0.04,0.007,0.078,0.012,0.116c0.005,0.037,0.011,0.074,0.018,0.109
			c0.006,0.035,0.014,0.07,0.023,0.102s0.02,0.065,0.032,0.095c0.012,0.03,0.025,0.06,0.04,0.088
			c0.015,0.028,0.03,0.055,0.048,0.081c0.017,0.026,0.036,0.05,0.056,0.073c0.02,0.023,0.042,0.045,0.066,0.065
			s0.049,0.039,0.075,0.056c0.027,0.017,0.055,0.033,0.084,0.047c0.03,0.014,0.061,0.027,0.096,0.038
			c0.034,0.011,0.071,0.02,0.109,0.027c0.039,0.007,0.08,0.013,0.123,0.016c0.043,0.004,0.089,0.005,0.136,0.005
			c0.027,0,0.054-0.001,0.082-0.003c0.028-0.002,0.057-0.005,0.086-0.01c0.029-0.004,0.059-0.01,0.089-0.016
			s0.061-0.014,0.093-0.023c0.032-0.009,0.062-0.018,0.092-0.027c0.03-0.009,0.059-0.019,0.087-0.029
			c0.028-0.01,0.055-0.02,0.082-0.031c0.026-0.011,0.052-0.022,0.077-0.033l0.034,0.103l0.034,0.103l0.034,0.103l0.034,0.103
			c-0.04,0.015-0.08,0.03-0.12,0.044s-0.08,0.027-0.12,0.039c-0.04,0.012-0.08,0.024-0.12,0.035c-0.04,0.011-0.08,0.021-0.121,0.031
			c-0.04,0.01-0.079,0.018-0.116,0.025c-0.037,0.007-0.073,0.013-0.107,0.018c-0.034,0.005-0.067,0.008-0.099,0.011
			s-0.062,0.004-0.091,0.004c-0.067,0-0.131-0.002-0.192-0.007c-0.061-0.005-0.119-0.012-0.175-0.022s-0.108-0.022-0.158-0.037
			c-0.05-0.015-0.097-0.032-0.141-0.052c-0.044-0.02-0.086-0.042-0.125-0.067s-0.077-0.05-0.112-0.079
			c-0.035-0.028-0.068-0.058-0.099-0.091c-0.031-0.032-0.06-0.066-0.087-0.103c-0.027-0.036-0.051-0.075-0.074-0.115
			c-0.023-0.04-0.043-0.082-0.062-0.126s-0.035-0.09-0.05-0.138c-0.015-0.048-0.027-0.097-0.038-0.149
			c-0.01-0.052-0.019-0.104-0.027-0.158c-0.008-0.054-0.014-0.109-0.019-0.166s-0.009-0.114-0.012-0.173
			c-0.003-0.059-0.004-0.119-0.004-0.18v-0.886v-0.886v-0.886V33.176z"/>
	</g>
	<g>
		<path d="M69.244,32.741h0.126h0.126h0.126h0.126v0.865v0.865v0.865v0.865c0,0.147,0.006,0.285,0.018,0.412
			c0.012,0.128,0.03,0.246,0.055,0.354s0.055,0.207,0.091,0.296s0.079,0.168,0.128,0.238c0.049,0.07,0.105,0.131,0.17,0.183
			s0.136,0.096,0.216,0.131c0.08,0.035,0.167,0.061,0.263,0.079c0.095,0.017,0.198,0.026,0.309,0.026
			c0.082,0,0.162-0.006,0.24-0.017c0.078-0.011,0.155-0.028,0.229-0.051c0.075-0.022,0.147-0.051,0.218-0.084
			s0.139-0.073,0.206-0.118c0.067-0.045,0.135-0.097,0.205-0.155s0.142-0.123,0.216-0.194c0.074-0.071,0.149-0.149,0.226-0.233
			s0.156-0.175,0.236-0.272v-1.015V34.77v-1.015v-1.015h0.126h0.126h0.126h0.126v1.376v1.376v1.376v1.376h-0.106h-0.106h-0.106
			h-0.106l-0.014-0.229l-0.014-0.229l-0.014-0.229l-0.014-0.229h-0.006h-0.006h-0.006h-0.006c-0.067,0.08-0.135,0.157-0.204,0.229
			c-0.069,0.072-0.139,0.14-0.209,0.204s-0.142,0.124-0.215,0.18c-0.073,0.056-0.146,0.108-0.221,0.155
			c-0.074,0.048-0.151,0.089-0.231,0.125c-0.08,0.036-0.162,0.066-0.247,0.089c-0.085,0.024-0.173,0.042-0.263,0.054
			c-0.09,0.012-0.183,0.018-0.279,0.018c-0.143,0-0.277-0.011-0.401-0.032c-0.124-0.021-0.239-0.054-0.344-0.097
			c-0.105-0.043-0.201-0.097-0.286-0.161s-0.162-0.14-0.229-0.226c-0.067-0.086-0.125-0.184-0.175-0.293
			c-0.05-0.109-0.092-0.23-0.125-0.363c-0.033-0.133-0.059-0.277-0.075-0.434c-0.017-0.156-0.025-0.324-0.025-0.504v-0.883v-0.883
			v-0.883V32.741z"/>
	</g>
	<g>
		<path d="M75.389,32.741h0.109h0.109h0.109h0.109l0.011,0.255l0.011,0.255l0.011,0.255l0.011,0.255h0.009h0.009h0.009h0.009
			c0.046-0.086,0.094-0.168,0.145-0.246c0.051-0.078,0.104-0.152,0.16-0.221c0.056-0.07,0.114-0.135,0.175-0.197
			c0.061-0.062,0.124-0.119,0.19-0.173c0.066-0.053,0.134-0.1,0.204-0.14c0.07-0.04,0.142-0.073,0.216-0.1s0.15-0.047,0.228-0.06
			c0.078-0.013,0.158-0.02,0.241-0.02c0.026,0,0.052,0,0.077,0.001s0.05,0.002,0.074,0.004c0.024,0.002,0.047,0.004,0.07,0.007
			c0.023,0.003,0.044,0.006,0.066,0.01c0.021,0.004,0.042,0.009,0.063,0.015c0.021,0.006,0.043,0.013,0.065,0.02
			c0.022,0.008,0.044,0.016,0.067,0.026c0.023,0.01,0.045,0.02,0.069,0.031l-0.029,0.115l-0.029,0.115l-0.029,0.115L77.9,33.176
			c-0.023-0.009-0.045-0.018-0.067-0.026s-0.042-0.015-0.063-0.021c-0.02-0.006-0.04-0.012-0.058-0.016
			c-0.019-0.005-0.037-0.008-0.054-0.011c-0.017-0.003-0.036-0.005-0.055-0.007c-0.02-0.002-0.04-0.004-0.062-0.005
			s-0.045-0.002-0.069-0.003c-0.024-0.001-0.049-0.001-0.076-0.001c-0.061,0-0.123,0.007-0.186,0.02
			c-0.063,0.013-0.127,0.033-0.191,0.059c-0.065,0.026-0.13,0.059-0.196,0.098c-0.066,0.039-0.133,0.085-0.201,0.138
			c-0.068,0.053-0.134,0.115-0.198,0.187c-0.064,0.072-0.127,0.153-0.188,0.245c-0.061,0.091-0.119,0.192-0.176,0.303
			c-0.057,0.111-0.112,0.231-0.165,0.361v0.937v0.937v0.937v0.937h-0.126h-0.126h-0.126h-0.126v-1.376v-1.376v-1.376V32.741z"/>
	</g>
	<g>
		<path d="M78.45,35.503c0-0.113,0.004-0.223,0.013-0.33c0.008-0.107,0.021-0.211,0.038-0.313c0.017-0.101,0.038-0.2,0.062-0.295
			c0.025-0.096,0.054-0.188,0.087-0.278c0.034-0.09,0.07-0.176,0.109-0.259s0.081-0.162,0.126-0.238
			c0.045-0.076,0.093-0.148,0.143-0.218c0.051-0.069,0.104-0.135,0.16-0.197c0.056-0.062,0.115-0.12,0.175-0.175
			c0.06-0.055,0.122-0.106,0.186-0.154s0.13-0.092,0.198-0.132s0.138-0.078,0.21-0.111c0.072-0.034,0.144-0.063,0.217-0.088
			c0.073-0.025,0.146-0.046,0.22-0.063c0.074-0.017,0.149-0.029,0.224-0.038s0.151-0.012,0.227-0.012
			c0.164,0,0.32,0.014,0.467,0.042c0.147,0.028,0.285,0.069,0.414,0.125s0.249,0.125,0.361,0.208
			c0.111,0.083,0.214,0.18,0.307,0.291c0.094,0.111,0.175,0.233,0.246,0.367c0.07,0.134,0.129,0.279,0.175,0.436
			c0.047,0.157,0.082,0.325,0.105,0.504c0.023,0.18,0.035,0.371,0.035,0.573c0,0.017,0,0.034,0,0.052s0,0.034,0,0.052
			c0,0.017,0,0.034,0,0.052s0,0.034,0,0.052c0,0.017-0.001,0.034-0.001,0.052c-0.001,0.017-0.002,0.034-0.004,0.052
			s-0.004,0.034-0.007,0.052c-0.003,0.017-0.006,0.034-0.01,0.052h-0.992H80.95h-0.992h-0.992c0.002,0.086,0.006,0.17,0.014,0.253
			c0.008,0.083,0.018,0.164,0.031,0.244c0.013,0.08,0.03,0.158,0.049,0.235c0.019,0.077,0.041,0.152,0.066,0.225
			c0.025,0.074,0.052,0.145,0.082,0.213c0.03,0.068,0.062,0.134,0.097,0.197c0.035,0.063,0.072,0.124,0.112,0.181
			s0.083,0.113,0.128,0.166c0.045,0.053,0.092,0.102,0.141,0.149s0.101,0.091,0.155,0.132c0.054,0.041,0.11,0.079,0.169,0.114
			c0.059,0.035,0.119,0.068,0.183,0.097c0.063,0.03,0.128,0.055,0.194,0.078c0.067,0.022,0.135,0.041,0.206,0.055
			s0.143,0.026,0.218,0.033s0.151,0.011,0.229,0.011c0.074,0,0.147-0.003,0.218-0.008c0.071-0.005,0.14-0.014,0.207-0.025
			c0.067-0.011,0.133-0.025,0.197-0.041c0.064-0.016,0.126-0.036,0.186-0.058c0.06-0.022,0.12-0.046,0.178-0.072
			s0.115-0.054,0.171-0.084c0.056-0.03,0.111-0.062,0.165-0.096c0.054-0.034,0.106-0.07,0.158-0.109l0.052,0.097l0.052,0.097
			l0.052,0.097l0.052,0.097c-0.056,0.033-0.112,0.065-0.171,0.096s-0.118,0.063-0.178,0.093s-0.123,0.061-0.186,0.09
			s-0.128,0.059-0.194,0.087c-0.066,0.029-0.136,0.054-0.21,0.075s-0.154,0.039-0.237,0.054c-0.084,0.014-0.172,0.025-0.264,0.032
			c-0.093,0.007-0.19,0.011-0.291,0.011c-0.088,0-0.175-0.004-0.26-0.012c-0.085-0.008-0.169-0.02-0.252-0.037
			c-0.083-0.016-0.164-0.037-0.244-0.061c-0.08-0.024-0.159-0.053-0.236-0.085c-0.077-0.032-0.152-0.069-0.224-0.108
			c-0.072-0.04-0.142-0.083-0.21-0.131c-0.067-0.047-0.132-0.098-0.195-0.153c-0.062-0.055-0.122-0.113-0.179-0.175
			c-0.057-0.062-0.111-0.128-0.163-0.196s-0.1-0.141-0.145-0.216s-0.088-0.154-0.128-0.236c-0.04-0.082-0.076-0.168-0.11-0.257
			c-0.033-0.089-0.062-0.181-0.087-0.275s-0.046-0.193-0.062-0.293s-0.029-0.205-0.038-0.311
			C78.454,35.726,78.45,35.616,78.45,35.503z M82.474,35.171c0-0.178-0.009-0.344-0.027-0.5c-0.018-0.156-0.045-0.3-0.082-0.433
			c-0.036-0.133-0.082-0.255-0.136-0.367s-0.118-0.211-0.19-0.3c-0.073-0.089-0.152-0.166-0.238-0.233s-0.178-0.122-0.276-0.167
			c-0.098-0.044-0.203-0.078-0.315-0.1c-0.111-0.022-0.229-0.033-0.354-0.033c-0.059,0-0.118,0.003-0.175,0.009
			s-0.115,0.016-0.171,0.028c-0.056,0.012-0.112,0.028-0.167,0.047s-0.109,0.04-0.163,0.065c-0.053,0.025-0.105,0.052-0.156,0.082
			c-0.051,0.03-0.1,0.063-0.149,0.098c-0.048,0.035-0.095,0.073-0.141,0.114s-0.09,0.084-0.133,0.13
			c-0.043,0.046-0.084,0.094-0.123,0.145c-0.039,0.051-0.076,0.104-0.112,0.16c-0.035,0.056-0.069,0.114-0.1,0.175
			c-0.032,0.061-0.061,0.124-0.089,0.19s-0.053,0.134-0.075,0.204c-0.023,0.07-0.043,0.142-0.06,0.216
			c-0.018,0.074-0.033,0.15-0.045,0.228c-0.013,0.078-0.023,0.158-0.03,0.24h0.877h0.877h0.877H82.474z"/>
	</g>
	<g>
		<path d="M86.784,30.689h0.132h0.132h0.132h0.132v1.889v1.889v1.889v1.889H87.18h-0.132h-0.132h-0.132v-1.889v-1.889v-1.889V30.689
			z"/>
	</g>
	<g>
		<path d="M89.477,32.741h0.109h0.109h0.109h0.109l0.011,0.212l0.011,0.212l0.011,0.212l0.011,0.212h0.009h0.009h0.009h0.009
			c0.071-0.071,0.142-0.139,0.214-0.203c0.072-0.065,0.144-0.127,0.216-0.185c0.073-0.059,0.146-0.115,0.219-0.167
			s0.148-0.103,0.223-0.149c0.074-0.047,0.151-0.088,0.231-0.123c0.08-0.035,0.162-0.064,0.247-0.088
			c0.085-0.023,0.172-0.041,0.263-0.053c0.09-0.012,0.183-0.018,0.279-0.018c0.144,0,0.277,0.011,0.402,0.032
			c0.124,0.021,0.239,0.054,0.344,0.097c0.105,0.043,0.201,0.097,0.287,0.161c0.086,0.064,0.162,0.14,0.229,0.226
			c0.067,0.086,0.125,0.184,0.175,0.293c0.05,0.109,0.092,0.23,0.125,0.363c0.033,0.133,0.059,0.277,0.075,0.434
			c0.017,0.156,0.025,0.324,0.025,0.504v0.883v0.883v0.883v0.883h-0.126h-0.126h-0.126h-0.126v-0.865v-0.865v-0.865v-0.865
			c0-0.147-0.006-0.285-0.018-0.412c-0.012-0.128-0.03-0.246-0.054-0.355s-0.054-0.207-0.091-0.296
			c-0.036-0.089-0.079-0.169-0.128-0.238c-0.049-0.07-0.106-0.13-0.17-0.183c-0.065-0.052-0.138-0.096-0.218-0.131
			s-0.17-0.061-0.266-0.079s-0.202-0.026-0.314-0.026c-0.082,0-0.163,0.005-0.241,0.016c-0.078,0.011-0.155,0.027-0.229,0.048
			c-0.074,0.022-0.147,0.048-0.218,0.081c-0.071,0.032-0.139,0.07-0.206,0.113c-0.067,0.043-0.136,0.091-0.207,0.145
			s-0.144,0.113-0.22,0.177c-0.075,0.064-0.153,0.134-0.233,0.209c-0.08,0.075-0.162,0.156-0.246,0.242v1.038v1.038v1.038v1.038
			h-0.126H89.73h-0.126h-0.126v-1.376v-1.376v-1.376V32.741z"/>
	</g>
	<g>
		<path d="M95.187,37.246c0.059,0.05,0.119,0.097,0.18,0.143c0.061,0.046,0.123,0.089,0.186,0.131
			c0.063,0.042,0.127,0.081,0.192,0.119c0.065,0.037,0.131,0.073,0.198,0.106c0.067,0.034,0.138,0.063,0.213,0.088
			c0.075,0.025,0.154,0.046,0.237,0.063c0.083,0.017,0.17,0.029,0.262,0.038c0.091,0.008,0.187,0.012,0.286,0.012
			c0.109,0,0.211-0.007,0.306-0.02c0.095-0.014,0.184-0.034,0.265-0.061s0.157-0.061,0.225-0.102
			c0.068-0.041,0.13-0.088,0.184-0.143c0.054-0.055,0.102-0.111,0.143-0.17c0.041-0.059,0.075-0.12,0.102-0.184
			c0.027-0.064,0.048-0.129,0.061-0.197s0.02-0.139,0.02-0.211c0-0.042-0.003-0.083-0.007-0.122
			c-0.005-0.04-0.012-0.078-0.022-0.115c-0.01-0.037-0.022-0.073-0.037-0.108c-0.015-0.035-0.032-0.069-0.052-0.101
			c-0.02-0.032-0.042-0.064-0.065-0.094s-0.048-0.059-0.074-0.087c-0.026-0.028-0.054-0.054-0.084-0.08
			c-0.029-0.025-0.061-0.05-0.093-0.073c-0.032-0.023-0.066-0.045-0.1-0.066s-0.069-0.042-0.105-0.062s-0.072-0.039-0.11-0.058
			c-0.037-0.019-0.076-0.037-0.115-0.054c-0.039-0.017-0.078-0.034-0.118-0.051c-0.039-0.017-0.079-0.033-0.119-0.049
			c-0.04-0.016-0.08-0.032-0.12-0.048c-0.04-0.016-0.08-0.031-0.121-0.046c-0.052-0.019-0.103-0.039-0.155-0.058
			c-0.052-0.02-0.104-0.039-0.156-0.059c-0.052-0.02-0.104-0.04-0.156-0.061c-0.052-0.021-0.104-0.041-0.157-0.062
			c-0.053-0.021-0.104-0.043-0.154-0.066c-0.05-0.023-0.099-0.047-0.146-0.073c-0.047-0.025-0.093-0.052-0.138-0.079
			c-0.045-0.027-0.088-0.056-0.13-0.086c-0.042-0.03-0.082-0.061-0.12-0.093c-0.038-0.032-0.074-0.066-0.108-0.102
			c-0.034-0.035-0.066-0.072-0.096-0.111c-0.03-0.038-0.058-0.078-0.084-0.119c-0.026-0.041-0.048-0.084-0.067-0.13
			s-0.036-0.093-0.049-0.144c-0.013-0.05-0.023-0.103-0.029-0.157c-0.007-0.055-0.01-0.112-0.01-0.171
			c0-0.05,0.002-0.099,0.007-0.147s0.012-0.096,0.022-0.144s0.022-0.094,0.036-0.14c0.014-0.046,0.031-0.092,0.05-0.137
			c0.019-0.045,0.041-0.088,0.065-0.13s0.05-0.083,0.079-0.122c0.029-0.039,0.06-0.077,0.093-0.113s0.069-0.071,0.107-0.105
			c0.038-0.033,0.079-0.065,0.121-0.095c0.042-0.03,0.087-0.058,0.133-0.084c0.046-0.026,0.095-0.051,0.145-0.073
			c0.05-0.023,0.103-0.044,0.157-0.063c0.054-0.019,0.111-0.036,0.17-0.05s0.12-0.026,0.184-0.036
			c0.064-0.01,0.129-0.017,0.198-0.022c0.068-0.005,0.139-0.007,0.211-0.007c0.072,0,0.144,0.003,0.216,0.01
			c0.072,0.007,0.143,0.017,0.214,0.03c0.071,0.013,0.142,0.03,0.213,0.05c0.071,0.02,0.141,0.043,0.211,0.07
			c0.07,0.027,0.137,0.055,0.201,0.086s0.127,0.063,0.186,0.097c0.06,0.034,0.117,0.071,0.172,0.109
			c0.055,0.038,0.107,0.078,0.157,0.12l-0.069,0.089l-0.069,0.089l-0.069,0.089l-0.069,0.089c-0.046-0.034-0.093-0.067-0.14-0.099
			s-0.095-0.062-0.144-0.091c-0.049-0.029-0.098-0.057-0.148-0.083c-0.05-0.026-0.101-0.052-0.153-0.075
			c-0.052-0.024-0.106-0.045-0.162-0.063c-0.056-0.018-0.115-0.033-0.176-0.045c-0.061-0.012-0.125-0.021-0.191-0.027
			s-0.134-0.009-0.205-0.009c-0.054,0-0.105,0.002-0.155,0.005c-0.05,0.004-0.097,0.009-0.143,0.016
			c-0.046,0.007-0.09,0.016-0.132,0.027s-0.082,0.023-0.121,0.038c-0.038,0.014-0.075,0.03-0.11,0.046
			c-0.035,0.017-0.068,0.034-0.1,0.053c-0.032,0.019-0.062,0.038-0.091,0.059c-0.029,0.021-0.056,0.043-0.082,0.066
			c-0.026,0.023-0.05,0.047-0.073,0.071c-0.022,0.025-0.043,0.051-0.062,0.077c-0.019,0.027-0.036,0.054-0.052,0.083
			s-0.03,0.058-0.042,0.089c-0.012,0.031-0.023,0.061-0.033,0.092s-0.017,0.061-0.024,0.092c-0.006,0.031-0.011,0.061-0.014,0.092
			s-0.005,0.061-0.005,0.092c0,0.04,0.002,0.078,0.007,0.115c0.005,0.037,0.011,0.072,0.021,0.106
			c0.009,0.034,0.02,0.066,0.034,0.097c0.014,0.031,0.029,0.06,0.047,0.088c0.018,0.028,0.038,0.054,0.059,0.08
			s0.044,0.051,0.068,0.075c0.024,0.024,0.05,0.048,0.078,0.071c0.027,0.023,0.057,0.045,0.087,0.066
			c0.03,0.021,0.062,0.041,0.095,0.061c0.033,0.02,0.067,0.039,0.102,0.058c0.035,0.019,0.071,0.037,0.108,0.054
			c0.037,0.017,0.075,0.034,0.115,0.051c0.039,0.016,0.078,0.032,0.117,0.048s0.079,0.032,0.119,0.048
			c0.04,0.016,0.08,0.031,0.119,0.047c0.04,0.015,0.08,0.031,0.12,0.046c0.054,0.021,0.107,0.042,0.161,0.063
			s0.107,0.042,0.161,0.063s0.107,0.042,0.16,0.063s0.107,0.042,0.16,0.063c0.054,0.021,0.106,0.043,0.157,0.067
			c0.051,0.023,0.101,0.048,0.149,0.074c0.048,0.026,0.095,0.053,0.141,0.081c0.046,0.028,0.09,0.058,0.133,0.088
			c0.043,0.031,0.084,0.063,0.123,0.097s0.076,0.07,0.111,0.108c0.035,0.038,0.068,0.077,0.099,0.119
			c0.031,0.041,0.06,0.084,0.086,0.129c0.027,0.045,0.05,0.093,0.07,0.143c0.02,0.05,0.037,0.104,0.05,0.159
			c0.013,0.056,0.023,0.114,0.03,0.176s0.01,0.126,0.01,0.193c0,0.052-0.002,0.103-0.007,0.153c-0.005,0.05-0.012,0.1-0.022,0.149
			c-0.01,0.049-0.022,0.098-0.037,0.146c-0.015,0.048-0.032,0.095-0.052,0.142c-0.02,0.047-0.042,0.092-0.067,0.136
			c-0.025,0.044-0.053,0.086-0.083,0.128c-0.03,0.041-0.063,0.081-0.098,0.119s-0.073,0.075-0.113,0.11
			c-0.04,0.035-0.082,0.069-0.127,0.101c-0.044,0.032-0.091,0.062-0.14,0.09s-0.1,0.055-0.152,0.079
			c-0.053,0.025-0.108,0.047-0.165,0.068c-0.058,0.021-0.117,0.039-0.179,0.055s-0.125,0.029-0.191,0.039
			c-0.066,0.011-0.134,0.018-0.204,0.024c-0.07,0.005-0.143,0.008-0.217,0.008c-0.103,0-0.204-0.005-0.303-0.014
			c-0.099-0.009-0.195-0.023-0.29-0.042c-0.094-0.019-0.187-0.042-0.277-0.07c-0.09-0.028-0.178-0.061-0.264-0.098
			c-0.086-0.037-0.169-0.076-0.249-0.117c-0.08-0.041-0.156-0.083-0.23-0.128c-0.074-0.044-0.144-0.091-0.211-0.139
			c-0.067-0.048-0.132-0.098-0.193-0.149l0.074-0.095l0.074-0.095l0.074-0.095L95.187,37.246z"/>
	</g>
	<g>
		<path d="M100.483,31.411c-0.033,0-0.064-0.003-0.094-0.008c-0.03-0.005-0.059-0.013-0.086-0.024
			c-0.027-0.011-0.053-0.024-0.078-0.039c-0.025-0.016-0.048-0.034-0.07-0.055c-0.022-0.021-0.041-0.043-0.058-0.067
			c-0.016-0.024-0.03-0.049-0.041-0.076c-0.011-0.027-0.019-0.055-0.024-0.084c-0.005-0.03-0.008-0.061-0.008-0.093
			c0-0.036,0.003-0.071,0.008-0.103c0.005-0.032,0.014-0.063,0.024-0.091c0.011-0.028,0.025-0.054,0.041-0.078
			c0.016-0.024,0.036-0.046,0.058-0.066c0.022-0.02,0.045-0.038,0.07-0.053s0.051-0.028,0.078-0.038
			c0.027-0.01,0.056-0.018,0.086-0.023c0.03-0.005,0.061-0.008,0.094-0.008c0.032,0,0.063,0.003,0.093,0.008
			c0.03,0.005,0.058,0.013,0.085,0.023c0.027,0.01,0.053,0.023,0.078,0.038s0.048,0.033,0.07,0.053
			c0.022,0.02,0.041,0.042,0.058,0.066c0.016,0.024,0.03,0.05,0.041,0.078c0.011,0.028,0.019,0.058,0.024,0.091
			c0.005,0.032,0.008,0.067,0.008,0.103c0,0.032-0.003,0.063-0.008,0.093c-0.005,0.03-0.014,0.058-0.024,0.084
			c-0.011,0.027-0.025,0.052-0.041,0.076c-0.016,0.024-0.036,0.046-0.058,0.067s-0.045,0.039-0.07,0.055
			c-0.025,0.016-0.05,0.029-0.078,0.039c-0.027,0.011-0.056,0.018-0.085,0.024S100.516,31.411,100.483,31.411z M100.219,32.741
			h0.126h0.126h0.126h0.126v1.376v1.376v1.376v1.376h-0.126h-0.126h-0.126h-0.126v-1.376v-1.376v-1.376V32.741z"/>
	</g>
	<g>
		<path d="M102.385,35.503c0-0.111,0.004-0.219,0.012-0.324s0.02-0.209,0.037-0.309c0.016-0.1,0.037-0.198,0.061-0.293
			c0.024-0.095,0.053-0.188,0.085-0.278c0.033-0.09,0.068-0.176,0.107-0.259c0.039-0.083,0.08-0.163,0.125-0.239
			c0.044-0.076,0.092-0.149,0.142-0.219c0.05-0.07,0.104-0.136,0.16-0.199c0.056-0.063,0.115-0.123,0.175-0.178
			c0.061-0.056,0.123-0.108,0.188-0.156s0.132-0.093,0.201-0.134c0.069-0.041,0.141-0.078,0.214-0.111
			c0.074-0.034,0.148-0.063,0.224-0.088c0.076-0.025,0.153-0.046,0.23-0.063c0.078-0.017,0.157-0.029,0.237-0.038
			c0.08-0.008,0.161-0.012,0.243-0.012c0.084,0,0.165,0.004,0.244,0.011c0.079,0.007,0.154,0.018,0.228,0.033
			c0.073,0.015,0.144,0.033,0.211,0.055s0.133,0.048,0.195,0.078c0.062,0.03,0.125,0.062,0.189,0.098
			c0.064,0.036,0.128,0.074,0.194,0.116c0.065,0.042,0.132,0.086,0.199,0.134c0.067,0.048,0.135,0.098,0.204,0.152l-0.006-0.252
			l-0.006-0.252l-0.006-0.252l-0.006-0.252v-0.568v-0.568v-0.568V30h0.126h0.126h0.126h0.126v2.061v2.061v2.061v2.061h-0.109h-0.109
			h-0.109h-0.109l-0.011-0.178l-0.011-0.178l-0.011-0.178l-0.011-0.178h-0.009h-0.009h-0.009h-0.009
			c-0.056,0.055-0.114,0.109-0.174,0.161c-0.06,0.052-0.123,0.103-0.189,0.152s-0.133,0.097-0.204,0.143
			c-0.07,0.046-0.143,0.091-0.219,0.134c-0.076,0.043-0.153,0.081-0.233,0.113c-0.08,0.032-0.161,0.059-0.245,0.081
			c-0.084,0.021-0.169,0.038-0.257,0.048c-0.088,0.011-0.177,0.016-0.269,0.016c-0.174,0-0.339-0.015-0.495-0.046
			c-0.156-0.031-0.303-0.077-0.442-0.139s-0.268-0.139-0.389-0.231s-0.233-0.2-0.336-0.324c-0.103-0.123-0.194-0.26-0.271-0.411
			c-0.078-0.151-0.142-0.315-0.194-0.493c-0.052-0.178-0.091-0.37-0.117-0.576S102.385,35.737,102.385,35.503z M102.924,35.503
			c0,0.092,0.003,0.181,0.008,0.268c0.005,0.087,0.013,0.173,0.023,0.256c0.01,0.083,0.023,0.164,0.038,0.243
			c0.015,0.079,0.033,0.156,0.053,0.23c0.02,0.075,0.042,0.146,0.067,0.215s0.051,0.135,0.08,0.199
			c0.029,0.064,0.06,0.124,0.094,0.182c0.034,0.058,0.069,0.113,0.107,0.166c0.038,0.053,0.079,0.102,0.122,0.149
			c0.043,0.047,0.088,0.091,0.135,0.132c0.047,0.041,0.097,0.079,0.149,0.115c0.052,0.035,0.106,0.068,0.162,0.097
			s0.115,0.055,0.175,0.078c0.06,0.022,0.123,0.041,0.187,0.055c0.064,0.015,0.131,0.026,0.2,0.033s0.139,0.011,0.212,0.011
			c0.076,0,0.152-0.005,0.227-0.015c0.075-0.01,0.149-0.024,0.222-0.044s0.145-0.044,0.217-0.073
			c0.071-0.029,0.142-0.064,0.211-0.103c0.07-0.039,0.14-0.083,0.211-0.13c0.071-0.048,0.141-0.099,0.213-0.155
			s0.143-0.116,0.214-0.18c0.072-0.064,0.144-0.133,0.216-0.206v-0.817v-0.817v-0.817v-0.817c-0.072-0.065-0.144-0.125-0.214-0.181
			c-0.07-0.055-0.14-0.106-0.208-0.152s-0.135-0.087-0.202-0.123c-0.066-0.036-0.131-0.068-0.195-0.095
			c-0.064-0.027-0.128-0.05-0.193-0.07c-0.065-0.02-0.13-0.037-0.195-0.05c-0.065-0.013-0.131-0.023-0.197-0.03
			s-0.133-0.01-0.199-0.01c-0.069,0-0.136,0.004-0.203,0.012c-0.066,0.008-0.132,0.02-0.196,0.035s-0.127,0.035-0.188,0.059
			c-0.062,0.024-0.122,0.051-0.181,0.082c-0.06,0.032-0.117,0.066-0.172,0.103c-0.055,0.037-0.108,0.077-0.159,0.12
			c-0.051,0.043-0.1,0.089-0.147,0.137c-0.047,0.049-0.092,0.1-0.135,0.155c-0.043,0.055-0.083,0.112-0.122,0.172
			c-0.038,0.06-0.074,0.122-0.108,0.187c-0.034,0.065-0.066,0.133-0.095,0.203c-0.029,0.07-0.056,0.143-0.081,0.218
			c-0.025,0.076-0.047,0.152-0.066,0.231c-0.019,0.078-0.034,0.158-0.047,0.238c-0.012,0.081-0.022,0.163-0.028,0.246
			S102.924,35.418,102.924,35.503z"/>
	</g>
	<g>
		<path d="M108.622,35.503c0-0.113,0.004-0.223,0.013-0.33c0.008-0.107,0.021-0.211,0.038-0.313c0.017-0.101,0.038-0.2,0.062-0.295
			c0.025-0.096,0.054-0.188,0.087-0.278c0.034-0.09,0.07-0.176,0.109-0.259s0.081-0.162,0.126-0.238
			c0.045-0.076,0.093-0.148,0.143-0.218c0.051-0.069,0.104-0.135,0.16-0.197c0.056-0.062,0.115-0.12,0.175-0.175
			c0.06-0.055,0.122-0.106,0.186-0.154s0.13-0.092,0.198-0.132c0.068-0.041,0.138-0.078,0.21-0.111
			c0.072-0.034,0.144-0.063,0.216-0.088c0.073-0.025,0.146-0.046,0.22-0.063c0.074-0.017,0.149-0.029,0.224-0.038
			c0.075-0.008,0.151-0.012,0.227-0.012c0.164,0,0.32,0.014,0.467,0.042c0.147,0.028,0.285,0.069,0.414,0.125
			s0.249,0.125,0.361,0.208c0.111,0.083,0.214,0.18,0.307,0.291c0.094,0.111,0.175,0.233,0.246,0.367s0.129,0.279,0.175,0.436
			s0.082,0.325,0.105,0.504c0.023,0.18,0.035,0.371,0.035,0.573c0,0.017,0,0.034,0,0.052s0,0.034,0,0.052c0,0.017,0,0.034,0,0.052
			s0,0.034,0,0.052c0,0.017,0,0.034-0.001,0.052s-0.002,0.034-0.004,0.052c-0.002,0.017-0.004,0.034-0.007,0.052
			c-0.003,0.017-0.006,0.034-0.01,0.052h-0.992h-0.992h-0.992h-0.992c0.002,0.086,0.006,0.17,0.014,0.253
			c0.008,0.083,0.018,0.164,0.031,0.244s0.03,0.158,0.049,0.235s0.041,0.152,0.066,0.225c0.025,0.074,0.052,0.145,0.082,0.213
			c0.03,0.068,0.062,0.134,0.097,0.197c0.035,0.063,0.072,0.124,0.112,0.181c0.04,0.058,0.083,0.113,0.128,0.166
			c0.045,0.053,0.092,0.102,0.141,0.149s0.101,0.091,0.155,0.132s0.11,0.079,0.169,0.114s0.119,0.068,0.183,0.097
			c0.063,0.03,0.128,0.055,0.194,0.078s0.135,0.041,0.206,0.055c0.071,0.015,0.143,0.026,0.218,0.033
			c0.075,0.007,0.151,0.011,0.229,0.011c0.074,0,0.147-0.003,0.218-0.008c0.071-0.005,0.14-0.014,0.207-0.025
			c0.067-0.011,0.133-0.025,0.197-0.041c0.064-0.016,0.126-0.036,0.186-0.058c0.06-0.022,0.12-0.046,0.178-0.072
			s0.115-0.054,0.171-0.084s0.111-0.062,0.165-0.096c0.054-0.034,0.106-0.07,0.158-0.109l0.052,0.097l0.052,0.097l0.052,0.097
			l0.052,0.097c-0.056,0.033-0.112,0.065-0.171,0.096s-0.118,0.063-0.178,0.093c-0.061,0.031-0.123,0.061-0.186,0.09
			c-0.063,0.03-0.128,0.059-0.194,0.087c-0.066,0.029-0.136,0.054-0.21,0.075c-0.075,0.021-0.154,0.039-0.237,0.054
			s-0.172,0.025-0.264,0.032s-0.19,0.011-0.291,0.011c-0.088,0-0.175-0.004-0.26-0.012c-0.085-0.008-0.169-0.02-0.252-0.037
			s-0.164-0.037-0.244-0.061c-0.08-0.024-0.159-0.053-0.236-0.085c-0.077-0.032-0.152-0.069-0.224-0.108
			c-0.072-0.04-0.142-0.083-0.21-0.131c-0.067-0.047-0.132-0.098-0.195-0.153c-0.062-0.055-0.122-0.113-0.179-0.175
			c-0.057-0.062-0.111-0.128-0.163-0.196s-0.1-0.141-0.145-0.216s-0.088-0.154-0.128-0.236c-0.04-0.082-0.076-0.168-0.11-0.257
			c-0.033-0.089-0.062-0.181-0.087-0.275s-0.046-0.193-0.062-0.293s-0.029-0.205-0.038-0.311
			C108.626,35.726,108.622,35.616,108.622,35.503z M112.646,35.171c0-0.178-0.009-0.344-0.027-0.5
			c-0.018-0.156-0.045-0.3-0.082-0.433c-0.036-0.133-0.082-0.255-0.136-0.367c-0.054-0.111-0.118-0.211-0.19-0.3
			c-0.073-0.089-0.152-0.166-0.238-0.233s-0.178-0.122-0.276-0.167c-0.098-0.044-0.203-0.078-0.315-0.1
			c-0.111-0.022-0.229-0.033-0.354-0.033c-0.059,0-0.118,0.003-0.175,0.009c-0.058,0.006-0.115,0.016-0.171,0.028
			c-0.056,0.012-0.112,0.028-0.167,0.047c-0.055,0.019-0.109,0.04-0.163,0.065c-0.053,0.025-0.105,0.052-0.156,0.082
			c-0.051,0.03-0.1,0.063-0.149,0.098c-0.048,0.035-0.095,0.073-0.141,0.114s-0.09,0.084-0.133,0.13
			c-0.043,0.046-0.084,0.094-0.123,0.145c-0.039,0.051-0.076,0.104-0.112,0.16s-0.069,0.114-0.1,0.175
			c-0.032,0.061-0.061,0.124-0.089,0.19s-0.053,0.134-0.075,0.204s-0.043,0.142-0.06,0.216s-0.033,0.15-0.045,0.228
			c-0.013,0.078-0.023,0.158-0.03,0.24h0.877h0.877h0.877H112.646z"/>
	</g>
</g>
</svg>
