<?xml version="1.0" encoding="utf-8"?>
<!-- Generator: Adobe Illustrator 19.1.0, SVG Export Plug-In . SVG Version: 6.00 Build 0)  -->
<svg version="1.1" id="Layer_1" xmlns="http://www.w3.org/2000/svg" xmlns:xlink="http://www.w3.org/1999/xlink" x="0px" y="0px"
	 viewBox="0 0 689.011 563.015" style="enable-background:new 0 0 689.011 563.015;" xml:space="preserve">
<style type="text/css">
	.st0{fill:#185D78;}
</style>
<g>
	<path class="st0" d="M346.356,14.078c-54.078,0-101.897,26.773-130.96,67.812c-18.499,26.143-29.383,58.081-29.383,92.503
		c0,11.748,1.251,23.166,3.669,34.187c15.656,72.145,79.862,126.191,156.674,126.191c22.368,0,43.69-4.604,63.046-12.876
		c47.025-20.186,82.506-62.217,93.593-113.315c2.418-11.021,3.669-22.47,3.669-34.187C506.664,85.861,434.853,14.078,346.356,14.078
		z M369.922,52.566c20.847-6.72,73.371,2.882,75.058,60.101c0.031,0.728,0.031,1.459,0.031,2.218
		c-0.731-0.46-1.455-0.96-2.217-1.423c-5.524-3.441-11.583-6.122-17.905-8.076c-2.713-24.389-20.65-32.198-36.011-32.299
		c0.074,0.593,0.137,1.258,0.201,1.887c0.168,2.446,0.137,4.765-0.165,6.916c-1.255,10.258-7.278,17.009-15.119,17.61
		c-8.477,0.657-16.124-6.094-18.404-17.61c-0.299-1.356-0.499-2.744-0.594-4.203C353.704,63.658,360.884,55.48,369.922,52.566z
		 M346.588,124.055c5.359,3.771,10.458,8.174,15.22,13.238c5.56,5.926,10.694,12.775,15.224,20.584
		c4.273,7.38,6.192,10.328,8.508,17.74c-5.497,2.914-11.52,5.194-18.067,6.716c-1.855-6.385-3.279-8.406-7.022-14.858
		c-4.073-7.081-8.772-13.14-13.863-18.268c-4.766-4.769-9.865-8.736-15.193-11.913c-19.655-11.783-41.929-13.207-56.099-8.108
		c-0.724-3.675-1.086-7.348-1.086-10.989c0-3.412,0.194-6.589,0.563-9.598C294.428,102.807,322.954,107.407,346.588,124.055z
		 M409.402,189.35c-5.524,3.873-11.653,7.281-18.432,10.293c-5.929,2.579-12.251,4.698-18.967,6.188
		c-7.511,1.656-15.551,2.548-24.027,2.548c-9.495,0-14.297-0.165-22.636-2.249c0.264-6.189,1.356-12.543,3.31-19.03
		c7.148,2.017,10.884,2.147,19.325,2.147c7.415,0,14.363-0.825,20.815-2.414c6.554-1.522,12.578-3.837,18.074-6.72
		c9.267-4.863,16.778-10.553,22.537-17.139c7.184-8.08,11.745-17.446,13.899-27.936c2.65,1.061,5.229,2.253,7.615,3.641
		c3.87,2.218,7.244,4.569,10.16,6.983C435.942,163.467,425.389,178.164,409.402,189.35z M343.478,261.333
		c-2.449,2.053-5.068,3.838-7.742,5.395c-3.609,2.084-7.085,3.74-10.395,4.994c-14.202-14.292-24.129-37.061-23.666-63.141
		c0.031-3.346,0.268-6.751,0.668-10.164c0.755-6.421,2.217-13.003,4.393-19.588c2.291-6.956,5.398-14.002,9.407-20.917
		c4.498-7.812,6.716-11.619,12.307-17.575c5.332,3.177,10.459,7.184,15.22,11.945c-5.124,5.135-6.884,8.111-10.982,15.193
		c-3.574,6.224-6.287,12.511-8.142,18.699c-1.954,6.452-3.047,12.841-3.342,19.03c-0.067,1.156-0.098,2.249-0.067,3.377
		C320.874,231.778,330.471,251.338,343.478,261.333z M250.443,117.866c0.464-14.795,3.838-26.61,9.067-35.976
		c16.387-29.686,50.672-34.419,66.522-29.324c9.035,2.914,16.218,11.091,15.125,25.12c-0.098,1.459-0.299,2.847-0.563,4.203
		c-2.316,11.551-9.865,18.435-18.334,17.737c-7.812-0.594-13.965-7.447-15.22-17.737c-0.267-2.183-0.338-4.502-0.137-6.916
		c0.031-0.629,0.098-1.294,0.169-1.887c-7.848,0.066-16.451,2.582-23.367,8.803c-6.452,5.791-11.488,14.759-13.108,27.868
		c-0.33,2.977-0.524,6.188-0.524,9.598c0,3.605,0.362,7.278,1.054,10.953c3.508,18.633,12.146,34.883,31.871,46.034
		c-2.183,6.589-3.638,13.172-4.368,19.592c-25.714-12.279-39.314-31.97-45.569-55.8c-1.922-7.211-2.812-14.528-2.619-21.81V117.866z
		 M231.115,216.786c-2.28-2.084-4.597-4.864-6.747-8.206c-13.109-20.257-20.025-60.864,21.711-87.274
		c0.194-0.13,0.362-0.264,0.563-0.366c-0.201,7.282,0.692,14.63,2.611,21.81c-18.299,14.067-17.406,34.187-9.861,47.362
		c0.495-0.366,1.026-0.762,1.556-1.128c11.614-7.942,23.496-6.849,28.859,0.995c3.609,5.229,3.374,12.181-0.696,18.602
		c-1.986,3.11-4.9,6.122-8.709,8.768C248.789,225.294,238.168,223.171,231.115,216.786z M346.588,288.073
		c-53.948,28.262-88.965-11.948-93.526-33.259c-2.017-9.267,1.486-19.591,14.162-25.651c12.74-6.055,24.361-3.176,28.459,5.363
		c4.073,8.603-0.925,19.561-13.632,25.682c-0.594,0.264-1.188,0.527-1.75,0.759c7.443,12.806,23.954,23.335,48.149,13.934
		c3.308-1.258,6.786-2.913,10.392-4.997c2.685-1.557,5.295-3.342,7.746-5.395c15.55-12.711,26.94-33.294,25.946-54.408
		c1.985-0.464,3.936-0.96,5.855-1.522c4.572-1.294,8.94-2.847,13.108-4.667c0.162,1.553,0.299,3.11,0.362,4.667
		c1.294,24.558-9.759,49.509-27.133,66.321c-5.229,5.096-11.053,9.401-17.312,12.743
		C347.118,287.775,346.851,287.908,346.588,288.073z M440.113,254.814c-2.449,11.352-13.501,27.798-30.712,36.803
		c-15.125,7.907-35.044,10.026-58.053-2.123c0.236-0.131,0.531-0.264,0.798-0.397c6.256-3.342,12.079-7.644,17.308-12.74
		c17.473,7.148,31.604,0,39.947-10.325c1.286-1.623,2.45-3.342,3.441-5.064c-0.563-0.232-1.124-0.496-1.718-0.759
		c-0.563-0.298-1.16-0.597-1.722-0.896c-11.421-6.224-15.751-16.415-11.847-24.621c2.151-4.534,6.417-7.513,11.847-8.438
		c4.829-0.762,10.525,0.063,16.518,2.91C438.627,235.223,442.099,245.547,440.113,254.814z M462.057,216.786
		c-7.049,6.385-17.708,8.508-29.326,0.563c-3.8-2.647-6.716-5.627-8.698-8.768c-4.136-6.389-4.466-13.341-0.861-18.57
		c5.391-7.809,17.406-8.968,29.024-1.026c0.527,0.366,1.058,0.762,1.589,1.128c7.247-12.711,8.203-32.001-11.389-48.188
		c-2.942-2.414-6.284-4.765-10.153-6.983c-2.418-1.392-4.966-2.579-7.615-3.641c-4.997-1.985-10.065-3.507-15.224-4.467
		c-13.933-2.614-28.529-0.959-43.552,8.041c-4.766-5.096-9.865-9.499-15.224-13.238c19.297-13.604,39.184-17.375,58.776-14.627
		c5.391,0.696,10.726,1.919,16.018,3.575c6.322,1.951,12.378,4.667,17.906,8.072c0.755,0.499,1.486,0.96,2.217,1.427
		c42.59,27.932,36.074,68.406,23.23,88.497C466.653,211.922,464.341,214.733,462.057,216.786z"/>
	<g>
		<path class="st0" d="M27.371,550.446V447.737h17.187v85.983h23.838l-6.945,16.726H27.371z"/>
		<path class="st0" d="M118.987,549.236l-2.286-9.904h-0.969c-1.712,3.512-4.146,6.263-7.302,8.281
			c-3.166,1.999-6.778,3.008-10.844,3.008c-6.926,0-12.171-2.355-15.722-7.065c-3.552-4.709-5.333-11.755-5.333-21.124V472.08
			h18.631v45.92c0,5.631,0.673,9.885,2.008,12.744c1.336,2.859,3.512,4.294,6.511,4.294c3.967,0,6.867-1.988,8.687-5.956
			c1.831-3.967,2.741-10.646,2.741-20.016V472.08h18.631v77.156H118.987z"/>
		<path class="st0" d="M162.483,509.827l-19.254-37.747h19.115l10.251,23.549l9.488-23.549h18.978l-19.393,37.747l20.224,39.408
			h-19.255l-10.942-24.656l-10.182,24.656h-19.185L162.483,509.827z"/>
		<path class="st0" d="M216.694,455.764h25.241c9.459,0,16.978,1.821,22.558,5.462c5.581,3.641,8.371,9.38,8.371,17.226
			c0,4.917-1.395,9.201-4.185,12.843c-2.79,3.641-6.926,6.164-12.418,7.589v0.563c6.906,1.039,12.349,3.434,16.316,7.164
			c3.968,3.74,5.956,8.865,5.956,15.386c0,4.542-0.831,8.519-2.483,11.922c-1.652,3.404-3.997,6.234-7.015,8.51
			c-3.028,2.265-6.668,3.967-10.923,5.105c-4.255,1.139-9.034,1.702-14.327,1.702h-27.091V455.764z M239.381,496.895
			c9.647,0,16.553-1.534,20.709-4.611c4.165-3.067,6.243-7.727,6.243-13.97c0-6.055-2.216-10.429-6.668-13.12
			c-4.442-2.691-10.963-4.047-19.571-4.047h-16.88v35.748H239.381z M242.083,543.843c9.36,0,16.712-1.751,22.055-5.244
			c5.343-3.502,8.014-9.034,8.014-16.602c0-6.709-2.602-11.695-7.806-14.961c-5.195-3.265-12.615-4.897-22.263-4.897h-18.868v41.704
			H242.083z"/>
		<path class="st0" d="M294.137,532.218c0-7.47,3.542-13.199,10.636-17.167c7.094-3.967,18.206-6.807,33.334-8.509
			c0.089-2.553-0.069-5.125-0.495-7.727s-1.227-4.918-2.414-6.956c-1.187-2.028-2.84-3.691-4.967-4.967s-4.848-1.91-8.153-1.91
			c-4.631,0-8.846,0.9-12.625,2.691c-3.78,1.801-6.808,3.553-9.073,5.254l-2.84-4.68c1.227-0.851,2.721-1.801,4.462-2.84
			c1.751-1.039,3.69-1.989,5.818-2.84c2.128-0.851,4.472-1.583,7.025-2.197c2.552-0.614,5.195-0.92,7.945-0.92
			c4.066,0,7.47,0.682,10.211,2.058c2.741,1.366,4.967,3.235,6.669,5.601c1.701,2.364,2.909,5.125,3.611,8.291
			c0.713,3.176,1.069,6.6,1.069,10.29v43.545h-5.254l-0.703-8.796h-0.286c-3.503,2.741-7.262,5.175-11.28,7.303
			c-4.017,2.137-8.291,3.195-12.832,3.195c-2.741,0-5.294-0.376-7.658-1.138c-2.365-0.752-4.472-1.89-6.313-3.404
			c-1.851-1.504-3.285-3.443-4.324-5.808C294.652,538.224,294.137,535.433,294.137,532.218z M300.658,531.931
			c0,4.918,1.425,8.42,4.254,10.498c2.84,2.078,6.194,3.117,10.072,3.117c3.977,0,7.757-0.94,11.349-2.829
			c3.591-1.9,7.52-4.641,11.774-8.233v-23.123c-6.996,0.851-12.883,1.899-17.661,3.126c-4.779,1.227-8.628,2.692-11.557,4.394
			c-2.939,1.701-5.036,3.641-6.313,5.818C301.3,526.875,300.658,529.289,300.658,531.931z"/>
		<path class="st0" d="M368.75,447.245h6.243v93.769c0,1.514,0.277,2.622,0.851,3.324c0.564,0.712,1.277,1.069,2.128,1.069
			c0.277,0,0.584,0,0.92,0c0.327,0,0.871-0.089,1.633-0.287l1.128,5.106c-0.653,0.188-1.316,0.356-1.979,0.504
			c-0.663,0.138-1.514,0.208-2.552,0.208c-5.581,0-8.371-3.591-8.371-10.784V447.245z"/>
		<path class="st0" d="M398.542,532.218c0-7.47,3.542-13.199,10.636-17.167c7.094-3.967,18.206-6.807,33.334-8.509
			c0.089-2.553-0.069-5.125-0.495-7.727c-0.425-2.602-1.227-4.918-2.414-6.956c-1.187-2.028-2.84-3.691-4.967-4.967
			c-2.127-1.276-4.848-1.91-8.152-1.91c-4.63,0-8.846,0.9-12.626,2.691c-3.779,1.801-6.807,3.553-9.073,5.254l-2.84-4.68
			c1.227-0.851,2.721-1.801,4.462-2.84c1.751-1.039,3.691-1.989,5.818-2.84c2.128-0.851,4.472-1.583,7.025-2.197
			c2.553-0.614,5.195-0.92,7.945-0.92c4.066,0,7.47,0.682,10.211,2.058c2.741,1.366,4.967,3.235,6.669,5.601
			c1.702,2.364,2.909,5.125,3.612,8.291c0.712,3.176,1.069,6.6,1.069,10.29v43.545h-5.254l-0.703-8.796h-0.287
			c-3.502,2.741-7.262,5.175-11.279,7.303c-4.018,2.137-8.292,3.195-12.833,3.195c-2.741,0-5.294-0.376-7.658-1.138
			c-2.364-0.752-4.472-1.89-6.313-3.404c-1.85-1.504-3.285-3.443-4.324-5.808C399.056,538.224,398.542,535.433,398.542,532.218z
			 M405.062,531.931c0,4.918,1.425,8.42,4.254,10.498c2.84,2.078,6.194,3.117,10.072,3.117c3.978,0,7.757-0.94,11.349-2.829
			c3.592-1.9,7.52-4.641,11.774-8.233v-23.123c-6.995,0.851-12.883,1.899-17.661,3.126c-4.779,1.227-8.628,2.692-11.557,4.394
			c-2.938,1.701-5.036,3.641-6.312,5.818C405.705,526.875,405.062,529.289,405.062,531.931z"/>
		<path class="st0" d="M473.155,481.153h5.393l0.564,10.497h0.425c3.503-3.502,7.094-6.411,10.785-8.727
			c3.681-2.315,7.886-3.472,12.615-3.472c7.094,0,12.299,2.127,15.604,6.381c3.314,4.255,4.966,10.824,4.966,19.72v43.683h-6.244
			v-42.832c0-7.282-1.197-12.655-3.611-16.108c-2.415-3.443-6.412-5.175-11.992-5.175c-4.067,0-7.747,1.069-11.062,3.196
			c-3.305,2.127-7.044,5.313-11.201,9.568v51.351h-6.243V481.153z"/>
		<path class="st0" d="M542.94,515.338c0-5.679,0.851-10.755,2.563-15.247c1.702-4.492,3.968-8.252,6.808-11.28
			c2.829-3.027,6.114-5.343,9.854-6.956c3.73-1.603,7.678-2.404,11.843-2.404c4.73,0,8.678,0.851,11.844,2.552
			c3.166,1.702,5.887,3.641,8.152,5.818l-3.681,4.393c-2.176-2.077-4.59-3.809-7.233-5.174c-2.652-1.375-5.63-2.058-8.945-2.058
			c-3.493,0-6.738,0.733-9.716,2.197c-2.978,1.464-5.58,3.542-7.797,6.243c-2.226,2.692-3.977,5.887-5.254,9.568
			c-1.277,3.691-1.91,7.807-1.91,12.349c0,4.442,0.593,8.509,1.771,12.2c1.187,3.68,2.84,6.857,4.966,9.499
			c2.128,2.652,4.73,4.709,7.797,6.174c3.077,1.464,6.461,2.197,10.141,2.197c3.592,0,6.927-0.752,10.004-2.266
			c3.076-1.514,5.788-3.364,8.152-5.541l3.265,4.265c-2.929,2.642-6.194,4.819-9.785,6.521c-3.592,1.702-7.569,2.552-11.913,2.552
			c-4.452,0-8.539-0.801-12.269-2.414c-3.74-1.603-7.005-3.918-9.795-6.946c-2.79-3.028-4.957-6.738-6.52-11.141
			C543.722,526.044,542.94,521.007,542.94,515.338z"/>
		<path class="st0" d="M604.216,515.338c0-5.58,0.831-10.597,2.483-15.039c1.652-4.442,3.878-8.203,6.668-11.279
			c2.79-3.068,5.956-5.432,9.509-7.085c3.542-1.663,7.203-2.483,10.993-2.483c8.133,0,14.515,2.741,19.145,8.222
			c4.631,5.491,6.956,13.239,6.956,23.262c0,0.851,0,1.702,0,2.553c0,0.851-0.099,1.702-0.287,2.553h-49.076
			c0.089,4.254,0.752,8.212,1.979,11.843c1.227,3.641,2.958,6.768,5.184,9.37c2.216,2.602,4.888,4.63,8.015,6.095
			c3.117,1.464,6.609,2.197,10.488,2.197c3.691,0,7.025-0.544,10.003-1.633c2.978-1.079,5.749-2.572,8.302-4.462l2.552,4.819
			c-2.751,1.612-5.749,3.126-9.014,4.542c-3.255,1.415-7.391,2.127-12.408,2.127c-4.354,0-8.44-0.801-12.268-2.414
			c-3.83-1.603-7.164-3.948-10.004-7.015c-2.829-3.076-5.085-6.807-6.738-11.21C605.047,525.905,604.216,520.918,604.216,515.338z
			 M654.004,511.222c0-8.796-1.791-15.396-5.382-19.789c-3.602-4.393-8.469-6.6-14.614-6.6c-2.929,0-5.719,0.624-8.371,1.851
			c-2.641,1.227-5.036,2.978-7.163,5.244c-2.128,2.276-3.878,5.036-5.244,8.301c-1.375,3.265-2.246,6.926-2.622,10.993H654.004z"/>
	</g>
</g>
</svg>
