<?xml version="1.0" encoding="utf-8"?>
<!-- Generator: Adobe Illustrator 19.1.0, SVG Export Plug-In . SVG Version: 6.00 Build 0)  -->
<svg version="1.1" id="Layer_1" xmlns="http://www.w3.org/2000/svg" xmlns:xlink="http://www.w3.org/1999/xlink" x="0px" y="0px"
	 viewBox="0 0 29.91 30.086" style="enable-background:new 0 0 29.91 30.086;" xml:space="preserve">
<style type="text/css">
	.st0{fill:#4D4D4D;}
	.st1{fill-rule:evenodd;clip-rule:evenodd;fill:#4C4C4C;}
	.st2{fill:#4C4C4C;}
	.st3{fill:#383330;}
	.st4{fill:#1F1A17;}
	.st5{fill:#4D4C4C;}
	.st6{fill:none;stroke:#000000;stroke-width:0.3;stroke-miterlimit:10;}
	.st7{fill:#E61413;}
	.st8{fill:#5F5357;}
	.st9{fill:#115C78;}
	.st10{fill-rule:evenodd;clip-rule:evenodd;fill:#4D4D4D;}
	.st11{fill-rule:evenodd;clip-rule:evenodd;}
	.st12{fill:#FFFFFF;}
	.st13{fill:none;}
	.st14{fill:#231F20;}
	.st15{clip-path:url(#SVGID_2_);}
	.st16{clip-path:url(#SVGID_4_);fill:#FCF118;}
	.st17{clip-path:url(#SVGID_4_);fill:#FCF018;}
	.st18{clip-path:url(#SVGID_4_);fill:#FCEF18;}
	.st19{clip-path:url(#SVGID_4_);fill:#FCEE18;}
	.st20{clip-path:url(#SVGID_4_);fill:#FCED18;}
	.st21{clip-path:url(#SVGID_4_);fill:#FCEC18;}
	.st22{clip-path:url(#SVGID_4_);fill:#FCEB18;}
	.st23{clip-path:url(#SVGID_4_);fill:#FCEA18;}
	.st24{clip-path:url(#SVGID_4_);fill:#FCE918;}
	.st25{clip-path:url(#SVGID_4_);fill:#FCE818;}
	.st26{clip-path:url(#SVGID_4_);fill:#FCE718;}
	.st27{clip-path:url(#SVGID_4_);fill:#FCE617;}
	.st28{clip-path:url(#SVGID_4_);fill:#FCE517;}
	.st29{clip-path:url(#SVGID_4_);fill:#FCE417;}
	.st30{clip-path:url(#SVGID_4_);fill:#FCE317;}
	.st31{clip-path:url(#SVGID_4_);fill:#FCE217;}
	.st32{clip-path:url(#SVGID_4_);fill:#FCE117;}
	.st33{clip-path:url(#SVGID_4_);fill:#FCE017;}
	.st34{clip-path:url(#SVGID_4_);fill:#FCDF17;}
	.st35{clip-path:url(#SVGID_4_);fill:#FCDE17;}
	.st36{clip-path:url(#SVGID_4_);fill:#FCDD17;}
	.st37{clip-path:url(#SVGID_4_);fill:#FCDC17;}
	.st38{clip-path:url(#SVGID_4_);fill:#FCDB17;}
	.st39{clip-path:url(#SVGID_4_);fill:#FCDA17;}
	.st40{clip-path:url(#SVGID_4_);fill:#FCD917;}
	.st41{clip-path:url(#SVGID_4_);fill:#FCD817;}
	.st42{clip-path:url(#SVGID_4_);fill:#FCD717;}
	.st43{clip-path:url(#SVGID_4_);fill:#FCD617;}
	.st44{clip-path:url(#SVGID_4_);fill:#FCD517;}
	.st45{clip-path:url(#SVGID_4_);fill:#FCD416;}
	.st46{clip-path:url(#SVGID_4_);fill:#FCD316;}
	.st47{clip-path:url(#SVGID_4_);fill:#FBD216;}
	.st48{clip-path:url(#SVGID_4_);fill:#FBD116;}
	.st49{clip-path:url(#SVGID_4_);fill:#FBD016;}
	.st50{clip-path:url(#SVGID_4_);fill:#FBCF16;}
	.st51{clip-path:url(#SVGID_4_);fill:#FBCE16;}
	.st52{clip-path:url(#SVGID_4_);fill:#FBCD16;}
	.st53{clip-path:url(#SVGID_4_);fill:#FBCC16;}
	.st54{clip-path:url(#SVGID_4_);fill:#FBCB16;}
	.st55{clip-path:url(#SVGID_4_);fill:#FBCA16;}
	.st56{clip-path:url(#SVGID_4_);fill:#FBC916;}
	.st57{clip-path:url(#SVGID_4_);fill:#FBC816;}
	.st58{clip-path:url(#SVGID_4_);fill:#FBC716;}
	.st59{clip-path:url(#SVGID_4_);fill:#FBC616;}
	.st60{clip-path:url(#SVGID_4_);fill:#FBC516;}
	.st61{clip-path:url(#SVGID_4_);fill:#FBC416;}
	.st62{clip-path:url(#SVGID_4_);fill:#FBC316;}
	.st63{clip-path:url(#SVGID_4_);fill:#FBC216;}
	.st64{clip-path:url(#SVGID_4_);fill:#FBC115;}
	.st65{clip-path:url(#SVGID_4_);fill:#FBC015;}
	.st66{clip-path:url(#SVGID_4_);fill:#FBBF15;}
	.st67{clip-path:url(#SVGID_4_);fill:#FBBE15;}
	.st68{clip-path:url(#SVGID_4_);fill:#FBBD15;}
	.st69{clip-path:url(#SVGID_4_);fill:#FBBC15;}
	.st70{clip-path:url(#SVGID_4_);fill:#FBBB15;}
	.st71{clip-path:url(#SVGID_4_);fill:#FBBA15;}
	.st72{clip-path:url(#SVGID_4_);fill:#FBB915;}
	.st73{clip-path:url(#SVGID_4_);fill:#FBB815;}
	.st74{clip-path:url(#SVGID_4_);fill:#FBB715;}
	.st75{clip-path:url(#SVGID_4_);fill:#FBB615;}
	.st76{clip-path:url(#SVGID_4_);fill:#FBB515;}
	.st77{clip-path:url(#SVGID_4_);fill:#FBB415;}
	.st78{clip-path:url(#SVGID_4_);fill:#FBB315;}
	.st79{clip-path:url(#SVGID_4_);fill:#FBB215;}
	.st80{clip-path:url(#SVGID_4_);fill:#FBB115;}
	.st81{clip-path:url(#SVGID_4_);fill:#FBB015;}
	.st82{clip-path:url(#SVGID_4_);fill:#FBAF15;}
	.st83{clip-path:url(#SVGID_4_);fill:#FAAE15;}
	.st84{clip-path:url(#SVGID_4_);fill:#FAAD14;}
	.st85{clip-path:url(#SVGID_4_);fill:#FAAC14;}
	.st86{clip-path:url(#SVGID_4_);fill:#FAAB14;}
	.st87{clip-path:url(#SVGID_4_);fill:#FAAA14;}
	.st88{clip-path:url(#SVGID_4_);fill:#FAA914;}
	.st89{clip-path:url(#SVGID_4_);fill:#FAA814;}
	.st90{clip-path:url(#SVGID_4_);fill:#FAA714;}
	.st91{clip-path:url(#SVGID_4_);fill:#FAA614;}
	.st92{clip-path:url(#SVGID_4_);fill:#FAA514;}
	.st93{clip-path:url(#SVGID_4_);fill:#FAA414;}
	.st94{clip-path:url(#SVGID_4_);fill:#FAA314;}
	.st95{clip-path:url(#SVGID_4_);fill:#FAA214;}
	.st96{clip-path:url(#SVGID_4_);fill:#FAA114;}
	.st97{clip-path:url(#SVGID_4_);fill:#FAA014;}
	.st98{clip-path:url(#SVGID_4_);fill:#FA9F14;}
	.st99{clip-path:url(#SVGID_4_);fill:#FA9E14;}
	.st100{clip-path:url(#SVGID_4_);fill:#FA9D14;}
	.st101{clip-path:url(#SVGID_4_);fill:#FA9C14;}
	.st102{clip-path:url(#SVGID_4_);fill:#FA9B14;}
	.st103{clip-path:url(#SVGID_4_);fill:#FA9A13;}
	.st104{clip-path:url(#SVGID_4_);fill:#FA9913;}
	.st105{clip-path:url(#SVGID_4_);fill:#FA9813;}
	.st106{clip-path:url(#SVGID_4_);fill:#FA9713;}
	.st107{clip-path:url(#SVGID_4_);fill:#FA9613;}
	.st108{clip-path:url(#SVGID_4_);fill:#FA9513;}
	.st109{clip-path:url(#SVGID_4_);fill:#FA9413;}
	.st110{clip-path:url(#SVGID_4_);fill:#FA9313;}
	.st111{clip-path:url(#SVGID_4_);fill:#FA9213;}
	.st112{clip-path:url(#SVGID_4_);fill:#FA9113;}
	.st113{clip-path:url(#SVGID_4_);fill:#FA9013;}
	.st114{clip-path:url(#SVGID_4_);fill:#FA8F13;}
	.st115{clip-path:url(#SVGID_4_);fill:#FA8E13;}
	.st116{clip-path:url(#SVGID_4_);fill:#FA8D13;}
	.st117{clip-path:url(#SVGID_4_);fill:#FA8C13;}
	.st118{clip-path:url(#SVGID_4_);fill:#FA8B13;}
	.st119{clip-path:url(#SVGID_4_);fill:#FA8A13;}
	.st120{clip-path:url(#SVGID_4_);fill:#FA8913;}
	.st121{clip-path:url(#SVGID_4_);fill:#FA8812;}
	.st122{clip-path:url(#SVGID_4_);fill:#FA8712;}
	.st123{clip-path:url(#SVGID_4_);fill:#FA8612;}
	.st124{clip-path:url(#SVGID_4_);fill:#F98512;}
	.st125{clip-path:url(#SVGID_4_);fill:#F98412;}
	.st126{clip-path:url(#SVGID_4_);fill:#F98312;}
	.st127{clip-path:url(#SVGID_4_);fill:#F98212;}
	.st128{clip-path:url(#SVGID_4_);fill:#F98112;}
	.st129{clip-path:url(#SVGID_4_);fill:#F98012;}
	.st130{clip-path:url(#SVGID_4_);fill:#F97F12;}
	.st131{clip-path:url(#SVGID_4_);fill:#F97E12;}
	.st132{clip-path:url(#SVGID_4_);fill:#F97D12;}
	.st133{clip-path:url(#SVGID_4_);fill:#F97C12;}
	.st134{clip-path:url(#SVGID_4_);fill:#F97B12;}
	.st135{clip-path:url(#SVGID_4_);fill:#F97A12;}
	.st136{clip-path:url(#SVGID_4_);fill:#F97912;}
	.st137{clip-path:url(#SVGID_4_);fill:#F97812;}
	.st138{clip-path:url(#SVGID_4_);fill:#F97712;}
	.st139{clip-path:url(#SVGID_4_);fill:#F97612;}
	.st140{clip-path:url(#SVGID_4_);fill:#F97511;}
	.st141{clip-path:url(#SVGID_4_);fill:#F97411;}
	.st142{clip-path:url(#SVGID_4_);fill:#F97311;}
	.st143{clip-path:url(#SVGID_4_);fill:#F97211;}
	.st144{clip-path:url(#SVGID_4_);fill:#F97111;}
	.st145{clip-path:url(#SVGID_4_);fill:#F97011;}
	.st146{clip-path:url(#SVGID_4_);fill:#F96F11;}
	.st147{clip-path:url(#SVGID_4_);fill:#F96E11;}
	.st148{clip-path:url(#SVGID_4_);fill:#F96D11;}
	.st149{clip-path:url(#SVGID_4_);fill:#F96C11;}
	.st150{clip-path:url(#SVGID_4_);fill:#F96B11;}
	.st151{clip-path:url(#SVGID_4_);fill:#F96A11;}
	.st152{clip-path:url(#SVGID_4_);fill:#F96911;}
	.st153{clip-path:url(#SVGID_4_);fill:#F96811;}
	.st154{clip-path:url(#SVGID_4_);fill:#F96711;}
	.st155{clip-path:url(#SVGID_4_);fill:#F96611;}
	.st156{clip-path:url(#SVGID_4_);fill:#F96511;}
	.st157{clip-path:url(#SVGID_4_);fill:#F96411;}
	.st158{clip-path:url(#SVGID_4_);fill:#F96311;}
	.st159{clip-path:url(#SVGID_4_);fill:#F96210;}
	.st160{clip-path:url(#SVGID_4_);fill:#F86110;}
	.st161{clip-path:url(#SVGID_4_);fill:#F86010;}
	.st162{clip-path:url(#SVGID_4_);fill:#F85F10;}
	.st163{clip-path:url(#SVGID_4_);fill:#F85E10;}
	.st164{clip-path:url(#SVGID_4_);fill:#F85D10;}
	.st165{clip-path:url(#SVGID_4_);fill:#F85C10;}
	.st166{clip-path:url(#SVGID_4_);fill:#F85B10;}
	.st167{clip-path:url(#SVGID_4_);fill:#F85A10;}
	.st168{clip-path:url(#SVGID_4_);fill:#F85910;}
	.st169{clip-path:url(#SVGID_4_);fill:#F85810;}
	.st170{clip-path:url(#SVGID_4_);fill:#F85710;}
	.st171{clip-path:url(#SVGID_4_);fill:#F85610;}
	.st172{clip-path:url(#SVGID_4_);fill:#F85510;}
	.st173{clip-path:url(#SVGID_4_);fill:#F85410;}
	.st174{clip-path:url(#SVGID_4_);fill:#F85310;}
	.st175{clip-path:url(#SVGID_4_);fill:#F85210;}
	.st176{clip-path:url(#SVGID_4_);fill:#F85110;}
	.st177{clip-path:url(#SVGID_4_);fill:#F85010;}
	.st178{clip-path:url(#SVGID_4_);fill:#F84F0F;}
	.st179{clip-path:url(#SVGID_4_);fill:#F84E0F;}
	.st180{clip-path:url(#SVGID_4_);fill:#F84D0F;}
	.st181{clip-path:url(#SVGID_4_);fill:#F84C0F;}
	.st182{clip-path:url(#SVGID_4_);fill:#F84B0F;}
	.st183{clip-path:url(#SVGID_4_);fill:#F84A0F;}
	.st184{clip-path:url(#SVGID_4_);fill:#F8490F;}
	.st185{clip-path:url(#SVGID_4_);fill:#F8480F;}
	.st186{clip-path:url(#SVGID_4_);fill:#F8470F;}
	.st187{clip-path:url(#SVGID_4_);fill:#F8460F;}
	.st188{clip-path:url(#SVGID_4_);fill:#F8450F;}
	.st189{clip-path:url(#SVGID_4_);fill:#F8440F;}
	.st190{clip-path:url(#SVGID_4_);fill:#F8430F;}
	.st191{clip-path:url(#SVGID_4_);fill:#F8420F;}
	.st192{clip-path:url(#SVGID_4_);fill:#F8410F;}
	.st193{clip-path:url(#SVGID_4_);fill:#F8400F;}
	.st194{clip-path:url(#SVGID_4_);fill:#F83F0F;}
	.st195{clip-path:url(#SVGID_4_);fill:#F83E0E;}
	.st196{clip-path:url(#SVGID_4_);fill:#F83D0E;}
	.st197{clip-path:url(#SVGID_4_);fill:#F83C0E;}
	.st198{clip-path:url(#SVGID_4_);fill:#F83B0E;}
	.st199{clip-path:url(#SVGID_4_);fill:#F73A0E;}
	.st200{clip-path:url(#SVGID_4_);fill:#F7390E;}
	.st201{clip-path:url(#SVGID_4_);fill:#F7380E;}
	.st202{clip-path:url(#SVGID_4_);fill:#F7370E;}
	.st203{clip-path:url(#SVGID_4_);fill:#F7360E;}
	.st204{clip-path:url(#SVGID_4_);fill:#F7340E;}
	.st205{clip-path:url(#SVGID_4_);fill:#F7330E;}
	.st206{clip-path:url(#SVGID_4_);fill:#F7320E;}
	.st207{clip-path:url(#SVGID_4_);fill:#F7310E;}
	.st208{clip-path:url(#SVGID_4_);fill:#F7300E;}
	.st209{clip-path:url(#SVGID_4_);fill:#F72F0E;}
	.st210{clip-path:url(#SVGID_4_);fill:#F72E0E;}
	.st211{clip-path:url(#SVGID_4_);fill:#F72D0E;}
	.st212{clip-path:url(#SVGID_4_);fill:#F72C0E;}
	.st213{clip-path:url(#SVGID_4_);fill:#F72B0E;}
	.st214{clip-path:url(#SVGID_4_);fill:#F72B0D;}
	.st215{clip-path:url(#SVGID_4_);fill:#F72A0D;}
	.st216{clip-path:url(#SVGID_4_);fill:#F7290D;}
	.st217{clip-path:url(#SVGID_4_);fill:#F7280D;}
	.st218{clip-path:url(#SVGID_4_);fill:#F7270D;}
	.st219{clip-path:url(#SVGID_4_);fill:#F7260D;}
</style>
<g>
	<g>
		<path d="M24.034,18.914v-2.853v-2.853v-2.853V7.503c0-0.011-0.002-0.022-0.005-0.03s-0.007-0.016-0.013-0.022
			s-0.013-0.01-0.022-0.013s-0.019-0.005-0.03-0.005H19.46h-4.505H10.45H5.945c-0.011,0-0.022,0.002-0.03,0.005
			S5.899,7.444,5.893,7.45S5.883,7.464,5.88,7.472s-0.005,0.019-0.005,0.03v2.853v2.853v2.853v2.853c0,0.011,0.002,0.022,0.005,0.03
			s0.007,0.016,0.013,0.022s0.013,0.01,0.022,0.013s0.019,0.005,0.03,0.005h4.505h4.505h4.505h4.505c0.011,0,0.022-0.002,0.03-0.005
			s0.016-0.007,0.022-0.013s0.01-0.013,0.013-0.022S24.034,18.926,24.034,18.914z M23.894,7.653v2.778v2.778v2.778v2.778v0.02v0.02
			v0.02v0.02h-0.02h-0.02h-0.02h-0.02h-4.43h-4.43h-4.43h-4.43h-0.02h-0.02h-0.02h-0.02v-0.02v-0.02v-0.02v-0.02v-2.778v-2.778
			v-2.778V7.653v-0.02v-0.02v-0.02v-0.02h0.02h0.02h0.02h0.02h4.43h4.43h4.43h4.43h0.02h0.02h0.02h0.02v0.02v0.02v0.02V7.653z"/>
	</g>
	<g>
		<path d="M27.868,20.016H27.23h-0.638h-0.638h-0.638h-0.02h-0.02h-0.02h-0.02v-0.02v-0.02v-0.02v-0.02v-3.333v-3.333V9.935V6.602
			c0-0.094-0.018-0.183-0.052-0.264c-0.033-0.081-0.082-0.153-0.142-0.213s-0.132-0.109-0.213-0.142
			c-0.081-0.033-0.169-0.052-0.264-0.052H19.76h-4.805H10.15H5.345c-0.094,0-0.183,0.018-0.263,0.052S4.929,6.065,4.868,6.125
			S4.759,6.258,4.726,6.338S4.674,6.508,4.674,6.602v3.333v3.333v3.333v3.333v0.02v0.02v0.02v0.02h-0.02h-0.02h-0.02h-0.02H3.956
			H3.318H2.68H2.041c-0.049,0-0.097,0.011-0.141,0.03s-0.084,0.047-0.118,0.081s-0.062,0.074-0.081,0.118s-0.03,0.092-0.03,0.141
			v0.083v0.083v0.083v0.083c0,0.056,0.11,0.124,0.282,0.193c0.172,0.07,0.406,0.142,0.652,0.209s0.506,0.128,0.73,0.176
			c0.224,0.048,0.412,0.081,0.515,0.093l5.554,0l5.554,0l5.554,0l5.554,0c0.102-0.012,0.288-0.046,0.511-0.093
			c0.223-0.047,0.482-0.109,0.728-0.175s0.48-0.139,0.651-0.209c0.172-0.07,0.282-0.137,0.282-0.193v-0.083v-0.083v-0.083v-0.083
			c0-0.049-0.011-0.097-0.03-0.141c-0.019-0.044-0.047-0.084-0.081-0.118s-0.074-0.062-0.118-0.081
			C27.965,20.026,27.918,20.016,27.868,20.016z M4.814,19.936v-3.333v-3.333V9.935V6.602c0-0.071,0.015-0.139,0.043-0.202
			s0.067-0.12,0.116-0.169S5.08,6.142,5.143,6.114s0.131-0.043,0.202-0.043h4.805h4.805h4.805h4.805
			c0.071,0,0.139,0.015,0.202,0.043s0.12,0.067,0.169,0.116s0.088,0.106,0.116,0.169s0.043,0.131,0.043,0.202v3.333v3.333v3.333
			v3.333v0.02v0.02v0.02v0.02h-0.02h-0.02h-0.02h-0.02h-1.839h-1.839h-1.839h-1.839c-0.003,0-0.007,0.002-0.012,0.004
			s-0.011,0.005-0.018,0.009s-0.013,0.007-0.019,0.011s-0.011,0.008-0.015,0.012c-0.001,0.001-0.002,0.002-0.003,0.004
			c-0.001,0.002-0.002,0.005-0.002,0.009s-0.001,0.01-0.001,0.018c0,0.008,0,0.019,0,0.032v0.008v0.008v0.008v0.008
			c0,0.033-0.006,0.064-0.017,0.092c-0.011,0.028-0.027,0.052-0.048,0.073s-0.045,0.037-0.073,0.048
			c-0.028,0.011-0.059,0.017-0.092,0.017h-1.201h-1.201h-1.201h-1.201c-0.033,0-0.064-0.006-0.092-0.017
			c-0.028-0.011-0.052-0.027-0.073-0.048s-0.037-0.045-0.048-0.073c-0.011-0.028-0.017-0.059-0.017-0.092v-0.008v-0.008v-0.008
			v-0.008c0-0.011,0-0.02-0.001-0.028s-0.001-0.014-0.002-0.019s-0.002-0.009-0.003-0.012s-0.002-0.005-0.003-0.006
			c-0.007-0.007-0.012-0.012-0.017-0.017s-0.01-0.008-0.014-0.011s-0.009-0.005-0.014-0.006s-0.01-0.002-0.017-0.002h-1.839H8.573
			H6.734H4.894h-0.02h-0.02h-0.02h-0.02v-0.02v-0.02v-0.02V19.936z M28.098,20.656v0.012v0.012v0.012v0.012l-0.01,0.006l-0.01,0.006
			l-0.01,0.006l-0.01,0.006c-0.068,0.038-0.214,0.089-0.398,0.145s-0.405,0.116-0.625,0.172s-0.436,0.106-0.611,0.143
			s-0.307,0.06-0.357,0.06h-5.556h-5.556H9.399H3.843c-0.05,0-0.182-0.023-0.357-0.06s-0.392-0.088-0.611-0.143
			s-0.441-0.116-0.625-0.172s-0.33-0.107-0.398-0.145l-0.01-0.006l-0.01-0.006l-0.01-0.006l-0.01-0.006v-0.012V20.68v-0.012v-0.012
			v-0.068v-0.068v-0.068v-0.068c0-0.033,0.006-0.064,0.017-0.092c0.011-0.028,0.027-0.052,0.048-0.073s0.045-0.037,0.073-0.048
			c0.028-0.011,0.059-0.017,0.092-0.017h0.661h0.661h0.661h0.661c0.004,0,0.008,0,0.011,0.001s0.007,0.001,0.01,0.001
			s0.007,0.001,0.01,0.002s0.006,0.002,0.009,0.003v-0.002v-0.002v-0.002v-0.002h0.02h0.02h0.02h0.02h1.824h1.824h1.824h1.824h0.014
			h0.014h0.014h0.014l0.005,0.014l0.005,0.014l0.005,0.014l0.005,0.014c0.013,0.038,0.032,0.074,0.056,0.107
			s0.052,0.063,0.083,0.088s0.065,0.045,0.1,0.059s0.071,0.022,0.105,0.022h1.201h1.201h1.201h1.201c0.043,0,0.083-0.006,0.12-0.017
			c0.036-0.012,0.069-0.029,0.098-0.052s0.054-0.051,0.075-0.085c0.021-0.034,0.038-0.073,0.051-0.118l0.004-0.014l0.004-0.014
			l0.004-0.014l0.004-0.014h0.015h0.015h0.015h0.015h1.832h1.832h1.832h1.832c0.004,0,0.008,0,0.011,0.001
			c0.004,0,0.007,0.001,0.01,0.001s0.007,0.001,0.01,0.002c0.003,0.001,0.006,0.002,0.009,0.003v-0.002v-0.002v-0.002v-0.002h0.02
			h0.02h0.02h0.02h0.668h0.668H27.2h0.668c0.033,0,0.064,0.006,0.092,0.017c0.028,0.011,0.052,0.027,0.073,0.048
			s0.037,0.045,0.048,0.073c0.011,0.028,0.017,0.059,0.017,0.092v0.068v0.068v0.068V20.656z"/>
	</g>
</g>
<g>
	<path class="st0" d="M29.73,29.98h-7.432h-7.432H7.434H0.002v-7.432v-7.432V7.684V0.251h7.432h7.432h7.432h7.432v7.432v7.432v7.432
		V29.98z M0.252,29.73h7.307h7.307h7.307h7.307v-7.307v-7.307V7.809V0.501h-7.307h-7.307H7.559H0.252v7.307v7.307v7.307V29.73z"/>
</g>
</svg>
