<?xml version="1.0" encoding="utf-8"?>
<!-- Generator: Adobe Illustrator 19.1.0, SVG Export Plug-In . SVG Version: 6.00 Build 0)  -->
<svg version="1.1" id="Layer_1" xmlns="http://www.w3.org/2000/svg" xmlns:xlink="http://www.w3.org/1999/xlink" x="0px" y="0px"
	 viewBox="0 0 29.91 30.086" style="enable-background:new 0 0 29.91 30.086;" xml:space="preserve">
<style type="text/css">
	.st0{fill:#4D4D4D;}
	.st1{fill-rule:evenodd;clip-rule:evenodd;fill:#4C4C4C;}
	.st2{fill:#4C4C4C;}
	.st3{fill:#383330;}
	.st4{fill:#1F1A17;}
	.st5{fill:#4D4C4C;}
	.st6{fill:none;stroke:#000000;stroke-width:0.3;stroke-miterlimit:10;}
	.st7{fill:#E61413;}
	.st8{fill:#5F5357;}
	.st9{fill:#115C78;}
	.st10{fill-rule:evenodd;clip-rule:evenodd;fill:#4D4D4D;}
	.st11{fill-rule:evenodd;clip-rule:evenodd;}
	.st12{fill:#FFFFFF;}
	.st13{fill:none;}
	.st14{fill:#231F20;}
	.st15{clip-path:url(#SVGID_2_);}
	.st16{clip-path:url(#SVGID_4_);fill:#FCF118;}
	.st17{clip-path:url(#SVGID_4_);fill:#FCF018;}
	.st18{clip-path:url(#SVGID_4_);fill:#FCEF18;}
	.st19{clip-path:url(#SVGID_4_);fill:#FCEE18;}
	.st20{clip-path:url(#SVGID_4_);fill:#FCED18;}
	.st21{clip-path:url(#SVGID_4_);fill:#FCEC18;}
	.st22{clip-path:url(#SVGID_4_);fill:#FCEB18;}
	.st23{clip-path:url(#SVGID_4_);fill:#FCEA18;}
	.st24{clip-path:url(#SVGID_4_);fill:#FCE918;}
	.st25{clip-path:url(#SVGID_4_);fill:#FCE818;}
	.st26{clip-path:url(#SVGID_4_);fill:#FCE718;}
	.st27{clip-path:url(#SVGID_4_);fill:#FCE617;}
	.st28{clip-path:url(#SVGID_4_);fill:#FCE517;}
	.st29{clip-path:url(#SVGID_4_);fill:#FCE417;}
	.st30{clip-path:url(#SVGID_4_);fill:#FCE317;}
	.st31{clip-path:url(#SVGID_4_);fill:#FCE217;}
	.st32{clip-path:url(#SVGID_4_);fill:#FCE117;}
	.st33{clip-path:url(#SVGID_4_);fill:#FCE017;}
	.st34{clip-path:url(#SVGID_4_);fill:#FCDF17;}
	.st35{clip-path:url(#SVGID_4_);fill:#FCDE17;}
	.st36{clip-path:url(#SVGID_4_);fill:#FCDD17;}
	.st37{clip-path:url(#SVGID_4_);fill:#FCDC17;}
	.st38{clip-path:url(#SVGID_4_);fill:#FCDB17;}
	.st39{clip-path:url(#SVGID_4_);fill:#FCDA17;}
	.st40{clip-path:url(#SVGID_4_);fill:#FCD917;}
	.st41{clip-path:url(#SVGID_4_);fill:#FCD817;}
	.st42{clip-path:url(#SVGID_4_);fill:#FCD717;}
	.st43{clip-path:url(#SVGID_4_);fill:#FCD617;}
	.st44{clip-path:url(#SVGID_4_);fill:#FCD517;}
	.st45{clip-path:url(#SVGID_4_);fill:#FCD416;}
	.st46{clip-path:url(#SVGID_4_);fill:#FCD316;}
	.st47{clip-path:url(#SVGID_4_);fill:#FBD216;}
	.st48{clip-path:url(#SVGID_4_);fill:#FBD116;}
	.st49{clip-path:url(#SVGID_4_);fill:#FBD016;}
	.st50{clip-path:url(#SVGID_4_);fill:#FBCF16;}
	.st51{clip-path:url(#SVGID_4_);fill:#FBCE16;}
	.st52{clip-path:url(#SVGID_4_);fill:#FBCD16;}
	.st53{clip-path:url(#SVGID_4_);fill:#FBCC16;}
	.st54{clip-path:url(#SVGID_4_);fill:#FBCB16;}
	.st55{clip-path:url(#SVGID_4_);fill:#FBCA16;}
	.st56{clip-path:url(#SVGID_4_);fill:#FBC916;}
	.st57{clip-path:url(#SVGID_4_);fill:#FBC816;}
	.st58{clip-path:url(#SVGID_4_);fill:#FBC716;}
	.st59{clip-path:url(#SVGID_4_);fill:#FBC616;}
	.st60{clip-path:url(#SVGID_4_);fill:#FBC516;}
	.st61{clip-path:url(#SVGID_4_);fill:#FBC416;}
	.st62{clip-path:url(#SVGID_4_);fill:#FBC316;}
	.st63{clip-path:url(#SVGID_4_);fill:#FBC216;}
	.st64{clip-path:url(#SVGID_4_);fill:#FBC115;}
	.st65{clip-path:url(#SVGID_4_);fill:#FBC015;}
	.st66{clip-path:url(#SVGID_4_);fill:#FBBF15;}
	.st67{clip-path:url(#SVGID_4_);fill:#FBBE15;}
	.st68{clip-path:url(#SVGID_4_);fill:#FBBD15;}
	.st69{clip-path:url(#SVGID_4_);fill:#FBBC15;}
	.st70{clip-path:url(#SVGID_4_);fill:#FBBB15;}
	.st71{clip-path:url(#SVGID_4_);fill:#FBBA15;}
	.st72{clip-path:url(#SVGID_4_);fill:#FBB915;}
	.st73{clip-path:url(#SVGID_4_);fill:#FBB815;}
	.st74{clip-path:url(#SVGID_4_);fill:#FBB715;}
	.st75{clip-path:url(#SVGID_4_);fill:#FBB615;}
	.st76{clip-path:url(#SVGID_4_);fill:#FBB515;}
	.st77{clip-path:url(#SVGID_4_);fill:#FBB415;}
	.st78{clip-path:url(#SVGID_4_);fill:#FBB315;}
	.st79{clip-path:url(#SVGID_4_);fill:#FBB215;}
	.st80{clip-path:url(#SVGID_4_);fill:#FBB115;}
	.st81{clip-path:url(#SVGID_4_);fill:#FBB015;}
	.st82{clip-path:url(#SVGID_4_);fill:#FBAF15;}
	.st83{clip-path:url(#SVGID_4_);fill:#FAAE15;}
	.st84{clip-path:url(#SVGID_4_);fill:#FAAD14;}
	.st85{clip-path:url(#SVGID_4_);fill:#FAAC14;}
	.st86{clip-path:url(#SVGID_4_);fill:#FAAB14;}
	.st87{clip-path:url(#SVGID_4_);fill:#FAAA14;}
	.st88{clip-path:url(#SVGID_4_);fill:#FAA914;}
	.st89{clip-path:url(#SVGID_4_);fill:#FAA814;}
	.st90{clip-path:url(#SVGID_4_);fill:#FAA714;}
	.st91{clip-path:url(#SVGID_4_);fill:#FAA614;}
	.st92{clip-path:url(#SVGID_4_);fill:#FAA514;}
	.st93{clip-path:url(#SVGID_4_);fill:#FAA414;}
	.st94{clip-path:url(#SVGID_4_);fill:#FAA314;}
	.st95{clip-path:url(#SVGID_4_);fill:#FAA214;}
	.st96{clip-path:url(#SVGID_4_);fill:#FAA114;}
	.st97{clip-path:url(#SVGID_4_);fill:#FAA014;}
	.st98{clip-path:url(#SVGID_4_);fill:#FA9F14;}
	.st99{clip-path:url(#SVGID_4_);fill:#FA9E14;}
	.st100{clip-path:url(#SVGID_4_);fill:#FA9D14;}
	.st101{clip-path:url(#SVGID_4_);fill:#FA9C14;}
	.st102{clip-path:url(#SVGID_4_);fill:#FA9B14;}
	.st103{clip-path:url(#SVGID_4_);fill:#FA9A13;}
	.st104{clip-path:url(#SVGID_4_);fill:#FA9913;}
	.st105{clip-path:url(#SVGID_4_);fill:#FA9813;}
	.st106{clip-path:url(#SVGID_4_);fill:#FA9713;}
	.st107{clip-path:url(#SVGID_4_);fill:#FA9613;}
	.st108{clip-path:url(#SVGID_4_);fill:#FA9513;}
	.st109{clip-path:url(#SVGID_4_);fill:#FA9413;}
	.st110{clip-path:url(#SVGID_4_);fill:#FA9313;}
	.st111{clip-path:url(#SVGID_4_);fill:#FA9213;}
	.st112{clip-path:url(#SVGID_4_);fill:#FA9113;}
	.st113{clip-path:url(#SVGID_4_);fill:#FA9013;}
	.st114{clip-path:url(#SVGID_4_);fill:#FA8F13;}
	.st115{clip-path:url(#SVGID_4_);fill:#FA8E13;}
	.st116{clip-path:url(#SVGID_4_);fill:#FA8D13;}
	.st117{clip-path:url(#SVGID_4_);fill:#FA8C13;}
	.st118{clip-path:url(#SVGID_4_);fill:#FA8B13;}
	.st119{clip-path:url(#SVGID_4_);fill:#FA8A13;}
	.st120{clip-path:url(#SVGID_4_);fill:#FA8913;}
	.st121{clip-path:url(#SVGID_4_);fill:#FA8812;}
	.st122{clip-path:url(#SVGID_4_);fill:#FA8712;}
	.st123{clip-path:url(#SVGID_4_);fill:#FA8612;}
	.st124{clip-path:url(#SVGID_4_);fill:#F98512;}
	.st125{clip-path:url(#SVGID_4_);fill:#F98412;}
	.st126{clip-path:url(#SVGID_4_);fill:#F98312;}
	.st127{clip-path:url(#SVGID_4_);fill:#F98212;}
	.st128{clip-path:url(#SVGID_4_);fill:#F98112;}
	.st129{clip-path:url(#SVGID_4_);fill:#F98012;}
	.st130{clip-path:url(#SVGID_4_);fill:#F97F12;}
	.st131{clip-path:url(#SVGID_4_);fill:#F97E12;}
	.st132{clip-path:url(#SVGID_4_);fill:#F97D12;}
	.st133{clip-path:url(#SVGID_4_);fill:#F97C12;}
	.st134{clip-path:url(#SVGID_4_);fill:#F97B12;}
	.st135{clip-path:url(#SVGID_4_);fill:#F97A12;}
	.st136{clip-path:url(#SVGID_4_);fill:#F97912;}
	.st137{clip-path:url(#SVGID_4_);fill:#F97812;}
	.st138{clip-path:url(#SVGID_4_);fill:#F97712;}
	.st139{clip-path:url(#SVGID_4_);fill:#F97612;}
	.st140{clip-path:url(#SVGID_4_);fill:#F97511;}
	.st141{clip-path:url(#SVGID_4_);fill:#F97411;}
	.st142{clip-path:url(#SVGID_4_);fill:#F97311;}
	.st143{clip-path:url(#SVGID_4_);fill:#F97211;}
	.st144{clip-path:url(#SVGID_4_);fill:#F97111;}
	.st145{clip-path:url(#SVGID_4_);fill:#F97011;}
	.st146{clip-path:url(#SVGID_4_);fill:#F96F11;}
	.st147{clip-path:url(#SVGID_4_);fill:#F96E11;}
	.st148{clip-path:url(#SVGID_4_);fill:#F96D11;}
	.st149{clip-path:url(#SVGID_4_);fill:#F96C11;}
	.st150{clip-path:url(#SVGID_4_);fill:#F96B11;}
	.st151{clip-path:url(#SVGID_4_);fill:#F96A11;}
	.st152{clip-path:url(#SVGID_4_);fill:#F96911;}
	.st153{clip-path:url(#SVGID_4_);fill:#F96811;}
	.st154{clip-path:url(#SVGID_4_);fill:#F96711;}
	.st155{clip-path:url(#SVGID_4_);fill:#F96611;}
	.st156{clip-path:url(#SVGID_4_);fill:#F96511;}
	.st157{clip-path:url(#SVGID_4_);fill:#F96411;}
	.st158{clip-path:url(#SVGID_4_);fill:#F96311;}
	.st159{clip-path:url(#SVGID_4_);fill:#F96210;}
	.st160{clip-path:url(#SVGID_4_);fill:#F86110;}
	.st161{clip-path:url(#SVGID_4_);fill:#F86010;}
	.st162{clip-path:url(#SVGID_4_);fill:#F85F10;}
	.st163{clip-path:url(#SVGID_4_);fill:#F85E10;}
	.st164{clip-path:url(#SVGID_4_);fill:#F85D10;}
	.st165{clip-path:url(#SVGID_4_);fill:#F85C10;}
	.st166{clip-path:url(#SVGID_4_);fill:#F85B10;}
	.st167{clip-path:url(#SVGID_4_);fill:#F85A10;}
	.st168{clip-path:url(#SVGID_4_);fill:#F85910;}
	.st169{clip-path:url(#SVGID_4_);fill:#F85810;}
	.st170{clip-path:url(#SVGID_4_);fill:#F85710;}
	.st171{clip-path:url(#SVGID_4_);fill:#F85610;}
	.st172{clip-path:url(#SVGID_4_);fill:#F85510;}
	.st173{clip-path:url(#SVGID_4_);fill:#F85410;}
	.st174{clip-path:url(#SVGID_4_);fill:#F85310;}
	.st175{clip-path:url(#SVGID_4_);fill:#F85210;}
	.st176{clip-path:url(#SVGID_4_);fill:#F85110;}
	.st177{clip-path:url(#SVGID_4_);fill:#F85010;}
	.st178{clip-path:url(#SVGID_4_);fill:#F84F0F;}
	.st179{clip-path:url(#SVGID_4_);fill:#F84E0F;}
	.st180{clip-path:url(#SVGID_4_);fill:#F84D0F;}
	.st181{clip-path:url(#SVGID_4_);fill:#F84C0F;}
	.st182{clip-path:url(#SVGID_4_);fill:#F84B0F;}
	.st183{clip-path:url(#SVGID_4_);fill:#F84A0F;}
	.st184{clip-path:url(#SVGID_4_);fill:#F8490F;}
	.st185{clip-path:url(#SVGID_4_);fill:#F8480F;}
	.st186{clip-path:url(#SVGID_4_);fill:#F8470F;}
	.st187{clip-path:url(#SVGID_4_);fill:#F8460F;}
	.st188{clip-path:url(#SVGID_4_);fill:#F8450F;}
	.st189{clip-path:url(#SVGID_4_);fill:#F8440F;}
	.st190{clip-path:url(#SVGID_4_);fill:#F8430F;}
	.st191{clip-path:url(#SVGID_4_);fill:#F8420F;}
	.st192{clip-path:url(#SVGID_4_);fill:#F8410F;}
	.st193{clip-path:url(#SVGID_4_);fill:#F8400F;}
	.st194{clip-path:url(#SVGID_4_);fill:#F83F0F;}
	.st195{clip-path:url(#SVGID_4_);fill:#F83E0E;}
	.st196{clip-path:url(#SVGID_4_);fill:#F83D0E;}
	.st197{clip-path:url(#SVGID_4_);fill:#F83C0E;}
	.st198{clip-path:url(#SVGID_4_);fill:#F83B0E;}
	.st199{clip-path:url(#SVGID_4_);fill:#F73A0E;}
	.st200{clip-path:url(#SVGID_4_);fill:#F7390E;}
	.st201{clip-path:url(#SVGID_4_);fill:#F7380E;}
	.st202{clip-path:url(#SVGID_4_);fill:#F7370E;}
	.st203{clip-path:url(#SVGID_4_);fill:#F7360E;}
	.st204{clip-path:url(#SVGID_4_);fill:#F7340E;}
	.st205{clip-path:url(#SVGID_4_);fill:#F7330E;}
	.st206{clip-path:url(#SVGID_4_);fill:#F7320E;}
	.st207{clip-path:url(#SVGID_4_);fill:#F7310E;}
	.st208{clip-path:url(#SVGID_4_);fill:#F7300E;}
	.st209{clip-path:url(#SVGID_4_);fill:#F72F0E;}
	.st210{clip-path:url(#SVGID_4_);fill:#F72E0E;}
	.st211{clip-path:url(#SVGID_4_);fill:#F72D0E;}
	.st212{clip-path:url(#SVGID_4_);fill:#F72C0E;}
	.st213{clip-path:url(#SVGID_4_);fill:#F72B0E;}
	.st214{clip-path:url(#SVGID_4_);fill:#F72B0D;}
	.st215{clip-path:url(#SVGID_4_);fill:#F72A0D;}
	.st216{clip-path:url(#SVGID_4_);fill:#F7290D;}
	.st217{clip-path:url(#SVGID_4_);fill:#F7280D;}
	.st218{clip-path:url(#SVGID_4_);fill:#F7270D;}
	.st219{clip-path:url(#SVGID_4_);fill:#F7260D;}
</style>
<g>
	<path class="st0" d="M21.626,17.5c-0.521,0-1.017-0.106-1.469-0.298s-0.859-0.469-1.201-0.811s-0.619-0.75-0.811-1.202
		s-0.297-0.949-0.297-1.47c0-0.521,0.106-1.018,0.297-1.471s0.469-0.86,0.811-1.202s0.749-0.62,1.201-0.811s0.949-0.298,1.469-0.298
		c0.521,0,1.019,0.106,1.471,0.298s0.86,0.469,1.203,0.811s0.62,0.75,0.812,1.202s0.298,0.949,0.298,1.471
		c0,0.521-0.106,1.018-0.298,1.47s-0.469,0.86-0.812,1.202s-0.75,0.619-1.203,0.811S22.147,17.5,21.626,17.5z M21.626,10.187
		c-0.486,0-0.95,0.099-1.372,0.278s-0.802,0.438-1.122,0.758s-0.578,0.7-0.757,1.123s-0.278,0.887-0.278,1.374
		c0,0.487,0.099,0.951,0.278,1.373s0.437,0.803,0.757,1.122s0.7,0.579,1.122,0.757s0.886,0.278,1.372,0.278
		c0.487,0,0.951-0.099,1.374-0.278s0.803-0.438,1.123-0.757s0.579-0.7,0.758-1.122s0.278-0.886,0.278-1.373
		c0-0.487-0.099-0.951-0.278-1.374s-0.438-0.803-0.758-1.123S23.422,10.644,23,10.465S22.113,10.187,21.626,10.187z"/>
</g>
<g>
	<path class="st0" d="M18.999,21.156c-0.521,0-1.018-0.106-1.47-0.298s-0.859-0.469-1.201-0.811
		c-0.342-0.342-0.619-0.75-0.811-1.202s-0.297-0.949-0.297-1.47c0-0.521,0.106-1.018,0.297-1.471s0.469-0.86,0.811-1.202
		c0.342-0.342,0.749-0.62,1.201-0.811s0.949-0.298,1.47-0.298c0.521,0,1.019,0.106,1.471,0.298s0.86,0.469,1.203,0.811
		s0.62,0.75,0.811,1.202s0.298,0.949,0.298,1.471c0,0.521-0.106,1.018-0.298,1.47s-0.469,0.86-0.811,1.202s-0.75,0.619-1.203,0.811
		S19.52,21.156,18.999,21.156z M18.999,13.843c-0.487,0-0.95,0.099-1.373,0.278s-0.802,0.438-1.122,0.758s-0.578,0.7-0.757,1.123
		s-0.278,0.887-0.278,1.374c0,0.487,0.099,0.951,0.278,1.373s0.438,0.803,0.757,1.122s0.7,0.579,1.122,0.757
		s0.886,0.278,1.373,0.278c0.487,0,0.951-0.099,1.374-0.278s0.803-0.438,1.123-0.757s0.579-0.7,0.758-1.122s0.278-0.886,0.278-1.373
		c0-0.487-0.099-0.951-0.278-1.374s-0.438-0.803-0.758-1.123s-0.701-0.579-1.123-0.758S19.486,13.843,18.999,13.843z"/>
</g>
<g>
	<path class="st0" d="M24.135,21.156c-0.521,0-1.018-0.106-1.47-0.298s-0.859-0.469-1.201-0.811s-0.619-0.75-0.811-1.202
		s-0.297-0.949-0.297-1.47c0-0.521,0.106-1.018,0.297-1.471s0.469-0.86,0.811-1.202s0.749-0.62,1.201-0.811s0.949-0.298,1.47-0.298
		c0.521,0,1.019,0.106,1.471,0.298s0.86,0.469,1.203,0.811s0.62,0.75,0.811,1.202s0.298,0.949,0.298,1.471
		c0,0.521-0.106,1.018-0.298,1.47s-0.469,0.86-0.811,1.202s-0.75,0.619-1.203,0.811S24.657,21.156,24.135,21.156z M24.135,13.843
		c-0.487,0-0.95,0.099-1.373,0.278s-0.802,0.438-1.122,0.758s-0.578,0.7-0.757,1.123s-0.278,0.887-0.278,1.374
		c0,0.487,0.099,0.951,0.278,1.373s0.438,0.803,0.757,1.122s0.7,0.579,1.122,0.757s0.886,0.278,1.373,0.278
		c0.487,0,0.951-0.099,1.374-0.278s0.803-0.438,1.123-0.757s0.579-0.7,0.758-1.122s0.278-0.886,0.278-1.373
		c0-0.487-0.099-0.951-0.278-1.374s-0.438-0.803-0.758-1.123s-0.701-0.579-1.123-0.758S24.622,13.843,24.135,13.843z"/>
</g>
<g>
	<path class="st0" d="M8.398,17.5l-0.01,0l-0.01,0l-0.01,0l-0.01,0v-0.062v-0.062v-0.062v-0.062l0.012,0l0.012,0l0.012,0l0.012,0
		c0.039,0,0.079-0.001,0.119-0.002s0.08-0.003,0.119-0.006s0.08-0.006,0.119-0.01s0.079-0.009,0.118-0.014l0.009,0.062l0.009,0.062
		l0.009,0.062l0.009,0.062c-0.042,0.006-0.084,0.011-0.127,0.015S8.7,17.488,8.657,17.491s-0.086,0.005-0.129,0.007
		S8.441,17.5,8.398,17.5z M7.841,17.459c-0.042-0.006-0.085-0.013-0.127-0.021s-0.084-0.016-0.126-0.025s-0.084-0.019-0.125-0.03
		s-0.083-0.022-0.124-0.034l0.017-0.06l0.017-0.06l0.017-0.06l0.017-0.06c0.038,0.011,0.077,0.022,0.116,0.032
		s0.078,0.019,0.117,0.028s0.079,0.016,0.118,0.024s0.079,0.014,0.118,0.02l-0.009,0.062l-0.009,0.062L7.85,17.397L7.841,17.459z
		 M9.416,17.361l-0.017-0.06l-0.017-0.06l-0.017-0.06l-0.017-0.06c0.039-0.011,0.077-0.022,0.116-0.034s0.076-0.025,0.114-0.038
		s0.075-0.027,0.113-0.042s0.074-0.03,0.111-0.046l0.025,0.057l0.025,0.057l0.025,0.057l0.025,0.057
		c-0.039,0.017-0.079,0.033-0.118,0.049s-0.08,0.031-0.121,0.045s-0.081,0.028-0.122,0.041S9.458,17.349,9.416,17.361z
		 M6.854,17.171c-0.039-0.018-0.078-0.036-0.116-0.055s-0.077-0.039-0.115-0.059s-0.075-0.041-0.113-0.063s-0.074-0.043-0.11-0.066
		l0.033-0.053l0.033-0.053l0.033-0.053l0.033-0.053c0.034,0.021,0.068,0.042,0.103,0.061s0.07,0.039,0.105,0.058
		s0.071,0.037,0.107,0.055s0.072,0.035,0.109,0.051L6.931,17l-0.026,0.057l-0.026,0.057L6.854,17.171z M10.36,16.952l-0.032-0.053
		l-0.032-0.053l-0.032-0.053l-0.032-0.053c0.034-0.021,0.068-0.042,0.102-0.064s0.067-0.045,0.1-0.068s0.065-0.047,0.097-0.071
		s0.064-0.049,0.095-0.075l0.04,0.049l0.04,0.049l0.04,0.049l0.04,0.049c-0.033,0.027-0.067,0.054-0.102,0.08
		s-0.069,0.051-0.104,0.076s-0.071,0.049-0.107,0.072S10.396,16.929,10.36,16.952z M5.982,16.627
		c-0.033-0.028-0.066-0.056-0.098-0.084s-0.064-0.058-0.095-0.088s-0.062-0.06-0.092-0.09s-0.059-0.061-0.088-0.093l0.046-0.042
		l0.046-0.042l0.046-0.042l0.046-0.042c0.027,0.029,0.054,0.058,0.082,0.087s0.057,0.057,0.086,0.084s0.059,0.055,0.089,0.082
		s0.061,0.053,0.092,0.079l-0.04,0.048l-0.04,0.048l-0.04,0.048L5.982,16.627z M11.158,16.304l-0.046-0.043l-0.046-0.043
		l-0.046-0.043l-0.046-0.043c0.027-0.029,0.054-0.059,0.081-0.089s0.052-0.061,0.078-0.092s0.05-0.063,0.075-0.094
		s0.048-0.064,0.071-0.097l0.051,0.036l0.051,0.036l0.051,0.036l0.051,0.036c-0.025,0.035-0.05,0.07-0.077,0.104
		s-0.053,0.068-0.08,0.101s-0.055,0.066-0.083,0.098S11.188,16.273,11.158,16.304z M5.288,15.868
		c-0.025-0.036-0.048-0.071-0.072-0.108s-0.046-0.073-0.068-0.11s-0.043-0.074-0.064-0.112s-0.041-0.075-0.06-0.114l0.056-0.028
		l0.056-0.028l0.056-0.028l0.056-0.028c0.018,0.035,0.036,0.071,0.056,0.106s0.039,0.07,0.06,0.104s0.042,0.069,0.064,0.103
		s0.044,0.067,0.067,0.1l-0.052,0.036l-0.052,0.036L5.34,15.833L5.288,15.868z M11.753,15.466l-0.055-0.029l-0.055-0.029
		l-0.055-0.029l-0.055-0.029c0.018-0.035,0.036-0.071,0.054-0.107s0.034-0.073,0.05-0.109s0.032-0.074,0.047-0.111
		s0.029-0.075,0.043-0.113l0.059,0.021l0.059,0.021l0.059,0.021l0.059,0.021c-0.015,0.04-0.03,0.081-0.046,0.121
		s-0.033,0.08-0.05,0.119s-0.035,0.078-0.054,0.117S11.773,15.428,11.753,15.466z M4.824,14.951
		c-0.014-0.041-0.027-0.082-0.04-0.123s-0.025-0.083-0.036-0.124s-0.022-0.083-0.031-0.125s-0.019-0.084-0.027-0.126l0.061-0.012
		l0.061-0.012l0.061-0.012l0.061-0.012c0.008,0.039,0.016,0.078,0.025,0.117S4.979,14.6,4.99,14.639s0.022,0.078,0.033,0.116
		s0.024,0.077,0.037,0.115l-0.059,0.02l-0.059,0.02l-0.059,0.02L4.824,14.951z M12.101,14.499l-0.061-0.013l-0.061-0.013
		l-0.061-0.013l-0.061-0.013c0.008-0.039,0.016-0.078,0.023-0.117s0.013-0.079,0.019-0.119s0.01-0.08,0.015-0.12
		s0.008-0.08,0.011-0.12l0.062,0.004l0.062,0.004l0.062,0.004l0.062,0.004c-0.003,0.043-0.007,0.086-0.011,0.129
		s-0.01,0.086-0.015,0.128s-0.012,0.085-0.02,0.127S12.109,14.457,12.101,14.499z M4.625,13.942
		c-0.001-0.018-0.002-0.037-0.003-0.055s-0.001-0.037-0.002-0.056s-0.001-0.037-0.001-0.056s0-0.037,0-0.056
		c0-0.025,0-0.049,0.001-0.074s0.001-0.049,0.002-0.073s0.002-0.049,0.003-0.073s0.003-0.048,0.005-0.073l0.062,0.005l0.062,0.005
		l0.062,0.005l0.062,0.005c-0.002,0.022-0.003,0.045-0.004,0.068s-0.002,0.045-0.003,0.068S4.87,13.627,4.869,13.65
		s-0.001,0.046-0.001,0.069c0,0.017,0,0.035,0,0.052s0.001,0.035,0.001,0.052s0.001,0.035,0.002,0.052s0.002,0.034,0.003,0.052
		L4.813,13.93L4.75,13.934l-0.062,0.004L4.625,13.942z M11.923,13.489c-0.003-0.04-0.006-0.08-0.01-0.12s-0.009-0.08-0.014-0.12
		s-0.011-0.079-0.018-0.119s-0.014-0.079-0.022-0.117L11.921,13l0.061-0.012l0.061-0.012l0.061-0.012
		c0.008,0.042,0.016,0.084,0.023,0.126s0.013,0.085,0.019,0.127s0.011,0.086,0.015,0.128s0.008,0.086,0.01,0.129l-0.062,0.004
		l-0.062,0.004l-0.062,0.004L11.923,13.489z M4.948,12.97l-0.061-0.013l-0.061-0.013L4.765,12.93l-0.061-0.013
		c0.009-0.042,0.019-0.083,0.029-0.125s0.022-0.083,0.034-0.124s0.025-0.083,0.038-0.123s0.027-0.082,0.042-0.122l0.059,0.021
		l0.059,0.021l0.059,0.021l0.059,0.021c-0.014,0.038-0.027,0.076-0.039,0.114s-0.024,0.077-0.035,0.115s-0.022,0.077-0.031,0.116
		S4.956,12.931,4.948,12.97z M11.733,12.548c-0.013-0.038-0.027-0.075-0.042-0.113s-0.03-0.075-0.046-0.112s-0.032-0.074-0.05-0.11
		s-0.035-0.072-0.053-0.108l0.056-0.029l0.056-0.029l0.056-0.029l0.056-0.029c0.02,0.038,0.038,0.077,0.057,0.115
		s0.036,0.078,0.053,0.118s0.033,0.079,0.049,0.12s0.031,0.08,0.045,0.121l-0.059,0.021l-0.059,0.021l-0.059,0.021L11.733,12.548z
		 M5.278,12.067l-0.055-0.029l-0.055-0.029L5.112,11.98l-0.055-0.029c0.02-0.037,0.04-0.075,0.061-0.112s0.043-0.074,0.066-0.111
		s0.046-0.073,0.07-0.109s0.049-0.072,0.074-0.107l0.051,0.036l0.051,0.036l0.051,0.036l0.051,0.036
		c-0.024,0.033-0.047,0.066-0.069,0.1s-0.044,0.067-0.065,0.102s-0.042,0.068-0.061,0.103S5.296,12.033,5.278,12.067z
		 M11.293,11.694c-0.023-0.033-0.047-0.065-0.071-0.097s-0.049-0.064-0.074-0.095s-0.051-0.062-0.077-0.093s-0.053-0.06-0.08-0.09
		l0.046-0.042l0.046-0.042l0.046-0.042l0.046-0.042c0.029,0.031,0.058,0.064,0.086,0.096s0.056,0.066,0.083,0.099
		s0.053,0.067,0.079,0.102s0.051,0.069,0.076,0.104l-0.051,0.036l-0.051,0.036l-0.051,0.036L11.293,11.694z M5.837,11.288
		l-0.045-0.043l-0.045-0.043L5.7,11.159l-0.045-0.043c0.029-0.031,0.059-0.062,0.089-0.092s0.062-0.06,0.093-0.089
		s0.064-0.058,0.097-0.086s0.066-0.056,0.1-0.083l0.039,0.049l0.039,0.049l0.039,0.049l0.039,0.049
		c-0.031,0.025-0.062,0.051-0.093,0.077s-0.061,0.053-0.09,0.08s-0.059,0.055-0.087,0.083S5.864,11.259,5.837,11.288z M10.64,10.99
		c-0.031-0.025-0.062-0.05-0.094-0.075s-0.064-0.048-0.097-0.072s-0.066-0.046-0.099-0.068s-0.067-0.044-0.101-0.065l0.033-0.053
		l0.033-0.053l0.033-0.053l0.033-0.053c0.036,0.022,0.073,0.046,0.109,0.069s0.071,0.048,0.106,0.073s0.07,0.051,0.104,0.077
		s0.068,0.053,0.101,0.08l-0.04,0.048l-0.04,0.048l-0.04,0.048L10.64,10.99z M6.586,10.687l-0.032-0.053L6.521,10.58l-0.032-0.053
		l-0.032-0.053c0.036-0.022,0.073-0.043,0.111-0.064s0.075-0.041,0.114-0.061s0.077-0.039,0.116-0.057s0.079-0.036,0.118-0.053
		l0.024,0.058l0.024,0.058l0.024,0.058l0.024,0.058c-0.037,0.016-0.074,0.032-0.11,0.049s-0.073,0.035-0.108,0.053
		s-0.071,0.037-0.106,0.056S6.62,10.666,6.586,10.687z M9.823,10.485c-0.036-0.016-0.073-0.032-0.11-0.047S9.638,10.41,9.6,10.396
		s-0.076-0.027-0.114-0.039s-0.077-0.024-0.115-0.035l0.017-0.06l0.017-0.06l0.017-0.06l0.017-0.06
		c0.041,0.012,0.083,0.024,0.124,0.037s0.082,0.027,0.122,0.042s0.081,0.03,0.121,0.046s0.079,0.033,0.118,0.05l-0.025,0.057
		l-0.025,0.057l-0.025,0.057L9.823,10.485z M7.468,10.31l-0.016-0.06l-0.016-0.06l-0.016-0.06l-0.016-0.06
		c0.041-0.011,0.083-0.022,0.125-0.032s0.084-0.019,0.126-0.027s0.084-0.016,0.127-0.023s0.085-0.013,0.127-0.019l0.008,0.062
		l0.008,0.062l0.008,0.062l0.008,0.062c-0.04,0.005-0.079,0.011-0.119,0.017s-0.079,0.014-0.119,0.021s-0.079,0.016-0.118,0.025
		S7.507,10.299,7.468,10.31z M8.901,10.221c-0.04-0.006-0.08-0.011-0.12-0.015s-0.08-0.008-0.12-0.011s-0.08-0.005-0.12-0.007
		s-0.08-0.003-0.119-0.003l0-0.062l0-0.062l0-0.062l0-0.062c0.042,0,0.085,0.001,0.128,0.003s0.086,0.004,0.129,0.007
		s0.086,0.007,0.129,0.012s0.086,0.01,0.128,0.016l-0.009,0.062l-0.009,0.062l-0.009,0.062L8.901,10.221z"/>
</g>
<g>
	<path class="st0" d="M5.771,21.156H5.76H5.75H5.74h-0.01v-0.062v-0.062v-0.062v-0.062h0.01h0.01h0.01h0.01
		c0.04,0,0.081-0.001,0.121-0.002s0.081-0.003,0.121-0.006s0.08-0.006,0.12-0.01s0.08-0.009,0.119-0.014l0.008,0.062l0.008,0.062
		l0.008,0.062l0.008,0.062c-0.042,0.006-0.085,0.011-0.127,0.015s-0.085,0.008-0.128,0.011S5.943,21.153,5.9,21.154
		S5.814,21.156,5.771,21.156z M5.214,21.115c-0.042-0.006-0.085-0.013-0.127-0.021s-0.084-0.016-0.126-0.025
		s-0.084-0.019-0.125-0.03s-0.083-0.022-0.124-0.034l0.017-0.06l0.017-0.06l0.017-0.06l0.017-0.06
		c0.038,0.011,0.077,0.022,0.116,0.032s0.078,0.019,0.117,0.028s0.079,0.016,0.118,0.024s0.079,0.014,0.118,0.02l-0.009,0.062
		l-0.009,0.062l-0.009,0.062L5.214,21.115z M6.789,21.018l-0.017-0.06l-0.017-0.06l-0.017-0.06l-0.017-0.06
		c0.039-0.011,0.077-0.022,0.116-0.034s0.076-0.025,0.114-0.038s0.075-0.027,0.113-0.042s0.074-0.03,0.111-0.046L7.2,20.673
		l0.025,0.057l0.025,0.057l0.025,0.057c-0.039,0.017-0.079,0.033-0.118,0.049s-0.08,0.031-0.121,0.045s-0.081,0.028-0.122,0.041
		S6.831,21.006,6.789,21.018z M4.227,20.827c-0.039-0.018-0.079-0.036-0.117-0.055s-0.077-0.039-0.115-0.059
		s-0.075-0.041-0.112-0.062s-0.073-0.043-0.109-0.066l0.033-0.053l0.033-0.053l0.033-0.053l0.033-0.053
		c0.034,0.021,0.068,0.041,0.102,0.061s0.07,0.039,0.105,0.058s0.071,0.037,0.107,0.055s0.073,0.035,0.11,0.052l-0.026,0.057
		l-0.026,0.057L4.252,20.77L4.227,20.827z M7.733,20.608L7.7,20.554l-0.032-0.053l-0.032-0.053l-0.032-0.053
		c0.034-0.021,0.068-0.042,0.102-0.064s0.067-0.045,0.1-0.068s0.065-0.047,0.097-0.071s0.064-0.049,0.095-0.075l0.04,0.049
		l0.04,0.049l0.04,0.049l0.04,0.049c-0.033,0.027-0.067,0.054-0.102,0.08s-0.069,0.051-0.104,0.076s-0.071,0.049-0.107,0.072
		S7.769,20.586,7.733,20.608z M3.355,20.283c-0.033-0.028-0.066-0.056-0.098-0.084s-0.064-0.058-0.095-0.088s-0.062-0.06-0.092-0.09
		s-0.059-0.061-0.088-0.093l0.046-0.042l0.046-0.042l0.046-0.042l0.046-0.042c0.027,0.029,0.054,0.058,0.082,0.087
		s0.057,0.057,0.086,0.084s0.059,0.055,0.089,0.082s0.061,0.053,0.092,0.079l-0.04,0.048l-0.04,0.048l-0.04,0.048L3.355,20.283z
		 M8.531,19.96l-0.046-0.043L8.44,19.874l-0.046-0.043l-0.046-0.043C8.376,19.76,8.403,19.73,8.429,19.7s0.052-0.061,0.078-0.092
		s0.05-0.063,0.075-0.095s0.048-0.064,0.071-0.097l0.051,0.036l0.051,0.036l0.051,0.036l0.051,0.036
		c-0.025,0.035-0.05,0.07-0.077,0.104s-0.053,0.068-0.08,0.101s-0.055,0.066-0.083,0.098S8.561,19.928,8.531,19.96z M2.661,19.525
		c-0.025-0.036-0.048-0.071-0.072-0.108s-0.046-0.073-0.068-0.11s-0.043-0.074-0.064-0.112s-0.041-0.075-0.06-0.114l0.056-0.028
		l0.056-0.028l0.056-0.028l0.056-0.028c0.018,0.035,0.036,0.071,0.056,0.106s0.039,0.07,0.06,0.104s0.042,0.069,0.064,0.103
		s0.044,0.067,0.067,0.1l-0.052,0.036l-0.052,0.036L2.713,19.49L2.661,19.525z M9.126,19.122l-0.055-0.029l-0.055-0.029L8.96,19.035
		l-0.055-0.029c0.018-0.035,0.036-0.071,0.054-0.107s0.034-0.073,0.05-0.109s0.032-0.074,0.047-0.111s0.029-0.075,0.043-0.113
		l0.059,0.021l0.059,0.021l0.059,0.021l0.059,0.021c-0.015,0.04-0.03,0.081-0.046,0.121s-0.033,0.08-0.05,0.119
		s-0.035,0.078-0.054,0.117S9.146,19.084,9.126,19.122z M2.197,18.607c-0.014-0.041-0.027-0.082-0.04-0.123
		s-0.025-0.083-0.036-0.124S2.1,18.277,2.09,18.235s-0.019-0.084-0.027-0.126l0.061-0.012l0.061-0.012l0.061-0.012l0.061-0.012
		c0.008,0.039,0.016,0.078,0.025,0.117s0.019,0.078,0.029,0.117s0.022,0.078,0.033,0.116s0.024,0.077,0.037,0.115l-0.059,0.02
		l-0.059,0.02l-0.059,0.02L2.197,18.607z M9.473,18.154l-0.061-0.013l-0.061-0.013l-0.061-0.013l-0.061-0.013
		c0.008-0.039,0.016-0.078,0.023-0.117s0.013-0.079,0.019-0.119s0.01-0.08,0.015-0.12s0.008-0.08,0.011-0.12l0.062,0.004
		l0.062,0.004l0.062,0.004l0.062,0.004c-0.003,0.043-0.007,0.086-0.011,0.129s-0.01,0.086-0.015,0.128s-0.012,0.085-0.02,0.127
		S9.482,18.113,9.473,18.154z M1.998,17.6c-0.001-0.018-0.002-0.037-0.003-0.056s-0.001-0.037-0.002-0.056s-0.001-0.037-0.001-0.056
		s0-0.038,0-0.056c0-0.025,0-0.049,0.001-0.073s0.001-0.049,0.002-0.073s0.002-0.049,0.003-0.073s0.003-0.048,0.005-0.072
		l0.062,0.005l0.062,0.005l0.062,0.005l0.062,0.005c-0.002,0.023-0.003,0.045-0.004,0.068s-0.002,0.045-0.003,0.068
		s-0.002,0.046-0.002,0.069s-0.001,0.046-0.001,0.069c0,0.017,0,0.035,0,0.052s0.001,0.035,0.001,0.052s0.001,0.035,0.002,0.052
		s0.002,0.035,0.003,0.052l-0.062,0.004l-0.062,0.004L2.06,17.596L1.998,17.6z M9.296,17.145c-0.003-0.04-0.006-0.081-0.01-0.121
		s-0.009-0.08-0.014-0.12s-0.011-0.079-0.018-0.119s-0.014-0.078-0.022-0.117l0.061-0.012l0.061-0.012l0.061-0.012l0.061-0.012
		c0.008,0.042,0.016,0.084,0.023,0.126s0.013,0.085,0.019,0.127S9.531,16.957,9.535,17s0.008,0.086,0.01,0.129l-0.062,0.004
		l-0.062,0.004l-0.062,0.004L9.296,17.145z M2.32,16.627l-0.061-0.013L2.198,16.6l-0.061-0.013l-0.061-0.013
		c0.009-0.042,0.019-0.083,0.029-0.125s0.022-0.083,0.034-0.124s0.025-0.083,0.038-0.123s0.027-0.082,0.042-0.122L2.277,16.1
		l0.059,0.021l0.059,0.021l0.059,0.021c-0.014,0.038-0.027,0.076-0.039,0.114s-0.024,0.077-0.035,0.115s-0.022,0.077-0.031,0.116
		S2.328,16.587,2.32,16.627z M9.105,16.204c-0.013-0.038-0.027-0.075-0.042-0.113s-0.03-0.075-0.046-0.112s-0.032-0.074-0.05-0.11
		s-0.035-0.072-0.053-0.108l0.056-0.029l0.056-0.029l0.056-0.029l0.056-0.029c0.02,0.038,0.038,0.077,0.057,0.115
		s0.036,0.078,0.053,0.118S9.279,15.96,9.295,16s0.031,0.08,0.045,0.121l-0.059,0.021l-0.059,0.021l-0.059,0.021L9.105,16.204z
		 M2.65,15.725l-0.055-0.029l-0.055-0.029l-0.055-0.029l-0.055-0.029c0.02-0.037,0.04-0.075,0.061-0.112s0.043-0.074,0.066-0.111
		s0.046-0.073,0.07-0.109s0.049-0.072,0.074-0.107l0.051,0.036L2.8,15.243l0.051,0.036l0.051,0.036
		c-0.024,0.033-0.047,0.066-0.069,0.1s-0.044,0.067-0.065,0.102s-0.042,0.068-0.061,0.103S2.668,15.69,2.65,15.725z M8.666,15.351
		c-0.023-0.033-0.047-0.065-0.071-0.097s-0.049-0.064-0.074-0.095s-0.051-0.062-0.077-0.092s-0.053-0.06-0.08-0.089l0.046-0.042
		l0.046-0.042l0.046-0.042l0.046-0.042c0.029,0.031,0.057,0.063,0.085,0.095s0.056,0.065,0.083,0.099s0.053,0.067,0.079,0.102
		s0.051,0.069,0.076,0.105l-0.051,0.036l-0.051,0.036l-0.051,0.036L8.666,15.351z M3.208,14.945l-0.045-0.043l-0.045-0.043
		l-0.045-0.043l-0.045-0.043c0.029-0.031,0.059-0.062,0.089-0.092s0.062-0.06,0.093-0.089s0.064-0.058,0.097-0.086
		s0.066-0.056,0.1-0.083l0.039,0.049l0.039,0.049l0.039,0.049l0.039,0.049c-0.031,0.025-0.062,0.051-0.093,0.077
		s-0.061,0.053-0.09,0.08s-0.059,0.055-0.087,0.083S3.235,14.916,3.208,14.945z M8.012,14.646c-0.031-0.025-0.062-0.05-0.094-0.075
		S7.854,14.523,7.822,14.5s-0.066-0.046-0.099-0.068s-0.067-0.044-0.101-0.065l0.033-0.053l0.033-0.053l0.033-0.053l0.033-0.053
		c0.036,0.022,0.073,0.046,0.109,0.069s0.071,0.048,0.106,0.073s0.07,0.051,0.104,0.077s0.068,0.053,0.101,0.08l-0.04,0.048
		l-0.04,0.048l-0.04,0.048L8.012,14.646z M3.958,14.344L3.925,14.29l-0.032-0.053l-0.032-0.053L3.829,14.13
		c0.036-0.022,0.073-0.043,0.111-0.064s0.075-0.041,0.114-0.061s0.077-0.039,0.116-0.057s0.079-0.036,0.118-0.053l0.024,0.058
		l0.024,0.058l0.024,0.058l0.024,0.058c-0.037,0.016-0.074,0.032-0.11,0.049s-0.073,0.035-0.108,0.053s-0.071,0.037-0.106,0.056
		S3.992,14.323,3.958,14.344z M7.195,14.143c-0.036-0.016-0.073-0.032-0.11-0.047s-0.075-0.029-0.112-0.043
		s-0.076-0.027-0.114-0.039s-0.077-0.024-0.115-0.035l0.017-0.06l0.017-0.06l0.017-0.06l0.017-0.06
		c0.041,0.012,0.083,0.024,0.124,0.037s0.082,0.027,0.122,0.042s0.081,0.03,0.121,0.046s0.079,0.033,0.118,0.05l-0.025,0.057
		l-0.025,0.057L7.22,14.085L7.195,14.143z M4.841,13.967l-0.017-0.06l-0.017-0.06l-0.017-0.06l-0.017-0.06
		c0.041-0.011,0.083-0.022,0.124-0.032s0.084-0.019,0.126-0.027s0.085-0.016,0.127-0.023s0.085-0.013,0.128-0.019l0.008,0.062
		l0.008,0.062l0.008,0.062l0.008,0.062c-0.04,0.005-0.08,0.011-0.119,0.017s-0.079,0.014-0.119,0.022s-0.079,0.016-0.117,0.026
		S4.879,13.957,4.841,13.967z M6.273,13.878c-0.039-0.005-0.078-0.01-0.118-0.015s-0.08-0.008-0.12-0.011s-0.08-0.005-0.121-0.007
		s-0.081-0.003-0.121-0.003l0-0.062l0-0.062l0-0.062l0-0.062c0.043,0,0.087,0.001,0.13,0.003s0.086,0.004,0.129,0.007
		s0.086,0.007,0.128,0.012s0.085,0.01,0.126,0.016l-0.009,0.062L6.29,13.755l-0.009,0.062L6.273,13.878z"/>
</g>
<g>
	<path class="st0" d="M10.907,21.156h-0.01h-0.01h-0.01h-0.01v-0.062v-0.062v-0.062v-0.062h0.01h0.01h0.01h0.01
		c0.04,0,0.081-0.001,0.121-0.002s0.081-0.003,0.121-0.006s0.08-0.006,0.12-0.01s0.08-0.009,0.119-0.014l0.008,0.062l0.008,0.062
		l0.008,0.062l0.008,0.062c-0.042,0.006-0.085,0.011-0.127,0.015s-0.085,0.008-0.128,0.011s-0.086,0.005-0.129,0.006
		S10.95,21.156,10.907,21.156z M10.351,21.115c-0.042-0.006-0.085-0.013-0.127-0.021s-0.084-0.016-0.126-0.025
		s-0.084-0.019-0.125-0.03s-0.083-0.022-0.124-0.034l0.017-0.06l0.017-0.06l0.017-0.06l0.017-0.06
		c0.038,0.011,0.077,0.022,0.116,0.032s0.078,0.019,0.117,0.028s0.079,0.016,0.118,0.024s0.079,0.014,0.118,0.02l-0.009,0.062
		l-0.009,0.062l-0.009,0.062L10.351,21.115z M11.926,21.018l-0.017-0.06l-0.017-0.06l-0.017-0.06l-0.017-0.06
		c0.039-0.011,0.077-0.022,0.116-0.034s0.076-0.025,0.114-0.038s0.075-0.027,0.113-0.042s0.074-0.03,0.111-0.046l0.025,0.057
		l0.025,0.057l0.025,0.057l0.025,0.057c-0.039,0.017-0.079,0.033-0.118,0.049s-0.08,0.031-0.121,0.045s-0.081,0.028-0.122,0.041
		S11.967,21.006,11.926,21.018z M9.363,20.827c-0.039-0.018-0.079-0.036-0.117-0.055s-0.077-0.039-0.115-0.059
		s-0.075-0.041-0.112-0.062s-0.073-0.043-0.109-0.066l0.033-0.053l0.033-0.053l0.033-0.053l0.033-0.053
		c0.034,0.021,0.068,0.041,0.102,0.061s0.07,0.039,0.105,0.058s0.071,0.037,0.107,0.055s0.073,0.035,0.11,0.052L9.44,20.657
		l-0.026,0.057L9.389,20.77L9.363,20.827z M12.869,20.608l-0.032-0.053l-0.032-0.053l-0.032-0.053l-0.032-0.053
		c0.034-0.021,0.068-0.042,0.102-0.064s0.067-0.045,0.1-0.068s0.065-0.047,0.097-0.071s0.064-0.049,0.095-0.075l0.04,0.049
		l0.04,0.049l0.04,0.049l0.04,0.049c-0.033,0.027-0.067,0.054-0.102,0.08s-0.069,0.051-0.104,0.076s-0.071,0.049-0.107,0.072
		S12.906,20.586,12.869,20.608z M8.492,20.283c-0.033-0.028-0.066-0.056-0.098-0.084s-0.064-0.058-0.095-0.088
		s-0.062-0.06-0.092-0.09s-0.059-0.061-0.088-0.093l0.046-0.042l0.046-0.042l0.046-0.042l0.046-0.042
		c0.027,0.029,0.054,0.058,0.082,0.087s0.057,0.057,0.086,0.084s0.059,0.055,0.089,0.082s0.061,0.053,0.092,0.079l-0.04,0.048
		l-0.04,0.048l-0.04,0.048L8.492,20.283z M13.668,19.96l-0.046-0.043l-0.046-0.043l-0.046-0.043l-0.046-0.043
		c0.027-0.029,0.054-0.059,0.081-0.089s0.052-0.061,0.078-0.092s0.05-0.063,0.075-0.095s0.048-0.064,0.071-0.097l0.051,0.036
		l0.051,0.036l0.051,0.036l0.051,0.036c-0.025,0.035-0.05,0.07-0.077,0.104s-0.053,0.068-0.08,0.101s-0.055,0.066-0.083,0.098
		S13.697,19.928,13.668,19.96z M7.798,19.525c-0.025-0.036-0.048-0.071-0.072-0.108s-0.046-0.073-0.068-0.11
		s-0.043-0.074-0.064-0.112s-0.041-0.075-0.06-0.114l0.056-0.028l0.056-0.028l0.056-0.028l0.056-0.028
		c0.018,0.035,0.036,0.071,0.056,0.106s0.039,0.07,0.06,0.104s0.042,0.069,0.064,0.103s0.044,0.067,0.067,0.1l-0.052,0.036
		l-0.052,0.036L7.85,19.49L7.798,19.525z M14.263,19.122l-0.055-0.029l-0.055-0.029l-0.055-0.029l-0.055-0.029
		c0.018-0.035,0.036-0.071,0.054-0.107s0.034-0.073,0.05-0.109s0.032-0.074,0.047-0.111s0.029-0.075,0.043-0.113l0.059,0.021
		l0.059,0.021l0.059,0.021l0.059,0.021c-0.015,0.04-0.03,0.081-0.046,0.121s-0.033,0.08-0.05,0.119s-0.035,0.078-0.054,0.117
		S14.283,19.084,14.263,19.122z M7.334,18.607c-0.014-0.041-0.027-0.082-0.04-0.123s-0.025-0.083-0.036-0.124
		s-0.022-0.083-0.031-0.125S7.208,18.151,7.2,18.109l0.061-0.012l0.061-0.012l0.061-0.012l0.061-0.012
		c0.008,0.039,0.016,0.078,0.025,0.117s0.019,0.078,0.029,0.117s0.022,0.078,0.033,0.116s0.024,0.077,0.037,0.115l-0.059,0.02
		l-0.059,0.02l-0.059,0.02L7.334,18.607z M14.61,18.154l-0.061-0.013l-0.061-0.013l-0.061-0.013l-0.061-0.013
		c0.008-0.039,0.016-0.078,0.023-0.117s0.013-0.079,0.019-0.119s0.01-0.08,0.015-0.12s0.008-0.08,0.011-0.12l0.062,0.004
		l0.062,0.004l0.062,0.004l0.062,0.004c-0.003,0.043-0.007,0.086-0.011,0.129s-0.01,0.086-0.015,0.128s-0.012,0.085-0.02,0.127
		S14.619,18.113,14.61,18.154z M7.134,17.6c-0.001-0.018-0.002-0.037-0.003-0.056S7.13,17.507,7.13,17.488s-0.001-0.037-0.001-0.056
		s0-0.038,0-0.056c0-0.025,0-0.049,0.001-0.073s0.001-0.049,0.002-0.073s0.002-0.049,0.003-0.073s0.003-0.048,0.005-0.072
		l0.062,0.005l0.062,0.005l0.062,0.005l0.062,0.005c-0.002,0.023-0.003,0.045-0.004,0.068s-0.002,0.045-0.003,0.068
		s-0.002,0.046-0.002,0.069s-0.001,0.046-0.001,0.069c0,0.017,0,0.035,0,0.052s0.001,0.035,0.001,0.052s0.001,0.035,0.002,0.052
		s0.002,0.035,0.003,0.052l-0.062,0.004l-0.062,0.004l-0.062,0.004L7.134,17.6z M14.433,17.145c-0.003-0.04-0.006-0.081-0.01-0.121
		s-0.009-0.08-0.014-0.12s-0.011-0.079-0.018-0.119s-0.014-0.078-0.022-0.117l0.061-0.012l0.061-0.012l0.061-0.012l0.061-0.012
		c0.008,0.042,0.016,0.084,0.023,0.126s0.013,0.085,0.019,0.127s0.011,0.086,0.015,0.128s0.008,0.086,0.01,0.129l-0.062,0.004
		l-0.062,0.004l-0.062,0.004L14.433,17.145z M7.457,16.627l-0.061-0.013L7.335,16.6l-0.061-0.013l-0.061-0.013
		c0.009-0.042,0.019-0.083,0.029-0.125s0.022-0.083,0.034-0.124s0.025-0.083,0.038-0.123s0.027-0.082,0.042-0.122L7.414,16.1
		l0.059,0.021l0.059,0.021l0.059,0.021c-0.014,0.038-0.027,0.076-0.039,0.114s-0.024,0.077-0.035,0.115s-0.022,0.077-0.031,0.116
		S7.465,16.587,7.457,16.627z M14.241,16.204c-0.013-0.038-0.027-0.075-0.042-0.113s-0.03-0.075-0.046-0.112s-0.032-0.074-0.05-0.11
		s-0.035-0.072-0.053-0.108l0.056-0.029l0.056-0.029l0.056-0.029l0.056-0.029c0.02,0.038,0.038,0.077,0.057,0.115
		s0.036,0.078,0.053,0.118s0.033,0.079,0.049,0.12s0.031,0.08,0.045,0.121l-0.059,0.021l-0.059,0.021L14.3,16.183L14.241,16.204z
		 M7.786,15.725l-0.055-0.029l-0.055-0.029L7.62,15.637l-0.055-0.029c0.02-0.037,0.04-0.075,0.061-0.112s0.043-0.074,0.066-0.111
		s0.046-0.073,0.07-0.109s0.049-0.072,0.074-0.107l0.051,0.036l0.051,0.036l0.051,0.036l0.051,0.036
		c-0.024,0.033-0.047,0.066-0.069,0.1s-0.044,0.067-0.065,0.102s-0.042,0.068-0.061,0.103S7.805,15.69,7.786,15.725z M13.802,15.351
		c-0.023-0.033-0.047-0.065-0.071-0.097s-0.049-0.064-0.074-0.095s-0.051-0.062-0.077-0.092s-0.053-0.06-0.08-0.089l0.046-0.042
		l0.046-0.042l0.046-0.042l0.046-0.042c0.029,0.031,0.057,0.063,0.085,0.095s0.056,0.065,0.083,0.099s0.053,0.067,0.079,0.102
		s0.051,0.069,0.076,0.105l-0.051,0.036l-0.051,0.036l-0.051,0.036L13.802,15.351z M8.345,14.945l-0.045-0.043l-0.045-0.043
		l-0.045-0.043l-0.045-0.043c0.029-0.031,0.059-0.062,0.089-0.092s0.062-0.06,0.093-0.089s0.064-0.058,0.097-0.086
		s0.066-0.056,0.1-0.083l0.039,0.049l0.039,0.049l0.039,0.049l0.039,0.049c-0.031,0.025-0.062,0.051-0.093,0.077
		s-0.061,0.053-0.09,0.08s-0.059,0.055-0.087,0.083S8.372,14.916,8.345,14.945z M13.149,14.646c-0.031-0.025-0.062-0.05-0.094-0.075
		s-0.064-0.048-0.097-0.072s-0.066-0.046-0.099-0.068s-0.067-0.044-0.101-0.065l0.033-0.053l0.033-0.053l0.033-0.053l0.033-0.053
		c0.036,0.022,0.073,0.046,0.109,0.069s0.071,0.048,0.106,0.073s0.07,0.051,0.104,0.077s0.068,0.053,0.101,0.08l-0.04,0.048
		l-0.04,0.048l-0.04,0.048L13.149,14.646z M9.094,14.344L9.062,14.29L9.03,14.237l-0.032-0.053L8.965,14.13
		c0.036-0.022,0.073-0.043,0.111-0.064s0.075-0.041,0.114-0.061s0.077-0.039,0.116-0.057s0.079-0.036,0.118-0.053l0.024,0.058
		l0.024,0.058l0.024,0.058l0.024,0.058c-0.037,0.016-0.074,0.032-0.11,0.049s-0.073,0.035-0.108,0.053s-0.071,0.037-0.106,0.056
		S9.128,14.323,9.094,14.344z M12.332,14.143c-0.036-0.016-0.073-0.032-0.11-0.047s-0.075-0.029-0.112-0.043
		s-0.076-0.027-0.114-0.039s-0.077-0.024-0.115-0.035l0.017-0.06l0.017-0.06l0.017-0.06l0.017-0.06
		c0.041,0.012,0.083,0.024,0.124,0.037s0.082,0.027,0.122,0.042s0.081,0.03,0.121,0.046s0.079,0.033,0.118,0.05l-0.025,0.057
		l-0.025,0.057l-0.025,0.057L12.332,14.143z M9.978,13.967l-0.017-0.06l-0.017-0.06l-0.017-0.06l-0.017-0.06
		c0.041-0.011,0.083-0.022,0.124-0.032s0.084-0.019,0.126-0.027s0.085-0.016,0.127-0.023s0.085-0.013,0.128-0.019l0.008,0.062
		l0.008,0.062l0.008,0.062l0.008,0.062c-0.04,0.005-0.08,0.011-0.119,0.017s-0.079,0.014-0.119,0.022s-0.079,0.016-0.117,0.026
		S10.016,13.957,9.978,13.967z M11.409,13.878c-0.039-0.005-0.078-0.01-0.118-0.015s-0.08-0.008-0.12-0.011s-0.08-0.005-0.121-0.007
		s-0.081-0.003-0.121-0.003l0-0.062l0-0.062l0-0.062l0-0.062c0.043,0,0.087,0.001,0.13,0.003s0.086,0.004,0.129,0.007
		s0.086,0.007,0.128,0.012s0.085,0.01,0.126,0.016l-0.009,0.062l-0.009,0.062l-0.009,0.062L11.409,13.878z"/>
</g>
<g>
	<g>
		<path class="st0" d="M15.538,10.289c0,0.002,0,0.005,0.001,0.007s0.001,0.004,0.002,0.006s0.002,0.004,0.003,0.006
			c0.001,0.002,0.002,0.004,0.004,0.006l0.187,0.228l0.187,0.228l0.187,0.228l0.187,0.228l0.078,0.096l0.078,0.096l0.078,0.096
			l0.078,0.096h-0.124H16.36h-0.124h-0.124h-0.919h-0.919h-0.919h-0.919c-0.006,0-0.011,0.001-0.016,0.003s-0.009,0.005-0.013,0.009
			c-0.004,0.004-0.007,0.008-0.009,0.013c-0.002,0.005-0.003,0.01-0.003,0.016c0,0.006,0.001,0.011,0.003,0.016
			c0.002,0.005,0.005,0.009,0.009,0.013c0.004,0.004,0.008,0.007,0.013,0.009s0.01,0.003,0.016,0.003h0.919h0.919h0.919h0.919h0.124
			h0.124h0.124h0.124l-0.078,0.096L16.45,11.88l-0.078,0.096l-0.078,0.096L16.106,12.3l-0.187,0.229l-0.187,0.229l-0.187,0.229
			c-0.002,0.002-0.003,0.004-0.004,0.006c-0.001,0.002-0.002,0.004-0.003,0.006c-0.001,0.002-0.001,0.004-0.002,0.007
			s-0.001,0.005-0.001,0.007c0,0.002,0,0.004,0.001,0.006c0,0.002,0.001,0.005,0.002,0.008c0.001,0.003,0.002,0.006,0.004,0.009
			c0.002,0.003,0.005,0.006,0.008,0.008c0.003,0.002,0.005,0.004,0.008,0.005c0.003,0.001,0.005,0.002,0.008,0.003
			s0.005,0.001,0.007,0.001c0.002,0,0.004,0,0.006,0s0.004-0.001,0.006-0.001c0.002-0.001,0.005-0.001,0.007-0.002
			s0.005-0.003,0.007-0.004c0.002-0.002,0.005-0.004,0.007-0.007l0.279-0.341l0.279-0.341l0.279-0.341l0.279-0.341
			c0.002-0.002,0.003-0.005,0.005-0.007s0.002-0.005,0.003-0.007c0.001-0.002,0.001-0.004,0.001-0.006c0-0.002,0-0.004,0-0.005
			c0-0.002,0-0.003,0-0.005c0-0.002-0.001-0.004-0.001-0.006c-0.001-0.002-0.002-0.005-0.003-0.007
			c-0.001-0.002-0.003-0.005-0.005-0.007l-0.277-0.339l-0.277-0.339l-0.277-0.339l-0.277-0.339c-0.004-0.005-0.009-0.01-0.014-0.013
			s-0.01-0.005-0.016-0.006s-0.011-0.001-0.016,0.001c-0.005,0.001-0.01,0.004-0.014,0.007c-0.003,0.003-0.006,0.005-0.008,0.008
			c-0.002,0.003-0.004,0.006-0.005,0.009c-0.001,0.003-0.002,0.006-0.002,0.008S15.538,10.287,15.538,10.289z"/>
	</g>
</g>
<g>
	<path class="st0" d="M29.818,29.908h-7.432h-7.432H7.522H0.09v-7.432v-7.432V7.611V0.179h7.432h7.432h7.432h7.432v7.432v7.432
		v7.432V29.908z M0.34,29.658h7.307h7.307h7.307h7.307v-7.307v-7.307V7.736V0.429h-7.307h-7.307H7.647H0.34v7.307v7.307v7.307
		V29.658z"/>
</g>
</svg>
