<?xml version="1.0" encoding="utf-8"?>
<!-- Generator: Adobe Illustrator 19.1.0, SVG Export Plug-In . SVG Version: 6.00 Build 0)  -->
<svg version="1.1" id="Layer_1" xmlns="http://www.w3.org/2000/svg" xmlns:xlink="http://www.w3.org/1999/xlink" x="0px" y="0px"
	 viewBox="0 0 29.91 30.086" style="enable-background:new 0 0 29.91 30.086;" xml:space="preserve">
<style type="text/css">
	.st0{fill:#4D4D4D;}
	.st1{fill-rule:evenodd;clip-rule:evenodd;fill:#4C4C4C;}
	.st2{fill:#4C4C4C;}
	.st3{fill:#383330;}
	.st4{fill:#1F1A17;}
	.st5{fill:#4D4C4C;}
	.st6{fill:none;stroke:#000000;stroke-width:0.3;stroke-miterlimit:10;}
	.st7{fill:#E61413;}
	.st8{fill:#5F5357;}
	.st9{fill:#115C78;}
	.st10{fill-rule:evenodd;clip-rule:evenodd;fill:#4D4D4D;}
	.st11{fill-rule:evenodd;clip-rule:evenodd;}
	.st12{fill:#FFFFFF;}
	.st13{fill:none;}
	.st14{fill:#231F20;}
	.st15{clip-path:url(#SVGID_2_);}
	.st16{clip-path:url(#SVGID_4_);fill:#FCF118;}
	.st17{clip-path:url(#SVGID_4_);fill:#FCF018;}
	.st18{clip-path:url(#SVGID_4_);fill:#FCEF18;}
	.st19{clip-path:url(#SVGID_4_);fill:#FCEE18;}
	.st20{clip-path:url(#SVGID_4_);fill:#FCED18;}
	.st21{clip-path:url(#SVGID_4_);fill:#FCEC18;}
	.st22{clip-path:url(#SVGID_4_);fill:#FCEB18;}
	.st23{clip-path:url(#SVGID_4_);fill:#FCEA18;}
	.st24{clip-path:url(#SVGID_4_);fill:#FCE918;}
	.st25{clip-path:url(#SVGID_4_);fill:#FCE818;}
	.st26{clip-path:url(#SVGID_4_);fill:#FCE718;}
	.st27{clip-path:url(#SVGID_4_);fill:#FCE617;}
	.st28{clip-path:url(#SVGID_4_);fill:#FCE517;}
	.st29{clip-path:url(#SVGID_4_);fill:#FCE417;}
	.st30{clip-path:url(#SVGID_4_);fill:#FCE317;}
	.st31{clip-path:url(#SVGID_4_);fill:#FCE217;}
	.st32{clip-path:url(#SVGID_4_);fill:#FCE117;}
	.st33{clip-path:url(#SVGID_4_);fill:#FCE017;}
	.st34{clip-path:url(#SVGID_4_);fill:#FCDF17;}
	.st35{clip-path:url(#SVGID_4_);fill:#FCDE17;}
	.st36{clip-path:url(#SVGID_4_);fill:#FCDD17;}
	.st37{clip-path:url(#SVGID_4_);fill:#FCDC17;}
	.st38{clip-path:url(#SVGID_4_);fill:#FCDB17;}
	.st39{clip-path:url(#SVGID_4_);fill:#FCDA17;}
	.st40{clip-path:url(#SVGID_4_);fill:#FCD917;}
	.st41{clip-path:url(#SVGID_4_);fill:#FCD817;}
	.st42{clip-path:url(#SVGID_4_);fill:#FCD717;}
	.st43{clip-path:url(#SVGID_4_);fill:#FCD617;}
	.st44{clip-path:url(#SVGID_4_);fill:#FCD517;}
	.st45{clip-path:url(#SVGID_4_);fill:#FCD416;}
	.st46{clip-path:url(#SVGID_4_);fill:#FCD316;}
	.st47{clip-path:url(#SVGID_4_);fill:#FBD216;}
	.st48{clip-path:url(#SVGID_4_);fill:#FBD116;}
	.st49{clip-path:url(#SVGID_4_);fill:#FBD016;}
	.st50{clip-path:url(#SVGID_4_);fill:#FBCF16;}
	.st51{clip-path:url(#SVGID_4_);fill:#FBCE16;}
	.st52{clip-path:url(#SVGID_4_);fill:#FBCD16;}
	.st53{clip-path:url(#SVGID_4_);fill:#FBCC16;}
	.st54{clip-path:url(#SVGID_4_);fill:#FBCB16;}
	.st55{clip-path:url(#SVGID_4_);fill:#FBCA16;}
	.st56{clip-path:url(#SVGID_4_);fill:#FBC916;}
	.st57{clip-path:url(#SVGID_4_);fill:#FBC816;}
	.st58{clip-path:url(#SVGID_4_);fill:#FBC716;}
	.st59{clip-path:url(#SVGID_4_);fill:#FBC616;}
	.st60{clip-path:url(#SVGID_4_);fill:#FBC516;}
	.st61{clip-path:url(#SVGID_4_);fill:#FBC416;}
	.st62{clip-path:url(#SVGID_4_);fill:#FBC316;}
	.st63{clip-path:url(#SVGID_4_);fill:#FBC216;}
	.st64{clip-path:url(#SVGID_4_);fill:#FBC115;}
	.st65{clip-path:url(#SVGID_4_);fill:#FBC015;}
	.st66{clip-path:url(#SVGID_4_);fill:#FBBF15;}
	.st67{clip-path:url(#SVGID_4_);fill:#FBBE15;}
	.st68{clip-path:url(#SVGID_4_);fill:#FBBD15;}
	.st69{clip-path:url(#SVGID_4_);fill:#FBBC15;}
	.st70{clip-path:url(#SVGID_4_);fill:#FBBB15;}
	.st71{clip-path:url(#SVGID_4_);fill:#FBBA15;}
	.st72{clip-path:url(#SVGID_4_);fill:#FBB915;}
	.st73{clip-path:url(#SVGID_4_);fill:#FBB815;}
	.st74{clip-path:url(#SVGID_4_);fill:#FBB715;}
	.st75{clip-path:url(#SVGID_4_);fill:#FBB615;}
	.st76{clip-path:url(#SVGID_4_);fill:#FBB515;}
	.st77{clip-path:url(#SVGID_4_);fill:#FBB415;}
	.st78{clip-path:url(#SVGID_4_);fill:#FBB315;}
	.st79{clip-path:url(#SVGID_4_);fill:#FBB215;}
	.st80{clip-path:url(#SVGID_4_);fill:#FBB115;}
	.st81{clip-path:url(#SVGID_4_);fill:#FBB015;}
	.st82{clip-path:url(#SVGID_4_);fill:#FBAF15;}
	.st83{clip-path:url(#SVGID_4_);fill:#FAAE15;}
	.st84{clip-path:url(#SVGID_4_);fill:#FAAD14;}
	.st85{clip-path:url(#SVGID_4_);fill:#FAAC14;}
	.st86{clip-path:url(#SVGID_4_);fill:#FAAB14;}
	.st87{clip-path:url(#SVGID_4_);fill:#FAAA14;}
	.st88{clip-path:url(#SVGID_4_);fill:#FAA914;}
	.st89{clip-path:url(#SVGID_4_);fill:#FAA814;}
	.st90{clip-path:url(#SVGID_4_);fill:#FAA714;}
	.st91{clip-path:url(#SVGID_4_);fill:#FAA614;}
	.st92{clip-path:url(#SVGID_4_);fill:#FAA514;}
	.st93{clip-path:url(#SVGID_4_);fill:#FAA414;}
	.st94{clip-path:url(#SVGID_4_);fill:#FAA314;}
	.st95{clip-path:url(#SVGID_4_);fill:#FAA214;}
	.st96{clip-path:url(#SVGID_4_);fill:#FAA114;}
	.st97{clip-path:url(#SVGID_4_);fill:#FAA014;}
	.st98{clip-path:url(#SVGID_4_);fill:#FA9F14;}
	.st99{clip-path:url(#SVGID_4_);fill:#FA9E14;}
	.st100{clip-path:url(#SVGID_4_);fill:#FA9D14;}
	.st101{clip-path:url(#SVGID_4_);fill:#FA9C14;}
	.st102{clip-path:url(#SVGID_4_);fill:#FA9B14;}
	.st103{clip-path:url(#SVGID_4_);fill:#FA9A13;}
	.st104{clip-path:url(#SVGID_4_);fill:#FA9913;}
	.st105{clip-path:url(#SVGID_4_);fill:#FA9813;}
	.st106{clip-path:url(#SVGID_4_);fill:#FA9713;}
	.st107{clip-path:url(#SVGID_4_);fill:#FA9613;}
	.st108{clip-path:url(#SVGID_4_);fill:#FA9513;}
	.st109{clip-path:url(#SVGID_4_);fill:#FA9413;}
	.st110{clip-path:url(#SVGID_4_);fill:#FA9313;}
	.st111{clip-path:url(#SVGID_4_);fill:#FA9213;}
	.st112{clip-path:url(#SVGID_4_);fill:#FA9113;}
	.st113{clip-path:url(#SVGID_4_);fill:#FA9013;}
	.st114{clip-path:url(#SVGID_4_);fill:#FA8F13;}
	.st115{clip-path:url(#SVGID_4_);fill:#FA8E13;}
	.st116{clip-path:url(#SVGID_4_);fill:#FA8D13;}
	.st117{clip-path:url(#SVGID_4_);fill:#FA8C13;}
	.st118{clip-path:url(#SVGID_4_);fill:#FA8B13;}
	.st119{clip-path:url(#SVGID_4_);fill:#FA8A13;}
	.st120{clip-path:url(#SVGID_4_);fill:#FA8913;}
	.st121{clip-path:url(#SVGID_4_);fill:#FA8812;}
	.st122{clip-path:url(#SVGID_4_);fill:#FA8712;}
	.st123{clip-path:url(#SVGID_4_);fill:#FA8612;}
	.st124{clip-path:url(#SVGID_4_);fill:#F98512;}
	.st125{clip-path:url(#SVGID_4_);fill:#F98412;}
	.st126{clip-path:url(#SVGID_4_);fill:#F98312;}
	.st127{clip-path:url(#SVGID_4_);fill:#F98212;}
	.st128{clip-path:url(#SVGID_4_);fill:#F98112;}
	.st129{clip-path:url(#SVGID_4_);fill:#F98012;}
	.st130{clip-path:url(#SVGID_4_);fill:#F97F12;}
	.st131{clip-path:url(#SVGID_4_);fill:#F97E12;}
	.st132{clip-path:url(#SVGID_4_);fill:#F97D12;}
	.st133{clip-path:url(#SVGID_4_);fill:#F97C12;}
	.st134{clip-path:url(#SVGID_4_);fill:#F97B12;}
	.st135{clip-path:url(#SVGID_4_);fill:#F97A12;}
	.st136{clip-path:url(#SVGID_4_);fill:#F97912;}
	.st137{clip-path:url(#SVGID_4_);fill:#F97812;}
	.st138{clip-path:url(#SVGID_4_);fill:#F97712;}
	.st139{clip-path:url(#SVGID_4_);fill:#F97612;}
	.st140{clip-path:url(#SVGID_4_);fill:#F97511;}
	.st141{clip-path:url(#SVGID_4_);fill:#F97411;}
	.st142{clip-path:url(#SVGID_4_);fill:#F97311;}
	.st143{clip-path:url(#SVGID_4_);fill:#F97211;}
	.st144{clip-path:url(#SVGID_4_);fill:#F97111;}
	.st145{clip-path:url(#SVGID_4_);fill:#F97011;}
	.st146{clip-path:url(#SVGID_4_);fill:#F96F11;}
	.st147{clip-path:url(#SVGID_4_);fill:#F96E11;}
	.st148{clip-path:url(#SVGID_4_);fill:#F96D11;}
	.st149{clip-path:url(#SVGID_4_);fill:#F96C11;}
	.st150{clip-path:url(#SVGID_4_);fill:#F96B11;}
	.st151{clip-path:url(#SVGID_4_);fill:#F96A11;}
	.st152{clip-path:url(#SVGID_4_);fill:#F96911;}
	.st153{clip-path:url(#SVGID_4_);fill:#F96811;}
	.st154{clip-path:url(#SVGID_4_);fill:#F96711;}
	.st155{clip-path:url(#SVGID_4_);fill:#F96611;}
	.st156{clip-path:url(#SVGID_4_);fill:#F96511;}
	.st157{clip-path:url(#SVGID_4_);fill:#F96411;}
	.st158{clip-path:url(#SVGID_4_);fill:#F96311;}
	.st159{clip-path:url(#SVGID_4_);fill:#F96210;}
	.st160{clip-path:url(#SVGID_4_);fill:#F86110;}
	.st161{clip-path:url(#SVGID_4_);fill:#F86010;}
	.st162{clip-path:url(#SVGID_4_);fill:#F85F10;}
	.st163{clip-path:url(#SVGID_4_);fill:#F85E10;}
	.st164{clip-path:url(#SVGID_4_);fill:#F85D10;}
	.st165{clip-path:url(#SVGID_4_);fill:#F85C10;}
	.st166{clip-path:url(#SVGID_4_);fill:#F85B10;}
	.st167{clip-path:url(#SVGID_4_);fill:#F85A10;}
	.st168{clip-path:url(#SVGID_4_);fill:#F85910;}
	.st169{clip-path:url(#SVGID_4_);fill:#F85810;}
	.st170{clip-path:url(#SVGID_4_);fill:#F85710;}
	.st171{clip-path:url(#SVGID_4_);fill:#F85610;}
	.st172{clip-path:url(#SVGID_4_);fill:#F85510;}
	.st173{clip-path:url(#SVGID_4_);fill:#F85410;}
	.st174{clip-path:url(#SVGID_4_);fill:#F85310;}
	.st175{clip-path:url(#SVGID_4_);fill:#F85210;}
	.st176{clip-path:url(#SVGID_4_);fill:#F85110;}
	.st177{clip-path:url(#SVGID_4_);fill:#F85010;}
	.st178{clip-path:url(#SVGID_4_);fill:#F84F0F;}
	.st179{clip-path:url(#SVGID_4_);fill:#F84E0F;}
	.st180{clip-path:url(#SVGID_4_);fill:#F84D0F;}
	.st181{clip-path:url(#SVGID_4_);fill:#F84C0F;}
	.st182{clip-path:url(#SVGID_4_);fill:#F84B0F;}
	.st183{clip-path:url(#SVGID_4_);fill:#F84A0F;}
	.st184{clip-path:url(#SVGID_4_);fill:#F8490F;}
	.st185{clip-path:url(#SVGID_4_);fill:#F8480F;}
	.st186{clip-path:url(#SVGID_4_);fill:#F8470F;}
	.st187{clip-path:url(#SVGID_4_);fill:#F8460F;}
	.st188{clip-path:url(#SVGID_4_);fill:#F8450F;}
	.st189{clip-path:url(#SVGID_4_);fill:#F8440F;}
	.st190{clip-path:url(#SVGID_4_);fill:#F8430F;}
	.st191{clip-path:url(#SVGID_4_);fill:#F8420F;}
	.st192{clip-path:url(#SVGID_4_);fill:#F8410F;}
	.st193{clip-path:url(#SVGID_4_);fill:#F8400F;}
	.st194{clip-path:url(#SVGID_4_);fill:#F83F0F;}
	.st195{clip-path:url(#SVGID_4_);fill:#F83E0E;}
	.st196{clip-path:url(#SVGID_4_);fill:#F83D0E;}
	.st197{clip-path:url(#SVGID_4_);fill:#F83C0E;}
	.st198{clip-path:url(#SVGID_4_);fill:#F83B0E;}
	.st199{clip-path:url(#SVGID_4_);fill:#F73A0E;}
	.st200{clip-path:url(#SVGID_4_);fill:#F7390E;}
	.st201{clip-path:url(#SVGID_4_);fill:#F7380E;}
	.st202{clip-path:url(#SVGID_4_);fill:#F7370E;}
	.st203{clip-path:url(#SVGID_4_);fill:#F7360E;}
	.st204{clip-path:url(#SVGID_4_);fill:#F7340E;}
	.st205{clip-path:url(#SVGID_4_);fill:#F7330E;}
	.st206{clip-path:url(#SVGID_4_);fill:#F7320E;}
	.st207{clip-path:url(#SVGID_4_);fill:#F7310E;}
	.st208{clip-path:url(#SVGID_4_);fill:#F7300E;}
	.st209{clip-path:url(#SVGID_4_);fill:#F72F0E;}
	.st210{clip-path:url(#SVGID_4_);fill:#F72E0E;}
	.st211{clip-path:url(#SVGID_4_);fill:#F72D0E;}
	.st212{clip-path:url(#SVGID_4_);fill:#F72C0E;}
	.st213{clip-path:url(#SVGID_4_);fill:#F72B0E;}
	.st214{clip-path:url(#SVGID_4_);fill:#F72B0D;}
	.st215{clip-path:url(#SVGID_4_);fill:#F72A0D;}
	.st216{clip-path:url(#SVGID_4_);fill:#F7290D;}
	.st217{clip-path:url(#SVGID_4_);fill:#F7280D;}
	.st218{clip-path:url(#SVGID_4_);fill:#F7270D;}
	.st219{clip-path:url(#SVGID_4_);fill:#F7260D;}
</style>
<g>
	<g>
		<path class="st10" d="M18.301,18.874c-0.598,0.513-1.272,0.881-1.978,1.106c-0.706,0.225-1.445,0.309-2.173,0.253
			c-0.728-0.056-1.446-0.25-2.11-0.58c-0.664-0.33-1.274-0.796-1.787-1.394c-0.513-0.598-0.881-1.272-1.106-1.978
			c-0.225-0.706-0.309-1.445-0.253-2.173c0.056-0.728,0.25-1.446,0.58-2.11s0.796-1.274,1.394-1.787
			c-0.357,0.794-0.536,1.623-0.555,2.441c-0.019,0.819,0.124,1.628,0.41,2.382s0.716,1.454,1.273,2.054
			c0.557,0.6,1.241,1.102,2.035,1.459c0.335,0.151,0.681,0.271,1.034,0.361c0.352,0.09,0.711,0.148,1.073,0.176
			s0.725,0.024,1.087-0.011C17.586,19.039,17.946,18.973,18.301,18.874L18.301,18.874L18.301,18.874L18.301,18.874L18.301,18.874z"
			/>
	</g>
	<g>
		<g>
			<path d="M20.93,13.448c0,0.01,0,0.019-0.001,0.028c0,0.009-0.001,0.018-0.002,0.026c-0.001,0.008-0.002,0.016-0.003,0.024
				c-0.001,0.008-0.002,0.015-0.004,0.022c-0.002,0.007-0.003,0.014-0.005,0.02c-0.002,0.006-0.003,0.012-0.005,0.018
				c-0.002,0.006-0.004,0.011-0.006,0.016c-0.002,0.005-0.004,0.01-0.006,0.014c-0.002,0.004-0.004,0.008-0.007,0.012
				s-0.005,0.007-0.008,0.01c-0.003,0.003-0.006,0.006-0.009,0.008c-0.003,0.002-0.007,0.005-0.01,0.006
				c-0.004,0.002-0.007,0.003-0.011,0.005s-0.008,0.002-0.011,0.003c-0.004,0.001-0.008,0.002-0.012,0.002s-0.008,0.001-0.012,0.001
				h-0.426h-0.426h-0.426h-0.426c-0.011,0-0.021-0.001-0.031-0.003c-0.01-0.002-0.019-0.004-0.028-0.008
				c-0.009-0.004-0.017-0.008-0.025-0.013c-0.008-0.005-0.015-0.012-0.022-0.019c-0.007-0.007-0.013-0.016-0.018-0.025
				c-0.005-0.01-0.01-0.02-0.013-0.032c-0.003-0.012-0.006-0.025-0.008-0.04c-0.002-0.014-0.003-0.03-0.003-0.047V13.45v-0.026
				v-0.026v-0.026c0-0.007,0-0.014,0-0.021c0-0.007,0.001-0.013,0.001-0.02s0.001-0.013,0.002-0.019
				c0.001-0.006,0.002-0.012,0.003-0.018c0.001-0.006,0.002-0.011,0.003-0.017c0.001-0.006,0.003-0.011,0.004-0.017
				s0.003-0.011,0.005-0.017c0.002-0.006,0.004-0.011,0.006-0.017c0.002-0.006,0.004-0.011,0.007-0.017
				c0.002-0.006,0.005-0.012,0.008-0.018s0.006-0.012,0.009-0.018c0.003-0.006,0.007-0.013,0.01-0.019
				c0.004-0.006,0.007-0.013,0.011-0.02c0.004-0.007,0.008-0.014,0.012-0.021s0.009-0.015,0.014-0.023
				c0.005-0.008,0.01-0.016,0.015-0.024l0.305-0.475l0.305-0.475l0.305-0.475l0.305-0.475h-0.296h-0.296h-0.296h-0.296
				c-0.008,0-0.016-0.001-0.023-0.003c-0.007-0.002-0.014-0.005-0.021-0.01c-0.007-0.004-0.013-0.01-0.018-0.016
				c-0.006-0.006-0.011-0.014-0.016-0.022c-0.005-0.008-0.009-0.018-0.013-0.029c-0.004-0.011-0.007-0.023-0.009-0.037
				c-0.002-0.014-0.004-0.029-0.005-0.045c-0.001-0.016-0.002-0.034-0.002-0.053c0-0.009,0-0.018,0-0.027s0.001-0.017,0.001-0.025
				c0.001-0.008,0.001-0.016,0.002-0.023c0.001-0.007,0.002-0.015,0.003-0.022c0.001-0.007,0.002-0.014,0.004-0.02
				c0.001-0.006,0.003-0.012,0.005-0.018c0.002-0.006,0.004-0.011,0.005-0.016c0.002-0.005,0.004-0.01,0.006-0.014
				s0.005-0.008,0.007-0.012c0.003-0.004,0.005-0.007,0.008-0.01c0.003-0.003,0.006-0.006,0.009-0.008s0.006-0.005,0.01-0.006
				c0.003-0.002,0.007-0.003,0.01-0.005c0.004-0.001,0.007-0.002,0.011-0.003s0.008-0.002,0.012-0.002
				c0.004,0,0.009-0.001,0.013-0.001h0.397h0.397h0.397h0.397c0.006,0,0.011,0,0.016,0.001c0.005,0,0.01,0.001,0.015,0.002
				c0.005,0.001,0.01,0.002,0.015,0.003s0.009,0.002,0.014,0.004c0.004,0.002,0.009,0.003,0.013,0.005
				c0.004,0.002,0.008,0.004,0.012,0.007s0.007,0.005,0.011,0.008c0.003,0.003,0.007,0.006,0.01,0.01
				c0.003,0.004,0.006,0.007,0.009,0.011s0.005,0.008,0.008,0.013c0.002,0.005,0.005,0.009,0.007,0.015
				c0.002,0.005,0.004,0.011,0.006,0.016c0.002,0.006,0.003,0.012,0.005,0.018s0.002,0.013,0.003,0.02
				c0.001,0.007,0.002,0.015,0.002,0.023c0,0.008,0.001,0.016,0.001,0.025v0.025v0.025v0.025v0.025c0,0.007,0,0.014,0,0.021
				c0,0.007-0.001,0.014-0.001,0.02c-0.001,0.007-0.001,0.013-0.002,0.02c-0.001,0.006-0.002,0.013-0.003,0.019
				c-0.001,0.006-0.002,0.012-0.004,0.018c-0.001,0.006-0.003,0.012-0.004,0.018s-0.003,0.012-0.005,0.018s-0.004,0.012-0.006,0.018
				c-0.002,0.006-0.004,0.012-0.007,0.018s-0.005,0.012-0.008,0.019s-0.006,0.013-0.009,0.019c-0.003,0.006-0.007,0.013-0.01,0.02
				c-0.004,0.007-0.007,0.013-0.011,0.021c-0.004,0.007-0.008,0.014-0.013,0.022c-0.004,0.007-0.009,0.015-0.014,0.023
				c-0.005,0.008-0.01,0.016-0.015,0.024l-0.304,0.475l-0.304,0.475l-0.304,0.475l-0.304,0.475h0.324h0.324h0.324h0.324
				c0.004,0,0.008,0,0.012,0.001c0.004,0,0.008,0.001,0.011,0.002c0.004,0.001,0.007,0.002,0.011,0.003s0.007,0.003,0.01,0.005
				c0.003,0.002,0.007,0.004,0.01,0.006c0.003,0.002,0.006,0.005,0.009,0.008s0.006,0.006,0.008,0.01s0.005,0.007,0.007,0.011
				c0.002,0.004,0.005,0.009,0.007,0.013c0.002,0.005,0.004,0.01,0.006,0.015c0.002,0.006,0.004,0.011,0.005,0.018
				s0.003,0.013,0.005,0.02s0.003,0.014,0.004,0.022c0.001,0.008,0.002,0.016,0.003,0.024c0.001,0.008,0.001,0.017,0.002,0.026
				C20.929,13.429,20.93,13.438,20.93,13.448z"/>
		</g>
	</g>
	<g>
		<g>
			<path d="M17.705,16.514c0,0.007,0,0.013,0,0.019c0,0.006-0.001,0.012-0.001,0.018c-0.001,0.006-0.001,0.011-0.002,0.016
				c-0.001,0.005-0.002,0.01-0.003,0.015c-0.001,0.005-0.002,0.009-0.003,0.014s-0.002,0.008-0.004,0.012
				c-0.001,0.004-0.003,0.008-0.004,0.011s-0.003,0.007-0.004,0.01c-0.001,0.003-0.003,0.006-0.005,0.008
				c-0.002,0.003-0.003,0.005-0.005,0.007c-0.002,0.002-0.004,0.004-0.006,0.006c-0.002,0.002-0.005,0.003-0.007,0.004
				s-0.005,0.002-0.007,0.003c-0.003,0.001-0.005,0.002-0.008,0.002s-0.005,0.001-0.008,0.001c-0.003,0-0.006,0-0.008,0h-0.293
				h-0.293H16.75h-0.293c-0.007,0-0.014-0.001-0.021-0.002c-0.007-0.001-0.013-0.003-0.019-0.006
				c-0.006-0.002-0.012-0.006-0.017-0.009c-0.005-0.004-0.01-0.008-0.015-0.013c-0.005-0.005-0.009-0.011-0.013-0.017
				c-0.004-0.007-0.007-0.014-0.009-0.022c-0.002-0.008-0.004-0.017-0.005-0.027c-0.001-0.01-0.002-0.021-0.002-0.033v-0.018v-0.018
				V16.48v-0.018c0-0.005,0-0.01,0-0.015c0-0.005,0-0.009,0.001-0.014c0-0.004,0.001-0.009,0.001-0.013
				c0.001-0.004,0.001-0.008,0.002-0.012c0.001-0.004,0.002-0.008,0.002-0.012s0.002-0.008,0.003-0.012s0.002-0.008,0.003-0.012
				s0.003-0.008,0.004-0.012c0.001-0.004,0.003-0.008,0.005-0.012c0.002-0.004,0.003-0.008,0.005-0.012
				c0.002-0.004,0.004-0.008,0.006-0.013c0.002-0.004,0.005-0.009,0.007-0.013c0.002-0.004,0.005-0.009,0.008-0.014
				c0.003-0.005,0.006-0.01,0.009-0.015c0.003-0.005,0.006-0.01,0.009-0.016s0.007-0.011,0.01-0.017l0.21-0.327l0.21-0.327
				l0.21-0.327l0.21-0.327h-0.203h-0.203h-0.203h-0.203c-0.006,0-0.011-0.001-0.016-0.002c-0.005-0.001-0.01-0.004-0.014-0.007
				c-0.005-0.003-0.009-0.007-0.013-0.011s-0.008-0.009-0.011-0.015c-0.003-0.006-0.006-0.012-0.009-0.02
				c-0.002-0.008-0.005-0.016-0.006-0.026c-0.002-0.009-0.003-0.02-0.004-0.031c-0.001-0.011-0.001-0.023-0.001-0.036
				c0-0.006,0-0.012,0-0.018c0-0.006,0-0.012,0.001-0.017c0-0.006,0.001-0.011,0.001-0.016s0.001-0.01,0.002-0.015
				c0.001-0.005,0.002-0.009,0.002-0.014c0.001-0.004,0.002-0.008,0.003-0.012c0.001-0.004,0.002-0.008,0.004-0.011
				c0.001-0.003,0.003-0.007,0.005-0.01c0.002-0.003,0.003-0.006,0.005-0.008c0.002-0.003,0.004-0.005,0.006-0.007
				s0.004-0.004,0.006-0.006c0.002-0.002,0.004-0.003,0.007-0.004c0.002-0.001,0.005-0.002,0.007-0.003
				c0.003-0.001,0.005-0.002,0.008-0.002c0.003-0.001,0.006-0.001,0.009-0.001c0.003,0,0.006,0,0.009,0h0.273h0.273h0.273h0.273
				c0.004,0,0.008,0,0.011,0c0.004,0,0.007,0.001,0.011,0.001s0.007,0.001,0.01,0.002s0.006,0.002,0.009,0.003
				c0.003,0.001,0.006,0.002,0.009,0.004c0.003,0.001,0.005,0.003,0.008,0.005s0.005,0.004,0.007,0.006
				c0.002,0.002,0.005,0.004,0.007,0.007c0.002,0.002,0.004,0.005,0.006,0.008c0.002,0.003,0.004,0.006,0.005,0.009
				c0.002,0.003,0.003,0.007,0.005,0.01c0.001,0.004,0.003,0.007,0.004,0.011c0.001,0.004,0.002,0.008,0.003,0.012
				c0.001,0.004,0.002,0.009,0.002,0.014c0.001,0.005,0.001,0.01,0.001,0.016s0,0.011,0,0.017v0.017v0.017v0.017v0.017
				c0,0.005,0,0.01,0,0.014c0,0.005,0,0.009-0.001,0.014c0,0.005-0.001,0.009-0.001,0.014c-0.001,0.004-0.001,0.009-0.002,0.013
				c-0.001,0.004-0.002,0.008-0.002,0.013s-0.002,0.008-0.003,0.012c-0.001,0.004-0.002,0.008-0.003,0.012s-0.003,0.008-0.004,0.012
				c-0.001,0.004-0.003,0.008-0.005,0.012c-0.002,0.004-0.003,0.008-0.005,0.013c-0.002,0.004-0.004,0.009-0.006,0.013
				c-0.002,0.004-0.005,0.009-0.007,0.014c-0.002,0.005-0.005,0.009-0.008,0.014c-0.003,0.005-0.006,0.01-0.009,0.015
				c-0.003,0.005-0.006,0.01-0.009,0.016s-0.007,0.011-0.01,0.016l-0.209,0.327l-0.209,0.327l-0.209,0.327l-0.209,0.327h0.223h0.223
				h0.223h0.223c0.003,0,0.006,0,0.008,0c0.003,0,0.005,0.001,0.008,0.001s0.005,0.001,0.007,0.002
				c0.002,0.001,0.005,0.002,0.007,0.003c0.002,0.001,0.005,0.003,0.007,0.004c0.002,0.002,0.004,0.003,0.006,0.005
				s0.004,0.004,0.006,0.007c0.002,0.002,0.003,0.005,0.005,0.008c0.002,0.003,0.003,0.006,0.004,0.009
				c0.001,0.003,0.003,0.007,0.004,0.011s0.003,0.008,0.004,0.012c0.001,0.004,0.002,0.009,0.003,0.013
				c0.001,0.005,0.002,0.01,0.003,0.015c0.001,0.005,0.001,0.011,0.002,0.016c0.001,0.006,0.001,0.012,0.001,0.018
				C17.705,16.501,17.705,16.508,17.705,16.514z"/>
		</g>
	</g>
	<g>
		<path d="M14.955,24.766c-1.455,0-2.843-0.296-4.105-0.831s-2.4-1.309-3.356-2.265s-1.73-2.094-2.265-3.356
			s-0.831-2.65-0.831-4.105s0.296-2.843,0.831-4.105s1.309-2.4,2.265-3.356s2.094-1.73,3.356-2.265s2.65-0.831,4.105-0.831
			s2.843,0.296,4.105,0.831s2.4,1.309,3.356,2.265s1.73,2.094,2.265,3.356s0.831,2.65,0.831,4.105s-0.296,2.843-0.831,4.105
			s-1.309,2.4-2.265,3.356s-2.094,1.73-3.356,2.265S16.41,24.766,14.955,24.766z M14.955,3.902c-1.421,0-2.776,0.289-4.008,0.811
			S8.603,5.991,7.67,6.924s-1.689,2.044-2.211,3.277s-0.811,2.587-0.811,4.008s0.289,2.776,0.811,4.008s1.278,2.343,2.211,3.277
			s2.044,1.689,3.277,2.211s2.587,0.811,4.008,0.811s2.776-0.289,4.008-0.811s2.343-1.278,3.277-2.211s1.689-2.044,2.211-3.277
			s0.811-2.587,0.811-4.008s-0.289-2.776-0.811-4.008s-1.278-2.343-2.211-3.277s-2.044-1.689-3.277-2.211S16.376,3.902,14.955,3.902
			z"/>
	</g>
</g>
</svg>
