<?xml version="1.0" encoding="utf-8"?>
<!-- Generator: Adobe Illustrator 19.1.0, SVG Export Plug-In . SVG Version: 6.00 Build 0)  -->
<svg version="1.1" id="Layer_1" xmlns="http://www.w3.org/2000/svg" xmlns:xlink="http://www.w3.org/1999/xlink" x="0px" y="0px"
	 viewBox="0 0 29.91 30.086" style="enable-background:new 0 0 29.91 30.086;" xml:space="preserve">
<style type="text/css">
	.st0{fill:#115C78;}
	.st1{fill-rule:evenodd;clip-rule:evenodd;fill:#4D4D4D;}
	.st2{fill:#4D4D4D;}
	.st3{fill-rule:evenodd;clip-rule:evenodd;}
	.st4{fill:#FFFFFF;}
	.st5{fill:none;}
	.st6{fill:none;stroke:#4D4D4D;stroke-width:0.3;stroke-miterlimit:10;}
	.st7{fill:#4D4D4D;stroke:#4D4D4D;stroke-width:0.1;stroke-miterlimit:10;}
	.st8{fill:#F0047F;}
	.st9{fill:none;stroke:#4D4D4D;stroke-width:0;stroke-linecap:round;stroke-linejoin:round;}
	.st10{fill:none;stroke:#4D4D4D;stroke-width:0.25;stroke-miterlimit:10;}
	.st11{fill:none;stroke:#4D4D4D;stroke-width:0.2;stroke-miterlimit:10;}
	.st12{fill:none;stroke:#4D4D4D;stroke-width:0.8;stroke-miterlimit:10;}
	.st13{fill:#4D4D4D;stroke:#4D4D4D;stroke-width:0.3;stroke-miterlimit:10;}
	.st14{fill:none;stroke:#4D4D4D;stroke-width:0.24;stroke-miterlimit:10;}
</style>
<path class="st14" d="M10.358,3.621C9.465,3.88,8.569,4.349,7.727,4.989s-1.63,1.453-2.306,2.398S4.18,9.41,3.784,10.581
	s-0.622,2.436-0.622,3.756c0,1.512,0.297,2.951,0.835,4.261c0.537,1.31,1.315,2.489,2.276,3.48c0.961,0.99,2.106,1.792,3.376,2.346
	s2.668,0.86,4.135,0.86c1.007,0,1.981-0.145,2.904-0.415c0.922-0.27,1.793-0.666,2.595-1.169c0.801-0.503,1.533-1.112,2.177-1.808
	c0.644-0.696,1.2-1.48,1.649-2.332c0.017-0.033,0.035-0.066,0.052-0.099s0.034-0.067,0.051-0.1c0.017-0.033,0.033-0.067,0.05-0.101
	c0.016-0.034,0.033-0.067,0.049-0.101c-0.175,0.037-0.352,0.071-0.53,0.099c-0.178,0.029-0.358,0.053-0.539,0.072
	c-0.181,0.019-0.364,0.034-0.547,0.044c-0.184,0.01-0.369,0.015-0.555,0.015c-0.644,0-1.333-0.039-2.036-0.121
	s-1.42-0.209-2.12-0.384c-0.7-0.175-1.383-0.399-2.018-0.677c-0.635-0.278-1.221-0.609-1.728-0.999
	c-0.648-0.499-1.197-1.081-1.656-1.728c-0.459-0.647-0.828-1.358-1.115-2.114c-0.288-0.756-0.494-1.557-0.629-2.384
	c-0.135-0.827-0.198-1.679-0.198-2.537c0-0.419,0.017-0.806,0.047-1.176c0.031-0.37,0.075-0.722,0.131-1.071
	c0.056-0.349,0.123-0.694,0.198-1.05c0.075-0.355,0.159-0.721,0.248-1.111l0,0l0,0l0,0l0,0c0.008-0.034,0.016-0.068,0.023-0.102
	s0.016-0.069,0.024-0.103c0.008-0.035,0.016-0.07,0.024-0.105C10.342,3.692,10.35,3.657,10.358,3.621z"/>
<g>
	<g>
		<g>
			<path class="st2" d="M20.634,10.464H19.89h-0.744h-0.744h-0.744v-0.056v-0.056v-0.056v-0.056l0.627-0.945l0.627-0.945
				l0.627-0.945l0.627-0.945h-0.598h-0.598H18.37h-0.598v-0.07v-0.07v-0.07v-0.07h0.699h0.699h0.699h0.699v0.056v0.056v0.056v0.056
				l-0.628,0.945L19.31,8.293l-0.628,0.945l-0.628,0.945h0.645h0.645h0.645h0.645v0.07v0.07v0.07V10.464z"/>
		</g>
	</g>
</g>
<g>
	<path class="st2" d="M16.291,13.026h-0.496h-0.496h-0.496h-0.496v-0.037v-0.037v-0.037v-0.037l0.418-0.63l0.418-0.63l0.418-0.63
		l0.418-0.63h-0.399H15.18h-0.399h-0.399v-0.047v-0.047v-0.047V10.17h0.466h0.466h0.466h0.466v0.037v0.037v0.037v0.037l-0.419,0.63
		l-0.419,0.63l-0.419,0.63l-0.419,0.63H15h0.43h0.43h0.43v0.047v0.047v0.047V13.026z"/>
</g>
<path class="st10" d="M0.216,0.519h7.37h7.37h7.37h7.37v7.276v7.276v7.276v7.276h-7.37h-7.37h-7.37h-7.37v-7.276v-7.276V7.795V0.519
	z"/>
</svg>
