<?xml version="1.0" encoding="utf-8"?>
<!-- Generator: Adobe Illustrator 19.1.0, SVG Export Plug-In . SVG Version: 6.00 Build 0)  -->
<svg version="1.1" id="Layer_1" xmlns="http://www.w3.org/2000/svg" xmlns:xlink="http://www.w3.org/1999/xlink" x="0px" y="0px"
	 viewBox="0 0 29.91 30.086" style="enable-background:new 0 0 29.91 30.086;" xml:space="preserve">
<style type="text/css">
	.st0{fill:#4D4D4D;}
	.st1{fill-rule:evenodd;clip-rule:evenodd;fill:#4C4C4C;}
	.st2{fill:#4C4C4C;}
	.st3{fill:#383330;}
	.st4{fill:#1F1A17;}
	.st5{fill:#4D4C4C;}
	.st6{fill:none;stroke:#000000;stroke-width:0.3;stroke-miterlimit:10;}
	.st7{fill:#E61413;}
	.st8{fill:#5F5357;}
	.st9{fill:#115C78;}
	.st10{fill-rule:evenodd;clip-rule:evenodd;fill:#4D4D4D;}
	.st11{fill-rule:evenodd;clip-rule:evenodd;}
	.st12{fill:#FFFFFF;}
	.st13{fill:none;}
	.st14{fill:#231F20;}
	.st15{clip-path:url(#SVGID_2_);}
	.st16{clip-path:url(#SVGID_4_);fill:#FCF118;}
	.st17{clip-path:url(#SVGID_4_);fill:#FCF018;}
	.st18{clip-path:url(#SVGID_4_);fill:#FCEF18;}
	.st19{clip-path:url(#SVGID_4_);fill:#FCEE18;}
	.st20{clip-path:url(#SVGID_4_);fill:#FCED18;}
	.st21{clip-path:url(#SVGID_4_);fill:#FCEC18;}
	.st22{clip-path:url(#SVGID_4_);fill:#FCEB18;}
	.st23{clip-path:url(#SVGID_4_);fill:#FCEA18;}
	.st24{clip-path:url(#SVGID_4_);fill:#FCE918;}
	.st25{clip-path:url(#SVGID_4_);fill:#FCE818;}
	.st26{clip-path:url(#SVGID_4_);fill:#FCE718;}
	.st27{clip-path:url(#SVGID_4_);fill:#FCE617;}
	.st28{clip-path:url(#SVGID_4_);fill:#FCE517;}
	.st29{clip-path:url(#SVGID_4_);fill:#FCE417;}
	.st30{clip-path:url(#SVGID_4_);fill:#FCE317;}
	.st31{clip-path:url(#SVGID_4_);fill:#FCE217;}
	.st32{clip-path:url(#SVGID_4_);fill:#FCE117;}
	.st33{clip-path:url(#SVGID_4_);fill:#FCE017;}
	.st34{clip-path:url(#SVGID_4_);fill:#FCDF17;}
	.st35{clip-path:url(#SVGID_4_);fill:#FCDE17;}
	.st36{clip-path:url(#SVGID_4_);fill:#FCDD17;}
	.st37{clip-path:url(#SVGID_4_);fill:#FCDC17;}
	.st38{clip-path:url(#SVGID_4_);fill:#FCDB17;}
	.st39{clip-path:url(#SVGID_4_);fill:#FCDA17;}
	.st40{clip-path:url(#SVGID_4_);fill:#FCD917;}
	.st41{clip-path:url(#SVGID_4_);fill:#FCD817;}
	.st42{clip-path:url(#SVGID_4_);fill:#FCD717;}
	.st43{clip-path:url(#SVGID_4_);fill:#FCD617;}
	.st44{clip-path:url(#SVGID_4_);fill:#FCD517;}
	.st45{clip-path:url(#SVGID_4_);fill:#FCD416;}
	.st46{clip-path:url(#SVGID_4_);fill:#FCD316;}
	.st47{clip-path:url(#SVGID_4_);fill:#FBD216;}
	.st48{clip-path:url(#SVGID_4_);fill:#FBD116;}
	.st49{clip-path:url(#SVGID_4_);fill:#FBD016;}
	.st50{clip-path:url(#SVGID_4_);fill:#FBCF16;}
	.st51{clip-path:url(#SVGID_4_);fill:#FBCE16;}
	.st52{clip-path:url(#SVGID_4_);fill:#FBCD16;}
	.st53{clip-path:url(#SVGID_4_);fill:#FBCC16;}
	.st54{clip-path:url(#SVGID_4_);fill:#FBCB16;}
	.st55{clip-path:url(#SVGID_4_);fill:#FBCA16;}
	.st56{clip-path:url(#SVGID_4_);fill:#FBC916;}
	.st57{clip-path:url(#SVGID_4_);fill:#FBC816;}
	.st58{clip-path:url(#SVGID_4_);fill:#FBC716;}
	.st59{clip-path:url(#SVGID_4_);fill:#FBC616;}
	.st60{clip-path:url(#SVGID_4_);fill:#FBC516;}
	.st61{clip-path:url(#SVGID_4_);fill:#FBC416;}
	.st62{clip-path:url(#SVGID_4_);fill:#FBC316;}
	.st63{clip-path:url(#SVGID_4_);fill:#FBC216;}
	.st64{clip-path:url(#SVGID_4_);fill:#FBC115;}
	.st65{clip-path:url(#SVGID_4_);fill:#FBC015;}
	.st66{clip-path:url(#SVGID_4_);fill:#FBBF15;}
	.st67{clip-path:url(#SVGID_4_);fill:#FBBE15;}
	.st68{clip-path:url(#SVGID_4_);fill:#FBBD15;}
	.st69{clip-path:url(#SVGID_4_);fill:#FBBC15;}
	.st70{clip-path:url(#SVGID_4_);fill:#FBBB15;}
	.st71{clip-path:url(#SVGID_4_);fill:#FBBA15;}
	.st72{clip-path:url(#SVGID_4_);fill:#FBB915;}
	.st73{clip-path:url(#SVGID_4_);fill:#FBB815;}
	.st74{clip-path:url(#SVGID_4_);fill:#FBB715;}
	.st75{clip-path:url(#SVGID_4_);fill:#FBB615;}
	.st76{clip-path:url(#SVGID_4_);fill:#FBB515;}
	.st77{clip-path:url(#SVGID_4_);fill:#FBB415;}
	.st78{clip-path:url(#SVGID_4_);fill:#FBB315;}
	.st79{clip-path:url(#SVGID_4_);fill:#FBB215;}
	.st80{clip-path:url(#SVGID_4_);fill:#FBB115;}
	.st81{clip-path:url(#SVGID_4_);fill:#FBB015;}
	.st82{clip-path:url(#SVGID_4_);fill:#FBAF15;}
	.st83{clip-path:url(#SVGID_4_);fill:#FAAE15;}
	.st84{clip-path:url(#SVGID_4_);fill:#FAAD14;}
	.st85{clip-path:url(#SVGID_4_);fill:#FAAC14;}
	.st86{clip-path:url(#SVGID_4_);fill:#FAAB14;}
	.st87{clip-path:url(#SVGID_4_);fill:#FAAA14;}
	.st88{clip-path:url(#SVGID_4_);fill:#FAA914;}
	.st89{clip-path:url(#SVGID_4_);fill:#FAA814;}
	.st90{clip-path:url(#SVGID_4_);fill:#FAA714;}
	.st91{clip-path:url(#SVGID_4_);fill:#FAA614;}
	.st92{clip-path:url(#SVGID_4_);fill:#FAA514;}
	.st93{clip-path:url(#SVGID_4_);fill:#FAA414;}
	.st94{clip-path:url(#SVGID_4_);fill:#FAA314;}
	.st95{clip-path:url(#SVGID_4_);fill:#FAA214;}
	.st96{clip-path:url(#SVGID_4_);fill:#FAA114;}
	.st97{clip-path:url(#SVGID_4_);fill:#FAA014;}
	.st98{clip-path:url(#SVGID_4_);fill:#FA9F14;}
	.st99{clip-path:url(#SVGID_4_);fill:#FA9E14;}
	.st100{clip-path:url(#SVGID_4_);fill:#FA9D14;}
	.st101{clip-path:url(#SVGID_4_);fill:#FA9C14;}
	.st102{clip-path:url(#SVGID_4_);fill:#FA9B14;}
	.st103{clip-path:url(#SVGID_4_);fill:#FA9A13;}
	.st104{clip-path:url(#SVGID_4_);fill:#FA9913;}
	.st105{clip-path:url(#SVGID_4_);fill:#FA9813;}
	.st106{clip-path:url(#SVGID_4_);fill:#FA9713;}
	.st107{clip-path:url(#SVGID_4_);fill:#FA9613;}
	.st108{clip-path:url(#SVGID_4_);fill:#FA9513;}
	.st109{clip-path:url(#SVGID_4_);fill:#FA9413;}
	.st110{clip-path:url(#SVGID_4_);fill:#FA9313;}
	.st111{clip-path:url(#SVGID_4_);fill:#FA9213;}
	.st112{clip-path:url(#SVGID_4_);fill:#FA9113;}
	.st113{clip-path:url(#SVGID_4_);fill:#FA9013;}
	.st114{clip-path:url(#SVGID_4_);fill:#FA8F13;}
	.st115{clip-path:url(#SVGID_4_);fill:#FA8E13;}
	.st116{clip-path:url(#SVGID_4_);fill:#FA8D13;}
	.st117{clip-path:url(#SVGID_4_);fill:#FA8C13;}
	.st118{clip-path:url(#SVGID_4_);fill:#FA8B13;}
	.st119{clip-path:url(#SVGID_4_);fill:#FA8A13;}
	.st120{clip-path:url(#SVGID_4_);fill:#FA8913;}
	.st121{clip-path:url(#SVGID_4_);fill:#FA8812;}
	.st122{clip-path:url(#SVGID_4_);fill:#FA8712;}
	.st123{clip-path:url(#SVGID_4_);fill:#FA8612;}
	.st124{clip-path:url(#SVGID_4_);fill:#F98512;}
	.st125{clip-path:url(#SVGID_4_);fill:#F98412;}
	.st126{clip-path:url(#SVGID_4_);fill:#F98312;}
	.st127{clip-path:url(#SVGID_4_);fill:#F98212;}
	.st128{clip-path:url(#SVGID_4_);fill:#F98112;}
	.st129{clip-path:url(#SVGID_4_);fill:#F98012;}
	.st130{clip-path:url(#SVGID_4_);fill:#F97F12;}
	.st131{clip-path:url(#SVGID_4_);fill:#F97E12;}
	.st132{clip-path:url(#SVGID_4_);fill:#F97D12;}
	.st133{clip-path:url(#SVGID_4_);fill:#F97C12;}
	.st134{clip-path:url(#SVGID_4_);fill:#F97B12;}
	.st135{clip-path:url(#SVGID_4_);fill:#F97A12;}
	.st136{clip-path:url(#SVGID_4_);fill:#F97912;}
	.st137{clip-path:url(#SVGID_4_);fill:#F97812;}
	.st138{clip-path:url(#SVGID_4_);fill:#F97712;}
	.st139{clip-path:url(#SVGID_4_);fill:#F97612;}
	.st140{clip-path:url(#SVGID_4_);fill:#F97511;}
	.st141{clip-path:url(#SVGID_4_);fill:#F97411;}
	.st142{clip-path:url(#SVGID_4_);fill:#F97311;}
	.st143{clip-path:url(#SVGID_4_);fill:#F97211;}
	.st144{clip-path:url(#SVGID_4_);fill:#F97111;}
	.st145{clip-path:url(#SVGID_4_);fill:#F97011;}
	.st146{clip-path:url(#SVGID_4_);fill:#F96F11;}
	.st147{clip-path:url(#SVGID_4_);fill:#F96E11;}
	.st148{clip-path:url(#SVGID_4_);fill:#F96D11;}
	.st149{clip-path:url(#SVGID_4_);fill:#F96C11;}
	.st150{clip-path:url(#SVGID_4_);fill:#F96B11;}
	.st151{clip-path:url(#SVGID_4_);fill:#F96A11;}
	.st152{clip-path:url(#SVGID_4_);fill:#F96911;}
	.st153{clip-path:url(#SVGID_4_);fill:#F96811;}
	.st154{clip-path:url(#SVGID_4_);fill:#F96711;}
	.st155{clip-path:url(#SVGID_4_);fill:#F96611;}
	.st156{clip-path:url(#SVGID_4_);fill:#F96511;}
	.st157{clip-path:url(#SVGID_4_);fill:#F96411;}
	.st158{clip-path:url(#SVGID_4_);fill:#F96311;}
	.st159{clip-path:url(#SVGID_4_);fill:#F96210;}
	.st160{clip-path:url(#SVGID_4_);fill:#F86110;}
	.st161{clip-path:url(#SVGID_4_);fill:#F86010;}
	.st162{clip-path:url(#SVGID_4_);fill:#F85F10;}
	.st163{clip-path:url(#SVGID_4_);fill:#F85E10;}
	.st164{clip-path:url(#SVGID_4_);fill:#F85D10;}
	.st165{clip-path:url(#SVGID_4_);fill:#F85C10;}
	.st166{clip-path:url(#SVGID_4_);fill:#F85B10;}
	.st167{clip-path:url(#SVGID_4_);fill:#F85A10;}
	.st168{clip-path:url(#SVGID_4_);fill:#F85910;}
	.st169{clip-path:url(#SVGID_4_);fill:#F85810;}
	.st170{clip-path:url(#SVGID_4_);fill:#F85710;}
	.st171{clip-path:url(#SVGID_4_);fill:#F85610;}
	.st172{clip-path:url(#SVGID_4_);fill:#F85510;}
	.st173{clip-path:url(#SVGID_4_);fill:#F85410;}
	.st174{clip-path:url(#SVGID_4_);fill:#F85310;}
	.st175{clip-path:url(#SVGID_4_);fill:#F85210;}
	.st176{clip-path:url(#SVGID_4_);fill:#F85110;}
	.st177{clip-path:url(#SVGID_4_);fill:#F85010;}
	.st178{clip-path:url(#SVGID_4_);fill:#F84F0F;}
	.st179{clip-path:url(#SVGID_4_);fill:#F84E0F;}
	.st180{clip-path:url(#SVGID_4_);fill:#F84D0F;}
	.st181{clip-path:url(#SVGID_4_);fill:#F84C0F;}
	.st182{clip-path:url(#SVGID_4_);fill:#F84B0F;}
	.st183{clip-path:url(#SVGID_4_);fill:#F84A0F;}
	.st184{clip-path:url(#SVGID_4_);fill:#F8490F;}
	.st185{clip-path:url(#SVGID_4_);fill:#F8480F;}
	.st186{clip-path:url(#SVGID_4_);fill:#F8470F;}
	.st187{clip-path:url(#SVGID_4_);fill:#F8460F;}
	.st188{clip-path:url(#SVGID_4_);fill:#F8450F;}
	.st189{clip-path:url(#SVGID_4_);fill:#F8440F;}
	.st190{clip-path:url(#SVGID_4_);fill:#F8430F;}
	.st191{clip-path:url(#SVGID_4_);fill:#F8420F;}
	.st192{clip-path:url(#SVGID_4_);fill:#F8410F;}
	.st193{clip-path:url(#SVGID_4_);fill:#F8400F;}
	.st194{clip-path:url(#SVGID_4_);fill:#F83F0F;}
	.st195{clip-path:url(#SVGID_4_);fill:#F83E0E;}
	.st196{clip-path:url(#SVGID_4_);fill:#F83D0E;}
	.st197{clip-path:url(#SVGID_4_);fill:#F83C0E;}
	.st198{clip-path:url(#SVGID_4_);fill:#F83B0E;}
	.st199{clip-path:url(#SVGID_4_);fill:#F73A0E;}
	.st200{clip-path:url(#SVGID_4_);fill:#F7390E;}
	.st201{clip-path:url(#SVGID_4_);fill:#F7380E;}
	.st202{clip-path:url(#SVGID_4_);fill:#F7370E;}
	.st203{clip-path:url(#SVGID_4_);fill:#F7360E;}
	.st204{clip-path:url(#SVGID_4_);fill:#F7340E;}
	.st205{clip-path:url(#SVGID_4_);fill:#F7330E;}
	.st206{clip-path:url(#SVGID_4_);fill:#F7320E;}
	.st207{clip-path:url(#SVGID_4_);fill:#F7310E;}
	.st208{clip-path:url(#SVGID_4_);fill:#F7300E;}
	.st209{clip-path:url(#SVGID_4_);fill:#F72F0E;}
	.st210{clip-path:url(#SVGID_4_);fill:#F72E0E;}
	.st211{clip-path:url(#SVGID_4_);fill:#F72D0E;}
	.st212{clip-path:url(#SVGID_4_);fill:#F72C0E;}
	.st213{clip-path:url(#SVGID_4_);fill:#F72B0E;}
	.st214{clip-path:url(#SVGID_4_);fill:#F72B0D;}
	.st215{clip-path:url(#SVGID_4_);fill:#F72A0D;}
	.st216{clip-path:url(#SVGID_4_);fill:#F7290D;}
	.st217{clip-path:url(#SVGID_4_);fill:#F7280D;}
	.st218{clip-path:url(#SVGID_4_);fill:#F7270D;}
	.st219{clip-path:url(#SVGID_4_);fill:#F7260D;}
</style>
<g>
	<g>
		<path class="st0" d="M23.165,12.802c-0.319,0-0.625,0.06-0.907,0.171s-0.539,0.271-0.76,0.471s-0.407,0.441-0.547,0.711
			s-0.231,0.57-0.265,0.89l-0.004,0.037l-0.004,0.037l-0.004,0.037l-0.004,0.037l-0.037-0.004l-0.037-0.004l-0.037-0.004
			l-0.037-0.004l-0.467-0.052l-0.467-0.052l-0.467-0.052l-0.467-0.052l-0.035-0.004l-0.035-0.004l-0.035-0.004l-0.035-0.004
			l0.001-0.035l0.001-0.035l0.001-0.035l0.001-0.035l0.001-0.018l0.001-0.018l0.001-0.018l0.001-0.018
			c0.001-0.007,0.001-0.014,0.002-0.021s0.001-0.014,0.001-0.021s0.001-0.014,0.001-0.021s0-0.014,0-0.021
			c0-0.306-0.034-0.609-0.099-0.903c-0.065-0.294-0.162-0.579-0.288-0.851s-0.281-0.531-0.464-0.772
			c-0.183-0.241-0.392-0.464-0.627-0.664l-0.026-0.022l-0.026-0.022l-0.026-0.022l-0.026-0.022l0.019-0.028l0.019-0.028l0.019-0.028
			l0.019-0.028l0.708-1.034l0.708-1.034l0.708-1.034l0.708-1.034l0.017-0.025l0.017-0.025l0.017-0.025l0.017-0.025l0.028,0.012
			l0.028,0.012l0.028,0.012l0.028,0.012c0.058,0.024,0.116,0.046,0.175,0.064c0.059,0.018,0.119,0.034,0.18,0.046
			s0.122,0.022,0.183,0.028c0.062,0.006,0.124,0.009,0.186,0.009c0.256,0,0.5-0.052,0.722-0.146s0.422-0.23,0.59-0.398
			s0.304-0.368,0.398-0.59s0.146-0.466,0.146-0.722c0-0.256-0.052-0.5-0.146-0.722s-0.23-0.422-0.398-0.59s-0.368-0.304-0.59-0.398
			s-0.466-0.146-0.722-0.146c-0.256,0-0.5,0.052-0.722,0.146s-0.422,0.23-0.59,0.398s-0.304,0.368-0.398,0.59
			s-0.146,0.466-0.146,0.722c0,0.143,0.017,0.284,0.049,0.421s0.08,0.268,0.143,0.393s0.139,0.243,0.23,0.353
			s0.194,0.21,0.311,0.299l0.028,0.022l0.028,0.022l0.028,0.022l0.028,0.022l-0.02,0.029l-0.02,0.029l-0.02,0.029L19.67,7.04
			l-0.7,1.023l-0.7,1.023l-0.7,1.023l-0.7,1.023l-0.021,0.031l-0.021,0.031l-0.021,0.031l-0.021,0.031l-0.031-0.021l-0.031-0.021
			l-0.031-0.021l-0.031-0.021c-0.173-0.116-0.353-0.218-0.538-0.306c-0.186-0.088-0.377-0.162-0.573-0.222s-0.396-0.105-0.599-0.135
			s-0.41-0.045-0.618-0.045c-0.148,0-0.296,0.008-0.442,0.023s-0.291,0.039-0.435,0.07s-0.286,0.07-0.426,0.117
			s-0.279,0.101-0.416,0.163l-0.03,0.014l-0.03,0.014l-0.03,0.014l-0.03,0.014l-0.017-0.029l-0.017-0.029l-0.017-0.029l-0.017-0.029
			l-0.764-1.28l-0.764-1.28l-0.764-1.28l-0.764-1.28L9.348,5.626L9.328,5.594L9.309,5.562L9.29,5.53L9.322,5.51l0.032-0.019
			l0.032-0.019l0.032-0.019c0.145-0.087,0.275-0.19,0.389-0.306s0.212-0.245,0.291-0.383s0.141-0.287,0.182-0.443
			s0.063-0.318,0.063-0.484c0-0.26-0.053-0.509-0.149-0.735S9.961,2.673,9.79,2.502S9.416,2.193,9.19,2.097S8.716,1.948,8.455,1.948
			S7.947,2.001,7.721,2.097S7.291,2.331,7.12,2.502s-0.31,0.375-0.405,0.601S6.566,3.577,6.566,3.837
			c0,0.26,0.053,0.509,0.149,0.734s0.234,0.429,0.405,0.6s0.375,0.309,0.601,0.405s0.474,0.149,0.735,0.149
			c0.041,0,0.082-0.002,0.124-0.005s0.084-0.009,0.128-0.016s0.088-0.016,0.134-0.027S8.935,5.655,8.985,5.64l0.028-0.008
			L9.04,5.624l0.028-0.008l0.028-0.008l0.015,0.025l0.015,0.025l0.015,0.025l0.015,0.025l0.769,1.288l0.769,1.288l0.769,1.288
			l0.769,1.288l0.019,0.032l0.019,0.032l0.019,0.032l0.019,0.032l-0.032,0.019l-0.032,0.019l-0.032,0.019l-0.032,0.019
			c-0.176,0.106-0.342,0.223-0.499,0.351s-0.304,0.268-0.44,0.417s-0.262,0.308-0.376,0.475s-0.216,0.344-0.305,0.528l-0.016,0.033
			l-0.016,0.033l-0.016,0.033l-0.016,0.033l-0.033-0.015l-0.033-0.015l-0.033-0.015l-0.033-0.015l-0.346-0.16l-0.346-0.16
			l-0.346-0.16l-0.346-0.16l-0.026-0.012l-0.026-0.012l-0.026-0.012l-0.026-0.012l0.004-0.028l0.004-0.028l0.004-0.028l0.004-0.028
			c0.003-0.019,0.006-0.037,0.008-0.055s0.005-0.035,0.007-0.053s0.004-0.035,0.005-0.052s0.002-0.034,0.002-0.052
			c0-0.198-0.04-0.386-0.113-0.558s-0.178-0.326-0.308-0.456s-0.284-0.235-0.456-0.308s-0.36-0.113-0.558-0.113
			c-0.198,0-0.386,0.04-0.558,0.113s-0.326,0.178-0.456,0.308S6.233,11.169,6.16,11.34s-0.113,0.36-0.113,0.558
			c0,0.198,0.04,0.386,0.113,0.558s0.178,0.326,0.308,0.456s0.284,0.235,0.456,0.308s0.36,0.113,0.558,0.113
			c0.134,0,0.264-0.019,0.389-0.054s0.243-0.088,0.353-0.156s0.211-0.151,0.3-0.247s0.166-0.206,0.228-0.326l0.016-0.032
			l0.016-0.032l0.016-0.032l0.016-0.032l0.033,0.015l0.033,0.015l0.033,0.015l0.033,0.015l0.337,0.155l0.337,0.155l0.337,0.155
			l0.337,0.155l0.031,0.014l0.031,0.014l0.031,0.014l0.031,0.014l-0.011,0.032l-0.011,0.032l-0.011,0.032l-0.011,0.032
			c-0.039,0.112-0.073,0.225-0.103,0.339s-0.054,0.228-0.073,0.342s-0.034,0.23-0.044,0.345s-0.015,0.23-0.015,0.346
			c0,0.316,0.035,0.626,0.103,0.928s0.169,0.593,0.301,0.87s0.295,0.54,0.486,0.784s0.411,0.468,0.657,0.669l0.029,0.024
			l0.029,0.024l0.029,0.024l0.029,0.024l-0.024,0.029l-0.024,0.029l-0.024,0.029l-0.024,0.029l-0.704,0.855l-0.704,0.855
			l-0.704,0.855l-0.704,0.855l-0.023,0.028l-0.023,0.028l-0.023,0.028l-0.023,0.028L8.77,21.63l-0.029-0.023l-0.029-0.023
			l-0.029-0.023c-0.105-0.083-0.215-0.157-0.328-0.22c-0.113-0.063-0.231-0.117-0.351-0.16s-0.243-0.075-0.369-0.097
			c-0.125-0.022-0.253-0.033-0.382-0.033c-0.319,0-0.622,0.065-0.899,0.182C6.078,21.35,5.829,21.52,5.62,21.729
			s-0.379,0.458-0.496,0.735c-0.117,0.276-0.182,0.58-0.182,0.899s0.065,0.622,0.182,0.899c0.117,0.276,0.287,0.525,0.496,0.735
			s0.458,0.379,0.735,0.496c0.276,0.117,0.58,0.182,0.899,0.182s0.622-0.065,0.899-0.182c0.276-0.117,0.525-0.287,0.735-0.496
			s0.379-0.458,0.496-0.735c0.117-0.276,0.182-0.58,0.182-0.899c0-0.133-0.012-0.265-0.035-0.394s-0.058-0.256-0.103-0.379
			s-0.102-0.243-0.169-0.359s-0.145-0.228-0.234-0.334l-0.02-0.024l-0.02-0.024l-0.02-0.024L8.944,21.8l0.02-0.024l0.02-0.024
			l0.02-0.024l0.02-0.024l0.716-0.87l0.716-0.87l0.716-0.87l0.716-0.87l0.021-0.026l0.021-0.026l0.021-0.026l0.021-0.026
			l0.028,0.018l0.028,0.018l0.028,0.018l0.028,0.018c0.169,0.108,0.344,0.203,0.525,0.286s0.366,0.151,0.555,0.207
			s0.382,0.098,0.577,0.126s0.393,0.042,0.592,0.042c0.145,0,0.29-0.008,0.434-0.023s0.286-0.037,0.427-0.067
			s0.281-0.067,0.419-0.112s0.275-0.097,0.409-0.156l0.027-0.012l0.027-0.012l0.027-0.012l0.027-0.012l0.018,0.024l0.018,0.024
			l0.018,0.024l0.018,0.024l0.817,1.103l0.817,1.103l0.817,1.103l0.817,1.103l0.019,0.026l0.019,0.026l0.019,0.026l0.019,0.026
			l-0.023,0.023l-0.023,0.023l-0.023,0.023l-0.023,0.023c-0.089,0.088-0.167,0.183-0.235,0.284c-0.068,0.101-0.126,0.208-0.172,0.32
			s-0.082,0.228-0.106,0.347c-0.024,0.119-0.036,0.242-0.036,0.366c0,0.256,0.052,0.5,0.146,0.722s0.23,0.422,0.398,0.59
			s0.368,0.304,0.59,0.398s0.466,0.146,0.722,0.146c0.256,0,0.5-0.052,0.722-0.146s0.422-0.23,0.59-0.398s0.304-0.368,0.398-0.59
			s0.146-0.466,0.146-0.722s-0.052-0.5-0.146-0.722s-0.23-0.422-0.398-0.59s-0.368-0.304-0.59-0.398s-0.466-0.146-0.722-0.146
			c-0.081,0-0.161,0.005-0.24,0.016c-0.079,0.011-0.158,0.027-0.236,0.049s-0.155,0.049-0.231,0.082
			c-0.076,0.033-0.151,0.071-0.224,0.114l-0.029,0.017l-0.029,0.017l-0.029,0.017l-0.029,0.017l-0.02-0.027l-0.02-0.027l-0.02-0.027
			l-0.02-0.027l-0.805-1.086l-0.805-1.086l-0.805-1.086l-0.805-1.086l-0.025-0.033l-0.025-0.033l-0.025-0.033l-0.025-0.033
			l0.036-0.021l0.036-0.021l0.036-0.021l0.036-0.021c0.272-0.161,0.522-0.349,0.746-0.56c0.225-0.211,0.424-0.445,0.596-0.698
			s0.316-0.524,0.428-0.81c0.113-0.286,0.195-0.586,0.243-0.897l0.006-0.035l0.006-0.035l0.006-0.035l0.006-0.035l0.036,0.004
			l0.036,0.004l0.036,0.004l0.036,0.004l0.478,0.053l0.478,0.053l0.478,0.053l0.478,0.053l0.031,0.003l0.031,0.003l0.031,0.003
			l0.031,0.003l0.003,0.031l0.003,0.031l0.003,0.031l0.003,0.031c0.028,0.326,0.116,0.633,0.253,0.908
			c0.136,0.276,0.321,0.521,0.543,0.726s0.481,0.368,0.766,0.481c0.285,0.113,0.596,0.174,0.922,0.174
			c0.346,0,0.675-0.07,0.975-0.197c0.3-0.127,0.57-0.311,0.797-0.538s0.411-0.497,0.538-0.797c0.127-0.3,0.197-0.629,0.197-0.974
			c0-0.346-0.071-0.675-0.198-0.975c-0.127-0.3-0.311-0.57-0.538-0.797s-0.497-0.411-0.797-0.538
			C23.84,12.872,23.51,12.802,23.165,12.802z M19.111,5.371c0-0.228,0.046-0.445,0.13-0.642c0.084-0.197,0.205-0.375,0.354-0.525
			s0.327-0.27,0.525-0.354c0.197-0.084,0.414-0.13,0.642-0.13c0.228,0,0.445,0.046,0.642,0.13s0.375,0.205,0.525,0.354
			s0.271,0.327,0.354,0.525s0.13,0.414,0.13,0.642s-0.046,0.445-0.13,0.642s-0.205,0.375-0.354,0.525s-0.327,0.27-0.525,0.354
			s-0.415,0.13-0.642,0.13c-0.227,0-0.444-0.046-0.642-0.13c-0.197-0.084-0.375-0.205-0.525-0.354s-0.27-0.327-0.354-0.525
			C19.157,5.815,19.111,5.598,19.111,5.371z M8.454,5.519c-0.232,0-0.453-0.047-0.655-0.132S7.417,5.178,7.265,5.026
			S6.989,4.692,6.904,4.491S6.771,4.069,6.771,3.837c0-0.232,0.047-0.453,0.132-0.655S7.112,2.8,7.265,2.647S7.598,2.371,7.8,2.286
			s0.423-0.132,0.655-0.132s0.453,0.047,0.655,0.132s0.383,0.209,0.535,0.361s0.276,0.334,0.361,0.535s0.132,0.423,0.132,0.655
			c0,0.232-0.047,0.453-0.132,0.654S9.796,4.874,9.644,5.026S9.31,5.302,9.109,5.387S8.686,5.519,8.454,5.519z M7.48,13.126
			c-0.169,0-0.331-0.034-0.478-0.097s-0.279-0.152-0.39-0.263s-0.201-0.244-0.263-0.39s-0.097-0.308-0.097-0.478
			c0-0.169,0.034-0.331,0.097-0.478s0.152-0.279,0.263-0.391s0.244-0.201,0.39-0.264s0.308-0.097,0.478-0.097
			s0.331,0.034,0.478,0.097s0.279,0.152,0.39,0.264s0.201,0.244,0.263,0.391s0.097,0.308,0.097,0.478
			c0,0.169-0.034,0.331-0.097,0.478s-0.152,0.279-0.263,0.39s-0.244,0.201-0.39,0.263S7.65,13.126,7.48,13.126z M9.358,23.362
			c0,0.29-0.059,0.567-0.166,0.819S8.931,24.66,8.74,24.85s-0.417,0.345-0.669,0.452s-0.528,0.166-0.819,0.166
			s-0.567-0.059-0.819-0.166s-0.479-0.261-0.669-0.452s-0.345-0.417-0.452-0.669s-0.166-0.528-0.166-0.819s0.059-0.567,0.166-0.819
			s0.261-0.479,0.452-0.669s0.417-0.345,0.669-0.452s0.528-0.166,0.819-0.166s0.567,0.059,0.819,0.166s0.479,0.261,0.669,0.452
			s0.345,0.417,0.452,0.669S9.358,23.072,9.358,23.362z M20.761,22.815c0.228,0,0.445,0.046,0.642,0.13s0.375,0.205,0.525,0.354
			s0.271,0.327,0.354,0.525s0.13,0.414,0.13,0.642c0,0.228-0.046,0.445-0.13,0.642c-0.084,0.197-0.205,0.375-0.354,0.525
			s-0.327,0.27-0.525,0.354c-0.197,0.084-0.415,0.13-0.642,0.13c-0.227,0-0.444-0.046-0.642-0.13
			c-0.197-0.084-0.375-0.205-0.525-0.354s-0.27-0.327-0.354-0.525c-0.084-0.197-0.13-0.414-0.13-0.642
			c0-0.228,0.046-0.445,0.13-0.642c0.084-0.197,0.205-0.375,0.354-0.525s0.327-0.27,0.525-0.354
			C20.317,22.861,20.534,22.815,20.761,22.815z M14.332,18.647c-0.55,0-1.074-0.112-1.551-0.314s-0.907-0.495-1.268-0.856
			s-0.654-0.791-0.856-1.268s-0.314-1.001-0.314-1.551c0-0.55,0.112-1.074,0.314-1.551s0.495-0.907,0.856-1.268
			s0.791-0.654,1.268-0.856s1.001-0.314,1.551-0.314s1.074,0.112,1.551,0.314c0.477,0.202,0.907,0.495,1.268,0.856
			s0.654,0.791,0.856,1.268c0.202,0.477,0.314,1.001,0.314,1.551c0,0.55-0.112,1.074-0.314,1.551
			c-0.202,0.477-0.495,0.907-0.856,1.268s-0.791,0.654-1.268,0.856C15.406,18.535,14.882,18.647,14.332,18.647z M23.165,17.608
			c-0.317,0-0.619-0.064-0.895-0.181c-0.275-0.117-0.523-0.285-0.731-0.493s-0.377-0.456-0.493-0.731
			c-0.117-0.275-0.181-0.577-0.181-0.894c0-0.317,0.064-0.619,0.181-0.895c0.117-0.275,0.285-0.523,0.493-0.731
			s0.456-0.377,0.731-0.493c0.275-0.117,0.577-0.181,0.895-0.181s0.619,0.064,0.895,0.181c0.275,0.117,0.523,0.285,0.731,0.493
			s0.377,0.456,0.493,0.731c0.117,0.275,0.181,0.577,0.181,0.895c0,0.317-0.064,0.619-0.181,0.894
			c-0.117,0.275-0.285,0.523-0.493,0.731s-0.456,0.377-0.731,0.493C23.784,17.543,23.482,17.608,23.165,17.608z"/>
	</g>
</g>
<g>
	<path class="st0" d="M29.855,29.908h-7.432h-7.432H7.559H0.127v-7.432v-7.432V7.611V0.179h7.432h7.432h7.432h7.432v7.432v7.432
		v7.432V29.908z M0.377,29.658h7.307h7.307h7.307h7.307V22.35v-7.307V7.736V0.429h-7.307h-7.307H7.684H0.377v7.307v7.307v7.307
		V29.658z"/>
</g>
</svg>
