<?xml version="1.0" encoding="utf-8"?>
<!-- Generator: Adobe Illustrator 19.1.0, SVG Export Plug-In . SVG Version: 6.00 Build 0)  -->
<svg version="1.1" id="Layer_1" xmlns="http://www.w3.org/2000/svg" xmlns:xlink="http://www.w3.org/1999/xlink" x="0px" y="0px"
	 viewBox="0 0 29.91 30.086" style="enable-background:new 0 0 29.91 30.086;" xml:space="preserve">
<style type="text/css">
	.st0{fill:#4D4D4D;}
	.st1{fill-rule:evenodd;clip-rule:evenodd;fill:#4C4C4C;}
	.st2{fill:#4C4C4C;}
	.st3{fill:#383330;}
	.st4{fill:#1F1A17;}
	.st5{fill:#4D4C4C;}
	.st6{fill:none;stroke:#000000;stroke-width:0.3;stroke-miterlimit:10;}
	.st7{fill:#E61413;}
	.st8{fill:#5F5357;}
	.st9{fill:#115C78;}
	.st10{fill-rule:evenodd;clip-rule:evenodd;fill:#4D4D4D;}
	.st11{fill-rule:evenodd;clip-rule:evenodd;}
	.st12{fill:#FFFFFF;}
	.st13{fill:none;}
	.st14{fill:#231F20;}
	.st15{clip-path:url(#SVGID_2_);}
	.st16{clip-path:url(#SVGID_4_);fill:#FCF118;}
	.st17{clip-path:url(#SVGID_4_);fill:#FCF018;}
	.st18{clip-path:url(#SVGID_4_);fill:#FCEF18;}
	.st19{clip-path:url(#SVGID_4_);fill:#FCEE18;}
	.st20{clip-path:url(#SVGID_4_);fill:#FCED18;}
	.st21{clip-path:url(#SVGID_4_);fill:#FCEC18;}
	.st22{clip-path:url(#SVGID_4_);fill:#FCEB18;}
	.st23{clip-path:url(#SVGID_4_);fill:#FCEA18;}
	.st24{clip-path:url(#SVGID_4_);fill:#FCE918;}
	.st25{clip-path:url(#SVGID_4_);fill:#FCE818;}
	.st26{clip-path:url(#SVGID_4_);fill:#FCE718;}
	.st27{clip-path:url(#SVGID_4_);fill:#FCE617;}
	.st28{clip-path:url(#SVGID_4_);fill:#FCE517;}
	.st29{clip-path:url(#SVGID_4_);fill:#FCE417;}
	.st30{clip-path:url(#SVGID_4_);fill:#FCE317;}
	.st31{clip-path:url(#SVGID_4_);fill:#FCE217;}
	.st32{clip-path:url(#SVGID_4_);fill:#FCE117;}
	.st33{clip-path:url(#SVGID_4_);fill:#FCE017;}
	.st34{clip-path:url(#SVGID_4_);fill:#FCDF17;}
	.st35{clip-path:url(#SVGID_4_);fill:#FCDE17;}
	.st36{clip-path:url(#SVGID_4_);fill:#FCDD17;}
	.st37{clip-path:url(#SVGID_4_);fill:#FCDC17;}
	.st38{clip-path:url(#SVGID_4_);fill:#FCDB17;}
	.st39{clip-path:url(#SVGID_4_);fill:#FCDA17;}
	.st40{clip-path:url(#SVGID_4_);fill:#FCD917;}
	.st41{clip-path:url(#SVGID_4_);fill:#FCD817;}
	.st42{clip-path:url(#SVGID_4_);fill:#FCD717;}
	.st43{clip-path:url(#SVGID_4_);fill:#FCD617;}
	.st44{clip-path:url(#SVGID_4_);fill:#FCD517;}
	.st45{clip-path:url(#SVGID_4_);fill:#FCD416;}
	.st46{clip-path:url(#SVGID_4_);fill:#FCD316;}
	.st47{clip-path:url(#SVGID_4_);fill:#FBD216;}
	.st48{clip-path:url(#SVGID_4_);fill:#FBD116;}
	.st49{clip-path:url(#SVGID_4_);fill:#FBD016;}
	.st50{clip-path:url(#SVGID_4_);fill:#FBCF16;}
	.st51{clip-path:url(#SVGID_4_);fill:#FBCE16;}
	.st52{clip-path:url(#SVGID_4_);fill:#FBCD16;}
	.st53{clip-path:url(#SVGID_4_);fill:#FBCC16;}
	.st54{clip-path:url(#SVGID_4_);fill:#FBCB16;}
	.st55{clip-path:url(#SVGID_4_);fill:#FBCA16;}
	.st56{clip-path:url(#SVGID_4_);fill:#FBC916;}
	.st57{clip-path:url(#SVGID_4_);fill:#FBC816;}
	.st58{clip-path:url(#SVGID_4_);fill:#FBC716;}
	.st59{clip-path:url(#SVGID_4_);fill:#FBC616;}
	.st60{clip-path:url(#SVGID_4_);fill:#FBC516;}
	.st61{clip-path:url(#SVGID_4_);fill:#FBC416;}
	.st62{clip-path:url(#SVGID_4_);fill:#FBC316;}
	.st63{clip-path:url(#SVGID_4_);fill:#FBC216;}
	.st64{clip-path:url(#SVGID_4_);fill:#FBC115;}
	.st65{clip-path:url(#SVGID_4_);fill:#FBC015;}
	.st66{clip-path:url(#SVGID_4_);fill:#FBBF15;}
	.st67{clip-path:url(#SVGID_4_);fill:#FBBE15;}
	.st68{clip-path:url(#SVGID_4_);fill:#FBBD15;}
	.st69{clip-path:url(#SVGID_4_);fill:#FBBC15;}
	.st70{clip-path:url(#SVGID_4_);fill:#FBBB15;}
	.st71{clip-path:url(#SVGID_4_);fill:#FBBA15;}
	.st72{clip-path:url(#SVGID_4_);fill:#FBB915;}
	.st73{clip-path:url(#SVGID_4_);fill:#FBB815;}
	.st74{clip-path:url(#SVGID_4_);fill:#FBB715;}
	.st75{clip-path:url(#SVGID_4_);fill:#FBB615;}
	.st76{clip-path:url(#SVGID_4_);fill:#FBB515;}
	.st77{clip-path:url(#SVGID_4_);fill:#FBB415;}
	.st78{clip-path:url(#SVGID_4_);fill:#FBB315;}
	.st79{clip-path:url(#SVGID_4_);fill:#FBB215;}
	.st80{clip-path:url(#SVGID_4_);fill:#FBB115;}
	.st81{clip-path:url(#SVGID_4_);fill:#FBB015;}
	.st82{clip-path:url(#SVGID_4_);fill:#FBAF15;}
	.st83{clip-path:url(#SVGID_4_);fill:#FAAE15;}
	.st84{clip-path:url(#SVGID_4_);fill:#FAAD14;}
	.st85{clip-path:url(#SVGID_4_);fill:#FAAC14;}
	.st86{clip-path:url(#SVGID_4_);fill:#FAAB14;}
	.st87{clip-path:url(#SVGID_4_);fill:#FAAA14;}
	.st88{clip-path:url(#SVGID_4_);fill:#FAA914;}
	.st89{clip-path:url(#SVGID_4_);fill:#FAA814;}
	.st90{clip-path:url(#SVGID_4_);fill:#FAA714;}
	.st91{clip-path:url(#SVGID_4_);fill:#FAA614;}
	.st92{clip-path:url(#SVGID_4_);fill:#FAA514;}
	.st93{clip-path:url(#SVGID_4_);fill:#FAA414;}
	.st94{clip-path:url(#SVGID_4_);fill:#FAA314;}
	.st95{clip-path:url(#SVGID_4_);fill:#FAA214;}
	.st96{clip-path:url(#SVGID_4_);fill:#FAA114;}
	.st97{clip-path:url(#SVGID_4_);fill:#FAA014;}
	.st98{clip-path:url(#SVGID_4_);fill:#FA9F14;}
	.st99{clip-path:url(#SVGID_4_);fill:#FA9E14;}
	.st100{clip-path:url(#SVGID_4_);fill:#FA9D14;}
	.st101{clip-path:url(#SVGID_4_);fill:#FA9C14;}
	.st102{clip-path:url(#SVGID_4_);fill:#FA9B14;}
	.st103{clip-path:url(#SVGID_4_);fill:#FA9A13;}
	.st104{clip-path:url(#SVGID_4_);fill:#FA9913;}
	.st105{clip-path:url(#SVGID_4_);fill:#FA9813;}
	.st106{clip-path:url(#SVGID_4_);fill:#FA9713;}
	.st107{clip-path:url(#SVGID_4_);fill:#FA9613;}
	.st108{clip-path:url(#SVGID_4_);fill:#FA9513;}
	.st109{clip-path:url(#SVGID_4_);fill:#FA9413;}
	.st110{clip-path:url(#SVGID_4_);fill:#FA9313;}
	.st111{clip-path:url(#SVGID_4_);fill:#FA9213;}
	.st112{clip-path:url(#SVGID_4_);fill:#FA9113;}
	.st113{clip-path:url(#SVGID_4_);fill:#FA9013;}
	.st114{clip-path:url(#SVGID_4_);fill:#FA8F13;}
	.st115{clip-path:url(#SVGID_4_);fill:#FA8E13;}
	.st116{clip-path:url(#SVGID_4_);fill:#FA8D13;}
	.st117{clip-path:url(#SVGID_4_);fill:#FA8C13;}
	.st118{clip-path:url(#SVGID_4_);fill:#FA8B13;}
	.st119{clip-path:url(#SVGID_4_);fill:#FA8A13;}
	.st120{clip-path:url(#SVGID_4_);fill:#FA8913;}
	.st121{clip-path:url(#SVGID_4_);fill:#FA8812;}
	.st122{clip-path:url(#SVGID_4_);fill:#FA8712;}
	.st123{clip-path:url(#SVGID_4_);fill:#FA8612;}
	.st124{clip-path:url(#SVGID_4_);fill:#F98512;}
	.st125{clip-path:url(#SVGID_4_);fill:#F98412;}
	.st126{clip-path:url(#SVGID_4_);fill:#F98312;}
	.st127{clip-path:url(#SVGID_4_);fill:#F98212;}
	.st128{clip-path:url(#SVGID_4_);fill:#F98112;}
	.st129{clip-path:url(#SVGID_4_);fill:#F98012;}
	.st130{clip-path:url(#SVGID_4_);fill:#F97F12;}
	.st131{clip-path:url(#SVGID_4_);fill:#F97E12;}
	.st132{clip-path:url(#SVGID_4_);fill:#F97D12;}
	.st133{clip-path:url(#SVGID_4_);fill:#F97C12;}
	.st134{clip-path:url(#SVGID_4_);fill:#F97B12;}
	.st135{clip-path:url(#SVGID_4_);fill:#F97A12;}
	.st136{clip-path:url(#SVGID_4_);fill:#F97912;}
	.st137{clip-path:url(#SVGID_4_);fill:#F97812;}
	.st138{clip-path:url(#SVGID_4_);fill:#F97712;}
	.st139{clip-path:url(#SVGID_4_);fill:#F97612;}
	.st140{clip-path:url(#SVGID_4_);fill:#F97511;}
	.st141{clip-path:url(#SVGID_4_);fill:#F97411;}
	.st142{clip-path:url(#SVGID_4_);fill:#F97311;}
	.st143{clip-path:url(#SVGID_4_);fill:#F97211;}
	.st144{clip-path:url(#SVGID_4_);fill:#F97111;}
	.st145{clip-path:url(#SVGID_4_);fill:#F97011;}
	.st146{clip-path:url(#SVGID_4_);fill:#F96F11;}
	.st147{clip-path:url(#SVGID_4_);fill:#F96E11;}
	.st148{clip-path:url(#SVGID_4_);fill:#F96D11;}
	.st149{clip-path:url(#SVGID_4_);fill:#F96C11;}
	.st150{clip-path:url(#SVGID_4_);fill:#F96B11;}
	.st151{clip-path:url(#SVGID_4_);fill:#F96A11;}
	.st152{clip-path:url(#SVGID_4_);fill:#F96911;}
	.st153{clip-path:url(#SVGID_4_);fill:#F96811;}
	.st154{clip-path:url(#SVGID_4_);fill:#F96711;}
	.st155{clip-path:url(#SVGID_4_);fill:#F96611;}
	.st156{clip-path:url(#SVGID_4_);fill:#F96511;}
	.st157{clip-path:url(#SVGID_4_);fill:#F96411;}
	.st158{clip-path:url(#SVGID_4_);fill:#F96311;}
	.st159{clip-path:url(#SVGID_4_);fill:#F96210;}
	.st160{clip-path:url(#SVGID_4_);fill:#F86110;}
	.st161{clip-path:url(#SVGID_4_);fill:#F86010;}
	.st162{clip-path:url(#SVGID_4_);fill:#F85F10;}
	.st163{clip-path:url(#SVGID_4_);fill:#F85E10;}
	.st164{clip-path:url(#SVGID_4_);fill:#F85D10;}
	.st165{clip-path:url(#SVGID_4_);fill:#F85C10;}
	.st166{clip-path:url(#SVGID_4_);fill:#F85B10;}
	.st167{clip-path:url(#SVGID_4_);fill:#F85A10;}
	.st168{clip-path:url(#SVGID_4_);fill:#F85910;}
	.st169{clip-path:url(#SVGID_4_);fill:#F85810;}
	.st170{clip-path:url(#SVGID_4_);fill:#F85710;}
	.st171{clip-path:url(#SVGID_4_);fill:#F85610;}
	.st172{clip-path:url(#SVGID_4_);fill:#F85510;}
	.st173{clip-path:url(#SVGID_4_);fill:#F85410;}
	.st174{clip-path:url(#SVGID_4_);fill:#F85310;}
	.st175{clip-path:url(#SVGID_4_);fill:#F85210;}
	.st176{clip-path:url(#SVGID_4_);fill:#F85110;}
	.st177{clip-path:url(#SVGID_4_);fill:#F85010;}
	.st178{clip-path:url(#SVGID_4_);fill:#F84F0F;}
	.st179{clip-path:url(#SVGID_4_);fill:#F84E0F;}
	.st180{clip-path:url(#SVGID_4_);fill:#F84D0F;}
	.st181{clip-path:url(#SVGID_4_);fill:#F84C0F;}
	.st182{clip-path:url(#SVGID_4_);fill:#F84B0F;}
	.st183{clip-path:url(#SVGID_4_);fill:#F84A0F;}
	.st184{clip-path:url(#SVGID_4_);fill:#F8490F;}
	.st185{clip-path:url(#SVGID_4_);fill:#F8480F;}
	.st186{clip-path:url(#SVGID_4_);fill:#F8470F;}
	.st187{clip-path:url(#SVGID_4_);fill:#F8460F;}
	.st188{clip-path:url(#SVGID_4_);fill:#F8450F;}
	.st189{clip-path:url(#SVGID_4_);fill:#F8440F;}
	.st190{clip-path:url(#SVGID_4_);fill:#F8430F;}
	.st191{clip-path:url(#SVGID_4_);fill:#F8420F;}
	.st192{clip-path:url(#SVGID_4_);fill:#F8410F;}
	.st193{clip-path:url(#SVGID_4_);fill:#F8400F;}
	.st194{clip-path:url(#SVGID_4_);fill:#F83F0F;}
	.st195{clip-path:url(#SVGID_4_);fill:#F83E0E;}
	.st196{clip-path:url(#SVGID_4_);fill:#F83D0E;}
	.st197{clip-path:url(#SVGID_4_);fill:#F83C0E;}
	.st198{clip-path:url(#SVGID_4_);fill:#F83B0E;}
	.st199{clip-path:url(#SVGID_4_);fill:#F73A0E;}
	.st200{clip-path:url(#SVGID_4_);fill:#F7390E;}
	.st201{clip-path:url(#SVGID_4_);fill:#F7380E;}
	.st202{clip-path:url(#SVGID_4_);fill:#F7370E;}
	.st203{clip-path:url(#SVGID_4_);fill:#F7360E;}
	.st204{clip-path:url(#SVGID_4_);fill:#F7340E;}
	.st205{clip-path:url(#SVGID_4_);fill:#F7330E;}
	.st206{clip-path:url(#SVGID_4_);fill:#F7320E;}
	.st207{clip-path:url(#SVGID_4_);fill:#F7310E;}
	.st208{clip-path:url(#SVGID_4_);fill:#F7300E;}
	.st209{clip-path:url(#SVGID_4_);fill:#F72F0E;}
	.st210{clip-path:url(#SVGID_4_);fill:#F72E0E;}
	.st211{clip-path:url(#SVGID_4_);fill:#F72D0E;}
	.st212{clip-path:url(#SVGID_4_);fill:#F72C0E;}
	.st213{clip-path:url(#SVGID_4_);fill:#F72B0E;}
	.st214{clip-path:url(#SVGID_4_);fill:#F72B0D;}
	.st215{clip-path:url(#SVGID_4_);fill:#F72A0D;}
	.st216{clip-path:url(#SVGID_4_);fill:#F7290D;}
	.st217{clip-path:url(#SVGID_4_);fill:#F7280D;}
	.st218{clip-path:url(#SVGID_4_);fill:#F7270D;}
	.st219{clip-path:url(#SVGID_4_);fill:#F7260D;}
</style>
<g>
	<g>
		<path class="st0" d="M22.998,4.835h-1.161h-1.161h-1.161h-1.161h-0.05h-0.05h-0.05h-0.05v-0.05v-0.05v-0.05v-0.05V4.474V4.313
			V4.151V3.99c0-0.021-0.002-0.039-0.007-0.054c-0.005-0.015-0.012-0.028-0.023-0.038S18.1,3.88,18.084,3.875
			c-0.015-0.005-0.034-0.007-0.054-0.007h-0.46h-0.46h-0.46h-0.46h-0.05h-0.05h-0.05h-0.05v-0.05v-0.05v-0.05v-0.05v-0.04v-0.04
			v-0.04v-0.04c0-0.23-0.047-0.45-0.132-0.65s-0.207-0.38-0.358-0.531s-0.331-0.274-0.531-0.358s-0.419-0.132-0.65-0.132
			c-0.23,0-0.45,0.047-0.65,0.132s-0.38,0.207-0.531,0.358s-0.274,0.331-0.358,0.531s-0.132,0.419-0.132,0.65v0.04v0.04v0.04v0.04
			v0.05v0.05v0.05v0.05h-0.05h-0.05h-0.05h-0.05h-0.46h-0.46h-0.46h-0.46c-0.021,0-0.039,0.002-0.054,0.007
			s-0.028,0.012-0.038,0.023S10.5,3.92,10.495,3.936s-0.007,0.034-0.007,0.054v0.161v0.161v0.161v0.161v0.05v0.05v0.05v0.05h-0.05
			h-0.05h-0.05h-0.05H9.126H7.965H6.803H5.642c-0.021,0-0.039,0.002-0.054,0.007S5.559,4.855,5.549,4.865S5.532,4.888,5.527,4.903
			S5.519,4.937,5.519,4.958v5.541v5.541v5.541v5.541c0,0.021,0.002,0.039,0.007,0.054s0.012,0.028,0.023,0.038
			s0.023,0.018,0.038,0.023s0.034,0.007,0.054,0.007h4.339h4.339h4.339h4.339c0.021,0,0.039-0.002,0.054-0.007
			s0.028-0.012,0.038-0.023s0.018-0.023,0.023-0.038s0.007-0.034,0.007-0.054V21.58v-5.541v-5.541V4.958
			c0-0.021-0.005-0.039-0.012-0.054s-0.018-0.028-0.031-0.038s-0.026-0.018-0.04-0.023S23.01,4.835,22.998,4.835z M10.733,5.893
			V5.498V5.103V4.708V4.313v-0.05v-0.05v-0.05v-0.05h0.05h0.05h0.05h0.05h0.46h0.46h0.46h0.46c0.021,0,0.039-0.002,0.054-0.007
			s0.028-0.012,0.038-0.023s0.018-0.023,0.023-0.038s0.007-0.034,0.007-0.054V3.869V3.748V3.627V3.506
			c0-0.197,0.04-0.384,0.112-0.554s0.177-0.324,0.306-0.453s0.283-0.234,0.453-0.306S14.123,2.08,14.32,2.08
			c0.197,0,0.384,0.04,0.554,0.112s0.324,0.177,0.453,0.306s0.234,0.283,0.306,0.453s0.112,0.358,0.112,0.554v0.121v0.121v0.121
			V3.99c0,0.021,0.002,0.039,0.007,0.054s0.012,0.028,0.023,0.038s0.023,0.018,0.038,0.023s0.034,0.007,0.054,0.007h0.46h0.46h0.46
			h0.46h0.05h0.05h0.05h0.05v0.05v0.05v0.05v0.05v0.395v0.395v0.395v0.395v0.05v0.05v0.05v0.05h-0.05h-0.05h-0.05h-0.05h-1.694
			H14.32h-1.694h-1.694h-0.05h-0.05h-0.05h-0.05v-0.05v-0.05v-0.05V5.893z M7.926,24.668v-4.847v-4.847v-4.847V5.28V5.23V5.18V5.13
			V5.08h0.05h0.05h0.05h0.05h0.532h0.532h0.532h0.532h0.05h0.05h0.05h0.05v0.05v0.05v0.05v0.05v0.234v0.234v0.234v0.234
			c0.006,0.031,0.016,0.054,0.029,0.071s0.029,0.029,0.045,0.036s0.032,0.011,0.046,0.013s0.027,0.002,0.035,0.002h1.863h1.863
			h1.863h1.863c0.021,0,0.039-0.002,0.054-0.007s0.028-0.012,0.038-0.023s0.018-0.023,0.023-0.038s0.007-0.034,0.007-0.054V5.982
			V5.748V5.514V5.28V5.23V5.18V5.13V5.08h0.05h0.05h0.05h0.05h0.532h0.532h0.532h0.532h0.05h0.05h0.05h0.05v0.05v0.05v0.05v0.05
			v4.847v4.847v4.847v4.847v0.05v0.05v0.05v0.05h-0.05h-0.05h-0.05h-0.05h-3.097H14.32h-3.097H8.126h-0.05h-0.05h-0.05h-0.05v-0.05
			v-0.05v-0.05V24.668z M22.843,5.28v5.379v5.379v5.379v5.379h-0.025h-0.025h-0.025h-0.025v0.025v0.025v0.025v0.025h-0.019h-0.019
			h-0.019h-0.019l0.002,0.025l0.002,0.025l0.002,0.025l0.002,0.025h-4.178H14.32h-4.178H5.965h-0.05h-0.05h-0.05h-0.05v-0.05v-0.05
			v-0.05v-0.05v-5.379v-5.379V10.66V5.28V5.23V5.18V5.13V5.08h0.05h0.05h0.05h0.05h0.379h0.379h0.379h0.379h0.05h0.05h0.05h0.05
			v0.05v0.05v0.05v0.05v4.928v4.928v4.928v4.928c0,0.021,0.002,0.039,0.007,0.054c0.005,0.015,0.012,0.028,0.023,0.038
			s0.023,0.018,0.038,0.023c0.015,0.005,0.034,0.007,0.054,0.007h3.25h3.25h3.25h3.25c0.021,0,0.039-0.002,0.054-0.007
			c0.015-0.005,0.028-0.012,0.038-0.023s0.018-0.023,0.023-0.038c0.005-0.015,0.007-0.034,0.007-0.054v-4.928v-4.928v-4.928V5.28
			V5.23V5.18V5.13V5.08h0.05h0.05h0.05h0.05h0.379h0.379h0.379h0.379h0.05h0.05h0.05h0.05v0.05v0.05v0.05V5.28z"/>
	</g>
</g>
<g>
	<g>
		<path class="st0" d="M14.32,3.222c-0.03,0-0.059,0.006-0.085,0.017s-0.05,0.027-0.07,0.047s-0.036,0.044-0.047,0.07
			S14.1,3.411,14.1,3.442c0,0.03,0.006,0.059,0.017,0.085s0.027,0.05,0.047,0.07s0.043,0.036,0.07,0.047s0.055,0.017,0.085,0.017
			s0.059-0.006,0.085-0.017s0.05-0.027,0.07-0.047s0.036-0.044,0.047-0.07s0.017-0.055,0.017-0.085c0-0.03-0.006-0.059-0.017-0.085
			s-0.027-0.05-0.047-0.07s-0.043-0.036-0.07-0.047S14.35,3.222,14.32,3.222z"/>
	</g>
</g>
<g>
	<g>
		<path class="st0" d="M18.772,19.32h-0.29h-0.29h-0.29h-0.29h-0.049h-0.049h-0.049h-0.049l-0.001-0.049l-0.001-0.049l-0.001-0.049
			l-0.001-0.049c-0.008-0.417-0.092-0.815-0.241-1.18s-0.362-0.698-0.625-0.983s-0.577-0.523-0.929-0.699s-0.74-0.291-1.152-0.329
			l-0.045-0.004l-0.045-0.004l-0.045-0.004l-0.045-0.004v-0.046v-0.046v-0.046v-0.046v-0.387v-0.387v-0.387v-0.387v-0.047v-0.047
			v-0.047v-0.047l0.047-0.002l0.047-0.002l0.047-0.002l0.047-0.002c0.287-0.015,0.556-0.046,0.807-0.093s0.485-0.11,0.7-0.189
			s0.413-0.173,0.591-0.283c0.179-0.11,0.339-0.236,0.48-0.377c0.219-0.225,0.385-0.484,0.51-0.754
			c0.125-0.27,0.211-0.552,0.267-0.824s0.086-0.533,0.098-0.763c0.013-0.229,0.01-0.427,0.003-0.571
			c0-0.024-0.003-0.044-0.008-0.061c-0.005-0.017-0.011-0.031-0.02-0.042s-0.018-0.019-0.029-0.024
			c-0.011-0.005-0.023-0.008-0.036-0.008c-0.014,0-0.029-0.001-0.044-0.002s-0.031-0.001-0.049-0.001s-0.035-0.001-0.055-0.001
			s-0.04,0-0.062,0c-0.135,0-0.32,0.006-0.535,0.028s-0.459,0.06-0.713,0.125s-0.516,0.156-0.767,0.285s-0.49,0.294-0.697,0.507
			c-0.06,0.06-0.117,0.125-0.171,0.194s-0.105,0.142-0.152,0.22s-0.092,0.159-0.132,0.245s-0.078,0.176-0.113,0.27l-0.042,0.115
			l-0.042,0.115l-0.042,0.115l-0.042,0.115l-0.051-0.111l-0.051-0.111l-0.051-0.111l-0.051-0.111
			c-0.037-0.082-0.077-0.167-0.119-0.252s-0.089-0.171-0.14-0.254s-0.106-0.165-0.167-0.243s-0.128-0.151-0.202-0.218
			c-0.2-0.194-0.425-0.347-0.661-0.467s-0.481-0.207-0.722-0.27s-0.477-0.102-0.694-0.125s-0.413-0.03-0.575-0.03
			c-0.031,0-0.061,0-0.088,0.001s-0.052,0.001-0.074,0.002s-0.042,0.001-0.06,0.002s-0.032,0.001-0.044,0.002
			c-0.022,0.007-0.042,0.015-0.061,0.026s-0.036,0.024-0.051,0.039s-0.028,0.031-0.038,0.049s-0.019,0.038-0.024,0.059
			c-0.003,0.107-0.004,0.282,0.01,0.5s0.045,0.478,0.105,0.753s0.15,0.566,0.284,0.845s0.311,0.546,0.547,0.775
			c0.191,0.191,0.409,0.342,0.639,0.46s0.471,0.204,0.708,0.266s0.471,0.1,0.685,0.123s0.41,0.03,0.571,0.03h0.05h0.05h0.05h0.05
			v0.05v0.05v0.05v0.05v0.395v0.395v0.395v0.395v0.046v0.046v0.046v0.046l-0.045,0.004l-0.045,0.004l-0.045,0.004l-0.045,0.004
			c-0.413,0.038-0.804,0.154-1.158,0.333s-0.671,0.419-0.936,0.706s-0.479,0.62-0.626,0.983s-0.228,0.758-0.228,1.166v0.05v0.05
			v0.05v0.05h-0.05h-0.05h-0.05h-0.05h-0.323h-0.323H9.707H9.384c-0.021,0-0.039,0.002-0.054,0.007S9.301,19.34,9.291,19.35
			s-0.018,0.023-0.023,0.038s-0.007,0.034-0.007,0.054c0,0.021,0.002,0.039,0.007,0.054c0.005,0.015,0.012,0.028,0.023,0.038
			s0.023,0.018,0.038,0.023c0.015,0.005,0.034,0.007,0.054,0.007h2.347h2.347h2.347h2.347c0.021,0,0.039-0.002,0.054-0.007
			c0.015-0.005,0.028-0.012,0.038-0.023s0.018-0.023,0.023-0.038c0.005-0.015,0.007-0.034,0.007-0.054
			c0-0.021-0.002-0.039-0.007-0.054s-0.012-0.028-0.023-0.038s-0.023-0.018-0.038-0.023S18.793,19.32,18.772,19.32z M14.281,13.571
			v-0.056v-0.056v-0.056v-0.056c0-0.082,0.004-0.215,0.021-0.379s0.047-0.36,0.101-0.569s0.13-0.43,0.24-0.646
			s0.253-0.426,0.438-0.612c0.196-0.206,0.428-0.363,0.669-0.482s0.492-0.202,0.726-0.259s0.453-0.088,0.629-0.104
			c0.176-0.017,0.31-0.019,0.376-0.019h0.05h0.05h0.05h0.05v0.05v0.05v0.05v0.05c0,0.12-0.005,0.284-0.023,0.475
			s-0.051,0.409-0.105,0.635s-0.132,0.462-0.24,0.687s-0.248,0.442-0.428,0.631c-0.197,0.207-0.429,0.364-0.671,0.484
			s-0.493,0.203-0.727,0.26s-0.453,0.088-0.629,0.105s-0.31,0.019-0.376,0.019h-0.05h-0.05h-0.05h-0.05v-0.05v-0.05v-0.05V13.571z
			 M13.804,13.707c-0.12,0-0.284-0.005-0.475-0.023s-0.409-0.051-0.635-0.105s-0.462-0.132-0.687-0.24s-0.442-0.248-0.631-0.428
			c-0.207-0.197-0.364-0.429-0.484-0.671s-0.203-0.493-0.26-0.727s-0.088-0.453-0.105-0.629s-0.019-0.31-0.019-0.376v-0.05v-0.05
			v-0.05v-0.05h0.05h0.05h0.05h0.05c0.267,0,0.519,0.017,0.757,0.051s0.459,0.085,0.663,0.152s0.392,0.151,0.561,0.251
			s0.32,0.215,0.451,0.346c0.206,0.196,0.363,0.427,0.482,0.669s0.202,0.492,0.259,0.726s0.088,0.453,0.104,0.629
			s0.019,0.31,0.019,0.376v0.05v0.05v0.05v0.05h-0.05h-0.05h-0.05H13.804z M16.965,19.352h-1.411h-1.411h-1.411H11.32h-0.051h-0.051
			h-0.051h-0.051l0.001-0.051l0.001-0.051l0.001-0.051l0.001-0.051c0.009-0.409,0.099-0.8,0.256-1.155
			c0.157-0.355,0.379-0.675,0.651-0.944s0.594-0.487,0.949-0.637c0.355-0.151,0.744-0.234,1.15-0.234
			c0.41,0,0.803,0.083,1.163,0.234c0.359,0.151,0.685,0.368,0.96,0.637s0.5,0.589,0.658,0.944c0.158,0.355,0.25,0.746,0.258,1.155
			l0.001,0.051l0.001,0.051l0.001,0.051l0.001,0.051h-0.051h-0.051h-0.051H16.965z"/>
	</g>
</g>
<g>
	<path class="st0" d="M29.819,29.908h-7.432h-7.432H7.523H0.091v-7.432v-7.432V7.611V0.179h7.432h7.432h7.432h7.432v7.432v7.432
		v7.432V29.908z M0.341,29.658h7.307h7.307h7.307h7.307V22.35v-7.307V7.736V0.429h-7.307h-7.307H7.648H0.341v7.307v7.307v7.307
		V29.658z"/>
</g>
</svg>
