<?xml version="1.0" encoding="utf-8"?>
<!-- Generator: Adobe Illustrator 19.1.0, SVG Export Plug-In . SVG Version: 6.00 Build 0)  -->
<svg version="1.1" id="Layer_1" xmlns="http://www.w3.org/2000/svg" xmlns:xlink="http://www.w3.org/1999/xlink" x="0px" y="0px"
	 viewBox="0 0 29.91 30.086" style="enable-background:new 0 0 29.91 30.086;" xml:space="preserve">
<style type="text/css">
	.st0{fill:#4D4D4D;}
	.st1{fill-rule:evenodd;clip-rule:evenodd;fill:#4C4C4C;}
	.st2{fill:#4C4C4C;}
	.st3{fill:#383330;}
	.st4{fill:#1F1A17;}
	.st5{fill:#4D4C4C;}
	.st6{fill:none;stroke:#000000;stroke-width:0.3;stroke-miterlimit:10;}
	.st7{fill:#E61413;}
	.st8{fill:#5F5357;}
	.st9{fill:#115C78;}
	.st10{fill-rule:evenodd;clip-rule:evenodd;fill:#4D4D4D;}
	.st11{fill-rule:evenodd;clip-rule:evenodd;}
	.st12{fill:#FFFFFF;}
	.st13{fill:none;}
	.st14{fill:#231F20;}
	.st15{clip-path:url(#SVGID_2_);}
	.st16{clip-path:url(#SVGID_4_);fill:#FCF118;}
	.st17{clip-path:url(#SVGID_4_);fill:#FCF018;}
	.st18{clip-path:url(#SVGID_4_);fill:#FCEF18;}
	.st19{clip-path:url(#SVGID_4_);fill:#FCEE18;}
	.st20{clip-path:url(#SVGID_4_);fill:#FCED18;}
	.st21{clip-path:url(#SVGID_4_);fill:#FCEC18;}
	.st22{clip-path:url(#SVGID_4_);fill:#FCEB18;}
	.st23{clip-path:url(#SVGID_4_);fill:#FCEA18;}
	.st24{clip-path:url(#SVGID_4_);fill:#FCE918;}
	.st25{clip-path:url(#SVGID_4_);fill:#FCE818;}
	.st26{clip-path:url(#SVGID_4_);fill:#FCE718;}
	.st27{clip-path:url(#SVGID_4_);fill:#FCE617;}
	.st28{clip-path:url(#SVGID_4_);fill:#FCE517;}
	.st29{clip-path:url(#SVGID_4_);fill:#FCE417;}
	.st30{clip-path:url(#SVGID_4_);fill:#FCE317;}
	.st31{clip-path:url(#SVGID_4_);fill:#FCE217;}
	.st32{clip-path:url(#SVGID_4_);fill:#FCE117;}
	.st33{clip-path:url(#SVGID_4_);fill:#FCE017;}
	.st34{clip-path:url(#SVGID_4_);fill:#FCDF17;}
	.st35{clip-path:url(#SVGID_4_);fill:#FCDE17;}
	.st36{clip-path:url(#SVGID_4_);fill:#FCDD17;}
	.st37{clip-path:url(#SVGID_4_);fill:#FCDC17;}
	.st38{clip-path:url(#SVGID_4_);fill:#FCDB17;}
	.st39{clip-path:url(#SVGID_4_);fill:#FCDA17;}
	.st40{clip-path:url(#SVGID_4_);fill:#FCD917;}
	.st41{clip-path:url(#SVGID_4_);fill:#FCD817;}
	.st42{clip-path:url(#SVGID_4_);fill:#FCD717;}
	.st43{clip-path:url(#SVGID_4_);fill:#FCD617;}
	.st44{clip-path:url(#SVGID_4_);fill:#FCD517;}
	.st45{clip-path:url(#SVGID_4_);fill:#FCD416;}
	.st46{clip-path:url(#SVGID_4_);fill:#FCD316;}
	.st47{clip-path:url(#SVGID_4_);fill:#FBD216;}
	.st48{clip-path:url(#SVGID_4_);fill:#FBD116;}
	.st49{clip-path:url(#SVGID_4_);fill:#FBD016;}
	.st50{clip-path:url(#SVGID_4_);fill:#FBCF16;}
	.st51{clip-path:url(#SVGID_4_);fill:#FBCE16;}
	.st52{clip-path:url(#SVGID_4_);fill:#FBCD16;}
	.st53{clip-path:url(#SVGID_4_);fill:#FBCC16;}
	.st54{clip-path:url(#SVGID_4_);fill:#FBCB16;}
	.st55{clip-path:url(#SVGID_4_);fill:#FBCA16;}
	.st56{clip-path:url(#SVGID_4_);fill:#FBC916;}
	.st57{clip-path:url(#SVGID_4_);fill:#FBC816;}
	.st58{clip-path:url(#SVGID_4_);fill:#FBC716;}
	.st59{clip-path:url(#SVGID_4_);fill:#FBC616;}
	.st60{clip-path:url(#SVGID_4_);fill:#FBC516;}
	.st61{clip-path:url(#SVGID_4_);fill:#FBC416;}
	.st62{clip-path:url(#SVGID_4_);fill:#FBC316;}
	.st63{clip-path:url(#SVGID_4_);fill:#FBC216;}
	.st64{clip-path:url(#SVGID_4_);fill:#FBC115;}
	.st65{clip-path:url(#SVGID_4_);fill:#FBC015;}
	.st66{clip-path:url(#SVGID_4_);fill:#FBBF15;}
	.st67{clip-path:url(#SVGID_4_);fill:#FBBE15;}
	.st68{clip-path:url(#SVGID_4_);fill:#FBBD15;}
	.st69{clip-path:url(#SVGID_4_);fill:#FBBC15;}
	.st70{clip-path:url(#SVGID_4_);fill:#FBBB15;}
	.st71{clip-path:url(#SVGID_4_);fill:#FBBA15;}
	.st72{clip-path:url(#SVGID_4_);fill:#FBB915;}
	.st73{clip-path:url(#SVGID_4_);fill:#FBB815;}
	.st74{clip-path:url(#SVGID_4_);fill:#FBB715;}
	.st75{clip-path:url(#SVGID_4_);fill:#FBB615;}
	.st76{clip-path:url(#SVGID_4_);fill:#FBB515;}
	.st77{clip-path:url(#SVGID_4_);fill:#FBB415;}
	.st78{clip-path:url(#SVGID_4_);fill:#FBB315;}
	.st79{clip-path:url(#SVGID_4_);fill:#FBB215;}
	.st80{clip-path:url(#SVGID_4_);fill:#FBB115;}
	.st81{clip-path:url(#SVGID_4_);fill:#FBB015;}
	.st82{clip-path:url(#SVGID_4_);fill:#FBAF15;}
	.st83{clip-path:url(#SVGID_4_);fill:#FAAE15;}
	.st84{clip-path:url(#SVGID_4_);fill:#FAAD14;}
	.st85{clip-path:url(#SVGID_4_);fill:#FAAC14;}
	.st86{clip-path:url(#SVGID_4_);fill:#FAAB14;}
	.st87{clip-path:url(#SVGID_4_);fill:#FAAA14;}
	.st88{clip-path:url(#SVGID_4_);fill:#FAA914;}
	.st89{clip-path:url(#SVGID_4_);fill:#FAA814;}
	.st90{clip-path:url(#SVGID_4_);fill:#FAA714;}
	.st91{clip-path:url(#SVGID_4_);fill:#FAA614;}
	.st92{clip-path:url(#SVGID_4_);fill:#FAA514;}
	.st93{clip-path:url(#SVGID_4_);fill:#FAA414;}
	.st94{clip-path:url(#SVGID_4_);fill:#FAA314;}
	.st95{clip-path:url(#SVGID_4_);fill:#FAA214;}
	.st96{clip-path:url(#SVGID_4_);fill:#FAA114;}
	.st97{clip-path:url(#SVGID_4_);fill:#FAA014;}
	.st98{clip-path:url(#SVGID_4_);fill:#FA9F14;}
	.st99{clip-path:url(#SVGID_4_);fill:#FA9E14;}
	.st100{clip-path:url(#SVGID_4_);fill:#FA9D14;}
	.st101{clip-path:url(#SVGID_4_);fill:#FA9C14;}
	.st102{clip-path:url(#SVGID_4_);fill:#FA9B14;}
	.st103{clip-path:url(#SVGID_4_);fill:#FA9A13;}
	.st104{clip-path:url(#SVGID_4_);fill:#FA9913;}
	.st105{clip-path:url(#SVGID_4_);fill:#FA9813;}
	.st106{clip-path:url(#SVGID_4_);fill:#FA9713;}
	.st107{clip-path:url(#SVGID_4_);fill:#FA9613;}
	.st108{clip-path:url(#SVGID_4_);fill:#FA9513;}
	.st109{clip-path:url(#SVGID_4_);fill:#FA9413;}
	.st110{clip-path:url(#SVGID_4_);fill:#FA9313;}
	.st111{clip-path:url(#SVGID_4_);fill:#FA9213;}
	.st112{clip-path:url(#SVGID_4_);fill:#FA9113;}
	.st113{clip-path:url(#SVGID_4_);fill:#FA9013;}
	.st114{clip-path:url(#SVGID_4_);fill:#FA8F13;}
	.st115{clip-path:url(#SVGID_4_);fill:#FA8E13;}
	.st116{clip-path:url(#SVGID_4_);fill:#FA8D13;}
	.st117{clip-path:url(#SVGID_4_);fill:#FA8C13;}
	.st118{clip-path:url(#SVGID_4_);fill:#FA8B13;}
	.st119{clip-path:url(#SVGID_4_);fill:#FA8A13;}
	.st120{clip-path:url(#SVGID_4_);fill:#FA8913;}
	.st121{clip-path:url(#SVGID_4_);fill:#FA8812;}
	.st122{clip-path:url(#SVGID_4_);fill:#FA8712;}
	.st123{clip-path:url(#SVGID_4_);fill:#FA8612;}
	.st124{clip-path:url(#SVGID_4_);fill:#F98512;}
	.st125{clip-path:url(#SVGID_4_);fill:#F98412;}
	.st126{clip-path:url(#SVGID_4_);fill:#F98312;}
	.st127{clip-path:url(#SVGID_4_);fill:#F98212;}
	.st128{clip-path:url(#SVGID_4_);fill:#F98112;}
	.st129{clip-path:url(#SVGID_4_);fill:#F98012;}
	.st130{clip-path:url(#SVGID_4_);fill:#F97F12;}
	.st131{clip-path:url(#SVGID_4_);fill:#F97E12;}
	.st132{clip-path:url(#SVGID_4_);fill:#F97D12;}
	.st133{clip-path:url(#SVGID_4_);fill:#F97C12;}
	.st134{clip-path:url(#SVGID_4_);fill:#F97B12;}
	.st135{clip-path:url(#SVGID_4_);fill:#F97A12;}
	.st136{clip-path:url(#SVGID_4_);fill:#F97912;}
	.st137{clip-path:url(#SVGID_4_);fill:#F97812;}
	.st138{clip-path:url(#SVGID_4_);fill:#F97712;}
	.st139{clip-path:url(#SVGID_4_);fill:#F97612;}
	.st140{clip-path:url(#SVGID_4_);fill:#F97511;}
	.st141{clip-path:url(#SVGID_4_);fill:#F97411;}
	.st142{clip-path:url(#SVGID_4_);fill:#F97311;}
	.st143{clip-path:url(#SVGID_4_);fill:#F97211;}
	.st144{clip-path:url(#SVGID_4_);fill:#F97111;}
	.st145{clip-path:url(#SVGID_4_);fill:#F97011;}
	.st146{clip-path:url(#SVGID_4_);fill:#F96F11;}
	.st147{clip-path:url(#SVGID_4_);fill:#F96E11;}
	.st148{clip-path:url(#SVGID_4_);fill:#F96D11;}
	.st149{clip-path:url(#SVGID_4_);fill:#F96C11;}
	.st150{clip-path:url(#SVGID_4_);fill:#F96B11;}
	.st151{clip-path:url(#SVGID_4_);fill:#F96A11;}
	.st152{clip-path:url(#SVGID_4_);fill:#F96911;}
	.st153{clip-path:url(#SVGID_4_);fill:#F96811;}
	.st154{clip-path:url(#SVGID_4_);fill:#F96711;}
	.st155{clip-path:url(#SVGID_4_);fill:#F96611;}
	.st156{clip-path:url(#SVGID_4_);fill:#F96511;}
	.st157{clip-path:url(#SVGID_4_);fill:#F96411;}
	.st158{clip-path:url(#SVGID_4_);fill:#F96311;}
	.st159{clip-path:url(#SVGID_4_);fill:#F96210;}
	.st160{clip-path:url(#SVGID_4_);fill:#F86110;}
	.st161{clip-path:url(#SVGID_4_);fill:#F86010;}
	.st162{clip-path:url(#SVGID_4_);fill:#F85F10;}
	.st163{clip-path:url(#SVGID_4_);fill:#F85E10;}
	.st164{clip-path:url(#SVGID_4_);fill:#F85D10;}
	.st165{clip-path:url(#SVGID_4_);fill:#F85C10;}
	.st166{clip-path:url(#SVGID_4_);fill:#F85B10;}
	.st167{clip-path:url(#SVGID_4_);fill:#F85A10;}
	.st168{clip-path:url(#SVGID_4_);fill:#F85910;}
	.st169{clip-path:url(#SVGID_4_);fill:#F85810;}
	.st170{clip-path:url(#SVGID_4_);fill:#F85710;}
	.st171{clip-path:url(#SVGID_4_);fill:#F85610;}
	.st172{clip-path:url(#SVGID_4_);fill:#F85510;}
	.st173{clip-path:url(#SVGID_4_);fill:#F85410;}
	.st174{clip-path:url(#SVGID_4_);fill:#F85310;}
	.st175{clip-path:url(#SVGID_4_);fill:#F85210;}
	.st176{clip-path:url(#SVGID_4_);fill:#F85110;}
	.st177{clip-path:url(#SVGID_4_);fill:#F85010;}
	.st178{clip-path:url(#SVGID_4_);fill:#F84F0F;}
	.st179{clip-path:url(#SVGID_4_);fill:#F84E0F;}
	.st180{clip-path:url(#SVGID_4_);fill:#F84D0F;}
	.st181{clip-path:url(#SVGID_4_);fill:#F84C0F;}
	.st182{clip-path:url(#SVGID_4_);fill:#F84B0F;}
	.st183{clip-path:url(#SVGID_4_);fill:#F84A0F;}
	.st184{clip-path:url(#SVGID_4_);fill:#F8490F;}
	.st185{clip-path:url(#SVGID_4_);fill:#F8480F;}
	.st186{clip-path:url(#SVGID_4_);fill:#F8470F;}
	.st187{clip-path:url(#SVGID_4_);fill:#F8460F;}
	.st188{clip-path:url(#SVGID_4_);fill:#F8450F;}
	.st189{clip-path:url(#SVGID_4_);fill:#F8440F;}
	.st190{clip-path:url(#SVGID_4_);fill:#F8430F;}
	.st191{clip-path:url(#SVGID_4_);fill:#F8420F;}
	.st192{clip-path:url(#SVGID_4_);fill:#F8410F;}
	.st193{clip-path:url(#SVGID_4_);fill:#F8400F;}
	.st194{clip-path:url(#SVGID_4_);fill:#F83F0F;}
	.st195{clip-path:url(#SVGID_4_);fill:#F83E0E;}
	.st196{clip-path:url(#SVGID_4_);fill:#F83D0E;}
	.st197{clip-path:url(#SVGID_4_);fill:#F83C0E;}
	.st198{clip-path:url(#SVGID_4_);fill:#F83B0E;}
	.st199{clip-path:url(#SVGID_4_);fill:#F73A0E;}
	.st200{clip-path:url(#SVGID_4_);fill:#F7390E;}
	.st201{clip-path:url(#SVGID_4_);fill:#F7380E;}
	.st202{clip-path:url(#SVGID_4_);fill:#F7370E;}
	.st203{clip-path:url(#SVGID_4_);fill:#F7360E;}
	.st204{clip-path:url(#SVGID_4_);fill:#F7340E;}
	.st205{clip-path:url(#SVGID_4_);fill:#F7330E;}
	.st206{clip-path:url(#SVGID_4_);fill:#F7320E;}
	.st207{clip-path:url(#SVGID_4_);fill:#F7310E;}
	.st208{clip-path:url(#SVGID_4_);fill:#F7300E;}
	.st209{clip-path:url(#SVGID_4_);fill:#F72F0E;}
	.st210{clip-path:url(#SVGID_4_);fill:#F72E0E;}
	.st211{clip-path:url(#SVGID_4_);fill:#F72D0E;}
	.st212{clip-path:url(#SVGID_4_);fill:#F72C0E;}
	.st213{clip-path:url(#SVGID_4_);fill:#F72B0E;}
	.st214{clip-path:url(#SVGID_4_);fill:#F72B0D;}
	.st215{clip-path:url(#SVGID_4_);fill:#F72A0D;}
	.st216{clip-path:url(#SVGID_4_);fill:#F7290D;}
	.st217{clip-path:url(#SVGID_4_);fill:#F7280D;}
	.st218{clip-path:url(#SVGID_4_);fill:#F7270D;}
	.st219{clip-path:url(#SVGID_4_);fill:#F7260D;}
</style>
<g>
	<g>
		<path class="st0" d="M13.518,21.039c0.017,0,0.034-0.004,0.049-0.01s0.028-0.015,0.04-0.027s0.02-0.025,0.027-0.04
			s0.01-0.031,0.01-0.049s-0.003-0.034-0.01-0.049c-0.006-0.015-0.015-0.028-0.027-0.04s-0.025-0.02-0.04-0.027
			c-0.015-0.006-0.031-0.01-0.049-0.01c-0.822,0.001-1.607,0.169-2.321,0.472s-1.357,0.741-1.898,1.282s-0.979,1.184-1.282,1.898
			s-0.471,1.498-0.472,2.321c0,0.017,0.004,0.034,0.01,0.048s0.015,0.028,0.027,0.04s0.025,0.02,0.04,0.027s0.031,0.01,0.049,0.01
			c0.017,0,0.034-0.004,0.049-0.01s0.028-0.015,0.04-0.027s0.02-0.025,0.027-0.04s0.01-0.031,0.01-0.049
			c0.001-0.788,0.162-1.54,0.452-2.224c0.29-0.684,0.71-1.301,1.228-1.819s1.135-0.938,1.819-1.228
			C11.978,21.201,12.73,21.04,13.518,21.039z"/>
	</g>
	<g>
		<path class="st0" d="M13.193,25.662c-0.107,0-0.209,0.022-0.301,0.061s-0.176,0.096-0.246,0.166s-0.127,0.154-0.166,0.246
			s-0.061,0.194-0.061,0.301c0,0.107,0.022,0.209,0.061,0.301c0.039,0.093,0.096,0.176,0.166,0.246s0.154,0.127,0.246,0.166
			c0.093,0.039,0.194,0.061,0.301,0.061c0.107,0,0.209-0.022,0.301-0.061c0.093-0.039,0.176-0.096,0.246-0.166
			s0.127-0.154,0.166-0.246c0.039-0.093,0.061-0.194,0.061-0.301c0-0.107-0.022-0.208-0.061-0.301S13.81,25.96,13.74,25.89
			s-0.154-0.127-0.246-0.166S13.3,25.663,13.193,25.662z M13.193,26.962L13.193,26.962L13.193,26.962L13.193,26.962L13.193,26.962
			c-0.073,0-0.142-0.015-0.204-0.041s-0.119-0.065-0.167-0.113s-0.086-0.104-0.113-0.167s-0.041-0.132-0.041-0.204
			s0.015-0.141,0.041-0.204s0.065-0.119,0.113-0.167s0.104-0.086,0.167-0.113s0.132-0.041,0.204-0.041s0.141,0.015,0.204,0.041
			s0.119,0.065,0.167,0.113s0.086,0.104,0.113,0.167s0.041,0.132,0.041,0.204c0,0.072-0.015,0.141-0.042,0.204
			s-0.065,0.119-0.113,0.167s-0.104,0.086-0.167,0.113S13.266,26.962,13.193,26.962z"/>
	</g>
	<g>
		<path class="st0" d="M13.518,23.638c0.017,0,0.034-0.004,0.049-0.01s0.028-0.015,0.04-0.027s0.02-0.025,0.027-0.04
			s0.01-0.031,0.01-0.049s-0.003-0.034-0.01-0.049c-0.006-0.015-0.015-0.028-0.027-0.04s-0.025-0.02-0.04-0.027
			c-0.015-0.006-0.031-0.01-0.049-0.01c-0.465,0.001-0.908,0.096-1.311,0.267s-0.767,0.419-1.072,0.724s-0.553,0.669-0.724,1.072
			s-0.266,0.846-0.267,1.311c0,0.017,0.004,0.034,0.01,0.048s0.015,0.028,0.027,0.04s0.025,0.02,0.04,0.027s0.031,0.01,0.049,0.01
			c0.017,0,0.034-0.004,0.049-0.01s0.028-0.015,0.04-0.027s0.02-0.025,0.027-0.04s0.01-0.031,0.01-0.049
			c0-0.43,0.088-0.84,0.247-1.214c0.159-0.373,0.388-0.71,0.67-0.993s0.619-0.512,0.993-0.671
			C12.677,23.726,13.088,23.638,13.518,23.638z"/>
	</g>
	<g>
		<path class="st0" d="M13.518,18.44c0.017,0,0.034-0.004,0.049-0.01s0.028-0.015,0.04-0.027s0.02-0.025,0.027-0.04
			s0.01-0.031,0.01-0.049s-0.003-0.034-0.01-0.049c-0.006-0.015-0.015-0.028-0.027-0.04s-0.025-0.02-0.04-0.027
			c-0.015-0.006-0.031-0.01-0.049-0.01c-1.18,0.001-2.306,0.243-3.331,0.678c-1.025,0.435-1.948,1.064-2.724,1.84
			s-1.405,1.7-1.84,2.724c-0.435,1.025-0.676,2.15-0.678,3.331c0,0.017,0.004,0.034,0.01,0.048s0.015,0.028,0.027,0.04
			s0.025,0.02,0.04,0.027s0.031,0.01,0.049,0.01c0.017,0,0.034-0.004,0.049-0.01s0.028-0.015,0.04-0.027s0.02-0.025,0.027-0.04
			s0.01-0.031,0.01-0.049c0.001-1.146,0.236-2.239,0.658-3.234s1.033-1.891,1.786-2.645s1.65-1.364,2.645-1.786
			S12.372,18.441,13.518,18.44z"/>
	</g>
	<g>
		<path class="st0" d="M23.224,14.616h-1.501h-1.501h-1.501h-1.501h-0.061H17.1H17.04h-0.061l0.011-0.059l0.011-0.059l0.011-0.059
			l0.011-0.059c0.042-0.216,0.079-0.433,0.111-0.652c0.032-0.218,0.06-0.437,0.083-0.657s0.042-0.44,0.055-0.66
			c0.014-0.22,0.023-0.44,0.027-0.66l0.003-0.128l0.003-0.128l0.003-0.128l0.003-0.128l0.085,0.096l0.085,0.096l0.085,0.096
			l0.085,0.096c0.064,0.073,0.133,0.141,0.206,0.205c0.073,0.064,0.149,0.123,0.229,0.178s0.163,0.104,0.249,0.148
			c0.086,0.044,0.175,0.083,0.266,0.116c0.066,0.024,0.134,0.044,0.202,0.062s0.137,0.033,0.206,0.045s0.139,0.021,0.209,0.027
			s0.141,0.009,0.212,0.009c0.211,0,0.429-0.023,0.654-0.068c0.226-0.045,0.458-0.113,0.698-0.203s0.487-0.203,0.741-0.338
			c0.254-0.135,0.516-0.292,0.784-0.471c0.007-0.005,0.013-0.01,0.019-0.016c0.006-0.006,0.011-0.012,0.015-0.019
			s0.008-0.014,0.011-0.021c0.003-0.008,0.006-0.015,0.007-0.024c0.002-0.008,0.002-0.016,0.002-0.025s-0.001-0.016-0.002-0.024
			s-0.004-0.016-0.007-0.023s-0.007-0.015-0.012-0.022c-0.276-0.31-0.548-0.582-0.818-0.815s-0.536-0.427-0.799-0.583
			s-0.523-0.272-0.779-0.35s-0.508-0.117-0.757-0.117c-0.018,0-0.035,0-0.053,0.001c-0.017,0-0.035,0.001-0.052,0.002
			s-0.035,0.002-0.052,0.003c-0.017,0.001-0.035,0.003-0.052,0.004c-0.131,0.014-0.26,0.038-0.387,0.072
			c-0.127,0.034-0.251,0.079-0.37,0.133s-0.235,0.118-0.345,0.19c-0.11,0.072-0.214,0.154-0.311,0.243l-0.074,0.069l-0.074,0.069
			l-0.074,0.069l-0.074,0.069l-0.009-0.101l-0.009-0.101l-0.009-0.101l-0.009-0.101c-0.025-0.267-0.057-0.533-0.097-0.799
			c-0.039-0.265-0.086-0.53-0.14-0.793c-0.054-0.263-0.114-0.525-0.182-0.784c-0.068-0.26-0.143-0.517-0.224-0.773l-0.009-0.027
			l-0.009-0.027l-0.009-0.027l-0.009-0.027l0.019-0.021l0.019-0.021l0.019-0.021l0.019-0.021c0.121-0.135,0.226-0.281,0.316-0.435
			s0.163-0.318,0.22-0.487s0.096-0.343,0.118-0.521s0.025-0.358,0.01-0.538c-0.03-0.261-0.104-0.518-0.223-0.77
			s-0.282-0.5-0.49-0.742s-0.459-0.48-0.754-0.711s-0.634-0.458-1.017-0.678c-0.005-0.003-0.01-0.005-0.015-0.007
			s-0.01-0.004-0.015-0.005s-0.01-0.002-0.016-0.003S14.756,1.57,14.751,1.57c-0.011,0-0.022,0.002-0.033,0.004
			s-0.021,0.007-0.03,0.012s-0.018,0.012-0.026,0.02s-0.015,0.016-0.02,0.026c-0.167,0.413-0.297,0.802-0.387,1.169
			s-0.143,0.71-0.158,1.03s0.01,0.617,0.072,0.89s0.162,0.522,0.3,0.747c0.098,0.149,0.211,0.287,0.336,0.413
			s0.263,0.238,0.411,0.335s0.305,0.181,0.47,0.247s0.337,0.117,0.514,0.149l0.03,0.005l0.03,0.005l0.03,0.005l0.03,0.005
			l0.009,0.029l0.009,0.029l0.009,0.029l0.009,0.029c0.031,0.096,0.06,0.191,0.089,0.287c0.028,0.096,0.056,0.191,0.082,0.287
			s0.051,0.191,0.075,0.285c0.024,0.095,0.046,0.189,0.068,0.283l0.029,0.128l0.029,0.128l0.029,0.128L16.784,8.4l-0.107-0.076
			l-0.107-0.076l-0.107-0.076l-0.107-0.076c-0.088-0.063-0.18-0.119-0.276-0.169s-0.194-0.093-0.295-0.13s-0.204-0.066-0.309-0.089
			s-0.212-0.038-0.32-0.046c-0.013-0.001-0.026-0.002-0.039-0.002s-0.026-0.001-0.04-0.002s-0.027-0.001-0.04-0.001s-0.027,0-0.04,0
			c-0.252,0-0.507,0.04-0.764,0.121s-0.519,0.201-0.782,0.362c-0.263,0.16-0.529,0.361-0.796,0.601s-0.537,0.519-0.808,0.838
			c-0.005,0.006-0.01,0.013-0.014,0.02s-0.007,0.015-0.01,0.022s-0.004,0.016-0.005,0.024s-0.001,0.016,0,0.025
			c0.001,0.008,0.002,0.016,0.004,0.024s0.005,0.015,0.009,0.023s0.008,0.014,0.013,0.02s0.011,0.012,0.017,0.018
			c0.268,0.171,0.529,0.321,0.782,0.45s0.497,0.236,0.734,0.321s0.465,0.15,0.685,0.193s0.431,0.064,0.634,0.064c0,0,0,0,0,0
			s0,0,0,0s0,0,0,0s0,0,0,0c0.081,0,0.16-0.003,0.238-0.01s0.155-0.017,0.23-0.031s0.149-0.031,0.222-0.051s0.145-0.044,0.216-0.071
			c0.101-0.04,0.199-0.087,0.294-0.14s0.185-0.113,0.271-0.178s0.168-0.137,0.245-0.213c0.077-0.077,0.149-0.159,0.215-0.246
			l0.078-0.103l0.078-0.103l0.078-0.103l0.078-0.103l0.011,0.129l0.011,0.129l0.011,0.129l0.011,0.129
			c0.033,0.377,0.053,0.754,0.059,1.131c0.007,0.377,0,0.754-0.02,1.131s-0.053,0.752-0.099,1.127
			c-0.046,0.374-0.105,0.747-0.177,1.118l-0.008,0.04l-0.008,0.04l-0.008,0.04l-0.008,0.04H16.68h-0.041h-0.041h-0.041h-1.42h-1.42
			h-1.42h-1.42c-0.017,0-0.034,0.004-0.049,0.01s-0.028,0.015-0.04,0.027s-0.02,0.025-0.027,0.04s-0.01,0.031-0.01,0.049v0.579
			v0.579v0.579v0.579c0,0.017,0.004,0.034,0.01,0.049s0.015,0.028,0.027,0.04s0.025,0.02,0.04,0.027s0.031,0.01,0.049,0.01h2.706
			h2.706h2.706h2.706h0.056h0.056h0.056h0.056l-0.006,0.056l-0.006,0.056l-0.006,0.056l-0.006,0.056l-0.271,2.345l-0.271,2.345
			l-0.271,2.345l-0.271,2.345l-0.005,0.044l-0.005,0.044l-0.005,0.044l-0.005,0.044h-0.045h-0.045h-0.045H20.62H19.2h-1.42h-1.42
			h-1.42c-0.017,0-0.034,0.004-0.049,0.01s-0.028,0.015-0.04,0.027s-0.02,0.025-0.027,0.04s-0.01,0.031-0.01,0.049
			c0,0.017,0.004,0.034,0.01,0.049c0.006,0.015,0.015,0.028,0.027,0.04s0.025,0.02,0.04,0.027c0.015,0.006,0.031,0.01,0.049,0.01
			h1.492h1.492h1.492h1.492c0.016,0,0.031-0.003,0.045-0.008c0.014-0.005,0.027-0.013,0.038-0.023s0.02-0.022,0.027-0.035
			c0.007-0.013,0.012-0.028,0.014-0.044l0.281-2.436l0.281-2.436l0.281-2.436l0.281-2.436l0.005-0.044l0.005-0.044l0.005-0.044
			l0.005-0.044h0.045h0.045h0.045h0.045h0.217h0.217h0.217h0.217c0.017,0,0.034-0.004,0.049-0.01
			c0.015-0.006,0.028-0.015,0.04-0.027s0.02-0.025,0.027-0.04c0.006-0.015,0.01-0.031,0.01-0.049v-0.579v-0.579v-0.579v-0.579
			c0-0.017-0.004-0.034-0.01-0.049s-0.015-0.028-0.027-0.04s-0.025-0.02-0.04-0.027S23.242,14.616,23.224,14.616z M17.381,10.504
			c0.096-0.13,0.205-0.25,0.324-0.357s0.249-0.202,0.387-0.284s0.284-0.149,0.435-0.202s0.309-0.09,0.469-0.111l0.001,0l0.001,0
			l0.001,0l0.001,0l0.001,0l0.001,0l0.001,0l0.001,0c0.016-0.001,0.032-0.003,0.048-0.004s0.032-0.002,0.048-0.003
			s0.032-0.001,0.048-0.002s0.032-0.001,0.048-0.001c0.209,0,0.423,0.031,0.64,0.093s0.438,0.155,0.663,0.279
			s0.452,0.278,0.683,0.463s0.465,0.401,0.701,0.647l0.043,0.045l0.043,0.045l0.043,0.045l0.043,0.045l-0.053,0.033l-0.053,0.033
			l-0.053,0.033l-0.053,0.033c-0.224,0.138-0.443,0.258-0.655,0.362c-0.212,0.104-0.418,0.19-0.618,0.259s-0.393,0.121-0.579,0.156
			c-0.186,0.035-0.366,0.052-0.538,0.052c-0.067,0-0.134-0.003-0.199-0.008c-0.065-0.005-0.13-0.013-0.193-0.024
			s-0.126-0.024-0.187-0.04c-0.061-0.016-0.121-0.034-0.18-0.055c-0.152-0.062-0.297-0.139-0.432-0.229s-0.26-0.193-0.374-0.307
			s-0.216-0.239-0.305-0.373s-0.165-0.278-0.225-0.428l-0.01-0.026l-0.01-0.026l-0.01-0.026l-0.01-0.026l0.017-0.022l0.017-0.022
			l0.017-0.022L17.381,10.504z M16.368,6.388l-0.028-0.005l-0.028-0.005l-0.028-0.005l-0.028-0.005
			c-0.16-0.029-0.316-0.074-0.465-0.134s-0.292-0.134-0.427-0.222s-0.26-0.189-0.375-0.302s-0.218-0.237-0.309-0.372
			c-0.117-0.193-0.204-0.405-0.261-0.636S14.339,4.22,14.343,3.95s0.038-0.559,0.102-0.867s0.158-0.634,0.282-0.978l0.021-0.058
			l0.021-0.058L14.79,1.93l0.021-0.058l0.053,0.033l0.053,0.033l0.053,0.033l0.053,0.033c0.31,0.195,0.585,0.394,0.825,0.597
			s0.445,0.409,0.614,0.619s0.303,0.423,0.401,0.639c0.098,0.216,0.16,0.435,0.186,0.657c0.012,0.164,0.007,0.328-0.013,0.488
			s-0.057,0.319-0.109,0.471s-0.118,0.3-0.199,0.439s-0.176,0.271-0.284,0.392l-0.019,0.021l-0.019,0.021l-0.019,0.021L16.368,6.388
			z M16.815,9.026c-0.057,0.152-0.129,0.297-0.214,0.433s-0.184,0.263-0.294,0.379s-0.232,0.221-0.363,0.313
			s-0.272,0.171-0.421,0.235c-0.065,0.025-0.13,0.047-0.197,0.066s-0.135,0.034-0.204,0.047s-0.139,0.022-0.21,0.028
			s-0.144,0.009-0.217,0.009c-0.169,0-0.345-0.016-0.528-0.049s-0.373-0.081-0.569-0.146s-0.399-0.146-0.608-0.243
			s-0.424-0.21-0.645-0.339L12.29,9.726l-0.054-0.031l-0.054-0.031l-0.054-0.031l0.042-0.046l0.042-0.046l0.042-0.046l0.042-0.046
			c0.235-0.256,0.468-0.48,0.699-0.673s0.459-0.353,0.684-0.482s0.448-0.226,0.667-0.29c0.219-0.065,0.435-0.097,0.647-0.097
			c0.012,0,0.024,0,0.035,0s0.023,0,0.035,0.001S15.089,7.91,15.1,7.91s0.023,0.001,0.035,0.002
			c0.164,0.018,0.324,0.052,0.478,0.102c0.154,0.05,0.303,0.114,0.444,0.193s0.273,0.171,0.395,0.276s0.234,0.222,0.334,0.351
			l0.017,0.022l0.017,0.022l0.017,0.022l0.017,0.022l-0.01,0.026l-0.01,0.026L16.825,9L16.815,9.026z M23.099,15.066v0.416v0.416
			v0.416v0.416v0.05v0.05v0.05v0.05h-0.05h-0.05h-0.05h-0.05h-2.924h-2.924h-2.924h-2.924h-0.05h-0.05h-0.05h-0.05v-0.05v-0.05
			v-0.05v-0.05v-0.416v-0.416v-0.416v-0.416v-0.05v-0.05v-0.05v-0.05h0.05h0.05h0.05h0.05h2.924h2.924h2.924h2.924h0.05h0.05h0.05
			h0.05v0.05v0.05v0.05V15.066z"/>
	</g>
</g>
</svg>
