<?xml version="1.0" encoding="utf-8"?>
<!-- Generator: Adobe Illustrator 19.1.0, SVG Export Plug-In . SVG Version: 6.00 Build 0)  -->
<svg version="1.1" id="Layer_1" xmlns="http://www.w3.org/2000/svg" xmlns:xlink="http://www.w3.org/1999/xlink" x="0px" y="0px"
	 viewBox="0 0 29.91 30.086" style="enable-background:new 0 0 29.91 30.086;" xml:space="preserve">
<style type="text/css">
	.st0{fill:#4D4D4D;}
	.st1{fill-rule:evenodd;clip-rule:evenodd;fill:#4C4C4C;}
	.st2{fill:#4C4C4C;}
	.st3{fill:#383330;}
	.st4{fill:#1F1A17;}
	.st5{fill:#4D4C4C;}
	.st6{fill:none;stroke:#000000;stroke-width:0.3;stroke-miterlimit:10;}
	.st7{fill:#E61413;}
	.st8{fill:#5F5357;}
	.st9{fill:#115C78;}
	.st10{fill-rule:evenodd;clip-rule:evenodd;fill:#4D4D4D;}
	.st11{fill-rule:evenodd;clip-rule:evenodd;}
	.st12{fill:#FFFFFF;}
	.st13{fill:none;}
	.st14{fill:#231F20;}
	.st15{clip-path:url(#SVGID_2_);}
	.st16{clip-path:url(#SVGID_4_);fill:#FCF118;}
	.st17{clip-path:url(#SVGID_4_);fill:#FCF018;}
	.st18{clip-path:url(#SVGID_4_);fill:#FCEF18;}
	.st19{clip-path:url(#SVGID_4_);fill:#FCEE18;}
	.st20{clip-path:url(#SVGID_4_);fill:#FCED18;}
	.st21{clip-path:url(#SVGID_4_);fill:#FCEC18;}
	.st22{clip-path:url(#SVGID_4_);fill:#FCEB18;}
	.st23{clip-path:url(#SVGID_4_);fill:#FCEA18;}
	.st24{clip-path:url(#SVGID_4_);fill:#FCE918;}
	.st25{clip-path:url(#SVGID_4_);fill:#FCE818;}
	.st26{clip-path:url(#SVGID_4_);fill:#FCE718;}
	.st27{clip-path:url(#SVGID_4_);fill:#FCE617;}
	.st28{clip-path:url(#SVGID_4_);fill:#FCE517;}
	.st29{clip-path:url(#SVGID_4_);fill:#FCE417;}
	.st30{clip-path:url(#SVGID_4_);fill:#FCE317;}
	.st31{clip-path:url(#SVGID_4_);fill:#FCE217;}
	.st32{clip-path:url(#SVGID_4_);fill:#FCE117;}
	.st33{clip-path:url(#SVGID_4_);fill:#FCE017;}
	.st34{clip-path:url(#SVGID_4_);fill:#FCDF17;}
	.st35{clip-path:url(#SVGID_4_);fill:#FCDE17;}
	.st36{clip-path:url(#SVGID_4_);fill:#FCDD17;}
	.st37{clip-path:url(#SVGID_4_);fill:#FCDC17;}
	.st38{clip-path:url(#SVGID_4_);fill:#FCDB17;}
	.st39{clip-path:url(#SVGID_4_);fill:#FCDA17;}
	.st40{clip-path:url(#SVGID_4_);fill:#FCD917;}
	.st41{clip-path:url(#SVGID_4_);fill:#FCD817;}
	.st42{clip-path:url(#SVGID_4_);fill:#FCD717;}
	.st43{clip-path:url(#SVGID_4_);fill:#FCD617;}
	.st44{clip-path:url(#SVGID_4_);fill:#FCD517;}
	.st45{clip-path:url(#SVGID_4_);fill:#FCD416;}
	.st46{clip-path:url(#SVGID_4_);fill:#FCD316;}
	.st47{clip-path:url(#SVGID_4_);fill:#FBD216;}
	.st48{clip-path:url(#SVGID_4_);fill:#FBD116;}
	.st49{clip-path:url(#SVGID_4_);fill:#FBD016;}
	.st50{clip-path:url(#SVGID_4_);fill:#FBCF16;}
	.st51{clip-path:url(#SVGID_4_);fill:#FBCE16;}
	.st52{clip-path:url(#SVGID_4_);fill:#FBCD16;}
	.st53{clip-path:url(#SVGID_4_);fill:#FBCC16;}
	.st54{clip-path:url(#SVGID_4_);fill:#FBCB16;}
	.st55{clip-path:url(#SVGID_4_);fill:#FBCA16;}
	.st56{clip-path:url(#SVGID_4_);fill:#FBC916;}
	.st57{clip-path:url(#SVGID_4_);fill:#FBC816;}
	.st58{clip-path:url(#SVGID_4_);fill:#FBC716;}
	.st59{clip-path:url(#SVGID_4_);fill:#FBC616;}
	.st60{clip-path:url(#SVGID_4_);fill:#FBC516;}
	.st61{clip-path:url(#SVGID_4_);fill:#FBC416;}
	.st62{clip-path:url(#SVGID_4_);fill:#FBC316;}
	.st63{clip-path:url(#SVGID_4_);fill:#FBC216;}
	.st64{clip-path:url(#SVGID_4_);fill:#FBC115;}
	.st65{clip-path:url(#SVGID_4_);fill:#FBC015;}
	.st66{clip-path:url(#SVGID_4_);fill:#FBBF15;}
	.st67{clip-path:url(#SVGID_4_);fill:#FBBE15;}
	.st68{clip-path:url(#SVGID_4_);fill:#FBBD15;}
	.st69{clip-path:url(#SVGID_4_);fill:#FBBC15;}
	.st70{clip-path:url(#SVGID_4_);fill:#FBBB15;}
	.st71{clip-path:url(#SVGID_4_);fill:#FBBA15;}
	.st72{clip-path:url(#SVGID_4_);fill:#FBB915;}
	.st73{clip-path:url(#SVGID_4_);fill:#FBB815;}
	.st74{clip-path:url(#SVGID_4_);fill:#FBB715;}
	.st75{clip-path:url(#SVGID_4_);fill:#FBB615;}
	.st76{clip-path:url(#SVGID_4_);fill:#FBB515;}
	.st77{clip-path:url(#SVGID_4_);fill:#FBB415;}
	.st78{clip-path:url(#SVGID_4_);fill:#FBB315;}
	.st79{clip-path:url(#SVGID_4_);fill:#FBB215;}
	.st80{clip-path:url(#SVGID_4_);fill:#FBB115;}
	.st81{clip-path:url(#SVGID_4_);fill:#FBB015;}
	.st82{clip-path:url(#SVGID_4_);fill:#FBAF15;}
	.st83{clip-path:url(#SVGID_4_);fill:#FAAE15;}
	.st84{clip-path:url(#SVGID_4_);fill:#FAAD14;}
	.st85{clip-path:url(#SVGID_4_);fill:#FAAC14;}
	.st86{clip-path:url(#SVGID_4_);fill:#FAAB14;}
	.st87{clip-path:url(#SVGID_4_);fill:#FAAA14;}
	.st88{clip-path:url(#SVGID_4_);fill:#FAA914;}
	.st89{clip-path:url(#SVGID_4_);fill:#FAA814;}
	.st90{clip-path:url(#SVGID_4_);fill:#FAA714;}
	.st91{clip-path:url(#SVGID_4_);fill:#FAA614;}
	.st92{clip-path:url(#SVGID_4_);fill:#FAA514;}
	.st93{clip-path:url(#SVGID_4_);fill:#FAA414;}
	.st94{clip-path:url(#SVGID_4_);fill:#FAA314;}
	.st95{clip-path:url(#SVGID_4_);fill:#FAA214;}
	.st96{clip-path:url(#SVGID_4_);fill:#FAA114;}
	.st97{clip-path:url(#SVGID_4_);fill:#FAA014;}
	.st98{clip-path:url(#SVGID_4_);fill:#FA9F14;}
	.st99{clip-path:url(#SVGID_4_);fill:#FA9E14;}
	.st100{clip-path:url(#SVGID_4_);fill:#FA9D14;}
	.st101{clip-path:url(#SVGID_4_);fill:#FA9C14;}
	.st102{clip-path:url(#SVGID_4_);fill:#FA9B14;}
	.st103{clip-path:url(#SVGID_4_);fill:#FA9A13;}
	.st104{clip-path:url(#SVGID_4_);fill:#FA9913;}
	.st105{clip-path:url(#SVGID_4_);fill:#FA9813;}
	.st106{clip-path:url(#SVGID_4_);fill:#FA9713;}
	.st107{clip-path:url(#SVGID_4_);fill:#FA9613;}
	.st108{clip-path:url(#SVGID_4_);fill:#FA9513;}
	.st109{clip-path:url(#SVGID_4_);fill:#FA9413;}
	.st110{clip-path:url(#SVGID_4_);fill:#FA9313;}
	.st111{clip-path:url(#SVGID_4_);fill:#FA9213;}
	.st112{clip-path:url(#SVGID_4_);fill:#FA9113;}
	.st113{clip-path:url(#SVGID_4_);fill:#FA9013;}
	.st114{clip-path:url(#SVGID_4_);fill:#FA8F13;}
	.st115{clip-path:url(#SVGID_4_);fill:#FA8E13;}
	.st116{clip-path:url(#SVGID_4_);fill:#FA8D13;}
	.st117{clip-path:url(#SVGID_4_);fill:#FA8C13;}
	.st118{clip-path:url(#SVGID_4_);fill:#FA8B13;}
	.st119{clip-path:url(#SVGID_4_);fill:#FA8A13;}
	.st120{clip-path:url(#SVGID_4_);fill:#FA8913;}
	.st121{clip-path:url(#SVGID_4_);fill:#FA8812;}
	.st122{clip-path:url(#SVGID_4_);fill:#FA8712;}
	.st123{clip-path:url(#SVGID_4_);fill:#FA8612;}
	.st124{clip-path:url(#SVGID_4_);fill:#F98512;}
	.st125{clip-path:url(#SVGID_4_);fill:#F98412;}
	.st126{clip-path:url(#SVGID_4_);fill:#F98312;}
	.st127{clip-path:url(#SVGID_4_);fill:#F98212;}
	.st128{clip-path:url(#SVGID_4_);fill:#F98112;}
	.st129{clip-path:url(#SVGID_4_);fill:#F98012;}
	.st130{clip-path:url(#SVGID_4_);fill:#F97F12;}
	.st131{clip-path:url(#SVGID_4_);fill:#F97E12;}
	.st132{clip-path:url(#SVGID_4_);fill:#F97D12;}
	.st133{clip-path:url(#SVGID_4_);fill:#F97C12;}
	.st134{clip-path:url(#SVGID_4_);fill:#F97B12;}
	.st135{clip-path:url(#SVGID_4_);fill:#F97A12;}
	.st136{clip-path:url(#SVGID_4_);fill:#F97912;}
	.st137{clip-path:url(#SVGID_4_);fill:#F97812;}
	.st138{clip-path:url(#SVGID_4_);fill:#F97712;}
	.st139{clip-path:url(#SVGID_4_);fill:#F97612;}
	.st140{clip-path:url(#SVGID_4_);fill:#F97511;}
	.st141{clip-path:url(#SVGID_4_);fill:#F97411;}
	.st142{clip-path:url(#SVGID_4_);fill:#F97311;}
	.st143{clip-path:url(#SVGID_4_);fill:#F97211;}
	.st144{clip-path:url(#SVGID_4_);fill:#F97111;}
	.st145{clip-path:url(#SVGID_4_);fill:#F97011;}
	.st146{clip-path:url(#SVGID_4_);fill:#F96F11;}
	.st147{clip-path:url(#SVGID_4_);fill:#F96E11;}
	.st148{clip-path:url(#SVGID_4_);fill:#F96D11;}
	.st149{clip-path:url(#SVGID_4_);fill:#F96C11;}
	.st150{clip-path:url(#SVGID_4_);fill:#F96B11;}
	.st151{clip-path:url(#SVGID_4_);fill:#F96A11;}
	.st152{clip-path:url(#SVGID_4_);fill:#F96911;}
	.st153{clip-path:url(#SVGID_4_);fill:#F96811;}
	.st154{clip-path:url(#SVGID_4_);fill:#F96711;}
	.st155{clip-path:url(#SVGID_4_);fill:#F96611;}
	.st156{clip-path:url(#SVGID_4_);fill:#F96511;}
	.st157{clip-path:url(#SVGID_4_);fill:#F96411;}
	.st158{clip-path:url(#SVGID_4_);fill:#F96311;}
	.st159{clip-path:url(#SVGID_4_);fill:#F96210;}
	.st160{clip-path:url(#SVGID_4_);fill:#F86110;}
	.st161{clip-path:url(#SVGID_4_);fill:#F86010;}
	.st162{clip-path:url(#SVGID_4_);fill:#F85F10;}
	.st163{clip-path:url(#SVGID_4_);fill:#F85E10;}
	.st164{clip-path:url(#SVGID_4_);fill:#F85D10;}
	.st165{clip-path:url(#SVGID_4_);fill:#F85C10;}
	.st166{clip-path:url(#SVGID_4_);fill:#F85B10;}
	.st167{clip-path:url(#SVGID_4_);fill:#F85A10;}
	.st168{clip-path:url(#SVGID_4_);fill:#F85910;}
	.st169{clip-path:url(#SVGID_4_);fill:#F85810;}
	.st170{clip-path:url(#SVGID_4_);fill:#F85710;}
	.st171{clip-path:url(#SVGID_4_);fill:#F85610;}
	.st172{clip-path:url(#SVGID_4_);fill:#F85510;}
	.st173{clip-path:url(#SVGID_4_);fill:#F85410;}
	.st174{clip-path:url(#SVGID_4_);fill:#F85310;}
	.st175{clip-path:url(#SVGID_4_);fill:#F85210;}
	.st176{clip-path:url(#SVGID_4_);fill:#F85110;}
	.st177{clip-path:url(#SVGID_4_);fill:#F85010;}
	.st178{clip-path:url(#SVGID_4_);fill:#F84F0F;}
	.st179{clip-path:url(#SVGID_4_);fill:#F84E0F;}
	.st180{clip-path:url(#SVGID_4_);fill:#F84D0F;}
	.st181{clip-path:url(#SVGID_4_);fill:#F84C0F;}
	.st182{clip-path:url(#SVGID_4_);fill:#F84B0F;}
	.st183{clip-path:url(#SVGID_4_);fill:#F84A0F;}
	.st184{clip-path:url(#SVGID_4_);fill:#F8490F;}
	.st185{clip-path:url(#SVGID_4_);fill:#F8480F;}
	.st186{clip-path:url(#SVGID_4_);fill:#F8470F;}
	.st187{clip-path:url(#SVGID_4_);fill:#F8460F;}
	.st188{clip-path:url(#SVGID_4_);fill:#F8450F;}
	.st189{clip-path:url(#SVGID_4_);fill:#F8440F;}
	.st190{clip-path:url(#SVGID_4_);fill:#F8430F;}
	.st191{clip-path:url(#SVGID_4_);fill:#F8420F;}
	.st192{clip-path:url(#SVGID_4_);fill:#F8410F;}
	.st193{clip-path:url(#SVGID_4_);fill:#F8400F;}
	.st194{clip-path:url(#SVGID_4_);fill:#F83F0F;}
	.st195{clip-path:url(#SVGID_4_);fill:#F83E0E;}
	.st196{clip-path:url(#SVGID_4_);fill:#F83D0E;}
	.st197{clip-path:url(#SVGID_4_);fill:#F83C0E;}
	.st198{clip-path:url(#SVGID_4_);fill:#F83B0E;}
	.st199{clip-path:url(#SVGID_4_);fill:#F73A0E;}
	.st200{clip-path:url(#SVGID_4_);fill:#F7390E;}
	.st201{clip-path:url(#SVGID_4_);fill:#F7380E;}
	.st202{clip-path:url(#SVGID_4_);fill:#F7370E;}
	.st203{clip-path:url(#SVGID_4_);fill:#F7360E;}
	.st204{clip-path:url(#SVGID_4_);fill:#F7340E;}
	.st205{clip-path:url(#SVGID_4_);fill:#F7330E;}
	.st206{clip-path:url(#SVGID_4_);fill:#F7320E;}
	.st207{clip-path:url(#SVGID_4_);fill:#F7310E;}
	.st208{clip-path:url(#SVGID_4_);fill:#F7300E;}
	.st209{clip-path:url(#SVGID_4_);fill:#F72F0E;}
	.st210{clip-path:url(#SVGID_4_);fill:#F72E0E;}
	.st211{clip-path:url(#SVGID_4_);fill:#F72D0E;}
	.st212{clip-path:url(#SVGID_4_);fill:#F72C0E;}
	.st213{clip-path:url(#SVGID_4_);fill:#F72B0E;}
	.st214{clip-path:url(#SVGID_4_);fill:#F72B0D;}
	.st215{clip-path:url(#SVGID_4_);fill:#F72A0D;}
	.st216{clip-path:url(#SVGID_4_);fill:#F7290D;}
	.st217{clip-path:url(#SVGID_4_);fill:#F7280D;}
	.st218{clip-path:url(#SVGID_4_);fill:#F7270D;}
	.st219{clip-path:url(#SVGID_4_);fill:#F7260D;}
</style>
<g>
	<g>
		<path class="st0" d="M26.23,14.436c0-0.7-0.063-1.394-0.185-2.075s-0.305-1.348-0.544-1.994S24.965,9.096,24.614,8.5
			s-0.755-1.163-1.211-1.693l-0.142-0.165L23.12,6.476l-0.142-0.165l-0.142-0.165h0.218h0.218h0.218h0.218h0.429h0.429h0.429h0.429
			c0.019,0,0.037-0.004,0.054-0.011s0.031-0.017,0.044-0.03s0.023-0.027,0.03-0.044s0.011-0.035,0.011-0.054
			s-0.004-0.037-0.011-0.054s-0.017-0.031-0.03-0.044s-0.027-0.023-0.044-0.03S25.443,5.87,25.424,5.87h-0.77h-0.77h-0.77h-0.77
			c-0.019,0-0.037,0.004-0.054,0.011s-0.031,0.017-0.044,0.03s-0.023,0.027-0.03,0.044s-0.011,0.035-0.011,0.054v0.731v0.731v0.731
			v0.731c0,0.019,0.004,0.037,0.011,0.054s0.017,0.031,0.03,0.044s0.027,0.023,0.044,0.03s0.035,0.011,0.054,0.011
			s0.037-0.004,0.054-0.011s0.031-0.017,0.044-0.03s0.023-0.027,0.03-0.044s0.011-0.035,0.011-0.054V8.508V8.083V7.659V7.234V6.965
			V6.695V6.426V6.157l0.176,0.204l0.176,0.204l0.176,0.204l0.176,0.204c0.447,0.518,0.844,1.073,1.187,1.655
			s0.634,1.194,0.869,1.826s0.414,1.285,0.534,1.951s0.182,1.346,0.182,2.03c0,0.764-0.075,1.517-0.22,2.251
			c-0.146,0.733-0.362,1.447-0.647,2.133s-0.637,1.344-1.053,1.966c-0.416,0.622-0.897,1.208-1.438,1.749
			c-0.541,0.541-1.127,1.022-1.749,1.438c-0.622,0.416-1.28,0.768-1.966,1.053s-1.4,0.501-2.133,0.647
			c-0.733,0.146-1.487,0.22-2.251,0.22c-0.357,0-0.713-0.016-1.065-0.049c-0.352-0.032-0.702-0.081-1.048-0.145
			s-0.689-0.145-1.027-0.241c-0.339-0.096-0.673-0.209-1.003-0.337c-0.094-0.037-0.188-0.075-0.281-0.114
			c-0.093-0.039-0.186-0.079-0.277-0.121s-0.183-0.084-0.273-0.128c-0.09-0.044-0.179-0.088-0.268-0.134
			c-0.005-0.002-0.01-0.005-0.015-0.006c-0.005-0.002-0.01-0.003-0.015-0.005s-0.011-0.002-0.016-0.003
			C9.204,24.61,9.199,24.61,9.193,24.61c-0.01,0-0.021,0.001-0.033,0.004c-0.011,0.003-0.023,0.007-0.034,0.013
			s-0.022,0.013-0.031,0.023c-0.01,0.01-0.018,0.021-0.026,0.035c-0.006,0.011-0.009,0.022-0.012,0.032
			c-0.002,0.01-0.003,0.02-0.003,0.029s0.001,0.017,0.002,0.025c0.001,0.007,0.003,0.014,0.005,0.019s0.004,0.011,0.007,0.018
			c0.003,0.007,0.007,0.014,0.013,0.021s0.012,0.015,0.02,0.022c0.008,0.007,0.017,0.014,0.028,0.019
			c0.091,0.047,0.182,0.093,0.274,0.137c0.092,0.045,0.186,0.088,0.28,0.131s0.189,0.084,0.284,0.124
			c0.095,0.04,0.191,0.079,0.287,0.116c0.338,0.131,0.68,0.246,1.027,0.345c0.347,0.099,0.698,0.181,1.052,0.247
			s0.712,0.116,1.073,0.149c0.361,0.033,0.725,0.05,1.091,0.05c0.783,0,1.554-0.076,2.305-0.225
			c0.751-0.149,1.482-0.371,2.185-0.662s1.376-0.652,2.013-1.078c0.637-0.426,1.237-0.918,1.791-1.473
			c0.554-0.554,1.047-1.154,1.473-1.791c0.426-0.637,0.787-1.311,1.078-2.013s0.513-1.434,0.662-2.185
			C26.154,15.99,26.23,15.218,26.23,14.436z"/>
	</g>
	<g>
		<path class="st0" d="M6.54,19.558c-0.019,0-0.037,0.004-0.054,0.011s-0.031,0.017-0.044,0.03s-0.023,0.027-0.03,0.044
			s-0.011,0.035-0.011,0.054v0.453v0.453v0.453v0.453v0.276v0.276v0.276v0.276l-0.177-0.211l-0.177-0.211l-0.177-0.211l-0.177-0.211
			c-0.434-0.52-0.818-1.068-1.148-1.64c-0.33-0.572-0.608-1.169-0.831-1.785s-0.392-1.253-0.506-1.905
			c-0.113-0.652-0.171-1.32-0.171-1.999c0-0.764,0.075-1.518,0.22-2.251s0.362-1.447,0.647-2.133S4.543,8.707,4.96,8.085
			s0.897-1.208,1.438-1.749c0.541-0.541,1.127-1.022,1.749-1.438s1.28-0.768,1.966-1.053s1.4-0.501,2.133-0.647
			s1.487-0.22,2.251-0.22c0.385,0,0.766,0.019,1.144,0.056c0.378,0.037,0.753,0.093,1.123,0.168s0.737,0.167,1.098,0.278
			c0.361,0.111,0.718,0.241,1.069,0.389c0.004,0.002,0.008,0.003,0.013,0.005s0.009,0.002,0.013,0.003s0.009,0.002,0.013,0.002
			S18.98,3.88,18.985,3.88c0.011,0,0.022-0.001,0.034-0.004c0.012-0.003,0.024-0.008,0.036-0.014s0.023-0.015,0.033-0.026
			c0.01-0.011,0.019-0.024,0.025-0.04c0.005-0.011,0.008-0.023,0.009-0.033s0.002-0.02,0.001-0.03s-0.002-0.017-0.004-0.025
			s-0.004-0.013-0.006-0.018c-0.002-0.005-0.005-0.011-0.009-0.017s-0.008-0.013-0.014-0.02s-0.013-0.014-0.021-0.02
			s-0.018-0.012-0.03-0.017c-0.359-0.151-0.725-0.284-1.095-0.398s-0.745-0.209-1.125-0.285s-0.763-0.133-1.15-0.172
			c-0.387-0.038-0.778-0.057-1.172-0.057c-0.783,0-1.554,0.076-2.305,0.225S10.71,3.299,10.007,3.59S8.631,4.242,7.994,4.668
			S6.757,5.587,6.203,6.141C5.648,6.696,5.156,7.296,4.73,7.933S3.943,9.243,3.652,9.946s-0.513,1.434-0.662,2.185
			s-0.225,1.522-0.225,2.305c0,0.692,0.062,1.379,0.182,2.053c0.12,0.674,0.299,1.335,0.534,1.976s0.525,1.261,0.869,1.852
			c0.343,0.592,0.74,1.155,1.187,1.682l0.139,0.165l0.139,0.165l0.139,0.165l0.139,0.165H5.877H5.661H5.445H5.229H4.834H4.439H4.044
			H3.649c-0.019,0-0.037,0.004-0.054,0.011s-0.031,0.017-0.044,0.03s-0.023,0.027-0.03,0.044s-0.011,0.035-0.011,0.054
			s0.004,0.037,0.011,0.054s0.017,0.031,0.03,0.044s0.027,0.023,0.044,0.03s0.035,0.011,0.054,0.011h0.723h0.723h0.723H6.54
			c0.019,0,0.037-0.004,0.054-0.011s0.031-0.017,0.044-0.03s0.023-0.027,0.03-0.044s0.011-0.035,0.011-0.054v-0.775v-0.775v-0.775
			v-0.775c0-0.019-0.004-0.037-0.011-0.054s-0.017-0.031-0.03-0.044s-0.027-0.023-0.044-0.03S6.559,19.558,6.54,19.558z"/>
	</g>
	<g>
		<path class="st0" d="M19.927,9.187c-0.033,0.001-0.245,0.01-0.569,0.053s-0.757,0.12-1.234,0.258s-0.995,0.336-1.486,0.62
			s-0.957,0.655-1.326,1.139c-0.043,0.057-0.085,0.115-0.126,0.175s-0.08,0.122-0.118,0.185s-0.074,0.128-0.109,0.194
			s-0.068,0.133-0.1,0.202l-0.091,0.195l-0.091,0.195l-0.091,0.195l-0.091,0.195l-0.091-0.195l-0.091-0.195l-0.091-0.195
			l-0.091-0.195c-0.032-0.069-0.065-0.136-0.1-0.202s-0.071-0.131-0.109-0.194s-0.077-0.125-0.118-0.185s-0.083-0.118-0.126-0.175
			c-0.369-0.484-0.834-0.855-1.326-1.139s-1.01-0.482-1.486-0.62S9.96,9.284,9.637,9.241S9.103,9.189,9.071,9.188h0h0h0h0
			c-0.017,0-0.034,0.003-0.049,0.008S8.992,9.208,8.98,9.218S8.958,9.239,8.949,9.251S8.935,9.279,8.931,9.294
			C8.924,9.325,8.877,9.532,8.834,9.855s-0.083,0.762-0.075,1.257s0.062,1.048,0.207,1.597s0.38,1.095,0.749,1.578
			c0.299,0.391,0.661,0.709,1.049,0.967s0.803,0.456,1.208,0.608s0.801,0.258,1.151,0.332s0.654,0.115,0.877,0.139l0.09,0.009
			l0.09,0.009l0.09,0.009l0.09,0.009v0.09v0.09v0.09v0.09v1.276v1.276v1.276v1.276c0,0.019,0.004,0.037,0.011,0.054
			s0.017,0.031,0.03,0.044s0.027,0.023,0.044,0.03s0.035,0.011,0.054,0.011s0.037-0.004,0.054-0.011s0.031-0.017,0.044-0.03
			s0.023-0.027,0.03-0.044s0.011-0.035,0.011-0.054v-1.276v-1.276v-1.276V16.73v-0.09v-0.09v-0.09v-0.09l0.09-0.009l0.09-0.009
			l0.09-0.009l0.09-0.009c0.223-0.023,0.527-0.065,0.877-0.139c0.35-0.074,0.746-0.18,1.151-0.332s0.82-0.35,1.208-0.608
			s0.75-0.576,1.049-0.967c0.369-0.483,0.605-1.029,0.75-1.578s0.2-1.101,0.207-1.597s-0.032-0.934-0.075-1.257
			s-0.09-0.53-0.097-0.561c-0.004-0.015-0.01-0.03-0.018-0.043s-0.018-0.024-0.03-0.034S19.991,9.2,19.977,9.195
			s-0.029-0.008-0.044-0.008V9.139V9.09V9.041V8.993c0,0-0.001,0-0.001,0s0,0-0.001,0s0,0-0.001,0s-0.001,0-0.001,0l-0.001,0.049
			L19.929,9.09l-0.001,0.049L19.927,9.187z M14.353,14.852l-0.01,0.279l-0.01,0.279l-0.01,0.279l-0.01,0.279l-0.169-0.222
			l-0.169-0.222l-0.169-0.222l-0.169-0.222l-0.457-0.598l-0.457-0.598l-0.457-0.598l-0.457-0.598
			c-0.009-0.012-0.02-0.022-0.03-0.029s-0.021-0.013-0.031-0.016s-0.02-0.006-0.028-0.007s-0.015-0.002-0.021-0.002
			c-0.005,0-0.011,0-0.018,0.001s-0.013,0.002-0.021,0.004s-0.015,0.005-0.022,0.009s-0.015,0.008-0.023,0.014
			c-0.01,0.007-0.018,0.016-0.024,0.024s-0.012,0.017-0.016,0.025s-0.007,0.016-0.009,0.023s-0.003,0.014-0.004,0.019
			c-0.001,0.005-0.001,0.012-0.001,0.019s0.001,0.016,0.002,0.025s0.004,0.018,0.009,0.028s0.01,0.02,0.017,0.03l0.457,0.599
			l0.457,0.599l0.457,0.599l0.457,0.599l0.169,0.221l0.169,0.221l0.169,0.221l0.169,0.221l-0.271-0.063l-0.271-0.063l-0.271-0.063
			l-0.271-0.063c-0.24-0.056-0.502-0.128-0.772-0.222s-0.549-0.208-0.824-0.349s-0.543-0.307-0.794-0.504s-0.484-0.425-0.684-0.688
			c-0.257-0.337-0.446-0.709-0.581-1.092s-0.219-0.779-0.265-1.165s-0.057-0.76-0.047-1.102s0.04-0.651,0.074-0.904l0.013-0.099
			l0.013-0.099l0.013-0.099L9.168,9.46l0.099,0.013l0.099,0.013l0.099,0.013l0.099,0.013c0.253,0.034,0.559,0.086,0.892,0.166
			s0.691,0.189,1.051,0.335s0.719,0.331,1.054,0.562s0.644,0.512,0.901,0.849c0.2,0.262,0.358,0.545,0.482,0.839
			s0.213,0.597,0.277,0.898s0.101,0.601,0.12,0.886S14.361,14.606,14.353,14.852z M19.059,14.12c-0.2,0.262-0.432,0.489-0.682,0.685
			s-0.52,0.363-0.794,0.503s-0.553,0.255-0.824,0.349s-0.532,0.167-0.772,0.223l-0.272,0.064l-0.272,0.064l-0.272,0.064L14.9,16.136
			l0.169-0.222l0.169-0.222l0.169-0.222l0.169-0.222l0.457-0.598l0.457-0.598l0.457-0.598l0.457-0.598
			c0.008-0.01,0.013-0.02,0.017-0.03s0.007-0.019,0.009-0.028s0.002-0.017,0.002-0.025s-0.001-0.014-0.001-0.019
			c-0.001-0.005-0.002-0.012-0.004-0.019s-0.005-0.015-0.009-0.023s-0.009-0.017-0.016-0.025s-0.015-0.016-0.025-0.024
			c-0.008-0.006-0.015-0.01-0.023-0.014c-0.008-0.004-0.015-0.006-0.022-0.008s-0.014-0.003-0.02-0.004
			c-0.006-0.001-0.012-0.001-0.018-0.001c-0.005,0-0.012,0-0.021,0.002c-0.008,0.001-0.018,0.003-0.028,0.007
			s-0.021,0.009-0.031,0.016c-0.01,0.007-0.021,0.017-0.03,0.029l-0.457,0.598l-0.457,0.598l-0.457,0.598l-0.457,0.598l-0.169,0.222
			l-0.169,0.222l-0.169,0.222l-0.169,0.222l-0.01-0.279l-0.01-0.279l-0.01-0.279l-0.01-0.279c-0.009-0.246-0.008-0.518,0.012-0.804
			s0.057-0.585,0.12-0.886s0.153-0.605,0.277-0.898s0.282-0.577,0.482-0.839c0.258-0.337,0.567-0.617,0.901-0.849
			c0.335-0.232,0.695-0.416,1.054-0.563s0.719-0.255,1.051-0.335c0.333-0.08,0.639-0.133,0.892-0.166l0.099-0.013l0.099-0.013
			l0.099-0.013l0.099-0.013l0.013,0.099l0.013,0.099l0.013,0.099l0.013,0.099c0.034,0.253,0.065,0.561,0.075,0.903
			s0,0.716-0.046,1.101s-0.13,0.781-0.266,1.165S19.318,13.781,19.059,14.12z"/>
	</g>
</g>
<g>
	<path class="st0" d="M29.819,29.763h-7.432h-7.432H7.523H0.091v-7.432v-7.432V7.466V0.034h7.432h7.432h7.432h7.432v7.432v7.432
		v7.432V29.763z M0.341,29.513h7.307h7.307h7.307h7.307v-7.307v-7.307V7.591V0.284h-7.307h-7.307H7.648H0.341v7.307v7.307v7.307
		V29.513z"/>
</g>
</svg>
