<?xml version="1.0" encoding="utf-8"?>
<!-- Generator: Adobe Illustrator 19.1.0, SVG Export Plug-In . SVG Version: 6.00 Build 0)  -->
<svg version="1.1" id="Layer_1" xmlns="http://www.w3.org/2000/svg" xmlns:xlink="http://www.w3.org/1999/xlink" x="0px" y="0px"
	 viewBox="0 0 29.91 30.086" style="enable-background:new 0 0 29.91 30.086;" xml:space="preserve">
<style type="text/css">
	.st0{fill:#115C78;}
	.st1{fill-rule:evenodd;clip-rule:evenodd;fill:#4D4D4D;}
	.st2{fill:#4D4D4D;}
	.st3{fill-rule:evenodd;clip-rule:evenodd;}
	.st4{fill:#FFFFFF;}
	.st5{fill:none;}
	.st6{fill:none;stroke:#4D4D4D;stroke-width:0.3;stroke-miterlimit:10;}
	.st7{fill:#4D4D4D;stroke:#4D4D4D;stroke-width:0.1;stroke-miterlimit:10;}
	.st8{fill:#F0047F;}
	.st9{fill:none;stroke:#4D4D4D;stroke-width:0;stroke-linecap:round;stroke-linejoin:round;}
	.st10{fill:none;stroke:#4D4D4D;stroke-width:0.25;stroke-miterlimit:10;}
	.st11{fill:none;stroke:#4D4D4D;stroke-width:0.2;stroke-miterlimit:10;}
	.st12{fill:none;stroke:#4D4D4D;stroke-width:0.8;stroke-miterlimit:10;}
	.st13{fill:#4D4D4D;stroke:#4D4D4D;stroke-width:0.3;stroke-miterlimit:10;}
	.st14{fill:none;stroke:#4D4D4D;stroke-width:0.24;stroke-miterlimit:10;}
</style>
<g>
	<path class="st2" d="M7.773,6.912H7.526H7.279H7.031H6.784H6.701H6.619H6.536H6.454V6.829V6.747V6.664V6.582V6.087V5.592V5.098
		V4.603c0-0.023-0.005-0.044-0.013-0.064S6.42,4.501,6.405,4.486S6.373,4.459,6.353,4.451S6.312,4.438,6.289,4.438
		S6.245,4.443,6.225,4.451s-0.037,0.02-0.052,0.035S6.146,4.519,6.137,4.539S6.124,4.58,6.124,4.603v0.495v0.495v0.495v0.495v0.083
		v0.083v0.083v0.083H6.042H5.959H5.877H5.794H5.547H5.3H5.052H4.805c-0.091,0-0.178,0.018-0.256,0.052s-0.15,0.082-0.21,0.141
		s-0.108,0.131-0.141,0.21S4.145,7.48,4.145,7.571v0.247v0.247v0.247v0.247c0,0.091,0.018,0.178,0.052,0.256s0.082,0.15,0.141,0.21
		s0.131,0.108,0.21,0.141S4.714,9.22,4.805,9.22h0.247H5.3h0.247h0.247h0.083h0.083h0.083h0.083v0.083v0.083v0.083V9.55v4.205v4.205
		v4.205v4.205c0,0.023,0.005,0.044,0.013,0.064s0.02,0.037,0.035,0.052s0.033,0.027,0.052,0.035s0.041,0.013,0.064,0.013
		s0.044-0.005,0.064-0.013s0.037-0.02,0.052-0.035s0.027-0.033,0.035-0.052s0.013-0.041,0.013-0.064v-4.205V17.96v-4.205V9.55V9.468
		V9.385V9.303V9.22h0.083h0.083h0.083h0.083h0.247h0.247h0.247h0.247c0.091,0,0.178-0.018,0.256-0.052s0.15-0.082,0.21-0.141
		s0.108-0.131,0.141-0.21s0.052-0.166,0.052-0.256V8.313V8.066V7.819V7.571c0-0.091-0.018-0.178-0.052-0.256s-0.082-0.15-0.141-0.21
		S8.109,6.997,8.03,6.964S7.864,6.912,7.773,6.912z M7.774,8.891H7.032H6.289H5.547H4.805H4.722H4.64H4.557H4.475V8.808V8.726V8.643
		V8.561V8.313V8.066V7.819V7.571V7.489V7.406V7.324V7.241h0.083H4.64h0.083h0.083h0.742h0.742h0.742h0.742h0.082h0.082h0.082h0.082
		l0,0.082l0,0.082l0,0.082l0,0.082l0,0.247l0,0.247l0,0.247l0,0.247l0,0.083l0,0.083l0,0.083l0,0.083H8.021H7.939H7.856H7.774z"/>
</g>
<g>
	<path class="st2" d="M13.71,21.754h-0.247h-0.247h-0.247h-0.247h-0.083h-0.083h-0.083h-0.083v-0.083v-0.083v-0.083v-0.083v-4.205
		v-4.205V8.808V4.603c0-0.023-0.005-0.044-0.013-0.064s-0.02-0.037-0.035-0.052S12.31,4.459,12.29,4.451s-0.041-0.013-0.064-0.013
		s-0.044,0.005-0.064,0.013s-0.037,0.02-0.052,0.035s-0.027,0.033-0.035,0.052s-0.013,0.041-0.013,0.064v4.205v4.205v4.205v4.205
		v0.083v0.083v0.083v0.083h-0.083h-0.083h-0.083h-0.083h-0.247h-0.247h-0.247h-0.247c-0.091,0-0.178,0.018-0.256,0.052
		c-0.079,0.033-0.15,0.082-0.21,0.141s-0.108,0.131-0.141,0.21c-0.033,0.079-0.052,0.166-0.052,0.256v0.247v0.247v0.247v0.247
		c0,0.091,0.018,0.178,0.052,0.256s0.082,0.15,0.141,0.21s0.131,0.108,0.21,0.141s0.166,0.052,0.256,0.052h0.247h0.247h0.247h0.247
		h0.083h0.083h0.083h0.083v0.082v0.082v0.082v0.082v0.495v0.495v0.495v0.495c0,0.023,0.005,0.044,0.013,0.064
		s0.02,0.037,0.035,0.052s0.033,0.027,0.052,0.035s0.041,0.013,0.064,0.013s0.044-0.005,0.064-0.013s0.037-0.02,0.052-0.035
		s0.027-0.033,0.035-0.052s0.013-0.041,0.013-0.064v-0.495v-0.495v-0.495v-0.495v-0.082v-0.082v-0.082v-0.082h0.083h0.083h0.083
		h0.083h0.247h0.247h0.247h0.247c0.091,0,0.178-0.018,0.256-0.052s0.15-0.082,0.21-0.141s0.108-0.131,0.141-0.21
		s0.052-0.166,0.052-0.256v-0.247v-0.247V22.66v-0.247c0-0.091-0.018-0.178-0.052-0.256c-0.033-0.079-0.082-0.15-0.141-0.21
		s-0.131-0.108-0.21-0.141C13.888,21.772,13.801,21.754,13.71,21.754z M13.71,23.732h-0.742h-0.742h-0.742h-0.742h-0.083h-0.083
		h-0.083h-0.083V23.65v-0.083v-0.083v-0.083v-0.247v-0.247V22.66v-0.247V22.33v-0.083v-0.083v-0.083h0.083h0.083h0.083h0.083h0.742
		h0.742h0.742h0.742h0.082h0.082h0.082h0.082l0,0.082l0,0.082l0,0.082l0,0.082l0,0.247l0,0.247l0,0.247l0,0.247l0,0.083l0,0.083
		l0,0.083l0,0.083h-0.083h-0.083h-0.083H13.71z"/>
</g>
<g>
	<path class="st2" d="M19.647,11.859h-0.247h-0.247h-0.247h-0.247h-0.083h-0.083H18.41h-0.083v-0.083v-0.083v-0.083v-0.083V9.797
		V8.066V6.334V4.603c0-0.023-0.005-0.044-0.013-0.064s-0.02-0.037-0.035-0.052s-0.033-0.027-0.052-0.035s-0.041-0.013-0.064-0.013
		s-0.044,0.005-0.064,0.013s-0.037,0.02-0.052,0.035s-0.027,0.033-0.035,0.052s-0.013,0.041-0.013,0.064v1.732v1.732v1.732v1.732
		v0.083v0.083v0.083v0.083h-0.083h-0.083H17.75h-0.083H17.42h-0.247h-0.247h-0.247c-0.091,0-0.178,0.018-0.256,0.052
		s-0.15,0.082-0.21,0.141s-0.108,0.131-0.141,0.21s-0.052,0.166-0.052,0.256v0.247v0.247v0.247v0.247
		c0,0.091,0.018,0.178,0.052,0.256s0.082,0.15,0.141,0.21s0.131,0.108,0.21,0.141s0.166,0.052,0.256,0.052h0.247h0.247h0.247h0.247
		h0.083h0.083h0.083h0.083v0.083v0.083v0.083v0.083v2.968v2.968v2.968v2.968c0,0.023,0.005,0.044,0.013,0.064
		s0.02,0.037,0.035,0.052s0.033,0.027,0.052,0.035s0.041,0.013,0.064,0.013s0.044-0.005,0.064-0.013s0.037-0.02,0.052-0.035
		s0.027-0.033,0.035-0.052s0.013-0.041,0.013-0.064v-2.968v-2.968v-2.968v-2.968v-0.083v-0.083V14.25v-0.083h0.083h0.083h0.083
		h0.083h0.247h0.247h0.247h0.247c0.091,0,0.178-0.018,0.256-0.052s0.15-0.082,0.21-0.141s0.108-0.131,0.141-0.21
		s0.052-0.166,0.052-0.256v-0.247v-0.247v-0.247v-0.247c0-0.091-0.018-0.178-0.052-0.256s-0.082-0.15-0.141-0.21
		s-0.131-0.108-0.21-0.141S19.738,11.859,19.647,11.859z M19.647,13.838h-0.742h-0.742h-0.742h-0.742h-0.083h-0.083h-0.083h-0.083
		v-0.082v-0.082V13.59v-0.082v-0.247v-0.247v-0.247v-0.247v-0.082v-0.082v-0.082v-0.082h0.083h0.083h0.083h0.083h0.742h0.742h0.742
		h0.742h0.082h0.082h0.082h0.082l0,0.082l0,0.082l0,0.082l0,0.082l0,0.247l0,0.247l0,0.247l0,0.247l0,0.083l0,0.083l0,0.083l0,0.083
		h-0.083h-0.083H19.73H19.647z"/>
</g>
<g>
	<path class="st2" d="M25.583,16.806h-0.247h-0.247h-0.247h-0.247h-0.083h-0.083h-0.083h-0.083v-0.083v-0.083v-0.083v-0.083v-2.968
		V10.54V7.571V4.603c0-0.023-0.005-0.044-0.013-0.064s-0.02-0.037-0.035-0.052s-0.033-0.027-0.052-0.035s-0.041-0.013-0.064-0.013
		s-0.044,0.005-0.064,0.013s-0.037,0.02-0.052,0.035s-0.027,0.033-0.035,0.052s-0.013,0.041-0.013,0.064v2.968v2.968v2.968v2.968
		v0.083v0.083v0.083v0.083h-0.083h-0.083h-0.083h-0.083h-0.247H23.11h-0.247h-0.247c-0.091,0-0.178,0.018-0.256,0.052
		c-0.079,0.033-0.15,0.082-0.21,0.141s-0.108,0.131-0.141,0.21c-0.033,0.079-0.052,0.166-0.052,0.256v0.247v0.247v0.247v0.247
		c0,0.091,0.018,0.178,0.052,0.256s0.082,0.15,0.141,0.21s0.131,0.108,0.21,0.141s0.166,0.052,0.256,0.052h0.247h0.247h0.247h0.247
		h0.083h0.083h0.083h0.083v0.083v0.083v0.083v0.083v1.732v1.732v1.732v1.732c0,0.023,0.005,0.044,0.013,0.064
		s0.02,0.037,0.035,0.052s0.033,0.027,0.052,0.035s0.041,0.013,0.064,0.013s0.044-0.005,0.064-0.013s0.037-0.02,0.052-0.035
		s0.027-0.033,0.035-0.052s0.013-0.041,0.013-0.064v-1.732v-1.732v-1.732v-1.732v-0.083V19.28v-0.083v-0.083h0.083h0.083h0.083
		h0.083h0.247h0.247h0.247h0.247c0.091,0,0.178-0.018,0.256-0.052s0.15-0.082,0.21-0.141s0.108-0.131,0.141-0.21
		s0.052-0.166,0.052-0.256v-0.247V17.96v-0.247v-0.247c0-0.091-0.018-0.178-0.052-0.256c-0.033-0.079-0.082-0.15-0.141-0.21
		s-0.131-0.108-0.21-0.141C25.761,16.825,25.674,16.806,25.583,16.806z M25.584,18.785h-0.742h-0.742h-0.742h-0.742h-0.083H22.45
		h-0.083h-0.083v-0.083V18.62v-0.083v-0.083v-0.247V17.96v-0.247v-0.247v-0.082v-0.082v-0.082v-0.082h0.083h0.083h0.083h0.083h0.742
		h0.742h0.742h0.742h0.082h0.082h0.082h0.082l0,0.082l0,0.082l0,0.082l0,0.082l0,0.247l0,0.247l0,0.247l0,0.247l0,0.083l0,0.083
		l0,0.083l0,0.083h-0.083h-0.083h-0.083H25.584z"/>
</g>
<polygon class="st10" points="0.216,0.188 7.585,0.188 14.955,0.188 22.324,0.188 29.694,0.188 29.694,7.463 29.694,14.739 
	29.694,22.015 29.694,29.291 22.324,29.291 14.955,29.291 7.585,29.291 0.216,29.291 0.216,22.015 0.216,14.739 0.216,7.463 "/>
</svg>
