<?xml version="1.0" encoding="utf-8"?>
<!-- Generator: Adobe Illustrator 19.1.0, SVG Export Plug-In . SVG Version: 6.00 Build 0)  -->
<svg version="1.1" id="Layer_1" xmlns="http://www.w3.org/2000/svg" xmlns:xlink="http://www.w3.org/1999/xlink" x="0px" y="0px"
	 viewBox="0 0 29.91 30.086" style="enable-background:new 0 0 29.91 30.086;" xml:space="preserve">
<style type="text/css">
	.st0{fill:#115C78;}
	.st1{fill-rule:evenodd;clip-rule:evenodd;fill:#4D4D4D;}
	.st2{fill:#4D4D4D;}
	.st3{fill-rule:evenodd;clip-rule:evenodd;}
	.st4{fill:#FFFFFF;}
	.st5{fill:none;}
	.st6{fill:none;stroke:#4D4D4D;stroke-width:0.3;stroke-miterlimit:10;}
	.st7{fill:#4D4D4D;stroke:#4D4D4D;stroke-width:0.1;stroke-miterlimit:10;}
	.st8{fill:#F0047F;}
	.st9{fill:none;stroke:#4D4D4D;stroke-width:0;stroke-linecap:round;stroke-linejoin:round;}
	.st10{fill:none;stroke:#4D4D4D;stroke-width:0.25;stroke-miterlimit:10;}
	.st11{fill:none;stroke:#4D4D4D;stroke-width:0.2;stroke-miterlimit:10;}
	.st12{fill:none;stroke:#4D4D4D;stroke-width:0.8;stroke-miterlimit:10;}
	.st13{fill:#4D4D4D;stroke:#4D4D4D;stroke-width:0.3;stroke-miterlimit:10;}
	.st14{fill:none;stroke:#4D4D4D;stroke-width:0.24;stroke-miterlimit:10;}
</style>
<path class="st10" d="M29.689,0.361v5.686v5.686v5.686v5.686c-0.983-0.533-2.046-1.005-3.175-1.415s-2.324-0.757-3.572-1.037
	c-1.247-0.28-2.547-0.494-3.885-0.638c-1.338-0.144-2.714-0.217-4.115-0.217c-1.401,0-2.777,0.074-4.115,0.217
	s-2.638,0.357-3.885,0.638S4.499,21.28,3.37,21.69s-2.192,0.883-3.176,1.415v-5.686v-5.686V6.047V0.361h7.374h7.374h7.374H29.689z"
	/>
<polygon class="st10" points="0.202,0.228 7.572,0.228 14.941,0.228 22.311,0.228 29.68,0.228 29.68,7.597 29.68,14.967 
	29.68,22.337 29.68,29.707 22.311,29.707 14.941,29.707 7.572,29.707 0.202,29.707 0.202,22.337 0.202,14.967 0.202,7.597 "/>
<polygon class="st2" points="2.57,12.971 2.57,13.931 2.57,14.891 2.57,15.851 2.57,16.811 2.611,16.811 2.651,16.811 2.692,16.811 
	2.733,16.811 2.733,15.851 2.733,14.891 2.733,13.931 2.733,12.971 2.692,12.971 2.651,12.971 2.611,12.971 "/>
<polygon class="st2" points="6.723,16.498 6.723,15.616 6.723,14.734 6.723,13.853 6.723,12.971 6.682,12.971 6.641,12.971 
	6.6,12.971 6.56,12.971 6.56,13.853 6.56,14.734 6.56,15.616 6.56,16.498 6.6,16.498 6.641,16.498 6.682,16.498 "/>
<polygon class="st2" points="6.723,12.978 6.723,12.937 6.723,12.896 6.723,12.855 6.723,12.815 5.684,12.815 4.646,12.815 
	3.608,12.815 2.57,12.815 2.57,12.855 2.57,12.896 2.57,12.937 2.57,12.978 3.608,12.978 4.646,12.978 5.684,12.978 "/>
<polygon class="st2" points="10.579,16.661 10.579,16.62 10.579,16.579 10.579,16.539 10.579,16.498 9.574,16.498 8.569,16.498 
	7.564,16.498 6.56,16.498 6.56,16.539 6.56,16.579 6.56,16.62 6.56,16.661 6.6,16.661 6.641,16.661 6.682,16.661 6.723,16.661 
	7.687,16.661 8.651,16.661 9.615,16.661 "/>
<polygon class="st2" points="10.721,16.661 10.721,15.738 10.721,14.816 10.721,13.894 10.721,12.971 10.68,12.971 10.64,12.971 
	10.599,12.971 10.558,12.971 10.558,13.894 10.558,14.816 10.558,15.738 10.558,16.661 10.599,16.661 10.64,16.661 10.68,16.661 "/>
<polygon class="st2" points="14.711,16.498 14.711,15.616 14.711,14.734 14.711,13.853 14.711,12.971 14.67,12.971 14.629,12.971 
	14.589,12.971 14.548,12.971 14.548,13.853 14.548,14.734 14.548,15.616 14.548,16.498 14.589,16.498 14.629,16.498 14.67,16.498 
	"/>
<polygon class="st2" points="14.711,12.978 14.711,12.937 14.711,12.896 14.711,12.855 14.711,12.815 13.673,12.815 12.634,12.815 
	11.596,12.815 10.558,12.815 10.558,12.855 10.558,12.896 10.558,12.937 10.558,12.978 11.596,12.978 12.634,12.978 13.673,12.978 
	"/>
<polygon class="st2" points="18.509,16.661 18.509,16.62 18.509,16.579 18.509,16.539 18.509,16.498 17.519,16.498 16.529,16.498 
	15.538,16.498 14.548,16.498 14.548,16.539 14.548,16.579 14.548,16.62 14.548,16.661 14.589,16.661 14.629,16.661 14.67,16.661 
	14.711,16.661 15.661,16.661 16.61,16.661 17.56,16.661 "/>
<polygon class="st2" points="18.509,16.661 18.52,16.661 18.53,16.661 18.54,16.661 18.551,16.661 18.581,16.661 18.612,16.661 
	18.642,16.661 18.672,16.661 18.672,15.738 18.672,14.816 18.672,13.894 18.672,12.971 18.631,12.971 18.591,12.971 18.55,12.971 
	18.509,12.971 18.509,13.894 18.509,14.816 18.509,15.738 "/>
<polygon class="st2" points="22.662,16.498 22.662,15.616 22.662,14.734 22.662,13.853 22.662,12.971 22.621,12.971 22.581,12.971 
	22.54,12.971 22.499,12.971 22.499,13.853 22.499,14.734 22.499,15.616 22.499,16.498 22.54,16.498 22.581,16.498 22.621,16.498 "/>
<polygon class="st2" points="22.662,12.978 22.662,12.937 22.662,12.896 22.662,12.855 22.662,12.815 21.624,12.815 20.586,12.815 
	19.547,12.815 18.509,12.815 18.509,12.855 18.509,12.896 18.509,12.937 18.509,12.978 19.547,12.978 20.586,12.978 21.624,12.978 
	"/>
<polygon class="st2" points="22.499,16.498 22.499,16.539 22.499,16.579 22.499,16.62 22.499,16.661 22.54,16.661 22.581,16.661 
	22.621,16.661 22.662,16.661 23.66,16.661 24.657,16.661 25.655,16.661 26.652,16.661 26.652,16.62 26.652,16.579 26.652,16.539 
	26.652,16.498 25.614,16.498 24.576,16.498 23.537,16.498 "/>
</svg>
