<?xml version="1.0" encoding="utf-8"?>
<!-- Generator: Adobe Illustrator 19.1.0, SVG Export Plug-In . SVG Version: 6.00 Build 0)  -->
<svg version="1.1" id="Layer_1" xmlns="http://www.w3.org/2000/svg" xmlns:xlink="http://www.w3.org/1999/xlink" x="0px" y="0px"
	 viewBox="0 0 29.91 30.086" style="enable-background:new 0 0 29.91 30.086;" xml:space="preserve">
<style type="text/css">
	.st0{fill:#115C78;}
	.st1{fill-rule:evenodd;clip-rule:evenodd;fill:#4D4D4D;}
	.st2{fill:#4D4D4D;}
	.st3{fill-rule:evenodd;clip-rule:evenodd;}
	.st4{fill:#FFFFFF;}
	.st5{fill:none;}
	.st6{fill:none;stroke:#4D4D4D;stroke-width:0.3;stroke-miterlimit:10;}
	.st7{fill:#4D4D4D;stroke:#4D4D4D;stroke-width:0.1;stroke-miterlimit:10;}
	.st8{fill:#F0047F;}
	.st9{fill:none;stroke:#4D4D4D;stroke-width:0;stroke-linecap:round;stroke-linejoin:round;}
	.st10{fill:none;stroke:#4D4D4D;stroke-width:0.25;stroke-miterlimit:10;}
	.st11{fill:none;stroke:#4D4D4D;stroke-width:0.2;stroke-miterlimit:10;}
	.st12{fill:none;stroke:#4D4D4D;stroke-width:0.8;stroke-miterlimit:10;}
	.st13{fill:#4D4D4D;stroke:#4D4D4D;stroke-width:0.3;stroke-miterlimit:10;}
	.st14{fill:none;stroke:#4D4D4D;stroke-width:0.24;stroke-miterlimit:10;}
</style>
<path class="st2" d="M29.592,22.577c0.019,0.008,0.038,0.016,0.057,0.024c0.019,0.008,0.038,0.016,0.057,0.023
	s0.038,0.016,0.057,0.023s0.038,0.016,0.056,0.024v-0.062v-0.062v-0.062v-0.062c-0.019-0.008-0.038-0.016-0.056-0.023
	s-0.038-0.015-0.057-0.022s-0.038-0.015-0.057-0.022c-0.019-0.007-0.038-0.015-0.057-0.023v0.061v0.061v0.061V22.577z"/>
<path class="st2" d="M0.318,22.577v-0.061v-0.061v-0.061v-0.061c-0.019,0.008-0.038,0.015-0.057,0.023
	c-0.019,0.007-0.038,0.015-0.057,0.022S0.166,22.393,0.147,22.4s-0.038,0.015-0.056,0.023v0.062v0.062v0.062v0.062
	c0.019-0.008,0.037-0.016,0.056-0.024c0.019-0.008,0.038-0.016,0.057-0.023s0.038-0.016,0.057-0.023
	C0.28,22.593,0.299,22.585,0.318,22.577"/>
<polygon class="st10" points="0.216,0.304 7.59,0.304 14.963,0.304 22.337,0.304 29.71,0.304 29.71,7.673 29.71,15.043 
	29.71,22.413 29.71,29.783 22.337,29.783 14.963,29.783 7.59,29.783 0.216,29.783 0.216,22.413 0.216,15.043 0.216,7.673 "/>
<g>
	<g>
		<path class="st2" d="M14.868,18.697c-1.17,0-2.286-0.238-3.301-0.668s-1.93-1.052-2.699-1.821
			c-0.769-0.769-1.391-1.683-1.821-2.699s-0.668-2.131-0.668-3.301s0.238-2.286,0.668-3.301s1.052-1.93,1.821-2.699
			s1.683-1.391,2.699-1.821s2.131-0.668,3.301-0.668s2.286,0.238,3.301,0.668s1.93,1.052,2.699,1.821s1.391,1.683,1.821,2.699
			s0.668,2.131,0.668,3.301c-0.001,1.169-0.24,2.283-0.671,3.298s-1.053,1.929-1.822,2.698c-0.769,0.769-1.683,1.391-2.698,1.822
			S16.036,18.696,14.868,18.697L14.868,18.697L14.868,18.697L14.868,18.697L14.868,18.697z M14.868,1.993
			c-1.133,0-2.212,0.23-3.195,0.647S9.805,3.658,9.061,4.402S7.715,6.031,7.298,7.014s-0.647,2.062-0.647,3.195
			s0.23,2.212,0.647,3.195s1.019,1.868,1.762,2.612c0.744,0.744,1.629,1.346,2.612,1.762s2.062,0.647,3.195,0.647
			s2.212-0.23,3.195-0.647s1.868-1.019,2.612-1.762c0.744-0.744,1.346-1.629,1.762-2.612s0.647-2.062,0.647-3.195
			c-0.001-1.131-0.233-2.21-0.65-3.192s-1.02-1.867-1.763-2.611s-1.629-1.346-2.611-1.763S15.999,1.994,14.868,1.993L14.868,1.993
			L14.868,1.993L14.868,1.993L14.868,1.993z"/>
	</g>
	<path class="st2" d="M10.656,11.535c0.199,0,0.388,0.04,0.56,0.113s0.327,0.178,0.457,0.308c0.13,0.13,0.236,0.285,0.308,0.457
		s0.113,0.361,0.113,0.56s-0.04,0.388-0.113,0.56s-0.178,0.327-0.308,0.457c-0.13,0.13-0.285,0.236-0.457,0.308
		s-0.361,0.113-0.56,0.113c-0.199,0-0.388-0.04-0.56-0.113s-0.327-0.178-0.457-0.308c-0.13-0.13-0.236-0.285-0.308-0.457
		s-0.113-0.361-0.113-0.56s0.04-0.388,0.113-0.56s0.178-0.327,0.308-0.457c0.13-0.13,0.285-0.236,0.457-0.308
		S10.457,11.535,10.656,11.535z"/>
	<path class="st2" d="M19.046,11.535c0.199,0,0.388,0.04,0.56,0.113c0.172,0.073,0.327,0.178,0.457,0.308
		c0.13,0.13,0.236,0.285,0.308,0.457s0.113,0.361,0.113,0.56s-0.04,0.388-0.113,0.56s-0.178,0.327-0.308,0.457
		c-0.13,0.13-0.285,0.236-0.457,0.308c-0.172,0.073-0.361,0.113-0.56,0.113c-0.199,0-0.388-0.04-0.56-0.113
		c-0.172-0.073-0.327-0.178-0.457-0.308c-0.13-0.13-0.236-0.285-0.308-0.457s-0.113-0.361-0.113-0.56s0.04-0.388,0.113-0.56
		s0.178-0.327,0.308-0.457c0.13-0.13,0.285-0.236,0.457-0.308C18.658,11.575,18.847,11.535,19.046,11.535z"/>
	<path class="st2" d="M10.263,6.769c0.199,0,0.388,0.04,0.56,0.113s0.327,0.178,0.457,0.308s0.236,0.285,0.308,0.457
		s0.113,0.361,0.113,0.56s-0.04,0.388-0.113,0.56S11.41,9.095,11.28,9.225c-0.13,0.13-0.285,0.236-0.457,0.308
		s-0.361,0.113-0.56,0.113s-0.388-0.04-0.56-0.113C9.531,9.461,9.376,9.355,9.246,9.225C9.115,9.095,9.01,8.94,8.937,8.768
		s-0.113-0.361-0.113-0.56s0.04-0.388,0.113-0.56s0.178-0.327,0.308-0.457c0.13-0.13,0.285-0.236,0.457-0.308
		C9.875,6.81,10.064,6.769,10.263,6.769z"/>
	<path class="st2" d="M19.439,6.769c0.199,0,0.388,0.04,0.56,0.113s0.327,0.178,0.457,0.308s0.236,0.285,0.308,0.457
		s0.113,0.361,0.113,0.56s-0.04,0.388-0.113,0.56s-0.178,0.327-0.308,0.457c-0.13,0.13-0.285,0.236-0.457,0.308
		s-0.361,0.113-0.56,0.113s-0.388-0.04-0.56-0.113c-0.172-0.073-0.327-0.178-0.457-0.308c-0.13-0.13-0.236-0.285-0.308-0.457
		S18,8.407,18,8.208s0.04-0.388,0.113-0.56s0.178-0.327,0.308-0.457s0.285-0.236,0.457-0.308C19.051,6.81,19.24,6.769,19.439,6.769z
		"/>
	<path class="st2" d="M14.867,14.112c0.199,0,0.388,0.04,0.56,0.113s0.327,0.178,0.457,0.308c0.13,0.13,0.236,0.285,0.308,0.457
		s0.113,0.361,0.113,0.56s-0.04,0.388-0.113,0.56c-0.073,0.172-0.178,0.327-0.308,0.457s-0.285,0.236-0.457,0.308
		s-0.361,0.113-0.56,0.113s-0.388-0.04-0.56-0.113s-0.327-0.178-0.457-0.308c-0.13-0.13-0.236-0.285-0.308-0.457
		c-0.073-0.172-0.113-0.361-0.113-0.56s0.04-0.388,0.113-0.56s0.178-0.327,0.308-0.457c0.13-0.13,0.285-0.236,0.457-0.308
		S14.669,14.112,14.867,14.112z"/>
	<g>
		<g>
			<polyline class="st12" points="8.435,24.199 8.899,24.199 15.105,24.199 21.31,24.199 21.774,24.199 			"/>
			<g>
				<polygon class="st2" points="9.602,28.188 2.694,24.199 9.602,20.21 				"/>
			</g>
			<g>
				<polygon class="st2" points="20.607,28.188 27.515,24.199 20.607,20.21 				"/>
			</g>
		</g>
	</g>
</g>
</svg>
