<?xml version="1.0" encoding="utf-8"?>
<!-- Generator: Adobe Illustrator 19.1.0, SVG Export Plug-In . SVG Version: 6.00 Build 0)  -->
<svg version="1.1" id="Layer_1" xmlns="http://www.w3.org/2000/svg" xmlns:xlink="http://www.w3.org/1999/xlink" x="0px" y="0px"
	 viewBox="0 0 29.91 30.086" style="enable-background:new 0 0 29.91 30.086;" xml:space="preserve">
<style type="text/css">
	.st0{fill:#115C78;}
	.st1{fill-rule:evenodd;clip-rule:evenodd;fill:#4D4D4D;}
	.st2{fill:#4D4D4D;}
	.st3{fill-rule:evenodd;clip-rule:evenodd;}
	.st4{fill:#FFFFFF;}
	.st5{fill:none;}
	.st6{fill:none;stroke:#4D4D4D;stroke-width:0.3;stroke-miterlimit:10;}
	.st7{fill:#4D4D4D;stroke:#4D4D4D;stroke-width:0.1;stroke-miterlimit:10;}
	.st8{fill:#F0047F;}
	.st9{fill:none;stroke:#4D4D4D;stroke-width:0;stroke-linecap:round;stroke-linejoin:round;}
	.st10{fill:none;stroke:#4D4D4D;stroke-width:0.25;stroke-miterlimit:10;}
	.st11{fill:none;stroke:#4D4D4D;stroke-width:0.2;stroke-miterlimit:10;}
	.st12{fill:none;stroke:#4D4D4D;stroke-width:0.8;stroke-miterlimit:10;}
	.st13{fill:#4D4D4D;stroke:#4D4D4D;stroke-width:0.3;stroke-miterlimit:10;}
	.st14{fill:none;stroke:#4D4D4D;stroke-width:0.24;stroke-miterlimit:10;}
</style>
<path class="st10" d="M0.217,0.491h7.369h7.369h7.369h7.369v7.276v7.276v7.276v7.276h-7.369h-7.369H7.586H0.217v-7.276v-7.276V7.767
	V0.491z M29.694,0.492v5.614v5.614v5.614v5.614c-0.982-0.525-2.045-0.992-3.173-1.397c-1.128-0.405-2.323-0.747-3.57-1.024
	c-1.247-0.277-2.546-0.488-3.883-0.63c-1.337-0.142-2.713-0.215-4.113-0.215c-1.4,0-2.775,0.073-4.113,0.215
	s-2.636,0.353-3.883,0.63s-2.441,0.619-3.57,1.024c-1.129,0.405-2.191,0.871-3.174,1.397v-5.614v-5.614V6.106V0.492h7.37h7.37h7.37
	H29.694z"/>
<g>
	<g>
		<path class="st2" d="M15.185,13.574c-0.735,0-1.435-0.149-2.072-0.42c-0.637-0.27-1.212-0.661-1.694-1.144
			c-0.482-0.483-0.873-1.057-1.143-1.695c-0.27-0.638-0.419-1.338-0.419-2.073c0-0.735,0.149-1.436,0.419-2.074
			s0.661-1.213,1.143-1.696s1.057-0.874,1.694-1.144c0.637-0.27,1.338-0.42,2.072-0.42c0.735,0,1.436,0.15,2.075,0.42
			c0.638,0.27,1.213,0.661,1.696,1.144s0.874,1.058,1.144,1.696c0.27,0.638,0.42,1.339,0.42,2.074c0,0.735-0.15,1.436-0.42,2.073
			c-0.27,0.638-0.661,1.212-1.144,1.695c-0.483,0.483-1.058,0.873-1.696,1.144C16.621,13.425,15.92,13.574,15.185,13.574z
			 M15.185,3.262c-0.686,0-1.34,0.14-1.935,0.392c-0.595,0.252-1.131,0.618-1.582,1.068C11.217,5.173,10.852,5.71,10.6,6.306
			s-0.392,1.25-0.392,1.937c0,0.686,0.14,1.341,0.392,1.936s0.617,1.132,1.067,1.583c0.451,0.451,0.987,0.816,1.582,1.068
			c0.595,0.252,1.249,0.392,1.935,0.392c0.687,0,1.342-0.14,1.938-0.392s1.133-0.617,1.584-1.068
			c0.451-0.451,0.816-0.987,1.069-1.583c0.252-0.595,0.392-1.25,0.392-1.936c0-0.687-0.14-1.341-0.392-1.937
			c-0.252-0.596-0.618-1.133-1.069-1.583c-0.451-0.451-0.988-0.816-1.584-1.068S15.871,3.262,15.185,3.262z"/>
	</g>
	<g>
		<path class="st2" d="M11.48,18.731c-0.735,0-1.435-0.149-2.072-0.42c-0.637-0.27-1.212-0.661-1.694-1.144S6.84,16.11,6.57,15.473
			c-0.27-0.638-0.419-1.338-0.419-2.073c0-0.735,0.149-1.436,0.419-2.074c0.27-0.638,0.661-1.213,1.143-1.696
			C8.196,9.147,8.77,8.756,9.408,8.485c0.637-0.27,1.338-0.42,2.072-0.42c0.735,0,1.436,0.15,2.074,0.42
			c0.638,0.27,1.213,0.661,1.696,1.144c0.483,0.483,0.874,1.058,1.144,1.696c0.27,0.638,0.42,1.339,0.42,2.074
			c0,0.735-0.15,1.436-0.42,2.073c-0.27,0.638-0.661,1.212-1.144,1.695s-1.058,0.873-1.696,1.144
			C12.917,18.581,12.216,18.731,11.48,18.731z M11.48,8.418c-0.686,0-1.34,0.14-1.935,0.392C8.949,9.063,8.413,9.428,7.963,9.879
			c-0.451,0.451-0.815,0.988-1.068,1.583c-0.252,0.596-0.392,1.25-0.392,1.937c0,0.686,0.14,1.341,0.392,1.936
			c0.252,0.595,0.617,1.132,1.068,1.583c0.451,0.451,0.987,0.816,1.582,1.068c0.595,0.252,1.249,0.392,1.935,0.392
			c0.687,0,1.341-0.14,1.937-0.392s1.133-0.617,1.584-1.068c0.451-0.451,0.816-0.987,1.069-1.583
			c0.252-0.595,0.392-1.25,0.392-1.936c0-0.687-0.14-1.341-0.392-1.937c-0.252-0.596-0.618-1.133-1.069-1.583
			c-0.451-0.451-0.988-0.816-1.584-1.068S12.167,8.418,11.48,8.418z"/>
	</g>
	<g>
		<path class="st2" d="M18.724,18.731c-0.735,0-1.435-0.149-2.072-0.42c-0.637-0.27-1.212-0.661-1.694-1.144
			s-0.873-1.057-1.143-1.695c-0.27-0.638-0.419-1.338-0.419-2.073c0-0.735,0.149-1.436,0.419-2.074
			c0.27-0.638,0.661-1.213,1.143-1.696c0.483-0.483,1.057-0.874,1.694-1.144c0.637-0.27,1.338-0.42,2.072-0.42
			c0.735,0,1.436,0.15,2.074,0.42c0.638,0.27,1.213,0.661,1.696,1.144c0.483,0.483,0.874,1.058,1.144,1.696
			c0.27,0.638,0.42,1.339,0.42,2.074c0,0.735-0.15,1.436-0.42,2.073c-0.27,0.638-0.661,1.212-1.144,1.695
			c-0.483,0.483-1.058,0.873-1.696,1.144C20.16,18.581,19.459,18.731,18.724,18.731z M18.724,8.418c-0.686,0-1.34,0.14-1.935,0.392
			c-0.595,0.252-1.132,0.618-1.582,1.068c-0.451,0.451-0.815,0.988-1.068,1.583c-0.252,0.596-0.392,1.25-0.392,1.937
			c0,0.686,0.14,1.341,0.392,1.936c0.252,0.595,0.617,1.132,1.068,1.583c0.451,0.451,0.987,0.816,1.582,1.068
			c0.595,0.252,1.249,0.392,1.935,0.392c0.687,0,1.341-0.14,1.937-0.392s1.133-0.617,1.584-1.068
			c0.451-0.451,0.816-0.987,1.069-1.583c0.252-0.595,0.392-1.25,0.392-1.936c0-0.687-0.14-1.341-0.392-1.937
			c-0.252-0.596-0.618-1.133-1.069-1.583c-0.451-0.451-0.988-0.816-1.584-1.068S19.41,8.418,18.724,8.418z"/>
	</g>
</g>
</svg>
