<?xml version="1.0" encoding="utf-8"?>
<!-- Generator: Adobe Illustrator 19.1.0, SVG Export Plug-In . SVG Version: 6.00 Build 0)  -->
<svg version="1.1" id="Layer_1" xmlns="http://www.w3.org/2000/svg" xmlns:xlink="http://www.w3.org/1999/xlink" x="0px" y="0px"
	 viewBox="0 0 29.91 30.086" style="enable-background:new 0 0 29.91 30.086;" xml:space="preserve">
<style type="text/css">
	.st0{fill:#4D4D4D;}
	.st1{fill-rule:evenodd;clip-rule:evenodd;fill:#4C4C4C;}
	.st2{fill:#4C4C4C;}
	.st3{fill:#383330;}
	.st4{fill:#1F1A17;}
	.st5{fill:#4D4C4C;}
	.st6{fill:none;stroke:#000000;stroke-width:0.3;stroke-miterlimit:10;}
	.st7{fill:#E61413;}
	.st8{fill:#5F5357;}
	.st9{fill:#115C78;}
	.st10{fill-rule:evenodd;clip-rule:evenodd;fill:#4D4D4D;}
	.st11{fill-rule:evenodd;clip-rule:evenodd;}
	.st12{fill:#FFFFFF;}
	.st13{fill:none;}
	.st14{fill:#231F20;}
	.st15{clip-path:url(#SVGID_2_);}
	.st16{clip-path:url(#SVGID_4_);fill:#FCF118;}
	.st17{clip-path:url(#SVGID_4_);fill:#FCF018;}
	.st18{clip-path:url(#SVGID_4_);fill:#FCEF18;}
	.st19{clip-path:url(#SVGID_4_);fill:#FCEE18;}
	.st20{clip-path:url(#SVGID_4_);fill:#FCED18;}
	.st21{clip-path:url(#SVGID_4_);fill:#FCEC18;}
	.st22{clip-path:url(#SVGID_4_);fill:#FCEB18;}
	.st23{clip-path:url(#SVGID_4_);fill:#FCEA18;}
	.st24{clip-path:url(#SVGID_4_);fill:#FCE918;}
	.st25{clip-path:url(#SVGID_4_);fill:#FCE818;}
	.st26{clip-path:url(#SVGID_4_);fill:#FCE718;}
	.st27{clip-path:url(#SVGID_4_);fill:#FCE617;}
	.st28{clip-path:url(#SVGID_4_);fill:#FCE517;}
	.st29{clip-path:url(#SVGID_4_);fill:#FCE417;}
	.st30{clip-path:url(#SVGID_4_);fill:#FCE317;}
	.st31{clip-path:url(#SVGID_4_);fill:#FCE217;}
	.st32{clip-path:url(#SVGID_4_);fill:#FCE117;}
	.st33{clip-path:url(#SVGID_4_);fill:#FCE017;}
	.st34{clip-path:url(#SVGID_4_);fill:#FCDF17;}
	.st35{clip-path:url(#SVGID_4_);fill:#FCDE17;}
	.st36{clip-path:url(#SVGID_4_);fill:#FCDD17;}
	.st37{clip-path:url(#SVGID_4_);fill:#FCDC17;}
	.st38{clip-path:url(#SVGID_4_);fill:#FCDB17;}
	.st39{clip-path:url(#SVGID_4_);fill:#FCDA17;}
	.st40{clip-path:url(#SVGID_4_);fill:#FCD917;}
	.st41{clip-path:url(#SVGID_4_);fill:#FCD817;}
	.st42{clip-path:url(#SVGID_4_);fill:#FCD717;}
	.st43{clip-path:url(#SVGID_4_);fill:#FCD617;}
	.st44{clip-path:url(#SVGID_4_);fill:#FCD517;}
	.st45{clip-path:url(#SVGID_4_);fill:#FCD416;}
	.st46{clip-path:url(#SVGID_4_);fill:#FCD316;}
	.st47{clip-path:url(#SVGID_4_);fill:#FBD216;}
	.st48{clip-path:url(#SVGID_4_);fill:#FBD116;}
	.st49{clip-path:url(#SVGID_4_);fill:#FBD016;}
	.st50{clip-path:url(#SVGID_4_);fill:#FBCF16;}
	.st51{clip-path:url(#SVGID_4_);fill:#FBCE16;}
	.st52{clip-path:url(#SVGID_4_);fill:#FBCD16;}
	.st53{clip-path:url(#SVGID_4_);fill:#FBCC16;}
	.st54{clip-path:url(#SVGID_4_);fill:#FBCB16;}
	.st55{clip-path:url(#SVGID_4_);fill:#FBCA16;}
	.st56{clip-path:url(#SVGID_4_);fill:#FBC916;}
	.st57{clip-path:url(#SVGID_4_);fill:#FBC816;}
	.st58{clip-path:url(#SVGID_4_);fill:#FBC716;}
	.st59{clip-path:url(#SVGID_4_);fill:#FBC616;}
	.st60{clip-path:url(#SVGID_4_);fill:#FBC516;}
	.st61{clip-path:url(#SVGID_4_);fill:#FBC416;}
	.st62{clip-path:url(#SVGID_4_);fill:#FBC316;}
	.st63{clip-path:url(#SVGID_4_);fill:#FBC216;}
	.st64{clip-path:url(#SVGID_4_);fill:#FBC115;}
	.st65{clip-path:url(#SVGID_4_);fill:#FBC015;}
	.st66{clip-path:url(#SVGID_4_);fill:#FBBF15;}
	.st67{clip-path:url(#SVGID_4_);fill:#FBBE15;}
	.st68{clip-path:url(#SVGID_4_);fill:#FBBD15;}
	.st69{clip-path:url(#SVGID_4_);fill:#FBBC15;}
	.st70{clip-path:url(#SVGID_4_);fill:#FBBB15;}
	.st71{clip-path:url(#SVGID_4_);fill:#FBBA15;}
	.st72{clip-path:url(#SVGID_4_);fill:#FBB915;}
	.st73{clip-path:url(#SVGID_4_);fill:#FBB815;}
	.st74{clip-path:url(#SVGID_4_);fill:#FBB715;}
	.st75{clip-path:url(#SVGID_4_);fill:#FBB615;}
	.st76{clip-path:url(#SVGID_4_);fill:#FBB515;}
	.st77{clip-path:url(#SVGID_4_);fill:#FBB415;}
	.st78{clip-path:url(#SVGID_4_);fill:#FBB315;}
	.st79{clip-path:url(#SVGID_4_);fill:#FBB215;}
	.st80{clip-path:url(#SVGID_4_);fill:#FBB115;}
	.st81{clip-path:url(#SVGID_4_);fill:#FBB015;}
	.st82{clip-path:url(#SVGID_4_);fill:#FBAF15;}
	.st83{clip-path:url(#SVGID_4_);fill:#FAAE15;}
	.st84{clip-path:url(#SVGID_4_);fill:#FAAD14;}
	.st85{clip-path:url(#SVGID_4_);fill:#FAAC14;}
	.st86{clip-path:url(#SVGID_4_);fill:#FAAB14;}
	.st87{clip-path:url(#SVGID_4_);fill:#FAAA14;}
	.st88{clip-path:url(#SVGID_4_);fill:#FAA914;}
	.st89{clip-path:url(#SVGID_4_);fill:#FAA814;}
	.st90{clip-path:url(#SVGID_4_);fill:#FAA714;}
	.st91{clip-path:url(#SVGID_4_);fill:#FAA614;}
	.st92{clip-path:url(#SVGID_4_);fill:#FAA514;}
	.st93{clip-path:url(#SVGID_4_);fill:#FAA414;}
	.st94{clip-path:url(#SVGID_4_);fill:#FAA314;}
	.st95{clip-path:url(#SVGID_4_);fill:#FAA214;}
	.st96{clip-path:url(#SVGID_4_);fill:#FAA114;}
	.st97{clip-path:url(#SVGID_4_);fill:#FAA014;}
	.st98{clip-path:url(#SVGID_4_);fill:#FA9F14;}
	.st99{clip-path:url(#SVGID_4_);fill:#FA9E14;}
	.st100{clip-path:url(#SVGID_4_);fill:#FA9D14;}
	.st101{clip-path:url(#SVGID_4_);fill:#FA9C14;}
	.st102{clip-path:url(#SVGID_4_);fill:#FA9B14;}
	.st103{clip-path:url(#SVGID_4_);fill:#FA9A13;}
	.st104{clip-path:url(#SVGID_4_);fill:#FA9913;}
	.st105{clip-path:url(#SVGID_4_);fill:#FA9813;}
	.st106{clip-path:url(#SVGID_4_);fill:#FA9713;}
	.st107{clip-path:url(#SVGID_4_);fill:#FA9613;}
	.st108{clip-path:url(#SVGID_4_);fill:#FA9513;}
	.st109{clip-path:url(#SVGID_4_);fill:#FA9413;}
	.st110{clip-path:url(#SVGID_4_);fill:#FA9313;}
	.st111{clip-path:url(#SVGID_4_);fill:#FA9213;}
	.st112{clip-path:url(#SVGID_4_);fill:#FA9113;}
	.st113{clip-path:url(#SVGID_4_);fill:#FA9013;}
	.st114{clip-path:url(#SVGID_4_);fill:#FA8F13;}
	.st115{clip-path:url(#SVGID_4_);fill:#FA8E13;}
	.st116{clip-path:url(#SVGID_4_);fill:#FA8D13;}
	.st117{clip-path:url(#SVGID_4_);fill:#FA8C13;}
	.st118{clip-path:url(#SVGID_4_);fill:#FA8B13;}
	.st119{clip-path:url(#SVGID_4_);fill:#FA8A13;}
	.st120{clip-path:url(#SVGID_4_);fill:#FA8913;}
	.st121{clip-path:url(#SVGID_4_);fill:#FA8812;}
	.st122{clip-path:url(#SVGID_4_);fill:#FA8712;}
	.st123{clip-path:url(#SVGID_4_);fill:#FA8612;}
	.st124{clip-path:url(#SVGID_4_);fill:#F98512;}
	.st125{clip-path:url(#SVGID_4_);fill:#F98412;}
	.st126{clip-path:url(#SVGID_4_);fill:#F98312;}
	.st127{clip-path:url(#SVGID_4_);fill:#F98212;}
	.st128{clip-path:url(#SVGID_4_);fill:#F98112;}
	.st129{clip-path:url(#SVGID_4_);fill:#F98012;}
	.st130{clip-path:url(#SVGID_4_);fill:#F97F12;}
	.st131{clip-path:url(#SVGID_4_);fill:#F97E12;}
	.st132{clip-path:url(#SVGID_4_);fill:#F97D12;}
	.st133{clip-path:url(#SVGID_4_);fill:#F97C12;}
	.st134{clip-path:url(#SVGID_4_);fill:#F97B12;}
	.st135{clip-path:url(#SVGID_4_);fill:#F97A12;}
	.st136{clip-path:url(#SVGID_4_);fill:#F97912;}
	.st137{clip-path:url(#SVGID_4_);fill:#F97812;}
	.st138{clip-path:url(#SVGID_4_);fill:#F97712;}
	.st139{clip-path:url(#SVGID_4_);fill:#F97612;}
	.st140{clip-path:url(#SVGID_4_);fill:#F97511;}
	.st141{clip-path:url(#SVGID_4_);fill:#F97411;}
	.st142{clip-path:url(#SVGID_4_);fill:#F97311;}
	.st143{clip-path:url(#SVGID_4_);fill:#F97211;}
	.st144{clip-path:url(#SVGID_4_);fill:#F97111;}
	.st145{clip-path:url(#SVGID_4_);fill:#F97011;}
	.st146{clip-path:url(#SVGID_4_);fill:#F96F11;}
	.st147{clip-path:url(#SVGID_4_);fill:#F96E11;}
	.st148{clip-path:url(#SVGID_4_);fill:#F96D11;}
	.st149{clip-path:url(#SVGID_4_);fill:#F96C11;}
	.st150{clip-path:url(#SVGID_4_);fill:#F96B11;}
	.st151{clip-path:url(#SVGID_4_);fill:#F96A11;}
	.st152{clip-path:url(#SVGID_4_);fill:#F96911;}
	.st153{clip-path:url(#SVGID_4_);fill:#F96811;}
	.st154{clip-path:url(#SVGID_4_);fill:#F96711;}
	.st155{clip-path:url(#SVGID_4_);fill:#F96611;}
	.st156{clip-path:url(#SVGID_4_);fill:#F96511;}
	.st157{clip-path:url(#SVGID_4_);fill:#F96411;}
	.st158{clip-path:url(#SVGID_4_);fill:#F96311;}
	.st159{clip-path:url(#SVGID_4_);fill:#F96210;}
	.st160{clip-path:url(#SVGID_4_);fill:#F86110;}
	.st161{clip-path:url(#SVGID_4_);fill:#F86010;}
	.st162{clip-path:url(#SVGID_4_);fill:#F85F10;}
	.st163{clip-path:url(#SVGID_4_);fill:#F85E10;}
	.st164{clip-path:url(#SVGID_4_);fill:#F85D10;}
	.st165{clip-path:url(#SVGID_4_);fill:#F85C10;}
	.st166{clip-path:url(#SVGID_4_);fill:#F85B10;}
	.st167{clip-path:url(#SVGID_4_);fill:#F85A10;}
	.st168{clip-path:url(#SVGID_4_);fill:#F85910;}
	.st169{clip-path:url(#SVGID_4_);fill:#F85810;}
	.st170{clip-path:url(#SVGID_4_);fill:#F85710;}
	.st171{clip-path:url(#SVGID_4_);fill:#F85610;}
	.st172{clip-path:url(#SVGID_4_);fill:#F85510;}
	.st173{clip-path:url(#SVGID_4_);fill:#F85410;}
	.st174{clip-path:url(#SVGID_4_);fill:#F85310;}
	.st175{clip-path:url(#SVGID_4_);fill:#F85210;}
	.st176{clip-path:url(#SVGID_4_);fill:#F85110;}
	.st177{clip-path:url(#SVGID_4_);fill:#F85010;}
	.st178{clip-path:url(#SVGID_4_);fill:#F84F0F;}
	.st179{clip-path:url(#SVGID_4_);fill:#F84E0F;}
	.st180{clip-path:url(#SVGID_4_);fill:#F84D0F;}
	.st181{clip-path:url(#SVGID_4_);fill:#F84C0F;}
	.st182{clip-path:url(#SVGID_4_);fill:#F84B0F;}
	.st183{clip-path:url(#SVGID_4_);fill:#F84A0F;}
	.st184{clip-path:url(#SVGID_4_);fill:#F8490F;}
	.st185{clip-path:url(#SVGID_4_);fill:#F8480F;}
	.st186{clip-path:url(#SVGID_4_);fill:#F8470F;}
	.st187{clip-path:url(#SVGID_4_);fill:#F8460F;}
	.st188{clip-path:url(#SVGID_4_);fill:#F8450F;}
	.st189{clip-path:url(#SVGID_4_);fill:#F8440F;}
	.st190{clip-path:url(#SVGID_4_);fill:#F8430F;}
	.st191{clip-path:url(#SVGID_4_);fill:#F8420F;}
	.st192{clip-path:url(#SVGID_4_);fill:#F8410F;}
	.st193{clip-path:url(#SVGID_4_);fill:#F8400F;}
	.st194{clip-path:url(#SVGID_4_);fill:#F83F0F;}
	.st195{clip-path:url(#SVGID_4_);fill:#F83E0E;}
	.st196{clip-path:url(#SVGID_4_);fill:#F83D0E;}
	.st197{clip-path:url(#SVGID_4_);fill:#F83C0E;}
	.st198{clip-path:url(#SVGID_4_);fill:#F83B0E;}
	.st199{clip-path:url(#SVGID_4_);fill:#F73A0E;}
	.st200{clip-path:url(#SVGID_4_);fill:#F7390E;}
	.st201{clip-path:url(#SVGID_4_);fill:#F7380E;}
	.st202{clip-path:url(#SVGID_4_);fill:#F7370E;}
	.st203{clip-path:url(#SVGID_4_);fill:#F7360E;}
	.st204{clip-path:url(#SVGID_4_);fill:#F7340E;}
	.st205{clip-path:url(#SVGID_4_);fill:#F7330E;}
	.st206{clip-path:url(#SVGID_4_);fill:#F7320E;}
	.st207{clip-path:url(#SVGID_4_);fill:#F7310E;}
	.st208{clip-path:url(#SVGID_4_);fill:#F7300E;}
	.st209{clip-path:url(#SVGID_4_);fill:#F72F0E;}
	.st210{clip-path:url(#SVGID_4_);fill:#F72E0E;}
	.st211{clip-path:url(#SVGID_4_);fill:#F72D0E;}
	.st212{clip-path:url(#SVGID_4_);fill:#F72C0E;}
	.st213{clip-path:url(#SVGID_4_);fill:#F72B0E;}
	.st214{clip-path:url(#SVGID_4_);fill:#F72B0D;}
	.st215{clip-path:url(#SVGID_4_);fill:#F72A0D;}
	.st216{clip-path:url(#SVGID_4_);fill:#F7290D;}
	.st217{clip-path:url(#SVGID_4_);fill:#F7280D;}
	.st218{clip-path:url(#SVGID_4_);fill:#F7270D;}
	.st219{clip-path:url(#SVGID_4_);fill:#F7260D;}
</style>
<g>
	<g>
		<path class="st0" d="M14.955,3.818c-0.716,0-1.421,0.066-2.109,0.196c-0.688,0.13-1.359,0.323-2.006,0.577
			C10.193,4.846,9.57,5.16,8.979,5.533C8.388,5.905,7.828,6.334,7.306,6.819l0-0.65l0-0.65l0-0.65l0-0.65H7.217H7.128H7.038H6.949
			l0,0.8l0,0.8l0,0.8l0,0.8l0.8,0l0.8,0l0.8,0l0.8,0V7.329V7.24V7.151V7.061l-0.645,0l-0.645,0l-0.645,0l-0.645,0
			c0.505-0.466,1.046-0.879,1.617-1.237c0.571-0.358,1.172-0.66,1.797-0.905c0.624-0.244,1.272-0.43,1.936-0.555
			c0.664-0.125,1.345-0.189,2.036-0.189c1.503,0,2.935,0.306,4.239,0.858c1.304,0.552,2.478,1.351,3.465,2.338
			c0.987,0.987,1.786,2.161,2.338,3.465c0.552,1.304,0.858,2.736,0.858,4.239c0,0.728-0.071,1.445-0.209,2.144
			c-0.139,0.698-0.345,1.378-0.615,2.031c-0.271,0.653-0.606,1.279-1.002,1.871c-0.396,0.592-0.853,1.149-1.368,1.664
			c-0.078,0.078-0.157,0.155-0.238,0.231s-0.163,0.151-0.245,0.224c-0.083,0.073-0.167,0.146-0.252,0.216
			c-0.085,0.071-0.171,0.14-0.258,0.208l-0.016,0.012l-0.016,0.012L21.62,23.7l-0.016,0.012l0.055,0.071l0.055,0.071l0.055,0.071
			l0.055,0.071l0.016-0.013l0.016-0.013l0.016-0.013l0.016-0.013c0.09-0.07,0.178-0.142,0.266-0.215
			c0.088-0.073,0.175-0.148,0.26-0.224c0.086-0.076,0.17-0.153,0.254-0.231c0.083-0.078,0.165-0.158,0.246-0.238
			c0.532-0.531,1.004-1.107,1.413-1.718c0.409-0.611,0.755-1.258,1.034-1.932s0.492-1.376,0.636-2.098
			c0.143-0.721,0.216-1.462,0.216-2.214c0-1.552-0.316-3.031-0.886-4.378s-1.396-2.56-2.415-3.579
			c-1.019-1.019-2.232-1.844-3.579-2.415S16.507,3.818,14.955,3.818z"/>
	</g>
	<g>
		<path class="st0" d="M5.211,20.717c0.134,0.23,0.275,0.456,0.425,0.676c0.149,0.22,0.307,0.435,0.471,0.643
			s0.337,0.412,0.516,0.609c0.179,0.197,0.365,0.388,0.558,0.572l0.062-0.065l0.062-0.065l0.062-0.065l0.062-0.065
			c-0.187-0.179-0.367-0.363-0.541-0.554s-0.34-0.387-0.499-0.59s-0.311-0.41-0.456-0.623C5.787,20.979,5.65,20.76,5.52,20.537
			l-0.077,0.045l-0.077,0.045l-0.077,0.045L5.211,20.717z"/>
	</g>
	<g>
		<path class="st0" d="M4.064,14.612l-0.089-0.004l-0.089-0.004l-0.089-0.004l-0.089-0.004c-0.002,0.04-0.003,0.079-0.004,0.119
			c-0.001,0.04-0.002,0.08-0.003,0.119c-0.001,0.04-0.001,0.08-0.002,0.12c0,0.04-0.001,0.08-0.001,0.12
			c0,0.227,0.007,0.454,0.02,0.681c0.014,0.226,0.034,0.452,0.061,0.677c0.027,0.225,0.061,0.448,0.101,0.67
			c0.04,0.222,0.087,0.443,0.141,0.662l0.087-0.021l0.087-0.021l0.087-0.021l0.087-0.021c-0.052-0.212-0.097-0.425-0.137-0.641
			c-0.039-0.215-0.072-0.432-0.098-0.649c-0.026-0.218-0.046-0.436-0.059-0.655s-0.02-0.439-0.02-0.659c0-0.039,0-0.077,0.001-0.116
			s0.001-0.077,0.002-0.116c0.001-0.039,0.002-0.077,0.003-0.116C4.062,14.689,4.063,14.651,4.064,14.612z"/>
	</g>
	<g>
		<path class="st0" d="M9.769,25.069c0.237,0.123,0.478,0.238,0.722,0.343c0.244,0.106,0.492,0.203,0.743,0.29
			c0.251,0.088,0.505,0.167,0.762,0.237c0.257,0.07,0.516,0.13,0.778,0.182l0.017-0.088l0.017-0.088l0.017-0.088l0.017-0.088
			c-0.253-0.05-0.504-0.108-0.753-0.176c-0.249-0.068-0.494-0.144-0.737-0.229c-0.243-0.085-0.483-0.179-0.719-0.281
			c-0.237-0.102-0.47-0.213-0.699-0.332l-0.041,0.079l-0.041,0.079L9.81,24.99L9.769,25.069z"/>
	</g>
	<g>
		<path class="st0" d="M15.92,25.933l0.008,0.089l0.008,0.089l0.008,0.089l0.008,0.089c0.266-0.023,0.531-0.056,0.794-0.098
			s0.524-0.093,0.783-0.154c0.259-0.061,0.516-0.13,0.769-0.209c0.254-0.079,0.505-0.167,0.753-0.264l-0.033-0.083l-0.033-0.083
			l-0.033-0.083l-0.033-0.083c-0.24,0.094-0.483,0.179-0.729,0.255s-0.494,0.144-0.745,0.203c-0.251,0.059-0.504,0.108-0.758,0.149
			C16.435,25.879,16.178,25.91,15.92,25.933z"/>
	</g>
	<g>
		<path class="st0" d="M4.293,11.453l0.085,0.029l0.085,0.029l0.085,0.029l0.085,0.029c0.037-0.11,0.077-0.22,0.118-0.33
			s0.084-0.219,0.129-0.327c0.045-0.108,0.092-0.216,0.14-0.323s0.098-0.213,0.15-0.318l-0.08-0.039l-0.08-0.039l-0.08-0.039
			l-0.08-0.039c-0.053,0.108-0.105,0.218-0.155,0.328c-0.05,0.11-0.098,0.222-0.145,0.334c-0.046,0.112-0.091,0.225-0.134,0.338
			C4.373,11.226,4.332,11.339,4.293,11.453z"/>
	</g>
	<g>
		<path class="st0" d="M16.011,15.525c0,0-0.001,0-0.001-0.001s-0.001,0-0.001-0.001s-0.001,0-0.001-0.001s-0.001,0-0.001-0.001
			c-0.001,0-0.001,0-0.002-0.001s-0.001,0-0.002-0.001c-0.001,0-0.001,0-0.002-0.001c-0.001,0-0.001,0-0.002-0.001l-0.012-0.004
			l-0.012-0.004l-0.012-0.004l-0.012-0.004l1.35-0.894l1.35-0.894l1.35-0.894l1.35-0.894l-0.786-1.187L19.78,9.552l-0.786-1.187
			l-0.786-1.187L15.696,8.84l-2.511,1.663l-2.511,1.663L8.163,13.83l0.32,0.483l0.32,0.483l0.32,0.483l0.32,0.483l-0.276,0.76
			l-0.276,0.76l-0.276,0.76l-0.276,0.76l1.43,0.519l1.43,0.519l1.43,0.519l1.43,0.519c0,0,0,0,0,0c0,0,0,0,0,0c0,0,0,0,0,0
			c0,0,0,0,0,0c0,0,0,0,0,0c0,0,0,0,0,0c0,0,0,0,0.001,0c0,0,0,0,0.001,0l1.43,0.519l1.43,0.519l1.43,0.519l1.43,0.519l0.486-1.338
			l0.486-1.338l0.486-1.338l0.486-1.338l-1.429-0.519l-1.429-0.519l-1.429-0.519L16.011,15.525z M17.289,17.146
			c0.07,0.151,0.125,0.306,0.164,0.464c0.039,0.158,0.062,0.318,0.069,0.48c0.007,0.161-0.002,0.323-0.026,0.484
			c-0.025,0.161-0.065,0.32-0.122,0.477c-0.089,0.245-0.215,0.471-0.369,0.671c-0.155,0.2-0.338,0.374-0.543,0.518
			s-0.432,0.257-0.672,0.334c-0.24,0.077-0.495,0.118-0.756,0.118c-0.072,0-0.144-0.003-0.216-0.009
			c-0.072-0.006-0.143-0.016-0.214-0.028c-0.071-0.013-0.141-0.028-0.211-0.047c-0.07-0.019-0.139-0.041-0.208-0.065l-0.001,0
			l-0.001,0l-0.001,0l-0.001,0c-0.291-0.106-0.55-0.261-0.772-0.452s-0.405-0.419-0.546-0.67s-0.237-0.526-0.285-0.812
			c-0.047-0.286-0.046-0.583,0.011-0.878l0.174-0.115l0.174-0.115l0.174-0.115l0.174-0.115l-0.014,0.037l-0.014,0.037l-0.014,0.037
			l-0.014,0.037l0.109,0.039l0.109,0.039l0.109,0.039l0.109,0.039c-0.004,0.009-0.008,0.018-0.012,0.027s-0.008,0.018-0.012,0.028
			c-0.004,0.009-0.008,0.019-0.012,0.028c-0.004,0.009-0.007,0.019-0.011,0.028c-0.003,0.01-0.007,0.019-0.01,0.029
			s-0.006,0.019-0.009,0.029s-0.006,0.019-0.008,0.029c-0.003,0.01-0.005,0.019-0.008,0.029l-0.108-0.039l-0.108-0.039l-0.108-0.039
			l-0.108-0.039l-0.03,0.084l-0.03,0.084l-0.03,0.084l-0.03,0.084l0.124,0.045l0.124,0.045l0.124,0.045l0.124,0.045
			c-0.004,0.066-0.003,0.132,0.001,0.198c0.005,0.066,0.013,0.132,0.026,0.197c0.013,0.065,0.029,0.13,0.05,0.194
			c0.021,0.064,0.046,0.127,0.074,0.188c0.046,0.099,0.101,0.192,0.165,0.278c0.063,0.086,0.134,0.165,0.213,0.237
			c0.078,0.072,0.164,0.135,0.255,0.191c0.091,0.055,0.189,0.102,0.292,0.139c0.045,0.016,0.09,0.03,0.136,0.043
			c0.046,0.012,0.092,0.022,0.138,0.03c0.046,0.008,0.093,0.014,0.14,0.018s0.094,0.006,0.14,0.006c0.081,0,0.163-0.006,0.243-0.018
			c0.08-0.012,0.16-0.03,0.238-0.054c0.078-0.024,0.155-0.054,0.229-0.089c0.074-0.036,0.146-0.077,0.215-0.124l-0.05-0.074
			l-0.05-0.074l-0.05-0.074l-0.05-0.074c-0.085,0.058-0.176,0.105-0.27,0.14c-0.094,0.036-0.192,0.06-0.291,0.073
			s-0.2,0.014-0.3,0.003c-0.1-0.011-0.199-0.034-0.295-0.069c-0.08-0.029-0.157-0.066-0.228-0.109
			c-0.071-0.043-0.138-0.093-0.199-0.149c-0.061-0.056-0.117-0.118-0.166-0.185c-0.049-0.067-0.092-0.14-0.129-0.217
			c-0.019-0.04-0.035-0.08-0.049-0.121s-0.026-0.082-0.036-0.123c-0.01-0.042-0.018-0.083-0.023-0.126
			c-0.006-0.042-0.009-0.084-0.011-0.127l0.279,0.101l0.279,0.101l0.279,0.101l0.279,0.101l0.03-0.084l0.03-0.084l0.03-0.084
			l0.03-0.084l-0.298-0.108l-0.298-0.108l-0.298-0.108l-0.298-0.108c0.003-0.01,0.005-0.02,0.007-0.03
			c0.002-0.01,0.004-0.02,0.007-0.029c0.002-0.01,0.005-0.02,0.007-0.029s0.006-0.019,0.009-0.029
			c0.004-0.01,0.007-0.019,0.011-0.028c0.004-0.009,0.008-0.019,0.011-0.028c0.004-0.009,0.008-0.018,0.012-0.028
			c0.004-0.009,0.008-0.018,0.013-0.027l0.3,0.109l0.3,0.109l0.3,0.109l0.3,0.109l0.03-0.084l0.03-0.084l0.03-0.084l0.03-0.084
			l-0.279-0.101l-0.279-0.101l-0.279-0.101l-0.279-0.101c0.085-0.094,0.182-0.174,0.289-0.238c0.107-0.064,0.222-0.113,0.343-0.145
			c0.121-0.031,0.247-0.045,0.374-0.04s0.256,0.03,0.381,0.075c0.095,0.035,0.185,0.079,0.267,0.133s0.157,0.117,0.224,0.188
			s0.126,0.15,0.175,0.235c0.049,0.085,0.089,0.177,0.119,0.275l0.086-0.026l0.086-0.026l0.086-0.026l0.086-0.026
			c-0.038-0.125-0.089-0.242-0.152-0.351c-0.063-0.109-0.138-0.21-0.224-0.301c-0.086-0.091-0.182-0.171-0.287-0.24
			c-0.105-0.069-0.22-0.126-0.342-0.171c-0.173-0.063-0.349-0.095-0.524-0.098c-0.174-0.004-0.346,0.021-0.51,0.071
			c-0.164,0.05-0.319,0.125-0.46,0.223s-0.267,0.218-0.372,0.358l-0.089-0.033l-0.089-0.033l-0.089-0.033l-0.089-0.033l0.515-0.341
			l0.515-0.341l0.515-0.341l0.515-0.341c0.027,0.006,0.054,0.012,0.082,0.019c0.027,0.007,0.054,0.014,0.081,0.021
			c0.027,0.007,0.054,0.015,0.081,0.024c0.027,0.008,0.053,0.017,0.08,0.027l0.003,0.001l0.003,0.001l0.003,0.001l0.003,0.001
			c0.156,0.057,0.304,0.128,0.442,0.212c0.139,0.084,0.268,0.181,0.387,0.29c0.119,0.109,0.227,0.229,0.322,0.36
			C17.135,16.854,17.219,16.996,17.289,17.146z M12.233,11.563c-0.03,0.058-0.059,0.118-0.085,0.178
			c-0.026,0.06-0.051,0.122-0.073,0.184c-0.022,0.062-0.042,0.126-0.06,0.19c-0.018,0.064-0.034,0.13-0.047,0.196
			c-0.032,0.157-0.05,0.316-0.056,0.473c-0.005,0.157,0.003,0.314,0.023,0.468c0.021,0.155,0.054,0.307,0.1,0.456
			s0.105,0.295,0.175,0.437c0.013,0.026,0.026,0.052,0.04,0.078s0.028,0.051,0.042,0.077c0.014,0.025,0.029,0.051,0.044,0.076
			s0.031,0.05,0.047,0.074c0.011,0.017,0.023,0.033,0.034,0.049c0.012,0.016,0.024,0.032,0.036,0.048
			c0.012,0.016,0.024,0.031,0.037,0.047c0.012,0.016,0.025,0.031,0.037,0.047c0.089,0.113,0.186,0.218,0.289,0.315
			c0.103,0.097,0.214,0.185,0.329,0.265s0.237,0.15,0.364,0.212c0.126,0.062,0.257,0.114,0.392,0.156
			c0.068,0.022,0.138,0.041,0.208,0.058c0.07,0.017,0.141,0.031,0.213,0.043c0.072,0.012,0.144,0.021,0.217,0.027
			c0.073,0.006,0.146,0.009,0.22,0.009h0h0h0h0c0.019,0,0.037,0,0.056-0.001c0.019,0,0.037-0.001,0.055-0.002
			s0.037-0.002,0.055-0.003c0.018-0.001,0.037-0.002,0.055-0.004l-0.556,0.368l-0.556,0.368l-0.556,0.368l-0.556,0.368l-0.122,0.081
			l-0.122,0.081l-0.122,0.081l-0.122,0.081l-0.215,0.143l-0.215,0.143l-0.215,0.143l-0.215,0.143l-0.392-0.593l-0.392-0.593
			l-0.392-0.593L9.84,15.713L9.778,15.62l-0.061-0.093l-0.061-0.093l-0.061-0.093l-0.234-0.353l-0.234-0.353l-0.234-0.353
			L8.659,13.93l0.893-0.592l0.893-0.592l0.893-0.592L12.233,11.563z M18.107,7.673l0.688,1.038l0.688,1.038l0.688,1.038l0.688,1.038
			l-0.893,0.592l-0.893,0.592L18.177,13.6l-0.893,0.592c0.03-0.058,0.059-0.117,0.085-0.178c0.026-0.06,0.051-0.122,0.073-0.184
			c0.022-0.062,0.042-0.126,0.06-0.19c0.018-0.064,0.034-0.129,0.047-0.195c0.038-0.186,0.057-0.374,0.058-0.559
			c0.001-0.186-0.017-0.371-0.052-0.552c-0.035-0.181-0.089-0.359-0.159-0.531s-0.159-0.338-0.264-0.497
			c-0.132-0.2-0.287-0.379-0.459-0.536c-0.173-0.157-0.363-0.292-0.567-0.401c-0.204-0.11-0.421-0.194-0.648-0.251
			c-0.226-0.057-0.462-0.087-0.702-0.087c-0.019,0-0.037,0-0.056,0.001c-0.019,0-0.037,0.001-0.056,0.002
			c-0.019,0.001-0.037,0.002-0.056,0.003s-0.037,0.002-0.055,0.004l0.893-0.592l0.893-0.592l0.893-0.592L18.107,7.673z
			 M12.748,14.34c-0.005-0.007-0.011-0.015-0.016-0.022c-0.006-0.007-0.011-0.014-0.017-0.021c-0.006-0.007-0.011-0.014-0.017-0.022
			c-0.005-0.007-0.011-0.015-0.016-0.022c-0.092-0.139-0.169-0.284-0.23-0.435c-0.062-0.15-0.108-0.306-0.139-0.464
			c-0.031-0.158-0.046-0.32-0.045-0.483c0.001-0.163,0.017-0.326,0.051-0.489c0.033-0.163,0.082-0.32,0.144-0.47
			c0.063-0.15,0.14-0.293,0.23-0.427c0.09-0.134,0.194-0.259,0.309-0.373s0.243-0.218,0.382-0.31
			c0.102-0.068,0.209-0.128,0.319-0.179c0.11-0.052,0.223-0.095,0.338-0.13s0.233-0.061,0.353-0.079
			c0.12-0.018,0.241-0.027,0.363-0.027c0.21,0,0.416,0.026,0.614,0.076c0.198,0.05,0.388,0.124,0.567,0.22
			c0.178,0.096,0.345,0.213,0.496,0.351s0.286,0.294,0.402,0.469c0.092,0.139,0.169,0.284,0.231,0.435s0.108,0.306,0.139,0.464
			s0.046,0.32,0.045,0.483c-0.001,0.163-0.017,0.326-0.051,0.489c-0.033,0.163-0.082,0.32-0.144,0.47
			c-0.063,0.15-0.14,0.293-0.23,0.427c-0.09,0.134-0.194,0.259-0.309,0.373c-0.116,0.114-0.243,0.218-0.382,0.31
			c-0.06,0.039-0.121,0.076-0.183,0.109s-0.126,0.064-0.191,0.092c-0.065,0.028-0.131,0.053-0.197,0.075
			c-0.067,0.022-0.134,0.042-0.202,0.059c-0.034,0.009-0.068,0.016-0.103,0.023s-0.069,0.013-0.103,0.019s-0.069,0.01-0.104,0.014
			c-0.035,0.004-0.07,0.007-0.105,0.01c-0.015,0.001-0.031,0.003-0.046,0.004c-0.015,0.001-0.03,0.003-0.046,0.004
			s-0.031,0.003-0.046,0.004c-0.015,0.001-0.031,0.001-0.046,0.001c-0.001,0-0.002,0-0.003,0c-0.001,0-0.002,0-0.003,0
			c-0.001,0-0.002,0-0.003,0c-0.001,0-0.002,0-0.003,0c-0.022,0-0.044-0.001-0.066-0.001c-0.022-0.001-0.044-0.002-0.066-0.003
			c-0.022-0.001-0.044-0.003-0.066-0.005c-0.022-0.002-0.044-0.004-0.065-0.007c-0.099-0.011-0.197-0.028-0.293-0.05
			c-0.096-0.023-0.19-0.051-0.282-0.084c-0.092-0.034-0.182-0.073-0.269-0.117c-0.087-0.044-0.172-0.093-0.254-0.147
			c-0.061-0.041-0.121-0.084-0.178-0.13s-0.113-0.095-0.166-0.146c-0.053-0.051-0.104-0.105-0.153-0.161S12.792,14.401,12.748,14.34
			z M8.796,18.584l0.223-0.613l0.223-0.613l0.223-0.613l0.223-0.613l0.405,0.612l0.405,0.612l0.405,0.612l0.405,0.612l0.222-0.147
			l0.222-0.147l0.222-0.147l0.222-0.147c-0.014,0.191-0.009,0.381,0.015,0.567c0.024,0.186,0.066,0.369,0.125,0.546
			s0.136,0.347,0.228,0.509c0.092,0.162,0.201,0.315,0.324,0.457l-1.023-0.371l-1.023-0.371l-1.023-0.371L8.796,18.584z
			 M19.57,22.497l-1.022-0.371l-1.022-0.371l-1.022-0.371l-1.022-0.371c0.252-0.041,0.495-0.115,0.723-0.218
			s0.442-0.237,0.635-0.395s0.366-0.343,0.513-0.549c0.147-0.206,0.267-0.433,0.356-0.678c0.065-0.179,0.111-0.361,0.14-0.545
			c0.028-0.184,0.038-0.369,0.03-0.553s-0.034-0.368-0.079-0.549s-0.107-0.358-0.187-0.53c-0.029-0.061-0.059-0.121-0.092-0.179
			c-0.032-0.058-0.067-0.115-0.103-0.17s-0.074-0.109-0.114-0.162c-0.04-0.052-0.081-0.103-0.124-0.153l1.022,0.371l1.022,0.371
			l1.022,0.371l1.022,0.371l-0.425,1.17l-0.425,1.17l-0.425,1.17L19.57,22.497z"/>
	</g>
	<g>
		<path class="st0" d="M15.327,13.294c0.001,0.03,0,0.055-0.004,0.077c-0.003,0.022-0.009,0.04-0.015,0.055
			s-0.014,0.027-0.022,0.037c-0.008,0.01-0.016,0.018-0.023,0.024c-0.029,0.025-0.068,0.042-0.111,0.053
			c-0.043,0.011-0.089,0.017-0.135,0.019s-0.09,0-0.128-0.003c-0.038-0.003-0.071-0.008-0.091-0.013l-0.019,0.087l-0.019,0.087
			l-0.019,0.087l-0.019,0.087c0.006,0.001,0.016,0.003,0.031,0.006c0.015,0.003,0.034,0.005,0.056,0.008
			c0.022,0.003,0.048,0.005,0.076,0.007c0.028,0.002,0.059,0.003,0.092,0.003c0.018,0,0.036,0,0.055-0.002
			c0.019-0.001,0.038-0.003,0.057-0.005c0.019-0.002,0.039-0.005,0.059-0.008c0.02-0.003,0.04-0.007,0.06-0.011l0.051,0.077
			l0.051,0.077l0.051,0.077l0.051,0.077l0.074-0.049l0.074-0.049l0.074-0.049l0.074-0.049l-0.046-0.069l-0.046-0.069l-0.046-0.069
			l-0.046-0.069c0.021-0.021,0.041-0.045,0.061-0.073c0.019-0.028,0.037-0.06,0.052-0.096c0.015-0.036,0.027-0.077,0.035-0.123
			s0.011-0.096,0.009-0.152c-0.005-0.141-0.052-0.247-0.122-0.328c-0.071-0.08-0.165-0.135-0.266-0.172s-0.209-0.056-0.306-0.067
			c-0.097-0.01-0.183-0.012-0.241-0.013c-0.122-0.002-0.218-0.012-0.293-0.027c-0.075-0.015-0.13-0.034-0.169-0.057
			s-0.063-0.048-0.078-0.075c-0.015-0.027-0.02-0.054-0.021-0.081c-0.001-0.03,0-0.056,0.004-0.077
			c0.003-0.022,0.009-0.04,0.015-0.055c0.006-0.015,0.014-0.027,0.022-0.037c0.008-0.01,0.016-0.018,0.023-0.024
			c0.029-0.025,0.068-0.042,0.111-0.053c0.043-0.011,0.089-0.017,0.135-0.019c0.046-0.002,0.09,0,0.129,0.003
			c0.038,0.003,0.07,0.008,0.091,0.013l0.018-0.087l0.018-0.087l0.018-0.087l0.018-0.087c-0.009-0.002-0.03-0.006-0.06-0.01
			c-0.03-0.004-0.069-0.009-0.115-0.011c-0.045-0.002-0.097-0.003-0.151,0c-0.054,0.003-0.112,0.011-0.169,0.024l-0.051-0.077
			l-0.051-0.077l-0.051-0.077l-0.051-0.077L14.02,11.61l-0.074,0.049l-0.074,0.049l-0.074,0.049l0.046,0.07l0.046,0.07l0.046,0.07
			l0.046,0.07c-0.02,0.021-0.04,0.045-0.059,0.073c-0.019,0.028-0.036,0.06-0.05,0.096c-0.014,0.036-0.026,0.076-0.033,0.121
			c-0.007,0.045-0.011,0.094-0.009,0.149c0.004,0.094,0.025,0.176,0.065,0.247c0.04,0.071,0.098,0.131,0.175,0.18
			c0.077,0.049,0.171,0.086,0.285,0.112c0.113,0.026,0.244,0.04,0.394,0.043c0.1,0.002,0.185,0.008,0.257,0.018
			c0.072,0.01,0.131,0.024,0.178,0.044c0.047,0.019,0.081,0.043,0.105,0.072S15.326,13.254,15.327,13.294z"/>
	</g>
</g>
<g>
	<path class="st0" d="M29.887,29.917h-7.432h-7.432H7.591H0.159v-7.432v-7.432V7.62V0.188h7.432h7.432h7.432h7.432V7.62v7.432v7.432
		V29.917z M0.409,29.667h7.307h7.307h7.307h7.307v-7.307v-7.307V7.745V0.438H22.33h-7.307H7.716H0.409v7.307v7.307v7.307V29.667z"/>
</g>
</svg>
