<?xml version="1.0" encoding="utf-8"?>
<!-- Generator: Adobe Illustrator 19.1.0, SVG Export Plug-In . SVG Version: 6.00 Build 0)  -->
<svg version="1.1" id="Layer_1" xmlns="http://www.w3.org/2000/svg" xmlns:xlink="http://www.w3.org/1999/xlink" x="0px" y="0px"
	 viewBox="0 0 126.038 26.342" style="enable-background:new 0 0 126.038 26.342;" xml:space="preserve">
<style type="text/css">
	.st0{fill:#115C78;}
	.st1{fill-rule:evenodd;clip-rule:evenodd;fill:#4D4D4D;}
	.st2{fill:#4D4D4D;}
	.st3{fill-rule:evenodd;clip-rule:evenodd;}
	.st4{fill:#FFFFFF;}
	.st5{fill:none;}
	.st6{fill:none;stroke:#4D4D4D;stroke-width:0.3;stroke-miterlimit:10;}
	.st7{fill:#4D4D4D;stroke:#4D4D4D;stroke-width:0.1;stroke-miterlimit:10;}
	.st8{fill:#F0047F;}
	.st9{fill:none;stroke:#4D4D4D;stroke-width:0;stroke-linecap:round;stroke-linejoin:round;}
	.st10{fill:none;stroke:#4D4D4D;stroke-width:0.25;stroke-miterlimit:10;}
	.st11{fill:none;stroke:#4D4D4D;stroke-width:0.2;stroke-miterlimit:10;}
	.st12{fill:none;stroke:#4D4D4D;stroke-width:0.8;stroke-miterlimit:10;}
	.st13{fill:#4D4D4D;stroke:#4D4D4D;stroke-width:0.3;stroke-miterlimit:10;}
	.st14{fill:none;stroke:#4D4D4D;stroke-width:0.24;stroke-miterlimit:10;}
</style>
<g>
	<path d="M11.46,14.318v1.598v1.598v1.598v1.598h-0.764H9.932H9.169H8.405v-4.105v-4.105V8.395V4.29h1h1h1h1
		c0.423,0,0.818,0.025,1.186,0.075s0.707,0.125,1.02,0.225s0.597,0.225,0.853,0.376s0.486,0.326,0.687,0.526
		c0.201,0.2,0.377,0.427,0.528,0.68s0.277,0.533,0.377,0.839s0.176,0.638,0.226,0.997s0.075,0.744,0.075,1.156
		c0,0.519-0.044,0.998-0.131,1.438s-0.219,0.842-0.394,1.204s-0.394,0.685-0.656,0.969s-0.569,0.529-0.919,0.735l0.789,1.8
		l0.789,1.8l0.789,1.8l0.789,1.8h-0.817h-0.817H15.96h-0.817l-0.649-1.598l-0.649-1.598l-0.649-1.598l-0.649-1.598h-0.272h-0.272
		h-0.272H11.46z M11.46,11.691h0.196h0.196h0.196h0.196c0.18,0,0.347-0.013,0.501-0.038s0.296-0.064,0.426-0.115
		s0.246-0.115,0.35-0.191s0.195-0.166,0.274-0.268s0.147-0.217,0.206-0.344s0.108-0.267,0.147-0.419S14.217,10,14.237,9.823
		s0.029-0.367,0.029-0.569c0-0.21-0.01-0.404-0.031-0.584s-0.052-0.344-0.093-0.493s-0.094-0.283-0.156-0.402
		s-0.135-0.223-0.218-0.312s-0.178-0.167-0.284-0.233s-0.223-0.122-0.352-0.167s-0.269-0.078-0.42-0.1S12.397,6.93,12.223,6.93
		h-0.191h-0.191h-0.191H11.46v1.19v1.19v1.19V11.691z"/>
	<path d="M28.99,14.432c0,0.513-0.027,0.997-0.081,1.453s-0.136,0.883-0.244,1.283s-0.244,0.77-0.407,1.112s-0.353,0.656-0.57,0.942
		s-0.454,0.535-0.712,0.749s-0.535,0.393-0.832,0.535s-0.615,0.25-0.953,0.321s-0.696,0.107-1.074,0.107
		c-0.24,0-0.472-0.016-0.698-0.049s-0.444-0.082-0.656-0.147s-0.416-0.147-0.614-0.246s-0.388-0.213-0.571-0.344
		s-0.356-0.277-0.519-0.436s-0.314-0.334-0.456-0.523s-0.272-0.391-0.393-0.609s-0.23-0.449-0.33-0.695
		c-0.099-0.246-0.186-0.503-0.26-0.77s-0.136-0.544-0.186-0.832s-0.087-0.586-0.112-0.895s-0.037-0.628-0.037-0.957
		c0-0.507,0.027-0.987,0.081-1.439s0.135-0.876,0.242-1.272s0.242-0.765,0.404-1.106s0.35-0.654,0.565-0.939
		c0.215-0.285,0.451-0.535,0.708-0.749s0.535-0.392,0.833-0.535s0.618-0.25,0.958-0.321s0.701-0.107,1.083-0.107
		c0.369,0,0.719,0.036,1.05,0.109s0.643,0.182,0.937,0.327s0.568,0.327,0.824,0.546s0.493,0.473,0.711,0.764s0.409,0.608,0.572,0.95
		s0.3,0.71,0.409,1.104s0.191,0.813,0.245,1.258S28.99,13.935,28.99,14.432z M22.342,14.432c0,0.326,0.009,0.631,0.027,0.917
		s0.045,0.552,0.08,0.798s0.08,0.472,0.133,0.679s0.116,0.393,0.187,0.559s0.153,0.312,0.246,0.437s0.196,0.229,0.31,0.313
		s0.239,0.146,0.375,0.188s0.282,0.063,0.439,0.063c0.3,0,0.562-0.082,0.786-0.247s0.412-0.412,0.562-0.741s0.262-0.741,0.337-1.235
		s0.112-1.071,0.112-1.729c0-0.328-0.009-0.635-0.027-0.921s-0.045-0.552-0.081-0.797s-0.081-0.469-0.135-0.672
		s-0.117-0.386-0.189-0.548s-0.154-0.303-0.247-0.425s-0.196-0.222-0.31-0.303s-0.238-0.142-0.372-0.182s-0.279-0.061-0.435-0.061
		c-0.157,0-0.304,0.02-0.439,0.061s-0.261,0.101-0.375,0.182s-0.218,0.182-0.31,0.303s-0.174,0.263-0.246,0.425
		s-0.133,0.344-0.187,0.548s-0.098,0.427-0.133,0.672s-0.062,0.51-0.08,0.797S22.342,14.104,22.342,14.432z"/>
	<path d="M40.355,14.432c0,0.513-0.027,0.997-0.081,1.453s-0.136,0.883-0.244,1.283s-0.244,0.77-0.407,1.112
		s-0.353,0.656-0.57,0.942s-0.454,0.535-0.712,0.749s-0.535,0.393-0.832,0.535s-0.615,0.25-0.953,0.321s-0.696,0.107-1.074,0.107
		c-0.24,0-0.472-0.016-0.698-0.049s-0.444-0.082-0.656-0.147s-0.416-0.147-0.614-0.246s-0.388-0.213-0.571-0.344
		s-0.356-0.277-0.519-0.436s-0.314-0.334-0.456-0.523s-0.272-0.391-0.393-0.609s-0.23-0.449-0.33-0.695
		c-0.099-0.246-0.186-0.503-0.26-0.77s-0.136-0.544-0.186-0.832s-0.087-0.586-0.112-0.895s-0.037-0.628-0.037-0.957
		c0-0.507,0.027-0.987,0.081-1.439s0.135-0.876,0.242-1.272s0.242-0.765,0.404-1.106s0.35-0.654,0.565-0.939
		c0.215-0.285,0.451-0.535,0.708-0.749s0.535-0.392,0.833-0.535s0.618-0.25,0.958-0.321s0.701-0.107,1.083-0.107
		c0.369,0,0.719,0.036,1.05,0.109s0.643,0.182,0.937,0.327s0.568,0.327,0.824,0.546s0.493,0.473,0.711,0.764s0.409,0.608,0.572,0.95
		s0.3,0.71,0.409,1.104s0.191,0.813,0.245,1.258S40.355,13.935,40.355,14.432z M33.707,14.432c0,0.326,0.009,0.631,0.027,0.917
		s0.045,0.552,0.08,0.798s0.08,0.472,0.133,0.679s0.116,0.393,0.187,0.559s0.153,0.312,0.246,0.437s0.196,0.229,0.31,0.313
		s0.239,0.146,0.375,0.188s0.282,0.063,0.439,0.063c0.3,0,0.562-0.082,0.786-0.247s0.412-0.412,0.562-0.741s0.262-0.741,0.337-1.235
		s0.112-1.071,0.112-1.729c0-0.328-0.009-0.635-0.027-0.921s-0.045-0.552-0.081-0.797s-0.081-0.469-0.135-0.672
		s-0.117-0.386-0.189-0.548s-0.154-0.303-0.247-0.425s-0.196-0.222-0.31-0.303s-0.238-0.142-0.372-0.182s-0.279-0.061-0.435-0.061
		c-0.157,0-0.304,0.02-0.439,0.061s-0.261,0.101-0.375,0.182s-0.218,0.182-0.31,0.303s-0.174,0.263-0.246,0.425
		S34,11.839,33.947,12.042s-0.098,0.427-0.133,0.672s-0.062,0.51-0.08,0.797S33.707,14.104,33.707,14.432z"/>
	<path d="M54.876,20.709v-1.864V16.98v-1.864v-1.864c0-0.458-0.028-0.86-0.085-1.204s-0.141-0.631-0.255-0.86
		s-0.255-0.401-0.424-0.516S53.744,10.5,53.517,10.5c-0.165,0-0.318,0.021-0.459,0.062s-0.271,0.102-0.389,0.184
		s-0.224,0.184-0.319,0.307s-0.177,0.266-0.248,0.43s-0.133,0.352-0.187,0.565s-0.098,0.451-0.133,0.713s-0.062,0.55-0.08,0.861
		s-0.027,0.648-0.027,1.009v1.519v1.519v1.519v1.519h-0.752h-0.752h-0.752h-0.752v-1.864V16.98v-1.864v-1.864
		c0-0.458-0.029-0.86-0.086-1.204s-0.144-0.631-0.259-0.86s-0.259-0.401-0.432-0.516S47.514,10.5,47.284,10.5
		c-0.161,0-0.311,0.02-0.45,0.061s-0.267,0.102-0.384,0.183s-0.223,0.183-0.318,0.305s-0.179,0.265-0.252,0.428
		s-0.137,0.352-0.192,0.568s-0.1,0.458-0.137,0.726s-0.064,0.564-0.082,0.885s-0.027,0.67-0.027,1.044v1.502v1.502v1.502v1.502
		h-0.747h-0.747h-0.747h-0.747v-3.128v-3.128v-3.128V8.198h0.592h0.592h0.592h0.592l0.09,0.402l0.09,0.402l0.09,0.402l0.09,0.402
		h0.048h0.048h0.048h0.048c0.075-0.159,0.156-0.308,0.245-0.446s0.184-0.265,0.287-0.382s0.212-0.222,0.328-0.318
		s0.24-0.18,0.37-0.254s0.262-0.139,0.397-0.194s0.271-0.102,0.41-0.139s0.28-0.065,0.423-0.083s0.289-0.028,0.437-0.028
		c0.382,0,0.732,0.045,1.05,0.135s0.605,0.226,0.859,0.406s0.477,0.406,0.668,0.677s0.35,0.587,0.477,0.948h0.028h0.028h0.028h0.028
		c0.159-0.361,0.342-0.677,0.549-0.948s0.439-0.497,0.694-0.677s0.535-0.316,0.839-0.406s0.631-0.135,0.983-0.135
		c0.277,0,0.537,0.024,0.781,0.073s0.47,0.122,0.68,0.219s0.403,0.219,0.58,0.365s0.337,0.316,0.48,0.511
		c0.143,0.195,0.268,0.412,0.376,0.651s0.197,0.502,0.268,0.786s0.125,0.591,0.161,0.921s0.054,0.681,0.054,1.056v2.041v2.041v2.041
		v2.041h-0.752h-0.752h-0.752H54.876z"/>
	<path d="M63.631,14.568l-1.133-2.254l-1.133-2.254l-1.133-2.254L59.1,5.552h0.282h0.282h0.282h0.282l0.575,1.185l0.575,1.185
		l0.575,1.185l0.575,1.185c0.065,0.138,0.13,0.275,0.195,0.413s0.129,0.274,0.193,0.41s0.128,0.272,0.192,0.407
		s0.127,0.27,0.19,0.404c0.063,0.134,0.128,0.269,0.195,0.404s0.135,0.271,0.205,0.407s0.142,0.273,0.215,0.41
		s0.149,0.274,0.225,0.412h0.023h0.023h0.023h0.023c0.073-0.138,0.145-0.275,0.217-0.412s0.143-0.273,0.214-0.41
		s0.141-0.272,0.211-0.407s0.139-0.27,0.208-0.404c0.069-0.134,0.137-0.269,0.204-0.404s0.133-0.271,0.198-0.407
		s0.129-0.273,0.193-0.41s0.125-0.275,0.187-0.413l0.575-1.185l0.575-1.185l0.575-1.185l0.575-1.185h0.27h0.27h0.27h0.27
		l-1.138,2.254l-1.138,2.254l-1.138,2.254l-1.138,2.254v1.535v1.535v1.535v1.535h-0.265H64.16h-0.265h-0.265v-1.535v-1.535v-1.535
		V14.568z"/>
	<path d="M69.75,15.212c0-0.23,0.008-0.454,0.025-0.672s0.042-0.43,0.075-0.636s0.075-0.406,0.126-0.6s0.109-0.382,0.176-0.564
		c0.067-0.182,0.14-0.356,0.218-0.523s0.163-0.327,0.253-0.479s0.186-0.297,0.288-0.435s0.209-0.268,0.322-0.391
		c0.113-0.123,0.231-0.238,0.353-0.346s0.249-0.209,0.38-0.303s0.267-0.181,0.407-0.26s0.285-0.152,0.435-0.217
		s0.301-0.122,0.454-0.171s0.309-0.09,0.466-0.122s0.316-0.057,0.477-0.074s0.324-0.025,0.489-0.025s0.328,0.008,0.489,0.025
		s0.321,0.041,0.479,0.074s0.315,0.073,0.469,0.122s0.308,0.106,0.459,0.171c0.152,0.065,0.298,0.138,0.44,0.217
		s0.279,0.166,0.411,0.26s0.26,0.195,0.382,0.303s0.241,0.224,0.354,0.346c0.113,0.123,0.22,0.253,0.321,0.391
		s0.197,0.283,0.287,0.435s0.174,0.312,0.253,0.479s0.151,0.342,0.218,0.523c0.067,0.182,0.126,0.37,0.176,0.564
		s0.092,0.394,0.126,0.6s0.059,0.418,0.076,0.636s0.025,0.442,0.025,0.672s-0.008,0.453-0.025,0.671s-0.042,0.428-0.076,0.632
		s-0.076,0.402-0.126,0.593s-0.109,0.376-0.176,0.554c-0.067,0.178-0.14,0.35-0.218,0.514s-0.163,0.322-0.253,0.472
		s-0.186,0.294-0.287,0.431s-0.209,0.266-0.321,0.389c-0.113,0.123-0.231,0.238-0.354,0.347s-0.25,0.209-0.382,0.303
		s-0.269,0.181-0.411,0.26s-0.289,0.152-0.44,0.217c-0.151,0.065-0.304,0.122-0.459,0.171s-0.311,0.09-0.469,0.122
		s-0.318,0.057-0.479,0.074s-0.325,0.025-0.489,0.025s-0.328-0.008-0.489-0.025s-0.32-0.041-0.477-0.074s-0.312-0.073-0.466-0.122
		s-0.305-0.106-0.454-0.171s-0.294-0.138-0.435-0.217s-0.276-0.166-0.407-0.26s-0.258-0.195-0.38-0.303s-0.24-0.224-0.353-0.347
		c-0.113-0.123-0.221-0.252-0.322-0.389s-0.198-0.28-0.288-0.431s-0.174-0.308-0.253-0.472s-0.151-0.336-0.218-0.514
		c-0.067-0.178-0.126-0.363-0.176-0.554s-0.092-0.389-0.126-0.593s-0.059-0.415-0.075-0.632S69.75,15.442,69.75,15.212z
		 M70.807,15.212c0,0.18,0.006,0.357,0.019,0.529s0.031,0.341,0.056,0.506s0.056,0.326,0.093,0.483s0.081,0.311,0.131,0.46
		c0.05,0.149,0.104,0.294,0.163,0.432s0.122,0.273,0.191,0.401s0.141,0.252,0.218,0.37s0.159,0.231,0.245,0.338
		c0.086,0.107,0.177,0.208,0.271,0.304s0.193,0.185,0.296,0.268s0.209,0.161,0.32,0.232s0.225,0.137,0.344,0.196
		c0.119,0.06,0.24,0.112,0.364,0.156s0.25,0.082,0.378,0.111s0.259,0.052,0.392,0.067s0.269,0.022,0.407,0.022
		c0.138,0,0.274-0.007,0.408-0.022s0.265-0.037,0.395-0.067s0.257-0.067,0.382-0.111s0.248-0.097,0.368-0.156
		c0.121-0.059,0.237-0.125,0.35-0.196s0.22-0.149,0.324-0.232s0.203-0.173,0.298-0.268s0.185-0.197,0.272-0.304
		c0.086-0.107,0.168-0.22,0.245-0.338s0.15-0.241,0.218-0.37s0.132-0.262,0.191-0.401s0.113-0.283,0.163-0.432
		c0.05-0.15,0.093-0.303,0.131-0.46s0.068-0.318,0.093-0.483s0.044-0.334,0.056-0.506s0.019-0.349,0.019-0.529
		c0-0.184-0.006-0.364-0.019-0.539s-0.031-0.346-0.056-0.513s-0.056-0.329-0.093-0.487s-0.081-0.312-0.131-0.461
		s-0.104-0.294-0.163-0.433s-0.122-0.274-0.191-0.403s-0.141-0.254-0.218-0.373s-0.159-0.234-0.245-0.343
		c-0.086-0.109-0.177-0.212-0.272-0.309s-0.194-0.187-0.298-0.271s-0.211-0.162-0.324-0.234s-0.229-0.138-0.35-0.197
		c-0.121-0.059-0.243-0.111-0.368-0.156s-0.252-0.082-0.382-0.111s-0.261-0.052-0.395-0.067s-0.27-0.022-0.408-0.022
		c-0.138,0-0.273,0.007-0.407,0.022s-0.264,0.037-0.392,0.067s-0.254,0.067-0.378,0.111s-0.245,0.096-0.364,0.156
		c-0.119,0.06-0.233,0.125-0.344,0.197s-0.217,0.15-0.32,0.234s-0.201,0.175-0.296,0.271s-0.185,0.2-0.271,0.309
		c-0.086,0.109-0.168,0.224-0.245,0.343s-0.15,0.244-0.218,0.373s-0.132,0.264-0.191,0.403s-0.113,0.284-0.163,0.433
		s-0.093,0.303-0.131,0.461s-0.068,0.32-0.093,0.487s-0.044,0.338-0.056,0.513S70.807,15.028,70.807,15.212z"/>
	<path d="M82.813,9.669h0.253h0.253h0.253h0.253v1.737v1.737v1.737v1.737c0,0.295,0.012,0.571,0.037,0.827s0.061,0.493,0.11,0.711
		s0.11,0.416,0.183,0.594s0.159,0.338,0.257,0.478c0.098,0.14,0.211,0.262,0.34,0.367s0.273,0.192,0.433,0.262
		s0.336,0.123,0.527,0.158s0.398,0.053,0.62,0.053c0.165,0,0.326-0.011,0.483-0.034s0.311-0.056,0.46-0.102s0.295-0.101,0.437-0.169
		s0.28-0.146,0.414-0.237c0.134-0.09,0.272-0.193,0.413-0.31s0.285-0.246,0.433-0.389s0.299-0.299,0.453-0.468
		s0.312-0.352,0.473-0.547v-2.035V13.74v-2.035V9.669h0.253h0.253h0.253h0.253v2.76v2.76v2.76v2.76h-0.213h-0.213h-0.213h-0.213
		l-0.029-0.46l-0.029-0.46l-0.029-0.46l-0.029-0.46h-0.011H89.92h-0.011h-0.011c-0.134,0.161-0.27,0.314-0.409,0.458
		s-0.278,0.281-0.42,0.41s-0.286,0.249-0.431,0.361s-0.293,0.216-0.443,0.312s-0.304,0.18-0.464,0.251s-0.325,0.132-0.496,0.18
		s-0.346,0.084-0.528,0.108s-0.368,0.036-0.559,0.036c-0.288,0-0.556-0.022-0.805-0.065s-0.479-0.108-0.69-0.194
		s-0.402-0.194-0.575-0.324s-0.326-0.28-0.46-0.453c-0.134-0.173-0.252-0.369-0.352-0.588s-0.184-0.462-0.251-0.729
		s-0.117-0.556-0.151-0.87s-0.05-0.65-0.05-1.011v-1.771v-1.771V11.44V9.669z"/>
</g>
</svg>
