<?xml version="1.0" encoding="utf-8"?>
<!-- Generator: Adobe Illustrator 19.1.0, SVG Export Plug-In . SVG Version: 6.00 Build 0)  -->
<svg version="1.1" id="Layer_1" xmlns="http://www.w3.org/2000/svg" xmlns:xlink="http://www.w3.org/1999/xlink" x="0px" y="0px"
	 viewBox="0 0 29.91 30.086" style="enable-background:new 0 0 29.91 30.086;" xml:space="preserve">
<style type="text/css">
	.st0{fill:#4D4D4D;}
	.st1{fill-rule:evenodd;clip-rule:evenodd;fill:#4C4C4C;}
	.st2{fill:#4C4C4C;}
	.st3{fill:#383330;}
	.st4{fill:#1F1A17;}
	.st5{fill:#4D4C4C;}
	.st6{fill:none;stroke:#000000;stroke-width:0.3;stroke-miterlimit:10;}
	.st7{fill:#E61413;}
	.st8{fill:#5F5357;}
	.st9{fill:#115C78;}
	.st10{fill-rule:evenodd;clip-rule:evenodd;fill:#4D4D4D;}
	.st11{fill-rule:evenodd;clip-rule:evenodd;}
	.st12{fill:#FFFFFF;}
	.st13{fill:none;}
	.st14{fill:#231F20;}
	.st15{clip-path:url(#SVGID_2_);}
	.st16{clip-path:url(#SVGID_4_);fill:#FCF118;}
	.st17{clip-path:url(#SVGID_4_);fill:#FCF018;}
	.st18{clip-path:url(#SVGID_4_);fill:#FCEF18;}
	.st19{clip-path:url(#SVGID_4_);fill:#FCEE18;}
	.st20{clip-path:url(#SVGID_4_);fill:#FCED18;}
	.st21{clip-path:url(#SVGID_4_);fill:#FCEC18;}
	.st22{clip-path:url(#SVGID_4_);fill:#FCEB18;}
	.st23{clip-path:url(#SVGID_4_);fill:#FCEA18;}
	.st24{clip-path:url(#SVGID_4_);fill:#FCE918;}
	.st25{clip-path:url(#SVGID_4_);fill:#FCE818;}
	.st26{clip-path:url(#SVGID_4_);fill:#FCE718;}
	.st27{clip-path:url(#SVGID_4_);fill:#FCE617;}
	.st28{clip-path:url(#SVGID_4_);fill:#FCE517;}
	.st29{clip-path:url(#SVGID_4_);fill:#FCE417;}
	.st30{clip-path:url(#SVGID_4_);fill:#FCE317;}
	.st31{clip-path:url(#SVGID_4_);fill:#FCE217;}
	.st32{clip-path:url(#SVGID_4_);fill:#FCE117;}
	.st33{clip-path:url(#SVGID_4_);fill:#FCE017;}
	.st34{clip-path:url(#SVGID_4_);fill:#FCDF17;}
	.st35{clip-path:url(#SVGID_4_);fill:#FCDE17;}
	.st36{clip-path:url(#SVGID_4_);fill:#FCDD17;}
	.st37{clip-path:url(#SVGID_4_);fill:#FCDC17;}
	.st38{clip-path:url(#SVGID_4_);fill:#FCDB17;}
	.st39{clip-path:url(#SVGID_4_);fill:#FCDA17;}
	.st40{clip-path:url(#SVGID_4_);fill:#FCD917;}
	.st41{clip-path:url(#SVGID_4_);fill:#FCD817;}
	.st42{clip-path:url(#SVGID_4_);fill:#FCD717;}
	.st43{clip-path:url(#SVGID_4_);fill:#FCD617;}
	.st44{clip-path:url(#SVGID_4_);fill:#FCD517;}
	.st45{clip-path:url(#SVGID_4_);fill:#FCD416;}
	.st46{clip-path:url(#SVGID_4_);fill:#FCD316;}
	.st47{clip-path:url(#SVGID_4_);fill:#FBD216;}
	.st48{clip-path:url(#SVGID_4_);fill:#FBD116;}
	.st49{clip-path:url(#SVGID_4_);fill:#FBD016;}
	.st50{clip-path:url(#SVGID_4_);fill:#FBCF16;}
	.st51{clip-path:url(#SVGID_4_);fill:#FBCE16;}
	.st52{clip-path:url(#SVGID_4_);fill:#FBCD16;}
	.st53{clip-path:url(#SVGID_4_);fill:#FBCC16;}
	.st54{clip-path:url(#SVGID_4_);fill:#FBCB16;}
	.st55{clip-path:url(#SVGID_4_);fill:#FBCA16;}
	.st56{clip-path:url(#SVGID_4_);fill:#FBC916;}
	.st57{clip-path:url(#SVGID_4_);fill:#FBC816;}
	.st58{clip-path:url(#SVGID_4_);fill:#FBC716;}
	.st59{clip-path:url(#SVGID_4_);fill:#FBC616;}
	.st60{clip-path:url(#SVGID_4_);fill:#FBC516;}
	.st61{clip-path:url(#SVGID_4_);fill:#FBC416;}
	.st62{clip-path:url(#SVGID_4_);fill:#FBC316;}
	.st63{clip-path:url(#SVGID_4_);fill:#FBC216;}
	.st64{clip-path:url(#SVGID_4_);fill:#FBC115;}
	.st65{clip-path:url(#SVGID_4_);fill:#FBC015;}
	.st66{clip-path:url(#SVGID_4_);fill:#FBBF15;}
	.st67{clip-path:url(#SVGID_4_);fill:#FBBE15;}
	.st68{clip-path:url(#SVGID_4_);fill:#FBBD15;}
	.st69{clip-path:url(#SVGID_4_);fill:#FBBC15;}
	.st70{clip-path:url(#SVGID_4_);fill:#FBBB15;}
	.st71{clip-path:url(#SVGID_4_);fill:#FBBA15;}
	.st72{clip-path:url(#SVGID_4_);fill:#FBB915;}
	.st73{clip-path:url(#SVGID_4_);fill:#FBB815;}
	.st74{clip-path:url(#SVGID_4_);fill:#FBB715;}
	.st75{clip-path:url(#SVGID_4_);fill:#FBB615;}
	.st76{clip-path:url(#SVGID_4_);fill:#FBB515;}
	.st77{clip-path:url(#SVGID_4_);fill:#FBB415;}
	.st78{clip-path:url(#SVGID_4_);fill:#FBB315;}
	.st79{clip-path:url(#SVGID_4_);fill:#FBB215;}
	.st80{clip-path:url(#SVGID_4_);fill:#FBB115;}
	.st81{clip-path:url(#SVGID_4_);fill:#FBB015;}
	.st82{clip-path:url(#SVGID_4_);fill:#FBAF15;}
	.st83{clip-path:url(#SVGID_4_);fill:#FAAE15;}
	.st84{clip-path:url(#SVGID_4_);fill:#FAAD14;}
	.st85{clip-path:url(#SVGID_4_);fill:#FAAC14;}
	.st86{clip-path:url(#SVGID_4_);fill:#FAAB14;}
	.st87{clip-path:url(#SVGID_4_);fill:#FAAA14;}
	.st88{clip-path:url(#SVGID_4_);fill:#FAA914;}
	.st89{clip-path:url(#SVGID_4_);fill:#FAA814;}
	.st90{clip-path:url(#SVGID_4_);fill:#FAA714;}
	.st91{clip-path:url(#SVGID_4_);fill:#FAA614;}
	.st92{clip-path:url(#SVGID_4_);fill:#FAA514;}
	.st93{clip-path:url(#SVGID_4_);fill:#FAA414;}
	.st94{clip-path:url(#SVGID_4_);fill:#FAA314;}
	.st95{clip-path:url(#SVGID_4_);fill:#FAA214;}
	.st96{clip-path:url(#SVGID_4_);fill:#FAA114;}
	.st97{clip-path:url(#SVGID_4_);fill:#FAA014;}
	.st98{clip-path:url(#SVGID_4_);fill:#FA9F14;}
	.st99{clip-path:url(#SVGID_4_);fill:#FA9E14;}
	.st100{clip-path:url(#SVGID_4_);fill:#FA9D14;}
	.st101{clip-path:url(#SVGID_4_);fill:#FA9C14;}
	.st102{clip-path:url(#SVGID_4_);fill:#FA9B14;}
	.st103{clip-path:url(#SVGID_4_);fill:#FA9A13;}
	.st104{clip-path:url(#SVGID_4_);fill:#FA9913;}
	.st105{clip-path:url(#SVGID_4_);fill:#FA9813;}
	.st106{clip-path:url(#SVGID_4_);fill:#FA9713;}
	.st107{clip-path:url(#SVGID_4_);fill:#FA9613;}
	.st108{clip-path:url(#SVGID_4_);fill:#FA9513;}
	.st109{clip-path:url(#SVGID_4_);fill:#FA9413;}
	.st110{clip-path:url(#SVGID_4_);fill:#FA9313;}
	.st111{clip-path:url(#SVGID_4_);fill:#FA9213;}
	.st112{clip-path:url(#SVGID_4_);fill:#FA9113;}
	.st113{clip-path:url(#SVGID_4_);fill:#FA9013;}
	.st114{clip-path:url(#SVGID_4_);fill:#FA8F13;}
	.st115{clip-path:url(#SVGID_4_);fill:#FA8E13;}
	.st116{clip-path:url(#SVGID_4_);fill:#FA8D13;}
	.st117{clip-path:url(#SVGID_4_);fill:#FA8C13;}
	.st118{clip-path:url(#SVGID_4_);fill:#FA8B13;}
	.st119{clip-path:url(#SVGID_4_);fill:#FA8A13;}
	.st120{clip-path:url(#SVGID_4_);fill:#FA8913;}
	.st121{clip-path:url(#SVGID_4_);fill:#FA8812;}
	.st122{clip-path:url(#SVGID_4_);fill:#FA8712;}
	.st123{clip-path:url(#SVGID_4_);fill:#FA8612;}
	.st124{clip-path:url(#SVGID_4_);fill:#F98512;}
	.st125{clip-path:url(#SVGID_4_);fill:#F98412;}
	.st126{clip-path:url(#SVGID_4_);fill:#F98312;}
	.st127{clip-path:url(#SVGID_4_);fill:#F98212;}
	.st128{clip-path:url(#SVGID_4_);fill:#F98112;}
	.st129{clip-path:url(#SVGID_4_);fill:#F98012;}
	.st130{clip-path:url(#SVGID_4_);fill:#F97F12;}
	.st131{clip-path:url(#SVGID_4_);fill:#F97E12;}
	.st132{clip-path:url(#SVGID_4_);fill:#F97D12;}
	.st133{clip-path:url(#SVGID_4_);fill:#F97C12;}
	.st134{clip-path:url(#SVGID_4_);fill:#F97B12;}
	.st135{clip-path:url(#SVGID_4_);fill:#F97A12;}
	.st136{clip-path:url(#SVGID_4_);fill:#F97912;}
	.st137{clip-path:url(#SVGID_4_);fill:#F97812;}
	.st138{clip-path:url(#SVGID_4_);fill:#F97712;}
	.st139{clip-path:url(#SVGID_4_);fill:#F97612;}
	.st140{clip-path:url(#SVGID_4_);fill:#F97511;}
	.st141{clip-path:url(#SVGID_4_);fill:#F97411;}
	.st142{clip-path:url(#SVGID_4_);fill:#F97311;}
	.st143{clip-path:url(#SVGID_4_);fill:#F97211;}
	.st144{clip-path:url(#SVGID_4_);fill:#F97111;}
	.st145{clip-path:url(#SVGID_4_);fill:#F97011;}
	.st146{clip-path:url(#SVGID_4_);fill:#F96F11;}
	.st147{clip-path:url(#SVGID_4_);fill:#F96E11;}
	.st148{clip-path:url(#SVGID_4_);fill:#F96D11;}
	.st149{clip-path:url(#SVGID_4_);fill:#F96C11;}
	.st150{clip-path:url(#SVGID_4_);fill:#F96B11;}
	.st151{clip-path:url(#SVGID_4_);fill:#F96A11;}
	.st152{clip-path:url(#SVGID_4_);fill:#F96911;}
	.st153{clip-path:url(#SVGID_4_);fill:#F96811;}
	.st154{clip-path:url(#SVGID_4_);fill:#F96711;}
	.st155{clip-path:url(#SVGID_4_);fill:#F96611;}
	.st156{clip-path:url(#SVGID_4_);fill:#F96511;}
	.st157{clip-path:url(#SVGID_4_);fill:#F96411;}
	.st158{clip-path:url(#SVGID_4_);fill:#F96311;}
	.st159{clip-path:url(#SVGID_4_);fill:#F96210;}
	.st160{clip-path:url(#SVGID_4_);fill:#F86110;}
	.st161{clip-path:url(#SVGID_4_);fill:#F86010;}
	.st162{clip-path:url(#SVGID_4_);fill:#F85F10;}
	.st163{clip-path:url(#SVGID_4_);fill:#F85E10;}
	.st164{clip-path:url(#SVGID_4_);fill:#F85D10;}
	.st165{clip-path:url(#SVGID_4_);fill:#F85C10;}
	.st166{clip-path:url(#SVGID_4_);fill:#F85B10;}
	.st167{clip-path:url(#SVGID_4_);fill:#F85A10;}
	.st168{clip-path:url(#SVGID_4_);fill:#F85910;}
	.st169{clip-path:url(#SVGID_4_);fill:#F85810;}
	.st170{clip-path:url(#SVGID_4_);fill:#F85710;}
	.st171{clip-path:url(#SVGID_4_);fill:#F85610;}
	.st172{clip-path:url(#SVGID_4_);fill:#F85510;}
	.st173{clip-path:url(#SVGID_4_);fill:#F85410;}
	.st174{clip-path:url(#SVGID_4_);fill:#F85310;}
	.st175{clip-path:url(#SVGID_4_);fill:#F85210;}
	.st176{clip-path:url(#SVGID_4_);fill:#F85110;}
	.st177{clip-path:url(#SVGID_4_);fill:#F85010;}
	.st178{clip-path:url(#SVGID_4_);fill:#F84F0F;}
	.st179{clip-path:url(#SVGID_4_);fill:#F84E0F;}
	.st180{clip-path:url(#SVGID_4_);fill:#F84D0F;}
	.st181{clip-path:url(#SVGID_4_);fill:#F84C0F;}
	.st182{clip-path:url(#SVGID_4_);fill:#F84B0F;}
	.st183{clip-path:url(#SVGID_4_);fill:#F84A0F;}
	.st184{clip-path:url(#SVGID_4_);fill:#F8490F;}
	.st185{clip-path:url(#SVGID_4_);fill:#F8480F;}
	.st186{clip-path:url(#SVGID_4_);fill:#F8470F;}
	.st187{clip-path:url(#SVGID_4_);fill:#F8460F;}
	.st188{clip-path:url(#SVGID_4_);fill:#F8450F;}
	.st189{clip-path:url(#SVGID_4_);fill:#F8440F;}
	.st190{clip-path:url(#SVGID_4_);fill:#F8430F;}
	.st191{clip-path:url(#SVGID_4_);fill:#F8420F;}
	.st192{clip-path:url(#SVGID_4_);fill:#F8410F;}
	.st193{clip-path:url(#SVGID_4_);fill:#F8400F;}
	.st194{clip-path:url(#SVGID_4_);fill:#F83F0F;}
	.st195{clip-path:url(#SVGID_4_);fill:#F83E0E;}
	.st196{clip-path:url(#SVGID_4_);fill:#F83D0E;}
	.st197{clip-path:url(#SVGID_4_);fill:#F83C0E;}
	.st198{clip-path:url(#SVGID_4_);fill:#F83B0E;}
	.st199{clip-path:url(#SVGID_4_);fill:#F73A0E;}
	.st200{clip-path:url(#SVGID_4_);fill:#F7390E;}
	.st201{clip-path:url(#SVGID_4_);fill:#F7380E;}
	.st202{clip-path:url(#SVGID_4_);fill:#F7370E;}
	.st203{clip-path:url(#SVGID_4_);fill:#F7360E;}
	.st204{clip-path:url(#SVGID_4_);fill:#F7340E;}
	.st205{clip-path:url(#SVGID_4_);fill:#F7330E;}
	.st206{clip-path:url(#SVGID_4_);fill:#F7320E;}
	.st207{clip-path:url(#SVGID_4_);fill:#F7310E;}
	.st208{clip-path:url(#SVGID_4_);fill:#F7300E;}
	.st209{clip-path:url(#SVGID_4_);fill:#F72F0E;}
	.st210{clip-path:url(#SVGID_4_);fill:#F72E0E;}
	.st211{clip-path:url(#SVGID_4_);fill:#F72D0E;}
	.st212{clip-path:url(#SVGID_4_);fill:#F72C0E;}
	.st213{clip-path:url(#SVGID_4_);fill:#F72B0E;}
	.st214{clip-path:url(#SVGID_4_);fill:#F72B0D;}
	.st215{clip-path:url(#SVGID_4_);fill:#F72A0D;}
	.st216{clip-path:url(#SVGID_4_);fill:#F7290D;}
	.st217{clip-path:url(#SVGID_4_);fill:#F7280D;}
	.st218{clip-path:url(#SVGID_4_);fill:#F7270D;}
	.st219{clip-path:url(#SVGID_4_);fill:#F7260D;}
</style>
<g>
	<g>
		<path d="M21.919,23.288l-0.042-0.046l-0.042-0.046l-0.042-0.046l-0.042-0.046c1.024-0.94,1.81-2.044,2.353-3.236
			s0.844-2.472,0.9-3.762s-0.135-2.591-0.574-3.825s-1.127-2.402-2.067-3.426c-0.94-1.024-2.044-1.81-3.236-2.353
			s-2.472-0.844-3.762-0.9s-2.591,0.135-3.825,0.574S9.137,7.303,8.112,8.243c-0.46,0.422-0.876,0.882-1.245,1.373
			s-0.692,1.015-0.965,1.563S5.406,12.3,5.237,12.891s-0.285,1.201-0.345,1.822L4.83,14.707l-0.062-0.006l-0.062-0.006L4.643,14.69
			c0.061-0.637,0.18-1.262,0.353-1.868s0.402-1.193,0.681-1.755s0.61-1.098,0.989-1.601s0.805-0.975,1.277-1.407
			c1.05-0.963,2.246-1.668,3.511-2.118s2.598-0.645,3.92-0.588s2.634,0.365,3.855,0.922s2.354,1.361,3.317,2.411
			c0.467,0.509,0.877,1.055,1.228,1.631s0.642,1.183,0.872,1.813s0.397,1.281,0.5,1.948s0.141,1.349,0.111,2.039
			c-0.03,0.69-0.126,1.366-0.285,2.022s-0.382,1.291-0.665,1.899s-0.625,1.187-1.024,1.731S22.428,22.822,21.919,23.288z"/>
	</g>
	<g>
		<g>
			<path d="M10.705,23.342c0,0.015,0,0.029-0.001,0.042c-0.001,0.014-0.001,0.027-0.003,0.039s-0.003,0.024-0.004,0.036
				c-0.002,0.011-0.004,0.022-0.006,0.033s-0.005,0.02-0.007,0.03c-0.002,0.009-0.005,0.018-0.008,0.027
				c-0.003,0.008-0.005,0.016-0.008,0.024c-0.003,0.007-0.006,0.015-0.009,0.021c-0.003,0.007-0.006,0.013-0.01,0.018
				s-0.008,0.011-0.012,0.015s-0.009,0.009-0.014,0.012c-0.005,0.004-0.01,0.007-0.015,0.01c-0.005,0.003-0.011,0.005-0.016,0.007
				c-0.006,0.002-0.011,0.004-0.017,0.005s-0.012,0.002-0.018,0.003c-0.006,0.001-0.012,0.001-0.018,0.001H9.9H9.261H8.623H7.984
				c-0.016,0-0.032-0.001-0.046-0.004c-0.015-0.003-0.029-0.007-0.042-0.012s-0.026-0.012-0.038-0.02
				c-0.012-0.008-0.023-0.017-0.033-0.028c-0.01-0.011-0.019-0.023-0.027-0.038c-0.008-0.014-0.014-0.031-0.019-0.049
				c-0.005-0.018-0.009-0.038-0.012-0.06c-0.003-0.022-0.004-0.045-0.004-0.071v-0.039v-0.039v-0.039v-0.039
				c0-0.011,0-0.021,0.001-0.031s0.001-0.02,0.002-0.03c0.001-0.01,0.002-0.019,0.003-0.028c0.001-0.009,0.002-0.018,0.004-0.026
				c0.002-0.008,0.003-0.017,0.005-0.025s0.004-0.017,0.006-0.025s0.005-0.017,0.007-0.025s0.006-0.017,0.009-0.025
				s0.006-0.017,0.01-0.026s0.008-0.018,0.012-0.027c0.004-0.009,0.009-0.018,0.014-0.028c0.005-0.009,0.01-0.019,0.015-0.028
				c0.005-0.01,0.011-0.02,0.017-0.03s0.012-0.021,0.019-0.032c0.007-0.011,0.013-0.022,0.02-0.034
				c0.007-0.012,0.015-0.024,0.022-0.036l0.458-0.713l0.458-0.713l0.458-0.713L9.76,19.92H9.316H8.872H8.428H7.984
				c-0.012,0-0.024-0.002-0.035-0.005c-0.011-0.003-0.021-0.008-0.031-0.014c-0.01-0.006-0.019-0.014-0.028-0.024
				c-0.009-0.01-0.016-0.021-0.024-0.033c-0.007-0.013-0.014-0.027-0.019-0.044c-0.005-0.017-0.01-0.035-0.014-0.056
				c-0.004-0.021-0.006-0.043-0.008-0.068c-0.002-0.025-0.003-0.051-0.003-0.079c0-0.014,0-0.027,0.001-0.04
				s0.001-0.026,0.002-0.038c0.001-0.012,0.002-0.024,0.003-0.035s0.002-0.022,0.004-0.032s0.003-0.02,0.005-0.03
				c0.002-0.009,0.004-0.018,0.007-0.027s0.005-0.016,0.008-0.024c0.003-0.007,0.006-0.015,0.01-0.021
				c0.003-0.007,0.007-0.013,0.011-0.018s0.008-0.011,0.012-0.015c0.004-0.005,0.009-0.009,0.013-0.012
				c0.005-0.004,0.009-0.007,0.014-0.01c0.005-0.003,0.01-0.005,0.016-0.007s0.011-0.004,0.017-0.005
				c0.006-0.001,0.012-0.002,0.019-0.003c0.006-0.001,0.013-0.001,0.02-0.001h0.595h0.595h0.595h0.595c0.008,0,0.017,0,0.025,0.001
				c0.008,0.001,0.016,0.001,0.023,0.003c0.007,0.001,0.015,0.003,0.022,0.004s0.014,0.004,0.02,0.006
				c0.007,0.002,0.013,0.005,0.019,0.008c0.006,0.003,0.012,0.007,0.017,0.01s0.011,0.008,0.016,0.013
				c0.005,0.005,0.01,0.01,0.015,0.015c0.005,0.005,0.009,0.011,0.013,0.017c0.004,0.006,0.008,0.013,0.012,0.02
				c0.004,0.007,0.007,0.014,0.01,0.022s0.006,0.016,0.009,0.024c0.003,0.008,0.005,0.017,0.007,0.027s0.004,0.02,0.005,0.031
				c0.001,0.011,0.002,0.022,0.003,0.034c0.001,0.012,0.001,0.024,0.001,0.037v0.037v0.037v0.037v0.037c0,0.011,0,0.021-0.001,0.032
				c0,0.01-0.001,0.021-0.002,0.031c-0.001,0.01-0.002,0.02-0.003,0.029c-0.001,0.01-0.002,0.019-0.004,0.028
				s-0.003,0.018-0.005,0.028s-0.004,0.018-0.006,0.027s-0.005,0.018-0.007,0.027s-0.006,0.018-0.009,0.027s-0.006,0.018-0.01,0.027
				s-0.008,0.018-0.012,0.028c-0.004,0.009-0.009,0.019-0.014,0.029c-0.005,0.01-0.01,0.02-0.015,0.03
				c-0.005,0.01-0.011,0.02-0.017,0.031c-0.006,0.011-0.012,0.021-0.019,0.033c-0.007,0.011-0.013,0.023-0.02,0.034
				s-0.015,0.024-0.022,0.036l-0.455,0.713l-0.455,0.713l-0.455,0.713l-0.455,0.713h0.487h0.487h0.487h0.487
				c0.006,0,0.012,0,0.018,0.001s0.012,0.002,0.017,0.003c0.006,0.001,0.011,0.003,0.016,0.005c0.005,0.002,0.01,0.004,0.015,0.007
				c0.005,0.003,0.01,0.006,0.014,0.009s0.009,0.008,0.013,0.012s0.008,0.009,0.012,0.015s0.007,0.011,0.011,0.017
				s0.007,0.013,0.01,0.02s0.006,0.015,0.009,0.023c0.003,0.008,0.006,0.017,0.008,0.026c0.003,0.009,0.005,0.019,0.007,0.03
				s0.004,0.021,0.006,0.033c0.002,0.011,0.003,0.023,0.004,0.036s0.002,0.026,0.003,0.039
				C10.705,23.313,10.705,23.328,10.705,23.342z"/>
		</g>
	</g>
	<g>
		<g>
			<path d="M16.997,24.408c0,0.01,0,0.019-0.001,0.028c0,0.009-0.001,0.018-0.002,0.026c-0.001,0.008-0.002,0.016-0.003,0.024
				c-0.001,0.008-0.002,0.015-0.004,0.022s-0.003,0.014-0.005,0.02c-0.002,0.006-0.003,0.012-0.005,0.018
				c-0.002,0.006-0.004,0.011-0.006,0.016c-0.002,0.005-0.004,0.01-0.006,0.014c-0.002,0.004-0.004,0.008-0.007,0.012
				c-0.002,0.004-0.005,0.007-0.008,0.01c-0.003,0.003-0.006,0.006-0.009,0.008c-0.003,0.002-0.007,0.005-0.01,0.006
				c-0.004,0.002-0.007,0.003-0.011,0.005c-0.004,0.001-0.008,0.002-0.011,0.003s-0.008,0.002-0.012,0.002s-0.008,0.001-0.012,0.001
				H16.46h-0.426h-0.426h-0.426c-0.011,0-0.021-0.001-0.031-0.003s-0.019-0.004-0.028-0.008c-0.009-0.004-0.017-0.008-0.025-0.013
				c-0.008-0.005-0.015-0.012-0.022-0.019c-0.007-0.007-0.013-0.016-0.018-0.025c-0.005-0.01-0.01-0.02-0.013-0.032
				s-0.006-0.025-0.008-0.04c-0.002-0.014-0.003-0.03-0.003-0.047V24.41v-0.026v-0.026v-0.026c0-0.007,0-0.014,0-0.021
				c0-0.007,0.001-0.013,0.001-0.02s0.001-0.013,0.002-0.019s0.002-0.012,0.003-0.018c0.001-0.006,0.002-0.011,0.003-0.017
				c0.001-0.006,0.003-0.011,0.004-0.017s0.003-0.011,0.005-0.017c0.002-0.006,0.004-0.011,0.006-0.017
				c0.002-0.006,0.004-0.011,0.007-0.017s0.005-0.012,0.008-0.018c0.003-0.006,0.006-0.012,0.009-0.018
				c0.003-0.006,0.007-0.013,0.01-0.019c0.004-0.006,0.007-0.013,0.011-0.02s0.008-0.014,0.012-0.021
				c0.004-0.007,0.009-0.015,0.014-0.023s0.01-0.016,0.015-0.024l0.305-0.475l0.305-0.475l0.305-0.475l0.305-0.475H16.07h-0.296
				h-0.296h-0.296c-0.008,0-0.016-0.001-0.023-0.003c-0.007-0.002-0.014-0.005-0.021-0.01c-0.007-0.004-0.013-0.01-0.018-0.016
				c-0.006-0.006-0.011-0.014-0.016-0.022c-0.005-0.008-0.009-0.018-0.013-0.029s-0.007-0.023-0.009-0.037
				c-0.002-0.014-0.004-0.029-0.005-0.045c-0.001-0.016-0.002-0.034-0.002-0.053c0-0.009,0-0.018,0-0.027s0.001-0.017,0.001-0.025
				s0.001-0.016,0.002-0.023c0.001-0.007,0.002-0.015,0.003-0.022c0.001-0.007,0.002-0.014,0.004-0.02
				c0.001-0.006,0.003-0.012,0.005-0.018c0.002-0.006,0.004-0.011,0.005-0.016c0.002-0.005,0.004-0.01,0.006-0.014
				s0.005-0.008,0.007-0.012c0.003-0.004,0.005-0.007,0.008-0.01s0.006-0.006,0.009-0.008c0.003-0.002,0.006-0.005,0.01-0.006
				c0.003-0.002,0.007-0.003,0.01-0.005c0.004-0.001,0.007-0.002,0.011-0.003c0.004-0.001,0.008-0.002,0.012-0.002
				c0.004,0,0.009-0.001,0.013-0.001h0.397h0.397h0.397h0.397c0.006,0,0.011,0,0.016,0.001c0.005,0,0.01,0.001,0.015,0.002
				c0.005,0.001,0.01,0.002,0.015,0.003c0.005,0.001,0.009,0.002,0.014,0.004c0.004,0.002,0.009,0.003,0.013,0.005
				c0.004,0.002,0.008,0.004,0.012,0.007c0.004,0.003,0.007,0.005,0.011,0.008c0.003,0.003,0.007,0.006,0.01,0.01
				s0.006,0.007,0.009,0.011s0.005,0.008,0.008,0.013s0.005,0.009,0.007,0.015c0.002,0.005,0.004,0.011,0.006,0.016
				c0.002,0.006,0.003,0.012,0.005,0.018c0.001,0.006,0.002,0.013,0.003,0.02c0.001,0.007,0.002,0.015,0.002,0.023
				c0,0.008,0.001,0.016,0.001,0.025v0.025v0.025v0.025v0.025c0,0.007,0,0.014,0,0.021s-0.001,0.014-0.001,0.02
				c-0.001,0.007-0.001,0.013-0.002,0.02c-0.001,0.006-0.002,0.013-0.003,0.019c-0.001,0.006-0.002,0.012-0.004,0.018
				c-0.001,0.006-0.003,0.012-0.004,0.018s-0.003,0.012-0.005,0.018s-0.004,0.012-0.006,0.018c-0.002,0.006-0.004,0.012-0.007,0.018
				c-0.002,0.006-0.005,0.012-0.008,0.019c-0.003,0.006-0.006,0.013-0.009,0.019c-0.003,0.006-0.007,0.013-0.01,0.02
				c-0.004,0.007-0.007,0.013-0.011,0.021c-0.004,0.007-0.008,0.014-0.013,0.022s-0.009,0.015-0.014,0.023
				c-0.005,0.008-0.01,0.016-0.015,0.024l-0.304,0.475l-0.304,0.475l-0.304,0.475l-0.304,0.475h0.324h0.324h0.324h0.324
				c0.004,0,0.008,0,0.012,0.001s0.008,0.001,0.011,0.002c0.004,0.001,0.007,0.002,0.011,0.003c0.004,0.001,0.007,0.003,0.01,0.005
				c0.003,0.002,0.007,0.004,0.01,0.006c0.003,0.002,0.006,0.005,0.009,0.008c0.003,0.003,0.006,0.006,0.008,0.01
				s0.005,0.007,0.007,0.011c0.002,0.004,0.005,0.009,0.007,0.013c0.002,0.005,0.004,0.01,0.006,0.015
				c0.002,0.006,0.004,0.011,0.005,0.018s0.003,0.013,0.005,0.02s0.003,0.014,0.004,0.022c0.001,0.008,0.002,0.016,0.003,0.024
				s0.001,0.017,0.002,0.026C16.996,24.389,16.997,24.399,16.997,24.408z"/>
		</g>
	</g>
	<g>
		<path d="M11.321,14.423c-0.15,0-0.3-0.009-0.449-0.028s-0.297-0.046-0.443-0.083s-0.291-0.083-0.432-0.139
			s-0.281-0.12-0.416-0.195l0.03-0.055l0.03-0.055l0.03-0.055l0.03-0.055c0.244,0.134,0.5,0.235,0.763,0.304s0.533,0.106,0.803,0.11
			s0.541-0.024,0.806-0.084s0.525-0.154,0.773-0.279l0.028,0.056l0.028,0.056l0.028,0.056l0.028,0.056
			c-0.129,0.065-0.261,0.122-0.395,0.171s-0.27,0.09-0.407,0.122s-0.276,0.057-0.416,0.073S11.462,14.423,11.321,14.423z"/>
	</g>
	<g>
		<path d="M18.855,14.423c-0.15,0-0.3-0.009-0.449-0.028s-0.297-0.046-0.443-0.083s-0.291-0.083-0.432-0.139
			s-0.281-0.12-0.416-0.195l0.03-0.055l0.03-0.055l0.03-0.055l0.03-0.055c0.244,0.134,0.501,0.235,0.764,0.304
			s0.533,0.106,0.803,0.11s0.541-0.024,0.806-0.084s0.525-0.154,0.773-0.279l0.028,0.056l0.028,0.056l0.028,0.056l0.028,0.056
			c-0.129,0.065-0.261,0.122-0.395,0.171s-0.27,0.09-0.407,0.122s-0.276,0.057-0.416,0.073S18.995,14.423,18.855,14.423z"/>
	</g>
</g>
</svg>
