<?xml version="1.0" encoding="utf-8"?>
<!-- Generator: Adobe Illustrator 19.1.0, SVG Export Plug-In . SVG Version: 6.00 Build 0)  -->
<svg version="1.1" id="Layer_1" xmlns="http://www.w3.org/2000/svg" xmlns:xlink="http://www.w3.org/1999/xlink" x="0px" y="0px"
	 viewBox="0 0 29.91 30.086" style="enable-background:new 0 0 29.91 30.086;" xml:space="preserve">
<style type="text/css">
	.st0{fill:#4D4D4D;}
	.st1{fill-rule:evenodd;clip-rule:evenodd;fill:#4C4C4C;}
	.st2{fill:#4C4C4C;}
	.st3{fill:#383330;}
	.st4{fill:#1F1A17;}
	.st5{fill:#4D4C4C;}
	.st6{fill:none;stroke:#000000;stroke-width:0.3;stroke-miterlimit:10;}
	.st7{fill:#E61413;}
	.st8{fill:#5F5357;}
	.st9{fill:#115C78;}
	.st10{fill-rule:evenodd;clip-rule:evenodd;fill:#4D4D4D;}
	.st11{fill-rule:evenodd;clip-rule:evenodd;}
	.st12{fill:#FFFFFF;}
	.st13{fill:none;}
	.st14{fill:#231F20;}
	.st15{clip-path:url(#SVGID_2_);}
	.st16{clip-path:url(#SVGID_4_);fill:#FCF118;}
	.st17{clip-path:url(#SVGID_4_);fill:#FCF018;}
	.st18{clip-path:url(#SVGID_4_);fill:#FCEF18;}
	.st19{clip-path:url(#SVGID_4_);fill:#FCEE18;}
	.st20{clip-path:url(#SVGID_4_);fill:#FCED18;}
	.st21{clip-path:url(#SVGID_4_);fill:#FCEC18;}
	.st22{clip-path:url(#SVGID_4_);fill:#FCEB18;}
	.st23{clip-path:url(#SVGID_4_);fill:#FCEA18;}
	.st24{clip-path:url(#SVGID_4_);fill:#FCE918;}
	.st25{clip-path:url(#SVGID_4_);fill:#FCE818;}
	.st26{clip-path:url(#SVGID_4_);fill:#FCE718;}
	.st27{clip-path:url(#SVGID_4_);fill:#FCE617;}
	.st28{clip-path:url(#SVGID_4_);fill:#FCE517;}
	.st29{clip-path:url(#SVGID_4_);fill:#FCE417;}
	.st30{clip-path:url(#SVGID_4_);fill:#FCE317;}
	.st31{clip-path:url(#SVGID_4_);fill:#FCE217;}
	.st32{clip-path:url(#SVGID_4_);fill:#FCE117;}
	.st33{clip-path:url(#SVGID_4_);fill:#FCE017;}
	.st34{clip-path:url(#SVGID_4_);fill:#FCDF17;}
	.st35{clip-path:url(#SVGID_4_);fill:#FCDE17;}
	.st36{clip-path:url(#SVGID_4_);fill:#FCDD17;}
	.st37{clip-path:url(#SVGID_4_);fill:#FCDC17;}
	.st38{clip-path:url(#SVGID_4_);fill:#FCDB17;}
	.st39{clip-path:url(#SVGID_4_);fill:#FCDA17;}
	.st40{clip-path:url(#SVGID_4_);fill:#FCD917;}
	.st41{clip-path:url(#SVGID_4_);fill:#FCD817;}
	.st42{clip-path:url(#SVGID_4_);fill:#FCD717;}
	.st43{clip-path:url(#SVGID_4_);fill:#FCD617;}
	.st44{clip-path:url(#SVGID_4_);fill:#FCD517;}
	.st45{clip-path:url(#SVGID_4_);fill:#FCD416;}
	.st46{clip-path:url(#SVGID_4_);fill:#FCD316;}
	.st47{clip-path:url(#SVGID_4_);fill:#FBD216;}
	.st48{clip-path:url(#SVGID_4_);fill:#FBD116;}
	.st49{clip-path:url(#SVGID_4_);fill:#FBD016;}
	.st50{clip-path:url(#SVGID_4_);fill:#FBCF16;}
	.st51{clip-path:url(#SVGID_4_);fill:#FBCE16;}
	.st52{clip-path:url(#SVGID_4_);fill:#FBCD16;}
	.st53{clip-path:url(#SVGID_4_);fill:#FBCC16;}
	.st54{clip-path:url(#SVGID_4_);fill:#FBCB16;}
	.st55{clip-path:url(#SVGID_4_);fill:#FBCA16;}
	.st56{clip-path:url(#SVGID_4_);fill:#FBC916;}
	.st57{clip-path:url(#SVGID_4_);fill:#FBC816;}
	.st58{clip-path:url(#SVGID_4_);fill:#FBC716;}
	.st59{clip-path:url(#SVGID_4_);fill:#FBC616;}
	.st60{clip-path:url(#SVGID_4_);fill:#FBC516;}
	.st61{clip-path:url(#SVGID_4_);fill:#FBC416;}
	.st62{clip-path:url(#SVGID_4_);fill:#FBC316;}
	.st63{clip-path:url(#SVGID_4_);fill:#FBC216;}
	.st64{clip-path:url(#SVGID_4_);fill:#FBC115;}
	.st65{clip-path:url(#SVGID_4_);fill:#FBC015;}
	.st66{clip-path:url(#SVGID_4_);fill:#FBBF15;}
	.st67{clip-path:url(#SVGID_4_);fill:#FBBE15;}
	.st68{clip-path:url(#SVGID_4_);fill:#FBBD15;}
	.st69{clip-path:url(#SVGID_4_);fill:#FBBC15;}
	.st70{clip-path:url(#SVGID_4_);fill:#FBBB15;}
	.st71{clip-path:url(#SVGID_4_);fill:#FBBA15;}
	.st72{clip-path:url(#SVGID_4_);fill:#FBB915;}
	.st73{clip-path:url(#SVGID_4_);fill:#FBB815;}
	.st74{clip-path:url(#SVGID_4_);fill:#FBB715;}
	.st75{clip-path:url(#SVGID_4_);fill:#FBB615;}
	.st76{clip-path:url(#SVGID_4_);fill:#FBB515;}
	.st77{clip-path:url(#SVGID_4_);fill:#FBB415;}
	.st78{clip-path:url(#SVGID_4_);fill:#FBB315;}
	.st79{clip-path:url(#SVGID_4_);fill:#FBB215;}
	.st80{clip-path:url(#SVGID_4_);fill:#FBB115;}
	.st81{clip-path:url(#SVGID_4_);fill:#FBB015;}
	.st82{clip-path:url(#SVGID_4_);fill:#FBAF15;}
	.st83{clip-path:url(#SVGID_4_);fill:#FAAE15;}
	.st84{clip-path:url(#SVGID_4_);fill:#FAAD14;}
	.st85{clip-path:url(#SVGID_4_);fill:#FAAC14;}
	.st86{clip-path:url(#SVGID_4_);fill:#FAAB14;}
	.st87{clip-path:url(#SVGID_4_);fill:#FAAA14;}
	.st88{clip-path:url(#SVGID_4_);fill:#FAA914;}
	.st89{clip-path:url(#SVGID_4_);fill:#FAA814;}
	.st90{clip-path:url(#SVGID_4_);fill:#FAA714;}
	.st91{clip-path:url(#SVGID_4_);fill:#FAA614;}
	.st92{clip-path:url(#SVGID_4_);fill:#FAA514;}
	.st93{clip-path:url(#SVGID_4_);fill:#FAA414;}
	.st94{clip-path:url(#SVGID_4_);fill:#FAA314;}
	.st95{clip-path:url(#SVGID_4_);fill:#FAA214;}
	.st96{clip-path:url(#SVGID_4_);fill:#FAA114;}
	.st97{clip-path:url(#SVGID_4_);fill:#FAA014;}
	.st98{clip-path:url(#SVGID_4_);fill:#FA9F14;}
	.st99{clip-path:url(#SVGID_4_);fill:#FA9E14;}
	.st100{clip-path:url(#SVGID_4_);fill:#FA9D14;}
	.st101{clip-path:url(#SVGID_4_);fill:#FA9C14;}
	.st102{clip-path:url(#SVGID_4_);fill:#FA9B14;}
	.st103{clip-path:url(#SVGID_4_);fill:#FA9A13;}
	.st104{clip-path:url(#SVGID_4_);fill:#FA9913;}
	.st105{clip-path:url(#SVGID_4_);fill:#FA9813;}
	.st106{clip-path:url(#SVGID_4_);fill:#FA9713;}
	.st107{clip-path:url(#SVGID_4_);fill:#FA9613;}
	.st108{clip-path:url(#SVGID_4_);fill:#FA9513;}
	.st109{clip-path:url(#SVGID_4_);fill:#FA9413;}
	.st110{clip-path:url(#SVGID_4_);fill:#FA9313;}
	.st111{clip-path:url(#SVGID_4_);fill:#FA9213;}
	.st112{clip-path:url(#SVGID_4_);fill:#FA9113;}
	.st113{clip-path:url(#SVGID_4_);fill:#FA9013;}
	.st114{clip-path:url(#SVGID_4_);fill:#FA8F13;}
	.st115{clip-path:url(#SVGID_4_);fill:#FA8E13;}
	.st116{clip-path:url(#SVGID_4_);fill:#FA8D13;}
	.st117{clip-path:url(#SVGID_4_);fill:#FA8C13;}
	.st118{clip-path:url(#SVGID_4_);fill:#FA8B13;}
	.st119{clip-path:url(#SVGID_4_);fill:#FA8A13;}
	.st120{clip-path:url(#SVGID_4_);fill:#FA8913;}
	.st121{clip-path:url(#SVGID_4_);fill:#FA8812;}
	.st122{clip-path:url(#SVGID_4_);fill:#FA8712;}
	.st123{clip-path:url(#SVGID_4_);fill:#FA8612;}
	.st124{clip-path:url(#SVGID_4_);fill:#F98512;}
	.st125{clip-path:url(#SVGID_4_);fill:#F98412;}
	.st126{clip-path:url(#SVGID_4_);fill:#F98312;}
	.st127{clip-path:url(#SVGID_4_);fill:#F98212;}
	.st128{clip-path:url(#SVGID_4_);fill:#F98112;}
	.st129{clip-path:url(#SVGID_4_);fill:#F98012;}
	.st130{clip-path:url(#SVGID_4_);fill:#F97F12;}
	.st131{clip-path:url(#SVGID_4_);fill:#F97E12;}
	.st132{clip-path:url(#SVGID_4_);fill:#F97D12;}
	.st133{clip-path:url(#SVGID_4_);fill:#F97C12;}
	.st134{clip-path:url(#SVGID_4_);fill:#F97B12;}
	.st135{clip-path:url(#SVGID_4_);fill:#F97A12;}
	.st136{clip-path:url(#SVGID_4_);fill:#F97912;}
	.st137{clip-path:url(#SVGID_4_);fill:#F97812;}
	.st138{clip-path:url(#SVGID_4_);fill:#F97712;}
	.st139{clip-path:url(#SVGID_4_);fill:#F97612;}
	.st140{clip-path:url(#SVGID_4_);fill:#F97511;}
	.st141{clip-path:url(#SVGID_4_);fill:#F97411;}
	.st142{clip-path:url(#SVGID_4_);fill:#F97311;}
	.st143{clip-path:url(#SVGID_4_);fill:#F97211;}
	.st144{clip-path:url(#SVGID_4_);fill:#F97111;}
	.st145{clip-path:url(#SVGID_4_);fill:#F97011;}
	.st146{clip-path:url(#SVGID_4_);fill:#F96F11;}
	.st147{clip-path:url(#SVGID_4_);fill:#F96E11;}
	.st148{clip-path:url(#SVGID_4_);fill:#F96D11;}
	.st149{clip-path:url(#SVGID_4_);fill:#F96C11;}
	.st150{clip-path:url(#SVGID_4_);fill:#F96B11;}
	.st151{clip-path:url(#SVGID_4_);fill:#F96A11;}
	.st152{clip-path:url(#SVGID_4_);fill:#F96911;}
	.st153{clip-path:url(#SVGID_4_);fill:#F96811;}
	.st154{clip-path:url(#SVGID_4_);fill:#F96711;}
	.st155{clip-path:url(#SVGID_4_);fill:#F96611;}
	.st156{clip-path:url(#SVGID_4_);fill:#F96511;}
	.st157{clip-path:url(#SVGID_4_);fill:#F96411;}
	.st158{clip-path:url(#SVGID_4_);fill:#F96311;}
	.st159{clip-path:url(#SVGID_4_);fill:#F96210;}
	.st160{clip-path:url(#SVGID_4_);fill:#F86110;}
	.st161{clip-path:url(#SVGID_4_);fill:#F86010;}
	.st162{clip-path:url(#SVGID_4_);fill:#F85F10;}
	.st163{clip-path:url(#SVGID_4_);fill:#F85E10;}
	.st164{clip-path:url(#SVGID_4_);fill:#F85D10;}
	.st165{clip-path:url(#SVGID_4_);fill:#F85C10;}
	.st166{clip-path:url(#SVGID_4_);fill:#F85B10;}
	.st167{clip-path:url(#SVGID_4_);fill:#F85A10;}
	.st168{clip-path:url(#SVGID_4_);fill:#F85910;}
	.st169{clip-path:url(#SVGID_4_);fill:#F85810;}
	.st170{clip-path:url(#SVGID_4_);fill:#F85710;}
	.st171{clip-path:url(#SVGID_4_);fill:#F85610;}
	.st172{clip-path:url(#SVGID_4_);fill:#F85510;}
	.st173{clip-path:url(#SVGID_4_);fill:#F85410;}
	.st174{clip-path:url(#SVGID_4_);fill:#F85310;}
	.st175{clip-path:url(#SVGID_4_);fill:#F85210;}
	.st176{clip-path:url(#SVGID_4_);fill:#F85110;}
	.st177{clip-path:url(#SVGID_4_);fill:#F85010;}
	.st178{clip-path:url(#SVGID_4_);fill:#F84F0F;}
	.st179{clip-path:url(#SVGID_4_);fill:#F84E0F;}
	.st180{clip-path:url(#SVGID_4_);fill:#F84D0F;}
	.st181{clip-path:url(#SVGID_4_);fill:#F84C0F;}
	.st182{clip-path:url(#SVGID_4_);fill:#F84B0F;}
	.st183{clip-path:url(#SVGID_4_);fill:#F84A0F;}
	.st184{clip-path:url(#SVGID_4_);fill:#F8490F;}
	.st185{clip-path:url(#SVGID_4_);fill:#F8480F;}
	.st186{clip-path:url(#SVGID_4_);fill:#F8470F;}
	.st187{clip-path:url(#SVGID_4_);fill:#F8460F;}
	.st188{clip-path:url(#SVGID_4_);fill:#F8450F;}
	.st189{clip-path:url(#SVGID_4_);fill:#F8440F;}
	.st190{clip-path:url(#SVGID_4_);fill:#F8430F;}
	.st191{clip-path:url(#SVGID_4_);fill:#F8420F;}
	.st192{clip-path:url(#SVGID_4_);fill:#F8410F;}
	.st193{clip-path:url(#SVGID_4_);fill:#F8400F;}
	.st194{clip-path:url(#SVGID_4_);fill:#F83F0F;}
	.st195{clip-path:url(#SVGID_4_);fill:#F83E0E;}
	.st196{clip-path:url(#SVGID_4_);fill:#F83D0E;}
	.st197{clip-path:url(#SVGID_4_);fill:#F83C0E;}
	.st198{clip-path:url(#SVGID_4_);fill:#F83B0E;}
	.st199{clip-path:url(#SVGID_4_);fill:#F73A0E;}
	.st200{clip-path:url(#SVGID_4_);fill:#F7390E;}
	.st201{clip-path:url(#SVGID_4_);fill:#F7380E;}
	.st202{clip-path:url(#SVGID_4_);fill:#F7370E;}
	.st203{clip-path:url(#SVGID_4_);fill:#F7360E;}
	.st204{clip-path:url(#SVGID_4_);fill:#F7340E;}
	.st205{clip-path:url(#SVGID_4_);fill:#F7330E;}
	.st206{clip-path:url(#SVGID_4_);fill:#F7320E;}
	.st207{clip-path:url(#SVGID_4_);fill:#F7310E;}
	.st208{clip-path:url(#SVGID_4_);fill:#F7300E;}
	.st209{clip-path:url(#SVGID_4_);fill:#F72F0E;}
	.st210{clip-path:url(#SVGID_4_);fill:#F72E0E;}
	.st211{clip-path:url(#SVGID_4_);fill:#F72D0E;}
	.st212{clip-path:url(#SVGID_4_);fill:#F72C0E;}
	.st213{clip-path:url(#SVGID_4_);fill:#F72B0E;}
	.st214{clip-path:url(#SVGID_4_);fill:#F72B0D;}
	.st215{clip-path:url(#SVGID_4_);fill:#F72A0D;}
	.st216{clip-path:url(#SVGID_4_);fill:#F7290D;}
	.st217{clip-path:url(#SVGID_4_);fill:#F7280D;}
	.st218{clip-path:url(#SVGID_4_);fill:#F7270D;}
	.st219{clip-path:url(#SVGID_4_);fill:#F7260D;}
</style>
<g>
	<g>
		<path class="st0" d="M24.006,6.1h-4.489h-4.489H10.54H6.051c-0.341,0-0.665,0.069-0.961,0.194s-0.562,0.306-0.785,0.53
			S3.9,7.315,3.775,7.61S3.581,8.23,3.581,8.571v0.548v0.548v0.548v0.548v2.688v2.688v2.688v2.688c0,0.341,0.069,0.665,0.194,0.961
			c0.125,0.295,0.306,0.562,0.53,0.785s0.49,0.405,0.785,0.53c0.295,0.125,0.62,0.194,0.961,0.194h4.489h4.489h4.489h4.489
			c0.341,0,0.665-0.069,0.961-0.194c0.295-0.125,0.562-0.306,0.785-0.53s0.405-0.49,0.53-0.785c0.125-0.295,0.194-0.62,0.194-0.961
			v-2.688v-2.688v-2.688v-2.688v-0.548V9.667V9.119V8.571c0-0.341-0.069-0.665-0.194-0.961c-0.125-0.295-0.306-0.562-0.53-0.785
			s-0.49-0.405-0.785-0.53C24.672,6.17,24.347,6.1,24.006,6.1z M26.233,10.763v2.688v2.688v2.688v2.688
			c0,0.312-0.061,0.607-0.172,0.875c-0.111,0.267-0.272,0.507-0.473,0.707s-0.44,0.362-0.707,0.473
			c-0.267,0.111-0.563,0.172-0.875,0.172h-4.489h-4.489H10.54H6.051c-0.312,0-0.607-0.061-0.875-0.172
			c-0.267-0.111-0.507-0.272-0.707-0.473s-0.362-0.44-0.473-0.707c-0.111-0.267-0.172-0.563-0.172-0.875v-2.688v-2.688v-2.688
			v-2.688v-0.1v-0.1v-0.1v-0.1h0.1h0.1h0.1h0.1h5.402h5.402h5.402h5.402h0.1h0.1h0.1h0.1v0.1v0.1v0.1V10.763z M26.233,9.719v0.1v0.1
			v0.1v0.1h-0.1h-0.1h-0.1h-0.1h-5.402h-5.402H9.627H4.225h-0.1h-0.1h-0.1h-0.1v-0.1v-0.1v-0.1v-0.1V9.432V9.145V8.858V8.571
			c0-0.312,0.061-0.607,0.172-0.875S4.269,7.19,4.47,6.989s0.44-0.362,0.707-0.473s0.563-0.172,0.875-0.172h4.489h4.489h4.489h4.489
			c0.312,0,0.607,0.061,0.875,0.172c0.267,0.111,0.507,0.272,0.707,0.473s0.362,0.44,0.473,0.707
			c0.111,0.267,0.172,0.563,0.172,0.875v0.287v0.287v0.287V9.719z"/>
	</g>
	<g>
		<path class="st0" d="M5.817,7.771c-0.067,0-0.131,0.014-0.19,0.038s-0.111,0.06-0.155,0.105S5.392,8.01,5.368,8.068
			S5.329,8.191,5.329,8.258s0.014,0.131,0.038,0.189s0.06,0.111,0.105,0.155s0.097,0.08,0.155,0.105s0.122,0.038,0.19,0.038
			c0.067,0,0.131-0.014,0.189-0.038s0.111-0.06,0.155-0.105s0.08-0.097,0.105-0.155s0.038-0.122,0.038-0.189S6.29,8.127,6.266,8.068
			s-0.06-0.111-0.105-0.155s-0.097-0.08-0.155-0.105S5.884,7.771,5.817,7.771z"/>
	</g>
	<g>
		<path class="st0" d="M8.505,7.771c-0.067,0-0.131,0.014-0.189,0.038S8.204,7.869,8.16,7.913S8.08,8.01,8.056,8.068
			S8.017,8.191,8.017,8.258s0.014,0.131,0.038,0.189s0.06,0.111,0.105,0.155s0.097,0.08,0.155,0.105s0.122,0.038,0.189,0.038
			c0.067,0,0.131-0.014,0.19-0.038s0.111-0.06,0.155-0.105s0.08-0.097,0.105-0.155s0.038-0.122,0.038-0.189S8.978,8.127,8.954,8.068
			s-0.06-0.111-0.105-0.155s-0.097-0.08-0.155-0.105S8.572,7.771,8.505,7.771z"/>
	</g>
	<g>
		<path class="st0" d="M11.706,8.258c0-0.067-0.014-0.131-0.038-0.189s-0.06-0.111-0.105-0.155s-0.097-0.08-0.155-0.105
			s-0.122-0.038-0.189-0.038c-0.067,0-0.131,0.014-0.19,0.038s-0.111,0.06-0.155,0.105s-0.08,0.097-0.105,0.155
			s-0.038,0.122-0.038,0.189s0.014,0.131,0.038,0.189s0.06,0.111,0.105,0.155s0.097,0.08,0.155,0.105s0.122,0.038,0.19,0.038
			c0.067,0,0.131-0.014,0.189-0.038s0.111-0.06,0.155-0.105s0.08-0.097,0.105-0.155S11.706,8.325,11.706,8.258z"/>
	</g>
	<g>
		<path class="st0" d="M18.839,20.437c0.007,0,0.014-0.001,0.021-0.003c0.007-0.002,0.014-0.004,0.021-0.008
			s0.014-0.007,0.021-0.012c0.007-0.005,0.013-0.011,0.02-0.017l0.835-0.835l0.835-0.835l0.835-0.835l0.835-0.835
			c0.006-0.006,0.012-0.013,0.017-0.02c0.005-0.007,0.009-0.014,0.012-0.021s0.006-0.014,0.008-0.021
			c0.002-0.007,0.003-0.014,0.003-0.021c0-0.007-0.001-0.014-0.003-0.021c-0.002-0.007-0.004-0.014-0.008-0.021
			s-0.007-0.014-0.012-0.021c-0.005-0.007-0.011-0.013-0.017-0.02l-0.835-0.842l-0.835-0.842l-0.835-0.842l-0.835-0.842
			c-0.006-0.006-0.013-0.012-0.019-0.016c-0.007-0.005-0.013-0.009-0.02-0.012s-0.014-0.006-0.021-0.007
			c-0.007-0.002-0.014-0.003-0.021-0.003s-0.014,0.001-0.021,0.003c-0.007,0.002-0.014,0.004-0.021,0.008s-0.014,0.007-0.021,0.012
			c-0.007,0.005-0.013,0.011-0.02,0.017s-0.012,0.013-0.017,0.02c-0.005,0.007-0.009,0.014-0.012,0.021s-0.006,0.014-0.008,0.021
			c-0.002,0.007-0.003,0.014-0.003,0.021s0.001,0.014,0.003,0.021c0.002,0.007,0.004,0.014,0.008,0.021s0.007,0.014,0.012,0.021
			c0.005,0.007,0.011,0.013,0.017,0.02l0.744,0.744l0.744,0.744l0.744,0.744l0.744,0.744l0.071,0.071l0.071,0.071l0.071,0.071
			l0.071,0.071l-0.071,0.071l-0.071,0.071l-0.071,0.071l-0.071,0.071l-0.744,0.744l-0.744,0.744L19.5,19.462l-0.744,0.744
			c-0.009,0.009-0.015,0.018-0.021,0.026s-0.009,0.018-0.012,0.026s-0.004,0.017-0.006,0.024s-0.001,0.014-0.001,0.019
			c0,0.005,0,0.012,0.001,0.019c0.001,0.007,0.003,0.015,0.006,0.024s0.007,0.017,0.012,0.026c0.005,0.009,0.012,0.018,0.021,0.026
			c0.006,0.006,0.013,0.012,0.02,0.017c0.007,0.005,0.014,0.009,0.021,0.012s0.014,0.006,0.021,0.008
			C18.825,20.436,18.832,20.437,18.839,20.437z"/>
	</g>
	<g>
		<path class="st0" d="M7.796,17.031l0.835,0.842l0.835,0.842l0.835,0.842l0.835,0.842c0.006,0.006,0.013,0.012,0.019,0.016
			s0.013,0.009,0.02,0.012s0.014,0.006,0.021,0.007s0.014,0.003,0.021,0.003c0.007,0,0.014-0.001,0.021-0.003
			c0.007-0.002,0.014-0.004,0.021-0.008s0.014-0.007,0.021-0.012c0.007-0.005,0.013-0.011,0.02-0.017
			c0.013-0.013,0.023-0.027,0.029-0.04c0.007-0.014,0.01-0.028,0.01-0.042s-0.003-0.028-0.01-0.042
			c-0.007-0.014-0.016-0.027-0.03-0.041l-0.744-0.751l-0.744-0.751l-0.744-0.751L8.325,17.23l-0.07-0.071l-0.07-0.071l-0.07-0.071
			l-0.07-0.071l0.071-0.07l0.071-0.07l0.071-0.07l0.071-0.07l0.744-0.737l0.744-0.737l0.744-0.737l0.744-0.737
			c0.013-0.013,0.022-0.026,0.029-0.04s0.01-0.028,0.009-0.042s-0.003-0.028-0.01-0.042s-0.016-0.027-0.03-0.041
			c-0.006-0.006-0.013-0.012-0.02-0.017s-0.014-0.009-0.021-0.012s-0.014-0.006-0.021-0.008s-0.014-0.003-0.021-0.003
			s-0.014,0.001-0.021,0.003s-0.014,0.004-0.021,0.008s-0.014,0.007-0.021,0.012s-0.013,0.011-0.02,0.017l-0.835,0.829l-0.835,0.829
			L8.63,16.038l-0.835,0.829c-0.013,0.013-0.022,0.026-0.029,0.04s-0.01,0.028-0.01,0.042s0.003,0.028,0.01,0.042
			S7.783,17.018,7.796,17.031z"/>
	</g>
	<g>
		<path class="st0" d="M13.114,20.336c0.002,0.007,0.005,0.013,0.008,0.019s0.008,0.012,0.013,0.017s0.01,0.011,0.017,0.015
			s0.013,0.009,0.02,0.013c0.004,0.002,0.009,0.004,0.013,0.005s0.008,0.002,0.012,0.003s0.008,0.001,0.011,0.001s0.007,0,0.011,0
			c0.001,0,0.002,0,0.002,0s0.002,0,0.002,0s0.002,0,0.002,0s0.002,0,0.002,0c0.008,0,0.018-0.001,0.028-0.004
			s0.021-0.008,0.032-0.015s0.022-0.015,0.032-0.026s0.021-0.024,0.03-0.04l0.899-1.668l0.899-1.668l0.899-1.668l0.899-1.668
			c0.005-0.01,0.009-0.022,0.012-0.036c0.003-0.014,0.004-0.029,0.003-0.044s-0.006-0.03-0.014-0.043
			c-0.008-0.013-0.02-0.025-0.036-0.033c-0.006-0.003-0.013-0.006-0.02-0.009s-0.013-0.005-0.02-0.006s-0.013-0.003-0.02-0.004
			s-0.013-0.001-0.02-0.001c-0.011,0-0.02,0.001-0.03,0.003c-0.009,0.002-0.017,0.005-0.025,0.009s-0.014,0.009-0.02,0.016
			c-0.006,0.006-0.011,0.013-0.015,0.022l-0.902,1.679l-0.902,1.679l-0.902,1.679l-0.902,1.679
			c-0.006,0.011-0.011,0.021-0.015,0.029c-0.004,0.009-0.007,0.017-0.008,0.024s-0.002,0.014-0.002,0.021
			C13.111,20.324,13.113,20.33,13.114,20.336z"/>
	</g>
</g>
<g>
	<path class="st0" d="M29.901,29.935h-7.432h-7.432H7.605H0.173v-7.432v-7.432V7.639V0.207h7.432h7.432h7.432h7.432v7.432v7.432
		v7.432V29.935z M0.423,29.685H7.73h7.307h7.307h7.307v-7.307v-7.307V7.764V0.457h-7.307h-7.307H7.73H0.423v7.307v7.307v7.307
		V29.685z"/>
</g>
</svg>
