<?xml version="1.0" encoding="utf-8"?>
<!-- Generator: Adobe Illustrator 19.1.0, SVG Export Plug-In . SVG Version: 6.00 Build 0)  -->
<svg version="1.1" id="Layer_1" xmlns="http://www.w3.org/2000/svg" xmlns:xlink="http://www.w3.org/1999/xlink" x="0px" y="0px"
	 viewBox="0 0 29.91 30.086" style="enable-background:new 0 0 29.91 30.086;" xml:space="preserve">
<style type="text/css">
	.st0{fill:#4D4D4D;}
	.st1{fill-rule:evenodd;clip-rule:evenodd;fill:#4C4C4C;}
	.st2{fill:#4C4C4C;}
	.st3{fill:#383330;}
	.st4{fill:#1F1A17;}
	.st5{fill:#4D4C4C;}
	.st6{fill:none;stroke:#000000;stroke-width:0.3;stroke-miterlimit:10;}
	.st7{fill:#E61413;}
	.st8{fill:#5F5357;}
	.st9{fill:#115C78;}
	.st10{fill-rule:evenodd;clip-rule:evenodd;fill:#4D4D4D;}
	.st11{fill-rule:evenodd;clip-rule:evenodd;}
	.st12{fill:#FFFFFF;}
	.st13{fill:none;}
	.st14{fill:#231F20;}
	.st15{clip-path:url(#SVGID_2_);}
	.st16{clip-path:url(#SVGID_4_);fill:#FCF118;}
	.st17{clip-path:url(#SVGID_4_);fill:#FCF018;}
	.st18{clip-path:url(#SVGID_4_);fill:#FCEF18;}
	.st19{clip-path:url(#SVGID_4_);fill:#FCEE18;}
	.st20{clip-path:url(#SVGID_4_);fill:#FCED18;}
	.st21{clip-path:url(#SVGID_4_);fill:#FCEC18;}
	.st22{clip-path:url(#SVGID_4_);fill:#FCEB18;}
	.st23{clip-path:url(#SVGID_4_);fill:#FCEA18;}
	.st24{clip-path:url(#SVGID_4_);fill:#FCE918;}
	.st25{clip-path:url(#SVGID_4_);fill:#FCE818;}
	.st26{clip-path:url(#SVGID_4_);fill:#FCE718;}
	.st27{clip-path:url(#SVGID_4_);fill:#FCE617;}
	.st28{clip-path:url(#SVGID_4_);fill:#FCE517;}
	.st29{clip-path:url(#SVGID_4_);fill:#FCE417;}
	.st30{clip-path:url(#SVGID_4_);fill:#FCE317;}
	.st31{clip-path:url(#SVGID_4_);fill:#FCE217;}
	.st32{clip-path:url(#SVGID_4_);fill:#FCE117;}
	.st33{clip-path:url(#SVGID_4_);fill:#FCE017;}
	.st34{clip-path:url(#SVGID_4_);fill:#FCDF17;}
	.st35{clip-path:url(#SVGID_4_);fill:#FCDE17;}
	.st36{clip-path:url(#SVGID_4_);fill:#FCDD17;}
	.st37{clip-path:url(#SVGID_4_);fill:#FCDC17;}
	.st38{clip-path:url(#SVGID_4_);fill:#FCDB17;}
	.st39{clip-path:url(#SVGID_4_);fill:#FCDA17;}
	.st40{clip-path:url(#SVGID_4_);fill:#FCD917;}
	.st41{clip-path:url(#SVGID_4_);fill:#FCD817;}
	.st42{clip-path:url(#SVGID_4_);fill:#FCD717;}
	.st43{clip-path:url(#SVGID_4_);fill:#FCD617;}
	.st44{clip-path:url(#SVGID_4_);fill:#FCD517;}
	.st45{clip-path:url(#SVGID_4_);fill:#FCD416;}
	.st46{clip-path:url(#SVGID_4_);fill:#FCD316;}
	.st47{clip-path:url(#SVGID_4_);fill:#FBD216;}
	.st48{clip-path:url(#SVGID_4_);fill:#FBD116;}
	.st49{clip-path:url(#SVGID_4_);fill:#FBD016;}
	.st50{clip-path:url(#SVGID_4_);fill:#FBCF16;}
	.st51{clip-path:url(#SVGID_4_);fill:#FBCE16;}
	.st52{clip-path:url(#SVGID_4_);fill:#FBCD16;}
	.st53{clip-path:url(#SVGID_4_);fill:#FBCC16;}
	.st54{clip-path:url(#SVGID_4_);fill:#FBCB16;}
	.st55{clip-path:url(#SVGID_4_);fill:#FBCA16;}
	.st56{clip-path:url(#SVGID_4_);fill:#FBC916;}
	.st57{clip-path:url(#SVGID_4_);fill:#FBC816;}
	.st58{clip-path:url(#SVGID_4_);fill:#FBC716;}
	.st59{clip-path:url(#SVGID_4_);fill:#FBC616;}
	.st60{clip-path:url(#SVGID_4_);fill:#FBC516;}
	.st61{clip-path:url(#SVGID_4_);fill:#FBC416;}
	.st62{clip-path:url(#SVGID_4_);fill:#FBC316;}
	.st63{clip-path:url(#SVGID_4_);fill:#FBC216;}
	.st64{clip-path:url(#SVGID_4_);fill:#FBC115;}
	.st65{clip-path:url(#SVGID_4_);fill:#FBC015;}
	.st66{clip-path:url(#SVGID_4_);fill:#FBBF15;}
	.st67{clip-path:url(#SVGID_4_);fill:#FBBE15;}
	.st68{clip-path:url(#SVGID_4_);fill:#FBBD15;}
	.st69{clip-path:url(#SVGID_4_);fill:#FBBC15;}
	.st70{clip-path:url(#SVGID_4_);fill:#FBBB15;}
	.st71{clip-path:url(#SVGID_4_);fill:#FBBA15;}
	.st72{clip-path:url(#SVGID_4_);fill:#FBB915;}
	.st73{clip-path:url(#SVGID_4_);fill:#FBB815;}
	.st74{clip-path:url(#SVGID_4_);fill:#FBB715;}
	.st75{clip-path:url(#SVGID_4_);fill:#FBB615;}
	.st76{clip-path:url(#SVGID_4_);fill:#FBB515;}
	.st77{clip-path:url(#SVGID_4_);fill:#FBB415;}
	.st78{clip-path:url(#SVGID_4_);fill:#FBB315;}
	.st79{clip-path:url(#SVGID_4_);fill:#FBB215;}
	.st80{clip-path:url(#SVGID_4_);fill:#FBB115;}
	.st81{clip-path:url(#SVGID_4_);fill:#FBB015;}
	.st82{clip-path:url(#SVGID_4_);fill:#FBAF15;}
	.st83{clip-path:url(#SVGID_4_);fill:#FAAE15;}
	.st84{clip-path:url(#SVGID_4_);fill:#FAAD14;}
	.st85{clip-path:url(#SVGID_4_);fill:#FAAC14;}
	.st86{clip-path:url(#SVGID_4_);fill:#FAAB14;}
	.st87{clip-path:url(#SVGID_4_);fill:#FAAA14;}
	.st88{clip-path:url(#SVGID_4_);fill:#FAA914;}
	.st89{clip-path:url(#SVGID_4_);fill:#FAA814;}
	.st90{clip-path:url(#SVGID_4_);fill:#FAA714;}
	.st91{clip-path:url(#SVGID_4_);fill:#FAA614;}
	.st92{clip-path:url(#SVGID_4_);fill:#FAA514;}
	.st93{clip-path:url(#SVGID_4_);fill:#FAA414;}
	.st94{clip-path:url(#SVGID_4_);fill:#FAA314;}
	.st95{clip-path:url(#SVGID_4_);fill:#FAA214;}
	.st96{clip-path:url(#SVGID_4_);fill:#FAA114;}
	.st97{clip-path:url(#SVGID_4_);fill:#FAA014;}
	.st98{clip-path:url(#SVGID_4_);fill:#FA9F14;}
	.st99{clip-path:url(#SVGID_4_);fill:#FA9E14;}
	.st100{clip-path:url(#SVGID_4_);fill:#FA9D14;}
	.st101{clip-path:url(#SVGID_4_);fill:#FA9C14;}
	.st102{clip-path:url(#SVGID_4_);fill:#FA9B14;}
	.st103{clip-path:url(#SVGID_4_);fill:#FA9A13;}
	.st104{clip-path:url(#SVGID_4_);fill:#FA9913;}
	.st105{clip-path:url(#SVGID_4_);fill:#FA9813;}
	.st106{clip-path:url(#SVGID_4_);fill:#FA9713;}
	.st107{clip-path:url(#SVGID_4_);fill:#FA9613;}
	.st108{clip-path:url(#SVGID_4_);fill:#FA9513;}
	.st109{clip-path:url(#SVGID_4_);fill:#FA9413;}
	.st110{clip-path:url(#SVGID_4_);fill:#FA9313;}
	.st111{clip-path:url(#SVGID_4_);fill:#FA9213;}
	.st112{clip-path:url(#SVGID_4_);fill:#FA9113;}
	.st113{clip-path:url(#SVGID_4_);fill:#FA9013;}
	.st114{clip-path:url(#SVGID_4_);fill:#FA8F13;}
	.st115{clip-path:url(#SVGID_4_);fill:#FA8E13;}
	.st116{clip-path:url(#SVGID_4_);fill:#FA8D13;}
	.st117{clip-path:url(#SVGID_4_);fill:#FA8C13;}
	.st118{clip-path:url(#SVGID_4_);fill:#FA8B13;}
	.st119{clip-path:url(#SVGID_4_);fill:#FA8A13;}
	.st120{clip-path:url(#SVGID_4_);fill:#FA8913;}
	.st121{clip-path:url(#SVGID_4_);fill:#FA8812;}
	.st122{clip-path:url(#SVGID_4_);fill:#FA8712;}
	.st123{clip-path:url(#SVGID_4_);fill:#FA8612;}
	.st124{clip-path:url(#SVGID_4_);fill:#F98512;}
	.st125{clip-path:url(#SVGID_4_);fill:#F98412;}
	.st126{clip-path:url(#SVGID_4_);fill:#F98312;}
	.st127{clip-path:url(#SVGID_4_);fill:#F98212;}
	.st128{clip-path:url(#SVGID_4_);fill:#F98112;}
	.st129{clip-path:url(#SVGID_4_);fill:#F98012;}
	.st130{clip-path:url(#SVGID_4_);fill:#F97F12;}
	.st131{clip-path:url(#SVGID_4_);fill:#F97E12;}
	.st132{clip-path:url(#SVGID_4_);fill:#F97D12;}
	.st133{clip-path:url(#SVGID_4_);fill:#F97C12;}
	.st134{clip-path:url(#SVGID_4_);fill:#F97B12;}
	.st135{clip-path:url(#SVGID_4_);fill:#F97A12;}
	.st136{clip-path:url(#SVGID_4_);fill:#F97912;}
	.st137{clip-path:url(#SVGID_4_);fill:#F97812;}
	.st138{clip-path:url(#SVGID_4_);fill:#F97712;}
	.st139{clip-path:url(#SVGID_4_);fill:#F97612;}
	.st140{clip-path:url(#SVGID_4_);fill:#F97511;}
	.st141{clip-path:url(#SVGID_4_);fill:#F97411;}
	.st142{clip-path:url(#SVGID_4_);fill:#F97311;}
	.st143{clip-path:url(#SVGID_4_);fill:#F97211;}
	.st144{clip-path:url(#SVGID_4_);fill:#F97111;}
	.st145{clip-path:url(#SVGID_4_);fill:#F97011;}
	.st146{clip-path:url(#SVGID_4_);fill:#F96F11;}
	.st147{clip-path:url(#SVGID_4_);fill:#F96E11;}
	.st148{clip-path:url(#SVGID_4_);fill:#F96D11;}
	.st149{clip-path:url(#SVGID_4_);fill:#F96C11;}
	.st150{clip-path:url(#SVGID_4_);fill:#F96B11;}
	.st151{clip-path:url(#SVGID_4_);fill:#F96A11;}
	.st152{clip-path:url(#SVGID_4_);fill:#F96911;}
	.st153{clip-path:url(#SVGID_4_);fill:#F96811;}
	.st154{clip-path:url(#SVGID_4_);fill:#F96711;}
	.st155{clip-path:url(#SVGID_4_);fill:#F96611;}
	.st156{clip-path:url(#SVGID_4_);fill:#F96511;}
	.st157{clip-path:url(#SVGID_4_);fill:#F96411;}
	.st158{clip-path:url(#SVGID_4_);fill:#F96311;}
	.st159{clip-path:url(#SVGID_4_);fill:#F96210;}
	.st160{clip-path:url(#SVGID_4_);fill:#F86110;}
	.st161{clip-path:url(#SVGID_4_);fill:#F86010;}
	.st162{clip-path:url(#SVGID_4_);fill:#F85F10;}
	.st163{clip-path:url(#SVGID_4_);fill:#F85E10;}
	.st164{clip-path:url(#SVGID_4_);fill:#F85D10;}
	.st165{clip-path:url(#SVGID_4_);fill:#F85C10;}
	.st166{clip-path:url(#SVGID_4_);fill:#F85B10;}
	.st167{clip-path:url(#SVGID_4_);fill:#F85A10;}
	.st168{clip-path:url(#SVGID_4_);fill:#F85910;}
	.st169{clip-path:url(#SVGID_4_);fill:#F85810;}
	.st170{clip-path:url(#SVGID_4_);fill:#F85710;}
	.st171{clip-path:url(#SVGID_4_);fill:#F85610;}
	.st172{clip-path:url(#SVGID_4_);fill:#F85510;}
	.st173{clip-path:url(#SVGID_4_);fill:#F85410;}
	.st174{clip-path:url(#SVGID_4_);fill:#F85310;}
	.st175{clip-path:url(#SVGID_4_);fill:#F85210;}
	.st176{clip-path:url(#SVGID_4_);fill:#F85110;}
	.st177{clip-path:url(#SVGID_4_);fill:#F85010;}
	.st178{clip-path:url(#SVGID_4_);fill:#F84F0F;}
	.st179{clip-path:url(#SVGID_4_);fill:#F84E0F;}
	.st180{clip-path:url(#SVGID_4_);fill:#F84D0F;}
	.st181{clip-path:url(#SVGID_4_);fill:#F84C0F;}
	.st182{clip-path:url(#SVGID_4_);fill:#F84B0F;}
	.st183{clip-path:url(#SVGID_4_);fill:#F84A0F;}
	.st184{clip-path:url(#SVGID_4_);fill:#F8490F;}
	.st185{clip-path:url(#SVGID_4_);fill:#F8480F;}
	.st186{clip-path:url(#SVGID_4_);fill:#F8470F;}
	.st187{clip-path:url(#SVGID_4_);fill:#F8460F;}
	.st188{clip-path:url(#SVGID_4_);fill:#F8450F;}
	.st189{clip-path:url(#SVGID_4_);fill:#F8440F;}
	.st190{clip-path:url(#SVGID_4_);fill:#F8430F;}
	.st191{clip-path:url(#SVGID_4_);fill:#F8420F;}
	.st192{clip-path:url(#SVGID_4_);fill:#F8410F;}
	.st193{clip-path:url(#SVGID_4_);fill:#F8400F;}
	.st194{clip-path:url(#SVGID_4_);fill:#F83F0F;}
	.st195{clip-path:url(#SVGID_4_);fill:#F83E0E;}
	.st196{clip-path:url(#SVGID_4_);fill:#F83D0E;}
	.st197{clip-path:url(#SVGID_4_);fill:#F83C0E;}
	.st198{clip-path:url(#SVGID_4_);fill:#F83B0E;}
	.st199{clip-path:url(#SVGID_4_);fill:#F73A0E;}
	.st200{clip-path:url(#SVGID_4_);fill:#F7390E;}
	.st201{clip-path:url(#SVGID_4_);fill:#F7380E;}
	.st202{clip-path:url(#SVGID_4_);fill:#F7370E;}
	.st203{clip-path:url(#SVGID_4_);fill:#F7360E;}
	.st204{clip-path:url(#SVGID_4_);fill:#F7340E;}
	.st205{clip-path:url(#SVGID_4_);fill:#F7330E;}
	.st206{clip-path:url(#SVGID_4_);fill:#F7320E;}
	.st207{clip-path:url(#SVGID_4_);fill:#F7310E;}
	.st208{clip-path:url(#SVGID_4_);fill:#F7300E;}
	.st209{clip-path:url(#SVGID_4_);fill:#F72F0E;}
	.st210{clip-path:url(#SVGID_4_);fill:#F72E0E;}
	.st211{clip-path:url(#SVGID_4_);fill:#F72D0E;}
	.st212{clip-path:url(#SVGID_4_);fill:#F72C0E;}
	.st213{clip-path:url(#SVGID_4_);fill:#F72B0E;}
	.st214{clip-path:url(#SVGID_4_);fill:#F72B0D;}
	.st215{clip-path:url(#SVGID_4_);fill:#F72A0D;}
	.st216{clip-path:url(#SVGID_4_);fill:#F7290D;}
	.st217{clip-path:url(#SVGID_4_);fill:#F7280D;}
	.st218{clip-path:url(#SVGID_4_);fill:#F7270D;}
	.st219{clip-path:url(#SVGID_4_);fill:#F7260D;}
</style>
<g>
	<g>
		<path class="st0" d="M10.578,15.141l-0.073-0.097l-0.073-0.097l-0.073-0.097l-0.073-0.097l0.073-0.098l0.073-0.098l0.073-0.098
			l0.073-0.098l0.513-0.684l0.513-0.684l0.513-0.684l0.513-0.684c0.008-0.011,0.014-0.021,0.019-0.032s0.008-0.021,0.01-0.031
			s0.003-0.019,0.003-0.028s-0.001-0.017-0.002-0.024c-0.001-0.007-0.003-0.015-0.005-0.024s-0.006-0.017-0.011-0.026
			s-0.01-0.018-0.018-0.027s-0.016-0.017-0.027-0.025c-0.007-0.005-0.014-0.01-0.021-0.014s-0.015-0.007-0.023-0.01
			s-0.016-0.005-0.024-0.006s-0.016-0.002-0.025-0.002c-0.006,0-0.014,0-0.023,0.002s-0.02,0.004-0.032,0.008
			s-0.024,0.01-0.035,0.019s-0.023,0.019-0.034,0.033l-0.604,0.805l-0.604,0.805l-0.604,0.805l-0.604,0.805
			c-0.01,0.014-0.018,0.029-0.023,0.044s-0.008,0.032-0.008,0.048S9.94,14.784,9.945,14.8s0.013,0.031,0.023,0.044l0.604,0.805
			l0.604,0.805l0.604,0.805l0.604,0.805c0.01,0.014,0.022,0.025,0.034,0.033s0.024,0.014,0.035,0.019s0.022,0.007,0.032,0.008
			s0.018,0.002,0.023,0.002c0.008,0,0.017-0.001,0.025-0.002c0.008-0.001,0.016-0.003,0.024-0.006s0.015-0.006,0.023-0.01
			c0.007-0.004,0.014-0.008,0.021-0.014c0.011-0.008,0.019-0.016,0.027-0.025c0.007-0.009,0.013-0.018,0.018-0.027
			s0.008-0.018,0.011-0.026c0.003-0.008,0.004-0.016,0.005-0.024c0.001-0.007,0.002-0.015,0.002-0.024s-0.001-0.018-0.003-0.028
			s-0.005-0.02-0.01-0.031s-0.011-0.021-0.019-0.032l-0.513-0.684l-0.513-0.684l-0.513-0.684L10.578,15.141z"/>
	</g>
	<g>
		<path class="st0" d="M17.777,10.563l-0.009-0.001l-0.009-0.001l-0.009-0.001l-0.009-0.001c-0.015,0-0.031,0.003-0.046,0.008
			s-0.03,0.013-0.044,0.023s-0.026,0.022-0.037,0.037s-0.018,0.032-0.023,0.051l-0.403,1.815l-0.403,1.815l-0.403,1.815
			l-0.403,1.815c-0.006,0.024-0.007,0.047-0.004,0.068c0.003,0.021,0.01,0.041,0.02,0.059s0.024,0.033,0.04,0.045
			c0.016,0.012,0.035,0.021,0.056,0.026c0.001,0,0.002,0,0.004,0s0.002,0,0.004,0s0.002,0,0.004,0s0.002,0,0.004,0
			c0.022,0,0.043-0.003,0.062-0.007s0.036-0.012,0.051-0.022s0.027-0.022,0.037-0.036s0.017-0.031,0.022-0.049l0.403-1.815
			l0.403-1.815l0.403-1.815l0.403-1.815c0.006-0.024,0.007-0.047,0.004-0.068c-0.003-0.021-0.01-0.041-0.02-0.059
			s-0.024-0.033-0.04-0.045C17.816,10.577,17.798,10.568,17.777,10.563z"/>
	</g>
	<g>
		<path class="st0" d="M21.483,11.439c-0.01-0.014-0.022-0.025-0.034-0.033s-0.024-0.014-0.035-0.019s-0.022-0.007-0.032-0.008
			s-0.018-0.002-0.023-0.002c-0.008,0-0.017,0.001-0.025,0.002s-0.016,0.003-0.024,0.006s-0.015,0.006-0.023,0.01
			s-0.014,0.008-0.021,0.014c-0.017,0.013-0.031,0.028-0.041,0.046c-0.01,0.017-0.017,0.036-0.019,0.056s-0.002,0.04,0.003,0.059
			c0.005,0.02,0.014,0.038,0.026,0.055l0.513,0.684l0.513,0.684l0.513,0.684l0.513,0.684l0.073,0.098l0.073,0.098l0.073,0.098
			l0.073,0.098l-0.073,0.097l-0.073,0.097l-0.073,0.097l-0.073,0.097l-0.513,0.684l-0.513,0.684l-0.513,0.684l-0.513,0.684
			c-0.013,0.017-0.022,0.036-0.026,0.055c-0.005,0.02-0.006,0.04-0.003,0.059s0.009,0.039,0.019,0.056
			c0.01,0.017,0.024,0.033,0.041,0.046c0.007,0.005,0.014,0.01,0.021,0.014c0.007,0.004,0.015,0.007,0.023,0.01
			s0.016,0.005,0.024,0.006c0.008,0.001,0.016,0.002,0.025,0.002c0.006,0,0.014,0,0.023-0.002c0.009-0.001,0.02-0.004,0.032-0.008
			s0.024-0.01,0.035-0.019c0.012-0.008,0.023-0.019,0.034-0.033l0.604-0.805l0.604-0.805l0.604-0.805l0.604-0.805
			c0.01-0.014,0.018-0.029,0.023-0.044s0.008-0.032,0.008-0.048s-0.003-0.033-0.008-0.048s-0.013-0.031-0.023-0.044l-0.604-0.805
			l-0.604-0.805l-0.604-0.805L21.483,11.439z"/>
	</g>
</g>
<g>
	<g>
		<path class="st0" d="M22.086,4.358c0.211,0,0.413,0.044,0.596,0.124c0.183,0.08,0.348,0.196,0.487,0.339s0.251,0.313,0.329,0.502
			c0.078,0.189,0.121,0.396,0.121,0.614v0.782v0.782v0.782v0.782c0,0.021,0.004,0.042,0.012,0.06s0.019,0.035,0.033,0.049
			s0.031,0.025,0.049,0.033s0.039,0.012,0.06,0.012s0.042-0.004,0.06-0.012s0.035-0.019,0.049-0.033s0.025-0.031,0.033-0.049
			s0.012-0.039,0.012-0.06V8.283V7.501V6.719V5.936c0-0.26-0.052-0.508-0.145-0.734s-0.228-0.429-0.395-0.6
			s-0.365-0.309-0.585-0.405s-0.462-0.149-0.716-0.149h-3.583H14.92h-3.583H7.754c-0.254,0-0.496,0.053-0.716,0.149
			S6.62,4.431,6.453,4.602s-0.302,0.374-0.395,0.6S5.913,5.676,5.913,5.936v4.767v4.767v4.767v4.767c0,0.26,0.052,0.508,0.145,0.734
			c0.093,0.226,0.228,0.429,0.395,0.6s0.365,0.309,0.585,0.405c0.22,0.096,0.462,0.149,0.716,0.149h2.719h2.719h2.719h2.719
			c0.007-0.002,0.013-0.003,0.02-0.005c0.007-0.001,0.013-0.003,0.019-0.004s0.013-0.002,0.019-0.004
			c0.006-0.001,0.013-0.002,0.019-0.003l0.026-0.004l0.026-0.004l0.026-0.004l0.026-0.004l0.026,0.005l0.026,0.005l0.026,0.005
			l0.026,0.005c0.002,0,0.004,0,0.006,0s0.004,0,0.006,0s0.004,0,0.006,0s0.004,0,0.006,0c0.017,0,0.03-0.001,0.042-0.002
			c0.011-0.001,0.021-0.003,0.028-0.006s0.013-0.005,0.018-0.008c0.005-0.003,0.008-0.006,0.011-0.008l1.207-1.006l1.207-1.006
			l1.207-1.006l1.207-1.006c0.012-0.01,0.022-0.022,0.031-0.034c0.008-0.013,0.015-0.026,0.019-0.041s0.006-0.029,0.007-0.044
			c0-0.015-0.002-0.03-0.007-0.045l-0.013-0.042l-0.013-0.042l-0.013-0.042l-0.013-0.042l0.005-0.021l0.005-0.021l0.005-0.021
			l0.005-0.021l-0.239,0.199l-0.239,0.199l-0.239,0.199l-0.239,0.199l-0.692,0.576l-0.692,0.576l-0.692,0.576l-0.692,0.576
			l-0.267,0.222l-0.267,0.222l-0.267,0.222l-0.267,0.222v-0.347v-0.347v-0.347v-0.347v-0.375v-0.375v-0.375v-0.375
			c0-0.201,0.041-0.392,0.115-0.566c0.074-0.174,0.18-0.331,0.312-0.462s0.288-0.238,0.462-0.312
			c0.174-0.074,0.365-0.115,0.566-0.115h0.491h0.491h0.491h0.491h0.353h0.353h0.353h0.353v-0.665v-0.665v-0.665v-0.665
			c0-0.021-0.004-0.042-0.012-0.06s-0.019-0.035-0.033-0.049s-0.031-0.025-0.049-0.033s-0.039-0.012-0.06-0.012
			s-0.042,0.004-0.06,0.012s-0.035,0.019-0.049,0.033s-0.025,0.031-0.033,0.049s-0.012,0.039-0.012,0.06v0.425v0.425v0.425v0.425
			v0.162v0.162v0.162v0.162h-0.162h-0.162h-0.162h-0.162h-0.604h-0.604h-0.604h-0.604c-0.243,0-0.475,0.049-0.686,0.139
			c-0.211,0.089-0.401,0.219-0.561,0.378s-0.289,0.35-0.378,0.561c-0.089,0.211-0.139,0.443-0.139,0.686v0.604v0.604v0.604v0.604
			v0.163v0.163v0.163v0.163h-0.163h-0.163h-0.163H18.14h-2.596h-2.596h-2.596H7.754c-0.211,0-0.412-0.044-0.595-0.124
			c-0.183-0.08-0.348-0.196-0.487-0.339s-0.251-0.313-0.328-0.502c-0.078-0.189-0.121-0.396-0.121-0.614v-4.767V15.47v-4.767V5.936
			c0-0.218,0.043-0.425,0.121-0.614s0.19-0.359,0.328-0.502s0.304-0.259,0.487-0.339s0.384-0.124,0.595-0.124h3.583h3.583h3.583
			H22.086z"/>
	</g>
</g>
<g>
	<path class="st0" d="M29.819,29.91h-7.432h-7.432H7.523H0.091v-7.432v-7.432V7.613V0.181h7.432h7.432h7.432h7.432v7.432v7.432
		v7.432V29.91z M0.341,29.66h7.307h7.307h7.307h7.307v-7.307v-7.307V7.738V0.431h-7.307h-7.307H7.648H0.341v7.307v7.307v7.307V29.66
		z"/>
</g>
</svg>
