<?xml version="1.0" encoding="utf-8"?>
<!-- Generator: Adobe Illustrator 19.1.0, SVG Export Plug-In . SVG Version: 6.00 Build 0)  -->
<svg version="1.1" id="Layer_1" xmlns="http://www.w3.org/2000/svg" xmlns:xlink="http://www.w3.org/1999/xlink" x="0px" y="0px"
	 viewBox="0 0 29.91 30.086" style="enable-background:new 0 0 29.91 30.086;" xml:space="preserve">
<style type="text/css">
	.st0{fill:#4D4D4D;}
	.st1{fill-rule:evenodd;clip-rule:evenodd;fill:#4C4C4C;}
	.st2{fill:#4C4C4C;}
	.st3{fill:#383330;}
	.st4{fill:#1F1A17;}
	.st5{fill:#4D4C4C;}
	.st6{fill:none;stroke:#000000;stroke-width:0.3;stroke-miterlimit:10;}
	.st7{fill:#E61413;}
	.st8{fill:#5F5357;}
	.st9{fill:#115C78;}
	.st10{fill-rule:evenodd;clip-rule:evenodd;fill:#4D4D4D;}
	.st11{fill-rule:evenodd;clip-rule:evenodd;}
	.st12{fill:#FFFFFF;}
	.st13{fill:none;}
	.st14{fill:#231F20;}
	.st15{clip-path:url(#SVGID_2_);}
	.st16{clip-path:url(#SVGID_4_);fill:#FCF118;}
	.st17{clip-path:url(#SVGID_4_);fill:#FCF018;}
	.st18{clip-path:url(#SVGID_4_);fill:#FCEF18;}
	.st19{clip-path:url(#SVGID_4_);fill:#FCEE18;}
	.st20{clip-path:url(#SVGID_4_);fill:#FCED18;}
	.st21{clip-path:url(#SVGID_4_);fill:#FCEC18;}
	.st22{clip-path:url(#SVGID_4_);fill:#FCEB18;}
	.st23{clip-path:url(#SVGID_4_);fill:#FCEA18;}
	.st24{clip-path:url(#SVGID_4_);fill:#FCE918;}
	.st25{clip-path:url(#SVGID_4_);fill:#FCE818;}
	.st26{clip-path:url(#SVGID_4_);fill:#FCE718;}
	.st27{clip-path:url(#SVGID_4_);fill:#FCE617;}
	.st28{clip-path:url(#SVGID_4_);fill:#FCE517;}
	.st29{clip-path:url(#SVGID_4_);fill:#FCE417;}
	.st30{clip-path:url(#SVGID_4_);fill:#FCE317;}
	.st31{clip-path:url(#SVGID_4_);fill:#FCE217;}
	.st32{clip-path:url(#SVGID_4_);fill:#FCE117;}
	.st33{clip-path:url(#SVGID_4_);fill:#FCE017;}
	.st34{clip-path:url(#SVGID_4_);fill:#FCDF17;}
	.st35{clip-path:url(#SVGID_4_);fill:#FCDE17;}
	.st36{clip-path:url(#SVGID_4_);fill:#FCDD17;}
	.st37{clip-path:url(#SVGID_4_);fill:#FCDC17;}
	.st38{clip-path:url(#SVGID_4_);fill:#FCDB17;}
	.st39{clip-path:url(#SVGID_4_);fill:#FCDA17;}
	.st40{clip-path:url(#SVGID_4_);fill:#FCD917;}
	.st41{clip-path:url(#SVGID_4_);fill:#FCD817;}
	.st42{clip-path:url(#SVGID_4_);fill:#FCD717;}
	.st43{clip-path:url(#SVGID_4_);fill:#FCD617;}
	.st44{clip-path:url(#SVGID_4_);fill:#FCD517;}
	.st45{clip-path:url(#SVGID_4_);fill:#FCD416;}
	.st46{clip-path:url(#SVGID_4_);fill:#FCD316;}
	.st47{clip-path:url(#SVGID_4_);fill:#FBD216;}
	.st48{clip-path:url(#SVGID_4_);fill:#FBD116;}
	.st49{clip-path:url(#SVGID_4_);fill:#FBD016;}
	.st50{clip-path:url(#SVGID_4_);fill:#FBCF16;}
	.st51{clip-path:url(#SVGID_4_);fill:#FBCE16;}
	.st52{clip-path:url(#SVGID_4_);fill:#FBCD16;}
	.st53{clip-path:url(#SVGID_4_);fill:#FBCC16;}
	.st54{clip-path:url(#SVGID_4_);fill:#FBCB16;}
	.st55{clip-path:url(#SVGID_4_);fill:#FBCA16;}
	.st56{clip-path:url(#SVGID_4_);fill:#FBC916;}
	.st57{clip-path:url(#SVGID_4_);fill:#FBC816;}
	.st58{clip-path:url(#SVGID_4_);fill:#FBC716;}
	.st59{clip-path:url(#SVGID_4_);fill:#FBC616;}
	.st60{clip-path:url(#SVGID_4_);fill:#FBC516;}
	.st61{clip-path:url(#SVGID_4_);fill:#FBC416;}
	.st62{clip-path:url(#SVGID_4_);fill:#FBC316;}
	.st63{clip-path:url(#SVGID_4_);fill:#FBC216;}
	.st64{clip-path:url(#SVGID_4_);fill:#FBC115;}
	.st65{clip-path:url(#SVGID_4_);fill:#FBC015;}
	.st66{clip-path:url(#SVGID_4_);fill:#FBBF15;}
	.st67{clip-path:url(#SVGID_4_);fill:#FBBE15;}
	.st68{clip-path:url(#SVGID_4_);fill:#FBBD15;}
	.st69{clip-path:url(#SVGID_4_);fill:#FBBC15;}
	.st70{clip-path:url(#SVGID_4_);fill:#FBBB15;}
	.st71{clip-path:url(#SVGID_4_);fill:#FBBA15;}
	.st72{clip-path:url(#SVGID_4_);fill:#FBB915;}
	.st73{clip-path:url(#SVGID_4_);fill:#FBB815;}
	.st74{clip-path:url(#SVGID_4_);fill:#FBB715;}
	.st75{clip-path:url(#SVGID_4_);fill:#FBB615;}
	.st76{clip-path:url(#SVGID_4_);fill:#FBB515;}
	.st77{clip-path:url(#SVGID_4_);fill:#FBB415;}
	.st78{clip-path:url(#SVGID_4_);fill:#FBB315;}
	.st79{clip-path:url(#SVGID_4_);fill:#FBB215;}
	.st80{clip-path:url(#SVGID_4_);fill:#FBB115;}
	.st81{clip-path:url(#SVGID_4_);fill:#FBB015;}
	.st82{clip-path:url(#SVGID_4_);fill:#FBAF15;}
	.st83{clip-path:url(#SVGID_4_);fill:#FAAE15;}
	.st84{clip-path:url(#SVGID_4_);fill:#FAAD14;}
	.st85{clip-path:url(#SVGID_4_);fill:#FAAC14;}
	.st86{clip-path:url(#SVGID_4_);fill:#FAAB14;}
	.st87{clip-path:url(#SVGID_4_);fill:#FAAA14;}
	.st88{clip-path:url(#SVGID_4_);fill:#FAA914;}
	.st89{clip-path:url(#SVGID_4_);fill:#FAA814;}
	.st90{clip-path:url(#SVGID_4_);fill:#FAA714;}
	.st91{clip-path:url(#SVGID_4_);fill:#FAA614;}
	.st92{clip-path:url(#SVGID_4_);fill:#FAA514;}
	.st93{clip-path:url(#SVGID_4_);fill:#FAA414;}
	.st94{clip-path:url(#SVGID_4_);fill:#FAA314;}
	.st95{clip-path:url(#SVGID_4_);fill:#FAA214;}
	.st96{clip-path:url(#SVGID_4_);fill:#FAA114;}
	.st97{clip-path:url(#SVGID_4_);fill:#FAA014;}
	.st98{clip-path:url(#SVGID_4_);fill:#FA9F14;}
	.st99{clip-path:url(#SVGID_4_);fill:#FA9E14;}
	.st100{clip-path:url(#SVGID_4_);fill:#FA9D14;}
	.st101{clip-path:url(#SVGID_4_);fill:#FA9C14;}
	.st102{clip-path:url(#SVGID_4_);fill:#FA9B14;}
	.st103{clip-path:url(#SVGID_4_);fill:#FA9A13;}
	.st104{clip-path:url(#SVGID_4_);fill:#FA9913;}
	.st105{clip-path:url(#SVGID_4_);fill:#FA9813;}
	.st106{clip-path:url(#SVGID_4_);fill:#FA9713;}
	.st107{clip-path:url(#SVGID_4_);fill:#FA9613;}
	.st108{clip-path:url(#SVGID_4_);fill:#FA9513;}
	.st109{clip-path:url(#SVGID_4_);fill:#FA9413;}
	.st110{clip-path:url(#SVGID_4_);fill:#FA9313;}
	.st111{clip-path:url(#SVGID_4_);fill:#FA9213;}
	.st112{clip-path:url(#SVGID_4_);fill:#FA9113;}
	.st113{clip-path:url(#SVGID_4_);fill:#FA9013;}
	.st114{clip-path:url(#SVGID_4_);fill:#FA8F13;}
	.st115{clip-path:url(#SVGID_4_);fill:#FA8E13;}
	.st116{clip-path:url(#SVGID_4_);fill:#FA8D13;}
	.st117{clip-path:url(#SVGID_4_);fill:#FA8C13;}
	.st118{clip-path:url(#SVGID_4_);fill:#FA8B13;}
	.st119{clip-path:url(#SVGID_4_);fill:#FA8A13;}
	.st120{clip-path:url(#SVGID_4_);fill:#FA8913;}
	.st121{clip-path:url(#SVGID_4_);fill:#FA8812;}
	.st122{clip-path:url(#SVGID_4_);fill:#FA8712;}
	.st123{clip-path:url(#SVGID_4_);fill:#FA8612;}
	.st124{clip-path:url(#SVGID_4_);fill:#F98512;}
	.st125{clip-path:url(#SVGID_4_);fill:#F98412;}
	.st126{clip-path:url(#SVGID_4_);fill:#F98312;}
	.st127{clip-path:url(#SVGID_4_);fill:#F98212;}
	.st128{clip-path:url(#SVGID_4_);fill:#F98112;}
	.st129{clip-path:url(#SVGID_4_);fill:#F98012;}
	.st130{clip-path:url(#SVGID_4_);fill:#F97F12;}
	.st131{clip-path:url(#SVGID_4_);fill:#F97E12;}
	.st132{clip-path:url(#SVGID_4_);fill:#F97D12;}
	.st133{clip-path:url(#SVGID_4_);fill:#F97C12;}
	.st134{clip-path:url(#SVGID_4_);fill:#F97B12;}
	.st135{clip-path:url(#SVGID_4_);fill:#F97A12;}
	.st136{clip-path:url(#SVGID_4_);fill:#F97912;}
	.st137{clip-path:url(#SVGID_4_);fill:#F97812;}
	.st138{clip-path:url(#SVGID_4_);fill:#F97712;}
	.st139{clip-path:url(#SVGID_4_);fill:#F97612;}
	.st140{clip-path:url(#SVGID_4_);fill:#F97511;}
	.st141{clip-path:url(#SVGID_4_);fill:#F97411;}
	.st142{clip-path:url(#SVGID_4_);fill:#F97311;}
	.st143{clip-path:url(#SVGID_4_);fill:#F97211;}
	.st144{clip-path:url(#SVGID_4_);fill:#F97111;}
	.st145{clip-path:url(#SVGID_4_);fill:#F97011;}
	.st146{clip-path:url(#SVGID_4_);fill:#F96F11;}
	.st147{clip-path:url(#SVGID_4_);fill:#F96E11;}
	.st148{clip-path:url(#SVGID_4_);fill:#F96D11;}
	.st149{clip-path:url(#SVGID_4_);fill:#F96C11;}
	.st150{clip-path:url(#SVGID_4_);fill:#F96B11;}
	.st151{clip-path:url(#SVGID_4_);fill:#F96A11;}
	.st152{clip-path:url(#SVGID_4_);fill:#F96911;}
	.st153{clip-path:url(#SVGID_4_);fill:#F96811;}
	.st154{clip-path:url(#SVGID_4_);fill:#F96711;}
	.st155{clip-path:url(#SVGID_4_);fill:#F96611;}
	.st156{clip-path:url(#SVGID_4_);fill:#F96511;}
	.st157{clip-path:url(#SVGID_4_);fill:#F96411;}
	.st158{clip-path:url(#SVGID_4_);fill:#F96311;}
	.st159{clip-path:url(#SVGID_4_);fill:#F96210;}
	.st160{clip-path:url(#SVGID_4_);fill:#F86110;}
	.st161{clip-path:url(#SVGID_4_);fill:#F86010;}
	.st162{clip-path:url(#SVGID_4_);fill:#F85F10;}
	.st163{clip-path:url(#SVGID_4_);fill:#F85E10;}
	.st164{clip-path:url(#SVGID_4_);fill:#F85D10;}
	.st165{clip-path:url(#SVGID_4_);fill:#F85C10;}
	.st166{clip-path:url(#SVGID_4_);fill:#F85B10;}
	.st167{clip-path:url(#SVGID_4_);fill:#F85A10;}
	.st168{clip-path:url(#SVGID_4_);fill:#F85910;}
	.st169{clip-path:url(#SVGID_4_);fill:#F85810;}
	.st170{clip-path:url(#SVGID_4_);fill:#F85710;}
	.st171{clip-path:url(#SVGID_4_);fill:#F85610;}
	.st172{clip-path:url(#SVGID_4_);fill:#F85510;}
	.st173{clip-path:url(#SVGID_4_);fill:#F85410;}
	.st174{clip-path:url(#SVGID_4_);fill:#F85310;}
	.st175{clip-path:url(#SVGID_4_);fill:#F85210;}
	.st176{clip-path:url(#SVGID_4_);fill:#F85110;}
	.st177{clip-path:url(#SVGID_4_);fill:#F85010;}
	.st178{clip-path:url(#SVGID_4_);fill:#F84F0F;}
	.st179{clip-path:url(#SVGID_4_);fill:#F84E0F;}
	.st180{clip-path:url(#SVGID_4_);fill:#F84D0F;}
	.st181{clip-path:url(#SVGID_4_);fill:#F84C0F;}
	.st182{clip-path:url(#SVGID_4_);fill:#F84B0F;}
	.st183{clip-path:url(#SVGID_4_);fill:#F84A0F;}
	.st184{clip-path:url(#SVGID_4_);fill:#F8490F;}
	.st185{clip-path:url(#SVGID_4_);fill:#F8480F;}
	.st186{clip-path:url(#SVGID_4_);fill:#F8470F;}
	.st187{clip-path:url(#SVGID_4_);fill:#F8460F;}
	.st188{clip-path:url(#SVGID_4_);fill:#F8450F;}
	.st189{clip-path:url(#SVGID_4_);fill:#F8440F;}
	.st190{clip-path:url(#SVGID_4_);fill:#F8430F;}
	.st191{clip-path:url(#SVGID_4_);fill:#F8420F;}
	.st192{clip-path:url(#SVGID_4_);fill:#F8410F;}
	.st193{clip-path:url(#SVGID_4_);fill:#F8400F;}
	.st194{clip-path:url(#SVGID_4_);fill:#F83F0F;}
	.st195{clip-path:url(#SVGID_4_);fill:#F83E0E;}
	.st196{clip-path:url(#SVGID_4_);fill:#F83D0E;}
	.st197{clip-path:url(#SVGID_4_);fill:#F83C0E;}
	.st198{clip-path:url(#SVGID_4_);fill:#F83B0E;}
	.st199{clip-path:url(#SVGID_4_);fill:#F73A0E;}
	.st200{clip-path:url(#SVGID_4_);fill:#F7390E;}
	.st201{clip-path:url(#SVGID_4_);fill:#F7380E;}
	.st202{clip-path:url(#SVGID_4_);fill:#F7370E;}
	.st203{clip-path:url(#SVGID_4_);fill:#F7360E;}
	.st204{clip-path:url(#SVGID_4_);fill:#F7340E;}
	.st205{clip-path:url(#SVGID_4_);fill:#F7330E;}
	.st206{clip-path:url(#SVGID_4_);fill:#F7320E;}
	.st207{clip-path:url(#SVGID_4_);fill:#F7310E;}
	.st208{clip-path:url(#SVGID_4_);fill:#F7300E;}
	.st209{clip-path:url(#SVGID_4_);fill:#F72F0E;}
	.st210{clip-path:url(#SVGID_4_);fill:#F72E0E;}
	.st211{clip-path:url(#SVGID_4_);fill:#F72D0E;}
	.st212{clip-path:url(#SVGID_4_);fill:#F72C0E;}
	.st213{clip-path:url(#SVGID_4_);fill:#F72B0E;}
	.st214{clip-path:url(#SVGID_4_);fill:#F72B0D;}
	.st215{clip-path:url(#SVGID_4_);fill:#F72A0D;}
	.st216{clip-path:url(#SVGID_4_);fill:#F7290D;}
	.st217{clip-path:url(#SVGID_4_);fill:#F7280D;}
	.st218{clip-path:url(#SVGID_4_);fill:#F7270D;}
	.st219{clip-path:url(#SVGID_4_);fill:#F7260D;}
</style>
<g>
	<path class="st0" d="M29.827,29.908h-7.436h-7.436H7.519H0.083v-7.432v-7.432V7.611V0.179h7.436h7.436h7.436h7.436v7.432v7.432
		v7.432V29.908z M0.333,29.658h7.311h7.311h7.311h7.311v-7.307v-7.307V7.736V0.429h-7.311h-7.311H7.644H0.333v7.307v7.307v7.307
		V29.658z"/>
</g>
<g>
	<path class="st0" d="M29.827,23.257l-0.046-0.025l-0.046-0.025l-0.046-0.025l-0.046-0.025c-0.98-0.531-2.041-1.002-3.168-1.41
		s-2.32-0.753-3.564-1.032s-2.539-0.491-3.87-0.634s-2.698-0.216-4.086-0.216c-1.388,0-2.755,0.073-4.086,0.216
		S8.244,20.436,7,20.715s-2.437,0.624-3.564,1.032s-2.188,0.879-3.169,1.41l-0.046,0.025l-0.046,0.025l-0.046,0.025l-0.046,0.025
		v-5.77v-5.77v-5.77v-5.77h7.436h7.436h7.436h7.436v5.77v5.77v5.77V23.257z M0.332,0.429v5.603v5.603v5.603v5.603
		c0.984-0.52,2.045-0.982,3.171-1.382s2.314-0.738,3.552-1.011s2.525-0.481,3.846-0.621s2.678-0.211,4.054-0.211
		s2.733,0.071,4.054,0.211s2.608,0.348,3.846,0.621s2.426,0.611,3.551,1.011s2.187,0.861,3.17,1.382v-5.603v-5.603V6.031V0.429
		h-7.311h-7.311H7.644H0.332z"/>
</g>
<g>
	<path class="st0" d="M14.054,14.011c-0.109,0-0.235-0.026-0.374-0.071s-0.291-0.111-0.453-0.192s-0.333-0.175-0.511-0.279
		s-0.362-0.216-0.548-0.332c-0.031-0.019-0.061-0.038-0.091-0.056s-0.057-0.036-0.084-0.052s-0.053-0.032-0.077-0.047
		s-0.048-0.029-0.07-0.042c-0.033-0.019-0.065-0.039-0.097-0.061s-0.063-0.044-0.094-0.068s-0.061-0.049-0.091-0.076
		s-0.059-0.054-0.088-0.083l-1.172-1.172L9.13,10.308L7.958,9.136L6.786,7.963L6.593,8.157L6.4,8.35L6.207,8.543L6.014,8.736
		L5.75,8.473L5.487,8.21L5.223,7.946L4.96,7.683l0.185-0.185l0.185-0.185l0.185-0.185l0.185-0.185L5.155,6.398L4.612,5.852
		L4.068,5.306L3.524,4.76c-0.121-0.121-0.211-0.26-0.271-0.41s-0.09-0.308-0.09-0.467c0-0.159,0.031-0.318,0.092-0.467
		s0.152-0.29,0.273-0.411C3.651,2.881,3.795,2.787,3.95,2.723c0.155-0.064,0.32-0.099,0.485-0.104s0.328,0.02,0.479,0.075
		s0.291,0.14,0.406,0.256l0.547,0.547l0.547,0.547L6.96,4.59l0.547,0.547l0.19-0.19l0.19-0.19l0.19-0.19l0.19-0.19L8.529,4.64
		l0.263,0.263l0.263,0.263l0.263,0.263L9.131,5.619L8.943,5.807L8.755,5.995L8.568,6.183L9.725,7.34l1.158,1.158l1.158,1.158
		l1.158,1.158c0.039,0.038,0.076,0.078,0.111,0.12s0.068,0.084,0.099,0.129s0.06,0.09,0.087,0.137s0.052,0.095,0.075,0.145
		c0.014,0.031,0.03,0.063,0.046,0.097s0.034,0.07,0.052,0.106s0.038,0.075,0.058,0.114s0.04,0.08,0.061,0.121
		c0.13,0.256,0.251,0.499,0.353,0.724s0.187,0.431,0.245,0.615s0.089,0.345,0.085,0.479s-0.044,0.24-0.127,0.315
		c-0.019,0.017-0.039,0.031-0.06,0.043s-0.044,0.022-0.069,0.03s-0.05,0.014-0.077,0.018S14.083,14.011,14.054,14.011z M6.786,7.61
		l1.216,1.216l1.216,1.216l1.216,1.216l1.216,1.216c0.025,0.025,0.05,0.049,0.076,0.071s0.052,0.045,0.079,0.065
		s0.054,0.04,0.081,0.059s0.055,0.036,0.084,0.052c0.022,0.013,0.046,0.027,0.071,0.042s0.051,0.031,0.079,0.048
		s0.056,0.035,0.086,0.053s0.061,0.038,0.093,0.057c0.123,0.076,0.286,0.178,0.466,0.285s0.377,0.219,0.566,0.314
		s0.37,0.174,0.52,0.215s0.266,0.045,0.326-0.011c0.054-0.049,0.06-0.154,0.034-0.294s-0.084-0.313-0.158-0.496
		s-0.162-0.378-0.249-0.559s-0.173-0.35-0.24-0.483c-0.021-0.042-0.042-0.083-0.062-0.123s-0.04-0.079-0.058-0.116
		s-0.036-0.074-0.053-0.108s-0.033-0.068-0.047-0.099c-0.02-0.043-0.042-0.084-0.065-0.125s-0.049-0.08-0.076-0.118
		s-0.055-0.075-0.086-0.111s-0.062-0.07-0.096-0.104L11.82,9.788l-1.202-1.202L9.416,7.385L8.214,6.183l0.188-0.188L8.59,5.807
		l0.188-0.188l0.188-0.188L8.79,5.256L8.616,5.081L8.441,4.906L8.266,4.731l-0.19,0.19l-0.19,0.19L7.696,5.3l-0.19,0.19L6.916,4.899
		L6.325,4.308L5.735,3.717L5.144,3.126c-0.092-0.092-0.203-0.16-0.324-0.203S4.567,2.861,4.435,2.866S4.17,2.9,4.046,2.953
		C3.921,3.005,3.804,3.082,3.704,3.181C3.609,3.276,3.538,3.388,3.49,3.508S3.418,3.755,3.418,3.883c0,0.128,0.023,0.255,0.07,0.375
		s0.118,0.231,0.213,0.325l0.588,0.59l0.588,0.59l0.588,0.59l0.588,0.59L5.868,7.128L5.683,7.313L5.498,7.498L5.313,7.683
		l0.175,0.175l0.175,0.175l0.175,0.175l0.175,0.175L6.207,8.19L6.4,7.996l0.193-0.193L6.786,7.61z"/>
</g>
<g>
	<polygon class="st0" points="8.598,7.786 8.661,7.85 8.725,7.913 8.788,7.976 8.851,8.039 9.023,7.868 9.194,7.697 9.366,7.526 
		9.537,7.354 9.474,7.291 9.41,7.228 9.347,7.165 9.283,7.102 9.112,7.273 8.941,7.444 8.769,7.615 	"/>
</g>
<g>
	<polygon class="st0" points="9.232,8.42 9.295,8.484 9.359,8.547 9.422,8.611 9.486,8.674 9.657,8.503 9.828,8.332 10,8.16 
		10.171,7.989 10.107,7.926 10.044,7.862 9.98,7.799 9.917,7.735 9.746,7.906 9.574,8.078 9.403,8.249 	"/>
</g>
<g>
	<polygon class="st0" points="9.866,9.055 9.93,9.118 9.993,9.182 10.057,9.245 10.12,9.309 10.292,9.137 10.463,8.966 
		10.634,8.795 10.805,8.623 10.742,8.56 10.678,8.496 10.615,8.433 10.551,8.369 10.38,8.541 10.209,8.712 10.038,8.883 	"/>
</g>
<g>
	<polygon class="st0" points="10.501,9.689 10.564,9.752 10.627,9.816 10.691,9.879 10.754,9.942 10.925,9.771 11.096,9.6 
		11.268,9.428 11.439,9.257 11.376,9.194 11.312,9.131 11.249,9.067 11.186,9.004 11.015,9.175 10.843,9.347 10.672,9.518 	"/>
</g>
<g>
	<polygon class="st0" points="11.134,10.323 11.198,10.386 11.261,10.45 11.325,10.513 11.388,10.577 11.56,10.405 11.731,10.234 
		11.902,10.063 12.073,9.892 12.01,9.828 11.946,9.765 11.883,9.701 11.819,9.638 11.648,9.809 11.477,9.98 11.306,10.151 	"/>
</g>
<g>
	<path class="st0" d="M14.374,17.967c-0.007,0-0.013,0-0.02,0s-0.013,0-0.02,0s-0.013,0-0.02-0.001s-0.013-0.001-0.02-0.001
		c-0.081-0.004-0.159-0.016-0.233-0.033s-0.146-0.042-0.214-0.072s-0.131-0.067-0.189-0.109s-0.112-0.09-0.16-0.143
		c-0.043-0.048-0.08-0.098-0.111-0.152s-0.057-0.11-0.077-0.169s-0.034-0.12-0.042-0.184s-0.011-0.129-0.007-0.196
		c0.008-0.139,0.074-0.321,0.17-0.519s0.222-0.411,0.351-0.611s0.26-0.387,0.365-0.533s0.186-0.251,0.213-0.286l0.028-0.036
		l0.028-0.036l0.028-0.036l0.028-0.036l0.024,0.039l0.024,0.039l0.024,0.039l0.024,0.039c0.023,0.038,0.091,0.151,0.18,0.308
		s0.198,0.358,0.303,0.571s0.207,0.439,0.28,0.647s0.118,0.396,0.11,0.535c-0.004,0.067-0.013,0.131-0.028,0.193
		s-0.036,0.121-0.063,0.177s-0.058,0.109-0.096,0.159s-0.08,0.096-0.127,0.139c-0.049,0.044-0.102,0.082-0.159,0.115
		s-0.117,0.061-0.181,0.084s-0.13,0.04-0.198,0.051S14.447,17.967,14.374,17.967z M14.446,15.259
		c-0.082,0.111-0.181,0.248-0.282,0.397s-0.206,0.309-0.301,0.466s-0.181,0.313-0.244,0.451s-0.104,0.259-0.109,0.349
		c-0.003,0.05-0.001,0.098,0.005,0.145s0.016,0.093,0.031,0.136s0.034,0.085,0.057,0.125s0.05,0.077,0.082,0.112
		c0.037,0.041,0.078,0.078,0.123,0.11s0.095,0.06,0.148,0.084s0.109,0.042,0.168,0.056s0.121,0.022,0.185,0.026
		c0.063,0.003,0.125,0.001,0.185-0.006s0.118-0.019,0.173-0.036s0.108-0.039,0.157-0.066s0.094-0.059,0.135-0.095
		c0.035-0.031,0.066-0.065,0.093-0.102s0.051-0.076,0.07-0.118s0.035-0.086,0.046-0.132s0.018-0.094,0.021-0.144
		c0.005-0.09-0.021-0.215-0.068-0.359s-0.114-0.308-0.191-0.475s-0.163-0.338-0.247-0.497S14.516,15.379,14.446,15.259z
		 M6.104,8.652L6.06,8.608L6.016,8.564L5.972,8.519L5.928,8.475L6.71,7.693L7.492,6.91l0.782-0.783l0.782-0.783L9.1,5.389
		l0.044,0.044l0.044,0.044l0.044,0.044L8.451,6.304L7.668,7.087L6.886,7.869L6.104,8.652z"/>
</g>
</svg>
