<?xml version="1.0" encoding="utf-8"?>
<!-- Generator: Adobe Illustrator 19.1.0, SVG Export Plug-In . SVG Version: 6.00 Build 0)  -->
<svg version="1.1" id="Layer_1" xmlns="http://www.w3.org/2000/svg" xmlns:xlink="http://www.w3.org/1999/xlink" x="0px" y="0px"
	 viewBox="0 0 29.91 30.086" style="enable-background:new 0 0 29.91 30.086;" xml:space="preserve">
<style type="text/css">
	.st0{fill:#4D4D4D;}
	.st1{fill-rule:evenodd;clip-rule:evenodd;fill:#4C4C4C;}
	.st2{fill:#4C4C4C;}
	.st3{fill:#383330;}
	.st4{fill:#1F1A17;}
	.st5{fill:#4D4C4C;}
	.st6{fill:none;stroke:#000000;stroke-width:0.3;stroke-miterlimit:10;}
	.st7{fill:#E61413;}
	.st8{fill:#5F5357;}
	.st9{fill:#115C78;}
	.st10{fill-rule:evenodd;clip-rule:evenodd;fill:#4D4D4D;}
	.st11{fill-rule:evenodd;clip-rule:evenodd;}
	.st12{fill:#FFFFFF;}
	.st13{fill:none;}
	.st14{fill:#231F20;}
	.st15{clip-path:url(#SVGID_2_);}
	.st16{clip-path:url(#SVGID_4_);fill:#FCF118;}
	.st17{clip-path:url(#SVGID_4_);fill:#FCF018;}
	.st18{clip-path:url(#SVGID_4_);fill:#FCEF18;}
	.st19{clip-path:url(#SVGID_4_);fill:#FCEE18;}
	.st20{clip-path:url(#SVGID_4_);fill:#FCED18;}
	.st21{clip-path:url(#SVGID_4_);fill:#FCEC18;}
	.st22{clip-path:url(#SVGID_4_);fill:#FCEB18;}
	.st23{clip-path:url(#SVGID_4_);fill:#FCEA18;}
	.st24{clip-path:url(#SVGID_4_);fill:#FCE918;}
	.st25{clip-path:url(#SVGID_4_);fill:#FCE818;}
	.st26{clip-path:url(#SVGID_4_);fill:#FCE718;}
	.st27{clip-path:url(#SVGID_4_);fill:#FCE617;}
	.st28{clip-path:url(#SVGID_4_);fill:#FCE517;}
	.st29{clip-path:url(#SVGID_4_);fill:#FCE417;}
	.st30{clip-path:url(#SVGID_4_);fill:#FCE317;}
	.st31{clip-path:url(#SVGID_4_);fill:#FCE217;}
	.st32{clip-path:url(#SVGID_4_);fill:#FCE117;}
	.st33{clip-path:url(#SVGID_4_);fill:#FCE017;}
	.st34{clip-path:url(#SVGID_4_);fill:#FCDF17;}
	.st35{clip-path:url(#SVGID_4_);fill:#FCDE17;}
	.st36{clip-path:url(#SVGID_4_);fill:#FCDD17;}
	.st37{clip-path:url(#SVGID_4_);fill:#FCDC17;}
	.st38{clip-path:url(#SVGID_4_);fill:#FCDB17;}
	.st39{clip-path:url(#SVGID_4_);fill:#FCDA17;}
	.st40{clip-path:url(#SVGID_4_);fill:#FCD917;}
	.st41{clip-path:url(#SVGID_4_);fill:#FCD817;}
	.st42{clip-path:url(#SVGID_4_);fill:#FCD717;}
	.st43{clip-path:url(#SVGID_4_);fill:#FCD617;}
	.st44{clip-path:url(#SVGID_4_);fill:#FCD517;}
	.st45{clip-path:url(#SVGID_4_);fill:#FCD416;}
	.st46{clip-path:url(#SVGID_4_);fill:#FCD316;}
	.st47{clip-path:url(#SVGID_4_);fill:#FBD216;}
	.st48{clip-path:url(#SVGID_4_);fill:#FBD116;}
	.st49{clip-path:url(#SVGID_4_);fill:#FBD016;}
	.st50{clip-path:url(#SVGID_4_);fill:#FBCF16;}
	.st51{clip-path:url(#SVGID_4_);fill:#FBCE16;}
	.st52{clip-path:url(#SVGID_4_);fill:#FBCD16;}
	.st53{clip-path:url(#SVGID_4_);fill:#FBCC16;}
	.st54{clip-path:url(#SVGID_4_);fill:#FBCB16;}
	.st55{clip-path:url(#SVGID_4_);fill:#FBCA16;}
	.st56{clip-path:url(#SVGID_4_);fill:#FBC916;}
	.st57{clip-path:url(#SVGID_4_);fill:#FBC816;}
	.st58{clip-path:url(#SVGID_4_);fill:#FBC716;}
	.st59{clip-path:url(#SVGID_4_);fill:#FBC616;}
	.st60{clip-path:url(#SVGID_4_);fill:#FBC516;}
	.st61{clip-path:url(#SVGID_4_);fill:#FBC416;}
	.st62{clip-path:url(#SVGID_4_);fill:#FBC316;}
	.st63{clip-path:url(#SVGID_4_);fill:#FBC216;}
	.st64{clip-path:url(#SVGID_4_);fill:#FBC115;}
	.st65{clip-path:url(#SVGID_4_);fill:#FBC015;}
	.st66{clip-path:url(#SVGID_4_);fill:#FBBF15;}
	.st67{clip-path:url(#SVGID_4_);fill:#FBBE15;}
	.st68{clip-path:url(#SVGID_4_);fill:#FBBD15;}
	.st69{clip-path:url(#SVGID_4_);fill:#FBBC15;}
	.st70{clip-path:url(#SVGID_4_);fill:#FBBB15;}
	.st71{clip-path:url(#SVGID_4_);fill:#FBBA15;}
	.st72{clip-path:url(#SVGID_4_);fill:#FBB915;}
	.st73{clip-path:url(#SVGID_4_);fill:#FBB815;}
	.st74{clip-path:url(#SVGID_4_);fill:#FBB715;}
	.st75{clip-path:url(#SVGID_4_);fill:#FBB615;}
	.st76{clip-path:url(#SVGID_4_);fill:#FBB515;}
	.st77{clip-path:url(#SVGID_4_);fill:#FBB415;}
	.st78{clip-path:url(#SVGID_4_);fill:#FBB315;}
	.st79{clip-path:url(#SVGID_4_);fill:#FBB215;}
	.st80{clip-path:url(#SVGID_4_);fill:#FBB115;}
	.st81{clip-path:url(#SVGID_4_);fill:#FBB015;}
	.st82{clip-path:url(#SVGID_4_);fill:#FBAF15;}
	.st83{clip-path:url(#SVGID_4_);fill:#FAAE15;}
	.st84{clip-path:url(#SVGID_4_);fill:#FAAD14;}
	.st85{clip-path:url(#SVGID_4_);fill:#FAAC14;}
	.st86{clip-path:url(#SVGID_4_);fill:#FAAB14;}
	.st87{clip-path:url(#SVGID_4_);fill:#FAAA14;}
	.st88{clip-path:url(#SVGID_4_);fill:#FAA914;}
	.st89{clip-path:url(#SVGID_4_);fill:#FAA814;}
	.st90{clip-path:url(#SVGID_4_);fill:#FAA714;}
	.st91{clip-path:url(#SVGID_4_);fill:#FAA614;}
	.st92{clip-path:url(#SVGID_4_);fill:#FAA514;}
	.st93{clip-path:url(#SVGID_4_);fill:#FAA414;}
	.st94{clip-path:url(#SVGID_4_);fill:#FAA314;}
	.st95{clip-path:url(#SVGID_4_);fill:#FAA214;}
	.st96{clip-path:url(#SVGID_4_);fill:#FAA114;}
	.st97{clip-path:url(#SVGID_4_);fill:#FAA014;}
	.st98{clip-path:url(#SVGID_4_);fill:#FA9F14;}
	.st99{clip-path:url(#SVGID_4_);fill:#FA9E14;}
	.st100{clip-path:url(#SVGID_4_);fill:#FA9D14;}
	.st101{clip-path:url(#SVGID_4_);fill:#FA9C14;}
	.st102{clip-path:url(#SVGID_4_);fill:#FA9B14;}
	.st103{clip-path:url(#SVGID_4_);fill:#FA9A13;}
	.st104{clip-path:url(#SVGID_4_);fill:#FA9913;}
	.st105{clip-path:url(#SVGID_4_);fill:#FA9813;}
	.st106{clip-path:url(#SVGID_4_);fill:#FA9713;}
	.st107{clip-path:url(#SVGID_4_);fill:#FA9613;}
	.st108{clip-path:url(#SVGID_4_);fill:#FA9513;}
	.st109{clip-path:url(#SVGID_4_);fill:#FA9413;}
	.st110{clip-path:url(#SVGID_4_);fill:#FA9313;}
	.st111{clip-path:url(#SVGID_4_);fill:#FA9213;}
	.st112{clip-path:url(#SVGID_4_);fill:#FA9113;}
	.st113{clip-path:url(#SVGID_4_);fill:#FA9013;}
	.st114{clip-path:url(#SVGID_4_);fill:#FA8F13;}
	.st115{clip-path:url(#SVGID_4_);fill:#FA8E13;}
	.st116{clip-path:url(#SVGID_4_);fill:#FA8D13;}
	.st117{clip-path:url(#SVGID_4_);fill:#FA8C13;}
	.st118{clip-path:url(#SVGID_4_);fill:#FA8B13;}
	.st119{clip-path:url(#SVGID_4_);fill:#FA8A13;}
	.st120{clip-path:url(#SVGID_4_);fill:#FA8913;}
	.st121{clip-path:url(#SVGID_4_);fill:#FA8812;}
	.st122{clip-path:url(#SVGID_4_);fill:#FA8712;}
	.st123{clip-path:url(#SVGID_4_);fill:#FA8612;}
	.st124{clip-path:url(#SVGID_4_);fill:#F98512;}
	.st125{clip-path:url(#SVGID_4_);fill:#F98412;}
	.st126{clip-path:url(#SVGID_4_);fill:#F98312;}
	.st127{clip-path:url(#SVGID_4_);fill:#F98212;}
	.st128{clip-path:url(#SVGID_4_);fill:#F98112;}
	.st129{clip-path:url(#SVGID_4_);fill:#F98012;}
	.st130{clip-path:url(#SVGID_4_);fill:#F97F12;}
	.st131{clip-path:url(#SVGID_4_);fill:#F97E12;}
	.st132{clip-path:url(#SVGID_4_);fill:#F97D12;}
	.st133{clip-path:url(#SVGID_4_);fill:#F97C12;}
	.st134{clip-path:url(#SVGID_4_);fill:#F97B12;}
	.st135{clip-path:url(#SVGID_4_);fill:#F97A12;}
	.st136{clip-path:url(#SVGID_4_);fill:#F97912;}
	.st137{clip-path:url(#SVGID_4_);fill:#F97812;}
	.st138{clip-path:url(#SVGID_4_);fill:#F97712;}
	.st139{clip-path:url(#SVGID_4_);fill:#F97612;}
	.st140{clip-path:url(#SVGID_4_);fill:#F97511;}
	.st141{clip-path:url(#SVGID_4_);fill:#F97411;}
	.st142{clip-path:url(#SVGID_4_);fill:#F97311;}
	.st143{clip-path:url(#SVGID_4_);fill:#F97211;}
	.st144{clip-path:url(#SVGID_4_);fill:#F97111;}
	.st145{clip-path:url(#SVGID_4_);fill:#F97011;}
	.st146{clip-path:url(#SVGID_4_);fill:#F96F11;}
	.st147{clip-path:url(#SVGID_4_);fill:#F96E11;}
	.st148{clip-path:url(#SVGID_4_);fill:#F96D11;}
	.st149{clip-path:url(#SVGID_4_);fill:#F96C11;}
	.st150{clip-path:url(#SVGID_4_);fill:#F96B11;}
	.st151{clip-path:url(#SVGID_4_);fill:#F96A11;}
	.st152{clip-path:url(#SVGID_4_);fill:#F96911;}
	.st153{clip-path:url(#SVGID_4_);fill:#F96811;}
	.st154{clip-path:url(#SVGID_4_);fill:#F96711;}
	.st155{clip-path:url(#SVGID_4_);fill:#F96611;}
	.st156{clip-path:url(#SVGID_4_);fill:#F96511;}
	.st157{clip-path:url(#SVGID_4_);fill:#F96411;}
	.st158{clip-path:url(#SVGID_4_);fill:#F96311;}
	.st159{clip-path:url(#SVGID_4_);fill:#F96210;}
	.st160{clip-path:url(#SVGID_4_);fill:#F86110;}
	.st161{clip-path:url(#SVGID_4_);fill:#F86010;}
	.st162{clip-path:url(#SVGID_4_);fill:#F85F10;}
	.st163{clip-path:url(#SVGID_4_);fill:#F85E10;}
	.st164{clip-path:url(#SVGID_4_);fill:#F85D10;}
	.st165{clip-path:url(#SVGID_4_);fill:#F85C10;}
	.st166{clip-path:url(#SVGID_4_);fill:#F85B10;}
	.st167{clip-path:url(#SVGID_4_);fill:#F85A10;}
	.st168{clip-path:url(#SVGID_4_);fill:#F85910;}
	.st169{clip-path:url(#SVGID_4_);fill:#F85810;}
	.st170{clip-path:url(#SVGID_4_);fill:#F85710;}
	.st171{clip-path:url(#SVGID_4_);fill:#F85610;}
	.st172{clip-path:url(#SVGID_4_);fill:#F85510;}
	.st173{clip-path:url(#SVGID_4_);fill:#F85410;}
	.st174{clip-path:url(#SVGID_4_);fill:#F85310;}
	.st175{clip-path:url(#SVGID_4_);fill:#F85210;}
	.st176{clip-path:url(#SVGID_4_);fill:#F85110;}
	.st177{clip-path:url(#SVGID_4_);fill:#F85010;}
	.st178{clip-path:url(#SVGID_4_);fill:#F84F0F;}
	.st179{clip-path:url(#SVGID_4_);fill:#F84E0F;}
	.st180{clip-path:url(#SVGID_4_);fill:#F84D0F;}
	.st181{clip-path:url(#SVGID_4_);fill:#F84C0F;}
	.st182{clip-path:url(#SVGID_4_);fill:#F84B0F;}
	.st183{clip-path:url(#SVGID_4_);fill:#F84A0F;}
	.st184{clip-path:url(#SVGID_4_);fill:#F8490F;}
	.st185{clip-path:url(#SVGID_4_);fill:#F8480F;}
	.st186{clip-path:url(#SVGID_4_);fill:#F8470F;}
	.st187{clip-path:url(#SVGID_4_);fill:#F8460F;}
	.st188{clip-path:url(#SVGID_4_);fill:#F8450F;}
	.st189{clip-path:url(#SVGID_4_);fill:#F8440F;}
	.st190{clip-path:url(#SVGID_4_);fill:#F8430F;}
	.st191{clip-path:url(#SVGID_4_);fill:#F8420F;}
	.st192{clip-path:url(#SVGID_4_);fill:#F8410F;}
	.st193{clip-path:url(#SVGID_4_);fill:#F8400F;}
	.st194{clip-path:url(#SVGID_4_);fill:#F83F0F;}
	.st195{clip-path:url(#SVGID_4_);fill:#F83E0E;}
	.st196{clip-path:url(#SVGID_4_);fill:#F83D0E;}
	.st197{clip-path:url(#SVGID_4_);fill:#F83C0E;}
	.st198{clip-path:url(#SVGID_4_);fill:#F83B0E;}
	.st199{clip-path:url(#SVGID_4_);fill:#F73A0E;}
	.st200{clip-path:url(#SVGID_4_);fill:#F7390E;}
	.st201{clip-path:url(#SVGID_4_);fill:#F7380E;}
	.st202{clip-path:url(#SVGID_4_);fill:#F7370E;}
	.st203{clip-path:url(#SVGID_4_);fill:#F7360E;}
	.st204{clip-path:url(#SVGID_4_);fill:#F7340E;}
	.st205{clip-path:url(#SVGID_4_);fill:#F7330E;}
	.st206{clip-path:url(#SVGID_4_);fill:#F7320E;}
	.st207{clip-path:url(#SVGID_4_);fill:#F7310E;}
	.st208{clip-path:url(#SVGID_4_);fill:#F7300E;}
	.st209{clip-path:url(#SVGID_4_);fill:#F72F0E;}
	.st210{clip-path:url(#SVGID_4_);fill:#F72E0E;}
	.st211{clip-path:url(#SVGID_4_);fill:#F72D0E;}
	.st212{clip-path:url(#SVGID_4_);fill:#F72C0E;}
	.st213{clip-path:url(#SVGID_4_);fill:#F72B0E;}
	.st214{clip-path:url(#SVGID_4_);fill:#F72B0D;}
	.st215{clip-path:url(#SVGID_4_);fill:#F72A0D;}
	.st216{clip-path:url(#SVGID_4_);fill:#F7290D;}
	.st217{clip-path:url(#SVGID_4_);fill:#F7280D;}
	.st218{clip-path:url(#SVGID_4_);fill:#F7270D;}
	.st219{clip-path:url(#SVGID_4_);fill:#F7260D;}
</style>
<g>
	<path class="st0" d="M8.787,12.179c-0.521,0-1.018-0.106-1.47-0.298s-0.859-0.469-1.201-0.811s-0.619-0.75-0.811-1.202
		s-0.297-0.949-0.297-1.47c0-0.521,0.106-1.018,0.297-1.471s0.469-0.86,0.811-1.202s0.749-0.62,1.201-0.811s0.949-0.298,1.47-0.298
		c0.521,0,1.019,0.106,1.471,0.298s0.86,0.469,1.203,0.811s0.62,0.75,0.811,1.202s0.298,0.949,0.298,1.471
		c0,0.521-0.106,1.018-0.298,1.47s-0.469,0.86-0.811,1.202s-0.75,0.619-1.203,0.811S9.309,12.179,8.787,12.179z M8.787,4.866
		c-0.487,0-0.95,0.099-1.373,0.278S6.612,5.581,6.293,5.901s-0.578,0.7-0.757,1.123S5.258,7.911,5.258,8.398
		c0,0.487,0.099,0.951,0.278,1.373s0.438,0.803,0.757,1.122s0.7,0.579,1.122,0.757s0.886,0.278,1.373,0.278
		c0.487,0,0.951-0.099,1.374-0.278s0.803-0.438,1.123-0.757s0.579-0.7,0.758-1.122s0.278-0.886,0.278-1.373
		c0-0.487-0.099-0.951-0.278-1.374s-0.438-0.803-0.758-1.123s-0.701-0.579-1.123-0.758S9.274,4.866,8.787,4.866z"/>
</g>
<g>
	<path class="st0" d="M6.16,15.835c-0.521,0-1.017-0.106-1.469-0.298s-0.859-0.469-1.201-0.811s-0.619-0.75-0.811-1.202
		s-0.297-0.949-0.297-1.47c0-0.521,0.106-1.018,0.297-1.471s0.469-0.86,0.811-1.202s0.749-0.62,1.201-0.811S5.639,8.272,6.16,8.272
		c0.521,0,1.019,0.106,1.471,0.298s0.86,0.469,1.203,0.811s0.62,0.75,0.812,1.202s0.298,0.949,0.298,1.471
		c0,0.521-0.106,1.018-0.298,1.47s-0.469,0.86-0.812,1.202s-0.75,0.62-1.203,0.811S6.682,15.835,6.16,15.835z M6.16,8.522
		c-0.486,0-0.95,0.099-1.372,0.278S3.985,9.238,3.666,9.558s-0.578,0.7-0.757,1.123s-0.278,0.887-0.278,1.373
		s0.099,0.951,0.278,1.373s0.437,0.803,0.757,1.123s0.7,0.579,1.122,0.757s0.886,0.278,1.372,0.278c0.487,0,0.951-0.099,1.374-0.278
		s0.803-0.438,1.123-0.757s0.579-0.7,0.758-1.123s0.278-0.886,0.278-1.373s-0.099-0.951-0.278-1.373S8.977,9.878,8.657,9.558
		S7.957,8.979,7.534,8.8S6.647,8.522,6.16,8.522z"/>
</g>
<g>
	<path class="st0" d="M11.297,15.835c-0.521,0-1.017-0.106-1.469-0.298s-0.859-0.469-1.201-0.811s-0.619-0.75-0.811-1.202
		s-0.297-0.949-0.297-1.47c0-0.521,0.106-1.018,0.297-1.471s0.469-0.86,0.811-1.202s0.749-0.62,1.201-0.811s0.949-0.298,1.469-0.298
		c0.521,0,1.019,0.106,1.471,0.298s0.86,0.469,1.203,0.811s0.62,0.75,0.812,1.202s0.298,0.949,0.298,1.471
		c0,0.521-0.106,1.018-0.298,1.47s-0.469,0.86-0.812,1.202s-0.75,0.62-1.203,0.811S11.818,15.835,11.297,15.835z M11.297,8.522
		c-0.486,0-0.95,0.099-1.372,0.278S9.122,9.238,8.803,9.558s-0.578,0.7-0.757,1.123s-0.278,0.887-0.278,1.373
		s0.099,0.951,0.278,1.373s0.437,0.803,0.757,1.123s0.7,0.579,1.122,0.757s0.886,0.278,1.372,0.278c0.487,0,0.951-0.099,1.374-0.278
		s0.803-0.438,1.123-0.757s0.579-0.7,0.758-1.123s0.278-0.886,0.278-1.373s-0.099-0.951-0.278-1.373s-0.438-0.803-0.758-1.123
		S13.093,8.979,12.671,8.8S11.784,8.522,11.297,8.522z"/>
</g>
<g>
	<path class="st0" d="M29.819,29.908h-7.432h-7.432H7.523H0.091v-7.432v-7.432V7.611V0.179h7.432h7.432h7.432h7.432v7.432v7.432
		v7.432V29.908z M0.341,29.658h7.307h7.307h7.307h7.307V22.35v-7.307V7.736V0.429h-7.307h-7.307H7.648H0.341v7.307v7.307v7.307
		V29.658z"/>
</g>
<g>
	<path class="st0" d="M26.957,27.854c-0.167-0.02-0.325-0.049-0.476-0.088s-0.294-0.087-0.429-0.145s-0.261-0.125-0.38-0.201
		s-0.228-0.162-0.329-0.256c-0.106-0.099-0.197-0.202-0.276-0.308s-0.147-0.213-0.205-0.319s-0.108-0.211-0.152-0.311
		s-0.081-0.195-0.116-0.283c-0.025-0.063-0.048-0.124-0.072-0.179s-0.047-0.107-0.071-0.15s-0.048-0.079-0.072-0.105
		s-0.05-0.041-0.078-0.044c-0.028-0.006-0.056,0.002-0.085,0.02s-0.059,0.047-0.089,0.082s-0.062,0.079-0.095,0.126
		s-0.067,0.098-0.102,0.15c-0.054,0.079-0.113,0.166-0.179,0.253s-0.14,0.177-0.224,0.261s-0.178,0.164-0.285,0.232
		s-0.226,0.126-0.361,0.167c-0.005,0.002-0.042,0.013-0.103,0.025s-0.146,0.025-0.249,0.03s-0.223,0.004-0.354-0.013
		s-0.272-0.05-0.417-0.107c-0.267-0.104-0.498-0.588-0.701-1.408s-0.378-1.975-0.532-3.418s-0.288-3.176-0.409-5.151
		s-0.23-4.192-0.333-6.606c-0.005-0.109-0.009-0.217-0.014-0.322s-0.009-0.209-0.013-0.309s-0.009-0.199-0.013-0.294
		s-0.008-0.187-0.012-0.276c-0.027,0.351-0.055,0.765-0.083,1.231s-0.058,0.987-0.088,1.551s-0.061,1.171-0.093,1.812
		s-0.065,1.316-0.099,2.015c-0.004,0.09-0.011,0.224-0.02,0.396c-0.009,0.172-0.021,0.382-0.035,0.623s-0.032,0.516-0.053,0.816
		s-0.045,0.627-0.073,0.975c-0.019,0.234-0.037,0.452-0.055,0.654s-0.035,0.386-0.05,0.552s-0.03,0.313-0.043,0.44
		s-0.024,0.234-0.033,0.318c-0.047,0.448-0.089,0.84-0.128,1.189s-0.076,0.657-0.115,0.935s-0.079,0.528-0.124,0.762
		s-0.096,0.452-0.156,0.668c-0.09,0.325-0.169,0.61-0.245,0.861s-0.147,0.468-0.224,0.659s-0.156,0.355-0.249,0.5
		s-0.196,0.27-0.32,0.383c-0.144,0.131-0.285,0.229-0.462,0.303s-0.389,0.124-0.675,0.157s-0.647,0.051-1.119,0.06
		s-1.058,0.011-1.794,0.013l-0.271,0.001l-0.271,0.001l-0.271,0.001l-0.271,0.001c-0.505,0.001-0.904,0.002-1.224-0.002
		s-0.561-0.012-0.752-0.031s-0.331-0.047-0.449-0.09s-0.214-0.101-0.315-0.178c-0.182-0.138-0.322-0.292-0.434-0.476
		s-0.193-0.396-0.258-0.652s-0.111-0.555-0.153-0.912s-0.077-0.77-0.118-1.254c-0.007-0.077-0.013-0.156-0.02-0.237
		s-0.014-0.163-0.022-0.248s-0.015-0.171-0.023-0.26s-0.016-0.179-0.025-0.272c-0.049-0.525-0.104-1.063-0.161-1.586
		s-0.118-1.032-0.178-1.498s-0.121-0.889-0.179-1.241s-0.113-0.634-0.164-0.816c-0.03,0.142-0.06,0.34-0.088,0.569
		s-0.056,0.49-0.081,0.759s-0.049,0.547-0.07,0.81s-0.04,0.511-0.056,0.722c-0.044,0.579-0.084,1.071-0.122,1.511
		s-0.073,0.83-0.11,1.205s-0.074,0.735-0.114,1.116S7.107,24.51,7.057,24.97C7.027,25.237,7,25.482,6.967,25.705
		s-0.072,0.427-0.126,0.611s-0.122,0.35-0.214,0.498s-0.206,0.28-0.353,0.396c-0.161,0.128-0.337,0.219-0.52,0.282
		s-0.373,0.098-0.563,0.112s-0.379,0.008-0.56-0.011s-0.354-0.051-0.51-0.088l0.017-0.073l0.017-0.073l0.017-0.073l0.017-0.073
		c0.14,0.033,0.295,0.062,0.456,0.08s0.329,0.025,0.497,0.014s0.335-0.039,0.495-0.092s0.312-0.131,0.45-0.24
		c0.117-0.093,0.209-0.199,0.285-0.322s0.133-0.265,0.181-0.429s0.083-0.35,0.115-0.563s0.06-0.453,0.09-0.724
		c0.05-0.458,0.095-0.86,0.135-1.24s0.078-0.739,0.114-1.114s0.072-0.763,0.11-1.203s0.077-0.931,0.122-1.508
		c0.059-0.766,0.109-1.357,0.155-1.812s0.089-0.775,0.131-0.999s0.086-0.352,0.134-0.425s0.101-0.089,0.164-0.09
		c0.001,0,0.001,0,0.002,0s0.001,0,0.002,0s0.001,0,0.002,0s0.001,0,0.002,0c0.041,0,0.091,0.006,0.151,0.101
		s0.129,0.279,0.21,0.635s0.172,0.884,0.275,1.667s0.219,1.822,0.347,3.198c0.009,0.093,0.017,0.184,0.025,0.272
		s0.016,0.175,0.023,0.26s0.015,0.168,0.022,0.249s0.014,0.16,0.02,0.237c0.04,0.461,0.074,0.855,0.112,1.193
		s0.081,0.621,0.138,0.862s0.128,0.438,0.224,0.605s0.216,0.303,0.372,0.422c0.078,0.06,0.152,0.105,0.249,0.139
		s0.219,0.057,0.393,0.072s0.402,0.023,0.711,0.026s0.701,0.003,1.204,0.001l0.271-0.001l0.271-0.001l0.271-0.001l0.271-0.001
		c0.712-0.002,1.277-0.003,1.733-0.011s0.802-0.023,1.075-0.051s0.472-0.071,0.633-0.134s0.286-0.147,0.408-0.258
		c0.108-0.098,0.2-0.211,0.282-0.344s0.155-0.286,0.225-0.466s0.138-0.386,0.209-0.625s0.147-0.511,0.233-0.821
		c0.059-0.211,0.108-0.426,0.153-0.656s0.084-0.476,0.122-0.751s0.075-0.579,0.114-0.925s0.08-0.735,0.127-1.178
		c0.009-0.084,0.02-0.191,0.032-0.317s0.027-0.273,0.043-0.439s0.033-0.349,0.05-0.55s0.036-0.419,0.055-0.652
		c0.028-0.346,0.052-0.672,0.073-0.971s0.038-0.572,0.053-0.812s0.026-0.448,0.035-0.617c0.009-0.169,0.015-0.3,0.02-0.387
		c0.096-1.959,0.172-3.448,0.235-4.578s0.115-1.903,0.163-2.431s0.093-0.81,0.144-0.961s0.107-0.17,0.179-0.17
		c0.045,0.002,0.079,0.002,0.106,0.044s0.047,0.126,0.066,0.296s0.035,0.423,0.054,0.806s0.041,0.893,0.07,1.575
		c0.047,1.086,0.112,2.623,0.202,4.323s0.204,3.564,0.346,5.305s0.313,3.36,0.518,4.571s0.442,2.012,0.718,2.119
		c0.12,0.046,0.237,0.073,0.347,0.087s0.21,0.015,0.296,0.011s0.157-0.015,0.207-0.024s0.079-0.017,0.08-0.018
		c0.109-0.033,0.206-0.08,0.293-0.137s0.165-0.123,0.235-0.194s0.134-0.149,0.193-0.228s0.114-0.159,0.167-0.237
		c0.047-0.069,0.093-0.136,0.14-0.199s0.095-0.119,0.147-0.167s0.106-0.086,0.165-0.111s0.124-0.037,0.196-0.031
		c0.073,0.007,0.135,0.031,0.189,0.068s0.1,0.088,0.141,0.148s0.078,0.13,0.112,0.207s0.067,0.159,0.101,0.245
		c0.034,0.085,0.069,0.175,0.109,0.268s0.085,0.189,0.138,0.285s0.113,0.192,0.183,0.286s0.151,0.186,0.244,0.273
		c0.089,0.083,0.187,0.159,0.292,0.226s0.218,0.127,0.339,0.178s0.249,0.094,0.384,0.128s0.279,0.061,0.429,0.079l-0.009,0.074
		l-0.009,0.074l-0.009,0.074L26.957,27.854z"/>
</g>
</svg>
