<?xml version="1.0" encoding="utf-8"?>
<!-- Generator: Adobe Illustrator 19.1.0, SVG Export Plug-In . SVG Version: 6.00 Build 0)  -->
<svg version="1.1" id="Layer_1" xmlns="http://www.w3.org/2000/svg" xmlns:xlink="http://www.w3.org/1999/xlink" x="0px" y="0px"
	 viewBox="0 0 126.038 48.861" style="enable-background:new 0 0 126.038 48.861;" xml:space="preserve">
<style type="text/css">
	.st0{fill:#115C78;}
	.st1{fill-rule:evenodd;clip-rule:evenodd;fill:#4D4D4D;}
	.st2{fill:#4D4D4D;}
	.st3{fill-rule:evenodd;clip-rule:evenodd;}
	.st4{fill:#FFFFFF;}
	.st5{fill:none;}
	.st6{fill:none;stroke:#4D4D4D;stroke-width:0.3;stroke-miterlimit:10;}
	.st7{fill:#4D4D4D;stroke:#4D4D4D;stroke-width:0.1;stroke-miterlimit:10;}
	.st8{fill:#F0047F;}
	.st9{fill:none;stroke:#4D4D4D;stroke-width:0;stroke-linecap:round;stroke-linejoin:round;}
	.st10{fill:none;stroke:#4D4D4D;stroke-width:0.25;stroke-miterlimit:10;}
	.st11{fill:none;stroke:#4D4D4D;stroke-width:0.2;stroke-miterlimit:10;}
	.st12{fill:none;stroke:#4D4D4D;stroke-width:0.8;stroke-miterlimit:10;}
	.st13{fill:#4D4D4D;stroke:#4D4D4D;stroke-width:0.3;stroke-miterlimit:10;}
	.st14{fill:none;stroke:#4D4D4D;stroke-width:0.24;stroke-miterlimit:10;}
</style>
<g>
	<g>
		<path d="M11.322,29.325h0.51h0.51h0.51h0.51c0.191,0,0.372,0.009,0.544,0.028s0.333,0.046,0.485,0.083
			c0.152,0.037,0.294,0.083,0.426,0.138s0.255,0.12,0.368,0.193c0.113,0.074,0.211,0.158,0.296,0.253
			c0.085,0.095,0.155,0.2,0.211,0.316c0.056,0.116,0.099,0.243,0.127,0.38c0.028,0.137,0.042,0.285,0.042,0.444
			c0,0.099-0.007,0.196-0.021,0.288s-0.035,0.183-0.064,0.269c-0.028,0.087-0.064,0.17-0.106,0.25
			c-0.042,0.08-0.092,0.157-0.148,0.23c-0.056,0.074-0.12,0.141-0.19,0.204s-0.147,0.119-0.23,0.17
			c-0.084,0.051-0.174,0.097-0.271,0.136s-0.201,0.074-0.312,0.103v0.011v0.011v0.011v0.011c0.14,0.021,0.272,0.049,0.396,0.083
			s0.242,0.076,0.352,0.124s0.212,0.103,0.307,0.165s0.182,0.13,0.262,0.206c0.08,0.076,0.151,0.158,0.211,0.248
			s0.11,0.186,0.15,0.29c0.04,0.104,0.07,0.214,0.09,0.332s0.03,0.242,0.03,0.374c0,0.092-0.004,0.181-0.013,0.267
			s-0.021,0.169-0.038,0.25c-0.017,0.08-0.038,0.158-0.062,0.232c-0.025,0.075-0.054,0.146-0.087,0.215
			c-0.034,0.069-0.071,0.135-0.111,0.198c-0.04,0.063-0.084,0.123-0.132,0.18c-0.047,0.057-0.098,0.112-0.152,0.163
			s-0.112,0.1-0.173,0.146c-0.061,0.046-0.125,0.089-0.193,0.129c-0.067,0.04-0.138,0.077-0.211,0.112
			c-0.074,0.034-0.15,0.066-0.23,0.095c-0.08,0.029-0.163,0.055-0.249,0.078c-0.086,0.023-0.175,0.043-0.266,0.06
			s-0.185,0.032-0.281,0.043c-0.096,0.011-0.196,0.02-0.297,0.026s-0.206,0.009-0.313,0.009h-0.547h-0.547h-0.547h-0.547v-1.889
			v-1.889v-1.889V29.325z M13.156,32.649c0.195,0,0.376-0.008,0.543-0.023s0.32-0.039,0.46-0.07s0.265-0.07,0.377-0.116
			c0.112-0.047,0.21-0.101,0.294-0.163c0.084-0.062,0.158-0.132,0.221-0.21s0.116-0.164,0.158-0.258
			c0.042-0.094,0.074-0.196,0.095-0.306c0.021-0.11,0.032-0.228,0.032-0.354c0-0.122-0.011-0.236-0.034-0.342
			c-0.022-0.105-0.056-0.202-0.101-0.291c-0.045-0.088-0.101-0.168-0.168-0.24c-0.067-0.071-0.146-0.134-0.236-0.189
			c-0.09-0.054-0.19-0.102-0.301-0.143s-0.232-0.075-0.364-0.102c-0.132-0.027-0.274-0.048-0.427-0.061
			c-0.153-0.014-0.316-0.021-0.49-0.021h-0.341h-0.341h-0.341H11.85v0.722v0.722v0.722v0.722h0.327h0.327h0.327H13.156z
			 M13.374,36.444c0.189,0,0.368-0.009,0.537-0.027c0.169-0.018,0.328-0.044,0.476-0.08c0.149-0.035,0.287-0.079,0.415-0.132
			c0.128-0.053,0.246-0.115,0.354-0.185c0.108-0.071,0.202-0.152,0.283-0.243c0.081-0.091,0.148-0.193,0.202-0.305
			c0.054-0.112,0.094-0.234,0.121-0.366c0.027-0.132,0.04-0.275,0.04-0.428c0-0.136-0.013-0.262-0.04-0.381
			c-0.026-0.118-0.066-0.228-0.119-0.328c-0.053-0.101-0.118-0.193-0.197-0.276c-0.079-0.083-0.171-0.158-0.276-0.224
			c-0.105-0.066-0.221-0.124-0.348-0.173c-0.127-0.049-0.266-0.091-0.416-0.124c-0.15-0.033-0.311-0.058-0.484-0.074
			c-0.173-0.016-0.356-0.025-0.551-0.025h-0.381h-0.381h-0.381H11.85v0.843v0.843v0.843v0.843h0.381h0.381h0.381H13.374z"/>
	</g>
	<g>
		<path d="M17.89,31.377h0.109h0.109h0.109h0.109l0.011,0.255l0.011,0.255l0.011,0.255l0.011,0.255h0.009h0.009h0.009h0.009
			c0.046-0.086,0.094-0.168,0.145-0.246c0.051-0.078,0.104-0.152,0.16-0.221c0.056-0.07,0.114-0.135,0.175-0.197
			s0.124-0.119,0.19-0.173c0.066-0.053,0.134-0.1,0.204-0.14s0.142-0.073,0.216-0.1c0.074-0.027,0.15-0.047,0.228-0.06
			s0.158-0.02,0.241-0.02c0.026,0,0.052,0,0.077,0.001c0.025,0.001,0.05,0.002,0.074,0.004c0.024,0.002,0.047,0.004,0.07,0.007
			c0.023,0.003,0.044,0.006,0.066,0.01c0.021,0.004,0.042,0.009,0.063,0.015s0.043,0.013,0.065,0.02s0.044,0.016,0.067,0.026
			s0.045,0.02,0.069,0.031l-0.029,0.115l-0.029,0.115l-0.029,0.115l-0.029,0.115c-0.023-0.009-0.045-0.018-0.067-0.026
			c-0.022-0.008-0.042-0.015-0.063-0.021c-0.02-0.006-0.04-0.012-0.058-0.016s-0.037-0.008-0.054-0.011
			c-0.017-0.003-0.036-0.005-0.055-0.007c-0.02-0.002-0.04-0.004-0.062-0.005c-0.022-0.001-0.045-0.002-0.069-0.003
			s-0.049-0.001-0.076-0.001c-0.061,0-0.123,0.007-0.186,0.02c-0.063,0.013-0.127,0.033-0.191,0.059
			c-0.065,0.026-0.13,0.059-0.196,0.098c-0.066,0.039-0.133,0.085-0.201,0.138c-0.068,0.053-0.134,0.115-0.198,0.187
			s-0.127,0.153-0.188,0.245s-0.119,0.192-0.176,0.303c-0.057,0.111-0.112,0.231-0.165,0.361v0.937v0.937v0.937v0.937h-0.126h-0.126
			h-0.126H17.89v-1.376v-1.376v-1.376V31.377z"/>
	</g>
	<g>
		<path d="M21.788,30.047c-0.032,0-0.063-0.003-0.093-0.008s-0.058-0.013-0.085-0.024c-0.027-0.011-0.053-0.024-0.078-0.039
			c-0.025-0.016-0.048-0.034-0.07-0.055s-0.041-0.043-0.058-0.067c-0.017-0.024-0.03-0.049-0.042-0.076
			c-0.011-0.027-0.019-0.055-0.025-0.084c-0.006-0.03-0.008-0.061-0.008-0.093c0-0.036,0.003-0.071,0.008-0.103
			c0.006-0.032,0.014-0.063,0.025-0.091c0.011-0.028,0.025-0.054,0.042-0.078s0.036-0.046,0.058-0.066
			c0.022-0.02,0.045-0.038,0.07-0.053c0.025-0.015,0.05-0.028,0.078-0.038c0.027-0.01,0.056-0.018,0.085-0.023
			s0.061-0.008,0.093-0.008c0.032,0,0.063,0.002,0.093,0.008c0.03,0.005,0.058,0.013,0.085,0.023
			c0.027,0.01,0.053,0.023,0.078,0.038c0.025,0.015,0.048,0.033,0.07,0.053c0.022,0.02,0.041,0.042,0.058,0.066
			c0.017,0.024,0.03,0.05,0.042,0.078c0.011,0.028,0.019,0.058,0.025,0.091c0.006,0.032,0.008,0.067,0.008,0.103
			c0,0.032-0.003,0.063-0.008,0.093c-0.006,0.03-0.014,0.058-0.025,0.084c-0.011,0.027-0.025,0.052-0.042,0.076
			c-0.017,0.024-0.036,0.046-0.058,0.067s-0.045,0.039-0.07,0.055c-0.025,0.016-0.05,0.029-0.078,0.039
			c-0.027,0.011-0.056,0.018-0.085,0.024C21.851,30.045,21.82,30.047,21.788,30.047z M21.524,31.377h0.126h0.126h0.126h0.126v1.376
			v1.376v1.376v1.376h-0.126h-0.126H21.65h-0.126v-1.376v-1.376v-1.376V31.377z"/>
	</g>
	<g>
		<path d="M24.15,31.377h0.109h0.109h0.109h0.109l0.012,0.212l0.012,0.212l0.012,0.212l0.012,0.212h0.008h0.008h0.008h0.008
			c0.071-0.071,0.142-0.139,0.214-0.203c0.072-0.065,0.144-0.127,0.217-0.185c0.073-0.059,0.146-0.115,0.219-0.167
			c0.074-0.053,0.148-0.103,0.222-0.149c0.074-0.047,0.151-0.088,0.231-0.123c0.08-0.035,0.162-0.064,0.247-0.088
			c0.085-0.023,0.173-0.041,0.263-0.053c0.09-0.012,0.183-0.018,0.279-0.018c0.143,0,0.277,0.011,0.401,0.032
			c0.124,0.021,0.239,0.054,0.344,0.097c0.105,0.043,0.201,0.097,0.286,0.161c0.086,0.064,0.162,0.14,0.229,0.226
			c0.067,0.086,0.126,0.184,0.176,0.293c0.05,0.109,0.092,0.23,0.125,0.363c0.033,0.133,0.058,0.277,0.075,0.434
			c0.017,0.156,0.025,0.324,0.025,0.504v0.883v0.883v0.883v0.883h-0.126h-0.126h-0.126h-0.126v-0.865v-0.865v-0.865v-0.865
			c0-0.147-0.006-0.285-0.018-0.412c-0.012-0.128-0.03-0.246-0.055-0.355c-0.024-0.109-0.055-0.207-0.091-0.296
			c-0.037-0.089-0.079-0.169-0.128-0.238c-0.049-0.07-0.106-0.13-0.17-0.183c-0.065-0.052-0.138-0.096-0.218-0.131
			c-0.081-0.035-0.17-0.061-0.266-0.079c-0.097-0.017-0.202-0.026-0.314-0.026c-0.082,0-0.162,0.005-0.24,0.016
			c-0.078,0.011-0.155,0.027-0.229,0.048s-0.147,0.048-0.218,0.081s-0.14,0.07-0.207,0.113c-0.067,0.043-0.136,0.091-0.207,0.145
			c-0.071,0.054-0.144,0.113-0.22,0.177c-0.075,0.064-0.153,0.134-0.233,0.209c-0.08,0.075-0.162,0.156-0.246,0.242v1.038v1.038
			v1.038v1.038h-0.126h-0.126h-0.126H24.15v-1.376v-1.376v-1.376V31.377z"/>
	</g>
	<g>
		<path d="M29.789,38.003c0-0.061,0.005-0.122,0.014-0.182c0.009-0.06,0.023-0.12,0.041-0.179c0.018-0.059,0.041-0.118,0.068-0.176
			c0.027-0.058,0.059-0.116,0.096-0.173c0.036-0.057,0.075-0.113,0.118-0.168c0.043-0.054,0.089-0.108,0.139-0.159
			c0.05-0.052,0.103-0.102,0.159-0.15c0.056-0.049,0.116-0.096,0.179-0.142v-0.011V36.65v-0.011v-0.011
			c-0.034-0.021-0.067-0.044-0.099-0.069c-0.031-0.025-0.061-0.052-0.09-0.08s-0.056-0.059-0.082-0.092
			c-0.026-0.032-0.05-0.067-0.074-0.103c-0.023-0.036-0.043-0.075-0.06-0.116c-0.017-0.041-0.032-0.083-0.043-0.128
			c-0.011-0.045-0.02-0.092-0.026-0.141c-0.006-0.049-0.009-0.1-0.009-0.154c0-0.061,0.004-0.12,0.013-0.177
			c0.009-0.057,0.021-0.111,0.039-0.163c0.017-0.052,0.039-0.102,0.064-0.15c0.026-0.048,0.056-0.093,0.09-0.136
			c0.034-0.043,0.068-0.083,0.102-0.121s0.067-0.072,0.099-0.104c0.033-0.032,0.065-0.061,0.096-0.088
			c0.032-0.026,0.063-0.05,0.093-0.071v-0.011v-0.011v-0.011V34.69c-0.044-0.038-0.087-0.08-0.129-0.125
			c-0.042-0.045-0.082-0.093-0.122-0.145c-0.04-0.052-0.078-0.107-0.115-0.165c-0.037-0.058-0.074-0.12-0.109-0.185
			c-0.036-0.065-0.067-0.132-0.093-0.202c-0.027-0.07-0.049-0.142-0.066-0.217s-0.031-0.152-0.04-0.231s-0.013-0.161-0.013-0.245
			c0-0.071,0.003-0.14,0.009-0.207s0.015-0.134,0.028-0.199c0.012-0.065,0.028-0.128,0.046-0.19c0.019-0.062,0.04-0.123,0.065-0.182
			c0.025-0.059,0.052-0.117,0.082-0.172c0.03-0.055,0.062-0.108,0.096-0.159c0.034-0.051,0.071-0.1,0.11-0.147
			c0.039-0.047,0.081-0.092,0.125-0.135c0.044-0.043,0.09-0.084,0.138-0.122c0.048-0.038,0.097-0.074,0.149-0.107
			c0.052-0.033,0.105-0.064,0.16-0.093s0.113-0.055,0.172-0.079c0.059-0.024,0.119-0.045,0.18-0.063
			c0.061-0.018,0.123-0.033,0.186-0.045c0.063-0.012,0.127-0.021,0.192-0.027c0.065-0.006,0.131-0.009,0.198-0.009
			c0.038,0,0.076,0.001,0.112,0.002c0.036,0.002,0.072,0.004,0.106,0.007c0.034,0.003,0.068,0.007,0.1,0.012
			c0.032,0.005,0.064,0.011,0.094,0.018c0.031,0.007,0.06,0.014,0.089,0.021c0.028,0.007,0.055,0.015,0.081,0.023
			c0.026,0.008,0.05,0.017,0.074,0.026c0.023,0.009,0.046,0.018,0.067,0.028h0.467h0.467h0.467h0.467v0.106v0.106v0.106v0.106
			h-0.321h-0.321h-0.321h-0.321c0.044,0.038,0.085,0.079,0.125,0.123c0.04,0.044,0.078,0.09,0.114,0.139
			c0.036,0.049,0.071,0.101,0.103,0.156c0.033,0.055,0.063,0.112,0.092,0.172c0.029,0.06,0.054,0.122,0.075,0.186
			c0.021,0.063,0.039,0.128,0.053,0.195c0.014,0.066,0.025,0.134,0.032,0.204s0.011,0.14,0.011,0.213
			c0,0.071-0.003,0.14-0.009,0.208c-0.006,0.068-0.015,0.134-0.028,0.199c-0.012,0.065-0.028,0.128-0.046,0.191
			c-0.019,0.062-0.04,0.123-0.065,0.182c-0.025,0.059-0.052,0.116-0.081,0.172c-0.029,0.055-0.061,0.108-0.095,0.159
			c-0.034,0.051-0.07,0.1-0.108,0.147c-0.038,0.047-0.079,0.092-0.122,0.135c-0.043,0.043-0.088,0.084-0.135,0.122
			s-0.096,0.074-0.146,0.107c-0.051,0.033-0.103,0.064-0.157,0.093c-0.054,0.029-0.111,0.055-0.169,0.079
			c-0.058,0.024-0.118,0.045-0.178,0.063c-0.06,0.018-0.122,0.033-0.184,0.045c-0.063,0.012-0.126,0.021-0.191,0.027
			c-0.065,0.006-0.131,0.009-0.198,0.009c-0.038,0-0.076-0.001-0.115-0.004c-0.039-0.002-0.078-0.006-0.118-0.011
			c-0.04-0.005-0.08-0.011-0.12-0.018c-0.04-0.007-0.081-0.016-0.122-0.025c-0.041-0.01-0.081-0.02-0.12-0.032
			s-0.077-0.025-0.114-0.039s-0.072-0.03-0.107-0.047c-0.035-0.017-0.068-0.035-0.1-0.054c-0.031,0.025-0.06,0.05-0.089,0.077
			s-0.056,0.053-0.082,0.081s-0.051,0.056-0.075,0.085c-0.024,0.029-0.047,0.059-0.069,0.09c-0.022,0.031-0.041,0.063-0.058,0.097
			c-0.017,0.034-0.03,0.071-0.042,0.109c-0.011,0.038-0.019,0.078-0.025,0.12c-0.006,0.042-0.008,0.086-0.008,0.132
			c0,0.05,0.005,0.098,0.014,0.144c0.009,0.046,0.023,0.09,0.041,0.133c0.018,0.042,0.041,0.083,0.068,0.122
			c0.027,0.039,0.059,0.076,0.096,0.111c0.036,0.035,0.08,0.066,0.133,0.093c0.053,0.027,0.114,0.049,0.184,0.066
			c0.07,0.018,0.148,0.031,0.234,0.04c0.087,0.009,0.181,0.013,0.285,0.013h0.295h0.295h0.295h0.295
			c0.155,0,0.299,0.006,0.434,0.019c0.135,0.013,0.259,0.032,0.373,0.057c0.114,0.025,0.218,0.057,0.312,0.095
			s0.178,0.082,0.251,0.133c0.074,0.051,0.138,0.108,0.193,0.174s0.101,0.138,0.138,0.217c0.037,0.08,0.064,0.167,0.083,0.261
			c0.018,0.094,0.028,0.196,0.028,0.305c0,0.059-0.004,0.118-0.012,0.176s-0.019,0.117-0.035,0.174
			c-0.015,0.058-0.035,0.115-0.058,0.173c-0.023,0.057-0.05,0.114-0.08,0.171c-0.03,0.056-0.064,0.111-0.101,0.164
			c-0.037,0.053-0.077,0.104-0.121,0.154s-0.09,0.098-0.14,0.144c-0.05,0.046-0.103,0.091-0.16,0.134s-0.116,0.084-0.178,0.122
			c-0.062,0.039-0.128,0.075-0.196,0.11c-0.068,0.034-0.14,0.067-0.214,0.097s-0.152,0.058-0.232,0.084
			c-0.08,0.026-0.162,0.048-0.247,0.068c-0.085,0.019-0.172,0.036-0.262,0.048c-0.09,0.013-0.182,0.023-0.276,0.029
			s-0.191,0.01-0.291,0.01c-0.174,0-0.339-0.009-0.495-0.026s-0.302-0.043-0.44-0.077c-0.138-0.034-0.266-0.077-0.386-0.129
			c-0.12-0.052-0.23-0.112-0.332-0.181c-0.101-0.069-0.19-0.144-0.266-0.225c-0.076-0.081-0.139-0.167-0.19-0.26
			c-0.051-0.093-0.089-0.191-0.114-0.296C29.802,38.23,29.789,38.12,29.789,38.003z M30.272,37.957c0,0.086,0.01,0.168,0.03,0.246
			c0.02,0.078,0.049,0.152,0.089,0.221c0.04,0.07,0.089,0.135,0.148,0.197c0.059,0.062,0.129,0.119,0.208,0.173
			c0.079,0.054,0.167,0.1,0.263,0.141c0.096,0.04,0.201,0.074,0.314,0.1c0.113,0.027,0.235,0.047,0.365,0.06s0.269,0.02,0.416,0.02
			c0.076,0,0.151-0.003,0.224-0.008c0.073-0.005,0.145-0.013,0.215-0.023c0.07-0.01,0.138-0.023,0.205-0.038
			s0.131-0.033,0.195-0.053c0.063-0.02,0.123-0.042,0.181-0.065c0.058-0.023,0.114-0.048,0.167-0.074
			c0.053-0.026,0.105-0.054,0.153-0.083c0.049-0.029,0.095-0.06,0.139-0.093c0.044-0.033,0.085-0.066,0.124-0.101
			c0.039-0.035,0.075-0.07,0.109-0.107c0.034-0.037,0.065-0.075,0.094-0.113s0.055-0.079,0.079-0.12
			c0.024-0.041,0.044-0.083,0.062-0.124c0.018-0.042,0.033-0.084,0.045-0.126s0.021-0.085,0.027-0.129
			c0.006-0.043,0.009-0.087,0.009-0.131c0-0.077-0.007-0.147-0.02-0.213c-0.014-0.065-0.034-0.125-0.061-0.179
			c-0.027-0.054-0.061-0.102-0.102-0.145c-0.041-0.043-0.088-0.08-0.143-0.111s-0.115-0.059-0.181-0.083s-0.139-0.043-0.218-0.059
			s-0.164-0.028-0.255-0.036c-0.091-0.008-0.188-0.012-0.291-0.012h-0.295h-0.295h-0.295h-0.295c-0.015,0-0.032,0-0.052-0.001
			c-0.019-0.001-0.041-0.002-0.064-0.003s-0.049-0.003-0.076-0.005c-0.027-0.002-0.057-0.005-0.088-0.007
			c-0.032-0.003-0.064-0.007-0.097-0.011c-0.033-0.005-0.066-0.01-0.1-0.016c-0.034-0.006-0.069-0.013-0.104-0.021
			c-0.035-0.008-0.071-0.017-0.107-0.026c-0.063,0.044-0.122,0.088-0.176,0.134c-0.054,0.045-0.105,0.091-0.15,0.138
			c-0.046,0.047-0.087,0.094-0.124,0.143c-0.037,0.048-0.07,0.097-0.099,0.147s-0.054,0.1-0.075,0.149
			c-0.021,0.05-0.039,0.099-0.053,0.149c-0.014,0.05-0.025,0.099-0.032,0.149C30.275,37.858,30.272,37.908,30.272,37.957z
			 M31.967,34.724c0.048,0,0.095-0.002,0.142-0.007c0.047-0.005,0.093-0.011,0.138-0.02c0.045-0.009,0.09-0.02,0.134-0.034
			c0.044-0.014,0.088-0.029,0.131-0.048c0.043-0.018,0.084-0.038,0.125-0.061c0.04-0.022,0.079-0.047,0.117-0.073
			c0.038-0.026,0.074-0.055,0.109-0.085s0.069-0.063,0.101-0.097c0.032-0.034,0.063-0.07,0.092-0.108
			c0.029-0.038,0.057-0.077,0.083-0.118c0.026-0.041,0.05-0.084,0.073-0.128c0.023-0.044,0.043-0.09,0.063-0.138
			c0.019-0.048,0.035-0.097,0.049-0.147c0.014-0.05,0.026-0.102,0.036-0.154c0.009-0.053,0.017-0.106,0.021-0.161
			c0.005-0.055,0.007-0.111,0.007-0.169c0-0.057-0.002-0.113-0.007-0.168S33.37,32.9,33.36,32.847
			c-0.009-0.053-0.021-0.104-0.036-0.154c-0.014-0.05-0.031-0.099-0.049-0.147c-0.019-0.048-0.04-0.094-0.062-0.138
			c-0.022-0.044-0.046-0.086-0.072-0.126c-0.025-0.04-0.052-0.078-0.081-0.115c-0.028-0.036-0.058-0.071-0.089-0.103
			c-0.032-0.033-0.065-0.063-0.1-0.092s-0.071-0.056-0.109-0.081c-0.038-0.025-0.077-0.049-0.118-0.07
			c-0.041-0.022-0.083-0.042-0.127-0.06c-0.044-0.018-0.088-0.034-0.133-0.048s-0.09-0.025-0.136-0.034
			c-0.046-0.009-0.092-0.016-0.139-0.02s-0.094-0.007-0.142-0.007c-0.05,0-0.098,0.002-0.146,0.007
			c-0.048,0.005-0.095,0.011-0.141,0.02c-0.046,0.009-0.092,0.02-0.136,0.034s-0.088,0.029-0.131,0.048
			c-0.043,0.018-0.085,0.038-0.125,0.06s-0.079,0.045-0.117,0.07c-0.038,0.025-0.074,0.052-0.109,0.081s-0.069,0.06-0.101,0.092
			c-0.033,0.033-0.064,0.067-0.093,0.103c-0.029,0.036-0.057,0.074-0.083,0.114c-0.026,0.04-0.05,0.081-0.072,0.124
			s-0.043,0.088-0.062,0.135s-0.036,0.095-0.05,0.145c-0.014,0.05-0.026,0.101-0.036,0.154c-0.01,0.053-0.017,0.108-0.022,0.164
			c-0.005,0.056-0.007,0.114-0.007,0.173c0,0.057,0.002,0.114,0.007,0.169c0.005,0.055,0.012,0.109,0.022,0.161
			c0.01,0.053,0.022,0.104,0.036,0.154c0.014,0.05,0.031,0.099,0.05,0.147s0.04,0.094,0.063,0.138
			c0.023,0.044,0.047,0.087,0.074,0.128c0.026,0.041,0.054,0.08,0.084,0.118c0.03,0.038,0.061,0.074,0.094,0.108
			c0.034,0.034,0.068,0.067,0.104,0.097c0.036,0.03,0.073,0.059,0.111,0.085c0.038,0.026,0.078,0.051,0.118,0.073
			s0.083,0.043,0.126,0.061c0.043,0.018,0.086,0.034,0.13,0.048s0.089,0.025,0.134,0.034c0.045,0.009,0.091,0.016,0.138,0.02
			C31.872,34.722,31.919,34.724,31.967,34.724z"/>
	</g>
	<g>
		<path d="M36.095,30.047c-0.032,0-0.063-0.003-0.093-0.008c-0.03-0.005-0.058-0.013-0.085-0.024
			c-0.027-0.011-0.053-0.024-0.078-0.039c-0.025-0.016-0.048-0.034-0.07-0.055c-0.022-0.021-0.041-0.043-0.058-0.067
			c-0.017-0.024-0.03-0.049-0.042-0.076c-0.011-0.027-0.019-0.055-0.025-0.084c-0.006-0.03-0.008-0.061-0.008-0.093
			c0-0.036,0.003-0.071,0.008-0.103c0.006-0.032,0.014-0.063,0.025-0.091c0.011-0.028,0.025-0.054,0.042-0.078
			s0.036-0.046,0.058-0.066c0.022-0.02,0.045-0.038,0.07-0.053c0.025-0.015,0.05-0.028,0.078-0.038
			c0.027-0.01,0.056-0.018,0.085-0.023c0.03-0.005,0.061-0.008,0.093-0.008s0.063,0.002,0.093,0.008s0.058,0.013,0.085,0.023
			c0.027,0.01,0.053,0.023,0.078,0.038c0.025,0.015,0.048,0.033,0.07,0.053c0.022,0.02,0.041,0.042,0.058,0.066
			c0.017,0.024,0.03,0.05,0.042,0.078c0.011,0.028,0.019,0.058,0.025,0.091c0.006,0.032,0.008,0.067,0.008,0.103
			c0,0.032-0.003,0.063-0.008,0.093c-0.006,0.03-0.014,0.058-0.025,0.084c-0.011,0.027-0.025,0.052-0.042,0.076
			c-0.017,0.024-0.036,0.046-0.058,0.067c-0.022,0.021-0.045,0.039-0.07,0.055c-0.025,0.016-0.05,0.029-0.078,0.039
			c-0.027,0.011-0.056,0.018-0.085,0.024S36.127,30.047,36.095,30.047z M35.831,31.377h0.126h0.126h0.126h0.126v1.376v1.376v1.376
			v1.376H36.21h-0.126h-0.126h-0.126v-1.376v-1.376v-1.376V31.377z"/>
	</g>
	<g>
		<path d="M38.457,31.377h0.109h0.109h0.109h0.109l0.012,0.212l0.012,0.212l0.012,0.212l0.012,0.212h0.008h0.008h0.008h0.008
			c0.071-0.071,0.142-0.139,0.214-0.203c0.072-0.065,0.144-0.127,0.217-0.185c0.073-0.059,0.146-0.115,0.219-0.167
			s0.148-0.103,0.222-0.149c0.074-0.047,0.151-0.088,0.231-0.123c0.08-0.035,0.162-0.064,0.247-0.088
			c0.085-0.023,0.173-0.041,0.263-0.053c0.09-0.012,0.183-0.018,0.279-0.018c0.143,0,0.277,0.011,0.401,0.032
			s0.239,0.054,0.344,0.097c0.105,0.043,0.201,0.097,0.286,0.161c0.086,0.064,0.162,0.14,0.229,0.226
			c0.067,0.086,0.126,0.184,0.176,0.293c0.05,0.109,0.092,0.23,0.125,0.363c0.033,0.133,0.058,0.277,0.075,0.434
			s0.025,0.324,0.025,0.504v0.883v0.883v0.883v0.883H42.4h-0.126h-0.126h-0.126v-0.865v-0.865v-0.865v-0.865
			c0-0.147-0.006-0.285-0.018-0.412c-0.012-0.128-0.03-0.246-0.055-0.355c-0.024-0.109-0.055-0.207-0.091-0.296
			c-0.037-0.089-0.079-0.169-0.128-0.238c-0.049-0.07-0.106-0.13-0.17-0.183c-0.065-0.052-0.138-0.096-0.218-0.131
			c-0.081-0.035-0.17-0.061-0.266-0.079c-0.097-0.017-0.202-0.026-0.314-0.026c-0.082,0-0.162,0.005-0.24,0.016
			c-0.078,0.011-0.155,0.027-0.229,0.048s-0.147,0.048-0.218,0.081s-0.14,0.07-0.207,0.113c-0.067,0.043-0.136,0.091-0.207,0.145
			c-0.071,0.054-0.144,0.113-0.22,0.177c-0.075,0.064-0.153,0.134-0.233,0.209c-0.08,0.075-0.162,0.156-0.246,0.242v1.038v1.038
			v1.038v1.038h-0.126h-0.126h-0.126h-0.126v-1.376v-1.376v-1.376V31.377z"/>
	</g>
	<g>
		<path d="M44.096,38.003c0-0.061,0.005-0.122,0.014-0.182c0.009-0.06,0.023-0.12,0.041-0.179c0.018-0.059,0.041-0.118,0.068-0.176
			c0.027-0.058,0.059-0.116,0.096-0.173c0.036-0.057,0.075-0.113,0.118-0.168c0.043-0.054,0.089-0.108,0.139-0.159
			c0.05-0.052,0.103-0.102,0.159-0.15c0.056-0.049,0.116-0.096,0.179-0.142v-0.011V36.65v-0.011v-0.011
			c-0.034-0.021-0.067-0.044-0.099-0.069c-0.031-0.025-0.061-0.052-0.09-0.08s-0.056-0.059-0.082-0.092
			c-0.026-0.032-0.05-0.067-0.074-0.103c-0.023-0.036-0.043-0.075-0.06-0.116c-0.017-0.041-0.032-0.083-0.043-0.128
			s-0.02-0.092-0.026-0.141c-0.006-0.049-0.009-0.1-0.009-0.154c0-0.061,0.004-0.12,0.013-0.177
			c0.009-0.057,0.021-0.111,0.039-0.163c0.017-0.052,0.039-0.102,0.064-0.15s0.056-0.093,0.09-0.136
			c0.034-0.043,0.068-0.083,0.102-0.121s0.067-0.072,0.099-0.104c0.033-0.032,0.065-0.061,0.096-0.088
			c0.032-0.026,0.063-0.05,0.093-0.071v-0.011v-0.011v-0.011V34.69c-0.044-0.038-0.087-0.08-0.129-0.125s-0.082-0.093-0.122-0.145
			c-0.04-0.052-0.078-0.107-0.115-0.165s-0.074-0.12-0.109-0.185c-0.036-0.065-0.067-0.132-0.093-0.202
			c-0.027-0.07-0.049-0.142-0.066-0.217s-0.031-0.152-0.04-0.231c-0.009-0.079-0.013-0.161-0.013-0.245
			c0-0.071,0.003-0.14,0.009-0.207c0.006-0.068,0.015-0.134,0.028-0.199c0.012-0.065,0.028-0.128,0.046-0.19
			c0.019-0.062,0.04-0.123,0.065-0.182c0.025-0.059,0.052-0.117,0.082-0.172c0.03-0.055,0.062-0.108,0.096-0.159
			c0.034-0.051,0.071-0.1,0.11-0.147c0.039-0.047,0.081-0.092,0.125-0.135c0.044-0.043,0.09-0.084,0.138-0.122
			c0.048-0.038,0.097-0.074,0.149-0.107c0.052-0.033,0.105-0.064,0.16-0.093c0.055-0.029,0.113-0.055,0.172-0.079
			c0.059-0.024,0.119-0.045,0.18-0.063c0.061-0.018,0.123-0.033,0.186-0.045c0.063-0.012,0.127-0.021,0.192-0.027
			s0.131-0.009,0.198-0.009c0.038,0,0.076,0.001,0.112,0.002c0.036,0.002,0.072,0.004,0.106,0.007
			c0.034,0.003,0.068,0.007,0.1,0.012c0.032,0.005,0.064,0.011,0.094,0.018c0.031,0.007,0.06,0.014,0.089,0.021
			c0.028,0.007,0.055,0.015,0.081,0.023s0.05,0.017,0.074,0.026c0.023,0.009,0.046,0.018,0.067,0.028h0.467h0.467h0.467h0.467v0.106
			v0.106v0.106v0.106h-0.321h-0.321h-0.321h-0.321c0.044,0.038,0.085,0.079,0.125,0.123c0.04,0.044,0.078,0.09,0.114,0.139
			c0.036,0.049,0.071,0.101,0.103,0.156c0.033,0.055,0.063,0.112,0.092,0.172c0.029,0.06,0.054,0.122,0.075,0.186
			c0.021,0.063,0.039,0.128,0.053,0.195s0.025,0.134,0.032,0.204c0.007,0.069,0.011,0.14,0.011,0.213
			c0,0.071-0.003,0.14-0.009,0.208c-0.006,0.068-0.015,0.134-0.028,0.199c-0.012,0.065-0.028,0.128-0.046,0.191
			c-0.019,0.062-0.04,0.123-0.065,0.182c-0.025,0.059-0.052,0.116-0.081,0.172c-0.029,0.055-0.061,0.108-0.095,0.159
			c-0.034,0.051-0.07,0.1-0.108,0.147c-0.038,0.047-0.079,0.092-0.122,0.135c-0.043,0.043-0.088,0.084-0.135,0.122
			s-0.096,0.074-0.146,0.107c-0.051,0.033-0.103,0.064-0.157,0.093s-0.111,0.055-0.169,0.079c-0.058,0.024-0.118,0.045-0.178,0.063
			c-0.06,0.018-0.122,0.033-0.184,0.045c-0.063,0.012-0.126,0.021-0.191,0.027c-0.065,0.006-0.131,0.009-0.198,0.009
			c-0.038,0-0.076-0.001-0.115-0.004c-0.039-0.002-0.078-0.006-0.118-0.011c-0.04-0.005-0.08-0.011-0.12-0.018
			c-0.04-0.007-0.081-0.016-0.122-0.025c-0.041-0.01-0.081-0.02-0.12-0.032s-0.077-0.025-0.114-0.039
			c-0.037-0.014-0.072-0.03-0.107-0.047c-0.035-0.017-0.068-0.035-0.1-0.054c-0.031,0.025-0.06,0.05-0.089,0.077
			c-0.028,0.026-0.056,0.053-0.082,0.081s-0.051,0.056-0.075,0.085c-0.024,0.029-0.047,0.059-0.069,0.09
			c-0.022,0.031-0.041,0.063-0.058,0.097c-0.017,0.034-0.03,0.071-0.042,0.109c-0.011,0.038-0.019,0.078-0.025,0.12
			c-0.006,0.042-0.008,0.086-0.008,0.132c0,0.05,0.005,0.098,0.014,0.144c0.009,0.046,0.023,0.09,0.041,0.133
			c0.018,0.042,0.041,0.083,0.068,0.122c0.027,0.039,0.059,0.076,0.096,0.111c0.036,0.035,0.08,0.066,0.133,0.093
			s0.114,0.049,0.184,0.066c0.07,0.018,0.148,0.031,0.234,0.04s0.181,0.013,0.285,0.013h0.295h0.295h0.295h0.295
			c0.155,0,0.299,0.006,0.434,0.019c0.135,0.013,0.259,0.032,0.373,0.057s0.218,0.057,0.312,0.095s0.178,0.082,0.251,0.133
			c0.074,0.051,0.138,0.108,0.193,0.174s0.101,0.138,0.138,0.217c0.037,0.08,0.064,0.167,0.083,0.261
			c0.018,0.094,0.028,0.196,0.028,0.305c0,0.059-0.004,0.118-0.012,0.176c-0.008,0.058-0.019,0.117-0.035,0.174
			c-0.015,0.058-0.035,0.115-0.058,0.173c-0.023,0.057-0.05,0.114-0.08,0.171c-0.03,0.056-0.064,0.111-0.101,0.164
			c-0.037,0.053-0.077,0.104-0.121,0.154c-0.043,0.05-0.09,0.098-0.14,0.144c-0.05,0.046-0.103,0.091-0.16,0.134
			c-0.056,0.043-0.116,0.084-0.178,0.122c-0.062,0.039-0.128,0.075-0.196,0.11c-0.068,0.034-0.14,0.067-0.214,0.097
			c-0.074,0.03-0.152,0.058-0.232,0.084c-0.08,0.026-0.162,0.048-0.247,0.068s-0.172,0.036-0.262,0.048
			c-0.09,0.013-0.182,0.023-0.276,0.029s-0.191,0.01-0.291,0.01c-0.174,0-0.339-0.009-0.495-0.026s-0.302-0.043-0.44-0.077
			s-0.266-0.077-0.386-0.129c-0.12-0.052-0.23-0.112-0.332-0.181c-0.101-0.069-0.19-0.144-0.266-0.225
			c-0.076-0.081-0.139-0.167-0.19-0.26c-0.051-0.093-0.089-0.191-0.114-0.296C44.109,38.23,44.096,38.12,44.096,38.003z
			 M44.579,37.957c0,0.086,0.01,0.168,0.03,0.246c0.02,0.078,0.049,0.152,0.089,0.221c0.04,0.07,0.089,0.135,0.148,0.197
			c0.059,0.062,0.129,0.119,0.208,0.173c0.079,0.054,0.167,0.1,0.263,0.141c0.096,0.04,0.201,0.074,0.314,0.1
			c0.113,0.027,0.235,0.047,0.365,0.06c0.13,0.013,0.269,0.02,0.416,0.02c0.076,0,0.151-0.003,0.224-0.008
			c0.073-0.005,0.145-0.013,0.215-0.023c0.07-0.01,0.138-0.023,0.205-0.038c0.067-0.015,0.131-0.033,0.195-0.053
			c0.063-0.02,0.123-0.042,0.181-0.065c0.058-0.023,0.114-0.048,0.167-0.074c0.053-0.026,0.105-0.054,0.153-0.083
			s0.095-0.06,0.139-0.093c0.044-0.033,0.085-0.066,0.124-0.101c0.039-0.035,0.075-0.07,0.109-0.107
			c0.034-0.037,0.065-0.075,0.094-0.113s0.055-0.079,0.079-0.12c0.024-0.041,0.044-0.083,0.062-0.124
			c0.018-0.042,0.033-0.084,0.045-0.126s0.021-0.085,0.027-0.129s0.009-0.087,0.009-0.131c0-0.077-0.007-0.147-0.02-0.213
			c-0.014-0.065-0.034-0.125-0.061-0.179c-0.027-0.054-0.061-0.102-0.102-0.145c-0.041-0.043-0.088-0.08-0.143-0.111
			S48,37.021,47.934,36.997s-0.139-0.043-0.218-0.059c-0.079-0.016-0.164-0.028-0.255-0.036c-0.091-0.008-0.188-0.012-0.291-0.012
			h-0.295h-0.295h-0.295h-0.295c-0.015,0-0.032,0-0.052-0.001c-0.019-0.001-0.041-0.002-0.064-0.003
			c-0.023-0.001-0.049-0.003-0.076-0.005c-0.027-0.002-0.057-0.005-0.088-0.007c-0.032-0.003-0.064-0.007-0.097-0.011
			c-0.033-0.005-0.066-0.01-0.1-0.016c-0.034-0.006-0.069-0.013-0.104-0.021c-0.035-0.008-0.071-0.017-0.107-0.026
			c-0.063,0.044-0.122,0.088-0.176,0.134c-0.054,0.045-0.105,0.091-0.15,0.138s-0.087,0.094-0.124,0.143
			c-0.037,0.048-0.07,0.097-0.099,0.147c-0.029,0.05-0.054,0.1-0.075,0.149c-0.021,0.05-0.039,0.099-0.053,0.149
			c-0.014,0.05-0.025,0.099-0.032,0.149C44.583,37.858,44.579,37.908,44.579,37.957z M46.274,34.724
			c0.048,0,0.095-0.002,0.142-0.007c0.047-0.005,0.093-0.011,0.138-0.02c0.045-0.009,0.09-0.02,0.134-0.034
			c0.044-0.014,0.088-0.029,0.131-0.048c0.043-0.018,0.084-0.038,0.125-0.061s0.079-0.047,0.117-0.073
			c0.038-0.026,0.074-0.055,0.109-0.085s0.069-0.063,0.101-0.097c0.032-0.034,0.063-0.07,0.092-0.108
			c0.029-0.038,0.057-0.077,0.083-0.118c0.026-0.041,0.05-0.084,0.073-0.128c0.023-0.044,0.043-0.09,0.063-0.138
			c0.019-0.048,0.035-0.097,0.049-0.147c0.014-0.05,0.026-0.102,0.036-0.154c0.009-0.053,0.017-0.106,0.021-0.161
			c0.005-0.055,0.007-0.111,0.007-0.169c0-0.057-0.002-0.113-0.007-0.168s-0.012-0.109-0.021-0.161
			c-0.009-0.053-0.021-0.104-0.036-0.154c-0.014-0.05-0.031-0.099-0.049-0.147c-0.019-0.048-0.04-0.094-0.062-0.138
			c-0.022-0.044-0.046-0.086-0.072-0.126c-0.025-0.04-0.052-0.078-0.081-0.115c-0.028-0.036-0.058-0.071-0.089-0.103
			c-0.032-0.033-0.065-0.063-0.1-0.092s-0.071-0.056-0.109-0.081c-0.038-0.025-0.077-0.049-0.118-0.07s-0.083-0.042-0.127-0.06
			s-0.088-0.034-0.133-0.048s-0.09-0.025-0.136-0.034c-0.046-0.009-0.092-0.016-0.139-0.02s-0.094-0.007-0.142-0.007
			c-0.05,0-0.098,0.002-0.146,0.007s-0.095,0.011-0.141,0.02c-0.046,0.009-0.092,0.02-0.136,0.034s-0.088,0.029-0.131,0.048
			c-0.043,0.018-0.085,0.038-0.125,0.06c-0.04,0.022-0.079,0.045-0.117,0.07c-0.038,0.025-0.074,0.052-0.109,0.081
			c-0.035,0.029-0.069,0.06-0.101,0.092c-0.033,0.033-0.064,0.067-0.093,0.103s-0.057,0.074-0.083,0.114
			c-0.026,0.04-0.05,0.081-0.072,0.124c-0.022,0.043-0.043,0.088-0.062,0.135s-0.036,0.095-0.05,0.145s-0.026,0.101-0.036,0.154
			c-0.01,0.053-0.017,0.108-0.022,0.164c-0.005,0.056-0.007,0.114-0.007,0.173c0,0.057,0.002,0.114,0.007,0.169
			c0.005,0.055,0.012,0.109,0.022,0.161c0.01,0.053,0.022,0.104,0.036,0.154s0.031,0.099,0.05,0.147s0.04,0.094,0.063,0.138
			c0.023,0.044,0.047,0.087,0.074,0.128c0.026,0.041,0.054,0.08,0.084,0.118c0.03,0.038,0.061,0.074,0.094,0.108
			c0.034,0.034,0.068,0.067,0.104,0.097c0.036,0.03,0.073,0.059,0.111,0.085c0.038,0.026,0.078,0.051,0.118,0.073
			c0.041,0.022,0.083,0.043,0.126,0.061c0.043,0.018,0.086,0.034,0.13,0.048c0.044,0.014,0.089,0.025,0.134,0.034
			c0.045,0.009,0.091,0.016,0.138,0.02C46.18,34.722,46.227,34.724,46.274,34.724z"/>
	</g>
	<g>
		<path d="M52.478,29.325h0.138h0.138h0.138h0.138l0.796,1.333l0.796,1.333l0.796,1.333l0.796,1.333l0.212,0.375l0.212,0.375
			l0.212,0.375l0.212,0.375h0.011h0.011h0.011h0.011c-0.004-0.092-0.007-0.184-0.011-0.275c-0.004-0.092-0.008-0.183-0.011-0.275
			c-0.004-0.092-0.008-0.183-0.011-0.275c-0.004-0.092-0.007-0.183-0.011-0.275c-0.004-0.092-0.007-0.184-0.01-0.275
			s-0.005-0.184-0.007-0.275c-0.002-0.092-0.003-0.184-0.004-0.275s-0.001-0.184-0.001-0.275v-1.158v-1.158v-1.158v-1.158h0.126
			h0.126h0.126h0.126v1.889v1.889v1.889v1.889h-0.138h-0.138h-0.138h-0.138l-0.797-1.333l-0.797-1.333l-0.797-1.333l-0.797-1.333
			l-0.212-0.375l-0.212-0.375l-0.212-0.375l-0.212-0.375h-0.012h-0.012h-0.012h-0.012c0.004,0.092,0.007,0.183,0.011,0.273
			c0.004,0.09,0.008,0.18,0.012,0.27c0.004,0.089,0.008,0.178,0.012,0.266c0.004,0.088,0.008,0.176,0.012,0.263
			c0.004,0.087,0.007,0.175,0.01,0.263c0.003,0.088,0.005,0.177,0.007,0.266c0.002,0.089,0.003,0.179,0.004,0.27
			c0.001,0.091,0.001,0.182,0.001,0.273v1.172v1.172v1.172v1.172h-0.126H52.73h-0.126h-0.126v-1.889v-1.889v-1.889V29.325z"/>
	</g>
	<g>
		<path d="M59.401,35.504c0-0.151,0.018-0.293,0.054-0.426c0.036-0.133,0.089-0.258,0.161-0.373c0.072-0.116,0.161-0.222,0.268-0.32
			c0.107-0.098,0.233-0.187,0.376-0.267c0.144-0.08,0.307-0.155,0.491-0.223s0.388-0.132,0.613-0.189s0.469-0.109,0.734-0.155
			c0.265-0.046,0.551-0.086,0.856-0.12c0.002-0.052,0.002-0.103,0.001-0.155c-0.001-0.052-0.003-0.104-0.006-0.156
			c-0.003-0.052-0.008-0.104-0.014-0.156c-0.006-0.052-0.013-0.105-0.021-0.157c-0.009-0.053-0.019-0.104-0.032-0.153
			s-0.027-0.098-0.043-0.145s-0.034-0.092-0.054-0.136c-0.02-0.044-0.042-0.087-0.066-0.128c-0.024-0.041-0.05-0.08-0.079-0.117
			s-0.06-0.073-0.093-0.106c-0.033-0.033-0.069-0.065-0.107-0.095c-0.038-0.03-0.079-0.057-0.121-0.083
			c-0.043-0.026-0.089-0.048-0.138-0.068c-0.049-0.019-0.101-0.035-0.156-0.048c-0.055-0.013-0.113-0.022-0.173-0.029
			c-0.061-0.006-0.125-0.01-0.191-0.01c-0.094,0-0.185,0.005-0.274,0.014c-0.089,0.009-0.177,0.023-0.262,0.041
			c-0.085,0.018-0.168,0.041-0.249,0.068c-0.081,0.027-0.159,0.059-0.236,0.095c-0.076,0.036-0.149,0.073-0.218,0.108
			c-0.069,0.036-0.134,0.072-0.195,0.107c-0.061,0.035-0.119,0.071-0.172,0.105c-0.054,0.035-0.103,0.07-0.149,0.104l-0.057-0.095
			l-0.057-0.095l-0.057-0.095l-0.057-0.095c0.025-0.017,0.051-0.035,0.078-0.053c0.027-0.018,0.056-0.037,0.086-0.056
			c0.03-0.019,0.061-0.039,0.094-0.059c0.033-0.02,0.066-0.041,0.102-0.062c0.036-0.021,0.072-0.042,0.109-0.062
			s0.076-0.04,0.115-0.059c0.039-0.019,0.079-0.038,0.12-0.056c0.041-0.018,0.083-0.036,0.126-0.053
			c0.043-0.017,0.087-0.034,0.133-0.05s0.091-0.031,0.139-0.046c0.047-0.015,0.096-0.029,0.145-0.043
			c0.049-0.014,0.1-0.027,0.151-0.039c0.052-0.012,0.104-0.023,0.156-0.033c0.053-0.009,0.106-0.017,0.159-0.023
			c0.054-0.006,0.108-0.011,0.162-0.014c0.055-0.003,0.11-0.005,0.165-0.005c0.082,0,0.161,0.003,0.236,0.01
			c0.075,0.007,0.147,0.017,0.216,0.031c0.069,0.014,0.134,0.031,0.196,0.052c0.062,0.021,0.121,0.045,0.177,0.073
			c0.055,0.028,0.108,0.058,0.158,0.09c0.05,0.033,0.098,0.068,0.143,0.106c0.045,0.038,0.087,0.078,0.127,0.121
			c0.04,0.043,0.077,0.088,0.111,0.136s0.066,0.098,0.096,0.149c0.029,0.052,0.056,0.106,0.08,0.161
			c0.024,0.056,0.046,0.114,0.065,0.174c0.019,0.06,0.036,0.122,0.05,0.186c0.014,0.064,0.027,0.13,0.038,0.196
			s0.02,0.135,0.027,0.204c0.007,0.069,0.013,0.14,0.016,0.212c0.004,0.072,0.005,0.145,0.005,0.22v0.88v0.88V36v0.88h-0.106h-0.106
			h-0.106h-0.106l-0.014-0.178l-0.014-0.178l-0.014-0.178l-0.014-0.178h-0.006h-0.006H62.96h-0.006
			c-0.071,0.055-0.143,0.109-0.216,0.161s-0.148,0.103-0.224,0.152s-0.153,0.097-0.232,0.143c-0.079,0.046-0.158,0.091-0.24,0.134
			c-0.081,0.043-0.164,0.081-0.247,0.113c-0.084,0.032-0.169,0.059-0.255,0.081c-0.086,0.021-0.174,0.038-0.263,0.048
			c-0.089,0.011-0.18,0.016-0.272,0.016c-0.055,0-0.109-0.002-0.163-0.006s-0.106-0.01-0.157-0.017
			c-0.052-0.008-0.102-0.017-0.152-0.029s-0.099-0.025-0.147-0.04c-0.048-0.015-0.094-0.032-0.139-0.051
			c-0.045-0.019-0.089-0.04-0.132-0.063c-0.043-0.023-0.084-0.048-0.124-0.075s-0.079-0.055-0.116-0.086
			c-0.037-0.03-0.072-0.063-0.106-0.098s-0.064-0.072-0.093-0.111s-0.056-0.08-0.081-0.124s-0.048-0.089-0.069-0.137
			c-0.021-0.048-0.04-0.098-0.056-0.15s-0.029-0.106-0.039-0.163c-0.01-0.056-0.018-0.115-0.024-0.176S59.401,35.569,59.401,35.504z
			 M59.927,35.481c0,0.099,0.007,0.192,0.022,0.277c0.014,0.085,0.036,0.163,0.065,0.234c0.029,0.071,0.065,0.134,0.107,0.191
			c0.043,0.056,0.093,0.106,0.15,0.148c0.058,0.042,0.118,0.079,0.18,0.11s0.128,0.058,0.196,0.079
			c0.068,0.021,0.138,0.037,0.211,0.047c0.073,0.01,0.149,0.016,0.227,0.016c0.08,0,0.16-0.005,0.238-0.014
			c0.078-0.01,0.156-0.024,0.232-0.043c0.076-0.019,0.152-0.043,0.227-0.071s0.148-0.062,0.221-0.1
			c0.072-0.038,0.147-0.081,0.222-0.128s0.154-0.098,0.233-0.153s0.16-0.115,0.243-0.179c0.083-0.064,0.167-0.132,0.253-0.205V35.22
			v-0.467v-0.467v-0.467c-0.142,0.017-0.277,0.035-0.408,0.055c-0.13,0.019-0.255,0.039-0.374,0.06s-0.232,0.043-0.34,0.066
			c-0.108,0.023-0.21,0.047-0.307,0.072c-0.096,0.025-0.188,0.051-0.275,0.078c-0.087,0.027-0.17,0.056-0.248,0.085
			s-0.151,0.06-0.22,0.092c-0.069,0.032-0.132,0.065-0.192,0.1c-0.059,0.034-0.114,0.07-0.165,0.107
			c-0.051,0.037-0.097,0.075-0.14,0.114c-0.042,0.039-0.081,0.08-0.115,0.121c-0.034,0.042-0.064,0.084-0.09,0.128
			c-0.026,0.044-0.048,0.089-0.067,0.136s-0.036,0.094-0.049,0.143c-0.013,0.049-0.023,0.099-0.029,0.15
			C59.931,35.375,59.927,35.428,59.927,35.481z"/>
	</g>
	<g>
		<path d="M65.557,31.812h-0.215h-0.215h-0.215h-0.215v-0.097v-0.097V31.52v-0.097l0.218-0.011l0.218-0.011l0.218-0.011l0.218-0.011
			l0.017-0.398l0.017-0.398l0.017-0.398l0.017-0.398h0.109h0.109h0.109h0.109v0.398v0.398v0.398v0.398h0.398h0.398h0.398h0.398
			v0.109v0.109v0.109v0.109h-0.398H66.87h-0.398h-0.398v0.897v0.897v0.897v0.897c0,0.044,0.001,0.087,0.002,0.129
			s0.004,0.083,0.007,0.122c0.003,0.04,0.007,0.078,0.012,0.116c0.005,0.037,0.011,0.074,0.018,0.109
			c0.006,0.035,0.014,0.07,0.023,0.102s0.02,0.065,0.032,0.095s0.025,0.06,0.04,0.088c0.015,0.028,0.03,0.055,0.048,0.081
			c0.017,0.026,0.036,0.05,0.056,0.073c0.02,0.023,0.042,0.045,0.066,0.065c0.023,0.02,0.049,0.039,0.075,0.056
			c0.027,0.017,0.055,0.033,0.084,0.047c0.03,0.014,0.061,0.027,0.096,0.038c0.034,0.011,0.071,0.02,0.109,0.027
			s0.08,0.013,0.123,0.016c0.043,0.004,0.089,0.005,0.136,0.005c0.027,0,0.054-0.001,0.082-0.003
			c0.028-0.002,0.057-0.005,0.086-0.01c0.029-0.004,0.059-0.01,0.089-0.016c0.03-0.006,0.061-0.014,0.093-0.023
			c0.032-0.009,0.062-0.018,0.092-0.027c0.03-0.009,0.059-0.019,0.087-0.029c0.028-0.01,0.055-0.02,0.082-0.031
			c0.026-0.011,0.052-0.022,0.077-0.033l0.034,0.103l0.034,0.103l0.034,0.103l0.034,0.103c-0.04,0.015-0.08,0.03-0.12,0.044
			c-0.04,0.014-0.08,0.027-0.12,0.039c-0.04,0.012-0.08,0.024-0.12,0.035c-0.04,0.011-0.08,0.021-0.121,0.031
			c-0.04,0.01-0.079,0.018-0.116,0.025c-0.037,0.007-0.073,0.013-0.107,0.018c-0.034,0.005-0.067,0.008-0.099,0.011
			c-0.032,0.002-0.062,0.004-0.091,0.004c-0.067,0-0.131-0.002-0.192-0.007c-0.061-0.005-0.119-0.012-0.175-0.022
			c-0.055-0.01-0.108-0.022-0.158-0.037c-0.05-0.015-0.097-0.032-0.141-0.052c-0.044-0.02-0.086-0.042-0.125-0.067
			c-0.04-0.024-0.077-0.05-0.112-0.079s-0.068-0.058-0.099-0.091c-0.031-0.032-0.06-0.066-0.087-0.103
			c-0.027-0.036-0.051-0.075-0.074-0.115c-0.023-0.04-0.043-0.082-0.062-0.126s-0.035-0.09-0.05-0.138
			c-0.015-0.048-0.027-0.097-0.038-0.149c-0.01-0.052-0.019-0.104-0.027-0.158c-0.008-0.054-0.014-0.109-0.019-0.166
			c-0.005-0.056-0.009-0.114-0.012-0.173c-0.003-0.059-0.004-0.119-0.004-0.18v-0.886v-0.886v-0.886V31.812z"/>
	</g>
	<g>
		<path d="M68.824,31.377h0.126h0.126h0.126h0.126v0.865v0.865v0.865v0.865c0,0.147,0.006,0.285,0.018,0.412
			c0.012,0.128,0.03,0.246,0.055,0.354c0.024,0.108,0.055,0.207,0.091,0.296s0.079,0.168,0.128,0.238
			c0.049,0.07,0.105,0.131,0.17,0.183s0.136,0.096,0.216,0.131c0.08,0.035,0.167,0.061,0.263,0.079
			c0.095,0.017,0.198,0.026,0.309,0.026c0.082,0,0.162-0.006,0.24-0.017c0.078-0.011,0.155-0.028,0.229-0.051
			s0.147-0.051,0.218-0.084c0.071-0.034,0.139-0.073,0.206-0.118c0.067-0.045,0.135-0.097,0.205-0.155
			c0.07-0.058,0.142-0.123,0.216-0.194c0.074-0.071,0.149-0.149,0.226-0.233s0.156-0.175,0.236-0.272v-1.015v-1.015v-1.015v-1.015
			h0.126h0.126h0.126h0.126v1.376v1.376v1.376v1.376h-0.106h-0.106h-0.106h-0.106l-0.014-0.229l-0.014-0.229l-0.014-0.229
			l-0.014-0.229h-0.006h-0.006h-0.006h-0.006c-0.067,0.08-0.135,0.157-0.204,0.229c-0.069,0.072-0.139,0.14-0.209,0.204
			c-0.071,0.064-0.142,0.124-0.215,0.18c-0.073,0.056-0.146,0.108-0.221,0.155c-0.074,0.048-0.151,0.089-0.231,0.125
			c-0.08,0.036-0.162,0.066-0.247,0.089c-0.085,0.024-0.173,0.042-0.263,0.054c-0.09,0.012-0.183,0.018-0.279,0.018
			c-0.143,0-0.277-0.011-0.401-0.032c-0.124-0.021-0.239-0.054-0.344-0.097c-0.105-0.043-0.201-0.097-0.286-0.161
			c-0.086-0.064-0.162-0.14-0.229-0.226c-0.067-0.086-0.125-0.184-0.175-0.293c-0.05-0.109-0.092-0.23-0.125-0.363
			c-0.033-0.133-0.059-0.277-0.075-0.434c-0.017-0.156-0.025-0.324-0.025-0.504v-0.883v-0.883V32.26V31.377z"/>
	</g>
	<g>
		<path d="M74.969,31.377h0.109h0.109h0.109h0.109l0.011,0.255l0.011,0.255l0.011,0.255l0.011,0.255h0.009h0.009h0.009h0.009
			c0.046-0.086,0.094-0.168,0.145-0.246S75.734,32,75.79,31.93c0.056-0.07,0.114-0.135,0.175-0.197
			c0.061-0.062,0.124-0.119,0.19-0.173c0.066-0.053,0.134-0.1,0.204-0.14c0.07-0.04,0.142-0.073,0.216-0.1
			c0.074-0.027,0.15-0.047,0.228-0.06c0.078-0.013,0.158-0.02,0.241-0.02c0.026,0,0.052,0,0.077,0.001
			c0.025,0.001,0.05,0.002,0.074,0.004c0.024,0.002,0.047,0.004,0.07,0.007c0.023,0.003,0.044,0.006,0.066,0.01
			c0.021,0.004,0.042,0.009,0.063,0.015c0.021,0.006,0.043,0.013,0.065,0.02c0.022,0.008,0.044,0.016,0.067,0.026
			c0.023,0.01,0.045,0.02,0.069,0.031l-0.029,0.115l-0.029,0.115l-0.029,0.115l-0.029,0.115c-0.023-0.009-0.045-0.018-0.067-0.026
			c-0.022-0.008-0.042-0.015-0.063-0.021c-0.02-0.006-0.04-0.012-0.058-0.016c-0.019-0.005-0.037-0.008-0.054-0.011
			c-0.017-0.003-0.036-0.005-0.055-0.007c-0.02-0.002-0.04-0.004-0.062-0.005c-0.022-0.001-0.045-0.002-0.069-0.003
			s-0.049-0.001-0.076-0.001c-0.061,0-0.123,0.007-0.186,0.02s-0.127,0.033-0.191,0.059c-0.065,0.026-0.13,0.059-0.196,0.098
			c-0.066,0.039-0.133,0.085-0.201,0.138c-0.068,0.053-0.134,0.115-0.198,0.187s-0.127,0.153-0.188,0.245
			c-0.061,0.091-0.119,0.192-0.176,0.303c-0.057,0.111-0.112,0.231-0.165,0.361v0.937v0.937v0.937v0.937h-0.126h-0.126h-0.126
			h-0.126v-1.376v-1.376v-1.376V31.377z"/>
	</g>
	<g>
		<path d="M78.03,34.14c0-0.113,0.004-0.223,0.013-0.33s0.021-0.211,0.038-0.313c0.017-0.101,0.038-0.2,0.062-0.295
			c0.025-0.096,0.054-0.188,0.087-0.278c0.034-0.09,0.07-0.176,0.109-0.259s0.081-0.162,0.126-0.238
			c0.045-0.076,0.093-0.148,0.143-0.218c0.051-0.069,0.104-0.135,0.16-0.197c0.056-0.062,0.115-0.12,0.175-0.175
			s0.122-0.106,0.186-0.154c0.064-0.048,0.13-0.092,0.198-0.132c0.068-0.041,0.138-0.078,0.21-0.111
			c0.072-0.034,0.144-0.063,0.216-0.088c0.073-0.025,0.146-0.046,0.22-0.063c0.074-0.017,0.149-0.029,0.224-0.038
			c0.075-0.008,0.151-0.012,0.227-0.012c0.164,0,0.32,0.014,0.467,0.042c0.147,0.028,0.285,0.069,0.414,0.125
			c0.129,0.055,0.249,0.125,0.361,0.208c0.111,0.083,0.214,0.18,0.307,0.291c0.094,0.111,0.175,0.233,0.246,0.367
			s0.129,0.279,0.175,0.436s0.082,0.325,0.105,0.504c0.023,0.18,0.035,0.371,0.035,0.573c0,0.017,0,0.034,0,0.052
			c0,0.017,0,0.034,0,0.052s0,0.034,0,0.052s0,0.034,0,0.052c0,0.017,0,0.034-0.001,0.052s-0.002,0.034-0.004,0.052
			s-0.004,0.034-0.007,0.052s-0.006,0.034-0.01,0.052h-0.992h-0.992h-0.992h-0.992c0.002,0.086,0.006,0.17,0.014,0.253
			c0.008,0.083,0.018,0.164,0.031,0.244s0.03,0.158,0.049,0.235c0.019,0.077,0.041,0.152,0.066,0.225
			c0.025,0.074,0.052,0.145,0.082,0.213c0.03,0.068,0.062,0.134,0.097,0.197c0.035,0.063,0.072,0.124,0.112,0.181
			c0.04,0.058,0.083,0.113,0.128,0.166c0.045,0.053,0.092,0.102,0.141,0.149c0.049,0.047,0.101,0.091,0.155,0.132
			s0.11,0.079,0.169,0.114s0.119,0.068,0.183,0.097c0.063,0.03,0.128,0.055,0.194,0.078s0.135,0.041,0.206,0.055
			c0.071,0.015,0.143,0.026,0.218,0.033c0.075,0.007,0.151,0.011,0.229,0.011c0.074,0,0.147-0.003,0.218-0.008
			c0.071-0.005,0.14-0.014,0.207-0.025c0.067-0.011,0.133-0.025,0.197-0.041s0.126-0.036,0.186-0.058
			c0.06-0.022,0.12-0.046,0.178-0.072s0.115-0.054,0.171-0.084s0.111-0.062,0.165-0.096c0.054-0.034,0.106-0.07,0.158-0.109
			l0.052,0.097l0.052,0.097l0.052,0.097l0.052,0.097c-0.056,0.033-0.112,0.065-0.171,0.096c-0.058,0.032-0.118,0.063-0.178,0.093
			c-0.061,0.031-0.123,0.061-0.186,0.09c-0.063,0.03-0.128,0.059-0.194,0.087c-0.066,0.029-0.136,0.054-0.21,0.075
			c-0.075,0.021-0.154,0.039-0.237,0.054s-0.172,0.025-0.264,0.032s-0.19,0.011-0.291,0.011c-0.088,0-0.175-0.004-0.26-0.012
			c-0.085-0.008-0.169-0.02-0.252-0.037s-0.164-0.037-0.244-0.061c-0.08-0.024-0.159-0.053-0.236-0.085
			c-0.077-0.032-0.152-0.069-0.224-0.108c-0.072-0.04-0.142-0.083-0.21-0.131c-0.067-0.047-0.132-0.098-0.195-0.153
			c-0.062-0.055-0.122-0.113-0.179-0.175c-0.057-0.062-0.111-0.128-0.163-0.196s-0.1-0.141-0.145-0.216
			c-0.045-0.075-0.088-0.154-0.128-0.236c-0.04-0.082-0.076-0.168-0.11-0.257c-0.033-0.089-0.062-0.181-0.087-0.275
			s-0.046-0.193-0.062-0.293s-0.029-0.205-0.038-0.311C78.034,34.362,78.03,34.253,78.03,34.14z M82.054,33.807
			c0-0.178-0.009-0.344-0.027-0.5c-0.018-0.156-0.045-0.3-0.082-0.433c-0.036-0.133-0.082-0.255-0.136-0.366
			c-0.054-0.111-0.118-0.211-0.19-0.3c-0.073-0.089-0.152-0.166-0.238-0.233c-0.086-0.067-0.178-0.122-0.276-0.167
			c-0.098-0.044-0.203-0.078-0.315-0.1s-0.229-0.033-0.354-0.033c-0.059,0-0.118,0.003-0.175,0.009
			c-0.058,0.006-0.115,0.016-0.171,0.028s-0.112,0.028-0.167,0.047c-0.055,0.019-0.109,0.04-0.163,0.065
			c-0.053,0.025-0.105,0.052-0.156,0.082c-0.051,0.03-0.1,0.063-0.149,0.098c-0.048,0.035-0.095,0.073-0.141,0.114
			s-0.09,0.084-0.133,0.13c-0.043,0.046-0.084,0.094-0.123,0.145c-0.039,0.051-0.076,0.104-0.112,0.16
			c-0.035,0.056-0.069,0.114-0.1,0.175c-0.032,0.061-0.061,0.124-0.089,0.19s-0.053,0.134-0.075,0.204s-0.043,0.142-0.06,0.216
			s-0.033,0.15-0.045,0.228c-0.013,0.078-0.023,0.158-0.03,0.24h0.877H80.3h0.877H82.054z"/>
	</g>
	<g>
		<path d="M86.364,29.325h0.132h0.132h0.132h0.132v1.889v1.889v1.889v1.889h-0.132h-0.132h-0.132h-0.132v-1.889v-1.889v-1.889
			V29.325z"/>
	</g>
	<g>
		<path d="M89.057,31.377h0.109h0.109h0.109h0.109l0.011,0.212l0.011,0.212l0.011,0.212l0.011,0.212h0.009h0.009h0.009h0.009
			c0.071-0.071,0.142-0.139,0.214-0.203c0.072-0.065,0.144-0.127,0.216-0.185c0.073-0.059,0.146-0.115,0.219-0.167
			s0.148-0.103,0.223-0.149c0.074-0.047,0.151-0.088,0.231-0.123c0.08-0.035,0.162-0.064,0.247-0.088
			c0.085-0.023,0.172-0.041,0.263-0.053c0.09-0.012,0.183-0.018,0.279-0.018c0.144,0,0.277,0.011,0.402,0.032
			s0.239,0.054,0.344,0.097c0.105,0.043,0.201,0.097,0.287,0.161c0.086,0.064,0.162,0.14,0.229,0.226
			c0.067,0.086,0.125,0.184,0.175,0.293c0.05,0.109,0.092,0.23,0.125,0.363s0.059,0.277,0.075,0.434s0.025,0.324,0.025,0.504v0.883
			v0.883v0.883v0.883h-0.126h-0.126h-0.126h-0.126v-0.865v-0.865v-0.865v-0.865c0-0.147-0.006-0.285-0.018-0.412
			s-0.03-0.246-0.054-0.355c-0.024-0.109-0.054-0.207-0.091-0.296c-0.036-0.089-0.079-0.169-0.128-0.238
			c-0.049-0.07-0.106-0.13-0.17-0.183s-0.138-0.096-0.218-0.131c-0.081-0.035-0.17-0.061-0.266-0.079
			c-0.097-0.017-0.202-0.026-0.314-0.026c-0.082,0-0.163,0.005-0.241,0.016s-0.155,0.027-0.229,0.048
			c-0.074,0.022-0.147,0.048-0.218,0.081s-0.139,0.07-0.206,0.113c-0.067,0.043-0.136,0.091-0.207,0.145
			c-0.071,0.054-0.144,0.113-0.22,0.177c-0.075,0.064-0.153,0.134-0.233,0.209c-0.08,0.075-0.162,0.156-0.246,0.242v1.038v1.038
			v1.038v1.038h-0.126H89.31h-0.126h-0.126v-1.376v-1.376v-1.376V31.377z"/>
	</g>
	<g>
		<path d="M94.766,35.882c0.059,0.05,0.119,0.097,0.18,0.143c0.061,0.046,0.123,0.089,0.186,0.131
			c0.063,0.042,0.127,0.081,0.192,0.119s0.131,0.073,0.198,0.106c0.067,0.034,0.138,0.063,0.213,0.088
			c0.075,0.025,0.154,0.046,0.237,0.063c0.083,0.017,0.17,0.029,0.262,0.038c0.091,0.008,0.187,0.012,0.286,0.012
			c0.109,0,0.211-0.007,0.306-0.02c0.095-0.014,0.184-0.034,0.265-0.061c0.082-0.027,0.157-0.061,0.225-0.102
			c0.068-0.041,0.13-0.088,0.184-0.143c0.054-0.055,0.102-0.111,0.143-0.17c0.041-0.059,0.075-0.12,0.102-0.184
			c0.027-0.064,0.048-0.129,0.061-0.197c0.014-0.068,0.02-0.139,0.02-0.211c0-0.042-0.002-0.083-0.007-0.122
			s-0.012-0.078-0.022-0.115c-0.01-0.037-0.022-0.073-0.037-0.108s-0.032-0.069-0.052-0.101c-0.02-0.032-0.042-0.064-0.065-0.094
			c-0.023-0.03-0.048-0.059-0.074-0.087s-0.054-0.054-0.084-0.08c-0.029-0.025-0.061-0.05-0.093-0.073
			c-0.032-0.023-0.066-0.045-0.1-0.066s-0.069-0.042-0.105-0.062c-0.036-0.02-0.072-0.039-0.11-0.058
			c-0.037-0.019-0.076-0.037-0.115-0.054s-0.078-0.034-0.118-0.051s-0.079-0.033-0.119-0.049s-0.08-0.032-0.12-0.048
			s-0.08-0.031-0.121-0.046c-0.052-0.019-0.103-0.039-0.155-0.058c-0.052-0.02-0.104-0.039-0.156-0.059
			c-0.052-0.02-0.104-0.04-0.156-0.061s-0.104-0.041-0.157-0.062c-0.053-0.021-0.104-0.043-0.154-0.066
			c-0.05-0.023-0.099-0.047-0.146-0.073c-0.047-0.025-0.093-0.052-0.138-0.079c-0.045-0.027-0.088-0.056-0.13-0.086
			c-0.042-0.03-0.082-0.061-0.12-0.093c-0.038-0.032-0.074-0.066-0.108-0.102S95,33.466,94.97,33.428
			c-0.03-0.038-0.058-0.078-0.084-0.119c-0.026-0.041-0.048-0.084-0.067-0.13s-0.036-0.093-0.049-0.144
			c-0.013-0.05-0.023-0.103-0.029-0.157c-0.007-0.055-0.01-0.112-0.01-0.171c0-0.05,0.002-0.099,0.007-0.147
			c0.005-0.049,0.012-0.096,0.022-0.144c0.01-0.047,0.022-0.094,0.036-0.14c0.014-0.046,0.031-0.092,0.05-0.137
			c0.019-0.045,0.041-0.088,0.065-0.13c0.024-0.042,0.05-0.083,0.079-0.122c0.029-0.039,0.06-0.077,0.093-0.113
			c0.033-0.036,0.069-0.071,0.107-0.105c0.038-0.033,0.079-0.065,0.121-0.095s0.087-0.058,0.133-0.084
			c0.046-0.026,0.095-0.051,0.145-0.073c0.05-0.023,0.103-0.044,0.157-0.063c0.054-0.019,0.111-0.036,0.17-0.05
			c0.059-0.014,0.12-0.026,0.184-0.036c0.064-0.01,0.129-0.017,0.198-0.022c0.068-0.005,0.139-0.007,0.211-0.007
			c0.072,0,0.144,0.003,0.216,0.01c0.072,0.007,0.143,0.017,0.214,0.03c0.071,0.013,0.142,0.03,0.213,0.05
			c0.071,0.02,0.141,0.043,0.211,0.07c0.07,0.027,0.137,0.055,0.201,0.086s0.127,0.063,0.186,0.097
			c0.06,0.034,0.117,0.071,0.172,0.109s0.107,0.078,0.157,0.12l-0.069,0.089l-0.069,0.089l-0.069,0.089l-0.069,0.089
			c-0.046-0.034-0.093-0.067-0.14-0.099c-0.047-0.032-0.095-0.062-0.144-0.091c-0.049-0.029-0.098-0.057-0.148-0.083
			s-0.101-0.052-0.153-0.075c-0.052-0.024-0.106-0.045-0.162-0.063s-0.115-0.033-0.176-0.045c-0.061-0.012-0.125-0.021-0.191-0.027
			c-0.066-0.006-0.134-0.009-0.205-0.009c-0.054,0-0.105,0.002-0.155,0.005c-0.05,0.004-0.097,0.009-0.143,0.016
			c-0.046,0.007-0.09,0.016-0.132,0.027c-0.042,0.011-0.082,0.023-0.121,0.038c-0.038,0.014-0.075,0.03-0.11,0.046
			c-0.035,0.017-0.068,0.034-0.1,0.053c-0.032,0.019-0.062,0.038-0.091,0.059s-0.056,0.043-0.082,0.066
			c-0.026,0.023-0.05,0.047-0.073,0.071s-0.043,0.051-0.062,0.077c-0.019,0.027-0.036,0.054-0.052,0.083
			c-0.016,0.029-0.03,0.058-0.042,0.089c-0.012,0.031-0.023,0.061-0.033,0.092c-0.009,0.031-0.017,0.061-0.024,0.092
			c-0.006,0.031-0.011,0.061-0.014,0.092s-0.005,0.061-0.005,0.092c0,0.04,0.002,0.078,0.007,0.115
			c0.005,0.037,0.011,0.072,0.021,0.106c0.009,0.034,0.02,0.066,0.034,0.097c0.014,0.031,0.029,0.06,0.047,0.088
			c0.018,0.028,0.038,0.054,0.059,0.08c0.021,0.026,0.044,0.051,0.068,0.075s0.05,0.048,0.078,0.071
			c0.027,0.023,0.057,0.045,0.087,0.066c0.03,0.021,0.062,0.041,0.095,0.061c0.033,0.02,0.067,0.039,0.102,0.058
			c0.035,0.019,0.071,0.037,0.108,0.054c0.037,0.017,0.075,0.034,0.114,0.051c0.039,0.016,0.078,0.032,0.117,0.048
			s0.079,0.032,0.119,0.048s0.08,0.031,0.119,0.047s0.08,0.031,0.12,0.046c0.054,0.021,0.107,0.042,0.161,0.063
			s0.107,0.042,0.161,0.063c0.053,0.021,0.107,0.042,0.16,0.063c0.053,0.021,0.107,0.042,0.16,0.063
			c0.054,0.021,0.106,0.043,0.157,0.067c0.051,0.023,0.101,0.048,0.149,0.074s0.095,0.053,0.141,0.081
			c0.046,0.028,0.09,0.058,0.133,0.088c0.043,0.031,0.084,0.063,0.123,0.097c0.039,0.034,0.076,0.07,0.111,0.108
			c0.035,0.038,0.068,0.077,0.099,0.119c0.031,0.041,0.06,0.084,0.086,0.129c0.027,0.045,0.05,0.093,0.07,0.143
			c0.02,0.05,0.037,0.104,0.05,0.159c0.013,0.056,0.023,0.114,0.03,0.176s0.01,0.126,0.01,0.193c0,0.052-0.003,0.103-0.007,0.153
			s-0.012,0.1-0.022,0.149s-0.022,0.098-0.037,0.146c-0.015,0.048-0.032,0.095-0.052,0.142s-0.042,0.092-0.067,0.136
			c-0.025,0.044-0.053,0.086-0.083,0.128c-0.03,0.041-0.063,0.081-0.098,0.119c-0.035,0.038-0.073,0.075-0.113,0.11
			c-0.04,0.035-0.082,0.069-0.127,0.101c-0.044,0.032-0.091,0.062-0.14,0.09c-0.049,0.028-0.1,0.055-0.152,0.079
			c-0.053,0.025-0.108,0.047-0.165,0.068c-0.058,0.021-0.117,0.039-0.179,0.055c-0.062,0.016-0.125,0.029-0.191,0.039
			c-0.066,0.011-0.134,0.018-0.204,0.024c-0.07,0.005-0.143,0.008-0.217,0.008c-0.103,0-0.204-0.005-0.303-0.014
			s-0.195-0.023-0.29-0.042c-0.094-0.019-0.187-0.042-0.277-0.07c-0.09-0.028-0.178-0.061-0.264-0.098
			c-0.086-0.037-0.169-0.076-0.249-0.117s-0.156-0.083-0.23-0.128c-0.074-0.044-0.144-0.091-0.211-0.139
			c-0.067-0.048-0.132-0.098-0.193-0.149l0.074-0.095l0.074-0.095l0.074-0.095L94.766,35.882z"/>
	</g>
	<g>
		<path d="M100.063,30.047c-0.033,0-0.064-0.003-0.094-0.008s-0.059-0.013-0.086-0.024s-0.053-0.024-0.078-0.039
			c-0.025-0.016-0.048-0.034-0.07-0.055c-0.022-0.021-0.041-0.043-0.058-0.067c-0.016-0.024-0.03-0.049-0.041-0.076
			c-0.011-0.027-0.019-0.055-0.024-0.084c-0.005-0.03-0.008-0.061-0.008-0.093c0-0.036,0.003-0.071,0.008-0.103
			c0.005-0.032,0.014-0.063,0.024-0.091c0.011-0.028,0.025-0.054,0.041-0.078c0.016-0.024,0.036-0.046,0.058-0.066
			c0.022-0.02,0.045-0.038,0.07-0.053c0.025-0.015,0.051-0.028,0.078-0.038s0.056-0.018,0.086-0.023s0.061-0.008,0.094-0.008
			c0.032,0,0.063,0.002,0.093,0.008c0.03,0.005,0.058,0.013,0.085,0.023s0.053,0.023,0.078,0.038
			c0.025,0.015,0.048,0.033,0.07,0.053c0.022,0.02,0.041,0.042,0.058,0.066s0.03,0.05,0.041,0.078
			c0.011,0.028,0.019,0.058,0.024,0.091s0.008,0.067,0.008,0.103c0,0.032-0.003,0.063-0.008,0.093
			c-0.005,0.03-0.014,0.058-0.024,0.084c-0.011,0.027-0.025,0.052-0.041,0.076c-0.016,0.024-0.036,0.046-0.058,0.067
			c-0.022,0.021-0.045,0.039-0.07,0.055c-0.025,0.016-0.05,0.029-0.078,0.039s-0.056,0.018-0.085,0.024
			C100.127,30.045,100.096,30.047,100.063,30.047z M99.799,31.377h0.126h0.126h0.126h0.126v1.376v1.376v1.376v1.376h-0.126h-0.126
			h-0.126h-0.126v-1.376v-1.376v-1.376V31.377z"/>
	</g>
	<g>
		<path d="M101.965,34.14c0-0.111,0.004-0.219,0.012-0.324s0.02-0.209,0.037-0.309c0.016-0.1,0.037-0.198,0.061-0.293
			s0.053-0.188,0.085-0.278c0.033-0.09,0.068-0.176,0.107-0.259c0.039-0.083,0.08-0.163,0.125-0.239s0.092-0.149,0.142-0.219
			c0.05-0.07,0.104-0.136,0.16-0.199c0.056-0.063,0.115-0.123,0.175-0.178s0.123-0.108,0.188-0.156
			c0.065-0.048,0.132-0.093,0.201-0.134c0.069-0.041,0.141-0.078,0.214-0.111c0.074-0.034,0.148-0.063,0.224-0.088
			c0.076-0.025,0.153-0.046,0.23-0.063c0.078-0.017,0.157-0.029,0.237-0.038c0.08-0.008,0.161-0.012,0.243-0.012
			c0.084,0,0.165,0.004,0.244,0.011s0.154,0.018,0.228,0.033s0.144,0.033,0.211,0.055c0.068,0.022,0.133,0.048,0.195,0.078
			c0.062,0.03,0.125,0.062,0.189,0.098c0.064,0.036,0.128,0.074,0.194,0.116c0.065,0.042,0.132,0.086,0.199,0.134
			s0.135,0.098,0.204,0.152l-0.006-0.252l-0.006-0.252l-0.006-0.252l-0.006-0.252v-0.568v-0.568v-0.568v-0.568h0.126h0.126h0.126
			h0.126v2.061v2.061v2.061v2.061h-0.109h-0.109h-0.109h-0.109l-0.011-0.178l-0.011-0.178l-0.011-0.178l-0.011-0.178h-0.009h-0.009
			h-0.009h-0.009c-0.056,0.055-0.114,0.109-0.174,0.161s-0.123,0.103-0.189,0.152c-0.065,0.049-0.133,0.097-0.204,0.143
			c-0.07,0.046-0.143,0.091-0.219,0.134c-0.076,0.043-0.153,0.081-0.233,0.113c-0.08,0.032-0.161,0.059-0.245,0.081
			c-0.084,0.021-0.169,0.038-0.257,0.048c-0.088,0.011-0.177,0.016-0.269,0.016c-0.174,0-0.339-0.015-0.495-0.046
			c-0.156-0.031-0.303-0.077-0.442-0.139c-0.138-0.062-0.268-0.139-0.389-0.231c-0.121-0.092-0.233-0.2-0.336-0.324
			c-0.103-0.123-0.194-0.26-0.271-0.411c-0.078-0.151-0.142-0.315-0.194-0.493c-0.052-0.178-0.091-0.37-0.117-0.576
			C101.978,34.592,101.965,34.373,101.965,34.14z M102.504,34.14c0,0.092,0.002,0.181,0.008,0.268
			c0.005,0.087,0.013,0.173,0.023,0.256c0.01,0.083,0.023,0.164,0.038,0.243c0.015,0.079,0.033,0.156,0.053,0.23
			c0.02,0.075,0.042,0.146,0.067,0.215c0.025,0.069,0.051,0.135,0.08,0.199c0.029,0.064,0.06,0.124,0.094,0.182
			c0.034,0.058,0.069,0.113,0.107,0.166c0.038,0.053,0.079,0.102,0.122,0.149c0.043,0.047,0.088,0.091,0.135,0.132
			c0.047,0.041,0.097,0.079,0.149,0.115c0.052,0.035,0.106,0.068,0.162,0.097c0.056,0.03,0.115,0.055,0.175,0.078
			c0.06,0.022,0.123,0.041,0.187,0.055s0.131,0.026,0.2,0.033s0.139,0.011,0.212,0.011c0.076,0,0.152-0.005,0.227-0.015
			c0.075-0.01,0.149-0.024,0.222-0.044c0.073-0.02,0.145-0.044,0.217-0.073c0.071-0.029,0.142-0.064,0.211-0.103
			c0.07-0.039,0.14-0.083,0.211-0.13c0.071-0.048,0.141-0.099,0.213-0.155c0.071-0.056,0.143-0.116,0.214-0.18
			s0.144-0.133,0.216-0.206v-0.817v-0.817v-0.817v-0.817c-0.072-0.065-0.144-0.125-0.214-0.181c-0.07-0.055-0.14-0.106-0.208-0.152
			c-0.068-0.046-0.135-0.087-0.202-0.123c-0.066-0.036-0.131-0.068-0.195-0.095c-0.064-0.027-0.128-0.05-0.193-0.07
			c-0.065-0.02-0.13-0.037-0.195-0.05s-0.131-0.023-0.197-0.03c-0.066-0.007-0.133-0.01-0.199-0.01
			c-0.069,0-0.136,0.004-0.203,0.012c-0.066,0.008-0.132,0.02-0.196,0.035s-0.127,0.035-0.188,0.059
			c-0.062,0.024-0.122,0.051-0.181,0.082c-0.06,0.032-0.117,0.066-0.172,0.103c-0.055,0.037-0.108,0.077-0.159,0.12
			s-0.1,0.089-0.147,0.137c-0.047,0.049-0.092,0.1-0.135,0.155c-0.043,0.055-0.083,0.112-0.122,0.172
			c-0.038,0.06-0.074,0.122-0.108,0.187s-0.066,0.133-0.095,0.203c-0.029,0.07-0.056,0.143-0.081,0.218
			c-0.025,0.076-0.047,0.152-0.066,0.231c-0.019,0.078-0.034,0.158-0.047,0.238c-0.012,0.081-0.022,0.163-0.028,0.246
			C102.507,33.969,102.504,34.054,102.504,34.14z"/>
	</g>
	<g>
		<path d="M108.202,34.14c0-0.113,0.004-0.223,0.013-0.33c0.008-0.107,0.021-0.211,0.038-0.313c0.017-0.101,0.038-0.2,0.062-0.295
			c0.025-0.096,0.054-0.188,0.087-0.278c0.034-0.09,0.07-0.176,0.109-0.259s0.081-0.162,0.126-0.238
			c0.045-0.076,0.093-0.148,0.143-0.218c0.051-0.069,0.104-0.135,0.16-0.197c0.056-0.062,0.115-0.12,0.175-0.175
			c0.06-0.055,0.122-0.106,0.186-0.154c0.064-0.048,0.13-0.092,0.198-0.132s0.138-0.078,0.21-0.111
			c0.072-0.034,0.144-0.063,0.217-0.088s0.146-0.046,0.22-0.063c0.074-0.017,0.149-0.029,0.224-0.038
			c0.075-0.008,0.151-0.012,0.227-0.012c0.164,0,0.32,0.014,0.467,0.042c0.147,0.028,0.285,0.069,0.414,0.125
			c0.129,0.055,0.249,0.125,0.361,0.208s0.214,0.18,0.307,0.291c0.094,0.111,0.175,0.233,0.246,0.367
			c0.07,0.134,0.129,0.279,0.175,0.436c0.047,0.157,0.082,0.325,0.105,0.504s0.035,0.371,0.035,0.573c0,0.017,0,0.034,0,0.052
			c0,0.017,0,0.034,0,0.052s0,0.034,0,0.052s0,0.034,0,0.052c0,0.017-0.001,0.034-0.001,0.052c-0.001,0.017-0.002,0.034-0.004,0.052
			s-0.004,0.034-0.007,0.052c-0.003,0.017-0.006,0.034-0.01,0.052h-0.992h-0.992h-0.992h-0.992c0.002,0.086,0.006,0.17,0.014,0.253
			s0.018,0.164,0.031,0.244c0.013,0.08,0.03,0.158,0.049,0.235c0.019,0.077,0.041,0.152,0.066,0.225
			c0.025,0.074,0.052,0.145,0.082,0.213c0.03,0.068,0.062,0.134,0.097,0.197c0.035,0.063,0.072,0.124,0.112,0.181
			c0.04,0.058,0.083,0.113,0.128,0.166c0.045,0.053,0.092,0.102,0.141,0.149s0.101,0.091,0.155,0.132
			c0.054,0.041,0.11,0.079,0.169,0.114c0.059,0.035,0.119,0.068,0.183,0.097c0.063,0.03,0.128,0.055,0.194,0.078
			c0.067,0.022,0.135,0.041,0.206,0.055c0.071,0.015,0.143,0.026,0.218,0.033s0.151,0.011,0.229,0.011
			c0.074,0,0.147-0.003,0.218-0.008c0.071-0.005,0.14-0.014,0.207-0.025c0.067-0.011,0.133-0.025,0.197-0.041
			s0.126-0.036,0.186-0.058c0.06-0.022,0.12-0.046,0.178-0.072s0.115-0.054,0.171-0.084c0.056-0.03,0.111-0.062,0.165-0.096
			c0.054-0.034,0.106-0.07,0.158-0.109l0.052,0.097l0.052,0.097l0.052,0.097l0.052,0.097c-0.056,0.033-0.112,0.065-0.171,0.096
			c-0.058,0.032-0.118,0.063-0.178,0.093c-0.061,0.031-0.123,0.061-0.186,0.09s-0.128,0.059-0.194,0.087
			c-0.066,0.029-0.136,0.054-0.21,0.075s-0.154,0.039-0.237,0.054c-0.084,0.014-0.172,0.025-0.264,0.032
			c-0.093,0.007-0.19,0.011-0.291,0.011c-0.088,0-0.175-0.004-0.26-0.012c-0.085-0.008-0.169-0.02-0.252-0.037
			c-0.083-0.016-0.164-0.037-0.244-0.061c-0.08-0.024-0.159-0.053-0.236-0.085c-0.077-0.032-0.152-0.069-0.224-0.108
			c-0.072-0.04-0.142-0.083-0.21-0.131c-0.067-0.047-0.132-0.098-0.195-0.153s-0.122-0.113-0.179-0.175
			c-0.057-0.062-0.111-0.128-0.163-0.196s-0.1-0.141-0.145-0.216c-0.045-0.075-0.088-0.154-0.128-0.236
			c-0.04-0.082-0.076-0.168-0.11-0.257c-0.033-0.089-0.062-0.181-0.087-0.275s-0.046-0.193-0.062-0.293s-0.029-0.205-0.038-0.311
			C108.206,34.362,108.202,34.253,108.202,34.14z M112.226,33.807c0-0.178-0.009-0.344-0.027-0.5
			c-0.018-0.156-0.045-0.3-0.082-0.433c-0.036-0.133-0.082-0.255-0.136-0.366s-0.118-0.211-0.19-0.3
			c-0.073-0.089-0.152-0.166-0.238-0.233c-0.086-0.067-0.178-0.122-0.276-0.167c-0.098-0.044-0.203-0.078-0.315-0.1
			c-0.111-0.022-0.229-0.033-0.354-0.033c-0.059,0-0.118,0.003-0.175,0.009c-0.058,0.006-0.115,0.016-0.171,0.028
			s-0.112,0.028-0.167,0.047c-0.055,0.019-0.109,0.04-0.163,0.065c-0.053,0.025-0.105,0.052-0.156,0.082
			c-0.051,0.03-0.1,0.063-0.149,0.098c-0.048,0.035-0.095,0.073-0.141,0.114c-0.046,0.041-0.09,0.084-0.133,0.13
			c-0.043,0.046-0.084,0.094-0.123,0.145c-0.039,0.051-0.076,0.104-0.112,0.16c-0.035,0.056-0.069,0.114-0.1,0.175
			c-0.032,0.061-0.061,0.124-0.089,0.19s-0.053,0.134-0.075,0.204c-0.023,0.07-0.043,0.142-0.06,0.216s-0.033,0.15-0.045,0.228
			c-0.013,0.078-0.023,0.158-0.03,0.24h0.877h0.877h0.877H112.226z"/>
	</g>
</g>
<g>
	<g>
		<path d="M19.295,19.904c0,0.379-0.024,0.735-0.072,1.069s-0.119,0.646-0.215,0.936c-0.096,0.29-0.215,0.557-0.358,0.803
			s-0.311,0.469-0.502,0.67c-0.191,0.201-0.403,0.377-0.636,0.528s-0.487,0.277-0.763,0.377c-0.275,0.101-0.572,0.176-0.89,0.226
			s-0.657,0.075-1.017,0.075c-0.352,0-0.692-0.017-1.018-0.052c-0.326-0.035-0.639-0.087-0.939-0.156
			c-0.3-0.069-0.587-0.156-0.86-0.26s-0.534-0.225-0.781-0.363v-0.745v-0.745v-0.745v-0.745c0.303,0.197,0.599,0.37,0.889,0.518
			c0.29,0.148,0.574,0.272,0.852,0.37c0.278,0.099,0.549,0.173,0.815,0.222s0.524,0.074,0.777,0.074c0.144,0,0.279-0.01,0.405-0.03
			s0.244-0.05,0.352-0.089s0.208-0.089,0.299-0.149c0.091-0.06,0.173-0.129,0.246-0.209c0.073-0.079,0.136-0.166,0.191-0.26
			c0.055-0.094,0.1-0.195,0.136-0.303s0.064-0.223,0.082-0.345c0.018-0.122,0.027-0.252,0.027-0.388
			c0-0.135-0.011-0.267-0.033-0.396c-0.022-0.129-0.054-0.255-0.098-0.378c-0.043-0.123-0.098-0.244-0.163-0.361
			c-0.065-0.118-0.141-0.232-0.227-0.344c-0.087-0.112-0.187-0.226-0.302-0.344c-0.115-0.118-0.244-0.239-0.387-0.363
			s-0.3-0.251-0.471-0.382s-0.357-0.264-0.556-0.4c-0.174-0.12-0.337-0.238-0.489-0.356c-0.153-0.117-0.295-0.234-0.426-0.348
			c-0.132-0.115-0.253-0.229-0.363-0.341c-0.111-0.112-0.211-0.223-0.301-0.333c-0.089-0.11-0.174-0.223-0.253-0.34
			s-0.153-0.237-0.223-0.36c-0.069-0.123-0.133-0.25-0.192-0.38c-0.059-0.13-0.113-0.263-0.161-0.4
			c-0.049-0.136-0.092-0.279-0.129-0.426c-0.037-0.148-0.067-0.301-0.092-0.46c-0.025-0.159-0.043-0.323-0.055-0.493
			s-0.018-0.345-0.018-0.526c0-0.347,0.024-0.676,0.072-0.987s0.121-0.604,0.217-0.879c0.097-0.275,0.217-0.532,0.362-0.771
			s0.314-0.46,0.507-0.663c0.193-0.203,0.402-0.38,0.628-0.533c0.226-0.152,0.468-0.279,0.727-0.381s0.534-0.178,0.826-0.229
			c0.292-0.051,0.6-0.076,0.925-0.076c0.31,0,0.617,0.022,0.921,0.065c0.304,0.043,0.605,0.108,0.903,0.195
			c0.298,0.087,0.593,0.195,0.885,0.325c0.292,0.13,0.581,0.282,0.867,0.456l-0.249,0.604l-0.249,0.604l-0.249,0.604l-0.249,0.604
			c-0.089-0.052-0.178-0.102-0.269-0.151c-0.091-0.049-0.182-0.096-0.275-0.142s-0.187-0.091-0.282-0.134
			c-0.095-0.043-0.191-0.085-0.288-0.126c-0.097-0.041-0.195-0.076-0.295-0.107c-0.1-0.03-0.202-0.056-0.306-0.076
			c-0.104-0.02-0.209-0.035-0.317-0.046c-0.107-0.01-0.216-0.015-0.327-0.015c-0.122,0-0.237,0.01-0.344,0.03
			c-0.108,0.02-0.209,0.05-0.302,0.09c-0.094,0.04-0.18,0.09-0.26,0.151c-0.08,0.06-0.152,0.131-0.218,0.212
			c-0.065,0.08-0.122,0.167-0.171,0.262c-0.049,0.095-0.09,0.197-0.123,0.306c-0.033,0.109-0.057,0.226-0.074,0.35
			c-0.016,0.124-0.025,0.255-0.025,0.394c0,0.136,0.01,0.269,0.029,0.396c0.02,0.128,0.049,0.251,0.088,0.37
			s0.088,0.234,0.147,0.344s0.128,0.216,0.206,0.318c0.078,0.102,0.171,0.207,0.279,0.315c0.108,0.108,0.23,0.22,0.367,0.336
			s0.289,0.234,0.455,0.356s0.347,0.248,0.543,0.377c0.264,0.177,0.508,0.355,0.732,0.534c0.224,0.179,0.428,0.359,0.612,0.54
			c0.184,0.181,0.348,0.363,0.493,0.545c0.144,0.183,0.269,0.366,0.373,0.551c0.104,0.185,0.195,0.376,0.273,0.573
			c0.078,0.198,0.143,0.402,0.195,0.612c0.052,0.21,0.091,0.427,0.117,0.651C19.282,19.438,19.295,19.668,19.295,19.904z"/>
	</g>
	<g>
		<path d="M27.778,24.367l-0.091-0.396l-0.091-0.396l-0.091-0.396l-0.091-0.396h-0.039h-0.039h-0.039h-0.039
			c-0.068,0.14-0.144,0.273-0.227,0.398s-0.173,0.243-0.27,0.353c-0.097,0.11-0.202,0.213-0.314,0.308
			c-0.112,0.095-0.231,0.183-0.357,0.264c-0.127,0.08-0.258,0.15-0.393,0.21c-0.135,0.06-0.275,0.11-0.42,0.15
			s-0.293,0.07-0.447,0.09c-0.153,0.02-0.311,0.03-0.474,0.03c-0.277,0-0.537-0.024-0.78-0.071c-0.243-0.047-0.47-0.118-0.679-0.212
			s-0.402-0.212-0.578-0.353c-0.176-0.141-0.335-0.306-0.477-0.494c-0.142-0.188-0.266-0.4-0.373-0.635
			c-0.107-0.235-0.195-0.493-0.266-0.775s-0.124-0.586-0.16-0.914c-0.036-0.328-0.053-0.679-0.053-1.054v-2.013v-2.013v-2.013V12.03
			h0.745h0.745h0.745h0.745v1.836v1.836v1.836v1.836c0,0.225,0.007,0.436,0.02,0.634c0.013,0.198,0.034,0.381,0.06,0.551
			c0.027,0.17,0.06,0.326,0.1,0.468c0.04,0.142,0.087,0.27,0.14,0.385c0.053,0.114,0.115,0.214,0.185,0.3
			c0.07,0.086,0.149,0.157,0.235,0.215c0.087,0.057,0.182,0.1,0.285,0.129s0.215,0.043,0.335,0.043c0.159,0,0.307-0.02,0.444-0.06
			s0.264-0.099,0.38-0.179s0.221-0.179,0.315-0.298c0.094-0.119,0.178-0.258,0.251-0.416c0.073-0.159,0.137-0.344,0.192-0.557
			c0.055-0.213,0.1-0.453,0.137-0.719c0.036-0.267,0.064-0.561,0.082-0.881c0.018-0.321,0.027-0.668,0.027-1.043v-1.478v-1.478
			v-1.478V12.03h0.745h0.745h0.745h0.745v3.084v3.084v3.084v3.084h-0.59h-0.59h-0.59H27.778z"/>
	</g>
	<g>
		<path d="M38.753,24.367v-1.838V20.69v-1.838v-1.838c0-0.223-0.007-0.433-0.02-0.629c-0.013-0.196-0.034-0.379-0.06-0.548
			c-0.027-0.169-0.06-0.324-0.1-0.466s-0.087-0.27-0.14-0.384c-0.053-0.114-0.115-0.214-0.185-0.3
			c-0.07-0.086-0.149-0.157-0.235-0.215c-0.087-0.057-0.182-0.1-0.285-0.129c-0.103-0.029-0.215-0.043-0.335-0.043
			c-0.159,0-0.307,0.02-0.444,0.059c-0.137,0.039-0.264,0.099-0.381,0.177c-0.116,0.079-0.222,0.178-0.317,0.296
			s-0.18,0.257-0.254,0.415c-0.074,0.157-0.139,0.342-0.194,0.554c-0.055,0.212-0.102,0.451-0.138,0.717
			c-0.037,0.266-0.065,0.56-0.083,0.88c-0.018,0.32-0.028,0.668-0.028,1.043v1.481v1.481v1.481v1.481h-0.736h-0.736h-0.736h-0.736
			v-3.084v-3.084v-3.084V12.03h0.584h0.584h0.584h0.584l0.089,0.396l0.089,0.396l0.089,0.396l0.089,0.396h0.047h0.047h0.047h0.047
			c0.066-0.142,0.14-0.276,0.221-0.403c0.081-0.127,0.169-0.246,0.264-0.357c0.095-0.111,0.197-0.215,0.307-0.31
			c0.109-0.096,0.226-0.183,0.35-0.263c0.124-0.081,0.253-0.151,0.387-0.212c0.134-0.06,0.274-0.111,0.419-0.151
			s0.295-0.07,0.45-0.09c0.155-0.02,0.316-0.03,0.482-0.03c0.28,0,0.543,0.024,0.788,0.072c0.245,0.048,0.473,0.12,0.683,0.216
			c0.21,0.096,0.402,0.216,0.577,0.36c0.175,0.144,0.332,0.312,0.472,0.504c0.139,0.192,0.261,0.406,0.365,0.642
			c0.104,0.236,0.191,0.495,0.261,0.775c0.07,0.281,0.122,0.583,0.157,0.908s0.052,0.672,0.052,1.041v2.013v2.013v2.013v2.013
			h-0.742h-0.742h-0.742H38.753z"/>
	</g>
	<g>
		<path d="M45.051,9.422h1.02h1.02h1.02h1.02c0.208,0,0.411,0.004,0.608,0.013c0.197,0.009,0.389,0.022,0.575,0.04
			c0.186,0.018,0.367,0.04,0.542,0.067s0.345,0.058,0.51,0.094c0.165,0.036,0.323,0.078,0.475,0.125s0.298,0.101,0.438,0.161
			c0.14,0.059,0.273,0.125,0.401,0.196c0.128,0.071,0.249,0.148,0.365,0.231c0.115,0.083,0.223,0.173,0.325,0.269
			s0.196,0.197,0.284,0.305c0.088,0.108,0.169,0.222,0.243,0.342c0.074,0.12,0.142,0.246,0.202,0.379
			c0.06,0.132,0.113,0.272,0.158,0.419c0.045,0.147,0.083,0.302,0.113,0.465c0.03,0.162,0.053,0.332,0.068,0.51
			c0.015,0.178,0.023,0.363,0.023,0.555c0,0.367-0.029,0.711-0.088,1.031c-0.059,0.32-0.146,0.617-0.264,0.89
			s-0.264,0.523-0.439,0.749c-0.176,0.226-0.381,0.429-0.616,0.609c-0.235,0.18-0.492,0.337-0.773,0.471
			c-0.281,0.135-0.584,0.247-0.911,0.337c-0.327,0.09-0.677,0.157-1.05,0.202c-0.373,0.045-0.77,0.067-1.189,0.067h-0.76h-0.76
			h-0.76h-0.76v1.605v1.605v1.605v1.605h-0.261h-0.261h-0.261h-0.261v-3.736v-3.736v-3.736V9.422z M48.882,17.064
			c0.382,0,0.739-0.017,1.072-0.051c0.333-0.034,0.641-0.085,0.924-0.153s0.542-0.153,0.777-0.255s0.444-0.221,0.63-0.357
			c0.185-0.136,0.347-0.293,0.486-0.472c0.139-0.179,0.255-0.378,0.347-0.6c0.093-0.221,0.162-0.464,0.208-0.728
			c0.046-0.264,0.069-0.549,0.069-0.856c0-0.159-0.006-0.31-0.018-0.455s-0.03-0.283-0.053-0.414
			c-0.024-0.131-0.053-0.256-0.089-0.373c-0.035-0.118-0.077-0.229-0.124-0.333c-0.047-0.104-0.1-0.203-0.159-0.297
			c-0.059-0.094-0.123-0.183-0.193-0.267c-0.07-0.084-0.145-0.163-0.226-0.237c-0.081-0.074-0.168-0.144-0.26-0.208
			c-0.093-0.064-0.192-0.123-0.297-0.178c-0.105-0.055-0.216-0.105-0.333-0.15c-0.117-0.045-0.24-0.086-0.37-0.122
			s-0.265-0.067-0.406-0.094c-0.142-0.026-0.29-0.05-0.443-0.069c-0.154-0.02-0.313-0.036-0.479-0.049
			c-0.165-0.013-0.337-0.023-0.514-0.03c-0.177-0.007-0.36-0.01-0.549-0.01h-0.697h-0.697h-0.697h-0.697v1.69v1.69v1.69v1.69h0.697
			h0.697h0.697H48.882z"/>
	</g>
	<g>
		<path d="M56.141,18.947c0-0.223,0.008-0.44,0.025-0.652c0.017-0.212,0.041-0.418,0.075-0.618s0.075-0.395,0.124-0.584
			c0.05-0.189,0.107-0.372,0.174-0.55c0.066-0.178,0.138-0.348,0.215-0.512s0.161-0.321,0.25-0.471
			c0.089-0.15,0.183-0.294,0.284-0.43c0.1-0.137,0.206-0.266,0.318-0.389c0.112-0.123,0.227-0.238,0.346-0.347
			c0.119-0.109,0.242-0.21,0.369-0.304c0.127-0.094,0.257-0.182,0.391-0.262c0.134-0.08,0.272-0.153,0.414-0.219
			c0.142-0.066,0.284-0.124,0.428-0.174c0.144-0.05,0.289-0.091,0.436-0.124c0.146-0.033,0.294-0.058,0.443-0.074
			s0.299-0.025,0.451-0.025c0.325,0,0.633,0.027,0.923,0.082s0.563,0.137,0.818,0.247c0.255,0.11,0.493,0.247,0.713,0.411
			c0.22,0.164,0.423,0.356,0.608,0.575c0.185,0.22,0.347,0.462,0.486,0.726s0.255,0.552,0.348,0.862
			c0.093,0.31,0.162,0.642,0.209,0.998c0.046,0.355,0.07,0.733,0.07,1.134c0,0.034,0,0.068,0,0.102s0,0.068,0,0.102s0,0.068,0,0.102
			s0,0.068,0,0.102s-0.001,0.068-0.003,0.102s-0.005,0.068-0.009,0.102c-0.004,0.034-0.009,0.068-0.014,0.102
			c-0.006,0.034-0.012,0.068-0.02,0.102h-1.962h-1.962h-1.962h-1.962c0.004,0.17,0.013,0.337,0.028,0.501
			c0.015,0.164,0.036,0.325,0.062,0.483c0.026,0.158,0.058,0.313,0.096,0.464s0.081,0.3,0.13,0.445
			c0.049,0.146,0.103,0.286,0.162,0.421s0.123,0.265,0.192,0.39s0.143,0.245,0.222,0.359c0.079,0.114,0.163,0.224,0.252,0.328
			c0.089,0.104,0.182,0.202,0.279,0.295c0.098,0.093,0.2,0.179,0.307,0.261c0.107,0.081,0.218,0.157,0.334,0.227
			c0.116,0.07,0.236,0.134,0.361,0.193c0.125,0.059,0.253,0.11,0.385,0.154c0.132,0.044,0.268,0.08,0.408,0.11
			c0.14,0.029,0.283,0.051,0.431,0.066c0.147,0.015,0.299,0.022,0.454,0.022c0.148,0,0.291-0.005,0.432-0.016
			c0.14-0.011,0.277-0.027,0.411-0.049s0.263-0.049,0.389-0.082s0.249-0.071,0.368-0.114c0.119-0.043,0.236-0.09,0.351-0.142
			c0.115-0.051,0.228-0.107,0.338-0.166c0.111-0.06,0.219-0.123,0.326-0.191c0.106-0.068,0.211-0.139,0.313-0.215l0.102,0.193
			l0.102,0.193l0.102,0.193l0.102,0.193c-0.11,0.064-0.222,0.128-0.337,0.19s-0.232,0.124-0.352,0.185
			c-0.12,0.061-0.243,0.12-0.368,0.179c-0.125,0.059-0.253,0.116-0.384,0.173c-0.13,0.057-0.269,0.106-0.417,0.149
			c-0.148,0.042-0.304,0.078-0.47,0.106c-0.165,0.028-0.339,0.05-0.522,0.064s-0.375,0.021-0.575,0.021
			c-0.174,0-0.345-0.008-0.514-0.024s-0.335-0.04-0.498-0.072c-0.163-0.032-0.324-0.072-0.482-0.121
			c-0.158-0.048-0.314-0.105-0.467-0.169c-0.153-0.064-0.301-0.136-0.444-0.214c-0.143-0.079-0.281-0.165-0.415-0.259
			c-0.133-0.094-0.262-0.194-0.385-0.303s-0.242-0.224-0.355-0.346c-0.113-0.123-0.22-0.253-0.322-0.389
			c-0.102-0.136-0.197-0.279-0.287-0.428c-0.09-0.149-0.174-0.305-0.252-0.468c-0.078-0.163-0.15-0.332-0.216-0.508
			c-0.066-0.176-0.124-0.357-0.174-0.545c-0.05-0.187-0.091-0.381-0.124-0.58s-0.058-0.405-0.075-0.616
			C56.149,19.387,56.141,19.17,56.141,18.947z M64.102,18.289c0-0.352-0.018-0.681-0.054-0.989c-0.036-0.308-0.09-0.593-0.161-0.857
			c-0.072-0.264-0.161-0.505-0.269-0.725c-0.108-0.22-0.233-0.417-0.377-0.593c-0.144-0.176-0.301-0.329-0.47-0.461
			c-0.169-0.132-0.351-0.242-0.546-0.33c-0.195-0.088-0.402-0.154-0.622-0.198c-0.22-0.044-0.453-0.066-0.699-0.066
			c-0.117,0-0.233,0.006-0.347,0.019c-0.114,0.012-0.227,0.031-0.339,0.056c-0.112,0.025-0.222,0.056-0.33,0.092
			c-0.109,0.037-0.216,0.08-0.322,0.129c-0.106,0.049-0.209,0.103-0.309,0.163c-0.101,0.059-0.199,0.124-0.294,0.194
			c-0.096,0.07-0.188,0.145-0.279,0.225c-0.09,0.08-0.178,0.166-0.263,0.256c-0.085,0.091-0.166,0.187-0.244,0.287
			s-0.151,0.206-0.221,0.317c-0.07,0.111-0.136,0.226-0.198,0.347s-0.121,0.246-0.175,0.376c-0.055,0.131-0.105,0.265-0.15,0.403
			s-0.085,0.281-0.12,0.427s-0.065,0.297-0.09,0.451c-0.025,0.154-0.045,0.313-0.06,0.476h1.735h1.735h1.735H64.102z"/>
	</g>
	<g>
		<path d="M68.003,13.481h0.216h0.216h0.216h0.216l0.023,0.505l0.023,0.505l0.023,0.505l0.023,0.505h0.017h0.017h0.017h0.017
			c0.091-0.17,0.186-0.332,0.287-0.486c0.101-0.154,0.206-0.3,0.317-0.438c0.111-0.138,0.226-0.268,0.347-0.39
			s0.246-0.236,0.377-0.342c0.13-0.106,0.264-0.198,0.403-0.277c0.138-0.079,0.281-0.145,0.427-0.198s0.297-0.093,0.452-0.119
			c0.155-0.026,0.313-0.04,0.476-0.04c0.053,0,0.104,0.001,0.154,0.003c0.05,0.002,0.099,0.005,0.146,0.008
			c0.047,0.004,0.093,0.008,0.138,0.014c0.044,0.006,0.087,0.012,0.129,0.02c0.042,0.008,0.084,0.018,0.126,0.029
			c0.043,0.011,0.086,0.025,0.129,0.04c0.044,0.015,0.088,0.032,0.132,0.051s0.089,0.039,0.135,0.062l-0.057,0.227l-0.057,0.227
			l-0.057,0.227l-0.057,0.227c-0.045-0.019-0.089-0.036-0.131-0.051s-0.084-0.029-0.123-0.042c-0.04-0.012-0.078-0.023-0.115-0.032
			c-0.037-0.009-0.072-0.017-0.106-0.023c-0.034-0.006-0.07-0.01-0.109-0.015c-0.039-0.004-0.08-0.008-0.123-0.01
			c-0.043-0.003-0.089-0.005-0.137-0.006c-0.048-0.001-0.098-0.002-0.151-0.002c-0.121,0-0.244,0.013-0.368,0.039
			c-0.124,0.026-0.25,0.065-0.378,0.117c-0.128,0.052-0.257,0.117-0.388,0.195c-0.131,0.078-0.263,0.169-0.397,0.273
			c-0.134,0.104-0.265,0.227-0.392,0.369s-0.251,0.304-0.371,0.484c-0.12,0.18-0.237,0.38-0.349,0.599
			c-0.113,0.219-0.222,0.457-0.328,0.714v1.854v1.854v1.854v1.854h-0.25h-0.25h-0.25h-0.25v-2.721v-2.721v-2.721V13.481z"/>
	</g>
	<g>
		<path d="M79.365,8.968c-0.057-0.03-0.114-0.058-0.17-0.084c-0.056-0.026-0.112-0.049-0.168-0.069
			c-0.056-0.021-0.111-0.039-0.166-0.055c-0.055-0.016-0.11-0.03-0.165-0.041c-0.055-0.011-0.11-0.021-0.164-0.03
			c-0.054-0.009-0.109-0.016-0.162-0.021s-0.108-0.01-0.161-0.013c-0.053-0.003-0.107-0.004-0.16-0.004
			c-0.144,0-0.278,0.013-0.403,0.04c-0.125,0.027-0.241,0.067-0.348,0.121s-0.204,0.121-0.293,0.202
			c-0.088,0.081-0.168,0.175-0.238,0.283c-0.07,0.108-0.131,0.226-0.184,0.356s-0.096,0.271-0.131,0.423
			c-0.035,0.152-0.061,0.315-0.078,0.49s-0.026,0.36-0.026,0.556v0.59v0.59v0.59v0.59h0.629h0.629h0.629h0.629v0.215v0.215v0.215
			v0.215h-0.629h-0.629h-0.629h-0.629v2.506v2.506v2.506v2.506h-0.25h-0.25h-0.25h-0.25v-2.506v-2.506v-2.506v-2.506h-0.374h-0.374
			h-0.374h-0.374v-0.193v-0.193v-0.193v-0.193l0.374-0.023l0.374-0.023l0.374-0.023l0.374-0.023v-0.607v-0.607v-0.607v-0.607
			c0-0.272,0.015-0.527,0.044-0.765c0.029-0.238,0.073-0.459,0.132-0.663c0.059-0.204,0.132-0.391,0.22-0.562
			c0.088-0.17,0.191-0.324,0.308-0.46c0.117-0.136,0.246-0.255,0.388-0.357s0.296-0.187,0.462-0.255
			c0.166-0.068,0.345-0.119,0.536-0.153s0.394-0.051,0.61-0.051c0.132,0,0.265,0.008,0.397,0.023
			c0.132,0.015,0.265,0.038,0.397,0.068c0.132,0.03,0.265,0.068,0.397,0.114c0.132,0.045,0.265,0.098,0.397,0.159l-0.068,0.204
			l-0.068,0.204l-0.068,0.204L79.365,8.968z"/>
	</g>
	<g>
		<path d="M80.02,18.947c0-0.227,0.008-0.448,0.025-0.663c0.017-0.215,0.041-0.424,0.075-0.627c0.033-0.203,0.075-0.4,0.124-0.592
			c0.05-0.191,0.107-0.377,0.174-0.556c0.066-0.18,0.138-0.352,0.215-0.517c0.077-0.165,0.161-0.323,0.25-0.473
			s0.183-0.293,0.284-0.429c0.1-0.136,0.206-0.264,0.318-0.385c0.112-0.121,0.228-0.235,0.348-0.342
			c0.12-0.107,0.245-0.207,0.375-0.299c0.129-0.093,0.263-0.178,0.402-0.257c0.138-0.079,0.281-0.15,0.429-0.214
			c0.148-0.064,0.297-0.12,0.448-0.168c0.151-0.048,0.304-0.088,0.459-0.12s0.312-0.056,0.471-0.072s0.319-0.024,0.482-0.024
			s0.323,0.008,0.483,0.024c0.159,0.016,0.317,0.04,0.473,0.072s0.31,0.072,0.462,0.12c0.152,0.048,0.303,0.104,0.452,0.168
			c0.15,0.064,0.294,0.136,0.434,0.214c0.14,0.079,0.275,0.164,0.406,0.257c0.131,0.093,0.256,0.192,0.377,0.299
			c0.121,0.107,0.237,0.221,0.349,0.342c0.111,0.121,0.217,0.249,0.317,0.385c0.1,0.136,0.194,0.279,0.283,0.429
			s0.172,0.308,0.249,0.473c0.077,0.165,0.149,0.337,0.215,0.517c0.066,0.18,0.124,0.365,0.174,0.556
			c0.05,0.191,0.091,0.388,0.124,0.592c0.033,0.203,0.058,0.412,0.074,0.627c0.016,0.215,0.025,0.436,0.025,0.663
			c0,0.227-0.008,0.447-0.025,0.661s-0.041,0.422-0.074,0.623c-0.033,0.201-0.074,0.396-0.124,0.584
			c-0.05,0.188-0.108,0.37-0.174,0.546c-0.066,0.176-0.138,0.345-0.215,0.507s-0.161,0.317-0.249,0.466s-0.183,0.29-0.283,0.425
			s-0.206,0.263-0.317,0.384c-0.112,0.121-0.228,0.235-0.349,0.342s-0.247,0.206-0.377,0.299c-0.131,0.093-0.266,0.178-0.406,0.256
			c-0.14,0.078-0.285,0.15-0.434,0.214c-0.149,0.064-0.3,0.121-0.452,0.169c-0.152,0.048-0.307,0.088-0.462,0.121
			s-0.313,0.056-0.473,0.072c-0.159,0.016-0.32,0.024-0.483,0.024s-0.323-0.008-0.482-0.024s-0.316-0.04-0.471-0.072
			s-0.308-0.072-0.459-0.121s-0.301-0.105-0.448-0.169c-0.148-0.064-0.29-0.135-0.429-0.214c-0.138-0.078-0.272-0.164-0.402-0.256
			c-0.129-0.093-0.254-0.192-0.375-0.299c-0.12-0.107-0.236-0.221-0.348-0.342c-0.112-0.121-0.217-0.249-0.318-0.384
			s-0.195-0.276-0.284-0.425s-0.172-0.304-0.25-0.466c-0.077-0.162-0.149-0.331-0.215-0.507c-0.066-0.176-0.124-0.358-0.174-0.546
			c-0.05-0.188-0.091-0.383-0.124-0.584c-0.033-0.201-0.058-0.409-0.075-0.623S80.02,19.174,80.02,18.947z M81.064,18.947
			c0,0.178,0.006,0.351,0.018,0.521s0.031,0.336,0.055,0.499s0.055,0.321,0.092,0.476c0.037,0.155,0.08,0.306,0.129,0.454
			c0.049,0.147,0.103,0.289,0.161,0.426c0.058,0.137,0.121,0.269,0.188,0.395s0.139,0.248,0.215,0.364s0.157,0.227,0.242,0.333
			c0.085,0.106,0.174,0.206,0.267,0.3c0.093,0.094,0.19,0.182,0.291,0.265c0.101,0.082,0.206,0.159,0.315,0.229
			s0.222,0.135,0.339,0.193c0.117,0.059,0.237,0.11,0.359,0.154s0.246,0.08,0.373,0.11c0.127,0.029,0.256,0.051,0.387,0.066
			c0.131,0.015,0.265,0.022,0.401,0.022s0.27-0.007,0.402-0.022s0.261-0.037,0.389-0.066c0.127-0.029,0.253-0.066,0.376-0.11
			c0.123-0.044,0.244-0.095,0.363-0.154c0.119-0.059,0.234-0.123,0.344-0.193c0.111-0.07,0.217-0.147,0.319-0.229
			c0.102-0.082,0.2-0.17,0.294-0.265c0.094-0.094,0.183-0.194,0.269-0.3c0.085-0.106,0.166-0.217,0.241-0.333
			c0.076-0.116,0.147-0.238,0.214-0.364c0.067-0.127,0.129-0.259,0.187-0.395c0.058-0.137,0.111-0.279,0.16-0.426
			c0.049-0.148,0.093-0.299,0.13-0.454c0.037-0.155,0.068-0.314,0.092-0.476s0.043-0.329,0.055-0.499
			c0.012-0.17,0.018-0.344,0.018-0.521c0-0.182-0.006-0.359-0.018-0.532c-0.012-0.173-0.031-0.342-0.055-0.506
			s-0.055-0.325-0.092-0.481c-0.037-0.156-0.08-0.308-0.13-0.455c-0.049-0.147-0.103-0.289-0.16-0.427
			c-0.058-0.137-0.12-0.27-0.187-0.397c-0.067-0.128-0.138-0.25-0.214-0.368c-0.076-0.118-0.156-0.23-0.241-0.338
			c-0.085-0.108-0.175-0.21-0.269-0.305c-0.094-0.096-0.192-0.185-0.294-0.268c-0.102-0.083-0.208-0.16-0.319-0.231
			c-0.111-0.071-0.225-0.135-0.344-0.194c-0.119-0.059-0.24-0.11-0.363-0.154c-0.123-0.044-0.249-0.08-0.376-0.11
			c-0.127-0.029-0.257-0.051-0.389-0.066c-0.132-0.015-0.266-0.022-0.402-0.022s-0.27,0.007-0.401,0.022
			c-0.131,0.015-0.261,0.037-0.387,0.066c-0.127,0.029-0.251,0.066-0.373,0.11s-0.242,0.095-0.359,0.154
			c-0.117,0.059-0.23,0.123-0.339,0.194s-0.214,0.148-0.315,0.231s-0.198,0.172-0.291,0.268s-0.182,0.197-0.267,0.305
			c-0.085,0.108-0.166,0.22-0.242,0.338c-0.076,0.118-0.148,0.24-0.215,0.368c-0.067,0.128-0.13,0.26-0.188,0.397
			c-0.058,0.137-0.112,0.28-0.161,0.427c-0.049,0.148-0.092,0.299-0.129,0.455c-0.037,0.156-0.067,0.316-0.092,0.481
			s-0.043,0.333-0.055,0.506S81.064,18.765,81.064,18.947z"/>
	</g>
	<g>
		<path d="M93.062,13.481h0.216h0.216h0.216h0.216l0.023,0.505l0.023,0.505l0.023,0.505l0.023,0.505h0.017h0.017h0.017h0.017
			c0.091-0.17,0.186-0.332,0.287-0.486c0.101-0.154,0.206-0.3,0.317-0.438c0.111-0.138,0.226-0.268,0.347-0.39
			s0.246-0.236,0.377-0.342c0.13-0.106,0.264-0.198,0.403-0.277c0.138-0.079,0.281-0.145,0.427-0.198
			c0.147-0.053,0.297-0.093,0.452-0.119c0.155-0.026,0.313-0.04,0.476-0.04c0.053,0,0.104,0.001,0.154,0.003
			c0.05,0.002,0.099,0.005,0.146,0.008c0.047,0.004,0.093,0.008,0.138,0.014c0.044,0.006,0.087,0.012,0.129,0.02
			c0.042,0.008,0.084,0.018,0.126,0.029c0.043,0.011,0.086,0.025,0.129,0.04c0.044,0.015,0.088,0.032,0.132,0.051
			s0.089,0.039,0.135,0.062l-0.057,0.227l-0.057,0.227l-0.057,0.227l-0.057,0.227c-0.045-0.019-0.089-0.036-0.131-0.051
			s-0.084-0.029-0.123-0.042c-0.04-0.012-0.078-0.023-0.115-0.032c-0.037-0.009-0.072-0.017-0.106-0.023
			c-0.034-0.006-0.07-0.01-0.109-0.015c-0.039-0.004-0.08-0.008-0.123-0.01s-0.089-0.005-0.137-0.006
			c-0.048-0.001-0.098-0.002-0.151-0.002c-0.121,0-0.244,0.013-0.368,0.039c-0.124,0.026-0.25,0.065-0.378,0.117
			c-0.128,0.052-0.257,0.117-0.388,0.195c-0.131,0.078-0.263,0.169-0.397,0.273c-0.134,0.104-0.265,0.227-0.392,0.369
			c-0.127,0.142-0.251,0.304-0.371,0.484c-0.12,0.18-0.237,0.38-0.349,0.599c-0.113,0.219-0.222,0.457-0.328,0.714v1.854v1.854
			v1.854v1.854h-0.25h-0.25h-0.25h-0.25v-2.721v-2.721v-2.721V13.481z"/>
	</g>
	<g>
		<path d="M100.251,13.481h0.216h0.216h0.216h0.216l0.023,0.42l0.023,0.42l0.023,0.42l0.023,0.42h0.017h0.017h0.017h0.017
			c0.121-0.14,0.246-0.274,0.374-0.402s0.26-0.25,0.395-0.367s0.274-0.227,0.416-0.331c0.142-0.104,0.288-0.203,0.438-0.295
			c0.149-0.093,0.299-0.174,0.448-0.243c0.15-0.069,0.3-0.127,0.45-0.174c0.15-0.046,0.301-0.081,0.452-0.104
			c0.151-0.023,0.302-0.035,0.454-0.035c0.219,0,0.425,0.012,0.619,0.037c0.194,0.025,0.375,0.062,0.543,0.112
			s0.324,0.113,0.466,0.188c0.143,0.075,0.273,0.163,0.39,0.263c0.117,0.1,0.226,0.209,0.326,0.327
			c0.1,0.118,0.192,0.244,0.275,0.379s0.158,0.279,0.224,0.432c0.066,0.153,0.124,0.314,0.173,0.484
			c0.159-0.17,0.317-0.331,0.473-0.484c0.156-0.153,0.312-0.297,0.466-0.432s0.307-0.262,0.459-0.379
			c0.152-0.118,0.302-0.227,0.452-0.327c0.149-0.1,0.299-0.188,0.451-0.263c0.152-0.075,0.304-0.138,0.459-0.188
			c0.154-0.05,0.309-0.088,0.466-0.112c0.156-0.025,0.314-0.037,0.472-0.037c0.544,0,1.021,0.087,1.429,0.261
			c0.408,0.174,0.749,0.435,1.021,0.782s0.477,0.782,0.613,1.304c0.136,0.522,0.204,1.13,0.204,1.826v1.746v1.746v1.746v1.746
			h-0.255h-0.256h-0.256h-0.255v-1.712v-1.712v-1.712v-1.712c0-0.291-0.012-0.563-0.037-0.816c-0.025-0.253-0.061-0.487-0.11-0.701
			s-0.11-0.41-0.184-0.587c-0.074-0.176-0.159-0.334-0.257-0.472c-0.098-0.138-0.211-0.258-0.336-0.362
			c-0.126-0.103-0.265-0.19-0.418-0.259c-0.153-0.069-0.32-0.121-0.5-0.155s-0.374-0.052-0.582-0.052
			c-0.246,0-0.499,0.043-0.758,0.128c-0.259,0.085-0.525,0.213-0.797,0.383c-0.272,0.17-0.551,0.383-0.836,0.638
			s-0.577,0.553-0.876,0.893v2.053v2.053v2.053v2.053h-0.25h-0.25h-0.25h-0.25v-1.712v-1.712v-1.712v-1.712
			c0-0.291-0.012-0.563-0.037-0.816s-0.061-0.487-0.11-0.701s-0.11-0.41-0.184-0.587c-0.074-0.176-0.159-0.334-0.257-0.472
			c-0.098-0.138-0.211-0.258-0.338-0.362c-0.127-0.103-0.268-0.19-0.423-0.259c-0.155-0.069-0.324-0.121-0.508-0.155
			s-0.381-0.052-0.592-0.052c-0.246,0-0.498,0.043-0.757,0.128c-0.259,0.085-0.524,0.213-0.796,0.383s-0.551,0.383-0.836,0.638
			c-0.285,0.255-0.577,0.553-0.876,0.893v2.053v2.053v2.053v2.053H101h-0.25h-0.25h-0.25v-2.721v-2.721v-2.721V13.481z"/>
	</g>
</g>
</svg>
