<?xml version="1.0" encoding="utf-8"?>
<!-- Generator: Adobe Illustrator 19.1.0, SVG Export Plug-In . SVG Version: 6.00 Build 0)  -->
<svg version="1.1" id="Layer_1" xmlns="http://www.w3.org/2000/svg" xmlns:xlink="http://www.w3.org/1999/xlink" x="0px" y="0px"
	 viewBox="0 0 126.038 26.342" style="enable-background:new 0 0 126.038 26.342;" xml:space="preserve">
<style type="text/css">
	.st0{fill:#115C78;}
	.st1{fill-rule:evenodd;clip-rule:evenodd;fill:#4D4D4D;}
	.st2{fill:#4D4D4D;}
	.st3{fill-rule:evenodd;clip-rule:evenodd;}
	.st4{fill:#FFFFFF;}
	.st5{fill:none;}
	.st6{fill:none;stroke:#4D4D4D;stroke-width:0.3;stroke-miterlimit:10;}
	.st7{fill:#4D4D4D;stroke:#4D4D4D;stroke-width:0.1;stroke-miterlimit:10;}
	.st8{fill:#F0047F;}
	.st9{fill:none;stroke:#4D4D4D;stroke-width:0;stroke-linecap:round;stroke-linejoin:round;}
	.st10{fill:none;stroke:#4D4D4D;stroke-width:0.25;stroke-miterlimit:10;}
	.st11{fill:none;stroke:#4D4D4D;stroke-width:0.2;stroke-miterlimit:10;}
	.st12{fill:none;stroke:#4D4D4D;stroke-width:0.8;stroke-miterlimit:10;}
	.st13{fill:#4D4D4D;stroke:#4D4D4D;stroke-width:0.3;stroke-miterlimit:10;}
	.st14{fill:none;stroke:#4D4D4D;stroke-width:0.24;stroke-miterlimit:10;}
</style>
<g>
	<g>
		<path d="M19.354,15.721c0,0.379-0.024,0.735-0.072,1.069s-0.119,0.646-0.215,0.936c-0.096,0.29-0.215,0.557-0.358,0.803
			s-0.311,0.469-0.502,0.67c-0.191,0.201-0.403,0.377-0.636,0.528s-0.487,0.277-0.763,0.377c-0.275,0.101-0.572,0.176-0.89,0.226
			c-0.318,0.05-0.657,0.075-1.017,0.075c-0.352,0-0.692-0.017-1.018-0.052s-0.639-0.087-0.939-0.156
			c-0.3-0.069-0.587-0.156-0.86-0.26s-0.534-0.225-0.781-0.363V18.83v-0.745v-0.745v-0.745c0.303,0.197,0.599,0.37,0.889,0.518
			c0.29,0.148,0.574,0.272,0.852,0.37s0.549,0.173,0.815,0.222s0.524,0.074,0.777,0.074c0.144,0,0.279-0.01,0.405-0.03
			s0.244-0.05,0.352-0.089c0.108-0.04,0.208-0.089,0.299-0.149c0.091-0.06,0.173-0.129,0.246-0.209
			c0.073-0.079,0.136-0.166,0.191-0.26c0.055-0.094,0.1-0.195,0.136-0.303s0.064-0.223,0.082-0.345
			c0.018-0.122,0.027-0.252,0.027-0.388c0-0.135-0.011-0.267-0.033-0.396c-0.022-0.129-0.054-0.255-0.098-0.378
			c-0.043-0.123-0.098-0.244-0.163-0.361c-0.065-0.118-0.141-0.232-0.227-0.344c-0.087-0.112-0.187-0.226-0.302-0.344
			c-0.115-0.118-0.244-0.239-0.387-0.363c-0.143-0.124-0.3-0.251-0.471-0.382c-0.171-0.13-0.357-0.264-0.556-0.4
			c-0.174-0.12-0.337-0.238-0.489-0.356c-0.153-0.117-0.295-0.234-0.426-0.348c-0.132-0.115-0.253-0.229-0.363-0.341
			c-0.111-0.112-0.211-0.223-0.301-0.333c-0.089-0.11-0.174-0.223-0.253-0.34c-0.079-0.117-0.153-0.237-0.223-0.36
			c-0.069-0.123-0.133-0.25-0.192-0.38c-0.059-0.13-0.113-0.263-0.161-0.4c-0.049-0.136-0.092-0.279-0.129-0.426
			c-0.037-0.148-0.067-0.301-0.092-0.46c-0.025-0.159-0.043-0.323-0.055-0.493c-0.012-0.17-0.018-0.345-0.018-0.526
			c0-0.347,0.024-0.676,0.072-0.987c0.048-0.311,0.121-0.604,0.217-0.879c0.097-0.275,0.217-0.532,0.362-0.771
			c0.145-0.239,0.314-0.46,0.507-0.663c0.193-0.203,0.402-0.38,0.628-0.533c0.226-0.152,0.468-0.279,0.727-0.381
			s0.534-0.178,0.826-0.229s0.6-0.076,0.925-0.076c0.31,0,0.617,0.022,0.921,0.065c0.304,0.043,0.605,0.108,0.903,0.195
			c0.298,0.087,0.593,0.195,0.885,0.325s0.581,0.282,0.867,0.456l-0.249,0.604l-0.249,0.604l-0.249,0.604L18.28,7.216
			c-0.089-0.052-0.178-0.102-0.269-0.151c-0.091-0.049-0.182-0.096-0.275-0.142s-0.187-0.091-0.282-0.134
			c-0.095-0.043-0.191-0.085-0.288-0.126c-0.097-0.041-0.195-0.076-0.295-0.107c-0.1-0.03-0.202-0.056-0.306-0.076
			s-0.209-0.035-0.317-0.046c-0.107-0.01-0.216-0.015-0.327-0.015c-0.122,0-0.237,0.01-0.344,0.03
			c-0.108,0.02-0.209,0.05-0.302,0.09s-0.18,0.09-0.26,0.151c-0.08,0.06-0.152,0.131-0.218,0.212
			c-0.065,0.08-0.122,0.167-0.171,0.262c-0.049,0.095-0.09,0.197-0.123,0.306c-0.033,0.109-0.057,0.226-0.074,0.35
			s-0.025,0.255-0.025,0.394c0,0.136,0.01,0.269,0.029,0.396c0.02,0.128,0.049,0.251,0.088,0.37s0.088,0.234,0.147,0.344
			c0.059,0.11,0.128,0.216,0.206,0.318c0.078,0.102,0.171,0.207,0.279,0.315c0.108,0.108,0.23,0.22,0.367,0.336
			s0.289,0.234,0.455,0.356s0.347,0.248,0.543,0.377c0.264,0.177,0.508,0.355,0.732,0.534c0.224,0.179,0.428,0.359,0.612,0.54
			s0.348,0.363,0.493,0.545c0.144,0.183,0.269,0.366,0.373,0.551c0.104,0.185,0.195,0.376,0.273,0.573
			c0.078,0.198,0.143,0.402,0.195,0.612c0.052,0.21,0.091,0.427,0.117,0.651S19.354,15.485,19.354,15.721z"/>
	</g>
	<g>
		<path d="M27.837,20.184l-0.091-0.396l-0.091-0.396l-0.091-0.396l-0.091-0.396h-0.039h-0.039h-0.039h-0.039
			c-0.068,0.14-0.144,0.273-0.227,0.398s-0.173,0.243-0.27,0.353c-0.097,0.11-0.202,0.213-0.314,0.308
			c-0.112,0.095-0.231,0.183-0.357,0.264c-0.127,0.08-0.258,0.15-0.393,0.21c-0.135,0.06-0.275,0.11-0.42,0.15
			c-0.144,0.04-0.293,0.07-0.447,0.09c-0.153,0.02-0.311,0.03-0.474,0.03c-0.277,0-0.537-0.024-0.78-0.071
			c-0.243-0.047-0.47-0.118-0.679-0.212s-0.402-0.212-0.578-0.353c-0.176-0.141-0.335-0.306-0.477-0.494
			c-0.142-0.188-0.266-0.4-0.373-0.635c-0.107-0.235-0.195-0.493-0.266-0.775s-0.124-0.586-0.16-0.914
			c-0.036-0.328-0.053-0.679-0.053-1.054v-2.013v-2.013V9.86V7.847h0.745h0.745h0.745h0.745v1.836v1.836v1.836v1.836
			c0,0.225,0.007,0.436,0.02,0.634c0.013,0.198,0.034,0.381,0.06,0.551c0.027,0.17,0.06,0.326,0.1,0.468s0.087,0.27,0.14,0.385
			s0.115,0.214,0.185,0.3c0.07,0.086,0.149,0.157,0.235,0.215c0.087,0.057,0.182,0.1,0.285,0.129s0.215,0.043,0.335,0.043
			c0.159,0,0.307-0.02,0.444-0.06s0.264-0.099,0.38-0.179c0.116-0.079,0.221-0.179,0.315-0.298c0.094-0.119,0.178-0.258,0.251-0.416
			c0.073-0.159,0.137-0.344,0.192-0.557c0.055-0.213,0.1-0.453,0.137-0.719s0.064-0.561,0.082-0.881
			c0.018-0.321,0.027-0.668,0.027-1.043v-1.478v-1.478V9.326V7.847h0.745h0.745h0.745h0.745v3.084v3.084V17.1v3.084h-0.59h-0.59
			h-0.59H27.837z"/>
	</g>
	<g>
		<path d="M38.812,20.184v-1.838v-1.838v-1.838v-1.838c0-0.223-0.007-0.433-0.02-0.629c-0.013-0.196-0.034-0.379-0.06-0.548
			c-0.027-0.169-0.06-0.324-0.1-0.466c-0.04-0.142-0.087-0.27-0.14-0.384c-0.053-0.114-0.115-0.214-0.185-0.3
			c-0.07-0.086-0.149-0.157-0.235-0.215c-0.087-0.057-0.182-0.1-0.285-0.129c-0.103-0.029-0.215-0.043-0.335-0.043
			c-0.159,0-0.307,0.02-0.444,0.059c-0.137,0.039-0.264,0.099-0.381,0.177c-0.116,0.079-0.222,0.178-0.317,0.296
			s-0.18,0.257-0.254,0.415c-0.074,0.157-0.139,0.342-0.194,0.554c-0.055,0.212-0.102,0.451-0.138,0.717s-0.065,0.56-0.083,0.88
			c-0.018,0.32-0.028,0.668-0.028,1.043v1.481v1.481v1.481v1.481h-0.736h-0.736h-0.736h-0.736V17.1v-3.084v-3.084V7.847h0.584h0.584
			h0.584h0.584l0.089,0.396l0.089,0.396l0.089,0.396l0.089,0.396h0.047h0.047h0.047h0.047c0.066-0.142,0.14-0.276,0.221-0.403
			c0.081-0.127,0.169-0.246,0.264-0.357c0.095-0.111,0.197-0.215,0.307-0.31c0.109-0.096,0.226-0.183,0.35-0.263
			c0.124-0.081,0.253-0.151,0.387-0.212c0.134-0.06,0.274-0.111,0.419-0.151c0.145-0.04,0.295-0.07,0.45-0.09
			c0.155-0.02,0.316-0.03,0.482-0.03c0.28,0,0.543,0.024,0.788,0.072c0.245,0.048,0.473,0.12,0.683,0.216
			c0.21,0.096,0.402,0.216,0.577,0.36c0.175,0.144,0.332,0.312,0.472,0.504c0.139,0.192,0.261,0.406,0.365,0.642
			s0.191,0.495,0.261,0.775c0.07,0.281,0.122,0.583,0.157,0.908s0.052,0.672,0.052,1.041v2.013v2.013v2.013v2.013h-0.742h-0.742
			h-0.742H38.812z"/>
	</g>
	<g>
		<path d="M45.11,5.239h1.02h1.02h1.02h1.02c0.208,0,0.411,0.004,0.608,0.013s0.389,0.022,0.575,0.04
			c0.186,0.018,0.367,0.04,0.542,0.067c0.175,0.027,0.345,0.058,0.51,0.094s0.323,0.078,0.475,0.125s0.298,0.101,0.438,0.161
			c0.14,0.059,0.273,0.125,0.401,0.196c0.128,0.071,0.249,0.148,0.365,0.231c0.115,0.083,0.223,0.173,0.325,0.269
			s0.196,0.197,0.284,0.305s0.169,0.222,0.243,0.342c0.074,0.12,0.142,0.246,0.202,0.379c0.06,0.132,0.113,0.272,0.158,0.419
			c0.045,0.147,0.083,0.302,0.113,0.465c0.03,0.162,0.053,0.332,0.068,0.51c0.015,0.178,0.023,0.363,0.023,0.555
			c0,0.367-0.029,0.711-0.088,1.031c-0.059,0.32-0.146,0.617-0.264,0.89s-0.264,0.523-0.439,0.749s-0.381,0.429-0.616,0.609
			s-0.492,0.337-0.773,0.471c-0.281,0.135-0.584,0.247-0.911,0.337c-0.327,0.09-0.677,0.157-1.05,0.202
			c-0.373,0.045-0.77,0.067-1.189,0.067h-0.76h-0.76h-0.76h-0.76v1.605v1.605v1.605v1.605h-0.261h-0.261H45.37H45.11v-3.736v-3.736
			V8.975V5.239z M48.941,12.881c0.382,0,0.739-0.017,1.072-0.051c0.333-0.034,0.641-0.085,0.924-0.153
			c0.283-0.068,0.542-0.153,0.777-0.255s0.444-0.221,0.63-0.357c0.185-0.136,0.347-0.293,0.486-0.472
			c0.139-0.179,0.255-0.378,0.347-0.6c0.093-0.221,0.162-0.464,0.208-0.728c0.046-0.264,0.069-0.549,0.069-0.856
			c0-0.159-0.006-0.31-0.018-0.455s-0.03-0.283-0.053-0.414c-0.024-0.131-0.053-0.256-0.089-0.373
			c-0.035-0.118-0.077-0.229-0.124-0.333c-0.047-0.104-0.1-0.203-0.159-0.297c-0.059-0.094-0.123-0.183-0.193-0.267
			c-0.07-0.084-0.145-0.163-0.226-0.237c-0.081-0.074-0.168-0.144-0.26-0.208c-0.093-0.064-0.192-0.123-0.297-0.178
			c-0.105-0.055-0.216-0.105-0.333-0.15c-0.117-0.045-0.24-0.086-0.37-0.122c-0.129-0.036-0.265-0.067-0.406-0.094
			c-0.142-0.026-0.29-0.05-0.443-0.069s-0.313-0.036-0.479-0.049c-0.165-0.013-0.337-0.023-0.514-0.03
			c-0.177-0.007-0.36-0.01-0.549-0.01h-0.697h-0.697H46.85h-0.697v1.69v1.69v1.69v1.69h0.697h0.697h0.697H48.941z"/>
	</g>
	<g>
		<path d="M56.2,14.764c0-0.223,0.008-0.44,0.025-0.652s0.041-0.418,0.075-0.618c0.033-0.2,0.075-0.395,0.124-0.584
			c0.05-0.189,0.107-0.372,0.174-0.55c0.066-0.178,0.138-0.348,0.215-0.512s0.161-0.321,0.25-0.471
			c0.089-0.15,0.183-0.294,0.284-0.43c0.1-0.137,0.206-0.266,0.318-0.389c0.112-0.123,0.227-0.238,0.346-0.347
			c0.119-0.109,0.242-0.21,0.369-0.304c0.127-0.094,0.257-0.182,0.391-0.262c0.134-0.08,0.272-0.153,0.414-0.219
			c0.142-0.066,0.284-0.124,0.428-0.174c0.144-0.05,0.289-0.091,0.436-0.124c0.146-0.033,0.294-0.058,0.443-0.074
			s0.299-0.025,0.451-0.025c0.325,0,0.633,0.027,0.923,0.082c0.29,0.055,0.563,0.137,0.818,0.247
			c0.255,0.11,0.493,0.247,0.713,0.411c0.22,0.164,0.423,0.356,0.608,0.575c0.185,0.22,0.347,0.462,0.486,0.726
			c0.139,0.265,0.255,0.552,0.348,0.862c0.093,0.31,0.162,0.642,0.209,0.998c0.046,0.355,0.07,0.733,0.07,1.134
			c0,0.034,0,0.068,0,0.102s0,0.068,0,0.102s0,0.068,0,0.102s0,0.068,0,0.102s-0.001,0.068-0.003,0.102s-0.005,0.068-0.009,0.102
			c-0.004,0.034-0.009,0.068-0.014,0.102c-0.006,0.034-0.012,0.068-0.02,0.102h-1.962h-1.962h-1.962h-1.962
			c0.004,0.17,0.013,0.337,0.028,0.501c0.015,0.164,0.036,0.325,0.062,0.483c0.026,0.158,0.058,0.313,0.096,0.464
			s0.081,0.3,0.13,0.445c0.049,0.146,0.103,0.286,0.162,0.421s0.123,0.265,0.192,0.39s0.143,0.245,0.222,0.359
			c0.079,0.114,0.163,0.224,0.252,0.328c0.089,0.104,0.182,0.202,0.279,0.295c0.098,0.093,0.2,0.179,0.307,0.261
			c0.107,0.081,0.218,0.157,0.334,0.227c0.116,0.07,0.236,0.134,0.361,0.193c0.125,0.059,0.253,0.11,0.385,0.154
			c0.132,0.044,0.268,0.08,0.408,0.11c0.14,0.029,0.283,0.051,0.431,0.066c0.147,0.015,0.299,0.022,0.454,0.022
			c0.148,0,0.291-0.005,0.432-0.016c0.14-0.011,0.277-0.027,0.411-0.049c0.133-0.022,0.263-0.049,0.389-0.082
			s0.249-0.071,0.368-0.114c0.119-0.043,0.236-0.09,0.351-0.142s0.228-0.107,0.338-0.166s0.219-0.123,0.326-0.191
			c0.106-0.068,0.211-0.139,0.313-0.215l0.102,0.193l0.102,0.193l0.102,0.193l0.102,0.193c-0.11,0.064-0.222,0.128-0.337,0.19
			s-0.232,0.124-0.352,0.185c-0.12,0.061-0.243,0.12-0.368,0.179c-0.125,0.059-0.253,0.116-0.384,0.173
			c-0.13,0.057-0.269,0.106-0.417,0.149c-0.148,0.042-0.304,0.078-0.47,0.106s-0.339,0.05-0.522,0.064s-0.375,0.021-0.575,0.021
			c-0.174,0-0.345-0.008-0.514-0.024c-0.169-0.016-0.335-0.04-0.498-0.072s-0.324-0.072-0.482-0.121
			c-0.158-0.048-0.314-0.105-0.467-0.169c-0.153-0.064-0.301-0.136-0.444-0.214c-0.143-0.079-0.281-0.165-0.415-0.259
			c-0.133-0.094-0.262-0.194-0.385-0.303c-0.123-0.108-0.242-0.224-0.355-0.346c-0.113-0.123-0.22-0.253-0.322-0.389
			c-0.102-0.136-0.197-0.279-0.287-0.428c-0.09-0.149-0.174-0.305-0.252-0.468c-0.078-0.163-0.15-0.332-0.216-0.508
			c-0.066-0.176-0.124-0.357-0.174-0.545c-0.05-0.187-0.091-0.381-0.124-0.58c-0.033-0.199-0.058-0.405-0.075-0.616
			S56.2,14.987,56.2,14.764z M64.161,14.106c0-0.352-0.018-0.681-0.054-0.989s-0.09-0.593-0.161-0.857
			c-0.072-0.264-0.161-0.505-0.269-0.725c-0.108-0.22-0.233-0.417-0.377-0.593c-0.144-0.176-0.301-0.329-0.47-0.461
			c-0.169-0.132-0.351-0.242-0.546-0.33c-0.195-0.088-0.402-0.154-0.622-0.198c-0.22-0.044-0.453-0.066-0.699-0.066
			c-0.117,0-0.233,0.006-0.347,0.019s-0.227,0.031-0.339,0.056s-0.222,0.056-0.33,0.092c-0.109,0.037-0.216,0.08-0.322,0.129
			c-0.106,0.049-0.209,0.103-0.309,0.163c-0.101,0.059-0.199,0.124-0.294,0.194c-0.096,0.07-0.188,0.145-0.279,0.225
			c-0.09,0.08-0.178,0.166-0.263,0.256c-0.085,0.091-0.166,0.187-0.244,0.287s-0.151,0.206-0.221,0.317
			c-0.07,0.111-0.136,0.226-0.198,0.347c-0.062,0.12-0.121,0.246-0.175,0.376c-0.055,0.131-0.105,0.265-0.15,0.403
			s-0.085,0.281-0.12,0.427c-0.035,0.146-0.065,0.297-0.09,0.451c-0.025,0.154-0.045,0.313-0.06,0.476h1.735h1.735h1.735H64.161z"/>
	</g>
	<g>
		<path d="M68.062,9.298h0.216h0.216h0.216h0.216l0.023,0.505l0.023,0.505l0.023,0.505l0.023,0.505h0.017h0.017h0.017h0.017
			c0.091-0.17,0.186-0.332,0.287-0.486c0.101-0.154,0.206-0.3,0.317-0.438c0.111-0.138,0.226-0.268,0.347-0.39
			s0.246-0.236,0.377-0.342c0.13-0.106,0.264-0.198,0.403-0.277s0.281-0.145,0.427-0.198c0.147-0.053,0.297-0.093,0.452-0.119
			c0.155-0.026,0.313-0.04,0.476-0.04c0.053,0,0.104,0.001,0.154,0.003s0.099,0.005,0.146,0.008
			c0.047,0.004,0.093,0.008,0.138,0.014c0.044,0.006,0.087,0.012,0.129,0.02c0.042,0.008,0.084,0.018,0.126,0.029
			c0.043,0.011,0.086,0.025,0.129,0.04c0.044,0.015,0.088,0.032,0.132,0.051s0.089,0.039,0.135,0.062l-0.057,0.227l-0.057,0.227
			l-0.057,0.227l-0.057,0.227c-0.045-0.019-0.089-0.036-0.131-0.051c-0.042-0.015-0.084-0.029-0.123-0.042
			c-0.04-0.012-0.078-0.023-0.115-0.032c-0.037-0.009-0.072-0.017-0.106-0.023c-0.034-0.006-0.07-0.01-0.109-0.015
			c-0.039-0.004-0.08-0.008-0.123-0.01c-0.043-0.003-0.089-0.005-0.137-0.006c-0.048-0.001-0.098-0.002-0.151-0.002
			c-0.121,0-0.244,0.013-0.368,0.039c-0.124,0.026-0.25,0.065-0.378,0.117c-0.128,0.052-0.257,0.117-0.388,0.195
			s-0.263,0.169-0.397,0.273c-0.134,0.104-0.265,0.227-0.392,0.369s-0.251,0.304-0.371,0.484c-0.12,0.18-0.237,0.38-0.349,0.599
			c-0.113,0.219-0.222,0.457-0.328,0.714v1.854v1.854v1.854v1.854h-0.25h-0.25h-0.25h-0.25v-2.721v-2.721V12.02V9.298z"/>
	</g>
	<g>
		<path d="M79.424,4.785c-0.057-0.03-0.114-0.058-0.17-0.084c-0.056-0.026-0.112-0.049-0.168-0.069
			C79.03,4.61,78.975,4.592,78.92,4.576s-0.11-0.03-0.165-0.041c-0.055-0.011-0.11-0.021-0.164-0.03
			c-0.054-0.009-0.109-0.016-0.162-0.021c-0.054-0.006-0.108-0.01-0.161-0.013s-0.107-0.004-0.16-0.004
			c-0.144,0-0.278,0.013-0.403,0.04c-0.125,0.027-0.241,0.067-0.348,0.121c-0.107,0.054-0.204,0.121-0.293,0.202
			c-0.088,0.081-0.168,0.175-0.238,0.283c-0.07,0.108-0.131,0.226-0.184,0.356c-0.052,0.13-0.096,0.271-0.131,0.423
			c-0.035,0.152-0.061,0.315-0.078,0.49c-0.017,0.174-0.026,0.36-0.026,0.556v0.59v0.59v0.59v0.59h0.629h0.629h0.629h0.629v0.215
			v0.215v0.215v0.215h-0.629h-0.629h-0.629h-0.629v2.506v2.506v2.506v2.506h-0.25h-0.25h-0.25h-0.25v-2.506v-2.506v-2.506v-2.506
			h-0.374h-0.374h-0.374h-0.374V9.966V9.774V9.581V9.388l0.374-0.023l0.374-0.023l0.374-0.023l0.374-0.023V8.691V8.085V7.478V6.871
			c0-0.272,0.015-0.527,0.044-0.765c0.029-0.238,0.073-0.459,0.132-0.663c0.059-0.204,0.132-0.391,0.22-0.562
			c0.088-0.17,0.191-0.324,0.308-0.46c0.117-0.136,0.246-0.255,0.388-0.357s0.296-0.187,0.462-0.255s0.345-0.119,0.536-0.153
			s0.394-0.051,0.61-0.051c0.132,0,0.265,0.008,0.397,0.023s0.265,0.038,0.397,0.068c0.132,0.03,0.265,0.068,0.397,0.114
			s0.265,0.098,0.397,0.159l-0.068,0.204L79.56,4.376l-0.068,0.204L79.424,4.785z"/>
	</g>
	<g>
		<path d="M80.079,14.764c0-0.227,0.008-0.448,0.025-0.663c0.017-0.215,0.041-0.424,0.075-0.627c0.033-0.203,0.075-0.4,0.124-0.592
			c0.05-0.191,0.107-0.377,0.174-0.556c0.066-0.18,0.138-0.352,0.215-0.517c0.077-0.165,0.161-0.323,0.25-0.473
			s0.183-0.293,0.284-0.429c0.1-0.136,0.206-0.264,0.318-0.385c0.112-0.121,0.228-0.235,0.348-0.342
			c0.12-0.107,0.245-0.207,0.375-0.299c0.129-0.093,0.263-0.178,0.402-0.257s0.281-0.15,0.429-0.214
			c0.148-0.064,0.297-0.12,0.448-0.168c0.151-0.048,0.304-0.088,0.459-0.12c0.155-0.032,0.312-0.056,0.471-0.072
			c0.159-0.016,0.319-0.024,0.482-0.024c0.163,0,0.323,0.008,0.483,0.024c0.159,0.016,0.317,0.04,0.473,0.072s0.31,0.072,0.462,0.12
			c0.152,0.048,0.303,0.104,0.452,0.168c0.149,0.064,0.294,0.136,0.434,0.214s0.275,0.164,0.406,0.257
			c0.131,0.093,0.256,0.192,0.377,0.299c0.121,0.107,0.237,0.221,0.349,0.342c0.111,0.121,0.217,0.249,0.317,0.385
			c0.1,0.136,0.194,0.279,0.283,0.429s0.172,0.308,0.249,0.473c0.077,0.165,0.149,0.337,0.215,0.517
			c0.066,0.18,0.124,0.365,0.174,0.556c0.05,0.191,0.091,0.388,0.124,0.592c0.033,0.203,0.058,0.412,0.074,0.627
			c0.016,0.215,0.025,0.436,0.025,0.663c0,0.227-0.008,0.447-0.025,0.661s-0.041,0.422-0.074,0.623
			c-0.033,0.201-0.074,0.396-0.124,0.584s-0.108,0.37-0.174,0.546c-0.066,0.176-0.138,0.345-0.215,0.507
			c-0.077,0.162-0.161,0.317-0.249,0.466s-0.183,0.29-0.283,0.425s-0.206,0.263-0.317,0.384c-0.112,0.121-0.228,0.235-0.349,0.342
			s-0.247,0.206-0.377,0.299c-0.131,0.093-0.266,0.178-0.406,0.256s-0.285,0.15-0.434,0.214c-0.149,0.064-0.3,0.121-0.452,0.169
			c-0.152,0.048-0.307,0.088-0.462,0.121s-0.313,0.056-0.473,0.072c-0.159,0.016-0.32,0.024-0.483,0.024
			c-0.163,0-0.323-0.008-0.482-0.024c-0.159-0.016-0.316-0.04-0.471-0.072c-0.155-0.032-0.308-0.072-0.459-0.121
			c-0.151-0.048-0.301-0.105-0.448-0.169c-0.148-0.064-0.291-0.135-0.429-0.214s-0.272-0.164-0.402-0.256
			c-0.129-0.093-0.254-0.192-0.375-0.299c-0.12-0.107-0.236-0.221-0.348-0.342c-0.112-0.121-0.217-0.249-0.318-0.384
			c-0.1-0.135-0.195-0.276-0.284-0.425s-0.172-0.304-0.25-0.466c-0.077-0.162-0.149-0.331-0.215-0.507
			c-0.066-0.176-0.124-0.358-0.174-0.546s-0.091-0.383-0.124-0.584c-0.033-0.201-0.058-0.409-0.075-0.623
			S80.079,14.991,80.079,14.764z M81.123,14.764c0,0.178,0.006,0.351,0.018,0.521s0.031,0.336,0.055,0.499
			c0.025,0.163,0.055,0.321,0.092,0.476c0.037,0.155,0.08,0.306,0.129,0.454c0.049,0.147,0.103,0.289,0.161,0.426
			c0.058,0.137,0.121,0.269,0.188,0.395s0.139,0.248,0.215,0.364s0.157,0.227,0.242,0.333c0.085,0.106,0.174,0.206,0.267,0.3
			c0.093,0.094,0.19,0.182,0.291,0.265c0.101,0.082,0.206,0.159,0.315,0.229c0.109,0.07,0.222,0.135,0.339,0.193
			c0.117,0.059,0.237,0.11,0.359,0.154c0.122,0.044,0.246,0.08,0.373,0.11c0.127,0.029,0.256,0.051,0.387,0.066
			c0.131,0.015,0.265,0.022,0.401,0.022s0.27-0.007,0.402-0.022s0.261-0.037,0.389-0.066c0.127-0.029,0.253-0.066,0.376-0.11
			c0.123-0.044,0.244-0.095,0.363-0.154c0.119-0.059,0.234-0.123,0.344-0.193c0.111-0.07,0.217-0.147,0.319-0.229
			c0.102-0.082,0.2-0.17,0.294-0.265c0.094-0.094,0.183-0.194,0.269-0.3c0.085-0.106,0.166-0.217,0.241-0.333
			s0.147-0.238,0.214-0.364s0.129-0.259,0.187-0.395c0.058-0.137,0.111-0.279,0.161-0.426c0.049-0.148,0.093-0.299,0.13-0.454
			c0.037-0.155,0.068-0.314,0.092-0.476s0.043-0.329,0.055-0.499s0.018-0.344,0.018-0.521c0-0.182-0.006-0.359-0.018-0.532
			c-0.012-0.173-0.031-0.342-0.055-0.506s-0.055-0.325-0.092-0.481c-0.037-0.156-0.08-0.308-0.13-0.455
			c-0.049-0.147-0.103-0.289-0.161-0.427s-0.12-0.27-0.187-0.397c-0.067-0.128-0.138-0.25-0.214-0.368
			c-0.076-0.118-0.156-0.23-0.241-0.338c-0.085-0.108-0.175-0.21-0.269-0.305c-0.094-0.096-0.192-0.185-0.294-0.268
			s-0.208-0.16-0.319-0.231c-0.111-0.071-0.225-0.135-0.344-0.194c-0.119-0.059-0.24-0.11-0.363-0.154
			c-0.123-0.044-0.249-0.08-0.376-0.11c-0.127-0.029-0.257-0.051-0.389-0.066c-0.132-0.015-0.266-0.022-0.402-0.022
			s-0.27,0.007-0.401,0.022c-0.131,0.015-0.261,0.037-0.387,0.066c-0.127,0.029-0.251,0.066-0.373,0.11
			c-0.122,0.044-0.242,0.095-0.359,0.154c-0.117,0.059-0.23,0.123-0.339,0.194c-0.109,0.071-0.214,0.148-0.315,0.231
			s-0.198,0.172-0.291,0.268c-0.093,0.096-0.182,0.197-0.267,0.305c-0.085,0.108-0.166,0.22-0.242,0.338
			c-0.076,0.118-0.148,0.24-0.215,0.368c-0.067,0.128-0.13,0.26-0.188,0.397s-0.112,0.28-0.161,0.427
			c-0.049,0.148-0.092,0.299-0.129,0.455s-0.067,0.316-0.092,0.481c-0.025,0.165-0.043,0.333-0.055,0.506
			C81.129,14.405,81.123,14.583,81.123,14.764z"/>
	</g>
	<g>
		<path d="M93.121,9.298h0.216h0.216h0.216h0.216l0.023,0.505l0.023,0.505l0.023,0.505l0.023,0.505h0.017h0.017h0.017h0.017
			c0.091-0.17,0.186-0.332,0.287-0.486c0.101-0.154,0.206-0.3,0.317-0.438c0.111-0.138,0.226-0.268,0.347-0.39
			s0.246-0.236,0.377-0.342c0.13-0.106,0.264-0.198,0.403-0.277c0.138-0.079,0.281-0.145,0.427-0.198s0.297-0.093,0.452-0.119
			c0.155-0.026,0.313-0.04,0.476-0.04c0.053,0,0.104,0.001,0.154,0.003c0.05,0.002,0.099,0.005,0.146,0.008
			c0.047,0.004,0.093,0.008,0.138,0.014c0.044,0.006,0.087,0.012,0.129,0.02c0.042,0.008,0.084,0.018,0.126,0.029
			c0.043,0.011,0.086,0.025,0.129,0.04s0.088,0.032,0.132,0.051s0.089,0.039,0.135,0.062l-0.057,0.227l-0.057,0.227l-0.057,0.227
			l-0.057,0.227c-0.045-0.019-0.089-0.036-0.131-0.051c-0.042-0.015-0.084-0.029-0.123-0.042c-0.04-0.012-0.078-0.023-0.115-0.032
			c-0.037-0.009-0.072-0.017-0.106-0.023c-0.034-0.006-0.07-0.01-0.109-0.015c-0.039-0.004-0.08-0.008-0.123-0.01
			c-0.043-0.003-0.089-0.005-0.137-0.006c-0.048-0.001-0.098-0.002-0.151-0.002c-0.121,0-0.244,0.013-0.368,0.039
			c-0.124,0.026-0.25,0.065-0.378,0.117c-0.128,0.052-0.257,0.117-0.388,0.195s-0.263,0.169-0.397,0.273
			c-0.134,0.104-0.265,0.227-0.392,0.369s-0.251,0.304-0.371,0.484c-0.12,0.18-0.237,0.38-0.349,0.599
			c-0.113,0.219-0.222,0.457-0.328,0.714v1.854v1.854v1.854v1.854h-0.25h-0.25h-0.25h-0.25v-2.721v-2.721V12.02V9.298z"/>
	</g>
	<g>
		<path d="M100.31,9.298h0.216h0.216h0.216h0.216l0.023,0.42l0.023,0.42l0.023,0.42l0.023,0.42h0.017h0.017h0.017h0.017
			c0.121-0.14,0.246-0.274,0.374-0.402c0.128-0.128,0.259-0.25,0.395-0.367c0.135-0.116,0.274-0.227,0.416-0.331
			c0.142-0.104,0.288-0.203,0.438-0.295c0.149-0.093,0.299-0.174,0.448-0.243c0.15-0.069,0.3-0.127,0.45-0.174
			c0.15-0.046,0.301-0.081,0.452-0.104c0.151-0.023,0.302-0.035,0.454-0.035c0.219,0,0.425,0.012,0.619,0.037
			c0.194,0.025,0.375,0.062,0.543,0.112s0.324,0.113,0.466,0.188c0.143,0.075,0.273,0.163,0.39,0.263
			c0.117,0.1,0.226,0.209,0.326,0.327c0.1,0.118,0.192,0.244,0.275,0.379c0.083,0.135,0.158,0.279,0.224,0.432
			c0.066,0.153,0.124,0.314,0.173,0.484c0.159-0.17,0.317-0.331,0.473-0.484c0.156-0.153,0.312-0.297,0.466-0.432
			c0.154-0.135,0.307-0.262,0.459-0.379c0.152-0.118,0.302-0.227,0.452-0.327c0.149-0.1,0.299-0.188,0.451-0.263
			c0.152-0.075,0.304-0.138,0.459-0.188s0.309-0.088,0.466-0.112c0.156-0.025,0.314-0.037,0.472-0.037
			c0.544,0,1.021,0.087,1.429,0.261c0.408,0.174,0.749,0.435,1.021,0.782s0.477,0.782,0.613,1.304
			c0.136,0.522,0.204,1.13,0.204,1.826v1.746v1.746v1.746v1.746h-0.256h-0.255h-0.256h-0.256v-1.712V16.76v-1.712v-1.712
			c0-0.291-0.012-0.563-0.037-0.816c-0.025-0.253-0.061-0.487-0.11-0.701c-0.049-0.215-0.11-0.41-0.184-0.587
			c-0.074-0.176-0.159-0.334-0.257-0.472c-0.098-0.138-0.211-0.258-0.336-0.362c-0.126-0.103-0.265-0.19-0.418-0.259
			s-0.32-0.121-0.5-0.155s-0.374-0.052-0.582-0.052c-0.246,0-0.499,0.043-0.758,0.128c-0.259,0.085-0.525,0.213-0.797,0.383
			s-0.551,0.383-0.836,0.638c-0.285,0.255-0.577,0.553-0.876,0.893v2.053v2.053v2.053v2.053h-0.25h-0.25h-0.25h-0.25v-1.712V16.76
			v-1.712v-1.712c0-0.291-0.012-0.563-0.037-0.816c-0.025-0.253-0.061-0.487-0.11-0.701c-0.049-0.215-0.11-0.41-0.184-0.587
			c-0.074-0.176-0.159-0.334-0.257-0.472c-0.098-0.138-0.211-0.258-0.338-0.362c-0.127-0.103-0.268-0.19-0.423-0.259
			c-0.155-0.069-0.324-0.121-0.508-0.155c-0.183-0.035-0.381-0.052-0.592-0.052c-0.246,0-0.498,0.043-0.757,0.128
			c-0.259,0.085-0.524,0.213-0.796,0.383s-0.551,0.383-0.836,0.638s-0.577,0.553-0.876,0.893v2.053v2.053v2.053v2.053h-0.25h-0.25
			h-0.25h-0.25v-2.721v-2.721V12.02V9.298z"/>
	</g>
</g>
</svg>
