<?xml version="1.0" encoding="utf-8"?>
<!-- Generator: Adobe Illustrator 19.1.0, SVG Export Plug-In . SVG Version: 6.00 Build 0)  -->
<svg version="1.1" id="Layer_1" xmlns="http://www.w3.org/2000/svg" xmlns:xlink="http://www.w3.org/1999/xlink" x="0px" y="0px"
	 viewBox="0 0 29.91 30.086" style="enable-background:new 0 0 29.91 30.086;" xml:space="preserve">
<style type="text/css">
	.st0{fill:#4D4D4D;}
	.st1{fill-rule:evenodd;clip-rule:evenodd;fill:#4C4C4C;}
	.st2{fill:#4C4C4C;}
	.st3{fill:#383330;}
	.st4{fill:#1F1A17;}
	.st5{fill:#4D4C4C;}
	.st6{fill:none;stroke:#000000;stroke-width:0.3;stroke-miterlimit:10;}
	.st7{fill:#E61413;}
	.st8{fill:#5F5357;}
	.st9{fill:#115C78;}
	.st10{fill-rule:evenodd;clip-rule:evenodd;fill:#4D4D4D;}
	.st11{fill-rule:evenodd;clip-rule:evenodd;}
	.st12{fill:#FFFFFF;}
	.st13{fill:none;}
	.st14{fill:#231F20;}
	.st15{clip-path:url(#SVGID_2_);}
	.st16{clip-path:url(#SVGID_4_);fill:#FCF118;}
	.st17{clip-path:url(#SVGID_4_);fill:#FCF018;}
	.st18{clip-path:url(#SVGID_4_);fill:#FCEF18;}
	.st19{clip-path:url(#SVGID_4_);fill:#FCEE18;}
	.st20{clip-path:url(#SVGID_4_);fill:#FCED18;}
	.st21{clip-path:url(#SVGID_4_);fill:#FCEC18;}
	.st22{clip-path:url(#SVGID_4_);fill:#FCEB18;}
	.st23{clip-path:url(#SVGID_4_);fill:#FCEA18;}
	.st24{clip-path:url(#SVGID_4_);fill:#FCE918;}
	.st25{clip-path:url(#SVGID_4_);fill:#FCE818;}
	.st26{clip-path:url(#SVGID_4_);fill:#FCE718;}
	.st27{clip-path:url(#SVGID_4_);fill:#FCE617;}
	.st28{clip-path:url(#SVGID_4_);fill:#FCE517;}
	.st29{clip-path:url(#SVGID_4_);fill:#FCE417;}
	.st30{clip-path:url(#SVGID_4_);fill:#FCE317;}
	.st31{clip-path:url(#SVGID_4_);fill:#FCE217;}
	.st32{clip-path:url(#SVGID_4_);fill:#FCE117;}
	.st33{clip-path:url(#SVGID_4_);fill:#FCE017;}
	.st34{clip-path:url(#SVGID_4_);fill:#FCDF17;}
	.st35{clip-path:url(#SVGID_4_);fill:#FCDE17;}
	.st36{clip-path:url(#SVGID_4_);fill:#FCDD17;}
	.st37{clip-path:url(#SVGID_4_);fill:#FCDC17;}
	.st38{clip-path:url(#SVGID_4_);fill:#FCDB17;}
	.st39{clip-path:url(#SVGID_4_);fill:#FCDA17;}
	.st40{clip-path:url(#SVGID_4_);fill:#FCD917;}
	.st41{clip-path:url(#SVGID_4_);fill:#FCD817;}
	.st42{clip-path:url(#SVGID_4_);fill:#FCD717;}
	.st43{clip-path:url(#SVGID_4_);fill:#FCD617;}
	.st44{clip-path:url(#SVGID_4_);fill:#FCD517;}
	.st45{clip-path:url(#SVGID_4_);fill:#FCD416;}
	.st46{clip-path:url(#SVGID_4_);fill:#FCD316;}
	.st47{clip-path:url(#SVGID_4_);fill:#FBD216;}
	.st48{clip-path:url(#SVGID_4_);fill:#FBD116;}
	.st49{clip-path:url(#SVGID_4_);fill:#FBD016;}
	.st50{clip-path:url(#SVGID_4_);fill:#FBCF16;}
	.st51{clip-path:url(#SVGID_4_);fill:#FBCE16;}
	.st52{clip-path:url(#SVGID_4_);fill:#FBCD16;}
	.st53{clip-path:url(#SVGID_4_);fill:#FBCC16;}
	.st54{clip-path:url(#SVGID_4_);fill:#FBCB16;}
	.st55{clip-path:url(#SVGID_4_);fill:#FBCA16;}
	.st56{clip-path:url(#SVGID_4_);fill:#FBC916;}
	.st57{clip-path:url(#SVGID_4_);fill:#FBC816;}
	.st58{clip-path:url(#SVGID_4_);fill:#FBC716;}
	.st59{clip-path:url(#SVGID_4_);fill:#FBC616;}
	.st60{clip-path:url(#SVGID_4_);fill:#FBC516;}
	.st61{clip-path:url(#SVGID_4_);fill:#FBC416;}
	.st62{clip-path:url(#SVGID_4_);fill:#FBC316;}
	.st63{clip-path:url(#SVGID_4_);fill:#FBC216;}
	.st64{clip-path:url(#SVGID_4_);fill:#FBC115;}
	.st65{clip-path:url(#SVGID_4_);fill:#FBC015;}
	.st66{clip-path:url(#SVGID_4_);fill:#FBBF15;}
	.st67{clip-path:url(#SVGID_4_);fill:#FBBE15;}
	.st68{clip-path:url(#SVGID_4_);fill:#FBBD15;}
	.st69{clip-path:url(#SVGID_4_);fill:#FBBC15;}
	.st70{clip-path:url(#SVGID_4_);fill:#FBBB15;}
	.st71{clip-path:url(#SVGID_4_);fill:#FBBA15;}
	.st72{clip-path:url(#SVGID_4_);fill:#FBB915;}
	.st73{clip-path:url(#SVGID_4_);fill:#FBB815;}
	.st74{clip-path:url(#SVGID_4_);fill:#FBB715;}
	.st75{clip-path:url(#SVGID_4_);fill:#FBB615;}
	.st76{clip-path:url(#SVGID_4_);fill:#FBB515;}
	.st77{clip-path:url(#SVGID_4_);fill:#FBB415;}
	.st78{clip-path:url(#SVGID_4_);fill:#FBB315;}
	.st79{clip-path:url(#SVGID_4_);fill:#FBB215;}
	.st80{clip-path:url(#SVGID_4_);fill:#FBB115;}
	.st81{clip-path:url(#SVGID_4_);fill:#FBB015;}
	.st82{clip-path:url(#SVGID_4_);fill:#FBAF15;}
	.st83{clip-path:url(#SVGID_4_);fill:#FAAE15;}
	.st84{clip-path:url(#SVGID_4_);fill:#FAAD14;}
	.st85{clip-path:url(#SVGID_4_);fill:#FAAC14;}
	.st86{clip-path:url(#SVGID_4_);fill:#FAAB14;}
	.st87{clip-path:url(#SVGID_4_);fill:#FAAA14;}
	.st88{clip-path:url(#SVGID_4_);fill:#FAA914;}
	.st89{clip-path:url(#SVGID_4_);fill:#FAA814;}
	.st90{clip-path:url(#SVGID_4_);fill:#FAA714;}
	.st91{clip-path:url(#SVGID_4_);fill:#FAA614;}
	.st92{clip-path:url(#SVGID_4_);fill:#FAA514;}
	.st93{clip-path:url(#SVGID_4_);fill:#FAA414;}
	.st94{clip-path:url(#SVGID_4_);fill:#FAA314;}
	.st95{clip-path:url(#SVGID_4_);fill:#FAA214;}
	.st96{clip-path:url(#SVGID_4_);fill:#FAA114;}
	.st97{clip-path:url(#SVGID_4_);fill:#FAA014;}
	.st98{clip-path:url(#SVGID_4_);fill:#FA9F14;}
	.st99{clip-path:url(#SVGID_4_);fill:#FA9E14;}
	.st100{clip-path:url(#SVGID_4_);fill:#FA9D14;}
	.st101{clip-path:url(#SVGID_4_);fill:#FA9C14;}
	.st102{clip-path:url(#SVGID_4_);fill:#FA9B14;}
	.st103{clip-path:url(#SVGID_4_);fill:#FA9A13;}
	.st104{clip-path:url(#SVGID_4_);fill:#FA9913;}
	.st105{clip-path:url(#SVGID_4_);fill:#FA9813;}
	.st106{clip-path:url(#SVGID_4_);fill:#FA9713;}
	.st107{clip-path:url(#SVGID_4_);fill:#FA9613;}
	.st108{clip-path:url(#SVGID_4_);fill:#FA9513;}
	.st109{clip-path:url(#SVGID_4_);fill:#FA9413;}
	.st110{clip-path:url(#SVGID_4_);fill:#FA9313;}
	.st111{clip-path:url(#SVGID_4_);fill:#FA9213;}
	.st112{clip-path:url(#SVGID_4_);fill:#FA9113;}
	.st113{clip-path:url(#SVGID_4_);fill:#FA9013;}
	.st114{clip-path:url(#SVGID_4_);fill:#FA8F13;}
	.st115{clip-path:url(#SVGID_4_);fill:#FA8E13;}
	.st116{clip-path:url(#SVGID_4_);fill:#FA8D13;}
	.st117{clip-path:url(#SVGID_4_);fill:#FA8C13;}
	.st118{clip-path:url(#SVGID_4_);fill:#FA8B13;}
	.st119{clip-path:url(#SVGID_4_);fill:#FA8A13;}
	.st120{clip-path:url(#SVGID_4_);fill:#FA8913;}
	.st121{clip-path:url(#SVGID_4_);fill:#FA8812;}
	.st122{clip-path:url(#SVGID_4_);fill:#FA8712;}
	.st123{clip-path:url(#SVGID_4_);fill:#FA8612;}
	.st124{clip-path:url(#SVGID_4_);fill:#F98512;}
	.st125{clip-path:url(#SVGID_4_);fill:#F98412;}
	.st126{clip-path:url(#SVGID_4_);fill:#F98312;}
	.st127{clip-path:url(#SVGID_4_);fill:#F98212;}
	.st128{clip-path:url(#SVGID_4_);fill:#F98112;}
	.st129{clip-path:url(#SVGID_4_);fill:#F98012;}
	.st130{clip-path:url(#SVGID_4_);fill:#F97F12;}
	.st131{clip-path:url(#SVGID_4_);fill:#F97E12;}
	.st132{clip-path:url(#SVGID_4_);fill:#F97D12;}
	.st133{clip-path:url(#SVGID_4_);fill:#F97C12;}
	.st134{clip-path:url(#SVGID_4_);fill:#F97B12;}
	.st135{clip-path:url(#SVGID_4_);fill:#F97A12;}
	.st136{clip-path:url(#SVGID_4_);fill:#F97912;}
	.st137{clip-path:url(#SVGID_4_);fill:#F97812;}
	.st138{clip-path:url(#SVGID_4_);fill:#F97712;}
	.st139{clip-path:url(#SVGID_4_);fill:#F97612;}
	.st140{clip-path:url(#SVGID_4_);fill:#F97511;}
	.st141{clip-path:url(#SVGID_4_);fill:#F97411;}
	.st142{clip-path:url(#SVGID_4_);fill:#F97311;}
	.st143{clip-path:url(#SVGID_4_);fill:#F97211;}
	.st144{clip-path:url(#SVGID_4_);fill:#F97111;}
	.st145{clip-path:url(#SVGID_4_);fill:#F97011;}
	.st146{clip-path:url(#SVGID_4_);fill:#F96F11;}
	.st147{clip-path:url(#SVGID_4_);fill:#F96E11;}
	.st148{clip-path:url(#SVGID_4_);fill:#F96D11;}
	.st149{clip-path:url(#SVGID_4_);fill:#F96C11;}
	.st150{clip-path:url(#SVGID_4_);fill:#F96B11;}
	.st151{clip-path:url(#SVGID_4_);fill:#F96A11;}
	.st152{clip-path:url(#SVGID_4_);fill:#F96911;}
	.st153{clip-path:url(#SVGID_4_);fill:#F96811;}
	.st154{clip-path:url(#SVGID_4_);fill:#F96711;}
	.st155{clip-path:url(#SVGID_4_);fill:#F96611;}
	.st156{clip-path:url(#SVGID_4_);fill:#F96511;}
	.st157{clip-path:url(#SVGID_4_);fill:#F96411;}
	.st158{clip-path:url(#SVGID_4_);fill:#F96311;}
	.st159{clip-path:url(#SVGID_4_);fill:#F96210;}
	.st160{clip-path:url(#SVGID_4_);fill:#F86110;}
	.st161{clip-path:url(#SVGID_4_);fill:#F86010;}
	.st162{clip-path:url(#SVGID_4_);fill:#F85F10;}
	.st163{clip-path:url(#SVGID_4_);fill:#F85E10;}
	.st164{clip-path:url(#SVGID_4_);fill:#F85D10;}
	.st165{clip-path:url(#SVGID_4_);fill:#F85C10;}
	.st166{clip-path:url(#SVGID_4_);fill:#F85B10;}
	.st167{clip-path:url(#SVGID_4_);fill:#F85A10;}
	.st168{clip-path:url(#SVGID_4_);fill:#F85910;}
	.st169{clip-path:url(#SVGID_4_);fill:#F85810;}
	.st170{clip-path:url(#SVGID_4_);fill:#F85710;}
	.st171{clip-path:url(#SVGID_4_);fill:#F85610;}
	.st172{clip-path:url(#SVGID_4_);fill:#F85510;}
	.st173{clip-path:url(#SVGID_4_);fill:#F85410;}
	.st174{clip-path:url(#SVGID_4_);fill:#F85310;}
	.st175{clip-path:url(#SVGID_4_);fill:#F85210;}
	.st176{clip-path:url(#SVGID_4_);fill:#F85110;}
	.st177{clip-path:url(#SVGID_4_);fill:#F85010;}
	.st178{clip-path:url(#SVGID_4_);fill:#F84F0F;}
	.st179{clip-path:url(#SVGID_4_);fill:#F84E0F;}
	.st180{clip-path:url(#SVGID_4_);fill:#F84D0F;}
	.st181{clip-path:url(#SVGID_4_);fill:#F84C0F;}
	.st182{clip-path:url(#SVGID_4_);fill:#F84B0F;}
	.st183{clip-path:url(#SVGID_4_);fill:#F84A0F;}
	.st184{clip-path:url(#SVGID_4_);fill:#F8490F;}
	.st185{clip-path:url(#SVGID_4_);fill:#F8480F;}
	.st186{clip-path:url(#SVGID_4_);fill:#F8470F;}
	.st187{clip-path:url(#SVGID_4_);fill:#F8460F;}
	.st188{clip-path:url(#SVGID_4_);fill:#F8450F;}
	.st189{clip-path:url(#SVGID_4_);fill:#F8440F;}
	.st190{clip-path:url(#SVGID_4_);fill:#F8430F;}
	.st191{clip-path:url(#SVGID_4_);fill:#F8420F;}
	.st192{clip-path:url(#SVGID_4_);fill:#F8410F;}
	.st193{clip-path:url(#SVGID_4_);fill:#F8400F;}
	.st194{clip-path:url(#SVGID_4_);fill:#F83F0F;}
	.st195{clip-path:url(#SVGID_4_);fill:#F83E0E;}
	.st196{clip-path:url(#SVGID_4_);fill:#F83D0E;}
	.st197{clip-path:url(#SVGID_4_);fill:#F83C0E;}
	.st198{clip-path:url(#SVGID_4_);fill:#F83B0E;}
	.st199{clip-path:url(#SVGID_4_);fill:#F73A0E;}
	.st200{clip-path:url(#SVGID_4_);fill:#F7390E;}
	.st201{clip-path:url(#SVGID_4_);fill:#F7380E;}
	.st202{clip-path:url(#SVGID_4_);fill:#F7370E;}
	.st203{clip-path:url(#SVGID_4_);fill:#F7360E;}
	.st204{clip-path:url(#SVGID_4_);fill:#F7340E;}
	.st205{clip-path:url(#SVGID_4_);fill:#F7330E;}
	.st206{clip-path:url(#SVGID_4_);fill:#F7320E;}
	.st207{clip-path:url(#SVGID_4_);fill:#F7310E;}
	.st208{clip-path:url(#SVGID_4_);fill:#F7300E;}
	.st209{clip-path:url(#SVGID_4_);fill:#F72F0E;}
	.st210{clip-path:url(#SVGID_4_);fill:#F72E0E;}
	.st211{clip-path:url(#SVGID_4_);fill:#F72D0E;}
	.st212{clip-path:url(#SVGID_4_);fill:#F72C0E;}
	.st213{clip-path:url(#SVGID_4_);fill:#F72B0E;}
	.st214{clip-path:url(#SVGID_4_);fill:#F72B0D;}
	.st215{clip-path:url(#SVGID_4_);fill:#F72A0D;}
	.st216{clip-path:url(#SVGID_4_);fill:#F7290D;}
	.st217{clip-path:url(#SVGID_4_);fill:#F7280D;}
	.st218{clip-path:url(#SVGID_4_);fill:#F7270D;}
	.st219{clip-path:url(#SVGID_4_);fill:#F7260D;}
</style>
<g>
	<g>
		<path d="M6.075,21.583h0.063h0.063h0.063h0.063l0.001-0.009l0.001-0.009l0.001-0.009l0.001-0.009
			c0.05-0.639,0.176-1.261,0.37-1.853c0.194-0.592,0.457-1.155,0.782-1.677s0.71-1.003,1.15-1.432
			c0.44-0.429,0.934-0.805,1.475-1.117c0.292-0.169,0.595-0.318,0.906-0.446s0.629-0.236,0.953-0.323s0.654-0.153,0.987-0.197
			s0.669-0.066,1.007-0.066c0.338,0,0.674,0.022,1.007,0.066s0.663,0.11,0.987,0.197c0.324,0.087,0.642,0.195,0.953,0.323
			c0.31,0.128,0.613,0.277,0.906,0.446c0.541,0.312,1.035,0.689,1.475,1.117c0.44,0.429,0.825,0.91,1.15,1.432
			s0.587,1.085,0.782,1.677c0.194,0.592,0.32,1.214,0.37,1.853l0.001,0.009l0.001,0.009l0.001,0.009l0.001,0.009h0.063h0.063h0.063
			h0.063c-0.047-0.651-0.173-1.288-0.371-1.898c-0.198-0.61-0.469-1.193-0.805-1.735s-0.738-1.045-1.198-1.494
			c-0.46-0.449-0.979-0.845-1.549-1.174c-0.3-0.174-0.611-0.327-0.931-0.459s-0.646-0.243-0.979-0.332
			c-0.333-0.089-0.672-0.157-1.014-0.202s-0.688-0.068-1.036-0.068s-0.693,0.023-1.036,0.068s-0.681,0.113-1.014,0.202
			s-0.66,0.2-0.979,0.332s-0.63,0.285-0.931,0.459c-0.57,0.329-1.088,0.725-1.549,1.174c-0.46,0.449-0.862,0.951-1.198,1.494
			s-0.607,1.125-0.805,1.735C6.248,20.295,6.122,20.932,6.075,21.583z"/>
	</g>
	<g>
		<path d="M13.957,8.641c-0.01,0-0.018,0.001-0.026,0.003s-0.015,0.005-0.021,0.008s-0.012,0.007-0.017,0.01
			S13.884,8.67,13.88,8.674s-0.007,0.008-0.011,0.013s-0.007,0.011-0.01,0.017s-0.005,0.013-0.007,0.021S13.85,8.741,13.85,8.751
			l0,0.556l0,0.556l0,0.556l0,0.556c0,0.011,0.001,0.021,0.003,0.029s0.004,0.016,0.007,0.023s0.006,0.013,0.01,0.018
			s0.007,0.009,0.011,0.013c0.004,0.004,0.008,0.008,0.013,0.011s0.01,0.007,0.017,0.01s0.013,0.006,0.021,0.008
			s0.016,0.003,0.025,0.003c0.015,0,0.029-0.003,0.042-0.008s0.025-0.013,0.035-0.023s0.018-0.021,0.023-0.034
			s0.009-0.027,0.009-0.041l0-0.556l0-0.556l0-0.556l0-0.556c0-0.017-0.003-0.032-0.008-0.046s-0.013-0.026-0.023-0.037
			s-0.021-0.019-0.034-0.024s-0.027-0.009-0.042-0.009l0-0.056l0-0.056l0-0.056l0-0.056l0,0l0,0l0,0l0,0l0,0.056l0,0.056l0,0.056
			L13.957,8.641z"/>
	</g>
	<g>
		<path d="M22.325,11.432c-0.007,0-0.014,0.001-0.021,0.003c-0.007,0.002-0.013,0.004-0.019,0.006s-0.012,0.006-0.018,0.01
			c-0.006,0.004-0.011,0.008-0.016,0.014l-0.417,0.417l-0.417,0.417L21,12.715l-0.417,0.417c-0.008,0.008-0.015,0.016-0.02,0.024
			c-0.005,0.008-0.009,0.015-0.012,0.022s-0.005,0.014-0.006,0.02c-0.001,0.006-0.002,0.012-0.002,0.017
			c0,0.005,0,0.011,0.001,0.017s0.002,0.013,0.004,0.019s0.005,0.014,0.009,0.02s0.009,0.014,0.016,0.02
			c0.007,0.007,0.013,0.012,0.02,0.017c0.007,0.004,0.014,0.008,0.021,0.01s0.013,0.004,0.02,0.005
			c0.006,0.001,0.012,0.001,0.017,0.001c0.005,0,0.01,0,0.016-0.001c0.006-0.001,0.012-0.002,0.019-0.005s0.013-0.005,0.02-0.009
			c0.007-0.004,0.013-0.009,0.02-0.015l0.418-0.418l0.418-0.418l0.418-0.418l0.418-0.418c0.012-0.011,0.021-0.024,0.027-0.038
			s0.009-0.028,0.01-0.042s-0.002-0.028-0.007-0.041s-0.013-0.025-0.023-0.036c-0.005-0.005-0.011-0.01-0.017-0.014
			c-0.006-0.004-0.012-0.007-0.019-0.01s-0.013-0.005-0.021-0.006c-0.007-0.001-0.014-0.002-0.021-0.002v-0.055v-0.055v-0.055
			v-0.055c0,0,0,0,0,0c0,0,0,0,0,0s0,0,0,0c0,0,0,0,0,0l0,0.055l0,0.055l0,0.055L22.325,11.432z"/>
	</g>
	<g>
		<path d="M4.921,11.539c0,0.007,0.001,0.015,0.002,0.022s0.004,0.014,0.006,0.021s0.006,0.013,0.01,0.019s0.009,0.012,0.014,0.017
			l0.417,0.417l0.417,0.417l0.417,0.417l0.417,0.417c0.008,0.009,0.016,0.015,0.024,0.021s0.015,0.009,0.023,0.012
			s0.014,0.005,0.02,0.006s0.012,0.001,0.017,0.001c0.005,0,0.01,0,0.016-0.001s0.012-0.002,0.019-0.005s0.013-0.005,0.02-0.009
			s0.013-0.009,0.02-0.015c0.011-0.01,0.019-0.022,0.024-0.035s0.008-0.027,0.009-0.041s-0.002-0.028-0.007-0.041
			s-0.013-0.025-0.023-0.036l-0.418-0.418l-0.418-0.418L5.53,11.887l-0.418-0.418c-0.006-0.007-0.013-0.012-0.02-0.017
			s-0.014-0.009-0.02-0.012s-0.014-0.005-0.021-0.007s-0.014-0.002-0.022-0.002h0h0h0h0c-0.015,0-0.029,0.003-0.042,0.008
			s-0.025,0.013-0.034,0.023s-0.018,0.021-0.023,0.034S4.921,11.524,4.921,11.539z"/>
	</g>
	<g>
		<path d="M25.121,22.033l-5.579,0l-5.579,0l-5.579,0l-5.579,0l-0.002,0l-0.002,0l-0.002,0l-0.002,0
			c-0.015,0-0.029,0.003-0.041,0.008c-0.013,0.005-0.024,0.013-0.034,0.023s-0.018,0.021-0.023,0.034
			c-0.006,0.013-0.009,0.027-0.009,0.041c0,0.015,0.003,0.029,0.008,0.042s0.013,0.025,0.023,0.035s0.021,0.018,0.034,0.024
			s0.027,0.009,0.042,0.009l5.579,0l5.579,0l5.579,0l5.579,0h0h0h0h0c0.017,0,0.032-0.003,0.047-0.008
			c0.014-0.005,0.026-0.013,0.037-0.023s0.019-0.021,0.024-0.034c0.006-0.013,0.009-0.027,0.009-0.041
			c0-0.015-0.003-0.029-0.008-0.042c-0.005-0.013-0.013-0.025-0.023-0.035s-0.021-0.018-0.034-0.024
			C25.15,22.037,25.136,22.034,25.121,22.033z"/>
	</g>
	<g>
		<path d="M13.956,17.012c-0.007,0-0.014,0.001-0.02,0.002c-0.007,0.001-0.013,0.003-0.019,0.006s-0.012,0.006-0.018,0.01
			c-0.006,0.004-0.011,0.008-0.016,0.013l-0.556,0.556l-0.556,0.556l-0.556,0.556l-0.556,0.556c-0.008,0.008-0.015,0.016-0.02,0.023
			s-0.009,0.015-0.012,0.022s-0.005,0.014-0.006,0.02s-0.002,0.012-0.002,0.017c0,0.005,0,0.011,0.001,0.017
			s0.002,0.013,0.004,0.019s0.005,0.014,0.009,0.02s0.009,0.014,0.015,0.02c0.007,0.007,0.013,0.012,0.02,0.017
			c0.007,0.004,0.014,0.008,0.021,0.01s0.013,0.004,0.02,0.005c0.006,0.001,0.012,0.001,0.017,0.001c0.005,0,0.01,0,0.016-0.001
			c0.006-0.001,0.012-0.002,0.019-0.004s0.013-0.005,0.02-0.009c0.007-0.004,0.013-0.009,0.02-0.015l0.46-0.46l0.46-0.46l0.46-0.46
			l0.46-0.46l0.08-0.08l0.08-0.08l0.08-0.08l0.08-0.08l0.08,0.08l0.08,0.08l0.08,0.08l0.08,0.08l0.458,0.458l0.458,0.458
			l0.458,0.458l0.458,0.458c0.008,0.009,0.016,0.015,0.024,0.021c0.008,0.005,0.015,0.009,0.022,0.012s0.014,0.005,0.02,0.006
			c0.006,0.001,0.012,0.001,0.017,0.001c0.005,0,0.01,0,0.016-0.001c0.006-0.001,0.012-0.002,0.019-0.005s0.013-0.005,0.02-0.009
			c0.007-0.004,0.013-0.009,0.02-0.015c0.011-0.01,0.019-0.022,0.024-0.035s0.008-0.027,0.009-0.04s-0.002-0.028-0.007-0.041
			s-0.013-0.025-0.023-0.036l-0.559-0.559l-0.559-0.559l-0.559-0.559l-0.559-0.559c-0.005-0.005-0.011-0.01-0.016-0.013
			s-0.012-0.007-0.019-0.01s-0.013-0.005-0.02-0.006s-0.014-0.002-0.021-0.002l0-0.056l0-0.056l0-0.056l0-0.056c0,0,0,0,0,0s0,0,0,0
			s0,0,0,0s0,0,0,0l0,0.056l0,0.056l0,0.056L13.956,17.012z"/>
	</g>
	<g>
		<path d="M26.795,18.685l-0.557,0l-0.557,0l-0.557,0l-0.557,0l-0.002,0l-0.002,0l-0.002,0l-0.002,0
			c-0.015,0-0.029,0.003-0.041,0.008c-0.013,0.005-0.024,0.013-0.034,0.023s-0.018,0.021-0.023,0.034
			c-0.006,0.013-0.009,0.027-0.009,0.041c0,0.015,0.003,0.029,0.008,0.042c0.005,0.013,0.013,0.025,0.023,0.035
			s0.021,0.018,0.034,0.024c0.013,0.006,0.027,0.009,0.042,0.009l0.557,0l0.557,0l0.557,0l0.557,0h0h0h0h0
			c0.017,0,0.032-0.003,0.047-0.008c0.014-0.005,0.026-0.013,0.037-0.023s0.019-0.021,0.024-0.034
			c0.006-0.013,0.009-0.027,0.009-0.041c0-0.015-0.003-0.029-0.008-0.042c-0.005-0.013-0.013-0.025-0.023-0.035
			s-0.021-0.018-0.034-0.024C26.824,18.688,26.81,18.685,26.795,18.685z"/>
	</g>
	<g>
		<path d="M3.348,18.901c0.017,0,0.033-0.003,0.047-0.008c0.014-0.005,0.026-0.013,0.037-0.023s0.019-0.021,0.024-0.034
			c0.006-0.013,0.009-0.027,0.009-0.041c0-0.015-0.003-0.029-0.008-0.042s-0.013-0.025-0.023-0.035S3.413,18.7,3.4,18.694
			s-0.027-0.009-0.042-0.009l-0.557,0l-0.557,0l-0.557,0l-0.557,0l-0.002,0l-0.002,0l-0.002,0l-0.002,0
			c-0.015,0-0.029,0.003-0.041,0.008c-0.013,0.005-0.024,0.013-0.034,0.023s-0.018,0.021-0.023,0.034
			c-0.006,0.013-0.009,0.027-0.009,0.041c0,0.015,0.003,0.029,0.008,0.042s0.013,0.025,0.023,0.035s0.021,0.018,0.034,0.024
			s0.027,0.009,0.042,0.009l0.557,0l0.557,0l0.557,0L3.348,18.901L3.348,18.901L3.348,18.901L3.348,18.901L3.348,18.901z"/>
	</g>
</g>
<g>
	<path class="st0" d="M29.819,29.908h-7.432h-7.432H7.523H0.091v-7.432v-7.432V7.611V0.179h7.432h7.432h7.432h7.432v7.432v7.432
		v7.432V29.908z M0.341,29.658h7.307h7.307h7.307h7.307v-7.307v-7.307V7.736V0.429h-7.307h-7.307H7.648H0.341v7.307v7.307v7.307
		V29.658z"/>
</g>
</svg>
