<?xml version="1.0" encoding="utf-8"?>
<!-- Generator: Adobe Illustrator 19.1.0, SVG Export Plug-In . SVG Version: 6.00 Build 0)  -->
<svg version="1.1" id="Layer_1" xmlns="http://www.w3.org/2000/svg" xmlns:xlink="http://www.w3.org/1999/xlink" x="0px" y="0px"
	 viewBox="0 0 29.91 30.086" style="enable-background:new 0 0 29.91 30.086;" xml:space="preserve">
<style type="text/css">
	.st0{fill:#4D4D4D;}
	.st1{fill-rule:evenodd;clip-rule:evenodd;fill:#4C4C4C;}
	.st2{fill:#4C4C4C;}
	.st3{fill:#383330;}
	.st4{fill:#1F1A17;}
	.st5{fill:#4D4C4C;}
	.st6{fill:none;stroke:#000000;stroke-width:0.3;stroke-miterlimit:10;}
	.st7{fill:#E61413;}
	.st8{fill:#5F5357;}
	.st9{fill:#115C78;}
	.st10{fill-rule:evenodd;clip-rule:evenodd;fill:#4D4D4D;}
	.st11{fill-rule:evenodd;clip-rule:evenodd;}
	.st12{fill:#FFFFFF;}
	.st13{fill:none;}
	.st14{fill:#231F20;}
	.st15{clip-path:url(#SVGID_2_);}
	.st16{clip-path:url(#SVGID_4_);fill:#FCF118;}
	.st17{clip-path:url(#SVGID_4_);fill:#FCF018;}
	.st18{clip-path:url(#SVGID_4_);fill:#FCEF18;}
	.st19{clip-path:url(#SVGID_4_);fill:#FCEE18;}
	.st20{clip-path:url(#SVGID_4_);fill:#FCED18;}
	.st21{clip-path:url(#SVGID_4_);fill:#FCEC18;}
	.st22{clip-path:url(#SVGID_4_);fill:#FCEB18;}
	.st23{clip-path:url(#SVGID_4_);fill:#FCEA18;}
	.st24{clip-path:url(#SVGID_4_);fill:#FCE918;}
	.st25{clip-path:url(#SVGID_4_);fill:#FCE818;}
	.st26{clip-path:url(#SVGID_4_);fill:#FCE718;}
	.st27{clip-path:url(#SVGID_4_);fill:#FCE617;}
	.st28{clip-path:url(#SVGID_4_);fill:#FCE517;}
	.st29{clip-path:url(#SVGID_4_);fill:#FCE417;}
	.st30{clip-path:url(#SVGID_4_);fill:#FCE317;}
	.st31{clip-path:url(#SVGID_4_);fill:#FCE217;}
	.st32{clip-path:url(#SVGID_4_);fill:#FCE117;}
	.st33{clip-path:url(#SVGID_4_);fill:#FCE017;}
	.st34{clip-path:url(#SVGID_4_);fill:#FCDF17;}
	.st35{clip-path:url(#SVGID_4_);fill:#FCDE17;}
	.st36{clip-path:url(#SVGID_4_);fill:#FCDD17;}
	.st37{clip-path:url(#SVGID_4_);fill:#FCDC17;}
	.st38{clip-path:url(#SVGID_4_);fill:#FCDB17;}
	.st39{clip-path:url(#SVGID_4_);fill:#FCDA17;}
	.st40{clip-path:url(#SVGID_4_);fill:#FCD917;}
	.st41{clip-path:url(#SVGID_4_);fill:#FCD817;}
	.st42{clip-path:url(#SVGID_4_);fill:#FCD717;}
	.st43{clip-path:url(#SVGID_4_);fill:#FCD617;}
	.st44{clip-path:url(#SVGID_4_);fill:#FCD517;}
	.st45{clip-path:url(#SVGID_4_);fill:#FCD416;}
	.st46{clip-path:url(#SVGID_4_);fill:#FCD316;}
	.st47{clip-path:url(#SVGID_4_);fill:#FBD216;}
	.st48{clip-path:url(#SVGID_4_);fill:#FBD116;}
	.st49{clip-path:url(#SVGID_4_);fill:#FBD016;}
	.st50{clip-path:url(#SVGID_4_);fill:#FBCF16;}
	.st51{clip-path:url(#SVGID_4_);fill:#FBCE16;}
	.st52{clip-path:url(#SVGID_4_);fill:#FBCD16;}
	.st53{clip-path:url(#SVGID_4_);fill:#FBCC16;}
	.st54{clip-path:url(#SVGID_4_);fill:#FBCB16;}
	.st55{clip-path:url(#SVGID_4_);fill:#FBCA16;}
	.st56{clip-path:url(#SVGID_4_);fill:#FBC916;}
	.st57{clip-path:url(#SVGID_4_);fill:#FBC816;}
	.st58{clip-path:url(#SVGID_4_);fill:#FBC716;}
	.st59{clip-path:url(#SVGID_4_);fill:#FBC616;}
	.st60{clip-path:url(#SVGID_4_);fill:#FBC516;}
	.st61{clip-path:url(#SVGID_4_);fill:#FBC416;}
	.st62{clip-path:url(#SVGID_4_);fill:#FBC316;}
	.st63{clip-path:url(#SVGID_4_);fill:#FBC216;}
	.st64{clip-path:url(#SVGID_4_);fill:#FBC115;}
	.st65{clip-path:url(#SVGID_4_);fill:#FBC015;}
	.st66{clip-path:url(#SVGID_4_);fill:#FBBF15;}
	.st67{clip-path:url(#SVGID_4_);fill:#FBBE15;}
	.st68{clip-path:url(#SVGID_4_);fill:#FBBD15;}
	.st69{clip-path:url(#SVGID_4_);fill:#FBBC15;}
	.st70{clip-path:url(#SVGID_4_);fill:#FBBB15;}
	.st71{clip-path:url(#SVGID_4_);fill:#FBBA15;}
	.st72{clip-path:url(#SVGID_4_);fill:#FBB915;}
	.st73{clip-path:url(#SVGID_4_);fill:#FBB815;}
	.st74{clip-path:url(#SVGID_4_);fill:#FBB715;}
	.st75{clip-path:url(#SVGID_4_);fill:#FBB615;}
	.st76{clip-path:url(#SVGID_4_);fill:#FBB515;}
	.st77{clip-path:url(#SVGID_4_);fill:#FBB415;}
	.st78{clip-path:url(#SVGID_4_);fill:#FBB315;}
	.st79{clip-path:url(#SVGID_4_);fill:#FBB215;}
	.st80{clip-path:url(#SVGID_4_);fill:#FBB115;}
	.st81{clip-path:url(#SVGID_4_);fill:#FBB015;}
	.st82{clip-path:url(#SVGID_4_);fill:#FBAF15;}
	.st83{clip-path:url(#SVGID_4_);fill:#FAAE15;}
	.st84{clip-path:url(#SVGID_4_);fill:#FAAD14;}
	.st85{clip-path:url(#SVGID_4_);fill:#FAAC14;}
	.st86{clip-path:url(#SVGID_4_);fill:#FAAB14;}
	.st87{clip-path:url(#SVGID_4_);fill:#FAAA14;}
	.st88{clip-path:url(#SVGID_4_);fill:#FAA914;}
	.st89{clip-path:url(#SVGID_4_);fill:#FAA814;}
	.st90{clip-path:url(#SVGID_4_);fill:#FAA714;}
	.st91{clip-path:url(#SVGID_4_);fill:#FAA614;}
	.st92{clip-path:url(#SVGID_4_);fill:#FAA514;}
	.st93{clip-path:url(#SVGID_4_);fill:#FAA414;}
	.st94{clip-path:url(#SVGID_4_);fill:#FAA314;}
	.st95{clip-path:url(#SVGID_4_);fill:#FAA214;}
	.st96{clip-path:url(#SVGID_4_);fill:#FAA114;}
	.st97{clip-path:url(#SVGID_4_);fill:#FAA014;}
	.st98{clip-path:url(#SVGID_4_);fill:#FA9F14;}
	.st99{clip-path:url(#SVGID_4_);fill:#FA9E14;}
	.st100{clip-path:url(#SVGID_4_);fill:#FA9D14;}
	.st101{clip-path:url(#SVGID_4_);fill:#FA9C14;}
	.st102{clip-path:url(#SVGID_4_);fill:#FA9B14;}
	.st103{clip-path:url(#SVGID_4_);fill:#FA9A13;}
	.st104{clip-path:url(#SVGID_4_);fill:#FA9913;}
	.st105{clip-path:url(#SVGID_4_);fill:#FA9813;}
	.st106{clip-path:url(#SVGID_4_);fill:#FA9713;}
	.st107{clip-path:url(#SVGID_4_);fill:#FA9613;}
	.st108{clip-path:url(#SVGID_4_);fill:#FA9513;}
	.st109{clip-path:url(#SVGID_4_);fill:#FA9413;}
	.st110{clip-path:url(#SVGID_4_);fill:#FA9313;}
	.st111{clip-path:url(#SVGID_4_);fill:#FA9213;}
	.st112{clip-path:url(#SVGID_4_);fill:#FA9113;}
	.st113{clip-path:url(#SVGID_4_);fill:#FA9013;}
	.st114{clip-path:url(#SVGID_4_);fill:#FA8F13;}
	.st115{clip-path:url(#SVGID_4_);fill:#FA8E13;}
	.st116{clip-path:url(#SVGID_4_);fill:#FA8D13;}
	.st117{clip-path:url(#SVGID_4_);fill:#FA8C13;}
	.st118{clip-path:url(#SVGID_4_);fill:#FA8B13;}
	.st119{clip-path:url(#SVGID_4_);fill:#FA8A13;}
	.st120{clip-path:url(#SVGID_4_);fill:#FA8913;}
	.st121{clip-path:url(#SVGID_4_);fill:#FA8812;}
	.st122{clip-path:url(#SVGID_4_);fill:#FA8712;}
	.st123{clip-path:url(#SVGID_4_);fill:#FA8612;}
	.st124{clip-path:url(#SVGID_4_);fill:#F98512;}
	.st125{clip-path:url(#SVGID_4_);fill:#F98412;}
	.st126{clip-path:url(#SVGID_4_);fill:#F98312;}
	.st127{clip-path:url(#SVGID_4_);fill:#F98212;}
	.st128{clip-path:url(#SVGID_4_);fill:#F98112;}
	.st129{clip-path:url(#SVGID_4_);fill:#F98012;}
	.st130{clip-path:url(#SVGID_4_);fill:#F97F12;}
	.st131{clip-path:url(#SVGID_4_);fill:#F97E12;}
	.st132{clip-path:url(#SVGID_4_);fill:#F97D12;}
	.st133{clip-path:url(#SVGID_4_);fill:#F97C12;}
	.st134{clip-path:url(#SVGID_4_);fill:#F97B12;}
	.st135{clip-path:url(#SVGID_4_);fill:#F97A12;}
	.st136{clip-path:url(#SVGID_4_);fill:#F97912;}
	.st137{clip-path:url(#SVGID_4_);fill:#F97812;}
	.st138{clip-path:url(#SVGID_4_);fill:#F97712;}
	.st139{clip-path:url(#SVGID_4_);fill:#F97612;}
	.st140{clip-path:url(#SVGID_4_);fill:#F97511;}
	.st141{clip-path:url(#SVGID_4_);fill:#F97411;}
	.st142{clip-path:url(#SVGID_4_);fill:#F97311;}
	.st143{clip-path:url(#SVGID_4_);fill:#F97211;}
	.st144{clip-path:url(#SVGID_4_);fill:#F97111;}
	.st145{clip-path:url(#SVGID_4_);fill:#F97011;}
	.st146{clip-path:url(#SVGID_4_);fill:#F96F11;}
	.st147{clip-path:url(#SVGID_4_);fill:#F96E11;}
	.st148{clip-path:url(#SVGID_4_);fill:#F96D11;}
	.st149{clip-path:url(#SVGID_4_);fill:#F96C11;}
	.st150{clip-path:url(#SVGID_4_);fill:#F96B11;}
	.st151{clip-path:url(#SVGID_4_);fill:#F96A11;}
	.st152{clip-path:url(#SVGID_4_);fill:#F96911;}
	.st153{clip-path:url(#SVGID_4_);fill:#F96811;}
	.st154{clip-path:url(#SVGID_4_);fill:#F96711;}
	.st155{clip-path:url(#SVGID_4_);fill:#F96611;}
	.st156{clip-path:url(#SVGID_4_);fill:#F96511;}
	.st157{clip-path:url(#SVGID_4_);fill:#F96411;}
	.st158{clip-path:url(#SVGID_4_);fill:#F96311;}
	.st159{clip-path:url(#SVGID_4_);fill:#F96210;}
	.st160{clip-path:url(#SVGID_4_);fill:#F86110;}
	.st161{clip-path:url(#SVGID_4_);fill:#F86010;}
	.st162{clip-path:url(#SVGID_4_);fill:#F85F10;}
	.st163{clip-path:url(#SVGID_4_);fill:#F85E10;}
	.st164{clip-path:url(#SVGID_4_);fill:#F85D10;}
	.st165{clip-path:url(#SVGID_4_);fill:#F85C10;}
	.st166{clip-path:url(#SVGID_4_);fill:#F85B10;}
	.st167{clip-path:url(#SVGID_4_);fill:#F85A10;}
	.st168{clip-path:url(#SVGID_4_);fill:#F85910;}
	.st169{clip-path:url(#SVGID_4_);fill:#F85810;}
	.st170{clip-path:url(#SVGID_4_);fill:#F85710;}
	.st171{clip-path:url(#SVGID_4_);fill:#F85610;}
	.st172{clip-path:url(#SVGID_4_);fill:#F85510;}
	.st173{clip-path:url(#SVGID_4_);fill:#F85410;}
	.st174{clip-path:url(#SVGID_4_);fill:#F85310;}
	.st175{clip-path:url(#SVGID_4_);fill:#F85210;}
	.st176{clip-path:url(#SVGID_4_);fill:#F85110;}
	.st177{clip-path:url(#SVGID_4_);fill:#F85010;}
	.st178{clip-path:url(#SVGID_4_);fill:#F84F0F;}
	.st179{clip-path:url(#SVGID_4_);fill:#F84E0F;}
	.st180{clip-path:url(#SVGID_4_);fill:#F84D0F;}
	.st181{clip-path:url(#SVGID_4_);fill:#F84C0F;}
	.st182{clip-path:url(#SVGID_4_);fill:#F84B0F;}
	.st183{clip-path:url(#SVGID_4_);fill:#F84A0F;}
	.st184{clip-path:url(#SVGID_4_);fill:#F8490F;}
	.st185{clip-path:url(#SVGID_4_);fill:#F8480F;}
	.st186{clip-path:url(#SVGID_4_);fill:#F8470F;}
	.st187{clip-path:url(#SVGID_4_);fill:#F8460F;}
	.st188{clip-path:url(#SVGID_4_);fill:#F8450F;}
	.st189{clip-path:url(#SVGID_4_);fill:#F8440F;}
	.st190{clip-path:url(#SVGID_4_);fill:#F8430F;}
	.st191{clip-path:url(#SVGID_4_);fill:#F8420F;}
	.st192{clip-path:url(#SVGID_4_);fill:#F8410F;}
	.st193{clip-path:url(#SVGID_4_);fill:#F8400F;}
	.st194{clip-path:url(#SVGID_4_);fill:#F83F0F;}
	.st195{clip-path:url(#SVGID_4_);fill:#F83E0E;}
	.st196{clip-path:url(#SVGID_4_);fill:#F83D0E;}
	.st197{clip-path:url(#SVGID_4_);fill:#F83C0E;}
	.st198{clip-path:url(#SVGID_4_);fill:#F83B0E;}
	.st199{clip-path:url(#SVGID_4_);fill:#F73A0E;}
	.st200{clip-path:url(#SVGID_4_);fill:#F7390E;}
	.st201{clip-path:url(#SVGID_4_);fill:#F7380E;}
	.st202{clip-path:url(#SVGID_4_);fill:#F7370E;}
	.st203{clip-path:url(#SVGID_4_);fill:#F7360E;}
	.st204{clip-path:url(#SVGID_4_);fill:#F7340E;}
	.st205{clip-path:url(#SVGID_4_);fill:#F7330E;}
	.st206{clip-path:url(#SVGID_4_);fill:#F7320E;}
	.st207{clip-path:url(#SVGID_4_);fill:#F7310E;}
	.st208{clip-path:url(#SVGID_4_);fill:#F7300E;}
	.st209{clip-path:url(#SVGID_4_);fill:#F72F0E;}
	.st210{clip-path:url(#SVGID_4_);fill:#F72E0E;}
	.st211{clip-path:url(#SVGID_4_);fill:#F72D0E;}
	.st212{clip-path:url(#SVGID_4_);fill:#F72C0E;}
	.st213{clip-path:url(#SVGID_4_);fill:#F72B0E;}
	.st214{clip-path:url(#SVGID_4_);fill:#F72B0D;}
	.st215{clip-path:url(#SVGID_4_);fill:#F72A0D;}
	.st216{clip-path:url(#SVGID_4_);fill:#F7290D;}
	.st217{clip-path:url(#SVGID_4_);fill:#F7280D;}
	.st218{clip-path:url(#SVGID_4_);fill:#F7270D;}
	.st219{clip-path:url(#SVGID_4_);fill:#F7260D;}
</style>
<g>
	<g>
		<path class="st0" d="M21.408,24.517h-3.227h-3.227h-3.227H8.501c-0.016,0-0.032,0.003-0.046,0.009s-0.027,0.015-0.037,0.025
			s-0.019,0.023-0.025,0.037s-0.009,0.03-0.009,0.046s0.003,0.032,0.009,0.046s0.015,0.027,0.025,0.037s0.023,0.019,0.037,0.025
			s0.03,0.009,0.046,0.009h3.227h3.227h3.227h3.227c0.016,0,0.032-0.003,0.046-0.009s0.027-0.015,0.037-0.025
			s0.019-0.023,0.025-0.037s0.009-0.03,0.009-0.046s-0.003-0.032-0.009-0.046s-0.014-0.027-0.025-0.037s-0.023-0.019-0.037-0.025
			S21.424,24.517,21.408,24.517z"/>
	</g>
	<g>
		<path class="st0" d="M23.022,22.399h-4.034h-4.034h-4.034H6.887c-0.016,0-0.032,0.003-0.046,0.009
			c-0.014,0.006-0.027,0.015-0.037,0.025s-0.019,0.023-0.025,0.037c-0.006,0.014-0.009,0.03-0.009,0.046
			c0,0.016,0.003,0.032,0.009,0.046S6.793,22.59,6.804,22.6s0.023,0.019,0.037,0.025s0.03,0.009,0.046,0.009h4.033h4.033h4.033
			h4.033c0.016,0,0.032-0.003,0.046-0.009c0.014-0.006,0.027-0.015,0.037-0.025s0.019-0.023,0.025-0.037
			c0.006-0.014,0.009-0.03,0.009-0.046c0-0.016-0.003-0.032-0.009-0.046c-0.006-0.014-0.014-0.027-0.025-0.037
			s-0.023-0.019-0.037-0.025C23.053,22.403,23.038,22.399,23.022,22.399z"/>
	</g>
	<g>
		<path class="st0" d="M25.039,20.516c0.016,0,0.032-0.003,0.046-0.009s0.027-0.015,0.037-0.025s0.019-0.023,0.025-0.037
			s0.009-0.03,0.009-0.046s-0.003-0.032-0.009-0.046c-0.006-0.014-0.015-0.027-0.026-0.037s-0.024-0.019-0.038-0.025
			c-0.014-0.006-0.03-0.009-0.046-0.009h-5.042h-5.042H9.913H4.871c-0.016,0-0.032,0.003-0.046,0.009s-0.027,0.015-0.037,0.025
			s-0.019,0.023-0.025,0.037s-0.009,0.03-0.009,0.046s0.003,0.032,0.009,0.046s0.015,0.027,0.025,0.037s0.023,0.019,0.037,0.025
			s0.03,0.009,0.046,0.009h5.042h5.042h5.042H25.039z"/>
	</g>
	<g>
		<path class="st0" d="M27.055,18.064h-1.098h-1.098h-1.098h-1.098h-0.102h-0.102h-0.102h-0.102l0.031-0.097l0.031-0.097
			l0.031-0.097l0.031-0.097c0.06-0.19,0.112-0.382,0.157-0.574c0.045-0.192,0.083-0.385,0.113-0.579s0.053-0.387,0.068-0.581
			c0.015-0.194,0.023-0.388,0.023-0.582c0-1.073-0.218-2.095-0.612-3.026c-0.394-0.931-0.965-1.769-1.669-2.474
			s-1.543-1.275-2.474-1.669c-0.931-0.394-1.953-0.612-3.026-0.612c-1.073,0-2.095,0.218-3.026,0.612s-1.769,0.965-2.474,1.669
			s-1.275,1.543-1.669,2.474s-0.612,1.953-0.612,3.026c0,0.194,0.008,0.388,0.023,0.582s0.038,0.388,0.068,0.581
			s0.068,0.387,0.113,0.579s0.097,0.384,0.157,0.574l0.031,0.097l0.031,0.097l0.031,0.097l0.031,0.097H7.555H7.453H7.35H7.248H6.155
			H5.061H3.968H2.875c-0.016,0-0.032,0.003-0.046,0.009s-0.027,0.015-0.037,0.025s-0.019,0.023-0.025,0.037s-0.009,0.03-0.009,0.046
			s0.003,0.032,0.009,0.046s0.015,0.027,0.025,0.037s0.023,0.019,0.037,0.025S2.858,18.3,2.875,18.3H4.11h1.236h1.236h1.236h4.809
			h4.809h4.809h4.809c0.016,0,0.032-0.003,0.046-0.009s0.027-0.015,0.037-0.025s0.019-0.023,0.025-0.037s0.009-0.03,0.009-0.046
			s-0.003-0.032-0.009-0.046s-0.014-0.027-0.025-0.037s-0.023-0.019-0.037-0.025S27.071,18.064,27.055,18.064z M21.994,18.065
			h-0.053h-0.053h-0.053h-0.053h-3.413h-3.413h-3.413H8.13H8.077H8.024H7.971H7.918L7.9,18.015l-0.018-0.05l-0.018-0.05l-0.018-0.05
			c-0.073-0.205-0.136-0.411-0.191-0.618c-0.055-0.207-0.1-0.416-0.137-0.625s-0.064-0.42-0.082-0.63S7.41,15.57,7.41,15.359
			c0-1.04,0.212-2.032,0.594-2.934s0.936-1.716,1.619-2.399s1.496-1.236,2.399-1.619s1.894-0.594,2.934-0.594
			s2.032,0.212,2.934,0.594c0.902,0.382,1.716,0.936,2.399,1.619s1.236,1.496,1.619,2.399c0.382,0.902,0.594,1.894,0.594,2.934
			c0,0.21-0.009,0.421-0.027,0.631c-0.018,0.21-0.046,0.42-0.082,0.63s-0.082,0.418-0.137,0.626
			c-0.055,0.208-0.118,0.414-0.191,0.62l-0.018,0.05l-0.018,0.05l-0.018,0.05L21.994,18.065z"/>
	</g>
	<g>
		<path class="st0" d="M2.855,15.476h0.807h0.807h0.807h0.807c0.016,0,0.032-0.003,0.046-0.009s0.027-0.015,0.037-0.025
			s0.019-0.023,0.025-0.037s0.009-0.03,0.009-0.046c0-0.016-0.003-0.032-0.009-0.046s-0.015-0.027-0.025-0.037
			s-0.023-0.019-0.037-0.025s-0.03-0.009-0.046-0.009H5.274H4.468H3.661H2.855c-0.016,0-0.032,0.003-0.046,0.009
			s-0.027,0.015-0.037,0.025s-0.019,0.023-0.025,0.037s-0.009,0.03-0.009,0.046c0,0.016,0.003,0.032,0.009,0.046
			s0.015,0.027,0.025,0.037s0.023,0.019,0.037,0.025S2.838,15.476,2.855,15.476z"/>
	</g>
	<g>
		<path class="st0" d="M4.816,11.386l0.467,0.188l0.467,0.188l0.467,0.188l0.467,0.188c0.003,0,0.006,0.001,0.009,0.001
			s0.006,0,0.009,0.001s0.006,0,0.008,0s0.005,0,0.008,0c0.015,0,0.029-0.001,0.041-0.004s0.024-0.007,0.034-0.012
			s0.018-0.012,0.026-0.021s0.013-0.018,0.018-0.03c0.004-0.01,0.006-0.019,0.008-0.028s0.001-0.017,0.001-0.025
			s-0.002-0.015-0.004-0.021s-0.004-0.011-0.005-0.016c-0.002-0.004-0.004-0.009-0.008-0.015s-0.008-0.011-0.013-0.017
			s-0.011-0.012-0.019-0.017s-0.016-0.01-0.026-0.014l-0.467-0.188l-0.467-0.188l-0.467-0.188l-0.467-0.188l-0.011-0.002
			l-0.011-0.002L4.87,11.161L4.86,11.159c-0.009,0-0.019,0.001-0.03,0.004s-0.021,0.007-0.031,0.013s-0.02,0.013-0.028,0.023
			s-0.016,0.021-0.022,0.035c-0.006,0.015-0.009,0.03-0.008,0.045s0.004,0.03,0.01,0.044s0.015,0.026,0.026,0.037
			S4.8,11.38,4.816,11.386z"/>
	</g>
	<g>
		<path class="st0" d="M8.6,9.165c0.008,0.008,0.015,0.014,0.023,0.019s0.015,0.008,0.023,0.011s0.014,0.004,0.02,0.005
			S8.678,9.2,8.682,9.2c0.006,0,0.012,0,0.018-0.001s0.014-0.003,0.021-0.005s0.015-0.006,0.022-0.01s0.015-0.01,0.022-0.017
			C8.773,9.158,8.779,9.15,8.784,9.143s0.008-0.015,0.01-0.023s0.004-0.014,0.005-0.021S8.8,9.087,8.8,9.083
			c0-0.005,0-0.01-0.001-0.016S8.797,9.053,8.794,9.046S8.788,9.03,8.784,9.023S8.773,9.007,8.766,9L8.045,8.279L7.324,7.557
			L6.604,6.836L5.883,6.115C5.876,6.108,5.868,6.102,5.86,6.097s-0.016-0.008-0.023-0.01S5.823,6.083,5.816,6.082
			S5.804,6.081,5.8,6.081c-0.005,0-0.01,0-0.017,0.001S5.77,6.084,5.762,6.087s-0.015,0.006-0.023,0.01s-0.016,0.01-0.023,0.018
			C5.709,6.123,5.703,6.13,5.698,6.138S5.69,6.154,5.688,6.161S5.684,6.175,5.683,6.182S5.682,6.194,5.682,6.198
			c0,0.005,0,0.01,0.001,0.016s0.002,0.013,0.005,0.021s0.006,0.015,0.01,0.023s0.01,0.016,0.018,0.023l0.721,0.721l0.721,0.721
			l0.721,0.721L8.6,9.165z"/>
	</g>
	<g>
		<path class="st0" d="M10.592,5.382l0.197,0.464l0.197,0.464l0.197,0.464l0.197,0.464c0.006,0.013,0.013,0.024,0.021,0.033
			s0.018,0.016,0.028,0.022s0.02,0.01,0.03,0.012s0.02,0.004,0.029,0.004c0.026-0.009,0.048-0.02,0.065-0.032
			s0.03-0.026,0.038-0.041s0.013-0.03,0.014-0.045s-0.002-0.031-0.009-0.046l-0.197-0.464l-0.197-0.464l-0.197-0.464l-0.197-0.464
			c-0.006-0.013-0.013-0.024-0.021-0.033s-0.018-0.016-0.028-0.022s-0.02-0.01-0.031-0.012s-0.02-0.004-0.029-0.004
			c-0.004,0-0.008,0-0.012,0.001S10.68,5.219,10.676,5.22s-0.008,0.002-0.011,0.003s-0.008,0.003-0.011,0.004
			c-0.015,0.006-0.027,0.015-0.038,0.026s-0.019,0.024-0.024,0.038s-0.008,0.029-0.008,0.045S10.586,5.367,10.592,5.382z"/>
	</g>
	<g>
		<path class="st0" d="M14.955,6.604c0.016,0,0.032-0.003,0.046-0.009s0.027-0.015,0.037-0.025s0.019-0.023,0.025-0.037
			s0.009-0.03,0.009-0.046V5.679V4.872V4.065V3.259c0-0.016-0.003-0.032-0.009-0.046s-0.015-0.027-0.025-0.037
			s-0.023-0.019-0.037-0.025s-0.03-0.009-0.046-0.009s-0.032,0.003-0.046,0.009s-0.027,0.015-0.037,0.025s-0.019,0.023-0.025,0.037
			s-0.009,0.03-0.009,0.046v0.807v0.807v0.807v0.807c0,0.016,0.003,0.032,0.009,0.046s0.015,0.027,0.025,0.037
			s0.023,0.019,0.037,0.025S14.939,6.604,14.955,6.604z"/>
	</g>
	<g>
		<path class="st0" d="M18.169,7.087c-0.006,0.015-0.009,0.031-0.008,0.046c0,0.015,0.004,0.03,0.01,0.044s0.015,0.027,0.026,0.038
			c0.011,0.011,0.024,0.02,0.039,0.026c0.003,0,0.006,0.001,0.008,0.001c0.003,0,0.005,0,0.008,0.001s0.005,0,0.008,0
			c0.003,0,0.005,0,0.008,0c0.016,0,0.03-0.001,0.043-0.004c0.013-0.003,0.024-0.007,0.034-0.013s0.018-0.012,0.025-0.021
			c0.007-0.008,0.013-0.018,0.017-0.029l0.189-0.468l0.189-0.468l0.189-0.468l0.189-0.468c0.006-0.015,0.009-0.031,0.008-0.046
			c0-0.015-0.004-0.03-0.01-0.044s-0.015-0.027-0.026-0.038c-0.011-0.011-0.024-0.02-0.039-0.026l-0.011-0.002l-0.011-0.002
			l-0.011-0.002l-0.011-0.002c-0.009,0-0.019,0.001-0.029,0.004s-0.02,0.007-0.03,0.012s-0.019,0.013-0.028,0.023
			s-0.015,0.021-0.021,0.034l-0.189,0.468l-0.189,0.468l-0.189,0.468L18.169,7.087z"/>
	</g>
	<g>
		<path class="st0" d="M21.229,9.203c0.006,0,0.012,0,0.018-0.001s0.014-0.003,0.021-0.005s0.015-0.006,0.022-0.01
			s0.015-0.01,0.022-0.017l0.721-0.721l0.721-0.721l0.721-0.721l0.721-0.721c0.007-0.007,0.013-0.015,0.018-0.023
			c0.005-0.008,0.008-0.015,0.01-0.023s0.004-0.014,0.005-0.021c0.001-0.006,0.001-0.012,0.001-0.016s0-0.01-0.001-0.016
			c-0.001-0.006-0.002-0.013-0.005-0.021s-0.006-0.015-0.01-0.023c-0.005-0.008-0.01-0.016-0.018-0.023
			c-0.007-0.007-0.015-0.013-0.023-0.018c-0.008-0.005-0.016-0.008-0.023-0.01s-0.014-0.004-0.021-0.005
			c-0.006-0.001-0.012-0.001-0.016-0.001c-0.005,0-0.01,0-0.017,0.001c-0.006,0.001-0.014,0.002-0.021,0.005
			s-0.015,0.006-0.023,0.011c-0.008,0.005-0.016,0.011-0.024,0.018l-0.721,0.721l-0.721,0.721l-0.721,0.721l-0.721,0.721
			c-0.011,0.011-0.02,0.025-0.026,0.039c-0.006,0.014-0.009,0.029-0.009,0.044s0.003,0.03,0.009,0.044
			c0.006,0.014,0.014,0.027,0.026,0.039c0.007,0.007,0.015,0.013,0.023,0.018s0.016,0.008,0.023,0.01s0.014,0.004,0.021,0.005
			S21.225,9.203,21.229,9.203z"/>
	</g>
	<g>
		<path class="st0" d="M23.013,11.845c-0.002,0.004-0.004,0.01-0.005,0.016s-0.003,0.013-0.003,0.021s0,0.016,0.001,0.026
			s0.004,0.019,0.008,0.029c0.005,0.012,0.012,0.023,0.02,0.032c0.008,0.009,0.017,0.016,0.027,0.022s0.02,0.01,0.03,0.013
			c0.01,0.003,0.021,0.004,0.03,0.004l0.475-0.199l0.475-0.199l0.475-0.199l0.475-0.199c0.015-0.006,0.028-0.015,0.038-0.026
			c0.011-0.011,0.019-0.024,0.025-0.038s0.009-0.029,0.009-0.044c0-0.015-0.003-0.031-0.009-0.046
			c-0.005-0.011-0.011-0.021-0.018-0.03c-0.007-0.009-0.016-0.016-0.025-0.023s-0.02-0.011-0.031-0.014
			c-0.011-0.003-0.022-0.005-0.034-0.005c-0.004,0-0.008,0-0.012,0.001s-0.008,0.001-0.011,0.002s-0.008,0.002-0.011,0.003
			s-0.008,0.003-0.011,0.004l-0.464,0.197l-0.464,0.197l-0.464,0.197l-0.464,0.197c-0.01,0.004-0.018,0.009-0.025,0.014
			s-0.013,0.011-0.018,0.017s-0.009,0.012-0.012,0.017S23.015,11.841,23.013,11.845z"/>
	</g>
	<g>
		<path class="st0" d="M23.71,15.359c0,0.016,0.003,0.032,0.009,0.046c0.006,0.014,0.015,0.027,0.025,0.037s0.023,0.019,0.037,0.025
			c0.014,0.006,0.03,0.009,0.046,0.009h0.807h0.807h0.807h0.807c0.016,0,0.032-0.003,0.046-0.009s0.027-0.015,0.037-0.025
			s0.019-0.023,0.025-0.037s0.009-0.03,0.009-0.046c0-0.016-0.003-0.032-0.009-0.046s-0.015-0.027-0.025-0.037
			s-0.023-0.019-0.037-0.025s-0.03-0.009-0.046-0.009h-0.807h-0.807h-0.807h-0.807c-0.016,0-0.032,0.003-0.046,0.009
			c-0.014,0.006-0.027,0.015-0.037,0.025s-0.019,0.023-0.025,0.037C23.713,15.327,23.71,15.343,23.71,15.359z"/>
	</g>
	<g>
		<path class="st0" d="M17.01,13.999c-0.006,0-0.011,0-0.016,0.001s-0.011,0.002-0.016,0.003s-0.01,0.003-0.015,0.006
			s-0.01,0.005-0.014,0.008l-0.354,0.226l-0.354,0.226l-0.354,0.226l-0.354,0.226l-0.115,0.074l-0.115,0.074l-0.115,0.074
			l-0.115,0.074l0-0.137l0-0.137l0-0.137l0-0.137l0-0.792l0-0.792l0-0.792l0-0.792c0-0.016-0.003-0.032-0.009-0.046
			s-0.015-0.027-0.025-0.037s-0.023-0.019-0.037-0.025s-0.03-0.009-0.046-0.009s-0.032,0.003-0.046,0.009s-0.027,0.015-0.037,0.025
			s-0.019,0.023-0.025,0.037s-0.009,0.03-0.009,0.046l0,0.792l0,0.792l0,0.792l0,0.792l0,0.137l0,0.137l0,0.137l0,0.137
			l-0.115-0.074l-0.115-0.074l-0.115-0.074l-0.115-0.074l-0.353-0.225l-0.353-0.225l-0.353-0.225l-0.353-0.225
			c-0.005-0.003-0.01-0.006-0.015-0.009s-0.01-0.004-0.016-0.006S12.921,14.001,12.916,14s-0.011-0.001-0.016-0.001
			c-0.01,0-0.02,0.001-0.029,0.004s-0.018,0.006-0.027,0.011s-0.016,0.01-0.023,0.017s-0.013,0.014-0.019,0.023
			c-0.006,0.009-0.01,0.018-0.013,0.026s-0.005,0.016-0.006,0.024s-0.001,0.015-0.001,0.021s0.001,0.013,0.002,0.018
			c0.001,0.004,0.002,0.01,0.005,0.016s0.005,0.013,0.009,0.019s0.009,0.014,0.015,0.02s0.014,0.013,0.023,0.019l0.505,0.322
			l0.505,0.322l0.505,0.322l0.505,0.322l0.004,0.001l0.004,0.001l0.004,0.001l0.004,0.001c0.015,0.008,0.028,0.014,0.038,0.019
			s0.018,0.008,0.024,0.011s0.011,0.004,0.014,0.004s0.006,0.001,0.007,0.001c0.003,0,0.006,0,0.01-0.001s0.008-0.002,0.012-0.004
			s0.009-0.004,0.014-0.006s0.01-0.005,0.016-0.008l0.012-0.007l0.012-0.007l0.012-0.007l0.012-0.007l0.003,0l0.003,0l0.003,0
			l0.003,0l0.503-0.321l0.503-0.321l0.503-0.321l0.503-0.321c0.014-0.009,0.025-0.02,0.034-0.033
			c0.009-0.013,0.015-0.027,0.018-0.041s0.004-0.03,0.001-0.045c-0.003-0.015-0.008-0.03-0.017-0.044
			c-0.005-0.008-0.012-0.016-0.019-0.023s-0.015-0.012-0.024-0.017s-0.018-0.008-0.027-0.011S17.021,13.999,17.01,13.999z"/>
	</g>
</g>
<g>
	<path class="st0" d="M29.937,29.908h-7.432h-7.432H7.641H0.209v-7.432v-7.432V7.611V0.179h7.432h7.432h7.432h7.432v7.432v7.432
		v7.432V29.908z M0.459,29.658h7.307h7.307h7.307h7.307v-7.307v-7.307V7.736V0.429H22.38h-7.307H7.766H0.459v7.307v7.307v7.307
		V29.658z"/>
</g>
</svg>
