<?xml version="1.0" encoding="utf-8"?>
<!-- Generator: Adobe Illustrator 19.1.0, SVG Export Plug-In . SVG Version: 6.00 Build 0)  -->
<svg version="1.1" id="Layer_1" xmlns="http://www.w3.org/2000/svg" xmlns:xlink="http://www.w3.org/1999/xlink" x="0px" y="0px"
	 viewBox="0 0 29.91 30.086" style="enable-background:new 0 0 29.91 30.086;" xml:space="preserve">
<style type="text/css">
	.st0{fill:#4D4D4D;}
	.st1{fill-rule:evenodd;clip-rule:evenodd;fill:#4C4C4C;}
	.st2{fill:#4C4C4C;}
	.st3{fill:#383330;}
	.st4{fill:#1F1A17;}
	.st5{fill:#4D4C4C;}
	.st6{fill:none;stroke:#000000;stroke-width:0.3;stroke-miterlimit:10;}
	.st7{fill:#E61413;}
	.st8{fill:#5F5357;}
	.st9{fill:#115C78;}
	.st10{fill-rule:evenodd;clip-rule:evenodd;fill:#4D4D4D;}
	.st11{fill-rule:evenodd;clip-rule:evenodd;}
	.st12{fill:#FFFFFF;}
	.st13{fill:none;}
	.st14{fill:#231F20;}
	.st15{clip-path:url(#SVGID_2_);}
	.st16{clip-path:url(#SVGID_4_);fill:#FCF118;}
	.st17{clip-path:url(#SVGID_4_);fill:#FCF018;}
	.st18{clip-path:url(#SVGID_4_);fill:#FCEF18;}
	.st19{clip-path:url(#SVGID_4_);fill:#FCEE18;}
	.st20{clip-path:url(#SVGID_4_);fill:#FCED18;}
	.st21{clip-path:url(#SVGID_4_);fill:#FCEC18;}
	.st22{clip-path:url(#SVGID_4_);fill:#FCEB18;}
	.st23{clip-path:url(#SVGID_4_);fill:#FCEA18;}
	.st24{clip-path:url(#SVGID_4_);fill:#FCE918;}
	.st25{clip-path:url(#SVGID_4_);fill:#FCE818;}
	.st26{clip-path:url(#SVGID_4_);fill:#FCE718;}
	.st27{clip-path:url(#SVGID_4_);fill:#FCE617;}
	.st28{clip-path:url(#SVGID_4_);fill:#FCE517;}
	.st29{clip-path:url(#SVGID_4_);fill:#FCE417;}
	.st30{clip-path:url(#SVGID_4_);fill:#FCE317;}
	.st31{clip-path:url(#SVGID_4_);fill:#FCE217;}
	.st32{clip-path:url(#SVGID_4_);fill:#FCE117;}
	.st33{clip-path:url(#SVGID_4_);fill:#FCE017;}
	.st34{clip-path:url(#SVGID_4_);fill:#FCDF17;}
	.st35{clip-path:url(#SVGID_4_);fill:#FCDE17;}
	.st36{clip-path:url(#SVGID_4_);fill:#FCDD17;}
	.st37{clip-path:url(#SVGID_4_);fill:#FCDC17;}
	.st38{clip-path:url(#SVGID_4_);fill:#FCDB17;}
	.st39{clip-path:url(#SVGID_4_);fill:#FCDA17;}
	.st40{clip-path:url(#SVGID_4_);fill:#FCD917;}
	.st41{clip-path:url(#SVGID_4_);fill:#FCD817;}
	.st42{clip-path:url(#SVGID_4_);fill:#FCD717;}
	.st43{clip-path:url(#SVGID_4_);fill:#FCD617;}
	.st44{clip-path:url(#SVGID_4_);fill:#FCD517;}
	.st45{clip-path:url(#SVGID_4_);fill:#FCD416;}
	.st46{clip-path:url(#SVGID_4_);fill:#FCD316;}
	.st47{clip-path:url(#SVGID_4_);fill:#FBD216;}
	.st48{clip-path:url(#SVGID_4_);fill:#FBD116;}
	.st49{clip-path:url(#SVGID_4_);fill:#FBD016;}
	.st50{clip-path:url(#SVGID_4_);fill:#FBCF16;}
	.st51{clip-path:url(#SVGID_4_);fill:#FBCE16;}
	.st52{clip-path:url(#SVGID_4_);fill:#FBCD16;}
	.st53{clip-path:url(#SVGID_4_);fill:#FBCC16;}
	.st54{clip-path:url(#SVGID_4_);fill:#FBCB16;}
	.st55{clip-path:url(#SVGID_4_);fill:#FBCA16;}
	.st56{clip-path:url(#SVGID_4_);fill:#FBC916;}
	.st57{clip-path:url(#SVGID_4_);fill:#FBC816;}
	.st58{clip-path:url(#SVGID_4_);fill:#FBC716;}
	.st59{clip-path:url(#SVGID_4_);fill:#FBC616;}
	.st60{clip-path:url(#SVGID_4_);fill:#FBC516;}
	.st61{clip-path:url(#SVGID_4_);fill:#FBC416;}
	.st62{clip-path:url(#SVGID_4_);fill:#FBC316;}
	.st63{clip-path:url(#SVGID_4_);fill:#FBC216;}
	.st64{clip-path:url(#SVGID_4_);fill:#FBC115;}
	.st65{clip-path:url(#SVGID_4_);fill:#FBC015;}
	.st66{clip-path:url(#SVGID_4_);fill:#FBBF15;}
	.st67{clip-path:url(#SVGID_4_);fill:#FBBE15;}
	.st68{clip-path:url(#SVGID_4_);fill:#FBBD15;}
	.st69{clip-path:url(#SVGID_4_);fill:#FBBC15;}
	.st70{clip-path:url(#SVGID_4_);fill:#FBBB15;}
	.st71{clip-path:url(#SVGID_4_);fill:#FBBA15;}
	.st72{clip-path:url(#SVGID_4_);fill:#FBB915;}
	.st73{clip-path:url(#SVGID_4_);fill:#FBB815;}
	.st74{clip-path:url(#SVGID_4_);fill:#FBB715;}
	.st75{clip-path:url(#SVGID_4_);fill:#FBB615;}
	.st76{clip-path:url(#SVGID_4_);fill:#FBB515;}
	.st77{clip-path:url(#SVGID_4_);fill:#FBB415;}
	.st78{clip-path:url(#SVGID_4_);fill:#FBB315;}
	.st79{clip-path:url(#SVGID_4_);fill:#FBB215;}
	.st80{clip-path:url(#SVGID_4_);fill:#FBB115;}
	.st81{clip-path:url(#SVGID_4_);fill:#FBB015;}
	.st82{clip-path:url(#SVGID_4_);fill:#FBAF15;}
	.st83{clip-path:url(#SVGID_4_);fill:#FAAE15;}
	.st84{clip-path:url(#SVGID_4_);fill:#FAAD14;}
	.st85{clip-path:url(#SVGID_4_);fill:#FAAC14;}
	.st86{clip-path:url(#SVGID_4_);fill:#FAAB14;}
	.st87{clip-path:url(#SVGID_4_);fill:#FAAA14;}
	.st88{clip-path:url(#SVGID_4_);fill:#FAA914;}
	.st89{clip-path:url(#SVGID_4_);fill:#FAA814;}
	.st90{clip-path:url(#SVGID_4_);fill:#FAA714;}
	.st91{clip-path:url(#SVGID_4_);fill:#FAA614;}
	.st92{clip-path:url(#SVGID_4_);fill:#FAA514;}
	.st93{clip-path:url(#SVGID_4_);fill:#FAA414;}
	.st94{clip-path:url(#SVGID_4_);fill:#FAA314;}
	.st95{clip-path:url(#SVGID_4_);fill:#FAA214;}
	.st96{clip-path:url(#SVGID_4_);fill:#FAA114;}
	.st97{clip-path:url(#SVGID_4_);fill:#FAA014;}
	.st98{clip-path:url(#SVGID_4_);fill:#FA9F14;}
	.st99{clip-path:url(#SVGID_4_);fill:#FA9E14;}
	.st100{clip-path:url(#SVGID_4_);fill:#FA9D14;}
	.st101{clip-path:url(#SVGID_4_);fill:#FA9C14;}
	.st102{clip-path:url(#SVGID_4_);fill:#FA9B14;}
	.st103{clip-path:url(#SVGID_4_);fill:#FA9A13;}
	.st104{clip-path:url(#SVGID_4_);fill:#FA9913;}
	.st105{clip-path:url(#SVGID_4_);fill:#FA9813;}
	.st106{clip-path:url(#SVGID_4_);fill:#FA9713;}
	.st107{clip-path:url(#SVGID_4_);fill:#FA9613;}
	.st108{clip-path:url(#SVGID_4_);fill:#FA9513;}
	.st109{clip-path:url(#SVGID_4_);fill:#FA9413;}
	.st110{clip-path:url(#SVGID_4_);fill:#FA9313;}
	.st111{clip-path:url(#SVGID_4_);fill:#FA9213;}
	.st112{clip-path:url(#SVGID_4_);fill:#FA9113;}
	.st113{clip-path:url(#SVGID_4_);fill:#FA9013;}
	.st114{clip-path:url(#SVGID_4_);fill:#FA8F13;}
	.st115{clip-path:url(#SVGID_4_);fill:#FA8E13;}
	.st116{clip-path:url(#SVGID_4_);fill:#FA8D13;}
	.st117{clip-path:url(#SVGID_4_);fill:#FA8C13;}
	.st118{clip-path:url(#SVGID_4_);fill:#FA8B13;}
	.st119{clip-path:url(#SVGID_4_);fill:#FA8A13;}
	.st120{clip-path:url(#SVGID_4_);fill:#FA8913;}
	.st121{clip-path:url(#SVGID_4_);fill:#FA8812;}
	.st122{clip-path:url(#SVGID_4_);fill:#FA8712;}
	.st123{clip-path:url(#SVGID_4_);fill:#FA8612;}
	.st124{clip-path:url(#SVGID_4_);fill:#F98512;}
	.st125{clip-path:url(#SVGID_4_);fill:#F98412;}
	.st126{clip-path:url(#SVGID_4_);fill:#F98312;}
	.st127{clip-path:url(#SVGID_4_);fill:#F98212;}
	.st128{clip-path:url(#SVGID_4_);fill:#F98112;}
	.st129{clip-path:url(#SVGID_4_);fill:#F98012;}
	.st130{clip-path:url(#SVGID_4_);fill:#F97F12;}
	.st131{clip-path:url(#SVGID_4_);fill:#F97E12;}
	.st132{clip-path:url(#SVGID_4_);fill:#F97D12;}
	.st133{clip-path:url(#SVGID_4_);fill:#F97C12;}
	.st134{clip-path:url(#SVGID_4_);fill:#F97B12;}
	.st135{clip-path:url(#SVGID_4_);fill:#F97A12;}
	.st136{clip-path:url(#SVGID_4_);fill:#F97912;}
	.st137{clip-path:url(#SVGID_4_);fill:#F97812;}
	.st138{clip-path:url(#SVGID_4_);fill:#F97712;}
	.st139{clip-path:url(#SVGID_4_);fill:#F97612;}
	.st140{clip-path:url(#SVGID_4_);fill:#F97511;}
	.st141{clip-path:url(#SVGID_4_);fill:#F97411;}
	.st142{clip-path:url(#SVGID_4_);fill:#F97311;}
	.st143{clip-path:url(#SVGID_4_);fill:#F97211;}
	.st144{clip-path:url(#SVGID_4_);fill:#F97111;}
	.st145{clip-path:url(#SVGID_4_);fill:#F97011;}
	.st146{clip-path:url(#SVGID_4_);fill:#F96F11;}
	.st147{clip-path:url(#SVGID_4_);fill:#F96E11;}
	.st148{clip-path:url(#SVGID_4_);fill:#F96D11;}
	.st149{clip-path:url(#SVGID_4_);fill:#F96C11;}
	.st150{clip-path:url(#SVGID_4_);fill:#F96B11;}
	.st151{clip-path:url(#SVGID_4_);fill:#F96A11;}
	.st152{clip-path:url(#SVGID_4_);fill:#F96911;}
	.st153{clip-path:url(#SVGID_4_);fill:#F96811;}
	.st154{clip-path:url(#SVGID_4_);fill:#F96711;}
	.st155{clip-path:url(#SVGID_4_);fill:#F96611;}
	.st156{clip-path:url(#SVGID_4_);fill:#F96511;}
	.st157{clip-path:url(#SVGID_4_);fill:#F96411;}
	.st158{clip-path:url(#SVGID_4_);fill:#F96311;}
	.st159{clip-path:url(#SVGID_4_);fill:#F96210;}
	.st160{clip-path:url(#SVGID_4_);fill:#F86110;}
	.st161{clip-path:url(#SVGID_4_);fill:#F86010;}
	.st162{clip-path:url(#SVGID_4_);fill:#F85F10;}
	.st163{clip-path:url(#SVGID_4_);fill:#F85E10;}
	.st164{clip-path:url(#SVGID_4_);fill:#F85D10;}
	.st165{clip-path:url(#SVGID_4_);fill:#F85C10;}
	.st166{clip-path:url(#SVGID_4_);fill:#F85B10;}
	.st167{clip-path:url(#SVGID_4_);fill:#F85A10;}
	.st168{clip-path:url(#SVGID_4_);fill:#F85910;}
	.st169{clip-path:url(#SVGID_4_);fill:#F85810;}
	.st170{clip-path:url(#SVGID_4_);fill:#F85710;}
	.st171{clip-path:url(#SVGID_4_);fill:#F85610;}
	.st172{clip-path:url(#SVGID_4_);fill:#F85510;}
	.st173{clip-path:url(#SVGID_4_);fill:#F85410;}
	.st174{clip-path:url(#SVGID_4_);fill:#F85310;}
	.st175{clip-path:url(#SVGID_4_);fill:#F85210;}
	.st176{clip-path:url(#SVGID_4_);fill:#F85110;}
	.st177{clip-path:url(#SVGID_4_);fill:#F85010;}
	.st178{clip-path:url(#SVGID_4_);fill:#F84F0F;}
	.st179{clip-path:url(#SVGID_4_);fill:#F84E0F;}
	.st180{clip-path:url(#SVGID_4_);fill:#F84D0F;}
	.st181{clip-path:url(#SVGID_4_);fill:#F84C0F;}
	.st182{clip-path:url(#SVGID_4_);fill:#F84B0F;}
	.st183{clip-path:url(#SVGID_4_);fill:#F84A0F;}
	.st184{clip-path:url(#SVGID_4_);fill:#F8490F;}
	.st185{clip-path:url(#SVGID_4_);fill:#F8480F;}
	.st186{clip-path:url(#SVGID_4_);fill:#F8470F;}
	.st187{clip-path:url(#SVGID_4_);fill:#F8460F;}
	.st188{clip-path:url(#SVGID_4_);fill:#F8450F;}
	.st189{clip-path:url(#SVGID_4_);fill:#F8440F;}
	.st190{clip-path:url(#SVGID_4_);fill:#F8430F;}
	.st191{clip-path:url(#SVGID_4_);fill:#F8420F;}
	.st192{clip-path:url(#SVGID_4_);fill:#F8410F;}
	.st193{clip-path:url(#SVGID_4_);fill:#F8400F;}
	.st194{clip-path:url(#SVGID_4_);fill:#F83F0F;}
	.st195{clip-path:url(#SVGID_4_);fill:#F83E0E;}
	.st196{clip-path:url(#SVGID_4_);fill:#F83D0E;}
	.st197{clip-path:url(#SVGID_4_);fill:#F83C0E;}
	.st198{clip-path:url(#SVGID_4_);fill:#F83B0E;}
	.st199{clip-path:url(#SVGID_4_);fill:#F73A0E;}
	.st200{clip-path:url(#SVGID_4_);fill:#F7390E;}
	.st201{clip-path:url(#SVGID_4_);fill:#F7380E;}
	.st202{clip-path:url(#SVGID_4_);fill:#F7370E;}
	.st203{clip-path:url(#SVGID_4_);fill:#F7360E;}
	.st204{clip-path:url(#SVGID_4_);fill:#F7340E;}
	.st205{clip-path:url(#SVGID_4_);fill:#F7330E;}
	.st206{clip-path:url(#SVGID_4_);fill:#F7320E;}
	.st207{clip-path:url(#SVGID_4_);fill:#F7310E;}
	.st208{clip-path:url(#SVGID_4_);fill:#F7300E;}
	.st209{clip-path:url(#SVGID_4_);fill:#F72F0E;}
	.st210{clip-path:url(#SVGID_4_);fill:#F72E0E;}
	.st211{clip-path:url(#SVGID_4_);fill:#F72D0E;}
	.st212{clip-path:url(#SVGID_4_);fill:#F72C0E;}
	.st213{clip-path:url(#SVGID_4_);fill:#F72B0E;}
	.st214{clip-path:url(#SVGID_4_);fill:#F72B0D;}
	.st215{clip-path:url(#SVGID_4_);fill:#F72A0D;}
	.st216{clip-path:url(#SVGID_4_);fill:#F7290D;}
	.st217{clip-path:url(#SVGID_4_);fill:#F7280D;}
	.st218{clip-path:url(#SVGID_4_);fill:#F7270D;}
	.st219{clip-path:url(#SVGID_4_);fill:#F7260D;}
</style>
<g>
	<path class="st0" d="M29.819,29.908h-7.432h-7.432H7.523H0.091v-7.432v-7.432V7.611V0.179h7.432h7.432h7.432h7.432v7.432v7.432
		v7.432V29.908z M0.341,29.658h7.307h7.307h7.307h7.307V22.35v-7.307V7.736V0.429h-7.307h-7.307H7.648H0.341v7.307v7.307v7.307
		V29.658z"/>
</g>
<g>
	<g>
		<path class="st2" d="M13.943,3.366L13.943,3.366L13.943,3.366v0.001v0h0h0h0h0h0h0h0h0v0L13.943,3.366L13.943,3.366L13.943,3.366
			c-0.084,0-0.165,0.008-0.244,0.024c-0.079,0.016-0.155,0.039-0.228,0.07s-0.143,0.067-0.208,0.11
			c-0.065,0.043-0.127,0.092-0.183,0.146c-0.001,0.001-0.003,0.003-0.004,0.004c-0.001,0.001-0.003,0.003-0.004,0.004
			c-0.001,0.001-0.003,0.003-0.004,0.004c-0.001,0.001-0.003,0.003-0.004,0.004c-0.057,0.057-0.108,0.119-0.153,0.185
			c-0.045,0.066-0.084,0.137-0.116,0.212c-0.032,0.074-0.057,0.152-0.073,0.233c-0.017,0.081-0.026,0.164-0.026,0.25h0h0h0h0v1.935
			v1.935v1.935v1.935h0h0h0h0c0,0.032-0.004,0.064-0.012,0.095c-0.008,0.031-0.02,0.061-0.035,0.089
			c-0.015,0.028-0.034,0.055-0.057,0.079c-0.022,0.024-0.048,0.045-0.078,0.063c-0.081,0.05-0.16,0.104-0.235,0.163
			c-0.075,0.058-0.147,0.12-0.216,0.186c-0.069,0.066-0.134,0.135-0.196,0.208s-0.12,0.149-0.174,0.227
			c-0.011,0.016-0.022,0.032-0.032,0.047c-0.01,0.016-0.021,0.032-0.03,0.047c-0.01,0.016-0.02,0.031-0.029,0.047
			s-0.019,0.031-0.027,0.047c-0.057,0.099-0.107,0.203-0.151,0.31s-0.082,0.217-0.112,0.33c-0.03,0.113-0.054,0.229-0.07,0.347
			c-0.016,0.118-0.024,0.239-0.024,0.361h0h0h0h0v0v0v0v0v0v0v0v0h0h0h0h0c0,0.188,0.019,0.371,0.055,0.548
			c0.036,0.177,0.09,0.348,0.159,0.511s0.154,0.318,0.252,0.463c0.098,0.145,0.21,0.28,0.333,0.404
			c0.123,0.123,0.259,0.235,0.404,0.333c0.145,0.098,0.3,0.183,0.463,0.252s0.334,0.123,0.511,0.159s0.36,0.056,0.548,0.056v0v0v0v0
			h0h0h0h0h0h0h0h0v0v0v0v0c0.188,0,0.371-0.019,0.548-0.056c0.177-0.036,0.348-0.09,0.511-0.159
			c0.163-0.069,0.318-0.154,0.463-0.252s0.28-0.21,0.403-0.333c0.124-0.123,0.235-0.259,0.333-0.404s0.183-0.3,0.252-0.463
			c0.069-0.163,0.123-0.334,0.159-0.511s0.055-0.36,0.055-0.548h0h0h0h0v0v0v0v0c0-0.176-0.017-0.349-0.049-0.516
			c-0.032-0.167-0.079-0.329-0.14-0.484s-0.136-0.303-0.223-0.442c-0.087-0.139-0.186-0.27-0.296-0.391
			c-0.022-0.024-0.045-0.048-0.067-0.071c-0.023-0.023-0.045-0.046-0.068-0.068c-0.023-0.022-0.046-0.044-0.069-0.064
			s-0.047-0.041-0.07-0.061c-0.022-0.018-0.045-0.037-0.068-0.055c-0.023-0.018-0.046-0.035-0.07-0.053
			c-0.024-0.017-0.048-0.034-0.072-0.051c-0.024-0.017-0.049-0.033-0.074-0.048c-0.031-0.016-0.06-0.036-0.085-0.059
			c-0.026-0.023-0.048-0.05-0.066-0.08c-0.018-0.03-0.033-0.062-0.043-0.096c-0.01-0.034-0.015-0.07-0.015-0.108V10.42V8.484V6.549
			V4.613v0v0v0v0h0h0h0h0c0-0.085-0.009-0.169-0.026-0.249c-0.017-0.081-0.041-0.159-0.073-0.233s-0.071-0.145-0.116-0.212
			c-0.045-0.066-0.096-0.128-0.153-0.185c-0.057-0.057-0.119-0.108-0.185-0.153c-0.066-0.045-0.137-0.084-0.212-0.116
			c-0.074-0.032-0.152-0.057-0.233-0.073S14.028,3.366,13.943,3.366 M13.943,2.599L13.943,2.599L13.943,2.599L13.943,2.599
			L13.943,2.599L13.943,2.599L13.943,2.599l0,0.001v0c0.139,0,0.274,0.014,0.405,0.041c0.131,0.027,0.257,0.066,0.378,0.117
			c0.12,0.051,0.235,0.113,0.342,0.186c0.107,0.072,0.207,0.155,0.298,0.246c0.091,0.091,0.173,0.191,0.246,0.298
			s0.135,0.221,0.186,0.342s0.091,0.247,0.118,0.378c0.027,0.131,0.041,0.267,0.041,0.405h0h0h0h0v0v0v0v0v1.884v1.884v1.884v1.884
			c0.018,0.013,0.037,0.026,0.055,0.04c0.018,0.013,0.036,0.027,0.054,0.041s0.036,0.028,0.053,0.042
			c0.018,0.014,0.035,0.028,0.053,0.043c0.032,0.027,0.064,0.054,0.095,0.081c0.031,0.027,0.061,0.055,0.091,0.083
			s0.058,0.056,0.086,0.085c0.028,0.029,0.055,0.058,0.082,0.087c0.141,0.155,0.269,0.323,0.38,0.502s0.208,0.368,0.286,0.566
			s0.139,0.405,0.18,0.62s0.063,0.435,0.063,0.661v0v0v0v0h0h0h0h0c0,0.241-0.024,0.477-0.071,0.704
			c-0.046,0.227-0.115,0.447-0.203,0.656c-0.088,0.209-0.196,0.407-0.322,0.593c-0.125,0.186-0.268,0.359-0.426,0.516
			c-0.158,0.158-0.331,0.3-0.516,0.426c-0.186,0.125-0.384,0.233-0.593,0.322c-0.209,0.088-0.428,0.157-0.655,0.203
			c-0.227,0.046-0.463,0.071-0.704,0.071v0v0v0v0h0h0h0h0h0h0h0h0v0v0v0v0c-0.241,0-0.477-0.024-0.704-0.071
			c-0.227-0.046-0.447-0.115-0.655-0.203c-0.209-0.088-0.407-0.196-0.593-0.322c-0.186-0.125-0.358-0.268-0.516-0.426
			c-0.158-0.158-0.3-0.331-0.426-0.516c-0.125-0.186-0.233-0.384-0.322-0.593s-0.157-0.428-0.203-0.655s-0.071-0.463-0.071-0.704h0
			h0h0h0v0v0v0v0v0v0v0v0h0h0h0h0c0-0.157,0.011-0.312,0.031-0.463s0.05-0.3,0.089-0.445c0.039-0.145,0.087-0.286,0.143-0.422
			c0.056-0.137,0.121-0.269,0.194-0.396c0.012-0.021,0.024-0.042,0.037-0.063c0.012-0.021,0.025-0.041,0.038-0.062
			c0.013-0.02,0.025-0.04,0.038-0.06c0.013-0.02,0.026-0.039,0.039-0.058c0.059-0.086,0.121-0.169,0.187-0.249
			c0.066-0.08,0.135-0.157,0.208-0.231s0.149-0.144,0.228-0.212s0.161-0.131,0.246-0.191v-1.884V8.382V6.498V4.613h0h0h0h0
			c0-0.139,0.014-0.274,0.041-0.405s0.067-0.257,0.118-0.378c0.051-0.12,0.113-0.235,0.186-0.342
			c0.072-0.107,0.155-0.207,0.246-0.298c0.002-0.002,0.004-0.004,0.006-0.006s0.004-0.004,0.006-0.005
			c0.002-0.002,0.004-0.004,0.006-0.005s0.004-0.004,0.006-0.005c0.09-0.088,0.189-0.167,0.295-0.237
			c0.106-0.07,0.218-0.13,0.337-0.179s0.242-0.087,0.37-0.113s0.261-0.039,0.397-0.039v0L13.943,2.599L13.943,2.599L13.943,2.599
			L13.943,2.599L13.943,2.599L13.943,2.599L13.943,2.599z"/>
	</g>
	<g>
		<path class="st1" d="M13.943,8.514L13.943,8.514L13.943,8.514L13.943,8.514L13.943,8.514c0.076,0,0.148,0.015,0.214,0.043
			c0.066,0.028,0.125,0.068,0.175,0.118c0.05,0.05,0.09,0.109,0.118,0.175c0.028,0.066,0.043,0.138,0.043,0.214v1.012v1.012v1.012
			v1.012c0.22,0.06,0.426,0.156,0.61,0.281c0.185,0.125,0.348,0.278,0.484,0.454c0.136,0.176,0.244,0.374,0.319,0.588
			c0.074,0.214,0.115,0.444,0.115,0.683c0,0.287-0.058,0.56-0.163,0.809c-0.105,0.249-0.257,0.473-0.446,0.661
			c-0.188,0.188-0.412,0.34-0.661,0.446c-0.249,0.105-0.522,0.163-0.809,0.163c-0.287,0-0.56-0.058-0.809-0.163
			c-0.249-0.105-0.473-0.257-0.661-0.446c-0.188-0.188-0.34-0.412-0.446-0.661c-0.105-0.249-0.163-0.522-0.163-0.809
			c0-0.239,0.04-0.469,0.115-0.683c0.074-0.214,0.183-0.412,0.319-0.588s0.3-0.329,0.484-0.454c0.185-0.125,0.39-0.22,0.61-0.281
			v-1.012v-1.012v-1.012V9.064c0-0.076,0.015-0.148,0.043-0.214c0.028-0.066,0.068-0.125,0.118-0.175
			c0.05-0.05,0.109-0.09,0.175-0.118C13.795,8.529,13.867,8.514,13.943,8.514"/>
	</g>
</g>
<g>
	<path class="st2" d="M1.373,22.809v-0.05v-0.05v-0.05v-0.05h0.29h0.29h0.29h0.29v0.05v0.05v0.05v0.05h-0.29h-0.29h-0.29H1.373z"/>
	<path class="st2" d="M5.267,24.059H4.708H4.15H3.591H3.033v-0.054v-0.054v-0.054v-0.054l0.237-0.248l0.237-0.248l0.237-0.248
		l0.237-0.248c0.067-0.069,0.129-0.134,0.185-0.195s0.109-0.118,0.155-0.171s0.089-0.102,0.125-0.147s0.069-0.085,0.095-0.122
		s0.052-0.073,0.075-0.109s0.045-0.071,0.065-0.106s0.038-0.07,0.054-0.104s0.031-0.068,0.043-0.101s0.024-0.067,0.033-0.101
		s0.017-0.069,0.024-0.104s0.011-0.07,0.014-0.106s0.005-0.072,0.005-0.109c0-0.053-0.004-0.104-0.013-0.152
		s-0.022-0.094-0.039-0.138s-0.039-0.084-0.066-0.123s-0.057-0.074-0.092-0.108s-0.073-0.062-0.113-0.088s-0.083-0.046-0.128-0.063
		s-0.093-0.029-0.144-0.038s-0.104-0.013-0.16-0.013c-0.074,0-0.148,0.007-0.221,0.02s-0.145,0.034-0.216,0.061
		S3.524,20.8,3.454,20.841s-0.138,0.088-0.206,0.142l-0.033-0.042l-0.033-0.042l-0.033-0.042l-0.033-0.042
		c0.074-0.063,0.151-0.117,0.23-0.164s0.159-0.086,0.242-0.118s0.167-0.055,0.254-0.071s0.175-0.024,0.266-0.024
		c0.078,0,0.151,0.005,0.221,0.016s0.135,0.026,0.196,0.047s0.118,0.047,0.171,0.078s0.102,0.067,0.146,0.109
		c0.044,0.042,0.083,0.087,0.117,0.136s0.061,0.103,0.083,0.16s0.039,0.118,0.05,0.183s0.017,0.134,0.017,0.207
		c0,0.059-0.004,0.118-0.011,0.176s-0.019,0.116-0.034,0.173s-0.034,0.114-0.056,0.17s-0.048,0.112-0.078,0.167
		c-0.03,0.055-0.066,0.114-0.109,0.175s-0.091,0.127-0.145,0.195s-0.115,0.139-0.182,0.214s-0.14,0.152-0.219,0.233L4.044,23.11
		l-0.229,0.235L3.586,23.58l-0.229,0.235v0.002v0.002v0.002v0.002h0.477h0.477h0.477h0.477v0.059v0.059V24V24.059z"/>
	<path class="st2" d="M8.187,22.264c0,0.157-0.006,0.303-0.018,0.44s-0.03,0.263-0.054,0.379s-0.054,0.222-0.09,0.318
		c-0.036,0.096-0.078,0.181-0.125,0.257c-0.048,0.075-0.102,0.141-0.162,0.197s-0.126,0.103-0.199,0.141s-0.151,0.066-0.235,0.085
		s-0.175,0.028-0.272,0.028c-0.093,0-0.181-0.01-0.263-0.029S6.611,24.03,6.54,23.991s-0.136-0.087-0.196-0.145
		s-0.114-0.126-0.162-0.203c-0.048-0.078-0.091-0.165-0.127-0.261s-0.067-0.202-0.091-0.317s-0.042-0.239-0.054-0.373
		s-0.018-0.277-0.018-0.429c0-0.155,0.006-0.301,0.018-0.436s0.029-0.26,0.053-0.376s0.053-0.22,0.088-0.315s0.076-0.18,0.123-0.254
		c0.047-0.075,0.1-0.141,0.16-0.197s0.125-0.103,0.196-0.141s0.149-0.066,0.233-0.084s0.174-0.028,0.27-0.028
		c0.094,0,0.182,0.01,0.265,0.029s0.16,0.048,0.232,0.087s0.138,0.087,0.198,0.145s0.115,0.126,0.164,0.204
		c0.049,0.077,0.092,0.164,0.129,0.26c0.037,0.096,0.068,0.2,0.092,0.314s0.043,0.237,0.055,0.369S8.187,22.114,8.187,22.264z
		 M6.155,22.264c0,0.138,0.005,0.268,0.014,0.388s0.023,0.232,0.041,0.334s0.041,0.196,0.068,0.28s0.059,0.159,0.095,0.226
		s0.077,0.124,0.123,0.174s0.096,0.091,0.151,0.124s0.115,0.058,0.179,0.074s0.133,0.025,0.207,0.025
		c0.077,0,0.149-0.009,0.215-0.026s0.128-0.043,0.184-0.077s0.107-0.077,0.153-0.128s0.086-0.111,0.121-0.179
		c0.035-0.068,0.066-0.145,0.092-0.23s0.048-0.178,0.066-0.279s0.031-0.21,0.04-0.328s0.013-0.243,0.013-0.377
		c0-0.132-0.004-0.256-0.013-0.372s-0.022-0.224-0.04-0.324s-0.04-0.192-0.066-0.276s-0.057-0.161-0.092-0.229
		c-0.035-0.068-0.076-0.128-0.121-0.179s-0.097-0.094-0.153-0.128s-0.117-0.06-0.184-0.077s-0.138-0.026-0.215-0.026
		s-0.149,0.009-0.215,0.026s-0.127,0.043-0.183,0.077s-0.106,0.077-0.151,0.128s-0.085,0.111-0.12,0.179
		c-0.035,0.068-0.065,0.145-0.091,0.229s-0.048,0.176-0.065,0.276s-0.03,0.208-0.039,0.324S6.155,22.132,6.155,22.264z"/>
	<path class="st0" d="M8.804,21.168c0-0.054,0.004-0.105,0.013-0.154s0.022-0.095,0.04-0.139s0.04-0.085,0.066-0.124
		s0.057-0.075,0.093-0.11c0.035-0.034,0.072-0.064,0.112-0.089s0.08-0.047,0.124-0.064s0.088-0.03,0.136-0.038
		s0.096-0.013,0.148-0.013s0.101,0.004,0.148,0.013s0.092,0.021,0.136,0.038s0.084,0.038,0.124,0.064s0.076,0.055,0.112,0.089
		c0.035,0.034,0.066,0.071,0.093,0.11s0.048,0.08,0.066,0.124s0.031,0.09,0.04,0.139s0.013,0.1,0.013,0.154
		s-0.004,0.105-0.013,0.154s-0.022,0.095-0.04,0.139s-0.04,0.085-0.066,0.124s-0.057,0.075-0.093,0.109
		c-0.035,0.034-0.072,0.064-0.112,0.089s-0.08,0.047-0.124,0.064s-0.088,0.03-0.136,0.038s-0.096,0.013-0.148,0.013
		c-0.053,0-0.103-0.004-0.152-0.013s-0.094-0.021-0.138-0.038S9.16,21.81,9.121,21.784s-0.076-0.055-0.11-0.089
		c-0.034-0.034-0.065-0.07-0.09-0.109s-0.047-0.08-0.065-0.124s-0.03-0.09-0.039-0.14S8.804,21.223,8.804,21.168z M9.024,21.168
		c0,0.037,0.003,0.073,0.009,0.107s0.016,0.067,0.028,0.098s0.028,0.061,0.047,0.09s0.04,0.055,0.065,0.081s0.051,0.048,0.078,0.067
		s0.056,0.035,0.086,0.048s0.062,0.022,0.094,0.029s0.067,0.01,0.102,0.01c0.035,0,0.069-0.003,0.101-0.009s0.064-0.016,0.094-0.028
		s0.059-0.028,0.086-0.047s0.054-0.041,0.079-0.066c0.025-0.025,0.047-0.052,0.065-0.081s0.034-0.058,0.047-0.09
		s0.022-0.065,0.028-0.099s0.009-0.071,0.009-0.109c0-0.038-0.003-0.074-0.009-0.108s-0.015-0.067-0.027-0.099
		S9.98,20.9,9.962,20.872s-0.04-0.055-0.064-0.081c-0.024-0.026-0.05-0.048-0.078-0.067s-0.056-0.035-0.086-0.048
		s-0.062-0.022-0.095-0.029s-0.068-0.01-0.104-0.01c-0.037,0-0.072,0.003-0.105,0.01s-0.065,0.016-0.096,0.029
		s-0.059,0.029-0.087,0.049s-0.053,0.042-0.077,0.068c-0.024,0.026-0.045,0.053-0.063,0.082s-0.033,0.058-0.045,0.09
		s-0.021,0.064-0.027,0.097S9.024,21.132,9.024,21.168z"/>
	<path class="st2" d="M13.05,23.893c0.038,0,0.075-0.001,0.111-0.002s0.07-0.004,0.104-0.007s0.066-0.007,0.096-0.012
		s0.061-0.011,0.089-0.017v0.049v0.049V24v0.049c-0.029,0.01-0.06,0.018-0.091,0.026s-0.064,0.013-0.098,0.018
		s-0.069,0.009-0.105,0.011s-0.073,0.004-0.111,0.004c-0.059,0-0.113-0.004-0.164-0.012s-0.098-0.02-0.141-0.035
		s-0.083-0.035-0.118-0.059s-0.067-0.051-0.095-0.082c-0.028-0.031-0.052-0.067-0.073-0.108s-0.038-0.085-0.052-0.134
		s-0.024-0.103-0.031-0.161s-0.01-0.121-0.01-0.188V22.9v-0.428v-0.428v-0.428h-0.098h-0.098h-0.098h-0.098V21.58v-0.036v-0.036
		v-0.036l0.098-0.027l0.098-0.027l0.098-0.027l0.098-0.027l0.031-0.15l0.031-0.15l0.031-0.15l0.031-0.15h0.031h0.031h0.031h0.031
		v0.16v0.16v0.16v0.16H12.8h0.195h0.195h0.195v0.053v0.053v0.053v0.053H13.19h-0.195H12.8h-0.195v0.42v0.42v0.42v0.42
		c0,0.051,0.002,0.098,0.007,0.142s0.011,0.085,0.02,0.123s0.02,0.072,0.034,0.103s0.029,0.059,0.047,0.083s0.038,0.046,0.061,0.064
		s0.049,0.034,0.077,0.046s0.059,0.021,0.092,0.027S13.012,23.893,13.05,23.893z"/>
	<path class="st2" d="M16.219,22.729c0,0.108-0.007,0.21-0.02,0.307s-0.033,0.187-0.059,0.271s-0.059,0.163-0.098,0.236
		s-0.085,0.139-0.138,0.2s-0.11,0.114-0.172,0.16s-0.13,0.084-0.202,0.114s-0.15,0.053-0.232,0.069s-0.17,0.023-0.262,0.023
		c-0.058,0-0.115-0.004-0.169-0.011s-0.108-0.018-0.159-0.032s-0.101-0.032-0.149-0.053s-0.094-0.045-0.138-0.073
		c-0.044-0.028-0.086-0.06-0.125-0.094s-0.076-0.071-0.11-0.112s-0.065-0.084-0.094-0.13s-0.055-0.096-0.079-0.149
		c-0.024-0.052-0.044-0.107-0.062-0.163s-0.032-0.115-0.044-0.176s-0.021-0.123-0.027-0.188s-0.009-0.131-0.009-0.2
		c0-0.108,0.007-0.211,0.02-0.307s0.033-0.187,0.059-0.271s0.059-0.163,0.098-0.235s0.085-0.139,0.138-0.199
		c0.052-0.06,0.11-0.113,0.172-0.158s0.129-0.083,0.201-0.113s0.149-0.053,0.231-0.068s0.168-0.023,0.26-0.023
		c0.091,0,0.177,0.008,0.259,0.023s0.158,0.038,0.229,0.069s0.138,0.069,0.2,0.115s0.119,0.1,0.171,0.161
		c0.052,0.061,0.097,0.128,0.136,0.201s0.071,0.151,0.097,0.235s0.045,0.174,0.058,0.269S16.219,22.622,16.219,22.729z
		 M14.124,22.729c0,0.091,0.005,0.177,0.015,0.258s0.025,0.157,0.045,0.228s0.045,0.137,0.075,0.198s0.065,0.117,0.105,0.168
		c0.04,0.051,0.084,0.096,0.133,0.134s0.101,0.07,0.157,0.096s0.117,0.045,0.182,0.058s0.134,0.019,0.207,0.019
		s0.142-0.006,0.207-0.019s0.126-0.032,0.182-0.058s0.109-0.058,0.157-0.096s0.093-0.083,0.133-0.134
		c0.04-0.051,0.075-0.107,0.105-0.168s0.055-0.127,0.075-0.198s0.035-0.147,0.045-0.228s0.015-0.167,0.015-0.258
		c0-0.092-0.005-0.178-0.015-0.26s-0.025-0.157-0.046-0.228s-0.046-0.137-0.076-0.198s-0.066-0.116-0.106-0.167
		c-0.041-0.051-0.085-0.095-0.134-0.133s-0.102-0.069-0.158-0.095s-0.118-0.044-0.183-0.057s-0.134-0.019-0.207-0.019
		s-0.142,0.006-0.207,0.019s-0.125,0.031-0.182,0.057s-0.109,0.057-0.157,0.094s-0.092,0.082-0.132,0.132
		c-0.04,0.05-0.074,0.106-0.104,0.166s-0.054,0.127-0.074,0.198s-0.035,0.147-0.045,0.229S14.124,22.637,14.124,22.729z"/>
	<path class="st2" d="M19.119,21.912c0.095,0,0.185,0.006,0.27,0.017s0.165,0.029,0.24,0.052s0.145,0.052,0.21,0.086
		s0.125,0.075,0.18,0.121c0.055,0.046,0.103,0.096,0.144,0.151s0.075,0.113,0.103,0.177s0.048,0.131,0.062,0.203
		s0.021,0.148,0.021,0.229c0,0.092-0.007,0.178-0.021,0.26s-0.036,0.158-0.064,0.229s-0.064,0.137-0.107,0.198
		s-0.093,0.117-0.15,0.168c-0.057,0.051-0.119,0.095-0.187,0.133s-0.141,0.07-0.219,0.095s-0.162,0.044-0.252,0.057
		s-0.184,0.019-0.284,0.019c-0.044,0-0.088-0.001-0.131-0.003s-0.086-0.005-0.128-0.01s-0.084-0.01-0.125-0.016
		s-0.081-0.014-0.121-0.023s-0.078-0.018-0.115-0.029s-0.072-0.022-0.105-0.035s-0.065-0.026-0.095-0.04s-0.059-0.03-0.085-0.046
		v-0.063v-0.063v-0.063v-0.063c0.044,0.022,0.087,0.043,0.128,0.062s0.082,0.036,0.121,0.052s0.077,0.029,0.114,0.041
		s0.072,0.023,0.106,0.031s0.069,0.016,0.104,0.023s0.071,0.012,0.108,0.016s0.073,0.008,0.111,0.01s0.076,0.003,0.114,0.003
		c0.078,0,0.152-0.005,0.223-0.016s0.137-0.026,0.2-0.047s0.121-0.047,0.176-0.078s0.106-0.067,0.153-0.108s0.089-0.086,0.124-0.135
		s0.065-0.101,0.088-0.157s0.041-0.115,0.053-0.178s0.018-0.13,0.018-0.2c0-0.066-0.006-0.129-0.017-0.188s-0.029-0.115-0.052-0.167
		s-0.052-0.101-0.086-0.145s-0.075-0.086-0.121-0.124s-0.096-0.071-0.15-0.099s-0.113-0.052-0.175-0.071s-0.129-0.033-0.2-0.042
		s-0.146-0.014-0.225-0.014c-0.053,0-0.106,0.002-0.16,0.006s-0.109,0.01-0.164,0.018s-0.111,0.018-0.168,0.03
		s-0.114,0.026-0.171,0.042l-0.037-0.024l-0.037-0.024l-0.037-0.024l-0.037-0.024l0.035-0.408l0.035-0.408l0.035-0.408l0.035-0.408
		h0.43h0.43h0.43h0.43v0.059v0.059v0.059v0.059H19.75h-0.372h-0.372h-0.372l-0.027,0.315l-0.027,0.315l-0.027,0.315l-0.027,0.315
		c0.063-0.012,0.124-0.022,0.18-0.031s0.11-0.016,0.159-0.022s0.096-0.01,0.139-0.014S19.083,21.912,19.119,21.912z"/>
	<path class="st2" d="M23.238,22.264c0,0.157-0.006,0.303-0.018,0.44s-0.03,0.263-0.054,0.379s-0.054,0.222-0.09,0.318
		s-0.078,0.181-0.125,0.257c-0.048,0.075-0.102,0.141-0.162,0.197s-0.126,0.103-0.199,0.141s-0.151,0.066-0.235,0.085
		s-0.175,0.028-0.272,0.028c-0.093,0-0.181-0.01-0.263-0.029s-0.158-0.048-0.229-0.087s-0.136-0.087-0.196-0.145
		s-0.114-0.126-0.162-0.203c-0.048-0.078-0.091-0.165-0.127-0.261s-0.067-0.202-0.091-0.317s-0.042-0.239-0.054-0.373
		s-0.018-0.277-0.018-0.429c0-0.155,0.006-0.301,0.018-0.436s0.029-0.26,0.053-0.376s0.053-0.22,0.088-0.315s0.076-0.18,0.123-0.254
		c0.047-0.075,0.1-0.141,0.16-0.197s0.125-0.103,0.196-0.141s0.149-0.066,0.233-0.084s0.174-0.028,0.27-0.028
		c0.094,0,0.182,0.01,0.265,0.029s0.16,0.048,0.232,0.087s0.138,0.087,0.198,0.145s0.115,0.126,0.164,0.204
		c0.049,0.077,0.092,0.164,0.129,0.26s0.068,0.2,0.092,0.314s0.043,0.237,0.055,0.369S23.238,22.114,23.238,22.264z M21.207,22.264
		c0,0.138,0.005,0.268,0.014,0.388s0.023,0.232,0.041,0.334s0.041,0.196,0.068,0.28s0.059,0.159,0.095,0.226
		s0.077,0.124,0.123,0.174s0.096,0.091,0.151,0.124s0.115,0.058,0.179,0.074s0.133,0.025,0.207,0.025
		c0.077,0,0.149-0.009,0.215-0.026s0.128-0.043,0.184-0.077s0.107-0.077,0.153-0.128s0.086-0.111,0.121-0.179
		c0.035-0.068,0.066-0.145,0.092-0.23s0.048-0.178,0.066-0.279s0.031-0.21,0.04-0.328s0.013-0.243,0.013-0.377
		c0-0.132-0.004-0.256-0.013-0.372s-0.022-0.224-0.04-0.324s-0.04-0.192-0.066-0.276s-0.057-0.161-0.092-0.229
		c-0.035-0.068-0.076-0.128-0.121-0.179s-0.097-0.094-0.153-0.128s-0.117-0.06-0.184-0.077s-0.138-0.026-0.215-0.026
		s-0.149,0.009-0.215,0.026s-0.127,0.043-0.183,0.077s-0.106,0.077-0.151,0.128s-0.085,0.111-0.12,0.179
		c-0.035,0.068-0.065,0.145-0.091,0.229s-0.048,0.176-0.065,0.276s-0.03,0.208-0.039,0.324S21.207,22.132,21.207,22.264z"/>
	<path class="st0" d="M23.855,21.168c0-0.054,0.004-0.105,0.013-0.154s0.022-0.095,0.04-0.139s0.04-0.085,0.066-0.124
		s0.057-0.075,0.093-0.11c0.035-0.034,0.072-0.064,0.112-0.089s0.08-0.047,0.124-0.064s0.088-0.03,0.136-0.038
		s0.096-0.013,0.148-0.013s0.101,0.004,0.148,0.013s0.092,0.021,0.136,0.038s0.084,0.038,0.124,0.064s0.076,0.055,0.112,0.089
		c0.035,0.034,0.066,0.071,0.093,0.11s0.048,0.08,0.066,0.124s0.031,0.09,0.04,0.139s0.013,0.1,0.013,0.154
		s-0.004,0.105-0.013,0.154s-0.022,0.095-0.04,0.139s-0.04,0.085-0.066,0.124s-0.057,0.075-0.093,0.109
		c-0.035,0.034-0.072,0.064-0.112,0.089s-0.08,0.047-0.124,0.064s-0.088,0.03-0.136,0.038s-0.096,0.013-0.148,0.013
		c-0.053,0-0.103-0.004-0.152-0.013s-0.094-0.021-0.138-0.038s-0.085-0.038-0.124-0.064s-0.076-0.055-0.11-0.089
		c-0.034-0.034-0.065-0.07-0.09-0.109s-0.047-0.08-0.065-0.124s-0.03-0.09-0.039-0.14S23.855,21.223,23.855,21.168z M24.075,21.168
		c0,0.037,0.003,0.073,0.009,0.107s0.016,0.067,0.028,0.098s0.028,0.061,0.047,0.09s0.04,0.055,0.065,0.081s0.051,0.048,0.078,0.067
		s0.056,0.035,0.086,0.048s0.062,0.022,0.094,0.029s0.067,0.01,0.102,0.01c0.035,0,0.069-0.003,0.101-0.009s0.064-0.016,0.094-0.028
		s0.059-0.028,0.086-0.047s0.054-0.041,0.079-0.066c0.025-0.025,0.047-0.052,0.065-0.081s0.034-0.058,0.047-0.09
		s0.022-0.065,0.028-0.099s0.009-0.071,0.009-0.109c0-0.038-0.003-0.074-0.009-0.108s-0.015-0.067-0.027-0.099
		s-0.027-0.061-0.046-0.09s-0.04-0.055-0.064-0.081c-0.024-0.026-0.05-0.048-0.078-0.067s-0.056-0.035-0.086-0.048
		s-0.062-0.022-0.095-0.029s-0.068-0.01-0.104-0.01c-0.037,0-0.072,0.003-0.105,0.01s-0.065,0.016-0.096,0.029
		s-0.059,0.029-0.087,0.049s-0.053,0.042-0.077,0.068c-0.024,0.026-0.045,0.053-0.063,0.082s-0.033,0.058-0.045,0.09
		s-0.021,0.064-0.027,0.097S24.075,21.132,24.075,21.168z"/>
	<path class="st2" d="M27.686,20.663c-0.112,0-0.218,0.009-0.318,0.027s-0.194,0.045-0.282,0.08s-0.17,0.08-0.246,0.134
		s-0.146,0.116-0.211,0.188c-0.064,0.072-0.121,0.15-0.169,0.235s-0.088,0.177-0.121,0.275s-0.056,0.203-0.072,0.314
		s-0.024,0.229-0.024,0.354c0,0.127,0.008,0.247,0.023,0.36s0.038,0.219,0.068,0.318s0.068,0.191,0.114,0.275
		s0.099,0.162,0.159,0.232c0.061,0.071,0.128,0.132,0.202,0.185s0.154,0.097,0.241,0.132s0.18,0.062,0.28,0.079
		s0.206,0.026,0.319,0.026c0.075,0,0.148-0.002,0.22-0.007s0.142-0.012,0.211-0.021s0.136-0.021,0.202-0.036s0.13-0.031,0.193-0.05
		v0.055v0.055v0.055v0.055c-0.059,0.021-0.122,0.039-0.188,0.055s-0.136,0.029-0.21,0.039s-0.151,0.018-0.232,0.023
		s-0.166,0.008-0.254,0.008c-0.125,0-0.244-0.01-0.356-0.03s-0.217-0.051-0.316-0.091s-0.191-0.091-0.276-0.152
		s-0.164-0.132-0.236-0.213c-0.072-0.081-0.135-0.17-0.189-0.267s-0.099-0.202-0.135-0.315s-0.063-0.234-0.081-0.364
		s-0.027-0.267-0.027-0.412c0-0.091,0.004-0.179,0.013-0.264s0.022-0.168,0.039-0.248s0.039-0.157,0.065-0.232
		s0.056-0.146,0.09-0.215c0.034-0.069,0.072-0.135,0.114-0.196s0.088-0.119,0.137-0.172s0.103-0.103,0.16-0.148
		s0.118-0.087,0.182-0.125c0.065-0.038,0.132-0.071,0.202-0.099s0.142-0.052,0.217-0.071s0.153-0.033,0.233-0.042
		s0.163-0.014,0.248-0.014c0.087,0,0.172,0.004,0.254,0.012s0.163,0.02,0.241,0.037s0.154,0.037,0.227,0.061
		s0.144,0.053,0.213,0.086l-0.025,0.056l-0.025,0.056l-0.025,0.056l-0.025,0.056c-0.065-0.033-0.131-0.061-0.198-0.086
		s-0.134-0.045-0.203-0.061s-0.138-0.028-0.208-0.037S27.758,20.663,27.686,20.663z"/>
</g>
</svg>
