<?xml version="1.0" encoding="utf-8"?>
<!-- Generator: Adobe Illustrator 19.1.0, SVG Export Plug-In . SVG Version: 6.00 Build 0)  -->
<svg version="1.1" id="Layer_1" xmlns="http://www.w3.org/2000/svg" xmlns:xlink="http://www.w3.org/1999/xlink" x="0px" y="0px"
	 viewBox="0 0 29.91 30.086" style="enable-background:new 0 0 29.91 30.086;" xml:space="preserve">
<style type="text/css">
	.st0{fill:#115C78;}
	.st1{fill-rule:evenodd;clip-rule:evenodd;fill:#4D4D4D;}
	.st2{fill:#4D4D4D;}
	.st3{fill-rule:evenodd;clip-rule:evenodd;}
	.st4{fill:#FFFFFF;}
	.st5{fill:none;}
	.st6{fill:none;stroke:#4D4D4D;stroke-width:0.3;stroke-miterlimit:10;}
	.st7{fill:#4D4D4D;stroke:#4D4D4D;stroke-width:0.1;stroke-miterlimit:10;}
	.st8{fill:#F0047F;}
	.st9{fill:none;stroke:#4D4D4D;stroke-width:0;stroke-linecap:round;stroke-linejoin:round;}
	.st10{fill:none;stroke:#4D4D4D;stroke-width:0.25;stroke-miterlimit:10;}
	.st11{fill:none;stroke:#4D4D4D;stroke-width:0.2;stroke-miterlimit:10;}
	.st12{fill:none;stroke:#4D4D4D;stroke-width:0.8;stroke-miterlimit:10;}
	.st13{fill:#4D4D4D;stroke:#4D4D4D;stroke-width:0.3;stroke-miterlimit:10;}
	.st14{fill:none;stroke:#4D4D4D;stroke-width:0.24;stroke-miterlimit:10;}
</style>
<g>
	<g>
		<path class="st2" d="M3.325,29.562l0.029-0.069l0.029-0.069l0.029-0.069l0.029-0.069c0.232-0.554,0.615-1.294,1.067-2.103
			s0.972-1.688,1.478-2.519s0.997-1.615,1.39-2.235s0.689-1.077,0.803-1.253c-0.055-0.099-0.141-0.279-0.216-0.549
			s-0.14-0.628-0.153-1.083s0.026-1.007,0.157-1.663s0.357-1.417,0.716-2.289c0.358-0.87,0.838-1.665,1.433-2.382
			s1.306-1.354,2.128-1.908s1.752-1.026,2.788-1.411s2.175-0.683,3.413-0.891c0.93-0.156,1.837-0.248,2.675-0.298
			s1.606-0.056,2.258-0.044s1.19,0.045,1.567,0.074s0.592,0.056,0.6,0.057l0.259,0.033l0.259,0.033l0.259,0.033l0.259,0.033
			l-0.258,0.041l-0.258,0.041L25.81,9.043l-0.258,0.041c-0.706,0.113-1.289,0.336-1.788,0.66s-0.913,0.748-1.281,1.262
			s-0.688,1.12-0.998,1.806s-0.612,1.453-0.941,2.292c-0.108,0.276-0.22,0.561-0.337,0.855s-0.238,0.595-0.366,0.903
			s-0.261,0.624-0.401,0.945s-0.288,0.649-0.443,0.98c-0.625,1.335-1.498,2.249-2.455,2.869s-2.001,0.946-2.967,1.104
			s-1.858,0.149-2.511,0.1s-1.068-0.139-1.085-0.143l-0.047-0.011l-0.047-0.011l-0.047-0.011l-0.047-0.011l0.023-0.043l0.023-0.043
			l0.023-0.043l0.023-0.043c0.25-0.479,0.659-1.119,1.157-1.841s1.085-1.525,1.691-2.33s1.231-1.614,1.804-2.345
			s1.096-1.386,1.497-1.886c-1.474,1.209-2.923,2.75-4.268,4.383s-2.588,3.359-3.648,4.937S6.176,26.43,5.56,27.473
			s-0.971,1.697-0.985,1.724l-0.008,0.015l-0.008,0.015l-0.008,0.015l-0.008,0.015l-0.304,0.077l-0.304,0.077L3.63,29.485
			L3.325,29.562z M22.813,8.951c-0.304,0-0.627,0.005-0.965,0.016s-0.692,0.029-1.057,0.055s-0.742,0.061-1.127,0.106
			s-0.778,0.1-1.175,0.167c-0.844,0.142-1.752,0.347-2.666,0.641c-0.914,0.294-1.835,0.677-2.705,1.176s-1.689,1.114-2.401,1.87
			s-1.316,1.655-1.755,2.722c-0.389,0.944-0.614,1.752-0.733,2.433s-0.131,1.235-0.095,1.671s0.122,0.755,0.199,0.966
			s0.145,0.313,0.148,0.317l0.015,0.021l0.015,0.021l0.015,0.021l0.015,0.021l-0.014,0.021l-0.014,0.021l-0.014,0.021l-0.014,0.021
			c-0.009,0.014-0.233,0.357-0.581,0.902s-0.821,1.293-1.328,2.117s-1.049,1.724-1.535,2.573s-0.916,1.649-1.2,2.271l0.126-0.032
			l0.126-0.032l0.126-0.032l0.126-0.032c0.122-0.223,0.585-1.059,1.305-2.256s1.699-2.753,2.852-4.417s2.481-3.433,3.901-5.056
			s2.931-3.098,4.45-4.173l0.226-0.16l0.226-0.16l0.226-0.16l0.226-0.16l-0.175,0.214l-0.175,0.214l-0.175,0.214l-0.175,0.214
			c-0.014,0.017-0.357,0.437-0.887,1.098c-0.53,0.661-1.246,1.562-2.004,2.542s-1.56,2.037-2.262,3.009s-1.302,1.861-1.659,2.501
			c0.271,0.045,0.801,0.118,1.479,0.13s1.502-0.038,2.36-0.236s1.75-0.547,2.562-1.133c0.812-0.586,1.544-1.411,2.083-2.561
			c0.155-0.33,0.301-0.655,0.441-0.975s0.272-0.634,0.399-0.941s0.248-0.607,0.364-0.9s0.228-0.577,0.336-0.852
			c0.291-0.742,0.564-1.438,0.846-2.078s0.573-1.221,0.899-1.735s0.688-0.959,1.113-1.326s0.911-0.653,1.487-0.849
			C24.495,9,24.37,8.993,24.236,8.986S23.96,8.973,23.81,8.968s-0.31-0.01-0.476-0.012S22.993,8.951,22.813,8.951z"/>
	</g>
</g>
<polygon class="st10" points="0.216,0.627 7.585,0.627 14.955,0.627 22.324,0.627 29.694,0.627 29.694,7.903 29.694,15.179 
	29.694,22.455 29.694,29.731 22.324,29.731 14.955,29.731 7.585,29.731 0.216,29.731 0.216,22.455 0.216,15.179 0.216,7.903 "/>
</svg>
