<?xml version="1.0" encoding="utf-8"?>
<!-- Generator: Adobe Illustrator 19.1.0, SVG Export Plug-In . SVG Version: 6.00 Build 0)  -->
<svg version="1.1" id="Layer_1" xmlns="http://www.w3.org/2000/svg" xmlns:xlink="http://www.w3.org/1999/xlink" x="0px" y="0px"
	 viewBox="0 0 29.91 30.086" style="enable-background:new 0 0 29.91 30.086;" xml:space="preserve">
<style type="text/css">
	.st0{fill:#4D4D4D;}
	.st1{fill-rule:evenodd;clip-rule:evenodd;fill:#4C4C4C;}
	.st2{fill:#4C4C4C;}
	.st3{fill:#383330;}
	.st4{fill:#1F1A17;}
	.st5{fill:#4D4C4C;}
	.st6{fill:none;stroke:#000000;stroke-width:0.3;stroke-miterlimit:10;}
	.st7{fill:#E61413;}
	.st8{fill:#5F5357;}
	.st9{fill:#115C78;}
	.st10{fill-rule:evenodd;clip-rule:evenodd;fill:#4D4D4D;}
	.st11{fill-rule:evenodd;clip-rule:evenodd;}
	.st12{fill:#FFFFFF;}
	.st13{fill:none;}
	.st14{fill:#231F20;}
	.st15{clip-path:url(#SVGID_2_);}
	.st16{clip-path:url(#SVGID_4_);fill:#FCF118;}
	.st17{clip-path:url(#SVGID_4_);fill:#FCF018;}
	.st18{clip-path:url(#SVGID_4_);fill:#FCEF18;}
	.st19{clip-path:url(#SVGID_4_);fill:#FCEE18;}
	.st20{clip-path:url(#SVGID_4_);fill:#FCED18;}
	.st21{clip-path:url(#SVGID_4_);fill:#FCEC18;}
	.st22{clip-path:url(#SVGID_4_);fill:#FCEB18;}
	.st23{clip-path:url(#SVGID_4_);fill:#FCEA18;}
	.st24{clip-path:url(#SVGID_4_);fill:#FCE918;}
	.st25{clip-path:url(#SVGID_4_);fill:#FCE818;}
	.st26{clip-path:url(#SVGID_4_);fill:#FCE718;}
	.st27{clip-path:url(#SVGID_4_);fill:#FCE617;}
	.st28{clip-path:url(#SVGID_4_);fill:#FCE517;}
	.st29{clip-path:url(#SVGID_4_);fill:#FCE417;}
	.st30{clip-path:url(#SVGID_4_);fill:#FCE317;}
	.st31{clip-path:url(#SVGID_4_);fill:#FCE217;}
	.st32{clip-path:url(#SVGID_4_);fill:#FCE117;}
	.st33{clip-path:url(#SVGID_4_);fill:#FCE017;}
	.st34{clip-path:url(#SVGID_4_);fill:#FCDF17;}
	.st35{clip-path:url(#SVGID_4_);fill:#FCDE17;}
	.st36{clip-path:url(#SVGID_4_);fill:#FCDD17;}
	.st37{clip-path:url(#SVGID_4_);fill:#FCDC17;}
	.st38{clip-path:url(#SVGID_4_);fill:#FCDB17;}
	.st39{clip-path:url(#SVGID_4_);fill:#FCDA17;}
	.st40{clip-path:url(#SVGID_4_);fill:#FCD917;}
	.st41{clip-path:url(#SVGID_4_);fill:#FCD817;}
	.st42{clip-path:url(#SVGID_4_);fill:#FCD717;}
	.st43{clip-path:url(#SVGID_4_);fill:#FCD617;}
	.st44{clip-path:url(#SVGID_4_);fill:#FCD517;}
	.st45{clip-path:url(#SVGID_4_);fill:#FCD416;}
	.st46{clip-path:url(#SVGID_4_);fill:#FCD316;}
	.st47{clip-path:url(#SVGID_4_);fill:#FBD216;}
	.st48{clip-path:url(#SVGID_4_);fill:#FBD116;}
	.st49{clip-path:url(#SVGID_4_);fill:#FBD016;}
	.st50{clip-path:url(#SVGID_4_);fill:#FBCF16;}
	.st51{clip-path:url(#SVGID_4_);fill:#FBCE16;}
	.st52{clip-path:url(#SVGID_4_);fill:#FBCD16;}
	.st53{clip-path:url(#SVGID_4_);fill:#FBCC16;}
	.st54{clip-path:url(#SVGID_4_);fill:#FBCB16;}
	.st55{clip-path:url(#SVGID_4_);fill:#FBCA16;}
	.st56{clip-path:url(#SVGID_4_);fill:#FBC916;}
	.st57{clip-path:url(#SVGID_4_);fill:#FBC816;}
	.st58{clip-path:url(#SVGID_4_);fill:#FBC716;}
	.st59{clip-path:url(#SVGID_4_);fill:#FBC616;}
	.st60{clip-path:url(#SVGID_4_);fill:#FBC516;}
	.st61{clip-path:url(#SVGID_4_);fill:#FBC416;}
	.st62{clip-path:url(#SVGID_4_);fill:#FBC316;}
	.st63{clip-path:url(#SVGID_4_);fill:#FBC216;}
	.st64{clip-path:url(#SVGID_4_);fill:#FBC115;}
	.st65{clip-path:url(#SVGID_4_);fill:#FBC015;}
	.st66{clip-path:url(#SVGID_4_);fill:#FBBF15;}
	.st67{clip-path:url(#SVGID_4_);fill:#FBBE15;}
	.st68{clip-path:url(#SVGID_4_);fill:#FBBD15;}
	.st69{clip-path:url(#SVGID_4_);fill:#FBBC15;}
	.st70{clip-path:url(#SVGID_4_);fill:#FBBB15;}
	.st71{clip-path:url(#SVGID_4_);fill:#FBBA15;}
	.st72{clip-path:url(#SVGID_4_);fill:#FBB915;}
	.st73{clip-path:url(#SVGID_4_);fill:#FBB815;}
	.st74{clip-path:url(#SVGID_4_);fill:#FBB715;}
	.st75{clip-path:url(#SVGID_4_);fill:#FBB615;}
	.st76{clip-path:url(#SVGID_4_);fill:#FBB515;}
	.st77{clip-path:url(#SVGID_4_);fill:#FBB415;}
	.st78{clip-path:url(#SVGID_4_);fill:#FBB315;}
	.st79{clip-path:url(#SVGID_4_);fill:#FBB215;}
	.st80{clip-path:url(#SVGID_4_);fill:#FBB115;}
	.st81{clip-path:url(#SVGID_4_);fill:#FBB015;}
	.st82{clip-path:url(#SVGID_4_);fill:#FBAF15;}
	.st83{clip-path:url(#SVGID_4_);fill:#FAAE15;}
	.st84{clip-path:url(#SVGID_4_);fill:#FAAD14;}
	.st85{clip-path:url(#SVGID_4_);fill:#FAAC14;}
	.st86{clip-path:url(#SVGID_4_);fill:#FAAB14;}
	.st87{clip-path:url(#SVGID_4_);fill:#FAAA14;}
	.st88{clip-path:url(#SVGID_4_);fill:#FAA914;}
	.st89{clip-path:url(#SVGID_4_);fill:#FAA814;}
	.st90{clip-path:url(#SVGID_4_);fill:#FAA714;}
	.st91{clip-path:url(#SVGID_4_);fill:#FAA614;}
	.st92{clip-path:url(#SVGID_4_);fill:#FAA514;}
	.st93{clip-path:url(#SVGID_4_);fill:#FAA414;}
	.st94{clip-path:url(#SVGID_4_);fill:#FAA314;}
	.st95{clip-path:url(#SVGID_4_);fill:#FAA214;}
	.st96{clip-path:url(#SVGID_4_);fill:#FAA114;}
	.st97{clip-path:url(#SVGID_4_);fill:#FAA014;}
	.st98{clip-path:url(#SVGID_4_);fill:#FA9F14;}
	.st99{clip-path:url(#SVGID_4_);fill:#FA9E14;}
	.st100{clip-path:url(#SVGID_4_);fill:#FA9D14;}
	.st101{clip-path:url(#SVGID_4_);fill:#FA9C14;}
	.st102{clip-path:url(#SVGID_4_);fill:#FA9B14;}
	.st103{clip-path:url(#SVGID_4_);fill:#FA9A13;}
	.st104{clip-path:url(#SVGID_4_);fill:#FA9913;}
	.st105{clip-path:url(#SVGID_4_);fill:#FA9813;}
	.st106{clip-path:url(#SVGID_4_);fill:#FA9713;}
	.st107{clip-path:url(#SVGID_4_);fill:#FA9613;}
	.st108{clip-path:url(#SVGID_4_);fill:#FA9513;}
	.st109{clip-path:url(#SVGID_4_);fill:#FA9413;}
	.st110{clip-path:url(#SVGID_4_);fill:#FA9313;}
	.st111{clip-path:url(#SVGID_4_);fill:#FA9213;}
	.st112{clip-path:url(#SVGID_4_);fill:#FA9113;}
	.st113{clip-path:url(#SVGID_4_);fill:#FA9013;}
	.st114{clip-path:url(#SVGID_4_);fill:#FA8F13;}
	.st115{clip-path:url(#SVGID_4_);fill:#FA8E13;}
	.st116{clip-path:url(#SVGID_4_);fill:#FA8D13;}
	.st117{clip-path:url(#SVGID_4_);fill:#FA8C13;}
	.st118{clip-path:url(#SVGID_4_);fill:#FA8B13;}
	.st119{clip-path:url(#SVGID_4_);fill:#FA8A13;}
	.st120{clip-path:url(#SVGID_4_);fill:#FA8913;}
	.st121{clip-path:url(#SVGID_4_);fill:#FA8812;}
	.st122{clip-path:url(#SVGID_4_);fill:#FA8712;}
	.st123{clip-path:url(#SVGID_4_);fill:#FA8612;}
	.st124{clip-path:url(#SVGID_4_);fill:#F98512;}
	.st125{clip-path:url(#SVGID_4_);fill:#F98412;}
	.st126{clip-path:url(#SVGID_4_);fill:#F98312;}
	.st127{clip-path:url(#SVGID_4_);fill:#F98212;}
	.st128{clip-path:url(#SVGID_4_);fill:#F98112;}
	.st129{clip-path:url(#SVGID_4_);fill:#F98012;}
	.st130{clip-path:url(#SVGID_4_);fill:#F97F12;}
	.st131{clip-path:url(#SVGID_4_);fill:#F97E12;}
	.st132{clip-path:url(#SVGID_4_);fill:#F97D12;}
	.st133{clip-path:url(#SVGID_4_);fill:#F97C12;}
	.st134{clip-path:url(#SVGID_4_);fill:#F97B12;}
	.st135{clip-path:url(#SVGID_4_);fill:#F97A12;}
	.st136{clip-path:url(#SVGID_4_);fill:#F97912;}
	.st137{clip-path:url(#SVGID_4_);fill:#F97812;}
	.st138{clip-path:url(#SVGID_4_);fill:#F97712;}
	.st139{clip-path:url(#SVGID_4_);fill:#F97612;}
	.st140{clip-path:url(#SVGID_4_);fill:#F97511;}
	.st141{clip-path:url(#SVGID_4_);fill:#F97411;}
	.st142{clip-path:url(#SVGID_4_);fill:#F97311;}
	.st143{clip-path:url(#SVGID_4_);fill:#F97211;}
	.st144{clip-path:url(#SVGID_4_);fill:#F97111;}
	.st145{clip-path:url(#SVGID_4_);fill:#F97011;}
	.st146{clip-path:url(#SVGID_4_);fill:#F96F11;}
	.st147{clip-path:url(#SVGID_4_);fill:#F96E11;}
	.st148{clip-path:url(#SVGID_4_);fill:#F96D11;}
	.st149{clip-path:url(#SVGID_4_);fill:#F96C11;}
	.st150{clip-path:url(#SVGID_4_);fill:#F96B11;}
	.st151{clip-path:url(#SVGID_4_);fill:#F96A11;}
	.st152{clip-path:url(#SVGID_4_);fill:#F96911;}
	.st153{clip-path:url(#SVGID_4_);fill:#F96811;}
	.st154{clip-path:url(#SVGID_4_);fill:#F96711;}
	.st155{clip-path:url(#SVGID_4_);fill:#F96611;}
	.st156{clip-path:url(#SVGID_4_);fill:#F96511;}
	.st157{clip-path:url(#SVGID_4_);fill:#F96411;}
	.st158{clip-path:url(#SVGID_4_);fill:#F96311;}
	.st159{clip-path:url(#SVGID_4_);fill:#F96210;}
	.st160{clip-path:url(#SVGID_4_);fill:#F86110;}
	.st161{clip-path:url(#SVGID_4_);fill:#F86010;}
	.st162{clip-path:url(#SVGID_4_);fill:#F85F10;}
	.st163{clip-path:url(#SVGID_4_);fill:#F85E10;}
	.st164{clip-path:url(#SVGID_4_);fill:#F85D10;}
	.st165{clip-path:url(#SVGID_4_);fill:#F85C10;}
	.st166{clip-path:url(#SVGID_4_);fill:#F85B10;}
	.st167{clip-path:url(#SVGID_4_);fill:#F85A10;}
	.st168{clip-path:url(#SVGID_4_);fill:#F85910;}
	.st169{clip-path:url(#SVGID_4_);fill:#F85810;}
	.st170{clip-path:url(#SVGID_4_);fill:#F85710;}
	.st171{clip-path:url(#SVGID_4_);fill:#F85610;}
	.st172{clip-path:url(#SVGID_4_);fill:#F85510;}
	.st173{clip-path:url(#SVGID_4_);fill:#F85410;}
	.st174{clip-path:url(#SVGID_4_);fill:#F85310;}
	.st175{clip-path:url(#SVGID_4_);fill:#F85210;}
	.st176{clip-path:url(#SVGID_4_);fill:#F85110;}
	.st177{clip-path:url(#SVGID_4_);fill:#F85010;}
	.st178{clip-path:url(#SVGID_4_);fill:#F84F0F;}
	.st179{clip-path:url(#SVGID_4_);fill:#F84E0F;}
	.st180{clip-path:url(#SVGID_4_);fill:#F84D0F;}
	.st181{clip-path:url(#SVGID_4_);fill:#F84C0F;}
	.st182{clip-path:url(#SVGID_4_);fill:#F84B0F;}
	.st183{clip-path:url(#SVGID_4_);fill:#F84A0F;}
	.st184{clip-path:url(#SVGID_4_);fill:#F8490F;}
	.st185{clip-path:url(#SVGID_4_);fill:#F8480F;}
	.st186{clip-path:url(#SVGID_4_);fill:#F8470F;}
	.st187{clip-path:url(#SVGID_4_);fill:#F8460F;}
	.st188{clip-path:url(#SVGID_4_);fill:#F8450F;}
	.st189{clip-path:url(#SVGID_4_);fill:#F8440F;}
	.st190{clip-path:url(#SVGID_4_);fill:#F8430F;}
	.st191{clip-path:url(#SVGID_4_);fill:#F8420F;}
	.st192{clip-path:url(#SVGID_4_);fill:#F8410F;}
	.st193{clip-path:url(#SVGID_4_);fill:#F8400F;}
	.st194{clip-path:url(#SVGID_4_);fill:#F83F0F;}
	.st195{clip-path:url(#SVGID_4_);fill:#F83E0E;}
	.st196{clip-path:url(#SVGID_4_);fill:#F83D0E;}
	.st197{clip-path:url(#SVGID_4_);fill:#F83C0E;}
	.st198{clip-path:url(#SVGID_4_);fill:#F83B0E;}
	.st199{clip-path:url(#SVGID_4_);fill:#F73A0E;}
	.st200{clip-path:url(#SVGID_4_);fill:#F7390E;}
	.st201{clip-path:url(#SVGID_4_);fill:#F7380E;}
	.st202{clip-path:url(#SVGID_4_);fill:#F7370E;}
	.st203{clip-path:url(#SVGID_4_);fill:#F7360E;}
	.st204{clip-path:url(#SVGID_4_);fill:#F7340E;}
	.st205{clip-path:url(#SVGID_4_);fill:#F7330E;}
	.st206{clip-path:url(#SVGID_4_);fill:#F7320E;}
	.st207{clip-path:url(#SVGID_4_);fill:#F7310E;}
	.st208{clip-path:url(#SVGID_4_);fill:#F7300E;}
	.st209{clip-path:url(#SVGID_4_);fill:#F72F0E;}
	.st210{clip-path:url(#SVGID_4_);fill:#F72E0E;}
	.st211{clip-path:url(#SVGID_4_);fill:#F72D0E;}
	.st212{clip-path:url(#SVGID_4_);fill:#F72C0E;}
	.st213{clip-path:url(#SVGID_4_);fill:#F72B0E;}
	.st214{clip-path:url(#SVGID_4_);fill:#F72B0D;}
	.st215{clip-path:url(#SVGID_4_);fill:#F72A0D;}
	.st216{clip-path:url(#SVGID_4_);fill:#F7290D;}
	.st217{clip-path:url(#SVGID_4_);fill:#F7280D;}
	.st218{clip-path:url(#SVGID_4_);fill:#F7270D;}
	.st219{clip-path:url(#SVGID_4_);fill:#F7260D;}
</style>
<g>
	<g>
		<path class="st0" d="M21.094,8.752l-0.082-0.046L20.929,8.66l-0.082-0.046l-0.082-0.046l0.084-0.042l0.084-0.042l0.084-0.042
			l0.084-0.042c0.13-0.065,0.248-0.148,0.352-0.245c0.104-0.097,0.195-0.209,0.269-0.33s0.132-0.254,0.172-0.393
			c0.04-0.139,0.06-0.284,0.06-0.431V6.546V6.093V5.64V5.187c0-0.222-0.043-0.432-0.123-0.622s-0.194-0.36-0.336-0.503
			s-0.313-0.257-0.503-0.336s-0.4-0.123-0.622-0.123h-2.828h-2.828h-2.828H9.061c-0.222,0-0.432,0.043-0.622,0.123
			S8.079,3.92,7.937,4.062S7.68,4.375,7.601,4.565s-0.123,0.4-0.123,0.622V5.64v0.453v0.453v0.453c0,0.146,0.021,0.29,0.06,0.427
			s0.097,0.268,0.171,0.389s0.165,0.233,0.27,0.331S8.204,8.331,8.336,8.4l0.081,0.043l0.081,0.043L8.58,8.529l0.081,0.043
			l-0.08,0.045l-0.08,0.045l-0.08,0.045l-0.08,0.045C8.159,8.854,7.969,8.977,7.785,9.124s-0.36,0.319-0.514,0.518
			s-0.285,0.424-0.377,0.679s-0.147,0.54-0.147,0.857v3.274v3.274V21v3.274c0,0.01,0,0.078,0.011,0.184s0.031,0.25,0.072,0.413
			s0.101,0.344,0.191,0.525s0.21,0.36,0.369,0.519c0.1,0.107,0.212,0.201,0.335,0.281s0.256,0.147,0.4,0.201s0.3,0.094,0.465,0.121
			c0.166,0.027,0.342,0.04,0.529,0.04h2.799h2.799h2.799h2.799c0.183,0,0.355-0.013,0.518-0.04c0.163-0.026,0.315-0.066,0.459-0.12
			s0.278-0.12,0.403-0.201c0.125-0.081,0.242-0.175,0.35-0.283c0.159-0.166,0.279-0.348,0.369-0.53s0.151-0.363,0.191-0.524
			s0.061-0.303,0.072-0.407s0.011-0.17,0.011-0.18V21v-3.274v-3.274v-3.274c0-0.334-0.062-0.632-0.165-0.896
			s-0.246-0.495-0.408-0.694s-0.342-0.367-0.52-0.506S21.243,8.835,21.094,8.752z M7.663,6.97V6.517V6.063V5.61V5.157
			c0-0.196,0.038-0.381,0.108-0.549S7.942,4.29,8.068,4.164s0.276-0.227,0.444-0.297s0.353-0.108,0.549-0.108h2.828h2.828h2.828
			h2.828c0.196,0,0.381,0.038,0.549,0.108s0.318,0.171,0.444,0.297s0.227,0.276,0.297,0.444s0.108,0.353,0.108,0.549V5.61v0.453
			v0.453V6.97c0,0.196-0.038,0.381-0.108,0.549s-0.171,0.318-0.297,0.444S21.091,8.19,20.923,8.26s-0.353,0.108-0.549,0.108h-2.828
			h-2.828h-2.828H9.061c-0.196,0-0.381-0.038-0.549-0.108S8.194,8.089,8.068,7.963S7.841,7.687,7.771,7.519S7.663,7.166,7.663,6.97z
			 M22.503,11.179v3.274v3.274V21v3.274c0,0.009,0,0.07-0.01,0.166c-0.01,0.096-0.028,0.227-0.065,0.376s-0.091,0.315-0.173,0.483
			c-0.081,0.167-0.19,0.335-0.333,0.487c-0.099,0.099-0.206,0.186-0.32,0.26s-0.237,0.135-0.368,0.184s-0.27,0.085-0.418,0.109
			s-0.305,0.036-0.471,0.036h-2.806h-2.806h-2.806H9.12c-0.17,0-0.331-0.013-0.483-0.038c-0.152-0.025-0.295-0.063-0.428-0.113
			s-0.256-0.112-0.367-0.185c-0.112-0.074-0.212-0.159-0.301-0.255c-0.15-0.15-0.263-0.317-0.349-0.484
			c-0.085-0.167-0.142-0.333-0.181-0.482s-0.058-0.28-0.068-0.376c-0.01-0.096-0.01-0.158-0.01-0.167V21v-3.274v-3.274v-3.274
			c0-0.492,0.14-0.901,0.349-1.239s0.49-0.603,0.77-0.807s0.562-0.347,0.774-0.439S9.183,8.56,9.188,8.559l2.76-0.001l2.76-0.001
			l2.76-0.001l2.76-0.001h0.008h0.008h0.008h0.008l0.008,0.003l0.008,0.003l0.008,0.003l0.008,0.003
			c0.092,0.031,0.277,0.098,0.502,0.209c0.225,0.111,0.49,0.267,0.743,0.474s0.495,0.467,0.674,0.787
			C22.387,10.353,22.503,10.732,22.503,11.179z"/>
	</g>
</g>
<g>
	<g>
		<path class="st0" d="M20.223,4.923v0.592v0.592v0.592v0.592c0,0.016,0.003,0.029,0.009,0.041s0.014,0.021,0.023,0.029
			s0.02,0.013,0.03,0.017s0.021,0.006,0.03,0.006c0.016,0,0.03-0.002,0.042-0.005s0.021-0.009,0.029-0.017s0.013-0.017,0.017-0.029
			s0.005-0.026,0.005-0.042V6.699V6.107V5.515V4.923c0-0.016-0.002-0.03-0.005-0.042s-0.009-0.021-0.017-0.029
			s-0.017-0.013-0.029-0.017s-0.026-0.005-0.042-0.005s-0.03,0.002-0.042,0.005s-0.021,0.009-0.029,0.017s-0.013,0.017-0.017,0.029
			S20.223,4.907,20.223,4.923z"/>
	</g>
</g>
<g>
	<g>
		<path class="st0" d="M18.995,4.923v0.592v0.592v0.592v0.592c0,0.016,0.002,0.03,0.005,0.042s0.009,0.021,0.017,0.029
			s0.017,0.013,0.029,0.017s0.026,0.005,0.042,0.005s0.03-0.002,0.042-0.005s0.021-0.009,0.029-0.017s0.013-0.017,0.017-0.029
			s0.005-0.026,0.005-0.042V6.699V6.107V5.515V4.923c0-0.016-0.002-0.03-0.005-0.042s-0.009-0.021-0.017-0.029
			s-0.017-0.013-0.029-0.017s-0.026-0.005-0.042-0.005s-0.03,0.002-0.042,0.005s-0.021,0.009-0.029,0.017S19.004,4.87,19,4.882
			S18.995,4.907,18.995,4.923z"/>
	</g>
</g>
<g>
	<g>
		<path class="st0" d="M17.738,4.923v0.592v0.592v0.592v0.592c0,0.016,0.002,0.03,0.005,0.042s0.009,0.021,0.017,0.029
			s0.017,0.013,0.029,0.017s0.026,0.005,0.042,0.005s0.03-0.002,0.042-0.005s0.021-0.009,0.029-0.017s0.013-0.017,0.017-0.029
			s0.005-0.026,0.005-0.042V6.699V6.107V5.515V4.923c0-0.016-0.002-0.03-0.005-0.042s-0.009-0.021-0.017-0.029
			s-0.017-0.013-0.029-0.017s-0.026-0.005-0.042-0.005s-0.03,0.002-0.042,0.005s-0.021,0.009-0.029,0.017s-0.013,0.017-0.017,0.029
			S17.738,4.907,17.738,4.923z"/>
	</g>
</g>
<g>
	<g>
		<path class="st0" d="M16.481,4.923v0.592v0.592v0.592v0.592c0,0.016,0.003,0.029,0.009,0.041s0.014,0.021,0.023,0.029
			s0.02,0.013,0.03,0.017s0.021,0.006,0.03,0.006c0.016,0,0.03-0.002,0.042-0.005s0.021-0.009,0.029-0.017s0.013-0.017,0.017-0.029
			s0.005-0.026,0.005-0.042V6.699V6.107V5.515V4.923c0-0.016-0.002-0.03-0.005-0.042s-0.009-0.021-0.017-0.029
			s-0.017-0.013-0.029-0.017s-0.026-0.005-0.042-0.005s-0.03,0.002-0.042,0.005s-0.021,0.009-0.029,0.017S16.49,4.87,16.487,4.882
			S16.481,4.907,16.481,4.923z"/>
	</g>
</g>
<g>
	<g>
		<path class="st0" d="M15.254,4.923v0.592v0.592v0.592v0.592c0,0.016,0.002,0.03,0.005,0.042s0.009,0.021,0.017,0.029
			s0.017,0.013,0.029,0.017s0.026,0.005,0.042,0.005s0.03-0.002,0.042-0.005s0.021-0.009,0.029-0.017s0.013-0.017,0.017-0.029
			s0.005-0.026,0.005-0.042V6.699V6.107V5.515V4.923c0-0.016-0.002-0.03-0.005-0.042s-0.009-0.021-0.017-0.029
			s-0.017-0.013-0.029-0.017s-0.026-0.005-0.042-0.005s-0.03,0.002-0.042,0.005s-0.021,0.009-0.029,0.017s-0.013,0.017-0.017,0.029
			S15.254,4.907,15.254,4.923z"/>
	</g>
</g>
<g>
	<g>
		<path class="st0" d="M13.997,4.923v0.592v0.592v0.592v0.592c0,0.016,0.003,0.029,0.009,0.041s0.014,0.021,0.023,0.029
			s0.02,0.013,0.03,0.017s0.021,0.006,0.03,0.006c0.016,0,0.03-0.002,0.042-0.005s0.021-0.009,0.029-0.017s0.013-0.017,0.017-0.029
			s0.005-0.026,0.005-0.042V6.699V6.107V5.515V4.923c0-0.016-0.002-0.03-0.005-0.042s-0.009-0.021-0.017-0.029
			s-0.017-0.013-0.029-0.017s-0.026-0.005-0.042-0.005s-0.03,0.002-0.042,0.005s-0.021,0.009-0.029,0.017s-0.013,0.017-0.017,0.029
			S13.997,4.907,13.997,4.923z"/>
	</g>
</g>
<g>
	<g>
		<path class="st0" d="M12.769,4.923v0.592v0.592v0.592v0.592c0,0.016,0.002,0.03,0.005,0.042s0.009,0.021,0.017,0.029
			s0.017,0.013,0.029,0.017s0.026,0.005,0.042,0.005c0.016,0,0.03-0.002,0.042-0.005s0.021-0.009,0.029-0.017
			s0.013-0.017,0.017-0.029s0.005-0.026,0.005-0.042V6.699V6.107V5.515V4.923c0-0.016-0.002-0.03-0.005-0.042
			s-0.009-0.021-0.017-0.029s-0.017-0.013-0.029-0.017s-0.026-0.005-0.042-0.005c-0.016,0-0.03,0.002-0.042,0.005
			s-0.021,0.009-0.029,0.017s-0.013,0.017-0.017,0.029S12.769,4.907,12.769,4.923z"/>
	</g>
</g>
<g>
	<g>
		<path class="st0" d="M11.512,4.923v0.592v0.592v0.592v0.592c0,0.016,0.003,0.029,0.009,0.041s0.014,0.021,0.023,0.029
			s0.02,0.013,0.03,0.017s0.021,0.006,0.03,0.006c0.016,0,0.03-0.002,0.042-0.005s0.021-0.009,0.029-0.017s0.013-0.017,0.017-0.029
			s0.005-0.026,0.005-0.042V6.699V6.107V5.515V4.923c0-0.016-0.002-0.03-0.005-0.042s-0.009-0.021-0.017-0.029
			s-0.017-0.013-0.029-0.017s-0.026-0.005-0.042-0.005c-0.016,0-0.03,0.002-0.042,0.005s-0.021,0.009-0.029,0.017
			s-0.013,0.017-0.017,0.029S11.512,4.907,11.512,4.923z"/>
	</g>
</g>
<g>
	<g>
		<path class="st0" d="M10.284,4.923v0.592v0.592v0.592v0.592c0,0.016,0.002,0.03,0.005,0.042s0.009,0.021,0.017,0.029
			s0.017,0.013,0.029,0.017s0.026,0.005,0.042,0.005s0.03-0.002,0.042-0.005s0.021-0.009,0.029-0.017s0.013-0.017,0.017-0.029
			s0.005-0.026,0.005-0.042V6.699V6.107V5.515V4.923c0-0.016-0.002-0.03-0.005-0.042s-0.009-0.021-0.017-0.029
			S10.43,4.84,10.418,4.836s-0.026-0.005-0.042-0.005s-0.03,0.002-0.042,0.005s-0.021,0.009-0.029,0.017S10.293,4.87,10.29,4.882
			S10.284,4.907,10.284,4.923z"/>
	</g>
</g>
<g>
	<g>
		<path class="st0" d="M9.028,4.923v0.592v0.592v0.592v0.592c0,0.016,0.002,0.03,0.005,0.042s0.009,0.021,0.017,0.029
			s0.017,0.013,0.029,0.017S9.104,7.383,9.12,7.383s0.03-0.002,0.042-0.005S9.183,7.369,9.19,7.362s0.013-0.017,0.017-0.029
			s0.005-0.026,0.005-0.042V6.699V6.107V5.515V4.923c0-0.016-0.002-0.03-0.005-0.042S9.198,4.861,9.19,4.853S9.173,4.84,9.161,4.836
			S9.136,4.831,9.12,4.831S9.09,4.833,9.078,4.836S9.057,4.846,9.049,4.853S9.036,4.87,9.033,4.882S9.028,4.907,9.028,4.923z"/>
	</g>
</g>
<g>
	<g>
		<path class="st0" d="M9.675,19.592c-0.016,0-0.03,0.002-0.042,0.005c-0.012,0.004-0.021,0.009-0.029,0.017
			s-0.013,0.017-0.017,0.029s-0.005,0.026-0.005,0.042v0.826v0.826v0.826v0.826c0,0.006,0.003,0.013,0.008,0.02
			s0.012,0.014,0.021,0.021s0.019,0.012,0.03,0.016s0.022,0.007,0.034,0.007h2.514h2.514h2.514h2.514
			c0.016,0,0.03-0.002,0.042-0.005s0.021-0.009,0.029-0.017s0.013-0.017,0.017-0.029s0.005-0.026,0.005-0.042V22.14v-0.818v-0.818
			v-0.818c0-0.016-0.002-0.03-0.005-0.042s-0.009-0.021-0.017-0.029s-0.017-0.013-0.029-0.017c-0.012-0.004-0.026-0.005-0.042-0.005
			h-2.514h-2.514h-2.514H9.675z M19.638,19.977v0.68v0.68v0.68v0.68v0.05v0.05v0.05v0.05h-0.05h-0.05h-0.05h-0.05H17.07h-2.368
			h-2.368H9.968h-0.05h-0.05h-0.05h-0.05v-0.05v-0.05v-0.05v-0.05v-0.68v-0.68v-0.68v-0.68v-0.05v-0.05v-0.05v-0.05h0.05h0.05h0.05
			h0.05h2.368h2.368h2.368h2.368h0.05h0.05h0.05h0.05v0.05v0.05v0.05V19.977z"/>
	</g>
</g>
<g>
	<g>
		<path class="st0" d="M17.567,17.839h-0.048h-0.048h-0.048h-0.048l-0.002-0.048l-0.002-0.048l-0.002-0.048l-0.002-0.048
			c-0.014-0.311-0.082-0.607-0.196-0.878s-0.275-0.517-0.472-0.729c-0.197-0.212-0.431-0.388-0.692-0.521s-0.551-0.221-0.859-0.255
			l-0.044-0.005l-0.044-0.005l-0.044-0.005l-0.044-0.005v-0.045v-0.045v-0.045v-0.045v-0.278v-0.278v-0.278v-0.278v-0.047v-0.047
			v-0.047v-0.047l0.047-0.003l0.047-0.003l0.047-0.003l0.047-0.003c0.214-0.013,0.416-0.037,0.604-0.074s0.364-0.086,0.527-0.147
			s0.312-0.134,0.448-0.219c0.136-0.085,0.258-0.182,0.367-0.291c0.172-0.178,0.301-0.384,0.397-0.6
			c0.097-0.215,0.161-0.439,0.203-0.652s0.062-0.413,0.071-0.582c0.009-0.169,0.006-0.307,0.002-0.392
			c0-0.016-0.002-0.03-0.005-0.042s-0.008-0.021-0.014-0.029s-0.012-0.013-0.02-0.016s-0.016-0.005-0.025-0.005l-0.034-0.001
			l-0.034-0.001l-0.034-0.001l-0.034-0.001c-0.104,0-0.246,0.004-0.412,0.021c-0.165,0.017-0.353,0.046-0.549,0.097
			s-0.397,0.121-0.59,0.22c-0.193,0.099-0.377,0.227-0.537,0.392c-0.044,0.044-0.086,0.091-0.125,0.138s-0.075,0.097-0.108,0.148
			s-0.063,0.103-0.09,0.156s-0.051,0.107-0.071,0.161l-0.043,0.114l-0.043,0.114l-0.043,0.114l-0.043,0.114l-0.05-0.112l-0.05-0.112
			l-0.05-0.112l-0.05-0.112c-0.03-0.069-0.062-0.132-0.095-0.191s-0.067-0.115-0.104-0.166s-0.075-0.1-0.116-0.145
			s-0.085-0.088-0.131-0.129c-0.161-0.155-0.344-0.276-0.535-0.369s-0.389-0.16-0.58-0.207s-0.375-0.075-0.535-0.091
			s-0.299-0.02-0.4-0.02c-0.022,0-0.043,0-0.062,0s-0.036,0.001-0.052,0.001s-0.029,0.001-0.041,0.001s-0.022,0.001-0.029,0.001
			c-0.016,0-0.03,0.002-0.042,0.005s-0.021,0.008-0.029,0.014s-0.013,0.012-0.016,0.02s-0.005,0.016-0.005,0.025
			c-0.003,0.091-0.004,0.231,0.008,0.403s0.036,0.373,0.082,0.585s0.116,0.434,0.219,0.647s0.239,0.416,0.419,0.59
			c0.164,0.156,0.35,0.277,0.542,0.369s0.389,0.157,0.576,0.203s0.361,0.071,0.508,0.085s0.266,0.017,0.34,0.017h0.05h0.05h0.05
			h0.05v0.05v0.05v0.05v0.05v0.285v0.285v0.285v0.285v0.045v0.045v0.045v0.045L14.8,15.221l-0.044,0.005l-0.044,0.005l-0.044,0.005
			c-0.308,0.034-0.597,0.122-0.859,0.255s-0.495,0.31-0.692,0.521c-0.197,0.212-0.357,0.458-0.472,0.729s-0.183,0.567-0.196,0.878
			l-0.002,0.048l-0.002,0.048l-0.002,0.048l-0.002,0.048h-0.048h-0.048h-0.048h-0.048h-0.621h-0.621h-0.621H9.763
			c-0.016,0-0.03,0.002-0.042,0.005S9.7,17.824,9.692,17.831s-0.013,0.017-0.017,0.029s-0.005,0.026-0.005,0.042
			c0,0.021,0.001,0.039,0.003,0.055s0.004,0.029,0.007,0.04s0.005,0.019,0.008,0.025s0.005,0.01,0.006,0.012l2.509-0.003
			l2.509-0.003l2.509-0.003l2.509-0.003c0.016,0,0.03-0.002,0.042-0.005s0.021-0.009,0.029-0.017s0.013-0.017,0.017-0.029
			s0.005-0.026,0.005-0.042s-0.002-0.03-0.005-0.042s-0.009-0.021-0.017-0.029s-0.017-0.013-0.029-0.017s-0.026-0.005-0.042-0.005
			H19.19h-0.541h-0.541H17.567z M14.97,13.371v-0.029v-0.029v-0.029v-0.029c0-0.063,0.003-0.165,0.016-0.291
			s0.036-0.276,0.078-0.436s0.1-0.33,0.184-0.495s0.194-0.327,0.336-0.469c0.137-0.146,0.299-0.259,0.468-0.348
			c0.17-0.089,0.348-0.152,0.519-0.198s0.334-0.075,0.473-0.093c0.14-0.018,0.256-0.027,0.333-0.032l0.054-0.004l0.054-0.004
			l0.054-0.004l0.054-0.004v0.054v0.054v0.054v0.054c0,0.087-0.004,0.206-0.018,0.346s-0.039,0.299-0.081,0.467
			s-0.101,0.342-0.184,0.511s-0.19,0.333-0.327,0.48c-0.138,0.147-0.3,0.261-0.471,0.35s-0.349,0.153-0.52,0.2
			s-0.334,0.075-0.474,0.094s-0.256,0.027-0.333,0.032l-0.054,0.004l-0.054,0.004l-0.054,0.004l-0.054,0.004v-0.054v-0.054v-0.054
			V13.371z M14.557,13.513c-0.111,0-0.247-0.005-0.395-0.021s-0.311-0.042-0.475-0.086s-0.332-0.103-0.492-0.186
			s-0.312-0.188-0.445-0.321c-0.146-0.137-0.259-0.299-0.348-0.468s-0.152-0.348-0.198-0.519s-0.075-0.334-0.093-0.473
			s-0.027-0.256-0.032-0.333l-0.004-0.054l-0.004-0.054l-0.004-0.054l-0.004-0.054h0.054h0.054h0.054h0.054
			c0.087,0,0.206,0.004,0.346,0.018s0.299,0.039,0.467,0.081s0.342,0.101,0.511,0.184s0.333,0.19,0.48,0.327
			c0.147,0.138,0.261,0.3,0.35,0.471s0.153,0.349,0.2,0.52s0.075,0.334,0.094,0.474s0.027,0.256,0.032,0.333l0.004,0.054
			l0.004,0.054l0.004,0.054l0.004,0.054h-0.054h-0.054H14.61H14.557z M16.983,17.839h-1.06h-1.06h-1.06h-1.06h-0.053h-0.053h-0.053
			h-0.053l0.003-0.053l0.003-0.053l0.003-0.053l0.003-0.053c0.016-0.309,0.093-0.602,0.217-0.867c0.125-0.265,0.298-0.502,0.508-0.7
			c0.21-0.198,0.457-0.358,0.729-0.468s0.569-0.171,0.88-0.171c0.312,0,0.608,0.059,0.878,0.168s0.513,0.266,0.718,0.464
			c0.206,0.197,0.375,0.434,0.496,0.7c0.121,0.266,0.195,0.561,0.212,0.875l0.003,0.053l0.003,0.053l0.003,0.053l0.003,0.053h-0.053
			h-0.053h-0.053H16.983z"/>
	</g>
</g>
<g>
	<path class="st0" d="M29.834,29.946h-7.432H14.97H7.538H0.106v-7.432v-7.432V7.649V0.217h7.432h7.432h7.432h7.432v7.432v7.432
		v7.432V29.946z M0.356,29.696h7.307h7.307h7.307h7.307v-7.307v-7.307V7.774V0.467h-7.307H14.97H7.663H0.356v7.307v7.307v7.307
		V29.696z"/>
</g>
</svg>
