<?xml version="1.0" encoding="utf-8"?>
<!-- Generator: Adobe Illustrator 19.1.0, SVG Export Plug-In . SVG Version: 6.00 Build 0)  -->
<svg version="1.1" id="Layer_1" xmlns="http://www.w3.org/2000/svg" xmlns:xlink="http://www.w3.org/1999/xlink" x="0px" y="0px"
	 viewBox="0 0 29.91 30.086" style="enable-background:new 0 0 29.91 30.086;" xml:space="preserve">
<style type="text/css">
	.st0{fill:#4D4D4D;}
	.st1{fill-rule:evenodd;clip-rule:evenodd;fill:#4C4C4C;}
	.st2{fill:#4C4C4C;}
	.st3{fill:#383330;}
	.st4{fill:#1F1A17;}
	.st5{fill:#4D4C4C;}
	.st6{fill:none;stroke:#000000;stroke-width:0.3;stroke-miterlimit:10;}
	.st7{fill:#E61413;}
	.st8{fill:#5F5357;}
	.st9{fill:#115C78;}
	.st10{fill-rule:evenodd;clip-rule:evenodd;fill:#4D4D4D;}
	.st11{fill-rule:evenodd;clip-rule:evenodd;}
	.st12{fill:#FFFFFF;}
	.st13{fill:none;}
	.st14{fill:#231F20;}
	.st15{clip-path:url(#SVGID_2_);}
	.st16{clip-path:url(#SVGID_4_);fill:#FCF118;}
	.st17{clip-path:url(#SVGID_4_);fill:#FCF018;}
	.st18{clip-path:url(#SVGID_4_);fill:#FCEF18;}
	.st19{clip-path:url(#SVGID_4_);fill:#FCEE18;}
	.st20{clip-path:url(#SVGID_4_);fill:#FCED18;}
	.st21{clip-path:url(#SVGID_4_);fill:#FCEC18;}
	.st22{clip-path:url(#SVGID_4_);fill:#FCEB18;}
	.st23{clip-path:url(#SVGID_4_);fill:#FCEA18;}
	.st24{clip-path:url(#SVGID_4_);fill:#FCE918;}
	.st25{clip-path:url(#SVGID_4_);fill:#FCE818;}
	.st26{clip-path:url(#SVGID_4_);fill:#FCE718;}
	.st27{clip-path:url(#SVGID_4_);fill:#FCE617;}
	.st28{clip-path:url(#SVGID_4_);fill:#FCE517;}
	.st29{clip-path:url(#SVGID_4_);fill:#FCE417;}
	.st30{clip-path:url(#SVGID_4_);fill:#FCE317;}
	.st31{clip-path:url(#SVGID_4_);fill:#FCE217;}
	.st32{clip-path:url(#SVGID_4_);fill:#FCE117;}
	.st33{clip-path:url(#SVGID_4_);fill:#FCE017;}
	.st34{clip-path:url(#SVGID_4_);fill:#FCDF17;}
	.st35{clip-path:url(#SVGID_4_);fill:#FCDE17;}
	.st36{clip-path:url(#SVGID_4_);fill:#FCDD17;}
	.st37{clip-path:url(#SVGID_4_);fill:#FCDC17;}
	.st38{clip-path:url(#SVGID_4_);fill:#FCDB17;}
	.st39{clip-path:url(#SVGID_4_);fill:#FCDA17;}
	.st40{clip-path:url(#SVGID_4_);fill:#FCD917;}
	.st41{clip-path:url(#SVGID_4_);fill:#FCD817;}
	.st42{clip-path:url(#SVGID_4_);fill:#FCD717;}
	.st43{clip-path:url(#SVGID_4_);fill:#FCD617;}
	.st44{clip-path:url(#SVGID_4_);fill:#FCD517;}
	.st45{clip-path:url(#SVGID_4_);fill:#FCD416;}
	.st46{clip-path:url(#SVGID_4_);fill:#FCD316;}
	.st47{clip-path:url(#SVGID_4_);fill:#FBD216;}
	.st48{clip-path:url(#SVGID_4_);fill:#FBD116;}
	.st49{clip-path:url(#SVGID_4_);fill:#FBD016;}
	.st50{clip-path:url(#SVGID_4_);fill:#FBCF16;}
	.st51{clip-path:url(#SVGID_4_);fill:#FBCE16;}
	.st52{clip-path:url(#SVGID_4_);fill:#FBCD16;}
	.st53{clip-path:url(#SVGID_4_);fill:#FBCC16;}
	.st54{clip-path:url(#SVGID_4_);fill:#FBCB16;}
	.st55{clip-path:url(#SVGID_4_);fill:#FBCA16;}
	.st56{clip-path:url(#SVGID_4_);fill:#FBC916;}
	.st57{clip-path:url(#SVGID_4_);fill:#FBC816;}
	.st58{clip-path:url(#SVGID_4_);fill:#FBC716;}
	.st59{clip-path:url(#SVGID_4_);fill:#FBC616;}
	.st60{clip-path:url(#SVGID_4_);fill:#FBC516;}
	.st61{clip-path:url(#SVGID_4_);fill:#FBC416;}
	.st62{clip-path:url(#SVGID_4_);fill:#FBC316;}
	.st63{clip-path:url(#SVGID_4_);fill:#FBC216;}
	.st64{clip-path:url(#SVGID_4_);fill:#FBC115;}
	.st65{clip-path:url(#SVGID_4_);fill:#FBC015;}
	.st66{clip-path:url(#SVGID_4_);fill:#FBBF15;}
	.st67{clip-path:url(#SVGID_4_);fill:#FBBE15;}
	.st68{clip-path:url(#SVGID_4_);fill:#FBBD15;}
	.st69{clip-path:url(#SVGID_4_);fill:#FBBC15;}
	.st70{clip-path:url(#SVGID_4_);fill:#FBBB15;}
	.st71{clip-path:url(#SVGID_4_);fill:#FBBA15;}
	.st72{clip-path:url(#SVGID_4_);fill:#FBB915;}
	.st73{clip-path:url(#SVGID_4_);fill:#FBB815;}
	.st74{clip-path:url(#SVGID_4_);fill:#FBB715;}
	.st75{clip-path:url(#SVGID_4_);fill:#FBB615;}
	.st76{clip-path:url(#SVGID_4_);fill:#FBB515;}
	.st77{clip-path:url(#SVGID_4_);fill:#FBB415;}
	.st78{clip-path:url(#SVGID_4_);fill:#FBB315;}
	.st79{clip-path:url(#SVGID_4_);fill:#FBB215;}
	.st80{clip-path:url(#SVGID_4_);fill:#FBB115;}
	.st81{clip-path:url(#SVGID_4_);fill:#FBB015;}
	.st82{clip-path:url(#SVGID_4_);fill:#FBAF15;}
	.st83{clip-path:url(#SVGID_4_);fill:#FAAE15;}
	.st84{clip-path:url(#SVGID_4_);fill:#FAAD14;}
	.st85{clip-path:url(#SVGID_4_);fill:#FAAC14;}
	.st86{clip-path:url(#SVGID_4_);fill:#FAAB14;}
	.st87{clip-path:url(#SVGID_4_);fill:#FAAA14;}
	.st88{clip-path:url(#SVGID_4_);fill:#FAA914;}
	.st89{clip-path:url(#SVGID_4_);fill:#FAA814;}
	.st90{clip-path:url(#SVGID_4_);fill:#FAA714;}
	.st91{clip-path:url(#SVGID_4_);fill:#FAA614;}
	.st92{clip-path:url(#SVGID_4_);fill:#FAA514;}
	.st93{clip-path:url(#SVGID_4_);fill:#FAA414;}
	.st94{clip-path:url(#SVGID_4_);fill:#FAA314;}
	.st95{clip-path:url(#SVGID_4_);fill:#FAA214;}
	.st96{clip-path:url(#SVGID_4_);fill:#FAA114;}
	.st97{clip-path:url(#SVGID_4_);fill:#FAA014;}
	.st98{clip-path:url(#SVGID_4_);fill:#FA9F14;}
	.st99{clip-path:url(#SVGID_4_);fill:#FA9E14;}
	.st100{clip-path:url(#SVGID_4_);fill:#FA9D14;}
	.st101{clip-path:url(#SVGID_4_);fill:#FA9C14;}
	.st102{clip-path:url(#SVGID_4_);fill:#FA9B14;}
	.st103{clip-path:url(#SVGID_4_);fill:#FA9A13;}
	.st104{clip-path:url(#SVGID_4_);fill:#FA9913;}
	.st105{clip-path:url(#SVGID_4_);fill:#FA9813;}
	.st106{clip-path:url(#SVGID_4_);fill:#FA9713;}
	.st107{clip-path:url(#SVGID_4_);fill:#FA9613;}
	.st108{clip-path:url(#SVGID_4_);fill:#FA9513;}
	.st109{clip-path:url(#SVGID_4_);fill:#FA9413;}
	.st110{clip-path:url(#SVGID_4_);fill:#FA9313;}
	.st111{clip-path:url(#SVGID_4_);fill:#FA9213;}
	.st112{clip-path:url(#SVGID_4_);fill:#FA9113;}
	.st113{clip-path:url(#SVGID_4_);fill:#FA9013;}
	.st114{clip-path:url(#SVGID_4_);fill:#FA8F13;}
	.st115{clip-path:url(#SVGID_4_);fill:#FA8E13;}
	.st116{clip-path:url(#SVGID_4_);fill:#FA8D13;}
	.st117{clip-path:url(#SVGID_4_);fill:#FA8C13;}
	.st118{clip-path:url(#SVGID_4_);fill:#FA8B13;}
	.st119{clip-path:url(#SVGID_4_);fill:#FA8A13;}
	.st120{clip-path:url(#SVGID_4_);fill:#FA8913;}
	.st121{clip-path:url(#SVGID_4_);fill:#FA8812;}
	.st122{clip-path:url(#SVGID_4_);fill:#FA8712;}
	.st123{clip-path:url(#SVGID_4_);fill:#FA8612;}
	.st124{clip-path:url(#SVGID_4_);fill:#F98512;}
	.st125{clip-path:url(#SVGID_4_);fill:#F98412;}
	.st126{clip-path:url(#SVGID_4_);fill:#F98312;}
	.st127{clip-path:url(#SVGID_4_);fill:#F98212;}
	.st128{clip-path:url(#SVGID_4_);fill:#F98112;}
	.st129{clip-path:url(#SVGID_4_);fill:#F98012;}
	.st130{clip-path:url(#SVGID_4_);fill:#F97F12;}
	.st131{clip-path:url(#SVGID_4_);fill:#F97E12;}
	.st132{clip-path:url(#SVGID_4_);fill:#F97D12;}
	.st133{clip-path:url(#SVGID_4_);fill:#F97C12;}
	.st134{clip-path:url(#SVGID_4_);fill:#F97B12;}
	.st135{clip-path:url(#SVGID_4_);fill:#F97A12;}
	.st136{clip-path:url(#SVGID_4_);fill:#F97912;}
	.st137{clip-path:url(#SVGID_4_);fill:#F97812;}
	.st138{clip-path:url(#SVGID_4_);fill:#F97712;}
	.st139{clip-path:url(#SVGID_4_);fill:#F97612;}
	.st140{clip-path:url(#SVGID_4_);fill:#F97511;}
	.st141{clip-path:url(#SVGID_4_);fill:#F97411;}
	.st142{clip-path:url(#SVGID_4_);fill:#F97311;}
	.st143{clip-path:url(#SVGID_4_);fill:#F97211;}
	.st144{clip-path:url(#SVGID_4_);fill:#F97111;}
	.st145{clip-path:url(#SVGID_4_);fill:#F97011;}
	.st146{clip-path:url(#SVGID_4_);fill:#F96F11;}
	.st147{clip-path:url(#SVGID_4_);fill:#F96E11;}
	.st148{clip-path:url(#SVGID_4_);fill:#F96D11;}
	.st149{clip-path:url(#SVGID_4_);fill:#F96C11;}
	.st150{clip-path:url(#SVGID_4_);fill:#F96B11;}
	.st151{clip-path:url(#SVGID_4_);fill:#F96A11;}
	.st152{clip-path:url(#SVGID_4_);fill:#F96911;}
	.st153{clip-path:url(#SVGID_4_);fill:#F96811;}
	.st154{clip-path:url(#SVGID_4_);fill:#F96711;}
	.st155{clip-path:url(#SVGID_4_);fill:#F96611;}
	.st156{clip-path:url(#SVGID_4_);fill:#F96511;}
	.st157{clip-path:url(#SVGID_4_);fill:#F96411;}
	.st158{clip-path:url(#SVGID_4_);fill:#F96311;}
	.st159{clip-path:url(#SVGID_4_);fill:#F96210;}
	.st160{clip-path:url(#SVGID_4_);fill:#F86110;}
	.st161{clip-path:url(#SVGID_4_);fill:#F86010;}
	.st162{clip-path:url(#SVGID_4_);fill:#F85F10;}
	.st163{clip-path:url(#SVGID_4_);fill:#F85E10;}
	.st164{clip-path:url(#SVGID_4_);fill:#F85D10;}
	.st165{clip-path:url(#SVGID_4_);fill:#F85C10;}
	.st166{clip-path:url(#SVGID_4_);fill:#F85B10;}
	.st167{clip-path:url(#SVGID_4_);fill:#F85A10;}
	.st168{clip-path:url(#SVGID_4_);fill:#F85910;}
	.st169{clip-path:url(#SVGID_4_);fill:#F85810;}
	.st170{clip-path:url(#SVGID_4_);fill:#F85710;}
	.st171{clip-path:url(#SVGID_4_);fill:#F85610;}
	.st172{clip-path:url(#SVGID_4_);fill:#F85510;}
	.st173{clip-path:url(#SVGID_4_);fill:#F85410;}
	.st174{clip-path:url(#SVGID_4_);fill:#F85310;}
	.st175{clip-path:url(#SVGID_4_);fill:#F85210;}
	.st176{clip-path:url(#SVGID_4_);fill:#F85110;}
	.st177{clip-path:url(#SVGID_4_);fill:#F85010;}
	.st178{clip-path:url(#SVGID_4_);fill:#F84F0F;}
	.st179{clip-path:url(#SVGID_4_);fill:#F84E0F;}
	.st180{clip-path:url(#SVGID_4_);fill:#F84D0F;}
	.st181{clip-path:url(#SVGID_4_);fill:#F84C0F;}
	.st182{clip-path:url(#SVGID_4_);fill:#F84B0F;}
	.st183{clip-path:url(#SVGID_4_);fill:#F84A0F;}
	.st184{clip-path:url(#SVGID_4_);fill:#F8490F;}
	.st185{clip-path:url(#SVGID_4_);fill:#F8480F;}
	.st186{clip-path:url(#SVGID_4_);fill:#F8470F;}
	.st187{clip-path:url(#SVGID_4_);fill:#F8460F;}
	.st188{clip-path:url(#SVGID_4_);fill:#F8450F;}
	.st189{clip-path:url(#SVGID_4_);fill:#F8440F;}
	.st190{clip-path:url(#SVGID_4_);fill:#F8430F;}
	.st191{clip-path:url(#SVGID_4_);fill:#F8420F;}
	.st192{clip-path:url(#SVGID_4_);fill:#F8410F;}
	.st193{clip-path:url(#SVGID_4_);fill:#F8400F;}
	.st194{clip-path:url(#SVGID_4_);fill:#F83F0F;}
	.st195{clip-path:url(#SVGID_4_);fill:#F83E0E;}
	.st196{clip-path:url(#SVGID_4_);fill:#F83D0E;}
	.st197{clip-path:url(#SVGID_4_);fill:#F83C0E;}
	.st198{clip-path:url(#SVGID_4_);fill:#F83B0E;}
	.st199{clip-path:url(#SVGID_4_);fill:#F73A0E;}
	.st200{clip-path:url(#SVGID_4_);fill:#F7390E;}
	.st201{clip-path:url(#SVGID_4_);fill:#F7380E;}
	.st202{clip-path:url(#SVGID_4_);fill:#F7370E;}
	.st203{clip-path:url(#SVGID_4_);fill:#F7360E;}
	.st204{clip-path:url(#SVGID_4_);fill:#F7340E;}
	.st205{clip-path:url(#SVGID_4_);fill:#F7330E;}
	.st206{clip-path:url(#SVGID_4_);fill:#F7320E;}
	.st207{clip-path:url(#SVGID_4_);fill:#F7310E;}
	.st208{clip-path:url(#SVGID_4_);fill:#F7300E;}
	.st209{clip-path:url(#SVGID_4_);fill:#F72F0E;}
	.st210{clip-path:url(#SVGID_4_);fill:#F72E0E;}
	.st211{clip-path:url(#SVGID_4_);fill:#F72D0E;}
	.st212{clip-path:url(#SVGID_4_);fill:#F72C0E;}
	.st213{clip-path:url(#SVGID_4_);fill:#F72B0E;}
	.st214{clip-path:url(#SVGID_4_);fill:#F72B0D;}
	.st215{clip-path:url(#SVGID_4_);fill:#F72A0D;}
	.st216{clip-path:url(#SVGID_4_);fill:#F7290D;}
	.st217{clip-path:url(#SVGID_4_);fill:#F7280D;}
	.st218{clip-path:url(#SVGID_4_);fill:#F7270D;}
	.st219{clip-path:url(#SVGID_4_);fill:#F7260D;}
</style>
<g>
	<path class="st0" d="M29.844,29.908h-7.432H14.98H7.548H0.116v-7.432v-7.432V7.611V0.179h7.432h7.432h7.432h7.432v7.432v7.432
		v7.432V29.908z M0.366,29.658h7.307h7.307h7.307h7.307V22.35v-7.307V7.736V0.429h-7.307H14.98H7.673H0.366v7.307v7.307v7.307
		V29.658z"/>
</g>
<g>
	<path class="st2" d="M13.831,7.106v0.577v0.577v0.577v0.577c0,0.103-0.007,0.199-0.022,0.291s-0.037,0.177-0.067,0.257
		s-0.067,0.155-0.111,0.224s-0.097,0.132-0.156,0.19s-0.125,0.108-0.196,0.152s-0.148,0.079-0.231,0.108s-0.171,0.051-0.266,0.065
		s-0.195,0.022-0.301,0.022c-0.103,0-0.201-0.007-0.293-0.022s-0.178-0.036-0.259-0.065s-0.156-0.065-0.225-0.109
		s-0.133-0.094-0.191-0.152c-0.058-0.058-0.109-0.122-0.152-0.191s-0.08-0.145-0.109-0.226s-0.051-0.167-0.065-0.26
		s-0.022-0.19-0.022-0.294V8.831V8.256V7.681V7.106h0.063h0.063h0.063h0.063v0.577v0.577v0.577v0.577
		c0,0.086,0.006,0.167,0.018,0.243s0.03,0.148,0.054,0.215s0.054,0.129,0.089,0.186s0.077,0.11,0.125,0.158s0.1,0.09,0.158,0.126
		s0.12,0.066,0.187,0.09s0.14,0.042,0.217,0.054s0.159,0.018,0.246,0.018c0.085,0,0.165-0.006,0.241-0.018s0.146-0.029,0.212-0.053
		s0.127-0.053,0.183-0.088s0.108-0.076,0.155-0.124c0.047-0.047,0.088-0.098,0.123-0.154s0.064-0.117,0.088-0.182
		s0.041-0.135,0.053-0.209s0.018-0.153,0.018-0.237V8.857V8.273V7.69V7.106h0.062h0.062h0.062H13.831z"/>
	<path class="st2" d="M16.207,8.877h0.329h0.329h0.329h0.329v0.407v0.407v0.407v0.407c-0.086,0.037-0.175,0.069-0.267,0.096
		s-0.186,0.05-0.283,0.069s-0.197,0.032-0.299,0.041s-0.208,0.014-0.315,0.014c-0.141,0-0.273-0.01-0.398-0.03
		s-0.241-0.05-0.348-0.09s-0.208-0.09-0.299-0.149s-0.175-0.129-0.25-0.209c-0.075-0.08-0.141-0.167-0.197-0.263
		s-0.103-0.2-0.141-0.313s-0.066-0.233-0.084-0.362s-0.028-0.266-0.028-0.412c0-0.091,0.005-0.179,0.014-0.265
		s0.023-0.169,0.042-0.249s0.042-0.158,0.07-0.234s0.06-0.148,0.097-0.218c0.037-0.07,0.079-0.137,0.124-0.199
		s0.095-0.121,0.148-0.175s0.111-0.104,0.172-0.151s0.127-0.088,0.196-0.127c0.069-0.038,0.141-0.072,0.216-0.1
		s0.152-0.053,0.231-0.072s0.162-0.033,0.247-0.043s0.172-0.014,0.262-0.014c0.097,0,0.192,0.004,0.284,0.013
		s0.182,0.022,0.269,0.04s0.172,0.04,0.254,0.067s0.162,0.058,0.239,0.094l-0.025,0.056l-0.025,0.056l-0.025,0.056L17.378,7.49
		c-0.077-0.036-0.155-0.067-0.234-0.094s-0.158-0.049-0.238-0.067s-0.161-0.031-0.243-0.04S16.5,7.275,16.417,7.275
		c-0.118,0-0.229,0.009-0.335,0.027s-0.205,0.045-0.298,0.082s-0.18,0.082-0.262,0.136s-0.156,0.118-0.225,0.191
		c-0.069,0.073-0.13,0.151-0.181,0.237c-0.052,0.085-0.095,0.177-0.129,0.275s-0.06,0.202-0.078,0.313s-0.026,0.228-0.026,0.351
		c0,0.134,0.008,0.26,0.025,0.378s0.041,0.227,0.074,0.328s0.074,0.194,0.123,0.278s0.106,0.16,0.172,0.228
		c0.066,0.068,0.139,0.127,0.22,0.178s0.169,0.093,0.266,0.127s0.2,0.059,0.312,0.076s0.231,0.025,0.358,0.025
		c0.082,0,0.161-0.003,0.237-0.009s0.149-0.014,0.219-0.026s0.136-0.026,0.2-0.044s0.124-0.038,0.181-0.061v-0.313V9.738V9.425
		V9.111h-0.266h-0.266h-0.266h-0.266V9.053V8.994V8.935V8.877z"/>
	<path class="st2" d="M18.668,9.121V9.51v0.389v0.389v0.389h-0.062h-0.062h-0.062h-0.062V9.783V8.891V7.999V7.106h0.212h0.212h0.212
		h0.212c0.111,0,0.214,0.005,0.31,0.015s0.185,0.026,0.267,0.046s0.156,0.046,0.224,0.077s0.127,0.066,0.18,0.107
		c0.053,0.041,0.099,0.087,0.139,0.138s0.073,0.108,0.099,0.169s0.046,0.128,0.06,0.2s0.02,0.149,0.02,0.231
		c0,0.06-0.004,0.118-0.012,0.173s-0.02,0.108-0.035,0.158s-0.035,0.098-0.059,0.144s-0.051,0.089-0.083,0.13
		c-0.032,0.041-0.067,0.08-0.107,0.115s-0.084,0.068-0.131,0.097s-0.1,0.056-0.156,0.08s-0.116,0.044-0.181,0.062l0.242,0.406
		l0.242,0.406l0.242,0.406l0.242,0.406h-0.074h-0.074h-0.074h-0.074l-0.23-0.389l-0.23-0.389l-0.23-0.389l-0.23-0.389h-0.222h-0.222
		h-0.222H18.668z M18.668,8.906h0.17h0.17h0.17h0.17c0.075,0,0.146-0.004,0.213-0.013s0.129-0.021,0.188-0.038
		s0.113-0.038,0.162-0.063s0.096-0.055,0.137-0.088c0.042-0.033,0.078-0.071,0.109-0.112s0.057-0.087,0.078-0.137
		s0.036-0.103,0.047-0.161s0.016-0.119,0.016-0.185c0-0.068-0.005-0.131-0.015-0.19s-0.025-0.113-0.046-0.162
		s-0.046-0.094-0.076-0.134s-0.066-0.076-0.107-0.107c-0.041-0.031-0.088-0.058-0.141-0.081s-0.113-0.043-0.18-0.058
		s-0.139-0.027-0.218-0.035s-0.165-0.012-0.257-0.012h-0.148h-0.148h-0.148h-0.148v0.394v0.394v0.394V8.906z"/>
	<path class="st2" d="M14.15,16.179l-0.606-0.267l-0.606-0.267l-0.606-0.267l-0.606-0.267v-0.087v-0.087v-0.087v-0.087l0.606-0.303
		l0.606-0.303l0.606-0.303l0.606-0.303v0.146v0.146v0.146v0.146l-0.417,0.193l-0.417,0.193l-0.417,0.193l-0.417,0.193l0.417,0.172
		l0.417,0.172l0.417,0.172l0.417,0.172v0.146v0.146v0.146V16.179z"/>
	<path class="st2" d="M16.431,16.676h-0.189h-0.189h-0.189h-0.189v-0.516v-0.516v-0.516V14.61l0.002-0.085l0.002-0.085l0.002-0.085
		l0.002-0.085l0.003-0.093l0.003-0.093l0.003-0.093l0.003-0.093c-0.031,0.031-0.06,0.06-0.087,0.086s-0.051,0.049-0.072,0.07
		s-0.041,0.038-0.058,0.053s-0.032,0.028-0.044,0.037l-0.103,0.083l-0.103,0.083l-0.103,0.083l-0.103,0.083l-0.091-0.114
		l-0.091-0.114l-0.091-0.114l-0.091-0.114l0.287-0.229l0.287-0.229l0.287-0.229l0.287-0.229h0.155h0.155h0.155h0.155v0.892v0.892
		v0.892V16.676z"/>
	<path class="st2" d="M19.9,14.63c0,0.176-0.009,0.34-0.028,0.494s-0.046,0.296-0.083,0.427s-0.083,0.251-0.139,0.36
		s-0.12,0.207-0.194,0.294c-0.074,0.086-0.158,0.162-0.251,0.227s-0.196,0.119-0.308,0.162s-0.234,0.076-0.365,0.098
		s-0.272,0.033-0.422,0.033c-0.053,0-0.103-0.001-0.149-0.002s-0.09-0.004-0.13-0.006s-0.077-0.006-0.111-0.011
		s-0.064-0.009-0.091-0.015v-0.151v-0.151v-0.151v-0.151c0.034,0.009,0.069,0.016,0.104,0.023s0.07,0.012,0.106,0.016
		s0.072,0.008,0.109,0.01s0.074,0.003,0.111,0.003c0.063,0,0.123-0.002,0.181-0.007s0.112-0.012,0.164-0.021
		s0.101-0.021,0.147-0.035s0.09-0.03,0.13-0.049s0.079-0.04,0.115-0.064s0.069-0.05,0.101-0.079s0.06-0.061,0.086-0.095
		s0.05-0.072,0.072-0.111c0.022-0.04,0.041-0.083,0.058-0.13s0.032-0.098,0.044-0.153s0.022-0.113,0.03-0.175
		s0.013-0.128,0.017-0.198h-0.007h-0.007h-0.007h-0.007c-0.024,0.038-0.048,0.074-0.074,0.106s-0.052,0.062-0.079,0.089
		s-0.055,0.051-0.085,0.072s-0.059,0.039-0.09,0.055s-0.064,0.029-0.099,0.04s-0.072,0.021-0.11,0.029s-0.079,0.014-0.122,0.017
		s-0.087,0.006-0.133,0.006c-0.078,0-0.151-0.006-0.221-0.019s-0.135-0.031-0.196-0.056s-0.118-0.056-0.171-0.093
		s-0.102-0.081-0.147-0.131s-0.084-0.104-0.118-0.164s-0.062-0.124-0.084-0.193s-0.039-0.144-0.05-0.223s-0.017-0.163-0.017-0.252
		c0-0.095,0.007-0.186,0.02-0.272s0.034-0.166,0.061-0.242s0.061-0.146,0.102-0.212s0.088-0.126,0.143-0.181
		c0.054-0.056,0.113-0.104,0.177-0.146s0.133-0.077,0.207-0.104s0.153-0.049,0.237-0.063s0.173-0.021,0.266-0.021
		c0.066,0,0.13,0.004,0.192,0.012s0.122,0.019,0.179,0.035s0.113,0.035,0.167,0.058s0.105,0.05,0.154,0.081
		c0.05,0.031,0.096,0.065,0.14,0.103s0.085,0.079,0.122,0.124s0.073,0.093,0.105,0.145s0.062,0.107,0.088,0.166
		s0.05,0.12,0.069,0.185s0.036,0.132,0.05,0.202s0.023,0.143,0.03,0.219S19.9,14.548,19.9,14.63z M18.608,13.67
		c-0.039,0-0.076,0.003-0.111,0.01s-0.067,0.017-0.098,0.031s-0.059,0.03-0.085,0.051s-0.05,0.044-0.072,0.071
		s-0.041,0.057-0.058,0.089s-0.03,0.068-0.041,0.107s-0.019,0.08-0.025,0.125s-0.008,0.092-0.008,0.142
		c0,0.043,0.003,0.084,0.007,0.123s0.012,0.075,0.022,0.109s0.022,0.066,0.037,0.096s0.032,0.057,0.052,0.082
		c0.02,0.025,0.042,0.048,0.068,0.067s0.053,0.035,0.083,0.048s0.063,0.022,0.099,0.029s0.074,0.01,0.114,0.01
		c0.038,0,0.075-0.003,0.111-0.009s0.07-0.016,0.102-0.028s0.064-0.028,0.094-0.047s0.059-0.041,0.086-0.066
		c0.027-0.025,0.051-0.051,0.071-0.078s0.037-0.055,0.051-0.084s0.024-0.059,0.031-0.089s0.01-0.062,0.01-0.095
		c0-0.048-0.003-0.095-0.01-0.139s-0.016-0.087-0.029-0.128s-0.029-0.08-0.048-0.117s-0.041-0.072-0.067-0.105
		c-0.025-0.033-0.053-0.063-0.081-0.088s-0.06-0.046-0.092-0.063s-0.067-0.029-0.103-0.038S18.648,13.67,18.608,13.67z"/>
</g>
<g>
	<path class="st0" d="M29.617,22.938v-0.061v-0.061v-0.061v-0.061c-1.128-0.469-2.283-0.886-3.461-1.248
		c-1.179-0.362-2.382-0.668-3.605-0.915s-2.469-0.436-3.731-0.563c-1.263-0.127-2.543-0.192-3.839-0.192
		c-1.296,0-2.577,0.065-3.839,0.192c-1.263,0.127-2.508,0.316-3.731,0.563s-2.426,0.554-3.605,0.915
		c-1.179,0.362-2.333,0.779-3.461,1.248v0.061v0.061v0.061v0.061c1.127-0.472,2.281-0.891,3.46-1.255
		c1.178-0.364,2.381-0.672,3.605-0.92s2.469-0.439,3.732-0.566c1.263-0.128,2.544-0.193,3.841-0.193c1.296,0,2.577,0.065,3.84,0.193
		c1.263,0.128,2.508,0.318,3.732,0.566s2.426,0.557,3.605,0.92C27.336,22.047,28.49,22.466,29.617,22.938"/>
</g>
</svg>
