<?xml version="1.0" encoding="utf-8"?>
<!-- Generator: Adobe Illustrator 19.1.0, SVG Export Plug-In . SVG Version: 6.00 Build 0)  -->
<svg version="1.1" id="Layer_1" xmlns="http://www.w3.org/2000/svg" xmlns:xlink="http://www.w3.org/1999/xlink" x="0px" y="0px"
	 viewBox="0 0 29.91 30.086" style="enable-background:new 0 0 29.91 30.086;" xml:space="preserve">
<style type="text/css">
	.st0{fill:#4D4D4D;}
	.st1{fill-rule:evenodd;clip-rule:evenodd;fill:#4C4C4C;}
	.st2{fill:#4C4C4C;}
	.st3{fill:#383330;}
	.st4{fill:#1F1A17;}
	.st5{fill:#4D4C4C;}
	.st6{fill:none;stroke:#000000;stroke-width:0.3;stroke-miterlimit:10;}
	.st7{fill:#E61413;}
	.st8{fill:#5F5357;}
	.st9{fill:#115C78;}
	.st10{fill-rule:evenodd;clip-rule:evenodd;fill:#4D4D4D;}
	.st11{fill-rule:evenodd;clip-rule:evenodd;}
	.st12{fill:#FFFFFF;}
	.st13{fill:none;}
	.st14{fill:#231F20;}
	.st15{clip-path:url(#SVGID_2_);}
	.st16{clip-path:url(#SVGID_4_);fill:#FCF118;}
	.st17{clip-path:url(#SVGID_4_);fill:#FCF018;}
	.st18{clip-path:url(#SVGID_4_);fill:#FCEF18;}
	.st19{clip-path:url(#SVGID_4_);fill:#FCEE18;}
	.st20{clip-path:url(#SVGID_4_);fill:#FCED18;}
	.st21{clip-path:url(#SVGID_4_);fill:#FCEC18;}
	.st22{clip-path:url(#SVGID_4_);fill:#FCEB18;}
	.st23{clip-path:url(#SVGID_4_);fill:#FCEA18;}
	.st24{clip-path:url(#SVGID_4_);fill:#FCE918;}
	.st25{clip-path:url(#SVGID_4_);fill:#FCE818;}
	.st26{clip-path:url(#SVGID_4_);fill:#FCE718;}
	.st27{clip-path:url(#SVGID_4_);fill:#FCE617;}
	.st28{clip-path:url(#SVGID_4_);fill:#FCE517;}
	.st29{clip-path:url(#SVGID_4_);fill:#FCE417;}
	.st30{clip-path:url(#SVGID_4_);fill:#FCE317;}
	.st31{clip-path:url(#SVGID_4_);fill:#FCE217;}
	.st32{clip-path:url(#SVGID_4_);fill:#FCE117;}
	.st33{clip-path:url(#SVGID_4_);fill:#FCE017;}
	.st34{clip-path:url(#SVGID_4_);fill:#FCDF17;}
	.st35{clip-path:url(#SVGID_4_);fill:#FCDE17;}
	.st36{clip-path:url(#SVGID_4_);fill:#FCDD17;}
	.st37{clip-path:url(#SVGID_4_);fill:#FCDC17;}
	.st38{clip-path:url(#SVGID_4_);fill:#FCDB17;}
	.st39{clip-path:url(#SVGID_4_);fill:#FCDA17;}
	.st40{clip-path:url(#SVGID_4_);fill:#FCD917;}
	.st41{clip-path:url(#SVGID_4_);fill:#FCD817;}
	.st42{clip-path:url(#SVGID_4_);fill:#FCD717;}
	.st43{clip-path:url(#SVGID_4_);fill:#FCD617;}
	.st44{clip-path:url(#SVGID_4_);fill:#FCD517;}
	.st45{clip-path:url(#SVGID_4_);fill:#FCD416;}
	.st46{clip-path:url(#SVGID_4_);fill:#FCD316;}
	.st47{clip-path:url(#SVGID_4_);fill:#FBD216;}
	.st48{clip-path:url(#SVGID_4_);fill:#FBD116;}
	.st49{clip-path:url(#SVGID_4_);fill:#FBD016;}
	.st50{clip-path:url(#SVGID_4_);fill:#FBCF16;}
	.st51{clip-path:url(#SVGID_4_);fill:#FBCE16;}
	.st52{clip-path:url(#SVGID_4_);fill:#FBCD16;}
	.st53{clip-path:url(#SVGID_4_);fill:#FBCC16;}
	.st54{clip-path:url(#SVGID_4_);fill:#FBCB16;}
	.st55{clip-path:url(#SVGID_4_);fill:#FBCA16;}
	.st56{clip-path:url(#SVGID_4_);fill:#FBC916;}
	.st57{clip-path:url(#SVGID_4_);fill:#FBC816;}
	.st58{clip-path:url(#SVGID_4_);fill:#FBC716;}
	.st59{clip-path:url(#SVGID_4_);fill:#FBC616;}
	.st60{clip-path:url(#SVGID_4_);fill:#FBC516;}
	.st61{clip-path:url(#SVGID_4_);fill:#FBC416;}
	.st62{clip-path:url(#SVGID_4_);fill:#FBC316;}
	.st63{clip-path:url(#SVGID_4_);fill:#FBC216;}
	.st64{clip-path:url(#SVGID_4_);fill:#FBC115;}
	.st65{clip-path:url(#SVGID_4_);fill:#FBC015;}
	.st66{clip-path:url(#SVGID_4_);fill:#FBBF15;}
	.st67{clip-path:url(#SVGID_4_);fill:#FBBE15;}
	.st68{clip-path:url(#SVGID_4_);fill:#FBBD15;}
	.st69{clip-path:url(#SVGID_4_);fill:#FBBC15;}
	.st70{clip-path:url(#SVGID_4_);fill:#FBBB15;}
	.st71{clip-path:url(#SVGID_4_);fill:#FBBA15;}
	.st72{clip-path:url(#SVGID_4_);fill:#FBB915;}
	.st73{clip-path:url(#SVGID_4_);fill:#FBB815;}
	.st74{clip-path:url(#SVGID_4_);fill:#FBB715;}
	.st75{clip-path:url(#SVGID_4_);fill:#FBB615;}
	.st76{clip-path:url(#SVGID_4_);fill:#FBB515;}
	.st77{clip-path:url(#SVGID_4_);fill:#FBB415;}
	.st78{clip-path:url(#SVGID_4_);fill:#FBB315;}
	.st79{clip-path:url(#SVGID_4_);fill:#FBB215;}
	.st80{clip-path:url(#SVGID_4_);fill:#FBB115;}
	.st81{clip-path:url(#SVGID_4_);fill:#FBB015;}
	.st82{clip-path:url(#SVGID_4_);fill:#FBAF15;}
	.st83{clip-path:url(#SVGID_4_);fill:#FAAE15;}
	.st84{clip-path:url(#SVGID_4_);fill:#FAAD14;}
	.st85{clip-path:url(#SVGID_4_);fill:#FAAC14;}
	.st86{clip-path:url(#SVGID_4_);fill:#FAAB14;}
	.st87{clip-path:url(#SVGID_4_);fill:#FAAA14;}
	.st88{clip-path:url(#SVGID_4_);fill:#FAA914;}
	.st89{clip-path:url(#SVGID_4_);fill:#FAA814;}
	.st90{clip-path:url(#SVGID_4_);fill:#FAA714;}
	.st91{clip-path:url(#SVGID_4_);fill:#FAA614;}
	.st92{clip-path:url(#SVGID_4_);fill:#FAA514;}
	.st93{clip-path:url(#SVGID_4_);fill:#FAA414;}
	.st94{clip-path:url(#SVGID_4_);fill:#FAA314;}
	.st95{clip-path:url(#SVGID_4_);fill:#FAA214;}
	.st96{clip-path:url(#SVGID_4_);fill:#FAA114;}
	.st97{clip-path:url(#SVGID_4_);fill:#FAA014;}
	.st98{clip-path:url(#SVGID_4_);fill:#FA9F14;}
	.st99{clip-path:url(#SVGID_4_);fill:#FA9E14;}
	.st100{clip-path:url(#SVGID_4_);fill:#FA9D14;}
	.st101{clip-path:url(#SVGID_4_);fill:#FA9C14;}
	.st102{clip-path:url(#SVGID_4_);fill:#FA9B14;}
	.st103{clip-path:url(#SVGID_4_);fill:#FA9A13;}
	.st104{clip-path:url(#SVGID_4_);fill:#FA9913;}
	.st105{clip-path:url(#SVGID_4_);fill:#FA9813;}
	.st106{clip-path:url(#SVGID_4_);fill:#FA9713;}
	.st107{clip-path:url(#SVGID_4_);fill:#FA9613;}
	.st108{clip-path:url(#SVGID_4_);fill:#FA9513;}
	.st109{clip-path:url(#SVGID_4_);fill:#FA9413;}
	.st110{clip-path:url(#SVGID_4_);fill:#FA9313;}
	.st111{clip-path:url(#SVGID_4_);fill:#FA9213;}
	.st112{clip-path:url(#SVGID_4_);fill:#FA9113;}
	.st113{clip-path:url(#SVGID_4_);fill:#FA9013;}
	.st114{clip-path:url(#SVGID_4_);fill:#FA8F13;}
	.st115{clip-path:url(#SVGID_4_);fill:#FA8E13;}
	.st116{clip-path:url(#SVGID_4_);fill:#FA8D13;}
	.st117{clip-path:url(#SVGID_4_);fill:#FA8C13;}
	.st118{clip-path:url(#SVGID_4_);fill:#FA8B13;}
	.st119{clip-path:url(#SVGID_4_);fill:#FA8A13;}
	.st120{clip-path:url(#SVGID_4_);fill:#FA8913;}
	.st121{clip-path:url(#SVGID_4_);fill:#FA8812;}
	.st122{clip-path:url(#SVGID_4_);fill:#FA8712;}
	.st123{clip-path:url(#SVGID_4_);fill:#FA8612;}
	.st124{clip-path:url(#SVGID_4_);fill:#F98512;}
	.st125{clip-path:url(#SVGID_4_);fill:#F98412;}
	.st126{clip-path:url(#SVGID_4_);fill:#F98312;}
	.st127{clip-path:url(#SVGID_4_);fill:#F98212;}
	.st128{clip-path:url(#SVGID_4_);fill:#F98112;}
	.st129{clip-path:url(#SVGID_4_);fill:#F98012;}
	.st130{clip-path:url(#SVGID_4_);fill:#F97F12;}
	.st131{clip-path:url(#SVGID_4_);fill:#F97E12;}
	.st132{clip-path:url(#SVGID_4_);fill:#F97D12;}
	.st133{clip-path:url(#SVGID_4_);fill:#F97C12;}
	.st134{clip-path:url(#SVGID_4_);fill:#F97B12;}
	.st135{clip-path:url(#SVGID_4_);fill:#F97A12;}
	.st136{clip-path:url(#SVGID_4_);fill:#F97912;}
	.st137{clip-path:url(#SVGID_4_);fill:#F97812;}
	.st138{clip-path:url(#SVGID_4_);fill:#F97712;}
	.st139{clip-path:url(#SVGID_4_);fill:#F97612;}
	.st140{clip-path:url(#SVGID_4_);fill:#F97511;}
	.st141{clip-path:url(#SVGID_4_);fill:#F97411;}
	.st142{clip-path:url(#SVGID_4_);fill:#F97311;}
	.st143{clip-path:url(#SVGID_4_);fill:#F97211;}
	.st144{clip-path:url(#SVGID_4_);fill:#F97111;}
	.st145{clip-path:url(#SVGID_4_);fill:#F97011;}
	.st146{clip-path:url(#SVGID_4_);fill:#F96F11;}
	.st147{clip-path:url(#SVGID_4_);fill:#F96E11;}
	.st148{clip-path:url(#SVGID_4_);fill:#F96D11;}
	.st149{clip-path:url(#SVGID_4_);fill:#F96C11;}
	.st150{clip-path:url(#SVGID_4_);fill:#F96B11;}
	.st151{clip-path:url(#SVGID_4_);fill:#F96A11;}
	.st152{clip-path:url(#SVGID_4_);fill:#F96911;}
	.st153{clip-path:url(#SVGID_4_);fill:#F96811;}
	.st154{clip-path:url(#SVGID_4_);fill:#F96711;}
	.st155{clip-path:url(#SVGID_4_);fill:#F96611;}
	.st156{clip-path:url(#SVGID_4_);fill:#F96511;}
	.st157{clip-path:url(#SVGID_4_);fill:#F96411;}
	.st158{clip-path:url(#SVGID_4_);fill:#F96311;}
	.st159{clip-path:url(#SVGID_4_);fill:#F96210;}
	.st160{clip-path:url(#SVGID_4_);fill:#F86110;}
	.st161{clip-path:url(#SVGID_4_);fill:#F86010;}
	.st162{clip-path:url(#SVGID_4_);fill:#F85F10;}
	.st163{clip-path:url(#SVGID_4_);fill:#F85E10;}
	.st164{clip-path:url(#SVGID_4_);fill:#F85D10;}
	.st165{clip-path:url(#SVGID_4_);fill:#F85C10;}
	.st166{clip-path:url(#SVGID_4_);fill:#F85B10;}
	.st167{clip-path:url(#SVGID_4_);fill:#F85A10;}
	.st168{clip-path:url(#SVGID_4_);fill:#F85910;}
	.st169{clip-path:url(#SVGID_4_);fill:#F85810;}
	.st170{clip-path:url(#SVGID_4_);fill:#F85710;}
	.st171{clip-path:url(#SVGID_4_);fill:#F85610;}
	.st172{clip-path:url(#SVGID_4_);fill:#F85510;}
	.st173{clip-path:url(#SVGID_4_);fill:#F85410;}
	.st174{clip-path:url(#SVGID_4_);fill:#F85310;}
	.st175{clip-path:url(#SVGID_4_);fill:#F85210;}
	.st176{clip-path:url(#SVGID_4_);fill:#F85110;}
	.st177{clip-path:url(#SVGID_4_);fill:#F85010;}
	.st178{clip-path:url(#SVGID_4_);fill:#F84F0F;}
	.st179{clip-path:url(#SVGID_4_);fill:#F84E0F;}
	.st180{clip-path:url(#SVGID_4_);fill:#F84D0F;}
	.st181{clip-path:url(#SVGID_4_);fill:#F84C0F;}
	.st182{clip-path:url(#SVGID_4_);fill:#F84B0F;}
	.st183{clip-path:url(#SVGID_4_);fill:#F84A0F;}
	.st184{clip-path:url(#SVGID_4_);fill:#F8490F;}
	.st185{clip-path:url(#SVGID_4_);fill:#F8480F;}
	.st186{clip-path:url(#SVGID_4_);fill:#F8470F;}
	.st187{clip-path:url(#SVGID_4_);fill:#F8460F;}
	.st188{clip-path:url(#SVGID_4_);fill:#F8450F;}
	.st189{clip-path:url(#SVGID_4_);fill:#F8440F;}
	.st190{clip-path:url(#SVGID_4_);fill:#F8430F;}
	.st191{clip-path:url(#SVGID_4_);fill:#F8420F;}
	.st192{clip-path:url(#SVGID_4_);fill:#F8410F;}
	.st193{clip-path:url(#SVGID_4_);fill:#F8400F;}
	.st194{clip-path:url(#SVGID_4_);fill:#F83F0F;}
	.st195{clip-path:url(#SVGID_4_);fill:#F83E0E;}
	.st196{clip-path:url(#SVGID_4_);fill:#F83D0E;}
	.st197{clip-path:url(#SVGID_4_);fill:#F83C0E;}
	.st198{clip-path:url(#SVGID_4_);fill:#F83B0E;}
	.st199{clip-path:url(#SVGID_4_);fill:#F73A0E;}
	.st200{clip-path:url(#SVGID_4_);fill:#F7390E;}
	.st201{clip-path:url(#SVGID_4_);fill:#F7380E;}
	.st202{clip-path:url(#SVGID_4_);fill:#F7370E;}
	.st203{clip-path:url(#SVGID_4_);fill:#F7360E;}
	.st204{clip-path:url(#SVGID_4_);fill:#F7340E;}
	.st205{clip-path:url(#SVGID_4_);fill:#F7330E;}
	.st206{clip-path:url(#SVGID_4_);fill:#F7320E;}
	.st207{clip-path:url(#SVGID_4_);fill:#F7310E;}
	.st208{clip-path:url(#SVGID_4_);fill:#F7300E;}
	.st209{clip-path:url(#SVGID_4_);fill:#F72F0E;}
	.st210{clip-path:url(#SVGID_4_);fill:#F72E0E;}
	.st211{clip-path:url(#SVGID_4_);fill:#F72D0E;}
	.st212{clip-path:url(#SVGID_4_);fill:#F72C0E;}
	.st213{clip-path:url(#SVGID_4_);fill:#F72B0E;}
	.st214{clip-path:url(#SVGID_4_);fill:#F72B0D;}
	.st215{clip-path:url(#SVGID_4_);fill:#F72A0D;}
	.st216{clip-path:url(#SVGID_4_);fill:#F7290D;}
	.st217{clip-path:url(#SVGID_4_);fill:#F7280D;}
	.st218{clip-path:url(#SVGID_4_);fill:#F7270D;}
	.st219{clip-path:url(#SVGID_4_);fill:#F7260D;}
</style>
<g>
	<path class="st0" d="M29.819,29.908h-7.432h-7.432H7.523H0.091v-1.663v-1.663V24.92v-1.663l0,0l0,0l0,0l0,0l0-5.77l0-5.77l0-5.77
		l0-5.77h7.432h7.432h7.432h7.432v7.432v7.432v7.432V29.908z M0.341,29.658h7.307h7.307h7.307h7.307v-1.634V26.39v-1.634v-1.634
		c-0.978-0.525-2.035-0.991-3.158-1.395s-2.31-0.745-3.547-1.021s-2.525-0.486-3.848-0.627s-2.682-0.213-4.061-0.213
		c-1.379,0-2.738,0.072-4.061,0.213s-2.611,0.351-3.848,0.627s-2.425,0.617-3.547,1.021s-2.18,0.87-3.158,1.395v1.634v1.634v1.634
		V29.658z M14.955,19.616c1.375,0,2.731,0.071,4.051,0.211s2.607,0.348,3.844,0.621s2.425,0.611,3.55,1.011s2.186,0.861,3.169,1.381
		v-5.602v-5.602V6.032V0.43h-7.307h-7.307H7.648H0.341v5.602v5.602v5.602v5.602c0.983-0.52,2.044-0.981,3.169-1.381
		s2.313-0.738,3.55-1.01s2.523-0.481,3.844-0.621S13.58,19.616,14.955,19.616z"/>
</g>
<g>
	<path class="st0" d="M8.637,8.898L8.637,8.898L8.637,8.898L8.637,8.898l0.001,0.001C8.645,8.892,8.653,8.886,8.66,8.88
		s0.015-0.012,0.023-0.017s0.015-0.012,0.023-0.018s0.015-0.013,0.022-0.02C8.734,8.819,8.74,8.812,8.746,8.804
		C8.752,8.797,8.758,8.79,8.764,8.782s0.011-0.015,0.017-0.023c0.006-0.007,0.012-0.015,0.018-0.022l0,0l0,0l0,0l0,0
		C8.785,8.751,8.772,8.764,8.759,8.778s-0.026,0.027-0.04,0.041s-0.027,0.027-0.04,0.04S8.651,8.885,8.637,8.898"/>
</g>
<g>
	<polygon class="st0" points="20.054,20.066 20.033,20.045 20.013,20.025 19.992,20.004 19.971,19.983 17.142,17.174 14.312,14.365 
		11.483,11.555 8.654,8.746 8.693,8.706 8.733,8.666 8.772,8.625 8.811,8.585 11.62,11.373 14.428,14.162 17.237,16.95 
		20.045,19.738 21.723,17.875 23.401,16.012 25.079,14.148 26.757,12.285 26.798,12.323 26.84,12.362 26.882,12.4 26.923,12.438 
		25.206,14.345 23.489,16.252 21.771,18.159 	"/>
</g>
<g>
	<polygon class="st0" points="14.498,19.938 12.814,17.32 11.131,14.703 9.447,12.085 7.764,9.468 7.811,9.437 7.859,9.407 
		7.907,9.377 7.955,9.347 9.598,11.899 11.24,14.452 12.883,17.004 14.526,19.557 16.35,17.443 18.173,15.329 19.997,13.215 
		21.821,11.102 21.864,11.139 21.907,11.176 21.95,11.213 21.993,11.25 20.119,13.422 18.245,15.594 16.371,17.766 	"/>
</g>
<g>
	<polygon class="st0" points="6.394,20.937 6.453,18.123 6.511,15.309 6.569,12.495 6.627,9.681 6.684,9.683 6.741,9.684 
		6.798,9.685 6.854,9.686 6.799,12.355 6.744,15.024 6.689,17.693 6.633,20.361 9.021,17.832 11.409,15.303 13.797,12.774 
		16.185,10.245 16.226,10.285 16.267,10.324 16.308,10.363 16.348,10.402 13.86,13.036 11.371,15.67 8.883,18.304 	"/>
</g>
<g>
	<path class="st0" d="M27.588,13.189l-0.447-0.444l-0.447-0.444l-0.447-0.444l-0.447-0.444l0.654-0.206l0.654-0.206l0.654-0.206
		l0.654-0.206l-0.207,0.65l-0.207,0.65l-0.207,0.65L27.588,13.189z M26.271,11.528l0.301,0.299l0.301,0.299l0.301,0.299l0.301,0.299
		l0.139-0.438l0.139-0.438l0.139-0.438l0.139-0.438l-0.44,0.139l-0.44,0.139l-0.44,0.139L26.271,11.528z M22.612,12.101
		l-0.447-0.444l-0.447-0.444l-0.447-0.444l-0.447-0.444l0.654-0.206l0.654-0.206l0.654-0.206l0.654-0.206l-0.207,0.65l-0.207,0.65
		l-0.207,0.65L22.612,12.101z M21.295,10.44l0.301,0.299l0.301,0.299l0.301,0.299l0.301,0.299l0.139-0.438l0.139-0.438l0.139-0.438
		l0.139-0.438l-0.44,0.139l-0.44,0.139l-0.44,0.139L21.295,10.44z M17.081,11.323l-0.447-0.444l-0.447-0.444l-0.447-0.444
		l-0.447-0.444l0.654-0.206l0.654-0.206l0.654-0.206l0.654-0.206l-0.207,0.65l-0.207,0.65l-0.207,0.65L17.081,11.323z M15.765,9.662
		l0.301,0.299l0.301,0.299l0.301,0.299l0.301,0.299l0.14-0.438l0.14-0.438l0.14-0.438l0.14-0.438l-0.44,0.139l-0.44,0.139
		l-0.44,0.139L15.765,9.662z"/>
</g>
<g>
	<path class="st0" d="M6.668,9.705c-0.421,0-0.822-0.086-1.187-0.24S4.786,9.086,4.51,8.809s-0.5-0.606-0.655-0.971
		C3.7,7.473,3.615,7.071,3.615,6.65c0-0.421,0.086-0.823,0.24-1.188C4.01,5.097,4.234,4.768,4.51,4.491s0.605-0.5,0.971-0.655
		s0.766-0.24,1.187-0.24c0.421,0,0.823,0.086,1.188,0.24s0.695,0.379,0.971,0.655s0.501,0.606,0.655,0.971s0.24,0.767,0.24,1.188
		c0,0.421-0.086,0.822-0.24,1.188C9.328,8.203,9.104,8.533,8.827,8.809s-0.606,0.5-0.971,0.655S7.089,9.705,6.668,9.705z
		 M6.668,3.846c-0.386,0-0.755,0.079-1.09,0.221C5.243,4.209,4.94,4.414,4.687,4.668S4.227,5.224,4.085,5.56
		C3.943,5.895,3.865,6.264,3.865,6.65s0.079,0.755,0.221,1.091c0.142,0.335,0.348,0.638,0.601,0.891s0.556,0.459,0.891,0.602
		s0.704,0.221,1.09,0.221c0.387,0,0.755-0.079,1.091-0.221s0.638-0.348,0.892-0.602s0.46-0.556,0.602-0.891
		C9.395,7.406,9.473,7.037,9.473,6.65S9.395,5.895,9.252,5.56S8.905,4.922,8.651,4.668s-0.556-0.46-0.892-0.602
		C7.423,3.924,7.055,3.846,6.668,3.846z"/>
</g>
<g>
	<path class="st0" d="M6.783,3.721V3.164V2.608V2.051V1.495H6.726H6.669H6.613H6.556v0.557v0.557v0.557v0.557
		c0.01,0,0.019-0.001,0.029-0.002s0.019-0.002,0.028-0.004s0.019-0.003,0.028-0.004S6.66,3.71,6.67,3.71
		c0.01,0,0.019,0.001,0.028,0.002s0.019,0.002,0.028,0.004s0.019,0.003,0.028,0.004S6.773,3.72,6.783,3.721"/>
</g>
<g>
	<path class="st0" d="M9.609,6.65c0,0.007,0,0.014-0.001,0.021s-0.002,0.014-0.003,0.02s-0.002,0.013-0.003,0.02
		s-0.001,0.013-0.002,0.02c0,0.003-0.001,0.005-0.001,0.008S9.6,6.745,9.6,6.748S9.599,6.753,9.599,6.755s0,0.005,0,0.008h0.557
		h0.557h0.557h0.557V6.707V6.65V6.594V6.537h-0.557h-0.557h-0.557H9.598c0,0.003,0,0.005,0,0.008s0,0.005,0.001,0.008
		S9.6,6.558,9.601,6.561s0.001,0.006,0.001,0.008c0,0.007,0.001,0.014,0.002,0.021s0.002,0.013,0.003,0.02s0.002,0.013,0.003,0.02
		S9.609,6.643,9.609,6.65"/>
</g>
<g>
	<path class="st0" d="M1.525,6.537c0,0.007,0,0.014-0.001,0.021s-0.002,0.014-0.003,0.02s-0.002,0.013-0.003,0.02
		s-0.001,0.013-0.002,0.02c0,0.003-0.001,0.005-0.001,0.008S1.515,6.632,1.515,6.635S1.514,6.64,1.514,6.642s0,0.005,0,0.008H2.07
		h0.557h0.557H3.74V6.594V6.537V6.481V6.424H3.183H2.627H2.07H1.513c0,0.003,0,0.005,0,0.008s0,0.005,0.001,0.008
		s0.001,0.005,0.001,0.008s0.001,0.006,0.001,0.008c0,0.007,0.001,0.014,0.002,0.021S1.52,6.49,1.521,6.497s0.002,0.013,0.003,0.02
		S1.525,6.53,1.525,6.537"/>
</g>
<g>
	<path class="st0" d="M8.892,4.588l0.393-0.393l0.393-0.393l0.393-0.393l0.393-0.393l-0.04-0.04l-0.04-0.04l-0.04-0.04l-0.04-0.04
		L9.911,3.247L9.517,3.64L9.124,4.034L8.731,4.427C8.738,4.434,8.745,4.44,8.753,4.446s0.015,0.012,0.023,0.017
		S8.791,4.474,8.798,4.48S8.813,4.493,8.82,4.5c0.007,0.007,0.013,0.014,0.019,0.021c0.006,0.007,0.012,0.015,0.017,0.022
		s0.011,0.015,0.017,0.023C8.879,4.573,8.885,4.581,8.892,4.588"/>
</g>
<g>
	<path class="st0" d="M3.033,10.447l0.393-0.393L3.82,9.66l0.393-0.393l0.393-0.393l-0.04-0.04l-0.04-0.04l-0.04-0.04l-0.04-0.04
		L4.052,9.106L3.659,9.499L3.265,9.893l-0.393,0.393c0.007,0.007,0.014,0.013,0.022,0.019s0.015,0.012,0.023,0.017
		s0.015,0.011,0.023,0.017s0.015,0.012,0.022,0.019c0.007,0.007,0.013,0.014,0.019,0.021c0.006,0.007,0.012,0.015,0.017,0.022
		s0.011,0.015,0.017,0.023C3.021,10.432,3.027,10.44,3.033,10.447"/>
</g>
<g>
	<path class="st0" d="M4.687,4.427L4.293,4.034L3.9,3.64L3.506,3.247L3.113,2.853l-0.04,0.04l-0.04,0.04l-0.04,0.04l-0.04,0.04
		l0.393,0.394l0.393,0.394l0.393,0.394l0.393,0.394c0.007-0.007,0.013-0.015,0.018-0.022s0.012-0.015,0.017-0.023
		s0.012-0.015,0.018-0.022s0.013-0.015,0.02-0.022C4.606,4.492,4.613,4.486,4.62,4.48s0.015-0.012,0.022-0.017
		s0.015-0.011,0.023-0.017S4.68,4.434,4.687,4.427"/>
</g>
</svg>
