<?xml version="1.0" encoding="utf-8"?>
<!-- Generator: Adobe Illustrator 19.1.0, SVG Export Plug-In . SVG Version: 6.00 Build 0)  -->
<svg version="1.1" id="Layer_1" xmlns="http://www.w3.org/2000/svg" xmlns:xlink="http://www.w3.org/1999/xlink" x="0px" y="0px"
	 viewBox="0 0 29.91 30.086" style="enable-background:new 0 0 29.91 30.086;" xml:space="preserve">
<style type="text/css">
	.st0{fill:#4D4D4D;}
	.st1{fill-rule:evenodd;clip-rule:evenodd;fill:#4C4C4C;}
	.st2{fill:#4C4C4C;}
	.st3{fill:#383330;}
	.st4{fill:#1F1A17;}
	.st5{fill:#4D4C4C;}
	.st6{fill:none;stroke:#000000;stroke-width:0.3;stroke-miterlimit:10;}
	.st7{fill:#E61413;}
	.st8{fill:#5F5357;}
	.st9{fill:#115C78;}
	.st10{fill-rule:evenodd;clip-rule:evenodd;fill:#4D4D4D;}
	.st11{fill-rule:evenodd;clip-rule:evenodd;}
	.st12{fill:#FFFFFF;}
	.st13{fill:none;}
	.st14{fill:#231F20;}
	.st15{clip-path:url(#SVGID_2_);}
	.st16{clip-path:url(#SVGID_4_);fill:#FCF118;}
	.st17{clip-path:url(#SVGID_4_);fill:#FCF018;}
	.st18{clip-path:url(#SVGID_4_);fill:#FCEF18;}
	.st19{clip-path:url(#SVGID_4_);fill:#FCEE18;}
	.st20{clip-path:url(#SVGID_4_);fill:#FCED18;}
	.st21{clip-path:url(#SVGID_4_);fill:#FCEC18;}
	.st22{clip-path:url(#SVGID_4_);fill:#FCEB18;}
	.st23{clip-path:url(#SVGID_4_);fill:#FCEA18;}
	.st24{clip-path:url(#SVGID_4_);fill:#FCE918;}
	.st25{clip-path:url(#SVGID_4_);fill:#FCE818;}
	.st26{clip-path:url(#SVGID_4_);fill:#FCE718;}
	.st27{clip-path:url(#SVGID_4_);fill:#FCE617;}
	.st28{clip-path:url(#SVGID_4_);fill:#FCE517;}
	.st29{clip-path:url(#SVGID_4_);fill:#FCE417;}
	.st30{clip-path:url(#SVGID_4_);fill:#FCE317;}
	.st31{clip-path:url(#SVGID_4_);fill:#FCE217;}
	.st32{clip-path:url(#SVGID_4_);fill:#FCE117;}
	.st33{clip-path:url(#SVGID_4_);fill:#FCE017;}
	.st34{clip-path:url(#SVGID_4_);fill:#FCDF17;}
	.st35{clip-path:url(#SVGID_4_);fill:#FCDE17;}
	.st36{clip-path:url(#SVGID_4_);fill:#FCDD17;}
	.st37{clip-path:url(#SVGID_4_);fill:#FCDC17;}
	.st38{clip-path:url(#SVGID_4_);fill:#FCDB17;}
	.st39{clip-path:url(#SVGID_4_);fill:#FCDA17;}
	.st40{clip-path:url(#SVGID_4_);fill:#FCD917;}
	.st41{clip-path:url(#SVGID_4_);fill:#FCD817;}
	.st42{clip-path:url(#SVGID_4_);fill:#FCD717;}
	.st43{clip-path:url(#SVGID_4_);fill:#FCD617;}
	.st44{clip-path:url(#SVGID_4_);fill:#FCD517;}
	.st45{clip-path:url(#SVGID_4_);fill:#FCD416;}
	.st46{clip-path:url(#SVGID_4_);fill:#FCD316;}
	.st47{clip-path:url(#SVGID_4_);fill:#FBD216;}
	.st48{clip-path:url(#SVGID_4_);fill:#FBD116;}
	.st49{clip-path:url(#SVGID_4_);fill:#FBD016;}
	.st50{clip-path:url(#SVGID_4_);fill:#FBCF16;}
	.st51{clip-path:url(#SVGID_4_);fill:#FBCE16;}
	.st52{clip-path:url(#SVGID_4_);fill:#FBCD16;}
	.st53{clip-path:url(#SVGID_4_);fill:#FBCC16;}
	.st54{clip-path:url(#SVGID_4_);fill:#FBCB16;}
	.st55{clip-path:url(#SVGID_4_);fill:#FBCA16;}
	.st56{clip-path:url(#SVGID_4_);fill:#FBC916;}
	.st57{clip-path:url(#SVGID_4_);fill:#FBC816;}
	.st58{clip-path:url(#SVGID_4_);fill:#FBC716;}
	.st59{clip-path:url(#SVGID_4_);fill:#FBC616;}
	.st60{clip-path:url(#SVGID_4_);fill:#FBC516;}
	.st61{clip-path:url(#SVGID_4_);fill:#FBC416;}
	.st62{clip-path:url(#SVGID_4_);fill:#FBC316;}
	.st63{clip-path:url(#SVGID_4_);fill:#FBC216;}
	.st64{clip-path:url(#SVGID_4_);fill:#FBC115;}
	.st65{clip-path:url(#SVGID_4_);fill:#FBC015;}
	.st66{clip-path:url(#SVGID_4_);fill:#FBBF15;}
	.st67{clip-path:url(#SVGID_4_);fill:#FBBE15;}
	.st68{clip-path:url(#SVGID_4_);fill:#FBBD15;}
	.st69{clip-path:url(#SVGID_4_);fill:#FBBC15;}
	.st70{clip-path:url(#SVGID_4_);fill:#FBBB15;}
	.st71{clip-path:url(#SVGID_4_);fill:#FBBA15;}
	.st72{clip-path:url(#SVGID_4_);fill:#FBB915;}
	.st73{clip-path:url(#SVGID_4_);fill:#FBB815;}
	.st74{clip-path:url(#SVGID_4_);fill:#FBB715;}
	.st75{clip-path:url(#SVGID_4_);fill:#FBB615;}
	.st76{clip-path:url(#SVGID_4_);fill:#FBB515;}
	.st77{clip-path:url(#SVGID_4_);fill:#FBB415;}
	.st78{clip-path:url(#SVGID_4_);fill:#FBB315;}
	.st79{clip-path:url(#SVGID_4_);fill:#FBB215;}
	.st80{clip-path:url(#SVGID_4_);fill:#FBB115;}
	.st81{clip-path:url(#SVGID_4_);fill:#FBB015;}
	.st82{clip-path:url(#SVGID_4_);fill:#FBAF15;}
	.st83{clip-path:url(#SVGID_4_);fill:#FAAE15;}
	.st84{clip-path:url(#SVGID_4_);fill:#FAAD14;}
	.st85{clip-path:url(#SVGID_4_);fill:#FAAC14;}
	.st86{clip-path:url(#SVGID_4_);fill:#FAAB14;}
	.st87{clip-path:url(#SVGID_4_);fill:#FAAA14;}
	.st88{clip-path:url(#SVGID_4_);fill:#FAA914;}
	.st89{clip-path:url(#SVGID_4_);fill:#FAA814;}
	.st90{clip-path:url(#SVGID_4_);fill:#FAA714;}
	.st91{clip-path:url(#SVGID_4_);fill:#FAA614;}
	.st92{clip-path:url(#SVGID_4_);fill:#FAA514;}
	.st93{clip-path:url(#SVGID_4_);fill:#FAA414;}
	.st94{clip-path:url(#SVGID_4_);fill:#FAA314;}
	.st95{clip-path:url(#SVGID_4_);fill:#FAA214;}
	.st96{clip-path:url(#SVGID_4_);fill:#FAA114;}
	.st97{clip-path:url(#SVGID_4_);fill:#FAA014;}
	.st98{clip-path:url(#SVGID_4_);fill:#FA9F14;}
	.st99{clip-path:url(#SVGID_4_);fill:#FA9E14;}
	.st100{clip-path:url(#SVGID_4_);fill:#FA9D14;}
	.st101{clip-path:url(#SVGID_4_);fill:#FA9C14;}
	.st102{clip-path:url(#SVGID_4_);fill:#FA9B14;}
	.st103{clip-path:url(#SVGID_4_);fill:#FA9A13;}
	.st104{clip-path:url(#SVGID_4_);fill:#FA9913;}
	.st105{clip-path:url(#SVGID_4_);fill:#FA9813;}
	.st106{clip-path:url(#SVGID_4_);fill:#FA9713;}
	.st107{clip-path:url(#SVGID_4_);fill:#FA9613;}
	.st108{clip-path:url(#SVGID_4_);fill:#FA9513;}
	.st109{clip-path:url(#SVGID_4_);fill:#FA9413;}
	.st110{clip-path:url(#SVGID_4_);fill:#FA9313;}
	.st111{clip-path:url(#SVGID_4_);fill:#FA9213;}
	.st112{clip-path:url(#SVGID_4_);fill:#FA9113;}
	.st113{clip-path:url(#SVGID_4_);fill:#FA9013;}
	.st114{clip-path:url(#SVGID_4_);fill:#FA8F13;}
	.st115{clip-path:url(#SVGID_4_);fill:#FA8E13;}
	.st116{clip-path:url(#SVGID_4_);fill:#FA8D13;}
	.st117{clip-path:url(#SVGID_4_);fill:#FA8C13;}
	.st118{clip-path:url(#SVGID_4_);fill:#FA8B13;}
	.st119{clip-path:url(#SVGID_4_);fill:#FA8A13;}
	.st120{clip-path:url(#SVGID_4_);fill:#FA8913;}
	.st121{clip-path:url(#SVGID_4_);fill:#FA8812;}
	.st122{clip-path:url(#SVGID_4_);fill:#FA8712;}
	.st123{clip-path:url(#SVGID_4_);fill:#FA8612;}
	.st124{clip-path:url(#SVGID_4_);fill:#F98512;}
	.st125{clip-path:url(#SVGID_4_);fill:#F98412;}
	.st126{clip-path:url(#SVGID_4_);fill:#F98312;}
	.st127{clip-path:url(#SVGID_4_);fill:#F98212;}
	.st128{clip-path:url(#SVGID_4_);fill:#F98112;}
	.st129{clip-path:url(#SVGID_4_);fill:#F98012;}
	.st130{clip-path:url(#SVGID_4_);fill:#F97F12;}
	.st131{clip-path:url(#SVGID_4_);fill:#F97E12;}
	.st132{clip-path:url(#SVGID_4_);fill:#F97D12;}
	.st133{clip-path:url(#SVGID_4_);fill:#F97C12;}
	.st134{clip-path:url(#SVGID_4_);fill:#F97B12;}
	.st135{clip-path:url(#SVGID_4_);fill:#F97A12;}
	.st136{clip-path:url(#SVGID_4_);fill:#F97912;}
	.st137{clip-path:url(#SVGID_4_);fill:#F97812;}
	.st138{clip-path:url(#SVGID_4_);fill:#F97712;}
	.st139{clip-path:url(#SVGID_4_);fill:#F97612;}
	.st140{clip-path:url(#SVGID_4_);fill:#F97511;}
	.st141{clip-path:url(#SVGID_4_);fill:#F97411;}
	.st142{clip-path:url(#SVGID_4_);fill:#F97311;}
	.st143{clip-path:url(#SVGID_4_);fill:#F97211;}
	.st144{clip-path:url(#SVGID_4_);fill:#F97111;}
	.st145{clip-path:url(#SVGID_4_);fill:#F97011;}
	.st146{clip-path:url(#SVGID_4_);fill:#F96F11;}
	.st147{clip-path:url(#SVGID_4_);fill:#F96E11;}
	.st148{clip-path:url(#SVGID_4_);fill:#F96D11;}
	.st149{clip-path:url(#SVGID_4_);fill:#F96C11;}
	.st150{clip-path:url(#SVGID_4_);fill:#F96B11;}
	.st151{clip-path:url(#SVGID_4_);fill:#F96A11;}
	.st152{clip-path:url(#SVGID_4_);fill:#F96911;}
	.st153{clip-path:url(#SVGID_4_);fill:#F96811;}
	.st154{clip-path:url(#SVGID_4_);fill:#F96711;}
	.st155{clip-path:url(#SVGID_4_);fill:#F96611;}
	.st156{clip-path:url(#SVGID_4_);fill:#F96511;}
	.st157{clip-path:url(#SVGID_4_);fill:#F96411;}
	.st158{clip-path:url(#SVGID_4_);fill:#F96311;}
	.st159{clip-path:url(#SVGID_4_);fill:#F96210;}
	.st160{clip-path:url(#SVGID_4_);fill:#F86110;}
	.st161{clip-path:url(#SVGID_4_);fill:#F86010;}
	.st162{clip-path:url(#SVGID_4_);fill:#F85F10;}
	.st163{clip-path:url(#SVGID_4_);fill:#F85E10;}
	.st164{clip-path:url(#SVGID_4_);fill:#F85D10;}
	.st165{clip-path:url(#SVGID_4_);fill:#F85C10;}
	.st166{clip-path:url(#SVGID_4_);fill:#F85B10;}
	.st167{clip-path:url(#SVGID_4_);fill:#F85A10;}
	.st168{clip-path:url(#SVGID_4_);fill:#F85910;}
	.st169{clip-path:url(#SVGID_4_);fill:#F85810;}
	.st170{clip-path:url(#SVGID_4_);fill:#F85710;}
	.st171{clip-path:url(#SVGID_4_);fill:#F85610;}
	.st172{clip-path:url(#SVGID_4_);fill:#F85510;}
	.st173{clip-path:url(#SVGID_4_);fill:#F85410;}
	.st174{clip-path:url(#SVGID_4_);fill:#F85310;}
	.st175{clip-path:url(#SVGID_4_);fill:#F85210;}
	.st176{clip-path:url(#SVGID_4_);fill:#F85110;}
	.st177{clip-path:url(#SVGID_4_);fill:#F85010;}
	.st178{clip-path:url(#SVGID_4_);fill:#F84F0F;}
	.st179{clip-path:url(#SVGID_4_);fill:#F84E0F;}
	.st180{clip-path:url(#SVGID_4_);fill:#F84D0F;}
	.st181{clip-path:url(#SVGID_4_);fill:#F84C0F;}
	.st182{clip-path:url(#SVGID_4_);fill:#F84B0F;}
	.st183{clip-path:url(#SVGID_4_);fill:#F84A0F;}
	.st184{clip-path:url(#SVGID_4_);fill:#F8490F;}
	.st185{clip-path:url(#SVGID_4_);fill:#F8480F;}
	.st186{clip-path:url(#SVGID_4_);fill:#F8470F;}
	.st187{clip-path:url(#SVGID_4_);fill:#F8460F;}
	.st188{clip-path:url(#SVGID_4_);fill:#F8450F;}
	.st189{clip-path:url(#SVGID_4_);fill:#F8440F;}
	.st190{clip-path:url(#SVGID_4_);fill:#F8430F;}
	.st191{clip-path:url(#SVGID_4_);fill:#F8420F;}
	.st192{clip-path:url(#SVGID_4_);fill:#F8410F;}
	.st193{clip-path:url(#SVGID_4_);fill:#F8400F;}
	.st194{clip-path:url(#SVGID_4_);fill:#F83F0F;}
	.st195{clip-path:url(#SVGID_4_);fill:#F83E0E;}
	.st196{clip-path:url(#SVGID_4_);fill:#F83D0E;}
	.st197{clip-path:url(#SVGID_4_);fill:#F83C0E;}
	.st198{clip-path:url(#SVGID_4_);fill:#F83B0E;}
	.st199{clip-path:url(#SVGID_4_);fill:#F73A0E;}
	.st200{clip-path:url(#SVGID_4_);fill:#F7390E;}
	.st201{clip-path:url(#SVGID_4_);fill:#F7380E;}
	.st202{clip-path:url(#SVGID_4_);fill:#F7370E;}
	.st203{clip-path:url(#SVGID_4_);fill:#F7360E;}
	.st204{clip-path:url(#SVGID_4_);fill:#F7340E;}
	.st205{clip-path:url(#SVGID_4_);fill:#F7330E;}
	.st206{clip-path:url(#SVGID_4_);fill:#F7320E;}
	.st207{clip-path:url(#SVGID_4_);fill:#F7310E;}
	.st208{clip-path:url(#SVGID_4_);fill:#F7300E;}
	.st209{clip-path:url(#SVGID_4_);fill:#F72F0E;}
	.st210{clip-path:url(#SVGID_4_);fill:#F72E0E;}
	.st211{clip-path:url(#SVGID_4_);fill:#F72D0E;}
	.st212{clip-path:url(#SVGID_4_);fill:#F72C0E;}
	.st213{clip-path:url(#SVGID_4_);fill:#F72B0E;}
	.st214{clip-path:url(#SVGID_4_);fill:#F72B0D;}
	.st215{clip-path:url(#SVGID_4_);fill:#F72A0D;}
	.st216{clip-path:url(#SVGID_4_);fill:#F7290D;}
	.st217{clip-path:url(#SVGID_4_);fill:#F7280D;}
	.st218{clip-path:url(#SVGID_4_);fill:#F7270D;}
	.st219{clip-path:url(#SVGID_4_);fill:#F7260D;}
</style>
<g>
	<g>
		<path class="st0" d="M14.533,13.421c0.785,0,1.559,0.076,2.314,0.226c0.755,0.149,1.49,0.371,2.197,0.663
			c0.707,0.292,1.387,0.653,2.029,1.08c0.643,0.427,1.249,0.921,1.811,1.477l0.076-0.076l0.076-0.076l0.076-0.076l0.076-0.076
			c-0.578-0.578-1.203-1.09-1.868-1.534c-0.664-0.444-1.368-0.818-2.101-1.121c-0.733-0.303-1.496-0.533-2.281-0.687
			c-0.784-0.155-1.59-0.234-2.407-0.234c-0.818,0-1.623,0.079-2.407,0.234c-0.784,0.155-1.547,0.385-2.281,0.687
			s-1.436,0.677-2.101,1.121c-0.664,0.444-1.29,0.956-1.868,1.534l0.076,0.076l0.076,0.076l0.076,0.076l0.076,0.076
			c0.561-0.556,1.168-1.049,1.811-1.477c0.643-0.427,1.322-0.788,2.029-1.08c0.707-0.292,1.442-0.514,2.197-0.663
			C12.974,13.497,13.748,13.421,14.533,13.421z"/>
	</g>
	<g>
		<path class="st0" d="M17.499,22.23c-0.202-0.196-0.418-0.371-0.647-0.522c-0.229-0.151-0.47-0.279-0.721-0.383
			c-0.251-0.104-0.511-0.183-0.778-0.236s-0.541-0.08-0.819-0.08s-0.553,0.027-0.822,0.08c-0.269,0.053-0.531,0.132-0.783,0.236
			c-0.252,0.104-0.494,0.232-0.722,0.383c-0.228,0.151-0.442,0.326-0.638,0.522l0.076,0.076l0.076,0.076l0.076,0.076l0.076,0.076
			c0.18-0.174,0.373-0.33,0.578-0.465c0.205-0.135,0.421-0.249,0.646-0.342c0.225-0.093,0.459-0.164,0.699-0.211
			c0.24-0.048,0.487-0.072,0.738-0.072c0.251,0,0.497,0.025,0.738,0.072c0.24,0.048,0.474,0.119,0.699,0.211
			c0.225,0.093,0.441,0.207,0.646,0.342c0.205,0.135,0.398,0.29,0.578,0.465l0.076-0.076l0.076-0.076l0.076-0.076L17.499,22.23z"/>
	</g>
	<g>
		<path class="st0" d="M14.272,24.672l0.016,0.109l0.016,0.109l0.016,0.109l0.016,0.109c0.033-0.005,0.065-0.01,0.098-0.012
			c0.033-0.003,0.065-0.004,0.098-0.004c0.033,0,0.065,0.001,0.098,0.004c0.033,0.003,0.065,0.007,0.098,0.012l0.016-0.109
			l0.016-0.109l0.016-0.109l0.016-0.109c-0.044-0.005-0.087-0.01-0.131-0.012c-0.044-0.003-0.087-0.004-0.131-0.004
			c-0.044,0-0.087,0.001-0.131,0.004C14.359,24.662,14.315,24.666,14.272,24.672z"/>
	</g>
	<g>
		<path class="st0" d="M20.355,19.395c-0.387-0.387-0.807-0.73-1.253-1.028c-0.446-0.297-0.919-0.549-1.412-0.752
			s-1.007-0.358-1.535-0.462c-0.528-0.104-1.07-0.157-1.621-0.157s-1.092,0.053-1.618,0.157s-1.038,0.259-1.53,0.462
			c-0.492,0.203-0.964,0.454-1.411,0.752c-0.447,0.297-0.87,0.641-1.262,1.028l0.076,0.076l0.076,0.076l0.076,0.076L9.017,19.7
			c0.371-0.365,0.77-0.69,1.193-0.971c0.423-0.281,0.87-0.519,1.336-0.711s0.951-0.339,1.451-0.437s1.013-0.149,1.536-0.149
			s1.037,0.05,1.536,0.149c0.499,0.098,0.985,0.245,1.451,0.437c0.466,0.192,0.913,0.43,1.336,0.711
			c0.423,0.281,0.822,0.605,1.193,0.971l0.076-0.076l0.076-0.076l0.076-0.076L20.355,19.395z"/>
	</g>
</g>
<g>
	<path class="st0" d="M29.887,29.905h-7.432h-7.432H7.591H0.159v-7.432v-7.432V7.608V0.176h7.432h7.432h7.432h7.432v7.432v7.432
		v7.432V29.905z M0.409,29.655h7.307h7.307h7.307h7.307v-7.307v-7.307V7.733V0.426H22.33h-7.307H7.716H0.409v7.307v7.307v7.307
		V29.655z"/>
</g>
</svg>
